<svg version="1.1" width="80.000000" height="115.000000" viewBox="0.000000 0.000000 80.000000 115.000000" xmlns="http://www.w3.org/2000/svg" xmlns:xlink="http://www.w3.org/1999/xlink" overflow="hidden"><g id="CARDS"><rect x="1.000000" y="1.000000" width="78.000000" height="78.000000" fill="#232F3E"/><path d=" M 0.000000 0.000000 L 0.000000 80.000000 L 0.000000 80.000000 L 0.000000 115.000000 L 80.000000 115.000000 L 80.000000 80.000000 L 80.000000 80.000000 L 80.000000 0.000000 Z M 1.000000 1.000000 L 79.000000 1.000000 L 79.000000 79.000000 L 1.000000 79.000000 Z" fill="#FFFFFF"/></g><g id="TEXT_-_EDIT"><path d=" M 23.129999 92.349998 L 22.690001 90.529999 L 20.690001 90.529999 L 20.270000 92.349998 L 18.500000 92.349998 L 20.809999 84.720001 L 22.680000 84.720001 L 25.000000 92.349998 Z M 21.000000 89.430000 L 22.490000 89.430000 L 21.730000 86.269997 Z" fill="#232F3E"/><path d=" M 28.160000 92.250000 C 27.839802 92.366165 27.500456 92.420456 27.160000 92.410004 C 26.772062 92.420113 26.396673 92.272125 26.119999 92.000000 C 25.860098 91.687485 25.734289 91.284897 25.769999 90.879997 L 25.770000 84.209999 L 27.420000 84.209999 L 27.420000 90.750000 C 27.407122 90.887192 27.431295 91.025330 27.490000 91.150002 C 27.570696 91.239822 27.690144 91.284615 27.809999 91.270004 C 27.926470 91.279564 28.043528 91.279564 28.160000 91.270004 Z" fill="#232F3E"/><path d=" M 30.270000 89.919998 C 30.267796 90.309822 30.394344 90.689461 30.630001 91.000000 C 30.925566 91.246262 31.306881 91.364975 31.690001 91.330002 C 31.919249 91.324608 32.147243 91.294434 32.369999 91.240005 C 32.644558 91.188942 32.915215 91.118774 33.180000 91.030006 L 33.180000 92.029999 C 32.917084 92.174767 32.633930 92.279266 32.340000 92.339996 C 32.011600 92.412567 31.676321 92.449448 31.340000 92.449997 C 29.620001 92.449997 28.760000 91.449997 28.760000 89.500000 C 28.706963 88.715630 28.929819 87.937401 29.389999 87.300003 C 29.847765 86.774681 30.524765 86.493523 31.219999 86.540001 C 32.580002 86.540001 33.220001 87.300003 33.220001 88.830002 C 33.219128 89.166870 33.178856 89.502487 33.100002 89.830002 Z M 31.190001 87.599998 C 30.610001 87.599998 30.299999 88.059998 30.270000 88.970001 L 31.889999 88.970001 L 31.889999 88.720001 C 31.910442 88.423340 31.851778 88.126572 31.719999 87.860001 C 31.601135 87.686409 31.400032 87.587753 31.189999 87.599998 Z" fill="#232F3E"/><path d=" M 37.240002 92.349998 L 36.240002 90.559998 L 35.380001 92.349998 L 33.750000 92.349998 L 35.480000 89.519997 L 33.779999 86.720001 L 35.549999 86.720001 L 36.450001 88.449997 L 37.279999 86.720001 L 38.910000 86.720001 L 37.209999 89.519997 L 39.000000 92.349998 Z" fill="#232F3E"/><path d=" M 42.669998 92.349998 L 42.520000 91.839996 C 42.369305 92.046989 42.165443 92.209389 41.930000 92.309998 C 41.687038 92.428444 41.420296 92.489998 41.150002 92.489998 C 40.715126 92.494102 40.298275 92.316490 40.000000 92.000000 C 39.389267 91.252548 39.432175 90.166916 40.099998 89.470001 C 40.489616 89.140472 40.990459 88.972328 41.500000 89.000000 C 41.814030 89.006668 42.126179 89.050301 42.430000 89.129997 L 42.430000 88.620003 C 42.452145 88.350067 42.396629 88.079422 42.270000 87.840004 C 42.104797 87.688873 41.882614 87.616028 41.660000 87.640007 C 41.055336 87.663467 40.458084 87.781563 39.889999 87.990005 L 39.889999 87.000000 C 40.172703 86.839798 40.480320 86.728241 40.799999 86.669998 C 41.195576 86.596748 41.597923 86.566574 42.000000 86.580002 C 42.543606 86.534035 43.085007 86.690750 43.520000 87.020004 C 43.868397 87.395195 44.042641 87.899780 44.000000 88.410004 L 44.000000 92.349998 Z M 41.669998 91.430000 C 41.971382 91.418922 42.257317 91.293823 42.469997 91.080002 L 42.470001 90.000000 C 42.264061 89.948677 42.052181 89.925140 41.840000 89.930000 C 41.642250 89.913605 41.447620 89.987053 41.310001 90.129997 C 41.170948 90.293694 41.102604 90.505920 41.120003 90.719994 C 41.109715 90.905304 41.162594 91.088631 41.270004 91.239990 C 41.354931 91.354698 41.487381 91.424606 41.630005 91.429993 Z" fill="#232F3E"/><path d=" M 48.090000 92.349998 L 48.090000 87.820000 L 47.310001 87.820000 L 47.310001 86.900002 L 48.090000 86.750000 L 48.090000 86.089996 C 48.046177 85.534058 48.218063 84.982582 48.570000 84.549995 C 48.975151 84.189583 49.509285 84.009132 50.049999 84.049995 C 50.423466 84.049156 50.793579 84.120461 51.139999 84.259995 L 51.139999 85.260002 C 50.933060 85.214485 50.721882 85.191025 50.509998 85.190002 C 50.293739 85.164169 50.075737 85.221352 49.899998 85.350006 C 49.771595 85.529663 49.714565 85.750648 49.739998 85.970009 L 49.740002 86.709999 L 51.080002 86.709999 L 51.080002 87.809998 L 49.740002 87.809998 L 49.740002 92.339996 Z" fill="#232F3E"/><path d=" M 54.000000 92.489998 C 53.301231 92.527954 52.623463 92.244324 52.160000 91.720001 C 51.293983 90.392052 51.293983 88.677956 52.160000 87.349998 C 53.171749 86.331032 54.817966 86.325180 55.836933 87.336929 C 55.841305 87.341270 55.845661 87.345627 55.850002 87.349998 C 56.716019 88.677948 56.716019 90.392044 55.850002 91.720001 C 55.382557 92.244698 54.701687 92.528084 54.000004 92.489998 Z M 54.000000 91.339996 C 54.286320 91.350388 54.547558 91.177567 54.650002 90.909996 C 54.916798 90.016144 54.916798 89.063843 54.650002 88.169998 C 54.550919 87.898483 54.288895 87.721115 54.000000 87.729996 C 53.712864 87.719078 53.452625 87.897987 53.360001 88.169998 C 53.093204 89.063850 53.093204 90.016151 53.360001 90.909996 C 53.456112 91.178047 53.715508 91.352325 54.000000 91.339996 Z" fill="#232F3E"/><path d=" M 57.689999 92.349998 L 57.689999 86.720001 L 59.000000 86.720001 L 59.180000 87.449997 C 59.380947 87.209991 59.625179 87.009857 59.900002 86.860001 C 60.129921 86.734291 60.387959 86.668915 60.650002 86.669998 C 60.779812 86.660080 60.910191 86.660080 61.040001 86.669998 L 61.040001 88.000000 C 60.826885 87.986336 60.613117 87.986336 60.400002 88.000000 C 60.018166 88.000481 59.641644 88.089478 59.300003 88.260002 L 59.299999 92.370003 Z" fill="#232F3E"/><path d=" M 20.440001 106.349998 L 20.440001 98.720001 L 23.000000 98.720001 C 23.597332 98.695900 24.182158 98.895592 24.639999 99.279999 C 25.063221 99.649055 25.298197 100.188759 25.279999 100.750000 C 25.294203 101.100403 25.207428 101.447510 25.029999 101.750000 C 24.851505 102.024216 24.593233 102.237114 24.289999 102.360001 C 25.131163 102.571098 25.699999 103.354828 25.639999 104.220001 C 25.663864 104.820930 25.404778 105.398331 24.939999 105.779999 C 24.407732 106.194824 23.743956 106.404251 23.069998 106.369995 Z M 22.000000 99.820000 L 22.000000 101.930000 L 22.680000 101.930000 C 22.929180 101.942482 23.171015 101.843552 23.340000 101.660004 C 23.511993 101.441597 23.597441 101.167458 23.580000 100.890007 C 23.596766 100.610947 23.523125 100.333908 23.370001 100.100006 C 23.233633 99.917992 23.017340 99.813576 22.790001 99.820007 Z M 22.000000 103.000000 L 22.000000 105.269997 L 23.000000 105.269997 C 23.265133 105.283875 23.522360 105.177307 23.700001 104.979996 C 23.884501 104.740623 23.973587 104.441299 23.950001 104.139999 C 23.970964 103.835747 23.874313 103.535057 23.680000 103.300003 C 23.476252 103.090950 23.191326 102.981361 22.900000 103.000000 Z" fill="#232F3E"/><path d=" M 30.000000 106.349998 L 29.860001 105.839996 C 29.348083 106.235382 28.726244 106.462456 28.080000 106.489998 C 27.697653 106.511559 27.327372 106.352333 27.080000 106.059998 C 26.821697 105.700417 26.697828 105.261566 26.730000 104.820000 L 26.730000 100.720001 L 28.379999 100.720001 L 28.379999 104.339996 C 28.359488 104.603439 28.404135 104.867889 28.509998 105.109993 C 28.602510 105.267639 28.778036 105.357353 28.959999 105.339996 C 29.232058 105.331230 29.495863 105.244446 29.719999 105.089996 L 29.719999 100.720001 L 31.370001 100.720001 L 31.370001 106.349998 Z" fill="#232F3E"/><path d=" M 34.750000 104.769997 C 34.750000 104.519997 34.570000 104.309998 34.230000 104.150002 L 33.509998 103.800003 C 32.830662 103.566200 32.373402 102.928444 32.369999 102.210007 C 32.355637 101.749420 32.564110 101.310135 32.930000 101.030006 C 33.352360 100.712837 33.872471 100.553619 34.400002 100.580009 C 34.929649 100.581734 35.452278 100.701294 35.930000 100.930008 L 35.930000 101.930000 C 35.701050 101.851501 35.467220 101.788033 35.230000 101.739998 C 35.032864 101.696541 34.831844 101.673088 34.630001 101.669998 C 34.110001 101.669998 33.860001 101.849998 33.860001 102.209999 C 33.860001 102.570000 34.070000 102.660004 34.490002 102.870003 L 35.220001 103.209999 C 35.526878 103.345100 35.792538 103.559013 35.990002 103.830002 C 36.158264 104.110268 36.241631 104.433311 36.230003 104.760002 C 36.250191 105.245102 36.047626 105.712845 35.680004 106.029999 C 35.251671 106.351402 34.724976 106.514008 34.190002 106.489998 C 33.556370 106.495338 32.931217 106.344200 32.370003 106.049995 L 32.369999 105.050003 C 32.889221 105.247826 33.435421 105.365837 33.989998 105.400002 C 34.191326 105.415108 34.391041 105.354477 34.549999 105.230003 C 34.684174 105.115822 34.758007 104.946007 34.750000 104.770004 Z" fill="#232F3E"/><path d=" M 38.000000 99.809998 C 37.744759 99.822983 37.493183 99.745026 37.290001 99.589996 C 37.118065 99.434639 37.023006 99.211624 37.030003 98.979996 C 37.020195 98.747849 37.115738 98.523689 37.290001 98.369995 C 37.488117 98.204575 37.742519 98.122162 38.000000 98.139992 C 38.254101 98.124771 38.504444 98.207024 38.700001 98.369995 C 38.897549 98.517860 39.009727 98.753433 39.000000 98.999992 C 39.008816 99.234070 38.909195 99.459137 38.730000 99.609993 C 38.522270 99.769730 38.260139 99.841545 38.000000 99.809990 Z M 37.169998 106.349998 L 37.169998 100.720001 L 38.820000 100.720001 L 38.820000 106.349998 Z" fill="#232F3E"/><path d=" M 43.410000 106.349998 L 43.410000 102.650002 C 43.426495 102.408363 43.378166 102.166710 43.270000 101.950005 C 43.152828 101.794846 42.963558 101.711563 42.770000 101.730003 C 42.494217 101.751488 42.228809 101.844559 42.000000 102.000000 L 42.000000 106.360001 L 40.299999 106.360001 L 40.299999 100.730003 L 41.650002 100.730003 L 41.779999 101.239998 C 42.318890 100.845284 42.962650 100.619102 43.629997 100.589996 C 44.028465 100.563766 44.417633 100.717964 44.689999 101.009995 C 44.959728 101.357033 45.091522 101.791595 45.059998 102.229996 L 45.060001 106.360001 Z" fill="#232F3E"/><path d=" M 47.669998 103.919998 C 47.654522 104.306984 47.770870 104.687759 48.000000 105.000000 C 48.294472 105.248260 48.676643 105.367241 49.060001 105.330002 C 49.289204 105.323997 49.517132 105.293831 49.740002 105.240005 C 50.011253 105.188805 50.278576 105.118637 50.540001 105.030006 L 50.540001 106.029999 C 50.280979 106.175522 50.000999 106.280098 49.709999 106.339996 C 49.381474 106.411812 49.046276 106.448685 48.709999 106.449997 C 46.990002 106.449997 46.130001 105.449997 46.130001 103.500000 C 46.076962 102.715630 46.299820 101.937401 46.760002 101.300003 C 47.217766 100.774681 47.894768 100.493523 48.590004 100.540001 C 49.950001 100.540001 50.590000 101.300003 50.590000 102.830002 C 50.589127 103.166870 50.548855 103.502487 50.470001 103.830002 Z M 48.590000 101.599998 C 48.009998 101.599998 47.709999 102.059998 47.669998 102.970001 L 49.290001 102.970001 L 49.290001 102.720001 C 49.310444 102.423340 49.251781 102.126572 49.120003 101.860001 C 49.002514 101.684830 48.800446 101.585701 48.590004 101.599998 Z" fill="#232F3E"/><path d=" M 53.820000 104.769997 C 53.820000 104.519997 53.650002 104.309998 53.299999 104.150002 L 52.580002 103.800003 C 51.900665 103.566200 51.443405 102.928444 51.440002 102.210007 C 51.415714 101.739006 51.625221 101.286316 52.000004 101.000008 C 52.422363 100.682838 52.942474 100.523621 53.470005 100.550011 C 53.999653 100.551735 54.522282 100.671295 55.000004 100.900009 L 55.000000 101.900002 C 54.771049 101.821503 54.537220 101.758034 54.299999 101.709999 C 54.102863 101.666542 53.901844 101.643089 53.700001 101.639999 C 53.180000 101.639999 52.930000 101.820000 52.930000 102.180000 C 52.930000 102.540001 53.139999 102.629997 53.570000 102.839996 L 54.290001 103.180000 C 54.596878 103.315102 54.862537 103.529015 55.060001 103.800003 C 55.228264 104.080269 55.311630 104.403313 55.300003 104.730003 C 55.324760 105.215942 55.121365 105.685608 54.750004 106.000000 C 54.321671 106.321404 53.794975 106.484009 53.260002 106.459999 C 52.626369 106.465340 52.001217 106.314201 51.440002 106.019997 L 51.439999 105.019997 C 51.959522 105.216797 52.505566 105.334770 53.059998 105.369995 C 53.264172 105.382927 53.466267 105.322655 53.629997 105.199997 C 53.750164 105.089172 53.818966 104.933464 53.819996 104.769997 Z" fill="#232F3E"/><path d=" M 58.230000 104.769997 C 58.230000 104.519997 58.060001 104.309998 57.709999 104.150002 L 57.000000 103.800003 C 56.320663 103.566200 55.863403 102.928444 55.860001 102.210007 C 55.845638 101.749420 56.054111 101.310135 56.420002 101.030006 C 56.842361 100.712837 57.362473 100.553619 57.890003 100.580009 C 58.419651 100.581734 58.942280 100.701294 59.420002 100.930008 L 59.419998 101.930000 C 59.191048 101.851501 58.957218 101.788033 58.719997 101.739998 C 58.522861 101.696541 58.321842 101.673088 58.119999 101.669998 C 57.599998 101.669998 57.349998 101.849998 57.349998 102.209999 C 57.349998 102.570000 57.560001 102.660004 57.990002 102.870003 L 58.709999 103.209999 C 59.016876 103.345100 59.282536 103.559013 59.480000 103.830002 C 59.648262 104.110268 59.731628 104.433311 59.720001 104.760002 C 59.740189 105.245102 59.537624 105.712845 59.170002 106.029999 C 58.741669 106.351402 58.214973 106.514008 57.680000 106.489998 C 57.046368 106.495338 56.421215 106.344200 55.860001 106.049995 L 55.860001 105.050003 C 56.379223 105.247826 56.925423 105.365837 57.480000 105.400002 C 57.681328 105.415108 57.881042 105.354477 58.040001 105.230003 C 58.170467 105.113876 58.240490 104.944351 58.230000 104.770004 Z" fill="#232F3E"/></g><g id="ICONS_-_EDIT"><path d=" M 37.730000 58.419998 C 37.177715 58.419998 36.730000 57.972282 36.730000 57.419998 L 36.730000 54.639999 C 36.749775 53.471165 36.220440 52.360664 35.299999 51.639999 C 34.810001 51.290001 33.360001 50.279999 32.840000 49.970001 C 27.440001 46.810001 24.209999 41.560001 24.209999 35.970001 C 24.231453 27.299507 31.219921 20.257555 39.889999 20.170002 L 41.180000 20.219999 L 41.320000 20.219999 C 47.865589 20.767736 53.390686 25.305641 55.200001 31.619999 C 55.200001 31.799999 55.290001 31.920000 55.320000 32.040001 C 55.713963 33.480213 55.912411 34.966877 55.910000 36.459999 C 55.910000 46.389999 48.410000 55.590000 38.070000 58.360001 C 37.959507 58.393658 37.845341 58.413807 37.730000 58.420002 Z M 39.889999 22.080000 C 32.324493 22.167439 26.231361 28.314018 26.209999 35.880001 C 26.209999 40.799999 29.070000 45.410000 33.849998 48.209999 C 34.549999 48.610001 36.400002 49.930000 36.480000 49.980000 C 37.926083 51.089012 38.760838 52.817879 38.730000 54.639999 L 38.730000 56.080002 C 47.599998 53.189999 53.910000 45.080002 53.910000 36.459999 C 53.914883 35.135147 53.736526 33.815987 53.380001 32.540001 L 53.310001 32.270000 C 53.305874 32.233452 53.305874 32.196552 53.310001 32.160000 C 51.760098 26.635389 46.946861 22.650925 41.230000 22.160000 L 41.119999 22.160000 Z" fill="#FFFFFF"/><path d=" M 32.709999 65.000000 C 32.489048 64.999313 32.274548 64.925468 32.099998 64.790001 C 31.854752 64.601212 31.710743 64.309494 31.709999 64.000000 L 31.709999 55.000000 C 21.150221 50.421539 16.301407 38.149570 20.879868 27.589792 C 25.458328 17.030014 37.730297 12.181200 48.290073 16.759661 C 55.896103 20.057449 60.824154 27.549833 60.839996 35.840000 C 60.840000 48.549999 50.970001 60.320000 37.389999 63.840000 L 33.000000 65.000000 C 32.903782 65.013161 32.806217 65.013161 32.709999 65.000000 Z M 40.000000 17.000000 C 29.600485 16.987579 21.159945 25.407980 21.147522 35.807495 C 21.138468 43.387695 25.675579 50.234264 32.660000 53.180000 C 33.282330 53.425728 33.696297 54.021053 33.709999 54.689999 L 33.709999 62.689999 L 36.889999 61.869999 C 49.610001 58.590000 58.889999 47.630001 58.889999 35.869999 C 58.895535 25.453911 50.456116 17.005514 40.040028 16.999977 C 40.026684 16.999969 40.013344 16.999977 40.000000 16.999998 Z" fill="#FFFFFF"/><rect x="31.710000" y="30.000000" width="16.000000" height="2.000000" fill="#FFFFFF"/><rect x="31.710000" y="35.000000" width="19.000000" height="2.000000" fill="#FFFFFF"/><rect x="31.710000" y="40.000000" width="10.000000" height="2.000000" fill="#FFFFFF"/></g></svg>