<svg id="Layer_1" data-name="Layer 1" xmlns="http://www.w3.org/2000/svg" width="50" height="50" viewBox="0 0 50 50"><title>Amazon-EMR_EMR-Engine-MapR-M3_light-bg</title><path d="M15.11,31.59V27L14,30H12.9l-1.09-2.92v4.52H10.64V25.1h1.5l1.34,3.63,1.34-3.63h1.46v6.49Z" style="fill:#693cc5"/><path d="M19.73,31.59l-.11-.43a1.13,1.13,0,0,1-.46.4,1.35,1.35,0,0,1-.61.16,1.18,1.18,0,0,1-.92-.38,1.58,1.58,0,0,1-.34-1.05,1.47,1.47,0,0,1,.42-1.11,1.5,1.5,0,0,1,1.11-.41,3.08,3.08,0,0,1,.72.11v-.43a1.28,1.28,0,0,0-.12-.66.59.59,0,0,0-.48-.17,4.1,4.1,0,0,0-1.37.3v-.85a2.14,2.14,0,0,1,.71-.29,4.43,4.43,0,0,1,.9-.1,1.59,1.59,0,0,1,1.18.37,1.66,1.66,0,0,1,.36,1.19v3.35Zm-.81-.77a.89.89,0,0,0,.62-.3V29.6a1.39,1.39,0,0,0-.48-.07.5.5,0,0,0-.42.18.73.73,0,0,0-.15.5.74.74,0,0,0,.12.44A.37.37,0,0,0,18.92,30.82Z" style="fill:#693cc5"/><path d="M21.81,33.53V26.8h1.05l.1.41a1.64,1.64,0,0,1,.55-.38,1.4,1.4,0,0,1,.61-.15,1.34,1.34,0,0,1,1.18.63,3.4,3.4,0,0,1,.4,1.83A3.52,3.52,0,0,1,25.28,31a1.33,1.33,0,0,1-1.18.67,1.44,1.44,0,0,1-.53-.11,1.39,1.39,0,0,1-.47-.29v2.25Zm1.89-5.89a1,1,0,0,0-.6.2V30.5a1,1,0,0,0,.61.22.55.55,0,0,0,.54-.35,3,3,0,0,0,.17-1.18,3,3,0,0,0-.17-1.2A.55.55,0,0,0,23.7,27.64Z" style="fill:#693cc5"/><path d="M29.6,31.59l-1.13-2.41H28v2.41H26.68V25.1h2.05a1.76,1.76,0,0,1,1.37.55,2,2,0,0,1,.52,1.49,2.4,2.4,0,0,1-.26,1.14,1.7,1.7,0,0,1-.72.71L31,31.59ZM28,28.21h.61a.64.64,0,0,0,.56-.27,1.78,1.78,0,0,0,0-1.6.64.64,0,0,0-.56-.27H28Z" style="fill:#693cc5"/><path d="M38.12,31.59V27L37,30H35.91l-1.09-2.92v4.52H33.65V25.1h1.5l1.34,3.63,1.34-3.63H39.3v6.49Z" style="fill:#693cc5"/><path d="M41.8,31.72a3.25,3.25,0,0,1-1.39-.33v-1a4.38,4.38,0,0,0,.67.22,3.1,3.1,0,0,0,.61.08c.66,0,1-.35,1-1.07s-.35-.91-1-.91a2.56,2.56,0,0,0-.51.05V28l1.35-1.83h-2v-1h3.24v.95l-1.31,1.78a1.67,1.67,0,0,1,1.13.55A1.85,1.85,0,0,1,44,29.62a2,2,0,0,1-.58,1.53A2.15,2.15,0,0,1,41.8,31.72Z" style="fill:#693cc5"/><path d="M32.22,43.38H24.69a5.05,5.05,0,0,1-5.05-4.69H8.82a2.62,2.62,0,0,1-2.63-2.61v-17A3.07,3.07,0,0,1,9.28,16h5.31V14.91a2.61,2.61,0,0,1,2.61-2.6h9.93a2.61,2.61,0,0,1,2.62,2.6V16h4.44a3.08,3.08,0,0,1,3.09,3.06v.84H39.9v-.71A3.08,3.08,0,0,1,43,16.12h2.42a3.07,3.07,0,0,1,3.09,3.06V37.5a3.07,3.07,0,0,1-3.09,3.06H43a3.07,3.07,0,0,1-3.08-3.06v-.69H37.25v1.55A5,5,0,0,1,32.22,43.38ZM9.28,18a1.07,1.07,0,0,0-1.09,1.06v17a.62.62,0,0,0,.63.61H20.63a1,1,0,0,1,1,1v.67a3,3,0,0,0,3.06,3h7.53a3,3,0,0,0,3-3V35.81a1,1,0,0,1,1-1h4.69a1,1,0,0,1,1,1V37.5A1.07,1.07,0,0,0,43,38.56h2.39A1.07,1.07,0,0,0,46.5,37.5V19.18a1.07,1.07,0,0,0-1.09-1.06H43a1.07,1.07,0,0,0-1.09,1.06v1.71a1,1,0,0,1-1,1H36.28a1,1,0,0,1-1-1V19.05A1.07,1.07,0,0,0,34.19,18H28.75a1,1,0,0,1-1-1V14.91a.61.61,0,0,0-.62-.6H17.2a.6.6,0,0,0-.61.6V17a1,1,0,0,1-1,1Z" style="fill:#693cc5"/><rect x="1.5" y="17.06" width="2" height="20.63" style="fill:#693cc5"/><rect x="2.5" y="26.38" width="4.69" height="2" style="fill:#693cc5"/><rect x="15.63" y="7.63" width="13.13" height="2" style="fill:#693cc5"/><rect x="21.19" y="8.63" width="2" height="4.69" style="fill:#693cc5"/></svg>