<svg id="Layer_1" data-name="Layer 1" xmlns="http://www.w3.org/2000/svg" width="50" height="50" viewBox="0 0 50 50"><title>Amazon-CloudSearch_Search-Documents_light-bg</title><polygon points="41.94 11.88 39.94 11.88 39.94 3.5 10.06 3.5 10.06 11.88 8.06 11.88 8.06 1.5 41.94 1.5 41.94 11.88" style="fill:#693cc5"/><polygon points="41.94 48.5 8.06 48.5 8.06 22.19 10.06 22.19 10.06 46.5 39.94 46.5 39.94 22.19 41.94 22.19 41.94 48.5" style="fill:#693cc5"/><rect x="12.81" y="7.13" width="24.38" height="2" style="fill:#693cc5"/><rect x="12.93" y="12.75" width="24.26" height="2" style="fill:#693cc5"/><rect x="12.81" y="18.38" width="24.38" height="2" style="fill:#693cc5"/><rect x="12.81" y="24" width="24.38" height="2" style="fill:#693cc5"/><rect x="12.81" y="29.63" width="24.38" height="2" style="fill:#693cc5"/><rect x="12.81" y="35.25" width="24.38" height="2" style="fill:#693cc5"/><rect x="12.81" y="40.88" width="24.38" height="2" style="fill:#693cc5"/><path d="M5.31,22.25a.87.87,0,0,1-.44-.11,1,1,0,0,1-.56-.89V12.81a1,1,0,0,1,1.6-.8l5.63,4.22a1,1,0,0,1,.4.8,1,1,0,0,1-.4.8L5.91,22.05A1,1,0,0,1,5.31,22.25Zm1-7.44v4.44l3-2.22Z" style="fill:#693cc5"/><path d="M44.69,22.25a1,1,0,0,1-.6-.2l-5.63-4.22a1,1,0,0,1-.4-.8,1,1,0,0,1,.4-.8L44.09,12a1,1,0,0,1,1.6.8v8.44a1,1,0,0,1-.56.89A.87.87,0,0,1,44.69,22.25Zm-4-5.22,3,2.22V14.81Z" style="fill:#693cc5"/></svg>