<svg version="1.1" viewBox="0.000000 0.000000 80.000000 115.000000" xmlns="http://www.w3.org/2000/svg" xmlns:xlink="http://www.w3.org/1999/xlink" overflow="hidden"><defs></defs><g id="CARDS"><rect x="1.000000" y="1.000000" width="78.000000" height="78.000000" fill="#232F3E"/><path d=" M 0.000000 0.000000 L 0.000000 80.000000 L 0.000000 80.000000 L 0.000000 115.000000 L 80.000000 115.000000 L 80.000000 80.000000 L 80.000000 80.000000 L 80.000000 0.000000 Z M 1.000000 1.000000 L 79.000000 1.000000 L 79.000000 79.000000 L 1.000000 79.000000 Z" fill="#FFFFFF"/></g><g id="TEXT_-_EDIT"><path d=" M 25.350000 92.349998 L 24.920000 90.529999 L 22.920000 90.529999 L 22.500000 92.349998 L 20.719999 92.349998 L 23.000000 84.720001 L 24.900000 84.720001 L 27.209999 92.349998 Z M 23.170000 89.430000 L 24.660000 89.430000 L 23.900000 86.269997 Z" fill="#232F3E"/><path d=" M 34.060001 92.349998 L 34.060001 88.639999 C 34.076664 88.401566 34.028278 88.163086 33.920002 87.949997 C 33.819908 87.796371 33.642418 87.711487 33.460003 87.729996 C 33.174831 87.743271 32.898491 87.833084 32.660004 87.989998 C 32.664822 88.029854 32.664822 88.070145 32.660004 88.110001 L 32.660000 92.349998 L 31.000000 92.349998 L 31.000000 88.639999 C 31.019257 88.402504 30.974358 88.164200 30.870001 87.949997 C 30.765142 87.796478 30.585056 87.712181 30.400002 87.729996 C 30.121338 87.744865 29.851856 87.834694 29.620001 87.989998 L 29.620001 92.349998 L 28.000000 92.349998 L 28.000000 86.720001 L 29.350000 86.720001 L 29.480000 87.230003 C 30.005705 86.838974 30.635632 86.612755 31.289999 86.580002 C 31.787903 86.543671 32.259682 86.807076 32.489998 87.250000 C 33.020988 86.851845 33.657448 86.618820 34.320000 86.580002 C 34.698605 86.567619 35.063778 86.720993 35.320000 87.000000 C 35.580429 87.351334 35.707973 87.783562 35.680000 88.220001 L 35.680000 92.349998 Z" fill="#232F3E"/><path d=" M 40.000000 92.349998 L 39.860001 91.839996 C 39.704742 92.042564 39.502155 92.203949 39.270000 92.309998 C 39.023094 92.427322 38.753361 92.488777 38.480000 92.489998 C 38.038441 92.498497 37.613724 92.320625 37.310001 92.000000 C 37.006588 91.668808 36.851307 91.228241 36.880001 90.779999 C 36.856857 90.286880 37.050484 89.808296 37.410000 89.470001 C 37.807274 89.133095 38.320316 88.964470 38.840000 89.000000 C 39.154030 89.006668 39.466179 89.050301 39.770000 89.129997 L 39.770000 88.620003 C 39.797573 88.349762 39.741737 88.077560 39.610001 87.840004 C 39.445477 87.687714 39.222755 87.614693 39.000000 87.640007 C 38.395546 87.665237 37.798565 87.783279 37.230000 87.990005 L 37.230000 87.000000 C 37.516563 86.840446 37.827354 86.728966 38.149998 86.669998 C 38.528015 86.589485 38.913502 86.549255 39.299999 86.549995 C 39.843796 86.502090 40.385880 86.659012 40.820000 86.989998 C 41.164772 87.366852 41.335323 87.871239 41.290001 88.379997 L 41.290001 92.320000 Z M 39.000000 91.430000 C 39.298344 91.418404 39.580971 91.293190 39.790001 91.080002 L 39.790001 90.000000 C 39.587475 89.948616 39.378887 89.925064 39.170002 89.930000 C 38.969070 89.911972 38.770714 89.985435 38.630001 90.129997 C 38.490948 90.293694 38.422604 90.505920 38.440002 90.719994 C 38.429714 90.905304 38.482594 91.088631 38.590004 91.239990 C 38.687565 91.366325 38.840549 91.437218 39.000004 91.429993 Z" fill="#232F3E"/><path d=" M 42.279999 92.349998 L 42.279999 91.279999 L 44.770000 87.879997 L 42.369999 87.879997 L 42.369999 86.720001 L 46.509998 86.720001 L 46.509998 87.790001 L 44.000000 91.190002 L 46.540001 91.190002 L 46.540001 92.349998 Z" fill="#232F3E"/><path d=" M 49.790001 92.489998 C 49.108715 92.511253 48.453094 92.229225 48.000000 91.720001 C 47.133984 90.392052 47.133984 88.677956 48.000000 87.349998 C 49.011749 86.331032 50.657967 86.325180 51.676933 87.336929 C 51.681305 87.341270 51.685661 87.345627 51.690002 87.349998 C 52.556019 88.677948 52.556019 90.392044 51.690002 91.720001 C 51.211487 92.259041 50.508781 92.543823 49.790001 92.489998 Z M 49.790001 91.339996 C 50.076321 91.350388 50.337559 91.177567 50.440002 90.909996 C 50.706799 90.016144 50.706799 89.063843 50.440002 88.169998 C 50.304638 87.813774 49.906124 87.634735 49.549900 87.770103 C 49.365585 87.840141 49.220043 87.985687 49.150002 88.169998 C 48.883205 89.063850 48.883205 90.016151 49.150002 90.909996 C 49.248730 91.175995 49.506416 91.349129 49.790001 91.339996 Z" fill="#232F3E"/><path d=" M 56.549999 92.349998 L 56.549999 88.650002 C 56.566494 88.408363 56.518166 88.166710 56.410000 87.950005 C 56.294102 87.793236 56.103878 87.709541 55.910000 87.730003 C 55.621128 87.739960 55.340698 87.829971 55.099998 87.990005 L 55.099998 92.349998 L 53.439999 92.349998 L 53.439999 86.720001 L 54.790001 86.720001 L 54.930000 87.230003 C 55.464371 86.833908 56.105400 86.607452 56.770000 86.580002 C 57.171432 86.553581 57.563728 86.707565 57.840000 87.000000 C 58.102020 87.350540 58.229740 87.783371 58.200001 88.220001 L 58.200001 92.349998 Z" fill="#232F3E"/><path d=" M 27.570000 106.349998 L 27.139999 104.529999 L 25.139999 104.529999 L 24.719999 106.349998 L 23.000000 106.349998 L 25.309999 98.720001 L 27.180000 98.720001 L 29.480000 106.349998 Z M 25.389999 103.430000 L 26.889999 103.430000 L 26.129999 100.269997 Z" fill="#232F3E"/><path d=" M 33.250000 106.199997 C 32.856689 106.347153 32.439934 106.421692 32.020000 106.419998 C 31.547684 106.464508 31.076893 106.320755 30.710001 106.019997 C 30.405264 105.658775 30.257635 105.190689 30.300001 104.719994 L 30.299999 101.820000 L 29.559999 101.820000 L 29.559999 100.900002 L 30.340000 100.750000 L 30.580000 99.209999 L 32.000000 99.209999 L 32.000000 100.720001 L 33.270000 100.720001 L 33.270000 101.820000 L 32.000000 101.820000 L 32.000000 104.589996 C 31.979702 104.774757 32.029682 104.960396 32.139999 105.109993 C 32.286587 105.234970 32.478745 105.292976 32.669998 105.269997 C 32.882236 105.265694 33.093422 105.238876 33.299999 105.189995 Z" fill="#232F3E"/><path d=" M 37.230000 106.349998 L 37.230000 102.650002 C 37.251221 102.408081 37.202633 102.165154 37.090000 101.950005 C 36.977306 101.794876 36.790810 101.711143 36.599998 101.730003 C 36.307789 101.738640 36.023796 101.828682 35.779999 101.990005 L 35.779999 106.349998 L 34.130001 106.349998 L 34.130001 98.209999 L 35.779999 98.209999 L 35.779999 101.120003 C 36.275223 100.787392 36.853790 100.600311 37.449997 100.580002 C 37.851429 100.553581 38.243725 100.707565 38.519997 101.000000 C 38.785576 101.349174 38.916882 101.782127 38.889996 102.220001 L 38.889999 106.349998 Z" fill="#232F3E"/><path d=" M 41.500000 103.919998 C 41.479252 104.324760 41.607300 104.723129 41.860001 105.040001 C 42.155567 105.286263 42.536880 105.404976 42.920002 105.370003 C 43.149250 105.364609 43.377243 105.334435 43.600002 105.280006 C 43.871529 105.230042 44.138943 105.159843 44.400002 105.070007 L 44.400002 106.070000 C 44.141762 106.217194 43.861507 106.321869 43.570000 106.379997 C 43.241474 106.451813 42.906277 106.488686 42.570000 106.489998 C 40.849998 106.489998 40.000000 105.489998 40.000000 103.540001 C 39.946960 102.755630 40.169819 101.977402 40.630001 101.340004 C 41.084652 100.816292 41.757927 100.535149 42.450001 100.580002 C 43.820000 100.580002 44.450001 101.339996 44.450001 102.870003 C 44.449127 103.206871 44.408855 103.542488 44.330002 103.870003 Z M 42.410000 101.599998 C 41.840000 101.599998 41.529999 102.059998 41.500000 102.970001 L 43.110001 102.970001 L 43.110001 102.720001 C 43.135040 102.423065 43.076134 102.125076 42.940002 101.860001 C 42.823956 101.683182 42.620861 101.583549 42.410004 101.599998 Z" fill="#232F3E"/><path d=" M 48.750000 106.349998 L 48.750000 102.650002 C 48.766495 102.408363 48.718166 102.166710 48.610001 101.950005 C 48.494102 101.793236 48.303879 101.709541 48.110001 101.730003 C 47.817970 101.739677 47.534252 101.829636 47.290001 101.990005 L 47.290001 106.349998 L 45.639999 106.349998 L 45.639999 100.720001 L 47.000000 100.720001 L 47.139999 101.230003 C 47.674370 100.833908 48.315399 100.607452 48.980000 100.580002 C 49.364296 100.568367 49.735317 100.721146 50.000000 101.000000 C 50.262020 101.350540 50.389740 101.783371 50.360001 102.220001 L 50.360001 106.349998 Z" fill="#232F3E"/><path d=" M 54.700001 106.349998 L 54.560001 105.839996 C 54.406902 106.044678 54.203724 106.206528 53.970001 106.309998 C 53.726254 106.426201 53.460022 106.487640 53.190002 106.489998 C 52.740829 106.508179 52.306137 106.329185 52.000004 106.000000 C 51.693974 105.669823 51.535172 105.229507 51.560005 104.779999 C 51.536861 104.286880 51.730488 103.808296 52.090004 103.470001 C 52.487278 103.133095 53.000320 102.964470 53.520004 103.000000 C 53.834034 103.006668 54.146183 103.050301 54.450005 103.129997 L 54.450001 102.620003 C 54.477573 102.349762 54.421738 102.077560 54.290001 101.840004 C 54.125477 101.687714 53.902756 101.614693 53.680000 101.640007 C 53.075546 101.665237 52.478565 101.783279 51.910000 101.990005 L 51.910000 100.989998 C 52.196564 100.830444 52.507355 100.718964 52.829998 100.659996 C 53.208015 100.579483 53.593502 100.539253 53.980000 100.539993 C 54.523796 100.492088 55.065880 100.649010 55.500000 100.979996 C 55.844772 101.356850 56.015324 101.861237 55.970001 102.369995 L 55.970001 106.309998 Z M 53.700001 105.430000 C 53.998344 105.418404 54.280972 105.293190 54.490002 105.080002 L 54.490002 104.000000 C 54.287590 103.947983 54.078915 103.924423 53.870003 103.930000 C 53.669071 103.911972 53.470715 103.985435 53.330002 104.129997 C 53.194664 104.295738 53.126816 104.506424 53.140003 104.719994 C 53.129715 104.905304 53.182594 105.088631 53.290005 105.239990 C 53.381199 105.357796 53.521042 105.427719 53.670006 105.429993 Z" fill="#232F3E"/></g><g id="ICONS_-_EDIT"><path d=" M 39.160000 56.000000 C 30.052824 55.999992 22.670006 48.617165 22.670012 39.509987 C 22.670019 30.402811 30.052849 23.019993 39.160023 23.019999 C 48.259384 23.020006 55.638962 30.390644 55.649998 39.489998 C 55.650005 48.600414 48.270409 55.988960 39.159996 55.999996 Z M 39.160000 25.000000 C 31.157394 25.000000 24.670000 31.487394 24.670000 39.490002 C 24.670000 47.492607 31.157394 53.980003 39.160000 53.980003 C 47.162605 53.980003 53.650002 47.492611 53.650002 39.490002 C 53.638985 31.491962 47.158039 25.011019 39.160000 25.000002 Z" fill="#FFFFFF"/><rect x="15.000000" y="39.000000" width="9.320000" height="2.000000" fill="#FFFFFF"/><rect x="17.110000" y="44.000000" width="8.190000" height="2.000000" fill="#FFFFFF"/><rect x="17.000000" y="34.000000" width="7.960000" height="2.000000" fill="#FFFFFF"/><path d=" M 58.619999 52.919998 L 57.000000 51.750000 C 59.665390 48.034016 61.092903 43.573036 61.080002 39.000000 C 61.064896 26.849745 51.202923 17.012262 39.052666 17.027369 C 30.604511 17.037872 22.908573 21.885128 19.250000 29.500000 L 17.450001 28.639999 C 23.193277 16.694063 37.533218 11.665812 49.479153 17.409088 C 57.780186 21.399996 63.064987 29.789448 63.079998 39.000000 C 63.090263 43.992958 61.529987 48.862698 58.619999 52.919998 Z" fill="#FFFFFF"/><path d=" M 39.090000 63.000000 C 31.050285 63.005226 23.541990 58.984535 19.090000 52.290001 L 20.750000 51.180000 C 27.482420 61.294518 41.139561 64.036247 51.254078 57.303825 C 51.451550 57.172382 51.646881 57.037758 51.840000 56.899998 L 53.000000 58.529999 C 48.946056 61.440327 44.080437 63.003902 39.090000 63.000000 Z" fill="#FFFFFF"/><path d=" M 60.250000 65.000000 C 58.997463 65.002403 57.795551 64.505806 56.910000 63.619999 L 46.910000 53.619999 L 48.330002 52.200001 L 58.330002 62.200001 C 59.406982 63.238834 61.113018 63.238834 62.190002 62.200001 C 63.255913 61.141472 63.261894 59.419273 62.203365 58.353363 C 62.198925 58.348892 62.194473 58.344440 62.190002 58.340000 L 52.119999 48.200001 L 53.540001 46.790001 L 63.619999 56.919998 C 65.459122 58.790718 65.433510 61.798145 63.562790 63.637268 C 62.678684 64.506439 61.489788 64.995499 60.250000 65.000000 Z" fill="#FFFFFF"/><path d=" M 38.660000 48.840000 C 37.970001 48.840000 31.990000 48.770000 31.860001 46.290001 L 30.190001 33.840000 L 32.189999 33.570000 L 33.840000 46.000000 C 35.354836 46.668480 37.007053 46.966702 38.660000 46.869999 C 39.802792 46.879440 40.943100 46.762054 42.060001 46.520000 C 42.399967 46.447868 42.734192 46.350945 43.060001 46.230000 C 43.221451 46.170773 43.375748 46.093624 43.520000 46.000000 L 45.189999 33.599998 L 47.189999 33.869999 L 45.459999 46.290001 C 45.459999 47.029999 44.849998 47.630001 43.759998 48.060001 C 43.352692 48.215630 42.935009 48.342606 42.509998 48.440002 C 41.245209 48.714077 39.954117 48.848217 38.660000 48.840004 Z" fill="#FFFFFF"/><path d=" M 38.660000 36.389999 C 37.869999 36.389999 30.920000 36.320000 30.209999 33.799999 C 30.204454 33.756844 30.204454 33.713154 30.209999 33.669998 L 30.209999 33.529999 C 30.205387 33.483444 30.205387 33.436550 30.209999 33.389999 C 30.209999 31.020000 35.419998 30.139999 38.709999 30.139999 C 42.000000 30.139999 47.220001 31.020000 47.220001 33.389999 C 47.220001 33.389999 47.220001 33.480000 47.220001 33.529999 L 47.220001 33.669998 L 47.220001 33.799999 C 46.400002 36.320000 39.450001 36.389999 38.660000 36.389999 Z M 32.360001 33.389999 C 34.368183 34.155670 36.513428 34.496185 38.660000 34.389999 C 40.806633 34.497356 42.952122 34.156803 44.959999 33.389999 C 42.985985 32.490150 40.827515 32.068733 38.660000 32.160000 C 36.494080 32.062469 34.335678 32.477020 32.360001 33.369999 Z" fill="#FFFFFF"/><path d=" M 47.000000 42.509998 C 45.790001 42.509998 43.380001 41.830002 38.270000 39.279999 L 39.160000 37.490002 C 41.027878 38.434265 42.947601 39.272266 44.910000 40.000000 L 45.910000 38.270000 C 46.060001 38.349998 48.130001 39.869999 48.389999 40.939999 C 48.474205 41.260494 48.419769 41.601627 48.239998 41.879997 C 47.988613 42.317783 47.501808 42.565113 46.999996 42.509998 Z" fill="#FFFFFF"/><path d=" M 38.660000 39.820000 C 37.864708 39.820000 37.220001 39.175289 37.220001 38.380001 C 37.220001 37.584709 37.864712 36.940002 38.660000 36.940002 C 39.455292 36.940002 40.099998 37.584713 40.099998 38.380001 C 40.099998 39.175293 39.455288 39.820000 38.660000 39.820000 Z" fill="#FFFFFF"/></g></svg>