<svg version="1.1" width="80.000000" height="115.000000" viewBox="0.000000 0.000000 80.000000 115.000000" xmlns="http://www.w3.org/2000/svg" xmlns:xlink="http://www.w3.org/1999/xlink" overflow="hidden"><g id="CARDS"><rect x="1.000000" y="1.000000" width="78.000000" height="78.000000" fill="#232F3E"/><path d=" M 0.000000 0.000000 L 0.000000 80.000000 L 0.000000 80.000000 L 0.000000 115.000000 L 80.000000 115.000000 L 80.000000 80.000000 L 80.000000 80.000000 L 80.000000 0.000000 Z M 1.000000 1.000000 L 79.000000 1.000000 L 79.000000 79.000000 L 1.000000 79.000000 Z" fill="#FFFFFF"/></g><g id="TEXT_-_EDIT"><path d=" M 25.350000 92.349998 L 24.920000 90.529999 L 22.920000 90.529999 L 22.500000 92.349998 L 20.719999 92.349998 L 23.000000 84.720001 L 24.900000 84.720001 L 27.209999 92.349998 Z M 23.170000 89.430000 L 24.660000 89.430000 L 23.900000 86.269997 Z" fill="#232F3E"/><path d=" M 34.060001 92.349998 L 34.060001 88.639999 C 34.076664 88.401566 34.028278 88.163086 33.920002 87.949997 C 33.819908 87.796371 33.642418 87.711487 33.460003 87.729996 C 33.174831 87.743271 32.898491 87.833084 32.660004 87.989998 C 32.664822 88.029854 32.664822 88.070145 32.660004 88.110001 L 32.660000 92.349998 L 31.000000 92.349998 L 31.000000 88.639999 C 31.019257 88.402504 30.974358 88.164200 30.870001 87.949997 C 30.765142 87.796478 30.585056 87.712181 30.400002 87.729996 C 30.121338 87.744865 29.851856 87.834694 29.620001 87.989998 L 29.620001 92.349998 L 28.000000 92.349998 L 28.000000 86.720001 L 29.350000 86.720001 L 29.480000 87.230003 C 30.005705 86.838974 30.635632 86.612755 31.289999 86.580002 C 31.787903 86.543671 32.259682 86.807076 32.489998 87.250000 C 33.020988 86.851845 33.657448 86.618820 34.320000 86.580002 C 34.698605 86.567619 35.063778 86.720993 35.320000 87.000000 C 35.580429 87.351334 35.707973 87.783562 35.680000 88.220001 L 35.680000 92.349998 Z" fill="#232F3E"/><path d=" M 40.000000 92.349998 L 39.860001 91.839996 C 39.704742 92.042564 39.502155 92.203949 39.270000 92.309998 C 39.023094 92.427322 38.753361 92.488777 38.480000 92.489998 C 38.038441 92.498497 37.613724 92.320625 37.310001 92.000000 C 37.006588 91.668808 36.851307 91.228241 36.880001 90.779999 C 36.856857 90.286880 37.050484 89.808296 37.410000 89.470001 C 37.807274 89.133095 38.320316 88.964470 38.840000 89.000000 C 39.154030 89.006668 39.466179 89.050301 39.770000 89.129997 L 39.770000 88.620003 C 39.797573 88.349762 39.741737 88.077560 39.610001 87.840004 C 39.445477 87.687714 39.222755 87.614693 39.000000 87.640007 C 38.395546 87.665237 37.798565 87.783279 37.230000 87.990005 L 37.230000 87.000000 C 37.516563 86.840446 37.827354 86.728966 38.149998 86.669998 C 38.528015 86.589485 38.913502 86.549255 39.299999 86.549995 C 39.843796 86.502090 40.385880 86.659012 40.820000 86.989998 C 41.164772 87.366852 41.335323 87.871239 41.290001 88.379997 L 41.290001 92.320000 Z M 39.000000 91.430000 C 39.298344 91.418404 39.580971 91.293190 39.790001 91.080002 L 39.790001 90.000000 C 39.587475 89.948616 39.378887 89.925064 39.170002 89.930000 C 38.969070 89.911972 38.770714 89.985435 38.630001 90.129997 C 38.490948 90.293694 38.422604 90.505920 38.440002 90.719994 C 38.429714 90.905304 38.482594 91.088631 38.590004 91.239990 C 38.687565 91.366325 38.840549 91.437218 39.000004 91.429993 Z" fill="#232F3E"/><path d=" M 42.279999 92.349998 L 42.279999 91.279999 L 44.770000 87.879997 L 42.369999 87.879997 L 42.369999 86.720001 L 46.509998 86.720001 L 46.509998 87.790001 L 44.000000 91.190002 L 46.540001 91.190002 L 46.540001 92.349998 Z" fill="#232F3E"/><path d=" M 49.790001 92.489998 C 49.108715 92.511253 48.453094 92.229225 48.000000 91.720001 C 47.133984 90.392052 47.133984 88.677956 48.000000 87.349998 C 49.011749 86.331032 50.657967 86.325180 51.676933 87.336929 C 51.681305 87.341270 51.685661 87.345627 51.690002 87.349998 C 52.556019 88.677948 52.556019 90.392044 51.690002 91.720001 C 51.211487 92.259041 50.508781 92.543823 49.790001 92.489998 Z M 49.790001 91.339996 C 50.076321 91.350388 50.337559 91.177567 50.440002 90.909996 C 50.706799 90.016144 50.706799 89.063843 50.440002 88.169998 C 50.304638 87.813774 49.906124 87.634735 49.549900 87.770103 C 49.365585 87.840141 49.220043 87.985687 49.150002 88.169998 C 48.883205 89.063850 48.883205 90.016151 49.150002 90.909996 C 49.248730 91.175995 49.506416 91.349129 49.790001 91.339996 Z" fill="#232F3E"/><path d=" M 56.549999 92.349998 L 56.549999 88.650002 C 56.566494 88.408363 56.518166 88.166710 56.410000 87.950005 C 56.294102 87.793236 56.103878 87.709541 55.910000 87.730003 C 55.621128 87.739960 55.340698 87.829971 55.099998 87.990005 L 55.099998 92.349998 L 53.439999 92.349998 L 53.439999 86.720001 L 54.790001 86.720001 L 54.930000 87.230003 C 55.464371 86.833908 56.105400 86.607452 56.770000 86.580002 C 57.171432 86.553581 57.563728 86.707565 57.840000 87.000000 C 58.102020 87.350540 58.229740 87.783371 58.200001 88.220001 L 58.200001 92.349998 Z" fill="#232F3E"/><path d=" M 16.000000 106.129997 C 15.434855 106.359474 14.829937 106.475021 14.220000 106.469994 C 11.973333 106.470001 10.846666 105.169998 10.840000 102.570000 C 10.773914 101.513390 11.085841 100.467720 11.720000 99.620003 C 12.369338 98.922134 13.299006 98.554680 14.250000 98.620003 C 14.813498 98.620705 15.372317 98.722313 15.900000 98.920006 L 15.900000 100.129997 C 15.432051 99.991005 14.947962 99.913689 14.460000 99.899994 C 13.920452 99.854988 13.394413 100.084198 13.060000 100.509995 C 12.715201 101.091789 12.558070 101.765701 12.610001 102.439995 L 12.610000 102.690002 C 12.559347 103.353394 12.712886 104.016403 13.049999 104.590004 C 13.371362 105.015427 13.888814 105.245827 14.419999 105.200005 C 14.954767 105.173027 15.484784 105.085808 15.999999 104.940002 Z" fill="#232F3E"/><path d=" M 19.360001 106.250000 C 19.039743 106.365929 18.700441 106.420219 18.360001 106.410004 C 17.964247 106.441948 17.573025 106.307922 17.280001 106.040001 C 17.023888 105.725441 16.898571 105.324425 16.930000 104.919998 L 16.930000 98.209999 L 18.580000 98.209999 L 18.580000 104.750000 C 18.569199 104.888161 18.596889 105.026619 18.660000 105.150002 C 18.739672 105.241310 18.859936 105.286407 18.980000 105.270004 C 19.096491 105.279053 19.213509 105.279053 19.330000 105.270004 Z" fill="#232F3E"/><path d=" M 22.480000 106.489998 C 21.778313 106.528084 21.097446 106.244698 20.629999 105.720001 C 19.763985 104.392052 19.763985 102.677956 20.629999 101.349998 C 21.097446 100.825302 21.778313 100.541916 22.480000 100.580002 C 23.178766 100.542046 23.856535 100.825676 24.320000 101.349998 C 25.186014 102.677948 25.186014 104.392044 24.320000 105.720001 C 23.856535 106.244324 23.178766 106.527962 22.480000 106.489998 Z M 22.480000 105.339996 C 22.763582 105.349129 23.021271 105.175995 23.119999 104.909996 C 23.386797 104.016144 23.386797 103.063843 23.119999 102.169998 C 23.024673 101.900047 22.766182 101.722336 22.480000 101.729996 C 22.191109 101.721107 21.929081 101.898483 21.830000 102.169998 C 21.563202 103.063850 21.563202 104.016151 21.830000 104.909996 C 21.932442 105.177567 22.193680 105.350380 22.480000 105.339996 Z" fill="#232F3E"/><path d=" M 29.389999 106.349998 L 29.260000 105.839996 C 28.747446 106.234222 28.125984 106.461166 27.480000 106.489998 C 27.098482 106.506950 26.730146 106.348564 26.480000 106.059998 C 26.229742 105.696587 26.106688 105.260620 26.129999 104.820000 L 26.129999 100.720001 L 27.780001 100.720001 L 27.780001 104.339996 C 27.761784 104.604317 27.809908 104.869003 27.920000 105.109993 C 28.005274 105.269989 28.179955 105.361298 28.360001 105.339996 C 28.632259 105.332367 28.896379 105.245483 29.120001 105.089996 L 29.120001 100.720001 L 30.770000 100.720001 L 30.770000 106.349998 Z" fill="#232F3E"/><path d=" M 35.419998 106.349998 L 35.279999 105.860001 C 35.099529 106.042419 34.885639 106.188408 34.649998 106.290001 C 34.422707 106.388474 34.177704 106.439522 33.929996 106.440002 C 33.331470 106.464928 32.761787 106.181969 32.419998 105.690002 C 32.028976 105.051193 31.843943 104.307564 31.889997 103.560005 C 31.842663 102.790710 32.034801 102.025650 32.439999 101.370003 C 32.777569 100.858131 33.357204 100.558846 33.969997 100.580002 C 34.185635 100.589058 34.398388 100.632957 34.599998 100.709999 C 34.818535 100.789223 35.024105 100.900436 35.209999 101.040001 L 35.209999 98.209999 L 36.860001 98.209999 L 36.860001 106.349998 Z M 34.490002 105.349998 C 34.746094 105.346977 34.995956 105.270630 35.210003 105.129997 L 35.209999 102.000000 C 34.976196 101.841095 34.702480 101.751007 34.419998 101.739998 C 34.122879 101.727325 33.850185 101.903778 33.739998 102.180000 C 33.577900 102.624512 33.509796 103.097824 33.539997 103.570000 C 33.506958 104.035194 33.585823 104.501541 33.769997 104.930000 C 33.911594 105.191101 34.193943 105.344040 34.489998 105.320000 Z" fill="#232F3E"/><path d=" M 39.720001 103.000000 C 39.222725 102.768532 38.784916 102.426491 38.440002 102.000000 C 38.177681 101.644348 38.040539 101.211830 38.050003 100.769997 C 38.043392 100.354721 38.161861 99.947060 38.390003 99.599998 C 38.618217 99.261978 38.937069 98.995110 39.310001 98.830002 C 39.734985 98.642815 40.195713 98.550667 40.660000 98.560005 C 41.309566 98.563965 41.951923 98.696510 42.549999 98.950005 L 42.549999 100.120003 C 41.997971 99.918839 41.417278 99.807426 40.829998 99.790001 C 40.545067 99.774620 40.263252 99.855637 40.029999 100.020004 C 39.837276 100.175255 39.729664 100.412743 39.739998 100.660004 C 39.730492 100.863945 39.798351 101.063950 39.929996 101.220001 C 40.133884 101.428474 40.379139 101.591980 40.649998 101.700005 L 41.299999 102.019997 C 41.655193 102.189125 41.990570 102.397057 42.299999 102.639999 C 42.532375 102.823715 42.717514 103.060280 42.840000 103.330002 C 42.967579 103.619499 43.029068 103.933777 43.020000 104.250000 C 43.050262 104.886475 42.775429 105.499283 42.279999 105.900002 C 41.689491 106.337746 40.963760 106.553688 40.230000 106.510002 C 39.850201 106.509125 39.471512 106.468910 39.099998 106.389999 C 38.753765 106.328896 38.417385 106.221252 38.099998 106.070000 L 38.099998 104.919998 C 38.427158 105.026321 38.761292 105.109856 39.099998 105.169998 C 39.429119 105.238113 39.763943 105.274940 40.099998 105.279999 C 40.424232 105.300606 40.744678 105.200912 41.000000 105.000000 C 41.206394 104.823906 41.317593 104.560738 41.299999 104.290001 C 41.306087 104.077034 41.231022 103.869705 41.090000 103.709999 C 40.886230 103.513252 40.649239 103.354134 40.389999 103.239998 Z" fill="#232F3E"/><path d=" M 45.360001 103.919998 C 45.339252 104.324760 45.467300 104.723129 45.720001 105.040001 C 46.014473 105.288261 46.396645 105.407242 46.780003 105.370003 C 47.009205 105.363998 47.237133 105.333832 47.460003 105.280006 C 47.731255 105.228806 47.998577 105.158638 48.260002 105.070007 L 48.259998 106.070000 C 48.000977 106.215523 47.720997 106.320099 47.429996 106.379997 C 47.101471 106.451813 46.766273 106.488686 46.429996 106.489998 C 44.709999 106.489998 43.849998 105.489998 43.849998 103.540001 C 43.796959 102.755630 44.019817 101.977402 44.480000 101.340004 C 44.938690 100.815964 45.615025 100.535088 46.310001 100.580002 C 47.680000 100.580002 48.310001 101.339996 48.310001 102.870003 C 48.309128 103.206871 48.268856 103.542488 48.190002 103.870003 Z M 46.270000 101.599998 C 45.689999 101.599998 45.389999 102.059998 45.360001 102.970001 L 47.000000 102.970001 L 47.000000 102.720001 C 47.020443 102.423340 46.961781 102.126572 46.830002 101.860001 C 46.707199 101.674789 46.490738 101.574287 46.270000 101.599998 Z" fill="#232F3E"/><path d=" M 52.400002 106.349998 L 52.259998 105.839996 C 52.106899 106.044678 51.903721 106.206528 51.669998 106.309998 C 51.426250 106.426201 51.160019 106.487640 50.889999 106.489998 C 50.450420 106.515594 50.020912 106.351791 49.709999 106.040001 C 49.403969 105.709824 49.245167 105.269508 49.270000 104.820000 C 49.246857 104.326881 49.440483 103.848297 49.799999 103.510002 C 50.197273 103.173096 50.710316 103.004471 51.230000 103.040001 C 51.544029 103.046669 51.856178 103.090302 52.160000 103.169998 L 52.160000 102.660004 C 52.187572 102.389763 52.131737 102.117561 52.000000 101.880005 C 51.835476 101.727715 51.612755 101.654694 51.389999 101.680008 C 50.785545 101.705238 50.188564 101.823280 49.619999 102.030006 L 49.619999 101.029999 C 49.906563 100.870445 50.217354 100.758965 50.539997 100.699997 C 50.918015 100.619484 51.303501 100.579254 51.689999 100.579994 C 52.233795 100.532089 52.775879 100.689011 53.209999 101.019997 C 53.554771 101.396851 53.725323 101.901237 53.680000 102.409996 L 53.680000 106.349998 Z M 51.400002 105.430000 C 51.698345 105.418404 51.980972 105.293190 52.190002 105.080002 L 52.189999 104.000000 C 51.987587 103.947983 51.778912 103.924423 51.570000 103.930000 C 51.369068 103.911972 51.170712 103.985435 51.029999 104.129997 C 50.894661 104.295738 50.826813 104.506424 50.840000 104.719994 C 50.829712 104.905304 50.882591 105.088631 50.990002 105.239990 C 51.081196 105.357796 51.221039 105.427719 51.370003 105.429993 Z" fill="#232F3E"/><path d=" M 55.080002 106.349998 L 55.080002 100.720001 L 56.430000 100.720001 L 56.610001 101.449997 C 56.810947 101.209991 57.055180 101.009857 57.330002 100.860001 C 57.558910 100.731735 57.817635 100.666191 58.080002 100.669998 C 58.206459 100.659698 58.333546 100.659698 58.460003 100.669998 L 58.459999 102.000000 C 58.250237 101.985909 58.039764 101.985909 57.829998 102.000000 C 57.448036 101.999374 57.071259 102.088432 56.730000 102.260002 L 56.730000 106.370003 Z" fill="#232F3E"/><path d=" M 62.849998 106.089996 C 62.653362 106.213127 62.436798 106.301109 62.209999 106.349998 C 61.944290 106.410645 61.672539 106.440842 61.399998 106.439995 C 60.707512 106.489487 60.030201 106.220772 59.559998 105.709991 C 58.692287 104.400703 58.692287 102.699280 59.559998 101.389992 C 60.040340 100.866623 60.730885 100.587463 61.439999 100.629990 C 61.906906 100.628960 62.366966 100.742256 62.779999 100.959991 L 62.779999 101.959999 C 62.459923 101.840164 62.121723 101.775909 61.779999 101.769997 C 61.421944 101.735214 61.071011 101.886154 60.849998 102.169998 C 60.628036 102.561913 60.527126 103.010796 60.559998 103.459999 L 60.560001 103.620003 C 60.527836 104.064751 60.625084 104.509300 60.840000 104.900002 C 61.048992 105.182068 61.390587 105.333885 61.740002 105.300003 C 62.112648 105.292633 62.481293 105.221611 62.830002 105.090004 Z" fill="#232F3E"/><path d=" M 67.000000 106.349998 L 67.000000 102.650002 C 67.019318 102.407036 66.967178 102.163719 66.849998 101.950005 C 66.737305 101.794876 66.550804 101.711143 66.360001 101.730003 C 66.067795 101.738640 65.783798 101.828682 65.540001 101.990005 L 65.540001 106.349998 L 63.900002 106.349998 L 63.900002 98.209999 L 65.550003 98.209999 L 65.550003 101.120003 C 66.045227 100.787392 66.623795 100.600311 67.220001 100.580002 C 67.621429 100.553581 68.013733 100.707565 68.290001 101.000000 C 68.555580 101.349174 68.686890 101.782127 68.660004 102.220001 L 68.660004 106.349998 Z" fill="#232F3E"/></g><g id="ICONS_-_EDIT"><path d=" M 33.430000 52.220001 C 23.251392 52.220001 15.000000 43.968609 15.000000 33.790001 C 15.000000 23.611393 23.251392 15.360001 33.430000 15.360001 C 43.608608 15.360001 51.860001 23.611393 51.860001 33.790001 C 51.848976 43.964039 43.604038 52.208977 33.430000 52.220001 Z M 33.430000 17.360001 C 24.355963 17.360001 17.000000 24.715961 17.000000 33.790001 C 17.000000 42.864040 24.355961 50.220001 33.430000 50.220001 C 42.504040 50.220001 49.860001 42.864040 49.860001 33.790001 C 49.848980 24.720531 42.499470 17.371021 33.430000 17.360001 Z" fill="#FFFFFF"/><path d=" M 59.400002 64.639999 C 57.917557 64.640755 56.495964 64.050529 55.450001 63.000000 L 41.810001 49.369999 L 43.230000 48.000000 L 56.860001 61.580002 C 58.262802 62.999374 60.550629 63.012806 61.970001 61.610001 C 63.389374 60.207199 63.402805 57.919373 62.000000 56.500000 L 48.139999 42.630001 L 49.560001 41.220001 L 63.369999 55.090000 C 65.551567 57.282288 65.542885 60.828003 63.350594 63.009571 C 62.293694 64.061302 60.861008 64.648125 59.369999 64.639999 Z" fill="#FFFFFF"/><path d=" M 53.490002 41.360001 L 53.419998 39.360001 C 54.417645 39.273121 55.375607 38.928532 56.199997 38.360001 C 57.252644 37.670475 57.919445 36.525795 57.999996 35.270000 C 58.012310 33.302876 56.510063 31.656937 54.549995 31.490000 C 54.284389 31.465492 54.039577 31.335888 53.869995 31.129999 C 53.700565 30.922726 53.621319 30.656170 53.649994 30.389999 L 53.650002 30.290001 C 53.653191 29.294315 52.969242 28.427980 52.000000 28.200001 L 52.410000 26.200001 C 54.095993 26.552114 55.389256 27.909044 55.660000 29.610001 C 58.729256 30.334244 60.630260 33.409481 59.906021 36.478737 C 59.561882 37.937160 58.658230 39.201859 57.390003 40.000004 C 56.239761 40.803268 54.890316 41.273846 53.490002 41.360004 Z" fill="#FFFFFF"/><path d=" M 44.900002 44.360001 L 29.240000 44.360001 C 25.254766 44.365547 22.016533 41.145203 22.000000 37.160000 C 22.000713 36.727245 22.040880 36.295460 22.120001 35.869999 C 22.114481 35.846992 22.114481 35.823006 22.120001 35.799999 C 22.571457 33.468166 24.142374 31.508259 26.320002 30.559999 C 26.470530 28.532177 27.290066 26.611719 28.650002 25.100000 C 32.078850 21.261038 37.970573 20.928574 41.809536 24.357422 C 42.603283 25.066374 43.269741 25.906040 43.779999 26.840000 C 44.786808 26.320700 45.943161 26.168642 47.049999 26.410000 L 46.619999 28.360001 C 45.700367 28.169817 44.745670 28.438326 44.059998 29.080000 C 43.656754 29.457376 43.023937 29.436407 42.646561 29.033165 C 42.556400 28.936825 42.486198 28.823595 42.439999 28.700001 C 41.001469 24.927782 36.777321 23.035955 33.005104 24.474485 C 30.190517 25.547825 28.322535 28.237785 28.299997 31.250000 C 28.322060 31.700861 28.039335 32.110607 27.609997 32.250000 C 25.820021 32.830120 24.479645 34.327061 24.099997 36.169998 C 24.100000 36.169998 24.100000 36.169998 24.100000 36.169998 C 24.041050 36.500092 24.010937 36.834686 24.010000 37.169998 C 24.021025 40.052902 26.367018 42.381023 29.249924 42.369999 C 29.249949 42.369999 29.249975 42.369999 29.250000 42.369999 L 44.900002 42.369999 Z" fill="#FFFFFF"/></g></svg>