<svg version="1.1" width="80.000000" height="115.000000" viewBox="0.000000 0.000000 80.000000 115.000000" xmlns="http://www.w3.org/2000/svg" xmlns:xlink="http://www.w3.org/1999/xlink" overflow="hidden"><g id="CARDS"><rect x="1.000000" y="1.000000" width="78.000000" height="78.000000" fill="#232F3E"/><path d=" M 0.000000 0.000000 L 0.000000 80.000000 L 0.000000 80.000000 L 0.000000 115.000000 L 80.000000 115.000000 L 80.000000 80.000000 L 80.000000 80.000000 L 80.000000 0.000000 Z M 1.000000 1.000000 L 79.000000 1.000000 L 79.000000 79.000000 L 1.000000 79.000000 Z" fill="#FFFFFF"/></g><g id="TEXT_-_EDIT"><path d=" M 21.330000 92.349998 L 20.889999 90.529999 L 18.889999 90.529999 L 18.469999 92.349998 L 16.700001 92.349998 L 19.000000 84.720001 L 20.870001 84.720001 L 23.170000 92.349998 Z M 19.150000 89.430000 L 20.639999 89.430000 L 19.879999 86.269997 Z" fill="#232F3E"/><path d=" M 28.530001 92.349998 L 27.590000 86.720001 L 26.700001 92.349998 L 24.830000 92.349998 L 23.049999 84.720001 L 24.750000 84.720001 L 25.809999 90.779999 L 26.719999 85.000000 L 28.549999 85.000000 L 29.490000 90.650002 L 30.490000 84.650002 L 32.150002 84.650002 L 30.400000 92.349998 Z" fill="#232F3E"/><path d=" M 34.480000 89.000000 C 33.984528 88.765594 33.547329 88.424026 33.200001 88.000000 C 32.941235 87.643089 32.807644 87.210678 32.820000 86.769997 C 32.808891 86.354126 32.927738 85.945145 33.160000 85.599998 C 33.385700 85.259720 33.705288 84.992241 34.079998 84.830002 C 34.501812 84.643929 34.959042 84.551804 35.419998 84.560005 C 36.069763 84.562088 36.712482 84.694710 37.309998 84.950005 L 37.310001 86.120003 C 36.758255 85.917831 36.177395 85.806381 35.590000 85.790001 C 35.308163 85.774521 35.029480 85.855652 34.799999 86.020004 C 34.603199 86.172058 34.494576 86.411781 34.509998 86.660004 C 34.502312 86.862022 34.566040 87.060295 34.689999 87.220001 C 34.897770 87.423737 35.142021 87.586571 35.410000 87.700005 L 36.060001 88.019997 C 36.417839 88.184235 36.753773 88.392517 37.060001 88.639999 C 37.295208 88.823380 37.483677 89.059822 37.610001 89.330002 C 37.729374 89.621704 37.787251 89.934906 37.779999 90.250000 C 37.800728 90.893486 37.510418 91.507607 37.000000 91.900002 C 36.424095 92.328819 35.717194 92.544426 35.000000 92.510002 C 34.616867 92.509674 34.234806 92.469460 33.860001 92.389999 C 33.514221 92.327065 33.178078 92.219498 32.860001 92.070000 L 32.860001 90.919998 C 33.187496 91.025146 33.521549 91.108665 33.860001 91.169998 C 34.189121 91.238113 34.523945 91.274940 34.860001 91.279999 C 35.173580 91.302475 35.485077 91.213982 35.740002 91.029999 C 35.946396 90.853905 36.057594 90.590736 36.040001 90.320000 C 36.046089 90.107033 35.971024 89.899704 35.830002 89.739998 C 35.622326 89.543411 35.382092 89.384384 35.120003 89.269997 Z" fill="#232F3E"/><path d=" M 41.549999 92.349998 L 41.549999 84.720001 L 44.070000 84.720001 C 44.969276 84.668739 45.841320 85.038246 46.430000 85.720001 C 47.024467 86.542496 47.311153 87.547661 47.240002 88.559998 C 47.311737 89.572525 47.032780 90.578896 46.450001 91.409996 C 45.874718 92.086601 45.016903 92.456345 44.130001 92.409996 Z M 43.240002 85.900002 L 43.240002 91.169998 L 44.000000 91.169998 C 44.473919 91.192314 44.922356 90.954681 45.169998 90.549995 C 45.469330 89.959961 45.604057 89.300148 45.559998 88.639992 L 45.560001 88.419998 C 45.603745 87.760979 45.472656 87.102089 45.180000 86.509995 C 44.926338 86.102592 44.468853 85.868088 43.990002 85.899994 Z" fill="#232F3E"/><path d=" M 51.459999 92.349998 L 51.310001 91.839996 C 51.159306 92.046989 50.955444 92.209389 50.720001 92.309998 C 50.476696 92.427460 50.210178 92.488968 49.940002 92.489998 C 49.494751 92.502617 49.065342 92.324303 48.760002 92.000000 C 48.453972 91.669823 48.295170 91.229507 48.320004 90.779999 C 48.296860 90.286880 48.490486 89.808296 48.850002 89.470001 C 49.253868 89.137909 49.767990 88.970108 50.290001 89.000000 C 50.604031 89.006668 50.916180 89.050301 51.220001 89.129997 L 51.220001 88.620003 C 51.245197 88.348686 51.185814 88.076225 51.050003 87.840004 C 50.889999 87.686920 50.669853 87.613541 50.450005 87.640007 C 49.842175 87.664215 49.241749 87.782272 48.670006 87.990005 L 48.669998 87.000000 C 48.957073 86.841576 49.267677 86.730164 49.589996 86.669998 C 49.971397 86.589516 50.360195 86.549301 50.749996 86.549995 C 51.293602 86.504028 51.835003 86.660744 52.269997 86.989998 C 52.611156 87.368507 52.778011 87.872696 52.729996 88.379997 L 52.730000 92.320000 Z M 50.459999 91.430000 C 50.761383 91.418922 51.047318 91.293823 51.259998 91.080002 L 51.259998 90.000000 C 51.054058 89.948677 50.842178 89.925140 50.629997 89.930000 C 50.429451 89.914780 50.232246 89.987816 50.089996 90.129997 C 49.958237 90.297188 49.894001 90.507729 49.909996 90.719994 C 49.899708 90.905304 49.952587 91.088631 50.059998 91.239990 C 50.144924 91.354698 50.277374 91.424606 50.419998 91.429993 Z" fill="#232F3E"/><path d=" M 57.169998 92.199997 C 56.776688 92.347153 56.359932 92.421692 55.939999 92.419998 C 55.467682 92.464508 54.996891 92.320755 54.629997 92.019997 C 54.325260 91.658775 54.177631 91.190689 54.219997 90.719994 L 54.220001 87.820000 L 53.480000 87.820000 L 53.480000 86.900002 L 54.270000 86.750000 L 54.509998 85.209999 L 55.869999 85.209999 L 55.869999 86.720001 L 57.139999 86.720001 L 57.139999 87.820000 L 55.869999 87.820000 L 55.869999 90.589996 C 55.854324 90.774376 55.903870 90.958412 56.009998 91.109993 C 56.156586 91.234970 56.348743 91.292976 56.539997 91.269997 C 56.752235 91.265694 56.963421 91.238876 57.169998 91.189995 Z" fill="#232F3E"/><path d=" M 61.000000 92.349998 L 60.860001 91.839996 C 60.704742 92.042564 60.502155 92.203949 60.270000 92.309998 C 60.023094 92.427322 59.753361 92.488777 59.480000 92.489998 C 59.017811 92.515984 58.567711 92.336678 58.250000 92.000000 C 57.639267 91.252548 57.682175 90.166916 58.349998 89.470001 C 58.747272 89.133095 59.260315 88.964470 59.779999 89.000000 C 60.094028 89.006668 60.406178 89.050301 60.709999 89.129997 L 60.709999 88.620003 C 60.737572 88.349762 60.681736 88.077560 60.549999 87.840004 C 60.385475 87.687714 60.162754 87.614693 59.939999 87.640007 C 59.335545 87.665237 58.738564 87.783279 58.169998 87.990005 L 58.169998 87.000000 C 58.453468 86.841469 58.760799 86.730019 59.079998 86.669998 C 59.461479 86.590019 59.850224 86.549805 60.239998 86.549995 C 60.783604 86.504028 61.325005 86.660744 61.759998 86.989998 C 62.104771 87.366852 62.275322 87.871239 62.230000 88.379997 L 62.230000 92.320000 Z M 60.000000 91.430000 C 60.301384 91.418922 60.587318 91.293823 60.799999 91.080002 L 60.799999 90.000000 C 60.594059 89.948677 60.382179 89.925140 60.169998 89.930000 C 59.972248 89.913605 59.777618 89.987053 59.639999 90.129997 C 59.500946 90.293694 59.432602 90.505920 59.450001 90.719994 C 59.439713 90.905304 59.492592 91.088631 59.600002 91.239990 C 59.674423 91.341522 59.785751 91.409760 59.910004 91.429993 Z" fill="#232F3E"/><path d=" M 22.690001 103.519997 L 22.690001 106.349998 L 21.000000 106.349998 L 21.000000 98.720001 L 23.639999 98.720001 C 24.290203 98.691185 24.924608 98.925476 25.400000 99.370003 C 26.280033 100.370712 26.280033 101.869293 25.400000 102.870003 C 24.924608 103.314522 24.290203 103.548820 23.639999 103.520004 Z M 22.690001 102.370003 L 23.469999 102.370003 C 23.745594 102.386772 24.012787 102.271729 24.189999 102.060005 C 24.370739 101.781036 24.458275 101.451904 24.439999 101.120003 C 24.459665 100.791100 24.371927 100.464714 24.189999 100.190002 C 24.016912 99.971825 23.747929 99.852280 23.469999 99.870003 L 22.690001 99.870003 Z" fill="#232F3E"/><path d=" M 28.180000 99.809998 C 27.924538 99.824768 27.672354 99.746628 27.470001 99.589996 C 27.293272 99.438095 27.197193 99.212677 27.210001 98.979996 C 27.195618 98.747040 27.291985 98.520950 27.470001 98.369995 C 27.890442 98.064751 28.459560 98.064751 28.880001 98.369995 C 29.060452 98.519913 29.160358 98.745628 29.150002 98.979996 C 29.158815 99.214073 29.059198 99.439140 28.880001 99.589996 C 28.682974 99.749374 28.432781 99.828011 28.180000 99.809998 Z M 27.350000 106.349998 L 27.350000 100.720001 L 29.000000 100.720001 L 29.000000 106.349998 Z" fill="#232F3E"/><path d=" M 30.459999 108.610001 L 30.459999 100.720001 L 31.809999 100.720001 L 31.930000 101.199997 C 32.139095 101.010376 32.379269 100.858154 32.639999 100.750000 C 32.886505 100.643257 33.151432 100.585518 33.419998 100.580002 C 34.017025 100.550934 34.587181 100.830345 34.929996 101.320000 C 35.321808 101.962158 35.506828 102.709206 35.459995 103.459999 C 35.500450 104.231796 35.308891 104.998039 34.909996 105.659996 C 34.575180 106.163361 34.004269 106.458267 33.399998 106.439995 C 33.164886 106.439087 32.931610 106.398521 32.709999 106.319992 C 32.491116 106.239212 32.288052 106.120766 32.110001 105.969994 L 32.110001 108.610001 Z M 32.880001 101.699997 C 32.602936 101.697105 32.332523 101.784897 32.110001 101.949997 L 32.110001 105.059998 C 32.338673 105.221687 32.610050 105.312141 32.889999 105.320000 C 33.190666 105.339958 33.472698 105.173119 33.599998 104.900002 C 33.768616 104.463989 33.840275 103.996498 33.809998 103.529999 C 33.842281 103.050362 33.770653 102.569412 33.599998 102.119995 C 33.469170 101.845284 33.183521 101.678658 32.879997 101.699997 Z" fill="#232F3E"/><path d=" M 37.820000 103.919998 C 37.799252 104.324760 37.927299 104.723129 38.180000 105.040001 C 38.475567 105.286263 38.856880 105.404976 39.240002 105.370003 C 39.469250 105.364609 39.697243 105.334435 39.920002 105.280006 C 40.191528 105.230042 40.458942 105.159843 40.720001 105.070007 L 40.720001 106.070000 C 40.461761 106.217194 40.181507 106.321869 39.889999 106.379997 C 39.561474 106.451813 39.226276 106.488686 38.889999 106.489998 C 37.180000 106.489998 36.320000 105.489998 36.320000 103.540001 C 36.266960 102.755630 36.489819 101.977402 36.950001 101.340004 C 37.404652 100.816292 38.077927 100.535149 38.770000 100.580002 C 40.139999 100.580002 40.770000 101.339996 40.770000 102.870003 C 40.769127 103.206871 40.728855 103.542488 40.650002 103.870003 Z M 38.730000 101.599998 C 38.160000 101.599998 37.849998 102.059998 37.820000 102.970001 L 39.430000 102.970001 L 39.430000 102.720001 C 39.452599 102.424286 39.397438 102.127800 39.270000 101.860001 C 39.147919 101.684784 38.943104 101.586174 38.730000 101.599998 Z" fill="#232F3E"/><path d=" M 44.360001 106.250000 C 44.039803 106.366165 43.700459 106.420456 43.360001 106.410004 C 42.964245 106.441948 42.573025 106.307922 42.279999 106.040001 C 42.016510 105.729019 41.887054 105.326263 41.919998 104.919998 L 41.919998 98.209999 L 43.570000 98.209999 L 43.570000 104.750000 C 43.559196 104.888161 43.586887 105.026619 43.650002 105.150002 C 43.730698 105.239822 43.850143 105.284615 43.970001 105.270004 C 44.086472 105.279564 44.203529 105.279564 44.320000 105.270004 Z" fill="#232F3E"/><path d=" M 46.240002 99.809998 C 45.984539 99.824768 45.732357 99.746628 45.530003 99.589996 C 45.353275 99.438095 45.257195 99.212677 45.270004 98.979996 C 45.255623 98.747040 45.351990 98.520950 45.530003 98.369995 C 45.950443 98.064751 46.519562 98.064751 46.940002 98.369995 C 47.118019 98.520950 47.214386 98.747040 47.200001 98.979996 C 47.212811 99.212677 47.116730 99.438095 46.940002 99.589996 C 46.742973 99.749374 46.492783 99.828011 46.240002 99.809998 Z M 45.410000 106.349998 L 45.410000 100.720001 L 47.060001 100.720001 L 47.060001 106.349998 Z" fill="#232F3E"/><path d=" M 51.630001 106.349998 L 51.630001 102.650002 C 51.649315 102.407036 51.597176 102.163719 51.480000 101.950005 C 51.368671 101.793205 51.181149 101.709015 50.989998 101.730003 C 50.697968 101.739677 50.414249 101.829636 50.169998 101.990005 L 50.169998 106.349998 L 48.520000 106.349998 L 48.520000 100.720001 L 49.869999 100.720001 L 50.000000 101.230003 C 50.535240 100.835541 51.175751 100.609268 51.840000 100.580002 C 52.241432 100.553581 52.633728 100.707565 52.910000 101.000000 C 53.175579 101.349174 53.306885 101.782127 53.279999 102.220001 L 53.279999 106.349998 Z" fill="#232F3E"/><path d=" M 55.889999 103.919998 C 55.878792 104.323456 56.005814 104.718628 56.250000 105.040001 C 56.545567 105.286263 56.926880 105.404976 57.310001 105.370003 C 57.539249 105.364609 57.767242 105.334435 57.990002 105.280006 C 58.261528 105.230042 58.528942 105.159843 58.790001 105.070007 L 58.790001 106.070000 C 58.531761 106.217194 58.251507 106.321869 57.959999 106.379997 C 57.631500 106.451958 57.296288 106.488831 56.959999 106.489998 C 55.240002 106.489998 54.380001 105.489998 54.380001 103.540001 C 54.326962 102.755630 54.549820 101.977402 55.010002 101.340004 C 55.464653 100.816292 56.137928 100.535149 56.830002 100.580002 C 58.200001 100.580002 58.830002 101.339996 58.830002 102.870003 C 58.829128 103.206871 58.788857 103.542488 58.710003 103.870003 Z M 56.810001 101.599998 C 56.230000 101.599998 55.919998 102.059998 55.889999 102.970001 L 57.509998 102.970001 L 57.509998 102.720001 C 57.530441 102.423340 57.471779 102.126572 57.340000 101.860001 C 57.221138 101.686409 57.020031 101.587753 56.810001 101.599998 Z" fill="#232F3E"/></g><g id="ICONS_-_EDIT"><path d=" M 44.000000 23.000000 L 42.000000 23.000000 L 42.000000 22.299999 C 42.000000 20.840000 41.099998 19.660000 40.000000 19.660000 C 38.900002 19.660000 38.000000 20.840000 38.000000 22.299999 L 38.000000 23.000000 L 36.000000 23.000000 L 36.000000 22.299999 C 36.000000 19.740000 37.799999 17.660000 40.000000 17.660000 C 42.200001 17.660000 44.000000 19.740000 44.000000 22.299999 Z" fill="#FFFFFF"/><path d=" M 43.000000 36.000000 L 37.000000 36.000000 C 36.447716 36.000000 36.000000 35.552284 36.000000 35.000000 L 36.000000 27.000000 L 38.000000 27.000000 L 38.000000 34.000000 L 42.000000 34.000000 L 42.000000 27.000000 L 44.000000 27.000000 L 44.000000 35.000000 C 44.000000 35.552284 43.552284 36.000000 43.000000 36.000000 Z" fill="#FFFFFF"/><rect x="22.960000" y="57.000000" width="34.000000" height="2.000000" fill="#FFFFFF"/><rect x="22.960000" y="34.000000" width="34.000000" height="2.000000" fill="#FFFFFF"/><rect x="22.960000" y="52.000000" width="33.970000" height="2.000000" fill="#FFFFFF"/><rect x="22.960000" y="38.000000" width="34.000000" height="2.000000" fill="#FFFFFF"/><path d=" M 20.610001 62.360001 L 18.389999 62.360001 C 16.539978 62.382099 15.022323 60.900276 15.000223 59.050255 C 15.000023 59.033504 14.999949 59.016750 15.000000 59.000000 L 15.000000 33.669998 C 15.005511 31.823751 16.503744 30.329990 18.350000 30.329998 L 20.570000 30.330000 C 22.419626 30.285810 23.954866 31.749407 23.999056 33.599033 C 23.999620 33.622684 23.999935 33.646343 24.000000 33.670002 L 24.000000 59.000000 C 24.005655 60.850143 22.510401 62.354568 20.660255 62.360222 C 20.643503 62.360271 20.626751 62.360199 20.610001 62.359997 Z M 18.389999 32.360001 C 17.650459 32.332211 17.028418 32.909203 17.000629 33.648739 C 17.000362 33.655823 17.000153 33.662910 17.000000 33.669998 L 17.000000 59.000000 C 16.994457 59.740040 17.589884 60.344456 18.329926 60.349998 C 18.336617 60.350048 18.343309 60.350048 18.350000 60.349998 L 20.570000 60.349998 C 21.308388 60.399738 21.947292 59.841480 21.997032 59.103092 C 21.999344 59.068779 22.000334 59.034389 21.999998 59.000000 L 22.000000 33.669998 C 22.000021 32.929935 21.400099 32.329983 20.660038 32.329960 C 20.656693 32.329960 20.653347 32.329971 20.650002 32.329998 Z" fill="#FFFFFF"/><path d=" M 61.599998 62.360001 L 59.320000 62.360001 C 57.482243 62.332737 56.005253 60.837952 56.000000 59.000000 L 56.000000 33.689999 C 56.005493 31.836601 57.506603 30.335489 59.360001 30.329998 L 61.599998 30.330000 C 63.461124 30.313423 64.983299 31.808725 64.999878 33.669853 C 64.999939 33.676571 64.999977 33.683285 65.000000 33.690002 L 65.000000 59.000000 C 64.994553 60.861191 63.481339 62.365570 61.620148 62.360119 C 61.613430 62.360100 61.606716 62.360058 61.599998 62.360001 Z M 59.320000 32.360001 C 58.596050 32.381134 58.015667 32.965912 58.000000 33.690002 L 58.000000 59.000000 C 58.000000 59.751106 58.608894 60.360001 59.360001 60.360001 L 61.599998 60.360001 C 62.350780 60.382092 62.977318 59.791370 62.999409 59.040588 C 62.999805 59.027061 63.000004 59.013531 62.999996 59.000000 L 63.000000 33.689999 C 63.000000 32.938892 62.391106 32.329998 61.639999 32.329998 Z" fill="#FFFFFF"/><path d=" M 48.000000 29.000000 C 47.091076 28.993876 46.219967 28.635395 45.570000 28.000000 L 34.500000 28.000000 C 33.835236 28.656242 32.933964 29.016750 32.000000 29.000000 C 29.884867 28.902702 28.245268 27.115675 28.330000 25.000000 C 28.245268 22.884325 29.884867 21.097298 32.000000 21.000000 C 32.898724 21.012802 33.758080 21.370867 34.400002 22.000000 L 45.599998 22.000000 C 46.241920 21.370867 47.101273 21.012802 48.000000 21.000000 C 50.115135 21.097298 51.754730 22.884325 51.669998 25.000000 C 51.754730 27.115675 50.115131 28.902702 48.000000 29.000000 Z M 34.049999 26.000000 L 46.000000 26.000000 C 46.309498 26.000744 46.601208 26.144753 46.790001 26.389999 C 47.080307 26.765884 47.525166 26.990150 48.000000 27.000000 C 49.008625 26.899723 49.751266 26.010334 49.669998 25.000000 C 49.751263 23.989666 49.008621 23.100277 48.000000 23.000000 C 47.531143 23.011520 47.093086 23.236071 46.810001 23.610001 C 46.619370 23.844992 46.332588 23.981030 46.030003 23.980001 L 34.000000 23.980000 C 33.700916 23.978022 33.418419 23.842276 33.230000 23.609999 C 32.938335 23.225040 32.482971 22.999208 32.000000 22.999998 C 30.991377 23.100275 30.248735 23.989664 30.330000 24.999998 C 30.248735 26.010332 30.991375 26.899721 32.000000 26.999998 C 32.487488 26.982836 32.938885 26.738638 33.220001 26.339998 C 33.427475 26.101986 33.735172 25.975941 34.050003 25.999998 Z" fill="#FFFFFF"/><rect x="16.040000" y="36.000000" width="6.920000" height="2.000000" fill="#FFFFFF"/><rect x="16.040000" y="55.000000" width="6.920000" height="2.000000" fill="#FFFFFF"/><rect x="56.960000" y="36.000000" width="7.000000" height="2.000000" fill="#FFFFFF"/><rect x="56.960000" y="55.000000" width="7.000000" height="2.000000" fill="#FFFFFF"/></g></svg>