<svg version="1.1" width="80.000000" height="130.000000" viewBox="0.000000 0.000000 80.000000 130.000000" xmlns="http://www.w3.org/2000/svg" xmlns:xlink="http://www.w3.org/1999/xlink" overflow="hidden"><g id="CARDS"><rect x="1.000000" y="1.000000" width="78.000000" height="78.000000" fill="#232F3E"/><path d=" M 0.000000 0.000000 L 0.000000 80.000000 L 0.000000 80.000000 L 0.000000 130.000000 L 80.000000 130.000000 L 80.000000 80.000000 L 80.000000 80.000000 L 80.000000 0.000000 Z M 1.000000 1.000000 L 79.000000 1.000000 L 79.000000 79.000000 L 1.000000 79.000000 Z" fill="#FFFFFF"/></g><g id="TEXT_-_EDIT"><path d=" M 25.350000 92.349998 L 24.920000 90.529999 L 22.920000 90.529999 L 22.500000 92.349998 L 20.719999 92.349998 L 23.000000 84.720001 L 24.900000 84.720001 L 27.209999 92.349998 Z M 23.170000 89.430000 L 24.660000 89.430000 L 23.900000 86.269997 Z" fill="#232F3E"/><path d=" M 34.060001 92.349998 L 34.060001 88.639999 C 34.076664 88.401566 34.028278 88.163086 33.920002 87.949997 C 33.818390 87.798111 33.642017 87.713760 33.460003 87.729996 C 33.174561 87.741776 32.897831 87.831711 32.660004 87.989998 C 32.664921 88.029846 32.664921 88.070152 32.660004 88.110001 L 32.660000 92.349998 L 31.000000 92.349998 L 31.000000 88.639999 C 31.019257 88.402504 30.974358 88.164200 30.870001 87.949997 C 30.765142 87.796478 30.585056 87.712181 30.400002 87.729996 C 30.121338 87.744865 29.851856 87.834694 29.620001 87.989998 L 29.620001 92.349998 L 28.000000 92.349998 L 28.000000 86.720001 L 29.350000 86.720001 L 29.480000 87.230003 C 30.005127 86.837898 30.635393 86.611557 31.289999 86.580002 C 31.787903 86.543671 32.259682 86.807076 32.489998 87.250000 C 33.020988 86.851845 33.657448 86.618820 34.320000 86.580002 C 34.698605 86.567619 35.063778 86.720993 35.320000 87.000000 C 35.580429 87.351334 35.707973 87.783562 35.680000 88.220001 L 35.680000 92.349998 Z" fill="#232F3E"/><path d=" M 40.000000 92.349998 L 39.860001 91.839996 C 39.704742 92.042564 39.502155 92.203949 39.270000 92.309998 C 39.023094 92.427322 38.753361 92.488777 38.480000 92.489998 C 38.038441 92.498497 37.613724 92.320625 37.310001 92.000000 C 37.006588 91.668808 36.851307 91.228241 36.880001 90.779999 C 36.856857 90.286880 37.050484 89.808296 37.410000 89.470001 C 37.807274 89.133095 38.320316 88.964470 38.840000 89.000000 C 39.154030 89.006668 39.466179 89.050301 39.770000 89.129997 L 39.770000 88.620003 C 39.797573 88.349762 39.741737 88.077560 39.610001 87.840004 C 39.445477 87.687714 39.222755 87.614693 39.000000 87.640007 C 38.395546 87.665237 37.798565 87.783279 37.230000 87.990005 L 37.230000 87.000000 C 37.513470 86.841469 37.820801 86.730019 38.139999 86.669998 C 38.521481 86.590019 38.910225 86.549805 39.299999 86.549995 C 39.843796 86.502090 40.385880 86.659012 40.820000 86.989998 C 41.164772 87.366852 41.335323 87.871239 41.290001 88.379997 L 41.290001 92.320000 Z M 39.000000 91.430000 C 39.298344 91.418404 39.580971 91.293190 39.790001 91.080002 L 39.790001 90.000000 C 39.584171 89.948074 39.372208 89.924522 39.160000 89.930000 C 38.962250 89.913605 38.767620 89.987053 38.630001 90.129997 C 38.490948 90.293694 38.422604 90.505920 38.440002 90.719994 C 38.429714 90.905304 38.482594 91.088631 38.590004 91.239990 C 38.687565 91.366325 38.840549 91.437218 39.000004 91.429993 Z" fill="#232F3E"/><path d=" M 42.279999 92.349998 L 42.279999 91.279999 L 44.770000 87.879997 L 42.369999 87.879997 L 42.369999 86.720001 L 46.509998 86.720001 L 46.509998 87.790001 L 44.000000 91.190002 L 46.540001 91.190002 L 46.540001 92.349998 Z" fill="#232F3E"/><path d=" M 49.790001 92.489998 C 49.108448 92.512650 48.452259 92.230377 48.000000 91.720001 C 47.133984 90.392052 47.133984 88.677956 48.000000 87.349998 C 49.011749 86.331032 50.657967 86.325180 51.676933 87.336929 C 51.681305 87.341270 51.685661 87.345627 51.690002 87.349998 C 52.556019 88.677948 52.556019 90.392044 51.690002 91.720001 C 51.211487 92.259041 50.508781 92.543823 49.790001 92.489998 Z M 49.790001 91.339996 C 50.076321 91.350388 50.337559 91.177567 50.440002 90.909996 C 50.706799 90.016144 50.706799 89.063843 50.440002 88.169998 C 50.304638 87.813774 49.906124 87.634735 49.549900 87.770103 C 49.365585 87.840141 49.220043 87.985687 49.150002 88.169998 C 48.883205 89.063850 48.883205 90.016151 49.150002 90.909996 C 49.248730 91.175995 49.506416 91.349129 49.790001 91.339996 Z" fill="#232F3E"/><path d=" M 56.549999 92.349998 L 56.549999 88.650002 C 56.566494 88.408363 56.518166 88.166710 56.410000 87.950005 C 56.294102 87.793236 56.103878 87.709541 55.910000 87.730003 C 55.618229 87.741188 55.334908 87.831024 55.090000 87.990005 L 55.090000 92.349998 L 53.439999 92.349998 L 53.439999 86.720001 L 54.790001 86.720001 L 54.930000 87.230003 C 55.464371 86.833908 56.105400 86.607452 56.770000 86.580002 C 57.171432 86.553581 57.563728 86.707565 57.840000 87.000000 C 58.102020 87.350540 58.229740 87.783371 58.200001 88.220001 L 58.200001 92.349998 Z" fill="#232F3E"/><path d=" M 10.000000 106.349998 L 10.000000 98.720001 L 14.540000 98.720001 L 14.540000 99.900002 L 11.660000 99.900002 L 11.660000 101.849998 L 14.000000 101.849998 L 14.000000 103.000000 L 11.660000 103.000000 L 11.660000 105.150002 L 14.510000 105.150002 L 14.510000 106.330002 Z" fill="#232F3E"/><path d=" M 18.000000 106.250000 C 17.679802 106.366165 17.340456 106.420456 17.000000 106.410004 C 16.625441 106.411583 16.265644 106.264069 16.000000 106.000000 C 15.736511 105.689018 15.607055 105.286263 15.640000 104.879997 L 15.640000 98.209999 L 17.290001 98.209999 L 17.290001 104.750000 C 17.279200 104.888161 17.306890 105.026619 17.370001 105.150002 C 17.450697 105.239822 17.570145 105.284615 17.690001 105.270004 C 17.806471 105.279564 17.923529 105.279564 18.040001 105.270004 Z" fill="#232F3E"/><path d=" M 22.000000 106.349998 L 21.850000 105.839996 C 21.699303 106.046989 21.495443 106.209389 21.260000 106.309998 C 21.016253 106.426201 20.750021 106.487640 20.480000 106.489998 C 20.040819 106.513031 19.612318 106.349617 19.299999 106.040001 C 18.993969 105.709824 18.835167 105.269508 18.859999 104.820000 C 18.836857 104.326881 19.030481 103.848297 19.389999 103.510002 C 19.793863 103.177910 20.307987 103.010109 20.830000 103.040001 C 21.144030 103.046669 21.456179 103.090302 21.760000 103.169998 L 21.760000 102.660004 C 21.785198 102.388687 21.725815 102.116226 21.590000 101.880005 C 21.425478 101.727715 21.202753 101.654694 20.980000 101.680008 C 20.375546 101.705238 19.778566 101.823280 19.209999 102.030006 L 19.209999 101.029999 C 19.497076 100.871574 19.807678 100.760162 20.129999 100.699997 C 20.511402 100.619514 20.900198 100.579300 21.289999 100.579994 C 21.830547 100.533653 22.368952 100.690544 22.799999 101.019997 C 23.149231 101.394203 23.320473 101.900635 23.269999 102.409996 L 23.270000 106.349998 Z M 21.000000 105.430000 C 21.300936 105.416977 21.586193 105.292175 21.799999 105.080002 L 21.799999 104.000000 C 21.594059 103.948677 21.382181 103.925140 21.170000 103.930000 C 20.969454 103.914780 20.772249 103.987816 20.629999 104.129997 C 20.498238 104.297188 20.434004 104.507729 20.449999 104.719994 C 20.439709 104.905304 20.492592 105.088631 20.599998 105.239990 C 20.673658 105.342346 20.785360 105.410812 20.909998 105.429993 Z" fill="#232F3E"/><path d=" M 26.620001 104.769997 C 26.620001 104.519997 26.450001 104.309998 26.100000 104.150002 L 25.379999 103.800003 C 24.702705 103.565338 24.248898 102.926796 24.250000 102.210007 C 24.221603 101.740471 24.427570 101.287346 24.799999 101.000008 C 25.222359 100.682838 25.742470 100.523621 26.269999 100.550011 C 26.799648 100.551735 27.322277 100.671295 27.799999 100.900009 L 27.799999 101.900002 C 27.571442 101.820229 27.337523 101.756737 27.099998 101.709999 C 26.902863 101.666542 26.701845 101.643089 26.499998 101.639999 C 25.990000 101.639999 25.730000 101.820000 25.730000 102.180000 C 25.730000 102.540001 25.940001 102.629997 26.370001 102.839996 L 27.090000 103.180000 C 27.396877 103.315102 27.662537 103.529015 27.860001 103.800003 C 28.028261 104.080269 28.111628 104.403313 28.100000 104.730003 C 28.124760 105.215942 27.921360 105.685608 27.550001 106.000000 C 27.125515 106.321449 26.601913 106.484184 26.070002 106.459999 C 25.436131 106.467438 24.810471 106.316177 24.250002 106.019997 L 24.250000 105.019997 C 24.765829 105.217575 25.308697 105.335594 25.860001 105.369995 C 26.064173 105.382927 26.266270 105.322655 26.430000 105.199997 C 26.553343 105.091476 26.622808 104.934265 26.620001 104.769997 Z" fill="#232F3E"/><path d=" M 32.070000 106.199997 C 31.676231 106.345474 31.259783 106.419960 30.840000 106.419998 C 30.364889 106.461807 29.891989 106.318504 29.520000 106.019997 C 29.219149 105.656647 29.072039 105.190201 29.110001 104.719994 L 29.110001 101.820000 L 28.379999 101.820000 L 28.379999 100.900002 L 29.160000 100.750000 L 29.400000 99.209999 L 30.760000 99.209999 L 30.760000 100.720001 L 32.000000 100.720001 L 32.000000 101.820000 L 30.760000 101.820000 L 30.760000 104.589996 C 30.741528 104.776146 30.795221 104.962288 30.910000 105.109993 C 31.056587 105.234970 31.248745 105.292976 31.440001 105.269997 C 31.652239 105.265694 31.863422 105.238876 32.070000 105.189995 Z" fill="#232F3E"/><path d=" M 33.810001 99.809998 C 33.554760 99.822983 33.303185 99.745026 33.100002 99.589996 C 32.923275 99.438095 32.827194 99.212677 32.840004 98.979996 C 32.825623 98.747040 32.921989 98.520950 33.100002 98.369995 C 33.298119 98.204575 33.552521 98.122162 33.810001 98.139992 C 34.064102 98.124771 34.314445 98.207024 34.510002 98.369995 C 34.690453 98.519913 34.790359 98.745628 34.780003 98.979996 C 34.788818 99.214073 34.689198 99.439140 34.510002 99.589996 C 34.312973 99.749374 34.062782 99.828011 33.810001 99.809998 Z M 33.000000 106.349998 L 33.000000 100.720001 L 34.650002 100.720001 L 34.650002 106.349998 Z" fill="#232F3E"/><path d=" M 39.730000 106.089996 C 39.533363 106.213127 39.316799 106.301109 39.090000 106.349998 C 38.824291 106.410645 38.552540 106.440842 38.279999 106.439995 C 37.587513 106.489487 36.910202 106.220772 36.439999 105.709991 C 35.572289 104.400703 35.572289 102.699280 36.439999 101.389992 C 36.918079 100.869415 37.604309 100.590523 38.309998 100.629990 C 38.780235 100.627731 39.243828 100.741051 39.659996 100.959991 L 39.660000 101.959999 C 39.339512 101.841644 39.001564 101.777435 38.660000 101.769997 C 38.300423 101.724968 37.944622 101.878006 37.730000 102.169998 C 37.508038 102.561913 37.407127 103.010796 37.439999 103.459999 L 37.439999 103.620003 C 37.407833 104.064751 37.505081 104.509300 37.719997 104.900002 C 37.928989 105.182068 38.270584 105.333885 38.619999 105.300003 C 38.992542 105.291672 39.361027 105.220680 39.709999 105.090004 Z" fill="#232F3E"/><path d=" M 42.779999 104.769997 C 42.779999 104.519997 42.599998 104.309998 42.259998 104.150002 L 41.540001 103.800003 C 40.860664 103.566200 40.403404 102.928444 40.400002 102.210007 C 40.384933 101.731682 40.610134 101.277534 41.000000 101.000008 C 41.422359 100.682838 41.942471 100.523621 42.470001 100.550011 C 42.999649 100.551735 43.522278 100.671295 44.000000 100.900009 L 44.000000 101.900002 C 43.771049 101.821503 43.537220 101.758034 43.299999 101.709999 C 43.102863 101.666542 42.901844 101.643089 42.700001 101.639999 C 42.180000 101.639999 41.919998 101.820000 41.919998 102.180000 C 41.919998 102.410004 42.139999 102.629997 42.560001 102.839996 L 43.290001 103.180000 C 43.596878 103.315102 43.862537 103.529015 44.060001 103.800003 C 44.228264 104.080269 44.311630 104.403313 44.300003 104.730003 C 44.311081 105.224182 44.088779 105.694725 43.700005 106.000000 C 43.275520 106.321449 42.751915 106.484184 42.220005 106.459999 C 41.586372 106.465340 40.961220 106.314201 40.400005 106.019997 L 40.400002 105.019997 C 40.918957 105.218719 41.465294 105.336754 42.020000 105.369995 C 42.221329 105.385101 42.421043 105.324471 42.580002 105.199997 C 42.705959 105.092514 42.778957 104.935577 42.780003 104.769997 Z" fill="#232F3E"/><path d=" M 46.400002 103.919998 C 46.388794 104.323456 46.515816 104.718628 46.760002 105.040001 C 47.055569 105.286263 47.436882 105.404976 47.820004 105.370003 C 48.049294 105.365166 48.277348 105.334984 48.500004 105.280006 C 48.774563 105.228943 49.045219 105.158775 49.310005 105.070007 L 49.310001 106.070000 C 49.047085 106.214767 48.763931 106.319267 48.470001 106.379997 C 48.141602 106.452568 47.806324 106.489449 47.470001 106.489998 C 45.750000 106.489998 44.889999 105.489998 44.889999 103.540001 C 44.836960 102.755630 45.059818 101.977402 45.520000 101.340004 C 45.977764 100.814682 46.654766 100.533524 47.350002 100.580002 C 48.709999 100.580002 49.349998 101.339996 49.349998 102.870003 C 49.349125 103.206871 49.308853 103.542488 49.230000 103.870003 Z M 47.320000 101.599998 C 46.740002 101.599998 46.430000 102.059998 46.400002 102.970001 L 48.000000 102.970001 L 48.000000 102.720001 C 48.020443 102.423340 47.961781 102.126572 47.830002 101.860001 C 47.716251 101.691147 47.523476 101.592865 47.320004 101.599998 Z" fill="#232F3E"/><path d=" M 53.450001 106.349998 L 53.310001 105.839996 C 53.153164 106.045074 52.946671 106.206825 52.710003 106.309998 C 52.467041 106.428444 52.200298 106.489998 51.930004 106.489998 C 51.490826 106.513031 51.062325 106.349617 50.750004 106.040001 C 50.139271 105.292549 50.182178 104.206917 50.850002 103.510002 C 51.247276 103.173096 51.760319 103.004471 52.280003 103.040001 C 52.594032 103.046669 52.906181 103.090302 53.210003 103.169998 L 53.209999 102.660004 C 53.237572 102.389763 53.181736 102.117561 53.049999 101.880005 C 52.885475 101.727715 52.662754 101.654694 52.439999 101.680008 C 51.835545 101.705238 51.238564 101.823280 50.669998 102.030006 L 50.669998 101.029999 C 50.953468 100.871468 51.260799 100.760017 51.579998 100.699997 C 51.961479 100.620018 52.350224 100.579803 52.739998 100.579994 C 53.283604 100.534027 53.825005 100.690742 54.259998 101.019997 C 54.604771 101.396851 54.775322 101.901237 54.730000 102.409996 L 54.730000 106.349998 Z M 52.450001 105.430000 C 52.751385 105.418922 53.037319 105.293823 53.250000 105.080002 L 53.250000 104.000000 C 53.044060 103.948677 52.832180 103.925140 52.619999 103.930000 C 52.422249 103.913605 52.227619 103.987053 52.090000 104.129997 C 51.950947 104.293694 51.882603 104.505920 51.900002 104.719994 C 51.889713 104.905304 51.942593 105.088631 52.050003 105.239990 C 52.135876 105.353592 52.267761 105.423195 52.410004 105.429993 Z" fill="#232F3E"/><path d=" M 56.119999 106.349998 L 56.119999 100.720001 L 57.470001 100.720001 L 57.660000 101.449997 C 57.857487 101.210457 58.098358 101.010300 58.369999 100.860001 C 58.599918 100.734291 58.857956 100.668915 59.119999 100.669998 C 59.249809 100.660080 59.380188 100.660080 59.509998 100.669998 L 59.509998 102.000000 C 59.296898 101.985909 59.083099 101.985909 58.869999 102.000000 C 58.491371 102.000565 58.118114 102.089600 57.779999 102.260002 L 57.779999 106.370003 Z" fill="#232F3E"/><path d=" M 63.900002 106.089996 C 63.702568 106.211563 63.486279 106.299431 63.260002 106.349998 C 62.994293 106.410645 62.722542 106.440842 62.450001 106.439995 C 61.757282 106.490982 61.079346 106.222023 60.610001 105.709991 C 60.148716 105.088364 59.925232 104.322128 59.980000 103.549988 C 59.929222 102.771988 60.167850 102.002678 60.649998 101.389984 C 61.126400 100.867004 61.813828 100.587616 62.519997 100.629982 C 62.990234 100.627724 63.453827 100.741043 63.869995 100.959984 L 63.869999 101.959999 C 63.549511 101.841644 63.211563 101.777435 62.869999 101.769997 C 62.508846 101.733589 62.154179 101.884514 61.930000 102.169998 C 61.712070 102.563194 61.614689 103.011833 61.650002 103.459999 L 61.650002 103.620003 C 61.613052 104.065079 61.710598 104.511002 61.930000 104.900002 C 62.138992 105.182068 62.480587 105.333885 62.830002 105.300003 C 63.202545 105.291672 63.571030 105.220680 63.920002 105.090004 Z" fill="#232F3E"/><path d=" M 68.050003 106.349998 L 68.050003 102.650002 C 68.066498 102.408363 68.018166 102.166710 67.910004 101.950005 C 67.794106 101.793236 67.603882 101.709541 67.410004 101.730003 C 67.117973 101.739677 66.834251 101.829636 66.590004 101.990005 L 66.589996 106.349998 L 64.940002 106.349998 L 64.940002 98.209999 L 66.589996 98.209999 L 66.589996 101.120003 C 67.089478 100.788506 67.670914 100.601616 68.269997 100.580002 C 68.668465 100.553772 69.057632 100.707970 69.329994 101.000000 C 69.599724 101.347038 69.731514 101.781601 69.699997 102.220001 L 69.699997 106.349998 Z" fill="#232F3E"/><path d=" M 24.730000 117.000000 C 24.232723 116.768532 23.794912 116.426491 23.449999 116.000000 C 23.191233 115.643089 23.057642 115.210678 23.070000 114.769997 C 23.059801 114.355682 23.174810 113.947922 23.400000 113.599998 C 23.632124 113.261627 23.954256 112.994911 24.330000 112.830002 C 24.751116 112.641739 25.208838 112.549515 25.670000 112.560005 C 26.319569 112.563965 26.961924 112.696510 27.559999 112.950005 L 27.559999 114.120003 C 27.008253 113.917831 26.427393 113.806381 25.840000 113.790001 C 25.555244 113.776161 25.273926 113.857040 25.040001 114.020004 C 24.847281 114.175255 24.739666 114.412743 24.750000 114.660004 C 24.745146 114.863258 24.812462 115.061668 24.940001 115.220001 C 25.143887 115.428474 25.389143 115.591980 25.660000 115.700005 L 26.309999 116.019997 C 26.667839 116.184235 27.003771 116.392517 27.309999 116.639999 C 27.545288 116.820801 27.731043 117.058159 27.850000 117.330002 C 27.977577 117.619499 28.039066 117.933777 28.030001 118.250000 C 28.060263 118.886475 27.785427 119.499283 27.290001 119.900002 C 26.713343 120.327324 26.006987 120.542763 25.290001 120.510002 C 24.906866 120.509674 24.524807 120.469460 24.150002 120.389999 C 23.804222 120.327065 23.468079 120.219498 23.150002 120.070000 L 23.150000 118.919998 C 23.477161 119.026321 23.811295 119.109856 24.150000 119.169998 C 24.479118 119.238113 24.813944 119.274940 25.150000 119.279999 C 25.457417 119.289337 25.758320 119.190216 26.000000 119.000000 C 26.212818 118.827957 26.328489 118.563034 26.309999 118.290001 C 26.316534 118.075134 26.237391 117.866486 26.090000 117.709999 C 25.886230 117.513252 25.649240 117.354134 25.389999 117.239998 Z" fill="#232F3E"/><path d=" M 30.370001 117.919998 C 30.349251 118.324760 30.477299 118.723129 30.730001 119.040001 C 31.025566 119.286263 31.406881 119.404976 31.790001 119.370003 C 32.019203 119.363998 32.247131 119.333832 32.470001 119.280006 C 32.741528 119.230042 33.008942 119.159843 33.270000 119.070007 L 33.270000 120.070000 C 33.011761 120.217194 32.731506 120.321869 32.439999 120.379997 C 32.111473 120.451813 31.776278 120.488686 31.439999 120.489998 C 29.719999 120.489998 28.860001 119.489998 28.860001 117.540001 C 28.805513 116.753960 29.032366 115.974152 29.500000 115.340004 C 29.954651 114.816292 30.627926 114.535149 31.320000 114.580002 C 32.689999 114.580002 33.369999 115.339996 33.369999 116.870003 C 33.369125 117.206871 33.328854 117.542488 33.250000 117.870003 Z M 31.280001 115.599998 C 30.709999 115.599998 30.400000 116.059998 30.370001 116.970001 L 32.000000 116.970001 L 32.000000 116.720001 C 32.025040 116.423065 31.966135 116.125076 31.830000 115.860001 C 31.708925 115.678207 31.497326 115.578178 31.280001 115.599998 Z" fill="#232F3E"/><path d=" M 34.509998 120.349998 L 34.509998 114.720001 L 35.860001 114.720001 L 36.040001 115.449997 C 36.240948 115.209991 36.485180 115.009857 36.760002 114.860001 C 36.989922 114.734291 37.247959 114.668915 37.510002 114.669998 C 37.639812 114.660080 37.770191 114.660080 37.900002 114.669998 L 37.900002 116.000000 C 37.686886 115.986336 37.473118 115.986336 37.260002 116.000000 C 36.878166 116.000481 36.501644 116.089478 36.160004 116.260002 L 36.160000 120.370003 Z" fill="#232F3E"/><path d=" M 40.320000 120.349998 L 38.459999 114.720001 L 40.209999 114.720001 L 41.099998 118.720001 L 42.020000 114.720001 L 43.720001 114.720001 L 41.869999 120.349998 Z" fill="#232F3E"/><path d=" M 45.340000 113.809998 C 45.084538 113.824768 44.832355 113.746628 44.630001 113.589996 C 44.453274 113.438095 44.357193 113.212677 44.370003 112.979996 C 44.355621 112.747040 44.451988 112.520950 44.630001 112.369995 C 45.050442 112.064751 45.619560 112.064751 46.040001 112.369995 C 46.220451 112.519913 46.320358 112.745628 46.310001 112.979996 C 46.318817 113.214073 46.219196 113.439140 46.040001 113.589996 C 45.842972 113.749374 45.592781 113.828011 45.340000 113.809998 Z M 44.509998 120.349998 L 44.509998 114.720001 L 46.160000 114.720001 L 46.160000 120.349998 Z" fill="#232F3E"/><path d=" M 51.259998 120.089996 C 51.063362 120.213127 50.846798 120.301109 50.619999 120.349998 C 50.354290 120.410645 50.082539 120.440842 49.809998 120.439995 C 49.117512 120.489487 48.440201 120.220772 47.969997 119.709991 C 47.508713 119.088364 47.285229 118.322128 47.339996 117.549988 C 47.289219 116.771988 47.527847 116.002678 48.009995 115.389984 C 48.488075 114.869408 49.174305 114.590515 49.879993 114.629982 C 50.350231 114.627724 50.813824 114.741043 51.229992 114.959984 L 51.230000 115.959999 C 50.909512 115.841644 50.571564 115.777435 50.230000 115.769997 C 49.870422 115.724968 49.514622 115.878006 49.299999 116.169998 C 49.078037 116.561913 48.977127 117.010796 49.009998 117.459999 L 49.009998 117.620003 C 48.973049 118.065079 49.070595 118.511002 49.289997 118.900002 C 49.498989 119.182068 49.840584 119.333885 50.189999 119.300003 C 50.562542 119.291672 50.931026 119.220680 51.279999 119.090004 Z" fill="#232F3E"/><path d=" M 53.520000 117.919998 C 53.508793 118.323456 53.635815 118.718628 53.880001 119.040001 C 54.175568 119.286263 54.556881 119.404976 54.940002 119.370003 C 55.169292 119.365166 55.397346 119.334984 55.620003 119.280006 C 55.894562 119.228943 56.165218 119.158775 56.430004 119.070007 L 56.430000 120.070000 C 56.167084 120.214767 55.883930 120.319267 55.590000 120.379997 C 55.261600 120.452568 54.926323 120.489449 54.590000 120.489998 C 52.869999 120.489998 52.009998 119.489998 52.009998 117.540001 C 51.956959 116.755630 52.179817 115.977402 52.639999 115.340004 C 53.097763 114.814682 53.774765 114.533524 54.470001 114.580002 C 55.830002 114.580002 56.470001 115.339996 56.470001 116.870003 C 56.469128 117.206871 56.428856 117.542488 56.350002 117.870003 Z M 54.439999 115.599998 C 53.860001 115.599998 53.549999 116.059998 53.520000 116.970001 L 55.139999 116.970001 L 55.139999 116.720001 C 55.160442 116.423340 55.101780 116.126572 54.970001 115.860001 C 54.852512 115.684830 54.650444 115.585701 54.440002 115.599998 Z" fill="#232F3E"/></g><g id="ICONS_-_EDIT"><path d=" M 25.000000 63.750000 L 16.000000 63.750000 C 15.447715 63.750000 15.000000 63.302284 15.000000 62.750000 L 15.000000 30.750000 C 15.000000 30.197716 15.447715 29.750000 16.000000 29.750000 L 25.000000 29.750000 C 25.552284 29.750000 26.000000 30.197716 26.000000 30.750000 L 26.000000 62.750000 C 26.000000 63.302284 25.552284 63.750000 25.000000 63.750000 Z M 17.000000 61.750000 L 24.000000 61.750000 L 24.000000 31.750000 L 17.000000 31.750000 Z" fill="#FFFFFF"/><path d=" M 30.000000 37.750000 L 28.000000 37.750000 L 28.000000 24.750000 C 28.000000 24.197716 28.447716 23.750000 29.000000 23.750000 L 38.000000 23.750000 C 38.552284 23.750000 39.000000 24.197716 39.000000 24.750000 L 39.000000 28.750000 L 37.000000 28.750000 L 37.000000 25.750000 L 30.000000 25.750000 Z" fill="#FFFFFF"/><path d=" M 38.000000 63.750000 L 29.000000 63.750000 C 28.447716 63.750000 28.000000 63.302284 28.000000 62.750000 L 28.000000 47.750000 L 30.000000 47.750000 L 30.000000 61.750000 L 37.000000 61.750000 L 37.000000 56.750000 L 39.000000 56.750000 L 39.000000 62.750000 C 39.000000 63.302284 38.552284 63.750000 38.000000 63.750000 Z" fill="#FFFFFF"/><path d=" M 52.000000 29.750000 L 50.000000 29.750000 L 50.000000 17.750000 L 43.000000 17.750000 L 43.000000 27.750000 L 41.000000 27.750000 L 41.000000 16.750000 C 41.000000 16.197716 41.447716 15.750000 42.000000 15.750000 L 51.000000 15.750000 C 51.552284 15.750000 52.000000 16.197716 52.000000 16.750000 Z" fill="#FFFFFF"/><path d=" M 51.000000 63.750000 L 42.000000 63.750000 C 41.447716 63.750000 41.000000 63.302284 41.000000 62.750000 L 41.000000 57.750000 L 43.000000 57.750000 L 43.000000 61.750000 L 50.000000 61.750000 L 50.000000 58.750000 L 52.000000 58.750000 L 52.000000 62.750000 C 52.000000 63.302284 51.552284 63.750000 51.000000 63.750000 Z" fill="#FFFFFF"/><path d=" M 65.000000 54.750000 L 63.000000 54.750000 L 63.000000 22.750000 L 56.000000 22.750000 L 56.000000 33.750000 L 54.000000 33.750000 L 54.000000 21.750000 C 54.000000 21.197716 54.447716 20.750000 55.000000 20.750000 L 64.000000 20.750000 C 64.552284 20.750000 65.000000 21.197716 65.000000 21.750000 Z" fill="#FFFFFF"/><path d=" M 43.000000 55.750000 C 35.820297 55.750000 30.000000 49.929703 30.000000 42.750000 C 30.000000 35.570297 35.820297 29.750000 43.000000 29.750000 C 50.179703 29.750000 56.000000 35.570297 56.000000 42.750000 C 56.000000 49.929703 50.179703 55.750000 43.000000 55.750000 Z M 43.000000 31.750000 C 36.924870 31.750000 32.000000 36.674870 32.000000 42.750000 C 32.000000 48.825130 36.924870 53.750000 43.000000 53.750000 C 49.075130 53.750000 54.000000 48.825130 54.000000 42.750000 C 54.000000 36.674870 49.075130 31.750000 43.000000 31.750000 Z" fill="#FFFFFF"/><path d=" M 38.570000 47.500000 C 37.179287 46.488605 36.253262 44.960842 36.000000 43.259998 C 35.473606 39.731285 37.907467 36.443970 41.436180 35.917576 C 43.133602 35.664364 44.862019 36.096996 46.240002 37.119999 L 45.049999 38.730000 C 43.070057 37.263683 40.276314 37.680058 38.809998 39.660000 C 37.343681 41.639942 37.760056 44.433685 39.739998 45.900002 Z" fill="#FFFFFF"/><path d=" M 60.840000 64.250000 C 59.732231 64.243462 58.673290 63.793232 57.900002 63.000000 L 48.520000 53.630001 L 49.939999 52.220001 L 59.310001 61.590000 C 60.030643 62.540668 61.385506 62.727146 62.336174 62.006504 C 63.286842 61.285862 63.473320 59.931000 62.752678 58.980331 C 62.642162 58.834541 62.513577 58.703381 62.369999 58.590000 L 52.869999 49.000000 L 54.290001 47.590000 L 63.790001 57.119999 C 65.408218 58.758694 65.391609 61.398941 63.752918 63.017155 C 62.976669 63.783703 61.930935 64.215523 60.840000 64.220001 Z" fill="#FFFFFF"/></g></svg>