<svg version="1.1" width="80.000000" height="100.000000" viewBox="0.000000 0.000000 80.000000 100.000000" xmlns="http://www.w3.org/2000/svg" xmlns:xlink="http://www.w3.org/1999/xlink" overflow="hidden"><g id="CARDS"><rect x="1.000000" y="1.000000" width="78.000000" height="78.000000" fill="#232F3E"/><path d=" M 0.000000 0.000000 L 0.000000 80.000000 L 0.000000 80.000000 L 0.000000 100.000000 L 80.000000 100.000000 L 80.000000 80.000000 L 80.000000 80.000000 L 80.000000 0.000000 Z M 1.000000 1.000000 L 79.000000 1.000000 L 79.000000 79.000000 L 1.000000 79.000000 Z" fill="#FFFFFF"/></g><g id="TEXT_-_EDIT"><path d=" M 13.540000 92.349998 L 13.100000 90.529999 L 11.100000 90.529999 L 10.680000 92.349998 L 8.910000 92.349998 L 11.230000 84.720001 L 13.090000 84.720001 L 15.390000 92.349998 Z M 11.360000 89.430000 L 12.850000 89.430000 L 12.090000 86.269997 Z" fill="#232F3E"/><path d=" M 22.250000 92.349998 L 22.250000 88.639999 C 22.266665 88.401566 22.218275 88.163086 22.110001 87.949997 C 22.008390 87.798111 21.832016 87.713760 21.650002 87.729996 C 21.364559 87.741776 21.087830 87.831711 20.850002 87.989998 C 20.854919 88.029846 20.854919 88.070152 20.850002 88.110001 L 20.850000 92.349998 L 19.209999 92.349998 L 19.209999 88.639999 C 19.231562 88.401268 19.182901 88.161446 19.070000 87.949997 C 18.969904 87.796371 18.792418 87.711487 18.610001 87.729996 C 18.331148 87.743874 18.061407 87.833786 17.830000 87.989998 L 17.830000 92.349998 L 16.180000 92.349998 L 16.180000 86.720001 L 17.530001 86.720001 L 17.660000 87.230003 C 18.185127 86.837898 18.815393 86.611557 19.469999 86.580002 C 19.967903 86.543671 20.439682 86.807076 20.670000 87.250000 C 21.200991 86.851845 21.837450 86.618820 22.500000 86.580002 C 22.878605 86.567619 23.243778 86.720993 23.500000 87.000000 C 23.760429 87.351334 23.887972 87.783562 23.860001 88.220001 L 23.860001 92.349998 Z" fill="#232F3E"/><path d=" M 28.200001 92.349998 L 28.059999 91.839996 C 27.903160 92.045074 27.696671 92.206825 27.459999 92.309998 C 27.217037 92.428444 26.950293 92.489998 26.679998 92.489998 C 26.234749 92.502617 25.805338 92.324303 25.499998 92.000000 C 24.889263 91.252548 24.932175 90.166916 25.599998 89.470001 C 25.989618 89.140472 26.490461 88.972328 26.999998 89.000000 C 27.314028 89.006668 27.626177 89.050301 27.929998 89.129997 L 27.930000 88.620003 C 27.952145 88.350067 27.896629 88.079422 27.770000 87.840004 C 27.604797 87.688873 27.382614 87.616028 27.160000 87.640007 C 26.555546 87.665237 25.958567 87.783279 25.389999 87.990005 L 25.389999 87.000000 C 25.672703 86.839798 25.980320 86.728241 26.299999 86.669998 C 26.681480 86.590019 27.070225 86.549805 27.459999 86.549995 C 28.011580 86.501785 28.561161 86.662376 29.000000 86.999992 C 29.344774 87.376846 29.515322 87.881233 29.469999 88.389992 L 29.469999 92.330002 Z M 27.200001 91.430000 C 27.501385 91.418922 27.787319 91.293823 28.000000 91.080002 L 28.000000 90.000000 C 27.794060 89.948677 27.582182 89.925140 27.370001 89.930000 C 27.172253 89.913605 26.977621 89.987053 26.840000 90.129997 C 26.700947 90.293694 26.632605 90.505920 26.650000 90.719994 C 26.639709 90.905304 26.692593 91.088631 26.799999 91.239990 C 26.884926 91.354698 27.017376 91.424606 27.160000 91.429993 Z" fill="#232F3E"/><path d=" M 30.459999 92.349998 L 30.459999 91.279999 L 32.959999 87.879997 L 30.559999 87.879997 L 30.559999 86.720001 L 34.689999 86.720001 L 34.689999 87.790001 L 32.200001 91.190002 L 34.740002 91.190002 L 34.740002 92.349998 Z" fill="#232F3E"/><path d=" M 38.000000 92.489998 C 37.301231 92.527954 36.623463 92.244324 36.160000 91.720001 C 35.293983 90.392052 35.293983 88.677956 36.160000 87.349998 C 37.171749 86.331032 38.817966 86.325180 39.836933 87.336929 C 39.841305 87.341270 39.845661 87.345627 39.850002 87.349998 C 40.716019 88.677948 40.716019 90.392044 39.850002 91.720001 C 39.382557 92.244698 38.701687 92.528084 38.000004 92.489998 Z M 38.000000 91.339996 C 38.286320 91.350388 38.547558 91.177567 38.650002 90.909996 C 38.916798 90.016144 38.916798 89.063843 38.650002 88.169998 C 38.550919 87.898483 38.288895 87.721115 38.000000 87.729996 C 37.713818 87.722336 37.455326 87.900047 37.360001 88.169998 C 37.093204 89.063850 37.093204 90.016151 37.360001 90.909996 C 37.458729 91.175995 37.716415 91.349129 38.000000 91.339996 Z" fill="#232F3E"/><path d=" M 44.740002 92.349998 L 44.740002 88.650002 C 44.756496 88.408363 44.708168 88.166710 44.600002 87.950005 C 44.482830 87.794846 44.293560 87.711563 44.100002 87.730003 C 43.807972 87.739677 43.524254 87.829636 43.280003 87.990005 L 43.279999 92.349998 L 41.630001 92.349998 L 41.630001 86.720001 L 43.000000 86.720001 L 43.130001 87.230003 C 43.674488 86.831551 44.325764 86.605171 45.000000 86.580002 C 45.377869 86.571548 45.741489 86.724274 46.000000 87.000000 C 46.269730 87.347038 46.401524 87.781601 46.369999 88.220001 L 46.369999 92.349998 Z" fill="#232F3E"/><path d=" M 50.439999 92.349998 L 50.439999 84.720001 L 55.000000 84.720001 L 55.000000 85.900002 L 52.130001 85.900002 L 52.130001 87.849998 L 54.410000 87.849998 L 54.410000 89.000000 L 52.130001 89.000000 L 52.130001 91.150002 L 55.000000 91.150002 L 55.000000 92.330002 Z" fill="#232F3E"/><path d=" M 62.000000 92.349998 L 62.000000 87.000000 L 60.590000 90.459999 L 59.110001 90.459999 L 57.720001 87.000000 L 57.720001 92.320000 L 56.209999 92.320000 L 56.209999 84.720001 L 58.139999 84.720001 L 59.860001 89.000000 L 61.580002 84.730003 L 63.459999 84.730003 L 63.459999 92.360001 Z" fill="#232F3E"/><path d=" M 68.860001 92.349998 L 67.400002 89.519997 L 66.750000 89.519997 L 66.750000 92.349998 L 65.099998 92.349998 L 65.099998 84.720001 L 67.739998 84.720001 C 68.390739 84.687714 69.026451 84.922493 69.500000 85.370003 C 69.956871 85.834206 70.196548 86.469711 70.160004 87.120003 C 70.172401 87.585030 70.058350 88.044708 69.830002 88.450005 C 69.620583 88.820808 69.298279 89.115089 68.910004 89.290001 L 70.589996 92.349998 Z M 66.750000 88.349998 L 67.529999 88.349998 C 67.806168 88.370110 68.074821 88.254440 68.250000 88.040001 C 68.430740 87.761032 68.518280 87.431900 68.500000 87.099998 C 68.519669 86.771095 68.431931 86.444710 68.250000 86.169998 C 68.079147 85.948952 67.808563 85.828690 67.529999 85.849998 L 66.750000 85.849998 Z" fill="#232F3E"/></g><g id="ICONS_-_EDIT"><path d=" M 38.070000 37.730000 L 38.070000 36.730000 L 37.779999 35.799999 L 54.779999 30.549999 L 55.369999 32.470001 L 38.369999 37.709999 C 38.271580 37.731747 38.170437 37.738491 38.070000 37.730000 Z" fill="#FFFFFF"/><rect x="35.680000" y="48.100000" width="2.000000" height="9.050000" fill="#FFFFFF" transform="matrix(0.810000,-0.580000,0.580000,0.810000,-23.840000,31.380000)"/><rect x="38.300000" y="43.650000" width="25.260000" height="2.000000" fill="#FFFFFF" transform="matrix(0.468701,-0.883357,0.883357,0.468701,-12.380000,68.710000)"/><rect x="32.130000" y="26.360000" width="9.050000" height="2.000000" fill="#FFFFFF" transform="matrix(0.586655,-0.809837,0.809837,0.586655,-7.010000,41.000000)"/><rect x="45.370000" y="37.240000" width="2.000000" height="17.460000" fill="#FFFFFF" transform="matrix(0.301205,-0.953559,0.953559,0.301205,-11.430000,76.330000)"/><rect x="49.690000" y="22.800000" width="2.000000" height="24.420000" fill="#FFFFFF" transform="matrix(0.885231,-0.465151,0.465151,0.885231,-10.470000,27.600000)"/><path d=" M 27.459999 52.099998 C 20.777365 52.112148 15.350169 46.704651 15.338019 40.022018 C 15.325870 33.339382 20.733366 27.912189 27.416000 27.900038 C 34.098637 27.887888 39.525829 33.295383 39.537979 39.978020 C 39.543823 43.191811 38.270901 46.275906 36.000000 48.549999 L 36.000000 48.549999 C 33.741989 50.826836 30.666643 52.105228 27.459999 52.099998 Z M 27.459999 29.910000 C 21.887449 29.915846 17.374743 34.438026 17.380589 40.010578 C 17.386435 45.583130 21.908617 50.095833 27.481167 50.089989 C 33.053719 50.084145 37.566422 45.561962 37.560577 39.989410 C 37.557770 37.314453 36.492882 34.750080 34.599998 32.860001 C 32.706841 30.966532 30.137543 29.904987 27.459999 29.910000 Z" fill="#FFFFFF"/><rect x="26.460000" y="35.000000" width="2.000000" height="10.000000" fill="#FFFFFF"/><rect x="22.460000" y="39.000000" width="10.000000" height="2.000000" fill="#FFFFFF"/><path d=" M 59.130001 35.110001 C 57.670906 35.111588 56.271202 34.532272 55.240002 33.500000 L 55.240002 33.500000 C 53.091614 31.352621 53.090797 27.870213 55.238178 25.721827 C 57.385559 23.573439 60.867966 23.572622 63.016354 25.720001 C 65.164742 27.867380 65.165558 31.349789 63.018177 33.498177 C 61.987099 34.529739 60.588509 35.109516 59.130001 35.110001 Z M 56.650002 32.110001 C 58.030712 33.490711 60.269291 33.490711 61.650002 32.110001 C 63.030712 30.729288 63.030712 28.490713 61.650002 27.110001 C 60.257278 25.758602 58.042725 25.758602 56.650002 27.110001 C 55.269291 28.470695 55.253063 30.693047 56.613758 32.073757 C 56.625751 32.085926 56.637833 32.098007 56.650002 32.110001 Z" fill="#FFFFFF"/><path d=" M 59.130001 54.889999 C 57.671124 54.890484 56.271824 54.311340 55.240002 53.279999 L 55.240002 53.279999 C 53.091614 51.132618 53.090797 47.650211 55.238178 45.501823 C 57.385559 43.353436 60.867966 43.352619 63.016354 45.500000 C 65.164742 47.647381 65.165558 51.129787 63.018177 53.278175 C 61.987099 54.309738 60.588509 54.889515 59.130001 54.889999 Z M 59.130001 45.889999 C 57.197079 45.873074 55.616413 47.426296 55.599487 49.359219 C 55.591156 50.310524 55.970432 51.224236 56.650002 51.889999 L 56.650002 51.889999 C 58.042725 53.241398 60.257278 53.241398 61.650002 51.889999 C 63.030746 50.537216 63.053417 48.321255 61.700634 46.940510 C 61.037323 46.263489 60.127792 45.884426 59.180000 45.889999 Z" fill="#FFFFFF"/><path d=" M 42.459999 65.000000 C 41.000248 65.004921 39.599308 64.425095 38.570000 63.389999 L 38.570000 63.389999 C 36.421612 61.242619 36.420795 57.760212 38.568176 55.611824 C 40.715557 53.463436 44.197964 53.462620 46.346352 55.610001 C 48.494740 57.757381 48.495556 61.239788 46.348175 63.388176 C 45.317097 64.419739 43.918507 64.999519 42.459999 65.000000 Z M 42.459999 56.000000 C 41.539207 55.990643 40.653107 56.350849 40.000000 57.000000 C 38.619289 58.336987 38.583839 60.540115 39.920826 61.920826 C 39.946793 61.947639 39.973186 61.974033 40.000000 62.000000 L 40.000000 62.000000 C 41.382145 63.329605 43.567856 63.329605 44.950001 62.000000 C 46.330788 60.647259 46.353523 58.431297 45.000782 57.050514 C 44.335018 56.370949 43.421307 55.991673 42.470001 56.000000 Z" fill="#FFFFFF"/><path d=" M 42.459999 26.000000 C 41.000248 26.004917 39.599308 25.425095 38.570000 24.389999 L 38.570000 24.389999 C 36.421612 22.242620 36.420795 18.760212 38.568176 16.611826 C 40.715557 14.463438 44.197964 14.462622 46.346352 16.610001 C 48.494740 18.757380 48.495556 22.239788 46.348175 24.388174 C 45.317097 25.419735 43.918507 25.999516 42.459999 26.000000 Z M 42.459999 17.000000 C 41.539207 16.990644 40.653107 17.350849 40.000000 18.000000 C 38.619289 19.336985 38.583839 21.540115 39.920826 22.920826 C 39.946793 22.947639 39.973186 22.974035 40.000000 23.000000 L 40.000000 23.000000 C 41.382145 24.329607 43.567856 24.329607 44.950001 23.000000 C 46.330788 21.647261 46.353523 19.431299 45.000782 18.050512 C 44.335018 17.370945 43.421307 16.991669 42.470001 17.000000 Z" fill="#FFFFFF"/></g></svg>