<svg version="1.1" width="80.000000" height="100.000000" viewBox="0.000000 0.000000 80.000000 100.000000" xmlns="http://www.w3.org/2000/svg" xmlns:xlink="http://www.w3.org/1999/xlink" overflow="hidden"><g id="CARDS"><rect x="1.000000" y="1.000000" width="78.000000" height="78.000000" fill="#232F3E"/><path d=" M 0.000000 0.000000 L 0.000000 80.000000 L 0.000000 80.000000 L 0.000000 100.000000 L 80.000000 100.000000 L 80.000000 80.000000 L 80.000000 80.000000 L 80.000000 0.000000 Z M 1.000000 1.000000 L 79.000000 1.000000 L 79.000000 79.000000 L 1.000000 79.000000 Z" fill="#FFFFFF"/></g><g id="TEXT_-_EDIT"><path d=" M 21.490000 92.349998 L 21.059999 90.529999 L 19.059999 90.529999 L 18.629999 92.349998 L 16.860001 92.349998 L 19.180000 84.720001 L 21.000000 84.720001 L 23.299999 92.349998 Z M 19.309999 89.430000 L 20.799999 89.430000 L 20.000000 86.269997 Z" fill="#232F3E"/><path d=" M 28.690001 92.349998 L 27.750000 86.720001 L 26.860001 92.349998 L 25.000000 92.349998 L 23.219999 84.720001 L 24.920000 84.720001 L 26.000000 90.779999 L 26.889999 85.000000 L 28.719999 85.000000 L 29.660000 90.650002 L 30.660000 84.650002 L 32.320000 84.650002 L 30.540001 92.279999 Z" fill="#232F3E"/><path d=" M 34.650002 89.000000 C 34.151016 88.771332 33.712612 88.428833 33.370003 88.000000 C 33.114788 87.641830 32.984745 87.209526 33.000004 86.769997 C 32.993393 86.354721 33.111862 85.947060 33.340004 85.599998 C 33.565704 85.259720 33.885292 84.992241 34.260002 84.830002 C 34.681816 84.643929 35.139046 84.551804 35.600002 84.560005 C 36.252911 84.562904 36.898743 84.695473 37.500004 84.950005 L 37.500000 86.120003 C 36.944805 85.917786 36.360649 85.806358 35.770000 85.790001 C 35.497360 85.774712 35.227131 85.848412 35.000000 86.000000 C 34.807278 86.155251 34.699665 86.392738 34.709999 86.639999 C 34.700493 86.843941 34.768353 87.043945 34.899998 87.199997 C 35.101875 87.406235 35.343388 87.569511 35.609997 87.680000 L 36.259998 88.000000 C 36.616051 88.167549 36.951599 88.375595 37.259998 88.620003 C 37.488785 88.807266 37.673210 89.042915 37.799999 89.310005 C 37.924149 89.600281 37.982216 89.914528 37.969997 90.230003 C 38.000259 90.866478 37.725426 91.479286 37.229996 91.880005 C 36.654472 92.309578 35.947292 92.525269 35.229996 92.490005 C 34.817528 92.503525 34.404865 92.469971 33.999996 92.390007 C 33.653336 92.330635 33.316723 92.222916 32.999996 92.070007 L 33.000000 90.919998 C 33.327019 91.026825 33.661186 91.110367 34.000000 91.169998 C 34.329300 91.236969 34.664017 91.273788 35.000000 91.279999 C 35.313755 91.304230 35.625843 91.215561 35.880001 91.029999 C 36.086395 90.853905 36.197594 90.590736 36.180000 90.320000 C 36.186089 90.107033 36.111023 89.899704 35.970001 89.739998 C 35.764481 89.545425 35.527889 89.386574 35.270000 89.269997 Z" fill="#232F3E"/><path d=" M 45.150002 91.250000 C 45.339729 91.264381 45.530273 91.264381 45.720001 91.250000 L 45.720001 89.250000 L 44.560001 89.250000 L 44.560001 88.120003 L 47.259998 88.120003 L 47.259998 91.889999 C 46.906712 92.086281 46.525719 92.227890 46.129997 92.309998 C 45.687027 92.410347 45.234192 92.460663 44.779999 92.459999 C 43.855911 92.521149 42.955383 92.152084 42.340000 91.459999 C 41.729549 90.636520 41.431816 89.622803 41.500000 88.599998 C 41.421841 87.525024 41.738266 86.458435 42.389999 85.599998 C 43.065826 84.898102 44.018013 84.531876 44.989998 84.599998 C 45.683971 84.578659 46.372044 84.733475 46.989998 85.049995 L 46.990002 86.220001 C 46.687489 86.095894 46.372269 86.005348 46.050003 85.950005 C 45.757603 85.885925 45.459332 85.852409 45.160004 85.850006 C 44.593475 85.797508 44.037071 86.025299 43.670002 86.460007 C 43.316151 87.064102 43.155628 87.762016 43.210003 88.460007 L 43.209999 88.669998 C 43.147999 89.367264 43.305325 90.066483 43.660000 90.669998 C 44.031158 91.096458 44.588196 91.313293 45.150002 91.250000 Z" fill="#232F3E"/><path d=" M 51.049999 92.250000 C 50.730049 92.367126 50.390518 92.421448 50.049999 92.410004 C 49.658627 92.422867 49.279099 92.274666 49.000000 92.000000 C 48.740101 91.687485 48.614288 91.284897 48.650002 90.879997 L 48.650002 84.209999 L 50.299999 84.209999 L 50.299999 90.750000 C 50.283760 90.888435 50.311764 91.028458 50.380001 91.150002 C 50.455402 91.241234 50.572826 91.286682 50.690002 91.270004 C 50.806446 91.280235 50.923561 91.280235 51.040001 91.270004 Z" fill="#232F3E"/><path d=" M 55.330002 92.349998 L 55.200001 91.839996 C 54.686512 92.232521 54.065601 92.459259 53.420002 92.489998 C 53.038212 92.508453 52.669243 92.349800 52.420002 92.059998 C 52.144852 91.705490 51.996922 91.268745 52.000004 90.820000 L 52.000000 86.720001 L 53.650002 86.720001 L 53.650002 90.339996 C 53.634785 90.603180 53.679226 90.866394 53.780003 91.109993 C 53.872517 91.267639 54.048038 91.357353 54.230003 91.339996 C 54.502060 91.331230 54.765869 91.244446 54.990002 91.089996 L 54.990002 86.720001 L 56.639999 86.720001 L 56.639999 92.349998 Z" fill="#232F3E"/><path d=" M 59.320000 89.919998 C 59.308945 90.311180 59.436447 90.693687 59.680000 91.000000 C 59.975567 91.246262 60.356880 91.364975 60.740002 91.330002 C 60.969250 91.324608 61.197243 91.294434 61.420002 91.240005 C 61.691528 91.190041 61.958942 91.119843 62.220001 91.030006 L 62.220001 92.029999 C 61.961761 92.177193 61.681507 92.281868 61.389999 92.339996 C 61.061474 92.411812 60.726276 92.448685 60.389999 92.449997 C 58.669998 92.449997 57.810001 91.449997 57.810001 89.500000 C 57.759846 88.714424 57.986275 87.936081 58.450001 87.300003 C 58.904652 86.776291 59.577927 86.495148 60.270000 86.540001 C 61.639999 86.540001 62.270000 87.300003 62.270000 88.830002 C 62.269127 89.166870 62.228855 89.502487 62.150002 89.830002 Z M 60.230000 87.599998 C 59.660000 87.599998 59.349998 88.059998 59.320000 88.970001 L 60.930000 88.970001 L 60.930000 88.720001 C 60.955040 88.423065 60.896133 88.125076 60.760002 87.860001 C 60.643955 87.683182 60.440861 87.583549 60.230003 87.599998 Z" fill="#232F3E"/></g><g id="ICONS_-_EDIT"><path d=" M 40.060001 66.000000 C 39.826347 66.000458 39.599915 65.919083 39.420002 65.769997 L 33.360001 60.770000 C 33.036015 60.500233 32.916016 60.056248 33.060001 59.660000 C 33.203152 59.264053 33.578972 59.000179 34.000000 59.000000 L 37.000000 59.000000 L 37.000000 56.000000 L 39.000000 56.000000 L 39.000000 60.000000 C 39.000000 60.552284 38.552284 61.000000 38.000000 61.000000 L 36.779999 61.000000 L 40.049999 63.700001 L 43.259998 61.000000 L 42.000000 61.000000 C 41.447716 61.000000 41.000000 60.552284 41.000000 60.000000 L 41.000000 56.000000 L 43.000000 56.000000 L 43.000000 59.000000 L 46.000000 59.000000 C 46.552258 59.005447 46.995533 59.457561 46.990086 60.009819 C 46.987236 60.298710 46.859581 60.572250 46.639999 60.760002 L 40.700001 65.760002 C 40.521481 65.912689 40.294903 65.997658 40.060001 66.000000 Z" fill="#FFFFFF"/><path d=" M 40.070000 54.590000 C 38.907368 54.596748 37.752777 54.396980 36.660000 54.000000 C 36.242554 53.849949 35.973850 53.442825 36.000000 53.000000 L 36.000000 50.340000 L 24.170000 31.860001 L 25.850000 30.780001 L 37.849998 49.500000 C 37.943386 49.650448 37.995148 49.822994 38.000000 50.000000 L 38.000000 52.240002 C 39.302616 52.644764 40.697384 52.644764 42.000000 52.240002 L 42.000000 50.000000 C 42.000496 49.808388 42.056034 49.620953 42.160000 49.459999 L 54.160000 30.690001 L 55.840000 31.770000 L 44.000000 50.330002 L 44.000000 53.000000 C 43.996326 53.406151 43.747349 53.769733 43.369999 53.919998 C 42.324055 54.355862 41.203110 54.583447 40.070000 54.589996 Z" fill="#FFFFFF"/><path d=" M 40.000000 35.000000 C 33.470001 35.000000 26.139999 34.259998 24.500000 32.619999 C 24.437925 32.553440 24.384197 32.479561 24.340000 32.399998 L 24.139999 32.049999 C 24.073893 31.942080 24.026556 31.823738 24.000000 31.699999 C 23.995550 31.633406 23.995550 31.566591 24.000000 31.499998 C 24.000000 30.500000 25.469999 28.139999 39.080002 28.000000 L 39.080002 30.000000 C 32.080002 30.070000 27.830000 30.889999 26.389999 31.500000 C 28.000000 32.200001 33.000000 33.000000 40.000000 33.000000 C 46.799999 33.000000 51.790001 32.270000 53.570000 31.500000 C 52.006634 30.959007 50.379753 30.622875 48.730000 30.500000 L 48.970001 28.500000 C 55.169998 29.250000 55.970001 30.440001 55.970001 31.500000 C 55.948326 32.069279 55.639633 32.588787 55.150002 32.880001 C 53.139999 34.340000 46.080002 35.000000 40.000000 35.000000 Z" fill="#FFFFFF"/><path d=" M 46.000000 31.000000 L 42.000000 31.000000 C 41.447716 31.000000 41.000000 30.552284 41.000000 30.000000 L 41.000000 26.000000 C 41.000000 25.447716 41.447716 25.000000 42.000000 25.000000 L 46.000000 25.000000 C 46.552284 25.000000 47.000000 25.447716 47.000000 26.000000 L 47.000000 30.000000 C 47.000000 30.552284 46.552284 31.000000 46.000000 31.000000 Z M 43.000000 29.000000 L 45.000000 29.000000 L 45.000000 27.000000 L 43.000000 27.000000 Z" fill="#FFFFFF"/><path d=" M 44.000000 22.000000 L 40.000000 22.000000 C 39.447716 22.000000 39.000000 21.552284 39.000000 21.000000 L 39.000000 17.000000 C 39.000000 16.447716 39.447716 16.000000 40.000000 16.000000 L 44.000000 16.000000 C 44.552284 16.000000 45.000000 16.447716 45.000000 17.000000 L 45.000000 21.000000 C 45.000000 21.552284 44.552284 22.000000 44.000000 22.000000 Z M 41.000000 20.000000 L 43.000000 20.000000 L 43.000000 18.000000 L 41.000000 18.000000 Z" fill="#FFFFFF"/><path d=" M 36.000000 27.000000 L 32.000000 27.000000 C 31.447716 27.000000 31.000000 26.552284 31.000000 26.000000 L 31.000000 22.000000 C 31.000000 21.447716 31.447716 21.000000 32.000000 21.000000 L 36.000000 21.000000 C 36.552284 21.000000 37.000000 21.447716 37.000000 22.000000 L 37.000000 26.000000 C 37.000000 26.552284 36.552284 27.000000 36.000000 27.000000 Z M 33.000000 25.000000 L 35.000000 25.000000 L 35.000000 23.000000 L 33.000000 23.000000 Z" fill="#FFFFFF"/></g></svg>