<svg version="1.1" width="80.000000" height="115.000000" viewBox="0.000000 0.000000 80.000000 115.000000" xmlns="http://www.w3.org/2000/svg" xmlns:xlink="http://www.w3.org/1999/xlink" overflow="hidden"><defs><clipPath id="clip-path"><rect x="15.000000" y="15.000000" width="50.000000" height="50.000000" fill="none"/></clipPath></defs><g id="CARDS"><rect x="1.000000" y="1.000000" width="78.000000" height="78.000000" fill="#232F3E"/><path d=" M 0.000000 0.000000 L 0.000000 80.000000 L 0.000000 80.000000 L 0.000000 115.000000 L 80.000000 115.000000 L 80.000000 80.000000 L 80.000000 80.000000 L 80.000000 0.000000 Z M 1.000000 1.000000 L 79.000000 1.000000 L 79.000000 79.000000 L 1.000000 79.000000 Z" fill="#FFFFFF"/></g><g id="TEXT_-_EDIT"><path d=" M 25.350000 92.349998 L 24.920000 90.529999 L 22.920000 90.529999 L 22.500000 92.349998 L 20.719999 92.349998 L 23.000000 84.720001 L 24.900000 84.720001 L 27.209999 92.349998 Z M 23.170000 89.430000 L 24.660000 89.430000 L 23.900000 86.269997 Z" fill="#232F3E"/><path d=" M 34.060001 92.349998 L 34.060001 88.639999 C 34.076664 88.401566 34.028278 88.163086 33.920002 87.949997 C 33.819908 87.796371 33.642418 87.711487 33.460003 87.729996 C 33.174831 87.743271 32.898491 87.833084 32.660004 87.989998 C 32.664822 88.029854 32.664822 88.070145 32.660004 88.110001 L 32.660000 92.349998 L 31.000000 92.349998 L 31.000000 88.639999 C 31.019257 88.402504 30.974358 88.164200 30.870001 87.949997 C 30.765142 87.796478 30.585056 87.712181 30.400002 87.729996 C 30.121338 87.744865 29.851856 87.834694 29.620001 87.989998 L 29.620001 92.349998 L 28.000000 92.349998 L 28.000000 86.720001 L 29.350000 86.720001 L 29.480000 87.230003 C 30.005705 86.838974 30.635632 86.612755 31.289999 86.580002 C 31.787903 86.543671 32.259682 86.807076 32.489998 87.250000 C 33.020988 86.851845 33.657448 86.618820 34.320000 86.580002 C 34.698605 86.567619 35.063778 86.720993 35.320000 87.000000 C 35.580429 87.351334 35.707973 87.783562 35.680000 88.220001 L 35.680000 92.349998 Z" fill="#232F3E"/><path d=" M 40.000000 92.349998 L 39.860001 91.839996 C 39.704742 92.042564 39.502155 92.203949 39.270000 92.309998 C 39.023094 92.427322 38.753361 92.488777 38.480000 92.489998 C 38.038441 92.498497 37.613724 92.320625 37.310001 92.000000 C 37.006588 91.668808 36.851307 91.228241 36.880001 90.779999 C 36.856857 90.286880 37.050484 89.808296 37.410000 89.470001 C 37.807274 89.133095 38.320316 88.964470 38.840000 89.000000 C 39.154030 89.006668 39.466179 89.050301 39.770000 89.129997 L 39.770000 88.620003 C 39.797573 88.349762 39.741737 88.077560 39.610001 87.840004 C 39.445477 87.687714 39.222755 87.614693 39.000000 87.640007 C 38.395546 87.665237 37.798565 87.783279 37.230000 87.990005 L 37.230000 87.000000 C 37.516563 86.840446 37.827354 86.728966 38.149998 86.669998 C 38.528015 86.589485 38.913502 86.549255 39.299999 86.549995 C 39.843796 86.502090 40.385880 86.659012 40.820000 86.989998 C 41.164772 87.366852 41.335323 87.871239 41.290001 88.379997 L 41.290001 92.320000 Z M 39.000000 91.430000 C 39.298344 91.418404 39.580971 91.293190 39.790001 91.080002 L 39.790001 90.000000 C 39.587475 89.948616 39.378887 89.925064 39.170002 89.930000 C 38.969070 89.911972 38.770714 89.985435 38.630001 90.129997 C 38.490948 90.293694 38.422604 90.505920 38.440002 90.719994 C 38.429714 90.905304 38.482594 91.088631 38.590004 91.239990 C 38.687565 91.366325 38.840549 91.437218 39.000004 91.429993 Z" fill="#232F3E"/><path d=" M 42.279999 92.349998 L 42.279999 91.279999 L 44.770000 87.879997 L 42.369999 87.879997 L 42.369999 86.720001 L 46.509998 86.720001 L 46.509998 87.790001 L 44.000000 91.190002 L 46.540001 91.190002 L 46.540001 92.349998 Z" fill="#232F3E"/><path d=" M 49.790001 92.489998 C 49.108715 92.511253 48.453094 92.229225 48.000000 91.720001 C 47.133984 90.392052 47.133984 88.677956 48.000000 87.349998 C 49.011749 86.331032 50.657967 86.325180 51.676933 87.336929 C 51.681305 87.341270 51.685661 87.345627 51.690002 87.349998 C 52.556019 88.677948 52.556019 90.392044 51.690002 91.720001 C 51.211487 92.259041 50.508781 92.543823 49.790001 92.489998 Z M 49.790001 91.339996 C 50.076321 91.350388 50.337559 91.177567 50.440002 90.909996 C 50.706799 90.016144 50.706799 89.063843 50.440002 88.169998 C 50.304638 87.813774 49.906124 87.634735 49.549900 87.770103 C 49.365585 87.840141 49.220043 87.985687 49.150002 88.169998 C 48.883205 89.063850 48.883205 90.016151 49.150002 90.909996 C 49.248730 91.175995 49.506416 91.349129 49.790001 91.339996 Z" fill="#232F3E"/><path d=" M 56.549999 92.349998 L 56.549999 88.650002 C 56.566494 88.408363 56.518166 88.166710 56.410000 87.950005 C 56.294102 87.793236 56.103878 87.709541 55.910000 87.730003 C 55.621128 87.739960 55.340698 87.829971 55.099998 87.990005 L 55.099998 92.349998 L 53.439999 92.349998 L 53.439999 86.720001 L 54.790001 86.720001 L 54.930000 87.230003 C 55.464371 86.833908 56.105400 86.607452 56.770000 86.580002 C 57.171432 86.553581 57.563728 86.707565 57.840000 87.000000 C 58.102020 87.350540 58.229740 87.783371 58.200001 88.220001 L 58.200001 92.349998 Z" fill="#232F3E"/><path d=" M 23.860001 106.349998 L 23.860001 98.720001 L 25.540001 98.720001 L 25.540001 102.110001 L 27.820000 98.720001 L 29.690001 98.720001 L 27.049999 102.290001 L 29.900000 106.349998 L 27.900000 106.349998 L 25.540001 102.660004 L 25.540001 106.349998 Z" fill="#232F3E"/><path d=" M 31.459999 99.809998 C 31.203856 99.830612 30.949608 99.751831 30.750000 99.589996 C 30.570805 99.439140 30.471186 99.214073 30.480000 98.979996 C 30.469643 98.745628 30.569550 98.519913 30.750000 98.369995 C 31.170441 98.064751 31.739559 98.064751 32.160000 98.369995 C 32.334263 98.523682 32.429810 98.747849 32.419998 98.979996 C 32.426991 99.211624 32.331936 99.434639 32.160000 99.589996 C 31.962973 99.749374 31.712780 99.828011 31.459999 99.809998 Z M 30.629999 106.349998 L 30.629999 100.720001 L 32.279999 100.720001 L 32.279999 106.349998 Z" fill="#232F3E"/><path d=" M 36.840000 106.349998 L 36.840000 102.650002 C 36.861221 102.408081 36.812634 102.165154 36.700001 101.950005 C 36.587307 101.794876 36.400810 101.711143 36.209999 101.730003 C 35.917789 101.738640 35.633797 101.828682 35.389999 101.990005 L 35.389999 106.349998 L 33.740002 106.349998 L 33.740002 100.720001 L 35.090000 100.720001 L 35.220001 101.230003 C 35.754372 100.833908 36.395401 100.607452 37.060001 100.580002 C 37.461433 100.553581 37.853729 100.707565 38.130001 101.000000 C 38.392021 101.350540 38.519741 101.783371 38.490002 102.220001 L 38.490002 106.349998 Z" fill="#232F3E"/><path d=" M 41.110001 103.919998 C 41.089252 104.324760 41.217300 104.723129 41.470001 105.040001 C 41.765568 105.286263 42.146881 105.404976 42.530003 105.370003 C 42.759251 105.364609 42.987244 105.334435 43.210003 105.280006 C 43.481529 105.230042 43.748943 105.159843 44.010002 105.070007 L 44.009998 106.070000 C 43.751759 106.217194 43.471504 106.321869 43.179996 106.379997 C 42.851471 106.451813 42.516273 106.488686 42.179996 106.489998 C 40.459999 106.489998 39.599998 105.489998 39.599998 103.540001 C 39.549843 102.754425 39.776272 101.976082 40.239998 101.340004 C 40.694649 100.816292 41.367924 100.535149 42.059998 100.580002 C 43.430000 100.580002 44.060001 101.339996 44.060001 102.870003 C 44.059128 103.206871 44.018856 103.542488 43.940002 103.870003 Z M 42.000000 101.599998 C 41.430000 101.599998 41.119999 102.059998 41.090000 102.970001 L 42.700001 102.970001 L 42.700001 102.720001 C 42.725040 102.423065 42.666134 102.125076 42.530003 101.860001 C 42.413956 101.683182 42.210861 101.583549 42.000004 101.599998 Z" fill="#232F3E"/><path d=" M 47.250000 104.769997 C 47.250000 104.519997 47.080002 104.309998 46.730000 104.150002 L 46.000000 103.800003 C 45.326485 103.560318 44.874882 102.924881 44.869999 102.210007 C 44.851604 101.750854 45.056538 101.311180 45.419998 101.030006 C 45.842358 100.712837 46.362469 100.553619 46.889999 100.580009 C 47.419647 100.581734 47.942276 100.701294 48.419998 100.930008 L 48.419998 101.930000 C 48.191826 101.848991 47.957817 101.785477 47.719997 101.739998 C 47.522861 101.696541 47.321842 101.673088 47.119999 101.669998 C 46.610001 101.669998 46.349998 101.849998 46.349998 102.209999 C 46.349998 102.570000 46.560001 102.660004 46.990002 102.870003 L 47.709999 103.209999 C 48.018684 103.342110 48.285072 103.556602 48.480000 103.830002 C 48.648262 104.110268 48.731628 104.433311 48.720001 104.760002 C 48.744759 105.245941 48.541363 105.715607 48.170002 106.029999 C 47.745518 106.351448 47.221912 106.514183 46.690002 106.489998 C 46.056274 106.496170 45.430923 106.344986 44.870003 106.049995 L 44.869999 105.050003 C 45.385826 105.247581 45.928696 105.365601 46.480000 105.400002 C 46.684174 105.412933 46.886269 105.352661 47.049999 105.230003 C 47.185448 105.116768 47.259571 104.946289 47.250000 104.770004 Z" fill="#232F3E"/><path d=" M 50.529999 99.809998 C 50.274536 99.824768 50.022354 99.746628 49.820000 99.589996 C 49.640804 99.439140 49.541183 99.214073 49.549999 98.979996 C 49.539642 98.745628 49.639549 98.519913 49.820000 98.369995 C 50.240440 98.064751 50.809559 98.064751 51.230000 98.369995 C 51.404263 98.523682 51.499809 98.747849 51.489998 98.979996 C 51.496990 99.211624 51.401936 99.434639 51.230000 99.589996 C 51.032970 99.749374 50.782780 99.828011 50.529999 99.809998 Z M 49.700001 106.349998 L 49.700001 100.720001 L 51.349998 100.720001 L 51.349998 106.349998 Z" fill="#232F3E"/><path d=" M 54.810001 104.769997 C 54.810001 104.519997 54.630001 104.309998 54.290001 104.150002 L 53.570000 103.800003 C 52.890663 103.566200 52.433403 102.928444 52.430000 102.210007 C 52.408039 101.737198 52.621460 101.284149 53.000000 101.000008 C 53.422359 100.682838 53.942471 100.523621 54.470001 100.550011 C 54.999649 100.551735 55.522278 100.671295 56.000000 100.900009 L 56.000000 101.900002 C 55.771049 101.821503 55.537220 101.758034 55.299999 101.709999 C 55.102863 101.666542 54.901844 101.643089 54.700001 101.639999 C 54.180000 101.639999 53.930000 101.820000 53.930000 102.180000 C 53.930000 102.540001 54.139999 102.629997 54.560001 102.839996 L 55.290001 103.180000 C 55.596878 103.315102 55.862537 103.529015 56.060001 103.800003 C 56.228264 104.080269 56.311630 104.403313 56.300003 104.730003 C 56.320759 105.217346 56.113823 105.686646 55.740002 106.000000 C 55.315517 106.321449 54.791912 106.484184 54.260002 106.459999 C 53.626369 106.465340 53.001217 106.314201 52.440002 106.019997 L 52.439999 105.019997 C 52.959221 105.217819 53.505421 105.335831 54.059998 105.369995 C 54.261326 105.385101 54.461040 105.324471 54.619999 105.199997 C 54.742241 105.090668 54.811474 104.933990 54.809998 104.769997 Z" fill="#232F3E"/></g><g id="ICONS_-_EDIT"><g clip-path="url(#clip-path)"><path d=" M 65.000000 37.000000 L 56.189999 37.000000 C 33.520000 37.000000 15.070000 27.690001 15.070000 16.260000 C 15.073140 15.697614 15.116585 15.136175 15.200000 14.580000 L 17.200001 14.890000 C 17.128233 15.343167 17.091457 15.801188 17.090000 16.260000 C 17.070000 26.590000 34.619999 35.000000 56.189999 35.000000 L 65.000000 35.000000 Z" fill="#FFFFFF"/><path d=" M 65.000000 41.000000 L 52.759998 41.000000 C 42.930000 41.000000 19.389999 40.070000 13.210000 31.469999 L 14.830000 30.299999 C 18.750000 35.750000 32.930000 39.000000 52.759998 39.000000 L 65.000000 39.000000 Z" fill="#FFFFFF"/><path d=" M 14.830000 49.700001 L 13.210000 48.529999 C 19.389999 39.930000 42.930000 39.000000 52.759998 39.000000 L 65.000000 39.000000 L 65.000000 41.000000 L 52.759998 41.000000 C 32.930000 41.000000 18.750000 44.250000 14.830000 49.700001 Z" fill="#FFFFFF"/><path d=" M 65.000000 33.000000 L 60.860001 33.000000 C 40.860001 33.000000 26.270000 26.250000 26.270000 16.940001 C 26.270000 16.940001 26.270000 15.010000 26.320000 14.670000 L 28.320000 14.900000 L 27.320000 14.790000 L 28.320000 14.890000 C 28.320000 15.110000 28.320000 16.500000 28.320000 16.940001 C 28.320000 24.940001 42.320000 31.000000 60.910000 31.000000 L 65.000000 31.000000 Z" fill="#FFFFFF"/><path d=" M 15.200000 65.419998 C 15.116585 64.863823 15.073140 64.302383 15.070000 63.739998 C 15.070000 52.310001 33.520000 43.000000 56.189999 43.000000 L 65.000000 43.000000 L 65.000000 45.000000 L 56.189999 45.000000 C 34.619999 45.000000 17.070000 53.410000 17.070000 63.740002 C 17.071457 64.198814 17.108232 64.656837 17.180000 65.110001 Z" fill="#FFFFFF"/><path d=" M 26.320000 65.330002 C 26.320000 64.989998 26.270000 63.080002 26.270000 63.060001 C 26.270000 53.750000 40.820000 47.000000 60.860001 47.000000 L 65.000000 47.000000 L 65.000000 49.000000 L 60.860001 49.000000 C 42.279999 49.000000 28.270000 55.000000 28.270000 63.060001 C 28.270000 63.500000 28.270000 64.889999 28.270000 65.059998 Z" fill="#FFFFFF"/></g></g></svg>