<svg version="1.1" width="80.000000" height="130.000000" viewBox="0.000000 0.000000 80.000000 130.000000" xmlns="http://www.w3.org/2000/svg" xmlns:xlink="http://www.w3.org/1999/xlink" overflow="hidden"><defs><clipPath id="clip-path"><rect x="15.000000" y="15.000000" width="50.000000" height="50.000000" fill="none"/></clipPath></defs><g id="CARDS"><rect x="1.000000" y="1.000000" width="78.000000" height="78.000000" fill="#232F3E"/><path d=" M 0.000000 0.000000 L 0.000000 80.000000 L 0.000000 80.000000 L 0.000000 130.000000 L 80.000000 130.000000 L 80.000000 80.000000 L 80.000000 80.000000 L 80.000000 0.000000 Z M 1.000000 1.000000 L 79.000000 1.000000 L 79.000000 79.000000 L 1.000000 79.000000 Z" fill="#FFFFFF"/></g><g id="TEXT_-_EDIT"><path d=" M 25.350000 92.349998 L 24.920000 90.529999 L 22.920000 90.529999 L 22.500000 92.349998 L 20.719999 92.349998 L 23.000000 84.720001 L 24.900000 84.720001 L 27.209999 92.349998 Z M 23.170000 89.430000 L 24.660000 89.430000 L 23.900000 86.269997 Z" fill="#232F3E"/><path d=" M 34.060001 92.349998 L 34.060001 88.639999 C 34.076664 88.401566 34.028278 88.163086 33.920002 87.949997 C 33.818390 87.798111 33.642017 87.713760 33.460003 87.729996 C 33.174561 87.741776 32.897831 87.831711 32.660004 87.989998 C 32.664921 88.029846 32.664921 88.070152 32.660004 88.110001 L 32.660000 92.349998 L 31.000000 92.349998 L 31.000000 88.639999 C 31.019257 88.402504 30.974358 88.164200 30.870001 87.949997 C 30.765142 87.796478 30.585056 87.712181 30.400002 87.729996 C 30.121338 87.744865 29.851856 87.834694 29.620001 87.989998 L 29.620001 92.349998 L 28.000000 92.349998 L 28.000000 86.720001 L 29.350000 86.720001 L 29.480000 87.230003 C 30.005127 86.837898 30.635393 86.611557 31.289999 86.580002 C 31.787903 86.543671 32.259682 86.807076 32.489998 87.250000 C 33.020988 86.851845 33.657448 86.618820 34.320000 86.580002 C 34.698605 86.567619 35.063778 86.720993 35.320000 87.000000 C 35.580429 87.351334 35.707973 87.783562 35.680000 88.220001 L 35.680000 92.349998 Z" fill="#232F3E"/><path d=" M 40.000000 92.349998 L 39.860001 91.839996 C 39.704742 92.042564 39.502155 92.203949 39.270000 92.309998 C 39.023094 92.427322 38.753361 92.488777 38.480000 92.489998 C 38.038441 92.498497 37.613724 92.320625 37.310001 92.000000 C 37.006588 91.668808 36.851307 91.228241 36.880001 90.779999 C 36.856857 90.286880 37.050484 89.808296 37.410000 89.470001 C 37.807274 89.133095 38.320316 88.964470 38.840000 89.000000 C 39.154030 89.006668 39.466179 89.050301 39.770000 89.129997 L 39.770000 88.620003 C 39.797573 88.349762 39.741737 88.077560 39.610001 87.840004 C 39.445477 87.687714 39.222755 87.614693 39.000000 87.640007 C 38.395546 87.665237 37.798565 87.783279 37.230000 87.990005 L 37.230000 87.000000 C 37.513470 86.841469 37.820801 86.730019 38.139999 86.669998 C 38.521481 86.590019 38.910225 86.549805 39.299999 86.549995 C 39.843796 86.502090 40.385880 86.659012 40.820000 86.989998 C 41.164772 87.366852 41.335323 87.871239 41.290001 88.379997 L 41.290001 92.320000 Z M 39.000000 91.430000 C 39.298344 91.418404 39.580971 91.293190 39.790001 91.080002 L 39.790001 90.000000 C 39.584171 89.948074 39.372208 89.924522 39.160000 89.930000 C 38.962250 89.913605 38.767620 89.987053 38.630001 90.129997 C 38.490948 90.293694 38.422604 90.505920 38.440002 90.719994 C 38.429714 90.905304 38.482594 91.088631 38.590004 91.239990 C 38.687565 91.366325 38.840549 91.437218 39.000004 91.429993 Z" fill="#232F3E"/><path d=" M 42.279999 92.349998 L 42.279999 91.279999 L 44.770000 87.879997 L 42.369999 87.879997 L 42.369999 86.720001 L 46.509998 86.720001 L 46.509998 87.790001 L 44.000000 91.190002 L 46.540001 91.190002 L 46.540001 92.349998 Z" fill="#232F3E"/><path d=" M 49.790001 92.489998 C 49.108448 92.512650 48.452259 92.230377 48.000000 91.720001 C 47.133984 90.392052 47.133984 88.677956 48.000000 87.349998 C 49.011749 86.331032 50.657967 86.325180 51.676933 87.336929 C 51.681305 87.341270 51.685661 87.345627 51.690002 87.349998 C 52.556019 88.677948 52.556019 90.392044 51.690002 91.720001 C 51.211487 92.259041 50.508781 92.543823 49.790001 92.489998 Z M 49.790001 91.339996 C 50.076321 91.350388 50.337559 91.177567 50.440002 90.909996 C 50.706799 90.016144 50.706799 89.063843 50.440002 88.169998 C 50.304638 87.813774 49.906124 87.634735 49.549900 87.770103 C 49.365585 87.840141 49.220043 87.985687 49.150002 88.169998 C 48.883205 89.063850 48.883205 90.016151 49.150002 90.909996 C 49.248730 91.175995 49.506416 91.349129 49.790001 91.339996 Z" fill="#232F3E"/><path d=" M 56.549999 92.349998 L 56.549999 88.650002 C 56.566494 88.408363 56.518166 88.166710 56.410000 87.950005 C 56.294102 87.793236 56.103878 87.709541 55.910000 87.730003 C 55.618229 87.741188 55.334908 87.831024 55.090000 87.990005 L 55.090000 92.349998 L 53.439999 92.349998 L 53.439999 86.720001 L 54.790001 86.720001 L 54.930000 87.230003 C 55.464371 86.833908 56.105400 86.607452 56.770000 86.580002 C 57.171432 86.553581 57.563728 86.707565 57.840000 87.000000 C 58.102020 87.350540 58.229740 87.783371 58.200001 88.220001 L 58.200001 92.349998 Z" fill="#232F3E"/><path d=" M 11.500000 106.349998 L 11.500000 98.720001 L 13.180000 98.720001 L 13.180000 102.110001 L 15.460000 98.720001 L 17.330000 98.720001 L 14.690000 102.290001 L 17.540001 106.349998 L 15.540000 106.349998 L 13.180000 102.660004 L 13.180000 106.349998 Z" fill="#232F3E"/><path d=" M 19.100000 99.809998 C 18.843857 99.830612 18.589609 99.751831 18.390001 99.589996 C 18.210806 99.439140 18.111187 99.214073 18.120001 98.979996 C 18.109644 98.745628 18.209551 98.519913 18.390001 98.369995 C 18.810442 98.064751 19.379560 98.064751 19.800001 98.369995 C 19.974266 98.523682 20.069811 98.747849 20.060001 98.979996 C 20.066996 99.211624 19.971939 99.434639 19.800001 99.589996 C 19.602974 99.749374 19.352781 99.828011 19.100000 99.809998 Z M 18.270000 106.349998 L 18.270000 100.720001 L 19.920000 100.720001 L 19.920000 106.349998 Z" fill="#232F3E"/><path d=" M 24.480000 106.349998 L 24.480000 102.650002 C 24.496496 102.408363 24.448164 102.166710 24.340000 101.950005 C 24.224104 101.793236 24.033878 101.709541 23.840000 101.730003 C 23.540136 101.738953 23.248922 101.832558 23.000000 102.000000 L 23.000000 106.360001 L 21.370001 106.360001 L 21.370001 100.730003 L 22.719999 100.730003 L 22.860001 101.239998 C 23.394371 100.843903 24.035402 100.617447 24.700001 100.589996 C 25.101431 100.563576 25.493731 100.717560 25.770000 101.009995 C 26.032021 101.360535 26.159742 101.793365 26.130001 102.229996 L 26.129999 106.360001 Z" fill="#232F3E"/><path d=" M 28.750000 103.919998 C 28.729250 104.324760 28.857298 104.723129 29.110001 105.040001 C 29.405565 105.286263 29.786880 105.404976 30.170000 105.370003 C 30.399200 105.363998 30.627129 105.333832 30.850000 105.280006 C 31.121527 105.230042 31.388939 105.159843 31.650000 105.070007 L 31.650000 106.070000 C 31.391758 106.217194 31.111507 106.321869 30.820000 106.379997 C 30.491476 106.451813 30.156279 106.488686 29.820000 106.489998 C 28.100000 106.489998 27.240000 105.489998 27.240000 103.540001 C 27.185513 102.753960 27.412365 101.974152 27.879999 101.340004 C 28.334650 100.816292 29.007925 100.535149 29.699999 100.580002 C 31.070000 100.580002 31.750000 101.339996 31.750000 102.870003 C 31.749126 103.206871 31.708853 103.542488 31.629999 103.870003 Z M 29.660000 101.599998 C 29.080000 101.599998 28.780001 102.059998 28.750000 102.970001 L 30.360001 102.970001 L 30.360001 102.720001 C 30.380444 102.423340 30.321779 102.126572 30.190001 101.860001 C 30.072510 101.684830 29.870441 101.585701 29.660000 101.599998 Z" fill="#232F3E"/><path d=" M 34.889999 104.769997 C 34.889999 104.519997 34.720001 104.309998 34.369999 104.150002 L 33.650002 103.800003 C 32.976486 103.560318 32.524883 102.924881 32.520000 102.210007 C 32.501606 101.750854 32.706539 101.311180 33.070000 101.030006 C 33.492359 100.712837 34.012470 100.553619 34.540001 100.580009 C 35.069649 100.581734 35.592278 100.701294 36.070000 100.930008 L 36.070000 101.930000 C 35.841442 101.850227 35.607525 101.786736 35.369999 101.739998 C 35.172863 101.696541 34.971844 101.673088 34.770000 101.669998 C 34.259998 101.669998 34.000000 101.849998 34.000000 102.209999 C 34.000000 102.570000 34.209999 102.660004 34.639999 102.870003 L 35.360001 103.209999 C 35.666878 103.345100 35.932537 103.559013 36.130001 103.830002 C 36.298264 104.110268 36.381630 104.433311 36.370003 104.760002 C 36.394760 105.245941 36.191364 105.715607 35.820004 106.029999 C 35.395519 106.351448 34.871914 106.514183 34.340004 106.489998 C 33.706135 106.497437 33.080475 106.346176 32.520004 106.049995 L 32.520000 105.050003 C 33.035828 105.247581 33.578697 105.365601 34.130001 105.400002 C 34.334175 105.412933 34.536270 105.352661 34.700001 105.230003 C 34.831734 105.114784 34.902027 104.944603 34.889999 104.770004 Z" fill="#232F3E"/><path d=" M 38.169998 99.809998 C 37.913857 99.830612 37.659607 99.751831 37.459999 99.589996 C 37.280804 99.439140 37.181183 99.214073 37.189999 98.979996 C 37.179642 98.745628 37.279549 98.519913 37.459999 98.369995 C 37.880440 98.064751 38.449558 98.064751 38.869999 98.369995 C 39.044262 98.523682 39.139809 98.747849 39.129997 98.979996 C 39.136990 99.211624 39.041935 99.434639 38.869999 99.589996 C 38.672970 99.749374 38.422779 99.828011 38.169998 99.809998 Z M 37.340000 106.349998 L 37.340000 100.720001 L 39.000000 100.720001 L 39.000000 106.349998 Z" fill="#232F3E"/><path d=" M 42.450001 104.769997 C 42.450001 104.519997 42.270000 104.309998 41.930000 104.150002 L 41.200001 103.800003 C 40.526485 103.560318 40.074883 102.924881 40.070000 102.210007 C 40.055637 101.749420 40.264111 101.310135 40.630001 101.030006 C 41.052361 100.712837 41.572472 100.553619 42.100002 100.580009 C 42.629650 100.581734 43.152279 100.701294 43.630001 100.930008 L 43.630001 101.930000 C 43.401051 101.851501 43.167221 101.788033 42.930000 101.739998 C 42.729595 101.695862 42.525192 101.672409 42.320000 101.669998 C 41.810001 101.669998 41.549999 101.849998 41.549999 102.209999 C 41.549999 102.570000 41.770000 102.660004 42.189999 102.870003 L 42.919998 103.209999 C 43.226875 103.345100 43.492535 103.559013 43.689999 103.830002 C 43.858261 104.110268 43.941628 104.433311 43.930000 104.760002 C 43.950756 105.247345 43.743820 105.716644 43.369999 106.029999 C 42.945515 106.351448 42.421909 106.514183 41.889999 106.489998 C 41.256271 106.496170 40.630920 106.344986 40.070000 106.049995 L 40.070000 105.050003 C 40.588955 105.248726 41.135292 105.366760 41.689999 105.400002 C 41.890903 105.411407 42.089340 105.351166 42.250000 105.230003 C 42.384174 105.115822 42.458008 104.946007 42.450001 104.770004 Z" fill="#232F3E"/><path d=" M 47.500000 106.349998 L 47.500000 98.720001 L 50.000000 98.720001 C 50.899277 98.668739 51.771320 99.038246 52.360001 99.720001 C 52.954468 100.542496 53.241154 101.547661 53.170002 102.559998 C 53.241737 103.572525 52.962780 104.578896 52.380001 105.409996 C 51.804718 106.086601 50.946903 106.456345 50.060001 106.409996 Z M 49.189999 99.900002 L 49.189999 105.169998 L 49.900002 105.169998 C 50.373920 105.192314 50.822357 104.954681 51.070000 104.549995 C 51.369331 103.959961 51.504059 103.300148 51.459999 102.639992 L 51.459999 102.419998 C 51.503742 101.760979 51.372654 101.102089 51.079998 100.509995 C 50.826336 100.102592 50.368851 99.868088 49.889999 99.899994 Z" fill="#232F3E"/><path d=" M 57.410000 106.349998 L 57.259998 105.839996 C 57.109303 106.046989 56.905441 106.209389 56.669998 106.309998 C 56.427036 106.428444 56.160294 106.489998 55.889999 106.489998 C 55.450821 106.513031 55.022320 106.349617 54.709999 106.040001 C 54.099266 105.292549 54.142174 104.206917 54.809998 103.510002 C 55.207272 103.173096 55.720314 103.004471 56.239998 103.040001 C 56.554028 103.046669 56.866177 103.090302 57.169998 103.169998 L 57.169998 102.660004 C 57.195194 102.388687 57.135811 102.116226 57.000000 101.880005 C 56.839996 101.726921 56.619850 101.653542 56.400002 101.680008 C 55.792171 101.704216 55.191746 101.822273 54.620003 102.030006 L 54.619999 101.029999 C 54.907074 100.871574 55.217678 100.760162 55.539997 100.699997 C 55.921398 100.619514 56.310196 100.579300 56.699997 100.579994 C 57.243603 100.534027 57.785004 100.690742 58.219997 101.019997 C 58.564770 101.396851 58.735321 101.901237 58.689999 102.409996 L 58.689999 106.349998 Z M 56.410000 105.430000 C 56.711384 105.418922 56.997318 105.293823 57.209999 105.080002 L 57.209999 104.000000 C 57.004059 103.948677 56.792179 103.925140 56.579998 103.930000 C 56.379452 103.914780 56.182247 103.987816 56.039997 104.129997 C 55.908237 104.297188 55.844002 104.507729 55.859997 104.719994 C 55.849709 104.905304 55.902588 105.088631 56.009998 105.239990 C 56.094925 105.354698 56.227375 105.424606 56.369999 105.429993 Z" fill="#232F3E"/><path d=" M 63.119999 106.199997 C 62.726688 106.347153 62.309933 106.421692 61.889999 106.419998 C 61.417683 106.464508 60.946892 106.320755 60.579998 106.019997 C 60.275261 105.658775 60.127632 105.190689 60.169998 104.719994 L 60.169998 101.820000 L 59.430000 101.820000 L 59.430000 100.900002 L 60.220001 100.750000 L 60.459999 99.209999 L 61.820000 99.209999 L 61.820000 100.720001 L 63.090000 100.720001 L 63.090000 101.820000 L 61.820000 101.820000 L 61.820000 104.589996 C 61.804325 104.774376 61.853870 104.958412 61.959999 105.109993 C 62.107174 105.233894 62.298851 105.291756 62.489998 105.269997 C 62.702271 105.266159 62.913502 105.239334 63.119999 105.189995 Z" fill="#232F3E"/><path d=" M 66.900002 106.349998 L 66.760002 105.839996 C 66.604744 106.042564 66.402153 106.203949 66.170006 106.309998 C 65.923096 106.427322 65.653366 106.488777 65.380005 106.489998 C 64.934990 106.501343 64.506081 106.323235 64.200005 106.000000 C 63.896591 105.668808 63.741310 105.228241 63.770004 104.779999 C 63.746861 104.286880 63.940487 103.808296 64.300003 103.470001 C 64.697273 103.133095 65.210320 102.964470 65.730003 103.000000 C 66.044029 103.006668 66.356186 103.050301 66.660004 103.129997 L 66.660004 102.620003 C 66.687576 102.349762 66.631737 102.077560 66.500000 101.840004 C 66.335480 101.687714 66.112755 101.614693 65.889999 101.640007 C 65.285545 101.665237 64.688568 101.783279 64.120003 101.990005 L 64.120003 100.989998 C 64.403473 100.831467 64.710808 100.720016 65.030006 100.659996 C 65.411491 100.580017 65.800232 100.539803 66.190010 100.539993 C 66.733810 100.492088 67.275894 100.649010 67.710007 100.979996 C 68.054779 101.356850 68.225327 101.861237 68.180008 102.369995 L 68.180000 106.309998 Z M 65.900002 105.430000 C 66.198349 105.418404 66.480972 105.293190 66.690002 105.080002 L 66.690002 104.000000 C 66.484169 103.948074 66.272209 103.924522 66.060005 103.930000 C 65.862259 103.913605 65.667625 103.987053 65.530006 104.129997 C 65.390953 104.293694 65.322609 104.505920 65.340004 104.719994 C 65.329712 104.905304 65.382599 105.088631 65.490005 105.239990 C 65.581200 105.357796 65.721039 105.427719 65.870003 105.429993 Z" fill="#232F3E"/><path d=" M 22.639999 120.349998 L 22.209999 118.529999 L 20.209999 118.529999 L 19.780001 120.349998 L 18.000000 120.349998 L 20.320000 112.720001 L 22.180000 112.720001 L 24.480000 120.349998 Z M 20.459999 117.430000 L 22.000000 117.430000 L 21.240000 114.269997 Z" fill="#232F3E"/><path d=" M 28.389999 120.349998 L 28.389999 116.650002 C 28.409313 116.407036 28.357176 116.163719 28.240000 115.950005 C 28.127308 115.794876 27.940807 115.711143 27.750000 115.730003 C 27.457790 115.738640 27.173796 115.828682 26.930000 115.990005 L 26.930000 120.349998 L 25.280001 120.349998 L 25.280001 114.720001 L 26.629999 114.720001 L 26.760000 115.230003 C 27.295238 114.835541 27.935753 114.609268 28.600000 114.580002 C 29.001431 114.553581 29.393730 114.707565 29.670000 115.000000 C 29.935577 115.349174 30.066885 115.782127 30.040001 116.220001 L 30.040001 120.349998 Z" fill="#232F3E"/><path d=" M 34.340000 120.349998 L 34.189999 119.839996 C 34.039303 120.046989 33.835442 120.209389 33.599998 120.309998 C 33.356251 120.426201 33.090019 120.487640 32.820000 120.489998 C 32.380821 120.513031 31.952318 120.349617 31.639999 120.040001 C 31.333969 119.709824 31.175167 119.269508 31.199999 118.820000 C 31.176857 118.326881 31.370481 117.848297 31.730000 117.510002 C 32.133865 117.177910 32.647987 117.010109 33.169998 117.040001 C 33.484028 117.046669 33.796177 117.090302 34.099998 117.169998 L 34.099998 116.660004 C 34.125195 116.388687 34.065811 116.116226 33.930000 115.880005 C 33.769997 115.726921 33.549850 115.653542 33.330002 115.680008 C 32.722172 115.704216 32.121746 115.822273 31.550001 116.030006 L 31.549999 115.029999 C 31.837076 114.871574 32.147678 114.760162 32.469997 114.699997 C 32.851398 114.619514 33.240196 114.579300 33.629997 114.579994 C 34.170738 114.531685 34.709843 114.688774 35.139996 115.019997 C 35.489227 115.394203 35.660469 115.900635 35.609997 116.409996 L 35.610001 120.349998 Z M 33.340000 119.430000 C 33.641384 119.418922 33.927319 119.293823 34.139999 119.080002 L 34.139999 118.000000 C 33.934059 117.948677 33.722179 117.925140 33.509998 117.930000 C 33.309452 117.914780 33.112247 117.987816 32.969997 118.129997 C 32.838238 118.297188 32.774002 118.507729 32.789997 118.719994 C 32.779709 118.905304 32.832588 119.088631 32.939999 119.239990 C 33.024925 119.354698 33.157375 119.424606 33.299999 119.429993 Z" fill="#232F3E"/><path d=" M 39.410000 120.250000 C 39.089802 120.366165 38.750458 120.420456 38.410000 120.410004 C 38.013783 120.445717 37.621078 120.311180 37.329998 120.040001 C 37.066509 119.729019 36.937054 119.326263 36.969997 118.919998 L 36.970001 112.209999 L 38.619999 112.209999 L 38.619999 118.750000 C 38.609196 118.888161 38.636887 119.026619 38.700001 119.150002 C 38.779671 119.241310 38.899937 119.286407 39.020000 119.270004 C 39.136490 119.279053 39.253510 119.279053 39.369999 119.270004 Z" fill="#232F3E"/><path d=" M 41.750000 120.459999 L 39.750000 114.720001 L 41.500000 114.720001 L 42.430000 118.860001 L 43.340000 114.720001 L 45.000000 114.720001 L 43.000000 121.199997 C 42.891499 121.650528 42.655403 122.060219 42.320000 122.379997 C 42.009270 122.629692 41.618233 122.757668 41.220001 122.739998 C 40.860653 122.740013 40.503334 122.686081 40.160000 122.579994 L 40.160000 121.580002 C 40.349770 121.593224 40.540230 121.593224 40.730000 121.580002 C 40.980152 121.601768 41.228615 121.522552 41.419998 121.360001 C 41.596958 121.152000 41.702160 120.892509 41.719997 120.620003 Z" fill="#232F3E"/><path d=" M 49.189999 120.199997 C 48.796688 120.347153 48.379932 120.421692 47.959999 120.419998 C 47.162197 120.570419 46.393509 120.045616 46.243084 119.247818 C 46.210217 119.073509 46.209171 118.894684 46.239998 118.720001 L 46.240002 115.820000 L 45.500000 115.820000 L 45.500000 114.900002 L 46.290001 114.750000 L 46.529999 113.209999 L 47.889999 113.209999 L 47.889999 114.720001 L 49.169998 114.720001 L 49.169998 115.820000 L 47.889999 115.820000 L 47.889999 118.589996 C 47.874325 118.774376 47.923870 118.958412 48.029999 119.109993 C 48.177174 119.233894 48.368851 119.291756 48.559998 119.269997 C 48.772316 119.266800 48.983620 119.239967 49.189999 119.189995 Z" fill="#232F3E"/><path d=" M 50.939999 113.809998 C 50.683857 113.830612 50.429607 113.751831 50.230000 113.589996 C 50.071148 113.436157 49.987179 113.220757 50.000000 113.000000 C 49.989643 112.765633 50.089550 112.539917 50.270000 112.389999 C 50.690441 112.084755 51.259560 112.084755 51.680000 112.389999 C 51.854263 112.543686 51.949810 112.767853 51.939999 113.000000 C 51.946991 113.231628 51.851936 113.454643 51.680000 113.610001 C 51.469692 113.772316 51.203442 113.844276 50.939999 113.809998 Z M 50.110001 120.349998 L 50.110001 114.720001 L 51.759998 114.720001 L 51.759998 120.349998 Z" fill="#232F3E"/><path d=" M 56.849998 120.089996 C 56.653362 120.213127 56.436798 120.301109 56.209999 120.349998 C 55.947773 120.411209 55.679268 120.441414 55.410000 120.439995 C 54.714565 120.489639 54.034149 120.221146 53.560001 119.709991 C 53.106224 119.085075 52.886745 118.320442 52.940002 117.549988 C 52.889225 116.771988 53.127853 116.002678 53.610001 115.389984 C 54.086403 114.867004 54.773830 114.587616 55.480000 114.629982 C 55.949951 114.630127 56.412975 114.743309 56.829998 114.959984 L 56.830002 115.959999 C 56.509464 115.841820 56.171547 115.777618 55.830002 115.769997 C 55.471947 115.735214 55.121014 115.886154 54.900002 116.169998 C 54.682072 116.563194 54.584690 117.011833 54.620003 117.459999 L 54.619999 117.620003 C 54.583050 118.065079 54.680595 118.511002 54.899998 118.900002 C 55.108990 119.182068 55.450584 119.333885 55.799999 119.300003 C 56.169380 119.292480 56.534714 119.221443 56.880001 119.090004 Z" fill="#232F3E"/><path d=" M 59.900002 118.769997 C 59.900002 118.519997 59.730000 118.309998 59.380001 118.150002 L 58.660000 117.800003 C 57.986485 117.560318 57.534882 116.924881 57.529999 116.210007 C 57.511604 115.750854 57.716537 115.311180 58.079998 115.030006 C 58.502357 114.712837 59.022469 114.553619 59.549999 114.580009 C 60.079647 114.581734 60.602276 114.701294 61.079998 114.930008 L 61.080002 115.930000 C 60.851444 115.850227 60.617527 115.786736 60.380001 115.739998 C 60.182865 115.696541 59.981846 115.673088 59.780003 115.669998 C 59.270000 115.669998 59.009998 115.849998 59.009998 116.209999 C 59.009998 116.570000 59.220001 116.660004 59.650002 116.870003 L 60.369999 117.209999 C 60.676876 117.345100 60.942535 117.559013 61.139999 117.830002 C 61.308262 118.110268 61.391628 118.433311 61.380001 118.760002 C 61.404758 119.245941 61.201363 119.715607 60.830002 120.029999 C 60.405518 120.351448 59.881912 120.514183 59.350002 120.489998 C 58.716133 120.497437 58.090473 120.346176 57.530003 120.049995 L 57.529999 119.050003 C 58.045826 119.247581 58.588696 119.365601 59.139999 119.400002 C 59.344173 119.412933 59.546268 119.352661 59.709999 119.230003 C 59.841732 119.114784 59.912025 118.944603 59.899998 118.770004 Z" fill="#232F3E"/></g><g id="ICONS_-_EDIT"><g clip-path="url(#clip-path)"><path d=" M 65.000000 37.000000 L 56.189999 37.000000 C 33.520000 37.000000 15.070000 27.690001 15.070000 16.260000 C 15.073140 15.697614 15.116585 15.136175 15.200000 14.580000 L 17.200001 14.890000 C 17.128233 15.343167 17.091457 15.801188 17.090000 16.260000 C 17.070000 26.590000 34.619999 35.000000 56.189999 35.000000 L 65.000000 35.000000 Z" fill="#FFFFFF"/><path d=" M 35.470001 40.000000 C 23.730000 38.549999 16.240000 35.680000 13.210000 31.469999 L 14.830000 30.299999 C 17.490000 34.000000 24.709999 36.650002 35.709999 38.000000 Z" fill="#FFFFFF"/><path d=" M 14.830000 49.669998 L 13.210000 48.509998 C 16.209999 44.360001 23.480000 41.509998 34.869999 40.040001 L 35.130001 42.040001 C 24.459999 43.400002 17.450001 46.000000 14.830000 49.669998 Z" fill="#FFFFFF"/><path d=" M 65.000000 33.000000 L 60.860001 33.000000 C 40.860001 33.000000 26.270000 26.250000 26.270000 16.940001 C 26.270000 16.940001 26.270000 15.010000 26.320000 14.670000 L 28.320000 14.900000 L 27.320000 14.790000 L 28.320000 14.890000 C 28.320000 15.110000 28.320000 16.500000 28.320000 16.940001 C 28.320000 24.940001 42.320000 31.000000 60.910000 31.000000 L 65.000000 31.000000 Z" fill="#FFFFFF"/><path d=" M 15.200000 65.449997 C 15.111601 64.894402 15.068127 64.332581 15.070000 63.769997 C 15.070000 56.439999 22.410000 49.770000 34.709999 46.049999 L 35.290001 48.000000 C 24.049999 51.439999 17.070000 57.500000 17.070000 63.799999 C 17.071047 64.255508 17.107826 64.710243 17.180000 65.159996 Z" fill="#FFFFFF"/><path d=" M 26.320000 65.419998 C 26.270000 65.080002 26.270000 63.160000 26.270000 63.139999 C 26.270000 58.900002 29.129999 55.139999 34.529999 52.320000 L 35.470001 54.080002 C 32.180000 55.810001 28.270000 58.779999 28.270000 63.139999 C 28.270000 63.570000 28.270000 64.959999 28.270000 65.139999 Z" fill="#FFFFFF"/></g><path d=" M 54.000000 64.000000 L 52.000000 64.000000 L 52.000000 52.000000 L 50.000000 52.000000 L 50.000000 64.000000 L 48.000000 64.000000 L 48.000000 51.000000 C 48.000000 50.447716 48.447716 50.000000 49.000000 50.000000 L 53.000000 50.000000 C 53.552284 50.000000 54.000000 50.447716 54.000000 51.000000 Z" fill="#FFFFFF"/><path d=" M 46.000000 64.000000 L 44.000000 64.000000 L 44.000000 55.000000 L 42.000000 55.000000 L 42.000000 64.000000 L 40.000000 64.000000 L 40.000000 54.000000 C 40.000000 53.447716 40.447716 53.000000 41.000000 53.000000 L 45.000000 53.000000 C 45.552284 53.000000 46.000000 53.447716 46.000000 54.000000 Z" fill="#FFFFFF"/><path d=" M 62.000000 64.000000 L 60.000000 64.000000 L 60.000000 48.000000 L 58.000000 48.000000 L 58.000000 64.000000 L 56.000000 64.000000 L 56.000000 47.000000 C 56.000000 46.447716 56.447716 46.000000 57.000000 46.000000 L 61.000000 46.000000 C 61.552284 46.000000 62.000000 46.447716 62.000000 47.000000 Z" fill="#FFFFFF"/><rect x="38.000000" y="63.000000" width="26.000000" height="2.000000" fill="#FFFFFF"/><path d=" M 65.000000 65.000000 L 63.000000 65.000000 L 63.000000 43.000000 L 39.000000 43.000000 L 39.000000 65.000000 L 37.000000 65.000000 L 37.000000 42.000000 C 37.000000 41.447716 37.447716 41.000000 38.000000 41.000000 L 64.000000 41.000000 C 64.552284 41.000000 65.000000 41.447716 65.000000 42.000000 Z" fill="#FFFFFF"/></g></svg>