<svg version="1.1" width="80.000000" height="130.000000" viewBox="0.000000 0.000000 80.000000 130.000000" xmlns="http://www.w3.org/2000/svg" xmlns:xlink="http://www.w3.org/1999/xlink" overflow="hidden"><defs><clipPath id="clip-path"><rect x="15.000000" y="15.000000" width="50.000000" height="50.000000" fill="none"/></clipPath></defs><g id="CARDS"><rect x="1.000000" y="1.000000" width="78.000000" height="78.000000" fill="#232F3E"/><path d=" M 0.000000 0.000000 L 0.000000 80.000000 L 0.000000 80.000000 L 0.000000 130.000000 L 80.000000 130.000000 L 80.000000 80.000000 L 80.000000 80.000000 L 80.000000 0.000000 Z M 1.000000 1.000000 L 79.000000 1.000000 L 79.000000 79.000000 L 1.000000 79.000000 Z" fill="#FFFFFF"/></g><g id="TEXT_-_EDIT"><path d=" M 25.350000 92.349998 L 24.920000 90.529999 L 22.920000 90.529999 L 22.500000 92.349998 L 20.719999 92.349998 L 23.000000 84.720001 L 24.900000 84.720001 L 27.209999 92.349998 Z M 23.170000 89.430000 L 24.660000 89.430000 L 23.900000 86.269997 Z" fill="#232F3E"/><path d=" M 34.060001 92.349998 L 34.060001 88.639999 C 34.076664 88.401566 34.028278 88.163086 33.920002 87.949997 C 33.818390 87.798111 33.642017 87.713760 33.460003 87.729996 C 33.174561 87.741776 32.897831 87.831711 32.660004 87.989998 C 32.664921 88.029846 32.664921 88.070152 32.660004 88.110001 L 32.660000 92.349998 L 31.000000 92.349998 L 31.000000 88.639999 C 31.019257 88.402504 30.974358 88.164200 30.870001 87.949997 C 30.765142 87.796478 30.585056 87.712181 30.400002 87.729996 C 30.121338 87.744865 29.851856 87.834694 29.620001 87.989998 L 29.620001 92.349998 L 28.000000 92.349998 L 28.000000 86.720001 L 29.350000 86.720001 L 29.480000 87.230003 C 30.005127 86.837898 30.635393 86.611557 31.289999 86.580002 C 31.787903 86.543671 32.259682 86.807076 32.489998 87.250000 C 33.020988 86.851845 33.657448 86.618820 34.320000 86.580002 C 34.698605 86.567619 35.063778 86.720993 35.320000 87.000000 C 35.580429 87.351334 35.707973 87.783562 35.680000 88.220001 L 35.680000 92.349998 Z" fill="#232F3E"/><path d=" M 40.000000 92.349998 L 39.860001 91.839996 C 39.704742 92.042564 39.502155 92.203949 39.270000 92.309998 C 39.023094 92.427322 38.753361 92.488777 38.480000 92.489998 C 38.038441 92.498497 37.613724 92.320625 37.310001 92.000000 C 37.006588 91.668808 36.851307 91.228241 36.880001 90.779999 C 36.856857 90.286880 37.050484 89.808296 37.410000 89.470001 C 37.807274 89.133095 38.320316 88.964470 38.840000 89.000000 C 39.154030 89.006668 39.466179 89.050301 39.770000 89.129997 L 39.770000 88.620003 C 39.797573 88.349762 39.741737 88.077560 39.610001 87.840004 C 39.445477 87.687714 39.222755 87.614693 39.000000 87.640007 C 38.395546 87.665237 37.798565 87.783279 37.230000 87.990005 L 37.230000 87.000000 C 37.513470 86.841469 37.820801 86.730019 38.139999 86.669998 C 38.521481 86.590019 38.910225 86.549805 39.299999 86.549995 C 39.843796 86.502090 40.385880 86.659012 40.820000 86.989998 C 41.164772 87.366852 41.335323 87.871239 41.290001 88.379997 L 41.290001 92.320000 Z M 39.000000 91.430000 C 39.298344 91.418404 39.580971 91.293190 39.790001 91.080002 L 39.790001 90.000000 C 39.584171 89.948074 39.372208 89.924522 39.160000 89.930000 C 38.962250 89.913605 38.767620 89.987053 38.630001 90.129997 C 38.490948 90.293694 38.422604 90.505920 38.440002 90.719994 C 38.429714 90.905304 38.482594 91.088631 38.590004 91.239990 C 38.687565 91.366325 38.840549 91.437218 39.000004 91.429993 Z" fill="#232F3E"/><path d=" M 42.279999 92.349998 L 42.279999 91.279999 L 44.770000 87.879997 L 42.369999 87.879997 L 42.369999 86.720001 L 46.509998 86.720001 L 46.509998 87.790001 L 44.000000 91.190002 L 46.540001 91.190002 L 46.540001 92.349998 Z" fill="#232F3E"/><path d=" M 49.790001 92.489998 C 49.108448 92.512650 48.452259 92.230377 48.000000 91.720001 C 47.133984 90.392052 47.133984 88.677956 48.000000 87.349998 C 49.011749 86.331032 50.657967 86.325180 51.676933 87.336929 C 51.681305 87.341270 51.685661 87.345627 51.690002 87.349998 C 52.556019 88.677948 52.556019 90.392044 51.690002 91.720001 C 51.211487 92.259041 50.508781 92.543823 49.790001 92.489998 Z M 49.790001 91.339996 C 50.076321 91.350388 50.337559 91.177567 50.440002 90.909996 C 50.706799 90.016144 50.706799 89.063843 50.440002 88.169998 C 50.304638 87.813774 49.906124 87.634735 49.549900 87.770103 C 49.365585 87.840141 49.220043 87.985687 49.150002 88.169998 C 48.883205 89.063850 48.883205 90.016151 49.150002 90.909996 C 49.248730 91.175995 49.506416 91.349129 49.790001 91.339996 Z" fill="#232F3E"/><path d=" M 56.549999 92.349998 L 56.549999 88.650002 C 56.566494 88.408363 56.518166 88.166710 56.410000 87.950005 C 56.294102 87.793236 56.103878 87.709541 55.910000 87.730003 C 55.618229 87.741188 55.334908 87.831024 55.090000 87.990005 L 55.090000 92.349998 L 53.439999 92.349998 L 53.439999 86.720001 L 54.790001 86.720001 L 54.930000 87.230003 C 55.464371 86.833908 56.105400 86.607452 56.770000 86.580002 C 57.171432 86.553581 57.563728 86.707565 57.840000 87.000000 C 58.102020 87.350540 58.229740 87.783371 58.200001 88.220001 L 58.200001 92.349998 Z" fill="#232F3E"/><path d=" M 11.500000 106.349998 L 11.500000 98.720001 L 13.180000 98.720001 L 13.180000 102.110001 L 15.460000 98.720001 L 17.330000 98.720001 L 14.690000 102.290001 L 17.540001 106.349998 L 15.540000 106.349998 L 13.180000 102.660004 L 13.180000 106.349998 Z" fill="#232F3E"/><path d=" M 19.100000 99.809998 C 18.843857 99.830612 18.589609 99.751831 18.390001 99.589996 C 18.210806 99.439140 18.111187 99.214073 18.120001 98.979996 C 18.109644 98.745628 18.209551 98.519913 18.390001 98.369995 C 18.810442 98.064751 19.379560 98.064751 19.800001 98.369995 C 19.974266 98.523682 20.069811 98.747849 20.060001 98.979996 C 20.066996 99.211624 19.971939 99.434639 19.800001 99.589996 C 19.602974 99.749374 19.352781 99.828011 19.100000 99.809998 Z M 18.270000 106.349998 L 18.270000 100.720001 L 19.920000 100.720001 L 19.920000 106.349998 Z" fill="#232F3E"/><path d=" M 24.480000 106.349998 L 24.480000 102.650002 C 24.496496 102.408363 24.448164 102.166710 24.340000 101.950005 C 24.224104 101.793236 24.033878 101.709541 23.840000 101.730003 C 23.540136 101.738953 23.248922 101.832558 23.000000 102.000000 L 23.000000 106.360001 L 21.370001 106.360001 L 21.370001 100.730003 L 22.719999 100.730003 L 22.860001 101.239998 C 23.394371 100.843903 24.035402 100.617447 24.700001 100.589996 C 25.101431 100.563576 25.493731 100.717560 25.770000 101.009995 C 26.032021 101.360535 26.159742 101.793365 26.130001 102.229996 L 26.129999 106.360001 Z" fill="#232F3E"/><path d=" M 28.750000 103.919998 C 28.729250 104.324760 28.857298 104.723129 29.110001 105.040001 C 29.405565 105.286263 29.786880 105.404976 30.170000 105.370003 C 30.399200 105.363998 30.627129 105.333832 30.850000 105.280006 C 31.121527 105.230042 31.388939 105.159843 31.650000 105.070007 L 31.650000 106.070000 C 31.391758 106.217194 31.111507 106.321869 30.820000 106.379997 C 30.491476 106.451813 30.156279 106.488686 29.820000 106.489998 C 28.100000 106.489998 27.240000 105.489998 27.240000 103.540001 C 27.185513 102.753960 27.412365 101.974152 27.879999 101.340004 C 28.334650 100.816292 29.007925 100.535149 29.699999 100.580002 C 31.070000 100.580002 31.750000 101.339996 31.750000 102.870003 C 31.749126 103.206871 31.708853 103.542488 31.629999 103.870003 Z M 29.660000 101.599998 C 29.080000 101.599998 28.780001 102.059998 28.750000 102.970001 L 30.360001 102.970001 L 30.360001 102.720001 C 30.380444 102.423340 30.321779 102.126572 30.190001 101.860001 C 30.072510 101.684830 29.870441 101.585701 29.660000 101.599998 Z" fill="#232F3E"/><path d=" M 34.889999 104.769997 C 34.889999 104.519997 34.720001 104.309998 34.369999 104.150002 L 33.650002 103.800003 C 32.976486 103.560318 32.524883 102.924881 32.520000 102.210007 C 32.501606 101.750854 32.706539 101.311180 33.070000 101.030006 C 33.492359 100.712837 34.012470 100.553619 34.540001 100.580009 C 35.069649 100.581734 35.592278 100.701294 36.070000 100.930008 L 36.070000 101.930000 C 35.841442 101.850227 35.607525 101.786736 35.369999 101.739998 C 35.172863 101.696541 34.971844 101.673088 34.770000 101.669998 C 34.259998 101.669998 34.000000 101.849998 34.000000 102.209999 C 34.000000 102.570000 34.209999 102.660004 34.639999 102.870003 L 35.360001 103.209999 C 35.666878 103.345100 35.932537 103.559013 36.130001 103.830002 C 36.298264 104.110268 36.381630 104.433311 36.370003 104.760002 C 36.394760 105.245941 36.191364 105.715607 35.820004 106.029999 C 35.395519 106.351448 34.871914 106.514183 34.340004 106.489998 C 33.706135 106.497437 33.080475 106.346176 32.520004 106.049995 L 32.520000 105.050003 C 33.035828 105.247581 33.578697 105.365601 34.130001 105.400002 C 34.334175 105.412933 34.536270 105.352661 34.700001 105.230003 C 34.831734 105.114784 34.902027 104.944603 34.889999 104.770004 Z" fill="#232F3E"/><path d=" M 38.169998 99.809998 C 37.913857 99.830612 37.659607 99.751831 37.459999 99.589996 C 37.280804 99.439140 37.181183 99.214073 37.189999 98.979996 C 37.179642 98.745628 37.279549 98.519913 37.459999 98.369995 C 37.880440 98.064751 38.449558 98.064751 38.869999 98.369995 C 39.044262 98.523682 39.139809 98.747849 39.129997 98.979996 C 39.136990 99.211624 39.041935 99.434639 38.869999 99.589996 C 38.672970 99.749374 38.422779 99.828011 38.169998 99.809998 Z M 37.340000 106.349998 L 37.340000 100.720001 L 39.000000 100.720001 L 39.000000 106.349998 Z" fill="#232F3E"/><path d=" M 42.450001 104.769997 C 42.450001 104.519997 42.270000 104.309998 41.930000 104.150002 L 41.200001 103.800003 C 40.526485 103.560318 40.074883 102.924881 40.070000 102.210007 C 40.055637 101.749420 40.264111 101.310135 40.630001 101.030006 C 41.052361 100.712837 41.572472 100.553619 42.100002 100.580009 C 42.629650 100.581734 43.152279 100.701294 43.630001 100.930008 L 43.630001 101.930000 C 43.401051 101.851501 43.167221 101.788033 42.930000 101.739998 C 42.729595 101.695862 42.525192 101.672409 42.320000 101.669998 C 41.810001 101.669998 41.549999 101.849998 41.549999 102.209999 C 41.549999 102.570000 41.770000 102.660004 42.189999 102.870003 L 42.919998 103.209999 C 43.226875 103.345100 43.492535 103.559013 43.689999 103.830002 C 43.858261 104.110268 43.941628 104.433311 43.930000 104.760002 C 43.950756 105.247345 43.743820 105.716644 43.369999 106.029999 C 42.945515 106.351448 42.421909 106.514183 41.889999 106.489998 C 41.256271 106.496170 40.630920 106.344986 40.070000 106.049995 L 40.070000 105.050003 C 40.588955 105.248726 41.135292 105.366760 41.689999 105.400002 C 41.890903 105.411407 42.089340 105.351166 42.250000 105.230003 C 42.384174 105.115822 42.458008 104.946007 42.450001 104.770004 Z" fill="#232F3E"/><path d=" M 47.500000 106.349998 L 47.500000 98.720001 L 50.000000 98.720001 C 50.899277 98.668739 51.771320 99.038246 52.360001 99.720001 C 52.954468 100.542496 53.241154 101.547661 53.170002 102.559998 C 53.241737 103.572525 52.962780 104.578896 52.380001 105.409996 C 51.804718 106.086601 50.946903 106.456345 50.060001 106.409996 Z M 49.189999 99.900002 L 49.189999 105.169998 L 49.900002 105.169998 C 50.373920 105.192314 50.822357 104.954681 51.070000 104.549995 C 51.369331 103.959961 51.504059 103.300148 51.459999 102.639992 L 51.459999 102.419998 C 51.503742 101.760979 51.372654 101.102089 51.079998 100.509995 C 50.826336 100.102592 50.368851 99.868088 49.889999 99.899994 Z" fill="#232F3E"/><path d=" M 57.410000 106.349998 L 57.259998 105.839996 C 57.109303 106.046989 56.905441 106.209389 56.669998 106.309998 C 56.427036 106.428444 56.160294 106.489998 55.889999 106.489998 C 55.450821 106.513031 55.022320 106.349617 54.709999 106.040001 C 54.099266 105.292549 54.142174 104.206917 54.809998 103.510002 C 55.207272 103.173096 55.720314 103.004471 56.239998 103.040001 C 56.554028 103.046669 56.866177 103.090302 57.169998 103.169998 L 57.169998 102.660004 C 57.195194 102.388687 57.135811 102.116226 57.000000 101.880005 C 56.839996 101.726921 56.619850 101.653542 56.400002 101.680008 C 55.792171 101.704216 55.191746 101.822273 54.620003 102.030006 L 54.619999 101.029999 C 54.907074 100.871574 55.217678 100.760162 55.539997 100.699997 C 55.921398 100.619514 56.310196 100.579300 56.699997 100.579994 C 57.243603 100.534027 57.785004 100.690742 58.219997 101.019997 C 58.564770 101.396851 58.735321 101.901237 58.689999 102.409996 L 58.689999 106.349998 Z M 56.410000 105.430000 C 56.711384 105.418922 56.997318 105.293823 57.209999 105.080002 L 57.209999 104.000000 C 57.004059 103.948677 56.792179 103.925140 56.579998 103.930000 C 56.379452 103.914780 56.182247 103.987816 56.039997 104.129997 C 55.908237 104.297188 55.844002 104.507729 55.859997 104.719994 C 55.849709 104.905304 55.902588 105.088631 56.009998 105.239990 C 56.094925 105.354698 56.227375 105.424606 56.369999 105.429993 Z" fill="#232F3E"/><path d=" M 63.119999 106.199997 C 62.726688 106.347153 62.309933 106.421692 61.889999 106.419998 C 61.417683 106.464508 60.946892 106.320755 60.579998 106.019997 C 60.275261 105.658775 60.127632 105.190689 60.169998 104.719994 L 60.169998 101.820000 L 59.430000 101.820000 L 59.430000 100.900002 L 60.220001 100.750000 L 60.459999 99.209999 L 61.820000 99.209999 L 61.820000 100.720001 L 63.090000 100.720001 L 63.090000 101.820000 L 61.820000 101.820000 L 61.820000 104.589996 C 61.804325 104.774376 61.853870 104.958412 61.959999 105.109993 C 62.107174 105.233894 62.298851 105.291756 62.489998 105.269997 C 62.702271 105.266159 62.913502 105.239334 63.119999 105.189995 Z" fill="#232F3E"/><path d=" M 66.900002 106.349998 L 66.760002 105.839996 C 66.604744 106.042564 66.402153 106.203949 66.170006 106.309998 C 65.923096 106.427322 65.653366 106.488777 65.380005 106.489998 C 64.934990 106.501343 64.506081 106.323235 64.200005 106.000000 C 63.896591 105.668808 63.741310 105.228241 63.770004 104.779999 C 63.746861 104.286880 63.940487 103.808296 64.300003 103.470001 C 64.697273 103.133095 65.210320 102.964470 65.730003 103.000000 C 66.044029 103.006668 66.356186 103.050301 66.660004 103.129997 L 66.660004 102.620003 C 66.687576 102.349762 66.631737 102.077560 66.500000 101.840004 C 66.335480 101.687714 66.112755 101.614693 65.889999 101.640007 C 65.285545 101.665237 64.688568 101.783279 64.120003 101.990005 L 64.120003 100.989998 C 64.403473 100.831467 64.710808 100.720016 65.030006 100.659996 C 65.411491 100.580017 65.800232 100.539803 66.190010 100.539993 C 66.733810 100.492088 67.275894 100.649010 67.710007 100.979996 C 68.054779 101.356850 68.225327 101.861237 68.180008 102.369995 L 68.180000 106.309998 Z M 65.900002 105.430000 C 66.198349 105.418404 66.480972 105.293190 66.690002 105.080002 L 66.690002 104.000000 C 66.484169 103.948074 66.272209 103.924522 66.060005 103.930000 C 65.862259 103.913605 65.667625 103.987053 65.530006 104.129997 C 65.390953 104.293694 65.322609 104.505920 65.340004 104.719994 C 65.329712 104.905304 65.382599 105.088631 65.490005 105.239990 C 65.581200 105.357796 65.721039 105.427719 65.870003 105.429993 Z" fill="#232F3E"/><path d=" M 22.730000 117.000000 C 22.232723 116.768532 21.794912 116.426491 21.449999 116.000000 C 21.191233 115.643089 21.057642 115.210678 21.070000 114.769997 C 21.059801 114.355682 21.174810 113.947922 21.400000 113.599998 C 21.632124 113.261627 21.954256 112.994911 22.330000 112.830002 C 22.751116 112.641739 23.208838 112.549515 23.670000 112.560005 C 24.319569 112.563965 24.961924 112.696510 25.559999 112.950005 L 25.559999 114.120003 C 25.008253 113.917831 24.427393 113.806381 23.840000 113.790001 C 23.555244 113.776161 23.273926 113.857040 23.040001 114.020004 C 22.847281 114.175255 22.739666 114.412743 22.750000 114.660004 C 22.745146 114.863258 22.812462 115.061668 22.940001 115.220001 C 23.143887 115.428474 23.389143 115.591980 23.660000 115.700005 L 24.309999 116.019997 C 24.667839 116.184235 25.003771 116.392517 25.309999 116.639999 C 25.545288 116.820801 25.731043 117.058159 25.850000 117.330002 C 25.977577 117.619499 26.039066 117.933777 26.030001 118.250000 C 26.060263 118.886475 25.785427 119.499283 25.290001 119.900002 C 24.713343 120.327324 24.006987 120.542763 23.290001 120.510002 C 22.906866 120.509674 22.524807 120.469460 22.150002 120.389999 C 21.804222 120.327065 21.468079 120.219498 21.150002 120.070000 L 21.150000 118.919998 C 21.477161 119.026321 21.811295 119.109856 22.150000 119.169998 C 22.479118 119.238113 22.813944 119.274940 23.150000 119.279999 C 23.457417 119.289337 23.758320 119.190216 24.000000 119.000000 C 24.212818 118.827957 24.328489 118.563034 24.309999 118.290001 C 24.316534 118.075134 24.237391 117.866486 24.090000 117.709999 C 23.886230 117.513252 23.649240 117.354134 23.389999 117.239998 Z" fill="#232F3E"/><path d=" M 30.190001 120.199997 C 29.796690 120.347153 29.379934 120.421692 28.960001 120.419998 C 28.487684 120.464508 28.016893 120.320755 27.650002 120.019997 C 27.345264 119.658775 27.197636 119.190689 27.240002 118.719994 L 27.240000 115.820000 L 26.500000 115.820000 L 26.500000 114.900002 L 27.280001 114.750000 L 27.520000 113.209999 L 28.889999 113.209999 L 28.889999 114.720001 L 30.160000 114.720001 L 30.160000 115.820000 L 28.889999 115.820000 L 28.889999 118.589996 C 28.869701 118.774757 28.919682 118.960396 29.029999 119.109993 C 29.176586 119.234970 29.368744 119.292976 29.559999 119.269997 C 29.772238 119.265694 29.983421 119.238876 30.189999 119.189995 Z" fill="#232F3E"/><path d=" M 31.070000 120.349998 L 31.070000 114.720001 L 32.419998 114.720001 L 32.599998 115.449997 C 32.799728 115.212708 33.040154 115.012917 33.309998 114.860001 C 33.543045 114.733055 33.804626 114.667656 34.069996 114.669998 L 34.450001 114.669998 L 34.450001 116.000000 C 34.236900 115.985909 34.023102 115.985909 33.810001 116.000000 C 33.431374 116.000565 33.058117 116.089600 32.720001 116.260002 L 32.720001 120.370003 Z" fill="#232F3E"/><path d=" M 36.419998 117.919998 C 36.399250 118.324760 36.527298 118.723129 36.779999 119.040001 C 37.074471 119.288261 37.456642 119.407242 37.840000 119.370003 C 38.069202 119.363998 38.297131 119.333832 38.520000 119.280006 C 38.791252 119.228806 39.058575 119.158638 39.320000 119.070007 L 39.320000 120.070000 C 39.060978 120.215523 38.780998 120.320099 38.489998 120.379997 C 38.161472 120.451813 37.826275 120.488686 37.489998 120.489998 C 35.770000 120.489998 34.910000 119.489998 34.910000 117.540001 C 34.856960 116.755630 35.079819 115.977402 35.540001 115.340004 C 35.998692 114.815964 36.675026 114.535088 37.370003 114.580002 C 38.730000 114.580002 39.369999 115.339996 39.369999 116.870003 C 39.369125 117.206871 39.328854 117.542488 39.250000 117.870003 Z M 37.330002 115.599998 C 36.750000 115.599998 36.450001 116.059998 36.419998 116.970001 L 38.000000 116.970001 L 38.000000 116.720001 C 38.020443 116.423340 37.961781 116.126572 37.830002 115.860001 C 37.718174 115.694191 37.529964 115.596321 37.330002 115.599998 Z" fill="#232F3E"/><path d=" M 43.459999 120.349998 L 43.320000 119.839996 C 43.166901 120.044678 42.963722 120.206528 42.730000 120.309998 C 42.486252 120.426201 42.220020 120.487640 41.950001 120.489998 C 41.507801 120.513382 41.076080 120.350128 40.760002 120.040001 C 40.149269 119.292549 40.192177 118.206917 40.860001 117.510002 C 41.257275 117.173096 41.770317 117.004471 42.290001 117.040001 C 42.604031 117.046669 42.916180 117.090302 43.220001 117.169998 L 43.220001 116.660004 C 43.247574 116.389763 43.191738 116.117561 43.060001 115.880005 C 42.895477 115.727715 42.672756 115.654694 42.450001 115.680008 C 41.845547 115.705238 41.248566 115.823280 40.680000 116.030006 L 40.680000 115.029999 C 40.966564 114.870445 41.277355 114.758965 41.599998 114.699997 C 41.978016 114.619484 42.363503 114.579254 42.750000 114.579994 C 43.293797 114.532089 43.835880 114.689011 44.270000 115.019997 C 44.614773 115.396851 44.785324 115.901237 44.740002 116.409996 L 44.740002 120.349998 Z M 42.459999 119.430000 C 42.758343 119.418404 43.040970 119.293190 43.250000 119.080002 L 43.250000 118.000000 C 43.047474 117.948616 42.838886 117.925064 42.630001 117.930000 C 42.429070 117.911972 42.230713 117.985435 42.090000 118.129997 C 41.950947 118.293694 41.882603 118.505920 41.900002 118.719994 C 41.889713 118.905304 41.942593 119.088631 42.050003 119.239990 C 42.141197 119.357796 42.281040 119.427719 42.430004 119.429993 Z" fill="#232F3E"/><path d=" M 52.209999 120.349998 L 52.209999 116.639999 C 52.226662 116.401566 52.178276 116.163086 52.070000 115.949997 C 51.968388 115.798111 51.792015 115.713760 51.610001 115.729996 C 51.324558 115.741776 51.047829 115.831711 50.810001 115.989998 C 50.814919 116.029846 50.814919 116.070152 50.810001 116.110001 L 50.810001 120.349998 L 49.169998 120.349998 L 49.169998 116.639999 C 49.168194 116.415749 49.109715 116.195587 49.000000 116.000000 C 48.895142 115.846481 48.715054 115.762184 48.529999 115.779999 C 48.251144 115.793877 47.981407 115.883789 47.750000 116.040001 L 47.750000 120.400002 L 46.139999 120.400002 L 46.139999 114.769997 L 47.490002 114.769997 L 47.619999 115.279999 C 48.145126 114.887894 48.775391 114.661552 49.430000 114.629997 C 49.927906 114.593666 50.399681 114.857071 50.630001 115.299995 C 51.160992 114.901840 51.797451 114.668816 52.460003 114.629997 C 52.838608 114.617615 53.203781 114.770988 53.460003 115.049995 C 53.720432 115.401329 53.847977 115.833557 53.820004 116.269997 L 53.820000 120.400002 Z" fill="#232F3E"/><path d=" M 57.259998 118.769997 C 57.259998 118.519997 57.080002 118.309998 56.740002 118.150002 L 56.000000 117.800003 C 55.320663 117.566200 54.863403 116.928444 54.860001 116.210007 C 54.845638 115.749420 55.054111 115.310135 55.420002 115.030006 C 55.842361 114.712837 56.362473 114.553619 56.890003 114.580009 C 57.419651 114.581734 57.942280 114.701294 58.420002 114.930008 L 58.419998 115.930000 C 58.191048 115.851501 57.957218 115.788033 57.719997 115.739998 C 57.522861 115.696541 57.321842 115.673088 57.119999 115.669998 C 56.599998 115.669998 56.349998 115.849998 56.349998 116.209999 C 56.349998 116.570000 56.560001 116.660004 56.980000 116.870003 L 57.709999 117.209999 C 58.016876 117.345100 58.282536 117.559013 58.480000 117.830002 C 58.648262 118.110268 58.731628 118.433311 58.720001 118.760002 C 58.740189 119.245102 58.537624 119.712845 58.170002 120.029999 C 57.741669 120.351402 57.214973 120.514008 56.680000 120.489998 C 56.046368 120.495338 55.421215 120.344200 54.860001 120.049995 L 54.860001 119.050003 C 55.379223 119.247826 55.925423 119.365837 56.480000 119.400002 C 56.681328 119.415108 56.881042 119.354477 57.040001 119.230003 C 57.181652 119.119850 57.263161 118.949417 57.260002 118.770004 Z" fill="#232F3E"/></g><g id="ICONS_-_EDIT"><g clip-path="url(#clip-path)"><path d=" M 65.000000 36.930000 L 56.189999 36.930000 C 33.520000 36.930000 15.070000 27.620001 15.070000 16.180000 C 15.073515 15.620949 15.116959 15.062861 15.200000 14.510000 L 17.200001 14.820000 C 17.128626 15.269855 17.091852 15.724521 17.090000 16.180000 C 17.090000 26.520000 34.639999 34.930000 56.209999 34.930000 L 65.000000 34.930000 Z" fill="#FFFFFF"/><rect x="61.540000" y="38.980000" width="3.460000" height="2.000000" fill="#FFFFFF"/><path d=" M 41.220001 40.560001 C 30.870001 39.779999 17.610001 37.560001 13.220000 31.450001 L 14.840000 30.290001 C 17.920000 34.570000 27.350000 37.509998 41.369999 38.560001 Z" fill="#FFFFFF"/><rect x="61.540000" y="38.980000" width="3.460000" height="2.000000" fill="#FFFFFF"/><path d=" M 14.830000 49.669998 L 13.210000 48.500000 C 17.520000 42.500000 30.270000 40.290001 40.209999 39.500000 L 40.369999 41.500000 C 26.920000 42.580002 17.850000 45.490002 14.830000 49.669998 Z" fill="#FFFFFF"/><path d=" M 65.000000 32.880001 L 60.860001 32.880001 C 40.860001 32.880001 26.270000 26.120001 26.270000 16.820000 C 26.270000 16.820000 26.270000 14.890000 26.320000 14.550000 L 28.320000 14.780000 L 27.320000 14.670000 L 28.320000 14.770000 C 28.320000 14.980000 28.320000 16.379999 28.320000 16.820000 C 28.320000 24.820000 42.320000 30.879999 60.910000 30.879999 L 65.000000 30.879999 Z" fill="#FFFFFF"/><path d=" M 15.200000 65.449997 C 15.111601 64.894402 15.068127 64.332581 15.070000 63.769997 C 15.070000 56.189999 23.170000 49.240002 36.209999 45.619999 L 36.750000 47.540001 C 24.610001 50.910000 17.070000 57.130001 17.070000 63.770000 C 17.071047 64.225510 17.107826 64.680244 17.180000 65.129997 Z" fill="#FFFFFF"/><path d=" M 26.320000 65.419998 C 26.270000 65.080002 26.270000 63.160000 26.270000 63.139999 C 26.270000 58.700001 29.389999 54.820000 35.270000 51.930000 L 36.150002 53.730000 C 32.540001 55.500000 28.240000 58.560001 28.240000 63.139999 C 28.240000 63.570000 28.240000 64.959999 28.240000 65.139999 Z" fill="#FFFFFF"/></g><path d=" M 51.500000 65.000000 C 44.044155 65.000000 38.000000 58.955845 38.000000 51.500000 C 38.000000 44.044155 44.044155 38.000000 51.500000 38.000000 C 58.955845 38.000000 65.000000 44.044155 65.000000 51.500000 C 64.988983 58.951279 58.951279 64.988983 51.500000 65.000000 Z M 51.500000 40.000000 C 45.148724 40.000000 40.000000 45.148724 40.000000 51.500000 C 40.000000 57.851276 45.148724 63.000000 51.500000 63.000000 C 57.851276 63.000000 63.000000 57.851276 63.000000 51.500000 C 62.994488 45.151012 57.848988 40.005512 51.500000 40.000000 Z" fill="#FFFFFF"/><rect x="56.000000" y="58.000000" width="5.320000" height="2.000000" fill="#FFFFFF"/><rect x="40.000000" y="53.000000" width="5.000000" height="2.000000" fill="#FFFFFF"/><rect x="56.000000" y="53.000000" width="8.000000" height="2.000000" fill="#FFFFFF"/><rect x="48.000000" y="48.000000" width="5.000000" height="2.000000" fill="#FFFFFF"/><rect x="40.000000" y="48.000000" width="6.000000" height="2.000000" fill="#FFFFFF"/><path d=" M 53.000000 60.000000 L 48.000000 60.000000 C 47.447716 60.000000 47.000000 59.552284 47.000000 59.000000 L 47.000000 54.000000 C 47.000000 53.447716 47.447716 53.000000 48.000000 53.000000 L 53.000000 53.000000 C 53.552284 53.000000 54.000000 53.447716 54.000000 54.000000 L 54.000000 59.000000 C 54.000000 59.552284 53.552284 60.000000 53.000000 60.000000 Z M 49.000000 58.000000 L 52.000000 58.000000 L 52.000000 55.000000 L 49.000000 55.000000 Z" fill="#FFFFFF"/><path d=" M 61.000000 50.000000 L 56.000000 50.000000 C 55.447716 50.000000 55.000000 49.552284 55.000000 49.000000 L 55.000000 44.000000 C 55.000000 43.447716 55.447716 43.000000 56.000000 43.000000 L 61.000000 43.000000 C 61.552284 43.000000 62.000000 43.447716 62.000000 44.000000 L 62.000000 49.000000 C 62.000000 49.552284 61.552284 50.000000 61.000000 50.000000 Z M 57.000000 48.000000 L 60.000000 48.000000 L 60.000000 45.000000 L 57.000000 45.000000 Z" fill="#FFFFFF"/><rect x="42.000000" y="43.000000" width="11.000000" height="2.000000" fill="#FFFFFF"/><rect x="41.320000" y="58.000000" width="3.680000" height="2.000000" fill="#FFFFFF"/></g></svg>