<svg version="1.1" width="80.000000" height="130.000000" viewBox="0.000000 0.000000 80.000000 130.000000" xmlns="http://www.w3.org/2000/svg" xmlns:xlink="http://www.w3.org/1999/xlink" overflow="hidden"><defs><clipPath id="clip-path"><rect x="15.000000" y="15.000000" width="50.000000" height="50.000000" fill="none"/></clipPath><clipPath id="clip-path-2"><rect x="15.000000" y="15.000000" width="17.000000" height="50.000000" fill="none"/></clipPath></defs><g id="CARDS"><rect x="1.000000" y="1.000000" width="78.000000" height="78.000000" fill="#232F3E"/><path d=" M 0.000000 0.000000 L 0.000000 80.000000 L 0.000000 80.000000 L 0.000000 130.000000 L 80.000000 130.000000 L 80.000000 80.000000 L 80.000000 80.000000 L 80.000000 0.000000 Z M 1.000000 1.000000 L 79.000000 1.000000 L 79.000000 79.000000 L 1.000000 79.000000 Z" fill="#FFFFFF"/></g><g id="TEXT_-_EDIT"><path d=" M 25.350000 92.349998 L 24.920000 90.529999 L 22.920000 90.529999 L 22.500000 92.349998 L 20.719999 92.349998 L 23.000000 84.720001 L 24.900000 84.720001 L 27.209999 92.349998 Z M 23.170000 89.430000 L 24.660000 89.430000 L 23.900000 86.269997 Z" fill="#232F3E"/><path d=" M 34.060001 92.349998 L 34.060001 88.639999 C 34.076664 88.401566 34.028278 88.163086 33.920002 87.949997 C 33.818390 87.798111 33.642017 87.713760 33.460003 87.729996 C 33.174561 87.741776 32.897831 87.831711 32.660004 87.989998 C 32.664921 88.029846 32.664921 88.070152 32.660004 88.110001 L 32.660000 92.349998 L 31.000000 92.349998 L 31.000000 88.639999 C 31.019257 88.402504 30.974358 88.164200 30.870001 87.949997 C 30.765142 87.796478 30.585056 87.712181 30.400002 87.729996 C 30.121338 87.744865 29.851856 87.834694 29.620001 87.989998 L 29.620001 92.349998 L 28.000000 92.349998 L 28.000000 86.720001 L 29.350000 86.720001 L 29.480000 87.230003 C 30.005127 86.837898 30.635393 86.611557 31.289999 86.580002 C 31.787903 86.543671 32.259682 86.807076 32.489998 87.250000 C 33.020988 86.851845 33.657448 86.618820 34.320000 86.580002 C 34.698605 86.567619 35.063778 86.720993 35.320000 87.000000 C 35.580429 87.351334 35.707973 87.783562 35.680000 88.220001 L 35.680000 92.349998 Z" fill="#232F3E"/><path d=" M 40.000000 92.349998 L 39.860001 91.839996 C 39.704742 92.042564 39.502155 92.203949 39.270000 92.309998 C 39.023094 92.427322 38.753361 92.488777 38.480000 92.489998 C 38.038441 92.498497 37.613724 92.320625 37.310001 92.000000 C 37.006588 91.668808 36.851307 91.228241 36.880001 90.779999 C 36.856857 90.286880 37.050484 89.808296 37.410000 89.470001 C 37.807274 89.133095 38.320316 88.964470 38.840000 89.000000 C 39.154030 89.006668 39.466179 89.050301 39.770000 89.129997 L 39.770000 88.620003 C 39.797573 88.349762 39.741737 88.077560 39.610001 87.840004 C 39.445477 87.687714 39.222755 87.614693 39.000000 87.640007 C 38.395546 87.665237 37.798565 87.783279 37.230000 87.990005 L 37.230000 87.000000 C 37.513470 86.841469 37.820801 86.730019 38.139999 86.669998 C 38.521481 86.590019 38.910225 86.549805 39.299999 86.549995 C 39.843796 86.502090 40.385880 86.659012 40.820000 86.989998 C 41.164772 87.366852 41.335323 87.871239 41.290001 88.379997 L 41.290001 92.320000 Z M 39.000000 91.430000 C 39.298344 91.418404 39.580971 91.293190 39.790001 91.080002 L 39.790001 90.000000 C 39.584171 89.948074 39.372208 89.924522 39.160000 89.930000 C 38.962250 89.913605 38.767620 89.987053 38.630001 90.129997 C 38.490948 90.293694 38.422604 90.505920 38.440002 90.719994 C 38.429714 90.905304 38.482594 91.088631 38.590004 91.239990 C 38.687565 91.366325 38.840549 91.437218 39.000004 91.429993 Z" fill="#232F3E"/><path d=" M 42.279999 92.349998 L 42.279999 91.279999 L 44.770000 87.879997 L 42.369999 87.879997 L 42.369999 86.720001 L 46.509998 86.720001 L 46.509998 87.790001 L 44.000000 91.190002 L 46.540001 91.190002 L 46.540001 92.349998 Z" fill="#232F3E"/><path d=" M 49.790001 92.489998 C 49.108448 92.512650 48.452259 92.230377 48.000000 91.720001 C 47.133984 90.392052 47.133984 88.677956 48.000000 87.349998 C 49.011749 86.331032 50.657967 86.325180 51.676933 87.336929 C 51.681305 87.341270 51.685661 87.345627 51.690002 87.349998 C 52.556019 88.677948 52.556019 90.392044 51.690002 91.720001 C 51.211487 92.259041 50.508781 92.543823 49.790001 92.489998 Z M 49.790001 91.339996 C 50.076321 91.350388 50.337559 91.177567 50.440002 90.909996 C 50.706799 90.016144 50.706799 89.063843 50.440002 88.169998 C 50.304638 87.813774 49.906124 87.634735 49.549900 87.770103 C 49.365585 87.840141 49.220043 87.985687 49.150002 88.169998 C 48.883205 89.063850 48.883205 90.016151 49.150002 90.909996 C 49.248730 91.175995 49.506416 91.349129 49.790001 91.339996 Z" fill="#232F3E"/><path d=" M 56.549999 92.349998 L 56.549999 88.650002 C 56.566494 88.408363 56.518166 88.166710 56.410000 87.950005 C 56.294102 87.793236 56.103878 87.709541 55.910000 87.730003 C 55.618229 87.741188 55.334908 87.831024 55.090000 87.990005 L 55.090000 92.349998 L 53.439999 92.349998 L 53.439999 86.720001 L 54.790001 86.720001 L 54.930000 87.230003 C 55.464371 86.833908 56.105400 86.607452 56.770000 86.580002 C 57.171432 86.553581 57.563728 86.707565 57.840000 87.000000 C 58.102020 87.350540 58.229740 87.783371 58.200001 88.220001 L 58.200001 92.349998 Z" fill="#232F3E"/><path d=" M 11.500000 106.349998 L 11.500000 98.720001 L 13.180000 98.720001 L 13.180000 102.110001 L 15.460000 98.720001 L 17.330000 98.720001 L 14.690000 102.290001 L 17.540001 106.349998 L 15.540000 106.349998 L 13.180000 102.660004 L 13.180000 106.349998 Z" fill="#232F3E"/><path d=" M 19.100000 99.809998 C 18.843857 99.830612 18.589609 99.751831 18.390001 99.589996 C 18.210806 99.439140 18.111187 99.214073 18.120001 98.979996 C 18.109644 98.745628 18.209551 98.519913 18.390001 98.369995 C 18.810442 98.064751 19.379560 98.064751 19.800001 98.369995 C 19.974266 98.523682 20.069811 98.747849 20.060001 98.979996 C 20.066996 99.211624 19.971939 99.434639 19.800001 99.589996 C 19.602974 99.749374 19.352781 99.828011 19.100000 99.809998 Z M 18.270000 106.349998 L 18.270000 100.720001 L 19.920000 100.720001 L 19.920000 106.349998 Z" fill="#232F3E"/><path d=" M 24.480000 106.349998 L 24.480000 102.650002 C 24.496496 102.408363 24.448164 102.166710 24.340000 101.950005 C 24.224104 101.793236 24.033878 101.709541 23.840000 101.730003 C 23.540136 101.738953 23.248922 101.832558 23.000000 102.000000 L 23.000000 106.360001 L 21.370001 106.360001 L 21.370001 100.730003 L 22.719999 100.730003 L 22.860001 101.239998 C 23.394371 100.843903 24.035402 100.617447 24.700001 100.589996 C 25.101431 100.563576 25.493731 100.717560 25.770000 101.009995 C 26.032021 101.360535 26.159742 101.793365 26.130001 102.229996 L 26.129999 106.360001 Z" fill="#232F3E"/><path d=" M 28.750000 103.919998 C 28.729250 104.324760 28.857298 104.723129 29.110001 105.040001 C 29.405565 105.286263 29.786880 105.404976 30.170000 105.370003 C 30.399200 105.363998 30.627129 105.333832 30.850000 105.280006 C 31.121527 105.230042 31.388939 105.159843 31.650000 105.070007 L 31.650000 106.070000 C 31.391758 106.217194 31.111507 106.321869 30.820000 106.379997 C 30.491476 106.451813 30.156279 106.488686 29.820000 106.489998 C 28.100000 106.489998 27.240000 105.489998 27.240000 103.540001 C 27.185513 102.753960 27.412365 101.974152 27.879999 101.340004 C 28.334650 100.816292 29.007925 100.535149 29.699999 100.580002 C 31.070000 100.580002 31.750000 101.339996 31.750000 102.870003 C 31.749126 103.206871 31.708853 103.542488 31.629999 103.870003 Z M 29.660000 101.599998 C 29.080000 101.599998 28.780001 102.059998 28.750000 102.970001 L 30.360001 102.970001 L 30.360001 102.720001 C 30.380444 102.423340 30.321779 102.126572 30.190001 101.860001 C 30.072510 101.684830 29.870441 101.585701 29.660000 101.599998 Z" fill="#232F3E"/><path d=" M 34.889999 104.769997 C 34.889999 104.519997 34.720001 104.309998 34.369999 104.150002 L 33.650002 103.800003 C 32.976486 103.560318 32.524883 102.924881 32.520000 102.210007 C 32.501606 101.750854 32.706539 101.311180 33.070000 101.030006 C 33.492359 100.712837 34.012470 100.553619 34.540001 100.580009 C 35.069649 100.581734 35.592278 100.701294 36.070000 100.930008 L 36.070000 101.930000 C 35.841442 101.850227 35.607525 101.786736 35.369999 101.739998 C 35.172863 101.696541 34.971844 101.673088 34.770000 101.669998 C 34.259998 101.669998 34.000000 101.849998 34.000000 102.209999 C 34.000000 102.570000 34.209999 102.660004 34.639999 102.870003 L 35.360001 103.209999 C 35.666878 103.345100 35.932537 103.559013 36.130001 103.830002 C 36.298264 104.110268 36.381630 104.433311 36.370003 104.760002 C 36.394760 105.245941 36.191364 105.715607 35.820004 106.029999 C 35.395519 106.351448 34.871914 106.514183 34.340004 106.489998 C 33.706135 106.497437 33.080475 106.346176 32.520004 106.049995 L 32.520000 105.050003 C 33.035828 105.247581 33.578697 105.365601 34.130001 105.400002 C 34.334175 105.412933 34.536270 105.352661 34.700001 105.230003 C 34.831734 105.114784 34.902027 104.944603 34.889999 104.770004 Z" fill="#232F3E"/><path d=" M 38.169998 99.809998 C 37.913857 99.830612 37.659607 99.751831 37.459999 99.589996 C 37.280804 99.439140 37.181183 99.214073 37.189999 98.979996 C 37.179642 98.745628 37.279549 98.519913 37.459999 98.369995 C 37.880440 98.064751 38.449558 98.064751 38.869999 98.369995 C 39.044262 98.523682 39.139809 98.747849 39.129997 98.979996 C 39.136990 99.211624 39.041935 99.434639 38.869999 99.589996 C 38.672970 99.749374 38.422779 99.828011 38.169998 99.809998 Z M 37.340000 106.349998 L 37.340000 100.720001 L 39.000000 100.720001 L 39.000000 106.349998 Z" fill="#232F3E"/><path d=" M 42.450001 104.769997 C 42.450001 104.519997 42.270000 104.309998 41.930000 104.150002 L 41.200001 103.800003 C 40.526485 103.560318 40.074883 102.924881 40.070000 102.210007 C 40.055637 101.749420 40.264111 101.310135 40.630001 101.030006 C 41.052361 100.712837 41.572472 100.553619 42.100002 100.580009 C 42.629650 100.581734 43.152279 100.701294 43.630001 100.930008 L 43.630001 101.930000 C 43.401051 101.851501 43.167221 101.788033 42.930000 101.739998 C 42.729595 101.695862 42.525192 101.672409 42.320000 101.669998 C 41.810001 101.669998 41.549999 101.849998 41.549999 102.209999 C 41.549999 102.570000 41.770000 102.660004 42.189999 102.870003 L 42.919998 103.209999 C 43.226875 103.345100 43.492535 103.559013 43.689999 103.830002 C 43.858261 104.110268 43.941628 104.433311 43.930000 104.760002 C 43.950756 105.247345 43.743820 105.716644 43.369999 106.029999 C 42.945515 106.351448 42.421909 106.514183 41.889999 106.489998 C 41.256271 106.496170 40.630920 106.344986 40.070000 106.049995 L 40.070000 105.050003 C 40.588955 105.248726 41.135292 105.366760 41.689999 105.400002 C 41.890903 105.411407 42.089340 105.351166 42.250000 105.230003 C 42.384174 105.115822 42.458008 104.946007 42.450001 104.770004 Z" fill="#232F3E"/><path d=" M 47.500000 106.349998 L 47.500000 98.720001 L 50.000000 98.720001 C 50.899277 98.668739 51.771320 99.038246 52.360001 99.720001 C 52.954468 100.542496 53.241154 101.547661 53.170002 102.559998 C 53.241737 103.572525 52.962780 104.578896 52.380001 105.409996 C 51.804718 106.086601 50.946903 106.456345 50.060001 106.409996 Z M 49.189999 99.900002 L 49.189999 105.169998 L 49.900002 105.169998 C 50.373920 105.192314 50.822357 104.954681 51.070000 104.549995 C 51.369331 103.959961 51.504059 103.300148 51.459999 102.639992 L 51.459999 102.419998 C 51.503742 101.760979 51.372654 101.102089 51.079998 100.509995 C 50.826336 100.102592 50.368851 99.868088 49.889999 99.899994 Z" fill="#232F3E"/><path d=" M 57.410000 106.349998 L 57.259998 105.839996 C 57.109303 106.046989 56.905441 106.209389 56.669998 106.309998 C 56.427036 106.428444 56.160294 106.489998 55.889999 106.489998 C 55.450821 106.513031 55.022320 106.349617 54.709999 106.040001 C 54.099266 105.292549 54.142174 104.206917 54.809998 103.510002 C 55.207272 103.173096 55.720314 103.004471 56.239998 103.040001 C 56.554028 103.046669 56.866177 103.090302 57.169998 103.169998 L 57.169998 102.660004 C 57.195194 102.388687 57.135811 102.116226 57.000000 101.880005 C 56.839996 101.726921 56.619850 101.653542 56.400002 101.680008 C 55.792171 101.704216 55.191746 101.822273 54.620003 102.030006 L 54.619999 101.029999 C 54.907074 100.871574 55.217678 100.760162 55.539997 100.699997 C 55.921398 100.619514 56.310196 100.579300 56.699997 100.579994 C 57.243603 100.534027 57.785004 100.690742 58.219997 101.019997 C 58.564770 101.396851 58.735321 101.901237 58.689999 102.409996 L 58.689999 106.349998 Z M 56.410000 105.430000 C 56.711384 105.418922 56.997318 105.293823 57.209999 105.080002 L 57.209999 104.000000 C 57.004059 103.948677 56.792179 103.925140 56.579998 103.930000 C 56.379452 103.914780 56.182247 103.987816 56.039997 104.129997 C 55.908237 104.297188 55.844002 104.507729 55.859997 104.719994 C 55.849709 104.905304 55.902588 105.088631 56.009998 105.239990 C 56.094925 105.354698 56.227375 105.424606 56.369999 105.429993 Z" fill="#232F3E"/><path d=" M 63.119999 106.199997 C 62.726688 106.347153 62.309933 106.421692 61.889999 106.419998 C 61.417683 106.464508 60.946892 106.320755 60.579998 106.019997 C 60.275261 105.658775 60.127632 105.190689 60.169998 104.719994 L 60.169998 101.820000 L 59.430000 101.820000 L 59.430000 100.900002 L 60.220001 100.750000 L 60.459999 99.209999 L 61.820000 99.209999 L 61.820000 100.720001 L 63.090000 100.720001 L 63.090000 101.820000 L 61.820000 101.820000 L 61.820000 104.589996 C 61.804325 104.774376 61.853870 104.958412 61.959999 105.109993 C 62.107174 105.233894 62.298851 105.291756 62.489998 105.269997 C 62.702271 105.266159 62.913502 105.239334 63.119999 105.189995 Z" fill="#232F3E"/><path d=" M 66.900002 106.349998 L 66.760002 105.839996 C 66.604744 106.042564 66.402153 106.203949 66.170006 106.309998 C 65.923096 106.427322 65.653366 106.488777 65.380005 106.489998 C 64.934990 106.501343 64.506081 106.323235 64.200005 106.000000 C 63.896591 105.668808 63.741310 105.228241 63.770004 104.779999 C 63.746861 104.286880 63.940487 103.808296 64.300003 103.470001 C 64.697273 103.133095 65.210320 102.964470 65.730003 103.000000 C 66.044029 103.006668 66.356186 103.050301 66.660004 103.129997 L 66.660004 102.620003 C 66.687576 102.349762 66.631737 102.077560 66.500000 101.840004 C 66.335480 101.687714 66.112755 101.614693 65.889999 101.640007 C 65.285545 101.665237 64.688568 101.783279 64.120003 101.990005 L 64.120003 100.989998 C 64.403473 100.831467 64.710808 100.720016 65.030006 100.659996 C 65.411491 100.580017 65.800232 100.539803 66.190010 100.539993 C 66.733810 100.492088 67.275894 100.649010 67.710007 100.979996 C 68.054779 101.356850 68.225327 101.861237 68.180008 102.369995 L 68.180000 106.309998 Z M 65.900002 105.430000 C 66.198349 105.418404 66.480972 105.293190 66.690002 105.080002 L 66.690002 104.000000 C 66.484169 103.948074 66.272209 103.924522 66.060005 103.930000 C 65.862259 103.913605 65.667625 103.987053 65.530006 104.129997 C 65.390953 104.293694 65.322609 104.505920 65.340004 104.719994 C 65.329712 104.905304 65.382599 105.088631 65.490005 105.239990 C 65.581200 105.357796 65.721039 105.427719 65.870003 105.429993 Z" fill="#232F3E"/><path d=" M 20.680000 120.349998 L 20.680000 112.720001 L 25.000000 112.720001 L 25.000000 113.900002 L 22.370001 113.900002 L 22.370001 116.000000 L 24.450001 116.000000 L 24.450001 117.169998 L 22.370001 117.169998 L 22.370001 120.389999 Z" fill="#232F3E"/><path d=" M 26.809999 113.809998 C 26.554758 113.822983 26.303181 113.745026 26.100000 113.589996 C 25.928062 113.434639 25.833006 113.211624 25.840000 112.979996 C 25.830191 112.747849 25.925735 112.523689 26.100000 112.369995 C 26.298119 112.204575 26.552521 112.122162 26.809999 112.139992 C 27.064102 112.124771 27.314445 112.207024 27.510000 112.369995 C 27.690451 112.519913 27.790358 112.745628 27.780001 112.979996 C 27.788815 113.214073 27.689198 113.439140 27.510000 113.589996 C 27.312973 113.749374 27.062780 113.828011 26.809999 113.809998 Z M 26.000000 120.349998 L 26.000000 114.720001 L 27.650000 114.720001 L 27.650000 120.349998 Z" fill="#232F3E"/><path d=" M 29.090000 120.349998 L 29.090000 114.720001 L 30.440001 114.720001 L 30.620001 115.449997 C 30.820948 115.209991 31.065180 115.009857 31.340000 114.860001 C 31.569427 114.733040 31.827797 114.667580 32.090000 114.669998 C 32.219810 114.660080 32.350189 114.660080 32.480000 114.669998 L 32.480000 116.000000 C 32.266884 115.986336 32.053116 115.986336 31.840000 116.000000 C 31.458166 116.000481 31.081642 116.089478 30.740000 116.260002 L 30.740000 120.370003 Z" fill="#232F3E"/><path d=" M 34.439999 117.919998 C 34.428944 118.311180 34.556446 118.693687 34.799999 119.000000 C 35.095566 119.246262 35.476879 119.364975 35.860001 119.330002 C 36.089249 119.324608 36.317242 119.294434 36.540001 119.240005 C 36.811527 119.190041 37.078941 119.119843 37.340000 119.030006 L 37.340000 120.029999 C 37.081760 120.177193 36.801506 120.281868 36.509998 120.339996 C 36.181473 120.411812 35.846275 120.448685 35.509998 120.449997 C 33.790001 120.449997 32.939999 119.449997 32.939999 117.500000 C 32.886959 116.715630 33.109818 115.937401 33.570000 115.300003 C 34.024651 114.776291 34.697926 114.495148 35.389999 114.540001 C 36.759998 114.540001 37.439999 115.300003 37.439999 116.830002 C 37.439125 117.166870 37.398853 117.502487 37.320000 117.830002 Z M 35.349998 115.599998 C 34.779999 115.599998 34.470001 116.059998 34.439999 116.970001 L 36.049999 116.970001 L 36.049999 116.720001 C 36.075039 116.423065 36.016132 116.125076 35.880001 115.860001 C 35.763954 115.683182 35.560860 115.583549 35.350002 115.599998 Z" fill="#232F3E"/><path d=" M 41.689999 120.349998 L 41.689999 116.650002 C 41.706493 116.408363 41.658165 116.166710 41.549999 115.950005 C 41.434101 115.793236 41.243877 115.709541 41.049999 115.730003 C 40.757969 115.739677 40.474251 115.829636 40.230000 115.990005 L 40.230000 120.349998 L 38.580002 120.349998 L 38.580002 112.209999 L 40.230000 112.209999 L 40.230000 115.120003 C 40.729481 114.788506 41.310913 114.601616 41.910000 114.580002 C 42.318230 114.547424 42.719177 114.701920 43.000000 115.000000 C 43.262020 115.350540 43.389740 115.783371 43.360001 116.220001 L 43.360001 120.349998 Z" fill="#232F3E"/><path d=" M 47.000000 120.489998 C 46.300713 120.530975 45.621677 120.246811 45.160000 119.720001 C 44.280846 118.395988 44.280846 116.674019 45.160000 115.349998 C 46.158825 114.333794 47.792332 114.319710 48.808537 115.318535 C 48.819115 115.328934 48.829605 115.339424 48.840000 115.349998 C 49.706017 116.677948 49.706017 118.392044 48.840000 119.720001 C 48.376537 120.244324 47.698769 120.527962 47.000000 120.489998 Z M 47.000000 119.339996 C 47.284492 119.352325 47.543888 119.178047 47.639999 118.909996 C 47.906796 118.016144 47.906796 117.063843 47.639999 116.169998 C 47.547371 115.897995 47.287136 115.719078 47.000000 115.729996 C 46.711109 115.721107 46.449081 115.898483 46.349998 116.169998 C 46.094864 117.065514 46.094864 118.014481 46.349998 118.909996 C 46.452438 119.177567 46.713680 119.350380 47.000000 119.339996 Z" fill="#232F3E"/><path d=" M 52.619999 118.769997 C 52.619999 118.519997 52.450001 118.309998 52.099998 118.150002 L 51.380001 117.800003 C 50.702705 117.565338 50.248901 116.926796 50.250000 116.210007 C 50.221603 115.740471 50.427570 115.287346 50.799999 115.000008 C 51.222359 114.682838 51.742470 114.523621 52.270000 114.550011 C 52.799648 114.551735 53.322277 114.671295 53.799999 114.900009 L 53.799999 115.900002 C 53.571049 115.821503 53.337219 115.758034 53.099998 115.709999 C 52.902863 115.666542 52.701843 115.643089 52.500000 115.639999 C 51.980000 115.639999 51.730000 115.820000 51.730000 116.180000 C 51.730000 116.540001 51.939999 116.629997 52.369999 116.839996 L 53.090000 117.180000 C 53.396877 117.315102 53.662537 117.529015 53.860001 117.800003 C 54.028263 118.080269 54.111629 118.403313 54.100002 118.730003 C 54.124760 119.215942 53.921364 119.685608 53.550003 120.000000 C 53.121670 120.321404 52.594975 120.484009 52.060001 120.459999 C 51.429459 120.466187 50.807339 120.314957 50.250000 120.019997 L 50.250000 119.019997 C 50.765827 119.217575 51.308697 119.335594 51.860001 119.369995 C 52.064175 119.382927 52.266270 119.322655 52.430000 119.199997 C 52.550167 119.089172 52.618969 118.933464 52.619999 118.769997 Z" fill="#232F3E"/><path d=" M 56.250000 117.919998 C 56.229252 118.324760 56.357300 118.723129 56.610001 119.040001 C 56.904472 119.288261 57.286644 119.407242 57.670002 119.370003 C 57.899204 119.363998 58.127132 119.333832 58.350002 119.280006 C 58.621254 119.228806 58.888577 119.158638 59.150002 119.070007 L 59.150002 120.070000 C 58.890980 120.215523 58.611000 120.320099 58.320000 120.379997 C 57.991474 120.451813 57.656277 120.488686 57.320000 120.489998 C 55.599998 120.489998 54.740002 119.489998 54.740002 117.540001 C 54.686962 116.755630 54.909821 115.977402 55.370003 115.340004 C 55.828693 114.815964 56.505028 114.535088 57.200005 114.580002 C 58.560001 114.580002 59.200001 115.339996 59.200001 116.870003 C 59.199127 117.206871 59.158855 117.542488 59.080002 117.870003 Z M 57.160000 115.599998 C 56.580002 115.599998 56.279999 116.059998 56.250000 116.970001 L 57.860001 116.970001 L 57.860001 116.720001 C 57.880444 116.423340 57.821781 116.126572 57.690002 115.860001 C 57.572514 115.684830 57.370445 115.585701 57.160004 115.599998 Z" fill="#232F3E"/></g><g id="ICONS_-_EDIT"><g clip-path="url(#clip-path)"><path d=" M 40.000000 50.000000 L 35.000000 50.000000 C 34.447716 50.000000 34.000000 49.552284 34.000000 49.000000 L 34.000000 31.000000 C 34.000000 30.447716 34.447716 30.000000 35.000000 30.000000 L 40.000000 30.000000 C 40.552284 30.000000 41.000000 30.447716 41.000000 31.000000 L 41.000000 49.000000 C 41.000000 49.552284 40.552284 50.000000 40.000000 50.000000 Z M 36.000000 48.000000 L 39.000000 48.000000 L 39.000000 32.000000 L 36.000000 32.000000 Z" fill="#FFFFFF"/><path d=" M 40.000000 47.669998 C 39.447716 47.669998 39.000000 47.222282 39.000000 46.669998 L 39.000000 33.330002 C 38.998970 33.027412 39.135010 32.740631 39.369999 32.550003 C 39.609421 32.360126 39.922520 32.290142 40.219997 32.360004 L 52.220001 35.020000 C 52.677715 35.123222 53.002113 35.530796 53.000000 36.000000 L 53.000000 44.000000 C 53.011650 44.476662 52.685154 44.895245 52.220001 45.000000 L 40.220001 47.660000 C 40.147438 47.673092 40.073452 47.676453 40.000000 47.669998 Z M 41.000000 34.580002 L 41.000000 45.419998 L 51.000000 43.200001 L 51.000000 36.799999 Z" fill="#FFFFFF"/><path d=" M 55.049999 38.000000 L 55.049999 36.000000 C 60.450321 36.126865 65.784714 34.793266 70.489998 32.139999 L 71.489998 33.860001 C 66.481857 36.692928 60.802540 38.123119 55.049999 38.000000 Z" fill="#FFFFFF"/><path d=" M 55.049999 41.000000 L 55.049999 39.000000 C 60.331490 39.116066 65.606514 38.565044 70.750000 37.360001 L 71.250000 39.299999 C 65.942772 40.544453 60.499950 41.115612 55.049999 41.000000 Z" fill="#FFFFFF"/><path d=" M 70.750000 42.860001 C 65.615036 41.585915 60.340523 40.961037 55.049999 41.000000 L 55.049999 39.000000 C 60.508938 38.961887 65.951202 39.606895 71.250000 40.919998 Z" fill="#FFFFFF"/><path d=" M 70.470001 48.000000 C 65.807289 45.245869 60.463547 43.859684 55.050003 44.000000 L 55.049999 42.000000 C 60.840389 41.871880 66.550423 43.372150 71.529999 46.330002 Z" fill="#FFFFFF"/></g><g clip-path="url(#clip-path-2)"><path d=" M 36.720001 37.279999 C 26.719999 37.279999 17.980000 34.790001 12.170000 30.280001 L 13.400000 28.700001 C 18.860001 32.950001 27.139999 35.290001 36.720001 35.290001 Z" fill="#FFFFFF"/><path d=" M 37.430000 41.110001 C 31.559999 41.110001 20.500000 40.669998 12.430000 37.750000 L 13.110000 35.869999 C 20.889999 38.689999 31.680000 39.110001 37.419998 39.110001 Z" fill="#FFFFFF"/><path d=" M 13.120000 44.349998 L 12.440000 42.470001 C 20.500000 39.549999 31.559999 39.110001 37.439999 39.110001 L 37.439999 41.110001 C 31.690001 41.110001 20.900000 41.529999 13.120000 44.349998 Z" fill="#FFFFFF"/><path d=" M 38.220001 34.070000 C 19.110001 34.070000 15.090000 25.900000 15.090000 19.070000 C 15.090000 18.850000 15.090000 15.070000 15.090000 15.070000 L 17.090000 15.070000 C 17.090000 15.070000 17.090000 18.900000 17.090000 19.129999 C 17.090000 25.070000 20.760000 32.130001 38.220001 32.130001 Z" fill="#FFFFFF"/><path d=" M 13.390000 51.459999 L 12.170000 49.880001 C 17.990000 45.400002 26.709999 42.880001 36.720001 42.880001 L 36.720001 44.880001 C 27.150000 44.930000 18.860001 47.250000 13.390000 51.459999 Z" fill="#FFFFFF"/><path d=" M 15.060000 65.099998 C 15.060000 64.959999 15.060000 64.580002 15.060000 61.759998 C 15.060000 61.349998 15.060000 61.060001 15.060000 61.000000 C 15.060000 54.220001 19.059999 46.139999 38.189999 46.139999 L 38.189999 48.139999 C 28.549999 48.139999 17.059999 50.369999 17.059999 61.000000 C 17.059999 61.060001 17.059999 61.369999 17.059999 61.790001 C 17.059999 62.660000 17.059999 64.680000 17.059999 64.930000 Z" fill="#FFFFFF"/></g></g></svg>