<svg version="1.1" width="80.000000" height="115.000000" viewBox="0.000000 0.000000 80.000000 115.000000" xmlns="http://www.w3.org/2000/svg" xmlns:xlink="http://www.w3.org/1999/xlink" overflow="hidden"><g id="CARDS"><rect x="1.000000" y="1.000000" width="78.000000" height="78.000000" fill="#232F3E"/><path d=" M 0.000000 0.000000 L 0.000000 80.000000 L 0.000000 80.000000 L 0.000000 115.000000 L 80.000000 115.000000 L 80.000000 80.000000 L 80.000000 80.000000 L 80.000000 0.000000 Z M 1.000000 1.000000 L 79.000000 1.000000 L 79.000000 79.000000 L 1.000000 79.000000 Z" fill="#FFFFFF"/></g><g id="TEXT_-_EDIT"><path d=" M 25.350000 92.349998 L 24.920000 90.529999 L 22.920000 90.529999 L 22.500000 92.349998 L 20.719999 92.349998 L 23.000000 84.720001 L 24.900000 84.720001 L 27.209999 92.349998 Z M 23.170000 89.430000 L 24.660000 89.430000 L 23.900000 86.269997 Z" fill="#232F3E"/><path d=" M 34.060001 92.349998 L 34.060001 88.639999 C 34.076664 88.401566 34.028278 88.163086 33.920002 87.949997 C 33.819908 87.796371 33.642418 87.711487 33.460003 87.729996 C 33.174831 87.743271 32.898491 87.833084 32.660004 87.989998 C 32.664822 88.029854 32.664822 88.070145 32.660004 88.110001 L 32.660000 92.349998 L 31.000000 92.349998 L 31.000000 88.639999 C 31.019257 88.402504 30.974358 88.164200 30.870001 87.949997 C 30.765142 87.796478 30.585056 87.712181 30.400002 87.729996 C 30.121338 87.744865 29.851856 87.834694 29.620001 87.989998 L 29.620001 92.349998 L 28.000000 92.349998 L 28.000000 86.720001 L 29.350000 86.720001 L 29.480000 87.230003 C 30.005705 86.838974 30.635632 86.612755 31.289999 86.580002 C 31.787903 86.543671 32.259682 86.807076 32.489998 87.250000 C 33.020988 86.851845 33.657448 86.618820 34.320000 86.580002 C 34.698605 86.567619 35.063778 86.720993 35.320000 87.000000 C 35.580429 87.351334 35.707973 87.783562 35.680000 88.220001 L 35.680000 92.349998 Z" fill="#232F3E"/><path d=" M 40.000000 92.349998 L 39.860001 91.839996 C 39.704742 92.042564 39.502155 92.203949 39.270000 92.309998 C 39.023094 92.427322 38.753361 92.488777 38.480000 92.489998 C 38.038441 92.498497 37.613724 92.320625 37.310001 92.000000 C 37.006588 91.668808 36.851307 91.228241 36.880001 90.779999 C 36.856857 90.286880 37.050484 89.808296 37.410000 89.470001 C 37.807274 89.133095 38.320316 88.964470 38.840000 89.000000 C 39.154030 89.006668 39.466179 89.050301 39.770000 89.129997 L 39.770000 88.620003 C 39.797573 88.349762 39.741737 88.077560 39.610001 87.840004 C 39.445477 87.687714 39.222755 87.614693 39.000000 87.640007 C 38.395546 87.665237 37.798565 87.783279 37.230000 87.990005 L 37.230000 87.000000 C 37.516563 86.840446 37.827354 86.728966 38.149998 86.669998 C 38.528015 86.589485 38.913502 86.549255 39.299999 86.549995 C 39.843796 86.502090 40.385880 86.659012 40.820000 86.989998 C 41.164772 87.366852 41.335323 87.871239 41.290001 88.379997 L 41.290001 92.320000 Z M 39.000000 91.430000 C 39.298344 91.418404 39.580971 91.293190 39.790001 91.080002 L 39.790001 90.000000 C 39.587475 89.948616 39.378887 89.925064 39.170002 89.930000 C 38.969070 89.911972 38.770714 89.985435 38.630001 90.129997 C 38.490948 90.293694 38.422604 90.505920 38.440002 90.719994 C 38.429714 90.905304 38.482594 91.088631 38.590004 91.239990 C 38.687565 91.366325 38.840549 91.437218 39.000004 91.429993 Z" fill="#232F3E"/><path d=" M 42.279999 92.349998 L 42.279999 91.279999 L 44.770000 87.879997 L 42.369999 87.879997 L 42.369999 86.720001 L 46.509998 86.720001 L 46.509998 87.790001 L 44.000000 91.190002 L 46.540001 91.190002 L 46.540001 92.349998 Z" fill="#232F3E"/><path d=" M 49.790001 92.489998 C 49.108715 92.511253 48.453094 92.229225 48.000000 91.720001 C 47.133984 90.392052 47.133984 88.677956 48.000000 87.349998 C 49.011749 86.331032 50.657967 86.325180 51.676933 87.336929 C 51.681305 87.341270 51.685661 87.345627 51.690002 87.349998 C 52.556019 88.677948 52.556019 90.392044 51.690002 91.720001 C 51.211487 92.259041 50.508781 92.543823 49.790001 92.489998 Z M 49.790001 91.339996 C 50.076321 91.350388 50.337559 91.177567 50.440002 90.909996 C 50.706799 90.016144 50.706799 89.063843 50.440002 88.169998 C 50.304638 87.813774 49.906124 87.634735 49.549900 87.770103 C 49.365585 87.840141 49.220043 87.985687 49.150002 88.169998 C 48.883205 89.063850 48.883205 90.016151 49.150002 90.909996 C 49.248730 91.175995 49.506416 91.349129 49.790001 91.339996 Z" fill="#232F3E"/><path d=" M 56.549999 92.349998 L 56.549999 88.650002 C 56.566494 88.408363 56.518166 88.166710 56.410000 87.950005 C 56.294102 87.793236 56.103878 87.709541 55.910000 87.730003 C 55.621128 87.739960 55.340698 87.829971 55.099998 87.990005 L 55.099998 92.349998 L 53.439999 92.349998 L 53.439999 86.720001 L 54.790001 86.720001 L 54.930000 87.230003 C 55.464371 86.833908 56.105400 86.607452 56.770000 86.580002 C 57.171432 86.553581 57.563728 86.707565 57.840000 87.000000 C 58.102020 87.350540 58.229740 87.783371 58.200001 88.220001 L 58.200001 92.349998 Z" fill="#232F3E"/><path d=" M 14.000000 102.529999 C 13.931625 101.479309 14.244028 100.439148 14.880000 99.599998 C 15.501990 98.899231 16.415680 98.529312 17.350000 98.599998 C 18.284321 98.529312 19.198009 98.899231 19.820000 99.599998 C 20.451172 100.441574 20.763031 101.479919 20.699999 102.529999 C 20.728052 103.380157 20.538750 104.223412 20.150000 104.979996 C 19.806128 105.609703 19.238863 106.087776 18.559999 106.319992 C 18.813448 106.510147 19.097540 106.655579 19.400000 106.749992 C 19.762283 106.871315 20.138741 106.945259 20.520000 106.969994 L 20.520000 108.230003 C 19.878077 108.137238 19.256174 107.937820 18.680000 107.640007 C 18.118702 107.352463 17.611252 106.970184 17.180000 106.510010 C 16.272079 106.521027 15.408019 106.120247 14.830000 105.420013 C 14.234549 104.578224 13.941968 103.559479 14.000000 102.530014 Z M 15.730000 102.529999 C 15.695842 103.220573 15.836881 103.908569 16.139999 104.529999 C 16.376539 104.975273 16.846077 105.246910 17.349998 105.229996 C 17.851589 105.247879 18.318666 104.975418 18.549999 104.529999 C 18.857363 103.910019 18.998631 103.220909 18.959999 102.529999 C 19.008089 101.820229 18.870216 101.110191 18.559999 100.470001 C 18.318796 100.032837 17.848530 99.772438 17.350000 99.800003 C 16.849060 99.773369 16.376316 100.032990 16.130001 100.470001 C 15.818042 101.110100 15.673536 101.818863 15.710001 102.529999 Z" fill="#232F3E"/><path d=" M 25.250000 106.349998 L 25.120001 105.839996 C 24.607447 106.234222 23.985985 106.461166 23.340000 106.489998 C 22.958483 106.506950 22.590147 106.348564 22.340000 106.059998 C 22.093271 105.695351 21.973761 105.259483 22.000000 104.820000 L 22.000000 100.720001 L 23.650000 100.720001 L 23.650000 104.339996 C 23.629488 104.603439 23.674135 104.867889 23.779999 105.109993 C 23.869148 105.266022 24.040997 105.355850 24.219999 105.339996 C 24.492565 105.334137 24.757183 105.247093 24.980000 105.089996 L 24.980000 100.720001 L 26.600000 100.720001 L 26.600000 106.349998 Z" fill="#232F3E"/><path d=" M 28.889999 99.809998 C 28.634758 99.822983 28.383181 99.745026 28.180000 99.589996 C 28.008062 99.434639 27.913006 99.211624 27.920000 98.979996 C 27.910191 98.747849 28.005735 98.523689 28.180000 98.369995 C 28.378119 98.204575 28.632521 98.122162 28.889999 98.139992 C 29.144102 98.124771 29.394445 98.207024 29.590000 98.369995 C 29.770451 98.519913 29.870358 98.745628 29.860001 98.979996 C 29.868814 99.214073 29.769197 99.439140 29.590000 99.589996 C 29.392973 99.749374 29.142780 99.828011 28.889999 99.809998 Z M 28.059999 106.349998 L 28.059999 100.720001 L 29.709999 100.720001 L 29.709999 106.349998 Z" fill="#232F3E"/><path d=" M 34.810001 106.089996 C 34.613365 106.213127 34.396801 106.301109 34.170002 106.349998 C 33.904293 106.410645 33.632542 106.440842 33.360001 106.439995 C 32.667515 106.489487 31.990204 106.220772 31.520000 105.709991 C 30.652290 104.400703 30.652290 102.699280 31.520000 101.389992 C 32.000343 100.866623 32.690887 100.587463 33.400002 100.629990 C 33.866909 100.628960 34.326969 100.742256 34.740002 100.959991 L 34.740002 101.959999 C 34.419926 101.840164 34.081726 101.775909 33.740002 101.769997 C 33.381947 101.735214 33.031013 101.886154 32.810001 102.169998 C 32.588039 102.561913 32.487129 103.010796 32.520000 103.459999 L 32.520000 103.620003 C 32.487835 104.064751 32.585083 104.509300 32.799999 104.900002 C 33.008991 105.182068 33.350586 105.333885 33.700001 105.300003 C 34.072647 105.292633 34.441292 105.221611 34.790001 105.090004 Z" fill="#232F3E"/><path d=" M 35.860001 106.349998 L 35.860001 98.209999 L 37.480000 98.209999 L 37.480000 103.209999 L 39.119999 100.769997 L 41.000000 100.769997 L 39.000000 103.459999 L 41.169998 106.400002 L 39.240002 106.400002 L 37.480000 103.800003 L 37.480000 106.400002 Z" fill="#232F3E"/><path d=" M 43.290001 103.000000 C 42.790924 102.766853 42.350201 102.425201 42.000000 102.000000 C 41.741234 101.643089 41.607643 101.210678 41.619999 100.769997 C 41.620602 100.349762 41.753559 99.940392 42.000000 99.599998 C 42.225700 99.259720 42.545288 98.992241 42.919998 98.830002 C 43.341419 98.642693 43.798923 98.550507 44.259998 98.560005 C 44.909679 98.562897 45.552238 98.695488 46.149998 98.950005 L 46.150002 100.120003 C 45.598255 99.917831 45.017395 99.806381 44.430000 99.790001 C 44.145245 99.776161 43.863926 99.857040 43.630001 100.020004 C 43.437279 100.175255 43.329666 100.412743 43.340000 100.660004 C 43.335148 100.863258 43.402462 101.061668 43.529999 101.220001 C 43.735855 101.426086 43.980587 101.589241 44.250000 101.700005 L 44.900002 102.019997 C 45.257839 102.184235 45.593773 102.392517 45.900002 102.639999 C 46.135288 102.820801 46.321045 103.058159 46.440002 103.330002 C 46.567581 103.619499 46.629070 103.933777 46.620003 104.250000 C 46.650265 104.886475 46.375431 105.499283 45.880001 105.900002 C 45.303341 106.327324 44.596985 106.542763 43.880001 106.510002 C 43.496868 106.509674 43.114807 106.469460 42.740002 106.389999 C 42.411331 106.322983 42.092232 106.215500 41.790001 106.070000 L 41.790001 104.919998 C 42.117496 105.025146 42.451550 105.108665 42.790001 105.169998 C 43.119122 105.238113 43.453945 105.274940 43.790001 105.279999 C 44.103401 105.300781 44.414337 105.212448 44.670002 105.029999 C 44.876396 104.853905 44.987595 104.590736 44.970001 104.320000 C 44.976089 104.107033 44.901024 103.899704 44.760002 103.739998 C 44.552326 103.543411 44.312092 103.384384 44.050003 103.269997 Z" fill="#232F3E"/><path d=" M 48.580002 99.809998 C 48.324539 99.824768 48.072357 99.746628 47.870003 99.589996 C 47.696354 99.443558 47.597309 99.227127 47.600002 99.000000 C 47.589645 98.765633 47.689552 98.539917 47.870003 98.389999 C 48.290443 98.084755 48.859562 98.084755 49.280003 98.389999 C 49.454266 98.543686 49.549812 98.767853 49.540001 99.000000 C 49.546993 99.231628 49.451939 99.454643 49.280003 99.610001 C 49.080086 99.762253 48.830177 99.833656 48.580002 99.809998 Z M 47.750000 106.349998 L 47.750000 100.720001 L 49.400002 100.720001 L 49.400002 106.349998 Z" fill="#232F3E"/><path d=" M 53.759998 105.709999 C 53.104321 106.397354 52.015579 106.423027 51.328228 105.767349 C 51.243221 105.686256 51.166744 105.596672 51.099998 105.499992 C 50.726978 104.901863 50.545551 104.204063 50.579998 103.499992 C 50.537819 102.757774 50.726452 102.020699 51.119999 101.389992 C 51.438335 100.895462 51.992100 100.603409 52.579998 100.619995 C 52.822594 100.627502 53.060978 100.685402 53.279999 100.789993 C 53.522385 100.893715 53.740387 101.046997 53.919998 101.239990 L 54.040001 100.760002 L 55.389999 100.760002 L 55.389999 106.000000 C 55.389999 107.860001 54.529999 108.790001 52.820000 108.790001 C 52.182510 108.777115 51.557785 108.608925 51.000000 108.300003 L 51.000000 107.300003 C 51.515827 107.497581 52.058697 107.615601 52.610001 107.650002 C 52.850513 107.665520 53.091099 107.620834 53.310001 107.520004 C 53.481476 107.426834 53.607788 107.268044 53.660000 107.080002 C 53.749329 106.754585 53.786457 106.417053 53.770000 106.080002 Z M 53.099998 105.110001 C 53.336285 105.100060 53.565006 105.023819 53.759998 104.889999 L 53.759998 102.000000 C 53.546562 101.836784 53.288395 101.742584 53.019997 101.730003 C 52.750805 101.727432 52.509720 101.896187 52.419998 102.150002 C 52.268272 102.565742 52.203602 103.008224 52.230000 103.450005 C 52.205818 103.886879 52.277493 104.323753 52.439999 104.730003 C 52.565819 104.975739 52.824314 105.124565 53.099998 105.110001 Z" fill="#232F3E"/><path d=" M 59.919998 106.349998 L 59.919998 102.650002 C 59.939312 102.407036 59.887173 102.163719 59.769997 101.950005 C 59.658669 101.793205 59.471146 101.709015 59.279995 101.730003 C 58.987965 101.739677 58.704247 101.829636 58.459995 101.990005 L 58.459999 106.349998 L 56.810001 106.349998 L 56.810001 98.209999 L 58.459999 98.209999 L 58.459999 101.120003 C 58.955223 100.787392 59.533791 100.600311 60.129997 100.580002 C 60.531429 100.553581 60.923725 100.707565 61.199997 101.000000 C 61.465576 101.349174 61.596882 101.782127 61.569996 102.220001 L 61.570000 106.349998 Z" fill="#232F3E"/><path d=" M 66.000000 106.199997 C 65.606689 106.347153 65.189934 106.421692 64.769997 106.419998 C 63.972195 106.570419 63.203506 106.045616 63.053082 105.247818 C 63.020214 105.073509 63.019169 104.894684 63.049995 104.720001 L 63.049999 101.820000 L 62.310001 101.820000 L 62.310001 100.900002 L 63.099998 100.750000 L 63.340000 99.209999 L 64.699997 99.209999 L 64.699997 100.720001 L 66.000000 100.720001 L 66.000000 101.820000 L 64.699997 101.820000 L 64.699997 104.589996 C 64.684326 104.774376 64.733871 104.958412 64.839996 105.109993 C 64.987167 105.233894 65.178848 105.291756 65.369995 105.269997 C 65.582268 105.266159 65.793503 105.239334 65.999992 105.189995 Z" fill="#232F3E"/></g><g id="ICONS_-_EDIT"><path d=" M 63.080002 64.080002 L 16.920000 64.080002 C 16.367716 64.080002 15.920000 63.632286 15.920000 63.080002 L 15.920000 58.270000 L 17.920000 58.270000 L 17.920000 62.080002 L 62.080002 62.080002 L 62.080002 30.379999 L 64.080002 30.379999 L 64.080002 63.080002 C 64.080002 63.632286 63.632286 64.080002 63.080002 64.080002 Z" fill="#FFFFFF"/><path d=" M 17.920000 46.730000 L 15.920000 46.730000 L 15.920000 16.920000 C 15.920000 16.367716 16.367716 15.920000 16.920000 15.920000 L 63.080002 15.920000 C 63.632286 15.920000 64.080002 16.367716 64.080002 16.920000 L 64.080002 18.850000 L 62.080002 18.850000 L 62.080002 17.920000 L 17.920000 17.920000 Z" fill="#FFFFFF"/><rect x="16.220000" y="40.610000" width="24.920000" height="2.000000" fill="#FFFFFF" transform="matrix(0.710062,-0.704139,0.704139,0.710062,-20.980000,32.260000)"/><rect x="39.000000" y="34.230000" width="2.000000" height="9.620000" fill="#FFFFFF"/><rect x="38.200000" y="34.570000" width="25.530000" height="2.000000" fill="#FFFFFF" transform="matrix(0.701283,-0.712883,0.712883,0.701283,-10.130000,46.960000)"/><path d=" M 17.879999 56.380001 C 15.737142 56.374477 14.004489 54.632874 14.010012 52.490013 C 14.015534 50.347157 15.757141 48.614502 17.900000 48.620026 C 20.038948 48.625538 21.769993 50.361046 21.770000 52.500000 C 21.770008 54.642864 20.032879 56.380005 17.890013 56.380013 C 17.886675 56.380013 17.883337 56.380009 17.879999 56.380001 Z M 17.879999 50.619999 C 16.841719 50.625523 16.004503 51.471691 16.010025 52.509972 C 16.015549 53.548252 16.861717 54.385468 17.899998 54.379944 C 18.934364 54.374443 19.769983 53.534378 19.769999 52.499996 C 19.770014 51.461700 18.928320 50.619984 17.890026 50.619968 C 17.886684 50.619968 17.883341 50.619976 17.879999 50.619995 Z" fill="#FFFFFF"/><path d=" M 40.000000 35.230000 C 37.851620 35.235516 36.105541 33.498379 36.100025 31.350000 C 36.094509 29.201620 37.831646 27.455542 39.980026 27.450026 C 42.128407 27.444510 43.874485 29.181644 43.880001 31.330025 C 43.880016 31.336683 43.880016 31.343342 43.880001 31.349998 C 43.880001 33.492863 42.142864 35.230000 40.000000 35.230000 Z M 40.000000 29.459999 C 38.956196 29.454475 38.105549 30.296169 38.100025 31.339973 C 38.094501 32.383778 38.936195 33.234425 39.980000 33.239948 C 41.023804 33.245472 41.874451 32.403778 41.879974 31.359974 C 41.879993 31.356649 41.880001 31.353325 41.880001 31.350000 C 41.880016 30.310076 41.039913 29.465502 40.000000 29.460001 Z" fill="#FFFFFF"/><path d=" M 40.000000 50.619999 C 37.851620 50.625523 36.105537 48.888393 36.100014 46.740013 C 36.094490 44.591633 37.831619 42.845551 39.980000 42.840027 C 42.128380 42.834503 43.874462 44.571632 43.879986 46.720013 C 43.879993 46.723343 43.879997 46.726669 43.879997 46.730000 C 43.880005 48.874489 42.144478 50.614487 39.999996 50.619999 Z M 40.000000 44.849998 C 38.956196 44.844490 38.105560 45.686195 38.100052 46.730000 C 38.094543 47.773804 38.936249 48.624439 39.980053 48.629948 C 41.023857 48.635456 41.874493 47.793751 41.880001 46.749947 C 41.880035 46.743298 41.880035 46.736649 41.880001 46.730000 C 41.880001 45.691704 41.038296 44.849998 40.000000 44.849998 Z" fill="#FFFFFF"/><path d=" M 62.119999 28.500000 C 59.971619 28.505516 58.225540 26.768381 58.220024 24.620001 C 58.214508 22.471621 59.951645 20.725542 62.100025 20.720026 C 64.248405 20.714510 65.994484 22.451645 66.000000 24.600025 C 66.000015 24.606684 66.000015 24.613342 66.000000 24.619999 C 65.994507 26.760584 64.260582 28.494503 62.119999 28.499998 Z M 62.119999 22.730000 C 61.076195 22.724476 60.225548 23.566170 60.220024 24.609974 C 60.214500 25.653778 61.056194 26.504425 62.099998 26.509947 C 63.143803 26.515471 63.994450 25.673777 63.999973 24.629972 C 63.999992 24.626648 64.000000 24.623323 64.000000 24.619999 C 64.000015 23.580074 63.159912 22.735500 62.119999 22.730000 Z" fill="#FFFFFF"/></g></svg>