<svg version="1.1" width="80.000000" height="115.000000" viewBox="0.000000 0.000000 80.000000 115.000000" xmlns="http://www.w3.org/2000/svg" xmlns:xlink="http://www.w3.org/1999/xlink" overflow="hidden"><g id="CARDS"><rect x="1.000000" y="1.000000" width="78.000000" height="78.000000" fill="#232F3E"/><path d=" M 0.000000 0.000000 L 0.000000 80.000000 L 0.000000 80.000000 L 0.000000 115.000000 L 80.000000 115.000000 L 80.000000 80.000000 L 80.000000 80.000000 L 80.000000 0.000000 Z M 1.000000 1.000000 L 79.000000 1.000000 L 79.000000 79.000000 L 1.000000 79.000000 Z" fill="#FFFFFF"/></g><g id="TEXT_-_EDIT"><path d=" M 25.350000 92.349998 L 24.920000 90.529999 L 22.920000 90.529999 L 22.500000 92.349998 L 20.719999 92.349998 L 23.000000 84.720001 L 24.900000 84.720001 L 27.209999 92.349998 Z M 23.170000 89.430000 L 24.660000 89.430000 L 23.900000 86.269997 Z" fill="#232F3E"/><path d=" M 34.060001 92.349998 L 34.060001 88.639999 C 34.076664 88.401566 34.028278 88.163086 33.920002 87.949997 C 33.818390 87.798111 33.642017 87.713760 33.460003 87.729996 C 33.174561 87.741776 32.897831 87.831711 32.660004 87.989998 C 32.664921 88.029846 32.664921 88.070152 32.660004 88.110001 L 32.660000 92.349998 L 31.000000 92.349998 L 31.000000 88.639999 C 31.019257 88.402504 30.974358 88.164200 30.870001 87.949997 C 30.765142 87.796478 30.585056 87.712181 30.400002 87.729996 C 30.121338 87.744865 29.851856 87.834694 29.620001 87.989998 L 29.620001 92.349998 L 28.000000 92.349998 L 28.000000 86.720001 L 29.350000 86.720001 L 29.480000 87.230003 C 30.005127 86.837898 30.635393 86.611557 31.289999 86.580002 C 31.787903 86.543671 32.259682 86.807076 32.489998 87.250000 C 33.020988 86.851845 33.657448 86.618820 34.320000 86.580002 C 34.698605 86.567619 35.063778 86.720993 35.320000 87.000000 C 35.580429 87.351334 35.707973 87.783562 35.680000 88.220001 L 35.680000 92.349998 Z" fill="#232F3E"/><path d=" M 40.000000 92.349998 L 39.860001 91.839996 C 39.704742 92.042564 39.502155 92.203949 39.270000 92.309998 C 39.023094 92.427322 38.753361 92.488777 38.480000 92.489998 C 38.038441 92.498497 37.613724 92.320625 37.310001 92.000000 C 37.006588 91.668808 36.851307 91.228241 36.880001 90.779999 C 36.856857 90.286880 37.050484 89.808296 37.410000 89.470001 C 37.807274 89.133095 38.320316 88.964470 38.840000 89.000000 C 39.154030 89.006668 39.466179 89.050301 39.770000 89.129997 L 39.770000 88.620003 C 39.797573 88.349762 39.741737 88.077560 39.610001 87.840004 C 39.445477 87.687714 39.222755 87.614693 39.000000 87.640007 C 38.395546 87.665237 37.798565 87.783279 37.230000 87.990005 L 37.230000 87.000000 C 37.513470 86.841469 37.820801 86.730019 38.139999 86.669998 C 38.521481 86.590019 38.910225 86.549805 39.299999 86.549995 C 39.843796 86.502090 40.385880 86.659012 40.820000 86.989998 C 41.164772 87.366852 41.335323 87.871239 41.290001 88.379997 L 41.290001 92.320000 Z M 39.000000 91.430000 C 39.298344 91.418404 39.580971 91.293190 39.790001 91.080002 L 39.790001 90.000000 C 39.584171 89.948074 39.372208 89.924522 39.160000 89.930000 C 38.962250 89.913605 38.767620 89.987053 38.630001 90.129997 C 38.490948 90.293694 38.422604 90.505920 38.440002 90.719994 C 38.429714 90.905304 38.482594 91.088631 38.590004 91.239990 C 38.687565 91.366325 38.840549 91.437218 39.000004 91.429993 Z" fill="#232F3E"/><path d=" M 42.279999 92.349998 L 42.279999 91.279999 L 44.770000 87.879997 L 42.369999 87.879997 L 42.369999 86.720001 L 46.509998 86.720001 L 46.509998 87.790001 L 44.000000 91.190002 L 46.540001 91.190002 L 46.540001 92.349998 Z" fill="#232F3E"/><path d=" M 49.790001 92.489998 C 49.108448 92.512650 48.452259 92.230377 48.000000 91.720001 C 47.133984 90.392052 47.133984 88.677956 48.000000 87.349998 C 49.011749 86.331032 50.657967 86.325180 51.676933 87.336929 C 51.681305 87.341270 51.685661 87.345627 51.690002 87.349998 C 52.556019 88.677948 52.556019 90.392044 51.690002 91.720001 C 51.211487 92.259041 50.508781 92.543823 49.790001 92.489998 Z M 49.790001 91.339996 C 50.076321 91.350388 50.337559 91.177567 50.440002 90.909996 C 50.706799 90.016144 50.706799 89.063843 50.440002 88.169998 C 50.304638 87.813774 49.906124 87.634735 49.549900 87.770103 C 49.365585 87.840141 49.220043 87.985687 49.150002 88.169998 C 48.883205 89.063850 48.883205 90.016151 49.150002 90.909996 C 49.248730 91.175995 49.506416 91.349129 49.790001 91.339996 Z" fill="#232F3E"/><path d=" M 56.549999 92.349998 L 56.549999 88.650002 C 56.566494 88.408363 56.518166 88.166710 56.410000 87.950005 C 56.294102 87.793236 56.103878 87.709541 55.910000 87.730003 C 55.618229 87.741188 55.334908 87.831024 55.090000 87.990005 L 55.090000 92.349998 L 53.439999 92.349998 L 53.439999 86.720001 L 54.790001 86.720001 L 54.930000 87.230003 C 55.464371 86.833908 56.105400 86.607452 56.770000 86.580002 C 57.171432 86.553581 57.563728 86.707565 57.840000 87.000000 C 58.102020 87.350540 58.229740 87.783371 58.200001 88.220001 L 58.200001 92.349998 Z" fill="#232F3E"/><path d=" M 24.440001 106.349998 L 23.000000 103.519997 L 22.350000 103.519997 L 22.350000 106.349998 L 20.680000 106.349998 L 20.680000 98.720001 L 23.320000 98.720001 C 23.970741 98.687714 24.606457 98.922493 25.080000 99.370003 C 25.536875 99.834206 25.776550 100.469711 25.740000 101.120003 C 25.750639 101.583603 25.640352 102.041977 25.420000 102.450005 C 25.207994 102.822403 24.881985 103.116867 24.490000 103.290001 L 26.170000 106.349998 Z M 22.330000 102.349998 L 23.120001 102.349998 C 23.393034 102.368484 23.657961 102.252815 23.830000 102.040001 C 24.015430 101.763138 24.103392 101.432404 24.080000 101.099998 C 24.105049 100.770569 24.016850 100.442467 23.830000 100.169998 C 23.662315 99.950584 23.395452 99.830307 23.120001 99.849998 L 22.330000 99.849998 Z" fill="#232F3E"/><path d=" M 28.209999 103.919998 C 28.198792 104.323456 28.325811 104.718628 28.570000 105.040001 C 28.865564 105.286263 29.246880 105.404976 29.629999 105.370003 C 29.859247 105.364609 30.087240 105.334435 30.309999 105.280006 C 30.581526 105.230042 30.848938 105.159843 31.109999 105.070007 L 31.110001 106.070000 C 30.851759 106.217194 30.571508 106.321869 30.280001 106.379997 C 29.951477 106.451813 29.616280 106.488686 29.280001 106.489998 C 27.570000 106.489998 26.709999 105.489998 26.709999 103.540001 C 26.656961 102.755630 26.879818 101.977402 27.339998 101.340004 C 27.794649 100.816292 28.467924 100.535149 29.159998 100.580002 C 30.530001 100.580002 31.160000 101.339996 31.160000 102.870003 C 31.159126 103.206871 31.118853 103.542488 31.039999 103.870003 Z M 29.129999 101.599998 C 28.549999 101.599998 28.240000 102.059998 28.209999 102.970001 L 29.830000 102.970001 L 29.830000 102.720001 C 29.850443 102.423340 29.791779 102.126572 29.660000 101.860001 C 29.541136 101.686409 29.340033 101.587753 29.129999 101.599998 Z" fill="#232F3E"/><path d=" M 35.610001 106.349998 L 35.480000 105.860001 C 35.294743 106.041252 35.077824 106.186996 34.840000 106.290001 C 34.047211 106.627693 33.126305 106.379913 32.610001 105.690002 C 31.890001 104.340004 31.890001 102.720001 32.610001 101.370003 C 32.947571 100.858131 33.527206 100.558846 34.139999 100.580002 C 34.355637 100.589058 34.568390 100.632957 34.770000 100.709999 C 34.988537 100.789223 35.194107 100.900436 35.380001 101.040001 L 35.380001 98.209999 L 37.029999 98.209999 L 37.029999 106.349998 Z M 34.680000 105.349998 C 34.936092 105.346977 35.185955 105.270630 35.400002 105.129997 L 35.400002 102.000000 C 35.166935 101.839607 34.892773 101.749374 34.610001 101.739998 C 34.312881 101.727325 34.040188 101.903778 33.930000 102.180000 C 33.772732 102.625710 33.704773 103.098030 33.730000 103.570000 C 33.696960 104.035194 33.775826 104.501541 33.959999 104.930000 C 34.101597 105.191101 34.383945 105.344040 34.680000 105.320000 Z" fill="#232F3E"/><path d=" M 40.480000 104.769997 C 40.480000 104.519997 40.299999 104.309998 39.959999 104.150002 L 39.230000 103.800003 C 38.556484 103.560318 38.104881 102.924881 38.099998 102.210007 C 38.085636 101.749420 38.294109 101.310135 38.660000 101.030006 C 39.082359 100.712837 39.602470 100.553619 40.130001 100.580009 C 40.659649 100.581734 41.182278 100.701294 41.660000 100.930008 L 41.660000 101.930000 C 41.431049 101.851501 41.197220 101.788033 40.959999 101.739998 C 40.759594 101.695862 40.555191 101.672409 40.349998 101.669998 C 39.840000 101.669998 39.580002 101.849998 39.580002 102.209999 C 39.580002 102.570000 39.799999 102.660004 40.220001 102.870003 L 40.950001 103.209999 C 41.256878 103.345100 41.522537 103.559013 41.720001 103.830002 C 41.888264 104.110268 41.971630 104.433311 41.960003 104.760002 C 41.971436 105.236954 41.765377 105.693222 41.400002 106.000000 C 40.975517 106.321449 40.451912 106.484184 39.920002 106.459999 C 39.286274 106.466171 38.660923 106.314987 38.100002 106.019997 L 38.099998 105.019997 C 38.618954 105.218719 39.165291 105.336754 39.719997 105.369995 C 39.920902 105.381401 40.119339 105.321159 40.279999 105.199997 C 40.405956 105.092514 40.478954 104.935577 40.480000 104.769997 Z" fill="#232F3E"/><path d=" M 46.000000 106.349998 L 46.000000 102.650002 C 46.016495 102.408363 45.968166 102.166710 45.860001 101.950005 C 45.744102 101.793236 45.553879 101.709541 45.360001 101.730003 C 45.071129 101.739960 44.790699 101.829971 44.549999 101.990005 L 44.549999 106.349998 L 42.880001 106.349998 L 42.880001 98.209999 L 44.540001 98.209999 L 44.540001 101.120003 C 45.035225 100.787392 45.613792 100.600311 46.209999 100.580002 C 46.611431 100.553581 47.003727 100.707565 47.279999 101.000000 C 47.542019 101.350540 47.669739 101.783371 47.639999 102.220001 L 47.639999 106.349998 Z" fill="#232F3E"/><path d=" M 49.910000 99.809998 C 49.653858 99.830612 49.399609 99.751831 49.200001 99.589996 C 49.020805 99.439140 48.921185 99.214073 48.930000 98.979996 C 48.919643 98.745628 49.019550 98.519913 49.200001 98.369995 C 49.620441 98.064751 50.189560 98.064751 50.610001 98.369995 C 50.784264 98.523682 50.879810 98.747849 50.869999 98.979996 C 50.876991 99.211624 50.781937 99.434639 50.610001 99.589996 C 50.412971 99.749374 50.162781 99.828011 49.910000 99.809998 Z M 49.080002 106.349998 L 49.080002 100.720001 L 50.730000 100.720001 L 50.730000 106.349998 Z" fill="#232F3E"/><path d=" M 52.389999 106.349998 L 52.389999 101.820000 L 51.610001 101.820000 L 51.610001 100.900002 L 52.389999 100.750000 L 52.389999 100.089996 C 52.346176 99.534058 52.518063 98.982582 52.869999 98.549995 C 53.275150 98.189583 53.809284 98.009132 54.349998 98.049995 C 54.723465 98.049156 55.093578 98.120461 55.439999 98.259995 L 55.439999 99.260002 C 55.233059 99.214485 55.021881 99.191025 54.809998 99.190002 C 54.593739 99.164169 54.375736 99.221352 54.199997 99.350006 C 54.049915 99.531654 53.977989 99.765404 53.999996 100.000008 L 54.000000 100.739998 L 55.340000 100.739998 L 55.340000 101.839996 L 54.000000 101.839996 L 54.000000 106.370003 Z" fill="#232F3E"/><path d=" M 59.509998 106.199997 C 59.116688 106.347153 58.699932 106.421692 58.279999 106.419998 C 57.482197 106.570419 56.713509 106.045616 56.563084 105.247818 C 56.530216 105.073509 56.529171 104.894684 56.559998 104.720001 L 56.560001 101.820000 L 55.820000 101.820000 L 55.820000 100.900002 L 56.610001 100.750000 L 56.849998 99.209999 L 58.209999 99.209999 L 58.209999 100.720001 L 59.490002 100.720001 L 59.490002 101.820000 L 58.209999 101.820000 L 58.209999 104.589996 C 58.194324 104.774376 58.243870 104.958412 58.349998 105.109993 C 58.497173 105.233894 58.688850 105.291756 58.879997 105.269997 C 59.092316 105.266800 59.303619 105.239967 59.509998 105.189995 Z" fill="#232F3E"/></g><g id="ICONS_-_EDIT"><path d=" M 40.000000 65.000000 C 31.760000 65.000000 23.000000 62.610001 23.000000 58.180000 L 23.000000 21.820000 L 25.000000 21.820000 L 25.000000 58.180000 C 25.000000 60.180000 30.709999 63.000000 40.000000 63.000000 C 49.290001 63.000000 55.000000 60.200001 55.000000 58.180000 L 55.000000 21.820000 L 57.000000 21.820000 L 57.000000 58.180000 C 57.000000 62.610001 48.240002 65.000000 40.000000 65.000000 Z" fill="#FFFFFF"/><path d=" M 40.000000 65.000000 C 31.760000 65.000000 23.000000 62.610001 23.000000 58.180000 L 23.000000 21.820000 L 25.000000 21.820000 L 25.000000 58.180000 C 25.000000 60.180000 30.709999 63.000000 40.000000 63.000000 C 49.290001 63.000000 55.000000 60.200001 55.000000 58.180000 L 55.000000 21.820000 L 57.000000 21.820000 L 57.000000 58.180000 C 57.000000 62.610001 48.240002 65.000000 40.000000 65.000000 Z" fill="#FFFFFF"/><path d=" M 40.000000 28.629999 C 31.760000 28.629999 23.000000 26.240000 23.000000 21.820000 C 23.000000 17.400000 31.760000 15.000000 40.000000 15.000000 C 48.240002 15.000000 57.000000 17.389999 57.000000 21.820000 C 57.000000 26.250000 48.240002 28.629999 40.000000 28.629999 Z M 40.000000 17.000000 C 30.709999 17.000000 25.000000 19.799999 25.000000 21.820000 C 25.000000 23.840000 30.709999 26.629999 40.000000 26.629999 C 49.290001 26.629999 55.000000 23.830000 55.000000 21.820000 C 55.000000 19.809999 49.290001 17.000000 40.000000 17.000000 Z" fill="#FFFFFF"/><rect x="38.970000" y="40.520000" width="2.000000" height="6.230000" fill="#FFFFFF" transform="matrix(0.221719,-0.975111,0.975111,0.221719,-11.430000,72.940000)"/><rect x="44.560000" y="38.290000" width="6.300000" height="2.000000" fill="#FFFFFF" transform="matrix(0.367151,-0.930161,0.930161,0.367151,-6.360000,69.240000)"/><rect x="29.900000" y="46.080000" width="5.200000" height="2.000000" fill="#FFFFFF" transform="matrix(0.392498,-0.919753,0.919753,0.392498,-23.560000,58.490000)"/><path d=" M 30.500000 55.270000 C 28.567003 55.270000 27.000000 53.702995 27.000000 51.770000 C 27.000000 49.837006 28.567003 48.270000 30.500000 48.270000 C 32.432995 48.270000 34.000000 49.837006 34.000000 51.770000 C 34.000000 53.702995 32.432995 55.270000 30.500000 55.270000 Z M 30.500000 50.270000 C 29.671574 50.270000 29.000000 50.941574 29.000000 51.770000 C 29.000000 52.598427 29.671574 53.270000 30.500000 53.270000 C 31.328426 53.270000 32.000000 52.598427 32.000000 51.770000 C 32.000000 50.941574 31.328426 50.270000 30.500000 50.270000 Z" fill="#FFFFFF"/><path d=" M 34.500000 45.889999 C 32.567005 45.889999 31.000000 44.322994 31.000000 42.389999 C 31.000000 40.457005 32.567005 38.889999 34.500000 38.889999 C 36.432995 38.889999 38.000000 40.457005 38.000000 42.389999 C 38.000000 44.322994 36.432995 45.889999 34.500000 45.889999 Z M 34.500000 40.889999 C 33.671574 40.889999 33.000000 41.561573 33.000000 42.389999 C 33.000000 43.218426 33.671574 43.889999 34.500000 43.889999 C 35.328426 43.889999 36.000000 43.218426 36.000000 42.389999 C 36.000000 41.561573 35.328426 40.889999 34.500000 40.889999 Z" fill="#FFFFFF"/><path d=" M 45.500000 48.000000 C 43.567005 48.000000 42.000000 46.432995 42.000000 44.500000 C 42.000000 42.567005 43.567005 41.000000 45.500000 41.000000 C 47.432995 41.000000 49.000000 42.567005 49.000000 44.500000 C 49.000000 46.432995 47.432995 48.000000 45.500000 48.000000 Z M 45.500000 43.000000 C 44.671574 43.000000 44.000000 43.671574 44.000000 44.500000 C 44.000000 45.328426 44.671574 46.000000 45.500000 46.000000 C 46.328426 46.000000 47.000000 45.328426 47.000000 44.500000 C 47.000000 43.671574 46.328426 43.000000 45.500000 43.000000 Z" fill="#FFFFFF"/><path d=" M 49.500000 37.450001 C 47.567005 37.449802 46.000160 35.882641 46.000359 33.949642 C 46.000557 32.016647 47.567719 30.449802 49.500717 30.449999 C 51.433712 30.450195 53.000557 32.017361 53.000359 33.950356 C 53.000359 33.966904 53.000237 33.983452 53.000000 34.000000 C 52.972664 35.913441 51.413639 37.450195 49.500000 37.450001 Z M 49.500000 32.450001 C 48.671574 32.450462 48.000374 33.122406 48.000835 33.950832 C 48.001297 34.779259 48.673241 35.450459 49.501667 35.449997 C 50.310307 35.449547 50.973045 34.808189 51.000000 33.999996 C 51.027615 33.172028 50.378799 32.478443 49.550835 32.450829 C 49.533897 32.450264 49.516949 32.449986 49.500000 32.449997 Z" fill="#FFFFFF"/></g></svg>