<svg id="Product_Icon" data-name="Product Icon" xmlns="http://www.w3.org/2000/svg" xmlns:xlink="http://www.w3.org/1999/xlink" width="75" height="75" viewBox="0 0 75 75"><defs><linearGradient id="TurquoiseGradient" x1="90.53" y1="-15.53" x2="-15.53" y2="90.53" gradientTransform="translate(75 75) rotate(180)" gradientUnits="userSpaceOnUse"><stop offset="0" stop-color="#055f4e"/><stop offset="1" stop-color="#56c0a7"/></linearGradient></defs><title>Amazon-Appstream-2.0</title><rect id="Turquoise_Gradient" data-name="Turquoise Gradient" width="75" height="75" style="fill:url(#TurquoiseGradient)"/><g id="Icon_Test" data-name="Icon Test"><path d="M61.5,62.5a1,1,0,0,1-.71-.29l-18-18,1.42-1.42L60.5,59.09V14.5H15.91l16.3,16.29-1.42,1.42-18-18a1,1,0,0,1-.21-1.09,1,1,0,0,1,.92-.62h48a1,1,0,0,1,1,1v48a1,1,0,0,1-.62.92A.84.84,0,0,1,61.5,62.5Z" style="fill:#fff"/><path d="M38.5,62.5a1,1,0,0,1-.71-.29l-25-25a1,1,0,0,1-.21-1.09,1,1,0,0,1,.92-.62h25a1,1,0,0,1,1,1v25a1,1,0,0,1-.62.92A.84.84,0,0,1,38.5,62.5Zm-22.59-25L37.5,59.09V37.5Z" style="fill:#fff"/></g></svg>