<svg id="Layer_1" data-name="Layer 1" xmlns="http://www.w3.org/2000/svg" width="50" height="50" viewBox="0 0 50 50"><title>AWS-General_Office-Building_light-bg</title><path d="M39.06,48.5H10.94a1,1,0,0,1-1-1V13.75a1,1,0,0,1,1-1h6.5V2.5a1,1,0,0,1,1-1H31.56a1,1,0,0,1,1,1V12.75h6.5a1,1,0,0,1,1,1V47.5A1,1,0,0,1,39.06,48.5Zm-27.12-2H38.06V14.75h-6.5a1,1,0,0,1-1-1V3.5H19.44V13.75a1,1,0,0,1-1,1h-6.5Z" style="fill:#232f3e"/><rect x="22.13" y="5.31" width="2" height="8.44" style="fill:#232f3e"/><rect x="25.88" y="5.31" width="2" height="8.44" style="fill:#232f3e"/><rect x="17.44" y="16.56" width="2" height="4.69" style="fill:#232f3e"/><rect x="17.44" y="24.06" width="2" height="4.69" style="fill:#232f3e"/><rect x="17.44" y="31.56" width="2" height="4.69" style="fill:#232f3e"/><rect x="17.44" y="39.06" width="2" height="5.62" style="fill:#232f3e"/><rect x="13.69" y="16.56" width="2" height="4.69" style="fill:#232f3e"/><rect x="13.69" y="24.06" width="2" height="4.69" style="fill:#232f3e"/><rect x="13.69" y="31.56" width="2" height="4.69" style="fill:#232f3e"/><rect x="13.69" y="39.06" width="2" height="5.62" style="fill:#232f3e"/><rect x="22.13" y="16.56" width="2" height="4.69" style="fill:#232f3e"/><rect x="22.13" y="24.06" width="2" height="4.69" style="fill:#232f3e"/><rect x="22.13" y="31.56" width="2" height="4.69" style="fill:#232f3e"/><rect x="22.13" y="39.06" width="2" height="5.62" style="fill:#232f3e"/><rect x="25.88" y="16.56" width="2" height="4.69" style="fill:#232f3e"/><rect x="25.88" y="24.06" width="2" height="4.69" style="fill:#232f3e"/><rect x="25.88" y="31.56" width="2" height="4.69" style="fill:#232f3e"/><rect x="25.88" y="39.06" width="2" height="5.62" style="fill:#232f3e"/><rect x="30.56" y="16.56" width="2" height="4.69" style="fill:#232f3e"/><rect x="30.56" y="24.06" width="2" height="4.69" style="fill:#232f3e"/><rect x="30.56" y="31.56" width="2" height="4.69" style="fill:#232f3e"/><rect x="30.56" y="39.06" width="2" height="5.62" style="fill:#232f3e"/><rect x="34.31" y="16.56" width="2" height="4.69" style="fill:#232f3e"/><rect x="34.31" y="24.06" width="2" height="4.69" style="fill:#232f3e"/><rect x="34.31" y="31.56" width="2" height="4.69" style="fill:#232f3e"/><rect x="34.31" y="39.06" width="2" height="5.62" style="fill:#232f3e"/></svg>