<svg id="Layer_1" data-name="Layer 1" xmlns="http://www.w3.org/2000/svg" width="50" height="50" viewBox="0 0 50 50"><title>AWS-General_Internet-Alt1_light-bg</title><path d="M39.4,39.39h-5v-2h5c4.78,0,7.1-2.12,7.1-6.47,0-3.72-2.19-6.05-6.51-6.93a1,1,0,0,1-.8-.92c-.21-3.61-2.31-4.9-4-4.9a3.78,3.78,0,0,0-3,1.53,1,1,0,0,1-1.73-.26,12.12,12.12,0,0,0-2.92-4.62,10.66,10.66,0,0,0-11.76-2.27A10.6,10.6,0,0,0,9.6,21.78,10.06,10.06,0,0,0,9.68,23a1,1,0,0,1-.75,1.1c-2,.5-5.43,2-5.43,6.72,0,.17,0,.32,0,.48.2,3.53,3.18,6.07,7.09,6.07h5v2h-5c-5,0-8.82-3.33-9.08-7.92,0-.24,0-.43,0-.63a8.4,8.4,0,0,1,6.12-8.42c0-.21,0-.43,0-.64a12.41,12.41,0,0,1,21.29-8.4,13.42,13.42,0,0,1,2.81,4,5.67,5.67,0,0,1,3.45-1.18c2.65,0,5.43,1.87,6,6,4.76,1.21,7.38,4.28,7.38,8.73C48.5,36.38,45.27,39.39,39.4,39.39Zm-10.65,0h-7.5v-2h7.5Z" style="fill:#232f3e"/><path d="M31.56,38.45a1,1,0,0,1-.7-.29l-5.63-5.62,1.41-1.42L31.56,36l4.92-4.92,1.41,1.42-5.62,5.62A1,1,0,0,1,31.56,38.45Z" style="fill:#232f3e"/><rect x="30.56" y="22.45" width="2" height="14.06" style="fill:#232f3e"/><path d="M23.36,28.79l-4.92-4.92-4.92,4.92-1.41-1.42,5.62-5.62a1,1,0,0,1,1.41,0l5.63,5.62Z" style="fill:#232f3e"/><rect x="17.44" y="22.45" width="2" height="16.88" style="fill:#232f3e"/></svg>