<svg id="Layer_1" data-name="Layer 1" xmlns="http://www.w3.org/2000/svg" width="50" height="50" viewBox="0 0 50 50"><title>AWS-General_Generic-Database_light-bg</title><path d="M25,48.5c-8.67,0-17.87-2.39-17.87-6.83V8.33C7.13,3.89,16.33,1.5,25,1.5S42.88,3.89,42.88,8.33V41.67C42.88,46.11,33.67,48.5,25,48.5Zm0-45C15.16,3.5,9.13,6.31,9.13,8.33V41.67c0,2,6,4.83,15.87,4.83s15.88-2.81,15.88-4.83V8.33C40.88,6.31,34.84,3.5,25,3.5Z" style="fill:#232f3e"/><path d="M25,14.15c-8.67,0-17.87-2.39-17.87-6.83h2c0,2,6,4.83,15.87,4.83S40.88,9.34,40.88,7.32h2C42.88,11.76,33.67,14.15,25,14.15Z" style="fill:#232f3e"/></svg>