<svg id="Layer_1" data-name="Layer 1" xmlns="http://www.w3.org/2000/svg" width="50" height="50" viewBox="0 0 50 50"><title>AWS-General_Virtual-Private-Cloud_light-bg</title><path d="M15.19,34.17,12,23.12h1.71L16,32.49l2.35-9.37H20L16.83,34.17Z" style="fill:#232f3e"/><path d="M22.86,29.88v4.29h-1.5v-11h3.23a2.77,2.77,0,0,1,2.61,1.63,4.05,4.05,0,0,1,.36,1.75A3.57,3.57,0,0,1,26.74,29a2.74,2.74,0,0,1-2.15.93Zm0-1.23h1.57a1.37,1.37,0,0,0,1.17-.57A2.58,2.58,0,0,0,26,26.5a2.57,2.57,0,0,0-.43-1.59,1.39,1.39,0,0,0-1.17-.56H22.86Z" style="fill:#232f3e"/><path d="M35.72,33.83a5.14,5.14,0,0,1-2.25.49q-4.27,0-4.27-5.64a6.9,6.9,0,0,1,1.1-4.24A3.82,3.82,0,0,1,33.53,23a5.47,5.47,0,0,1,2.06.43v1.26a6.48,6.48,0,0,0-1.88-.33,2.48,2.48,0,0,0-2.19,1,5.56,5.56,0,0,0-.7,3.15v.38A5.74,5.74,0,0,0,31.49,32a2.44,2.44,0,0,0,2.16,1,8,8,0,0,0,2.07-.4Z" style="fill:#232f3e"/><path d="M35.8,37.7H10.6c-4.32,0-7.85-2.81-8.08-7,0-.19,0-.37,0-.57,0-4.83,3.27-7,6.18-7.69h0a12.48,12.48,0,0,1-.08-1.38,11.63,11.63,0,0,1,6.76-10.15A11.62,11.62,0,0,1,28.2,13.4a13.13,13.13,0,0,1,3.15,5h0C34,15,39.81,16,40.19,22.32c2.75.55,7.31,2.24,7.31,7.9,0,6.53-4.92,7.48-8.1,7.48H35.8Z" style="fill:none;stroke:#232f3e;stroke-linejoin:round;stroke-width:2px"/></svg>