<svg id="Layer_1" data-name="Layer 1" xmlns="http://www.w3.org/2000/svg" width="50" height="50" viewBox="0 0 50 50"><title>AWS-General_SSL-Padlock_light-bg</title><path d="M34.37,37.25H15.63a1,1,0,0,1-1-1v-16a1,1,0,0,1,1-1H34.38a1,1,0,0,1,1,1v16A1,1,0,0,1,34.37,37.25Zm-17.74-2H33.37v-14H16.63Z" style="fill:#232f3e"/><path d="M29.61,20.26V16.21A4.43,4.43,0,0,0,25,11.94h0a4.45,4.45,0,0,0-4.62,4.22l0,4.08h-2l0-4.08A6.44,6.44,0,0,1,25,9.94h0a6.44,6.44,0,0,1,6.58,6.28v4Z" style="fill:#232f3e"/><path d="M25,30h0a3.29,3.29,0,1,1,0-6.58h0a3.28,3.28,0,0,1,3.29,3.29h0A3.28,3.28,0,0,1,25,30Zm0-4.58A1.29,1.29,0,1,0,25,28h0a1.28,1.28,0,0,0,1.29-1.29h0a1.24,1.24,0,0,0-.38-.91,1.25,1.25,0,0,0-.91-.38Z" style="fill:#232f3e"/><rect x="24" y="28.75" width="2" height="4.69" style="fill:#232f3e"/><path d="M25,48.5a1,1,0,0,1-.61-.21A28.11,28.11,0,0,0,13.85,43.6C6.12,42.22,1.5,38,1.5,32.32A14.35,14.35,0,0,1,4,24.62c1-1.75,1.89-3.26,1.89-5.31a10,10,0,0,0-3.4-7.15,1,1,0,0,1-.37-.68,1,1,0,0,1,.23-.74c0-.07,5.51-6.68,6.76-8.39a1,1,0,0,1,1.54-.1,9.68,9.68,0,0,0,6.88,3.43c2.61,0,4.67-1.17,6.68-3.79a1,1,0,0,1,1.58,0c2,2.62,4.07,3.79,6.68,3.79a9.68,9.68,0,0,0,6.88-3.43,1,1,0,0,1,.79-.31,1,1,0,0,1,.75.41c1.25,1.71,6.71,8.32,6.76,8.39a1,1,0,0,1,.23.74,1,1,0,0,1-.37.68,10.11,10.11,0,0,0-3.4,7.15c0,2.05.88,3.56,1.89,5.31a14.35,14.35,0,0,1,2.5,7.7c0,5.68-4.62,9.9-12.35,11.28a27.92,27.92,0,0,0-10.54,4.69A1,1,0,0,1,25,48.5ZM4.48,11.29a11.77,11.77,0,0,1,3.41,8,12.12,12.12,0,0,1-2.16,6.31c-1.15,2-2.23,3.84-2.23,6.7,0,6.86,8.19,8.87,10.7,9.32A29.33,29.33,0,0,1,25,46.27a29.33,29.33,0,0,1,10.8-4.63c2.51-.45,10.7-2.46,10.7-9.32,0-2.86-1.08-4.72-2.23-6.7a12.12,12.12,0,0,1-2.16-6.31,11.77,11.77,0,0,1,3.41-8C44.29,9.8,41.47,6.37,40,4.45a11.21,11.21,0,0,1-7.51,3.23A9.55,9.55,0,0,1,25,4.07a9.55,9.55,0,0,1-7.47,3.61A11.21,11.21,0,0,1,10,4.45C8.53,6.37,5.71,9.8,4.48,11.29Z" style="fill:#232f3e"/></svg>