<svg id="Layer_1" data-name="Layer 1" xmlns="http://www.w3.org/2000/svg" width="50" height="50" viewBox="0 0 50 50"><title>AWS-General_Tape-Storage_light-bg</title><rect x="17.5" y="32.69" width="15" height="2" style="fill:#232f3e"/><path d="M12.81,35.81A11.31,11.31,0,1,1,24.13,24.5,11.32,11.32,0,0,1,12.81,35.81Zm0-20.62a9.31,9.31,0,1,0,9.32,9.31A9.33,9.33,0,0,0,12.81,15.19Z" style="fill:#232f3e"/><path d="M12.81,27.48a3,3,0,1,1,3-3A3,3,0,0,1,12.81,27.48Zm0-4a1,1,0,1,0,1,1A1,1,0,0,0,12.81,23.52Z" style="fill:#232f3e"/><rect x="8.67" y="16.62" width="2" height="3.97" transform="translate(-7.93 7.21) rotate(-29.62)" style="fill:#232f3e"/><rect x="7.79" y="28.77" width="3.97" height="2" transform="translate(-20.85 23.14) rotate(-59.62)" style="fill:#232f3e"/><rect x="17.37" y="22.91" width="3.97" height="2" style="fill:#232f3e"/><path d="M37.19,35.81A11.31,11.31,0,1,1,48.5,24.5,11.32,11.32,0,0,1,37.19,35.81Zm0-20.62A9.31,9.31,0,1,0,46.5,24.5,9.32,9.32,0,0,0,37.19,15.19Z" style="fill:#232f3e"/><path d="M37.19,27.48a3,3,0,1,1,3-3A3,3,0,0,1,37.19,27.48Zm0-4a1,1,0,1,0,1,1A1,1,0,0,0,37.19,23.52Z" style="fill:#232f3e"/><rect x="33.05" y="16.62" width="2" height="3.97" transform="translate(-4.74 19.26) rotate(-29.62)" style="fill:#232f3e"/><rect x="32.17" y="28.77" width="3.97" height="2" transform="translate(-8.8 44.17) rotate(-59.62)" style="fill:#232f3e"/><rect x="41.75" y="22.91" width="3.97" height="2" style="fill:#232f3e"/></svg>