<svg id="Layer_1" data-name="Layer 1" xmlns="http://www.w3.org/2000/svg" width="50" height="50" viewBox="0 0 50 50"><title>AWS-General_Internet-Gateway_light-bg</title><path d="M39.4,31.89h-5v-2h5c4.78,0,7.1-2.12,7.1-6.47,0-3.72-2.19-6.05-6.51-6.93a1,1,0,0,1-.8-.92c-.21-3.61-2.31-4.9-4-4.9a3.78,3.78,0,0,0-3,1.53,1,1,0,0,1-1.73-.26A12.12,12.12,0,0,0,27.5,7.32,10.66,10.66,0,0,0,15.74,5.05,10.6,10.6,0,0,0,9.6,14.28a10.19,10.19,0,0,0,.08,1.24,1,1,0,0,1-.75,1.1c-2,.5-5.43,2-5.43,6.72,0,.18,0,.35,0,.53.19,3.48,3.17,6,7.08,6h5v2h-5c-5,0-8.82-3.33-9.08-7.92,0-.21,0-.41,0-.63a8.4,8.4,0,0,1,6.12-8.42c0-.21,0-.43,0-.64a12.41,12.41,0,0,1,21.29-8.4,13.5,13.5,0,0,1,2.81,4,5.7,5.7,0,0,1,3.45-1.17c2.65,0,5.43,1.87,6,6C45.89,15.9,48.5,19,48.5,23.42,48.5,28.88,45.27,31.89,39.4,31.89Zm-10.65,0h-7.5v-2h7.5Z" style="fill:#232f3e"/><path d="M31.56,47.83a1,1,0,0,1-.7-.29l-5.63-5.63,1.41-1.41,4.92,4.91,4.92-4.91,1.41,1.41-5.62,5.63A1,1,0,0,1,31.56,47.83Z" style="fill:#232f3e"/><rect x="30.56" y="29.95" width="2" height="15.94" style="fill:#232f3e"/><path d="M23.36,21.29l-4.92-4.92-4.92,4.92-1.41-1.42,5.62-5.62a1,1,0,0,1,1.41,0l5.63,5.62Z" style="fill:#232f3e"/><rect x="17.44" y="14.95" width="2" height="16.88" style="fill:#232f3e"/></svg>