<svg id="Layer_1" data-name="Layer 1" xmlns="http://www.w3.org/2000/svg" width="50" height="50" viewBox="0 0 50 50"><title>AWS-General_Internet-Alt2_light-bg</title><path d="M39.4,38.36H10.6c-5,0-8.82-3.33-9.08-7.92,0-.21,0-.41,0-.63a8.42,8.42,0,0,1,6.12-8.43c0-.21,0-.42,0-.63s0-.34,0-.5h0A12.59,12.59,0,0,1,15,9.67a12.58,12.58,0,0,1,13.91,2.68,13.5,13.5,0,0,1,2.81,4,5.7,5.7,0,0,1,3.45-1.17c2.65,0,5.43,1.87,6,6,4.77,1.21,7.38,4.28,7.38,8.73C48.5,35.35,45.27,38.36,39.4,38.36ZM20,10.66a11.19,11.19,0,0,0-4.27.86A10.6,10.6,0,0,0,9.6,20.75,10.19,10.19,0,0,0,9.68,22a1,1,0,0,1-.75,1.1c-2,.5-5.43,2-5.43,6.72,0,.18,0,.35,0,.52.19,3.49,3.17,6,7.08,6H39.4c4.78,0,7.1-2.12,7.1-6.47,0-3.72-2.19-6.05-6.51-6.93a1,1,0,0,1-.8-.93c-.21-3.61-2.31-4.89-4-4.89a3.78,3.78,0,0,0-3,1.53,1,1,0,0,1-1.73-.26,12.12,12.12,0,0,0-2.92-4.62A10.66,10.66,0,0,0,20,10.66Z" style="fill:#232f3e"/><path d="M19.67,33.64l-1.38-1.45a9.19,9.19,0,0,1,12.39-.27l-1.31,1.5a7.2,7.2,0,0,0-9.7.22Z" style="fill:#232f3e"/><path d="M17,30.81,15.6,29.36A13.09,13.09,0,0,1,33.25,29l-1.32,1.5A11.09,11.09,0,0,0,17,30.81Z" style="fill:#232f3e"/><path d="M14.28,28,12.9,26.52A17,17,0,0,1,35.81,26L34.5,27.52A15,15,0,0,0,14.28,28Z" style="fill:#232f3e"/></svg>