<svg version="1.1" width="80.000000" height="115.000000" viewBox="0.000000 0.000000 80.000000 115.000000" xmlns="http://www.w3.org/2000/svg" xmlns:xlink="http://www.w3.org/1999/xlink" overflow="hidden"><g id="CARDS"><rect x="1.000000" y="1.000000" width="78.000000" height="78.000000" fill="#232F3E"/><path d=" M 0.000000 0.000000 L 0.000000 80.000000 L 0.000000 80.000000 L 0.000000 115.000000 L 80.000000 115.000000 L 80.000000 80.000000 L 80.000000 80.000000 L 80.000000 0.000000 Z M 1.000000 1.000000 L 79.000000 1.000000 L 79.000000 79.000000 L 1.000000 79.000000 Z" fill="#FFFFFF"/></g><g id="TEXT_-_EDIT"><path d=" M 33.689999 92.349998 L 33.250000 90.529999 L 31.250000 90.529999 L 30.830000 92.349998 L 29.059999 92.349998 L 31.370001 84.720001 L 33.240002 84.720001 L 35.540001 92.349998 Z M 31.510000 89.430000 L 33.000000 89.430000 L 32.240002 86.269997 Z" fill="#232F3E"/><path d=" M 40.889999 92.349998 L 40.000000 86.720001 L 39.110001 92.349998 L 37.189999 92.349998 L 35.410000 84.720001 L 37.110001 84.720001 L 38.169998 90.779999 L 39.080002 85.000000 L 40.919998 85.000000 L 41.860001 90.650002 L 42.860001 84.650002 L 44.520000 84.650002 L 42.740002 92.279999 Z" fill="#232F3E"/><path d=" M 46.840000 89.000000 C 46.345402 88.768761 45.910801 88.426559 45.570000 88.000000 C 45.307678 87.644348 45.170536 87.211830 45.180000 86.769997 C 45.168892 86.354126 45.287739 85.945145 45.520000 85.599998 C 45.745701 85.259720 46.065289 84.992241 46.439999 84.830002 C 46.861813 84.643929 47.319042 84.551804 47.779999 84.560005 C 48.429764 84.562088 49.072483 84.694710 49.669998 84.950005 L 49.669998 86.120003 C 49.134098 85.923050 48.570534 85.811684 48.000000 85.790001 C 47.718163 85.774521 47.439480 85.855652 47.209999 86.020004 C 47.013199 86.172058 46.904575 86.411781 46.919998 86.660004 C 46.912312 86.862022 46.976040 87.060295 47.099998 87.220001 C 47.307770 87.423737 47.552021 87.586571 47.820000 87.700005 L 48.470001 88.019997 C 48.826054 88.187546 49.161602 88.395592 49.470001 88.639999 C 49.698788 88.827263 49.883213 89.062912 50.010002 89.330002 C 50.129375 89.621704 50.187252 89.934906 50.180000 90.250000 C 50.210262 90.886475 49.935429 91.499283 49.439999 91.900002 C 48.864475 92.329575 48.157295 92.545265 47.439999 92.510002 C 47.060139 92.510231 46.681335 92.470001 46.309998 92.389999 C 45.980469 92.326210 45.660961 92.218590 45.359997 92.070000 L 45.360001 90.919998 C 45.687019 91.026825 46.021187 91.110367 46.360001 91.169998 C 46.689121 91.238113 47.023945 91.274940 47.360001 91.279999 C 47.673580 91.302475 47.985077 91.213982 48.240002 91.029999 C 48.446396 90.853905 48.557594 90.590736 48.540001 90.320000 C 48.546089 90.107033 48.471024 89.899704 48.330002 89.739998 C 48.122326 89.543411 47.882092 89.384384 47.620003 89.269997 Z" fill="#232F3E"/><path d=" M 14.580000 106.349998 L 14.150000 104.529999 L 12.150000 104.529999 L 11.730000 106.349998 L 10.000000 106.349998 L 12.320000 98.720001 L 14.180000 98.720001 L 16.490000 106.349998 Z M 12.400000 103.430000 L 13.890000 103.430000 L 13.130000 100.269997 Z" fill="#232F3E"/><path d=" M 20.480000 106.349998 L 20.350000 105.839996 C 19.837446 106.234222 19.215984 106.461166 18.570000 106.489998 C 18.188482 106.506950 17.820147 106.348564 17.570000 106.059998 C 17.319742 105.696587 17.196688 105.260620 17.219999 104.820000 L 17.219999 100.720001 L 18.870001 100.720001 L 18.870001 104.339996 C 18.851784 104.604317 18.899908 104.869003 19.010000 105.109993 C 19.095274 105.269989 19.269955 105.361298 19.450001 105.339996 C 19.722260 105.332367 19.986380 105.245483 20.210001 105.089996 L 20.209999 100.720001 L 21.860001 100.720001 L 21.860001 106.349998 Z" fill="#232F3E"/><path d=" M 26.290001 106.199997 C 25.896690 106.347153 25.479935 106.421692 25.060001 106.419998 C 24.587685 106.464508 24.116894 106.320755 23.750002 106.019997 C 23.449150 105.656647 23.302040 105.190201 23.340002 104.719994 L 23.340000 101.820000 L 22.600000 101.820000 L 22.600000 100.900002 L 23.389999 100.750000 L 23.629999 99.209999 L 25.000000 99.209999 L 25.000000 100.720001 L 26.280001 100.720001 L 26.280001 101.820000 L 25.000000 101.820000 L 25.000000 104.589996 C 24.984325 104.774376 25.033873 104.958412 25.139999 105.109993 C 25.287174 105.233894 25.478851 105.291756 25.670000 105.269997 C 25.882273 105.266159 26.093504 105.239334 26.299999 105.189995 Z" fill="#232F3E"/><path d=" M 29.400000 106.489998 C 28.700714 106.530975 28.021675 106.246811 27.559999 105.720001 C 26.680845 104.395988 26.680845 102.674019 27.559999 101.349998 C 28.558826 100.333794 30.192331 100.319710 31.208534 101.318535 C 31.219112 101.328934 31.229601 101.339424 31.240000 101.349998 C 32.106014 102.677948 32.106014 104.392044 31.240000 105.720001 C 30.776535 106.244324 30.098766 106.527962 29.400000 106.489998 Z M 29.400000 105.339996 C 29.683582 105.349129 29.941271 105.175995 30.039999 104.909996 C 30.306797 104.016144 30.306797 103.063843 30.039999 102.169998 C 29.944674 101.900047 29.686182 101.722336 29.400000 101.729996 C 29.111109 101.721107 28.849081 101.898483 28.750000 102.169998 C 28.494865 103.065514 28.494865 104.014481 28.750000 104.909996 C 28.852442 105.177567 29.113680 105.350380 29.400000 105.339996 Z" fill="#232F3E"/><path d=" M 37.000000 103.000000 C 36.505402 102.768761 36.070801 102.426559 35.730000 102.000000 C 35.467678 101.644348 35.330536 101.211830 35.340000 100.769997 C 35.328892 100.354126 35.447739 99.945145 35.680000 99.599998 C 35.905701 99.259720 36.225288 98.992241 36.599998 98.830002 C 37.040215 98.635193 37.518909 98.542877 38.000000 98.560005 C 38.649765 98.562088 39.292484 98.694710 39.889999 98.950005 L 39.889999 100.120003 C 39.338253 99.917831 38.757393 99.806381 38.169998 99.790001 C 37.888348 99.776108 37.610176 99.857094 37.379997 100.020004 C 37.183197 100.172058 37.074574 100.411781 37.089996 100.660004 C 37.082310 100.862022 37.146038 101.060295 37.269997 101.220001 C 37.477768 101.423737 37.722019 101.586571 37.989998 101.700005 L 38.639999 102.019997 C 38.996052 102.187546 39.331600 102.395592 39.639999 102.639999 C 39.868786 102.827263 40.053211 103.062912 40.180000 103.330002 C 40.299374 103.621704 40.357250 103.934906 40.349998 104.250000 C 40.380260 104.886475 40.105427 105.499283 39.609997 105.900002 C 39.034473 106.329575 38.327293 106.545265 37.609997 106.510002 C 37.230137 106.510231 36.851334 106.470001 36.479996 106.389999 C 36.150467 106.326210 35.830959 106.218590 35.529995 106.070000 L 35.529999 104.919998 C 35.857018 105.026825 36.191185 105.110367 36.529999 105.169998 C 36.859119 105.238113 37.193943 105.274940 37.529999 105.279999 C 37.843754 105.304230 38.155842 105.215561 38.410000 105.029999 C 38.616394 104.853905 38.727592 104.590736 38.709999 104.320000 C 38.716087 104.107033 38.641022 103.899704 38.500000 103.739998 C 38.292324 103.543411 38.052090 103.384384 37.790001 103.269997 Z" fill="#232F3E"/><path d=" M 45.080002 106.089996 C 44.887089 106.213348 44.673763 106.301392 44.450001 106.349998 C 44.184292 106.410645 43.912540 106.440842 43.639999 106.439995 C 42.947281 106.490982 42.269344 106.222023 41.799999 105.709991 C 41.338715 105.088364 41.115231 104.322128 41.169998 103.549988 C 41.119221 102.771988 41.357849 102.002678 41.839996 101.389984 C 42.316399 100.867004 43.003826 100.587616 43.709995 100.629982 C 44.179947 100.630127 44.642971 100.743309 45.059994 100.959984 L 45.060001 101.959999 C 44.739513 101.841644 44.401566 101.777435 44.060001 101.769997 C 43.698849 101.733589 43.344181 101.884514 43.120003 102.169998 C 42.902073 102.563194 42.804691 103.011833 42.840004 103.459999 L 42.840000 103.620003 C 42.803051 104.065079 42.900597 104.511002 43.119999 104.900002 C 43.328991 105.182068 43.670586 105.333885 44.020000 105.300003 C 44.389381 105.292480 44.754715 105.221443 45.100002 105.090004 Z" fill="#232F3E"/><path d=" M 49.000000 106.349998 L 48.849998 105.839996 C 48.696899 106.044678 48.493721 106.206528 48.259998 106.309998 C 48.016251 106.426201 47.750019 106.487640 47.480000 106.489998 C 47.040821 106.513031 46.612320 106.349617 46.299999 106.040001 C 45.993969 105.709824 45.835167 105.269508 45.860001 104.820000 C 45.836857 104.326881 46.030483 103.848297 46.389999 103.510002 C 46.793865 103.177910 47.307987 103.010109 47.829998 103.040001 C 48.140766 103.046326 48.449646 103.089973 48.749996 103.169998 L 48.750000 102.660004 C 48.777573 102.389763 48.721737 102.117561 48.590000 101.880005 C 48.425476 101.727715 48.202755 101.654694 47.980000 101.680008 C 47.375546 101.705238 46.778564 101.823280 46.209999 102.030006 L 46.209999 101.029999 C 46.497074 100.871574 46.807678 100.760162 47.129997 100.699997 C 47.508095 100.619995 47.893528 100.579773 48.279999 100.579994 C 48.823795 100.532089 49.365879 100.689011 49.799999 101.019997 C 50.149231 101.394203 50.320473 101.900635 50.270000 102.409996 L 50.270000 106.349998 Z M 48.000000 105.430000 C 48.298344 105.418404 48.580971 105.293190 48.790001 105.080002 L 48.790001 104.000000 C 48.587589 103.947983 48.378914 103.924423 48.170002 103.930000 C 47.969456 103.914780 47.772251 103.987816 47.630001 104.129997 C 47.498241 104.297188 47.434006 104.507729 47.450001 104.719994 C 47.439713 104.905304 47.492592 105.088631 47.600002 105.239990 C 47.693275 105.366104 47.843319 105.437370 48.000004 105.429993 Z" fill="#232F3E"/><path d=" M 54.110001 106.250000 C 53.789742 106.365929 53.450443 106.420219 53.110001 106.410004 C 52.716991 106.444092 52.328003 106.309586 52.040001 106.040001 C 51.776512 105.729019 51.647057 105.326263 51.680000 104.919998 L 51.680000 98.209999 L 53.330002 98.209999 L 53.330002 104.750000 C 53.319199 104.888161 53.346889 105.026619 53.410004 105.150002 C 53.489674 105.241310 53.609940 105.286407 53.730003 105.270004 C 53.846493 105.279053 53.963512 105.279053 54.080002 105.270004 Z" fill="#232F3E"/><path d=" M 56.000000 99.809998 C 55.743858 99.830612 55.489609 99.751831 55.290001 99.589996 C 55.108875 99.447479 55.002205 99.230461 55.000000 99.000000 C 54.989643 98.765633 55.089550 98.539917 55.270000 98.389999 C 55.690441 98.084755 56.259560 98.084755 56.680000 98.389999 C 56.876743 98.531624 56.995300 98.757629 57.000000 99.000000 C 57.006992 99.231628 56.911938 99.454643 56.740002 99.610001 C 56.529694 99.772316 56.263443 99.844276 56.000000 99.809998 Z M 55.169998 106.349998 L 55.169998 100.720001 L 56.820000 100.720001 L 56.820000 106.349998 Z" fill="#232F3E"/><path d=" M 61.369999 106.349998 L 61.369999 102.650002 C 61.386494 102.408363 61.338165 102.166710 61.230000 101.950005 C 61.114101 101.793236 60.923878 101.709541 60.730000 101.730003 C 60.437969 101.739677 60.154251 101.829636 59.910000 101.990005 L 59.910000 106.349998 L 58.259998 106.349998 L 58.259998 100.720001 L 59.610001 100.720001 L 59.750000 101.230003 C 60.284370 100.833908 60.925400 100.607452 61.590000 100.580002 C 61.991432 100.553581 62.383728 100.707565 62.660000 101.000000 C 62.922020 101.350540 63.049740 101.783371 63.020000 102.220001 L 63.020000 106.349998 Z" fill="#232F3E"/><path d=" M 67.320000 105.709999 C 67.008072 106.047455 66.569542 106.239540 66.110001 106.239998 C 65.534966 106.256142 64.991646 105.976936 64.669998 105.500000 C 64.293472 104.903000 64.108536 104.205116 64.139999 103.500000 C 64.097816 102.757782 64.286453 102.020706 64.680000 101.389999 C 64.999702 100.896965 65.552567 100.605385 66.139999 100.620003 C 66.385834 100.627289 66.627525 100.685165 66.849998 100.790001 C 67.087303 100.897537 67.301315 101.050400 67.479996 101.239998 L 67.599998 100.760002 L 69.000000 100.760002 L 69.000000 106.000000 C 69.000000 107.860001 68.150002 108.790001 66.430000 108.790001 C 65.793320 108.794128 65.165215 108.643105 64.599998 108.349998 L 64.599998 107.349998 C 65.119217 107.547821 65.665421 107.665833 66.220001 107.699997 C 66.460434 107.714272 66.700722 107.669647 66.919998 107.570000 C 67.088623 107.473465 67.213867 107.316017 67.269997 107.129997 C 67.354820 106.803833 67.388550 106.466499 67.369995 106.129997 Z M 66.660004 105.110001 C 66.896294 105.100060 67.125008 105.023819 67.320007 104.889999 L 67.320000 102.000000 C 67.109337 101.838676 66.854942 101.744583 66.589996 101.730003 C 66.320801 101.727432 66.079720 101.896187 65.989998 102.150002 C 65.834030 102.564812 65.765930 103.007492 65.790001 103.450005 C 65.770172 103.876869 65.841774 104.303047 66.000000 104.700005 C 66.119064 104.955605 66.378105 105.116524 66.660004 105.110008 Z" fill="#232F3E"/></g><g id="ICONS_-_EDIT"><path d=" M 33.630001 22.500000 L 40.000000 16.139999 L 46.360001 22.500000" stroke="#FFFFFF" stroke-width="2.000000" stroke-linejoin="round" fill="none"/><line x1="40.000000" y1="16.000000" x2="40.000000" y2="28.000000" stroke="#FFFFFF" stroke-width="2.000000" stroke-linejoin="round" fill="none"/><path d=" M 33.630001 57.639999 L 40.000000 64.000000 L 46.360001 57.639999" stroke="#FFFFFF" stroke-width="2.000000" stroke-linejoin="round" fill="none"/><line x1="40.000000" y1="64.000000" x2="40.000000" y2="52.000000" stroke="#FFFFFF" stroke-width="2.000000" stroke-linejoin="round" fill="none"/><path d=" M 20.570000 46.430000 L 26.930000 40.070000 L 20.570000 33.700001" stroke="#FFFFFF" stroke-width="2.000000" stroke-linejoin="round" fill="none"/><line x1="27.000000" y1="40.000000" x2="15.000000" y2="40.000000" stroke="#FFFFFF" stroke-width="2.000000" stroke-linejoin="round" fill="none"/><path d=" M 59.430000 33.700001 L 53.070000 40.070000 L 59.430000 46.430000" stroke="#FFFFFF" stroke-width="2.000000" stroke-linejoin="round" fill="none"/><line x1="53.000000" y1="40.000000" x2="65.000000" y2="40.000000" stroke="#FFFFFF" stroke-width="2.000000" stroke-linejoin="round" fill="none"/><line x1="40.000000" y1="40.180000" x2="31.920000" y2="35.500000" stroke="#FFFFFF" stroke-width="2.000000" stroke-linejoin="round" fill="none"/><line x1="48.080000" y1="35.500000" x2="40.000000" y2="40.180000" stroke="#FFFFFF" stroke-width="2.000000" stroke-linejoin="round" fill="none"/><line x1="40.000000" y1="40.000000" x2="40.000000" y2="49.000000" stroke="#FFFFFF" stroke-width="2.000000" stroke-linejoin="round" fill="none"/><path d=" M 48.000000 44.439999 L 48.000000 35.540001 L 40.000000 31.090000 L 32.000000 35.540001 L 32.000000 44.439999 L 40.000000 48.880001 L 48.000000 44.439999 Z" stroke="#FFFFFF" stroke-width="2.000000" stroke-linejoin="round" fill="none"/></g></svg>