<svg version="1.1" width="80.000000" height="130.000000" viewBox="0.000000 0.000000 80.000000 130.000000" xmlns="http://www.w3.org/2000/svg" xmlns:xlink="http://www.w3.org/1999/xlink" overflow="hidden"><g id="CARDS"><rect x="1.000000" y="1.000000" width="78.000000" height="78.000000" fill="#232F3E"/><path d=" M 0.000000 0.000000 L 0.000000 80.000000 L 0.000000 80.000000 L 0.000000 130.000000 L 80.000000 130.000000 L 80.000000 80.000000 L 80.000000 80.000000 L 80.000000 0.000000 Z M 1.000000 1.000000 L 79.000000 1.000000 L 79.000000 79.000000 L 1.000000 79.000000 Z" fill="#FFFFFF"/></g><g id="TEXT_-_EDIT"><path d=" M 33.689999 92.349998 L 33.250000 90.529999 L 31.250000 90.529999 L 30.830000 92.349998 L 29.059999 92.349998 L 31.370001 84.720001 L 33.240002 84.720001 L 35.540001 92.349998 Z M 31.510000 89.430000 L 33.000000 89.430000 L 32.240002 86.269997 Z" fill="#232F3E"/><path d=" M 40.889999 92.349998 L 40.000000 86.720001 L 39.110001 92.349998 L 37.189999 92.349998 L 35.410000 84.720001 L 37.110001 84.720001 L 38.169998 90.779999 L 39.080002 85.000000 L 40.919998 85.000000 L 41.860001 90.650002 L 42.860001 84.650002 L 44.520000 84.650002 L 42.740002 92.279999 Z" fill="#232F3E"/><path d=" M 46.840000 89.000000 C 46.345402 88.768761 45.910801 88.426559 45.570000 88.000000 C 45.307678 87.644348 45.170536 87.211830 45.180000 86.769997 C 45.168892 86.354126 45.287739 85.945145 45.520000 85.599998 C 45.745701 85.259720 46.065289 84.992241 46.439999 84.830002 C 46.861813 84.643929 47.319042 84.551804 47.779999 84.560005 C 48.429764 84.562088 49.072483 84.694710 49.669998 84.950005 L 49.669998 86.120003 C 49.134098 85.923050 48.570534 85.811684 48.000000 85.790001 C 47.718163 85.774521 47.439480 85.855652 47.209999 86.020004 C 47.013199 86.172058 46.904575 86.411781 46.919998 86.660004 C 46.912312 86.862022 46.976040 87.060295 47.099998 87.220001 C 47.307770 87.423737 47.552021 87.586571 47.820000 87.700005 L 48.470001 88.019997 C 48.826054 88.187546 49.161602 88.395592 49.470001 88.639999 C 49.698788 88.827263 49.883213 89.062912 50.010002 89.330002 C 50.129375 89.621704 50.187252 89.934906 50.180000 90.250000 C 50.210262 90.886475 49.935429 91.499283 49.439999 91.900002 C 48.864475 92.329575 48.157295 92.545265 47.439999 92.510002 C 47.060139 92.510231 46.681335 92.470001 46.309998 92.389999 C 45.964050 92.327736 45.627823 92.220139 45.309998 92.070000 L 45.310001 90.919998 C 45.637497 91.025146 45.971550 91.108665 46.310001 91.169998 C 46.639122 91.238113 46.973946 91.274940 47.310001 91.279999 C 47.623581 91.302475 47.935078 91.213982 48.190002 91.029999 C 48.396397 90.853905 48.507595 90.590736 48.490002 90.320000 C 48.496090 90.107033 48.421024 89.899704 48.280003 89.739998 C 48.072327 89.543411 47.832092 89.384384 47.570004 89.269997 Z" fill="#232F3E"/><path d=" M 21.520000 106.129997 C 20.954855 106.359474 20.349937 106.475021 19.740000 106.469994 C 17.493334 106.470001 16.366667 105.169998 16.360001 102.570000 C 16.293915 101.513390 16.605843 100.467720 17.240000 99.620003 C 17.889338 98.922134 18.819004 98.554680 19.770000 98.620003 C 20.333498 98.620705 20.892317 98.722313 21.420000 98.920006 L 21.420000 100.129997 C 20.959391 99.985931 20.482117 99.901901 20.000000 99.879997 C 19.460451 99.834991 18.934414 100.064201 18.600000 100.489998 C 18.255201 101.071793 18.098070 101.745705 18.150000 102.419998 L 18.150000 102.669998 C 18.099346 103.333389 18.252886 103.996399 18.590000 104.570000 C 18.911362 104.995422 19.428814 105.225822 19.960001 105.180000 C 20.494768 105.153023 21.024786 105.065804 21.540001 104.919998 Z" fill="#232F3E"/><path d=" M 24.750000 106.489998 C 24.048313 106.528084 23.367447 106.244698 22.900000 105.720001 C 22.033985 104.392052 22.033985 102.677956 22.900000 101.349998 C 23.367447 100.825302 24.048313 100.541916 24.750000 100.580002 C 25.448767 100.542046 26.126535 100.825676 26.590000 101.349998 C 27.456015 102.677948 27.456015 104.392044 26.590000 105.720001 C 26.126535 106.244324 25.448767 106.527962 24.750000 106.489998 Z M 24.750000 105.339996 C 25.033583 105.349129 25.291271 105.175995 25.389999 104.909996 C 25.656797 104.016144 25.656797 103.063843 25.389999 102.169998 C 25.294674 101.900047 25.036182 101.722336 24.750000 101.729996 C 24.461109 101.721107 24.199081 101.898483 24.100000 102.169998 C 23.833202 103.063850 23.833202 104.016151 24.100000 104.909996 C 24.202442 105.177567 24.463680 105.350380 24.750000 105.339996 Z" fill="#232F3E"/><path d=" M 34.470001 106.349998 L 34.470001 102.639999 C 34.486664 102.401566 34.438278 102.163086 34.330002 101.949997 C 34.228390 101.798111 34.052017 101.713760 33.870003 101.729996 C 33.584560 101.741776 33.307831 101.831711 33.070004 101.989998 C 33.074921 102.029846 33.074921 102.070152 33.070004 102.110001 L 33.070000 106.349998 L 31.430000 106.349998 L 31.430000 102.639999 C 31.451563 102.401268 31.402903 102.161446 31.290001 101.949997 C 31.189905 101.796371 31.012419 101.711487 30.830002 101.729996 C 30.551149 101.743874 30.281408 101.833786 30.050001 101.989998 L 30.049999 106.349998 L 28.400000 106.349998 L 28.400000 100.720001 L 29.750000 100.720001 L 29.879999 101.230003 C 30.405127 100.837898 31.035393 100.611557 31.689999 100.580002 C 32.187904 100.543671 32.659679 100.807076 32.889999 101.250000 C 33.420990 100.851845 34.057449 100.618820 34.720001 100.580002 C 35.098606 100.567619 35.463779 100.720993 35.720001 101.000000 C 35.980431 101.351334 36.107975 101.783562 36.080002 102.220001 L 36.080002 106.349998 Z" fill="#232F3E"/><path d=" M 43.590000 106.349998 L 43.590000 102.639999 C 43.606663 102.401566 43.558277 102.163086 43.450001 101.949997 C 43.348389 101.798111 43.172016 101.713760 42.990002 101.729996 C 42.704559 101.741776 42.427830 101.831711 42.190002 101.989998 C 42.194920 102.029846 42.194920 102.070152 42.190002 102.110001 L 42.189999 106.349998 L 40.549999 106.349998 L 40.549999 102.639999 C 40.569256 102.402504 40.524357 102.164200 40.419998 101.949997 C 40.315140 101.796478 40.135052 101.712181 39.949997 101.729996 C 39.671143 101.743874 39.401405 101.833786 39.169998 101.989998 L 39.169998 106.349998 L 37.520000 106.349998 L 37.520000 100.720001 L 38.869999 100.720001 L 39.000000 101.230003 C 39.525127 100.837898 40.155392 100.611557 40.810001 100.580002 C 41.307907 100.543671 41.779682 100.807076 42.010002 101.250000 C 42.540993 100.851845 43.177452 100.618820 43.840004 100.580002 C 44.218609 100.567619 44.583782 100.720993 44.840004 101.000000 C 45.100433 101.351334 45.227978 101.783562 45.200005 102.220001 L 45.200001 106.349998 Z" fill="#232F3E"/><path d=" M 49.540001 106.349998 L 49.400002 105.839996 C 49.244743 106.042564 49.042156 106.203949 48.810001 106.309998 C 48.563095 106.427322 48.293362 106.488777 48.020000 106.489998 C 47.581017 106.511780 47.153004 106.348557 46.840000 106.040001 C 46.229267 105.292549 46.272175 104.206917 46.939999 103.510002 C 47.337273 103.173096 47.850315 103.004471 48.369999 103.040001 C 48.684029 103.046669 48.996178 103.090302 49.299999 103.169998 L 49.299999 102.660004 C 49.327572 102.389763 49.271736 102.117561 49.139999 101.880005 C 48.975475 101.727715 48.752754 101.654694 48.529999 101.680008 C 47.925545 101.705238 47.328564 101.823280 46.759998 102.030006 L 46.759998 101.029999 C 47.043468 100.871468 47.350800 100.760017 47.669998 100.699997 C 48.051479 100.620018 48.440224 100.579803 48.829998 100.579994 C 49.373795 100.532089 49.915878 100.689011 50.349998 101.019997 C 50.694771 101.396851 50.865322 101.901237 50.820000 102.409996 L 50.820000 106.349998 Z M 48.540001 105.430000 C 48.841843 105.420944 49.128494 105.295532 49.340000 105.080002 L 49.340000 104.000000 C 49.134171 103.948074 48.922207 103.924522 48.709999 103.930000 C 48.512249 103.913605 48.317619 103.987053 48.180000 104.129997 C 48.040947 104.293694 47.972603 104.505920 47.990002 104.719994 C 47.979713 104.905304 48.032593 105.088631 48.140003 105.239990 C 48.225876 105.353592 48.357761 105.423195 48.500004 105.429993 Z" fill="#232F3E"/><path d=" M 55.320000 106.349998 L 55.320000 102.650002 C 55.341221 102.408081 55.292633 102.165154 55.180000 101.950005 C 55.067307 101.794876 54.880810 101.711143 54.689999 101.730003 C 54.397789 101.738640 54.113796 101.828682 53.869999 101.990005 L 53.869999 106.349998 L 52.220001 106.349998 L 52.220001 100.720001 L 53.570000 100.720001 L 53.700001 101.230003 C 54.234371 100.833908 54.875401 100.607452 55.540001 100.580002 C 55.941433 100.553581 56.333729 100.707565 56.610001 101.000000 C 56.872021 101.350540 56.999741 101.783371 56.970001 102.220001 L 56.970001 106.349998 Z" fill="#232F3E"/><path d=" M 61.619999 106.349998 L 61.490002 105.860001 C 61.309532 106.042419 61.095642 106.188408 60.860001 106.290001 C 60.632378 106.387421 60.387592 106.438423 60.139999 106.440002 C 59.541473 106.464928 58.971790 106.181969 58.630001 105.690002 C 58.235481 105.052330 58.046936 104.308617 58.090000 103.560005 C 58.045650 102.789658 58.241302 102.024506 58.650002 101.370003 C 58.987572 100.858131 59.567207 100.558846 60.180000 100.580002 C 60.395470 100.590401 60.608013 100.634262 60.810001 100.709999 C 61.028538 100.789223 61.234108 100.900436 61.420002 101.040001 L 61.419998 98.209999 L 63.070000 98.209999 L 63.070000 106.349998 Z M 60.700001 105.349998 C 60.956093 105.346977 61.205956 105.270630 61.420002 105.129997 L 61.419998 102.000000 C 61.183342 101.839310 60.905910 101.749138 60.619999 101.739998 C 60.326485 101.731621 60.058945 101.907326 59.950001 102.180000 C 59.787903 102.624512 59.719799 103.097824 59.750000 103.570000 C 59.719704 104.034126 59.794918 104.499092 59.970001 104.930000 C 60.116844 105.190842 60.401546 105.342941 60.700001 105.320000 Z" fill="#232F3E"/><path d=" M 7.770000 120.349998 L 7.770000 112.720001 L 9.460000 112.720001 L 9.460000 119.120003 L 12.300000 119.120003 L 12.300000 120.349998 Z" fill="#232F3E"/><path d=" M 13.940000 113.809998 C 13.684536 113.824768 13.432354 113.746628 13.230000 113.589996 C 13.071149 113.436157 12.987181 113.220757 13.000000 113.000000 C 12.989643 112.765633 13.089550 112.539917 13.270000 112.389999 C 13.690441 112.084755 14.259561 112.084755 14.680000 112.389999 C 14.858017 112.540955 14.954383 112.767044 14.940001 113.000000 C 14.952808 113.232681 14.856729 113.458099 14.680000 113.610001 C 14.469692 113.772316 14.203441 113.844276 13.940001 113.809998 Z M 13.110000 120.349998 L 13.110000 114.720001 L 14.760000 114.720001 L 14.760000 120.349998 Z" fill="#232F3E"/><path d=" M 19.330000 120.349998 L 19.330000 116.650002 C 19.349314 116.407036 19.297176 116.163719 19.180000 115.950005 C 19.067308 115.794876 18.880808 115.711143 18.690001 115.730003 C 18.397970 115.739677 18.114252 115.829636 17.870001 115.990005 L 17.870001 120.349998 L 16.219999 120.349998 L 16.219999 114.720001 L 17.570000 114.720001 L 17.700001 115.230003 C 18.235239 114.835541 18.875753 114.609268 19.540001 114.580002 C 19.941431 114.553581 20.333731 114.707565 20.610001 115.000000 C 20.875578 115.349174 21.006886 115.782127 20.980001 116.220001 L 20.980000 120.349998 Z" fill="#232F3E"/><path d=" M 23.590000 117.919998 C 23.602036 118.315720 23.746395 118.695984 24.000000 119.000000 C 24.295565 119.246262 24.676880 119.364975 25.059999 119.330002 C 25.289248 119.324608 25.517241 119.294434 25.740000 119.240005 C 26.011526 119.190041 26.278938 119.119843 26.539999 119.030006 L 26.540001 120.029999 C 26.281759 120.177193 26.001509 120.281868 25.710001 120.339996 C 25.381477 120.411812 25.046280 120.448685 24.710001 120.449997 C 23.000000 120.449997 22.139999 119.449997 22.139999 117.500000 C 22.086962 116.715630 22.309818 115.937401 22.769999 115.300003 C 23.224649 114.776291 23.897924 114.495148 24.589998 114.540001 C 25.959999 114.540001 26.639999 115.300003 26.639999 116.830002 C 26.639126 117.166870 26.598852 117.502487 26.519999 117.830002 Z M 24.510000 115.599998 C 23.930000 115.599998 23.620001 116.059998 23.590000 116.970001 L 25.209999 116.970001 L 25.209999 116.720001 C 25.230442 116.423340 25.171778 116.126572 25.039999 115.860001 C 24.921135 115.686409 24.720032 115.587753 24.509998 115.599998 Z" fill="#232F3E"/><path d=" M 30.430000 120.349998 L 30.430000 112.720001 L 32.119999 112.720001 L 32.119999 120.349998 Z" fill="#232F3E"/><path d=" M 36.810001 120.349998 L 36.810001 116.650002 C 36.829315 116.407036 36.777176 116.163719 36.660000 115.950005 C 36.548672 115.793205 36.361149 115.709015 36.169998 115.730003 C 35.877968 115.739677 35.594250 115.829636 35.349998 115.990005 L 35.349998 120.349998 L 33.700001 120.349998 L 33.700001 114.720001 L 35.049999 114.720001 L 35.180000 115.230003 C 35.715240 114.835541 36.355751 114.609268 37.020000 114.580002 C 37.421654 114.552147 37.814541 114.706367 38.090000 115.000000 C 38.355579 115.349174 38.486885 115.782127 38.459999 116.220001 L 38.459999 120.349998 Z" fill="#232F3E"/><path d=" M 42.889999 120.199997 C 42.496689 120.347153 42.079933 120.421692 41.660000 120.419998 C 40.862198 120.570419 40.093510 120.045616 39.943085 119.247818 C 39.910217 119.073509 39.909172 118.894684 39.939999 118.720001 L 39.939999 115.820000 L 39.209999 115.820000 L 39.209999 114.900002 L 39.990002 114.750000 L 40.230000 113.209999 L 41.590000 113.209999 L 41.590000 114.720001 L 42.869999 114.720001 L 42.869999 115.820000 L 41.590000 115.820000 L 41.590000 118.589996 C 41.574326 118.774376 41.623871 118.958412 41.730000 119.109993 C 41.877174 119.233894 42.068851 119.291756 42.259998 119.269997 C 42.472317 119.266800 42.683620 119.239967 42.889999 119.189995 Z" fill="#232F3E"/><path d=" M 45.000000 117.919998 C 44.979252 118.324760 45.107300 118.723129 45.360001 119.040001 C 45.655567 119.286263 46.036880 119.404976 46.420002 119.370003 C 46.649204 119.363998 46.877132 119.333832 47.100002 119.280006 C 47.371529 119.230042 47.638943 119.159843 47.900002 119.070007 L 47.900002 120.070000 C 47.641762 120.217194 47.361507 120.321869 47.070000 120.379997 C 46.741474 120.451813 46.406277 120.488686 46.070000 120.489998 C 44.349998 120.489998 43.490002 119.489998 43.490002 117.540001 C 43.435516 116.753960 43.662365 115.974152 44.130001 115.340004 C 44.584652 114.816292 45.257927 114.535149 45.950001 114.580002 C 47.320000 114.580002 47.950001 115.339996 47.950001 116.870003 C 47.949127 117.206871 47.908855 117.542488 47.830002 117.870003 Z M 45.910000 115.599998 C 45.330002 115.599998 45.029999 116.059998 45.000000 116.970001 L 46.599998 116.970001 L 46.599998 116.720001 C 46.620441 116.423340 46.561779 116.126572 46.430000 115.860001 C 46.312511 115.684830 46.110443 115.585701 45.900002 115.599998 Z" fill="#232F3E"/><path d=" M 49.130001 120.349998 L 49.130001 114.720001 L 50.480000 114.720001 L 50.660000 115.449997 C 50.860947 115.209991 51.105179 115.009857 51.380001 114.860001 C 51.609921 114.734291 51.867958 114.668915 52.130001 114.669998 C 52.259811 114.660080 52.390190 114.660080 52.520000 114.669998 L 52.520000 116.000000 C 52.306885 115.986336 52.093117 115.986336 51.880001 116.000000 C 51.498165 116.000481 51.121643 116.089478 50.780003 116.260002 L 50.779999 120.370003 Z" fill="#232F3E"/><path d=" M 54.000000 120.349998 L 54.000000 115.820000 L 53.220001 115.820000 L 53.220001 114.900002 L 54.000000 114.750000 L 54.000000 114.089996 C 53.956177 113.534058 54.128063 112.982582 54.480000 112.549995 C 54.885151 112.189583 55.419285 112.009132 55.959999 112.049995 C 56.333466 112.049156 56.703579 112.120461 57.049999 112.259995 L 57.049999 113.260002 C 56.843060 113.214485 56.631882 113.191025 56.419998 113.190002 C 56.203739 113.164169 55.985737 113.221352 55.809998 113.350006 C 55.681595 113.529663 55.624565 113.750648 55.649998 113.970009 L 55.650002 114.709999 L 56.990002 114.709999 L 56.990002 115.809998 L 55.599998 115.809998 L 55.599998 120.339996 Z" fill="#232F3E"/><path d=" M 60.580002 120.349998 L 60.430000 119.839996 C 60.276901 120.044678 60.073723 120.206528 59.840000 120.309998 C 59.596252 120.426201 59.330021 120.487640 59.060001 120.489998 C 58.620823 120.513031 58.192322 120.349617 57.880001 120.040001 C 57.573971 119.709824 57.415169 119.269508 57.440002 118.820000 C 57.416859 118.326881 57.610485 117.848297 57.970001 117.510002 C 58.373867 117.177910 58.887989 117.010109 59.410000 117.040001 C 59.720768 117.046326 60.029648 117.089973 60.329998 117.169998 L 60.330002 116.660004 C 60.357574 116.389763 60.301739 116.117561 60.170002 115.880005 C 60.005478 115.727715 59.782757 115.654694 59.560001 115.680008 C 58.955547 115.705238 58.358566 115.823280 57.790001 116.030006 L 57.790001 115.029999 C 58.077076 114.871574 58.387680 114.760162 58.709999 114.699997 C 59.091400 114.619514 59.480198 114.579300 59.869999 114.579994 C 60.410549 114.533653 60.948952 114.690544 61.379997 115.019997 C 61.729229 115.394203 61.900471 115.900635 61.849998 116.409996 L 61.849998 120.349998 Z M 59.580002 119.430000 C 59.878345 119.418404 60.160973 119.293190 60.370003 119.080002 L 60.369999 118.000000 C 60.167587 117.947983 59.958912 117.924423 59.750000 117.930000 C 59.549454 117.914780 59.352249 117.987816 59.209999 118.129997 C 59.078239 118.297188 59.014004 118.507729 59.029999 118.719994 C 59.019711 118.905304 59.072590 119.088631 59.180000 119.239990 C 59.264927 119.354698 59.397377 119.424606 59.540001 119.429993 Z" fill="#232F3E"/><path d=" M 66.889999 120.089996 C 66.693359 120.213127 66.476799 120.301109 66.250000 120.349998 C 65.984291 120.410645 65.712540 120.440842 65.440002 120.439995 C 64.747513 120.489487 64.070206 120.220772 63.600002 119.709991 C 62.732292 118.400703 62.732292 116.699280 63.600002 115.389992 C 64.080345 114.866623 64.770889 114.587463 65.480003 114.629990 C 65.949959 114.630135 66.412979 114.743317 66.830002 114.959991 L 66.830002 115.959999 C 66.509224 115.842697 66.171448 115.778526 65.830002 115.769997 C 65.471947 115.735214 65.121010 115.886154 64.900002 116.169998 C 64.678040 116.561913 64.577126 117.010796 64.610001 117.459999 L 64.610001 117.620003 C 64.577835 118.064751 64.675079 118.509300 64.889999 118.900002 C 65.098991 119.182068 65.440582 119.333885 65.790001 119.300003 C 66.162643 119.292633 66.531288 119.221611 66.879997 119.090004 Z" fill="#232F3E"/><path d=" M 69.150002 117.919998 C 69.136597 118.325401 69.267738 118.722366 69.520004 119.040001 C 69.814476 119.288261 70.196648 119.407242 70.580002 119.370003 C 70.809204 119.363998 71.037132 119.333832 71.260002 119.280006 C 71.531250 119.228806 71.798576 119.158638 72.060005 119.070007 L 72.059998 120.070000 C 71.800980 120.215523 71.520996 120.320099 71.229996 120.379997 C 70.901474 120.451813 70.566277 120.488686 70.229996 120.489998 C 68.510002 120.489998 67.650002 119.489998 67.650002 117.540001 C 67.596962 116.755630 67.819817 115.977402 68.279999 115.340004 C 68.737762 114.814682 69.414764 114.533524 70.110001 114.580002 C 71.470001 114.580002 72.110001 115.339996 72.110001 116.870003 C 72.109131 117.206871 72.068855 117.542488 71.989998 117.870003 Z M 70.070000 115.599998 C 69.489998 115.599998 69.190002 116.059998 69.150002 116.970001 L 70.769997 116.970001 L 70.769997 116.720001 C 70.790436 116.423340 70.731773 116.126572 70.599998 115.860001 C 70.482506 115.684830 70.280441 115.585701 70.070000 115.599998 Z" fill="#232F3E"/></g><g id="ICONS_-_EDIT"><path d=" M 64.000000 64.000000 L 57.000000 64.000000 L 57.000000 62.000000 L 63.000000 62.000000 L 63.000000 18.000000 L 17.000000 18.000000 L 17.000000 62.000000 L 45.000000 62.000000 L 45.000000 64.000000 L 16.000000 64.000000 C 15.447715 64.000000 15.000000 63.552284 15.000000 63.000000 L 15.000000 17.000000 C 15.000000 16.447716 15.447715 16.000000 16.000000 16.000000 L 64.000000 16.000000 C 64.552284 16.000000 65.000000 16.447716 65.000000 17.000000 L 65.000000 63.000000 C 65.000000 63.552284 64.552284 64.000000 64.000000 64.000000 Z" fill="#FFFFFF"/><rect x="16.000000" y="24.000000" width="48.000000" height="2.000000" fill="#FFFFFF"/><rect x="19.000000" y="20.000000" width="2.000000" height="2.000000" fill="#FFFFFF"/><rect x="23.000000" y="20.000000" width="2.000000" height="2.000000" fill="#FFFFFF"/><rect x="27.000000" y="20.000000" width="2.000000" height="2.000000" fill="#FFFFFF"/><path d=" M 26.490000 53.299999 L 25.080000 51.889999 L 34.000000 43.000000 L 25.110001 34.110001 L 26.520000 32.700001 L 36.119999 42.290001 C 36.512119 42.678921 36.514717 43.312080 36.125797 43.704201 C 36.123871 43.706142 36.121941 43.708073 36.119999 43.709999 Z" fill="#FFFFFF"/><rect x="38.000000" y="48.000000" width="15.000000" height="2.000000" fill="#FFFFFF"/></g></svg>