<svg version="1.1" width="80.000000" height="115.000000" viewBox="0.000000 0.000000 80.000000 115.000000" xmlns="http://www.w3.org/2000/svg" xmlns:xlink="http://www.w3.org/1999/xlink" overflow="hidden"><g id="CARDS"><rect x="1.000000" y="1.000000" width="78.000000" height="78.000000" fill="#232F3E"/><path d=" M 0.000000 0.000000 L 0.000000 80.000000 L 0.000000 80.000000 L 0.000000 115.000000 L 80.000000 115.000000 L 80.000000 80.000000 L 80.000000 80.000000 L 80.000000 0.000000 Z M 1.000000 1.000000 L 79.000000 1.000000 L 79.000000 79.000000 L 1.000000 79.000000 Z" fill="#FFFFFF"/></g><g id="TEXT_-_EDIT"><path d=" M 34.419998 91.919998 L 34.000000 90.190002 L 32.099998 90.190002 L 31.700001 91.919998 L 30.000000 91.919998 L 32.209999 84.650002 L 34.000000 84.650002 L 36.189999 91.919998 Z M 32.340000 89.139999 L 33.770000 89.139999 L 33.040001 86.139999 Z" fill="#232F3E"/><path d=" M 41.070000 91.919998 L 40.169998 86.559998 L 39.320000 91.919998 L 37.540001 91.919998 L 35.840000 84.650002 L 37.459999 84.650002 L 38.459999 90.430000 L 39.340000 84.940002 L 41.080002 84.940002 L 41.980000 90.339996 L 42.980000 84.650002 L 44.560001 84.650002 L 42.860001 91.919998 Z" fill="#232F3E"/><path d=" M 46.520000 88.680000 C 46.051632 88.474167 45.634907 88.166748 45.299999 87.779999 C 45.055107 87.435631 44.925579 87.022545 44.930000 86.599998 C 44.921062 86.201462 45.036396 85.810020 45.260002 85.479996 C 45.476048 85.156212 45.781883 84.902512 46.140003 84.749992 C 46.541348 84.567116 46.979118 84.478195 47.420002 84.489990 C 48.039410 84.494705 48.651543 84.623940 49.220001 84.869987 L 49.220001 86.000000 C 48.693592 85.809036 48.139793 85.704353 47.580002 85.690002 C 47.308807 85.672852 47.040100 85.750641 46.820004 85.910004 C 46.637409 86.054764 46.533665 86.277077 46.540005 86.510002 C 46.531773 86.705986 46.595833 86.898155 46.720005 87.050003 C 46.920235 87.243874 47.154034 87.399742 47.410004 87.510002 L 48.029999 87.820000 C 48.367546 87.976852 48.686241 88.171425 48.980000 88.400002 C 49.437977 88.776512 49.690277 89.347900 49.660000 89.940002 C 49.692135 90.533920 49.448627 91.109482 49.000000 91.500000 C 48.423969 91.925934 47.714535 92.131668 47.000000 92.080002 C 46.638165 92.092514 46.276043 92.065689 45.919998 92.000000 C 45.603855 91.944122 45.297390 91.843086 45.009998 91.699997 L 45.009998 90.599998 C 45.335850 90.708473 45.670410 90.788765 46.009998 90.839996 C 46.309395 90.902611 46.614147 90.936104 46.919998 90.939995 C 47.218273 90.963867 47.515491 90.882492 47.759998 90.709991 C 47.948380 90.524971 48.037487 90.261360 48.000000 89.999992 C 48.004208 89.798141 47.932880 89.601990 47.799999 89.449989 C 47.601437 89.258736 47.371403 89.103127 47.119999 88.989990 Z" fill="#232F3E"/><path d=" M 10.510000 105.709999 C 9.972496 105.937180 9.393464 106.049576 8.810000 106.040001 C 6.670000 106.040001 5.590000 104.800003 5.590000 102.320000 C 5.522334 101.312721 5.820621 100.314888 6.430000 99.510002 C 7.040950 98.823639 7.932755 98.455132 8.850000 98.510002 C 9.385868 98.508690 9.917624 98.603523 10.420000 98.790001 L 10.420000 100.000000 C 9.960732 99.850494 9.482715 99.766335 9.000000 99.750000 C 8.487354 99.707458 7.987642 99.925377 7.670000 100.330002 C 7.338679 100.883644 7.188360 101.526863 7.240000 102.169998 L 7.240000 102.419998 C 7.191639 103.052086 7.338225 103.683800 7.660000 104.229996 C 7.967762 104.635880 8.462619 104.854973 8.970000 104.809998 C 9.478189 104.786858 9.981776 104.702927 10.470000 104.559998 Z" fill="#232F3E"/><path d=" M 13.530000 105.830002 C 13.235006 105.936562 12.923649 105.990715 12.610000 105.990005 C 12.241293 106.012978 11.879458 105.882721 11.610000 105.630005 C 11.358579 105.332916 11.236185 104.947731 11.270000 104.560005 L 11.270000 98.150002 L 12.840000 98.150002 L 12.840000 104.400002 C 12.829738 104.531715 12.857505 104.663605 12.920000 104.779999 C 12.920000 104.860001 13.070000 104.889999 13.220000 104.889999 L 13.560000 104.889999 Z" fill="#232F3E"/><path d=" M 16.280001 106.059998 C 15.610507 106.098534 14.960810 105.825363 14.520000 105.320000 C 13.693585 104.056465 13.693585 102.423538 14.520000 101.159996 C 14.960810 100.654633 15.610507 100.381462 16.280001 100.419998 C 16.948971 100.384491 17.597395 100.657127 18.040001 101.159996 C 18.866417 102.423531 18.866417 104.056458 18.040001 105.320000 C 17.597395 105.822868 16.948971 106.095505 16.280001 106.059998 Z M 16.280001 104.970001 C 16.551914 104.973816 16.796547 104.805382 16.890001 104.550003 C 17.041727 104.134262 17.106398 103.691780 17.080002 103.250000 C 17.106049 102.801704 17.041426 102.352753 16.890001 101.930000 C 16.757711 101.590347 16.375126 101.422241 16.035471 101.554527 C 15.863267 101.621597 15.727072 101.757790 15.660002 101.930000 C 15.508577 102.352753 15.443955 102.801704 15.470002 103.250000 C 15.443606 103.691772 15.508277 104.134262 15.660002 104.550003 C 15.744158 104.820793 15.996466 105.003914 16.280003 105.000000 Z" fill="#232F3E"/><path d=" M 22.650000 105.919998 L 22.520000 105.440002 C 22.030655 105.816719 21.436974 106.033234 20.820000 106.060005 C 20.440504 106.089676 20.069439 105.937546 19.820000 105.650002 C 19.576948 105.302841 19.460453 104.882759 19.490000 104.459999 L 19.490000 100.559998 L 21.059999 100.559998 L 21.059999 104.000000 C 21.041153 104.253639 21.085833 104.507973 21.189999 104.739998 C 21.278511 104.885391 21.440077 104.970016 21.609999 104.959999 C 21.871244 104.951279 22.124544 104.868004 22.339998 104.720001 L 22.340000 100.550003 L 23.910000 100.550003 L 23.910000 105.910004 Z" fill="#232F3E"/><path d=" M 28.170000 105.919998 L 28.040001 105.459999 C 27.866716 105.632156 27.663361 105.771118 27.440001 105.870003 C 27.222849 105.967186 26.987900 106.018257 26.750000 106.020004 C 26.175602 106.044159 25.630045 105.767586 25.309999 105.290001 C 24.941074 104.690498 24.763205 103.992966 24.799999 103.290001 C 24.753605 102.551880 24.938898 101.817703 25.330000 101.190002 C 25.654440 100.704590 26.206453 100.421021 26.789999 100.440002 C 26.996428 100.444939 27.200039 100.489059 27.389999 100.570000 C 27.598280 100.642532 27.793968 100.747124 27.969999 100.879997 L 27.969999 98.150002 L 29.549999 98.150002 L 29.549999 105.919998 Z M 27.280001 104.919998 C 27.525036 104.915413 27.763956 104.842697 27.970001 104.709999 L 27.969999 101.709999 C 27.744291 101.560089 27.480867 101.476906 27.209999 101.470001 C 26.928972 101.459351 26.672062 101.627945 26.570000 101.889999 C 26.413265 102.311562 26.345181 102.760925 26.369999 103.209999 C 26.344522 103.657616 26.419699 104.105255 26.589998 104.519997 C 26.697990 104.807770 26.972631 104.998825 27.279999 105.000000 Z" fill="#232F3E"/><path d=" M 30.780001 105.919998 L 30.780001 98.650002 L 34.930000 98.650002 L 34.930000 99.769997 L 32.389999 99.769997 L 32.389999 101.769997 L 34.389999 101.769997 L 34.389999 102.900002 L 32.389999 102.900002 L 32.389999 105.959999 Z" fill="#232F3E"/><path d=" M 37.590000 106.059998 C 36.920506 106.098534 36.270809 105.825363 35.830002 105.320000 C 35.003586 104.056465 35.003586 102.423538 35.830002 101.159996 C 36.779224 100.187973 38.336700 100.169495 39.308723 101.118713 C 39.322647 101.132309 39.336407 101.146072 39.350002 101.159996 C 40.176418 102.423531 40.176418 104.056458 39.350002 105.320000 C 38.907394 105.822868 38.258972 106.095505 37.590004 106.059998 Z M 37.590000 104.970001 C 37.862843 104.976913 38.109112 104.807358 38.200001 104.550003 C 38.351727 104.134262 38.416397 103.691780 38.389999 103.250000 C 38.416046 102.801704 38.351425 102.352753 38.200001 101.930000 C 38.109112 101.672646 37.862846 101.503090 37.590000 101.510002 C 37.314445 101.501862 37.064644 101.671082 36.970001 101.930000 C 36.818577 102.352753 36.753956 102.801704 36.780003 103.250000 C 36.753605 103.691772 36.818279 104.134262 36.970001 104.550003 C 37.054157 104.820793 37.306465 105.003914 37.590000 105.000000 Z" fill="#232F3E"/><path d=" M 40.840000 105.919998 L 40.840000 100.559998 L 42.130001 100.559998 L 42.299999 101.250000 C 42.493530 101.019730 42.727337 100.826584 42.989998 100.680000 C 43.207687 100.561058 43.451935 100.499130 43.699997 100.500000 C 43.823112 100.489655 43.946880 100.489655 44.069996 100.500000 L 44.070000 101.769997 C 43.868961 101.731171 43.664753 101.711090 43.459999 101.709999 C 43.110909 101.717186 42.768379 101.806236 42.459999 101.970001 L 42.459999 105.879997 Z" fill="#232F3E"/><path d=" M 50.349998 105.919998 L 50.349998 102.379997 C 50.367279 102.152283 50.322342 101.924149 50.219997 101.719994 C 50.121037 101.576820 49.953552 101.496880 49.779999 101.509995 C 49.509411 101.526749 49.247688 101.612839 49.020000 101.759995 C 49.024918 101.799843 49.024918 101.840149 49.020000 101.879997 L 49.020000 105.879997 L 47.450001 105.879997 L 47.450001 102.339996 C 47.467281 102.112282 47.422344 101.884148 47.320000 101.679993 C 47.222446 101.535172 47.053944 101.454750 46.880001 101.469994 C 46.612854 101.488426 46.354778 101.574448 46.130001 101.719994 L 46.130001 105.879997 L 44.560001 105.879997 L 44.560001 100.519997 L 45.840000 100.519997 L 46.000000 101.000000 C 46.502220 100.625969 47.104527 100.410118 47.730000 100.379997 C 48.204865 100.341324 48.655750 100.594452 48.869999 101.019997 C 49.376045 100.636162 49.985722 100.413200 50.619999 100.379997 C 50.998737 100.355049 51.367779 100.506355 51.619999 100.790001 C 51.874336 101.120987 51.998825 101.533577 51.969997 101.950005 L 51.970001 105.879997 Z" fill="#232F3E"/><path d=" M 55.799999 105.919998 L 55.660000 105.440002 C 55.514668 105.635208 55.321918 105.790100 55.099998 105.889999 C 54.864960 105.999443 54.609253 106.057404 54.349998 106.059998 C 53.932301 106.083755 53.524479 105.927185 53.230000 105.629997 C 52.637856 104.922340 52.676723 103.881516 53.320000 103.219994 C 53.703369 102.901260 54.191959 102.737213 54.689999 102.759995 C 54.987526 102.767387 55.283043 102.811043 55.570000 102.889992 L 55.570000 102.410004 C 55.597473 102.153770 55.545082 101.895309 55.419998 101.670006 C 55.266163 101.520180 55.053482 101.446846 54.839996 101.470009 C 54.261883 101.490356 53.691002 101.605209 53.149998 101.810005 L 53.150002 100.809998 C 53.420372 100.658180 53.714550 100.553360 54.020000 100.500000 C 54.381203 100.420067 54.750057 100.379829 55.119999 100.379997 C 55.638874 100.333473 56.156319 100.483353 56.570000 100.799995 C 56.901878 101.155388 57.065685 101.635887 57.020000 102.119995 L 57.020000 105.879997 Z M 54.799999 105.050003 C 55.085537 105.038254 55.356468 104.920616 55.559998 104.720001 L 55.560001 103.720001 C 55.364830 103.664909 55.162788 103.637970 54.960003 103.639999 C 54.769058 103.629631 54.583000 103.702599 54.450005 103.839996 C 54.320156 103.996536 54.255684 104.197121 54.270004 104.399994 C 54.259403 104.579140 54.312538 104.756264 54.420006 104.899994 C 54.517506 105.010979 54.663265 105.067039 54.810005 105.049995 Z" fill="#232F3E"/><path d=" M 61.000000 105.790001 C 60.625580 105.928978 60.229382 106.000092 59.830002 106.000000 C 59.063721 106.138634 58.330143 105.629822 58.191509 104.863541 C 58.161995 104.700394 58.161484 104.533325 58.189999 104.370003 L 58.189999 101.610001 L 57.500000 101.610001 L 57.500000 100.730003 L 58.250000 100.580002 L 58.480000 99.110001 L 59.779999 99.110001 L 59.779999 100.559998 L 61.000000 100.559998 L 61.000000 101.559998 L 59.779999 101.559998 L 59.779999 104.190002 C 59.764103 104.371284 59.813782 104.552246 59.919998 104.700005 C 60.063011 104.808128 60.241634 104.858139 60.419998 104.840004 C 60.622047 104.840248 60.823429 104.816750 61.019997 104.770004 Z" fill="#232F3E"/><path d=" M 62.459999 99.690002 C 62.213970 99.702934 61.971825 99.624596 61.779999 99.470001 C 61.611790 99.325485 61.519566 99.111519 61.529999 98.889999 C 61.519447 98.665581 61.611423 98.448517 61.779999 98.300003 C 61.973244 98.148987 62.215248 98.074249 62.459999 98.090004 C 62.701374 98.076721 62.939388 98.151321 63.129997 98.300003 C 63.295090 98.451012 63.386341 98.666359 63.379997 98.889999 C 63.386101 99.110710 63.294640 99.322891 63.129997 99.470001 C 62.940788 99.622261 62.702637 99.700462 62.459999 99.690002 Z M 61.669998 105.919998 L 61.669998 100.559998 L 63.240002 100.559998 L 63.240002 105.919998 Z" fill="#232F3E"/><path d=" M 66.529999 106.059998 C 65.861031 106.095505 65.212608 105.822868 64.769997 105.320000 C 63.943581 104.056465 63.943581 102.423538 64.769997 101.159996 C 65.719223 100.187973 67.276695 100.169495 68.248718 101.118713 C 68.262642 101.132309 68.276405 101.146072 68.290001 101.159996 C 69.116417 102.423531 69.116417 104.056458 68.290001 105.320000 C 67.849190 105.825363 67.199493 106.098534 66.529999 106.059998 Z M 66.529999 104.970001 C 66.804649 104.975075 67.052841 104.806946 67.150002 104.550003 C 67.296753 104.133018 67.361282 103.691544 67.340004 103.250000 C 67.360870 102.801933 67.296394 102.353989 67.150002 101.930000 C 67.052849 101.673058 66.804657 101.504921 66.529999 101.510002 C 66.257156 101.503090 66.010887 101.672646 65.919998 101.930000 C 65.768570 102.352753 65.703949 102.801704 65.729996 103.250000 C 65.703598 103.691772 65.768272 104.134262 65.919998 104.550003 C 66.000252 104.819237 66.249077 105.002792 66.529999 105.000000 Z" fill="#232F3E"/><path d=" M 72.750000 105.919998 L 72.750000 102.389999 C 72.769958 102.157776 72.721275 101.924805 72.610001 101.720001 C 72.501404 101.571922 72.322754 101.492104 72.139999 101.510002 C 71.862793 101.524696 71.594101 101.610817 71.360001 101.760002 L 71.360001 105.919998 L 69.790001 105.919998 L 69.790001 100.559998 L 71.070000 100.559998 L 71.199997 101.040001 C 71.711754 100.662529 72.324646 100.446625 72.959999 100.419998 C 73.335709 100.401146 73.700935 100.547234 73.959999 100.820000 C 74.214188 101.154907 74.338524 101.570518 74.309998 101.989998 L 74.309998 105.919998 Z" fill="#232F3E"/></g><g id="ICONS_-_EDIT"><path d=" M 43.000000 45.619999 L 43.000000 43.619999 L 57.450001 43.619999 C 57.590000 43.619999 63.000000 43.009998 63.000000 37.490002 C 63.000000 32.840000 59.130001 31.680000 57.459999 31.400000 C 56.934246 31.308111 56.573318 30.819540 56.639999 30.289999 C 56.639999 28.290001 55.799999 26.840000 54.330002 26.350000 C 53.002434 25.915361 51.545895 26.383389 50.720001 27.510000 C 50.376945 27.942818 49.747974 28.015581 49.315159 27.672525 C 49.172764 27.559660 49.063808 27.410130 49.000004 27.240000 C 48.472881 25.706390 47.616123 24.306908 46.490005 23.139999 C 43.874794 20.423243 39.843208 19.624908 36.390007 21.139999 C 34.301411 22.119396 32.663891 23.857027 31.810007 26.000000 L 30.000000 25.230000 C 31.050831 22.612818 33.060951 20.495394 35.619999 19.309999 C 39.818451 17.456432 44.727684 18.423100 47.910000 21.730000 C 48.895569 22.735361 49.706680 23.897955 50.310001 25.170000 C 51.665691 24.187580 53.412048 23.919483 55.000000 24.450001 C 57.169483 25.240292 58.623051 27.291216 58.650002 29.600000 C 61.869999 30.410000 65.040001 32.840000 65.040001 37.490002 C 65.113617 41.751827 61.832783 45.322922 57.580002 45.610001 Z" fill="#FFFFFF"/><path d=" M 38.000000 61.619999 L 16.000000 61.619999 C 15.447715 61.619999 15.000000 61.172283 15.000000 60.619999 L 15.000000 28.620001 C 15.000000 28.067717 15.447715 27.620001 16.000000 27.620001 L 38.000000 27.620001 C 38.552284 27.620001 39.000000 28.067717 39.000000 28.620001 L 39.000000 36.619999 L 37.000000 36.619999 L 37.000000 29.620001 L 17.000000 29.620001 L 17.000000 59.619999 L 37.000000 59.619999 L 37.000000 42.619999 L 39.000000 42.619999 L 39.000000 60.619999 C 39.000000 61.172283 38.552284 61.619999 38.000000 61.619999 Z" fill="#FFFFFF"/><rect x="20.000000" y="38.620000" width="30.000000" height="2.000000" fill="#FFFFFF"/><rect x="20.000000" y="33.620000" width="8.000000" height="2.000000" fill="#FFFFFF"/><rect x="20.000000" y="43.620000" width="11.000000" height="2.000000" fill="#FFFFFF"/><rect x="20.000000" y="48.620000" width="6.880000" height="2.000000" fill="#FFFFFF"/><rect x="29.000000" y="48.620000" width="5.000000" height="2.000000" fill="#FFFFFF"/><rect x="52.000000" y="38.620000" width="4.000000" height="2.000000" fill="#FFFFFF"/></g></svg>