<svg version="1.1" width="80.000000" height="115.000000" viewBox="0.000000 0.000000 80.000000 115.000000" xmlns="http://www.w3.org/2000/svg" xmlns:xlink="http://www.w3.org/1999/xlink" overflow="hidden"><g id="CARDS"><rect x="1.000000" y="1.000000" width="78.000000" height="78.000000" fill="#232F3E"/><path d=" M 0.000000 0.000000 L 0.000000 80.000000 L 0.000000 80.000000 L 0.000000 115.000000 L 80.000000 115.000000 L 80.000000 80.000000 L 80.000000 80.000000 L 80.000000 0.000000 Z M 1.000000 1.000000 L 79.000000 1.000000 L 79.000000 79.000000 L 1.000000 79.000000 Z" fill="#FFFFFF"/></g><g id="TEXT_-_EDIT"><path d=" M 33.689999 92.349998 L 33.250000 90.529999 L 31.250000 90.529999 L 30.830000 92.349998 L 29.059999 92.349998 L 31.370001 84.720001 L 33.240002 84.720001 L 35.540001 92.349998 Z M 31.510000 89.430000 L 33.000000 89.430000 L 32.240002 86.269997 Z" fill="#232F3E"/><path d=" M 40.889999 92.349998 L 40.000000 86.720001 L 39.110001 92.349998 L 37.189999 92.349998 L 35.410000 84.720001 L 37.110001 84.720001 L 38.169998 90.779999 L 39.080002 85.000000 L 40.919998 85.000000 L 41.860001 90.650002 L 42.860001 84.650002 L 44.520000 84.650002 L 42.740002 92.279999 Z" fill="#232F3E"/><path d=" M 46.840000 89.000000 C 46.345402 88.768761 45.910801 88.426559 45.570000 88.000000 C 45.307678 87.644348 45.170536 87.211830 45.180000 86.769997 C 45.168892 86.354126 45.287739 85.945145 45.520000 85.599998 C 45.745701 85.259720 46.065289 84.992241 46.439999 84.830002 C 46.861813 84.643929 47.319042 84.551804 47.779999 84.560005 C 48.429764 84.562088 49.072483 84.694710 49.669998 84.950005 L 49.669998 86.120003 C 49.134098 85.923050 48.570534 85.811684 48.000000 85.790001 C 47.718163 85.774521 47.439480 85.855652 47.209999 86.020004 C 47.013199 86.172058 46.904575 86.411781 46.919998 86.660004 C 46.912312 86.862022 46.976040 87.060295 47.099998 87.220001 C 47.307770 87.423737 47.552021 87.586571 47.820000 87.700005 L 48.470001 88.019997 C 48.826054 88.187546 49.161602 88.395592 49.470001 88.639999 C 49.698788 88.827263 49.883213 89.062912 50.010002 89.330002 C 50.129375 89.621704 50.187252 89.934906 50.180000 90.250000 C 50.210262 90.886475 49.935429 91.499283 49.439999 91.900002 C 48.864475 92.329575 48.157295 92.545265 47.439999 92.510002 C 47.060139 92.510231 46.681335 92.470001 46.309998 92.389999 C 45.980469 92.326210 45.660961 92.218590 45.359997 92.070000 L 45.360001 90.919998 C 45.687019 91.026825 46.021187 91.110367 46.360001 91.169998 C 46.689121 91.238113 47.023945 91.274940 47.360001 91.279999 C 47.673580 91.302475 47.985077 91.213982 48.240002 91.029999 C 48.446396 90.853905 48.557594 90.590736 48.540001 90.320000 C 48.546089 90.107033 48.471024 89.899704 48.330002 89.739998 C 48.122326 89.543411 47.882092 89.384384 47.620003 89.269997 Z" fill="#232F3E"/><path d=" M 21.000000 106.129997 C 20.431667 106.360519 19.823273 106.476074 19.209999 106.469994 C 16.963333 106.470001 15.840000 105.169998 15.840000 102.570000 C 15.768548 101.512779 16.081020 100.465294 16.719999 99.620003 C 17.369337 98.922134 18.299004 98.554680 19.250000 98.620003 C 19.813498 98.620705 20.372316 98.722313 20.900000 98.920006 L 20.900000 100.129997 C 20.431900 99.991669 19.947899 99.914360 19.459999 99.899994 C 18.920145 99.853134 18.393259 100.082703 18.059999 100.509995 C 17.715200 101.091789 17.558069 101.765701 17.609999 102.439995 L 17.610001 102.690002 C 17.561960 103.351952 17.711622 104.013245 18.040001 104.590004 C 18.365747 105.015533 18.886040 105.245522 19.420000 105.200005 C 19.954687 105.172272 20.484621 105.085068 21.000000 104.940002 Z" fill="#232F3E"/><path d=" M 24.370001 106.250000 C 24.050053 106.367126 23.710520 106.421448 23.370001 106.410004 C 22.974247 106.441948 22.583025 106.307922 22.290001 106.040001 C 22.033888 105.725441 21.908571 105.324425 21.940001 104.919998 L 21.940001 98.209999 L 23.590000 98.209999 L 23.590000 104.750000 C 23.573759 104.888435 23.601765 105.028458 23.670000 105.150002 C 23.745403 105.241234 23.862823 105.286682 23.980000 105.270004 C 24.096441 105.280235 24.213556 105.280235 24.330000 105.270004 Z" fill="#232F3E"/><path d=" M 27.490000 106.489998 C 26.791491 106.526466 26.114342 106.243095 25.650000 105.720001 C 24.783985 104.392052 24.783985 102.677956 25.650000 101.349998 C 26.661747 100.331032 28.307966 100.325180 29.326931 101.336929 C 29.331303 101.341270 29.335659 101.345627 29.339998 101.349998 C 30.206013 102.677948 30.206013 104.392044 29.339998 105.720001 C 28.872551 106.244698 28.191685 106.528084 27.489998 106.489998 Z M 27.490000 105.339996 C 27.776320 105.350388 28.037558 105.177567 28.139999 104.909996 C 28.406797 104.016144 28.406797 103.063843 28.139999 102.169998 C 28.004633 101.813774 27.606121 101.634735 27.249897 101.770103 C 27.065584 101.840141 26.920038 101.985687 26.849998 102.169998 C 26.583200 103.063850 26.583200 104.016151 26.849998 104.909996 C 26.948727 105.175995 27.206415 105.349129 27.489998 105.339996 Z" fill="#232F3E"/><path d=" M 34.410000 106.349998 L 34.279999 105.839996 C 33.763741 106.234428 33.139057 106.461273 32.489998 106.489998 C 32.107651 106.511559 31.737370 106.352333 31.489998 106.059998 C 31.239740 105.696587 31.116686 105.260620 31.139997 104.820000 L 31.139999 100.720001 L 32.790001 100.720001 L 32.790001 104.339996 C 32.769489 104.603439 32.814137 104.867889 32.920002 105.109993 C 33.012516 105.267639 33.188038 105.357353 33.370003 105.339996 C 33.642059 105.331230 33.905869 105.244446 34.130001 105.089996 L 34.130001 100.720001 L 35.779999 100.720001 L 35.779999 106.349998 Z" fill="#232F3E"/><path d=" M 40.430000 106.349998 L 40.299999 105.860001 C 40.119530 106.042419 39.905640 106.188408 39.669998 106.290001 C 39.442375 106.387421 39.197590 106.438423 38.949997 106.440002 C 38.351471 106.464928 37.781788 106.181969 37.439999 105.690002 C 37.045479 105.052330 36.856934 104.308617 36.899998 103.560005 C 36.855648 102.789658 37.051300 102.024506 37.459999 101.370003 C 37.797569 100.858131 38.377205 100.558846 38.989998 100.580002 C 39.205467 100.590401 39.418011 100.634262 39.619999 100.709999 C 39.838535 100.789223 40.044106 100.900436 40.230000 101.040001 L 40.230000 98.209999 L 41.880001 98.209999 L 41.880001 106.349998 Z M 39.509998 105.349998 C 39.766090 105.346977 40.015953 105.270630 40.230000 105.129997 L 40.230000 102.000000 C 39.993343 101.839310 39.715912 101.749138 39.430000 101.739998 C 39.136486 101.731621 38.868946 101.907326 38.760002 102.180000 C 38.593647 102.623573 38.522110 103.097084 38.550003 103.570000 C 38.521812 104.034950 38.600491 104.500175 38.780003 104.930000 C 38.926846 105.190842 39.211548 105.342941 39.510002 105.320000 Z" fill="#232F3E"/><path d=" M 44.720001 106.349998 L 44.720001 99.940002 L 42.720001 99.940002 L 42.720001 98.720001 L 48.410000 98.720001 L 48.410000 99.940002 L 46.410000 99.940002 L 46.410000 106.349998 Z" fill="#232F3E"/><path d=" M 48.770000 106.349998 L 48.770000 100.720001 L 50.119999 100.720001 L 50.299999 101.449997 C 50.500946 101.209991 50.745178 101.009857 51.020000 100.860001 C 51.248909 100.731735 51.507633 100.666191 51.770000 100.669998 C 51.899811 100.660080 52.030190 100.660080 52.160000 100.669998 L 52.160000 102.000000 C 51.946884 101.986336 51.733116 101.986336 51.520000 102.000000 C 51.138165 102.000481 50.761642 102.089478 50.420002 102.260002 L 50.419998 106.370003 Z" fill="#232F3E"/><path d=" M 55.810001 106.349998 L 55.660000 105.839996 C 55.506901 106.044678 55.303722 106.206528 55.070000 106.309998 C 54.826252 106.426201 54.560020 106.487640 54.290001 106.489998 C 53.850822 106.513031 53.422321 106.349617 53.110001 106.040001 C 52.803970 105.709824 52.645168 105.269508 52.670002 104.820000 C 52.646858 104.326881 52.840485 103.848297 53.200001 103.510002 C 53.603382 103.177032 54.117859 103.009109 54.639999 103.040001 C 54.950676 103.047447 55.259422 103.091080 55.559998 103.169998 L 55.560001 102.660004 C 55.587574 102.389763 55.531738 102.117561 55.400002 101.880005 C 55.235477 101.727715 55.012756 101.654694 54.790001 101.680008 C 54.180382 101.693535 53.576546 101.801483 53.000000 102.000008 L 53.000000 101.000000 C 53.287075 100.841576 53.597679 100.730164 53.919998 100.669998 C 54.298016 100.589485 54.683502 100.549255 55.070000 100.549995 C 55.613796 100.502090 56.155880 100.659012 56.590000 100.989998 C 56.939232 101.364204 57.110474 101.870636 57.060001 102.379997 L 57.060001 106.320000 Z M 54.810001 105.430000 C 55.108345 105.418404 55.390972 105.293190 55.600002 105.080002 L 55.599998 104.000000 C 55.397587 103.947983 55.188911 103.924423 54.980000 103.930000 C 54.779263 103.913399 54.581493 103.986649 54.439999 104.129997 C 54.308239 104.297188 54.244003 104.507729 54.259998 104.719994 C 54.249710 104.905304 54.302589 105.088631 54.410000 105.239990 C 54.494926 105.354698 54.627377 105.424606 54.770000 105.429993 Z" fill="#232F3E"/><path d=" M 59.349998 99.809998 C 59.093857 99.830612 58.839607 99.751831 58.639999 99.589996 C 58.460804 99.439140 58.361183 99.214073 58.369999 98.979996 C 58.359642 98.745628 58.459549 98.519913 58.639999 98.369995 C 59.060440 98.064751 59.629559 98.064751 60.049999 98.369995 C 60.224262 98.523682 60.319809 98.747849 60.309998 98.979996 C 60.316990 99.211624 60.221935 99.434639 60.049999 99.589996 C 59.852970 99.749374 59.602779 99.828011 59.349998 99.809998 Z M 58.520000 106.349998 L 58.520000 100.720001 L 60.169998 100.720001 L 60.169998 106.349998 Z" fill="#232F3E"/><path d=" M 64.000000 106.250000 C 63.679802 106.366165 63.340458 106.420456 63.000000 106.410004 C 62.625866 106.409416 62.266865 106.262222 62.000000 106.000000 C 61.736511 105.689018 61.607056 105.286263 61.639999 104.879997 L 61.639999 98.209999 L 63.290001 98.209999 L 63.290001 104.750000 C 63.279198 104.888161 63.306889 105.026619 63.370003 105.150002 C 63.450699 105.239822 63.570145 105.284615 63.690002 105.270004 C 63.806473 105.279564 63.923531 105.279564 64.040001 105.270004 Z" fill="#232F3E"/></g><g id="ICONS_-_EDIT"><path d=" M 52.619999 54.709999 L 36.000000 54.709999 L 36.000000 52.709999 L 56.810001 52.709999 C 57.000000 52.689999 63.000000 52.049999 63.000000 46.000000 C 63.000000 40.880001 58.700001 39.610001 56.849998 39.310001 C 56.324532 39.222893 55.959564 38.739201 56.019997 38.210003 C 56.020000 35.980000 55.080002 34.369999 53.439999 33.820000 C 51.947075 33.332188 50.309349 33.851269 49.369999 35.110001 C 49.151192 35.401642 48.791000 35.551083 48.430000 35.500000 C 48.063606 35.448048 47.755856 35.198002 47.630001 34.849998 C 47.057678 33.163311 46.110638 31.628216 44.860001 30.359999 C 41.966049 27.356667 37.503777 26.481791 33.690002 28.169998 C 30.205770 29.834702 27.946836 33.309986 27.840002 37.169998 L 27.920000 38.439999 C 27.934801 38.907764 27.623199 39.323231 27.170000 39.439999 C 25.126472 39.874184 23.409176 41.250248 22.540001 43.149998 L 20.690001 42.389999 C 21.654055 40.153664 23.551603 38.453548 25.880001 37.739998 L 25.879999 37.200001 C 25.969002 32.529251 28.713139 28.317951 32.950001 26.350000 C 37.485992 24.355915 42.782227 25.370596 46.260002 28.900000 C 47.363056 30.008133 48.263344 31.301027 48.920002 32.720001 C 50.395451 31.613352 52.319374 31.299547 54.070004 31.880001 C 56.340000 32.639999 57.770000 34.700001 57.990002 37.459999 C 61.509998 38.310001 64.989998 40.919998 64.989998 45.959999 C 64.989998 52.310001 59.689999 54.459999 56.889999 54.709999 Z" fill="#FFFFFF"/><rect x="15.020000" y="52.710000" width="2.000000" height="2.000000" fill="#FFFFFF"/><rect x="19.020000" y="52.710000" width="7.000000" height="2.000000" fill="#FFFFFF"/><rect x="28.020000" y="52.710000" width="6.000000" height="2.000000" fill="#FFFFFF"/><rect x="16.020000" y="48.710000" width="9.000000" height="2.000000" fill="#FFFFFF"/><rect x="32.020000" y="48.710000" width="12.000000" height="2.000000" fill="#FFFFFF"/><rect x="28.020000" y="44.710000" width="6.000000" height="2.000000" fill="#FFFFFF"/><rect x="18.020000" y="44.710000" width="8.000000" height="2.000000" fill="#FFFFFF"/><rect x="27.020000" y="48.710000" width="3.000000" height="2.000000" fill="#FFFFFF"/></g></svg>