<svg version="1.1" width="80.000000" height="115.000000" viewBox="0.000000 0.000000 80.000000 115.000000" xmlns="http://www.w3.org/2000/svg" xmlns:xlink="http://www.w3.org/1999/xlink" overflow="hidden"><g id="CARDS"><rect x="1.000000" y="1.000000" width="78.000000" height="78.000000" fill="#232F3E"/><path d=" M 0.000000 0.000000 L 0.000000 80.000000 L 0.000000 80.000000 L 0.000000 115.000000 L 80.000000 115.000000 L 80.000000 80.000000 L 80.000000 80.000000 L 80.000000 0.000000 Z M 1.000000 1.000000 L 79.000000 1.000000 L 79.000000 79.000000 L 1.000000 79.000000 Z" fill="#FFFFFF"/></g><g id="TEXT_-_EDIT"><path d=" M 25.350000 92.349998 L 24.920000 90.529999 L 22.920000 90.529999 L 22.500000 92.349998 L 20.719999 92.349998 L 23.000000 84.720001 L 24.900000 84.720001 L 27.209999 92.349998 Z M 23.170000 89.430000 L 24.660000 89.430000 L 23.900000 86.269997 Z" fill="#232F3E"/><path d=" M 34.060001 92.349998 L 34.060001 88.639999 C 34.076664 88.401566 34.028278 88.163086 33.920002 87.949997 C 33.819908 87.796371 33.642418 87.711487 33.460003 87.729996 C 33.174831 87.743271 32.898491 87.833084 32.660004 87.989998 C 32.664822 88.029854 32.664822 88.070145 32.660004 88.110001 L 32.660000 92.349998 L 31.000000 92.349998 L 31.000000 88.639999 C 31.019257 88.402504 30.974358 88.164200 30.870001 87.949997 C 30.765142 87.796478 30.585056 87.712181 30.400002 87.729996 C 30.121338 87.744865 29.851856 87.834694 29.620001 87.989998 L 29.620001 92.349998 L 28.000000 92.349998 L 28.000000 86.720001 L 29.350000 86.720001 L 29.480000 87.230003 C 30.005705 86.838974 30.635632 86.612755 31.289999 86.580002 C 31.787903 86.543671 32.259682 86.807076 32.489998 87.250000 C 33.020988 86.851845 33.657448 86.618820 34.320000 86.580002 C 34.698605 86.567619 35.063778 86.720993 35.320000 87.000000 C 35.580429 87.351334 35.707973 87.783562 35.680000 88.220001 L 35.680000 92.349998 Z" fill="#232F3E"/><path d=" M 40.000000 92.349998 L 39.860001 91.839996 C 39.704742 92.042564 39.502155 92.203949 39.270000 92.309998 C 39.023094 92.427322 38.753361 92.488777 38.480000 92.489998 C 38.038441 92.498497 37.613724 92.320625 37.310001 92.000000 C 37.006588 91.668808 36.851307 91.228241 36.880001 90.779999 C 36.856857 90.286880 37.050484 89.808296 37.410000 89.470001 C 37.807274 89.133095 38.320316 88.964470 38.840000 89.000000 C 39.154030 89.006668 39.466179 89.050301 39.770000 89.129997 L 39.770000 88.620003 C 39.797573 88.349762 39.741737 88.077560 39.610001 87.840004 C 39.445477 87.687714 39.222755 87.614693 39.000000 87.640007 C 38.395546 87.665237 37.798565 87.783279 37.230000 87.990005 L 37.230000 87.000000 C 37.516563 86.840446 37.827354 86.728966 38.149998 86.669998 C 38.528015 86.589485 38.913502 86.549255 39.299999 86.549995 C 39.843796 86.502090 40.385880 86.659012 40.820000 86.989998 C 41.164772 87.366852 41.335323 87.871239 41.290001 88.379997 L 41.290001 92.320000 Z M 39.000000 91.430000 C 39.298344 91.418404 39.580971 91.293190 39.790001 91.080002 L 39.790001 90.000000 C 39.587475 89.948616 39.378887 89.925064 39.170002 89.930000 C 38.969070 89.911972 38.770714 89.985435 38.630001 90.129997 C 38.490948 90.293694 38.422604 90.505920 38.440002 90.719994 C 38.429714 90.905304 38.482594 91.088631 38.590004 91.239990 C 38.687565 91.366325 38.840549 91.437218 39.000004 91.429993 Z" fill="#232F3E"/><path d=" M 42.279999 92.349998 L 42.279999 91.279999 L 44.770000 87.879997 L 42.369999 87.879997 L 42.369999 86.720001 L 46.509998 86.720001 L 46.509998 87.790001 L 44.000000 91.190002 L 46.540001 91.190002 L 46.540001 92.349998 Z" fill="#232F3E"/><path d=" M 49.790001 92.489998 C 49.108715 92.511253 48.453094 92.229225 48.000000 91.720001 C 47.133984 90.392052 47.133984 88.677956 48.000000 87.349998 C 49.011749 86.331032 50.657967 86.325180 51.676933 87.336929 C 51.681305 87.341270 51.685661 87.345627 51.690002 87.349998 C 52.556019 88.677948 52.556019 90.392044 51.690002 91.720001 C 51.211487 92.259041 50.508781 92.543823 49.790001 92.489998 Z M 49.790001 91.339996 C 50.076321 91.350388 50.337559 91.177567 50.440002 90.909996 C 50.706799 90.016144 50.706799 89.063843 50.440002 88.169998 C 50.304638 87.813774 49.906124 87.634735 49.549900 87.770103 C 49.365585 87.840141 49.220043 87.985687 49.150002 88.169998 C 48.883205 89.063850 48.883205 90.016151 49.150002 90.909996 C 49.248730 91.175995 49.506416 91.349129 49.790001 91.339996 Z" fill="#232F3E"/><path d=" M 56.549999 92.349998 L 56.549999 88.650002 C 56.566494 88.408363 56.518166 88.166710 56.410000 87.950005 C 56.294102 87.793236 56.103878 87.709541 55.910000 87.730003 C 55.621128 87.739960 55.340698 87.829971 55.099998 87.990005 L 55.099998 92.349998 L 53.439999 92.349998 L 53.439999 86.720001 L 54.790001 86.720001 L 54.930000 87.230003 C 55.464371 86.833908 56.105400 86.607452 56.770000 86.580002 C 57.171432 86.553581 57.563728 86.707565 57.840000 87.000000 C 58.102020 87.350540 58.229740 87.783371 58.200001 88.220001 L 58.200001 92.349998 Z" fill="#232F3E"/><path d=" M 17.000000 106.129997 C 16.435158 106.360497 15.830032 106.476082 15.220000 106.469994 C 12.973333 106.470001 11.850000 105.169998 11.850000 102.570000 C 11.778548 101.512779 12.091020 100.465294 12.730000 99.620003 C 13.378504 98.920914 14.308779 98.553215 15.260000 98.620003 C 15.823499 98.620705 16.382317 98.722313 16.910000 98.920006 L 16.910000 100.129997 C 16.438503 99.991577 15.951185 99.914284 15.460000 99.899994 C 14.920755 99.856819 14.395546 100.085663 14.060000 100.509995 C 13.723435 101.094772 13.570154 101.767120 13.620001 102.439995 L 13.620000 102.690002 C 13.566975 103.352310 13.716965 104.015060 14.050000 104.590004 C 14.375746 105.015533 14.896040 105.245522 15.430000 105.200005 C 15.961387 105.172112 16.487991 105.084900 17.000000 104.940002 Z" fill="#232F3E"/><path d=" M 20.440001 106.250000 C 20.119802 106.366165 19.780457 106.420456 19.440001 106.410004 C 19.051651 106.422470 18.675367 106.274124 18.400000 106.000000 C 18.136511 105.689018 18.007053 105.286263 18.039999 104.879997 L 18.040001 98.209999 L 19.690001 98.209999 L 19.690001 104.750000 C 19.679199 104.888161 19.706890 105.026619 19.770000 105.150002 C 19.849672 105.241310 19.969936 105.286407 20.090000 105.270004 C 20.206470 105.279564 20.323528 105.279564 20.440001 105.270004 Z" fill="#232F3E"/><path d=" M 23.559999 106.489998 C 22.861233 106.527954 22.183464 106.244324 21.719999 105.720001 C 20.853985 104.392052 20.853985 102.677956 21.719999 101.349998 C 22.183464 100.825676 22.861233 100.542038 23.559999 100.580002 C 24.259285 100.539024 24.938324 100.823189 25.400000 101.349998 C 26.279154 102.674011 26.279154 104.395981 25.400000 105.720001 C 24.938324 106.246819 24.259285 106.530983 23.559999 106.489998 Z M 23.559999 105.339996 C 23.846319 105.350388 24.107557 105.177567 24.209999 104.909996 C 24.465134 104.014481 24.465134 103.065514 24.209999 102.169998 C 24.110918 101.898483 23.848890 101.721115 23.559999 101.729996 C 23.272861 101.719078 23.012627 101.897987 22.920000 102.169998 C 22.653202 103.063850 22.653202 104.016151 22.920000 104.909996 C 23.016113 105.178047 23.275509 105.352325 23.559999 105.339996 Z" fill="#232F3E"/><path d=" M 30.480000 106.349998 L 30.340000 105.839996 C 29.828083 106.235382 29.206244 106.462456 28.559999 106.489998 C 28.177652 106.511559 27.807371 106.352333 27.559999 106.059998 C 27.301697 105.700417 27.177828 105.261566 27.209999 104.820000 L 27.209999 100.720001 L 28.860001 100.720001 L 28.860001 104.339996 C 28.839489 104.603439 28.884136 104.867889 28.990000 105.109993 C 29.082512 105.267639 29.258038 105.357353 29.440001 105.339996 C 29.712059 105.331230 29.975864 105.244446 30.200001 105.089996 L 30.200001 100.720001 L 31.850000 100.720001 L 31.850000 106.349998 Z" fill="#232F3E"/><path d=" M 36.500000 106.349998 L 36.369999 105.860001 C 36.184742 106.041252 35.967823 106.186996 35.730000 106.290001 C 35.506145 106.388222 35.264454 106.439285 35.020000 106.440002 C 34.421070 106.466835 33.850513 106.183449 33.510002 105.690002 C 33.115482 105.052330 32.926937 104.308617 32.970001 103.560005 C 32.922668 102.790710 33.114807 102.025650 33.520000 101.370003 C 33.857571 100.858131 34.437206 100.558846 35.049999 100.580002 C 35.268848 100.589363 35.484840 100.633240 35.689999 100.709999 C 35.907570 100.791359 36.112846 100.902412 36.299999 101.040001 L 36.299999 98.209999 L 38.000000 98.209999 L 38.000000 106.349998 Z M 35.570000 105.349998 C 35.828999 105.345612 36.081707 105.269455 36.299999 105.129997 L 36.299999 102.000000 C 36.062630 101.840775 35.785625 101.750748 35.500000 101.739998 C 35.205639 101.728607 34.936512 101.905350 34.830002 102.180000 C 34.663647 102.623573 34.592110 103.097084 34.620003 103.570000 C 34.591812 104.034950 34.670490 104.500175 34.850002 104.930000 C 34.991600 105.191101 35.273949 105.344040 35.570004 105.320000 Z" fill="#232F3E"/><path d=" M 44.299999 106.349998 L 43.349998 100.720001 L 42.459999 106.349998 L 40.599998 106.349998 L 38.810001 98.720001 L 40.509998 98.720001 L 41.570000 104.779999 L 42.490002 99.000000 L 44.320000 99.000000 L 45.259998 104.650002 L 46.259998 98.650002 L 48.000000 98.650002 L 46.209999 106.279999 Z" fill="#232F3E"/><path d=" M 51.540001 106.349998 L 51.389999 105.839996 C 51.236900 106.044678 51.033722 106.206528 50.799999 106.309998 C 50.556252 106.426201 50.290020 106.487640 50.020000 106.489998 C 49.580822 106.513031 49.152321 106.349617 48.840000 106.040001 C 48.533970 105.709824 48.375168 105.269508 48.400002 104.820000 C 48.376858 104.326881 48.570484 103.848297 48.930000 103.510002 C 49.333866 103.177910 49.847988 103.010109 50.369999 103.040001 C 50.680767 103.046326 50.989647 103.089973 51.289997 103.169998 L 51.290001 102.660004 C 51.317574 102.389763 51.261738 102.117561 51.130001 101.880005 C 50.965477 101.727715 50.742756 101.654694 50.520000 101.680008 C 49.915546 101.705238 49.318565 101.823280 48.750000 102.030006 L 48.750000 101.029999 C 49.037075 100.871574 49.347679 100.760162 49.669998 100.699997 C 50.048096 100.619995 50.433529 100.579773 50.820000 100.579994 C 51.363796 100.532089 51.905880 100.689011 52.340000 101.019997 C 52.689232 101.394203 52.860474 101.900635 52.810001 102.409996 L 52.810001 106.349998 Z M 50.540001 105.430000 C 50.838345 105.418404 51.120972 105.293190 51.330002 105.080002 L 51.330002 104.000000 C 51.127590 103.947983 50.918915 103.924423 50.710003 103.930000 C 50.509457 103.914780 50.312252 103.987816 50.170002 104.129997 C 50.038242 104.297188 49.974007 104.507729 49.990002 104.719994 C 49.979713 104.905304 50.032593 105.088631 50.140003 105.239990 C 50.224930 105.354698 50.357380 105.424606 50.500004 105.429993 Z" fill="#232F3E"/><path d=" M 57.250000 106.199997 C 56.856457 106.346306 56.439857 106.420822 56.020000 106.419998 C 55.544888 106.461807 55.071987 106.318504 54.700001 106.019997 C 54.399147 105.656647 54.252037 105.190201 54.290001 104.719994 L 54.290001 101.820000 L 53.560001 101.820000 L 53.560001 100.900002 L 54.340000 100.750000 L 54.580002 99.209999 L 55.939999 99.209999 L 55.939999 100.720001 L 57.220001 100.720001 L 57.220001 101.820000 L 55.939999 101.820000 L 55.939999 104.589996 C 55.921528 104.776146 55.975220 104.962288 56.090000 105.109993 C 56.236588 105.234970 56.428745 105.292976 56.619999 105.269997 C 56.832237 105.265694 57.043423 105.238876 57.250000 105.189995 Z" fill="#232F3E"/><path d=" M 61.759998 106.089996 C 61.567085 106.213348 61.353760 106.301392 61.129997 106.349998 C 60.864288 106.410645 60.592537 106.440842 60.319996 106.439995 C 59.627277 106.490982 58.949341 106.222023 58.479996 105.709991 C 58.018711 105.088364 57.795227 104.322128 57.849995 103.549988 C 57.799217 102.771988 58.037846 102.002678 58.519993 101.389984 C 58.996395 100.867004 59.683823 100.587616 60.389992 100.629982 C 60.859943 100.630127 61.322968 100.743309 61.739990 100.959984 L 61.740002 101.959999 C 61.419514 101.841644 61.081566 101.777435 60.740002 101.769997 C 60.378849 101.733589 60.024181 101.884514 59.800003 102.169998 C 59.582073 102.563194 59.484692 103.011833 59.520004 103.459999 L 59.520000 103.620003 C 59.483051 104.065079 59.580597 104.511002 59.799999 104.900002 C 60.008991 105.182068 60.350586 105.333885 60.700001 105.300003 C 61.069382 105.292480 61.434715 105.221443 61.780003 105.090004 Z" fill="#232F3E"/><path d=" M 65.919998 106.349998 L 65.919998 102.650002 C 65.936493 102.408363 65.888161 102.166710 65.779999 101.950005 C 65.662827 101.794846 65.473557 101.711563 65.279999 101.730003 C 64.987968 101.739677 64.704247 101.829636 64.459999 101.990005 L 64.459999 106.349998 L 62.810001 106.349998 L 62.810001 98.209999 L 64.459999 98.209999 L 64.459999 101.120003 C 64.959480 100.788506 65.540916 100.601616 66.139999 100.580002 C 66.538467 100.553772 66.927635 100.707970 67.199997 101.000000 C 67.469727 101.347038 67.601517 101.781601 67.570000 102.220001 L 67.570000 106.349998 Z" fill="#232F3E"/></g><g id="ICONS_-_EDIT"><path d=" M 33.860001 50.250000 L 23.110001 50.250000 C 22.015800 50.246956 20.944702 49.934986 20.020000 49.349998 C 16.975601 47.492954 15.150506 44.155201 15.230000 40.590000 C 15.031189 36.449608 17.686016 32.708904 21.660000 31.530001 C 21.660000 31.280001 21.660000 31.020000 21.660000 30.770000 C 21.769981 25.663612 24.754450 21.057236 29.369999 18.870001 C 34.348991 16.669888 40.172527 17.821003 43.939999 21.750000 C 45.186623 23.002077 46.202229 24.464554 46.939999 26.070000 C 47.966892 25.246889 49.243935 24.798864 50.559998 24.799999 C 53.240002 24.799999 56.250000 26.799999 56.820000 31.290001 C 59.349998 31.889999 64.540001 33.959999 64.540001 40.650002 C 64.705688 44.075893 62.894558 47.293953 59.880001 48.930000 L 58.880001 47.180000 C 61.251404 45.887745 62.667912 43.346592 62.520000 40.650002 C 62.520000 34.880001 57.730000 33.439999 55.669998 33.099998 C 55.404095 33.050468 55.169598 32.895340 55.019997 32.669998 C 54.873375 32.460552 54.812538 32.202904 54.849998 31.949999 C 54.570000 28.389999 52.490002 26.799999 50.540001 26.799999 C 49.280945 26.823496 48.106457 27.438526 47.370003 28.459999 C 47.038422 28.901669 46.411575 28.990911 45.969906 28.659330 C 45.814339 28.542540 45.696217 28.382912 45.630001 28.200001 C 44.982128 26.325478 43.926819 24.617857 42.540001 23.200001 C 39.340488 19.866337 34.398655 18.887558 30.170000 20.750000 C 26.303539 22.629583 23.802435 26.502632 23.680000 30.799999 C 23.680857 31.257809 23.707565 31.715202 23.760000 32.169998 C 23.794559 32.452297 23.707279 32.735958 23.520000 32.949997 C 23.371212 33.117504 23.170483 33.230194 22.950001 33.269997 C 19.496729 33.973690 17.080070 37.100880 17.270000 40.619995 C 17.189817 43.499771 18.664196 46.200249 21.130001 47.689995 C 21.729052 48.068333 22.421520 48.272610 23.130001 48.279995 L 33.860001 48.279999 Z" fill="#FFFFFF"/><path d=" M 47.360001 55.250000 C 41.561012 55.250000 36.860001 50.548988 36.860001 44.750000 C 36.860001 38.951012 41.561012 34.250000 47.360001 34.250000 C 53.158989 34.250000 57.860001 38.951012 57.860001 44.750000 C 57.854488 50.546703 53.156704 55.244488 47.360001 55.250000 Z M 47.360001 36.250000 C 42.665581 36.250000 38.860001 40.055580 38.860001 44.750000 C 38.860001 49.444420 42.665581 53.250000 47.360001 53.250000 C 52.054420 53.250000 55.860001 49.444420 55.860001 44.750000 C 55.854488 40.057865 52.052135 36.255512 47.360001 36.250000 Z" fill="#FFFFFF"/><path d=" M 43.310001 48.810001 C 40.894608 47.089054 40.331650 43.735886 42.052597 41.320492 C 43.773544 38.905098 47.126713 38.342140 49.542107 40.063087 C 49.595448 40.101093 49.648087 40.140068 49.700005 40.180000 L 48.509998 41.790001 C 47.015640 40.684376 44.908234 40.997578 43.799999 42.490002 C 42.700127 43.985790 43.012665 46.088722 44.500000 47.200001 Z" fill="#FFFFFF"/><path d=" M 61.240002 62.240002 C 60.310730 62.247421 59.416016 61.888096 58.750000 61.240002 L 51.250000 53.740002 L 52.669998 52.330002 L 60.160000 59.820000 C 60.763569 60.399067 61.716431 60.399067 62.320000 59.820000 C 62.913704 59.226513 62.913883 58.264103 62.320396 57.670395 C 62.320263 57.670261 62.320133 57.670132 62.320000 57.669998 L 54.730000 50.000000 L 56.150002 48.590000 L 63.740002 56.220001 C 65.109665 57.599609 65.101608 59.828335 63.722004 61.198002 C 63.062130 61.853123 62.169849 62.220531 61.240002 62.220001 Z" fill="#FFFFFF"/></g></svg>