<svg version="1.1" width="80.000000" height="100.000000" viewBox="0.000000 0.000000 80.000000 100.000000" xmlns="http://www.w3.org/2000/svg" xmlns:xlink="http://www.w3.org/1999/xlink" overflow="hidden"><g id="CARDS"><rect x="1.000000" y="1.000000" width="78.000000" height="78.000000" fill="#232F3E"/><path d=" M 0.000000 0.000000 L 0.000000 80.000000 L 0.000000 80.000000 L 0.000000 100.000000 L 80.000000 100.000000 L 80.000000 80.000000 L 80.000000 80.000000 L 80.000000 0.000000 Z M 1.000000 1.000000 L 79.000000 1.000000 L 79.000000 79.000000 L 1.000000 79.000000 Z" fill="#FFFFFF"/></g><g id="TEXT_-_EDIT"><path d=" M 17.059999 92.349998 L 16.620001 90.529999 L 14.620000 90.529999 L 14.200000 92.349998 L 12.430000 92.349998 L 14.740000 84.720001 L 16.610001 84.720001 L 18.910000 92.349998 Z M 14.870000 89.430000 L 16.370001 89.430000 L 15.610000 86.269997 Z" fill="#232F3E"/><path d=" M 24.260000 92.349998 L 23.320000 86.720001 L 22.430000 92.349998 L 20.559999 92.349998 L 18.780001 84.720001 L 20.480000 84.720001 L 21.540001 90.779999 L 22.450001 85.000000 L 24.280001 85.000000 L 25.219999 90.650002 L 26.219999 84.650002 L 27.879999 84.650002 L 26.100000 92.279999 Z" fill="#232F3E"/><path d=" M 30.209999 89.000000 C 29.714529 88.765594 29.277328 88.424026 28.929998 88.000000 C 28.671232 87.643089 28.537642 87.210678 28.549999 86.769997 C 28.538889 86.354126 28.657740 85.945145 28.889999 85.599998 C 29.115702 85.259720 29.435287 84.992241 29.809999 84.830002 C 30.231813 84.643929 30.689041 84.551804 31.150000 84.560005 C 31.789660 84.583160 32.418407 84.732697 33.000000 85.000008 L 33.000000 86.169998 C 32.448254 85.967827 31.867393 85.856377 31.280001 85.839996 C 30.995245 85.826157 30.713926 85.907036 30.480001 86.070000 C 30.289700 86.226288 30.185627 86.464165 30.200001 86.709999 C 30.192314 86.912018 30.256044 87.110291 30.380001 87.269997 C 30.587774 87.473732 30.832022 87.636566 31.100000 87.750000 L 31.750000 88.070000 C 32.107838 88.234238 32.443771 88.442520 32.750000 88.690002 C 32.985207 88.873383 33.173676 89.109825 33.299999 89.380005 C 33.419373 89.671707 33.477249 89.984909 33.469997 90.300003 C 33.500259 90.936478 33.225426 91.549286 32.729996 91.950005 C 32.154091 92.378822 31.447189 92.594429 30.729996 92.560005 C 30.346861 92.559677 29.964802 92.519463 29.589996 92.440002 C 29.261326 92.372986 28.942228 92.265503 28.639996 92.120003 L 28.639999 90.919998 C 28.967495 91.025146 29.301548 91.108665 29.639999 91.169998 C 29.969118 91.238113 30.303944 91.274940 30.639999 91.279999 C 30.953577 91.302475 31.265076 91.213982 31.519999 91.029999 C 31.726395 90.853905 31.837591 90.590736 31.819998 90.320000 C 31.826086 90.107033 31.751020 89.899704 31.609999 89.739998 C 31.402323 89.543411 31.162088 89.384384 30.900000 89.269997 Z" fill="#232F3E"/><path d=" M 42.220001 92.129997 C 41.655159 92.360497 41.050034 92.476082 40.440002 92.469994 C 38.193333 92.470001 37.070000 91.169998 37.070000 88.570000 C 37.012760 87.506523 37.343193 86.458374 38.000000 85.620003 C 38.648502 84.920914 39.578777 84.553215 40.529999 84.620003 C 41.093498 84.620705 41.652317 84.722313 42.180000 84.920006 L 42.180000 86.129997 C 41.708504 85.991577 41.221188 85.914284 40.730000 85.899994 C 40.190754 85.856819 39.665546 86.085663 39.329998 86.509995 C 38.993431 87.094772 38.840153 87.767120 38.889999 88.439995 L 38.889999 88.690002 C 38.836975 89.352310 38.986965 90.015060 39.320000 90.590004 C 39.645744 91.015533 40.166039 91.245522 40.700001 91.200005 C 41.231388 91.172112 41.757992 91.084900 42.270000 90.940002 Z" fill="#232F3E"/><path d=" M 45.450001 92.489998 C 44.751232 92.527954 44.073463 92.244324 43.610001 91.720001 C 42.743984 90.392052 42.743984 88.677956 43.610001 87.349998 C 44.621750 86.331032 46.267967 86.325180 47.286934 87.336929 C 47.291306 87.341270 47.295662 87.345627 47.300003 87.349998 C 48.166019 88.677948 48.166019 90.392044 47.300003 91.720001 C 46.832558 92.244698 46.151688 92.528084 45.450005 92.489998 Z M 45.450001 91.339996 C 45.736320 91.350388 45.997559 91.177567 46.100002 90.909996 C 46.366798 90.016144 46.366798 89.063843 46.100002 88.169998 C 46.000919 87.898483 45.738895 87.721115 45.450001 87.729996 C 45.162865 87.719078 44.902626 87.897987 44.810001 88.169998 C 44.543205 89.063850 44.543205 90.016151 44.810001 90.909996 C 44.906113 91.178047 45.165508 91.352325 45.450001 91.339996 Z" fill="#232F3E"/><path d=" M 52.209999 92.349998 L 52.209999 88.650002 C 52.226494 88.408363 52.178165 88.166710 52.070000 87.950005 C 51.952827 87.794846 51.763557 87.711563 51.570000 87.730003 C 51.277969 87.739677 50.994251 87.829636 50.750000 87.990005 L 50.750000 92.349998 L 49.099998 92.349998 L 49.099998 86.720001 L 50.450001 86.720001 L 50.580002 87.230003 C 51.118893 86.835289 51.762653 86.609108 52.430000 86.580002 C 52.828468 86.553772 53.217636 86.707970 53.490002 87.000000 C 53.759731 87.347038 53.891525 87.781601 53.860001 88.220001 L 53.860001 92.349998 Z" fill="#232F3E"/><path d=" M 55.459999 92.349998 L 55.459999 87.820000 L 54.680000 87.820000 L 54.680000 86.900002 L 55.459999 86.750000 L 55.459999 86.089996 C 55.419712 85.545418 55.579739 85.004875 55.910000 84.570000 C 56.259315 84.203087 56.754807 84.012230 57.259998 84.050003 C 57.604069 84.041336 57.945728 84.109673 58.259998 84.250000 L 58.259998 85.250000 C 58.117294 85.231010 57.972702 85.231010 57.829998 85.250000 C 57.641724 85.226089 57.452263 85.284386 57.309998 85.410004 C 57.193657 85.594757 57.140976 85.812500 57.159996 86.030006 L 57.160000 86.769997 L 60.540001 86.769997 L 60.540001 92.400002 L 58.840000 92.400002 L 58.840000 87.820000 L 57.110001 87.820000 L 57.110001 92.349998 Z M 59.669998 85.809998 C 59.413857 85.830612 59.159607 85.751831 58.959999 85.589996 C 58.780804 85.439140 58.681183 85.214073 58.689999 84.979996 C 58.679642 84.745628 58.779549 84.519913 58.959999 84.369995 C 59.380440 84.064751 59.949558 84.064751 60.369999 84.369995 C 60.544262 84.523682 60.639809 84.747849 60.629997 84.979996 C 60.636990 85.211624 60.541935 85.434639 60.369999 85.589996 C 60.172970 85.749374 59.922779 85.828011 59.669998 85.809998 Z" fill="#232F3E"/><path d=" M 64.849998 91.709999 C 64.194321 92.397354 63.105579 92.423027 62.418228 91.767349 C 62.333221 91.686256 62.256744 91.596672 62.189999 91.499992 C 61.816978 90.901863 61.635551 90.204063 61.669998 89.499992 C 61.629978 88.759315 61.814720 88.023834 62.199997 87.389992 C 62.524273 86.896835 63.079948 86.605766 63.669998 86.619995 C 63.912441 86.628639 64.150597 86.686478 64.369995 86.789993 C 64.610794 86.891373 64.825996 87.045090 64.999992 87.239990 L 65.129997 86.760002 L 66.480003 86.760002 L 66.480003 92.000000 C 66.480003 93.860001 65.620003 94.790001 63.910000 94.790001 C 63.273319 94.794128 62.645214 94.643105 62.079998 94.349998 L 62.080002 93.349998 C 62.595829 93.547577 63.138699 93.665596 63.690002 93.699997 C 63.930515 93.715515 64.171097 93.670830 64.389999 93.570000 C 64.561478 93.476830 64.687782 93.318039 64.739998 93.129997 C 64.829323 92.804581 64.866455 92.467049 64.849998 92.129997 Z M 64.190002 91.110001 C 64.426292 91.100060 64.655006 91.023819 64.850006 90.889999 L 64.849998 88.000000 C 64.635658 87.838440 64.378021 87.744431 64.110001 87.730003 C 63.840809 87.727432 63.599724 87.896187 63.510002 88.150002 C 63.358276 88.565742 63.293606 89.008224 63.320004 89.450005 C 63.295822 89.886879 63.367496 90.323753 63.530003 90.730003 C 63.655823 90.975739 63.914318 91.124565 64.190002 91.110001 Z" fill="#232F3E"/></g><g id="ICONS_-_EDIT"><path d=" M 26.059999 29.049999 L 22.059999 29.049999 C 21.507715 29.049999 21.059999 28.602283 21.059999 28.049999 L 21.059999 20.049999 C 21.059999 19.497715 21.507715 19.049999 22.059999 19.049999 L 26.059999 19.049999 C 26.612284 19.049999 27.059999 19.497715 27.059999 20.049999 L 27.059999 28.049999 C 27.059999 28.602283 26.612284 29.049999 26.059999 29.049999 Z M 23.059999 27.049999 L 25.059999 27.049999 L 25.059999 21.049999 L 23.059999 21.049999 Z" fill="#FFFFFF"/><path d=" M 26.059999 51.049999 L 22.059999 51.049999 C 21.507715 51.049999 21.059999 50.602283 21.059999 50.049999 L 21.059999 32.049999 C 21.059999 31.497715 21.507715 31.049999 22.059999 31.049999 L 26.059999 31.049999 C 26.612284 31.049999 27.059999 31.497715 27.059999 32.049999 L 27.059999 50.049999 C 27.059999 50.602283 26.612284 51.049999 26.059999 51.049999 Z M 23.059999 49.049999 L 25.059999 49.049999 L 25.059999 33.049999 L 23.059999 33.049999 Z" fill="#FFFFFF"/><path d=" M 39.060001 37.049999 L 35.000000 37.049999 C 34.447716 37.049999 34.000000 36.602283 34.000000 36.049999 L 34.000000 20.049999 C 34.000000 19.497715 34.447716 19.049999 35.000000 19.049999 L 39.000000 19.049999 C 39.552284 19.049999 40.000000 19.497715 40.000000 20.049999 L 40.000000 36.049999 C 40.000954 36.579678 39.588722 37.018219 39.060001 37.049999 Z M 36.060001 35.049999 L 38.060001 35.049999 L 38.060001 21.049999 L 36.000000 21.049999 Z" fill="#FFFFFF"/><path d=" M 36.060001 51.049999 L 35.000000 51.049999 C 34.447716 51.049999 34.000000 50.602283 34.000000 50.049999 L 34.000000 40.049999 C 34.000000 39.497715 34.447716 39.049999 35.000000 39.049999 L 39.000000 39.049999 C 39.552284 39.049999 40.000000 39.497715 40.000000 40.049999 L 40.000000 42.049999 L 38.000000 42.049999 L 38.000000 41.049999 L 36.000000 41.049999 Z" fill="#FFFFFF"/><path d=" M 52.060001 26.049999 L 48.060001 26.049999 C 47.507717 26.049999 47.060001 25.602283 47.060001 25.049999 L 47.060001 20.049999 C 47.060001 19.497715 47.507717 19.049999 48.060001 19.049999 L 52.060001 19.049999 C 52.612286 19.049999 53.060001 19.497715 53.060001 20.049999 L 53.060001 25.049999 C 53.060001 25.602283 52.612286 26.049999 52.060001 26.049999 Z M 49.060001 24.049999 L 51.060001 24.049999 L 51.060001 21.049999 L 49.060001 21.049999 Z" fill="#FFFFFF"/><path d=" M 53.060001 36.049999 L 51.060001 36.049999 L 51.060001 30.049999 L 49.060001 30.049999 L 49.060001 36.049999 L 47.060001 36.049999 L 47.060001 29.049999 C 47.060001 28.497715 47.507717 28.049999 48.060001 28.049999 L 52.060001 28.049999 C 52.612286 28.049999 53.060001 28.497715 53.060001 29.049999 Z" fill="#FFFFFF"/><path d=" M 28.059999 33.049999 L 20.059999 33.049999 C 19.507715 33.049999 19.059999 32.602283 19.059999 32.049999 L 19.059999 28.049999 C 19.059999 27.497715 19.507715 27.049999 20.059999 27.049999 L 28.059999 27.049999 C 28.612284 27.049999 29.059999 27.497715 29.059999 28.049999 L 29.059999 32.049999 C 29.059999 32.602283 28.612284 33.049999 28.059999 33.049999 Z M 21.059999 31.049999 L 27.059999 31.049999 L 27.059999 29.049999 L 21.059999 29.049999 Z" fill="#FFFFFF"/><path d=" M 41.060001 41.049999 L 33.060001 41.049999 C 32.507717 41.049999 32.060001 40.602283 32.060001 40.049999 L 32.060001 36.049999 C 32.060001 35.497715 32.507717 35.049999 33.060001 35.049999 L 41.060001 35.049999 C 41.612286 35.049999 42.060001 35.497715 42.060001 36.049999 L 42.060001 40.049999 C 42.060001 40.602283 41.612286 41.049999 41.060001 41.049999 Z M 34.060001 39.049999 L 40.060001 39.049999 L 40.060001 37.049999 L 34.060001 37.049999 Z" fill="#FFFFFF"/><path d=" M 54.060001 30.049999 L 46.060001 30.049999 C 45.507717 30.049999 45.060001 29.602283 45.060001 29.049999 L 45.060001 25.049999 C 45.060001 24.497715 45.507717 24.049999 46.060001 24.049999 L 54.060001 24.049999 C 54.612286 24.049999 55.060001 24.497715 55.060001 25.049999 L 55.060001 29.049999 C 55.060001 29.602283 54.612286 30.049999 54.060001 30.049999 Z M 47.060001 28.049999 L 53.060001 28.049999 L 53.060001 26.049999 L 47.060001 26.049999 Z" fill="#FFFFFF"/><path d=" M 36.060001 55.049999 L 16.059999 55.049999 C 15.507714 55.049999 15.059999 54.602283 15.059999 54.049999 L 15.060000 16.049999 C 15.060000 15.497714 15.507715 15.049999 16.060001 15.049999 L 58.060001 15.050000 C 58.612286 15.050000 59.060001 15.497715 59.060001 16.049999 L 59.060001 37.049999 L 57.060001 37.049999 L 57.060001 17.049999 L 17.059999 17.049999 L 17.059999 53.049999 L 36.060001 53.049999 Z" fill="#FFFFFF"/><path d=" M 53.930000 65.000000 L 49.000000 65.000000 C 48.724339 65.001701 48.460205 64.889534 48.270000 64.690002 C 48.069122 64.478630 47.970516 64.190109 48.000000 63.900002 L 48.000000 62.639999 C 47.278320 62.418346 46.578678 62.130455 45.910000 61.779999 L 45.080002 62.709999 C 44.897415 62.918114 44.636719 63.041222 44.360001 63.049999 C 44.083862 63.059719 43.816010 62.954750 43.619999 62.759998 L 40.110001 59.240002 C 39.917812 59.046410 39.813053 58.782703 39.820000 58.510002 C 39.826218 58.234814 39.945595 57.974354 40.150002 57.790001 L 41.090000 56.950001 C 40.733723 56.287537 40.445580 55.590637 40.230000 54.869999 L 39.000000 54.939999 C 38.727810 54.948395 38.462826 54.851711 38.259998 54.669998 C 38.056774 54.481525 37.940891 54.217163 37.939999 53.939999 L 37.939999 49.000000 C 37.939003 48.447716 38.385910 47.999195 38.938194 47.998199 C 38.958809 47.998161 38.979420 47.998764 38.999996 48.000000 L 40.259998 48.070000 C 40.481419 47.353142 40.772820 46.659801 41.129997 46.000000 L 40.130001 45.160000 C 39.925594 44.975647 39.806221 44.715191 39.799999 44.439999 C 39.793053 44.167297 39.897812 43.903591 40.090000 43.709999 L 43.599998 40.189999 C 43.802414 40.005306 44.065994 39.902016 44.340000 39.899998 C 44.613876 39.911793 44.872280 40.030228 45.060001 40.230000 L 45.900002 41.230000 C 46.565205 40.841446 47.268986 40.523071 48.000000 40.279999 L 48.000000 39.000000 C 47.984966 38.726784 48.082546 38.459339 48.270000 38.259998 C 48.468498 38.078739 48.731613 37.985027 49.000000 38.000000 L 54.000000 38.000000 C 54.273678 38.003639 54.533905 38.119293 54.720001 38.320000 C 54.911098 38.517685 55.012367 38.785328 55.000000 39.060001 L 54.919998 40.330002 C 55.639088 40.549911 56.335571 40.837879 57.000000 41.190002 L 57.849998 40.189999 C 58.034351 39.985592 58.294807 39.866219 58.570000 39.859997 C 58.840733 39.863529 59.100651 39.966782 59.299999 40.149998 L 62.810001 43.669998 C 63.210407 44.050385 63.226639 44.683342 62.846252 45.083748 C 62.834480 45.096138 62.822392 45.108227 62.810001 45.119999 L 61.869999 45.959999 C 62.186016 46.613876 62.437214 47.297138 62.619999 48.000000 L 63.889999 48.000000 C 64.163216 47.984966 64.430664 48.082546 64.629997 48.270000 C 64.829529 48.460205 64.941696 48.724339 64.939995 49.000000 L 64.940002 54.000000 C 64.941704 54.275661 64.829536 54.539795 64.630005 54.730000 C 64.427177 54.911713 64.162193 55.008396 63.890003 55.000000 L 62.630001 54.930000 C 62.408581 55.646858 62.117180 56.340199 61.760002 57.000000 L 62.700001 57.840000 C 62.908115 58.022587 63.031223 58.283283 63.040001 58.560001 C 63.044315 58.834175 62.935856 59.098091 62.740002 59.290001 L 59.230000 62.810001 C 59.033348 62.997475 58.771687 63.101421 58.500000 63.100002 C 58.224812 63.093784 57.964352 62.974407 57.779999 62.770000 L 56.939999 61.830002 C 56.272930 62.183899 55.572952 62.471928 54.849998 62.690002 L 54.930000 63.950001 C 54.942368 64.224670 54.841095 64.492317 54.650002 64.690002 C 54.462193 64.887016 54.202190 64.998962 53.930000 65.000000 Z M 50.000000 63.000000 L 52.849998 63.000000 L 52.790001 62.000000 C 52.778351 61.523338 53.104847 61.104755 53.570000 61.000000 C 54.634254 60.758369 55.649040 60.335541 56.570000 59.750000 C 56.983322 59.489128 57.524654 59.565254 57.849998 59.930000 L 58.529999 60.680000 L 60.529999 58.680000 L 59.770000 58.000000 C 59.405254 57.674656 59.329132 57.133324 59.590000 56.720001 C 60.175541 55.799042 60.598370 54.784256 60.840000 53.720001 C 60.944756 53.254848 61.363338 52.928352 61.840000 52.940002 L 62.840000 53.000000 L 62.840000 50.000000 L 61.840000 50.060001 C 61.363338 50.071651 60.944756 49.745155 60.840000 49.280003 C 60.598370 48.215748 60.175541 47.200962 59.590000 46.280003 C 59.340874 45.854935 59.438480 45.311752 59.820000 45.000004 L 60.580002 44.320000 L 58.580002 42.320000 L 57.889999 43.090000 C 57.564655 43.454746 57.023323 43.530869 56.610001 43.270000 C 55.689598 42.683392 54.674622 42.260487 53.610001 42.020000 C 53.144848 41.915245 52.818352 41.496662 52.830002 41.020000 L 52.889999 40.020000 L 50.000000 40.020000 L 50.000000 41.020000 C 50.012665 41.493664 49.691166 41.911190 49.230000 42.020000 C 48.165131 42.259712 47.150028 42.682671 46.230000 43.270000 C 45.825741 43.500610 45.315830 43.421844 45.000000 43.080002 L 44.320000 42.310001 L 42.320000 44.310001 L 43.090000 44.990002 C 43.454746 45.315346 43.530869 45.856678 43.270000 46.270000 C 42.685429 47.192627 42.259533 48.206657 42.010002 49.270000 C 41.905247 49.735153 41.486664 50.061649 41.010002 50.049999 L 40.009998 49.990002 L 40.009998 52.840000 L 41.009998 52.779999 C 41.486660 52.768349 41.905243 53.094845 42.009998 53.559998 C 42.251629 54.624252 42.674458 55.639038 43.259998 56.559998 C 43.520870 56.973320 43.444744 57.514652 43.079998 57.839996 L 42.320000 58.520000 L 44.320000 60.520000 L 44.990002 59.770000 C 45.316616 59.399796 45.864521 59.323345 46.280003 59.590000 C 47.200031 60.177330 48.215134 60.600288 49.280003 60.840000 C 49.741169 60.948811 50.062664 61.366337 50.050003 61.840000 Z" fill="#FFFFFF"/><path d=" M 51.480000 58.000000 C 48.398949 57.993008 45.744720 55.827057 45.119999 52.810001 L 47.119999 52.410000 C 47.614010 54.840054 49.984428 56.409527 52.414482 55.915516 C 54.180641 55.556469 55.560955 54.176159 55.919998 52.410000 L 57.919998 52.810001 C 57.285755 55.854446 54.589687 58.027206 51.480000 58.000000 Z" fill="#FFFFFF"/><path d=" M 55.880001 50.580002 C 55.385990 48.149948 53.015572 46.580475 50.585518 47.074486 C 48.819359 47.433533 47.439045 48.813843 47.080002 50.580002 L 45.080002 50.180000 C 45.793819 46.667469 49.219948 44.398663 52.732479 45.112480 C 55.285702 45.631344 57.281136 47.626778 57.799999 50.180000 Z" fill="#FFFFFF"/><path d=" M 46.310001 56.450001 L 44.310001 56.020000 L 45.040001 52.740002 C 45.168629 52.219616 45.684700 51.893211 46.209999 52.000000 L 49.549999 52.490002 L 49.250000 54.490002 L 46.840000 54.130001 Z" fill="#FFFFFF"/><path d=" M 56.939999 51.000000 L 56.840000 51.000000 L 53.299999 50.619999 L 53.509998 48.619999 L 56.259998 48.919998 L 57.090000 46.560001 L 58.980000 47.230000 L 57.889999 50.330002 C 57.749001 50.733364 57.367287 51.002571 56.939999 51.000000 Z" fill="#FFFFFF"/></g></svg>