<svg version="1.1" width="80.000000" height="115.000000" viewBox="0.000000 0.000000 80.000000 115.000000" xmlns="http://www.w3.org/2000/svg" xmlns:xlink="http://www.w3.org/1999/xlink" overflow="hidden"><g id="CARDS"><rect x="1.000000" y="1.000000" width="78.000000" height="78.000000" fill="#232F3E"/><path d=" M 0.000000 0.000000 L 0.000000 80.000000 L 0.000000 80.000000 L 0.000000 115.000000 L 80.000000 115.000000 L 80.000000 80.000000 L 80.000000 80.000000 L 80.000000 0.000000 Z M 1.000000 1.000000 L 79.000000 1.000000 L 79.000000 79.000000 L 1.000000 79.000000 Z" fill="#FFFFFF"/></g><g id="TEXT_-_EDIT"><path d=" M 10.600000 92.349998 L 10.160000 90.529999 L 8.160000 90.529999 L 7.740000 92.349998 L 6.000000 92.349998 L 8.320000 84.720001 L 10.180000 84.720001 L 12.480000 92.349998 Z M 8.420000 89.430000 L 9.910000 89.430000 L 9.150000 86.269997 Z" fill="#232F3E"/><path d=" M 17.799999 92.349998 L 16.860001 86.720001 L 16.000000 92.349998 L 14.100000 92.349998 L 12.320000 84.720001 L 14.000000 84.720001 L 15.060000 90.779999 L 16.000000 85.000000 L 17.830000 85.000000 L 18.770000 90.650002 L 19.770000 84.650002 L 21.430000 84.650002 L 19.650000 92.279999 Z" fill="#232F3E"/><path d=" M 23.750000 89.000000 C 23.255400 88.768761 22.820801 88.426559 22.480000 88.000000 C 22.217676 87.644348 22.080536 87.211830 22.090000 86.769997 C 22.078890 86.354126 22.197741 85.945145 22.430000 85.599998 C 22.655703 85.259720 22.975288 84.992241 23.350000 84.830002 C 23.771814 84.643929 24.229042 84.551804 24.690001 84.560005 C 25.342911 84.562904 25.988741 84.695473 26.590000 84.950005 L 26.590000 86.120003 C 26.034803 85.917786 25.450649 85.806358 24.860001 85.790001 C 24.578348 85.776108 24.300177 85.857094 24.070000 86.020004 C 23.873201 86.172058 23.764576 86.411781 23.779999 86.660004 C 23.770494 86.863945 23.838354 87.063950 23.969999 87.220001 C 24.171879 87.426239 24.413387 87.589516 24.679998 87.700005 L 25.330000 88.019997 C 25.686050 88.187546 26.021599 88.395592 26.330000 88.639999 C 26.558786 88.827263 26.743212 89.062912 26.870001 89.330002 C 26.988575 89.618439 27.046444 89.928215 27.040001 90.240005 C 27.073513 90.879936 26.798359 91.497177 26.300001 91.900009 C 25.724478 92.329582 25.017298 92.545273 24.300001 92.510010 C 23.920174 92.509644 23.541433 92.469421 23.170002 92.390007 C 22.840471 92.326218 22.520966 92.218597 22.220001 92.070007 L 22.219999 90.919998 C 22.547016 91.026825 22.881186 91.110367 23.219999 91.169998 C 23.549202 91.237587 23.883976 91.274414 24.219999 91.279999 C 24.503317 91.272820 24.776800 91.174644 25.000000 91.000000 C 25.206396 90.823906 25.317593 90.560738 25.299999 90.290001 C 25.306087 90.077034 25.231022 89.869705 25.090000 89.709999 C 24.882324 89.513412 24.642090 89.354385 24.380001 89.239998 Z" fill="#232F3E"/><path d=" M 36.570000 92.349998 L 36.570000 87.000000 L 35.160000 90.459999 L 33.730000 90.459999 L 32.330002 87.000000 L 32.330002 92.320000 L 30.830000 92.320000 L 30.830000 84.720001 L 32.750000 84.720001 L 34.480000 89.000000 L 36.200001 84.730003 L 38.080002 84.730003 L 38.080002 92.360001 Z" fill="#232F3E"/><path d=" M 42.509998 92.349998 L 42.369999 91.839996 C 42.214741 92.042564 42.012154 92.203949 41.779999 92.309998 C 41.533092 92.427322 41.263359 92.488777 40.989998 92.489998 C 40.544983 92.501343 40.116077 92.323235 39.809998 92.000000 C 39.506584 91.668808 39.351303 91.228241 39.379997 90.779999 C 39.356853 90.286880 39.550480 89.808296 39.909996 89.470001 C 40.307270 89.133095 40.820312 88.964470 41.339996 89.000000 C 41.654331 89.010925 41.966373 89.057899 42.269997 89.139999 L 42.270000 88.629997 C 42.297573 88.359756 42.241737 88.087555 42.110001 87.849998 C 41.945477 87.697708 41.722755 87.624687 41.500000 87.650002 C 40.895546 87.675232 40.298565 87.793274 39.730000 88.000000 L 39.730000 87.000000 C 40.016563 86.840446 40.327354 86.728966 40.649998 86.669998 C 41.028015 86.589485 41.413502 86.549255 41.799999 86.549995 C 42.343796 86.502090 42.885880 86.659012 43.320000 86.989998 C 43.664772 87.366852 43.835323 87.871239 43.790001 88.379997 L 43.790001 92.320000 Z M 41.509998 91.430000 C 41.807213 91.413612 42.088181 91.289139 42.299999 91.080002 L 42.299999 90.000000 C 42.097473 89.948616 41.888885 89.925064 41.680000 89.930000 C 41.479069 89.911972 41.280712 89.985435 41.139999 90.129997 C 41.000946 90.293694 40.932602 90.505920 40.950001 90.719994 C 40.939713 90.905304 40.992592 91.088631 41.100002 91.239990 C 41.191196 91.357796 41.331039 91.427719 41.480003 91.429993 Z" fill="#232F3E"/><path d=" M 48.299999 92.349998 L 48.299999 88.650002 C 48.317314 88.403969 48.265350 88.158005 48.149998 87.940002 C 48.032597 87.791763 47.848312 87.712784 47.659996 87.730003 C 47.367786 87.738640 47.083794 87.828682 46.839996 87.990005 L 46.840000 92.349998 L 45.189999 92.349998 L 45.189999 86.720001 L 46.540001 86.720001 L 46.669998 87.230003 C 47.205238 86.835541 47.845749 86.609268 48.509998 86.580002 C 48.911430 86.553581 49.303726 86.707565 49.579998 87.000000 C 49.863472 87.342186 50.012760 87.775826 49.999996 88.220001 L 50.000000 92.349998 Z" fill="#232F3E"/><path d=" M 54.250000 92.349998 L 54.099998 91.839996 C 53.949303 92.046989 53.745441 92.209389 53.509998 92.309998 C 53.266251 92.426201 53.000019 92.487640 52.730000 92.489998 C 52.284748 92.502617 51.855339 92.324303 51.549999 92.000000 C 51.243969 91.669823 51.085167 91.229507 51.110001 90.779999 C 51.086857 90.286880 51.280483 89.808296 51.639999 89.470001 C 52.044342 89.138786 52.558117 88.971092 53.079998 89.000000 C 53.394333 89.010925 53.706375 89.057899 54.009998 89.139999 L 54.009998 88.629997 C 54.035194 88.358681 53.975811 88.086220 53.840000 87.849998 C 53.675476 87.697708 53.452755 87.624687 53.230000 87.650002 C 52.625546 87.675232 52.028564 87.793274 51.459999 88.000000 L 51.459999 87.000000 C 51.747074 86.841576 52.057678 86.730164 52.379997 86.669998 C 52.761398 86.589516 53.150196 86.549301 53.539997 86.549995 C 54.080547 86.503654 54.618950 86.660545 55.049995 86.989998 C 55.399227 87.364204 55.570469 87.870636 55.519997 88.379997 L 55.520000 92.320000 Z M 53.250000 91.430000 C 53.550282 91.414192 53.834591 91.289810 54.049999 91.080002 L 54.049999 90.000000 C 53.844059 89.948677 53.632179 89.925140 53.419998 89.930000 C 53.219452 89.914780 53.022247 89.987816 52.879997 90.129997 C 52.748238 90.297188 52.684002 90.507729 52.699997 90.719994 C 52.689709 90.905304 52.742588 91.088631 52.849998 91.239990 C 52.934925 91.354698 53.067375 91.424606 53.209999 91.429993 Z" fill="#232F3E"/><path d=" M 59.820000 91.709999 C 59.507038 92.044785 59.068272 92.233345 58.610001 92.229996 C 58.036453 92.250259 57.492680 91.974594 57.170002 91.499992 C 56.793476 90.902992 56.608540 90.205109 56.640003 89.499992 C 56.597824 88.757774 56.786457 88.020699 57.180004 87.389992 C 57.502377 86.899887 58.053478 86.609238 58.640003 86.619995 C 58.885834 86.627281 59.127529 86.685158 59.350002 86.789993 C 59.587307 86.897530 59.801315 87.050392 59.980003 87.239990 L 60.099998 86.760002 L 61.450001 86.760002 L 61.450001 92.000000 C 61.450001 93.860001 60.599998 94.790001 58.889999 94.790001 C 58.249989 94.795349 57.618355 94.644310 57.049999 94.349998 L 57.049999 93.349998 C 57.569221 93.547821 58.115421 93.665833 58.669998 93.699997 C 58.910435 93.714272 59.150719 93.669647 59.369999 93.570000 C 59.538620 93.473465 59.663868 93.316017 59.719997 93.129997 C 59.804817 92.803833 59.838554 92.466499 59.819996 92.129997 Z M 59.160000 91.110001 C 59.396286 91.100060 59.625008 91.023819 59.820000 90.889999 L 59.820000 88.000000 C 59.609333 87.838676 59.354939 87.744583 59.090000 87.730003 C 58.820808 87.727432 58.579723 87.896187 58.490002 88.150002 C 58.334038 88.564812 58.265930 89.007492 58.290001 89.450005 C 58.261692 89.884789 58.337093 90.320076 58.510002 90.720001 C 58.627399 90.969910 58.884251 91.124023 59.160004 91.110001 Z" fill="#232F3E"/><path d=" M 64.089996 89.910004 C 64.077431 90.304459 64.204971 90.690620 64.449997 91.000000 C 64.745560 91.246262 65.126877 91.364975 65.509995 91.330002 C 65.739243 91.324608 65.967239 91.294434 66.189995 91.240005 C 66.461525 91.190041 66.728935 91.119843 66.989998 91.030006 L 66.989998 92.029999 C 66.731758 92.177193 66.451508 92.281868 66.159996 92.339996 C 65.831474 92.411812 65.496277 92.448685 65.159996 92.449997 C 63.439999 92.449997 62.590000 91.449997 62.590000 89.500000 C 62.536961 88.715630 62.759819 87.937401 63.220001 87.300003 C 63.674652 86.776291 64.347923 86.495148 65.040001 86.540001 C 66.410004 86.540001 67.040001 87.300003 67.040001 88.830002 C 67.040451 89.166954 67.000160 89.502724 66.919998 89.830002 Z M 65.000000 87.599998 C 64.430000 87.599998 64.120003 88.059998 64.089996 88.970001 L 65.699997 88.970001 L 65.699997 88.720001 C 65.726700 88.422981 65.667702 88.124527 65.529999 87.860001 C 65.413948 87.683182 65.210854 87.583549 65.000000 87.599998 Z" fill="#232F3E"/><path d=" M 71.489998 92.349998 L 71.349998 91.860001 C 71.169525 92.042419 70.955643 92.188408 70.720001 92.290001 C 70.492706 92.388474 70.247711 92.439522 70.000000 92.440002 C 69.401474 92.464928 68.831795 92.181969 68.489998 91.690002 C 67.769997 90.340004 67.769997 88.720001 68.489998 87.370003 C 68.823784 86.864296 69.394234 86.565849 70.000000 86.580002 C 70.215637 86.589058 70.428391 86.632957 70.629997 86.709999 C 70.848534 86.789223 71.054108 86.900436 71.239998 87.040001 L 71.239998 84.209999 L 72.889999 84.209999 L 72.889999 92.349998 Z M 70.559998 91.349998 C 70.816093 91.346977 71.065956 91.270630 71.279999 91.129997 L 71.279999 88.000000 C 71.046196 87.841095 70.772476 87.751007 70.489998 87.739998 C 70.192879 87.727325 69.920189 87.903778 69.809998 88.180000 C 69.652733 88.625710 69.584770 89.098030 69.610001 89.570000 C 69.576958 90.035194 69.655830 90.501541 69.840004 90.930000 C 69.981606 91.191101 70.263954 91.344040 70.560005 91.320000 Z" fill="#232F3E"/><path d=" M 22.520000 103.000000 C 22.025400 102.768761 21.590801 102.426559 21.250000 102.000000 C 20.987677 101.644348 20.850536 101.211830 20.860001 100.769997 C 20.853392 100.354721 20.971857 99.947060 21.200001 99.599998 C 21.425703 99.259720 21.745289 98.992241 22.120001 98.830002 C 22.541815 98.643929 22.999043 98.551804 23.460001 98.560005 C 24.112911 98.562904 24.758741 98.695473 25.360001 98.950005 L 25.360001 100.120003 C 24.804804 99.917786 24.220650 99.806358 23.630001 99.790001 C 23.348349 99.776108 23.070177 99.857094 22.840000 100.020004 C 22.647280 100.175255 22.539665 100.412743 22.549999 100.660004 C 22.540495 100.863945 22.608355 101.063950 22.740000 101.220001 C 22.941879 101.426239 23.183388 101.589516 23.449999 101.700005 L 24.100000 102.019997 C 24.456051 102.187546 24.791599 102.395592 25.100000 102.639999 C 25.328787 102.827263 25.513212 103.062912 25.640001 103.330002 C 25.763332 103.617012 25.821396 103.927826 25.810001 104.240005 C 25.843513 104.879936 25.568359 105.497177 25.070002 105.900009 C 24.494478 106.329582 23.787298 106.545273 23.070002 106.510010 C 22.690174 106.509644 22.311434 106.469421 21.940002 106.390007 C 21.610472 106.326218 21.290966 106.218597 20.990002 106.070007 L 20.990000 104.919998 C 21.317017 105.026825 21.651186 105.110367 21.990000 105.169998 C 22.319298 105.236969 22.654016 105.273788 22.990000 105.279999 C 23.303755 105.304230 23.615845 105.215561 23.869999 105.029999 C 24.076395 104.853905 24.187592 104.590736 24.169998 104.320000 C 24.176086 104.107033 24.101021 103.899704 23.959999 103.739998 C 23.754480 103.545425 23.517887 103.386574 23.259998 103.269997 Z" fill="#232F3E"/><path d=" M 28.160000 103.910004 C 28.147303 104.316750 28.274359 104.715561 28.520000 105.040001 C 28.819164 105.286850 29.203766 105.405472 29.590000 105.370003 C 29.819201 105.363998 30.047129 105.333832 30.270000 105.280006 C 30.540974 105.227577 30.808214 105.157425 31.070000 105.070007 L 31.070000 106.070000 C 30.810202 106.213844 30.530485 106.318314 30.240000 106.379997 C 29.911476 106.451813 29.576279 106.488686 29.240000 106.489998 C 27.520000 106.489998 26.660000 105.489998 26.660000 103.540001 C 26.606962 102.755630 26.829819 101.977402 27.289999 101.340004 C 27.747765 100.814682 28.424765 100.533524 29.119999 100.580002 C 30.480000 100.580002 31.170000 101.339996 31.170000 102.870003 C 31.170452 103.206955 31.130159 103.542725 31.049999 103.870003 Z M 29.080000 101.599998 C 28.500000 101.599998 28.200001 102.059998 28.160000 102.970001 L 29.780001 102.970001 L 29.780001 102.720001 C 29.801418 102.423279 29.742704 102.126259 29.610001 101.860001 C 29.492510 101.684830 29.290442 101.585701 29.080000 101.599998 Z" fill="#232F3E"/><path d=" M 32.310001 106.349998 L 32.310001 100.720001 L 33.660000 100.720001 L 33.840000 101.449997 C 34.040947 101.209991 34.285179 101.009857 34.560001 100.860001 C 34.788910 100.731735 35.047634 100.666191 35.310001 100.669998 C 35.436474 100.660080 35.563530 100.660080 35.690002 100.669998 L 35.689999 102.000000 C 35.480236 101.985909 35.269764 101.985909 35.059998 102.000000 C 34.678036 101.999374 34.301258 102.088432 33.959999 102.260002 L 33.959999 106.370003 Z" fill="#232F3E"/><path d=" M 38.110001 106.349998 L 36.259998 100.720001 L 38.000000 100.720001 L 38.889999 104.720001 L 39.799999 100.720001 L 41.500000 100.720001 L 39.660000 106.349998 Z" fill="#232F3E"/><path d=" M 43.139999 99.809998 C 42.883858 99.830612 42.629608 99.751831 42.430000 99.589996 C 42.250805 99.439140 42.151184 99.214073 42.160000 98.979996 C 42.151077 98.743034 42.250435 98.514877 42.430000 98.359993 C 42.854267 98.066772 43.415733 98.066772 43.840000 98.359993 C 44.012394 98.519234 44.107243 98.745422 44.099998 98.979996 C 44.106991 99.211624 44.011936 99.434639 43.840000 99.589996 C 43.642971 99.749374 43.392780 99.828011 43.139999 99.809998 Z M 42.310001 106.349998 L 42.310001 100.720001 L 44.000000 100.720001 L 44.000000 106.349998 Z" fill="#232F3E"/><path d=" M 49.049999 106.089996 C 48.853363 106.213127 48.636799 106.301109 48.410000 106.349998 C 48.147774 106.411209 47.879269 106.441414 47.610001 106.439995 C 46.914566 106.489639 46.234150 106.221146 45.760002 105.709991 C 45.306225 105.085075 45.086746 104.320442 45.140003 103.549988 C 45.089226 102.771988 45.327854 102.002678 45.810001 101.389984 C 46.286404 100.867004 46.973831 100.587616 47.680000 100.629982 C 48.143799 100.642448 48.597294 100.769569 49.000000 100.999985 L 49.000000 102.000000 C 48.679462 101.881821 48.341545 101.817619 48.000000 101.809998 C 47.641945 101.775215 47.291012 101.926155 47.070000 102.209999 C 46.852070 102.603195 46.754688 103.051834 46.790001 103.500000 L 46.790001 103.660004 C 46.755356 104.103737 46.849083 104.548073 47.060001 104.940002 C 47.270893 105.225334 47.617188 105.377548 47.970001 105.340004 C 48.339382 105.332481 48.704716 105.261444 49.050003 105.130005 Z" fill="#232F3E"/><path d=" M 51.320000 103.910004 C 51.297707 104.318031 51.425793 104.720070 51.680000 105.040001 C 51.975567 105.286263 52.356880 105.404976 52.740002 105.370003 C 52.969204 105.363998 53.197132 105.333832 53.420002 105.280006 C 53.691528 105.230042 53.958942 105.159843 54.220001 105.070007 L 54.220001 106.070000 C 53.961761 106.217194 53.681507 106.321869 53.389999 106.379997 C 53.061474 106.451813 52.726276 106.488686 52.389999 106.489998 C 50.669998 106.489998 49.810001 105.489998 49.810001 103.540001 C 49.755516 102.753960 49.982365 101.974152 50.450001 101.340004 C 50.904652 100.816292 51.577927 100.535149 52.270000 100.580002 C 53.639999 100.580002 54.270000 101.339996 54.270000 102.870003 C 54.270451 103.206955 54.230160 103.542725 54.150002 103.870003 Z M 52.230000 101.599998 C 51.650002 101.599998 51.349998 102.059998 51.320000 102.970001 L 52.930000 102.970001 L 52.930000 102.720001 C 52.956699 102.422981 52.897705 102.124527 52.760002 101.860001 C 52.642513 101.684830 52.440445 101.585701 52.230003 101.599998 Z" fill="#232F3E"/><path d=" M 57.459999 104.769997 C 57.459999 104.519997 57.290001 104.309998 56.939999 104.150002 L 56.220001 103.800003 C 55.546486 103.560318 55.094883 102.924881 55.090000 102.210007 C 55.071606 101.750854 55.276539 101.311180 55.639999 101.030006 C 56.062359 100.712837 56.582470 100.553619 57.110001 100.580009 C 57.639648 100.581734 58.162277 100.701294 58.639999 100.930008 L 58.639999 101.930000 C 58.411827 101.848991 58.177818 101.785477 57.939999 101.739998 C 57.742863 101.696541 57.541843 101.673088 57.340000 101.669998 C 56.830002 101.669998 56.570000 101.849998 56.570000 102.209999 C 56.570000 102.570000 56.779999 102.660004 57.209999 102.870003 L 57.930000 103.209999 C 58.238686 103.342110 58.505074 103.556602 58.700001 103.830002 C 58.868263 104.110268 58.951630 104.433311 58.940002 104.760002 C 58.964760 105.245941 58.761364 105.715607 58.390003 106.029999 C 57.965519 106.351448 57.441914 106.514183 56.910004 106.489998 C 56.276276 106.496170 55.650925 106.344986 55.090004 106.049995 L 55.090000 105.050003 C 55.605827 105.247581 56.148697 105.365601 56.700001 105.400002 C 56.904175 105.412933 57.106270 105.352661 57.270000 105.230003 C 57.401733 105.114784 57.472027 104.944603 57.459999 104.770004 Z" fill="#232F3E"/></g><g id="ICONS_-_EDIT"><path d=" M 39.070000 51.860001 C 38.835098 51.857655 38.608521 51.772690 38.430000 51.619999 C 38.214436 51.441029 38.083839 51.179832 38.070000 50.899998 L 38.000000 49.150002 C 37.393665 49.047523 36.797886 48.890213 36.220001 48.680000 L 35.310001 50.169998 C 35.159805 50.407463 34.916637 50.570786 34.640003 50.619999 C 34.361649 50.671322 34.074581 50.602283 33.850002 50.430000 L 30.059999 47.520000 C 29.838110 47.351231 29.696743 47.097496 29.670000 46.820000 C 29.646643 46.541462 29.740927 46.265862 29.930000 46.060001 L 31.100000 44.759998 C 30.742592 44.243301 30.428204 43.698139 30.160000 43.129997 L 28.500000 43.529999 C 28.224127 43.595695 27.933334 43.541172 27.700001 43.379997 C 27.469202 43.219292 27.316746 42.968822 27.280001 42.689999 L 26.639999 37.900002 C 26.602715 37.619160 26.686304 37.335682 26.869999 37.120003 C 27.050791 36.908169 27.311733 36.781322 27.589998 36.770004 L 29.299999 36.689999 C 29.409235 36.061264 29.569773 35.442532 29.779999 34.840000 L 28.320000 33.930000 C 27.851311 33.637856 27.708193 33.021076 28.000340 32.552387 C 28.015825 32.527542 28.032394 32.503391 28.050001 32.480000 L 30.940001 28.620001 C 31.109140 28.391909 31.367275 28.246481 31.650000 28.220001 C 31.936749 28.193495 32.221004 28.291891 32.430000 28.490002 L 33.669998 29.650000 C 34.177509 29.266697 34.719891 28.931894 35.289997 28.650000 L 34.900002 27.000000 C 34.837261 26.727278 34.891666 26.440744 35.050003 26.209999 C 35.208435 25.981565 35.454811 25.829393 35.730003 25.789999 L 40.450001 25.120001 C 40.729397 25.079971 41.012699 25.159876 41.230000 25.340000 C 41.448082 25.521280 41.578938 25.786629 41.590000 26.070000 L 41.660000 27.799999 C 42.268810 27.906107 42.867596 28.063330 43.450001 28.269999 L 44.360001 26.799999 C 44.508148 26.558735 44.751621 26.391575 45.029999 26.340000 C 45.308353 26.288675 45.595421 26.357718 45.820000 26.530001 L 49.610001 29.440001 C 50.048767 29.775414 50.132549 30.403011 49.797138 30.841778 C 49.779114 30.865355 49.760052 30.888119 49.740002 30.910000 L 48.570000 32.200001 C 48.933178 32.713024 49.247864 33.258709 49.509998 33.830002 L 51.160000 33.439999 C 51.696327 33.308205 52.237949 33.636147 52.369743 34.172478 C 52.378452 34.207920 52.385216 34.243816 52.389999 34.279999 L 53.000000 39.060001 C 53.037125 39.336109 52.957390 39.615185 52.779999 39.830002 C 52.601028 40.045567 52.339832 40.176163 52.059998 40.190002 L 50.349998 40.259998 C 50.240761 40.888733 50.080227 41.507465 49.869999 42.109997 L 51.320000 43.029999 C 51.558968 43.175900 51.725822 43.415302 51.779999 43.689999 C 51.828392 43.965122 51.759499 44.247948 51.590000 44.469997 L 48.700001 48.330002 C 48.530861 48.558094 48.272724 48.703522 47.990002 48.730003 C 47.708103 48.756245 47.428291 48.661762 47.220001 48.470005 L 46.000000 47.299999 C 45.494484 47.681049 44.955635 48.015739 44.389999 48.299999 L 44.770000 50.000000 C 44.891087 50.538849 44.552425 51.073830 44.013577 51.194916 C 43.985943 51.201126 43.958061 51.206158 43.930000 51.209999 L 39.209999 51.880001 Z M 35.810001 46.430000 C 35.955952 46.429546 36.099915 46.463825 36.230000 46.529999 C 37.119331 46.940132 38.073875 47.190617 39.049999 47.270000 C 39.570820 47.311798 39.971672 47.747505 39.969997 48.270000 L 40.000000 49.709999 L 42.549999 49.349998 L 42.209999 47.889999 C 42.097523 47.402699 42.362343 46.907230 42.829998 46.730000 C 43.755962 46.378407 44.615002 45.871098 45.369999 45.230000 C 45.749084 44.892456 46.320915 44.892456 46.700001 45.230000 L 47.759998 46.230000 L 49.330002 44.130001 L 48.090000 43.349998 C 47.671040 43.085098 47.509357 42.553257 47.709999 42.099998 C 48.117931 41.184711 48.371365 40.208149 48.459999 39.209999 C 48.499744 38.707829 48.906811 38.313614 49.410000 38.290001 L 50.869999 38.230000 L 50.520000 35.619999 L 49.119999 35.959999 C 48.645966 36.050682 48.174801 35.789860 48.000000 35.340000 C 47.655964 34.405609 47.155491 33.536549 46.520000 32.770000 C 46.194172 32.394115 46.194172 31.835886 46.520000 31.460001 L 47.520000 30.360001 L 45.470001 28.780001 L 44.709999 30.000000 C 44.447414 30.427818 43.908356 30.594671 43.450001 30.389999 C 42.552555 29.981207 41.592266 29.727610 40.610001 29.639999 C 40.093136 29.593296 39.697895 29.158964 39.700001 28.639999 L 39.639999 27.160000 L 37.090000 27.520000 L 37.419998 28.980000 C 37.526913 29.464016 37.263119 29.953308 36.799999 30.129999 C 35.878632 30.489275 35.023582 30.999599 34.270000 31.639999 C 33.890915 31.977541 33.319084 31.977541 32.939999 31.639999 L 31.879999 30.639999 L 30.309999 32.740002 L 31.549999 33.520000 C 31.974131 33.785725 32.136494 34.324085 31.929998 34.779999 C 31.519764 35.694481 31.266230 36.671432 31.179998 37.669998 C 31.135508 38.168243 30.729698 38.556969 30.229998 38.579998 L 28.770000 38.639999 L 29.110001 41.250000 L 30.530001 41.000000 C 31.020569 40.881886 31.522276 41.147747 31.700001 41.619999 C 32.038418 42.551853 32.535778 43.418003 33.170002 44.180000 C 33.495831 44.555885 33.495831 45.114113 33.170002 45.490002 L 32.169998 46.610001 L 34.169998 48.180000 L 35.000000 46.910000 C 35.173077 46.624950 35.476856 46.444931 35.810001 46.430000 Z" fill="#FFFFFF"/><path d=" M 39.869999 45.000000 C 39.535145 44.998100 39.200893 44.971359 38.869999 44.919998 C 35.601131 44.376705 33.391617 41.286339 33.934910 38.017471 C 34.478203 34.748604 37.568569 32.539089 40.837437 33.082382 C 44.106304 33.625675 46.315819 36.716042 45.772526 39.984909 C 45.771690 39.989941 45.770847 39.994968 45.769997 40.000000 L 45.770000 40.000000 C 45.283054 42.880886 42.791740 44.992168 39.869999 45.000000 Z M 39.869999 35.000000 C 37.660866 35.004673 35.873795 36.799316 35.878468 39.008450 C 35.880219 39.837177 36.139332 40.644901 36.619999 41.320000 C 37.900349 43.114796 40.391552 43.535213 42.189999 42.259998 C 43.055157 41.646851 43.641449 40.715260 43.820000 39.669998 L 43.820000 39.669998 C 44.218006 37.497009 42.779095 35.412804 40.606106 35.014801 C 40.577457 35.009556 40.548756 35.004620 40.520000 35.000000 C 40.297123 34.979794 40.072876 34.979794 39.850002 35.000000 Z" fill="#FFFFFF"/><path d=" M 56.259998 65.000000 C 55.806396 65.020767 55.395744 64.733307 55.259998 64.300003 L 54.950001 63.299999 C 54.261723 63.224152 53.588058 63.049000 52.950001 62.779999 L 52.200001 63.500000 C 51.812405 63.874653 51.197598 63.874653 50.810001 63.500000 L 48.299999 60.939999 C 47.918858 60.551155 47.918858 59.928841 48.299999 59.539997 L 49.009998 58.779999 C 48.731800 58.143803 48.549809 57.469757 48.469997 56.779999 L 47.470001 56.490002 C 46.949841 56.335224 46.648067 55.793816 46.790001 55.270000 L 47.700001 51.759998 C 47.837482 51.238274 48.364052 50.919678 48.889999 51.039997 L 49.889999 51.270000 C 50.090755 50.997448 50.311356 50.740082 50.549999 50.500000 C 50.791260 50.260189 51.044941 50.033211 51.309998 49.820000 L 51.070000 48.820000 C 50.942051 48.296753 51.251553 47.766182 51.770000 47.619999 L 55.270000 46.619999 C 55.787956 46.476372 56.326794 46.767876 56.490002 47.279999 L 56.799999 48.279999 C 57.487610 48.359451 58.160767 48.534473 58.799999 48.799999 L 59.549999 48.080002 C 59.938843 47.698860 60.561157 47.698860 60.950001 48.080002 L 63.529999 50.619999 C 63.911140 51.008842 63.911140 51.631157 63.529999 52.020000 L 62.820000 52.779999 C 63.092762 53.418091 63.274536 54.091335 63.360001 54.779999 L 64.360001 55.080002 C 64.879227 55.251591 65.164330 55.808434 65.000000 56.330002 L 64.080002 59.840000 C 63.942520 60.361725 63.415951 60.680321 62.890003 60.560001 L 61.889999 60.330002 C 61.688717 60.605053 61.464588 60.862633 61.220001 61.100002 C 60.983540 61.344845 60.729530 61.572117 60.460003 61.780003 L 60.709999 62.779999 C 60.849724 63.312805 60.532276 63.858276 60.000000 64.000000 L 56.509998 65.000000 C 56.426876 65.008423 56.343121 65.008423 56.259998 65.000000 Z M 52.830002 60.590000 C 52.994144 60.590820 53.155560 60.632034 53.300003 60.709999 C 54.058956 61.110771 54.901836 61.326630 55.760002 61.340000 C 56.194275 61.347416 56.574108 61.634308 56.700001 62.049999 L 56.930000 62.779999 L 58.560001 62.330002 L 58.380001 61.599998 C 58.275108 61.179714 58.452736 60.739685 58.820000 60.509998 C 59.183884 60.283939 59.519577 60.015385 59.820000 59.709999 C 60.119572 59.406967 60.384533 59.071575 60.610001 58.709999 C 60.832664 58.339268 61.268406 58.153675 61.690002 58.250000 L 62.419998 58.419998 L 62.849998 56.779999 L 62.119999 56.560001 C 61.703796 56.438824 61.413059 56.063290 61.399998 55.630001 C 61.372742 54.771965 61.143173 53.932503 60.730000 53.180000 C 60.512573 52.798580 60.569359 52.319954 60.869999 52.000000 L 61.380001 51.450001 L 60.180000 50.259998 L 59.639999 50.790001 C 59.324150 51.089184 58.851109 51.149830 58.470001 50.940002 C 57.709167 50.534801 56.861965 50.318714 56.000000 50.310001 C 55.565727 50.302586 55.185894 50.015694 55.060001 49.600002 L 54.830002 48.869999 L 53.200001 49.320000 L 53.380001 50.049999 C 53.496994 50.457146 53.344753 50.893829 53.000000 51.139999 C 52.634315 51.363503 52.298325 51.632298 52.000000 51.939999 C 51.694469 52.240292 51.425903 52.576004 51.200001 52.939999 C 50.978642 53.306644 50.548374 53.491619 50.130001 53.399998 L 49.389999 53.230000 L 48.970001 54.869999 L 49.700001 55.090000 C 50.116203 55.211178 50.406940 55.586712 50.420002 56.020000 C 50.442642 56.878727 50.672501 57.719257 51.090000 58.470001 C 51.297573 58.846554 51.241199 59.313644 50.950001 59.630001 L 50.430000 60.189999 L 51.630001 61.369999 L 52.180000 60.840000 C 52.358261 60.677845 52.589085 60.585518 52.830002 60.580002 Z" fill="#FFFFFF"/><path d=" M 55.860001 60.000000 C 53.651062 60.029644 51.836330 58.262978 51.806683 56.054039 C 51.792053 54.963848 52.223072 53.914928 53.000000 53.150002 L 53.000000 53.150002 C 54.574211 51.600113 57.106792 51.619827 58.656681 53.194038 C 60.206570 54.768250 60.186855 57.300831 58.612644 58.850719 C 57.877605 59.574402 56.891411 59.986156 55.860001 60.000000 Z M 54.430000 54.599998 C 53.654552 55.380074 53.654552 56.639923 54.430000 57.419998 C 55.208721 58.203365 56.475044 58.207134 57.258415 57.428413 C 58.041782 56.649693 58.045551 55.383369 57.266830 54.599998 C 56.488110 53.816631 55.221786 53.812862 54.438416 54.591583 C 54.435604 54.594379 54.432796 54.597183 54.430000 54.599998 Z" fill="#FFFFFF"/><path d=" M 19.360001 39.480000 C 19.096231 39.476242 18.844631 39.368412 18.660000 39.180000 L 14.940000 35.459999 L 16.350000 34.049999 L 19.350000 37.049999 L 22.350000 34.049999 L 23.760000 35.459999 L 20.040001 39.180000 C 19.860294 39.363647 19.616793 39.471077 19.360001 39.480000 Z" fill="#FFFFFF"/><path d=" M 20.360001 38.480000 L 18.360001 38.480000 C 18.309025 26.622555 27.880056 16.968874 39.737499 16.917896 C 47.876297 16.882906 55.335155 21.452938 59.000000 28.719999 L 57.220001 29.629999 C 52.340534 20.047855 40.617085 16.235582 31.034941 21.115049 C 24.504381 24.440573 20.394377 31.151474 20.400002 38.480000 Z" fill="#FFFFFF"/><path d=" M 63.360001 43.000000 L 60.360001 40.000000 L 57.360001 43.000000 L 55.950001 41.580002 L 59.669998 37.860001 C 60.060036 37.472279 60.689960 37.472279 61.079998 37.860001 L 64.809998 41.580002 Z" fill="#FFFFFF"/><path d=" M 39.880001 60.080002 C 31.803131 60.094456 24.405523 55.562309 20.750002 48.360001 L 22.530001 47.450001 C 26.688362 55.665268 36.037579 59.839027 44.930000 57.450001 L 45.459999 59.380001 C 43.639317 59.859978 41.762825 60.095379 39.879997 60.080002 Z" fill="#FFFFFF"/><path d=" M 60.000000 46.139999 L 58.130001 45.439999 C 58.937119 43.253326 59.350178 40.940876 59.350002 38.609997 L 61.349998 38.610001 C 61.351818 41.180351 60.894646 43.730373 60.000000 46.139999 Z" fill="#FFFFFF"/></g></svg>