<svg version="1.1" width="80.000000" height="115.000000" viewBox="0.000000 0.000000 80.000000 115.000000" xmlns="http://www.w3.org/2000/svg" xmlns:xlink="http://www.w3.org/1999/xlink" overflow="hidden"><g id="CARDS"><rect x="1.000000" y="1.000000" width="78.000000" height="78.000000" fill="#232F3E"/><path d=" M 0.000000 0.000000 L 0.000000 80.000000 L 0.000000 80.000000 L 0.000000 115.000000 L 80.000000 115.000000 L 80.000000 80.000000 L 80.000000 80.000000 L 80.000000 0.000000 Z M 1.000000 1.000000 L 79.000000 1.000000 L 79.000000 79.000000 L 1.000000 79.000000 Z" fill="#FFFFFF"/></g><g id="TEXT_-_EDIT"><path d=" M 33.689999 92.349998 L 33.250000 90.529999 L 31.250000 90.529999 L 30.830000 92.349998 L 29.059999 92.349998 L 31.370001 84.720001 L 33.240002 84.720001 L 35.540001 92.349998 Z M 31.510000 89.430000 L 33.000000 89.430000 L 32.240002 86.269997 Z" fill="#232F3E"/><path d=" M 40.889999 92.349998 L 40.000000 86.720001 L 39.110001 92.349998 L 37.189999 92.349998 L 35.410000 84.720001 L 37.110001 84.720001 L 38.169998 90.779999 L 39.080002 85.000000 L 40.919998 85.000000 L 41.860001 90.650002 L 42.860001 84.650002 L 44.520000 84.650002 L 42.740002 92.279999 Z" fill="#232F3E"/><path d=" M 46.840000 89.000000 C 46.345402 88.768761 45.910801 88.426559 45.570000 88.000000 C 45.307678 87.644348 45.170536 87.211830 45.180000 86.769997 C 45.168892 86.354126 45.287739 85.945145 45.520000 85.599998 C 45.745701 85.259720 46.065289 84.992241 46.439999 84.830002 C 46.861813 84.643929 47.319042 84.551804 47.779999 84.560005 C 48.429764 84.562088 49.072483 84.694710 49.669998 84.950005 L 49.669998 86.120003 C 49.134098 85.923050 48.570534 85.811684 48.000000 85.790001 C 47.718163 85.774521 47.439480 85.855652 47.209999 86.020004 C 47.013199 86.172058 46.904575 86.411781 46.919998 86.660004 C 46.912312 86.862022 46.976040 87.060295 47.099998 87.220001 C 47.307770 87.423737 47.552021 87.586571 47.820000 87.700005 L 48.470001 88.019997 C 48.826054 88.187546 49.161602 88.395592 49.470001 88.639999 C 49.698788 88.827263 49.883213 89.062912 50.010002 89.330002 C 50.129375 89.621704 50.187252 89.934906 50.180000 90.250000 C 50.210262 90.886475 49.935429 91.499283 49.439999 91.900002 C 48.864475 92.329575 48.157295 92.545265 47.439999 92.510002 C 47.060139 92.510231 46.681335 92.470001 46.309998 92.389999 C 45.980469 92.326210 45.660961 92.218590 45.359997 92.070000 L 45.360001 90.919998 C 45.687019 91.026825 46.021187 91.110367 46.360001 91.169998 C 46.689121 91.238113 47.023945 91.274940 47.360001 91.279999 C 47.673580 91.302475 47.985077 91.213982 48.240002 91.029999 C 48.446396 90.853905 48.557594 90.590736 48.540001 90.320000 C 48.546089 90.107033 48.471024 89.899704 48.330002 89.739998 C 48.122326 89.543411 47.882092 89.384384 47.620003 89.269997 Z" fill="#232F3E"/><path d=" M 16.930000 106.349998 L 16.930000 101.000000 L 15.520000 104.459999 L 14.090000 104.459999 L 12.690000 101.000000 L 12.690000 106.320000 L 11.180000 106.320000 L 11.180000 98.720001 L 13.110000 98.720001 L 14.830000 103.000000 L 16.559999 98.730003 L 18.440001 98.730003 L 18.440001 106.360001 Z" fill="#232F3E"/><path d=" M 22.870001 106.349998 L 22.719999 105.839996 C 22.569302 106.046989 22.365442 106.209389 22.129999 106.309998 C 21.886692 106.427460 21.620174 106.488968 21.349998 106.489998 C 20.910818 106.513031 20.482317 106.349617 20.169998 106.040001 C 19.545307 105.297272 19.588634 104.201103 20.269999 103.510002 C 20.661104 103.158653 21.174828 102.975441 21.699999 103.000000 C 22.014029 103.006668 22.326178 103.050301 22.629999 103.129997 L 22.629999 102.620003 C 22.655197 102.348686 22.595814 102.076225 22.459999 101.840004 C 22.299997 101.686920 22.079849 101.613541 21.859999 101.640007 C 21.252171 101.664215 20.651741 101.782272 20.079998 101.990005 L 20.080000 100.989998 C 20.367077 100.831573 20.677679 100.720161 21.000000 100.659996 C 21.381403 100.579514 21.770199 100.539299 22.160000 100.539993 C 22.703608 100.494026 23.245008 100.650742 23.680000 100.979996 C 24.024775 101.356850 24.195322 101.861237 24.150000 102.369995 L 24.150000 106.309998 Z M 21.870001 105.430000 C 22.171385 105.418922 22.457319 105.293823 22.670000 105.080002 L 22.670000 104.000000 C 22.464060 103.948677 22.252182 103.925140 22.040001 103.930000 C 21.839455 103.914780 21.642250 103.987816 21.500000 104.129997 C 21.368238 104.297188 21.304005 104.507729 21.320000 104.719994 C 21.309710 104.905304 21.362593 105.088631 21.469999 105.239990 C 21.554926 105.354698 21.687376 105.424606 21.830000 105.429993 Z" fill="#232F3E"/><path d=" M 25.540001 106.349998 L 25.540001 100.720001 L 26.889999 100.720001 L 27.070000 101.449997 C 27.270947 101.209991 27.515179 101.009857 27.789999 100.860001 C 28.019918 100.734291 28.277958 100.668915 28.539999 100.669998 C 28.669809 100.660080 28.800188 100.660080 28.929998 100.669998 L 28.930000 102.000000 C 28.716887 101.986336 28.503115 101.986336 28.290001 102.000000 C 27.908167 102.000481 27.531643 102.089478 27.190001 102.260002 L 27.190001 106.370003 Z" fill="#232F3E"/><path d=" M 29.670000 106.349998 L 29.670000 98.209999 L 31.299999 98.209999 L 31.299999 103.209999 L 32.939999 100.769997 L 34.770000 100.769997 L 32.770000 103.459999 L 35.000000 106.349998 L 33.099998 106.349998 L 31.340000 103.750000 L 31.340000 106.349998 Z" fill="#232F3E"/><path d=" M 36.650002 103.919998 C 36.636112 104.309944 36.760029 104.692322 37.000000 105.000000 C 37.295567 105.246262 37.676880 105.364975 38.060001 105.330002 C 38.289249 105.324608 38.517242 105.294434 38.740002 105.240005 C 39.011528 105.190041 39.278942 105.119843 39.540001 105.030006 L 39.540001 106.029999 C 39.281761 106.177193 39.001507 106.281868 38.709999 106.339996 C 38.381474 106.411812 38.046276 106.448685 37.709999 106.449997 C 36.000000 106.449997 35.139999 105.449997 35.139999 103.500000 C 35.086960 102.715630 35.309818 101.937401 35.770000 101.300003 C 36.224651 100.776291 36.897926 100.495148 37.590000 100.540001 C 38.959999 100.540001 39.590000 101.300003 39.590000 102.830002 C 39.589127 103.166870 39.548855 103.502487 39.470001 103.830002 Z M 37.560001 101.599998 C 36.990002 101.599998 36.680000 102.059998 36.650002 102.970001 L 38.259998 102.970001 L 38.259998 102.720001 C 38.282597 102.424286 38.227436 102.127800 38.099998 101.860001 C 37.977917 101.684784 37.773102 101.586174 37.559998 101.599998 Z" fill="#232F3E"/><path d=" M 43.830002 106.199997 C 43.436691 106.347153 43.019936 106.421692 42.600002 106.419998 C 41.802200 106.570419 41.033512 106.045616 40.883087 105.247818 C 40.850220 105.073509 40.849174 104.894684 40.880001 104.720001 L 40.880001 101.820000 L 40.139999 101.820000 L 40.139999 100.900002 L 40.930000 100.750000 L 41.169998 99.209999 L 42.529999 99.209999 L 42.529999 100.720001 L 43.810001 100.720001 L 43.810001 101.820000 L 42.529999 101.820000 L 42.529999 104.589996 C 42.514324 104.774376 42.563869 104.958412 42.669998 105.109993 C 42.817173 105.233894 43.008850 105.291756 43.199997 105.269997 C 43.412270 105.266159 43.623501 105.239334 43.829998 105.189995 Z" fill="#232F3E"/><path d=" M 44.709999 108.610001 L 44.709999 100.720001 L 46.060001 100.720001 L 46.180000 101.199997 C 46.389095 101.010376 46.629269 100.858154 46.889999 100.750000 C 47.136505 100.643257 47.401432 100.585518 47.669998 100.580002 C 48.269718 100.551254 48.842720 100.830215 49.189999 101.320000 C 49.903046 102.678802 49.903046 104.301193 49.189999 105.659996 C 48.856514 106.164848 48.284714 106.460220 47.680000 106.439995 C 47.444889 106.439087 47.211613 106.398521 46.990002 106.319992 C 46.771118 106.239212 46.568054 106.120766 46.390003 105.969994 L 46.389999 108.610001 Z M 47.130001 101.699997 C 46.852936 101.697105 46.582523 101.784897 46.360001 101.949997 L 46.360001 105.059998 C 46.588673 105.221687 46.860050 105.312141 47.139999 105.320000 C 47.440666 105.339958 47.722698 105.173119 47.849998 104.900002 C 48.018616 104.463989 48.090275 103.996498 48.059998 103.529999 C 48.092281 103.050362 48.020653 102.569412 47.849998 102.119995 C 47.719170 101.845284 47.433521 101.678658 47.129997 101.699997 Z" fill="#232F3E"/><path d=" M 53.250000 106.250000 C 52.929802 106.366165 52.590458 106.420456 52.250000 106.410004 C 51.854244 106.441948 51.463024 106.307922 51.169998 106.040001 C 50.906509 105.729019 50.777054 105.326263 50.809998 104.919998 L 50.810001 98.209999 L 52.500000 98.209999 L 52.500000 104.750000 C 52.489197 104.888161 52.516888 105.026619 52.580002 105.150002 C 52.660698 105.239822 52.780144 105.284615 52.900002 105.270004 C 53.016472 105.279564 53.133530 105.279564 53.250000 105.270004 Z" fill="#232F3E"/><path d=" M 57.169998 106.349998 L 57.020000 105.839996 C 56.869305 106.046989 56.665443 106.209389 56.430000 106.309998 C 56.186253 106.426201 55.920021 106.487640 55.650002 106.489998 C 55.210823 106.513031 54.782322 106.349617 54.470001 106.040001 C 54.163971 105.709824 54.005169 105.269508 54.030003 104.820000 C 54.006859 104.326881 54.200485 103.848297 54.560001 103.510002 C 54.957939 103.163506 55.472691 102.981201 56.000000 103.000000 C 56.314030 103.006668 56.626179 103.050301 56.930000 103.129997 L 56.930000 102.620003 C 56.955196 102.348686 56.895813 102.076225 56.760002 101.840004 C 56.595478 101.687714 56.372757 101.614693 56.150002 101.640007 C 55.545547 101.665237 54.948566 101.783279 54.380001 101.990005 L 54.380001 100.989998 C 54.667076 100.831573 54.977680 100.720161 55.299999 100.659996 C 55.681400 100.579514 56.070198 100.539299 56.459999 100.539993 C 57.013184 100.491592 57.563988 100.656120 58.000000 100.999992 C 58.349232 101.374199 58.520473 101.880630 58.470001 102.389992 L 58.470001 106.330002 Z M 56.169998 105.430000 C 56.471382 105.418922 56.757317 105.293823 56.969997 105.080002 L 56.970001 104.000000 C 56.764061 103.948677 56.552181 103.925140 56.340000 103.930000 C 56.139454 103.914780 55.942249 103.987816 55.799999 104.129997 C 55.668240 104.297188 55.604004 104.507729 55.619999 104.719994 C 55.609711 104.905304 55.662590 105.088631 55.770000 105.239990 C 55.854927 105.354698 55.987377 105.424606 56.130001 105.429993 Z" fill="#232F3E"/><path d=" M 63.480000 106.089996 C 63.283363 106.213127 63.066799 106.301109 62.840000 106.349998 C 62.574291 106.410645 62.302540 106.440842 62.029999 106.439995 C 61.337513 106.489487 60.660202 106.220772 60.189999 105.709991 C 59.322289 104.400703 59.322289 102.699280 60.189999 101.389992 C 60.670341 100.866623 61.360886 100.587463 62.070000 100.629990 C 62.539951 100.630135 63.002975 100.743317 63.419998 100.959991 L 63.419998 101.959999 C 63.099216 101.842697 62.761448 101.778526 62.419998 101.769997 C 62.061943 101.735214 61.711010 101.886154 61.489998 102.169998 C 61.268036 102.561913 61.167126 103.010796 61.199997 103.459999 L 61.200001 103.620003 C 61.167835 104.064751 61.265083 104.509300 61.480000 104.900002 C 61.690891 105.185333 62.037186 105.337547 62.389999 105.300003 C 62.759296 105.291695 63.124496 105.220688 63.470001 105.090004 Z" fill="#232F3E"/><path d=" M 65.739998 103.919998 C 65.726593 104.325401 65.857735 104.722366 66.110001 105.040001 C 66.404472 105.288261 66.786644 105.407242 67.169998 105.370003 C 67.399200 105.363998 67.627129 105.333832 67.849998 105.280006 C 68.121246 105.228806 68.388573 105.158638 68.650002 105.070007 L 68.650002 106.070000 C 68.390984 106.215523 68.111000 106.320099 67.820000 106.379997 C 67.491478 106.451813 67.156281 106.488686 66.820000 106.489998 C 65.099998 106.489998 64.239998 105.489998 64.239998 103.540001 C 64.186958 102.755630 64.409813 101.977402 64.869995 101.340004 C 65.328682 100.815964 66.005020 100.535088 66.699997 100.580002 C 68.059998 100.580002 68.750000 101.339996 68.750000 102.870003 C 68.749130 103.206871 68.708855 103.542488 68.629997 103.870003 Z M 66.660004 101.599998 C 66.080002 101.599998 65.779999 102.059998 65.739998 102.970001 L 67.360001 102.970001 L 67.360001 102.720001 C 67.380440 102.423340 67.321777 102.126572 67.190002 101.860001 C 67.072510 101.684830 66.870445 101.585701 66.660004 101.599998 Z" fill="#232F3E"/></g><g id="ICONS_-_EDIT"><path d=" M 35.000000 49.869999 C 34.824825 49.871208 34.652405 49.826378 34.500000 49.739998 L 26.500000 45.119999 C 26.192455 44.942448 26.002144 44.615108 26.000000 44.259998 L 26.000000 35.000000 L 28.000000 35.000000 L 28.000000 43.660000 L 35.000000 47.660000 L 42.000000 43.660000 L 42.000000 35.000000 L 44.000000 35.000000 L 44.000000 44.240002 C 43.997856 44.595112 43.807545 44.922451 43.500000 45.100002 L 35.500000 49.720001 C 35.349552 49.813389 35.177006 49.865150 35.000000 49.870003 Z" fill="#FFFFFF"/><path d=" M 35.000000 40.639999 C 34.823914 40.638172 34.651432 40.589874 34.500000 40.500000 L 26.500000 35.889999 L 27.500000 34.150002 L 35.000000 38.480000 L 42.500000 34.150002 L 43.500000 35.889999 L 35.500000 40.500000 C 35.348568 40.589878 35.176086 40.638172 35.000000 40.639999 Z" fill="#FFFFFF"/><rect x="34.000000" y="39.640000" width="2.000000" height="9.240000" fill="#FFFFFF"/><path d=" M 43.000000 36.000000 C 42.823914 35.998173 42.651432 35.949875 42.500000 35.860001 L 34.500000 31.240000 L 35.500000 29.510000 L 43.000000 33.820000 L 50.000000 29.820000 L 50.000000 21.700001 L 43.000000 17.650000 L 35.500000 22.000000 L 34.500000 20.260000 L 42.500000 15.640000 C 42.809402 15.461368 43.190598 15.461368 43.500000 15.640000 L 51.500000 20.260000 C 51.810635 20.439341 52.001423 20.771315 52.000000 21.130001 L 52.000000 30.370001 C 51.997856 30.725111 51.807545 31.052448 51.500000 31.230001 L 43.500000 35.849998 C 43.349552 35.943386 43.177006 35.995148 43.000000 36.000000 Z" fill="#FFFFFF"/><path d=" M 43.000000 26.740000 C 42.823914 26.738171 42.651432 26.689877 42.500000 26.600000 L 34.500000 22.000000 L 35.500000 20.260000 L 43.000000 24.580000 L 50.500000 20.250000 L 51.500000 21.990000 L 43.500000 26.600000 C 43.348568 26.689877 43.176086 26.738173 43.000000 26.740000 Z" fill="#FFFFFF"/><rect x="42.000000" y="25.740000" width="2.000000" height="9.240000" fill="#FFFFFF"/><path d=" M 27.000000 36.000000 C 26.823914 35.998173 26.651432 35.949875 26.500000 35.860001 L 18.500000 31.240000 C 18.192455 31.062447 18.002144 30.735111 18.000000 30.379999 L 18.000000 21.120001 C 17.998575 20.761316 18.189365 20.429342 18.500000 20.250000 L 26.500000 15.630000 C 26.809401 15.451367 27.190599 15.451367 27.500000 15.630000 L 35.500000 20.250000 C 35.810635 20.429340 36.001423 20.761314 36.000000 21.120001 L 36.000000 30.360001 C 35.997856 30.715111 35.807545 31.042448 35.500000 31.220001 L 27.500000 35.840000 C 27.350557 35.936909 27.177942 35.992146 27.000000 36.000000 Z M 20.000000 29.799999 L 27.000000 33.799999 L 34.000000 29.799999 L 34.000000 21.700001 L 27.000000 17.650000 L 20.000000 21.700001 Z" fill="#FFFFFF"/><path d=" M 27.000000 26.740000 C 26.823914 26.738171 26.651432 26.689877 26.500000 26.600000 L 18.500000 22.000000 L 19.500000 20.260000 L 27.000000 24.580000 L 34.500000 20.250000 L 35.500000 21.990000 L 27.500000 26.600000 C 27.348568 26.689877 27.176086 26.738173 27.000000 26.740000 Z" fill="#FFFFFF"/><rect x="26.000000" y="25.740000" width="2.000000" height="9.240000" fill="#FFFFFF"/><path d=" M 26.000000 64.500000 C 23.514719 64.500000 21.500000 62.485283 21.500000 60.000000 C 21.500000 57.514717 23.514719 55.500000 26.000000 55.500000 C 28.485281 55.500000 30.500000 57.514717 30.500000 60.000000 C 30.494501 62.483002 28.483000 64.494499 26.000000 64.500000 Z M 26.000000 57.500000 C 24.619287 57.500000 23.500000 58.619289 23.500000 60.000000 C 23.500000 61.380711 24.619287 62.500000 26.000000 62.500000 C 27.380713 62.500000 28.500000 61.380711 28.500000 60.000000 C 28.500000 58.619289 27.380713 57.500000 26.000000 57.500000 Z" fill="#FFFFFF"/><path d=" M 46.000000 64.500000 C 43.514717 64.500000 41.500000 62.485283 41.500000 60.000000 C 41.500000 57.514717 43.514717 55.500000 46.000000 55.500000 C 48.485283 55.500000 50.500000 57.514717 50.500000 60.000000 C 50.494499 62.483002 48.483002 64.494499 46.000000 64.500000 Z M 46.000000 57.500000 C 44.619289 57.500000 43.500000 58.619289 43.500000 60.000000 C 43.500000 61.380711 44.619289 62.500000 46.000000 62.500000 C 47.380711 62.500000 48.500000 61.380711 48.500000 60.000000 C 48.500000 58.619289 47.380711 57.500000 46.000000 57.500000 Z" fill="#FFFFFF"/><rect x="45.760000" y="53.500000" width="4.470000" height="2.000000" fill="#FFFFFF" transform="matrix(0.447291,-0.894389,0.894389,0.447291,-22.210000,73.060000)"/><path d=" M 51.529999 53.500000 L 20.000000 53.500000 C 19.517239 53.509735 19.096474 53.173122 19.000000 52.700001 L 16.000000 37.700001 L 18.000000 37.299999 L 20.840000 51.500000 L 50.709999 51.500000 L 55.000000 30.299999 C 55.096474 29.826876 55.517239 29.490263 56.000000 29.500000 L 65.000000 29.500000 L 65.000000 31.500000 L 56.810001 31.500000 L 52.509998 52.700001 C 52.414944 53.165668 52.005268 53.500099 51.529999 53.500000 Z" fill="#FFFFFF"/></g></svg>