<svg version="1.1" width="80.000000" height="130.000000" viewBox="0.000000 0.000000 80.000000 130.000000" xmlns="http://www.w3.org/2000/svg" xmlns:xlink="http://www.w3.org/1999/xlink" overflow="hidden"><g id="CARDS"><rect x="1.000000" y="1.000000" width="78.000000" height="78.000000" fill="#232F3E"/><path d=" M 0.000000 0.000000 L 0.000000 80.000000 L 0.000000 80.000000 L 0.000000 130.000000 L 80.000000 130.000000 L 80.000000 80.000000 L 80.000000 80.000000 L 80.000000 0.000000 Z M 1.000000 1.000000 L 79.000000 1.000000 L 79.000000 79.000000 L 1.000000 79.000000 Z" fill="#FFFFFF"/></g><g id="TEXT_-_EDIT"><path d=" M 33.689999 92.349998 L 33.250000 90.529999 L 31.250000 90.529999 L 30.830000 92.349998 L 29.059999 92.349998 L 31.370001 84.720001 L 33.240002 84.720001 L 35.540001 92.349998 Z M 31.510000 89.430000 L 33.000000 89.430000 L 32.240002 86.269997 Z" fill="#232F3E"/><path d=" M 40.889999 92.349998 L 40.000000 86.720001 L 39.110001 92.349998 L 37.189999 92.349998 L 35.410000 84.720001 L 37.110001 84.720001 L 38.169998 90.779999 L 39.080002 85.000000 L 40.919998 85.000000 L 41.860001 90.650002 L 42.860001 84.650002 L 44.520000 84.650002 L 42.740002 92.279999 Z" fill="#232F3E"/><path d=" M 46.840000 89.000000 C 46.345402 88.768761 45.910801 88.426559 45.570000 88.000000 C 45.307678 87.644348 45.170536 87.211830 45.180000 86.769997 C 45.168892 86.354126 45.287739 85.945145 45.520000 85.599998 C 45.745701 85.259720 46.065289 84.992241 46.439999 84.830002 C 46.861813 84.643929 47.319042 84.551804 47.779999 84.560005 C 48.429764 84.562088 49.072483 84.694710 49.669998 84.950005 L 49.669998 86.120003 C 49.134098 85.923050 48.570534 85.811684 48.000000 85.790001 C 47.718163 85.774521 47.439480 85.855652 47.209999 86.020004 C 47.013199 86.172058 46.904575 86.411781 46.919998 86.660004 C 46.912312 86.862022 46.976040 87.060295 47.099998 87.220001 C 47.307770 87.423737 47.552021 87.586571 47.820000 87.700005 L 48.470001 88.019997 C 48.826054 88.187546 49.161602 88.395592 49.470001 88.639999 C 49.698788 88.827263 49.883213 89.062912 50.010002 89.330002 C 50.129375 89.621704 50.187252 89.934906 50.180000 90.250000 C 50.210262 90.886475 49.935429 91.499283 49.439999 91.900002 C 48.864475 92.329575 48.157295 92.545265 47.439999 92.510002 C 47.060139 92.510231 46.681335 92.470001 46.309998 92.389999 C 45.964050 92.327736 45.627823 92.220139 45.309998 92.070000 L 45.310001 90.919998 C 45.637497 91.025146 45.971550 91.108665 46.310001 91.169998 C 46.639122 91.238113 46.973946 91.274940 47.310001 91.279999 C 47.623581 91.302475 47.935078 91.213982 48.190002 91.029999 C 48.396397 90.853905 48.507595 90.590736 48.490002 90.320000 C 48.496090 90.107033 48.421024 89.899704 48.280003 89.739998 C 48.072327 89.543411 47.832092 89.384384 47.570004 89.269997 Z" fill="#232F3E"/><path d=" M 15.300000 106.349998 L 15.300000 101.000000 L 13.890000 104.459999 L 12.460000 104.459999 L 11.060000 101.000000 L 11.060000 106.320000 L 9.560000 106.320000 L 9.560000 98.720001 L 11.480000 98.720001 L 13.210000 103.000000 L 14.930000 98.730003 L 16.809999 98.730003 L 16.809999 106.360001 Z" fill="#232F3E"/><path d=" M 21.240000 106.349998 L 21.100000 105.839996 C 20.944742 106.042564 20.742153 106.203949 20.510000 106.309998 C 20.263094 106.427322 19.993361 106.488777 19.719999 106.489998 C 19.281017 106.511780 18.853004 106.348557 18.539999 106.040001 C 18.236588 105.708809 18.081305 105.268242 18.109999 104.820000 C 18.086857 104.326881 18.280481 103.848297 18.639999 103.510002 C 19.037273 103.173096 19.550316 103.004471 20.070000 103.040001 C 20.384029 103.046669 20.696178 103.090302 21.000000 103.169998 L 21.000000 102.660004 C 21.027573 102.389763 20.971737 102.117561 20.840000 101.880005 C 20.675478 101.727715 20.452753 101.654694 20.230000 101.680008 C 19.625546 101.705238 19.028566 101.823280 18.459999 102.030006 L 18.459999 101.029999 C 18.743469 100.871468 19.050802 100.760017 19.369999 100.699997 C 19.751480 100.620018 20.140224 100.579803 20.529999 100.579994 C 21.073797 100.532089 21.615881 100.689011 22.049999 101.019997 C 22.394773 101.396851 22.565321 101.901237 22.519999 102.409996 L 22.520000 106.349998 Z M 20.240000 105.430000 C 20.538345 105.418404 20.820971 105.293190 21.030001 105.080002 L 21.030001 104.000000 C 20.824169 103.948074 20.612209 103.924522 20.400002 103.930000 C 20.202253 103.913605 20.007622 103.987053 19.870001 104.129997 C 19.730947 104.293694 19.662605 104.505920 19.680000 104.719994 C 19.669710 104.905304 19.722593 105.088631 19.830000 105.239990 C 19.921196 105.357796 20.061035 105.427719 20.209999 105.429993 Z" fill="#232F3E"/><path d=" M 27.000000 106.349998 L 27.000000 102.650002 C 27.021219 102.408081 26.972633 102.165154 26.860001 101.950005 C 26.747309 101.794876 26.560808 101.711143 26.370001 101.730003 C 26.077791 101.738640 25.793797 101.828682 25.550001 101.990005 L 25.549999 106.349998 L 23.920000 106.349998 L 23.920000 100.720001 L 25.270000 100.720001 L 25.400000 101.230003 C 25.934370 100.833908 26.575401 100.607452 27.240000 100.580002 C 27.641430 100.553581 28.033730 100.707565 28.309999 101.000000 C 28.572020 101.350540 28.699741 101.783371 28.670000 102.220001 L 28.670000 106.349998 Z" fill="#232F3E"/><path d=" M 33.000000 106.349998 L 32.849998 105.839996 C 32.696899 106.044678 32.493721 106.206528 32.259998 106.309998 C 32.016251 106.426201 31.750019 106.487640 31.479998 106.489998 C 31.040817 106.513031 30.612316 106.349617 30.299997 106.040001 C 29.993967 105.709824 29.835165 105.269508 29.859997 104.820000 C 29.836855 104.326881 30.030479 103.848297 30.389997 103.510002 C 30.793861 103.177910 31.307985 103.010109 31.829998 103.040001 C 32.140766 103.046326 32.449646 103.089973 32.749996 103.169998 L 32.750000 102.660004 C 32.777573 102.389763 32.721737 102.117561 32.590000 101.880005 C 32.425476 101.727715 32.202755 101.654694 31.980000 101.680008 C 31.375546 101.705238 30.778566 101.823280 30.209999 102.030006 L 30.209999 101.029999 C 30.497076 100.871574 30.807678 100.760162 31.129999 100.699997 C 31.508097 100.619995 31.893530 100.579773 32.279999 100.579994 C 32.823795 100.532089 33.365879 100.689011 33.799999 101.019997 C 34.149231 101.394203 34.320473 101.900635 34.270000 102.409996 L 34.270000 106.349998 Z M 32.000000 105.430000 C 32.298344 105.418404 32.580971 105.293190 32.790001 105.080002 L 32.790001 104.000000 C 32.587589 103.947983 32.378914 103.924423 32.170002 103.930000 C 31.969456 103.914780 31.772251 103.987816 31.630001 104.129997 C 31.498240 104.297188 31.434006 104.507729 31.450001 104.719994 C 31.439711 104.905304 31.492594 105.088631 31.600000 105.239990 C 31.680525 105.349510 31.804523 105.418808 31.940001 105.429993 Z" fill="#232F3E"/><path d=" M 38.549999 105.709999 C 38.238068 106.047455 37.799538 106.239540 37.340000 106.239998 C 36.764961 106.256142 36.221649 105.976936 35.900002 105.500000 C 35.523476 104.903000 35.338539 104.205116 35.370003 103.500000 C 35.327824 102.757782 35.516457 102.020706 35.910004 101.389999 C 36.229710 100.896965 36.782566 100.605385 37.370003 100.620003 C 37.615833 100.627289 37.857529 100.685165 38.080002 100.790001 C 38.317307 100.897537 38.531315 101.050400 38.710003 101.239998 L 38.830002 100.760002 L 40.180000 100.760002 L 40.180000 106.000000 C 40.180000 107.860001 39.330002 108.790001 37.610001 108.790001 C 36.973320 108.794128 36.345215 108.643105 35.779999 108.349998 L 35.779999 107.349998 C 36.299221 107.547821 36.845421 107.665833 37.399998 107.699997 C 37.640434 107.714272 37.880718 107.669647 38.099998 107.570000 C 38.268620 107.473465 38.393867 107.316017 38.449997 107.129997 C 38.534817 106.803833 38.568554 106.466499 38.549995 106.129997 Z M 37.889999 105.110001 C 38.126286 105.100060 38.355007 105.023819 38.549999 104.889999 L 38.549999 102.000000 C 38.339333 101.838676 38.084938 101.744583 37.820000 101.730003 C 37.550808 101.727432 37.309723 101.896187 37.220001 102.150002 C 37.064037 102.564812 36.995930 103.007492 37.020000 103.450005 C 36.995819 103.886879 37.067493 104.323753 37.230000 104.730003 C 37.357708 104.973930 37.614929 105.122025 37.889999 105.110001 Z" fill="#232F3E"/><path d=" M 42.820000 103.919998 C 42.799252 104.324760 42.927299 104.723129 43.180000 105.040001 C 43.475567 105.286263 43.856880 105.404976 44.240002 105.370003 C 44.469204 105.363998 44.697132 105.333832 44.920002 105.280006 C 45.191528 105.230042 45.458942 105.159843 45.720001 105.070007 L 45.720001 106.070000 C 45.461761 106.217194 45.181507 106.321869 44.889999 106.379997 C 44.561474 106.451813 44.226276 106.488686 43.889999 106.489998 C 42.169998 106.489998 41.310001 105.489998 41.310001 103.540001 C 41.259846 102.754425 41.486275 101.976082 41.950001 101.340004 C 42.404652 100.816292 43.077927 100.535149 43.770000 100.580002 C 45.139999 100.580002 45.770000 101.339996 45.770000 102.870003 C 45.769127 103.206871 45.728855 103.542488 45.650002 103.870003 Z M 43.730000 101.599998 C 43.160000 101.599998 42.849998 102.059998 42.820000 102.970001 L 44.430000 102.970001 L 44.430000 102.720001 C 44.455040 102.423065 44.396133 102.125076 44.260002 101.860001 C 44.142513 101.684830 43.940445 101.585701 43.730003 101.599998 Z" fill="#232F3E"/><path d=" M 53.000000 106.349998 L 53.000000 102.639999 C 53.016663 102.401566 52.968277 102.163086 52.860001 101.949997 C 52.755142 101.796478 52.575054 101.712181 52.389999 101.729996 C 52.107712 101.742058 51.834274 101.832047 51.599998 101.989998 C 51.604916 102.029846 51.604916 102.070152 51.599998 102.110001 L 51.599998 106.349998 L 50.000000 106.349998 L 50.000000 102.639999 C 50.016663 102.401566 49.968277 102.163086 49.860001 101.949997 C 49.758389 101.798111 49.582016 101.713760 49.400002 101.729996 C 49.117992 101.743576 48.844955 101.833435 48.610001 101.989998 L 48.610001 106.349998 L 47.000000 106.349998 L 47.000000 100.720001 L 48.349998 100.720001 L 48.480000 101.230003 C 49.006557 100.840569 49.635986 100.614525 50.290001 100.580002 C 50.790237 100.544861 51.264317 100.807365 51.500000 101.250000 C 52.030991 100.851845 52.667450 100.618820 53.330002 100.580002 C 53.709106 100.564880 54.075390 100.718712 54.330002 101.000000 C 54.593987 101.349983 54.725109 101.782341 54.700001 102.220001 L 54.700001 106.349998 Z" fill="#232F3E"/><path d=" M 57.299999 103.919998 C 57.279251 104.324760 57.407299 104.723129 57.660000 105.040001 C 57.955566 105.286263 58.336880 105.404976 58.720001 105.370003 C 58.949249 105.364609 59.177242 105.334435 59.400002 105.280006 C 59.671528 105.230042 59.938942 105.159843 60.200001 105.070007 L 60.200001 106.070000 C 59.941761 106.217194 59.661507 106.321869 59.369999 106.379997 C 59.041473 106.451813 58.706276 106.488686 58.369999 106.489998 C 56.660000 106.489998 55.799999 105.489998 55.799999 103.540001 C 55.746960 102.755630 55.969818 101.977402 56.430000 101.340004 C 56.884651 100.816292 57.557926 100.535149 58.250000 100.580002 C 59.619999 100.580002 60.299999 101.339996 60.299999 102.870003 C 60.299126 103.206871 60.258854 103.542488 60.180000 103.870003 Z M 58.209999 101.599998 C 57.639999 101.599998 57.330002 102.059998 57.299999 102.970001 L 58.910000 102.970001 L 58.910000 102.720001 C 58.932598 102.424286 58.877438 102.127800 58.750000 101.860001 C 58.627918 101.684784 58.423103 101.586174 58.209999 101.599998 Z" fill="#232F3E"/><path d=" M 64.550003 106.349998 L 64.550003 102.650002 C 64.566498 102.408363 64.518166 102.166710 64.410004 101.950005 C 64.294106 101.793236 64.103882 101.709541 63.910004 101.730003 C 63.618233 101.741188 63.334911 101.831024 63.090004 101.990005 L 63.090000 106.349998 L 61.439999 106.349998 L 61.439999 100.720001 L 62.790001 100.720001 L 62.930000 101.230003 C 63.464371 100.833908 64.105400 100.607452 64.769997 100.580002 C 65.171425 100.553581 65.563728 100.707565 65.839996 101.000000 C 66.102020 101.350540 66.229736 101.783371 66.199997 102.220001 L 66.199997 106.349998 Z" fill="#232F3E"/><path d=" M 70.639999 106.199997 C 70.246460 106.346306 69.829857 106.420822 69.409996 106.419998 C 68.934883 106.461807 68.461983 106.318504 68.089996 106.019997 C 67.789146 105.656647 67.642036 105.190201 67.679993 104.719994 L 67.680000 101.820000 L 67.000000 101.820000 L 67.000000 100.900002 L 67.779999 100.750000 L 68.000000 99.209999 L 69.360001 99.209999 L 69.360001 100.720001 L 70.639999 100.720001 L 70.639999 101.820000 L 69.330002 101.820000 L 69.330002 104.589996 C 69.311531 104.776146 69.365227 104.962288 69.480003 105.109993 C 69.626587 105.234970 69.818748 105.292976 70.010002 105.269997 C 70.222244 105.265694 70.433426 105.238876 70.639999 105.189995 Z" fill="#232F3E"/><path d=" M 27.000000 120.129997 C 26.434855 120.359474 25.829937 120.475021 25.219999 120.469994 C 22.973333 120.470001 21.846666 119.169998 21.840000 116.570000 C 21.773914 115.513390 22.085842 114.467720 22.719999 113.620003 C 23.369337 112.922134 24.299004 112.554680 25.250000 112.620003 C 25.813498 112.620705 26.372316 112.722313 26.900000 112.920006 L 26.900000 114.129997 C 26.432051 113.991005 25.947962 113.913689 25.459999 113.899994 C 24.920450 113.854988 24.394413 114.084198 24.059999 114.509995 C 23.715200 115.091789 23.558069 115.765701 23.609999 116.439995 L 23.610001 116.690002 C 23.559347 117.353394 23.712887 118.016403 24.050001 118.590004 C 24.371363 119.015427 24.888815 119.245827 25.420002 119.200005 C 25.954769 119.173027 26.484787 119.085808 27.000002 118.940002 Z" fill="#232F3E"/><path d=" M 30.250000 120.489998 C 29.548313 120.528084 28.867447 120.244698 28.400000 119.720001 C 27.533985 118.392052 27.533985 116.677956 28.400000 115.349998 C 29.411747 114.331032 31.057966 114.325180 32.076931 115.336929 C 32.081303 115.341270 32.085659 115.345627 32.090000 115.349998 C 32.956017 116.677948 32.956017 118.392044 32.090000 119.720001 C 31.626535 120.244324 30.948767 120.527962 30.250000 120.489998 Z M 30.250000 119.339996 C 30.533583 119.349129 30.791271 119.175995 30.889999 118.909996 C 31.156797 118.016144 31.156797 117.063843 30.889999 116.169998 C 30.794674 115.900047 30.536182 115.722336 30.250000 115.729996 C 29.961109 115.721107 29.699081 115.898483 29.600000 116.169998 C 29.333202 117.063850 29.333202 118.016151 29.600000 118.909996 C 29.702442 119.177567 29.963680 119.350380 30.250000 119.339996 Z" fill="#232F3E"/><path d=" M 37.000000 120.349998 L 37.000000 116.650002 C 37.019314 116.407036 36.967175 116.163719 36.849998 115.950005 C 36.737305 115.794876 36.550808 115.711143 36.359997 115.730003 C 36.067787 115.738640 35.783794 115.828682 35.539997 115.990005 L 35.540001 120.349998 L 33.900002 120.349998 L 33.900002 114.720001 L 35.250000 114.720001 L 35.380001 115.230003 C 35.915241 114.835541 36.555752 114.609268 37.220001 114.580002 C 37.621433 114.553581 38.013729 114.707565 38.290001 115.000000 C 38.555580 115.349174 38.686886 115.782127 38.660000 116.220001 L 38.660000 120.349998 Z" fill="#232F3E"/><path d=" M 42.049999 118.769997 C 42.049999 118.519997 41.880001 118.309998 41.540001 118.150002 L 40.810001 117.800003 C 40.136486 117.560318 39.684883 116.924881 39.680000 116.210007 C 39.666527 115.751854 39.870468 115.314301 40.230000 115.030006 C 40.652359 114.712837 41.172470 114.553619 41.700001 114.580009 C 42.229649 114.581734 42.752277 114.701294 43.230000 114.930008 L 43.230000 115.930000 C 43.004833 115.850266 42.774242 115.786774 42.540001 115.739998 C 42.339432 115.696854 42.135128 115.673409 41.930000 115.669998 C 41.419998 115.669998 41.160000 115.849998 41.160000 116.209999 C 41.160000 116.570000 41.380001 116.660004 41.799999 116.870003 L 42.520000 117.209999 C 42.828686 117.342110 43.095074 117.556602 43.290001 117.830002 C 43.466267 118.107231 43.553505 118.431755 43.540001 118.760002 C 43.556385 119.233650 43.357933 119.689362 43.000000 120.000000 C 42.575516 120.321449 42.051910 120.484184 41.520000 120.459999 C 40.886272 120.466171 40.260921 120.314987 39.700001 120.019997 L 39.700001 119.019997 C 40.215828 119.217575 40.758698 119.335594 41.310001 119.369995 C 41.514175 119.382927 41.716270 119.322655 41.880001 119.199997 C 41.995960 119.087845 42.057915 118.931129 42.049999 118.769997 Z" fill="#232F3E"/><path d=" M 46.689999 120.489998 C 45.991230 120.527954 45.313461 120.244324 44.849998 119.720001 C 43.983982 118.392052 43.983982 116.677956 44.849998 115.349998 C 45.861748 114.331032 47.507965 114.325180 48.526932 115.336929 C 48.531303 115.341270 48.535660 115.345627 48.540001 115.349998 C 49.406017 116.677948 49.406017 118.392044 48.540001 119.720001 C 48.072556 120.244698 47.391685 120.528084 46.690002 120.489998 Z M 46.689999 119.339996 C 46.976318 119.350388 47.237556 119.177567 47.340000 118.909996 C 47.606796 118.016144 47.606796 117.063843 47.340000 116.169998 C 47.240917 115.898483 46.978893 115.721115 46.689999 115.729996 C 46.402863 115.719078 46.142624 115.897987 46.049999 116.169998 C 45.783203 117.063850 45.783203 118.016151 46.049999 118.909996 C 46.146111 119.178047 46.405506 119.352325 46.689999 119.339996 Z" fill="#232F3E"/><path d=" M 52.740002 120.250000 C 52.419804 120.366165 52.080460 120.420456 51.740002 120.410004 C 51.351444 120.423676 50.974697 120.275154 50.700001 120.000000 C 50.436512 119.689018 50.307056 119.286263 50.340000 118.879997 L 50.340000 112.169998 L 52.000000 112.169998 L 52.000000 118.709999 C 51.989197 118.848160 52.016888 118.986618 52.080002 119.110001 C 52.159672 119.201309 52.279938 119.246407 52.400002 119.230003 C 52.516491 119.239052 52.633511 119.239052 52.750000 119.230003 Z" fill="#232F3E"/><path d=" M 54.849998 117.919998 C 54.829250 118.324760 54.957298 118.723129 55.209999 119.040001 C 55.505566 119.286263 55.886879 119.404976 56.270000 119.370003 C 56.499203 119.363998 56.727131 119.333832 56.950001 119.280006 C 57.221527 119.230042 57.488941 119.159843 57.750000 119.070007 L 57.750000 120.070000 C 57.491760 120.217194 57.211506 120.321869 56.919998 120.379997 C 56.591473 120.451813 56.256275 120.488686 55.919998 120.489998 C 54.200001 120.489998 53.340000 119.489998 53.340000 117.540001 C 53.285515 116.753960 53.512363 115.974152 53.980000 115.340004 C 54.434650 114.816292 55.107925 114.535149 55.799999 114.580002 C 57.169998 114.580002 57.799999 115.339996 57.799999 116.870003 C 57.799126 117.206871 57.758854 117.542488 57.680000 117.870003 Z M 55.759998 115.599998 C 55.180000 115.599998 54.880001 116.059998 54.849998 116.970001 L 56.459999 116.970001 L 56.459999 116.720001 C 56.485039 116.423065 56.426132 116.125076 56.290001 115.860001 C 56.172512 115.684830 55.970444 115.585701 55.760002 115.599998 Z" fill="#232F3E"/></g><g id="ICONS_-_EDIT"><path d=" M 64.000000 64.000000 L 57.000000 64.000000 L 57.000000 62.000000 L 63.000000 62.000000 L 63.000000 18.000000 L 17.000000 18.000000 L 17.000000 62.000000 L 45.000000 62.000000 L 45.000000 64.000000 L 16.000000 64.000000 C 15.447715 64.000000 15.000000 63.552284 15.000000 63.000000 L 15.000000 17.000000 C 15.000000 16.447716 15.447715 16.000000 16.000000 16.000000 L 64.000000 16.000000 C 64.552284 16.000000 65.000000 16.447716 65.000000 17.000000 L 65.000000 63.000000 C 65.000000 63.552284 64.552284 64.000000 64.000000 64.000000 Z" fill="#FFFFFF"/><rect x="16.000000" y="24.000000" width="48.000000" height="2.000000" fill="#FFFFFF"/><path d=" M 42.680000 58.919998 L 37.320000 58.919998 C 36.767715 58.919998 36.320000 58.472282 36.320000 57.919998 L 36.320000 57.000000 C 35.418419 56.755791 34.543941 56.420742 33.709999 56.000000 L 33.080002 56.630001 C 32.689964 57.017723 32.060040 57.017723 31.670002 56.630001 L 27.879999 52.799999 C 27.692812 52.611279 27.588463 52.355801 27.589998 52.090000 C 27.588461 51.824196 27.692812 51.568718 27.879999 51.380001 L 28.520000 50.750000 C 28.062822 49.922234 27.697327 49.047054 27.430000 48.139999 L 26.540001 48.139999 C 25.987717 48.139999 25.540001 47.692284 25.540001 47.139999 L 25.540001 41.790001 C 25.540001 41.237717 25.987717 40.790001 26.540001 40.790001 L 27.440001 40.790001 C 27.708021 39.884727 28.069990 39.009968 28.520000 38.180000 L 27.879999 37.540001 C 27.492275 37.149963 27.492275 36.520039 27.879999 36.130001 L 31.670000 32.340000 C 31.856260 32.155254 32.107658 32.051105 32.369999 32.049999 L 32.369999 32.049999 C 32.635803 32.048462 32.891281 32.152813 33.079998 32.340000 L 33.720001 32.980000 C 34.547340 32.531796 35.418594 32.169891 36.320000 31.900000 L 36.320000 31.000000 C 36.320000 30.447716 36.767715 30.000000 37.320000 30.000000 L 42.680000 30.000000 C 43.232285 30.000000 43.680000 30.447716 43.680000 31.000000 L 43.680000 31.910000 C 44.584911 32.174366 45.457100 32.540012 46.279999 33.000000 L 46.919998 32.349998 C 47.310036 31.962275 47.939960 31.962275 48.329998 32.349998 L 52.119999 36.139999 C 52.507721 36.530037 52.507721 37.159962 52.119999 37.549999 L 51.480000 38.189999 C 51.938316 39.015984 52.300671 39.891674 52.560001 40.799999 L 53.459999 40.799999 C 54.012283 40.799999 54.459999 41.247715 54.459999 41.799999 L 54.459999 47.150002 C 54.459999 47.702286 54.012283 48.150002 53.459999 48.150002 L 52.560001 48.150002 C 52.298885 49.057701 51.936611 49.933193 51.480000 50.760002 L 52.119999 51.389999 C 52.512119 51.778919 52.514717 52.412079 52.125797 52.804199 C 52.123871 52.806141 52.121941 52.808071 52.119999 52.809998 L 48.330002 56.590000 C 47.939964 56.977722 47.310040 56.977722 46.920002 56.590000 L 46.290001 56.000000 C 45.457905 56.424900 44.582985 56.760117 43.680000 57.000000 L 43.680000 57.889999 C 43.696568 58.442036 43.262486 58.902981 42.710449 58.919548 C 42.700302 58.919853 42.690151 58.920002 42.680000 58.919998 Z M 38.320000 56.919998 L 41.680000 56.919998 L 41.680000 56.259998 C 41.667336 55.786335 41.988834 55.368809 42.450001 55.259998 C 43.678753 54.981537 44.851826 54.498108 45.920002 53.829998 C 46.315323 53.581409 46.830059 53.639526 47.160004 53.969997 L 47.630001 54.439999 L 50.000000 52.090000 L 49.520000 51.610001 C 49.189529 51.280060 49.131413 50.765320 49.380001 50.369999 C 50.056156 49.313206 50.540264 48.145252 50.810001 46.919998 C 50.914757 46.454845 51.333340 46.128349 51.810001 46.139999 L 52.480000 46.139999 L 52.480000 42.790001 L 51.810001 42.790001 C 51.333340 42.801651 50.914757 42.475155 50.810001 42.010002 C 50.535877 40.783009 50.052116 39.612507 49.380001 38.550003 C 49.131413 38.154682 49.189529 37.639946 49.520000 37.310001 L 50.000000 36.830002 L 47.630001 34.459999 L 47.150002 34.950001 C 46.816013 35.282448 46.295250 35.336605 45.900002 35.080002 C 44.841461 34.409389 43.673912 33.928833 42.450001 33.660004 C 41.988834 33.551193 41.667339 33.133667 41.680000 32.660004 L 41.680000 32.000000 L 38.320000 32.000000 L 38.320000 32.680000 C 38.331650 33.156662 38.005154 33.575245 37.540001 33.680000 C 36.318130 33.960403 35.151951 34.443779 34.090000 35.110001 C 33.694679 35.358589 33.179943 35.300472 32.849998 34.970001 L 32.369999 34.490002 L 30.000000 36.830002 L 30.480000 37.310001 C 30.815674 37.641483 30.874025 38.162472 30.619999 38.560001 C 29.951216 39.617023 29.467615 40.780373 29.189999 42.000000 C 29.085245 42.465153 28.666658 42.791649 28.189999 42.779999 L 27.520000 42.779999 L 27.520000 46.130001 L 28.190001 46.130001 C 28.666660 46.118351 29.085247 46.444847 29.190001 46.910000 C 29.468431 48.135628 29.951899 49.305420 30.620001 50.369999 C 30.871180 50.763062 30.817240 51.277576 30.490002 51.610001 L 30.010000 52.080002 L 32.380001 54.450001 L 32.860001 53.970001 C 33.192425 53.642761 33.706936 53.588821 34.100002 53.840000 C 35.161076 54.507923 36.327553 54.991421 37.550003 55.270000 C 38.015156 55.374756 38.341652 55.793339 38.330002 56.270000 Z M 40.000000 49.840000 C 37.028709 49.840000 34.619999 47.431293 34.619999 44.459999 C 34.619999 41.488708 37.028706 39.079998 40.000000 39.079998 C 42.971291 39.079998 45.380001 41.488705 45.380001 44.459999 C 45.374496 47.429008 42.969009 49.834496 40.000000 49.840000 Z M 40.000000 41.090000 C 38.133278 41.090008 36.620007 42.603294 36.620014 44.470016 C 36.620022 46.336739 38.133308 47.850010 40.000031 47.850002 C 41.866753 47.849995 43.380024 46.336708 43.380016 44.469986 C 43.380016 44.466656 43.380013 44.463329 43.380001 44.459999 C 43.374489 42.597183 41.862823 41.089993 40.000000 41.090000 Z" fill="#FFFFFF"/><rect x="19.000000" y="20.000000" width="2.000000" height="2.000000" fill="#FFFFFF"/><rect x="23.000000" y="20.000000" width="2.000000" height="2.000000" fill="#FFFFFF"/><rect x="27.000000" y="20.000000" width="2.000000" height="2.000000" fill="#FFFFFF"/></g></svg>