<svg version="1.1" width="80.000000" height="115.000000" viewBox="0.000000 0.000000 80.000000 115.000000" xmlns="http://www.w3.org/2000/svg" xmlns:xlink="http://www.w3.org/1999/xlink" overflow="hidden"><g id="CARDS"><rect x="1.000000" y="1.000000" width="78.000000" height="78.000000" fill="#232F3E"/><path d=" M 0.000000 0.000000 L 0.000000 80.000000 L 0.000000 80.000000 L 0.000000 115.000000 L 80.000000 115.000000 L 80.000000 80.000000 L 80.000000 80.000000 L 80.000000 0.000000 Z M 1.000000 1.000000 L 79.000000 1.000000 L 79.000000 79.000000 L 1.000000 79.000000 Z" fill="#FFFFFF"/></g><g id="TEXT_-_EDIT"><path d=" M 33.689999 92.349998 L 33.250000 90.529999 L 31.250000 90.529999 L 30.830000 92.349998 L 29.059999 92.349998 L 31.370001 84.720001 L 33.240002 84.720001 L 35.540001 92.349998 Z M 31.510000 89.430000 L 33.000000 89.430000 L 32.240002 86.269997 Z" fill="#232F3E"/><path d=" M 40.889999 92.349998 L 40.000000 86.720001 L 39.110001 92.349998 L 37.189999 92.349998 L 35.410000 84.720001 L 37.110001 84.720001 L 38.169998 90.779999 L 39.080002 85.000000 L 40.919998 85.000000 L 41.860001 90.650002 L 42.860001 84.650002 L 44.520000 84.650002 L 42.740002 92.279999 Z" fill="#232F3E"/><path d=" M 46.840000 89.000000 C 46.345402 88.768761 45.910801 88.426559 45.570000 88.000000 C 45.307678 87.644348 45.170536 87.211830 45.180000 86.769997 C 45.168892 86.354126 45.287739 85.945145 45.520000 85.599998 C 45.745701 85.259720 46.065289 84.992241 46.439999 84.830002 C 46.861813 84.643929 47.319042 84.551804 47.779999 84.560005 C 48.429764 84.562088 49.072483 84.694710 49.669998 84.950005 L 49.669998 86.120003 C 49.134098 85.923050 48.570534 85.811684 48.000000 85.790001 C 47.718163 85.774521 47.439480 85.855652 47.209999 86.020004 C 47.013199 86.172058 46.904575 86.411781 46.919998 86.660004 C 46.912312 86.862022 46.976040 87.060295 47.099998 87.220001 C 47.307770 87.423737 47.552021 87.586571 47.820000 87.700005 L 48.470001 88.019997 C 48.826054 88.187546 49.161602 88.395592 49.470001 88.639999 C 49.698788 88.827263 49.883213 89.062912 50.010002 89.330002 C 50.129375 89.621704 50.187252 89.934906 50.180000 90.250000 C 50.210262 90.886475 49.935429 91.499283 49.439999 91.900002 C 48.864475 92.329575 48.157295 92.545265 47.439999 92.510002 C 47.060139 92.510231 46.681335 92.470001 46.309998 92.389999 C 45.980469 92.326210 45.660961 92.218590 45.359997 92.070000 L 45.360001 90.919998 C 45.687019 91.026825 46.021187 91.110367 46.360001 91.169998 C 46.689121 91.238113 47.023945 91.274940 47.360001 91.279999 C 47.673580 91.302475 47.985077 91.213982 48.240002 91.029999 C 48.446396 90.853905 48.557594 90.590736 48.540001 90.320000 C 48.546089 90.107033 48.471024 89.899704 48.330002 89.739998 C 48.122326 89.543411 47.882092 89.384384 47.620003 89.269997 Z" fill="#232F3E"/><path d=" M 16.270000 102.529999 C 16.206970 101.479919 16.518827 100.441574 17.150000 99.599998 C 17.771990 98.899231 18.685678 98.529312 19.619999 98.599998 C 20.554319 98.529312 21.468008 98.899231 22.089998 99.599998 C 22.725969 100.439148 23.038374 101.479309 22.969997 102.529999 C 23.036322 103.583542 22.724251 104.626152 22.089998 105.470001 C 21.462654 106.163147 20.552862 106.531487 19.619999 106.470001 C 18.687376 106.529991 17.778208 106.161911 17.150000 105.470001 C 16.519688 104.624168 16.208059 103.583038 16.270000 102.529999 Z M 18.010000 102.529999 C 17.971369 103.220909 18.112637 103.910019 18.420000 104.529999 C 18.651333 104.975418 19.118410 105.247879 19.620001 105.229996 C 20.123922 105.246910 20.593460 104.975273 20.830000 104.529999 C 21.133120 103.908569 21.274158 103.220573 21.240000 102.529999 C 21.282682 101.820580 21.145073 101.111893 20.840000 100.470001 C 20.407206 99.796211 19.510141 99.600853 18.836355 100.033646 C 18.661280 100.146103 18.512457 100.294922 18.400000 100.470001 C 18.095341 101.112038 17.957754 101.820610 18.000000 102.529999 Z" fill="#232F3E"/><path d=" M 24.280001 108.610001 L 24.280001 100.720001 L 25.629999 100.720001 L 25.750000 101.199997 C 25.961088 101.008057 26.204967 100.855629 26.469999 100.750000 C 26.716505 100.643257 26.981432 100.585518 27.250000 100.580002 C 27.847027 100.550934 28.417183 100.830345 28.760000 101.320000 C 29.147718 101.963524 29.329180 102.710312 29.280001 103.459999 C 29.323462 104.230782 29.135405 104.996941 28.740000 105.659996 C 28.401962 106.164963 27.827347 106.459831 27.219999 106.439995 C 26.988230 106.438164 26.758396 106.397598 26.539999 106.319992 C 26.318733 106.244347 26.114761 106.125359 25.939999 105.969994 L 25.940001 108.610001 Z M 26.709999 101.699997 C 26.432934 101.697105 26.162521 101.784897 25.939999 101.949997 L 25.940001 105.059998 C 26.167250 105.224480 26.439512 105.315231 26.720001 105.320000 C 27.017824 105.338585 27.296246 105.171532 27.420002 104.900002 C 27.588619 104.463989 27.660280 103.996498 27.630001 103.529999 C 27.662287 103.050362 27.590654 102.569412 27.420002 102.119995 C 27.292702 101.846878 27.010670 101.680038 26.710003 101.699997 Z" fill="#232F3E"/><path d=" M 32.430000 104.769997 C 32.430000 104.519997 32.259998 104.309998 31.910000 104.150002 L 31.190001 103.800003 C 30.512707 103.565338 30.058899 102.926796 30.060001 102.210007 C 30.041607 101.750854 30.246538 101.311180 30.610001 101.030006 C 31.032360 100.712837 31.552471 100.553619 32.080002 100.580009 C 32.609650 100.581734 33.132278 100.701294 33.610001 100.930008 L 33.610001 101.930000 C 33.381050 101.851501 33.147221 101.788033 32.910000 101.739998 C 32.712864 101.696541 32.511845 101.673088 32.310001 101.669998 C 31.790001 101.669998 31.540001 101.849998 31.540001 102.209999 C 31.540001 102.570000 31.750000 102.660004 32.180000 102.870003 L 32.900002 103.209999 C 33.206879 103.345100 33.472538 103.559013 33.670002 103.830002 C 33.838264 104.110268 33.921631 104.433311 33.910004 104.760002 C 33.934761 105.245941 33.731365 105.715607 33.360004 106.029999 C 32.931671 106.351402 32.404976 106.514008 31.870005 106.489998 C 31.239462 106.496185 30.617340 106.344955 30.060005 106.049995 L 30.059999 105.050003 C 30.575829 105.247581 31.118696 105.365601 31.670000 105.400002 C 31.874172 105.412933 32.076267 105.352661 32.240002 105.230003 C 32.368073 105.112190 32.437603 104.943855 32.430000 104.770004 Z" fill="#232F3E"/><path d=" M 39.770000 106.349998 L 38.830002 100.720001 L 37.930000 106.349998 L 36.070000 106.349998 L 34.279999 98.720001 L 36.000000 98.720001 L 37.000000 104.779999 L 38.000000 99.000000 L 39.830002 99.000000 L 40.770000 104.650002 L 41.770000 98.650002 L 43.439999 98.650002 L 41.650002 106.279999 Z" fill="#232F3E"/><path d=" M 46.389999 106.489998 C 45.691231 106.527954 45.013462 106.244324 44.549999 105.720001 C 43.683983 104.392052 43.683983 102.677956 44.549999 101.349998 C 45.561749 100.331032 47.207966 100.325180 48.226933 101.336929 C 48.231304 101.341270 48.235661 101.345627 48.240002 101.349998 C 49.106018 102.677948 49.106018 104.392044 48.240002 105.720001 C 47.772556 106.244698 47.091686 106.528084 46.390003 106.489998 Z M 46.389999 105.339996 C 46.676319 105.350388 46.937557 105.177567 47.040001 104.909996 C 47.306797 104.016144 47.306797 103.063843 47.040001 102.169998 C 46.940918 101.898483 46.678894 101.721115 46.389999 101.729996 C 46.103817 101.722336 45.845325 101.900047 45.750000 102.169998 C 45.483204 103.063850 45.483204 104.016151 45.750000 104.909996 C 45.848728 105.175995 46.106415 105.349129 46.389999 105.339996 Z" fill="#232F3E"/><path d=" M 50.000000 106.349998 L 50.000000 100.720001 L 51.349998 100.720001 L 51.529999 101.449997 C 51.730946 101.209991 51.975178 101.009857 52.250000 100.860001 C 52.479919 100.734291 52.737957 100.668915 53.000000 100.669998 C 53.129810 100.660080 53.260189 100.660080 53.389999 100.669998 L 53.389999 102.000000 C 53.176884 101.986336 52.963116 101.986336 52.750000 102.000000 C 52.368164 102.000481 51.991642 102.089478 51.650002 102.260002 L 51.650002 106.370003 Z" fill="#232F3E"/><path d=" M 54.169998 106.349998 L 54.169998 98.209999 L 55.799999 98.209999 L 55.799999 103.209999 L 57.439999 100.769997 L 59.270000 100.769997 L 57.270000 103.459999 L 59.439999 106.400002 L 57.540001 106.400002 L 55.779999 103.800003 L 55.779999 106.400002 Z" fill="#232F3E"/><path d=" M 62.169998 104.769997 C 62.169998 104.519997 62.000000 104.309998 61.660000 104.150002 L 60.930000 103.800003 C 60.256485 103.560318 59.804882 102.924881 59.799999 102.210007 C 59.786526 101.751854 59.990467 101.314301 60.349998 101.030006 C 60.772358 100.712837 61.292469 100.553619 61.820000 100.580009 C 62.349648 100.581734 62.872276 100.701294 63.349998 100.930008 L 63.349998 101.930000 C 63.124832 101.850266 62.894241 101.786774 62.660000 101.739998 C 62.459518 101.696335 62.255161 101.672890 62.049999 101.669998 C 61.540001 101.669998 61.279999 101.849998 61.279999 102.209999 C 61.279999 102.570000 61.500000 102.660004 61.919998 102.870003 L 62.639999 103.209999 C 62.948685 103.342110 63.215073 103.556602 63.410000 103.830002 C 63.586266 104.107231 63.673504 104.431755 63.660000 104.760002 C 63.671432 105.236954 63.465374 105.693222 63.099998 106.000000 C 62.675514 106.321449 62.151909 106.484184 61.619999 106.459999 C 60.986271 106.466171 60.360920 106.314987 59.799999 106.019997 L 59.799999 105.019997 C 60.318954 105.218719 60.865292 105.336754 61.419998 105.369995 C 61.620903 105.381401 61.819340 105.321159 61.980000 105.199997 C 62.103340 105.091476 62.172806 104.934265 62.169998 104.769997 Z" fill="#232F3E"/></g><g id="ICONS_-_EDIT"><path d=" M 42.580002 43.000000 L 37.419998 43.000000 C 37.144337 43.001701 36.880203 42.889534 36.689999 42.689999 C 36.499943 42.488224 36.402161 42.216614 36.419998 41.939999 L 36.490002 40.610001 C 35.720703 40.375187 34.976963 40.063618 34.270000 39.680000 L 33.380001 40.680000 C 33.195648 40.884407 32.935192 41.003780 32.660000 41.010002 C 32.388702 41.009377 32.127769 40.905720 31.930000 40.720001 L 28.270000 37.060001 C 27.882694 36.666286 27.887890 36.033142 28.281607 35.645836 C 28.294088 35.633556 28.306890 35.621609 28.320000 35.610001 L 29.320000 34.720001 C 28.939823 34.012650 28.631613 33.268921 28.400000 32.500000 L 27.059999 32.570000 C 26.508709 32.603138 26.034937 32.183094 26.001799 31.631804 C 26.000561 31.611225 25.999962 31.590614 25.999998 31.570000 L 26.000000 26.420000 C 25.998299 26.144341 26.110466 25.880203 26.309999 25.690001 C 26.511774 25.499945 26.783384 25.402164 27.059999 25.420000 L 28.400000 25.490000 C 28.633110 24.724823 28.941275 23.984558 29.320000 23.280001 L 28.320000 22.379999 C 27.906492 22.013897 27.868063 21.381899 28.234165 20.968393 C 28.245771 20.955284 28.257721 20.942482 28.269999 20.930000 L 31.930000 17.270000 C 32.310387 16.869595 32.943344 16.853363 33.343750 17.233749 C 33.356140 17.245522 33.368229 17.257608 33.380001 17.270000 L 34.279999 18.270000 C 34.984558 17.891275 35.724823 17.583111 36.489998 17.350000 L 36.419998 16.010000 C 36.402161 15.733384 36.499943 15.461775 36.689999 15.260000 C 36.880203 15.060466 37.144337 14.948298 37.419998 14.950000 L 42.580002 14.950000 C 42.855663 14.948298 43.119797 15.060466 43.310001 15.260000 C 43.500057 15.461775 43.597839 15.733384 43.580002 16.010000 L 43.509998 17.360001 C 44.274891 17.589659 45.015167 17.894478 45.719997 18.270000 L 46.619999 17.270000 C 46.804352 17.065596 47.064808 16.946218 47.340000 16.940001 C 47.611687 16.938581 47.873352 17.042530 48.070000 17.230001 L 51.730000 20.889999 C 51.922188 21.083593 52.026947 21.347298 52.020000 21.619999 C 52.013783 21.895187 51.894405 22.155645 51.689999 22.339998 L 50.689999 23.240000 C 51.070415 23.943752 51.378651 24.684191 51.609997 25.449999 L 52.950001 25.379999 C 53.226616 25.362164 53.498226 25.459942 53.700001 25.650000 C 53.899536 25.840204 54.011703 26.104340 54.010002 26.379999 L 54.009998 31.540001 C 54.011700 31.815660 53.899532 32.079796 53.699997 32.270000 C 53.498222 32.460056 53.226612 32.557838 52.949997 32.540001 L 51.610001 32.470001 C 51.378654 33.235809 51.070419 33.976250 50.690002 34.680000 L 51.689999 35.580002 C 51.894405 35.764355 52.013779 36.024811 52.020000 36.300003 C 52.026947 36.572704 51.922188 36.836411 51.730000 37.030003 L 48.070000 40.689999 C 47.869175 40.870850 47.610184 40.973736 47.340000 40.980000 C 47.064812 40.973782 46.804352 40.854404 46.619999 40.649998 L 45.730000 39.650002 C 45.022648 40.030178 44.278919 40.338390 43.509998 40.570000 L 43.580002 41.900002 C 43.597839 42.176617 43.500057 42.448227 43.310001 42.650002 C 43.126884 42.864353 42.861794 42.991451 42.580002 43.000000 Z M 38.480000 41.000000 L 41.480000 41.000000 L 41.419998 39.910000 C 41.408348 39.433338 41.734844 39.014755 42.199997 38.910000 C 43.319225 38.658356 44.387695 38.218792 45.359997 37.610001 C 45.773319 37.349129 46.314651 37.425255 46.639996 37.790001 L 47.369999 38.599998 L 49.520000 36.450001 L 48.700001 35.709999 C 48.335255 35.384655 48.259132 34.843323 48.520000 34.430000 C 49.137661 33.464764 49.581059 32.398579 49.830002 31.280001 C 49.934757 30.814848 50.353340 30.488352 50.830002 30.500000 L 51.930000 30.570000 L 51.930000 27.469999 L 50.830002 27.540001 C 50.353340 27.551651 49.934757 27.225153 49.830002 26.760000 C 49.572186 25.644251 49.129398 24.579536 48.520000 23.610001 C 48.259129 23.196678 48.335255 22.655346 48.700001 22.330000 L 49.520000 21.590000 L 47.369999 19.440001 L 46.630001 20.260000 C 46.304657 20.624746 45.763325 20.700871 45.350002 20.440001 C 44.382114 19.829636 43.316647 19.389919 42.200001 19.140001 C 41.734848 19.035248 41.408352 18.616661 41.420002 18.140001 L 41.529999 17.000000 L 38.480000 17.000000 L 38.540001 18.110001 C 38.551651 18.586660 38.225155 19.005247 37.760002 19.110001 C 36.643356 19.359921 35.577892 19.799637 34.610001 20.410000 C 34.196678 20.670870 33.655346 20.594746 33.330002 20.230000 L 32.590000 19.410000 L 30.440001 21.559999 L 31.260000 22.299999 C 31.624746 22.625343 31.700871 23.166677 31.440001 23.580000 C 30.830603 24.549536 30.387817 25.614252 30.130001 26.730000 C 30.025248 27.195152 29.606661 27.521648 29.130001 27.510000 L 28.000000 27.469999 L 28.000000 30.530001 L 29.100000 30.459999 C 29.576660 30.448349 29.995247 30.774847 30.100000 31.240000 C 30.350777 32.361122 30.794004 33.430283 31.410000 34.400002 C 31.670870 34.813324 31.594746 35.354656 31.230000 35.680000 L 30.410000 36.410000 L 32.560001 38.560001 L 33.290001 37.740002 C 33.616615 37.369797 34.164520 37.293346 34.580002 37.560001 C 35.545238 38.177662 36.611423 38.621059 37.730003 38.870003 C 38.195156 38.974758 38.521652 39.393341 38.510002 39.870003 Z" fill="#FFFFFF"/><path d=" M 40.000000 35.200001 C 36.575836 35.200001 33.799999 32.424168 33.799999 29.000000 C 33.799999 25.575834 36.575832 22.799999 40.000000 22.799999 C 43.424164 22.799999 46.200001 25.575834 46.200001 29.000000 C 46.194496 32.421883 43.421883 35.194492 40.000000 35.200001 Z M 40.000000 24.799999 C 37.680405 24.799999 35.799999 26.680403 35.799999 29.000000 C 35.799999 31.319595 37.680405 33.200001 40.000000 33.200001 C 42.319595 33.200001 44.200001 31.319597 44.200001 29.000000 C 44.200001 26.680405 42.319595 24.799999 40.000000 24.799999 Z" fill="#FFFFFF"/><rect x="39.000000" y="45.000000" width="2.000000" height="9.000000" fill="#FFFFFF"/><path d=" M 58.000000 54.000000 L 56.000000 54.000000 L 56.000000 51.000000 L 24.000000 51.000000 L 24.000000 54.000000 L 22.000000 54.000000 L 22.000000 50.000000 C 22.000000 49.447716 22.447716 49.000000 23.000000 49.000000 L 57.000000 49.000000 C 57.552284 49.000000 58.000000 49.447716 58.000000 50.000000 Z" fill="#FFFFFF"/><path d=" M 26.000000 65.000000 L 20.000000 65.000000 C 19.447716 65.000000 19.000000 64.552284 19.000000 64.000000 L 19.000000 54.000000 C 19.000000 53.447716 19.447716 53.000000 20.000000 53.000000 L 26.000000 53.000000 C 26.552284 53.000000 27.000000 53.447716 27.000000 54.000000 L 27.000000 64.000000 C 27.000000 64.552284 26.552284 65.000000 26.000000 65.000000 Z M 21.000000 63.000000 L 25.000000 63.000000 L 25.000000 55.000000 L 21.000000 55.000000 Z" fill="#FFFFFF"/><path d=" M 43.000000 65.000000 L 37.000000 65.000000 C 36.447716 65.000000 36.000000 64.552284 36.000000 64.000000 L 36.000000 54.000000 C 36.000000 53.447716 36.447716 53.000000 37.000000 53.000000 L 43.000000 53.000000 C 43.552284 53.000000 44.000000 53.447716 44.000000 54.000000 L 44.000000 64.000000 C 44.000000 64.552284 43.552284 65.000000 43.000000 65.000000 Z M 38.000000 63.000000 L 42.000000 63.000000 L 42.000000 55.000000 L 38.000000 55.000000 Z" fill="#FFFFFF"/><path d=" M 60.000000 65.000000 L 54.000000 65.000000 C 53.447716 65.000000 53.000000 64.552284 53.000000 64.000000 L 53.000000 54.000000 C 53.000000 53.447716 53.447716 53.000000 54.000000 53.000000 L 60.000000 53.000000 C 60.552284 53.000000 61.000000 53.447716 61.000000 54.000000 L 61.000000 64.000000 C 61.000000 64.552284 60.552284 65.000000 60.000000 65.000000 Z M 55.000000 63.000000 L 59.000000 63.000000 L 59.000000 55.000000 L 55.000000 55.000000 Z" fill="#FFFFFF"/></g></svg>