<svg version="1.1" width="80.000000" height="130.000000" viewBox="0.000000 0.000000 80.000000 130.000000" xmlns="http://www.w3.org/2000/svg" xmlns:xlink="http://www.w3.org/1999/xlink" overflow="hidden"><g id="CARDS"><rect x="1.000000" y="1.000000" width="78.000000" height="78.000000" fill="#232F3E"/><path d=" M 0.000000 0.000000 L 0.000000 80.000000 L 0.000000 80.000000 L 0.000000 130.000000 L 80.000000 130.000000 L 80.000000 80.000000 L 80.000000 80.000000 L 80.000000 0.000000 Z M 1.000000 1.000000 L 79.000000 1.000000 L 79.000000 79.000000 L 1.000000 79.000000 Z" fill="#FFFFFF"/></g><g id="TEXT_-_EDIT"><path d=" M 11.850000 92.349998 L 11.420000 90.529999 L 9.420000 90.529999 L 9.000000 92.349998 L 7.220000 92.349998 L 9.540000 84.720001 L 11.410000 84.720001 L 13.710000 92.349998 Z M 9.670000 89.430000 L 11.160000 89.430000 L 10.410000 86.269997 Z" fill="#232F3E"/><path d=" M 19.059999 92.349998 L 18.120001 86.720001 L 17.219999 92.349998 L 15.360000 92.349998 L 13.570000 84.720001 L 15.270000 84.720001 L 16.330000 90.779999 L 17.250000 85.000000 L 19.080000 85.000000 L 20.000000 90.680000 L 21.000000 84.680000 L 22.670000 84.680000 L 20.879999 92.309998 Z" fill="#232F3E"/><path d=" M 25.000000 89.000000 C 24.502724 88.768532 24.064913 88.426491 23.719999 88.000000 C 23.457676 87.644348 23.320536 87.211830 23.330000 86.769997 C 23.323391 86.354721 23.441856 85.947060 23.670000 85.599998 C 23.898212 85.261978 24.217066 84.995110 24.590000 84.830002 C 25.033381 84.634041 25.515591 84.541702 26.000000 84.560005 C 26.649569 84.563965 27.291924 84.696510 27.889999 84.950005 L 27.889999 86.120003 C 27.337973 85.918839 26.757278 85.807426 26.170000 85.790001 C 25.885067 85.774620 25.603256 85.855637 25.370001 86.020004 C 25.177280 86.175255 25.069666 86.412743 25.080000 86.660004 C 25.070496 86.863945 25.138355 87.063950 25.270000 87.220001 C 25.471880 87.426239 25.713388 87.589516 25.980000 87.700005 L 26.629999 88.019997 C 26.986050 88.187546 27.321598 88.395592 27.629999 88.639999 C 27.858786 88.827263 28.043211 89.062912 28.170000 89.330002 C 28.297577 89.619499 28.359066 89.933777 28.350000 90.250000 C 28.377863 90.888214 28.099169 91.501343 27.600000 91.900002 C 27.024477 92.329575 26.317297 92.545265 25.600000 92.510002 C 25.220173 92.509636 24.841433 92.469414 24.470001 92.389999 C 24.140888 92.324646 23.821583 92.217087 23.520000 92.070000 L 23.520000 90.919998 C 23.847359 91.025635 24.181444 91.109154 24.520000 91.169998 C 24.849298 91.236969 25.184017 91.273788 25.520000 91.279999 C 25.833755 91.304230 26.145845 91.215561 26.400000 91.029999 C 26.606396 90.853905 26.717592 90.590736 26.699999 90.320000 C 26.706087 90.107033 26.631021 89.899704 26.490000 89.739998 C 26.286230 89.543251 26.049240 89.384132 25.789999 89.269997 Z" fill="#232F3E"/><path d=" M 33.730000 89.519997 L 33.730000 92.349998 L 32.080002 92.349998 L 32.080002 84.720001 L 34.720001 84.720001 C 35.370564 84.688881 36.005836 84.923500 36.480000 85.370003 C 37.360035 86.370712 37.360035 87.869293 36.480000 88.870003 C 36.005833 89.316505 35.370560 89.551125 34.720001 89.520004 Z M 33.730000 88.370003 L 34.509998 88.370003 C 34.785877 88.388420 35.053787 88.273071 35.230000 88.060005 C 35.410740 87.781036 35.498276 87.451904 35.480000 87.120003 C 35.499668 86.791100 35.411930 86.464714 35.230000 86.190002 C 35.058014 85.970413 34.788242 85.850517 34.509998 85.870003 L 33.730000 85.870003 Z" fill="#232F3E"/><path d=" M 39.389999 89.919998 C 39.387794 90.309822 39.514343 90.689461 39.750000 91.000000 C 40.045567 91.246262 40.426880 91.364975 40.810001 91.330002 C 41.039249 91.324608 41.267242 91.294434 41.490002 91.240005 C 41.761528 91.190041 42.028942 91.119843 42.290001 91.030006 L 42.290001 92.029999 C 42.031761 92.177193 41.751507 92.281868 41.459999 92.339996 C 41.131500 92.411957 40.796288 92.448830 40.459999 92.449997 C 38.740002 92.449997 37.880001 91.449997 37.880001 89.500000 C 37.826962 88.715630 38.049820 87.937401 38.510002 87.300003 C 38.967766 86.774681 39.644768 86.493523 40.340004 86.540001 C 41.700001 86.540001 42.340000 87.300003 42.340000 88.830002 C 42.339127 89.166870 42.298855 89.502487 42.220001 89.830002 Z M 40.310001 87.599998 C 39.730000 87.599998 39.419998 88.059998 39.389999 88.970001 L 41.000000 88.970001 L 41.000000 88.720001 C 41.020443 88.423340 40.961781 88.126572 40.830002 87.860001 C 40.713036 87.689537 40.516552 87.591293 40.310001 87.599998 Z" fill="#232F3E"/><path d=" M 43.540001 92.349998 L 43.540001 86.720001 L 44.889999 86.720001 L 45.070000 87.449997 C 45.269730 87.212708 45.510155 87.012917 45.779999 86.860001 C 46.013046 86.733055 46.274628 86.667656 46.539997 86.669998 L 46.919998 86.669998 L 46.919998 88.000000 C 46.706898 87.985909 46.493099 87.985909 46.279999 88.000000 C 45.901371 88.000565 45.528114 88.089600 45.189999 88.260002 L 45.189999 92.370003 Z" fill="#232F3E"/><path d=" M 49.669998 90.769997 C 49.669998 90.519997 49.500000 90.309998 49.150002 90.150002 L 48.430000 89.800003 C 47.750664 89.566200 47.293404 88.928444 47.290001 88.210007 C 47.265713 87.739006 47.475220 87.286316 47.850002 87.000008 C 48.272362 86.682838 48.792473 86.523621 49.320004 86.550011 C 49.849651 86.551735 50.372280 86.671295 50.850002 86.900009 L 50.849998 87.900002 C 50.621048 87.821503 50.387218 87.758034 50.149998 87.709999 C 49.952862 87.666542 49.751842 87.643089 49.549999 87.639999 C 49.029999 87.639999 48.779999 87.820000 48.779999 88.180000 C 48.779999 88.540001 48.990002 88.629997 49.419998 88.839996 L 50.139999 89.180000 C 50.446877 89.315102 50.712536 89.529015 50.910000 89.800003 C 51.078262 90.080269 51.161629 90.403313 51.150002 90.730003 C 51.170189 91.215103 50.967625 91.682846 50.600002 92.000000 C 50.171669 92.321404 49.644974 92.484009 49.110001 92.459999 C 48.476368 92.465340 47.851215 92.314201 47.290001 92.019997 L 47.290001 91.019997 C 47.809223 91.217819 48.355423 91.335831 48.910000 91.369995 C 49.111328 91.385101 49.311043 91.324471 49.470001 91.199997 C 49.595959 91.092514 49.668957 90.935577 49.670002 90.769997 Z" fill="#232F3E"/><path d=" M 54.310001 92.489998 C 53.608315 92.528084 52.927448 92.244698 52.460003 91.720001 C 51.593987 90.392052 51.593987 88.677956 52.460003 87.349998 C 53.471752 86.331032 55.117970 86.325180 56.136936 87.336929 C 56.141308 87.341270 56.145664 87.345627 56.150005 87.349998 C 57.016022 88.677948 57.016022 90.392044 56.150005 91.720001 C 55.686543 92.244324 55.008774 92.527962 54.310005 92.489998 Z M 54.310001 91.339996 C 54.593586 91.349129 54.851273 91.175995 54.950001 90.909996 C 55.216797 90.016144 55.216797 89.063843 54.950001 88.169998 C 54.814636 87.813774 54.416122 87.634735 54.059898 87.770103 C 53.875584 87.840141 53.730042 87.985687 53.660000 88.169998 C 53.393204 89.063850 53.393204 90.016151 53.660000 90.909996 C 53.762440 91.177567 54.023682 91.350380 54.310001 91.339996 Z" fill="#232F3E"/><path d=" M 61.060001 92.349998 L 61.060001 88.650002 C 61.081223 88.408081 61.032635 88.165154 60.920002 87.950005 C 60.807308 87.794876 60.620811 87.711143 60.430000 87.730003 C 60.137791 87.738640 59.853798 87.828682 59.610001 87.990005 L 59.610001 92.349998 L 58.000000 92.349998 L 58.000000 86.720001 L 59.349998 86.720001 L 59.480000 87.230003 C 60.014370 86.833908 60.655399 86.607452 61.320000 86.580002 C 61.721432 86.553581 62.113728 86.707565 62.389999 87.000000 C 62.652020 87.350540 62.779739 87.783371 62.750000 88.220001 L 62.750000 92.349998 Z" fill="#232F3E"/><path d=" M 67.000000 92.349998 L 66.849998 91.839996 C 66.696899 92.044678 66.493721 92.206528 66.260002 92.309998 C 66.016258 92.426201 65.750023 92.487640 65.480003 92.489998 C 65.041664 92.496910 64.620644 92.319069 64.320000 92.000000 C 64.013969 91.669823 63.855167 91.229507 63.880001 90.779999 C 63.856857 90.286880 64.050484 89.808296 64.410004 89.470001 C 64.813866 89.137909 65.327988 88.970108 65.850006 89.000000 C 66.160774 89.006325 66.469650 89.049973 66.770004 89.129997 L 66.769997 88.620003 C 66.797569 88.349762 66.741730 88.077560 66.609993 87.840004 C 66.445473 87.687714 66.222748 87.614693 65.999992 87.640007 C 65.395538 87.665237 64.798561 87.783279 64.229996 87.990005 L 64.230003 87.000000 C 64.517082 86.841576 64.827682 86.730164 65.150002 86.669998 C 65.528099 86.589996 65.913528 86.549774 66.300003 86.549995 C 66.843803 86.502090 67.385887 86.659012 67.820000 86.989998 C 68.169235 87.364204 68.340469 87.870636 68.290001 88.379997 L 68.290001 92.320000 Z M 66.000000 91.430000 C 66.298347 91.418404 66.580971 91.293190 66.790001 91.080002 L 66.790001 90.000000 C 66.587585 89.947983 66.378914 89.924423 66.169998 89.930000 C 65.969452 89.914780 65.772247 89.987816 65.629997 90.129997 C 65.498238 90.297188 65.434006 90.507729 65.449997 90.719994 C 65.439705 90.905304 65.492592 91.088631 65.599998 91.239990 C 65.693275 91.366104 65.843315 91.437370 66.000000 91.429993 Z" fill="#232F3E"/><path d=" M 72.089996 92.250000 C 71.769737 92.365929 71.430435 92.420219 71.089996 92.410004 C 70.701225 92.424904 70.324005 92.276192 70.049995 92.000000 C 69.786507 91.689018 69.657051 91.286263 69.689995 90.879997 L 69.690002 84.209999 L 71.339996 84.209999 L 71.339996 90.750000 C 71.329193 90.888161 71.356888 91.026619 71.419998 91.150002 C 71.499672 91.241310 71.619934 91.286407 71.739998 91.270004 C 71.856491 91.279053 71.973503 91.279053 72.089996 91.270004 Z" fill="#232F3E"/><path d=" M 28.730000 106.349998 L 28.730000 103.050003 L 26.389999 103.050003 L 26.389999 106.349998 L 24.709999 106.349998 L 24.709999 98.720001 L 26.389999 98.720001 L 26.389999 101.870003 L 28.730000 101.870003 L 28.730000 98.720001 L 30.420000 98.720001 L 30.420000 106.349998 Z" fill="#232F3E"/><path d=" M 33.160000 103.919998 C 33.148792 104.323456 33.275814 104.718628 33.520000 105.040001 C 33.815567 105.286263 34.196880 105.404976 34.580002 105.370003 C 34.809292 105.365166 35.037346 105.334984 35.260002 105.280006 C 35.534561 105.228943 35.805218 105.158775 36.070004 105.070007 L 36.070000 106.070000 C 35.807083 106.214767 35.523930 106.319267 35.230000 106.379997 C 34.901600 106.452568 34.566322 106.489449 34.230000 106.489998 C 32.509998 106.489998 31.650000 105.489998 31.650000 103.540001 C 31.596962 102.755630 31.819818 101.977402 32.279999 101.340004 C 32.737762 100.814682 33.414764 100.533524 34.110001 100.580002 C 35.470001 100.580002 36.110001 101.339996 36.110001 102.870003 C 36.109127 103.206871 36.068855 103.542488 35.990002 103.870003 Z M 34.080002 101.599998 C 33.500000 101.599998 33.189999 102.059998 33.160000 102.970001 L 34.779999 102.970001 L 34.779999 102.720001 C 34.800442 102.423340 34.741779 102.126572 34.610001 101.860001 C 34.492512 101.684830 34.290443 101.585701 34.080002 101.599998 Z" fill="#232F3E"/><path d=" M 40.209999 106.349998 L 40.070000 105.839996 C 39.913162 106.045074 39.706669 106.206825 39.470001 106.309998 C 39.227039 106.428444 38.960297 106.489998 38.690002 106.489998 C 38.250824 106.513031 37.822323 106.349617 37.510002 106.040001 C 36.899269 105.292549 36.942177 104.206917 37.610001 103.510002 C 37.991032 103.168442 38.488483 102.985924 39.000000 103.000000 C 39.314030 103.006668 39.626179 103.050301 39.930000 103.129997 L 39.930000 102.620003 C 39.957573 102.349762 39.901737 102.077560 39.770000 101.840004 C 39.605476 101.687714 39.382755 101.614693 39.160000 101.640007 C 38.555546 101.665237 37.958565 101.783279 37.389999 101.990005 L 37.389999 100.989998 C 37.672703 100.829796 37.980320 100.718239 38.299999 100.659996 C 38.681480 100.580017 39.070225 100.539803 39.459999 100.539993 C 40.012871 100.494614 40.562592 100.658813 41.000000 100.999992 C 41.344772 101.376846 41.515324 101.881233 41.470001 102.389992 L 41.470001 106.330002 Z M 39.209999 105.430000 C 39.511383 105.418922 39.797318 105.293823 40.009998 105.080002 L 40.009998 104.000000 C 39.804058 103.948677 39.592178 103.925140 39.379997 103.930000 C 39.182247 103.913605 38.987617 103.987053 38.849998 104.129997 C 38.710945 104.293694 38.642601 104.505920 38.660000 104.719994 C 38.649712 104.905304 38.702591 105.088631 38.810001 105.239990 C 38.894928 105.354698 39.027378 105.424606 39.170002 105.429993 Z" fill="#232F3E"/><path d=" M 45.279999 106.250000 C 44.959801 106.366165 44.620457 106.420456 44.279999 106.410004 C 43.884243 106.441948 43.493023 106.307922 43.199997 106.040001 C 42.936508 105.729019 42.807053 105.326263 42.839996 104.919998 L 42.840000 98.209999 L 44.500000 98.209999 L 44.500000 104.750000 C 44.487122 104.887192 44.511295 105.025330 44.570000 105.150002 C 44.650696 105.239822 44.770142 105.284615 44.889999 105.270004 C 45.006470 105.279564 45.123528 105.279564 45.239998 105.270004 Z" fill="#232F3E"/><path d=" M 49.330002 106.199997 C 48.936691 106.347153 48.519936 106.421692 48.100002 106.419998 C 47.627686 106.464508 47.156895 106.320755 46.790001 106.019997 C 46.485264 105.658775 46.337635 105.190689 46.380001 104.719994 L 46.380001 101.820000 L 45.639999 101.820000 L 45.639999 100.900002 L 46.430000 100.750000 L 46.669998 99.209999 L 48.000000 99.209999 L 48.000000 100.720001 L 49.279999 100.720001 L 49.279999 101.820000 L 48.000000 101.820000 L 48.000000 104.589996 C 47.984325 104.774376 48.033871 104.958412 48.139999 105.109993 C 48.287174 105.233894 48.478851 105.291756 48.669998 105.269997 C 48.882271 105.266159 49.093502 105.239334 49.299999 105.189995 Z" fill="#232F3E"/><path d=" M 53.320000 106.349998 L 53.320000 102.650002 C 53.339314 102.407036 53.287174 102.163719 53.169998 101.950005 C 53.058670 101.793205 52.871147 101.709015 52.679996 101.730003 C 52.387966 101.739677 52.104248 101.829636 51.859997 101.990005 L 51.860001 106.349998 L 50.209999 106.349998 L 50.209999 98.209999 L 51.860001 98.209999 L 51.860001 101.120003 C 52.355694 100.788361 52.933979 100.601364 53.529999 100.580002 C 53.931652 100.552147 54.324539 100.706367 54.599998 101.000000 C 54.865578 101.349174 54.996883 101.782127 54.969997 102.220001 L 54.970001 106.349998 Z" fill="#232F3E"/><path d=" M 15.000000 120.349998 L 15.000000 112.720001 L 17.510000 112.720001 C 18.411911 112.670197 19.286379 113.039169 19.880001 113.720001 C 20.939568 115.468689 20.939568 117.661316 19.880001 119.410004 C 19.308783 120.086281 18.454023 120.456306 17.570002 120.410004 Z M 16.680000 113.900002 L 16.680000 119.169998 L 17.389999 119.169998 C 17.864904 119.196777 18.315493 118.958000 18.559999 118.549995 C 18.859333 117.959961 18.994061 117.300148 18.949999 116.639992 L 18.950001 116.419998 C 18.993744 115.760979 18.862658 115.102089 18.570002 114.509995 C 18.317911 114.100891 17.859322 113.865814 17.380001 113.899994 Z" fill="#232F3E"/><path d=" M 24.940001 120.349998 L 24.799999 119.839996 C 24.644741 120.042564 24.442152 120.203949 24.209999 120.309998 C 23.963093 120.427322 23.693359 120.488777 23.419998 120.489998 C 22.980818 120.513031 22.552317 120.349617 22.239998 120.040001 C 21.629263 119.292549 21.672174 118.206917 22.339998 117.510002 C 22.737272 117.173096 23.250315 117.004471 23.769999 117.040001 C 24.084028 117.046669 24.396177 117.090302 24.699999 117.169998 L 24.700001 116.660004 C 24.727573 116.389763 24.671738 116.117561 24.540001 115.880005 C 24.375479 115.727715 24.152754 115.654694 23.930000 115.680008 C 23.325546 115.705238 22.728567 115.823280 22.160000 116.030006 L 22.160000 115.029999 C 22.443470 114.871468 22.750803 114.760017 23.070000 114.699997 C 23.451481 114.620018 23.840225 114.579803 24.230000 114.579994 C 24.773607 114.534027 25.315008 114.690742 25.750000 115.019997 C 26.094774 115.396851 26.265322 115.901237 26.219999 116.409996 L 26.219999 120.349998 Z M 23.940001 119.430000 C 24.241385 119.418922 24.527319 119.293823 24.740000 119.080002 L 24.740000 118.000000 C 24.534060 117.948677 24.322182 117.925140 24.110001 117.930000 C 23.912252 117.913605 23.717621 117.987053 23.580000 118.129997 C 23.440947 118.293694 23.372604 118.505920 23.389999 118.719994 C 23.379709 118.905304 23.432592 119.088631 23.539999 119.239990 C 23.625874 119.353592 23.757755 119.423195 23.900000 119.429993 Z" fill="#232F3E"/><path d=" M 29.620001 118.769997 C 29.620001 118.519997 29.440001 118.309998 29.100000 118.150002 L 28.370001 117.800003 C 27.696486 117.560318 27.244883 116.924881 27.240002 116.210007 C 27.215712 115.739006 27.425222 115.286316 27.800001 115.000008 C 28.222361 114.682838 28.742472 114.523621 29.270000 114.550011 C 29.799650 114.551735 30.322279 114.671295 30.800001 114.900009 L 30.799999 115.900002 C 30.571051 115.821503 30.337219 115.758034 30.099998 115.709999 C 29.899595 115.665863 29.695190 115.642410 29.489998 115.639999 C 28.980000 115.639999 28.719999 115.820000 28.719999 116.180000 C 28.719999 116.540001 28.940001 116.629997 29.360001 116.839996 L 30.080000 117.180000 C 30.391287 117.312325 30.660858 117.526596 30.860001 117.800003 C 31.028261 118.080269 31.111628 118.403313 31.100000 118.730003 C 31.120756 119.217346 30.913820 119.686646 30.540001 120.000000 C 30.115515 120.321449 29.591913 120.484184 29.060001 120.459999 C 28.426275 120.466171 27.800920 120.314987 27.240002 120.019997 L 27.240000 119.019997 C 27.758953 119.218719 28.305292 119.336754 28.860001 119.369995 C 29.060905 119.381401 29.259342 119.321159 29.420000 119.199997 C 29.545959 119.092514 29.618954 118.935577 29.620001 118.769997 Z" fill="#232F3E"/><path d=" M 35.130001 120.349998 L 35.130001 116.650002 C 35.140942 116.425926 35.096283 116.202629 35.000000 116.000000 C 34.884102 115.843231 34.693878 115.759537 34.500000 115.779999 C 34.208229 115.791183 33.924908 115.881020 33.680000 116.040001 L 33.680000 120.400002 L 32.000000 120.400002 L 32.000000 112.260002 L 33.650002 112.260002 L 33.650002 115.169998 C 34.149483 114.838501 34.730915 114.651611 35.330002 114.629997 C 35.731434 114.603577 36.123730 114.757561 36.400002 115.049995 C 36.662022 115.400536 36.789742 115.833366 36.760002 116.269997 L 36.759998 120.400002 Z" fill="#232F3E"/><path d=" M 38.180000 120.349998 L 38.180000 112.209999 L 39.830002 112.209999 L 39.830002 115.110001 C 40.007931 114.939102 40.218918 114.806389 40.450001 114.720001 C 40.669201 114.630531 40.903263 114.583038 41.139999 114.580002 C 41.738987 114.543228 42.314240 114.819504 42.660000 115.310005 C 43.051548 115.955635 43.233227 116.706802 43.180000 117.460007 C 43.226578 118.231071 43.038300 118.998138 42.639999 119.660004 C 42.307404 120.171043 41.729107 120.467804 41.119999 120.440002 C 40.855274 120.438156 40.593548 120.383774 40.349998 120.279999 C 40.100922 120.182495 39.875801 120.032417 39.689999 119.839996 L 39.540001 120.349998 Z M 40.599998 115.699997 C 40.322933 115.697105 40.052521 115.784897 39.829998 115.949997 L 39.830002 119.059998 C 40.058674 119.221687 40.330051 119.312141 40.610001 119.320000 C 40.910667 119.339958 41.192699 119.173119 41.320000 118.900002 C 41.488617 118.463989 41.560276 117.996498 41.529999 117.529999 C 41.562283 117.050362 41.490654 116.569412 41.320000 116.119995 C 41.189171 115.845284 40.903522 115.678658 40.599998 115.699997 Z" fill="#232F3E"/><path d=" M 46.549999 120.489998 C 45.851231 120.527954 45.173462 120.244324 44.709999 119.720001 C 43.843983 118.392052 43.843983 116.677956 44.709999 115.349998 C 45.721748 114.331032 47.367966 114.325180 48.386932 115.336929 C 48.391304 115.341270 48.395660 115.345627 48.400002 115.349998 C 49.266018 116.677948 49.266018 118.392044 48.400002 119.720001 C 47.932556 120.244698 47.251686 120.528084 46.550003 120.489998 Z M 46.549999 119.339996 C 46.836319 119.350388 47.097557 119.177567 47.200001 118.909996 C 47.466797 118.016144 47.466797 117.063843 47.200001 116.169998 C 47.064636 115.813774 46.666122 115.634735 46.309898 115.770103 C 46.125584 115.840141 45.980042 115.985687 45.910000 116.169998 C 45.643204 117.063850 45.643204 118.016151 45.910000 118.909996 C 46.008728 119.175995 46.266415 119.349129 46.549999 119.339996 Z" fill="#232F3E"/><path d=" M 53.110001 120.349998 L 52.959999 119.839996 C 52.809303 120.046989 52.605442 120.209389 52.369999 120.309998 C 52.126694 120.427460 51.860176 120.488968 51.590000 120.489998 C 51.150822 120.513031 50.722321 120.349617 50.410000 120.040001 C 50.103970 119.709824 49.945168 119.269508 49.970001 118.820000 C 49.946857 118.326881 50.140484 117.848297 50.500000 117.510002 C 50.903866 117.177910 51.417988 117.010109 51.939999 117.040001 C 52.254028 117.046669 52.566177 117.090302 52.869999 117.169998 L 52.869999 116.660004 C 52.895195 116.388687 52.835812 116.116226 52.700001 115.880005 C 52.539997 115.726921 52.319851 115.653542 52.100002 115.680008 C 51.492172 115.704216 50.891747 115.822273 50.320004 116.030006 L 50.320000 115.029999 C 50.607075 114.871574 50.917679 114.760162 51.239998 114.699997 C 51.621399 114.619514 52.010197 114.579300 52.399998 114.579994 C 52.943604 114.534027 53.485004 114.690742 53.919998 115.019997 C 54.261158 115.398506 54.428013 115.902695 54.379997 116.409996 L 54.380001 120.349998 Z M 52.110001 119.430000 C 52.411385 119.418922 52.697319 119.293823 52.910000 119.080002 L 52.910000 118.000000 C 52.704060 117.948677 52.492180 117.925140 52.279999 117.930000 C 52.079453 117.914780 51.882248 117.987816 51.739998 118.129997 C 51.608238 118.297188 51.544003 118.507729 51.559998 118.719994 C 51.549709 118.905304 51.602589 119.088631 51.709999 119.239990 C 51.794926 119.354698 51.927376 119.424606 52.070000 119.429993 Z" fill="#232F3E"/><path d=" M 55.779999 120.349998 L 55.779999 114.720001 L 57.130001 114.720001 L 57.310001 115.449997 C 57.510948 115.209991 57.755180 115.009857 58.030003 114.860001 C 58.259922 114.734291 58.517960 114.668915 58.780003 114.669998 C 58.909813 114.660080 59.040192 114.660080 59.170002 114.669998 L 59.169998 116.000000 C 58.956882 115.986336 58.743114 115.986336 58.529999 116.000000 C 58.148163 116.000481 57.771641 116.089478 57.430000 116.260002 L 57.430000 120.370003 Z" fill="#232F3E"/><path d=" M 63.169998 120.349998 L 63.029999 119.860001 C 62.849529 120.042419 62.635639 120.188408 62.399998 120.290001 C 62.172966 120.389297 61.927792 120.440376 61.679996 120.440002 C 61.081470 120.464928 60.511787 120.181969 60.169998 119.690002 C 59.449997 118.340004 59.449997 116.720001 60.169998 115.370003 C 60.507568 114.858131 61.087204 114.558846 61.699997 114.580002 C 61.915634 114.589058 62.128387 114.632957 62.329998 114.709999 C 62.567074 114.771172 62.793137 114.869019 62.999996 115.000000 L 63.000000 112.169998 L 64.650002 112.169998 L 64.650002 120.309998 Z M 62.240002 119.349998 C 62.496094 119.346977 62.745956 119.270630 62.960003 119.129997 L 62.959999 116.000000 C 62.726196 115.841095 62.452480 115.751007 62.169998 115.739998 C 61.872879 115.727325 61.600185 115.903778 61.489998 116.180000 C 61.332729 116.625710 61.264771 117.098030 61.289997 117.570000 C 61.256958 118.035194 61.335823 118.501541 61.519997 118.930000 C 61.661594 119.191101 61.943943 119.344040 62.239998 119.320000 Z" fill="#232F3E"/></g><g id="ICONS_-_EDIT"><path d=" M 59.660000 40.619999 L 58.080002 39.380001 L 60.900002 35.880001 C 61.229309 35.434906 61.526718 34.967072 61.790001 34.480000 C 62.587440 32.984375 63.003082 31.314930 63.000000 29.619999 C 62.890507 23.651785 57.968376 18.899691 52.000000 18.999998 C 46.520000 19.000000 41.000000 21.830000 41.000000 28.170000 C 41.000000 28.722284 40.552284 29.170000 40.000000 29.170000 C 39.447716 29.170000 39.000000 28.722284 39.000000 28.170000 C 39.000000 21.830000 33.480000 19.000000 28.000000 19.000000 C 22.031624 18.899693 17.109493 23.651787 17.000000 29.620001 C 16.996077 31.311852 17.411821 32.978264 18.209999 34.470001 L 22.049999 39.380001 L 20.469999 40.619999 L 16.580000 35.619999 L 16.490000 35.490002 C 15.506642 33.690147 14.994106 31.670961 15.000000 29.620001 C 15.115109 22.549629 20.929325 16.905367 28.000000 17.000000 C 33.689999 17.000000 38.110001 19.540001 40.000000 23.549999 C 41.889999 19.549999 46.310001 17.000000 52.000000 17.000000 C 59.070675 16.905367 64.884888 22.549629 65.000000 29.620001 C 65.003098 31.643417 64.504929 33.636093 63.549999 35.420002 C 63.233883 36.018761 62.869335 36.590664 62.459999 37.130001 L 61.639999 38.130001 Z" fill="#FFFFFF"/><path d=" M 40.000000 65.000000 L 40.000000 65.000000 C 39.692219 65.001656 39.400822 64.861488 39.209999 64.620003 L 25.150000 46.619999 L 26.730000 45.380001 L 40.000000 62.380001 L 53.369999 45.380001 L 55.000000 46.619999 L 40.840000 64.620003 C 40.638577 64.875885 40.325172 65.017662 40.000000 65.000000 Z" fill="#FFFFFF"/><path d=" M 40.000000 50.000000 C 39.609428 50.000965 39.254040 49.774456 39.090000 49.419998 L 33.910000 38.180000 L 30.910000 43.500000 C 30.723740 43.823425 30.372871 44.016209 30.000000 44.000000 L 19.000000 44.000000 L 19.000000 42.000000 L 29.420000 42.000000 L 33.130001 35.500000 C 33.309341 35.189365 33.641315 34.998577 34.000000 35.000000 C 34.376026 35.014244 34.712223 35.238377 34.869999 35.580002 L 39.810001 46.290001 L 46.009998 27.680000 C 46.180241 27.154610 46.744164 26.866705 47.269554 27.036947 C 47.595650 27.142612 47.844898 27.407942 47.929996 27.740000 L 51.770000 42.000000 L 65.000000 42.000000 L 65.000000 44.000000 L 51.000000 44.000000 C 50.535130 44.015923 50.120663 43.709217 50.000000 43.259998 L 46.889999 31.480000 L 41.000000 49.320000 C 40.870010 49.707130 40.517685 49.976322 40.110001 50.000000 Z" fill="#FFFFFF"/><rect x="15.000000" y="42.000000" width="2.000000" height="2.000000" fill="#FFFFFF"/></g></svg>