<svg version="1.1" width="80.000000" height="115.000000" viewBox="0.000000 0.000000 80.000000 115.000000" xmlns="http://www.w3.org/2000/svg" xmlns:xlink="http://www.w3.org/1999/xlink" overflow="hidden"><g id="CARDS"><rect x="1.000000" y="1.000000" width="78.000000" height="78.000000" fill="#232F3E"/><path d=" M 0.000000 0.000000 L 0.000000 80.000000 L 0.000000 80.000000 L 0.000000 115.000000 L 80.000000 115.000000 L 80.000000 80.000000 L 80.000000 80.000000 L 80.000000 0.000000 Z M 1.000000 1.000000 L 79.000000 1.000000 L 79.000000 79.000000 L 1.000000 79.000000 Z" fill="#FFFFFF"/></g><g id="TEXT_-_EDIT"><path d=" M 15.230000 92.349998 L 14.800000 90.529999 L 12.800000 90.529999 L 12.380000 92.349998 L 10.600000 92.349998 L 12.920000 84.720001 L 14.780000 84.720001 L 17.090000 92.349998 Z M 13.050000 89.430000 L 14.540000 89.430000 L 13.780000 86.269997 Z" fill="#232F3E"/><path d=" M 22.440001 92.349998 L 21.440001 86.720001 L 20.549999 92.349998 L 18.740000 92.349998 L 17.000000 84.720001 L 18.700001 84.720001 L 19.760000 90.779999 L 20.629999 85.000000 L 22.459999 85.000000 L 23.400000 90.650002 L 24.400000 84.650002 L 26.070000 84.650002 L 24.299999 92.349998 Z" fill="#232F3E"/><path d=" M 28.389999 89.000000 C 27.892723 88.768532 27.454912 88.426491 27.109999 88.000000 C 26.847675 87.644348 26.710535 87.211830 26.719999 86.769997 C 26.713390 86.354721 26.831856 85.947060 27.059999 85.599998 C 27.288212 85.261978 27.607065 84.995110 27.980000 84.830002 C 28.404984 84.642815 28.865711 84.550667 29.330000 84.560005 C 29.979568 84.563965 30.621923 84.696510 31.219999 84.950005 L 31.219999 86.120003 C 30.664803 85.917786 30.080648 85.806358 29.490000 85.790001 C 29.208347 85.776108 28.930176 85.857094 28.699999 86.020004 C 28.507278 86.175255 28.399664 86.412743 28.409998 86.660004 C 28.400494 86.863945 28.468353 87.063950 28.599998 87.220001 C 28.801878 87.426239 29.043386 87.589516 29.309998 87.700005 L 30.000000 88.000000 C 30.356050 88.167549 30.691599 88.375595 31.000000 88.620003 C 31.228786 88.807266 31.413212 89.042915 31.540001 89.310005 C 31.667578 89.599503 31.729067 89.913780 31.720001 90.230003 C 31.747864 90.868217 31.469170 91.481346 30.970001 91.880005 C 30.394478 92.309578 29.687298 92.525269 28.970001 92.490005 C 28.590174 92.489639 28.211433 92.449417 27.840002 92.370003 C 27.493343 92.310631 27.156729 92.202911 26.840002 92.050003 L 26.840000 90.919998 C 27.167017 91.026825 27.501186 91.110367 27.840000 91.169998 C 28.169298 91.236969 28.504017 91.273788 28.840000 91.279999 C 29.153755 91.304230 29.465845 91.215561 29.719999 91.029999 C 29.926395 90.853905 30.037592 90.590736 30.019999 90.320000 C 30.026087 90.107033 29.951021 89.899704 29.809999 89.739998 C 29.606230 89.543251 29.369240 89.384132 29.109999 89.269997 Z" fill="#232F3E"/><path d=" M 36.779999 89.000000 C 36.285400 88.768761 35.850800 88.426559 35.509998 88.000000 C 35.247677 87.644348 35.110535 87.211830 35.119999 86.769997 C 35.108891 86.354126 35.227737 85.945145 35.459999 85.599998 C 35.685699 85.259720 36.005287 84.992241 36.379997 84.830002 C 36.801811 84.643929 37.259041 84.551804 37.719997 84.560005 C 38.369762 84.562088 39.012482 84.694710 39.609997 84.950005 L 39.610001 86.120003 C 39.058254 85.917831 38.477394 85.806381 37.889999 85.790001 C 37.608349 85.776108 37.330177 85.857094 37.099998 86.020004 C 36.903198 86.172058 36.794575 86.411781 36.809998 86.660004 C 36.802311 86.862022 36.866039 87.060295 36.989998 87.220001 C 37.197769 87.423737 37.442020 87.586571 37.709999 87.700005 L 38.360001 88.019997 C 38.716053 88.187546 39.051601 88.395592 39.360001 88.639999 C 39.588787 88.827263 39.773212 89.062912 39.900002 89.330002 C 40.019375 89.621704 40.077251 89.934906 40.070000 90.250000 C 40.100262 90.886475 39.825428 91.499283 39.329998 91.900002 C 38.754475 92.329575 38.047295 92.545265 37.329998 92.510002 C 36.950138 92.510231 36.571335 92.470001 36.199997 92.389999 C 35.870468 92.326210 35.550961 92.218590 35.249996 92.070000 L 35.250000 90.919998 C 35.577019 91.026825 35.911186 91.110367 36.250000 91.169998 C 36.579121 91.238113 36.913944 91.274940 37.250000 91.279999 C 37.563755 91.304230 37.875843 91.215561 38.130001 91.029999 C 38.336395 90.853905 38.447594 90.590736 38.430000 90.320000 C 38.436089 90.107033 38.361023 89.899704 38.220001 89.739998 C 38.012325 89.543411 37.772091 89.384384 37.510002 89.269997 Z" fill="#232F3E"/><path d=" M 42.419998 89.919998 C 42.417793 90.309822 42.544342 90.689461 42.779999 91.000000 C 43.075565 91.246262 43.456879 91.364975 43.840000 91.330002 C 44.069290 91.325165 44.297344 91.294983 44.520000 91.240005 C 44.794559 91.188942 45.065216 91.118774 45.330002 91.030006 L 45.330002 92.029999 C 45.067085 92.174767 44.783932 92.279266 44.490002 92.339996 C 44.161602 92.412567 43.826324 92.449448 43.490002 92.449997 C 41.770000 92.449997 40.910000 91.449997 40.910000 89.500000 C 40.856960 88.715630 41.079819 87.937401 41.540001 87.300003 C 41.997765 86.774681 42.674767 86.493523 43.370003 86.540001 C 44.730000 86.540001 45.369999 87.300003 45.369999 88.830002 C 45.369125 89.166870 45.328854 89.502487 45.250000 89.830002 Z M 43.340000 87.599998 C 42.759998 87.599998 42.450001 88.059998 42.419998 88.970001 L 44.000000 88.970001 L 44.000000 88.720001 C 44.020443 88.423340 43.961781 88.126572 43.830002 87.860001 C 43.720135 87.697166 43.536434 87.599693 43.340000 87.599998 Z" fill="#232F3E"/><path d=" M 46.570000 92.349998 L 46.570000 86.720001 L 47.919998 86.720001 L 48.099998 87.449997 C 48.299728 87.212708 48.540154 87.012917 48.809998 86.860001 C 49.043045 86.733055 49.304626 86.667656 49.569996 86.669998 L 49.950001 86.669998 L 49.950001 88.000000 C 49.736900 87.985909 49.523102 87.985909 49.310001 88.000000 C 48.931374 88.000565 48.558117 88.089600 48.220001 88.260002 L 48.220001 92.370003 Z" fill="#232F3E"/><path d=" M 52.369999 92.349998 L 50.520000 86.720001 L 52.259998 86.720001 L 53.160000 90.720001 L 54.070000 86.720001 L 55.770000 86.720001 L 53.930000 92.349998 Z" fill="#232F3E"/><path d=" M 57.400002 85.809998 C 57.143860 85.830612 56.889610 85.751831 56.690002 85.589996 C 56.510807 85.439140 56.411186 85.214073 56.420002 84.979996 C 56.409645 84.745628 56.509552 84.519913 56.690002 84.369995 C 57.110443 84.064751 57.679562 84.064751 58.100002 84.369995 C 58.274265 84.523682 58.369812 84.747849 58.360001 84.979996 C 58.366993 85.211624 58.271938 85.434639 58.100002 85.589996 C 57.902973 85.749374 57.652782 85.828011 57.400002 85.809998 Z M 56.560001 92.349998 L 56.560001 86.720001 L 58.220001 86.720001 L 58.220001 92.349998 Z" fill="#232F3E"/><path d=" M 63.310001 92.089996 C 63.113365 92.213127 62.896801 92.301109 62.670002 92.349998 C 62.407776 92.411209 62.139271 92.441414 61.870003 92.439995 C 61.167545 92.497391 60.477787 92.228127 60.000004 91.709991 C 59.155552 90.393791 59.155552 88.706192 60.000004 87.389992 C 60.482002 86.869011 61.171364 86.590332 61.880005 86.629990 C 62.349957 86.630135 62.812981 86.743317 63.230003 86.959991 L 63.230000 87.959999 C 62.909462 87.841820 62.571545 87.777618 62.230000 87.769997 C 61.871944 87.735214 61.521011 87.886154 61.299999 88.169998 C 61.082069 88.563194 60.984688 89.011833 61.020000 89.459999 L 61.020000 89.620003 C 60.985355 90.063736 61.079082 90.508072 61.290001 90.900002 C 61.500893 91.185333 61.847187 91.337547 62.200001 91.300003 C 62.569382 91.292480 62.934715 91.221443 63.280003 91.090004 Z" fill="#232F3E"/><path d=" M 65.580002 89.919998 C 65.568947 90.311180 65.696449 90.693687 65.940002 91.000000 C 66.234474 91.248260 66.616646 91.367241 67.000000 91.330002 C 67.229202 91.323997 67.457130 91.293831 67.680000 91.240005 C 67.951530 91.190041 68.218941 91.119843 68.480003 91.030006 L 68.480003 92.029999 C 68.221764 92.177193 67.941513 92.281868 67.650002 92.339996 C 67.321480 92.411812 66.986282 92.448685 66.650002 92.449997 C 64.930000 92.449997 64.070000 91.449997 64.070000 89.500000 C 64.015511 88.713959 64.242363 87.934151 64.709999 87.300003 C 65.164650 86.776291 65.837921 86.495148 66.529999 86.540001 C 67.900002 86.540001 68.529999 87.300003 68.529999 88.830002 C 68.529129 89.166870 68.488853 89.502487 68.409996 89.830002 Z M 66.489998 87.599998 C 65.910004 87.599998 65.610001 88.059998 65.580002 88.970001 L 67.190002 88.970001 L 67.190002 88.720001 C 67.210442 88.423340 67.151779 88.126572 67.020004 87.860001 C 66.902512 87.684830 66.700447 87.585701 66.490005 87.599998 Z" fill="#232F3E"/><path d=" M 27.410000 106.129997 C 26.845158 106.360497 26.240032 106.476082 25.629999 106.469994 C 23.383333 106.470001 22.256666 105.169998 22.250000 102.570000 C 22.183914 101.513390 22.495842 100.467720 23.129999 99.620003 C 23.779337 98.922134 24.709003 98.554680 25.660000 98.620003 C 26.223656 98.618950 26.782787 98.720612 27.309999 98.920006 L 27.309999 100.129997 C 26.842051 99.991005 26.357962 99.913689 25.869999 99.899994 C 25.330450 99.854988 24.804413 100.084198 24.469999 100.509995 C 24.125200 101.091789 23.968069 101.765701 24.019999 102.439995 L 24.020000 102.690002 C 23.969347 103.353394 24.122887 104.016403 24.460001 104.590004 C 24.782574 105.013901 25.299139 105.243904 25.830002 105.200005 C 26.364769 105.173027 26.894787 105.085808 27.410002 104.940002 Z" fill="#232F3E"/><path d=" M 31.309999 106.349998 L 31.170000 105.839996 C 31.016903 106.044678 30.813725 106.206528 30.580000 106.309998 C 30.336252 106.426201 30.070021 106.487640 29.799999 106.489998 C 29.360420 106.515594 28.930912 106.351791 28.619999 106.040001 C 28.313969 105.709824 28.155167 105.269508 28.179998 104.820000 C 28.156857 104.326881 28.350481 103.848297 28.709999 103.510002 C 29.109810 103.170593 29.626942 103.001808 30.150000 103.040001 C 30.460674 103.047447 30.769424 103.091080 31.070000 103.169998 L 31.070000 102.660004 C 31.097572 102.389763 31.041737 102.117561 30.910000 101.880005 C 30.745478 101.727715 30.522753 101.654694 30.299999 101.680008 C 29.695545 101.705238 29.098566 101.823280 28.529999 102.030006 L 28.530001 101.029999 C 28.816566 100.870445 29.127356 100.758965 29.450001 100.699997 C 29.828018 100.619484 30.213505 100.579254 30.600000 100.579994 C 31.143799 100.532089 31.685883 100.689011 32.119999 101.019997 C 32.464771 101.396851 32.635323 101.901237 32.590000 102.409996 L 32.590000 106.349998 Z M 30.309999 105.430000 C 30.608345 105.418404 30.890970 105.293190 31.100000 105.080002 L 31.100000 104.000000 C 30.897587 103.947983 30.688915 103.924423 30.480000 103.930000 C 30.279068 103.911972 30.080709 103.985435 29.939999 104.129997 C 29.804661 104.295738 29.736811 104.506424 29.749998 104.719994 C 29.739708 104.905304 29.792591 105.088631 29.899998 105.239990 C 29.992121 105.356667 30.131384 105.426300 30.279997 105.429993 Z" fill="#232F3E"/><path d=" M 37.000000 106.199997 C 36.609894 106.346176 36.196594 106.420708 35.779999 106.419998 C 35.304668 106.463928 34.830990 106.320389 34.459999 106.019997 C 34.159145 105.656647 34.012035 105.190201 34.049999 104.719994 L 34.049999 101.820000 L 33.320000 101.820000 L 33.320000 100.900002 L 34.099998 100.750000 L 34.340000 99.209999 L 35.700001 99.209999 L 35.700001 100.720001 L 37.000000 100.720001 L 37.000000 101.820000 L 35.720001 101.820000 L 35.720001 104.589996 C 35.701530 104.776146 35.755222 104.962288 35.870003 105.109993 C 36.015343 105.237236 36.208530 105.295555 36.400002 105.269997 C 36.608978 105.266144 36.816895 105.239319 37.020000 105.189995 Z" fill="#232F3E"/><path d=" M 40.810001 106.349998 L 40.660000 105.839996 C 40.509304 106.046989 40.305443 106.209389 40.070000 106.309998 C 39.826252 106.426201 39.560020 106.487640 39.290001 106.489998 C 38.850822 106.513031 38.422321 106.349617 38.110001 106.040001 C 37.803970 105.709824 37.645168 105.269508 37.670002 104.820000 C 37.646858 104.326881 37.840485 103.848297 38.200001 103.510002 C 38.603867 103.177910 39.117989 103.010109 39.639999 103.040001 C 39.954029 103.046669 40.266178 103.090302 40.570000 103.169998 L 40.570000 102.660004 C 40.595196 102.388687 40.535812 102.116226 40.400002 101.880005 C 40.239998 101.726921 40.019852 101.653542 39.800003 101.680008 C 39.187019 101.692505 38.579731 101.800461 38.000004 102.000008 L 38.000000 101.000000 C 38.287075 100.841576 38.597679 100.730164 38.919998 100.669998 C 39.301399 100.589516 39.690197 100.549301 40.079998 100.549995 C 40.620739 100.501686 41.159843 100.658775 41.589996 100.989998 C 41.939228 101.364204 42.110470 101.870636 42.059998 102.379997 L 42.060001 106.320000 Z M 39.810001 105.430000 C 40.111385 105.418922 40.397320 105.293823 40.610001 105.080002 L 40.610001 104.000000 C 40.404060 103.948677 40.192181 103.925140 39.980000 103.930000 C 39.779453 103.914780 39.582249 103.987816 39.439999 104.129997 C 39.308239 104.297188 39.244003 104.507729 39.259998 104.719994 C 39.249710 104.905304 39.302589 105.088631 39.410000 105.239990 C 39.494926 105.354698 39.627377 105.424606 39.770000 105.429993 Z" fill="#232F3E"/><path d=" M 45.880001 106.250000 C 45.559803 106.366165 45.220459 106.420456 44.880001 106.410004 C 44.483784 106.445717 44.091080 106.311180 43.799999 106.040001 C 43.536510 105.729019 43.407055 105.326263 43.439999 104.919998 L 43.439999 98.209999 L 45.090000 98.209999 L 45.090000 104.750000 C 45.079197 104.888161 45.106888 105.026619 45.170002 105.150002 C 45.249672 105.241310 45.369938 105.286407 45.490002 105.270004 C 45.606491 105.279053 45.723511 105.279053 45.840000 105.270004 Z" fill="#232F3E"/><path d=" M 49.000000 106.489998 C 48.300713 106.530975 47.621677 106.246811 47.160000 105.720001 C 46.293983 104.392052 46.293983 102.677956 47.160000 101.349998 C 48.158825 100.333794 49.792332 100.319710 50.808537 101.318535 C 50.819115 101.328934 50.829605 101.339424 50.840000 101.349998 C 51.706017 102.677948 51.706017 104.392044 50.840000 105.720001 C 50.376537 106.244324 49.698769 106.527962 49.000000 106.489998 Z M 49.000000 105.339996 C 49.284492 105.352325 49.543888 105.178047 49.639999 104.909996 C 49.906796 104.016144 49.906796 103.063843 49.639999 102.169998 C 49.547371 101.897995 49.287136 101.719078 49.000000 101.729996 C 48.711109 101.721107 48.449081 101.898483 48.349998 102.169998 C 48.094864 103.065514 48.094864 104.014481 48.349998 104.909996 C 48.452438 105.177567 48.713680 105.350380 49.000000 105.339996 Z" fill="#232F3E"/><path d=" M 55.549999 105.709999 C 55.238068 106.047455 54.799538 106.239540 54.340000 106.239998 C 53.764961 106.256142 53.221649 105.976936 52.900002 105.500000 C 52.523476 104.903000 52.338539 104.205116 52.370003 103.500000 C 52.327824 102.757782 52.516457 102.020706 52.910004 101.389999 C 53.229710 100.896965 53.782566 100.605385 54.370003 100.620003 C 54.615685 100.628410 54.857155 100.686226 55.080002 100.790001 C 55.317307 100.897537 55.531315 101.050400 55.710003 101.239998 L 55.830002 100.760002 L 57.180000 100.760002 L 57.180000 106.000000 C 57.180000 107.860001 56.320000 108.790001 54.610001 108.790001 C 53.973320 108.794128 53.345215 108.643105 52.779999 108.349998 L 52.779999 107.349998 C 53.299221 107.547821 53.845421 107.665833 54.399998 107.699997 C 54.640434 107.714272 54.880718 107.669647 55.099998 107.570000 C 55.268440 107.475662 55.391201 107.316795 55.439999 107.129997 C 55.534847 106.805656 55.572079 106.467201 55.549999 106.129997 Z M 54.889999 105.110001 C 55.126286 105.100060 55.355007 105.023819 55.549999 104.889999 L 55.549999 102.000000 C 55.339333 101.838676 55.084938 101.744583 54.820000 101.730003 C 54.550808 101.727432 54.309723 101.896187 54.220001 102.150002 C 54.064037 102.564812 53.995930 103.007492 54.020000 103.450005 C 53.995819 103.886879 54.067493 104.323753 54.230000 104.730003 C 54.355820 104.975739 54.614315 105.124565 54.889999 105.110001 Z" fill="#232F3E"/></g><g id="ICONS_-_EDIT"><path d=" M 40.000000 40.169998 C 39.823914 40.168171 39.651432 40.119873 39.500000 40.029999 L 32.500000 36.029999 C 32.189365 35.850658 31.998575 35.518684 32.000000 35.160000 L 32.000000 27.000000 C 31.998575 26.641315 32.189365 26.309341 32.500000 26.129999 L 39.500000 22.129999 C 39.809402 21.951366 40.190598 21.951366 40.500000 22.129999 L 47.500000 26.129999 C 47.810635 26.309340 48.001423 26.641314 48.000000 27.000000 L 48.000000 35.080002 C 48.001423 35.438686 47.810635 35.770660 47.500000 35.950001 L 40.500000 39.950001 C 40.356979 40.068317 40.183853 40.144493 40.000000 40.170002 Z M 34.000000 34.549999 L 40.000000 38.000000 L 46.000000 34.540001 L 46.000000 27.620001 L 40.000000 24.150000 L 34.000000 27.620001 Z" fill="#FFFFFF"/><path d=" M 40.000000 32.080002 C 39.824825 32.081211 39.652405 32.036381 39.500000 31.950003 L 32.500000 27.950001 L 33.500000 26.209999 L 40.000000 29.930000 L 46.500000 26.170000 L 47.500000 27.910000 L 40.500000 31.910000 C 40.351578 32.010448 40.178890 32.069160 40.000000 32.079998 Z" fill="#FFFFFF"/><rect x="39.000000" y="31.080000" width="2.000000" height="8.080000" fill="#FFFFFF"/><path d=" M 47.000000 52.290001 C 46.824825 52.291210 46.652405 52.246380 46.500000 52.160000 L 39.500000 48.160000 C 39.189365 47.980659 38.998577 47.648685 39.000000 47.290001 L 39.000000 39.169998 C 38.998577 38.811314 39.189365 38.479340 39.500000 38.299999 L 46.500000 34.299999 C 46.809402 34.121365 47.190598 34.121365 47.500000 34.299999 L 54.500000 38.299999 C 54.810635 38.479340 55.001423 38.811314 55.000000 39.169998 L 55.000000 47.250000 C 55.001423 47.608685 54.810635 47.940659 54.500000 48.119999 L 47.500000 52.119999 C 47.351578 52.220448 47.178890 52.279160 47.000000 52.289997 Z M 41.000000 46.669998 L 47.000000 50.139999 L 53.000000 46.669998 L 53.000000 39.740002 L 47.000000 36.279999 L 41.000000 39.740002 Z" fill="#FFFFFF"/><path d=" M 47.000000 44.209999 C 46.823914 44.208172 46.651432 44.159874 46.500000 44.070000 L 39.500000 40.070000 L 40.500000 38.340000 L 47.000000 42.049999 L 53.500000 38.299999 L 54.500000 40.029999 L 47.500000 44.029999 C 47.352619 44.133995 47.179852 44.196194 47.000000 44.209999 Z" fill="#FFFFFF"/><rect x="46.000000" y="43.210000" width="2.000000" height="8.080000" fill="#FFFFFF"/><path d=" M 33.000000 52.290001 C 32.824825 52.291210 32.652405 52.246380 32.500000 52.160000 L 25.500000 48.160000 C 25.189365 47.980659 24.998575 47.648685 25.000000 47.290001 L 25.000000 39.169998 C 24.998575 38.811314 25.189365 38.479340 25.500000 38.299999 L 32.500000 34.299999 C 32.809402 34.121365 33.190598 34.121365 33.500000 34.299999 L 40.500000 38.299999 C 40.810635 38.479340 41.001423 38.811314 41.000000 39.169998 L 41.000000 47.250000 C 41.001423 47.608685 40.810635 47.940659 40.500000 48.119999 L 33.500000 52.119999 C 33.351578 52.220448 33.178890 52.279160 33.000000 52.289997 Z M 27.000000 46.669998 L 33.000000 50.139999 L 39.000000 46.669998 L 39.000000 39.740002 L 33.000000 36.279999 L 27.000000 39.740002 Z" fill="#FFFFFF"/><path d=" M 33.000000 44.209999 C 32.823914 44.208172 32.651432 44.159874 32.500000 44.070000 L 25.500000 40.070000 L 26.500000 38.340000 L 33.000000 42.049999 L 39.500000 38.299999 L 40.500000 40.029999 L 33.500000 44.029999 C 33.352619 44.133995 33.179852 44.196194 33.000000 44.209999 Z" fill="#FFFFFF"/><rect x="32.000000" y="43.210000" width="2.000000" height="8.080000" fill="#FFFFFF"/><path d=" M 32.669998 60.439999 C 21.936159 56.908199 15.281328 46.186295 16.879997 35.000000 C 17.027670 33.955868 17.248209 32.923347 17.539997 31.910000 L 19.459999 32.470001 C 19.191977 33.394234 18.991449 34.336712 18.859999 35.290001 C 18.716644 36.283512 18.646456 37.286209 18.650000 38.290001 C 18.620207 47.501236 24.533712 55.680775 33.290001 58.540001 Z" fill="#FFFFFF"/><path d=" M 44.110001 61.230000 L 43.770000 59.230000 C 44.727760 59.061329 45.670696 58.817234 46.590000 58.500000 C 55.336636 55.653461 61.255276 47.498173 61.250000 38.299999 C 61.239719 37.315155 61.156155 36.332439 61.000000 35.360001 L 63.000000 35.060001 C 63.154381 36.133076 63.231247 37.215878 63.230000 38.300003 C 63.254471 48.366344 56.795433 57.304039 47.230000 60.440002 C 46.212524 60.785412 45.169250 61.049576 44.110001 61.230003 Z" fill="#FFFFFF"/><path d=" M 57.110001 25.690001 C 56.547535 24.915886 55.929218 24.183935 55.260002 23.500000 C 47.096897 15.044953 33.625225 14.808287 25.170181 22.971390 C 25.007591 23.128366 24.847511 23.287924 24.690002 23.450001 L 23.250000 22.049999 C 32.212872 12.831850 46.951496 12.624906 56.169647 21.587776 C 56.345844 21.759094 56.519318 21.933189 56.689999 22.110001 C 57.413513 22.860863 58.081913 23.662945 58.689999 24.510000 Z" fill="#FFFFFF"/><path d=" M 20.000000 33.509998 C 19.354679 33.515930 18.714945 33.390026 18.120001 33.139999 C 15.562925 32.097488 14.335128 29.179449 15.377639 26.622374 C 16.420149 24.065298 19.338190 22.837502 21.895266 23.880011 C 24.452341 24.922522 25.680138 27.840561 24.637629 30.397636 C 23.869270 32.282269 22.035244 33.513103 20.000002 33.509998 Z M 20.000000 25.510000 C 18.343151 25.514214 17.003426 26.860769 17.007639 28.517618 C 17.010738 29.736259 17.750719 30.831940 18.880001 31.289999 C 19.234268 31.439455 19.615522 31.514343 20.000002 31.509998 C 21.656857 31.509998 23.000002 30.166853 23.000002 28.509998 C 22.995646 27.446716 22.428787 26.465179 21.510002 25.929998 C 21.054966 25.653580 20.532413 25.508234 20.000002 25.509998 Z" fill="#FFFFFF"/><path d=" M 60.000000 33.509998 C 57.238575 33.509998 55.000000 31.271421 55.000000 28.509998 C 55.000000 25.748575 57.238575 23.509998 60.000000 23.509998 C 62.761425 23.509998 65.000000 25.748575 65.000000 28.509998 C 65.000000 30.592508 63.709229 32.456955 61.759998 33.189999 C 61.197338 33.401596 60.601131 33.509998 60.000000 33.509998 Z M 60.000000 25.510000 C 59.452217 25.507856 58.914955 25.660370 58.450001 25.950001 C 57.552689 26.491480 57.002995 27.461973 57.000000 28.510000 C 57.000000 30.166855 58.343147 31.510000 60.000000 31.510000 C 60.342056 31.507406 60.680828 31.443039 61.000000 31.320000 C 62.552147 30.740337 63.340500 29.012167 62.760838 27.460020 C 62.329151 26.304100 61.233730 25.530388 60.000000 25.510000 Z" fill="#FFFFFF"/><path d=" M 40.000000 65.000000 C 37.355244 65.005089 35.163971 62.949673 35.000000 60.310001 C 34.993904 60.206757 34.993904 60.103245 35.000000 60.000000 C 35.000000 57.238575 37.238575 55.000000 40.000000 55.000000 C 42.761425 55.000000 45.000000 57.238575 45.000000 60.000000 C 45.009960 60.126472 45.009960 60.253529 45.000000 60.380001 C 44.800922 62.992020 42.619583 65.007576 40.000000 65.000000 Z M 40.000000 57.000000 C 38.343147 57.000000 37.000000 58.343147 37.000000 60.000000 L 37.000000 60.130001 C 36.983433 61.786854 38.313145 63.143433 39.970001 63.160000 C 41.626854 63.176567 42.983433 61.846855 43.000000 60.189999 C 43.003403 60.126713 43.003403 60.063286 43.000000 60.000000 C 43.000000 58.343147 41.656853 57.000000 40.000000 57.000000 Z" fill="#FFFFFF"/><path d=" M 20.000000 33.509998 C 19.354679 33.515930 18.714945 33.390026 18.120001 33.139999 C 15.562925 32.097488 14.335128 29.179449 15.377639 26.622374 C 16.420149 24.065298 19.338190 22.837502 21.895266 23.880011 C 24.452341 24.922522 25.680138 27.840561 24.637629 30.397636 C 23.869270 32.282269 22.035244 33.513103 20.000002 33.509998 Z M 20.000000 25.510000 C 18.343151 25.514214 17.003426 26.860769 17.007639 28.517618 C 17.010738 29.736259 17.750719 30.831940 18.880001 31.289999 C 19.234268 31.439455 19.615522 31.514343 20.000002 31.509998 C 21.656857 31.509998 23.000002 30.166853 23.000002 28.509998 C 22.995646 27.446716 22.428787 26.465179 21.510002 25.929998 C 21.054966 25.653580 20.532413 25.508234 20.000002 25.509998 Z" fill="#FFFFFF"/><path d=" M 60.000000 33.509998 C 57.238575 33.509998 55.000000 31.271421 55.000000 28.509998 C 55.000000 25.748575 57.238575 23.509998 60.000000 23.509998 C 62.761425 23.509998 65.000000 25.748575 65.000000 28.509998 C 65.000000 30.592508 63.709229 32.456955 61.759998 33.189999 C 61.197338 33.401596 60.601131 33.509998 60.000000 33.509998 Z M 60.000000 25.510000 C 59.452217 25.507856 58.914955 25.660370 58.450001 25.950001 C 57.552689 26.491480 57.002995 27.461973 57.000000 28.510000 C 57.000000 30.166855 58.343147 31.510000 60.000000 31.510000 C 60.342056 31.507406 60.680828 31.443039 61.000000 31.320000 C 62.552147 30.740337 63.340500 29.012167 62.760838 27.460020 C 62.329151 26.304100 61.233730 25.530388 60.000000 25.510000 Z" fill="#FFFFFF"/><path d=" M 40.000000 65.000000 C 37.355244 65.005089 35.163971 62.949673 35.000000 60.310001 C 34.993904 60.206757 34.993904 60.103245 35.000000 60.000000 C 35.000000 57.238575 37.238575 55.000000 40.000000 55.000000 C 42.761425 55.000000 45.000000 57.238575 45.000000 60.000000 C 45.009960 60.126472 45.009960 60.253529 45.000000 60.380001 C 44.800922 62.992020 42.619583 65.007576 40.000000 65.000000 Z M 40.000000 57.000000 C 38.343147 57.000000 37.000000 58.343147 37.000000 60.000000 L 37.000000 60.130001 C 36.983433 61.786854 38.313145 63.143433 39.970001 63.160000 C 41.626854 63.176567 42.983433 61.846855 43.000000 60.189999 C 43.003403 60.126713 43.003403 60.063286 43.000000 60.000000 C 43.000000 58.343147 41.656853 57.000000 40.000000 57.000000 Z" fill="#FFFFFF"/></g></svg>