<svg version="1.1" width="80.000000" height="115.000000" viewBox="0.000000 0.000000 80.000000 115.000000" xmlns="http://www.w3.org/2000/svg" xmlns:xlink="http://www.w3.org/1999/xlink" overflow="hidden"><g id="CARDS"><rect x="1.000000" y="1.000000" width="78.000000" height="78.000000" fill="#232F3E"/><path d=" M 0.000000 0.000000 L 0.000000 80.000000 L 0.000000 80.000000 L 0.000000 115.000000 L 80.000000 115.000000 L 80.000000 80.000000 L 80.000000 80.000000 L 80.000000 0.000000 Z M 1.000000 1.000000 L 79.000000 1.000000 L 79.000000 79.000000 L 1.000000 79.000000 Z" fill="#FFFFFF"/></g><g id="TEXT_-_EDIT"><path d=" M 13.190000 92.349998 L 12.760000 90.529999 L 10.760000 90.529999 L 10.340000 92.349998 L 8.570000 92.349998 L 10.880000 84.720001 L 12.750000 84.720001 L 15.050000 92.349998 Z M 11.000000 89.430000 L 12.500000 89.430000 L 11.740000 86.269997 Z" fill="#232F3E"/><path d=" M 20.400000 92.349998 L 19.459999 86.720001 L 18.570000 92.349998 L 16.700001 92.349998 L 14.920000 84.720001 L 16.620001 84.720001 L 17.680000 90.779999 L 18.590000 85.000000 L 20.420000 85.000000 L 21.360001 90.650002 L 22.360001 84.650002 L 24.020000 84.650002 L 22.240000 92.279999 Z" fill="#232F3E"/><path d=" M 26.350000 89.000000 C 25.854530 88.765594 25.417330 88.424026 25.070000 88.000000 C 24.811234 87.643089 24.677643 87.210678 24.690001 86.769997 C 24.673843 86.357750 24.781839 85.950157 25.000000 85.599998 C 25.232124 85.261627 25.554256 84.994911 25.930000 84.830002 C 26.351419 84.642693 26.808926 84.550507 27.270000 84.560005 C 27.919680 84.562897 28.562243 84.695488 29.160000 84.950005 L 29.160000 86.120003 C 28.608253 85.917831 28.027393 85.806381 27.440001 85.790001 C 27.155245 85.776161 26.873926 85.857040 26.640001 86.020004 C 26.447281 86.175255 26.339666 86.412743 26.350000 86.660004 C 26.345146 86.863258 26.412462 87.061668 26.540001 87.220001 C 26.745857 87.426086 26.990591 87.589241 27.260000 87.700005 L 27.910000 88.019997 C 28.267839 88.184235 28.603771 88.392517 28.910000 88.639999 C 29.145288 88.820801 29.331043 89.058159 29.450001 89.330002 C 29.577578 89.619499 29.639067 89.933777 29.630001 90.250000 C 29.660263 90.886475 29.385427 91.499283 28.890001 91.900002 C 28.313343 92.327324 27.606987 92.542763 26.890001 92.510002 C 26.506866 92.509674 26.124807 92.469460 25.750002 92.389999 C 25.421331 92.322983 25.102234 92.215500 24.800001 92.070000 L 24.799999 90.919998 C 25.127161 91.026321 25.461294 91.109856 25.799999 91.169998 C 26.129118 91.238113 26.463943 91.274940 26.799999 91.279999 C 27.110493 91.302689 27.418919 91.214066 27.670000 91.029999 C 28.041050 90.695000 28.084988 90.128181 27.770000 89.739998 C 27.560545 89.545662 27.320711 89.386902 27.060001 89.269997 Z" fill="#232F3E"/><path d=" M 34.750000 89.000000 C 34.252724 88.768532 33.814915 88.426491 33.470001 88.000000 C 33.207680 87.644348 33.070538 87.211830 33.080002 86.769997 C 33.073391 86.354721 33.191860 85.947060 33.420002 85.599998 C 33.648216 85.261978 33.967068 84.995110 34.340000 84.830002 C 34.764984 84.642815 35.225712 84.550667 35.689999 84.560005 C 36.339565 84.563965 36.981922 84.696510 37.579998 84.950005 L 37.580002 86.120003 C 37.027973 85.918839 36.447281 85.807426 35.860001 85.790001 C 35.575069 85.774620 35.293255 85.855637 35.060001 86.020004 C 34.867279 86.175255 34.759666 86.412743 34.770000 86.660004 C 34.760494 86.863945 34.828354 87.063950 34.959999 87.220001 C 35.163887 87.428474 35.409142 87.591980 35.680000 87.700005 L 36.330002 88.019997 C 36.685196 88.189125 37.020573 88.397057 37.330002 88.639999 C 37.562378 88.823715 37.747517 89.060280 37.870003 89.330002 C 37.997581 89.619499 38.059071 89.933777 38.050003 90.250000 C 38.080265 90.886475 37.805431 91.499283 37.310001 91.900002 C 36.732971 92.326584 36.026882 92.541946 35.310001 92.510002 C 34.930202 92.509125 34.551514 92.468910 34.180000 92.389999 C 33.850887 92.324646 33.531582 92.217087 33.230000 92.070000 L 33.230000 90.919998 C 33.557159 91.026321 33.891293 91.109856 34.230000 91.169998 C 34.559120 91.238113 34.893944 91.274940 35.230000 91.279999 C 35.509869 91.270699 35.779530 91.172646 36.000000 91.000000 C 36.206394 90.823906 36.317593 90.560738 36.299999 90.290001 C 36.306087 90.077034 36.231022 89.869705 36.090000 89.709999 C 35.886230 89.513252 35.649239 89.354134 35.389999 89.239998 Z" fill="#232F3E"/><path d=" M 40.490002 92.459999 L 38.490002 86.720001 L 40.230000 86.720001 L 41.160000 90.860001 L 42.060001 86.720001 L 43.759998 86.720001 L 41.759998 93.199997 C 41.647392 93.648880 41.411919 94.057495 41.079998 94.379997 C 40.766201 94.631195 40.371498 94.759209 39.969997 94.739998 C 39.610760 94.738548 39.253658 94.684647 38.909996 94.579994 L 38.910000 93.580002 C 39.103107 93.593239 39.296894 93.593239 39.490002 93.580002 C 39.740154 93.601768 39.988617 93.522552 40.180000 93.360001 C 40.356960 93.152000 40.462162 92.892509 40.480000 92.620003 Z" fill="#232F3E"/><path d=" M 46.540001 90.769997 C 46.540001 90.519997 46.369999 90.309998 46.020000 90.150002 L 45.299999 89.800003 C 44.626484 89.560318 44.174881 88.924881 44.169998 88.210007 C 44.141602 87.740471 44.347569 87.287346 44.719997 87.000008 C 45.142357 86.682838 45.662468 86.523621 46.189999 86.550011 C 46.719646 86.551735 47.242275 86.671295 47.719997 86.900009 L 47.720001 87.900002 C 47.491829 87.818993 47.257820 87.755478 47.020000 87.709999 C 46.822865 87.666542 46.621845 87.643089 46.420002 87.639999 C 45.910000 87.639999 45.650002 87.820000 45.650002 88.180000 C 45.650002 88.540001 45.860001 88.629997 46.290001 88.839996 L 47.009998 89.180000 C 47.318684 89.312111 47.585072 89.526604 47.779999 89.800003 C 47.948261 90.080269 48.031628 90.403313 48.020000 90.730003 C 48.044758 91.215942 47.841362 91.685608 47.470001 92.000000 C 47.045517 92.321449 46.521912 92.484184 45.990002 92.459999 C 45.356274 92.466171 44.730923 92.314987 44.170002 92.019997 L 44.169998 91.019997 C 44.685825 91.217575 45.228695 91.335594 45.779999 91.369995 C 45.984173 91.382927 46.186268 91.322655 46.349998 91.199997 C 46.473339 91.091476 46.542805 90.934265 46.539997 90.769997 Z" fill="#232F3E"/><path d=" M 52.000000 92.199997 C 51.606689 92.347153 51.189934 92.421692 50.770000 92.419998 C 50.297684 92.464508 49.826893 92.320755 49.459999 92.019997 C 49.155262 91.658775 49.007633 91.190689 49.049999 90.719994 L 49.049999 87.820000 L 48.299999 87.820000 L 48.299999 86.900002 L 49.080002 86.750000 L 49.320000 85.209999 L 50.689999 85.209999 L 50.689999 86.720001 L 52.000000 86.720001 L 52.000000 87.820000 L 50.689999 87.820000 L 50.689999 90.589996 C 50.669701 90.774757 50.719681 90.960396 50.829998 91.109993 C 50.976585 91.234970 51.168743 91.292976 51.359997 91.269997 C 51.572235 91.265694 51.783421 91.238876 51.989998 91.189995 Z" fill="#232F3E"/><path d=" M 54.080002 89.919998 C 54.077797 90.309822 54.204346 90.689461 54.440002 91.000000 C 54.739166 91.246849 55.123768 91.365471 55.510002 91.330002 C 55.739204 91.323997 55.967133 91.293831 56.190002 91.240005 C 56.460976 91.187576 56.728214 91.117424 56.990002 91.030006 L 56.990002 92.029999 C 56.730202 92.173843 56.450485 92.278313 56.160000 92.339996 C 55.831474 92.411812 55.496277 92.448685 55.160000 92.449997 C 53.439999 92.449997 52.580002 91.449997 52.580002 89.500000 C 52.526962 88.715630 52.749821 87.937401 53.210003 87.300003 C 53.667767 86.774681 54.344769 86.493523 55.040005 86.540001 C 56.400002 86.540001 57.090000 87.300003 57.090000 88.830002 C 57.089127 89.166870 57.048855 89.502487 56.970001 89.830002 Z M 55.000000 87.599998 C 54.419998 87.599998 54.119999 88.059998 54.080002 88.970001 L 55.700001 88.970001 L 55.700001 88.720001 C 55.720444 88.423340 55.661781 88.126572 55.530003 87.860001 C 55.412514 87.684830 55.210445 87.585701 55.000004 87.599998 Z" fill="#232F3E"/><path d=" M 64.300003 92.349998 L 64.300003 88.639999 C 64.316666 88.401566 64.268280 88.163086 64.160004 87.949997 C 64.058395 87.798111 63.882019 87.713760 63.700005 87.729996 C 63.414562 87.741776 63.137833 87.831711 62.900005 87.989998 C 62.904922 88.029846 62.904922 88.070152 62.900005 88.110001 L 62.900002 92.349998 L 61.259998 92.349998 L 61.259998 88.639999 C 61.279255 88.402504 61.234356 88.164200 61.129997 87.949997 C 61.025139 87.796478 60.845051 87.712181 60.659996 87.729996 C 60.381332 87.744865 60.111851 87.834694 59.879997 87.989998 L 59.880001 92.349998 L 58.230000 92.349998 L 58.230000 86.720001 L 59.580002 86.720001 L 59.709999 87.230003 C 60.235126 86.837898 60.865391 86.611557 61.520000 86.580002 C 62.017906 86.543671 62.489681 86.807076 62.720001 87.250000 C 63.250992 86.851845 63.887451 86.618820 64.550003 86.580002 C 64.928612 86.567619 65.293785 86.720993 65.550003 87.000000 C 65.842690 87.338814 66.002571 87.772278 66.000000 88.220001 L 66.000000 92.349998 Z" fill="#232F3E"/><path d=" M 69.349998 90.769997 C 69.349998 90.519997 69.180000 90.309998 68.830002 90.150002 L 68.110001 89.800003 C 67.442497 89.556107 66.998886 88.920670 67.000000 88.210007 C 66.968628 87.744354 67.166466 87.292686 67.529999 87.000008 C 67.956329 86.693489 68.476089 86.544991 69.000000 86.580009 C 69.529648 86.581734 70.052277 86.701294 70.529999 86.930008 L 70.529999 87.930000 C 70.301048 87.851501 70.067223 87.788033 69.830002 87.739998 C 69.632866 87.696541 69.431847 87.673088 69.230003 87.669998 C 68.709999 87.669998 68.459999 87.849998 68.459999 88.209999 C 68.459999 88.570000 68.669998 88.660004 69.099998 88.870003 L 69.820000 89.209999 C 70.126877 89.345100 70.392540 89.559013 70.589996 89.830002 C 70.758255 90.110268 70.841621 90.433311 70.829994 90.760002 C 70.845367 91.235588 70.642845 91.692177 70.279991 92.000000 C 69.851654 92.321404 69.324966 92.484009 68.789993 92.459999 C 68.168991 92.469711 67.554855 92.329048 66.999992 92.049995 L 67.000000 91.050003 C 67.519218 91.247826 68.065422 91.365837 68.620003 91.400002 C 68.821335 91.415108 69.021049 91.354477 69.180000 91.230003 C 69.303101 91.110130 69.365562 90.941124 69.349998 90.770004 Z" fill="#232F3E"/><path d=" M 25.510000 106.349998 L 25.510000 101.000000 L 24.100000 104.459999 L 22.670000 104.459999 L 21.270000 101.000000 L 21.270000 106.320000 L 19.770000 106.320000 L 19.770000 98.720001 L 21.690001 98.720001 L 23.420000 103.000000 L 25.139999 98.730003 L 27.000000 98.730003 L 27.000000 106.360001 Z" fill="#232F3E"/><path d=" M 31.450001 106.349998 L 31.309999 105.839996 C 31.154741 106.042564 30.952152 106.203949 30.719999 106.309998 C 30.473093 106.427322 30.203360 106.488777 29.929998 106.489998 C 29.491016 106.511780 29.063004 106.348557 28.749998 106.040001 C 28.446587 105.708809 28.291304 105.268242 28.319998 104.820000 C 28.296856 104.326881 28.490480 103.848297 28.849998 103.510002 C 29.247272 103.173096 29.760315 103.004471 30.279999 103.040001 C 30.594028 103.046669 30.906178 103.090302 31.209999 103.169998 L 31.209999 102.660004 C 31.237572 102.389763 31.181736 102.117561 31.049999 101.880005 C 30.885477 101.727715 30.662752 101.654694 30.439999 101.680008 C 29.835545 101.705238 29.238565 101.823280 28.669998 102.030006 L 28.670000 101.029999 C 28.953470 100.871468 29.260803 100.760017 29.580000 100.699997 C 29.961481 100.620018 30.350225 100.579803 30.740000 100.579994 C 31.283798 100.532089 31.825882 100.689011 32.259998 101.019997 C 32.604771 101.396851 32.775322 101.901237 32.730000 102.409996 L 32.730000 106.349998 Z M 30.450001 105.430000 C 30.748346 105.418404 31.030972 105.293190 31.240002 105.080002 L 31.240000 104.000000 C 31.034168 103.948074 30.822208 103.924522 30.610001 103.930000 C 30.412252 103.913605 30.217621 103.987053 30.080000 104.129997 C 29.940947 104.293694 29.872604 104.505920 29.889999 104.719994 C 29.879709 104.905304 29.932592 105.088631 30.039999 105.239990 C 30.131195 105.357796 30.271034 105.427719 30.419998 105.429993 Z" fill="#232F3E"/><path d=" M 37.230000 106.349998 L 37.230000 102.650002 C 37.251221 102.408081 37.202633 102.165154 37.090000 101.950005 C 36.977306 101.794876 36.790810 101.711143 36.599998 101.730003 C 36.307789 101.738640 36.023796 101.828682 35.779999 101.990005 L 35.779999 106.349998 L 34.130001 106.349998 L 34.130001 100.720001 L 35.480000 100.720001 L 35.610001 101.230003 C 36.144371 100.833908 36.785400 100.607452 37.450001 100.580002 C 37.851433 100.553581 38.243729 100.707565 38.520000 101.000000 C 38.785580 101.349174 38.916885 101.782127 38.889999 102.220001 L 38.889999 106.349998 Z" fill="#232F3E"/><path d=" M 43.189999 106.349998 L 43.040001 105.839996 C 42.886902 106.044678 42.683723 106.206528 42.450001 106.309998 C 42.206253 106.426201 41.940022 106.487640 41.670002 106.489998 C 41.230824 106.513031 40.802322 106.349617 40.490002 106.040001 C 40.183971 105.709824 40.025169 105.269508 40.050003 104.820000 C 40.026859 104.326881 40.220486 103.848297 40.580002 103.510002 C 40.972820 103.168266 41.479519 102.986282 42.000000 103.000000 C 42.310768 103.006325 42.619648 103.049973 42.919998 103.129997 L 42.919998 102.620003 C 42.947571 102.349762 42.891735 102.077560 42.759998 101.840004 C 42.595474 101.687714 42.372753 101.614693 42.149998 101.640007 C 41.545544 101.665237 40.948563 101.783279 40.379997 101.990005 L 40.380001 100.989998 C 40.667076 100.831573 40.977680 100.720161 41.299999 100.659996 C 41.681400 100.579514 42.070198 100.539299 42.459999 100.539993 C 43.013184 100.491592 43.563988 100.656120 44.000000 100.999992 C 44.349232 101.374199 44.520473 101.880630 44.470001 102.389992 L 44.470001 106.330002 Z M 42.189999 105.430000 C 42.488342 105.418404 42.770969 105.293190 42.980000 105.080002 L 42.980000 104.000000 C 42.777588 103.947983 42.568913 103.924423 42.360001 103.930000 C 42.159454 103.914780 41.962250 103.987816 41.820000 104.129997 C 41.688240 104.297188 41.624004 104.507729 41.639999 104.719994 C 41.629711 104.905304 41.682590 105.088631 41.790001 105.239990 C 41.874928 105.354698 42.007378 105.424606 42.150002 105.429993 Z" fill="#232F3E"/><path d=" M 48.759998 105.709999 C 48.448067 106.047455 48.009537 106.239540 47.549999 106.239998 C 46.974960 106.256142 46.431648 105.976936 46.110001 105.500000 C 45.733475 104.903000 45.548538 104.205116 45.580002 103.500000 C 45.537823 102.757782 45.726456 102.020706 46.120003 101.389999 C 46.442375 100.899895 46.993477 100.609245 47.580002 100.620003 C 47.825832 100.627289 48.067528 100.685165 48.290001 100.790001 C 48.527306 100.897537 48.741314 101.050400 48.920002 101.239998 L 49.040001 100.760002 L 50.389999 100.760002 L 50.389999 106.000000 C 50.389999 107.860001 49.540001 108.790001 47.820000 108.790001 C 47.182510 108.777115 46.557785 108.608925 46.000000 108.300003 L 46.000000 107.300003 C 46.519222 107.497826 47.065422 107.615837 47.619999 107.650002 C 47.860435 107.664276 48.100719 107.619652 48.320000 107.520004 C 48.488621 107.423470 48.613869 107.266022 48.669998 107.080002 C 48.754818 106.753838 48.788555 106.416504 48.769997 106.080002 Z M 48.099998 105.110001 C 48.336285 105.100060 48.565006 105.023819 48.759998 104.889999 L 48.759998 102.000000 C 48.549332 101.838676 48.294937 101.744583 48.029999 101.730003 C 47.760807 101.727432 47.519722 101.896187 47.430000 102.150002 C 47.274036 102.564812 47.205929 103.007492 47.230000 103.450005 C 47.205818 103.886879 47.277493 104.323753 47.439999 104.730003 C 47.567707 104.973930 47.824928 105.122025 48.099998 105.110001 Z" fill="#232F3E"/><path d=" M 53.000000 103.919998 C 52.979252 104.324760 53.107300 104.723129 53.360001 105.040001 C 53.655567 105.286263 54.036880 105.404976 54.420002 105.370003 C 54.649250 105.364609 54.877243 105.334435 55.100002 105.280006 C 55.371529 105.230042 55.638943 105.159843 55.900002 105.070007 L 55.900002 106.070000 C 55.641762 106.217194 55.361507 106.321869 55.070000 106.379997 C 54.741474 106.451813 54.406277 106.488686 54.070000 106.489998 C 52.349998 106.489998 51.490002 105.489998 51.490002 103.540001 C 51.439846 102.754425 51.666275 101.976082 52.130001 101.340004 C 52.584652 100.816292 53.257927 100.535149 53.950001 100.580002 C 55.320000 100.580002 55.950001 101.339996 55.950001 102.870003 C 55.949127 103.206871 55.908855 103.542488 55.830002 103.870003 Z M 53.910000 101.599998 C 53.340000 101.599998 53.029999 102.059998 53.000000 102.970001 L 54.610001 102.970001 L 54.610001 102.720001 C 54.635040 102.423065 54.576134 102.125076 54.440002 101.860001 C 54.329472 101.692749 54.140404 101.594429 53.940002 101.599998 Z" fill="#232F3E"/><path d=" M 57.169998 106.349998 L 57.169998 100.720001 L 58.520000 100.720001 L 58.700001 101.449997 C 58.900948 101.209991 59.145180 101.009857 59.420002 100.860001 C 59.649921 100.734291 59.907959 100.668915 60.170002 100.669998 C 60.299812 100.660080 60.430191 100.660080 60.560001 100.669998 L 60.560001 102.000000 C 60.346886 101.986336 60.133118 101.986336 59.920002 102.000000 C 59.538166 102.000481 59.161644 102.089478 58.820004 102.260002 L 58.820000 106.370003 Z" fill="#232F3E"/></g><g id="ICONS_-_EDIT"><path d=" M 52.000000 65.000000 L 46.000000 65.000000 C 45.447716 65.000992 44.999195 64.554085 44.998199 64.001801 C 44.998161 63.981186 44.998764 63.960575 45.000000 63.939999 L 45.099998 62.279999 C 44.141273 61.997166 43.215904 61.611595 42.340000 61.129997 L 41.230000 62.380001 C 41.045647 62.584408 40.785191 62.703781 40.509998 62.710003 C 40.233860 62.719723 39.966007 62.614754 39.769997 62.420002 L 35.580002 58.200001 C 35.387814 58.006409 35.283054 57.742702 35.290001 57.470001 C 35.288589 57.193111 35.409325 56.929684 35.620003 56.750000 L 36.860001 55.639999 C 36.381573 54.763805 35.999348 53.838421 35.720001 52.880001 L 34.060001 52.980000 C 33.784557 52.989956 33.515896 52.893238 33.310001 52.709999 C 33.115467 52.524601 33.003738 52.268703 33.000000 52.000000 L 33.000000 46.000000 C 32.999004 45.447716 33.445911 44.999195 33.998196 44.998199 C 34.018810 44.998161 34.039421 44.998764 34.059998 45.000000 L 35.730000 45.090000 C 36.011185 44.135422 36.393345 43.213547 36.869999 42.340000 L 35.619999 41.220001 C 35.411980 41.042587 35.291512 40.783398 35.289997 40.510002 C 35.280277 40.233864 35.385246 39.966011 35.579998 39.770000 L 39.790001 35.549999 C 40.167458 35.146832 40.800282 35.125988 41.203449 35.503445 C 41.219475 35.518448 41.235001 35.533974 41.250004 35.549999 L 42.369999 36.799999 C 43.241909 36.319931 44.164165 35.937614 45.119999 35.660000 L 45.000000 34.049999 C 44.984966 33.776783 45.082546 33.509338 45.270000 33.309998 C 45.460205 33.110462 45.724339 32.998295 46.000000 32.999996 L 52.000000 33.000000 C 52.275661 32.998299 52.539795 33.110466 52.730000 33.310001 C 52.917454 33.509338 53.015034 33.776783 53.000000 34.050003 L 52.900002 35.730000 C 53.855835 36.007614 54.778091 36.389931 55.650002 36.869999 L 56.770000 35.619999 C 56.952587 35.411884 57.213284 35.288776 57.490002 35.279999 C 57.766140 35.270279 58.033993 35.375248 58.230003 35.570000 L 62.439999 39.790001 C 62.634747 39.986008 62.739719 40.253864 62.730000 40.530003 C 62.728485 40.803398 62.608017 41.062588 62.399998 41.240002 L 61.150002 42.360001 C 61.630070 43.231911 62.012386 44.154167 62.290001 45.110001 L 63.939999 45.000000 C 64.491287 44.966862 64.965057 45.386906 64.998199 45.938198 C 64.999435 45.958775 65.000038 45.979385 65.000000 46.000000 L 65.000000 52.000000 C 64.998962 52.272186 64.887016 52.532192 64.690002 52.720001 C 64.489899 52.913700 64.218086 53.015175 63.940002 53.000000 L 62.270000 52.900002 C 61.990654 53.858425 61.608429 54.783810 61.130001 55.660000 L 62.380001 56.770000 C 62.590675 56.949684 62.711414 57.213112 62.710003 57.490002 C 62.716949 57.762703 62.612190 58.026409 62.420002 58.220001 L 58.209999 62.439999 C 57.832542 62.843166 57.199718 62.864010 56.796551 62.486553 C 56.780525 62.471550 56.764999 62.456024 56.749996 62.439999 L 55.639999 61.189999 C 54.764957 61.673386 53.839390 62.059040 52.880001 62.340000 L 52.980000 64.000000 C 52.995033 64.273216 52.897453 64.540665 52.709999 64.739998 C 52.516479 64.916245 52.261574 65.009590 52.000000 65.000000 Z M 47.099998 63.000000 L 50.939999 63.000000 L 50.860001 61.570000 C 50.848351 61.093338 51.174847 60.674755 51.639999 60.570000 C 52.943493 60.258511 54.184517 59.727608 55.309998 59.000000 C 55.723320 58.739128 56.264652 58.815254 56.589996 59.180000 L 57.540001 60.250000 L 60.259998 57.529999 L 59.189999 56.529999 C 58.848156 56.214169 58.769386 55.704258 59.000000 55.299999 C 59.715481 54.169224 60.232895 52.924721 60.529999 51.619999 C 60.634754 51.154846 61.053337 50.828350 61.529999 50.840000 L 62.959999 50.919998 L 62.959999 47.070000 L 61.529999 47.160000 C 61.053337 47.171650 60.634754 46.845154 60.529999 46.380001 C 60.233414 45.071987 59.716000 43.824112 59.000000 42.690002 C 58.739128 42.276680 58.815254 41.735348 59.180000 41.410004 L 60.250000 40.459999 L 57.529999 37.740002 L 56.529999 38.810001 C 56.214169 39.151844 55.704258 39.230614 55.299999 39.000000 C 54.169643 38.285919 52.924801 37.771744 51.619999 37.480000 C 51.154846 37.375244 50.828350 36.956661 50.840000 36.480000 L 50.919998 35.000000 L 47.080002 35.000000 L 47.160000 36.430000 C 47.171650 36.906662 46.845154 37.325245 46.380001 37.430000 C 45.071976 37.737209 43.826954 38.268372 42.700001 39.000000 C 42.286678 39.260872 41.745346 39.184746 41.420002 38.820000 L 40.419998 37.750000 L 37.700001 40.470001 L 38.779999 41.470001 C 39.131985 41.778084 39.223370 42.289009 39.000000 42.700001 C 38.278797 43.827797 37.760956 45.073326 37.470001 46.380001 C 37.365246 46.845154 36.946663 47.171650 36.470001 47.160000 L 35.000000 47.070000 L 35.000000 50.919998 L 36.430000 50.840000 C 36.906662 50.828350 37.325245 51.154846 37.430000 51.619999 C 37.739342 52.930443 38.270317 54.178398 39.000000 55.309998 C 39.255161 55.721127 39.179359 56.255966 38.820000 56.579998 L 37.750000 57.580002 L 40.470001 60.299999 L 41.419998 59.230000 C 41.730572 58.853840 42.267231 58.756649 42.689999 59.000000 C 43.824287 59.715652 45.072105 60.233040 46.379997 60.529999 C 46.845150 60.634754 47.171646 61.053337 47.159996 61.529999 Z" fill="#FFFFFF"/><rect x="41.000000" y="43.000000" width="17.000000" height="2.000000" fill="#FFFFFF"/><rect x="41.000000" y="48.000000" width="17.000000" height="2.000000" fill="#FFFFFF"/><rect x="41.000000" y="53.000000" width="17.000000" height="2.000000" fill="#FFFFFF"/><path d=" M 30.920000 48.000000 L 22.809999 48.000000 C 21.755121 47.986668 20.728123 47.659420 19.859999 47.060001 C 16.774086 45.167244 14.924065 41.779343 14.999999 38.160000 C 14.808838 33.961269 17.515013 30.176758 21.549999 29.000000 L 21.549999 28.280001 C 21.644440 23.083050 24.673845 18.387859 29.369999 16.160000 C 34.422241 13.914888 40.340092 15.083253 44.160000 19.080000 C 45.415421 20.358980 46.431477 21.852587 47.160000 23.490000 C 48.779362 22.220860 50.926094 21.845556 52.880001 22.490000 C 55.419998 23.330000 57.020000 25.660000 57.230000 28.799999 C 59.810001 29.430000 65.029999 31.549999 65.029999 38.299999 C 65.029999 38.570000 65.029999 38.820000 65.029999 39.070000 L 63.029999 38.980000 C 63.029999 38.759998 63.029999 38.540001 63.029999 38.299999 C 63.029999 32.430000 58.160000 30.959999 56.029999 30.590000 C 55.762093 30.545433 55.523838 30.393816 55.369999 30.170000 C 55.219921 29.947109 55.165859 29.673197 55.219997 29.410000 C 55.220001 26.840000 54.099998 25.010000 52.220001 24.410000 C 50.507385 23.863552 48.637348 24.476151 47.580002 25.930000 C 47.359364 26.225088 46.994335 26.374943 46.630001 26.320000 C 46.267384 26.264627 45.964184 26.015162 45.840000 25.670000 C 45.189213 23.750074 44.116230 22.000494 42.700001 20.549999 C 39.465267 17.122362 34.423557 16.101206 30.110001 18.000000 C 26.177242 19.910402 23.633383 23.849531 23.510000 28.219999 L 23.600000 29.680000 C 23.614801 30.147766 23.303200 30.563234 22.850000 30.680000 C 19.306433 31.363831 16.809832 34.556068 17.000000 38.160000 C 16.915108 41.095913 18.416515 43.850403 20.930000 45.369999 C 21.477272 45.767746 22.133570 45.987675 22.809999 46.000000 L 30.920000 46.000000 Z" fill="#FFFFFF"/><rect x="52.000000" y="42.000000" width="2.000000" height="4.000000" fill="#FFFFFF"/><rect x="48.000000" y="47.000000" width="2.000000" height="4.000000" fill="#FFFFFF"/><rect x="44.000000" y="52.000000" width="2.000000" height="4.000000" fill="#FFFFFF"/></g></svg>