<svg version="1.1" width="80.000000" height="115.000000" viewBox="0.000000 0.000000 80.000000 115.000000" xmlns="http://www.w3.org/2000/svg" xmlns:xlink="http://www.w3.org/1999/xlink" overflow="hidden"><g id="CARDS"><rect x="1.000000" y="1.000000" width="78.000000" height="78.000000" fill="#232F3E"/><path d=" M 0.000000 0.000000 L 0.000000 80.000000 L 0.000000 80.000000 L 0.000000 115.000000 L 80.000000 115.000000 L 80.000000 80.000000 L 80.000000 80.000000 L 80.000000 0.000000 Z M 1.000000 1.000000 L 79.000000 1.000000 L 79.000000 79.000000 L 1.000000 79.000000 Z" fill="#FFFFFF"/></g><g id="TEXT_-_EDIT"><path d=" M 14.690000 92.349998 L 14.260000 90.529999 L 12.260000 90.529999 L 11.840000 92.349998 L 10.070000 92.349998 L 12.380000 84.720001 L 14.250000 84.720001 L 16.549999 92.349998 Z M 12.510000 89.430000 L 14.000000 89.430000 L 13.240000 86.269997 Z" fill="#232F3E"/><path d=" M 21.900000 92.349998 L 21.000000 86.720001 L 20.110001 92.349998 L 18.200001 92.349998 L 16.420000 84.720001 L 18.120001 84.720001 L 19.180000 90.779999 L 20.090000 85.000000 L 21.920000 85.000000 L 22.860001 90.650002 L 23.860001 84.650002 L 25.520000 84.650002 L 23.740000 92.279999 Z" fill="#232F3E"/><path d=" M 27.850000 89.000000 C 27.354530 88.765594 26.917330 88.424026 26.570000 88.000000 C 26.311234 87.643089 26.177643 87.210678 26.190001 86.769997 C 26.179802 86.355682 26.294811 85.947922 26.520000 85.599998 C 26.752125 85.261627 27.074257 84.994911 27.450001 84.830002 C 27.871420 84.642693 28.328926 84.550507 28.790001 84.560005 C 29.439680 84.562897 30.082243 84.695488 30.680000 84.950005 L 30.680000 86.120003 C 30.140928 85.922020 29.573908 85.810638 29.000000 85.790001 C 28.715244 85.776161 28.433926 85.857040 28.200001 86.020004 C 28.007280 86.175255 27.899666 86.412743 27.910000 86.660004 C 27.905146 86.863258 27.972462 87.061668 28.100000 87.220001 C 28.305857 87.426086 28.550591 87.589241 28.820000 87.700005 L 29.469999 88.019997 C 29.827839 88.184235 30.163771 88.392517 30.469999 88.639999 C 30.705288 88.820801 30.891043 89.058159 31.010000 89.330002 C 31.137577 89.619499 31.199066 89.933777 31.190001 90.250000 C 31.220263 90.886475 30.945427 91.499283 30.450001 91.900002 C 29.873343 92.327324 29.166986 92.542763 28.450001 92.510002 C 28.066866 92.509674 27.684807 92.469460 27.310001 92.389999 C 26.981331 92.322983 26.662233 92.215500 26.360001 92.070000 L 26.360001 90.919998 C 26.687162 91.026321 27.021296 91.109856 27.360001 91.169998 C 27.689119 91.238113 28.023945 91.274940 28.360001 91.279999 C 28.670494 91.302689 28.978920 91.214066 29.230001 91.029999 C 29.601051 90.695000 29.644989 90.128181 29.330002 89.739998 C 29.120546 89.545662 28.880713 89.386902 28.620003 89.269997 Z" fill="#232F3E"/><path d=" M 36.240002 92.349998 L 36.240002 85.940002 L 34.240002 85.940002 L 34.240002 84.720001 L 39.919998 84.720001 L 39.919998 85.940002 L 37.919998 85.940002 L 37.919998 92.349998 Z" fill="#232F3E"/><path d=" M 40.279999 92.349998 L 40.279999 86.720001 L 41.630001 86.720001 L 41.810001 87.449997 C 42.010948 87.209991 42.255180 87.009857 42.530003 86.860001 C 42.759922 86.734291 43.017960 86.668915 43.280003 86.669998 C 43.409813 86.660080 43.540192 86.660080 43.670002 86.669998 L 43.669998 88.000000 C 43.446915 87.985023 43.223080 87.985023 43.000000 88.000000 C 42.618294 88.001556 42.242008 88.090492 41.900002 88.260002 L 41.900002 92.370003 Z" fill="#232F3E"/><path d=" M 47.680000 92.349998 L 47.549999 91.839996 C 47.036510 92.232521 46.415600 92.459259 45.770000 92.489998 C 45.387932 92.509987 45.018318 92.351059 44.770000 92.059998 C 44.519745 91.696587 44.396687 91.260620 44.420002 90.820000 L 44.419998 86.720001 L 46.000000 86.720001 L 46.000000 90.339996 C 45.984783 90.603180 46.029224 90.866394 46.130001 91.109993 C 46.222515 91.267639 46.398037 91.357353 46.580002 91.339996 C 46.852058 91.331230 47.115868 91.244446 47.340000 91.089996 L 47.340000 86.720001 L 49.000000 86.720001 L 49.000000 92.349998 Z" fill="#232F3E"/><path d=" M 52.450001 90.769997 C 52.450001 90.519997 52.279999 90.309998 51.930000 90.150002 L 51.209999 89.800003 C 50.536484 89.560318 50.084881 88.924881 50.079998 88.210007 C 50.051601 87.740471 50.257568 87.287346 50.629997 87.000008 C 51.052357 86.682838 51.572468 86.523621 52.099998 86.550011 C 52.629646 86.551735 53.152275 86.671295 53.629997 86.900009 L 53.630001 87.900002 C 53.401443 87.820229 53.167526 87.756737 52.930000 87.709999 C 52.732864 87.666542 52.531845 87.643089 52.330002 87.639999 C 51.820000 87.639999 51.560001 87.820000 51.560001 88.180000 C 51.560001 88.540001 51.770000 88.629997 52.200001 88.839996 L 52.919998 89.180000 C 53.226875 89.315102 53.492535 89.529015 53.689999 89.800003 C 53.858261 90.080269 53.941628 90.403313 53.930000 90.730003 C 53.954758 91.215942 53.751362 91.685608 53.380001 92.000000 C 52.955517 92.321449 52.431911 92.484184 51.900002 92.459999 C 51.266132 92.467438 50.640472 92.316177 50.080002 92.019997 L 50.080002 91.019997 C 50.595829 91.217575 51.138699 91.335594 51.690002 91.369995 C 51.894176 91.382927 52.096272 91.322655 52.260002 91.199997 C 52.383343 91.091476 52.452808 90.934265 52.450001 90.769997 Z" fill="#232F3E"/><path d=" M 57.900002 92.199997 C 57.506458 92.346306 57.089859 92.420822 56.670002 92.419998 C 56.194889 92.461807 55.721989 92.318504 55.350002 92.019997 C 55.049149 91.656647 54.902039 91.190201 54.940002 90.719994 L 54.939999 87.820000 L 54.209999 87.820000 L 54.209999 86.900002 L 54.990002 86.750000 L 55.230000 85.209999 L 56.599998 85.209999 L 56.599998 86.720001 L 57.869999 86.720001 L 57.869999 87.820000 L 56.599998 87.820000 L 56.599998 90.589996 C 56.579700 90.774757 56.629681 90.960396 56.739998 91.109993 C 56.886585 91.234970 57.078743 91.292976 57.269997 91.269997 C 57.482235 91.265694 57.693420 91.238876 57.899998 91.189995 Z" fill="#232F3E"/><path d=" M 60.000000 89.919998 C 59.994915 90.308662 60.117912 90.688194 60.349998 91.000000 C 60.645565 91.246262 61.026878 91.364975 61.410000 91.330002 C 61.642551 91.324707 61.873871 91.294533 62.099998 91.240005 C 62.370972 91.187576 62.638210 91.117424 62.899998 91.030006 L 62.900002 92.029999 C 62.637085 92.174767 62.353931 92.279266 62.060001 92.339996 C 61.731602 92.412567 61.396324 92.449448 61.060001 92.449997 C 59.340000 92.449997 58.480000 91.449997 58.480000 89.500000 C 58.426960 88.715630 58.649818 87.937401 59.110001 87.300003 C 59.588692 86.771690 60.291130 86.504089 61.000000 86.580002 C 62.360001 86.580002 63.000000 87.339996 63.000000 88.870003 C 62.999126 89.206871 62.958855 89.542488 62.880001 89.870003 Z M 60.919998 87.599998 C 60.340000 87.599998 60.029999 88.059998 60.000000 88.970001 L 61.619999 88.970001 L 61.619999 88.720001 C 61.640442 88.423340 61.581779 88.126572 61.450001 87.860001 C 61.330700 87.681557 61.123894 87.581985 60.910000 87.599998 Z" fill="#232F3E"/><path d=" M 67.389999 92.349998 L 67.260002 91.860001 C 67.074745 92.041252 66.857826 92.186996 66.620003 92.290001 C 66.396149 92.388222 66.154457 92.439285 65.910004 92.440002 C 65.311073 92.466835 64.740517 92.183449 64.400002 91.690002 C 64.005486 91.052330 63.816936 90.308617 63.860001 89.560005 C 63.812668 88.790710 64.004807 88.025650 64.410004 87.370003 C 64.747574 86.858131 65.327209 86.558846 65.940002 86.580002 C 66.158852 86.589363 66.374847 86.633240 66.580002 86.709999 C 66.797569 86.791359 67.002846 86.902412 67.190002 87.040001 L 67.190002 84.209999 L 68.839996 84.209999 L 68.839996 92.349998 Z M 66.459999 91.349998 C 66.719002 91.345612 66.971703 91.269455 67.190002 91.129997 L 67.190002 88.000000 C 66.952629 87.840775 66.675629 87.750748 66.389999 87.739998 C 66.095642 87.728607 65.826508 87.905350 65.720001 88.180000 C 65.553650 88.623573 65.482109 89.097084 65.510002 89.570000 C 65.481812 90.034950 65.560493 90.500175 65.740005 90.930000 C 65.881607 91.191101 66.163956 91.344040 66.460007 91.320000 Z" fill="#232F3E"/><path d=" M 26.639999 106.349998 L 26.209999 104.529999 L 24.209999 104.529999 L 23.780001 106.349998 L 22.000000 106.349998 L 24.320000 98.720001 L 26.180000 98.720001 L 28.480000 106.349998 Z M 24.459999 103.430000 L 26.000000 103.430000 L 25.240000 100.269997 Z" fill="#232F3E"/><path d=" M 32.529999 106.349998 L 32.400002 105.860001 C 32.216640 106.038925 32.003437 106.184441 31.770002 106.290001 C 31.542377 106.387421 31.297594 106.438423 31.050003 106.440002 C 30.451073 106.466835 29.880514 106.183449 29.540003 105.690002 C 29.145485 105.052330 28.956938 104.308617 29.000002 103.560005 C 28.955652 102.789658 29.151306 102.024506 29.560001 101.370003 C 29.891582 100.856697 30.469368 100.556396 31.080002 100.580002 C 31.298849 100.589363 31.514845 100.633240 31.720001 100.709999 C 31.937572 100.791359 32.142849 100.902412 32.330002 101.040001 L 32.330002 98.209999 L 34.000000 98.209999 L 34.000000 106.349998 Z M 31.600000 105.349998 C 31.859001 105.345612 32.111706 105.269455 32.330002 105.129997 L 32.330002 102.000000 C 32.092632 101.840775 31.815630 101.750748 31.530003 101.739998 C 31.235641 101.728607 30.966515 101.905350 30.860003 102.180000 C 30.693647 102.623573 30.622110 103.097084 30.650003 103.570000 C 30.621813 104.034950 30.700491 104.500175 30.880003 104.930000 C 31.021601 105.191101 31.303949 105.344040 31.600002 105.320000 Z" fill="#232F3E"/><path d=" M 36.590000 106.349998 L 34.730000 100.720001 L 36.480000 100.720001 L 37.369999 104.720001 L 38.290001 100.720001 L 40.000000 100.720001 L 38.160000 106.349998 Z" fill="#232F3E"/><path d=" M 41.610001 99.809998 C 41.354759 99.822983 41.103184 99.745026 40.900002 99.589996 C 40.728065 99.434639 40.633007 99.211624 40.640003 98.979996 C 40.630196 98.747849 40.725739 98.523689 40.900002 98.369995 C 41.098118 98.204575 41.352520 98.122162 41.610001 98.139992 C 41.864101 98.124771 42.114445 98.207024 42.310001 98.369995 C 42.490452 98.519913 42.590359 98.745628 42.580002 98.979996 C 42.588818 99.214073 42.489197 99.439140 42.310001 99.589996 C 42.112972 99.749374 41.862782 99.828011 41.610001 99.809998 Z M 40.779999 106.349998 L 40.779999 100.720001 L 42.430000 100.720001 L 42.430000 106.349998 Z" fill="#232F3E"/><path d=" M 45.889999 104.769997 C 45.889999 104.519997 45.720001 104.309998 45.369999 104.150002 L 44.650002 103.800003 C 43.976486 103.560318 43.524883 102.924881 43.520000 102.210007 C 43.501606 101.750854 43.706539 101.311180 44.070000 101.030006 C 44.492359 100.712837 45.012470 100.553619 45.540001 100.580009 C 46.069649 100.581734 46.592278 100.701294 47.070000 100.930008 L 47.070000 101.930000 C 46.841442 101.850227 46.607525 101.786736 46.369999 101.739998 C 46.172863 101.696541 45.971844 101.673088 45.770000 101.669998 C 45.259998 101.669998 45.000000 101.849998 45.000000 102.209999 C 45.000000 102.570000 45.209999 102.660004 45.639999 102.870003 L 46.360001 103.209999 C 46.666878 103.345100 46.932537 103.559013 47.130001 103.830002 C 47.298264 104.110268 47.381630 104.433311 47.370003 104.760002 C 47.394760 105.245941 47.191364 105.715607 46.820004 106.029999 C 46.395519 106.351448 45.871914 106.514183 45.340004 106.489998 C 44.706135 106.497437 44.080475 106.346176 43.520004 106.049995 L 43.520000 105.050003 C 44.035828 105.247581 44.578697 105.365601 45.130001 105.400002 C 45.334175 105.412933 45.536270 105.352661 45.700001 105.230003 C 45.831734 105.114784 45.902027 104.944603 45.889999 104.770004 Z" fill="#232F3E"/><path d=" M 50.529999 106.489998 C 49.830711 106.530975 49.151676 106.246811 48.689999 105.720001 C 47.810844 104.395988 47.810844 102.674019 48.689999 101.349998 C 49.688824 100.333794 51.322330 100.319710 52.338535 101.318535 C 52.349113 101.328934 52.359604 101.339424 52.369999 101.349998 C 53.236015 102.677948 53.236015 104.392044 52.369999 105.720001 C 51.906536 106.244324 51.228767 106.527962 50.529999 106.489998 Z M 50.529999 105.339996 C 50.814491 105.352325 51.073887 105.178047 51.169998 104.909996 C 51.436794 104.016144 51.436794 103.063843 51.169998 102.169998 C 51.077370 101.897995 50.817135 101.719078 50.529999 101.729996 C 50.241108 101.721107 49.979080 101.898483 49.879997 102.169998 C 49.624863 103.065514 49.624863 104.014481 49.879997 104.909996 C 49.982437 105.177567 50.243679 105.350380 50.529999 105.339996 Z" fill="#232F3E"/><path d=" M 54.180000 106.349998 L 54.180000 100.720001 L 55.529999 100.720001 L 55.709999 101.449997 C 55.910946 101.209991 56.155178 101.009857 56.430000 100.860001 C 56.658909 100.731735 56.917633 100.666191 57.180000 100.669998 C 57.306458 100.659698 57.433544 100.659698 57.560001 100.669998 L 57.560001 102.000000 C 57.350239 101.985909 57.139767 101.985909 56.930000 102.000000 C 56.548164 102.000481 56.171642 102.089478 55.830002 102.260002 L 55.830002 106.370003 Z" fill="#232F3E"/></g><g id="ICONS_-_EDIT"><path d=" M 39.650002 52.320000 C 30.651674 52.360752 22.427822 47.235912 18.500002 39.139999 L 20.299999 38.259998 C 25.538851 48.946709 38.449070 53.363071 49.135777 48.124218 C 53.426586 46.020771 56.896553 42.550808 58.999996 38.259998 L 60.790001 39.139999 C 56.865620 47.234329 48.645412 52.359322 39.650002 52.320000 Z" fill="#FFFFFF"/><rect x="39.000000" y="52.050000" width="2.000000" height="5.000000" fill="#FFFFFF"/><rect x="21.370000" y="48.580000" width="6.340000" height="2.000000" fill="#FFFFFF" transform="matrix(0.638634,-0.769511,0.769511,0.638634,-29.290000,36.800000)"/><rect x="53.570000" y="46.540000" width="2.000000" height="6.380000" fill="#FFFFFF" transform="matrix(0.769177,-0.639036,0.639036,0.769177,-19.180000,46.360000)"/><path d=" M 40.000000 64.050003 C 37.790859 64.050003 36.000000 62.259144 36.000000 60.050003 C 36.000000 57.840862 37.790859 56.050003 40.000000 56.050003 C 42.209141 56.050003 44.000000 57.840862 44.000000 60.050003 C 44.000000 62.259144 42.209141 64.050003 40.000000 64.050003 Z M 40.000000 58.049999 C 38.895432 58.049999 38.000000 58.945431 38.000000 60.049999 C 38.000000 61.154568 38.895432 62.049999 40.000000 62.049999 C 41.104568 62.049999 42.000000 61.154568 42.000000 60.049999 C 42.000000 58.945431 41.104568 58.049999 40.000000 58.049999 Z" fill="#FFFFFF"/><path d=" M 59.000000 58.049999 C 56.790859 58.049999 55.000000 56.259140 55.000000 54.049999 C 55.000000 51.840858 56.790859 50.049999 59.000000 50.049999 C 61.209141 50.049999 63.000000 51.840858 63.000000 54.049999 C 63.000000 56.259140 61.209141 58.049999 59.000000 58.049999 Z M 59.000000 52.049999 C 57.895432 52.049999 57.000000 52.945431 57.000000 54.049999 C 57.000000 55.154568 57.895432 56.049999 59.000000 56.049999 C 60.104568 56.049999 61.000000 55.154568 61.000000 54.049999 C 61.000000 52.945431 60.104568 52.049999 59.000000 52.049999 Z" fill="#FFFFFF"/><path d=" M 21.000000 58.049999 C 18.790861 58.049999 17.000000 56.259140 17.000000 54.049999 C 17.000000 51.840858 18.790861 50.049999 21.000000 50.049999 C 23.209139 50.049999 25.000000 51.840858 25.000000 54.049999 C 25.000000 56.259140 23.209139 58.049999 21.000000 58.049999 Z M 21.000000 52.049999 C 19.895430 52.049999 19.000000 52.945431 19.000000 54.049999 C 19.000000 55.154568 19.895430 56.049999 21.000000 56.049999 C 22.104570 56.049999 23.000000 55.154568 23.000000 54.049999 C 23.000000 52.945431 22.104570 52.049999 21.000000 52.049999 Z" fill="#FFFFFF"/><path d=" M 40.000000 49.270000 C 27.150000 49.270000 27.000000 34.820000 27.000000 34.669998 L 27.000000 21.400000 C 26.998640 20.981527 27.257994 20.606464 27.650000 20.459999 L 39.650002 16.010000 C 39.876465 15.929933 40.123535 15.929933 40.350002 16.010000 L 52.349998 20.459999 C 52.742004 20.606462 53.001358 20.981527 53.000000 21.400000 L 53.000000 35.490002 C 53.000000 35.630001 52.849998 49.270000 40.000000 49.270000 Z M 29.000000 22.090000 L 29.000000 34.669998 C 29.000000 35.180000 29.160000 47.270000 40.000000 47.270000 C 44.560001 47.270000 47.779999 45.270000 49.590000 41.459999 C 50.447834 39.571445 50.926876 37.532959 51.000000 35.459999 L 51.000000 22.090000 L 40.000000 18.000000 Z" fill="#FFFFFF"/><path d=" M 40.000000 45.520000 C 32.849998 45.520000 31.090000 36.520000 31.000000 36.099998 C 30.995083 36.040100 30.995083 35.979897 31.000000 35.919998 L 31.000000 24.180000 C 31.001219 23.767708 31.255348 23.398424 31.639999 23.250000 L 39.639999 20.120001 C 39.871674 20.030603 40.128323 20.030603 40.360001 20.120001 L 48.360001 23.250000 C 48.744652 23.398424 48.998783 23.767708 49.000000 24.180000 L 49.000000 35.919998 C 49.004917 35.979897 49.004917 36.040100 49.000000 36.099998 C 48.910000 36.480000 47.150002 45.520000 40.000000 45.520000 Z M 33.000000 35.810001 C 33.180000 36.650002 34.820000 43.520000 40.000000 43.520000 C 45.180000 43.520000 46.820000 36.650002 47.000000 35.810001 L 47.000000 24.870001 L 40.000000 22.129999 L 33.000000 24.870001 Z" fill="#FFFFFF"/><rect x="39.000000" y="21.050000" width="2.000000" height="24.000000" fill="#FFFFFF"/></g></svg>