<svg version="1.1" width="80.000000" height="115.000000" viewBox="0.000000 0.000000 80.000000 115.000000" xmlns="http://www.w3.org/2000/svg" xmlns:xlink="http://www.w3.org/1999/xlink" overflow="hidden"><g id="ICONS_-_EDIT"><rect x="1.000000" y="1.000000" width="78.000000" height="78.000000" fill="#232F3E"/><path d=" M 0.000000 0.000000 L 0.000000 80.000000 L 0.000000 80.000000 L 0.000000 115.000000 L 80.000000 115.000000 L 80.000000 80.000000 L 80.000000 80.000000 L 80.000000 0.000000 Z M 1.000000 1.000000 L 79.000000 1.000000 L 79.000000 79.000000 L 1.000000 79.000000 Z" fill="#FFFFFF"/><path d=" M 10.530000 90.860001 L 10.170000 89.339996 L 8.490000 89.339996 L 8.130000 90.860001 L 6.640000 90.860001 L 8.640000 84.449997 L 10.210000 84.449997 L 12.140000 90.860001 Z M 8.700000 88.410004 L 10.000000 88.410004 L 9.360000 85.760002 Z" fill="#232F3E"/><path d=" M 16.590000 90.860001 L 15.800000 86.139999 L 15.050000 90.860001 L 13.480000 90.860001 L 12.000000 84.449997 L 13.430000 84.449997 L 14.320000 89.550003 L 15.090000 84.709999 L 16.629999 84.709999 L 17.420000 89.470001 L 18.280001 84.470001 L 19.680000 84.470001 L 18.180000 90.879997 Z" fill="#232F3E"/><path d=" M 21.600000 88.000000 C 21.186640 87.814133 20.818256 87.541260 20.520000 87.199997 C 20.128584 86.590782 20.128584 85.809212 20.520000 85.199997 C 20.714293 84.914825 20.984468 84.689682 21.300001 84.549995 C 21.655996 84.394745 22.041763 84.319641 22.430000 84.329994 C 22.976645 84.333420 23.517141 84.445602 24.020000 84.659996 L 24.020000 85.660004 C 23.555433 85.487282 23.065475 85.392670 22.570000 85.380005 C 22.329876 85.363876 22.091990 85.434891 21.900000 85.580002 C 21.738329 85.706940 21.648748 85.904762 21.660000 86.110001 C 21.653090 86.279442 21.706209 86.445885 21.809999 86.580002 C 21.986259 86.753174 22.193085 86.892189 22.420000 86.990005 L 22.959999 87.260002 C 23.260708 87.397408 23.542925 87.572113 23.799999 87.779999 C 23.994278 87.934509 24.148605 88.133423 24.250000 88.360001 C 24.356319 88.602417 24.407549 88.865402 24.400000 89.129997 C 24.420731 89.664536 24.191574 90.178284 23.779999 90.519997 C 23.263239 90.887878 22.631659 91.058197 21.999998 91.000000 C 21.680634 91.001404 21.362072 90.967865 21.049997 90.900002 C 20.773148 90.843590 20.504410 90.752892 20.249998 90.630005 L 20.250000 89.629997 C 20.527031 89.725822 20.811266 89.799393 21.100000 89.849998 C 21.363293 89.904778 21.631117 89.934906 21.900000 89.939995 C 22.163635 89.958687 22.425482 89.884384 22.639999 89.729996 C 22.812689 89.580177 22.905216 89.358109 22.889999 89.129997 C 22.893692 88.954628 22.833242 88.783951 22.719999 88.649994 C 22.547766 88.476570 22.344156 88.337433 22.119999 88.239990 Z" fill="#232F3E"/><path d=" M 30.809999 90.860001 L 30.440001 89.339996 L 28.760000 89.339996 L 28.400000 90.860001 L 26.920000 90.860001 L 28.860001 84.449997 L 30.430000 84.449997 L 32.369999 90.860001 Z M 29.000000 88.410004 L 30.260000 88.410004 L 29.620001 85.760002 Z" fill="#232F3E"/><path d=" M 33.000000 92.769997 L 33.000000 86.139999 L 34.139999 86.139999 L 34.240002 86.540001 C 34.415730 86.378555 34.618935 86.249855 34.840000 86.160004 C 35.049351 86.072609 35.273197 86.025131 35.500000 86.020004 C 36.001820 85.994362 36.481560 86.228569 36.770000 86.640007 C 37.096752 87.181114 37.250278 87.809181 37.209999 88.440010 C 37.249462 89.089211 37.088913 89.734894 36.750000 90.290009 C 36.485367 90.728165 36.011864 90.997116 35.500000 91.000008 C 35.301834 90.996452 35.105709 90.959251 34.919998 90.890007 C 34.733383 90.826027 34.560402 90.727669 34.410000 90.600006 L 34.410000 92.820000 Z M 35.000000 86.959999 C 34.768219 86.960228 34.541821 87.029892 34.349998 87.159996 L 34.349998 89.779999 C 34.542309 89.919128 34.772671 89.995918 35.009998 90.000000 C 35.260544 90.018349 35.495995 89.878677 35.599998 89.650002 C 35.743526 89.284485 35.804974 88.891891 35.779999 88.500000 C 35.806965 88.094978 35.745548 87.688927 35.599998 87.309998 C 35.487209 87.118721 35.282051 87.000946 35.059998 87.000000 Z" fill="#232F3E"/><path d=" M 38.189999 92.769997 L 38.189999 86.139999 L 39.330002 86.139999 L 39.430000 86.540001 C 39.605728 86.378555 39.808933 86.249855 40.029999 86.160004 C 40.235577 86.071747 40.456318 86.024200 40.680000 86.020004 C 41.185291 85.990837 41.669643 86.225441 41.959999 86.640007 C 42.286751 87.181114 42.440277 87.809181 42.399998 88.440010 C 42.436470 89.090256 42.272408 89.736023 41.929996 90.290009 C 41.650928 90.716652 41.169525 90.966827 40.659996 90.950012 C 40.464989 90.947319 40.272003 90.910080 40.089996 90.840012 C 39.903381 90.776031 39.730400 90.677673 39.579998 90.550011 L 39.580002 92.769997 Z M 40.189999 86.959999 C 39.958218 86.960228 39.731819 87.029892 39.539997 87.159996 L 39.540001 89.779999 C 39.731392 89.920914 39.962337 89.997902 40.200001 90.000000 C 40.449852 90.015450 40.683781 89.876678 40.790001 89.650002 C 40.943771 89.286789 41.015476 88.894119 41.000000 88.500000 C 41.026966 88.094978 40.965549 87.688927 40.820000 87.309998 C 40.698566 87.102577 40.469700 86.982323 40.230000 87.000000 Z" fill="#232F3E"/><path d=" M 45.380001 90.779999 C 45.116955 90.874237 44.839417 90.921623 44.560001 90.919998 C 44.229939 90.946381 43.903809 90.834045 43.660000 90.610001 C 43.426826 90.332062 43.318329 89.970398 43.360001 89.610001 L 43.360001 84.000000 L 44.750000 84.000000 L 44.750000 89.500000 C 44.740417 89.616608 44.761082 89.733719 44.810001 89.839996 C 44.878124 89.915642 44.979042 89.953018 45.080002 89.939995 L 45.380001 89.940002 Z" fill="#232F3E"/><path d=" M 47.000000 85.370003 C 46.783417 85.382797 46.569740 85.315132 46.400002 85.180000 C 46.123859 84.917389 46.112888 84.480644 46.375500 84.204498 C 46.383461 84.196129 46.391628 84.187958 46.400002 84.180000 C 46.573540 84.053162 46.785305 83.989632 47.000000 84.000000 C 47.209560 83.993843 47.414700 84.061043 47.580002 84.190002 C 47.856144 84.452614 47.867115 84.889359 47.604504 85.165504 C 47.596542 85.173874 47.588375 85.182045 47.580002 85.190002 C 47.415428 85.319374 47.208904 85.383469 47.000000 85.370003 Z M 46.299999 90.860001 L 46.299999 86.139999 L 47.680000 86.139999 L 47.680000 90.860001 Z" fill="#232F3E"/><path d=" M 51.930000 90.650002 C 51.764107 90.754066 51.581387 90.828506 51.389999 90.870003 C 51.167130 90.922531 50.938976 90.949371 50.709999 90.950005 C 50.126053 90.989037 49.555939 90.760994 49.160000 90.330002 C 48.775970 89.804367 48.591629 89.159180 48.639999 88.510002 C 48.595318 87.858047 48.794949 87.212814 49.200001 86.700005 C 49.600700 86.260742 50.176067 86.022530 50.770000 86.050003 C 51.166698 86.052666 51.557209 86.148582 51.910000 86.330002 L 51.910000 87.169998 C 51.632816 87.075821 51.342701 87.025215 51.049999 87.019997 C 50.748135 86.991516 50.451912 87.115257 50.259998 87.349998 C 50.067440 87.679619 49.976959 88.058945 50.000000 88.439995 L 50.000000 88.570000 C 49.969238 88.945969 50.052902 89.322449 50.240002 89.650002 C 50.416920 89.888824 50.703514 90.020813 51.000000 90.000000 C 51.311424 89.992744 51.619267 89.931854 51.910000 89.820000 Z" fill="#232F3E"/><path d=" M 55.250000 90.860001 L 55.130001 90.440002 C 54.999626 90.610817 54.827419 90.745140 54.630001 90.830002 C 54.434784 90.931610 54.219833 90.989609 54.000000 91.000000 C 53.629467 91.022774 53.266476 90.888466 53.000000 90.629997 C 52.755077 90.355835 52.626026 89.997368 52.639999 89.629997 C 52.622051 89.217186 52.782307 88.816551 53.079998 88.529999 C 53.417740 88.247551 53.850460 88.104507 54.289997 88.129997 C 54.553165 88.138878 54.814636 88.175751 55.069996 88.239998 L 55.070000 87.820000 C 55.090370 87.590950 55.041603 87.361053 54.930000 87.159996 C 54.793194 87.031219 54.606712 86.969055 54.420002 86.989998 C 53.910614 87.010735 53.407722 87.111992 52.930000 87.290001 L 52.930000 86.400002 C 53.169823 86.265617 53.429871 86.171051 53.700001 86.120003 C 54.028553 86.049438 54.363979 86.015892 54.700001 86.020004 C 55.156448 85.978188 55.612267 86.106384 55.980000 86.380005 C 56.268799 86.698257 56.413517 87.121559 56.380001 87.550003 L 56.380001 90.860001 Z M 54.380001 90.099998 C 54.633289 90.088554 54.872776 89.981323 55.049999 89.799995 L 55.049999 88.889999 C 54.876621 88.847443 54.698502 88.827278 54.520000 88.830002 C 54.353046 88.822632 54.190380 88.884087 54.070000 89.000000 C 53.956509 89.141060 53.899487 89.319260 53.910000 89.500000 C 53.904156 89.653824 53.949917 89.805183 54.040001 89.930000 C 54.118629 90.038956 54.245659 90.102470 54.380001 90.099998 Z" fill="#232F3E"/><path d=" M 60.049999 90.739998 C 59.730827 90.863037 59.392056 90.927406 59.049999 90.930000 C 58.376854 91.055984 57.729031 90.612419 57.603050 89.939278 C 57.575897 89.794205 57.574867 89.645439 57.599998 89.500000 L 57.599998 87.059998 L 57.000000 87.059998 L 57.000000 86.290001 L 57.660000 86.160004 L 57.860001 84.860001 L 59.000000 84.860001 L 59.000000 86.139999 L 60.000000 86.139999 L 60.000000 87.059998 L 59.000000 87.059998 L 59.000000 89.379997 C 58.984901 89.539520 59.027477 89.699173 59.119999 89.829994 C 59.245636 89.933563 59.408485 89.980614 59.570000 89.959991 C 59.745655 89.959595 59.920494 89.936058 60.090000 89.889992 Z" fill="#232F3E"/><path d=" M 61.520000 85.370003 C 61.303417 85.382797 61.089741 85.315132 60.920002 85.180000 C 60.645447 84.903206 60.645447 84.456795 60.920002 84.180000 C 61.092228 84.049606 61.304111 83.982506 61.520000 83.989998 C 61.732841 83.982338 61.941628 84.049576 62.110001 84.180000 C 62.258720 84.310768 62.339710 84.502205 62.330002 84.699997 C 62.338100 84.894615 62.257126 85.082336 62.110001 85.209999 C 61.939980 85.334656 61.729706 85.391678 61.520000 85.370003 Z M 60.820000 90.860001 L 60.820000 86.139999 L 62.209999 86.139999 L 62.209999 90.860001 Z" fill="#232F3E"/><path d=" M 65.309998 91.000000 C 64.722549 91.035492 64.151276 90.799614 63.759998 90.360001 C 63.027687 89.246262 63.027687 87.803741 63.759998 86.690002 C 64.598747 85.833961 65.972641 85.819939 66.828682 86.658684 C 66.839226 86.669014 66.849663 86.679459 66.860001 86.690002 C 67.592316 87.803741 67.592316 89.246262 66.860001 90.360001 C 66.469620 90.800865 65.897697 91.037010 65.309998 91.000000 Z M 65.309998 90.000000 C 65.548271 90.007164 65.764969 89.862701 65.849998 89.639999 C 66.077171 88.886757 66.077171 88.083244 65.849998 87.330002 C 65.733101 87.031769 65.396576 86.884766 65.098335 87.001663 C 64.947945 87.060616 64.828941 87.179611 64.769997 87.330002 C 64.542824 88.083244 64.542824 88.886757 64.769997 89.639999 C 64.855026 89.862701 65.071724 90.007164 65.309998 90.000000 Z" fill="#232F3E"/><path d=" M 71.000000 90.860001 L 71.000000 87.760002 C 71.011337 87.551956 70.966431 87.344696 70.870003 87.160004 C 70.773735 87.033051 70.618622 86.964951 70.459999 86.980003 C 70.214256 86.989120 69.975670 87.065193 69.769997 87.200005 L 69.769997 90.860001 L 68.379997 90.860001 L 68.379997 86.139999 L 69.519997 86.139999 L 69.629997 86.559998 C 70.078789 86.222061 70.618851 86.026939 71.180000 86.000000 C 71.514740 85.973343 71.843086 86.102470 72.070000 86.349998 C 72.290894 86.634857 72.401031 86.990143 72.379997 87.349998 L 72.379997 90.809998 Z" fill="#232F3E"/><path d=" M 5.630000 103.860001 L 5.630000 97.449997 L 7.750000 97.449997 C 8.507977 97.397018 9.247374 97.700172 9.750000 98.269997 C 10.251641 98.957634 10.492642 99.801140 10.430000 100.649994 C 10.493394 101.503647 10.256392 102.352615 9.760000 103.049995 C 9.275947 103.609016 8.557855 103.908844 7.820000 103.859993 Z M 7.050000 98.440002 L 7.050000 102.870003 L 7.650000 102.870003 C 8.054522 102.898148 8.440719 102.697319 8.650000 102.350006 C 8.894451 101.853729 9.004772 101.302124 8.969999 100.750008 L 8.970000 100.559998 C 8.999661 100.018829 8.882167 99.479736 8.630000 99.000000 C 8.419107 98.654404 8.034039 98.454163 7.630000 98.480003 Z" fill="#232F3E"/><path d=" M 12.250000 98.370003 C 12.033417 98.382797 11.819739 98.315132 11.650000 98.180000 C 11.502876 98.052338 11.421900 97.864624 11.429999 97.669998 C 11.420290 97.472198 11.501281 97.280769 11.650000 97.150002 C 11.822227 97.019608 12.034109 96.952507 12.250000 96.959999 C 12.459562 96.953842 12.664698 97.021042 12.830000 97.150002 C 13.106142 97.412613 13.117111 97.849358 12.854500 98.125504 C 12.846539 98.133873 12.838370 98.142044 12.830000 98.150002 C 12.671285 98.293785 12.464145 98.372353 12.250000 98.370003 Z M 11.550000 103.860001 L 11.550000 99.139999 L 12.930000 99.139999 L 12.930000 103.860001 Z" fill="#232F3E"/><path d=" M 15.840000 102.540001 C 15.840000 102.330002 15.700000 102.150002 15.410000 102.010002 L 14.800000 101.730003 C 14.213059 101.545044 13.810277 101.005310 13.800000 100.390007 C 13.784067 100.002190 13.955151 99.630264 14.260000 99.390007 C 14.629169 99.109222 15.087107 98.970779 15.550000 99.000008 C 15.995959 99.001831 16.436167 99.100792 16.840000 99.290009 L 16.840000 100.139999 C 16.647980 100.068298 16.450731 100.011467 16.250000 99.970001 C 16.082323 99.933662 15.911533 99.913567 15.740000 99.910004 C 15.310000 99.910004 15.090000 100.059998 15.090000 100.370003 C 15.090000 100.680000 15.270000 100.750000 15.630000 100.919998 L 16.240000 101.209999 C 16.500832 101.319473 16.725941 101.499557 16.889999 101.729996 C 17.028465 101.966110 17.097767 102.236389 17.090000 102.509995 C 17.106821 102.920074 16.933371 103.314949 16.620001 103.579994 C 16.265644 103.851326 15.825539 103.986198 15.380001 103.959991 C 14.846907 103.968124 14.320471 103.840820 13.850001 103.589989 L 13.850000 102.750000 C 14.284382 102.922058 14.743545 103.023346 15.210000 103.050003 C 15.378123 103.058929 15.544165 103.009468 15.680000 102.910004 C 15.786201 102.816963 15.844950 102.681107 15.840000 102.540001 Z" fill="#232F3E"/><path d=" M 20.930000 103.650002 C 20.764107 103.754066 20.581387 103.828506 20.389999 103.870003 C 20.167128 103.922531 19.938976 103.949371 19.709999 103.950005 C 19.126053 103.989037 18.555939 103.760994 18.160000 103.330002 C 17.775970 102.804367 17.591629 102.159180 17.639999 101.510002 C 17.595316 100.858047 17.794949 100.212814 18.199999 99.700005 C 18.600698 99.260742 19.176064 99.022530 19.769999 99.050003 C 20.166695 99.052666 20.557205 99.148582 20.909998 99.330002 L 20.910000 100.169998 C 20.632816 100.075821 20.342699 100.025215 20.049999 100.019997 C 19.748133 99.991516 19.451912 100.115257 19.259998 100.349998 C 19.074394 100.681763 18.990902 101.060959 19.019999 101.439995 L 19.020000 101.570000 C 18.989239 101.945969 19.072901 102.322449 19.260000 102.650002 C 19.432945 102.882675 19.710426 103.013916 20.000000 103.000000 C 20.311424 102.992744 20.619267 102.931854 20.910000 102.820000 Z" fill="#232F3E"/><path d=" M 23.680000 104.000000 C 23.093054 104.032524 22.523018 103.797150 22.130001 103.360001 C 21.410557 102.242447 21.410557 100.807556 22.130001 99.690002 C 22.510553 99.230553 23.083929 98.975311 23.680000 99.000000 C 24.269882 98.962372 24.843399 99.202881 25.230000 99.650002 C 25.962311 100.763741 25.962311 102.206261 25.230000 103.320000 C 24.847452 103.775719 24.274380 104.027130 23.680000 104.000000 Z M 23.680000 103.000000 C 23.920202 103.005501 24.138927 102.862335 24.230000 102.639999 C 24.443272 101.884766 24.443272 101.085228 24.230000 100.330002 C 24.142147 100.103737 23.922693 99.956100 23.680000 99.959999 C 23.438211 99.951134 23.219023 100.101318 23.139999 100.330002 C 22.912823 101.083244 22.912823 101.886757 23.139999 102.639999 C 23.225029 102.862701 23.441723 103.007164 23.680000 103.000000 Z" fill="#232F3E"/><path d=" M 27.760000 103.860001 L 26.200001 99.139999 L 27.670000 99.139999 L 28.410000 102.500000 L 29.180000 99.139999 L 30.610001 99.139999 L 29.059999 103.860001 Z" fill="#232F3E"/><path d=" M 32.270000 101.820000 C 32.256348 102.160500 32.366470 102.494423 32.580002 102.760002 C 32.826187 102.970589 33.147591 103.071709 33.470001 103.040001 C 33.647560 103.044395 33.825111 103.030998 34.000000 103.000000 C 34.231232 102.958801 34.458668 102.898598 34.680000 102.820000 L 34.680000 103.660004 C 34.461063 103.781364 34.225075 103.869019 33.980000 103.920006 C 33.707230 103.978874 33.429047 104.009041 33.149998 104.010002 C 31.700001 104.010002 30.980000 103.190002 30.980000 101.540001 C 30.935135 100.880356 31.122650 100.225822 31.510000 99.690002 C 31.890806 99.219444 32.475834 98.962334 33.080002 99.000000 C 34.230000 99.000000 34.810001 99.639999 34.810001 100.919998 C 34.809345 101.216125 34.775806 101.511269 34.710003 101.799995 Z M 33.000000 99.879997 C 32.520000 99.879997 32.259998 100.260002 32.230000 101.019997 L 33.590000 101.019997 L 33.590000 100.809998 C 33.605808 100.561966 33.557602 100.314034 33.450001 100.089996 C 33.349205 99.943542 33.176991 99.863174 33.000000 99.879997 Z" fill="#232F3E"/><path d=" M 35.759998 103.860001 L 35.759998 99.139999 L 36.889999 99.139999 L 37.049999 99.750000 C 37.215199 99.545525 37.419083 99.375618 37.649998 99.250000 C 37.842731 99.143349 38.059731 99.088234 38.279999 99.089996 C 38.389778 99.080109 38.500221 99.080109 38.610001 99.089996 L 38.610001 100.209999 C 38.430267 100.196091 38.249733 100.196091 38.070000 100.209999 C 37.750507 100.211700 37.435699 100.286980 37.150002 100.430000 L 37.150002 103.879997 Z" fill="#232F3E"/><path d=" M 40.750000 104.000000 L 39.080002 99.180000 L 40.549999 99.180000 L 41.330002 102.660004 L 42.090000 99.180000 L 43.520000 99.180000 L 41.810001 104.629997 C 41.715858 105.009521 41.518589 105.355606 41.240002 105.629997 C 40.976097 105.838455 40.645973 105.944946 40.310001 105.930000 C 40.008114 105.926781 39.708302 105.879616 39.420002 105.790001 L 39.419998 104.940002 C 39.579723 104.953270 39.740273 104.953270 39.899998 104.940002 C 40.111115 104.958076 40.320496 104.889488 40.480000 104.750000 C 40.631989 104.578133 40.720257 104.359230 40.730000 104.129997 Z" fill="#232F3E"/><path d=" M 47.500000 101.000000 C 47.087734 100.817154 46.722000 100.543701 46.430000 100.199997 C 46.213066 99.912003 46.097084 99.560547 46.099998 99.199997 C 46.090366 98.844620 46.191734 98.495079 46.389999 98.199997 C 46.580376 97.915176 46.847271 97.689873 47.160000 97.549995 C 47.516563 97.396584 47.901924 97.321556 48.290001 97.329994 C 48.836647 97.333420 49.377144 97.445602 49.880001 97.659996 L 49.880001 98.660004 C 49.415436 98.487282 48.925476 98.392670 48.430000 98.380005 C 48.190571 98.369759 47.954636 98.440193 47.760002 98.580002 C 47.598331 98.706940 47.508751 98.904762 47.520000 99.110001 C 47.511177 99.281380 47.568447 99.449608 47.680000 99.580002 C 47.849861 99.756256 48.054070 99.895798 48.279999 99.990005 L 48.830002 100.260002 C 49.129005 100.394821 49.408241 100.569771 49.660004 100.779999 C 49.857101 100.934174 50.014763 101.132965 50.120003 101.360001 C 50.226322 101.602417 50.277554 101.865402 50.270004 102.129997 C 50.291458 102.666855 50.057861 103.182251 49.640003 103.519997 C 49.148014 103.886398 48.542320 104.067047 47.930004 104.029999 C 47.593971 104.034363 47.258518 104.000816 46.930004 103.930000 C 46.653572 103.872055 46.385017 103.781418 46.130005 103.660004 L 46.130001 102.660004 C 46.407402 102.754601 46.691540 102.828140 46.980000 102.880005 C 47.246578 102.935349 47.517773 102.965477 47.790001 102.970001 C 48.050552 102.988907 48.309322 102.914459 48.520000 102.760002 C 48.695126 102.611221 48.791195 102.389526 48.779999 102.160004 C 48.784916 101.982651 48.720322 101.810394 48.599998 101.680000 C 48.429691 101.508842 48.229801 101.369934 48.009998 101.269997 Z" fill="#232F3E"/><path d=" M 52.240002 101.820000 C 52.221600 102.161148 52.332268 102.496727 52.550003 102.760002 C 52.796188 102.970589 53.117592 103.071709 53.440002 103.040001 C 53.627548 103.045952 53.815205 103.032547 54.000004 103.000000 C 54.228241 102.960022 54.452461 102.899788 54.670002 102.820000 L 54.669998 103.660004 C 54.451797 103.782959 54.215557 103.870712 53.969997 103.920006 C 53.697422 103.980080 53.419113 104.010262 53.139996 104.010002 C 51.700001 104.010002 50.980000 103.190002 50.980000 101.540001 C 50.930786 100.879906 51.118721 100.223907 51.509998 99.690002 C 51.882427 99.225639 52.455551 98.968849 53.049999 99.000000 C 54.200001 99.000000 54.770000 99.639999 54.770000 100.919998 C 54.774174 101.216385 54.740570 101.512100 54.670002 101.799995 Z M 53.000000 99.879997 C 52.520000 99.879997 52.259998 100.260002 52.230000 101.019997 L 53.599998 101.019997 L 53.599998 100.809998 C 53.615807 100.561966 53.567600 100.314034 53.459999 100.089996 C 53.353317 99.945137 53.179337 99.865707 53.000000 99.879997 Z" fill="#232F3E"/><path d=" M 55.730000 103.860001 L 55.730000 99.139999 L 56.860001 99.139999 L 57.009998 99.750000 C 57.181553 99.547951 57.388206 99.378563 57.619999 99.250000 C 57.812733 99.143349 58.029732 99.088234 58.250000 99.089996 C 58.356438 99.080109 58.463562 99.080109 58.570000 99.089996 L 58.570000 100.209999 C 58.393604 100.196129 58.216393 100.196129 58.040001 100.209999 C 57.717422 100.212631 57.399570 100.287827 57.110001 100.430000 L 57.110001 103.879997 Z" fill="#232F3E"/><path d=" M 60.610001 103.860001 L 59.049999 99.139999 L 60.520000 99.139999 L 61.270000 102.500000 L 62.000000 99.139999 L 63.430000 99.139999 L 61.880001 103.860001 Z" fill="#232F3E"/><path d=" M 64.830002 98.370003 C 64.616302 98.384201 64.405258 98.316231 64.240005 98.180000 C 63.963863 97.917389 63.952892 97.480644 64.215508 97.204498 C 64.223465 97.196129 64.231636 97.187958 64.240005 97.180000 C 64.407555 97.048019 64.616928 96.980591 64.830002 96.989998 C 65.042847 96.982338 65.251625 97.049576 65.419998 97.180000 C 65.568718 97.310768 65.649704 97.502205 65.639999 97.699997 C 65.648102 97.894615 65.567123 98.082336 65.419998 98.209999 C 65.249977 98.334656 65.039703 98.391678 64.830002 98.370003 Z M 64.129997 103.860001 L 64.129997 99.139999 L 65.519997 99.139999 L 65.519997 103.860001 Z" fill="#232F3E"/><path d=" M 69.809998 103.650002 C 69.644104 103.754066 69.461388 103.828506 69.269997 103.870003 C 69.047127 103.922531 68.818977 103.949371 68.589996 103.950005 C 68.006050 103.989037 67.435936 103.760994 67.039993 103.330002 C 66.655960 102.804367 66.471626 102.159180 66.519997 101.510002 C 66.475311 100.858047 66.674942 100.212814 67.079994 99.700005 C 67.480690 99.260742 68.056061 99.022530 68.649994 99.050003 C 69.046692 99.052666 69.437202 99.148582 69.789993 99.330002 L 69.790001 100.169998 C 69.512817 100.075821 69.222702 100.025215 68.930000 100.019997 C 68.628136 99.991516 68.331909 100.115257 68.139999 100.349998 C 67.954399 100.681763 67.870903 101.060959 67.900002 101.439995 L 67.900002 101.570000 C 67.869240 101.945969 67.952904 102.322449 68.139999 102.650002 C 68.319138 102.885063 68.605362 103.013115 68.900002 102.989998 C 69.211426 102.982742 69.519264 102.921852 69.810005 102.809998 Z" fill="#232F3E"/><path d=" M 71.709999 101.820000 C 71.691597 102.161148 71.802269 102.496727 72.019997 102.760002 C 72.266182 102.970589 72.587585 103.071709 72.909996 103.040001 C 73.101929 103.036774 73.292984 103.013306 73.479996 102.970001 C 73.708229 102.930023 73.932449 102.869789 74.149994 102.790001 L 74.150002 103.629997 C 73.934631 103.751404 73.701935 103.839088 73.459999 103.889999 C 73.183960 103.949570 72.902390 103.979736 72.620003 103.979996 C 71.180000 103.980003 70.459999 103.160004 70.459999 101.510002 C 70.413658 100.848671 70.605171 100.192558 71.000000 99.660004 C 71.374298 99.212700 71.937622 98.968094 72.519997 99.000000 C 73.669998 99.000000 74.250000 99.639999 74.250000 100.919998 C 74.251015 101.216820 74.214043 101.512558 74.139999 101.799995 Z M 72.480003 99.879997 C 72.000000 99.879997 71.739998 100.260002 71.709999 101.019997 L 73.070000 101.019997 L 73.070000 100.809998 C 73.085808 100.561966 73.037598 100.314034 72.930000 100.089996 C 72.826508 99.946762 72.656250 99.867310 72.480003 99.879997 Z" fill="#232F3E"/><path d=" M 40.000000 55.209999 L 40.000000 63.320000 C 40.000000 63.872284 39.552284 64.320000 39.000000 64.320000 L 21.000000 64.320000 C 20.447716 64.320000 20.000000 63.872284 20.000000 63.320000 L 20.000000 50.060001 C 20.629812 50.650127 21.297934 51.197990 22.000000 51.700001 L 22.000000 62.320000 L 38.000000 62.320000 L 38.000000 55.610001 C 38.673473 55.513309 39.341141 55.379772 40.000000 55.209999 Z M 24.940001 30.320000 C 24.690287 30.966610 24.506031 31.636627 24.390001 32.320000 L 38.000000 32.320000 L 38.000000 30.320000 Z M 24.309999 35.320000 C 24.389069 35.999760 24.536482 36.669819 24.750000 37.320000 L 38.000000 37.320000 L 38.000000 35.320000 Z M 26.309999 40.320000 C 26.858679 41.071930 27.508087 41.744892 28.240000 42.320000 L 38.000000 42.320000 L 38.000000 40.320000 Z M 41.000000 26.320000 L 27.670000 26.320000 C 27.016645 26.907839 26.444902 27.580477 25.969999 28.320000 L 40.000000 28.320000 L 40.000000 43.240002 C 40.727821 42.831184 41.400009 42.330406 42.000000 41.750000 L 42.000000 27.320000 C 42.000000 26.767715 41.552284 26.320000 41.000000 26.320000 Z M 63.540001 62.830002 C 61.600986 64.796135 58.435238 64.818123 56.469105 62.879105 C 56.452625 62.862850 56.436256 62.846481 56.420002 62.830002 L 44.770000 51.189999 C 35.315517 56.706692 23.178984 53.514481 17.662291 44.059998 C 12.145598 34.605515 15.337809 22.468981 24.792290 16.952288 C 34.246773 11.435596 46.383308 14.627806 51.899998 24.082287 C 55.501526 30.254568 55.501526 37.887714 51.899998 44.059998 L 63.540001 55.709999 C 65.506134 57.649014 65.528122 60.814762 63.589104 62.780895 C 63.572849 62.797375 63.556480 62.813744 63.540001 62.829998 Z M 52.540001 34.090000 C 52.545521 24.297993 44.612007 16.355528 34.820000 16.350006 C 25.027992 16.344484 17.085527 24.278000 17.080006 34.070007 C 17.074484 43.862011 25.007996 51.804478 34.799999 51.810001 C 44.581917 51.798981 52.508976 43.871918 52.520000 34.090000 Z M 62.090000 57.180000 L 50.730000 45.840000 C 49.547672 47.423683 48.139336 48.825283 46.549999 50.000000 L 57.889999 61.360001 C 59.244854 62.313698 61.116302 61.988495 62.070000 60.633640 C 62.799091 59.597866 62.799091 58.215775 62.070000 57.180000 Z M 49.389999 34.080002 C 49.389999 26.016645 42.853355 19.480001 34.790001 19.480001 C 26.726645 19.480001 20.190001 26.016644 20.190001 34.080002 C 20.190001 42.143360 26.726643 48.680000 34.790001 48.680000 C 42.848789 48.668983 49.378983 42.138790 49.389999 34.080002 Z M 47.310001 34.080002 C 47.315525 40.994606 41.714607 46.604473 34.800007 46.609997 C 27.885405 46.615520 22.275534 41.014603 22.270010 34.100002 C 22.264486 27.185400 27.865402 21.575529 34.780006 21.570005 C 34.783337 21.570004 34.786671 21.570002 34.790001 21.570002 C 41.696144 21.580996 47.293488 27.173868 47.310001 34.080002 Z" fill="#FFFFFF"/></g></svg>