<svg version="1.1" width="80.000000" height="115.000000" viewBox="0.000000 0.000000 80.000000 115.000000" xmlns="http://www.w3.org/2000/svg" xmlns:xlink="http://www.w3.org/1999/xlink" overflow="hidden"><g id="CARDS"><rect x="1.000000" y="1.000000" width="78.000000" height="78.000000" fill="#232F3E"/><path d=" M 0.000000 0.000000 L 0.000000 80.000000 L 0.000000 80.000000 L 0.000000 115.000000 L 80.000000 115.000000 L 80.000000 80.000000 L 80.000000 80.000000 L 80.000000 0.000000 Z M 1.000000 1.000000 L 79.000000 1.000000 L 79.000000 79.000000 L 1.000000 79.000000 Z" fill="#FFFFFF"/></g><g id="TEXT_-_EDIT"><path d=" M 33.689999 92.349998 L 33.250000 90.529999 L 31.250000 90.529999 L 30.830000 92.349998 L 29.059999 92.349998 L 31.370001 84.720001 L 33.240002 84.720001 L 35.540001 92.349998 Z M 31.510000 89.430000 L 33.000000 89.430000 L 32.240002 86.269997 Z" fill="#232F3E"/><path d=" M 40.889999 92.349998 L 40.000000 86.720001 L 39.110001 92.349998 L 37.189999 92.349998 L 35.410000 84.720001 L 37.110001 84.720001 L 38.169998 90.779999 L 39.080002 85.000000 L 40.919998 85.000000 L 41.860001 90.650002 L 42.860001 84.650002 L 44.520000 84.650002 L 42.740002 92.279999 Z" fill="#232F3E"/><path d=" M 46.840000 89.000000 C 46.345402 88.768761 45.910801 88.426559 45.570000 88.000000 C 45.307678 87.644348 45.170536 87.211830 45.180000 86.769997 C 45.168892 86.354126 45.287739 85.945145 45.520000 85.599998 C 45.745701 85.259720 46.065289 84.992241 46.439999 84.830002 C 46.861813 84.643929 47.319042 84.551804 47.779999 84.560005 C 48.429764 84.562088 49.072483 84.694710 49.669998 84.950005 L 49.669998 86.120003 C 49.134098 85.923050 48.570534 85.811684 48.000000 85.790001 C 47.718163 85.774521 47.439480 85.855652 47.209999 86.020004 C 47.013199 86.172058 46.904575 86.411781 46.919998 86.660004 C 46.912312 86.862022 46.976040 87.060295 47.099998 87.220001 C 47.307770 87.423737 47.552021 87.586571 47.820000 87.700005 L 48.470001 88.019997 C 48.826054 88.187546 49.161602 88.395592 49.470001 88.639999 C 49.698788 88.827263 49.883213 89.062912 50.010002 89.330002 C 50.129375 89.621704 50.187252 89.934906 50.180000 90.250000 C 50.210262 90.886475 49.935429 91.499283 49.439999 91.900002 C 48.864475 92.329575 48.157295 92.545265 47.439999 92.510002 C 47.060139 92.510231 46.681335 92.470001 46.309998 92.389999 C 45.964050 92.327736 45.627823 92.220139 45.309998 92.070000 L 45.310001 90.919998 C 45.637497 91.025146 45.971550 91.108665 46.310001 91.169998 C 46.639122 91.238113 46.973946 91.274940 47.310001 91.279999 C 47.623581 91.302475 47.935078 91.213982 48.190002 91.029999 C 48.396397 90.853905 48.507595 90.590736 48.490002 90.320000 C 48.496090 90.107033 48.421024 89.899704 48.280003 89.739998 C 48.072327 89.543411 47.832092 89.384384 47.570004 89.269997 Z" fill="#232F3E"/><path d=" M 11.910000 106.349998 L 11.910000 101.000000 L 10.500000 104.459999 L 9.060000 104.459999 L 7.660000 101.000000 L 7.660000 106.320000 L 6.160000 106.320000 L 6.160000 98.720001 L 8.090000 98.720001 L 9.810000 103.000000 L 11.530000 98.730003 L 13.410000 98.730003 L 13.410000 106.360001 Z" fill="#232F3E"/><path d=" M 15.810000 99.809998 C 15.553858 99.830612 15.299609 99.751831 15.100000 99.589996 C 14.920804 99.439140 14.821186 99.214073 14.830000 98.979996 C 14.819643 98.745628 14.919550 98.519913 15.100000 98.369995 C 15.520441 98.064751 16.089560 98.064751 16.510000 98.369995 C 16.684265 98.523682 16.779810 98.747849 16.770000 98.979996 C 16.776995 99.211624 16.681938 99.434639 16.510000 99.589996 C 16.312973 99.749374 16.062780 99.828011 15.810000 99.809998 Z M 15.000000 106.349998 L 15.000000 100.720001 L 16.650000 100.720001 L 16.650000 106.349998 Z" fill="#232F3E"/><path d=" M 21.000000 105.709999 C 20.344322 106.397354 19.255581 106.423027 18.568230 105.767349 C 18.483223 105.686256 18.406748 105.596672 18.340000 105.499992 C 17.966982 104.901863 17.785555 104.204063 17.820000 103.499992 C 17.779980 102.759315 17.964720 102.023834 18.350000 101.389992 C 18.674278 100.896835 19.229950 100.605766 19.820000 100.619995 C 20.062443 100.628639 20.300596 100.686478 20.520000 100.789993 C 20.760798 100.891373 20.976004 101.045090 21.150000 101.239990 L 21.280001 100.760002 L 22.629999 100.760002 L 22.629999 106.000000 C 22.629999 107.860001 21.770000 108.790001 20.059999 108.790001 C 19.423319 108.794128 18.795216 108.643105 18.230000 108.349998 L 18.230000 107.349998 C 18.745829 107.547577 19.288696 107.665596 19.840000 107.699997 C 20.080511 107.715515 20.321096 107.670830 20.540001 107.570000 C 20.711477 107.476830 20.837786 107.318039 20.890001 107.129997 C 20.979330 106.804581 21.016459 106.467049 21.000002 106.129997 Z M 20.340000 105.110001 C 20.576286 105.100060 20.805006 105.023819 21.000000 104.889999 L 21.000000 102.000000 C 20.785660 101.838440 20.528023 101.744431 20.260000 101.730003 C 19.990807 101.727432 19.749723 101.896187 19.660000 102.150002 C 19.508274 102.565742 19.443604 103.008224 19.469999 103.450005 C 19.445820 103.886879 19.517494 104.323753 19.679998 104.730003 C 19.804295 104.972328 20.057858 105.120567 20.329998 105.110001 Z" fill="#232F3E"/><path d=" M 24.000000 106.349998 L 24.000000 100.720001 L 25.350000 100.720001 L 25.530001 101.449997 C 25.729731 101.212708 25.970158 101.012917 26.240000 100.860001 C 26.473049 100.733055 26.734629 100.667656 27.000000 100.669998 L 27.379999 100.669998 L 27.379999 102.000000 C 27.166899 101.985909 26.953100 101.985909 26.740000 102.000000 C 26.361372 102.000565 25.988115 102.089600 25.650000 102.260002 L 25.650000 106.370003 Z" fill="#232F3E"/><path d=" M 31.070000 106.349998 L 30.930000 105.839996 C 30.774742 106.042564 30.572153 106.203949 30.340000 106.309998 C 30.093094 106.427322 29.823360 106.488777 29.549999 106.489998 C 29.111017 106.511780 28.683004 106.348557 28.369999 106.040001 C 28.066587 105.708809 27.911304 105.268242 27.939999 104.820000 C 27.916857 104.326881 28.110481 103.848297 28.469999 103.510002 C 28.861105 103.158653 29.374828 102.975441 29.900000 103.000000 C 30.214029 103.006668 30.526178 103.050301 30.830000 103.129997 L 30.830000 102.620003 C 30.857573 102.349762 30.801737 102.077560 30.670000 101.840004 C 30.505478 101.687714 30.282753 101.614693 30.059999 101.640007 C 29.455545 101.665237 28.858566 101.783279 28.289999 101.990005 L 28.290001 100.989998 C 28.573471 100.831467 28.880804 100.720016 29.200001 100.659996 C 29.581482 100.580017 29.970226 100.539803 30.360001 100.539993 C 30.903799 100.492088 31.445883 100.649010 31.880001 100.979996 C 32.224773 101.356850 32.395325 101.861237 32.350002 102.369995 L 32.349998 106.309998 Z M 30.070000 105.430000 C 30.368345 105.418404 30.650970 105.293190 30.860001 105.080002 L 30.860001 104.000000 C 30.654169 103.948074 30.442209 103.924522 30.230001 103.930000 C 30.032253 103.913605 29.837622 103.987053 29.700001 104.129997 C 29.560947 104.293694 29.492605 104.505920 29.510000 104.719994 C 29.499710 104.905304 29.552593 105.088631 29.660000 105.239990 C 29.742212 105.347580 29.865282 105.416351 30.000000 105.429993 Z" fill="#232F3E"/><path d=" M 36.779999 106.199997 C 36.386688 106.347153 35.969933 106.421692 35.549999 106.419998 C 34.752197 106.570419 33.983509 106.045616 33.833084 105.247818 C 33.800217 105.073509 33.799171 104.894684 33.829998 104.720001 L 33.830002 101.820000 L 33.099998 101.820000 L 33.099998 100.900002 L 33.880001 100.750000 L 34.119999 99.209999 L 35.480000 99.209999 L 35.480000 100.720001 L 36.759998 100.720001 L 36.759998 101.820000 L 35.480000 101.820000 L 35.480000 104.589996 C 35.464325 104.774376 35.513870 104.958412 35.619999 105.109993 C 35.770245 105.235489 35.965637 105.293388 36.160000 105.269997 C 36.368977 105.266144 36.576893 105.239319 36.779999 105.189995 Z" fill="#232F3E"/><path d=" M 38.529999 99.809998 C 38.273857 99.830612 38.019608 99.751831 37.820000 99.589996 C 37.640804 99.439140 37.541183 99.214073 37.549999 98.979996 C 37.539642 98.745628 37.639549 98.519913 37.820000 98.369995 C 38.240440 98.064751 38.809559 98.064751 39.230000 98.369995 C 39.404263 98.523682 39.499809 98.747849 39.489998 98.979996 C 39.496990 99.211624 39.401936 99.434639 39.230000 99.589996 C 39.032970 99.749374 38.782780 99.828011 38.529999 99.809998 Z M 37.700001 106.349998 L 37.700001 100.720001 L 39.349998 100.720001 L 39.349998 106.349998 Z" fill="#232F3E"/><path d=" M 43.000000 106.489998 C 42.301231 106.527954 41.623463 106.244324 41.160000 105.720001 C 40.293983 104.392052 40.293983 102.677956 41.160000 101.349998 C 42.171749 100.331032 43.817966 100.325180 44.836933 101.336929 C 44.841305 101.341270 44.845661 101.345627 44.850002 101.349998 C 45.716019 102.677948 45.716019 104.392044 44.850002 105.720001 C 44.382557 106.244698 43.701687 106.528084 43.000004 106.489998 Z M 43.000000 105.339996 C 43.286320 105.350388 43.547558 105.177567 43.650002 104.909996 C 43.916798 104.016144 43.916798 103.063843 43.650002 102.169998 C 43.514637 101.813774 43.116123 101.634735 42.759899 101.770103 C 42.575584 101.840141 42.430042 101.985687 42.360001 102.169998 C 42.093204 103.063850 42.093204 104.016151 42.360001 104.909996 C 42.458729 105.175995 42.716415 105.349129 43.000000 105.339996 Z" fill="#232F3E"/><path d=" M 49.790001 106.349998 L 49.790001 102.650002 C 49.806496 102.408363 49.758167 102.166710 49.650002 101.950005 C 49.534103 101.793236 49.343880 101.709541 49.150002 101.730003 C 48.858231 101.741188 48.574909 101.831024 48.330002 101.990005 L 48.330002 106.349998 L 46.680000 106.349998 L 46.680000 100.720001 L 48.000000 100.720001 L 48.139999 101.230003 C 48.674370 100.833908 49.315399 100.607452 49.980000 100.580002 C 50.381432 100.553581 50.773727 100.707565 51.049999 101.000000 C 51.312019 101.350540 51.439739 101.783371 51.410000 102.220001 L 51.410000 106.349998 Z" fill="#232F3E"/><path d=" M 59.509998 106.349998 L 59.509998 103.050003 L 57.180000 103.050003 L 57.180000 106.349998 L 55.490002 106.349998 L 55.490002 98.720001 L 57.180000 98.720001 L 57.180000 101.870003 L 59.509998 101.870003 L 59.509998 98.720001 L 61.200001 98.720001 L 61.200001 106.349998 Z" fill="#232F3E"/><path d=" M 66.000000 106.349998 L 65.860001 105.839996 C 65.348083 106.235382 64.726242 106.462456 64.080002 106.489998 C 63.697655 106.511559 63.327374 106.352333 63.080002 106.059998 C 62.821697 105.700417 62.697830 105.261566 62.730003 104.820000 L 62.730000 100.720001 L 64.379997 100.720001 L 64.379997 104.339996 C 64.359482 104.603439 64.404129 104.867889 64.509995 105.109993 C 64.602509 105.267639 64.778030 105.357353 64.959991 105.339996 C 65.232048 105.331230 65.495857 105.244446 65.719994 105.089996 L 65.720001 100.720001 L 67.370003 100.720001 L 67.370003 106.349998 Z" fill="#232F3E"/><path d=" M 68.769997 106.349998 L 68.769997 98.209999 L 70.419998 98.209999 L 70.419998 101.110001 C 70.594284 100.939362 70.801964 100.806580 71.029999 100.720001 C 71.253052 100.631737 71.490158 100.584312 71.729996 100.580002 C 72.328598 100.545181 72.902954 100.821022 73.249992 101.310005 C 73.637314 101.957367 73.818672 102.707191 73.769989 103.460007 C 73.816566 104.231071 73.628288 104.998138 73.229988 105.660004 C 72.895996 106.169495 72.318649 106.465767 71.709991 106.440002 C 71.445267 106.438156 71.183540 106.383774 70.939995 106.279999 C 70.689255 106.180046 70.461349 106.030373 70.269997 105.839996 L 70.129997 106.349998 Z M 71.190002 101.699997 C 70.912933 101.697105 70.642525 101.784897 70.420006 101.949997 L 70.419998 105.059998 C 70.648117 105.222778 70.919838 105.313354 71.199997 105.320000 C 71.500664 105.339958 71.782700 105.173119 71.909996 104.900002 C 72.078613 104.463989 72.150276 103.996498 72.119995 103.529999 C 72.152283 103.050362 72.080650 102.569412 71.909996 102.119995 C 71.779167 101.845284 71.493523 101.678658 71.189995 101.699997 Z" fill="#232F3E"/></g><g id="ICONS_-_EDIT"><path d=" M 50.290001 38.459999 L 40.000000 28.160000 L 29.709999 38.459999 L 28.290001 37.000000 L 39.290001 26.000000 C 39.678921 25.607878 40.312080 25.605282 40.704201 25.994202 C 40.706142 25.996126 40.708073 25.998060 40.709999 26.000000 L 51.709999 37.000000 Z" fill="#FFFFFF"/><path d=" M 48.380001 43.240002 L 40.000000 34.860001 L 31.620001 43.240002 L 30.209999 41.830002 L 39.290001 32.740002 C 39.678921 32.347881 40.312080 32.345284 40.704201 32.734203 C 40.706142 32.736130 40.708073 32.738060 40.709999 32.740002 L 49.790001 41.830002 Z" fill="#FFFFFF"/><path d=" M 46.470001 48.000000 L 40.000000 41.560001 L 33.529999 48.000000 L 32.119999 46.590000 L 39.290001 39.410000 C 39.678921 39.017879 40.312080 39.015282 40.704201 39.404202 C 40.706142 39.406128 40.708073 39.408058 40.709999 39.410000 L 47.880001 46.590000 Z" fill="#FFFFFF"/><rect x="23.460000" y="22.510000" width="8.990000" height="2.000000" fill="#FFFFFF" transform="matrix(0.862337,-0.506335,0.506335,0.862337,-8.050000,17.390000)"/><rect x="20.000000" y="31.030000" width="2.000000" height="9.610000" fill="#FFFFFF"/><path d=" M 34.650002 23.920000 C 32.247562 23.919994 30.300007 21.972427 30.300013 19.569988 C 30.300018 17.167549 32.247585 15.219994 34.650024 15.219999 C 37.052464 15.220006 39.000019 17.167572 39.000011 19.570011 C 39.000011 19.573341 39.000008 19.576670 39.000000 19.580000 C 38.994488 21.978533 37.048538 23.920006 34.650002 23.920000 Z M 34.650002 17.230000 C 33.352131 17.230000 32.300003 18.282131 32.300003 19.580000 C 32.300003 20.877869 33.352135 21.930000 34.650002 21.930000 C 35.947872 21.930000 37.000000 20.877869 37.000000 19.580000 C 37.000000 18.282131 35.947868 17.230000 34.650002 17.230000 Z" fill="#FFFFFF"/><path d=" M 21.000000 32.049999 C 18.597561 32.049992 16.650005 30.102427 16.650011 27.699987 C 16.650017 25.297548 18.597584 23.349993 21.000023 23.349998 C 23.402462 23.350004 25.350018 25.297571 25.350012 27.700010 C 25.350012 27.703341 25.350008 27.706669 25.350000 27.709999 C 25.344486 30.108532 23.398539 32.050007 21.000000 32.049999 Z M 21.000000 25.360001 C 19.702131 25.360001 18.650000 26.412132 18.650000 27.710001 C 18.650000 29.007870 19.702131 30.060001 21.000000 30.060001 C 22.297869 30.060001 23.350000 29.007870 23.350000 27.710001 C 23.350000 26.412132 22.297869 25.360001 21.000000 25.360001 Z" fill="#FFFFFF"/><path d=" M 21.000000 48.320000 C 18.597561 48.319942 16.650045 46.372334 16.650103 43.969894 C 16.650160 41.567455 18.597767 39.619942 21.000206 39.619999 C 23.402645 39.620056 25.350161 41.567665 25.350103 43.970104 C 25.350103 43.980068 25.350069 43.990036 25.350000 44.000000 C 25.328093 46.388435 23.388529 48.314621 21.000000 48.320000 Z M 21.000000 41.619999 C 19.702131 41.620106 18.650085 42.672321 18.650192 43.970192 C 18.650297 45.268063 19.702515 46.320107 21.000383 46.320000 C 22.286478 46.319897 23.333582 45.285988 23.350000 44.000000 C 23.366570 42.702236 22.327955 41.636761 21.030191 41.620190 C 21.020128 41.620060 21.010063 41.619999 21.000000 41.619999 Z" fill="#FFFFFF"/><rect x="51.040000" y="19.010000" width="2.000000" height="8.990000" fill="#FFFFFF" transform="matrix(0.506335,-0.862337,0.862337,0.506335,5.430000,56.490000)"/><rect x="58.000000" y="31.030000" width="2.000000" height="9.610000" fill="#FFFFFF"/><path d=" M 45.349998 23.920000 C 42.947559 23.919994 41.000004 21.972427 41.000011 19.569988 C 41.000019 17.167549 42.947586 15.219994 45.350021 15.219999 C 47.752460 15.220006 49.700016 17.167572 49.700008 19.570011 C 49.700008 19.573341 49.700005 19.576670 49.699997 19.580000 C 49.694485 21.978533 47.748535 23.920006 45.349998 23.920000 Z M 45.349998 17.230000 C 44.052128 17.230000 43.000000 18.282131 43.000000 19.580000 C 43.000000 20.877869 44.052132 21.930000 45.349998 21.930000 C 46.647869 21.930000 47.699997 20.877869 47.699997 19.580000 C 47.699997 18.282131 46.647865 17.230000 45.349998 17.230000 Z" fill="#FFFFFF"/><path d=" M 59.000000 32.049999 C 56.597561 32.049992 54.650005 30.102427 54.650013 27.699987 C 54.650021 25.297548 56.597588 23.349993 59.000023 23.349998 C 61.402462 23.350004 63.350018 25.297571 63.350010 27.700010 C 63.350010 27.703341 63.350006 27.706669 63.349998 27.709999 C 63.344486 30.108532 61.398537 32.050007 59.000000 32.049999 Z M 59.000000 25.360001 C 57.702129 25.360001 56.650002 26.412132 56.650002 27.710001 C 56.650002 29.007870 57.702133 30.060001 59.000000 30.060001 C 60.297871 30.060001 61.349998 29.007870 61.349998 27.710001 C 61.349998 26.412132 60.297867 25.360001 59.000000 25.360001 Z" fill="#FFFFFF"/><path d=" M 59.000000 48.320000 C 56.597561 48.319942 54.650047 46.372334 54.650105 43.969894 C 54.650162 41.567455 56.597771 39.619942 59.000210 39.619999 C 61.402649 39.620056 63.350163 41.567665 63.350105 43.970104 C 63.350105 43.980068 63.350071 43.990036 63.350002 44.000000 C 63.328094 46.388435 61.388531 48.314621 59.000004 48.320000 Z M 59.000000 41.619999 C 57.702129 41.620106 56.650085 42.672321 56.650192 43.970192 C 56.650299 45.268063 57.702515 46.320107 59.000385 46.320000 C 60.286480 46.319897 61.333584 45.285988 61.350002 44.000000 C 61.366570 42.702236 60.327957 41.636761 59.030193 41.620190 C 59.020130 41.620060 59.010067 41.619999 59.000000 41.619999 Z" fill="#FFFFFF"/><rect x="32.320000" y="52.240000" width="2.000000" height="8.720000" fill="#FFFFFF" transform="matrix(0.527549,-0.849525,0.849525,0.527549,-32.340000,55.050000)"/><rect x="42.330000" y="55.620000" width="8.660000" height="2.000000" fill="#FFFFFF" transform="matrix(0.849617,-0.527401,0.527401,0.849617,-22.840000,33.120000)"/><path d=" M 40.000000 64.769997 C 37.597561 64.771004 35.649185 62.824261 35.648178 60.421822 C 35.647171 58.019382 37.593914 56.071007 39.996353 56.070000 C 42.398792 56.068993 44.347168 58.015736 44.348175 60.418175 C 44.348660 61.574501 43.888733 62.683437 43.070000 63.500000 C 42.257504 64.316582 41.151932 64.773941 40.000000 64.769997 Z M 40.000000 58.080002 C 39.378090 58.076042 38.780407 58.320877 38.340000 58.760002 C 37.900925 59.201248 37.653076 59.797527 37.650002 60.420002 C 37.649799 61.043137 37.898151 61.640614 38.340000 62.080002 C 39.268169 62.968906 40.731831 62.968906 41.660000 62.080002 C 42.101852 61.640614 42.350201 61.043137 42.349998 60.420002 C 42.346924 59.797527 42.099075 59.201248 41.660000 58.760002 L 41.660000 58.759998 C 41.219593 58.320873 40.621910 58.076038 40.000000 58.079998 Z" fill="#FFFFFF"/><path d=" M 53.360001 57.230000 C 50.952114 57.210880 49.015636 55.243408 49.034752 52.835522 C 49.053871 50.427635 51.021343 48.491158 53.429230 48.510273 C 55.837116 48.529392 57.773594 50.496864 57.754478 52.904751 C 57.745209 54.072216 57.268105 55.187195 56.430000 56.000000 C 55.609116 56.799122 54.505566 57.241261 53.360001 57.230000 Z M 53.360001 50.529999 C 52.735973 50.525276 52.136814 50.774323 51.700001 51.219997 C 50.783207 52.130848 50.778393 53.612446 51.689243 54.529240 C 51.692818 54.532837 51.696404 54.536423 51.700001 54.539997 C 52.630207 55.423809 54.089794 55.423809 55.020000 54.539997 C 55.930004 53.620403 55.930004 52.139591 55.020000 51.219997 C 54.582531 50.775291 53.983803 50.526421 53.360001 50.529999 Z" fill="#FFFFFF"/><path d=" M 26.639999 57.099998 C 24.237560 57.101002 22.289186 55.154255 22.288183 52.751816 C 22.287180 50.349377 24.233927 48.401001 26.636366 48.399998 C 27.793583 48.399513 28.903297 48.860149 29.720001 49.679996 C 31.415516 51.382038 31.410225 54.136299 29.708185 55.831814 C 28.893333 56.643539 27.790169 57.099514 26.640001 57.099995 Z M 26.639999 50.400002 C 25.342152 50.407337 24.295984 51.465397 24.303320 52.763248 C 24.306786 53.376205 24.549608 53.963551 24.980000 54.400002 C 25.908167 55.288906 27.371832 55.288906 28.299999 54.400002 C 29.211290 53.475872 29.200882 51.987972 28.276754 51.076679 C 27.840302 50.646290 27.252956 50.403465 26.639999 50.400002 Z" fill="#FFFFFF"/></g></svg>