<svg version="1.1" width="80.000000" height="130.000000" viewBox="0.000000 0.000000 80.000000 130.000000" xmlns="http://www.w3.org/2000/svg" xmlns:xlink="http://www.w3.org/1999/xlink" overflow="hidden"><g id="CARDS"><rect x="1.000000" y="1.000000" width="78.000000" height="78.000000" fill="#232F3E"/><path d=" M 0.000000 0.000000 L 0.000000 80.000000 L 0.000000 80.000000 L 0.000000 130.000000 L 80.000000 130.000000 L 80.000000 80.000000 L 80.000000 80.000000 L 80.000000 0.000000 Z M 1.000000 1.000000 L 79.000000 1.000000 L 79.000000 79.000000 L 1.000000 79.000000 Z" fill="#FFFFFF"/></g><g id="TEXT_-_EDIT"><path d=" M 17.080000 92.349998 L 16.650000 90.529999 L 14.650000 90.529999 L 14.220000 92.349998 L 12.450000 92.349998 L 14.770000 84.720001 L 16.629999 84.720001 L 18.930000 92.349998 Z M 14.900000 89.430000 L 16.389999 89.430000 L 15.630000 86.269997 Z" fill="#232F3E"/><path d=" M 24.280001 92.349998 L 23.340000 86.720001 L 22.450001 92.349998 L 20.580000 92.349998 L 18.799999 84.720001 L 20.500000 84.720001 L 21.559999 90.779999 L 22.480000 85.000000 L 24.309999 85.000000 L 25.250000 90.650002 L 26.250000 84.650002 L 27.910000 84.650002 L 26.129999 92.279999 Z" fill="#232F3E"/><path d=" M 30.240000 89.000000 C 29.755489 88.766106 29.331230 88.423958 29.000000 88.000000 C 28.737677 87.644348 28.600536 87.211830 28.610001 86.769997 C 28.603392 86.354721 28.721857 85.947060 28.950001 85.599998 C 29.175703 85.259720 29.495289 84.992241 29.870001 84.830002 C 30.291815 84.643929 30.749043 84.551804 31.210001 84.560005 C 31.862911 84.562904 32.508743 84.695473 33.110001 84.950005 L 33.110001 86.120003 C 32.554806 85.917786 31.970650 85.806358 31.380001 85.790001 C 31.098349 85.776108 30.820177 85.857094 30.590000 86.020004 C 30.397280 86.175255 30.289665 86.412743 30.299999 86.660004 C 30.290495 86.863945 30.358355 87.063950 30.490000 87.220001 C 30.691879 87.426239 30.933388 87.589516 31.199999 87.700005 L 31.850000 88.019997 C 32.206051 88.187546 32.541599 88.395592 32.849998 88.639999 C 33.078785 88.827263 33.263210 89.062912 33.389999 89.330002 C 33.514149 89.620277 33.572216 89.934525 33.559998 90.250000 C 33.590260 90.886475 33.315426 91.499283 32.819996 91.900002 C 32.244473 92.329575 31.537292 92.545265 30.819996 92.510002 C 30.440168 92.509636 30.061428 92.469414 29.689997 92.389999 C 29.360466 92.326210 29.040960 92.218590 28.739996 92.070000 L 28.740000 90.919998 C 29.067017 91.026825 29.401186 91.110367 29.740000 91.169998 C 30.069298 91.236969 30.404016 91.273788 30.740000 91.279999 C 31.016415 91.268616 31.282267 91.170670 31.500000 91.000000 C 31.706396 90.823906 31.817593 90.560738 31.799999 90.290001 C 31.806087 90.077034 31.731022 89.869705 31.590000 89.709999 C 31.384481 89.515427 31.147888 89.356575 30.889999 89.239998 Z" fill="#232F3E"/><path d=" M 38.630001 89.000000 C 38.135403 88.768761 37.700802 88.426559 37.360001 88.000000 C 37.108330 87.640587 36.981831 87.208389 37.000000 86.769997 C 36.988892 86.354126 37.107738 85.945145 37.340000 85.599998 C 37.565701 85.259720 37.885288 84.992241 38.259998 84.830002 C 38.681812 84.643929 39.139042 84.551804 39.599998 84.560005 C 40.249763 84.562088 40.892483 84.694710 41.489998 84.950005 L 41.490002 86.120003 C 40.938255 85.917831 40.357395 85.806381 39.770000 85.790001 C 39.497204 85.773232 39.226509 85.847054 39.000000 86.000000 C 38.803200 86.152054 38.694576 86.391777 38.709999 86.639999 C 38.702312 86.842018 38.766041 87.040291 38.889999 87.199997 C 39.097771 87.403732 39.342022 87.566566 39.610001 87.680000 L 40.259998 88.000000 C 40.616051 88.167549 40.951599 88.375595 41.259998 88.620003 C 41.488785 88.807266 41.673210 89.042915 41.799999 89.310005 C 41.919373 89.601707 41.977249 89.914909 41.969997 90.230003 C 42.000259 90.866478 41.725426 91.479286 41.229996 91.880005 C 40.654472 92.309578 39.947292 92.525269 39.229996 92.490005 C 38.817513 92.504227 38.404766 92.470673 37.999996 92.390007 C 37.654049 92.327744 37.317822 92.220146 36.999996 92.070007 L 37.000000 90.919998 C 37.327496 91.025146 37.661549 91.108665 38.000000 91.169998 C 38.329121 91.238113 38.663944 91.274940 39.000000 91.279999 C 39.324009 91.298737 39.643806 91.199242 39.900002 91.000000 C 40.106396 90.823906 40.217594 90.560738 40.200001 90.290001 C 40.206089 90.077034 40.131023 89.869705 39.990002 89.709999 C 39.782326 89.513412 39.542091 89.354385 39.280003 89.239998 Z" fill="#232F3E"/><path d=" M 44.270000 89.919998 C 44.267796 90.309822 44.394344 90.689461 44.630001 91.000000 C 44.925568 91.246262 45.306881 91.364975 45.690002 91.330002 C 45.919250 91.324608 46.147243 91.294434 46.370003 91.240005 C 46.641529 91.190041 46.908943 91.119843 47.170002 91.030006 L 47.169998 92.029999 C 46.911758 92.177193 46.631504 92.281868 46.339996 92.339996 C 46.011497 92.411957 45.676285 92.448830 45.339996 92.449997 C 43.619999 92.449997 42.759998 91.449997 42.759998 89.500000 C 42.706959 88.715630 42.929817 87.937401 43.389999 87.300003 C 43.847763 86.774681 44.524765 86.493523 45.220001 86.540001 C 46.580002 86.540001 47.220001 87.300003 47.220001 88.830002 C 47.219128 89.166870 47.178856 89.502487 47.100002 89.830002 Z M 45.189999 87.599998 C 44.610001 87.599998 44.299999 88.059998 44.270000 88.970001 L 45.889999 88.970001 L 45.889999 88.720001 C 45.910442 88.423340 45.851780 88.126572 45.720001 87.860001 C 45.601139 87.686409 45.400032 87.587753 45.190002 87.599998 Z" fill="#232F3E"/><path d=" M 48.419998 92.349998 L 48.419998 86.720001 L 49.770000 86.720001 L 49.950001 87.449997 C 50.149731 87.212708 50.390156 87.012917 50.660000 86.860001 C 50.893047 86.733055 51.154629 86.667656 51.419998 86.669998 L 51.799999 86.669998 L 51.799999 88.000000 C 51.586899 87.985909 51.373100 87.985909 51.160000 88.000000 C 50.781372 88.000565 50.408115 88.089600 50.070000 88.260002 L 50.070000 92.370003 Z" fill="#232F3E"/><path d=" M 54.220001 92.349998 L 52.369999 86.720001 L 54.110001 86.720001 L 55.000000 90.720001 L 55.919998 86.720001 L 57.619999 86.720001 L 55.779999 92.349998 Z" fill="#232F3E"/><path d=" M 59.590000 89.919998 C 59.597248 90.316658 59.742188 90.698456 60.000000 91.000000 C 60.294472 91.248260 60.676643 91.367241 61.060001 91.330002 C 61.289204 91.323997 61.517132 91.293831 61.740002 91.240005 C 62.011253 91.188805 62.278576 91.118637 62.540001 91.030006 L 62.540001 92.029999 C 62.280979 92.175522 62.000999 92.280098 61.709999 92.339996 C 61.381474 92.411812 61.046276 92.448685 60.709999 92.449997 C 58.990002 92.449997 58.130001 91.449997 58.130001 89.500000 C 58.076962 88.715630 58.299820 87.937401 58.760002 87.300003 C 59.218693 86.775963 59.895027 86.495087 60.590004 86.540001 C 61.950001 86.540001 62.590000 87.300003 62.590000 88.830002 C 62.589127 89.166870 62.548855 89.502487 62.470001 89.830002 Z M 60.509998 87.599998 C 59.930000 87.599998 59.630001 88.059998 59.590000 88.970001 L 61.209999 88.970001 L 61.209999 88.720001 C 61.230442 88.423340 61.171780 88.126572 61.040001 87.860001 C 60.922512 87.684830 60.720444 87.585701 60.510002 87.599998 Z" fill="#232F3E"/><path d=" M 63.740002 92.349998 L 63.740002 86.720001 L 65.089996 86.720001 L 65.269997 87.449997 C 65.470947 87.209991 65.715179 87.009857 65.989998 86.860001 C 66.218910 86.731735 66.477631 86.666191 66.739998 86.669998 C 66.866455 86.659698 66.993538 86.659698 67.119995 86.669998 L 67.120003 88.000000 C 66.910240 87.985909 66.699768 87.985909 66.490005 88.000000 C 66.108170 88.000481 65.731644 88.089478 65.390007 88.260002 L 65.389999 92.370003 Z" fill="#232F3E"/><path d=" M 22.940001 106.349998 L 22.940001 101.000000 L 21.530001 104.459999 L 20.100000 104.459999 L 18.700001 101.000000 L 18.700001 106.320000 L 17.190001 106.320000 L 17.190001 98.720001 L 19.120001 98.720001 L 20.840000 103.000000 L 22.570000 98.730003 L 24.450001 98.730003 L 24.450001 106.360001 Z" fill="#232F3E"/><path d=" M 26.840000 99.809998 C 26.584759 99.822983 26.333181 99.745026 26.130001 99.589996 C 25.958063 99.434639 25.863007 99.211624 25.870001 98.979996 C 25.860191 98.747849 25.955736 98.523689 26.130001 98.369995 C 26.328119 98.204575 26.582521 98.122162 26.840000 98.139992 C 27.094103 98.124771 27.344446 98.207024 27.540001 98.369995 C 27.720451 98.519913 27.820358 98.745628 27.810001 98.979996 C 27.818815 99.214073 27.719198 99.439140 27.540001 99.589996 C 27.342974 99.749374 27.092781 99.828011 26.840000 99.809998 Z M 26.000000 106.349998 L 26.000000 100.720001 L 27.650000 100.720001 L 27.650000 106.349998 Z" fill="#232F3E"/><path d=" M 32.000000 105.709999 C 31.688070 106.047455 31.249540 106.239540 30.790001 106.239998 C 30.214964 106.256142 29.671648 105.976936 29.350000 105.500000 C 28.973475 104.903000 28.788536 104.205116 28.820000 103.500000 C 28.777821 102.757782 28.966455 102.020706 29.360001 101.389999 C 29.682375 100.899895 30.233475 100.609245 30.820000 100.620003 C 31.065832 100.627289 31.307526 100.685165 31.529999 100.790001 C 31.767303 100.897537 31.981314 101.050400 32.160000 101.239998 L 32.279999 100.760002 L 33.630001 100.760002 L 33.630001 106.000000 C 33.630001 107.860001 32.779999 108.790001 31.059999 108.790001 C 30.423319 108.794128 29.795216 108.643105 29.230000 108.349998 L 29.230000 107.349998 C 29.749220 107.547821 30.295420 107.665833 30.850000 107.699997 C 31.090435 107.714272 31.330721 107.669647 31.550001 107.570000 C 31.718622 107.473465 31.843868 107.316017 31.900002 107.129997 C 31.984823 106.803833 32.018559 106.466499 32.000000 106.129997 Z M 31.340000 105.110001 C 31.576286 105.100060 31.805006 105.023819 32.000000 104.889999 L 32.000000 102.000000 C 31.789335 101.838676 31.534939 101.744583 31.270000 101.730003 C 31.000807 101.727432 30.759724 101.896187 30.670000 102.150002 C 30.514036 102.564812 30.445930 103.007492 30.469999 103.450005 C 30.443111 103.887955 30.518429 104.326164 30.689999 104.730003 C 30.815271 104.981140 31.080168 105.131378 31.359999 105.110001 Z" fill="#232F3E"/><path d=" M 35.070000 106.349998 L 35.070000 100.720001 L 36.419998 100.720001 L 36.599998 101.449997 C 36.800945 101.209991 37.045177 101.009857 37.320000 100.860001 C 37.549919 100.734291 37.807957 100.668915 38.070000 100.669998 C 38.199810 100.660080 38.330189 100.660080 38.459999 100.669998 L 38.459999 102.000000 C 38.246883 101.986336 38.033115 101.986336 37.820000 102.000000 C 37.438164 102.000481 37.061642 102.089478 36.720001 102.260002 L 36.720001 106.370003 Z" fill="#232F3E"/><path d=" M 42.110001 106.349998 L 41.959999 105.839996 C 41.809303 106.046989 41.605442 106.209389 41.369999 106.309998 C 41.126694 106.427460 40.860176 106.488968 40.590000 106.489998 C 40.150822 106.513031 39.722321 106.349617 39.410000 106.040001 C 39.103970 105.709824 38.945168 105.269508 38.970001 104.820000 C 38.946857 104.326881 39.140484 103.848297 39.500000 103.510002 C 39.903866 103.177910 40.417988 103.010109 40.939999 103.040001 C 41.254028 103.046669 41.566177 103.090302 41.869999 103.169998 L 41.869999 102.660004 C 41.895195 102.388687 41.835812 102.116226 41.700001 101.880005 C 41.539997 101.726921 41.319851 101.653542 41.100002 101.680008 C 40.492172 101.704216 39.891747 101.822273 39.320004 102.030006 L 39.320000 101.029999 C 39.607075 100.871574 39.917679 100.760162 40.239998 100.699997 C 40.621399 100.619514 41.010197 100.579300 41.399998 100.579994 C 41.943604 100.534027 42.485004 100.690742 42.919998 101.019997 C 43.261158 101.398506 43.428013 101.902695 43.379997 102.409996 L 43.380001 106.349998 Z M 41.110001 105.430000 C 41.411385 105.418922 41.697319 105.293823 41.910000 105.080002 L 41.910000 104.000000 C 41.704060 103.948677 41.492180 103.925140 41.279999 103.930000 C 41.079453 103.914780 40.882248 103.987816 40.739998 104.129997 C 40.608238 104.297188 40.544003 104.507729 40.559998 104.719994 C 40.549709 104.905304 40.602589 105.088631 40.709999 105.239990 C 40.794926 105.354698 40.927376 105.424606 41.070000 105.429993 Z" fill="#232F3E"/><path d=" M 47.820000 106.199997 C 47.426689 106.347153 47.009933 106.421692 46.590000 106.419998 C 46.117683 106.464508 45.646893 106.320755 45.279999 106.019997 C 44.975262 105.658775 44.827633 105.190689 44.869999 104.719994 L 44.869999 101.820000 L 44.130001 101.820000 L 44.130001 100.900002 L 44.919998 100.750000 L 45.160000 99.209999 L 46.520000 99.209999 L 46.520000 100.720001 L 47.790001 100.720001 L 47.790001 101.820000 L 46.520000 101.820000 L 46.520000 104.589996 C 46.504326 104.774376 46.553871 104.958412 46.660000 105.109993 C 46.806587 105.234970 46.998745 105.292976 47.189999 105.269997 C 47.402237 105.265694 47.613422 105.238876 47.820000 105.189995 Z" fill="#232F3E"/><path d=" M 49.560001 99.809998 C 49.304760 99.822983 49.053185 99.745026 48.850002 99.589996 C 48.678066 99.434639 48.583008 99.211624 48.590004 98.979996 C 48.580196 98.747849 48.675739 98.523689 48.850002 98.369995 C 49.048119 98.204575 49.302521 98.122162 49.560001 98.139992 C 49.814102 98.124771 50.064445 98.207024 50.260002 98.369995 C 50.440453 98.519913 50.540359 98.745628 50.530003 98.979996 C 50.538818 99.214073 50.439198 99.439140 50.260002 99.589996 C 50.062973 99.749374 49.812782 99.828011 49.560001 99.809998 Z M 48.730000 106.349998 L 48.730000 100.720001 L 50.380001 100.720001 L 50.380001 106.349998 Z" fill="#232F3E"/><path d=" M 54.070000 106.489998 C 53.371231 106.527954 52.693462 106.244324 52.230000 105.720001 C 51.363983 104.392052 51.363983 102.677956 52.230000 101.349998 C 53.228825 100.333794 54.862331 100.319710 55.878536 101.318535 C 55.889114 101.328934 55.899605 101.339424 55.910000 101.349998 C 56.776016 102.677948 56.776016 104.392044 55.910000 105.720001 C 55.448322 106.246819 54.769287 106.530983 54.070000 106.489998 Z M 54.070000 105.339996 C 54.354492 105.352325 54.613888 105.178047 54.709999 104.909996 C 54.976795 104.016144 54.976795 103.063843 54.709999 102.169998 C 54.567577 101.816536 54.165585 101.645454 53.812122 101.787872 C 53.638092 101.857994 53.500122 101.995964 53.429996 102.169998 C 53.163200 103.063850 53.163200 104.016151 53.429996 104.909996 C 53.526108 105.178047 53.785503 105.352325 54.069996 105.339996 Z" fill="#232F3E"/><path d=" M 60.830002 106.349998 L 60.830002 102.650002 C 60.849316 102.407036 60.797176 102.163719 60.680000 101.950005 C 60.568672 101.793205 60.381149 101.709015 60.189999 101.730003 C 59.897968 101.739677 59.614250 101.829636 59.369999 101.990005 L 59.369999 106.349998 L 57.720001 106.349998 L 57.720001 100.720001 L 59.070000 100.720001 L 59.200001 101.230003 C 59.738033 100.833672 60.382305 100.607300 61.049999 100.580002 C 61.448467 100.553772 61.837635 100.707970 62.110001 101.000000 C 62.379730 101.347038 62.511524 101.781601 62.480000 102.220001 L 62.480000 106.349998 Z" fill="#232F3E"/><path d=" M 24.730000 117.000000 C 24.232723 116.768532 23.794912 116.426491 23.449999 116.000000 C 23.191233 115.643089 23.057642 115.210678 23.070000 114.769997 C 23.059801 114.355682 23.174810 113.947922 23.400000 113.599998 C 23.632124 113.261627 23.954256 112.994911 24.330000 112.830002 C 24.751116 112.641739 25.208838 112.549515 25.670000 112.560005 C 26.319569 112.563965 26.961924 112.696510 27.559999 112.950005 L 27.559999 114.120003 C 27.008253 113.917831 26.427393 113.806381 25.840000 113.790001 C 25.555244 113.776161 25.273926 113.857040 25.040001 114.020004 C 24.847281 114.175255 24.739666 114.412743 24.750000 114.660004 C 24.745146 114.863258 24.812462 115.061668 24.940001 115.220001 C 25.143887 115.428474 25.389143 115.591980 25.660000 115.700005 L 26.309999 116.019997 C 26.667839 116.184235 27.003771 116.392517 27.309999 116.639999 C 27.545288 116.820801 27.731043 117.058159 27.850000 117.330002 C 27.977577 117.619499 28.039066 117.933777 28.030001 118.250000 C 28.060263 118.886475 27.785427 119.499283 27.290001 119.900002 C 26.713343 120.327324 26.006987 120.542763 25.290001 120.510002 C 24.906866 120.509674 24.524807 120.469460 24.150002 120.389999 C 23.804222 120.327065 23.468079 120.219498 23.150002 120.070000 L 23.150000 118.919998 C 23.477161 119.026321 23.811295 119.109856 24.150000 119.169998 C 24.479118 119.238113 24.813944 119.274940 25.150000 119.279999 C 25.457417 119.289337 25.758320 119.190216 26.000000 119.000000 C 26.212818 118.827957 26.328489 118.563034 26.309999 118.290001 C 26.316534 118.075134 26.237391 117.866486 26.090000 117.709999 C 25.886230 117.513252 25.649240 117.354134 25.389999 117.239998 Z" fill="#232F3E"/><path d=" M 30.370001 117.919998 C 30.349251 118.324760 30.477299 118.723129 30.730001 119.040001 C 31.025566 119.286263 31.406881 119.404976 31.790001 119.370003 C 32.019203 119.363998 32.247131 119.333832 32.470001 119.280006 C 32.741528 119.230042 33.008942 119.159843 33.270000 119.070007 L 33.270000 120.070000 C 33.011761 120.217194 32.731506 120.321869 32.439999 120.379997 C 32.111473 120.451813 31.776278 120.488686 31.439999 120.489998 C 29.719999 120.489998 28.860001 119.489998 28.860001 117.540001 C 28.805513 116.753960 29.032366 115.974152 29.500000 115.340004 C 29.954651 114.816292 30.627926 114.535149 31.320000 114.580002 C 32.689999 114.580002 33.369999 115.339996 33.369999 116.870003 C 33.369125 117.206871 33.328854 117.542488 33.250000 117.870003 Z M 31.280001 115.599998 C 30.709999 115.599998 30.400000 116.059998 30.370001 116.970001 L 32.000000 116.970001 L 32.000000 116.720001 C 32.025040 116.423065 31.966135 116.125076 31.830000 115.860001 C 31.708925 115.678207 31.497326 115.578178 31.280001 115.599998 Z" fill="#232F3E"/><path d=" M 34.509998 120.349998 L 34.509998 114.720001 L 35.860001 114.720001 L 36.040001 115.449997 C 36.240948 115.209991 36.485180 115.009857 36.760002 114.860001 C 36.989922 114.734291 37.247959 114.668915 37.510002 114.669998 C 37.639812 114.660080 37.770191 114.660080 37.900002 114.669998 L 37.900002 116.000000 C 37.686886 115.986336 37.473118 115.986336 37.260002 116.000000 C 36.878166 116.000481 36.501644 116.089478 36.160004 116.260002 L 36.160000 120.370003 Z" fill="#232F3E"/><path d=" M 40.320000 120.349998 L 38.459999 114.720001 L 40.209999 114.720001 L 41.099998 118.720001 L 42.020000 114.720001 L 43.720001 114.720001 L 41.869999 120.349998 Z" fill="#232F3E"/><path d=" M 45.340000 113.809998 C 45.084538 113.824768 44.832355 113.746628 44.630001 113.589996 C 44.453274 113.438095 44.357193 113.212677 44.370003 112.979996 C 44.355621 112.747040 44.451988 112.520950 44.630001 112.369995 C 45.050442 112.064751 45.619560 112.064751 46.040001 112.369995 C 46.220451 112.519913 46.320358 112.745628 46.310001 112.979996 C 46.318817 113.214073 46.219196 113.439140 46.040001 113.589996 C 45.842972 113.749374 45.592781 113.828011 45.340000 113.809998 Z M 44.509998 120.349998 L 44.509998 114.720001 L 46.160000 114.720001 L 46.160000 120.349998 Z" fill="#232F3E"/><path d=" M 51.259998 120.089996 C 51.063362 120.213127 50.846798 120.301109 50.619999 120.349998 C 50.354290 120.410645 50.082539 120.440842 49.809998 120.439995 C 49.117512 120.489487 48.440201 120.220772 47.969997 119.709991 C 47.508713 119.088364 47.285229 118.322128 47.339996 117.549988 C 47.289219 116.771988 47.527847 116.002678 48.009995 115.389984 C 48.488075 114.869408 49.174305 114.590515 49.879993 114.629982 C 50.350231 114.627724 50.813824 114.741043 51.229992 114.959984 L 51.230000 115.959999 C 50.909512 115.841644 50.571564 115.777435 50.230000 115.769997 C 49.870422 115.724968 49.514622 115.878006 49.299999 116.169998 C 49.078037 116.561913 48.977127 117.010796 49.009998 117.459999 L 49.009998 117.620003 C 48.973049 118.065079 49.070595 118.511002 49.289997 118.900002 C 49.498989 119.182068 49.840584 119.333885 50.189999 119.300003 C 50.562542 119.291672 50.931026 119.220680 51.279999 119.090004 Z" fill="#232F3E"/><path d=" M 53.520000 117.919998 C 53.508793 118.323456 53.635815 118.718628 53.880001 119.040001 C 54.175568 119.286263 54.556881 119.404976 54.940002 119.370003 C 55.169292 119.365166 55.397346 119.334984 55.620003 119.280006 C 55.894562 119.228943 56.165218 119.158775 56.430004 119.070007 L 56.430000 120.070000 C 56.167084 120.214767 55.883930 120.319267 55.590000 120.379997 C 55.261600 120.452568 54.926323 120.489449 54.590000 120.489998 C 52.869999 120.489998 52.009998 119.489998 52.009998 117.540001 C 51.956959 116.755630 52.179817 115.977402 52.639999 115.340004 C 53.097763 114.814682 53.774765 114.533524 54.470001 114.580002 C 55.830002 114.580002 56.470001 115.339996 56.470001 116.870003 C 56.469128 117.206871 56.428856 117.542488 56.350002 117.870003 Z M 54.439999 115.599998 C 53.860001 115.599998 53.549999 116.059998 53.520000 116.970001 L 55.139999 116.970001 L 55.139999 116.720001 C 55.160442 116.423340 55.101780 116.126572 54.970001 115.860001 C 54.852512 115.684830 54.650444 115.585701 54.440002 115.599998 Z" fill="#232F3E"/></g><g id="ICONS_-_EDIT"><path d=" M 45.180000 52.400002 L 45.180000 50.400002 L 54.660000 50.400002 C 56.423466 50.265392 58.120377 49.668713 59.579998 48.670002 C 60.810001 47.750000 62.869999 45.799999 62.810001 42.970001 C 62.839314 39.381279 60.105179 36.372864 56.530003 36.060001 C 55.984871 36.007198 55.583637 35.525719 55.630001 34.980000 C 55.630001 34.860001 55.630001 34.790001 55.630001 34.709999 C 55.614304 32.390457 53.721218 30.522820 51.401676 30.538517 C 50.326584 30.545792 49.295219 30.965073 48.520000 31.709999 C 48.275349 31.943560 47.929211 32.037617 47.600002 31.959999 C 47.274666 31.884830 47.008316 31.652241 46.890003 31.339998 C 45.377758 27.340527 41.555790 24.687817 37.280003 24.669998 L 37.169998 24.670000 L 37.169998 22.670000 L 37.279999 22.670000 C 41.928329 22.667749 46.182213 25.281954 48.279999 29.430000 C 51.212502 27.662142 55.022900 28.606272 56.790760 31.538776 C 57.283970 32.356907 57.581455 33.277939 57.660000 34.230000 C 61.838428 35.059841 64.838837 38.740063 64.809998 43.000000 C 64.870003 45.750000 63.430000 48.349998 60.810001 50.320000 C 59.001511 51.558323 56.888405 52.277679 54.700001 52.400002 Z" fill="#FFFFFF"/><path d=" M 34.180000 52.500000 L 16.180000 52.500000 C 15.627715 52.500000 15.180000 52.052284 15.180000 51.500000 L 15.180000 15.500000 C 15.180000 14.947715 15.627715 14.500000 16.180000 14.500000 L 34.180000 14.500000 C 34.732285 14.500000 35.180000 14.947715 35.180000 15.500000 L 35.180000 51.500000 C 35.180000 52.052284 34.732285 52.500000 34.180000 52.500000 Z M 17.180000 50.500000 L 33.180000 50.500000 L 33.180000 16.500000 L 17.180000 16.500000 Z" fill="#FFFFFF"/><rect x="19.180000" y="20.500000" width="12.000000" height="2.000000" fill="#FFFFFF"/><rect x="19.180000" y="25.500000" width="12.000000" height="2.000000" fill="#FFFFFF"/><rect x="33.180000" y="54.500000" width="2.000000" height="8.000000" fill="#FFFFFF"/><rect x="39.180000" y="54.500000" width="2.000000" height="10.000000" fill="#FFFFFF"/><rect x="45.180000" y="54.500000" width="2.000000" height="8.000000" fill="#FFFFFF"/><rect x="19.180000" y="30.500000" width="12.000000" height="2.000000" fill="#FFFFFF"/></g></svg>