<svg version="1.1" width="80.000000" height="115.000000" viewBox="0.000000 0.000000 80.000000 115.000000" xmlns="http://www.w3.org/2000/svg" xmlns:xlink="http://www.w3.org/1999/xlink" overflow="hidden"><g id="CARDS"><rect x="1.000000" y="1.000000" width="78.000000" height="78.000000" fill="#232F3E"/><path d=" M 0.000000 0.000000 L 0.000000 80.000000 L 0.000000 80.000000 L 0.000000 115.000000 L 80.000000 115.000000 L 80.000000 80.000000 L 80.000000 80.000000 L 80.000000 0.000000 Z M 1.000000 1.000000 L 79.000000 1.000000 L 79.000000 79.000000 L 1.000000 79.000000 Z" fill="#FFFFFF"/></g><g id="TEXT_-_EDIT"><path d=" M 33.689999 92.349998 L 33.250000 90.529999 L 31.250000 90.529999 L 30.830000 92.349998 L 29.059999 92.349998 L 31.370001 84.720001 L 33.240002 84.720001 L 35.540001 92.349998 Z M 31.510000 89.430000 L 33.000000 89.430000 L 32.240002 86.269997 Z" fill="#232F3E"/><path d=" M 40.889999 92.349998 L 40.000000 86.720001 L 39.110001 92.349998 L 37.189999 92.349998 L 35.410000 84.720001 L 37.110001 84.720001 L 38.169998 90.779999 L 39.080002 85.000000 L 40.919998 85.000000 L 41.860001 90.650002 L 42.860001 84.650002 L 44.520000 84.650002 L 42.740002 92.279999 Z" fill="#232F3E"/><path d=" M 46.840000 89.000000 C 46.345402 88.768761 45.910801 88.426559 45.570000 88.000000 C 45.307678 87.644348 45.170536 87.211830 45.180000 86.769997 C 45.168892 86.354126 45.287739 85.945145 45.520000 85.599998 C 45.745701 85.259720 46.065289 84.992241 46.439999 84.830002 C 46.861813 84.643929 47.319042 84.551804 47.779999 84.560005 C 48.429764 84.562088 49.072483 84.694710 49.669998 84.950005 L 49.669998 86.120003 C 49.134098 85.923050 48.570534 85.811684 48.000000 85.790001 C 47.718163 85.774521 47.439480 85.855652 47.209999 86.020004 C 47.013199 86.172058 46.904575 86.411781 46.919998 86.660004 C 46.912312 86.862022 46.976040 87.060295 47.099998 87.220001 C 47.307770 87.423737 47.552021 87.586571 47.820000 87.700005 L 48.470001 88.019997 C 48.826054 88.187546 49.161602 88.395592 49.470001 88.639999 C 49.698788 88.827263 49.883213 89.062912 50.010002 89.330002 C 50.129375 89.621704 50.187252 89.934906 50.180000 90.250000 C 50.210262 90.886475 49.935429 91.499283 49.439999 91.900002 C 48.864475 92.329575 48.157295 92.545265 47.439999 92.510002 C 47.060139 92.510231 46.681335 92.470001 46.309998 92.389999 C 45.980469 92.326210 45.660961 92.218590 45.359997 92.070000 L 45.360001 90.919998 C 45.687019 91.026825 46.021187 91.110367 46.360001 91.169998 C 46.689121 91.238113 47.023945 91.274940 47.360001 91.279999 C 47.673580 91.302475 47.985077 91.213982 48.240002 91.029999 C 48.446396 90.853905 48.557594 90.590736 48.540001 90.320000 C 48.546089 90.107033 48.471024 89.899704 48.330002 89.739998 C 48.122326 89.543411 47.882092 89.384384 47.620003 89.269997 Z" fill="#232F3E"/><path d=" M 12.530000 103.000000 C 12.034530 102.765594 11.597329 102.424026 11.250000 102.000000 C 10.991234 101.643089 10.857644 101.210678 10.870000 100.769997 C 10.858890 100.354126 10.977739 99.945145 11.210000 99.599998 C 11.435701 99.259720 11.755288 98.992241 12.130000 98.830002 C 12.551814 98.643929 13.009043 98.551804 13.470000 98.560005 C 14.119764 98.562088 14.762486 98.694710 15.360001 98.950005 L 15.360000 100.120003 C 14.808252 99.917831 14.227393 99.806381 13.639999 99.790001 C 13.358164 99.774521 13.079480 99.855652 12.849999 100.020004 C 12.653200 100.172058 12.544576 100.411781 12.559999 100.660004 C 12.552313 100.862022 12.616042 101.060295 12.740000 101.220001 C 12.947773 101.423737 13.192020 101.586571 13.460000 101.700005 L 14.110000 102.019997 C 14.467838 102.184235 14.803770 102.392517 15.110000 102.639999 C 15.345207 102.823380 15.533676 103.059822 15.660000 103.330002 C 15.779374 103.621704 15.837249 103.934906 15.830000 104.250000 C 15.860261 104.886475 15.585426 105.499283 15.090000 105.900002 C 14.514095 106.328819 13.807193 106.544426 13.090000 106.510002 C 12.706865 106.509674 12.324806 106.469460 11.950000 106.389999 C 11.604221 106.327065 11.268078 106.219498 10.950000 106.070000 L 10.950000 104.919998 C 11.277496 105.025146 11.611549 105.108665 11.950000 105.169998 C 12.279119 105.238113 12.613944 105.274940 12.950000 105.279999 C 13.263577 105.302475 13.575075 105.213982 13.830000 105.029999 C 14.036396 104.853905 14.147593 104.590736 14.130000 104.320000 C 14.136088 104.107033 14.061022 103.899704 13.920000 103.739998 C 13.712325 103.543411 13.472090 103.384384 13.210000 103.269997 Z" fill="#232F3E"/><path d=" M 20.059999 106.349998 L 20.059999 102.650002 C 20.076496 102.408363 20.028164 102.166710 19.920000 101.950005 C 19.804104 101.793236 19.613878 101.709541 19.420000 101.730003 C 19.127970 101.739677 18.844252 101.829636 18.600000 101.990005 L 18.600000 106.349998 L 17.000000 106.349998 L 17.000000 100.720001 L 18.299999 100.720001 L 18.440001 101.230003 C 18.974371 100.833908 19.615402 100.607452 20.280001 100.580002 C 20.681211 100.554985 21.072933 100.708748 21.350000 101.000000 C 21.612020 101.350540 21.739742 101.783371 21.710001 102.220001 L 21.709999 106.349998 Z" fill="#232F3E"/><path d=" M 25.340000 106.489998 C 24.640715 106.530975 23.961676 106.246811 23.500000 105.720001 C 22.620846 104.395988 22.620846 102.674019 23.500000 101.349998 C 23.961676 100.823181 24.640715 100.539017 25.340000 100.580002 C 26.038767 100.542046 26.716536 100.825676 27.180000 101.349998 C 28.046015 102.677948 28.046015 104.392044 27.180000 105.720001 C 26.716536 106.244324 26.038767 106.527962 25.340000 106.489998 Z M 25.340000 105.339996 C 25.624493 105.352325 25.883886 105.178047 25.980000 104.909996 C 26.246798 104.016144 26.246798 103.063843 25.980000 102.169998 C 25.887373 101.897995 25.627136 101.719078 25.340000 101.729996 C 25.051109 101.721107 24.789082 101.898483 24.690001 102.169998 C 24.434866 103.065514 24.434866 104.014481 24.690001 104.909996 C 24.792442 105.177567 25.053680 105.350380 25.340000 105.339996 Z" fill="#232F3E"/><path d=" M 33.000000 106.349998 L 32.209999 102.349998 L 31.440001 106.349998 L 29.900000 106.349998 L 28.350000 100.720001 L 30.059999 100.720001 L 30.770000 104.720001 L 31.540001 100.720001 L 33.000000 100.720001 L 33.820000 104.949997 L 34.470001 100.720001 L 36.139999 100.720001 L 34.570000 106.349998 Z" fill="#232F3E"/><path d=" M 43.000000 106.349998 L 43.000000 102.639999 C 43.016663 102.401566 42.968277 102.163086 42.860001 101.949997 C 42.758389 101.798111 42.582016 101.713760 42.400002 101.729996 C 42.114559 101.741776 41.837830 101.831711 41.600002 101.989998 C 41.604919 102.029846 41.604919 102.070152 41.600002 102.110001 L 41.599998 106.349998 L 40.000000 106.349998 L 40.000000 102.639999 C 40.019257 102.402504 39.974358 102.164200 39.869999 101.949997 C 39.765141 101.796478 39.585052 101.712181 39.399998 101.729996 C 39.121334 101.744865 38.851852 101.834694 38.619999 101.989998 L 38.619999 106.349998 L 36.930000 106.349998 L 36.930000 100.720001 L 38.279999 100.720001 L 38.410000 101.230003 C 38.935127 100.837898 39.565392 100.611557 40.220001 100.580002 C 40.717907 100.543671 41.189682 100.807076 41.420002 101.250000 C 41.950993 100.851845 42.587452 100.618820 43.250004 100.580002 C 43.628609 100.567619 43.993782 100.720993 44.250004 101.000000 C 44.510433 101.351334 44.637978 101.783562 44.610004 102.220001 L 44.610001 106.349998 Z" fill="#232F3E"/><path d=" M 48.279999 106.489998 C 47.578312 106.528084 46.897446 106.244698 46.430000 105.720001 C 45.563984 104.392052 45.563984 102.677956 46.430000 101.349998 C 47.441750 100.331032 49.087967 100.325180 50.106934 101.336929 C 50.111305 101.341270 50.115662 101.345627 50.120003 101.349998 C 50.986019 102.677948 50.986019 104.392044 50.120003 105.720001 C 49.656540 106.244324 48.978771 106.527962 48.280003 106.489998 Z M 48.279999 105.339996 C 48.563583 105.349129 48.821270 105.175995 48.919998 104.909996 C 49.186794 104.016144 49.186794 103.063843 48.919998 102.169998 C 48.824673 101.900047 48.566181 101.722336 48.279999 101.729996 C 47.991108 101.721107 47.729080 101.898483 47.629997 102.169998 C 47.363201 103.063850 47.363201 104.016151 47.629997 104.909996 C 47.732437 105.177567 47.993679 105.350380 48.279999 105.339996 Z" fill="#232F3E"/><path d=" M 51.930000 106.349998 L 51.930000 98.209999 L 53.580002 98.209999 L 53.580002 101.110001 C 53.754292 100.939362 53.961967 100.806580 54.190002 100.720001 C 54.413052 100.631737 54.650162 100.584312 54.890003 100.580002 C 55.488605 100.545181 56.062962 100.821022 56.410004 101.310005 C 56.797329 101.957367 56.978680 102.707191 56.930004 103.460007 C 56.976582 104.231071 56.788303 104.998138 56.390003 105.660004 C 56.053291 106.166458 55.477783 106.461784 54.870003 106.440002 C 54.605278 106.438156 54.343552 106.383774 54.100002 106.279999 C 53.849266 106.180046 53.621357 106.030373 53.430004 105.839996 L 53.290001 106.349998 Z M 54.349998 101.699997 C 54.072933 101.697105 53.802521 101.784897 53.579998 101.949997 L 53.580002 105.059998 C 53.808121 105.222778 54.079838 105.313354 54.360001 105.320000 C 54.660667 105.339958 54.942699 105.173119 55.070000 104.900002 C 55.238617 104.463989 55.310276 103.996498 55.279999 103.529999 C 55.312283 103.050362 55.240654 102.569412 55.070000 102.119995 C 54.939171 101.845284 54.653522 101.678658 54.349998 101.699997 Z" fill="#232F3E"/><path d=" M 58.939999 99.809998 C 58.683857 99.830612 58.429607 99.751831 58.230000 99.589996 C 58.071148 99.436157 57.987179 99.220757 58.000000 99.000000 C 57.989643 98.765633 58.089550 98.539917 58.270000 98.389999 C 58.690441 98.084755 59.259560 98.084755 59.680000 98.389999 C 59.854263 98.543686 59.949810 98.767853 59.939999 99.000000 C 59.946991 99.231628 59.851936 99.454643 59.680000 99.610001 C 59.469692 99.772316 59.203442 99.844276 58.939999 99.809998 Z M 58.110001 106.349998 L 58.110001 100.720001 L 59.759998 100.720001 L 59.759998 106.349998 Z" fill="#232F3E"/><path d=" M 63.610001 106.250000 C 63.289803 106.366165 62.950459 106.420456 62.610001 106.410004 C 62.214245 106.441948 61.823025 106.307922 61.529999 106.040001 C 61.270100 105.727486 61.144287 105.324898 61.180000 104.919998 L 61.180000 98.209999 L 62.830002 98.209999 L 62.830002 104.750000 C 62.817123 104.887192 62.841297 105.025330 62.900002 105.150002 C 62.980698 105.239822 63.100143 105.284615 63.220001 105.270004 C 63.336472 105.279564 63.453529 105.279564 63.570000 105.270004 Z" fill="#232F3E"/><path d=" M 65.720001 103.919998 C 65.708794 104.323456 65.835815 104.718628 66.080002 105.040001 C 66.375565 105.286263 66.756882 105.404976 67.139999 105.370003 C 67.369293 105.365166 67.597343 105.334984 67.820000 105.280006 C 68.094559 105.228943 68.365219 105.158775 68.629997 105.070007 L 68.629997 106.070000 C 68.367081 106.214767 68.083931 106.319267 67.790001 106.379997 C 67.461601 106.452568 67.126320 106.489449 66.790001 106.489998 C 65.070000 106.489998 64.209999 105.489998 64.209999 103.540001 C 64.156960 102.755630 64.379814 101.977402 64.839996 101.340004 C 65.297760 100.814682 65.974762 100.533524 66.669998 100.580002 C 68.029999 100.580002 68.669998 101.339996 68.669998 102.870003 C 68.669128 103.206871 68.628853 103.542488 68.549995 103.870003 Z M 66.639999 101.599998 C 66.059998 101.599998 65.750000 102.059998 65.720001 102.970001 L 67.339996 102.970001 L 67.339996 102.720001 C 67.360435 102.423340 67.301773 102.126572 67.169998 101.860001 C 67.052505 101.684830 66.850441 101.585701 66.639999 101.599998 Z" fill="#232F3E"/></g><g id="ICONS_-_EDIT"><path d=" M 50.500000 48.000000 L 38.500000 48.000000 L 38.500000 46.000000 L 49.500000 46.000000 L 49.500000 34.000000 L 24.500000 34.000000 L 24.500000 46.000000 L 26.500000 46.000000 L 26.500000 48.000000 L 23.500000 48.000000 C 22.947716 48.000000 22.500000 47.552284 22.500000 47.000000 L 22.500000 33.000000 C 22.500000 32.447716 22.947716 32.000000 23.500000 32.000000 L 50.500000 32.000000 C 51.052284 32.000000 51.500000 32.447716 51.500000 33.000000 L 51.500000 47.000000 C 51.500000 47.552284 51.052284 48.000000 50.500000 48.000000 Z" fill="#FFFFFF"/><rect x="31.500000" y="46.000000" width="1.000000" height="2.000000" fill="#FFFFFF"/><rect x="50.500000" y="45.000000" width="2.000000" height="2.000000" fill="#FFFFFF"/><path d=" M 59.500000 47.000000 L 57.500000 47.000000 L 57.500000 45.000000 L 58.500000 45.000000 L 58.500000 40.889999 C 58.488983 38.734474 56.735546 36.994457 54.580002 37.000000 L 49.500000 37.000000 L 49.500000 35.000000 L 54.580002 35.000000 C 57.840111 34.994465 60.488976 37.629906 60.500000 40.889999 L 60.500000 46.000000 C 60.500000 46.552284 60.052284 47.000000 59.500000 47.000000 Z" fill="#FFFFFF"/><path d=" M 29.500000 51.000000 C 27.290861 51.000000 25.500000 49.209141 25.500000 47.000000 C 25.500000 44.790859 27.290861 43.000000 29.500000 43.000000 C 31.709139 43.000000 33.500000 44.790859 33.500000 47.000000 C 33.500000 49.209141 31.709139 51.000000 29.500000 51.000000 Z M 29.500000 45.000000 C 28.395430 45.000000 27.500000 45.895432 27.500000 47.000000 C 27.500000 48.104568 28.395430 49.000000 29.500000 49.000000 C 30.604570 49.000000 31.500000 48.104568 31.500000 47.000000 C 31.500000 45.895432 30.604570 45.000000 29.500000 45.000000 Z" fill="#FFFFFF"/><path d=" M 35.500000 51.000000 C 33.290859 51.000000 31.500000 49.209141 31.500000 47.000000 C 31.500000 44.790859 33.290859 43.000000 35.500000 43.000000 C 37.709141 43.000000 39.500000 44.790859 39.500000 47.000000 C 39.500000 49.209141 37.709141 51.000000 35.500000 51.000000 Z M 35.500000 45.000000 C 34.395432 45.000000 33.500000 45.895432 33.500000 47.000000 C 33.500000 48.104568 34.395432 49.000000 35.500000 49.000000 C 36.604568 49.000000 37.500000 48.104568 37.500000 47.000000 C 37.500000 45.895432 36.604568 45.000000 35.500000 45.000000 Z" fill="#FFFFFF"/><path d=" M 54.500000 51.000000 C 52.290859 51.000000 50.500000 49.209141 50.500000 47.000000 C 50.500000 44.790859 52.290859 43.000000 54.500000 43.000000 C 56.709141 43.000000 58.500000 44.790859 58.500000 47.000000 C 58.500000 49.209141 56.709141 51.000000 54.500000 51.000000 Z M 54.500000 45.000000 C 53.395432 45.000000 52.500000 45.895432 52.500000 47.000000 C 52.500000 48.104568 53.395432 49.000000 54.500000 49.000000 C 55.604568 49.000000 56.500000 48.104568 56.500000 47.000000 C 56.500000 45.895432 55.604568 45.000000 54.500000 45.000000 Z" fill="#FFFFFF"/><rect x="17.500000" y="33.000000" width="3.000000" height="2.000000" fill="#FFFFFF"/><rect x="15.500000" y="38.000000" width="5.000000" height="2.000000" fill="#FFFFFF"/><rect x="16.500000" y="43.000000" width="4.000000" height="2.000000" fill="#FFFFFF"/><path d=" M 41.500000 64.000000 C 31.331930 63.996857 22.269356 57.586548 18.879999 48.000000 L 20.770000 47.330002 C 24.821785 58.784782 37.392338 64.786095 48.847118 60.734310 C 60.301899 56.682526 66.303207 44.111973 62.251427 32.657192 C 58.199642 21.202414 45.629089 15.201099 34.174309 19.252884 C 28.559946 21.238796 23.990520 25.415951 21.510000 30.830002 L 19.690001 30.000000 C 25.212849 17.950569 39.457996 12.659729 51.507427 18.182577 C 63.556858 23.705425 68.847694 37.950573 63.324848 50.000004 C 59.413692 58.533138 50.886776 64.002907 41.500000 64.000000 Z" fill="#FFFFFF"/></g></svg>