<svg version="1.1" width="80.000000" height="100.000000" viewBox="0.000000 0.000000 80.000000 100.000000" xmlns="http://www.w3.org/2000/svg" xmlns:xlink="http://www.w3.org/1999/xlink" overflow="hidden"><g id="CARDS"><rect x="1.000000" y="1.000000" width="78.000000" height="78.000000" fill="#232F3E"/><path d=" M 0.000000 0.000000 L 0.000000 80.000000 L 0.000000 80.000000 L 0.000000 100.000000 L 80.000000 100.000000 L 80.000000 80.000000 L 80.000000 80.000000 L 80.000000 0.000000 Z M 1.000000 1.000000 L 79.000000 1.000000 L 79.000000 79.000000 L 1.000000 79.000000 Z" fill="#FFFFFF"/></g><g id="TEXT_-_EDIT"><path d=" M 10.230000 92.349998 L 9.800000 90.529999 L 7.800000 90.529999 L 7.380000 92.349998 L 5.600000 92.349998 L 7.920000 84.720001 L 9.780000 84.720001 L 12.090000 92.349998 Z M 8.050000 89.430000 L 9.540000 89.430000 L 8.780000 86.269997 Z" fill="#232F3E"/><path d=" M 17.440001 92.349998 L 16.440001 86.720001 L 15.550000 92.349998 L 13.740000 92.349998 L 12.000000 84.720001 L 13.700000 84.720001 L 14.760000 90.779999 L 15.630000 85.000000 L 17.459999 85.000000 L 18.400000 90.650002 L 19.400000 84.650002 L 21.070000 84.650002 L 19.299999 92.349998 Z" fill="#232F3E"/><path d=" M 23.389999 89.000000 C 22.892723 88.768532 22.454912 88.426491 22.109999 88.000000 C 21.847675 87.644348 21.710535 87.211830 21.719999 86.769997 C 21.713390 86.354721 21.831856 85.947060 22.059999 85.599998 C 22.288212 85.261978 22.607065 84.995110 22.980000 84.830002 C 23.404984 84.642815 23.865711 84.550667 24.330000 84.560005 C 24.979568 84.563965 25.621923 84.696510 26.219999 84.950005 L 26.219999 86.120003 C 25.664803 85.917786 25.080648 85.806358 24.490000 85.790001 C 24.208347 85.776108 23.930176 85.857094 23.699999 86.020004 C 23.507278 86.175255 23.399664 86.412743 23.409998 86.660004 C 23.400494 86.863945 23.468353 87.063950 23.599998 87.220001 C 23.801878 87.426239 24.043386 87.589516 24.309998 87.700005 L 25.000000 88.000000 C 25.356050 88.167549 25.691599 88.375595 26.000000 88.620003 C 26.228786 88.807266 26.413212 89.042915 26.540001 89.310005 C 26.667578 89.599503 26.729067 89.913780 26.720001 90.230003 C 26.747864 90.868217 26.469170 91.481346 25.970001 91.880005 C 25.394478 92.309578 24.687298 92.525269 23.970001 92.490005 C 23.590174 92.489639 23.211433 92.449417 22.840002 92.370003 C 22.493343 92.310631 22.156729 92.202911 21.840002 92.050003 L 21.840000 90.919998 C 22.167017 91.026825 22.501186 91.110367 22.840000 91.169998 C 23.169298 91.236969 23.504017 91.273788 23.840000 91.279999 C 24.153755 91.304230 24.465845 91.215561 24.719999 91.029999 C 24.926395 90.853905 25.037592 90.590736 25.019999 90.320000 C 25.026087 90.107033 24.951021 89.899704 24.809999 89.739998 C 24.606230 89.543251 24.369240 89.384132 24.109999 89.269997 Z" fill="#232F3E"/><path d=" M 31.780001 89.000000 C 31.285400 88.768761 30.850801 88.426559 30.510000 88.000000 C 30.247677 87.644348 30.110537 87.211830 30.120001 86.769997 C 30.108891 86.354126 30.227741 85.945145 30.460001 85.599998 C 30.685703 85.259720 31.005289 84.992241 31.380001 84.830002 C 31.801815 84.643929 32.259045 84.551804 32.720001 84.560005 C 33.369766 84.562088 34.012486 84.694710 34.610001 84.950005 L 34.610001 86.120003 C 34.058254 85.917831 33.477394 85.806381 32.889999 85.790001 C 32.608349 85.776108 32.330177 85.857094 32.099998 86.020004 C 31.903200 86.172058 31.794575 86.411781 31.809998 86.660004 C 31.802311 86.862022 31.866041 87.060295 31.989998 87.220001 C 32.197769 87.423737 32.442020 87.586571 32.709999 87.700005 L 33.360001 88.019997 C 33.716053 88.187546 34.051601 88.395592 34.360001 88.639999 C 34.588787 88.827263 34.773212 89.062912 34.900002 89.330002 C 35.019375 89.621704 35.077251 89.934906 35.070000 90.250000 C 35.100262 90.886475 34.825428 91.499283 34.329998 91.900002 C 33.754475 92.329575 33.047295 92.545265 32.329998 92.510002 C 31.950140 92.510231 31.571337 92.470001 31.199999 92.389999 C 30.870468 92.326210 30.550962 92.218590 30.249998 92.070000 L 30.250000 90.919998 C 30.577017 91.026825 30.911186 91.110367 31.250000 91.169998 C 31.579119 91.238113 31.913944 91.274940 32.250000 91.279999 C 32.563755 91.304230 32.875843 91.215561 33.130001 91.029999 C 33.336395 90.853905 33.447594 90.590736 33.430000 90.320000 C 33.436089 90.107033 33.361023 89.899704 33.220001 89.739998 C 33.012325 89.543411 32.772091 89.384384 32.510002 89.269997 Z" fill="#232F3E"/><path d=" M 39.310001 92.349998 L 39.310001 88.650002 C 39.331223 88.408081 39.282635 88.165154 39.170002 87.950005 C 39.057308 87.794876 38.870811 87.711143 38.680000 87.730003 C 38.387791 87.738640 38.103798 87.828682 37.860001 87.990005 L 37.860001 92.349998 L 36.209999 92.349998 L 36.209999 86.720001 L 37.560001 86.720001 L 37.689999 87.230003 C 38.224369 86.833908 38.865398 86.607452 39.529999 86.580002 C 39.931431 86.553581 40.323727 86.707565 40.599998 87.000000 C 40.876293 87.345016 41.018379 87.778374 41.000000 88.220001 L 41.000000 92.349998 Z" fill="#232F3E"/><path d=" M 44.590000 92.489998 C 43.891232 92.527954 43.213463 92.244324 42.750000 91.720001 C 41.883984 90.392052 41.883984 88.677956 42.750000 87.349998 C 43.748825 86.333794 45.382332 86.319710 46.398537 87.318535 C 46.409115 87.328934 46.419605 87.339424 46.430000 87.349998 C 47.296017 88.677948 47.296017 90.392044 46.430000 91.720001 C 45.968323 92.246819 45.289288 92.530983 44.590000 92.489998 Z M 44.590000 91.339996 C 44.874493 91.352325 45.133888 91.178047 45.230000 90.909996 C 45.496796 90.016144 45.496796 89.063843 45.230000 88.169998 C 45.087578 87.816536 44.685585 87.645454 44.332123 87.787872 C 44.158092 87.857994 44.020123 87.995964 43.949997 88.169998 C 43.683201 89.063850 43.683201 90.016151 43.949997 90.909996 C 44.046108 91.178047 44.305504 91.352325 44.589996 91.339996 Z" fill="#232F3E"/><path d=" M 52.279999 92.349998 L 51.480000 88.349998 L 50.709999 92.349998 L 49.160000 92.349998 L 47.599998 86.720001 L 49.310001 86.720001 L 50.020000 90.720001 L 50.790001 86.720001 L 52.259998 86.720001 L 53.080002 91.000000 L 53.730000 86.769997 L 55.400002 86.769997 L 53.830002 92.400002 Z" fill="#232F3E"/><path d=" M 56.180000 92.349998 L 56.180000 84.209999 L 57.830002 84.209999 L 57.830002 87.110001 C 58.005985 86.941505 58.213203 86.809021 58.440002 86.720001 C 58.663052 86.631737 58.900162 86.584312 59.140003 86.580002 C 59.738991 86.543228 60.314243 86.819504 60.660004 87.310005 C 61.051552 87.955635 61.233231 88.706802 61.180004 89.460007 C 61.226582 90.231071 61.038303 90.998138 60.640003 91.660004 C 60.307407 92.171043 59.729111 92.467804 59.120003 92.440002 C 58.855278 92.438156 58.593552 92.383774 58.350002 92.279999 C 58.100925 92.182495 57.875805 92.032417 57.690002 91.839996 L 57.540001 92.349998 Z M 58.599998 87.699997 C 58.322933 87.697105 58.052521 87.784897 57.829998 87.949997 L 57.830002 91.059998 C 58.058674 91.221687 58.330051 91.312141 58.610001 91.320000 C 58.910667 91.339958 59.192699 91.173119 59.320000 90.900002 C 59.488617 90.463989 59.560276 89.996498 59.529999 89.529999 C 59.562283 89.050362 59.490654 88.569412 59.320000 88.119995 C 59.189171 87.845284 58.903522 87.678658 58.599998 87.699997 Z" fill="#232F3E"/><path d=" M 65.230003 92.349998 L 65.080002 91.839996 C 64.929306 92.046989 64.725441 92.209389 64.490005 92.309998 C 64.247047 92.428444 63.980301 92.489998 63.710007 92.489998 C 63.264755 92.502617 62.835346 92.324303 62.530006 92.000000 C 61.919273 91.252548 61.962181 90.166916 62.630005 89.470001 C 63.027279 89.133095 63.540321 88.964470 64.060005 89.000000 C 64.374031 89.006668 64.686188 89.050301 64.990005 89.129997 L 64.989998 88.620003 C 65.015198 88.348686 64.955811 88.076225 64.820000 87.840004 C 64.659996 87.686920 64.439850 87.613541 64.220001 87.640007 C 63.612171 87.664215 63.011745 87.782272 62.440002 87.990005 L 62.439999 87.000000 C 62.727074 86.841576 63.037678 86.730164 63.359997 86.669998 C 63.741398 86.589516 64.130196 86.549301 64.519997 86.549995 C 65.051430 86.516808 65.576981 86.676598 66.000000 86.999992 C 66.344772 87.376846 66.515320 87.881233 66.470001 88.389992 L 66.470001 92.330002 Z M 64.230003 91.430000 C 64.531387 91.418922 64.817322 91.293823 65.030006 91.080002 L 65.029999 90.000000 C 64.824059 89.948677 64.612183 89.925140 64.400002 89.930000 C 64.199455 89.914780 64.002251 89.987816 63.860001 90.129997 C 63.728241 90.297188 63.664005 90.507729 63.680000 90.719994 C 63.669712 90.905304 63.722591 91.088631 63.830002 91.239990 C 63.914928 91.354698 64.047379 91.424606 64.190002 91.429993 Z" fill="#232F3E"/><path d=" M 70.300003 92.250000 C 69.979805 92.366165 69.640457 92.420456 69.300003 92.410004 C 68.911446 92.423676 68.534698 92.275154 68.260002 92.000000 C 67.996513 91.689018 67.867058 91.286263 67.900002 90.879997 L 67.900002 84.209999 L 69.550003 84.209999 L 69.550003 90.750000 C 69.539200 90.888161 69.566895 91.026619 69.630005 91.150002 C 69.709679 91.241310 69.829941 91.286407 69.950005 91.270004 C 70.066475 91.279564 70.183533 91.279564 70.300003 91.270004 Z" fill="#232F3E"/><path d=" M 73.709999 92.250000 C 73.389801 92.366165 73.050453 92.420456 72.709999 92.410004 C 72.321442 92.423676 71.944695 92.275154 71.669998 92.000000 C 71.406509 91.689018 71.277054 91.286263 71.309998 90.879997 L 71.309998 84.209999 L 73.000000 84.209999 L 73.000000 90.750000 C 72.989197 90.888161 73.016891 91.026619 73.080002 91.150002 C 73.159676 91.241310 73.279938 91.286407 73.400002 91.270004 C 73.516495 91.279053 73.633507 91.279053 73.750000 91.270004 Z" fill="#232F3E"/></g><g id="ICONS_-_EDIT"><path d=" M 57.820000 55.500000 L 22.180000 55.500000 C 20.426014 55.494511 19.005489 54.073986 19.000000 52.320000 L 19.000000 27.680000 C 19.005489 25.926014 20.426014 24.505489 22.180000 24.500000 L 32.000000 24.500000 C 32.448151 24.476608 32.857006 24.754629 33.000000 25.180000 L 34.130001 28.500000 L 45.910000 28.500000 L 47.049999 25.180000 C 47.192993 24.754629 47.601849 24.476608 48.049999 24.500000 L 57.880001 24.500000 C 59.611187 24.527309 61.000217 25.938599 61.000000 27.670000 L 61.000000 52.320000 C 60.994511 54.073986 59.573986 55.494511 57.820000 55.500000 Z M 22.180000 26.500000 C 21.528305 26.500000 21.000000 27.028303 21.000000 27.680000 L 21.000000 52.320000 C 21.000000 52.971695 21.528303 53.500000 22.180000 53.500000 L 57.820000 53.500000 C 58.471695 53.500000 59.000000 52.971695 59.000000 52.320000 L 59.000000 27.670000 C 58.994564 27.026091 58.473907 26.505434 57.830002 26.500000 L 48.709999 26.500000 L 47.570000 29.820000 C 47.433613 30.223837 47.056236 30.496834 46.630001 30.500000 L 33.369999 30.500000 C 32.940083 30.501110 32.557571 30.227312 32.419998 29.820000 L 31.290001 26.500000 Z" fill="#FFFFFF"/><path d=" M 59.619999 59.500000 L 20.379999 59.500000 C 17.380169 59.456123 14.977699 57.000069 14.999999 54.000000 L 15.000000 26.000000 C 14.955499 22.984854 17.363682 20.504519 20.378828 20.460016 C 20.379219 20.460011 20.379610 20.460005 20.379999 20.459999 L 59.619999 20.459999 C 62.635155 20.503853 65.043869 22.983671 65.000015 25.998827 C 65.000008 25.999218 65.000008 25.999609 65.000000 25.999998 L 65.000000 54.000000 C 65.022301 57.000069 62.619831 59.456123 59.619999 59.500000 Z M 20.379999 22.500000 C 18.487093 22.549036 16.982994 24.106535 17.000000 26.000000 L 17.000000 54.000000 C 16.960852 55.908951 18.471279 57.490879 20.379999 57.540001 L 59.619999 57.540001 C 61.528721 57.490879 63.039146 55.908951 63.000000 54.000000 L 63.000000 26.000000 C 63.039150 24.091049 61.528721 22.509121 59.619999 22.459999 Z" fill="#FFFFFF"/><path d=" M 53.000000 48.500000 L 27.000000 48.500000 C 26.447716 48.500000 26.000000 48.052284 26.000000 47.500000 L 26.000000 34.500000 C 26.000000 33.947716 26.447716 33.500000 27.000000 33.500000 L 53.000000 33.500000 C 53.552284 33.500000 54.000000 33.947716 54.000000 34.500000 L 54.000000 47.500000 C 54.000000 48.052284 53.552284 48.500000 53.000000 48.500000 Z M 28.000000 46.500000 L 52.000000 46.500000 L 52.000000 35.500000 L 28.000000 35.500000 Z" fill="#FFFFFF"/><rect x="36.000000" y="24.500000" width="8.000000" height="2.000000" fill="#FFFFFF"/></g></svg>