<svg version="1.1" width="80.000000" height="115.000000" viewBox="0.000000 0.000000 80.000000 115.000000" xmlns="http://www.w3.org/2000/svg" xmlns:xlink="http://www.w3.org/1999/xlink" overflow="hidden"><g id="CARDS"><rect x="1.000000" y="1.000000" width="78.000000" height="78.000000" fill="#232F3E"/><path d=" M 0.000000 0.000000 L 0.000000 80.000000 L 0.000000 80.000000 L 0.000000 115.000000 L 80.000000 115.000000 L 80.000000 80.000000 L 80.000000 80.000000 L 80.000000 0.000000 Z M 1.000000 1.000000 L 79.000000 1.000000 L 79.000000 79.000000 L 1.000000 79.000000 Z" fill="#FFFFFF"/></g><g id="TEXT_-_EDIT"><path d=" M 25.350000 92.349998 L 24.920000 90.529999 L 22.920000 90.529999 L 22.500000 92.349998 L 20.719999 92.349998 L 23.000000 84.720001 L 24.900000 84.720001 L 27.209999 92.349998 Z M 23.170000 89.430000 L 24.660000 89.430000 L 23.900000 86.269997 Z" fill="#232F3E"/><path d=" M 34.060001 92.349998 L 34.060001 88.639999 C 34.076664 88.401566 34.028278 88.163086 33.920002 87.949997 C 33.819908 87.796371 33.642418 87.711487 33.460003 87.729996 C 33.174831 87.743271 32.898491 87.833084 32.660004 87.989998 C 32.664822 88.029854 32.664822 88.070145 32.660004 88.110001 L 32.660000 92.349998 L 31.000000 92.349998 L 31.000000 88.639999 C 31.019257 88.402504 30.974358 88.164200 30.870001 87.949997 C 30.765142 87.796478 30.585056 87.712181 30.400002 87.729996 C 30.121338 87.744865 29.851856 87.834694 29.620001 87.989998 L 29.620001 92.349998 L 28.000000 92.349998 L 28.000000 86.720001 L 29.350000 86.720001 L 29.480000 87.230003 C 30.005705 86.838974 30.635632 86.612755 31.289999 86.580002 C 31.787903 86.543671 32.259682 86.807076 32.489998 87.250000 C 33.020988 86.851845 33.657448 86.618820 34.320000 86.580002 C 34.698605 86.567619 35.063778 86.720993 35.320000 87.000000 C 35.580429 87.351334 35.707973 87.783562 35.680000 88.220001 L 35.680000 92.349998 Z" fill="#232F3E"/><path d=" M 40.000000 92.349998 L 39.860001 91.839996 C 39.704742 92.042564 39.502155 92.203949 39.270000 92.309998 C 39.023094 92.427322 38.753361 92.488777 38.480000 92.489998 C 38.038441 92.498497 37.613724 92.320625 37.310001 92.000000 C 37.006588 91.668808 36.851307 91.228241 36.880001 90.779999 C 36.856857 90.286880 37.050484 89.808296 37.410000 89.470001 C 37.807274 89.133095 38.320316 88.964470 38.840000 89.000000 C 39.154030 89.006668 39.466179 89.050301 39.770000 89.129997 L 39.770000 88.620003 C 39.797573 88.349762 39.741737 88.077560 39.610001 87.840004 C 39.445477 87.687714 39.222755 87.614693 39.000000 87.640007 C 38.395546 87.665237 37.798565 87.783279 37.230000 87.990005 L 37.230000 87.000000 C 37.516563 86.840446 37.827354 86.728966 38.149998 86.669998 C 38.528015 86.589485 38.913502 86.549255 39.299999 86.549995 C 39.843796 86.502090 40.385880 86.659012 40.820000 86.989998 C 41.164772 87.366852 41.335323 87.871239 41.290001 88.379997 L 41.290001 92.320000 Z M 39.000000 91.430000 C 39.298344 91.418404 39.580971 91.293190 39.790001 91.080002 L 39.790001 90.000000 C 39.587475 89.948616 39.378887 89.925064 39.170002 89.930000 C 38.969070 89.911972 38.770714 89.985435 38.630001 90.129997 C 38.490948 90.293694 38.422604 90.505920 38.440002 90.719994 C 38.429714 90.905304 38.482594 91.088631 38.590004 91.239990 C 38.687565 91.366325 38.840549 91.437218 39.000004 91.429993 Z" fill="#232F3E"/><path d=" M 42.279999 92.349998 L 42.279999 91.279999 L 44.770000 87.879997 L 42.369999 87.879997 L 42.369999 86.720001 L 46.509998 86.720001 L 46.509998 87.790001 L 44.000000 91.190002 L 46.540001 91.190002 L 46.540001 92.349998 Z" fill="#232F3E"/><path d=" M 49.790001 92.489998 C 49.108715 92.511253 48.453094 92.229225 48.000000 91.720001 C 47.133984 90.392052 47.133984 88.677956 48.000000 87.349998 C 49.011749 86.331032 50.657967 86.325180 51.676933 87.336929 C 51.681305 87.341270 51.685661 87.345627 51.690002 87.349998 C 52.556019 88.677948 52.556019 90.392044 51.690002 91.720001 C 51.211487 92.259041 50.508781 92.543823 49.790001 92.489998 Z M 49.790001 91.339996 C 50.076321 91.350388 50.337559 91.177567 50.440002 90.909996 C 50.706799 90.016144 50.706799 89.063843 50.440002 88.169998 C 50.304638 87.813774 49.906124 87.634735 49.549900 87.770103 C 49.365585 87.840141 49.220043 87.985687 49.150002 88.169998 C 48.883205 89.063850 48.883205 90.016151 49.150002 90.909996 C 49.248730 91.175995 49.506416 91.349129 49.790001 91.339996 Z" fill="#232F3E"/><path d=" M 56.549999 92.349998 L 56.549999 88.650002 C 56.566494 88.408363 56.518166 88.166710 56.410000 87.950005 C 56.294102 87.793236 56.103878 87.709541 55.910000 87.730003 C 55.621128 87.739960 55.340698 87.829971 55.099998 87.990005 L 55.099998 92.349998 L 53.439999 92.349998 L 53.439999 86.720001 L 54.790001 86.720001 L 54.930000 87.230003 C 55.464371 86.833908 56.105400 86.607452 56.770000 86.580002 C 57.171432 86.553581 57.563728 86.707565 57.840000 87.000000 C 58.102020 87.350540 58.229740 87.783371 58.200001 88.220001 L 58.200001 92.349998 Z" fill="#232F3E"/><path d=" M 9.410000 106.349998 L 9.000000 104.529999 L 7.000000 104.529999 L 6.580000 106.349998 L 4.790000 106.349998 L 7.100000 98.720001 L 9.000000 98.720001 L 11.300000 106.349998 Z M 7.230000 103.430000 L 8.730000 103.430000 L 8.000000 100.269997 Z" fill="#232F3E"/><path d=" M 12.050000 108.610001 L 12.050000 100.720001 L 13.400000 100.720001 L 13.520000 101.199997 C 13.729096 101.010376 13.969269 100.858154 14.230000 100.750000 C 14.476889 100.644447 14.741581 100.586761 15.010000 100.580002 C 15.609722 100.551254 16.182724 100.830215 16.530001 101.320000 C 16.917719 101.963524 17.099180 102.710312 17.050001 103.459999 C 17.095497 104.232277 16.903570 104.999985 16.500002 105.659996 C 16.166517 106.164848 15.594716 106.460220 14.990002 106.439995 C 14.755037 106.437447 14.522031 106.396919 14.300002 106.319992 C 14.081119 106.239212 13.878057 106.120766 13.700002 105.969994 L 13.700000 108.610001 Z M 14.470000 101.699997 C 14.192934 101.697105 13.922523 101.784897 13.700000 101.949997 L 13.700000 105.059998 C 13.928672 105.221687 14.200049 105.312141 14.480000 105.320000 C 14.780667 105.339958 15.062699 105.173119 15.190000 104.900002 C 15.358618 104.463989 15.430278 103.996498 15.400000 103.529999 C 15.432285 103.050362 15.360654 102.569412 15.190000 102.119995 C 15.059172 101.845284 14.773523 101.678658 14.469999 101.699997 Z" fill="#232F3E"/><path d=" M 18.190001 108.610001 L 18.190001 100.720001 L 19.540001 100.720001 L 19.660000 101.199997 C 19.871088 101.008057 20.114967 100.855629 20.379999 100.750000 C 20.626505 100.643257 20.891432 100.585518 21.160000 100.580002 C 21.757027 100.550934 22.327183 100.830345 22.670000 101.320000 C 23.057718 101.963524 23.239180 102.710312 23.190001 103.459999 C 23.233461 104.230782 23.045404 104.996941 22.650000 105.659996 C 22.311962 106.164963 21.737347 106.459831 21.129999 106.439995 C 20.898230 106.438164 20.668396 106.397598 20.449999 106.319992 C 20.228733 106.244347 20.024761 106.125359 19.849998 105.969994 L 19.850000 108.610001 Z M 20.620001 101.699997 C 20.342936 101.697105 20.072523 101.784897 19.850000 101.949997 L 19.850000 105.059998 C 20.077250 105.224480 20.349512 105.315231 20.630001 105.320000 C 20.927824 105.338585 21.206245 105.171532 21.330002 104.900002 C 21.498619 104.463989 21.570280 103.996498 21.540001 103.529999 C 21.572287 103.050362 21.500654 102.569412 21.330002 102.119995 C 21.202702 101.846878 20.920670 101.680038 20.620003 101.699997 Z" fill="#232F3E"/><path d=" M 25.770000 103.000000 C 25.275400 102.768761 24.840801 102.426559 24.500000 102.000000 C 24.237677 101.644348 24.100536 101.211830 24.110001 100.769997 C 24.098890 100.354126 24.217741 99.945145 24.450001 99.599998 C 24.675703 99.259720 24.995289 98.992241 25.370001 98.830002 C 25.791815 98.643929 26.249043 98.551804 26.710001 98.560005 C 27.363209 98.577850 28.006075 98.727516 28.600000 99.000008 L 28.600000 100.169998 C 28.048254 99.967827 27.467394 99.856377 26.880001 99.839996 C 26.598166 99.824516 26.319483 99.905647 26.090000 100.070000 C 25.893202 100.222054 25.784576 100.461777 25.799999 100.709999 C 25.792313 100.912018 25.856043 101.110291 25.980000 101.269997 C 26.187773 101.473732 26.432020 101.636566 26.699999 101.750000 L 27.350000 102.070000 C 27.706051 102.237549 28.041599 102.445595 28.350000 102.690002 C 28.578787 102.877266 28.763212 103.112915 28.890001 103.380005 C 29.009377 103.671707 29.067249 103.984909 29.060001 104.300003 C 29.090263 104.936478 28.815428 105.549286 28.320002 105.950005 C 27.744478 106.379578 27.037298 106.595268 26.320002 106.560005 C 25.940144 106.560234 25.561340 106.520004 25.190002 106.440002 C 24.844057 106.377739 24.507828 106.270142 24.190002 106.120003 L 24.190001 104.970001 C 24.517496 105.075150 24.851549 105.158669 25.190001 105.220001 C 25.519119 105.288116 25.853945 105.324944 26.190001 105.330002 C 26.489311 105.313698 26.774511 105.197502 27.000000 105.000000 C 27.206396 104.823906 27.317593 104.560738 27.299999 104.290001 C 27.306087 104.077034 27.231022 103.869705 27.090000 103.709999 C 26.882324 103.513412 26.642090 103.354385 26.380001 103.239998 Z" fill="#232F3E"/><path d=" M 33.230000 106.199997 C 32.836689 106.347153 32.419933 106.421692 32.000000 106.419998 C 31.202198 106.570419 30.433510 106.045616 30.283087 105.247818 C 30.250221 105.073509 30.249174 104.894684 30.280001 104.720001 L 30.280001 101.820000 L 29.540001 101.820000 L 29.540001 100.900002 L 30.330000 100.750000 L 30.570000 99.209999 L 31.930000 99.209999 L 31.930000 100.720001 L 33.209999 100.720001 L 33.209999 101.820000 L 31.930000 101.820000 L 31.930000 104.589996 C 31.914326 104.774376 31.963873 104.958412 32.070000 105.109993 C 32.217175 105.233894 32.408852 105.291756 32.599998 105.269997 C 32.812317 105.266800 33.023621 105.239967 33.230000 105.189995 Z" fill="#232F3E"/><path d=" M 34.110001 106.349998 L 34.110001 100.720001 L 35.459999 100.720001 L 35.639999 101.449997 C 35.840946 101.209991 36.085178 101.009857 36.360001 100.860001 C 36.588909 100.731735 36.847633 100.666191 37.110001 100.669998 C 37.239811 100.660080 37.370190 100.660080 37.500000 100.669998 L 37.500000 102.000000 C 37.286884 101.986336 37.073116 101.986336 36.860001 102.000000 C 36.478165 102.000481 36.101643 102.089478 35.760002 102.260002 L 35.759998 106.370003 Z" fill="#232F3E"/><path d=" M 39.459999 103.919998 C 39.439251 104.324760 39.567299 104.723129 39.820000 105.040001 C 40.115566 105.286263 40.496880 105.404976 40.880001 105.370003 C 41.109203 105.363998 41.337132 105.333832 41.560001 105.280006 C 41.831528 105.230042 42.098942 105.159843 42.360001 105.070007 L 42.360001 106.070000 C 42.101761 106.217194 41.821507 106.321869 41.529999 106.379997 C 41.201473 106.451813 40.866276 106.488686 40.529999 106.489998 C 38.810001 106.489998 37.950001 105.489998 37.950001 103.540001 C 37.899845 102.754425 38.126274 101.976082 38.590000 101.340004 C 39.044651 100.816292 39.717926 100.535149 40.410000 100.580002 C 41.779999 100.580002 42.410000 101.339996 42.410000 102.870003 C 42.409126 103.206871 42.368855 103.542488 42.290001 103.870003 Z M 40.369999 101.599998 C 39.799999 101.599998 39.490002 102.059998 39.459999 102.970001 L 41.070000 102.970001 L 41.070000 102.720001 C 41.095039 102.423065 41.036133 102.125076 40.900002 101.860001 C 40.782513 101.684830 40.580444 101.585701 40.370003 101.599998 Z" fill="#232F3E"/><path d=" M 46.509998 106.349998 L 46.360001 105.839996 C 46.209305 106.046989 46.005444 106.209389 45.770000 106.309998 C 45.526253 106.426201 45.260021 106.487640 44.990002 106.489998 C 44.550823 106.513031 44.122322 106.349617 43.810001 106.040001 C 43.503971 105.709824 43.345169 105.269508 43.370003 104.820000 C 43.346859 104.326881 43.540485 103.848297 43.900002 103.510002 C 44.303867 103.177910 44.817989 103.010109 45.340000 103.040001 C 45.654030 103.046669 45.966179 103.090302 46.270000 103.169998 L 46.270000 102.660004 C 46.295197 102.388687 46.235813 102.116226 46.100002 101.880005 C 45.935478 101.727715 45.712757 101.654694 45.490002 101.680008 C 44.885548 101.705238 44.288567 101.823280 43.720001 102.030006 L 43.720001 101.029999 C 44.007076 100.871574 44.317680 100.760162 44.639999 100.699997 C 45.021400 100.619514 45.410198 100.579300 45.799999 100.579994 C 46.340549 100.533653 46.878952 100.690544 47.309998 101.019997 C 47.659229 101.394203 47.830471 101.900635 47.779999 102.409996 L 47.779999 106.349998 Z M 45.509998 105.430000 C 45.810932 105.416977 46.096191 105.292175 46.309998 105.080002 L 46.310001 104.000000 C 46.104061 103.948677 45.892181 103.925140 45.680000 103.930000 C 45.479454 103.914780 45.282249 103.987816 45.139999 104.129997 C 45.008240 104.297188 44.944004 104.507729 44.959999 104.719994 C 44.949711 104.905304 45.002590 105.088631 45.110001 105.239990 C 45.194927 105.354698 45.327377 105.424606 45.470001 105.429993 Z" fill="#232F3E"/><path d=" M 55.250000 106.349998 L 55.250000 102.639999 C 55.271564 102.401268 55.222904 102.161446 55.110001 101.949997 C 55.009907 101.796371 54.832417 101.711487 54.650002 101.729996 C 54.367714 101.742058 54.094276 101.832047 53.860001 101.989998 C 53.860001 101.989998 53.860001 102.070000 53.860001 102.110001 L 53.860001 106.349998 L 52.220001 106.349998 L 52.220001 102.639999 C 52.236664 102.401566 52.188278 102.163086 52.080002 101.949997 C 51.976635 101.794739 51.795441 101.709923 51.610001 101.729996 C 51.331337 101.744865 51.061855 101.834694 50.830002 101.989998 L 50.830002 106.349998 L 49.180000 106.349998 L 49.180000 100.720001 L 50.529999 100.720001 L 50.660000 101.230003 C 51.186558 100.840569 51.815987 100.614525 52.470001 100.580002 C 52.967907 100.543671 53.439682 100.807076 53.670002 101.250000 C 54.204075 100.850533 54.844116 100.617470 55.510002 100.580002 C 55.889107 100.564880 56.255390 100.718712 56.510002 101.000000 C 56.770432 101.351334 56.897976 101.783562 56.870003 102.220001 L 56.869999 106.349998 Z" fill="#232F3E"/><path d=" M 60.880001 99.279999 C 61.247200 99.051636 61.639874 98.867043 62.049999 98.729996 C 62.416340 98.618439 62.797050 98.561165 63.180000 98.559998 C 64.230766 98.467072 65.157906 99.243553 65.250832 100.294312 C 65.261002 100.409325 65.260727 100.525032 65.250000 100.639999 C 65.241257 100.983315 65.170097 101.322166 65.040001 101.639999 C 64.826797 102.101875 64.561760 102.538017 64.250000 102.940002 C 63.856667 103.459999 63.276669 104.169998 62.509998 105.070000 L 65.510002 105.070000 L 65.510002 106.320000 L 60.709999 106.320000 L 60.709999 105.220001 C 61.470001 104.320000 62.040001 103.610001 62.439999 103.070000 C 62.767040 102.652603 63.051773 102.203735 63.289997 101.730003 C 63.450668 101.403053 63.536091 101.044281 63.539997 100.680000 C 63.557465 100.453651 63.489697 100.228951 63.349998 100.050003 C 63.206818 99.894859 63.000492 99.813805 62.789997 99.830002 C 62.103973 99.889153 61.445431 100.127052 60.879997 100.520004 Z" fill="#232F3E"/><path d=" M 67.480003 106.489998 C 67.216408 106.504982 66.957588 106.415108 66.760002 106.239998 C 66.410423 105.857887 66.410423 105.272110 66.760002 104.889999 C 67.181900 104.556007 67.778099 104.556007 68.200005 104.889999 C 68.549583 105.272110 68.549583 105.857887 68.200005 106.239998 C 68.002419 106.415108 67.743599 106.504982 67.480003 106.489998 Z" fill="#232F3E"/><path d=" M 71.900002 106.489998 C 71.127098 106.524574 70.394722 106.143135 69.980003 105.489998 C 69.086166 103.617882 69.086166 101.442116 69.980003 99.570000 C 70.724434 98.506851 72.189774 98.248482 73.252922 98.992912 C 73.477470 99.150146 73.672775 99.345451 73.830009 99.570000 C 74.705513 101.446228 74.705513 103.613777 73.830009 105.489998 C 73.413483 106.146332 72.676414 106.528236 71.900009 106.489998 Z M 71.900002 105.269997 C 72.107384 105.280678 72.306351 105.186829 72.430000 105.019997 C 72.595352 104.768631 72.695053 104.479836 72.720001 104.180000 C 72.789665 103.629532 72.819740 103.074776 72.809998 102.519997 C 72.818375 101.981873 72.788300 101.443832 72.720001 100.909996 C 72.696480 100.605125 72.600487 100.310280 72.440002 100.049995 C 72.320282 99.870987 72.115044 99.768364 71.900002 99.779999 C 71.692970 99.771095 71.494804 99.864571 71.370003 100.029999 C 71.210121 100.279564 71.113968 100.564583 71.090004 100.860001 C 71.020683 101.410500 70.990608 101.965233 71.000008 102.520004 C 70.993950 103.057800 71.020668 103.595459 71.080009 104.130005 C 71.106682 104.437378 71.202400 104.734772 71.360008 105.000008 C 71.482353 105.176010 71.685799 105.277733 71.900009 105.270004 Z" fill="#232F3E"/></g><g id="ICONS_-_EDIT"><path d=" M 63.000000 64.000000 C 62.745998 63.996426 62.502876 63.896317 62.320000 63.720001 L 45.080002 46.439999 L 46.439999 45.080002 L 62.080002 60.720001 L 62.080002 17.920000 L 19.280001 17.920000 L 34.919998 33.560001 L 33.560001 34.919998 L 16.280001 17.639999 C 16.012722 17.360121 15.930928 16.951149 16.070002 16.590000 C 16.234016 16.224960 16.599871 15.992860 17.000002 16.000000 L 63.000000 16.000000 C 63.552284 16.000000 64.000000 16.447716 64.000000 17.000000 L 64.000000 63.000000 C 63.991440 63.385628 63.761852 63.731949 63.410000 63.889999 C 63.282780 63.955585 63.142963 63.993095 63.000000 64.000000 Z" fill="#FFFFFF"/><path d=" M 41.000000 64.000000 C 40.745998 63.996426 40.502876 63.896317 40.320000 63.720001 L 16.320000 39.720001 C 16.072126 39.450291 15.991560 39.066639 16.110001 38.720001 C 16.268051 38.368149 16.614374 38.138561 17.000000 38.130001 L 41.000000 38.130001 C 41.552284 38.130001 42.000000 38.577717 42.000000 39.130001 L 42.000000 63.000000 C 41.991440 63.385628 41.761852 63.731949 41.410000 63.889999 C 41.282780 63.955585 41.142963 63.993095 41.000000 64.000000 Z M 19.280001 40.000000 L 40.000000 60.720001 L 40.000000 40.000000 Z" fill="#FFFFFF"/></g></svg>