<svg id="Product_Icon" data-name="Product Icon" xmlns="http://www.w3.org/2000/svg" xmlns:xlink="http://www.w3.org/1999/xlink" width="75" height="75" viewBox="0 0 75 75"><defs><linearGradient id="BlueGradient" x1="112.5" y1="37.5" x2="-37.5" y2="37.5" gradientTransform="translate(90.53 37.5) rotate(135)" gradientUnits="userSpaceOnUse"><stop offset="0" stop-color="#2e27ad"/><stop offset="1" stop-color="#527fff"/></linearGradient></defs><title>AWS-CodeCommit</title><rect id="Blue_Gradient" data-name="Blue Gradient" width="75" height="75" style="fill:url(#BlueGradient)"/><g id="Icon_Test" data-name="Icon Test"><path d="M34.5,27.43a5,5,0,0,0-1,9.9v6.59a2.42,2.42,0,0,1-1.63,2.22L22.8,49.7a5.19,5.19,0,0,0-3,3.06,4.72,4.72,0,0,0-1.29-.46V44.52a5,5,0,0,0,0-9.8V22.46a5,5,0,1,0-2,0V34.72a5,5,0,0,0,0,9.8V52.3a5,5,0,1,0,5,1.92,3,3,0,0,1,2-2.65L32.6,48a4.43,4.43,0,0,0,2.9-4.09V37.33a5,5,0,0,0-1-9.9Zm-20-9.86a3,3,0,1,1,3,3A3,3,0,0,1,14.5,17.57Zm0,22a3,3,0,1,1,3,3A3,3,0,0,1,14.5,39.62Zm3,20.58a3,3,0,1,1,3-3A3,3,0,0,1,17.5,60.2Zm17-24.77a3,3,0,1,1,3-3A3,3,0,0,1,34.5,35.43Z" style="fill:#fff"/><path d="M61.5,62.43h-27a1,1,0,0,1-1-1v-11h2v10h25v-36h-25v-2h26a1,1,0,0,1,1,1v38A1,1,0,0,1,61.5,62.43Z" style="fill:#fff"/><path d="M43.32,46.9,39.3,43a1,1,0,0,1-.3-.78,1,1,0,0,1,.4-.73l4.49-3.36,1.2,1.6-3.55,2.66,3.17,3.09Z" style="fill:#fff"/><path d="M53.11,47.54l-1.2-1.6,3.55-2.66-3.17-3.09,1.39-1.44,4,3.91a1,1,0,0,1-.1,1.52Z" style="fill:#fff"/><rect x="41.35" y="42.43" width="14.22" height="2" transform="translate(-10.8 70.33) rotate(-66.28)" style="fill:#fff"/><path d="M31.21,25.72l-.71.71-.71.71L25.5,22.85v3.58h-2v-6a1,1,0,0,1,1-1h6v2H26.92Z" style="fill:#fff"/></g></svg>