<svg version="1.1" width="80.000000" height="100.000000" viewBox="0.000000 0.000000 80.000000 100.000000" xmlns="http://www.w3.org/2000/svg" xmlns:xlink="http://www.w3.org/1999/xlink" overflow="hidden"><g id="CARDS"><rect x="1.000000" y="1.000000" width="78.000000" height="78.000000" fill="#232F3E"/><path d=" M 0.000000 0.000000 L 0.000000 80.000000 L 0.000000 80.000000 L 0.000000 100.000000 L 80.000000 100.000000 L 80.000000 80.000000 L 80.000000 80.000000 L 80.000000 0.000000 Z M 1.000000 1.000000 L 79.000000 1.000000 L 79.000000 79.000000 L 1.000000 79.000000 Z" fill="#FFFFFF"/></g><g id="TEXT_-_EDIT"><path d=" M 15.800000 92.349998 L 15.370000 90.529999 L 13.370000 90.529999 L 13.000000 92.349998 L 11.180000 92.349998 L 13.490000 84.720001 L 15.360000 84.720001 L 17.660000 92.349998 Z M 13.620000 89.430000 L 15.120000 89.430000 L 14.360000 86.269997 Z" fill="#232F3E"/><path d=" M 23.000000 92.349998 L 22.059999 86.720001 L 21.170000 92.349998 L 19.309999 92.349998 L 17.520000 84.720001 L 19.219999 84.720001 L 20.280001 90.779999 L 21.200001 85.000000 L 23.000000 85.000000 L 24.000000 90.680000 L 25.000000 84.680000 L 26.670000 84.680000 L 24.879999 92.309998 Z" fill="#232F3E"/><path d=" M 29.000000 89.000000 C 28.502724 88.768532 28.064913 88.426491 27.719999 88.000000 C 27.461233 87.643089 27.327642 87.210678 27.340000 86.769997 C 27.329802 86.355682 27.444811 85.947922 27.670000 85.599998 C 27.902124 85.261627 28.224257 84.994911 28.600000 84.830002 C 29.021116 84.641739 29.478838 84.549515 29.940001 84.560005 C 30.589569 84.563965 31.231924 84.696510 31.830000 84.950005 L 31.830000 86.120003 C 31.277973 85.918839 30.697279 85.807426 30.110001 85.790001 C 29.825068 85.774620 29.543257 85.855637 29.310001 86.020004 C 29.117281 86.175255 29.009666 86.412743 29.020000 86.660004 C 29.010496 86.863945 29.078356 87.063950 29.210001 87.220001 C 29.413887 87.428474 29.659143 87.591980 29.930000 87.700005 L 30.580000 88.019997 C 30.936573 88.186584 31.272230 88.394691 31.580000 88.639999 C 31.815289 88.820801 32.001045 89.058159 32.119999 89.330002 C 32.247578 89.619499 32.309067 89.933777 32.299999 90.250000 C 32.330261 90.886475 32.055428 91.499283 31.559999 91.900002 C 30.969492 92.337746 30.243761 92.553688 29.510000 92.510002 C 29.130201 92.509125 28.751513 92.468910 28.380001 92.389999 C 28.050888 92.324646 27.731583 92.217087 27.430000 92.070000 L 27.430000 90.919998 C 27.757162 91.026321 28.091295 91.109856 28.430000 91.169998 C 28.742731 91.235054 29.060677 91.271873 29.380001 91.279999 C 29.693756 91.304230 30.005846 91.215561 30.260000 91.029999 C 30.466396 90.853905 30.577593 90.590736 30.559999 90.320000 C 30.566088 90.107033 30.491022 89.899704 30.350000 89.739998 C 30.146231 89.543251 29.909241 89.384132 29.650000 89.269997 Z" fill="#232F3E"/><path d=" M 41.000000 92.129997 C 40.435158 92.360497 39.830032 92.476082 39.220001 92.469994 C 36.973335 92.470001 35.846668 91.169998 35.840000 88.570000 C 35.773914 87.513390 36.085842 86.467720 36.720001 85.620003 C 37.369339 84.922134 38.299007 84.554680 39.250000 84.620003 C 39.813656 84.618950 40.372787 84.720612 40.900002 84.920006 L 40.900002 86.129997 C 40.432053 85.991005 39.947964 85.913689 39.460003 85.899994 C 38.920456 85.854988 38.394417 86.084198 38.060001 86.509995 C 37.715202 87.091789 37.558071 87.765701 37.610001 88.439995 L 37.610001 88.690002 C 37.559349 89.353394 37.712887 90.016403 38.049999 90.590004 C 38.372570 91.013901 38.889137 91.243904 39.419998 91.200005 C 39.955532 91.166504 40.485565 91.072578 41.000000 90.920006 Z" fill="#232F3E"/><path d=" M 44.369999 92.250000 C 44.049740 92.365929 43.710442 92.420219 43.369999 92.410004 C 42.981232 92.424904 42.604012 92.276192 42.329998 92.000000 C 42.087208 91.694778 41.969273 91.308800 41.999996 90.919998 L 42.000000 84.209999 L 43.650002 84.209999 L 43.650002 90.750000 C 43.639198 90.888161 43.666889 91.026619 43.730003 91.150002 C 43.809673 91.241310 43.929939 91.286407 44.050003 91.270004 C 44.166492 91.279053 44.283512 91.279053 44.400002 91.270004 Z" fill="#232F3E"/><path d=" M 47.490002 92.489998 C 46.790714 92.530975 46.111679 92.246811 45.650002 91.720001 C 44.770847 90.395988 44.770847 88.674019 45.650002 87.349998 C 46.648827 86.333794 48.282333 86.319710 49.298538 87.318535 C 49.309116 87.328934 49.319607 87.339424 49.330002 87.349998 C 50.196018 88.677948 50.196018 90.392044 49.330002 91.720001 C 48.866539 92.244324 48.188770 92.527962 47.490002 92.489998 Z M 47.490002 91.339996 C 47.773586 91.349129 48.031273 91.175995 48.130001 90.909996 C 48.396797 90.016144 48.396797 89.063843 48.130001 88.169998 C 48.034676 87.900047 47.776184 87.722336 47.490002 87.729996 C 47.201111 87.721107 46.939083 87.898483 46.840000 88.169998 C 46.584866 89.065514 46.584866 90.014481 46.840000 90.909996 C 46.942440 91.177567 47.203682 91.350380 47.490002 91.339996 Z" fill="#232F3E"/><path d=" M 54.400002 92.349998 L 54.270000 91.839996 C 53.757446 92.234222 53.135986 92.461166 52.490002 92.489998 C 52.108482 92.506950 51.740147 92.348564 51.490002 92.059998 C 51.239746 91.696587 51.116688 91.260620 51.140003 90.820000 L 51.139999 86.720001 L 52.790001 86.720001 L 52.790001 90.339996 C 52.771786 90.604317 52.819908 90.869003 52.930000 91.109993 C 53.015274 91.269989 53.189957 91.361298 53.369999 91.339996 C 53.642258 91.332367 53.906376 91.245483 54.129997 91.089996 L 54.130001 86.720001 L 55.779999 86.720001 L 55.779999 92.349998 Z" fill="#232F3E"/><path d=" M 60.430000 92.349998 L 60.290001 91.860001 C 60.109531 92.042419 59.895641 92.188408 59.660000 92.290001 C 59.432968 92.389297 59.187794 92.440376 58.939999 92.440002 C 58.341473 92.464928 57.771790 92.181969 57.430000 91.690002 C 56.709999 90.340004 56.709999 88.720001 57.430000 87.370003 C 57.774986 86.845512 58.373226 86.544487 59.000000 86.580002 C 59.215637 86.589058 59.428391 86.632957 59.630001 86.709999 C 59.848537 86.789223 60.054108 86.900436 60.240002 87.040001 L 60.240002 84.209999 L 61.889999 84.209999 L 61.889999 92.349998 Z M 59.500000 91.349998 C 59.756092 91.346977 60.005955 91.270630 60.220001 91.129997 L 60.220001 88.000000 C 59.986198 87.841095 59.712482 87.751007 59.430000 87.739998 C 59.132881 87.727325 58.860188 87.903778 58.750000 88.180000 C 58.592731 88.625710 58.524773 89.098030 58.549999 89.570000 C 58.516960 90.035194 58.595825 90.501541 58.779999 90.930000 C 58.921597 91.191101 59.203945 91.344040 59.500000 91.320000 Z" fill="#232F3E"/><path d=" M 63.250000 90.940002 C 63.507080 91.058746 63.774979 91.152512 64.050003 91.220001 C 64.312019 91.283524 64.580414 91.317070 64.850006 91.320000 C 65.130234 91.330467 65.407669 91.261108 65.650009 91.120003 C 65.873138 90.953606 66.034889 90.718018 66.110008 90.450005 C 66.235565 90.034645 66.302879 89.603867 66.310005 89.170006 C 65.904182 89.408058 65.440407 89.529190 64.970009 89.520004 C 64.411934 89.548004 63.872509 89.315231 63.510010 88.890007 C 63.144444 88.393784 62.964020 87.785294 63.000011 87.170006 C 62.988659 86.685143 63.095032 86.204750 63.310013 85.770004 C 63.502811 85.385933 63.810368 85.071381 64.190010 84.870003 C 64.592224 84.654335 65.043800 84.547478 65.500008 84.560005 C 66.237991 84.511543 66.947479 84.853012 67.370010 85.460007 C 67.843704 86.291977 68.062759 87.244698 68.000008 88.200005 C 68.083313 89.330460 67.832962 90.460503 67.280006 91.450005 C 66.742538 92.147560 65.887474 92.524246 65.010010 92.450005 C 64.695404 92.451088 64.382256 92.407318 64.080009 92.320007 C 63.798523 92.245323 63.529137 92.130829 63.280010 91.980011 Z M 65.510002 88.400002 C 65.793716 88.395554 66.073242 88.330788 66.330002 88.209999 L 66.330002 88.000000 C 66.330002 86.459999 66.029999 85.680000 65.440002 85.680000 C 65.189560 85.672295 64.955162 85.802940 64.830002 86.019997 C 64.668022 86.327187 64.595276 86.673592 64.620003 87.019997 C 64.602234 87.365891 64.674599 87.710472 64.830002 88.019997 C 64.969589 88.262024 65.230721 88.407951 65.510002 88.399994 Z" fill="#232F3E"/></g><g id="ICONS_-_EDIT"><path d=" M 55.000000 56.000000 L 24.850000 56.000000 C 19.750105 56.129482 15.432305 52.263191 15.000000 47.180000 C 15.000000 46.970001 15.000000 46.750000 15.000000 46.520000 C 14.836603 42.385204 17.541441 38.682102 21.530001 37.580002 C 21.530001 37.340000 21.530001 37.090000 21.530001 36.849998 C 21.684986 29.578060 27.705698 23.808628 34.977634 23.963614 C 38.431904 24.037233 41.718906 25.465321 44.129997 27.939999 C 45.382019 29.172300 46.398670 30.622723 47.129997 32.219997 C 48.660965 31.021294 50.681686 30.647778 52.539997 31.219997 C 55.049999 31.990000 56.730000 34.220001 57.130001 37.380001 C 62.209999 38.599998 65.000000 41.869999 65.000000 46.599998 C 65.000000 53.529999 59.830002 56.000000 55.000000 56.000000 Z M 22.760000 39.299999 C 20.580000 39.860001 17.000000 41.540001 17.000000 46.520000 C 17.000000 46.709999 17.000000 46.889999 17.000000 47.070000 C 17.368551 51.094353 20.811008 54.133362 24.850000 54.000000 L 55.000000 54.000000 C 57.410000 54.000000 63.000000 53.279999 63.000000 46.599998 C 63.000000 42.599998 60.650002 40.080002 56.000000 39.139999 C 55.555611 39.050144 55.227276 38.672562 55.200001 38.220001 C 55.040001 35.549999 53.849998 33.689999 51.950001 33.110001 C 50.320831 32.619476 48.559647 33.213223 47.560001 34.590000 C 47.223518 35.027946 46.595718 35.110199 46.157772 34.773716 C 46.009075 34.659470 45.895496 34.505711 45.830002 34.329998 C 45.178246 32.450386 44.111912 30.741514 42.710003 29.329998 C 38.416046 24.893003 31.338211 24.777048 26.901217 29.071005 C 24.798319 31.106110 23.577192 33.884613 23.500002 36.809998 C 23.496443 37.257957 23.523170 37.705643 23.580002 38.149998 C 23.644260 38.660084 23.311274 39.135780 22.810001 39.249996 Z" fill="#FFFFFF"/><path d=" M 35.270000 48.509998 C 36.307194 49.011017 37.438606 49.287056 38.590000 49.320000 C 39.803185 49.397221 40.984085 48.910099 41.790001 48.000000 C 42.600132 46.825249 43.023159 45.426819 43.000000 44.000000 C 42.456966 44.358604 41.863884 44.634930 41.240002 44.820000 C 40.592354 45.020618 39.918007 45.121773 39.240002 45.119999 C 37.983189 45.189411 36.755566 44.724510 35.860001 43.840000 C 34.992466 42.891773 34.545231 41.633030 34.619999 40.349998 C 34.604328 39.435368 34.817451 38.531322 35.239998 37.719997 C 35.656849 36.953518 36.280514 36.319462 37.039997 35.889996 C 37.858925 35.435017 38.783306 35.203922 39.719997 35.219997 C 41.300392 35.127827 42.822838 35.829052 43.779999 37.089996 C 44.815994 38.714558 45.306458 40.627369 45.180000 42.549995 C 45.320320 44.791515 44.742332 47.019398 43.529999 48.909996 C 42.435913 50.387287 40.676098 51.220291 38.840000 51.129997 C 37.558060 51.160305 36.295570 50.812511 35.209999 50.129997 Z M 39.820000 43.360001 C 40.390480 43.360126 40.958565 43.286175 41.509998 43.139999 C 42.050964 43.004841 42.572014 42.799782 43.059998 42.529999 L 43.060001 42.220001 C 43.000000 38.759998 41.910000 37.000000 39.740002 37.000000 C 38.953079 36.961945 38.190281 37.277332 37.660000 37.860001 C 36.656979 39.255096 36.656979 41.134907 37.660000 42.529999 C 38.232983 43.095417 39.015827 43.396233 39.820000 43.360001 Z" fill="#FFFFFF"/></g></svg>