<svg version="1.1" width="80.000000" height="100.000000" viewBox="0.000000 0.000000 80.000000 100.000000" xmlns="http://www.w3.org/2000/svg" xmlns:xlink="http://www.w3.org/1999/xlink" overflow="hidden"><g id="CARDS"><rect x="1.000000" y="1.000000" width="78.000000" height="78.000000" fill="#232F3E"/><path d=" M 0.000000 0.000000 L 0.000000 80.000000 L 0.000000 80.000000 L 0.000000 100.000000 L 80.000000 100.000000 L 80.000000 80.000000 L 80.000000 80.000000 L 80.000000 0.000000 Z M 1.000000 1.000000 L 79.000000 1.000000 L 79.000000 79.000000 L 1.000000 79.000000 Z" fill="#FFFFFF"/></g><g id="TEXT_-_EDIT"><path d=" M 11.000000 92.349998 L 10.570000 90.529999 L 8.570000 90.529999 L 8.150000 92.349998 L 6.350000 92.349998 L 8.660000 84.720001 L 10.530000 84.720001 L 12.830000 92.349998 Z M 8.790000 89.430000 L 10.280000 89.430000 L 9.530000 86.269997 Z" fill="#232F3E"/><path d=" M 18.180000 92.349998 L 17.240000 86.720001 L 16.340000 92.349998 L 14.480000 92.349998 L 12.690000 84.720001 L 14.390000 84.720001 L 15.450000 90.779999 L 16.370001 85.000000 L 18.200001 85.000000 L 19.139999 90.650002 L 20.139999 84.650002 L 21.809999 84.650002 L 20.000000 92.349998 Z" fill="#232F3E"/><path d=" M 24.129999 89.000000 C 23.632723 88.768532 23.194912 88.426491 22.849998 88.000000 C 22.587675 87.644348 22.450535 87.211830 22.459999 86.769997 C 22.453390 86.354721 22.571856 85.947060 22.799999 85.599998 C 23.028212 85.261978 23.347065 84.995110 23.719999 84.830002 C 24.144983 84.642815 24.605711 84.550667 25.070000 84.560005 C 25.736498 84.574402 26.393120 84.724098 27.000000 85.000008 L 27.000000 86.169998 C 26.447973 85.968834 25.867279 85.857422 25.280001 85.839996 C 24.995068 85.824615 24.713257 85.905632 24.480001 86.070000 C 24.287281 86.225250 24.179667 86.462738 24.190001 86.709999 C 24.180496 86.913940 24.248356 87.113945 24.380001 87.269997 C 24.583887 87.478470 24.829144 87.641975 25.100000 87.750000 L 25.750000 88.070000 C 26.105192 88.239128 26.440569 88.447060 26.750000 88.690002 C 26.982378 88.873718 27.167513 89.110283 27.290001 89.380005 C 27.417578 89.669502 27.479067 89.983780 27.470001 90.300003 C 27.500263 90.936478 27.225428 91.549286 26.730001 91.950005 C 26.139494 92.387749 25.413763 92.603691 24.680002 92.560005 C 24.300203 92.559128 23.921515 92.518913 23.550003 92.440002 C 23.220890 92.374649 22.901585 92.267090 22.600002 92.120003 L 22.600000 90.919998 C 22.927162 91.026321 23.261295 91.109856 23.600000 91.169998 C 23.929119 91.238113 24.263945 91.274940 24.600000 91.279999 C 24.913755 91.304230 25.225845 91.215561 25.480000 91.029999 C 25.686396 90.853905 25.797592 90.590736 25.779999 90.320000 C 25.786087 90.107033 25.711021 89.899704 25.570000 89.739998 C 25.366230 89.543251 25.129240 89.384132 24.869999 89.269997 Z" fill="#232F3E"/><path d=" M 36.139999 92.129997 C 35.574856 92.359474 34.969936 92.475021 34.360001 92.469994 C 32.113335 92.470001 30.986666 91.169998 30.980000 88.570000 C 30.913914 87.513390 31.225842 86.467720 31.859999 85.620003 C 32.509338 84.922134 33.439003 84.554680 34.389999 84.620003 C 34.953499 84.620705 35.512318 84.722313 36.040001 84.920006 L 36.040001 86.129997 C 35.572052 85.991005 35.087963 85.913689 34.600002 85.899994 C 34.060455 85.854988 33.534416 86.084198 33.200001 86.509995 C 32.855202 87.091789 32.698071 87.765701 32.750000 88.439995 L 32.750000 88.690002 C 32.699348 89.353394 32.852886 90.016403 33.189999 90.590004 C 33.511360 91.015427 34.028812 91.245827 34.559998 91.200005 C 35.094765 91.173027 35.624783 91.085808 36.139999 90.940002 Z" fill="#232F3E"/><path d=" M 39.369999 92.489998 C 38.668312 92.528084 37.987446 92.244698 37.520000 91.720001 C 36.653984 90.392052 36.653984 88.677956 37.520000 87.349998 C 38.531750 86.331032 40.177967 86.325180 41.196934 87.336929 C 41.201305 87.341270 41.205662 87.345627 41.210003 87.349998 C 42.076019 88.677948 42.076019 90.392044 41.210003 91.720001 C 40.746540 92.244324 40.068771 92.527962 39.370003 92.489998 Z M 39.369999 91.339996 C 39.653584 91.349129 39.911270 91.175995 40.009998 90.909996 C 40.276794 90.016144 40.276794 89.063843 40.009998 88.169998 C 39.914673 87.900047 39.656181 87.722336 39.369999 87.729996 C 39.081108 87.721107 38.819080 87.898483 38.719997 88.169998 C 38.453201 89.063850 38.453201 90.016151 38.719997 90.909996 C 38.822437 91.177567 39.083679 91.350380 39.369999 91.339996 Z" fill="#232F3E"/><path d=" M 46.270000 92.349998 L 46.139999 91.860001 C 45.956638 92.038925 45.743435 92.184441 45.509998 92.290001 C 45.282375 92.387421 45.037590 92.438423 44.789997 92.440002 C 44.191067 92.466835 43.620510 92.183449 43.279999 91.690002 C 42.885479 91.052330 42.696934 90.308617 42.739998 89.560005 C 42.695648 88.789658 42.891300 88.024506 43.299999 87.370003 C 43.631580 86.856697 44.209366 86.556396 44.820000 86.580002 C 45.038849 86.589363 45.254841 86.633240 45.459999 86.709999 C 45.677570 86.791359 45.882847 86.902412 46.070000 87.040001 L 46.070000 84.209999 L 47.720001 84.209999 L 47.720001 92.349998 Z M 45.340000 91.349998 C 45.598999 91.345612 45.851707 91.269455 46.070000 91.129997 L 46.070000 88.000000 C 45.832630 87.840775 45.555626 87.750748 45.270000 87.739998 C 44.975639 87.728607 44.706512 87.905350 44.600002 88.180000 C 44.433647 88.623573 44.362110 89.097084 44.390003 89.570000 C 44.361813 90.034950 44.440491 90.500175 44.620003 90.930000 C 44.761600 91.191101 45.043949 91.344040 45.340004 91.320000 Z" fill="#232F3E"/><path d=" M 50.349998 89.919998 C 50.345970 90.311752 50.476589 90.693016 50.719997 91.000000 C 51.014469 91.248260 51.396641 91.367241 51.779999 91.330002 C 52.009201 91.323997 52.237129 91.293831 52.459999 91.240005 C 52.731251 91.188805 52.998573 91.118637 53.259998 91.030006 L 53.259998 92.029999 C 53.000977 92.175522 52.720997 92.280098 52.429996 92.339996 C 52.101471 92.411812 51.766273 92.448685 51.429996 92.449997 C 49.709999 92.449997 48.849998 91.449997 48.849998 89.500000 C 48.796959 88.715630 49.019817 87.937401 49.480000 87.300003 C 49.938690 86.775963 50.615025 86.495087 51.310001 86.540001 C 52.669998 86.540001 53.310001 87.300003 53.310001 88.830002 C 53.309128 89.166870 53.268856 89.502487 53.190002 89.830002 Z M 51.270000 87.599998 C 50.689999 87.599998 50.389999 88.059998 50.349998 88.970001 L 52.000000 88.970001 L 52.000000 88.720001 C 52.020443 88.423340 51.961781 88.126572 51.830002 87.860001 C 51.707199 87.674789 51.490738 87.574287 51.270000 87.599998 Z" fill="#232F3E"/><path d=" M 55.930000 89.000000 C 55.435402 88.768761 55.000801 88.426559 54.660000 88.000000 C 54.397678 87.644348 54.260536 87.211830 54.270000 86.769997 C 54.258892 86.354126 54.377739 85.945145 54.610001 85.599998 C 54.835701 85.259720 55.155289 84.992241 55.529999 84.830002 C 55.951813 84.643929 56.409042 84.551804 56.869999 84.560005 C 57.519764 84.562088 58.162483 84.694710 58.759998 84.950005 L 58.759998 86.120003 C 58.195587 85.913536 57.600864 85.802032 57.000000 85.790001 C 56.718163 85.774521 56.439480 85.855652 56.209999 86.020004 C 56.013199 86.172058 55.904575 86.411781 55.919998 86.660004 C 55.912312 86.862022 55.976040 87.060295 56.099998 87.220001 C 56.307770 87.423737 56.552021 87.586571 56.820000 87.700005 L 57.470001 88.019997 C 57.826054 88.187546 58.161602 88.395592 58.470001 88.639999 C 58.698788 88.827263 58.883213 89.062912 59.010002 89.330002 C 59.129375 89.621704 59.187252 89.934906 59.180000 90.250000 C 59.210262 90.886475 58.935429 91.499283 58.439999 91.900002 C 57.864475 92.329575 57.157295 92.545265 56.439999 92.510002 C 56.060139 92.510231 55.681335 92.470001 55.309998 92.389999 C 54.964050 92.327736 54.627823 92.220139 54.309998 92.070000 L 54.310001 90.919998 C 54.637497 91.025146 54.971550 91.108665 55.310001 91.169998 C 55.639122 91.238113 55.973946 91.274940 56.310001 91.279999 C 56.630630 91.296295 56.946457 91.196938 57.200001 91.000000 C 57.406395 90.823906 57.517593 90.560738 57.500000 90.290001 C 57.506088 90.077034 57.431023 89.869705 57.290001 89.709999 C 57.082325 89.513412 56.842091 89.354385 56.580002 89.239998 Z" fill="#232F3E"/><path d=" M 63.389999 92.199997 C 62.996689 92.347153 62.579933 92.421692 62.160000 92.419998 C 61.362198 92.570419 60.593510 92.045616 60.443085 91.247818 C 60.410217 91.073509 60.409172 90.894684 60.439999 90.720001 L 60.439999 87.820000 L 59.700001 87.820000 L 59.700001 86.900002 L 60.490002 86.750000 L 60.730000 85.209999 L 62.090000 85.209999 L 62.090000 86.720001 L 63.369999 86.720001 L 63.369999 87.820000 L 62.090000 87.820000 L 62.090000 90.589996 C 62.074326 90.774376 62.123871 90.958412 62.230000 91.109993 C 62.377174 91.233894 62.568851 91.291756 62.759998 91.269997 C 62.972317 91.266800 63.183620 91.239967 63.389999 91.189995 Z" fill="#232F3E"/><path d=" M 67.169998 92.349998 L 67.000000 91.839996 C 66.846901 92.044678 66.643723 92.206528 66.410004 92.309998 C 66.166260 92.426201 65.900024 92.487640 65.630005 92.489998 C 65.194641 92.496582 64.776833 92.318558 64.480003 92.000000 C 64.169441 91.686157 63.996708 91.261513 64.000000 90.820000 C 63.976856 90.326881 64.170486 89.848297 64.529999 89.510002 C 64.931076 89.148552 65.461243 88.964615 66.000000 89.000000 C 66.314026 89.006668 66.626183 89.050301 66.930000 89.129997 L 66.930000 88.620003 C 66.957573 88.349762 66.901733 88.077560 66.769997 87.840004 C 66.605476 87.687714 66.382751 87.614693 66.159996 87.640007 C 65.555542 87.665237 64.958565 87.783279 64.389999 87.990005 L 64.389999 87.000000 C 64.676567 86.840446 64.987358 86.728966 65.309998 86.669998 C 65.688011 86.589485 66.073502 86.549255 66.459999 86.549995 C 67.011772 86.499794 67.562073 86.660591 68.000000 86.999992 C 68.344772 87.376846 68.515320 87.881233 68.470001 88.389992 L 68.470001 92.330002 Z M 66.169998 91.430000 C 66.468346 91.418404 66.750969 91.293190 66.959999 91.080002 L 66.959999 90.000000 C 66.757584 89.947983 66.548912 89.924423 66.339996 89.930000 C 66.139069 89.911972 65.940704 89.985435 65.799995 90.129997 C 65.664658 90.295738 65.596809 90.506424 65.609993 90.719994 C 65.599701 90.905304 65.652588 91.088631 65.759995 91.239990 C 65.851189 91.357796 65.991028 91.427719 66.139992 91.429993 Z" fill="#232F3E"/><path d=" M 69.849998 92.349998 L 69.849998 86.720001 L 71.199997 86.720001 L 71.379997 87.449997 C 71.580948 87.209991 71.825180 87.009857 72.099998 86.860001 C 72.328911 86.731735 72.587631 86.666191 72.849998 86.669998 C 72.976471 86.660080 73.103523 86.660080 73.229996 86.669998 L 73.230003 88.000000 C 73.020241 87.985909 72.809769 87.985909 72.600006 88.000000 C 72.218040 87.999374 71.841270 88.088432 71.500008 88.260002 L 71.500000 92.370003 Z" fill="#232F3E"/></g><g id="ICONS_-_EDIT"><path d=" M 34.349998 43.770000 L 30.000000 39.540001 C 29.790945 39.336250 29.681356 39.051327 29.700001 38.760002 C 29.715635 38.468201 29.858124 38.197838 30.090000 38.020000 L 35.000000 34.380001 L 36.200001 35.980000 L 32.290001 38.919998 L 35.790001 42.340000 Z" fill="#FFFFFF"/><path d=" M 44.840000 44.450001 L 43.639999 42.849998 L 47.549999 39.919998 L 44.049999 36.500000 L 45.450001 35.060001 L 49.779999 39.299999 C 49.989056 39.503750 50.098640 39.788673 50.079998 40.079998 C 50.064365 40.371799 49.921875 40.642162 49.689999 40.820000 Z" fill="#FFFFFF"/><rect x="32.160000" y="39.070000" width="15.390000" height="2.000000" fill="#FFFFFF" transform="matrix(0.402267,-0.915522,0.915522,0.402267,-12.870000,60.440000)"/><path d=" M 51.189999 24.360001 C 51.078270 24.358042 50.967297 24.341227 50.859997 24.310001 L 46.439999 22.780001 L 47.090000 20.889999 L 50.189999 22.000000 L 50.189999 20.000000 L 52.189999 20.000000 L 52.189999 23.360001 C 52.191746 23.685387 52.035072 23.991278 51.770000 24.180000 C 51.600002 24.298674 51.397320 24.361574 51.189999 24.360001 Z" fill="#FFFFFF"/><path d=" M 42.689999 26.000000 C 39.652431 26.000000 37.189999 23.537565 37.189999 20.500000 C 37.189999 17.462435 39.652431 15.000000 42.689999 15.000000 C 45.727566 15.000000 48.189999 17.462435 48.189999 20.500000 C 48.184494 23.535284 45.725281 25.994495 42.689999 26.000000 Z M 42.689999 17.000000 C 40.757004 17.000000 39.189999 18.567003 39.189999 20.500000 C 39.189999 22.432997 40.757004 24.000000 42.689999 24.000000 C 44.622993 24.000000 46.189999 22.432997 46.189999 20.500000 C 46.189999 18.567003 44.622993 17.000000 42.689999 17.000000 Z" fill="#FFFFFF"/><path d=" M 28.790001 25.270000 L 27.480000 23.760000 L 30.000000 21.600000 L 28.000000 20.459999 L 29.000000 18.730000 L 32.189999 20.570000 C 32.471600 20.730471 32.657967 21.017471 32.689999 21.340000 C 32.720627 21.661621 32.593987 21.978226 32.349998 22.190001 Z" fill="#FFFFFF"/><path d=" M 24.680000 33.000000 C 21.642437 32.996212 19.183075 30.530710 19.186863 27.493147 C 19.190651 24.455584 21.656153 21.996222 24.693716 22.000010 C 27.731279 22.003798 30.190641 24.469299 30.186853 27.506863 C 30.185652 28.469986 29.931561 29.415911 29.450001 30.250000 C 28.473965 31.961483 26.650192 33.012924 24.680000 33.000000 Z M 24.680000 24.000000 C 22.747013 23.994270 21.175371 25.556623 21.169641 27.489611 C 21.168720 27.800390 21.209196 28.109907 21.290001 28.410000 C 21.792652 30.276499 23.713228 31.382114 25.579727 30.879463 C 27.446226 30.376812 28.551842 28.456236 28.049191 26.589737 C 27.640623 25.072603 26.271128 24.013651 24.700001 24.000002 Z" fill="#FFFFFF"/><path d=" M 19.910000 42.570000 L 19.290001 39.360001 L 17.290001 40.500000 L 16.290001 38.770000 L 19.480000 36.919998 C 19.768459 36.770557 20.111540 36.770557 20.400000 36.919998 C 20.691628 37.055931 20.900034 37.323883 20.959999 37.639999 L 21.850000 42.230000 Z" fill="#FFFFFF"/><path d=" M 21.700001 52.000000 C 19.733141 52.000389 17.915215 50.952320 16.930000 49.250000 C 15.411143 46.623528 16.306040 43.263191 18.930000 41.740002 L 18.930000 41.740002 C 21.558886 40.218239 24.923653 41.115738 26.445417 43.744625 C 27.967182 46.373512 27.069681 49.738277 24.440796 51.260040 C 23.607695 51.742290 22.662611 51.997444 21.700001 52.000000 Z M 21.700001 43.000000 C 21.088600 42.999722 20.488108 43.161922 19.960001 43.470001 L 19.959999 43.470001 C 18.285866 44.436310 17.712059 46.576809 18.678366 48.250946 C 19.644674 49.925079 21.785175 50.498886 23.459309 49.532578 C 25.133442 48.566269 25.707249 46.425770 24.740942 44.751633 C 24.740627 44.751087 24.740313 44.750546 24.740000 44.750000 C 24.108120 43.659637 22.940197 42.991707 21.680000 43.000000 Z" fill="#FFFFFF"/><path d=" M 29.190001 60.000000 L 27.190001 60.000000 L 27.190001 56.060001 C 27.191488 55.738144 27.347805 55.436676 27.610001 55.250000 C 27.874262 55.061554 28.213545 55.013084 28.520000 55.119999 L 33.000000 56.650002 L 32.340000 58.540001 L 29.230000 57.459999 Z" fill="#FFFFFF"/><path d=" M 36.689999 65.000000 C 33.652431 65.000000 31.189999 62.537567 31.189999 59.500000 C 31.189999 56.462433 33.652431 54.000000 36.689999 54.000000 C 39.727566 54.000000 42.189999 56.462433 42.189999 59.500000 C 42.184494 62.535282 39.725281 64.994499 36.689999 65.000000 Z M 36.689999 56.000000 C 34.757004 56.000000 33.189999 57.567005 33.189999 59.500000 C 33.189999 61.432995 34.757004 63.000000 36.689999 63.000000 C 38.622993 63.000000 40.189999 61.432995 40.189999 59.500000 C 40.189999 57.567005 38.622993 56.000000 36.689999 56.000000 Z" fill="#FFFFFF"/><path d=" M 51.000000 60.709999 L 47.799999 58.860001 C 47.518398 58.699528 47.332031 58.412529 47.299999 58.090000 C 47.271809 57.766655 47.402302 57.449745 47.649998 57.240002 L 51.189999 54.160000 L 52.500000 55.669998 L 50.000000 57.830002 L 52.000000 59.000000 Z" fill="#FFFFFF"/><path d=" M 54.680000 58.000000 C 51.642437 57.996212 49.183075 55.530712 49.186863 52.493145 C 49.190651 49.455582 51.656151 46.996220 54.693718 47.000008 C 57.731281 47.003796 60.190643 49.469296 60.186855 52.506863 C 60.185654 53.469986 59.931564 54.415909 59.450001 55.250000 C 58.473965 56.961483 56.650192 58.012924 54.680000 58.000000 Z M 54.680000 49.000000 C 52.747013 48.994270 51.175369 50.556622 51.169643 52.489609 C 51.168724 52.800388 51.209198 53.109905 51.290001 53.410000 C 51.528278 54.306057 52.115253 55.069485 52.920002 55.529999 L 52.919998 55.529999 C 54.570980 56.535351 56.724365 56.011963 57.729717 54.360981 C 58.735069 52.709999 58.211681 50.556614 56.560699 49.551262 C 56.514435 49.523090 56.467522 49.495995 56.419998 49.470001 C 55.897755 49.165325 55.304611 49.003242 54.699997 49.000000 Z" fill="#FFFFFF"/><path d=" M 60.000000 42.639999 C 59.514137 42.648834 59.092251 42.307106 59.000000 41.829998 L 58.110001 37.240002 L 60.110001 36.860001 L 60.740002 40.080002 L 62.740002 38.930000 L 63.740002 40.660000 L 60.540001 42.509998 C 60.375889 42.603455 60.188663 42.648525 60.000000 42.639999 Z" fill="#FFFFFF"/><path d=" M 58.700001 38.000000 C 56.733143 38.000389 54.915215 36.952320 53.930000 35.250000 C 52.411144 32.623528 53.306042 29.263191 55.930000 27.740000 C 58.558887 26.218235 61.923653 27.115736 63.445415 29.744621 C 64.967178 32.373508 64.069679 35.738274 61.440792 37.260036 C 60.607689 37.742287 59.662609 37.997440 58.699997 37.999996 Z M 58.700001 29.000000 C 56.767078 29.017126 55.214020 30.597952 55.231148 32.530872 C 55.236500 33.134769 55.398018 33.727005 55.700001 34.250000 C 56.666576 35.923981 58.807167 36.497448 60.481148 35.530872 C 62.155128 34.564297 62.728596 32.423706 61.762020 30.749725 C 61.131241 29.657299 59.961411 28.988823 58.700001 29.000000 Z" fill="#FFFFFF"/></g></svg>