<svg version="1.1" width="80.000000" height="115.000000" viewBox="0.000000 0.000000 80.000000 115.000000" xmlns="http://www.w3.org/2000/svg" xmlns:xlink="http://www.w3.org/1999/xlink" overflow="hidden"><g id="CARDS"><rect x="1.000000" y="1.000000" width="78.000000" height="78.000000" fill="#232F3E"/><path d=" M 0.000000 0.000000 L 0.000000 80.000000 L 0.000000 80.000000 L 0.000000 115.000000 L 80.000000 115.000000 L 80.000000 80.000000 L 80.000000 80.000000 L 80.000000 0.000000 Z M 1.000000 1.000000 L 79.000000 1.000000 L 79.000000 79.000000 L 1.000000 79.000000 Z" fill="#FFFFFF"/></g><g id="TEXT_-_EDIT"><path d=" M 33.689999 92.349998 L 33.250000 90.529999 L 31.250000 90.529999 L 30.830000 92.349998 L 29.059999 92.349998 L 31.370001 84.720001 L 33.240002 84.720001 L 35.540001 92.349998 Z M 31.510000 89.430000 L 33.000000 89.430000 L 32.240002 86.269997 Z" fill="#232F3E"/><path d=" M 40.889999 92.349998 L 40.000000 86.720001 L 39.110001 92.349998 L 37.189999 92.349998 L 35.410000 84.720001 L 37.110001 84.720001 L 38.169998 90.779999 L 39.080002 85.000000 L 40.919998 85.000000 L 41.860001 90.650002 L 42.860001 84.650002 L 44.520000 84.650002 L 42.740002 92.279999 Z" fill="#232F3E"/><path d=" M 46.840000 89.000000 C 46.345402 88.768761 45.910801 88.426559 45.570000 88.000000 C 45.307678 87.644348 45.170536 87.211830 45.180000 86.769997 C 45.168892 86.354126 45.287739 85.945145 45.520000 85.599998 C 45.745701 85.259720 46.065289 84.992241 46.439999 84.830002 C 46.861813 84.643929 47.319042 84.551804 47.779999 84.560005 C 48.429764 84.562088 49.072483 84.694710 49.669998 84.950005 L 49.669998 86.120003 C 49.134098 85.923050 48.570534 85.811684 48.000000 85.790001 C 47.718163 85.774521 47.439480 85.855652 47.209999 86.020004 C 47.013199 86.172058 46.904575 86.411781 46.919998 86.660004 C 46.912312 86.862022 46.976040 87.060295 47.099998 87.220001 C 47.307770 87.423737 47.552021 87.586571 47.820000 87.700005 L 48.470001 88.019997 C 48.826054 88.187546 49.161602 88.395592 49.470001 88.639999 C 49.698788 88.827263 49.883213 89.062912 50.010002 89.330002 C 50.129375 89.621704 50.187252 89.934906 50.180000 90.250000 C 50.210262 90.886475 49.935429 91.499283 49.439999 91.900002 C 48.864475 92.329575 48.157295 92.545265 47.439999 92.510002 C 47.060139 92.510231 46.681335 92.470001 46.309998 92.389999 C 45.980469 92.326210 45.660961 92.218590 45.359997 92.070000 L 45.360001 90.919998 C 45.687019 91.026825 46.021187 91.110367 46.360001 91.169998 C 46.689121 91.238113 47.023945 91.274940 47.360001 91.279999 C 47.673580 91.302475 47.985077 91.213982 48.240002 91.029999 C 48.446396 90.853905 48.557594 90.590736 48.540001 90.320000 C 48.546089 90.107033 48.471024 89.899704 48.330002 89.739998 C 48.122326 89.543411 47.882092 89.384384 47.620003 89.269997 Z" fill="#232F3E"/><path d=" M 17.250000 106.129997 C 16.684855 106.359474 16.079937 106.475021 15.470000 106.469994 C 13.223333 106.470001 12.096666 105.169998 12.090000 102.570000 C 12.032483 101.509689 12.355161 100.463646 13.000000 99.620003 C 13.649338 98.922134 14.579005 98.554680 15.530000 98.620003 C 16.093498 98.620705 16.652317 98.722313 17.180000 98.920006 L 17.180000 100.129997 C 16.712051 99.991005 16.227962 99.913689 15.740001 99.899994 C 15.200453 99.854988 14.674414 100.084198 14.340001 100.509995 C 13.995202 101.091789 13.838071 101.765701 13.890001 102.439995 L 13.890000 102.690002 C 13.839348 103.353394 13.992887 104.016403 14.330000 104.590004 C 14.651362 105.015427 15.168815 105.245827 15.700000 105.200005 C 16.234768 105.173027 16.764786 105.085808 17.280001 104.940002 Z" fill="#232F3E"/><path d=" M 20.480000 106.489998 C 19.778313 106.528084 19.097446 106.244698 18.629999 105.720001 C 17.763985 104.392052 17.763985 102.677956 18.629999 101.349998 C 19.097446 100.825302 19.778313 100.541916 20.480000 100.580002 C 21.178766 100.542046 21.856535 100.825676 22.320000 101.349998 C 23.186014 102.677948 23.186014 104.392044 22.320000 105.720001 C 21.856535 106.244324 21.178766 106.527962 20.480000 106.489998 Z M 20.480000 105.339996 C 20.763582 105.349129 21.021271 105.175995 21.119999 104.909996 C 21.386797 104.016144 21.386797 103.063843 21.119999 102.169998 C 21.024673 101.900047 20.766182 101.722336 20.480000 101.729996 C 20.191109 101.721107 19.929081 101.898483 19.830000 102.169998 C 19.563202 103.063850 19.563202 104.016151 19.830000 104.909996 C 19.932442 105.177567 20.193680 105.350380 20.480000 105.339996 Z" fill="#232F3E"/><path d=" M 27.379999 106.349998 L 27.250000 105.860001 C 27.064745 106.041252 26.847824 106.186996 26.610001 106.290001 C 26.386145 106.388222 26.144457 106.439285 25.900002 106.440002 C 25.301071 106.466835 24.730513 106.183449 24.390001 105.690002 C 23.995483 105.052330 23.806936 104.308617 23.850000 103.560005 C 23.802666 102.790710 23.994806 102.025650 24.400000 101.370003 C 24.737568 100.858131 25.317205 100.558846 25.930000 100.580002 C 26.148848 100.589363 26.364843 100.633240 26.570000 100.709999 C 26.787571 100.791359 26.992847 100.902412 27.180000 101.040001 L 27.180000 98.209999 L 28.830000 98.209999 L 28.830000 106.349998 Z M 26.450001 105.349998 C 26.709002 105.345612 26.961706 105.269455 27.180000 105.129997 L 27.180000 102.000000 C 26.942629 101.840775 26.665628 101.750748 26.380001 101.739998 C 26.085640 101.728607 25.816513 101.905350 25.710001 102.180000 C 25.543646 102.623573 25.472109 103.097084 25.500002 103.570000 C 25.471811 104.034950 25.550489 104.500175 25.730001 104.930000 C 25.871599 105.191101 26.153948 105.344040 26.450001 105.320000 Z" fill="#232F3E"/><path d=" M 31.459999 103.919998 C 31.446594 104.325401 31.577734 104.722366 31.830000 105.040001 C 32.124474 105.288261 32.506645 105.407242 32.889999 105.370003 C 33.119202 105.363998 33.347130 105.333832 33.570000 105.280006 C 33.841251 105.228806 34.108574 105.158638 34.369999 105.070007 L 34.369999 106.070000 C 34.110977 106.215523 33.830997 106.320099 33.539997 106.379997 C 33.211472 106.451813 32.876274 106.488686 32.539997 106.489998 C 30.820000 106.489998 29.959999 105.489998 29.959999 103.540001 C 29.906961 102.755630 30.129818 101.977402 30.589998 101.340004 C 31.047764 100.814682 31.724764 100.533524 32.419998 100.580002 C 33.779999 100.580002 34.419998 101.339996 34.419998 102.870003 C 34.419125 103.206871 34.378853 103.542488 34.299999 103.870003 Z M 32.380001 101.599998 C 31.799999 101.599998 31.500000 102.059998 31.459999 102.970001 L 33.080002 102.970001 L 33.080002 102.720001 C 33.100445 102.423340 33.041782 102.126572 32.910004 101.860001 C 32.792515 101.684830 32.590446 101.585701 32.380005 101.599998 Z" fill="#232F3E"/><path d=" M 35.720001 106.349998 L 35.720001 98.720001 L 38.230000 98.720001 C 39.131908 98.670197 40.006378 99.039169 40.599998 99.720001 C 41.659565 101.468689 41.659565 103.661316 40.599998 105.410004 C 40.028778 106.086281 39.174019 106.456306 38.289997 106.410004 Z M 37.400002 99.900002 L 37.400002 105.169998 L 38.110001 105.169998 C 38.584904 105.196777 39.035492 104.958000 39.279999 104.549995 C 39.579330 103.959961 39.714058 103.300148 39.669998 102.639992 L 39.669998 102.419998 C 39.713741 101.760979 39.582653 101.102089 39.289997 100.509995 C 39.037907 100.100891 38.579319 99.865814 38.099998 99.899994 Z" fill="#232F3E"/><path d=" M 43.930000 103.919998 C 43.925972 104.311752 44.056591 104.693016 44.299999 105.000000 C 44.594471 105.248260 44.976643 105.367241 45.360001 105.330002 C 45.589203 105.323997 45.817131 105.293831 46.040001 105.240005 C 46.311253 105.188805 46.578575 105.118637 46.840000 105.030006 L 46.840000 106.029999 C 46.580978 106.175522 46.300999 106.280098 46.009998 106.339996 C 45.681473 106.411812 45.346275 106.448685 45.009998 106.449997 C 43.290001 106.449997 42.430000 105.449997 42.430000 103.500000 C 42.376961 102.715630 42.599819 101.937401 43.060001 101.300003 C 43.517765 100.774681 44.194767 100.493523 44.890003 100.540001 C 46.250000 100.540001 46.939999 101.300003 46.939999 102.830002 C 46.939125 103.166870 46.898853 103.502487 46.820000 103.830002 Z M 44.849998 101.599998 C 44.270000 101.599998 43.970001 102.059998 43.930000 102.970001 L 45.549999 102.970001 L 45.549999 102.720001 C 45.570442 102.423340 45.511780 102.126572 45.380001 101.860001 C 45.262512 101.684830 45.060444 101.585701 44.850002 101.599998 Z" fill="#232F3E"/><path d=" M 48.080002 108.610001 L 48.080002 100.720001 L 49.430000 100.720001 L 49.549999 101.199997 C 49.759094 101.010376 49.999268 100.858154 50.259998 100.750000 C 50.506504 100.643257 50.771431 100.585518 51.039997 100.580002 C 51.637024 100.550934 52.207180 100.830345 52.549995 101.320000 C 52.941807 101.962158 53.126827 102.709206 53.079994 103.459999 C 53.125492 104.232277 52.933563 104.999985 52.529995 105.659996 C 52.195179 106.163361 51.624268 106.458267 51.019997 106.439995 C 50.784885 106.439087 50.551609 106.398521 50.329998 106.319992 C 50.111115 106.239212 49.908051 106.120766 49.730000 105.969994 L 49.730000 108.610001 Z M 50.500000 101.699997 C 50.222935 101.697105 49.952522 101.784897 49.730000 101.949997 L 49.730000 105.059998 C 49.958672 105.221687 50.230049 105.312141 50.509998 105.320000 C 50.810665 105.339958 51.092697 105.173119 51.219997 104.900002 C 51.388615 104.463989 51.460274 103.996498 51.429996 103.529999 C 51.462280 103.050362 51.390652 102.569412 51.219997 102.119995 C 51.089169 101.845284 50.803520 101.678658 50.499996 101.699997 Z" fill="#232F3E"/><path d=" M 56.619999 106.250000 C 56.299801 106.366165 55.960457 106.420456 55.619999 106.410004 C 55.223782 106.445717 54.831078 106.311180 54.539997 106.040001 C 54.276508 105.729019 54.147053 105.326263 54.179996 104.919998 L 54.180000 98.209999 L 55.830002 98.209999 L 55.830002 104.750000 C 55.819199 104.888161 55.846889 105.026619 55.910004 105.150002 C 55.989674 105.241310 56.109940 105.286407 56.230003 105.270004 C 56.346474 105.279564 56.463531 105.279564 56.580002 105.270004 Z" fill="#232F3E"/><path d=" M 59.740002 106.489998 C 59.041233 106.527954 58.363464 106.244324 57.900002 105.720001 C 57.033985 104.392052 57.033985 102.677956 57.900002 101.349998 C 58.898827 100.333794 60.532333 100.319710 61.548538 101.318535 C 61.559116 101.328934 61.569607 101.339424 61.580002 101.349998 C 62.446018 102.677948 62.446018 104.392044 61.580002 105.720001 C 61.118324 106.246819 60.439289 106.530983 59.740002 106.489998 Z M 59.740002 105.339996 C 60.026321 105.350388 60.287560 105.177567 60.390003 104.909996 C 60.645138 104.014481 60.645138 103.065514 60.390003 102.169998 C 60.290920 101.898483 60.028896 101.721115 59.740002 101.729996 C 59.452866 101.719078 59.192627 101.897987 59.100002 102.169998 C 58.833206 103.063850 58.833206 104.016151 59.100002 104.909996 C 59.196114 105.178047 59.455509 105.352325 59.740002 105.339996 Z" fill="#232F3E"/><path d=" M 64.720001 106.459999 L 62.720001 100.720001 L 64.470001 100.720001 L 65.389999 104.860001 L 66.300003 100.720001 L 68.000000 100.720001 L 66.000000 107.199997 C 65.891495 107.650528 65.655403 108.060219 65.320000 108.379997 C 65.009270 108.629692 64.618233 108.757668 64.220001 108.739998 C 63.860653 108.740013 63.503334 108.686081 63.160000 108.579994 L 63.160000 107.580002 C 63.349770 107.593224 63.540230 107.593224 63.730000 107.580002 C 63.980152 107.601768 64.228615 107.522552 64.419998 107.360001 C 64.596962 107.152000 64.702164 106.892509 64.720001 106.620003 Z" fill="#232F3E"/></g><g id="ICONS_-_EDIT"><path d=" M 32.000000 40.689999 L 32.000000 40.689999 C 31.470324 40.690952 31.031780 40.278721 31.000000 39.750000 C 30.900000 38.279999 30.309999 37.750000 29.129999 36.570000 L 29.000000 36.410000 C 27.658264 35.116276 25.863827 34.398499 24.000000 34.410000 C 20.200001 34.410000 17.469999 36.330002 17.000000 39.320000 C 16.904999 39.845783 16.433529 40.218674 15.900000 40.189999 C 15.371384 40.137413 14.976141 39.680687 15.000000 39.149998 C 15.300613 25.606335 26.454041 14.832124 40.000000 14.999998 C 54.000000 15.000000 64.739998 25.379999 65.000000 39.160000 L 65.000000 39.270000 C 65.000000 39.822285 64.552284 40.270000 64.000000 40.270000 C 63.447716 40.270000 63.000000 39.822285 63.000000 39.270000 L 63.000000 39.209999 C 63.000000 38.380001 62.180000 37.560001 61.000000 36.400002 C 59.661232 35.101692 57.864838 34.383137 56.000000 34.400002 C 52.930000 34.400002 49.259998 35.790001 49.000000 39.730000 C 48.963177 40.254776 48.526066 40.661289 48.000000 40.660000 C 47.481033 40.662106 47.046703 40.266865 47.000000 39.750000 L 47.000000 39.560001 C 46.849998 38.160000 46.330002 37.669998 45.310001 36.689999 L 45.000000 36.410000 C 43.658264 35.116276 41.863827 34.398499 40.000000 34.410000 C 36.889999 34.410000 33.419998 35.740002 33.000000 39.480000 L 33.000000 39.759998 C 32.963177 40.284775 32.526066 40.691288 32.000000 40.689999 Z M 24.000000 32.430000 C 26.377535 32.421631 28.663927 33.344086 30.370001 35.000000 L 30.520000 35.150002 C 31.006008 35.587749 31.457359 36.062504 31.870001 36.570000 C 33.270000 34.000000 36.209999 32.450001 40.009998 32.450001 C 42.385124 32.434139 44.671909 33.349575 46.379997 35.000000 L 46.689999 35.299999 C 47.121128 35.692394 47.525372 36.113342 47.899998 36.559998 C 49.310001 34.000000 52.270000 32.430000 56.000000 32.430000 C 58.381607 32.415794 60.673237 33.338913 62.380001 35.000000 L 62.590000 35.200001 C 60.580002 24.570000 51.500000 17.000000 40.000000 17.000000 C 29.388578 16.856033 20.101187 24.102192 17.660000 34.430000 C 19.481153 33.055435 21.719759 32.349251 24.000000 32.430000 Z" fill="#FFFFFF"/><rect x="19.520000" y="36.800000" width="2.000000" height="10.670000" fill="#FFFFFF" transform="matrix(0.545517,-0.838100,0.838100,0.545517,-25.990000,36.340000)"/><rect x="55.160000" y="41.040000" width="9.720000" height="2.000000" fill="#FFFFFF" transform="matrix(0.820651,-0.571430,0.571430,0.820651,-13.260000,41.840000)"/><path d=" M 47.790001 44.259998 L 45.860001 43.740002 L 47.000000 39.529999 C 47.000000 39.349998 47.000000 39.240002 47.000000 39.150002 C 47.000000 39.060001 47.000000 38.959999 47.000000 38.570000 C 47.000000 25.860001 43.340000 17.000000 40.000000 17.000000 C 36.660000 17.000000 33.000000 25.860001 33.000000 38.570000 L 33.000000 39.000000 C 33.000000 39.139999 33.000000 39.180000 33.000000 39.490002 L 34.139999 43.709999 L 32.209999 44.230000 L 31.000000 40.000000 C 30.995195 39.916737 30.995195 39.833263 31.000000 39.750000 C 31.000000 39.270000 31.000000 39.240002 31.000000 39.060001 L 31.000000 38.619999 C 31.000000 23.260000 35.639999 15.000000 40.000000 15.000000 C 44.360001 15.000000 49.000000 23.260000 49.000000 38.570000 C 49.000000 39.029999 49.000000 39.099998 49.000000 39.250000 C 49.000000 39.400002 49.000000 39.459999 49.000000 39.709999 C 48.995071 39.743149 48.995071 39.776848 49.000000 39.809998 L 49.000000 40.000000 Z" fill="#FFFFFF"/><path d=" M 35.669998 58.759998 L 32.000000 55.150002 C 31.790945 54.946251 31.681356 54.661327 31.700001 54.370003 C 31.718058 54.076527 31.864359 53.805866 32.100002 53.630001 L 36.240002 50.529999 L 37.439999 52.139999 L 34.230000 54.529999 L 37.099998 57.320000 Z" fill="#FFFFFF"/><path d=" M 44.810001 59.349998 L 43.610001 57.750000 L 46.820000 55.349998 L 44.000000 52.560001 L 45.400002 51.130001 L 49.099998 54.730000 C 49.309055 54.933750 49.418640 55.218674 49.399998 55.509998 C 49.381939 55.803474 49.235638 56.074135 48.999996 56.250000 Z" fill="#FFFFFF"/><rect x="33.910000" y="54.500000" width="13.110000" height="2.000000" fill="#FFFFFF" transform="matrix(0.403386,-0.915030,0.915030,0.403386,-26.640000,70.150000)"/><path d=" M 53.000000 65.000000 L 28.000000 65.000000 C 27.447716 65.000000 27.000000 64.552284 27.000000 64.000000 L 27.000000 47.000000 C 27.000000 46.447716 27.447716 46.000000 28.000000 46.000000 L 53.000000 46.000000 C 53.552284 46.000000 54.000000 46.447716 54.000000 47.000000 L 54.000000 64.000000 C 54.000000 64.552284 53.552284 65.000000 53.000000 65.000000 Z M 29.000000 63.000000 L 52.000000 63.000000 L 52.000000 48.000000 L 29.000000 48.000000 Z" fill="#FFFFFF"/></g></svg>