<svg version="1.1" width="80.000000" height="115.000000" viewBox="0.000000 0.000000 80.000000 115.000000" xmlns="http://www.w3.org/2000/svg" xmlns:xlink="http://www.w3.org/1999/xlink" overflow="hidden"><g id="CARDS"><rect x="1.000000" y="1.000000" width="78.000000" height="78.000000" fill="#232F3E"/><path d=" M 0.000000 0.000000 L 0.000000 80.000000 L 0.000000 80.000000 L 0.000000 115.000000 L 80.000000 115.000000 L 80.000000 80.000000 L 80.000000 80.000000 L 80.000000 0.000000 Z M 1.000000 1.000000 L 79.000000 1.000000 L 79.000000 79.000000 L 1.000000 79.000000 Z" fill="#FFFFFF"/></g><g id="TEXT_-_EDIT"><path d=" M 33.689999 92.349998 L 33.250000 90.529999 L 31.250000 90.529999 L 30.830000 92.349998 L 29.059999 92.349998 L 31.370001 84.720001 L 33.240002 84.720001 L 35.540001 92.349998 Z M 31.510000 89.430000 L 33.000000 89.430000 L 32.240002 86.269997 Z" fill="#232F3E"/><path d=" M 40.889999 92.349998 L 40.000000 86.720001 L 39.110001 92.349998 L 37.189999 92.349998 L 35.410000 84.720001 L 37.110001 84.720001 L 38.169998 90.779999 L 39.080002 85.000000 L 40.919998 85.000000 L 41.860001 90.650002 L 42.860001 84.650002 L 44.520000 84.650002 L 42.740002 92.279999 Z" fill="#232F3E"/><path d=" M 46.840000 89.000000 C 46.345402 88.768761 45.910801 88.426559 45.570000 88.000000 C 45.307678 87.644348 45.170536 87.211830 45.180000 86.769997 C 45.168892 86.354126 45.287739 85.945145 45.520000 85.599998 C 45.745701 85.259720 46.065289 84.992241 46.439999 84.830002 C 46.861813 84.643929 47.319042 84.551804 47.779999 84.560005 C 48.429764 84.562088 49.072483 84.694710 49.669998 84.950005 L 49.669998 86.120003 C 49.134098 85.923050 48.570534 85.811684 48.000000 85.790001 C 47.718163 85.774521 47.439480 85.855652 47.209999 86.020004 C 47.013199 86.172058 46.904575 86.411781 46.919998 86.660004 C 46.912312 86.862022 46.976040 87.060295 47.099998 87.220001 C 47.307770 87.423737 47.552021 87.586571 47.820000 87.700005 L 48.470001 88.019997 C 48.826054 88.187546 49.161602 88.395592 49.470001 88.639999 C 49.698788 88.827263 49.883213 89.062912 50.010002 89.330002 C 50.129375 89.621704 50.187252 89.934906 50.180000 90.250000 C 50.210262 90.886475 49.935429 91.499283 49.439999 91.900002 C 48.864475 92.329575 48.157295 92.545265 47.439999 92.510002 C 47.060139 92.510231 46.681335 92.470001 46.309998 92.389999 C 45.980469 92.326210 45.660961 92.218590 45.359997 92.070000 L 45.360001 90.919998 C 45.687019 91.026825 46.021187 91.110367 46.360001 91.169998 C 46.689121 91.238113 47.023945 91.274940 47.360001 91.279999 C 47.673580 91.302475 47.985077 91.213982 48.240002 91.029999 C 48.446396 90.853905 48.557594 90.590736 48.540001 90.320000 C 48.546089 90.107033 48.471024 89.899704 48.330002 89.739998 C 48.122326 89.543411 47.882092 89.384384 47.620003 89.269997 Z" fill="#232F3E"/><path d=" M 15.210000 106.129997 C 14.645158 106.360497 14.040032 106.476082 13.430000 106.469994 C 11.183333 106.470001 10.060000 105.169998 10.060000 102.570000 C 9.988548 101.512779 10.301020 100.465294 10.940001 99.620003 C 11.587661 98.919678 12.518552 98.551743 13.470000 98.620003 C 14.033499 98.620705 14.592318 98.722313 15.120000 98.920006 L 15.120000 100.129997 C 14.648504 99.991577 14.161185 99.914284 13.670000 99.899994 C 13.130755 99.856819 12.605546 100.085663 12.270000 100.509995 C 11.933435 101.094772 11.780154 101.767120 11.830001 102.439995 L 11.830000 102.690002 C 11.776975 103.352310 11.926965 104.015060 12.260000 104.590004 C 12.582573 105.013901 13.099139 105.243904 13.630000 105.200005 C 14.164768 105.173027 14.694785 105.085808 15.210000 104.940002 Z" fill="#232F3E"/><path d=" M 18.440001 106.489998 C 17.741234 106.527954 17.063465 106.244324 16.600000 105.720001 C 15.733985 104.392052 15.733985 102.677956 16.600000 101.349998 C 17.063465 100.825676 17.741234 100.542038 18.440001 100.580002 C 19.139286 100.539024 19.818325 100.823189 20.280001 101.349998 C 21.159155 102.674011 21.159155 104.395981 20.280001 105.720001 C 19.818325 106.246819 19.139286 106.530983 18.440001 106.489998 Z M 18.440001 105.339996 C 18.726320 105.350388 18.987558 105.177567 19.090000 104.909996 C 19.345135 104.014481 19.345135 103.065514 19.090000 102.169998 C 18.990919 101.898483 18.728891 101.721115 18.440001 101.729996 C 18.152863 101.719078 17.892628 101.897987 17.800001 102.169998 C 17.533203 103.063850 17.533203 104.016151 17.800001 104.909996 C 17.896114 105.178047 18.155510 105.352325 18.440001 105.339996 Z" fill="#232F3E"/><path d=" M 25.340000 106.349998 L 25.209999 105.860001 C 25.029530 106.042419 24.815639 106.188408 24.580000 106.290001 C 24.352375 106.387421 24.107592 106.438423 23.860001 106.440002 C 23.261477 106.464928 22.691792 106.181969 22.350000 105.690002 C 21.955482 105.052330 21.766935 104.308617 21.809999 103.560005 C 21.765650 102.789658 21.961304 102.024506 22.369999 101.370003 C 22.707567 100.858131 23.287205 100.558846 23.900000 100.580002 C 24.115471 100.590401 24.328011 100.634262 24.529999 100.709999 C 24.748533 100.789223 24.954105 100.900436 25.139999 101.040001 L 25.139999 98.209999 L 26.790001 98.209999 L 26.790001 106.349998 Z M 24.420000 105.349998 C 24.676092 105.346977 24.925955 105.270630 25.139999 105.129997 L 25.139999 102.000000 C 24.903343 101.839310 24.625910 101.749138 24.340000 101.739998 C 24.046488 101.731621 23.778944 101.907326 23.670000 102.180000 C 23.503645 102.623573 23.432108 103.097084 23.460001 103.570000 C 23.431810 104.034950 23.510489 104.500175 23.690001 104.930000 C 23.836843 105.190842 24.121548 105.342941 24.420000 105.320000 Z" fill="#232F3E"/><path d=" M 29.430000 103.919998 C 29.409250 104.324760 29.537298 104.723129 29.790001 105.040001 C 30.085566 105.286263 30.466881 105.404976 30.850000 105.370003 C 31.079201 105.363998 31.307129 105.333832 31.530001 105.280006 C 31.801527 105.230042 32.068939 105.159843 32.330002 105.070007 L 32.330002 106.070000 C 32.071762 106.217194 31.791510 106.321869 31.500002 106.379997 C 31.171478 106.451813 30.836281 106.488686 30.500002 106.489998 C 28.780001 106.489998 27.920000 105.489998 27.920000 103.540001 C 27.869846 102.754425 28.096273 101.976082 28.559999 101.340004 C 29.014650 100.816292 29.687925 100.535149 30.379999 100.580002 C 31.750000 100.580002 32.380001 101.339996 32.380001 102.870003 C 32.379128 103.206871 32.338856 103.542488 32.260002 103.870003 Z M 30.340000 101.599998 C 29.770000 101.599998 29.459999 102.059998 29.430000 102.970001 L 31.000000 102.970001 L 31.000000 102.720001 C 31.025040 102.423065 30.966135 102.125076 30.830000 101.860001 C 30.720133 101.697166 30.536430 101.599693 30.340000 101.599998 Z" fill="#232F3E"/><path d=" M 38.619999 106.129997 C 38.055157 106.360497 37.450031 106.476082 36.840000 106.469994 C 34.593334 106.470001 33.466667 105.169998 33.459999 102.570000 C 33.393913 101.513390 33.705841 100.467720 34.340000 99.620003 C 34.989338 98.922134 35.919006 98.554680 36.869999 98.620003 C 37.433655 98.618950 37.992786 98.720612 38.520000 98.920006 L 38.520000 100.129997 C 38.052052 99.991005 37.567963 99.913689 37.080002 99.899994 C 36.540455 99.854988 36.014416 100.084198 35.680000 100.509995 C 35.335201 101.091789 35.178070 101.765701 35.230000 102.439995 L 35.230000 102.690002 C 35.179348 103.353394 35.332886 104.016403 35.669998 104.590004 C 35.992569 105.013901 36.509136 105.243904 37.039997 105.200005 C 37.574764 105.173027 38.104782 105.085808 38.619999 104.940002 Z" fill="#232F3E"/><path d=" M 41.849998 106.489998 C 41.150711 106.530975 40.471676 106.246811 40.009998 105.720001 C 39.130844 104.395988 39.130844 102.674019 40.009998 101.349998 C 41.008823 100.333794 42.642330 100.319710 43.658535 101.318535 C 43.669113 101.328934 43.679604 101.339424 43.689999 101.349998 C 44.556015 102.677948 44.556015 104.392044 43.689999 105.720001 C 43.226536 106.244324 42.548767 106.527962 41.849998 106.489998 Z M 41.849998 105.339996 C 42.134491 105.352325 42.393887 105.178047 42.489998 104.909996 C 42.756794 104.016144 42.756794 103.063843 42.489998 102.169998 C 42.397369 101.897995 42.137135 101.719078 41.849998 101.729996 C 41.561108 101.721107 41.299080 101.898483 41.199997 102.169998 C 40.944862 103.065514 40.944862 104.014481 41.199997 104.909996 C 41.302437 105.177567 41.563679 105.350380 41.849998 105.339996 Z" fill="#232F3E"/><path d=" M 51.570000 106.349998 L 51.570000 102.639999 C 51.586662 102.401566 51.538277 102.163086 51.430000 101.949997 C 51.329906 101.796371 51.152416 101.711487 50.970001 101.729996 C 50.684830 101.743271 50.408489 101.833084 50.170002 101.989998 C 50.174820 102.029854 50.174820 102.070145 50.170002 102.110001 L 50.169998 106.349998 L 48.540001 106.349998 L 48.540001 102.639999 C 48.556664 102.401566 48.508278 102.163086 48.400002 101.949997 C 48.295143 101.796478 48.115055 101.712181 47.930000 101.729996 C 47.651337 101.744865 47.381855 101.834694 47.150002 101.989998 L 47.150002 106.349998 L 45.500000 106.349998 L 45.500000 100.720001 L 46.849998 100.720001 L 46.980000 101.230003 C 47.505703 100.838974 48.135632 100.612755 48.790001 100.580002 C 49.287907 100.543671 49.759682 100.807076 49.990002 101.250000 C 50.520992 100.851845 51.157452 100.618820 51.820004 100.580002 C 52.198608 100.567619 52.563782 100.720993 52.820004 101.000000 C 53.080433 101.351334 53.207977 101.783562 53.180004 102.220001 L 53.180000 106.349998 Z" fill="#232F3E"/><path d=" M 60.689999 106.349998 L 60.689999 102.639999 C 60.711563 102.401268 60.662903 102.161446 60.549999 101.949997 C 60.449905 101.796371 60.272415 101.711487 60.090000 101.729996 C 59.804829 101.743271 59.528488 101.833084 59.290001 101.989998 C 59.294819 102.029854 59.294819 102.070145 59.290001 102.110001 L 59.290001 106.349998 L 57.660000 106.349998 L 57.660000 102.639999 C 57.676662 102.401566 57.628277 102.163086 57.520000 101.949997 C 57.415142 101.796478 57.235054 101.712181 57.049999 101.729996 C 56.771336 101.744865 56.501854 101.834694 56.270000 101.989998 L 56.270000 106.349998 L 54.619999 106.349998 L 54.619999 100.720001 L 56.000000 100.720001 L 56.130001 101.230003 C 56.655704 100.838974 57.285633 100.612755 57.940002 100.580002 C 58.437908 100.543671 58.909683 100.807076 59.140003 101.250000 C 59.670994 100.851845 60.307453 100.618820 60.970005 100.580002 C 61.348610 100.567619 61.713783 100.720993 61.970005 101.000000 C 62.230434 101.351334 62.357979 101.783562 62.330006 102.220001 L 62.330002 106.349998 Z" fill="#232F3E"/><path d=" M 64.610001 99.809998 C 64.353859 99.830612 64.099609 99.751831 63.900002 99.589996 C 63.720806 99.439140 63.621185 99.214073 63.630001 98.979996 C 63.619644 98.745628 63.719551 98.519913 63.900002 98.369995 C 64.320442 98.064751 64.889565 98.064751 65.310005 98.369995 C 65.484268 98.523682 65.579811 98.747849 65.570007 98.979996 C 65.577003 99.211624 65.481949 99.434639 65.310005 99.589996 C 65.112976 99.749374 64.862785 99.828011 64.610008 99.809998 Z M 63.779999 106.349998 L 63.779999 100.720001 L 65.430000 100.720001 L 65.430000 106.349998 Z" fill="#232F3E"/><path d=" M 69.919998 106.199997 C 69.526688 106.347153 69.109932 106.421692 68.689995 106.419998 C 68.217682 106.464508 67.746887 106.320755 67.379997 106.019997 C 67.075256 105.658775 66.927635 105.190689 66.969994 104.719994 L 66.970001 101.820000 L 66.230003 101.820000 L 66.230003 100.900002 L 67.019997 100.750000 L 67.260002 99.209999 L 68.620003 99.209999 L 68.620003 100.720001 L 69.900002 100.720001 L 69.900002 101.820000 L 68.620003 101.820000 L 68.620003 104.589996 C 68.604332 104.774376 68.653877 104.958412 68.760002 105.109993 C 68.907173 105.233894 69.098854 105.291756 69.290001 105.269997 C 69.502274 105.266159 69.713509 105.239334 69.919998 105.189995 Z" fill="#232F3E"/></g><g id="ICONS_-_EDIT"><path d=" M 20.000000 25.059999 C 17.238577 25.059999 15.000000 22.821423 15.000000 20.059999 C 15.000000 17.298576 17.238577 15.059999 20.000000 15.059999 C 22.761423 15.059999 25.000000 17.298576 25.000000 20.059999 C 25.000000 22.821423 22.761423 25.059999 20.000000 25.059999 Z M 20.000000 17.059999 C 18.343145 17.059999 17.000000 18.403145 17.000000 20.059999 C 17.000000 21.716854 18.343145 23.059999 20.000000 23.059999 C 21.656855 23.059999 23.000000 21.716854 23.000000 20.059999 C 23.000000 18.403145 21.656855 17.059999 20.000000 17.059999 Z" fill="#FFFFFF"/><path d=" M 20.000000 47.130001 C 17.238577 47.130001 15.000000 44.891426 15.000000 42.130001 C 15.000000 39.368576 17.238577 37.130001 20.000000 37.130001 C 22.761423 37.130001 25.000000 39.368576 25.000000 42.130001 C 25.000000 44.891426 22.761423 47.130001 20.000000 47.130001 Z M 20.000000 39.130001 C 18.343145 39.130001 17.000000 40.473148 17.000000 42.130001 C 17.000000 43.786854 18.343145 45.130001 20.000000 45.130001 C 21.656855 45.130001 23.000000 43.786854 23.000000 42.130001 C 23.000000 40.473148 21.656855 39.130001 20.000000 39.130001 Z" fill="#FFFFFF"/><path d=" M 20.000000 64.709999 C 17.238577 64.709999 15.000000 62.471424 15.000000 59.709999 C 15.000000 56.948574 17.238577 54.709999 20.000000 54.709999 C 22.761423 54.709999 25.000000 56.948574 25.000000 59.709999 C 25.000000 62.471424 22.761423 64.709999 20.000000 64.709999 Z M 20.000000 56.709999 C 18.343145 56.709999 17.000000 58.053146 17.000000 59.709999 C 17.000000 61.366852 18.343145 62.709999 20.000000 62.709999 C 21.656855 62.709999 23.000000 61.366852 23.000000 59.709999 C 23.000000 58.053146 21.656855 56.709999 20.000000 56.709999 Z" fill="#FFFFFF"/><rect x="19.000000" y="23.940000" width="2.000000" height="14.000000" fill="#FFFFFF"/><rect x="19.000000" y="46.940000" width="2.000000" height="9.000000" fill="#FFFFFF"/><path d=" M 22.000000 56.939999 C 22.008745 54.830303 23.323023 52.946507 25.299999 52.209999 L 34.369999 48.650002 C 35.317207 48.314327 35.963379 47.434261 36.000000 46.430000 L 36.000000 38.939999 L 38.000000 38.939999 L 38.000000 46.430000 C 37.965149 48.257229 36.814232 49.876450 35.099998 50.510002 L 26.000000 54.070000 C 24.817944 54.487736 24.020296 55.596466 24.000000 56.849998 Z" fill="#FFFFFF"/><path d=" M 64.000000 64.940002 L 37.000000 64.940002 C 36.447716 64.940002 36.000000 64.492287 36.000000 63.940002 L 36.000000 52.939999 L 38.000000 52.939999 L 38.000000 62.939999 L 63.000000 62.939999 L 63.000000 26.940001 L 38.000000 26.940001 L 38.000000 24.940001 L 64.000000 24.940001 C 64.552284 24.940001 65.000000 25.387716 65.000000 25.940001 L 65.000000 63.939999 C 65.000000 64.492287 64.552284 64.940002 64.000000 64.940002 Z" fill="#FFFFFF"/><path d=" M 45.820000 49.410000 L 41.820000 45.500000 C 41.425205 45.113792 41.418243 44.480667 41.804451 44.085873 C 41.834427 44.055229 41.866341 44.026546 41.899998 44.000000 L 46.389999 40.639999 L 47.590000 42.240002 L 44.000000 44.880001 L 47.209999 48.000000 Z" fill="#FFFFFF"/><path d=" M 55.610001 50.000000 L 54.410000 48.400002 L 58.000000 45.779999 L 54.830002 42.689999 L 56.220001 41.250000 L 60.220001 45.169998 C 60.429058 45.373749 60.538643 45.658672 60.520000 45.949997 C 60.499092 46.239899 60.353088 46.506359 60.119999 46.679996 Z" fill="#FFFFFF"/><rect x="43.850000" y="44.940000" width="14.220000" height="2.000000" fill="#FFFFFF" transform="matrix(0.402267,-0.915522,0.915522,0.402267,-11.600000,74.110000)"/><path d=" M 37.000000 39.939999 C 34.238575 39.939999 32.000000 37.701424 32.000000 34.939999 C 32.000000 32.178574 34.238575 29.939999 37.000000 29.939999 C 39.761425 29.939999 42.000000 32.178574 42.000000 34.939999 C 42.000000 37.701424 39.761425 39.939999 37.000000 39.939999 Z M 37.000000 31.940001 C 35.343147 31.940001 34.000000 33.283146 34.000000 34.940002 C 34.000000 36.596855 35.343147 37.940002 37.000000 37.940002 C 38.656853 37.940002 40.000000 36.596855 40.000000 34.940002 C 40.000000 33.283150 38.656853 31.940002 37.000000 31.940002 Z" fill="#FFFFFF"/><path d=" M 27.000000 28.940001 L 27.000000 22.940001 L 33.000000 22.940001" fill="#FFFFFF"/><path d=" M 28.000000 28.940001 L 26.000000 28.940001 L 26.000000 22.940001 C 26.000000 22.387716 26.447716 21.940001 27.000000 21.940001 L 33.000000 21.940001 L 33.000000 23.940001 L 28.000000 23.940001 Z" fill="#FFFFFF"/><line x1="33.000000" y1="28.940000" x2="27.000000" y2="22.940000" fill="#FFFFFF"/><rect x="29.000000" y="21.690000" width="2.000000" height="8.490000" fill="#FFFFFF" transform="matrix(0.707107,-0.707107,0.707107,0.707107,-9.550000,28.810000)"/></g></svg>