<svg version="1.1" width="80.000000" height="115.000000" viewBox="0.000000 0.000000 80.000000 115.000000" xmlns="http://www.w3.org/2000/svg" xmlns:xlink="http://www.w3.org/1999/xlink" overflow="hidden"><g id="CARDS"><rect x="1.000000" y="1.000000" width="78.000000" height="78.000000" fill="#232F3E"/><path d=" M 0.000000 0.000000 L 0.000000 80.000000 L 0.000000 80.000000 L 0.000000 115.000000 L 80.000000 115.000000 L 80.000000 80.000000 L 80.000000 80.000000 L 80.000000 0.000000 Z M 1.000000 1.000000 L 79.000000 1.000000 L 79.000000 79.000000 L 1.000000 79.000000 Z" fill="#FFFFFF"/></g><g id="TEXT_-_EDIT"><path d=" M 33.689999 92.349998 L 33.250000 90.529999 L 31.250000 90.529999 L 30.830000 92.349998 L 29.059999 92.349998 L 31.370001 84.720001 L 33.240002 84.720001 L 35.540001 92.349998 Z M 31.510000 89.430000 L 33.000000 89.430000 L 32.240002 86.269997 Z" fill="#232F3E"/><path d=" M 40.889999 92.349998 L 40.000000 86.720001 L 39.110001 92.349998 L 37.189999 92.349998 L 35.410000 84.720001 L 37.110001 84.720001 L 38.169998 90.779999 L 39.080002 85.000000 L 40.919998 85.000000 L 41.860001 90.650002 L 42.860001 84.650002 L 44.520000 84.650002 L 42.740002 92.279999 Z" fill="#232F3E"/><path d=" M 46.840000 89.000000 C 46.345402 88.768761 45.910801 88.426559 45.570000 88.000000 C 45.307678 87.644348 45.170536 87.211830 45.180000 86.769997 C 45.168892 86.354126 45.287739 85.945145 45.520000 85.599998 C 45.745701 85.259720 46.065289 84.992241 46.439999 84.830002 C 46.861813 84.643929 47.319042 84.551804 47.779999 84.560005 C 48.429764 84.562088 49.072483 84.694710 49.669998 84.950005 L 49.669998 86.120003 C 49.134098 85.923050 48.570534 85.811684 48.000000 85.790001 C 47.718163 85.774521 47.439480 85.855652 47.209999 86.020004 C 47.013199 86.172058 46.904575 86.411781 46.919998 86.660004 C 46.912312 86.862022 46.976040 87.060295 47.099998 87.220001 C 47.307770 87.423737 47.552021 87.586571 47.820000 87.700005 L 48.470001 88.019997 C 48.826054 88.187546 49.161602 88.395592 49.470001 88.639999 C 49.698788 88.827263 49.883213 89.062912 50.010002 89.330002 C 50.129375 89.621704 50.187252 89.934906 50.180000 90.250000 C 50.210262 90.886475 49.935429 91.499283 49.439999 91.900002 C 48.864475 92.329575 48.157295 92.545265 47.439999 92.510002 C 47.060139 92.510231 46.681335 92.470001 46.309998 92.389999 C 45.980469 92.326210 45.660961 92.218590 45.359997 92.070000 L 45.360001 90.919998 C 45.687019 91.026825 46.021187 91.110367 46.360001 91.169998 C 46.689121 91.238113 47.023945 91.274940 47.360001 91.279999 C 47.673580 91.302475 47.985077 91.213982 48.240002 91.029999 C 48.446396 90.853905 48.557594 90.590736 48.540001 90.320000 C 48.546089 90.107033 48.471024 89.899704 48.330002 89.739998 C 48.122326 89.543411 47.882092 89.384384 47.620003 89.269997 Z" fill="#232F3E"/><path d=" M 21.340000 106.129997 C 20.774855 106.359474 20.169937 106.475021 19.559999 106.469994 C 17.313334 106.470001 16.186666 105.169998 16.180000 102.570000 C 16.113914 101.513390 16.425842 100.467720 17.059999 99.620003 C 17.709337 98.922134 18.639004 98.554680 19.590000 98.620003 C 20.153498 98.620705 20.712317 98.722313 21.240000 98.920006 L 21.240000 100.129997 C 20.772051 99.991005 20.287962 99.913689 19.799999 99.899994 C 19.260450 99.854988 18.734413 100.084198 18.400000 100.509995 C 18.055201 101.091789 17.898069 101.765701 17.949999 102.439995 L 17.950001 102.690002 C 17.899347 103.353394 18.052887 104.016403 18.390001 104.590004 C 18.711363 105.015427 19.228815 105.245827 19.760002 105.200005 C 20.294769 105.173027 20.824787 105.085808 21.340002 104.940002 Z" fill="#232F3E"/><path d=" M 24.570000 106.489998 C 23.868313 106.528084 23.187447 106.244698 22.719999 105.720001 C 21.853985 104.392052 21.853985 102.677956 22.719999 101.349998 C 23.187447 100.825302 23.868313 100.541916 24.570000 100.580002 C 25.268766 100.542046 25.946535 100.825676 26.410000 101.349998 C 27.276014 102.677948 27.276014 104.392044 26.410000 105.720001 C 25.946535 106.244324 25.268766 106.527962 24.570000 106.489998 Z M 24.570000 105.339996 C 24.853582 105.349129 25.111271 105.175995 25.209999 104.909996 C 25.476797 104.016144 25.476797 103.063843 25.209999 102.169998 C 25.114674 101.900047 24.856182 101.722336 24.570000 101.729996 C 24.281109 101.721107 24.019081 101.898483 23.920000 102.169998 C 23.653202 103.063850 23.653202 104.016151 23.920000 104.909996 C 24.022442 105.177567 24.283680 105.350380 24.570000 105.339996 Z" fill="#232F3E"/><path d=" M 31.469999 106.349998 L 31.340000 105.860001 C 31.154745 106.041252 30.937824 106.186996 30.700001 106.290001 C 30.476145 106.388222 30.234457 106.439285 29.990002 106.440002 C 29.391071 106.466835 28.820513 106.183449 28.480001 105.690002 C 28.085484 105.052330 27.896936 104.308617 27.940001 103.560005 C 27.892666 102.790710 28.084806 102.025650 28.490000 101.370003 C 28.827568 100.858131 29.407206 100.558846 30.020000 100.580002 C 30.238848 100.589363 30.454844 100.633240 30.660000 100.709999 C 30.877571 100.791359 31.082848 100.902412 31.270000 101.040001 L 31.270000 98.209999 L 32.919998 98.209999 L 32.919998 106.349998 Z M 30.540001 105.349998 C 30.799002 105.345612 31.051706 105.269455 31.270000 105.129997 L 31.270000 102.000000 C 31.032629 101.840775 30.755629 101.750748 30.470001 101.739998 C 30.175640 101.728607 29.906513 101.905350 29.800001 102.180000 C 29.633646 102.623573 29.562109 103.097084 29.590002 103.570000 C 29.561811 104.034950 29.640490 104.500175 29.820002 104.930000 C 29.961599 105.191101 30.243948 105.344040 30.540001 105.320000 Z" fill="#232F3E"/><path d=" M 35.549999 103.919998 C 35.536594 104.325401 35.667732 104.722366 35.919998 105.040001 C 36.214470 105.288261 36.596642 105.407242 36.980000 105.370003 C 37.209202 105.363998 37.437130 105.333832 37.660000 105.280006 C 37.931252 105.228806 38.198574 105.158638 38.459999 105.070007 L 38.459999 106.070000 C 38.200977 106.215523 37.920998 106.320099 37.629997 106.379997 C 37.301472 106.451813 36.966274 106.488686 36.629997 106.489998 C 34.910000 106.489998 34.049999 105.489998 34.049999 103.540001 C 33.996960 102.755630 34.219818 101.977402 34.680000 101.340004 C 35.137764 100.814682 35.814766 100.533524 36.510002 100.580002 C 37.869999 100.580002 38.509998 101.339996 38.509998 102.870003 C 38.509125 103.206871 38.468853 103.542488 38.389999 103.870003 Z M 36.470001 101.599998 C 35.889999 101.599998 35.590000 102.059998 35.549999 102.970001 L 37.169998 102.970001 L 37.169998 102.720001 C 37.190441 102.423340 37.131779 102.126572 37.000000 101.860001 C 36.882511 101.684830 36.680443 101.585701 36.470001 101.599998 Z" fill="#232F3E"/><path d=" M 39.810001 106.349998 L 39.810001 98.720001 L 42.320000 98.720001 C 42.917332 98.695900 43.502159 98.895592 43.959999 99.279999 C 44.383221 99.649055 44.618195 100.188759 44.599998 100.750000 C 44.614204 101.100403 44.527428 101.447510 44.349998 101.750000 C 44.174019 102.026451 43.914948 102.240005 43.609997 102.360001 C 44.007874 102.473038 44.358612 102.711540 44.609997 103.040001 C 45.173073 103.917397 45.025543 105.072319 44.259998 105.779999 C 43.726894 106.193230 43.063725 106.402466 42.389999 106.369995 Z M 41.400002 99.820000 L 41.400002 101.930000 L 42.070000 101.930000 C 42.319180 101.942482 42.561012 101.843552 42.730000 101.660004 C 42.910019 101.445457 42.999657 101.169380 42.980000 100.890007 C 42.992023 100.611443 42.918758 100.335838 42.770000 100.100006 C 42.628376 99.918999 42.409779 99.815262 42.180000 99.820007 Z M 41.400002 102.980003 L 41.400002 105.250000 L 42.400002 105.250000 C 42.668076 105.264053 42.928429 105.157715 43.110001 104.959999 C 43.286034 104.716812 43.370983 104.419479 43.350002 104.120003 C 43.370964 103.815750 43.274315 103.515060 43.080002 103.280006 C 42.878590 103.073669 42.597916 102.964317 42.310001 102.980003 Z" fill="#232F3E"/><path d=" M 49.349998 106.349998 L 49.220001 105.839996 C 48.703743 106.234428 48.079060 106.461273 47.430000 106.489998 C 47.047653 106.511559 46.677372 106.352333 46.430000 106.059998 C 46.179745 105.696587 46.056686 105.260620 46.080002 104.820000 L 46.080002 100.720001 L 47.730000 100.720001 L 47.730000 104.339996 C 47.709488 104.603439 47.754135 104.867889 47.860001 105.109993 C 47.952515 105.267639 48.128036 105.357353 48.310001 105.339996 C 48.582058 105.331230 48.845867 105.244446 49.070000 105.089996 L 49.070000 100.720001 L 50.700001 100.720001 L 50.700001 106.349998 Z" fill="#232F3E"/><path d=" M 53.000000 99.809998 C 52.743858 99.830612 52.489609 99.751831 52.290001 99.589996 C 52.108875 99.447479 52.002205 99.230461 52.000000 99.000000 C 51.989643 98.765633 52.089550 98.539917 52.270000 98.389999 C 52.690441 98.084755 53.259560 98.084755 53.680000 98.389999 C 53.876743 98.531624 53.995300 98.757629 54.000000 99.000000 C 54.006992 99.231628 53.911938 99.454643 53.740002 99.610001 C 53.529694 99.772316 53.263443 99.844276 53.000000 99.809998 Z M 52.169998 106.349998 L 52.169998 100.720001 L 53.820000 100.720001 L 53.820000 106.349998 Z" fill="#232F3E"/><path d=" M 57.660000 106.250000 C 57.339802 106.366165 57.000458 106.420456 56.660000 106.410004 C 56.264244 106.441948 55.873024 106.307922 55.579998 106.040001 C 55.316509 105.729019 55.187054 105.326263 55.219997 104.919998 L 55.220001 98.209999 L 56.869999 98.209999 L 56.869999 104.750000 C 56.859196 104.888161 56.886887 105.026619 56.950001 105.150002 C 57.030697 105.239822 57.150143 105.284615 57.270000 105.270004 C 57.386471 105.279564 57.503529 105.279564 57.619999 105.270004 Z" fill="#232F3E"/><path d=" M 61.810001 106.349998 L 61.669998 105.860001 C 61.489529 106.042419 61.275639 106.188408 61.039997 106.290001 C 60.812374 106.387421 60.567589 106.438423 60.319996 106.440002 C 59.721470 106.464928 59.151787 106.181969 58.809998 105.690002 C 58.418976 105.051193 58.233944 104.307564 58.279999 103.560005 C 58.232666 102.790710 58.424805 102.025650 58.829998 101.370003 C 59.167568 100.858131 59.747204 100.558846 60.359997 100.580002 C 60.575634 100.589058 60.788387 100.632957 60.989998 100.709999 C 61.208534 100.789223 61.414104 100.900436 61.599998 101.040001 L 61.599998 98.209999 L 63.250000 98.209999 L 63.250000 106.349998 Z M 60.880001 105.349998 C 61.136093 105.346977 61.385956 105.270630 61.600002 105.129997 L 61.599998 102.000000 C 61.366196 101.841095 61.092480 101.751007 60.809998 101.739998 C 60.512878 101.727325 60.240185 101.903778 60.129997 102.180000 C 59.967899 102.624512 59.899796 103.097824 59.929996 103.570000 C 59.896957 104.035194 59.975822 104.501541 60.159996 104.930000 C 60.301594 105.191101 60.583942 105.344040 60.879997 105.320000 Z" fill="#232F3E"/></g><g id="ICONS_-_EDIT"><path d=" M 45.419998 50.750000 L 41.709999 47.150002 C 41.313755 46.765282 41.304417 46.132183 41.689137 45.735943 C 41.726517 45.697445 41.766933 45.662018 41.809998 45.630001 L 46.000000 42.529999 L 47.200001 44.139999 L 44.000000 46.529999 L 46.860001 49.320000 Z" fill="#FFFFFF"/><path d=" M 54.549999 51.349998 L 53.349998 49.750000 L 56.549999 47.349998 L 53.689999 44.560001 L 55.080002 43.130001 L 58.790001 46.730000 C 58.999058 46.933750 59.108643 47.218674 59.090000 47.509998 C 59.071941 47.803474 58.925640 48.074135 58.689999 48.250000 Z" fill="#FFFFFF"/><rect x="43.660000" y="46.500000" width="13.110000" height="2.000000" fill="#FFFFFF" transform="matrix(0.402267,-0.915522,0.915522,0.402267,-13.470000,74.360000)"/><path d=" M 63.750000 57.000000 L 37.750000 57.000000 C 37.197716 57.000000 36.750000 56.552284 36.750000 56.000000 L 36.750000 38.000000 C 36.750000 37.447716 37.197716 37.000000 37.750000 37.000000 L 63.750000 37.000000 C 64.302284 37.000000 64.750000 37.447716 64.750000 38.000000 L 64.750000 56.000000 C 64.750000 56.552284 64.302284 57.000000 63.750000 57.000000 Z M 38.750000 55.000000 L 62.750000 55.000000 L 62.750000 39.000000 L 38.750000 39.000000 Z" fill="#FFFFFF"/><path d=" M 30.750000 65.000000 L 19.750000 65.000000 C 19.197716 65.000000 18.750000 64.552284 18.750000 64.000000 L 18.750000 24.000000 C 18.750000 23.447716 19.197716 23.000000 19.750000 23.000000 L 30.750000 23.000000 C 31.302284 23.000000 31.750000 23.447716 31.750000 24.000000 L 31.750000 64.000000 C 31.750000 64.552284 31.302284 65.000000 30.750000 65.000000 Z M 20.750000 63.000000 L 29.750000 63.000000 L 29.750000 25.000000 L 20.750000 25.000000 Z" fill="#FFFFFF"/><path d=" M 20.410000 63.750000 L 19.090000 62.250000 L 29.240000 53.250000 L 19.090000 44.250000 C 18.675787 43.884697 18.636135 43.252777 19.001438 42.838562 C 19.029079 42.807220 19.058659 42.777641 19.090000 42.750000 L 29.240000 33.750000 L 19.090000 24.750000 L 20.410000 23.250000 L 31.410000 33.000000 C 31.824213 33.365303 31.863865 33.997223 31.498562 34.411438 C 31.470921 34.442780 31.441341 34.472359 31.410000 34.500000 L 21.260000 43.500000 L 31.410000 52.500000 C 31.824213 52.865303 31.863865 53.497223 31.498562 53.911438 C 31.470921 53.942780 31.441341 53.972359 31.410000 54.000000 Z" fill="#FFFFFF"/><path d=" M 65.250000 25.000000 L 18.750000 25.000000 C 18.197716 25.000000 17.750000 24.552284 17.750000 24.000000 L 17.750000 17.000000 C 17.750000 16.447716 18.197716 16.000000 18.750000 16.000000 L 18.750000 16.000000 L 56.830002 16.000000 C 57.063656 15.999543 57.290089 16.080919 57.470001 16.230000 L 65.889999 23.230000 C 66.213989 23.499767 66.333984 23.943752 66.190002 24.340000 C 66.046852 24.735947 65.671036 24.999821 65.250000 25.000000 Z M 19.750000 23.000000 L 62.480000 23.000000 L 56.480000 18.000000 L 19.750000 18.000000 Z" fill="#FFFFFF"/><path d=" M 51.400002 25.000000 C 51.183632 25.000000 50.973099 24.929823 50.800003 24.799999 L 43.490002 19.250000 L 36.180000 24.799999 C 35.822422 25.071699 35.327576 25.071699 34.970001 24.799999 L 27.660000 19.250000 L 20.350000 24.799999 L 19.150000 23.200001 L 27.059999 17.200001 C 27.417576 16.928301 27.912422 16.928301 28.269999 17.200001 L 35.580002 22.750000 L 42.889999 17.200001 C 43.245556 16.933334 43.734444 16.933334 44.090000 17.200001 L 51.340000 22.700001 L 57.340000 17.260000 C 57.715885 16.934172 58.274113 16.934172 58.650002 17.260000 L 65.889999 23.260000 L 64.610001 24.799999 L 58.000000 19.320000 L 52.000000 24.740000 C 51.834789 24.891457 51.623486 24.983021 51.400002 25.000000 Z" fill="#FFFFFF"/><rect x="49.850000" y="24.000000" width="2.000000" height="9.000000" fill="#FFFFFF"/><path d=" M 18.750000 27.000000 L 14.750000 27.000000 C 14.197715 27.000000 13.750000 26.552284 13.750000 26.000000 L 13.750000 16.000000 C 13.750000 15.447715 14.197715 15.000000 14.750000 15.000000 L 18.750000 15.000000 C 19.302284 15.000000 19.750000 15.447715 19.750000 16.000000 L 19.750000 26.000000 C 19.750000 26.552284 19.302284 27.000000 18.750000 27.000000 Z M 15.750000 25.000000 L 17.750000 25.000000 L 17.750000 17.000000 L 15.750000 17.000000 Z" fill="#FFFFFF"/><path d=" M 62.369999 38.919998 L 50.750000 34.080002 L 39.130001 38.919998 L 38.369999 37.080002 L 50.369999 32.080002 C 50.611492 31.970474 50.888504 31.970474 51.129997 32.080002 L 63.130001 37.080002 Z" fill="#FFFFFF"/></g></svg>