<svg version="1.1" width="80.000000" height="115.000000" viewBox="0.000000 0.000000 80.000000 115.000000" xmlns="http://www.w3.org/2000/svg" xmlns:xlink="http://www.w3.org/1999/xlink" overflow="hidden"><g id="CARDS"><rect x="1.000000" y="1.000000" width="78.000000" height="78.000000" fill="#232F3E"/><path d=" M 0.000000 0.000000 L 0.000000 80.000000 L 0.000000 80.000000 L 0.000000 115.000000 L 80.000000 115.000000 L 80.000000 80.000000 L 80.000000 80.000000 L 80.000000 0.000000 Z M 1.000000 1.000000 L 79.000000 1.000000 L 79.000000 79.000000 L 1.000000 79.000000 Z" fill="#FFFFFF"/></g><g id="TEXT_-_EDIT"><path d=" M 33.689999 92.349998 L 33.250000 90.529999 L 31.250000 90.529999 L 30.830000 92.349998 L 29.059999 92.349998 L 31.370001 84.720001 L 33.240002 84.720001 L 35.540001 92.349998 Z M 31.510000 89.430000 L 33.000000 89.430000 L 32.240002 86.269997 Z" fill="#232F3E"/><path d=" M 40.889999 92.349998 L 40.000000 86.720001 L 39.110001 92.349998 L 37.189999 92.349998 L 35.410000 84.720001 L 37.110001 84.720001 L 38.169998 90.779999 L 39.080002 85.000000 L 40.919998 85.000000 L 41.860001 90.650002 L 42.860001 84.650002 L 44.520000 84.650002 L 42.740002 92.279999 Z" fill="#232F3E"/><path d=" M 46.840000 89.000000 C 46.345402 88.768761 45.910801 88.426559 45.570000 88.000000 C 45.307678 87.644348 45.170536 87.211830 45.180000 86.769997 C 45.168892 86.354126 45.287739 85.945145 45.520000 85.599998 C 45.745701 85.259720 46.065289 84.992241 46.439999 84.830002 C 46.861813 84.643929 47.319042 84.551804 47.779999 84.560005 C 48.429764 84.562088 49.072483 84.694710 49.669998 84.950005 L 49.669998 86.120003 C 49.134098 85.923050 48.570534 85.811684 48.000000 85.790001 C 47.718163 85.774521 47.439480 85.855652 47.209999 86.020004 C 47.013199 86.172058 46.904575 86.411781 46.919998 86.660004 C 46.912312 86.862022 46.976040 87.060295 47.099998 87.220001 C 47.307770 87.423737 47.552021 87.586571 47.820000 87.700005 L 48.470001 88.019997 C 48.826054 88.187546 49.161602 88.395592 49.470001 88.639999 C 49.698788 88.827263 49.883213 89.062912 50.010002 89.330002 C 50.129375 89.621704 50.187252 89.934906 50.180000 90.250000 C 50.210262 90.886475 49.935429 91.499283 49.439999 91.900002 C 48.864475 92.329575 48.157295 92.545265 47.439999 92.510002 C 47.060139 92.510231 46.681335 92.470001 46.309998 92.389999 C 45.980469 92.326210 45.660961 92.218590 45.359997 92.070000 L 45.360001 90.919998 C 45.687019 91.026825 46.021187 91.110367 46.360001 91.169998 C 46.689121 91.238113 47.023945 91.274940 47.360001 91.279999 C 47.673580 91.302475 47.985077 91.213982 48.240002 91.029999 C 48.446396 90.853905 48.557594 90.590736 48.540001 90.320000 C 48.546089 90.107033 48.471024 89.899704 48.330002 89.739998 C 48.122326 89.543411 47.882092 89.384384 47.620003 89.269997 Z" fill="#232F3E"/><path d=" M 14.270000 106.129997 C 13.705158 106.360497 13.100033 106.476082 12.490001 106.469994 C 10.243334 106.470001 9.120000 105.169998 9.120000 102.570000 C 9.048548 101.512779 9.361019 100.465294 10.000000 99.620003 C 10.648503 98.920914 11.578778 98.553215 12.530000 98.620003 C 13.093498 98.620705 13.652317 98.722313 14.179999 98.920006 L 14.180000 100.129997 C 13.708505 99.991577 13.221186 99.914284 12.730000 99.899994 C 12.190756 99.856819 11.665546 100.085663 11.330001 100.509995 C 10.993436 101.094772 10.840155 101.767120 10.890001 102.439995 L 10.890000 102.690002 C 10.836975 103.352310 10.986965 104.015060 11.320001 104.590004 C 11.642573 105.013901 12.159140 105.243904 12.690001 105.200005 C 13.224769 105.173027 13.754786 105.085808 14.270000 104.940002 Z" fill="#232F3E"/><path d=" M 17.500000 106.489998 C 16.801233 106.527954 16.123465 106.244324 15.660000 105.720001 C 14.793984 104.392052 14.793984 102.677956 15.660000 101.349998 C 16.123465 100.825676 16.801233 100.542038 17.500000 100.580002 C 18.201687 100.541916 18.882553 100.825302 19.350000 101.349998 C 20.216015 102.677948 20.216015 104.392044 19.350000 105.720001 C 18.882553 106.244698 18.201687 106.528084 17.500000 106.489998 Z M 17.500000 105.339996 C 17.786320 105.350388 18.047558 105.177567 18.150000 104.909996 C 18.416798 104.016144 18.416798 103.063843 18.150000 102.169998 C 18.050919 101.898483 17.788891 101.721115 17.500000 101.729996 C 17.212862 101.719078 16.952627 101.897987 16.860001 102.169998 C 16.593203 103.063850 16.593203 104.016151 16.860001 104.909996 C 16.956114 105.178047 17.215509 105.352325 17.500000 105.339996 Z" fill="#232F3E"/><path d=" M 24.400000 106.349998 L 24.270000 105.860001 C 24.089531 106.042419 23.875641 106.188408 23.640001 106.290001 C 23.412376 106.387421 23.167593 106.438423 22.920002 106.440002 C 22.321478 106.464928 21.751793 106.181969 21.410002 105.690002 C 21.015484 105.052330 20.826937 104.308617 20.870001 103.560005 C 20.825651 102.789658 21.021305 102.024506 21.430000 101.370003 C 21.767569 100.858131 22.347206 100.558846 22.960001 100.580002 C 23.175472 100.590401 23.388012 100.634262 23.590000 100.709999 C 23.808535 100.789223 24.014107 100.900436 24.200001 101.040001 L 24.200001 98.209999 L 25.850000 98.209999 L 25.850000 106.349998 Z M 23.480000 105.349998 C 23.736092 105.346977 23.985954 105.270630 24.199999 105.129997 L 24.200001 102.000000 C 23.963345 101.839310 23.685911 101.749138 23.400002 101.739998 C 23.106489 101.731621 22.838945 101.907326 22.730001 102.180000 C 22.563646 102.623573 22.492109 103.097084 22.520002 103.570000 C 22.491812 104.034950 22.570490 104.500175 22.750002 104.930000 C 22.896845 105.190842 23.181549 105.342941 23.480001 105.320000 Z" fill="#232F3E"/><path d=" M 28.490000 103.919998 C 28.469250 104.324760 28.597298 104.723129 28.850000 105.040001 C 29.145565 105.286263 29.526880 105.404976 29.910000 105.370003 C 30.139248 105.364609 30.367241 105.334435 30.590000 105.280006 C 30.861526 105.230042 31.128939 105.159843 31.389999 105.070007 L 31.389999 106.070000 C 31.131758 106.217194 30.851507 106.321869 30.559999 106.379997 C 30.231476 106.451813 29.896278 106.488686 29.559999 106.489998 C 27.840000 106.489998 26.980000 105.489998 26.980000 103.540001 C 26.929846 102.754425 27.156273 101.976082 27.619999 101.340004 C 28.074650 100.816292 28.747925 100.535149 29.439999 100.580002 C 30.809999 100.580002 31.490000 101.339996 31.490000 102.870003 C 31.489126 103.206871 31.448853 103.542488 31.369999 103.870003 Z M 29.400000 101.599998 C 28.830000 101.599998 28.520000 102.059998 28.490000 102.970001 L 30.100000 102.970001 L 30.100000 102.720001 C 30.125040 102.423065 30.066135 102.125076 29.930000 101.860001 C 29.813951 101.683182 29.610857 101.583549 29.400000 101.599998 Z" fill="#232F3E"/><path d=" M 34.389999 103.519997 L 34.389999 106.349998 L 32.740002 106.349998 L 32.740002 98.720001 L 35.380001 98.720001 C 36.033440 98.689598 36.671539 98.923927 37.150002 99.370003 C 38.016998 100.375595 38.016998 101.864410 37.150002 102.870003 C 36.671539 103.316078 36.033440 103.550407 35.380001 103.520004 Z M 34.389999 102.370003 L 35.180000 102.370003 C 35.453033 102.388489 35.717960 102.272820 35.889999 102.060005 C 36.075432 101.783142 36.163391 101.452408 36.139999 101.120003 C 36.165051 100.790573 36.076847 100.462471 35.889999 100.190002 C 35.722317 99.970589 35.455452 99.850311 35.180000 99.870003 L 34.389999 99.870003 Z" fill="#232F3E"/><path d=" M 39.889999 99.809998 C 39.631489 99.824509 39.376251 99.746521 39.169998 99.589996 C 38.998062 99.434639 38.903004 99.211624 38.910000 98.979996 C 38.900192 98.747849 38.995735 98.523689 39.169998 98.369995 C 39.370667 98.202087 39.629150 98.119514 39.889999 98.139992 C 40.140717 98.127335 40.387020 98.209435 40.579998 98.369995 C 40.760448 98.519913 40.860355 98.745628 40.849998 98.979996 C 40.858814 99.214073 40.759193 99.439140 40.579998 99.589996 C 40.385563 99.746964 40.139408 99.825447 39.889999 99.809998 Z M 39.049999 106.349998 L 39.049999 100.720001 L 40.700001 100.720001 L 40.700001 106.349998 Z" fill="#232F3E"/><path d=" M 42.160000 108.610001 L 42.160000 100.720001 L 43.509998 100.720001 L 43.630001 101.199997 C 43.839096 101.010376 44.079269 100.858154 44.340000 100.750000 C 44.590294 100.644142 44.858318 100.586464 45.130001 100.580002 C 45.726631 100.552834 46.295921 100.831825 46.639999 101.320000 C 47.027718 101.963524 47.209179 102.710312 47.160000 103.459999 C 47.205498 104.232277 47.013569 104.999985 46.610001 105.659996 C 46.276516 106.164848 45.704716 106.460220 45.100002 106.439995 C 44.868233 106.438164 44.638401 106.397598 44.420002 106.319992 C 44.196758 106.242088 43.989918 106.123413 43.810001 105.969994 L 43.810001 108.610001 Z M 44.580002 101.699997 C 44.303158 101.698547 44.033192 101.786194 43.810001 101.949997 L 43.810001 105.059998 C 44.041759 105.223015 44.316723 105.313515 44.600002 105.320000 C 44.897823 105.338585 45.176247 105.171532 45.300003 104.900002 C 45.468620 104.463989 45.540279 103.996498 45.510002 103.529999 C 45.542286 103.050362 45.470657 102.569412 45.300003 102.119995 C 45.169174 101.845284 44.883526 101.678658 44.580002 101.699997 Z" fill="#232F3E"/><path d=" M 49.520000 103.919998 C 49.506596 104.325401 49.637733 104.722366 49.889999 105.040001 C 50.184471 105.288261 50.566643 105.407242 50.950001 105.370003 C 51.179203 105.363998 51.407131 105.333832 51.630001 105.280006 C 51.901253 105.228806 52.168575 105.158638 52.430000 105.070007 L 52.430000 106.070000 C 52.170979 106.215523 51.890999 106.320099 51.599998 106.379997 C 51.271473 106.451813 50.936275 106.488686 50.599998 106.489998 C 48.880001 106.489998 48.020000 105.489998 48.020000 103.540001 C 47.966961 102.755630 48.189819 101.977402 48.650002 101.340004 C 49.107765 100.814682 49.784767 100.533524 50.480003 100.580002 C 51.840000 100.580002 52.480000 101.339996 52.480000 102.870003 C 52.479126 103.206871 52.438854 103.542488 52.360001 103.870003 Z M 50.439999 101.599998 C 49.860001 101.599998 49.560001 102.059998 49.520000 102.970001 L 51.139999 102.970001 L 51.139999 102.720001 C 51.160442 102.423340 51.101780 102.126572 50.970001 101.860001 C 50.852512 101.684830 50.650444 101.585701 50.440002 101.599998 Z" fill="#232F3E"/><path d=" M 56.070000 106.250000 C 55.749741 106.365929 55.410442 106.420219 55.070000 106.410004 C 54.671776 106.428459 54.283924 106.279839 54.000000 106.000000 C 53.743889 105.685440 53.618568 105.284424 53.650002 104.879997 L 53.650002 98.209999 L 55.299999 98.209999 L 55.299999 104.750000 C 55.289196 104.888161 55.316887 105.026619 55.380001 105.150002 C 55.459671 105.241310 55.579937 105.286407 55.700001 105.270004 C 55.816490 105.279053 55.933510 105.279053 56.049999 105.270004 Z" fill="#232F3E"/><path d=" M 57.939999 99.809998 C 57.684757 99.822983 57.433182 99.745026 57.230000 99.589996 C 57.074417 99.434006 56.991043 99.220131 57.000000 99.000000 C 56.990192 98.767853 57.085735 98.543694 57.259998 98.389999 C 57.458115 98.224579 57.712517 98.142166 57.969997 98.159996 C 58.224098 98.144775 58.474442 98.227028 58.669998 98.389999 C 58.850449 98.539917 58.950356 98.765633 58.939999 99.000000 C 58.948814 99.234077 58.849194 99.459145 58.669998 99.610001 C 58.462269 99.769737 58.200138 99.841553 57.939999 99.809998 Z M 57.110001 106.349998 L 57.110001 100.720001 L 58.759998 100.720001 L 58.759998 106.349998 Z" fill="#232F3E"/><path d=" M 63.330002 106.349998 L 63.330002 102.650002 C 63.346497 102.408363 63.298168 102.166710 63.190002 101.950005 C 63.072830 101.794846 62.883560 101.711563 62.690002 101.730003 C 62.397972 101.739677 62.114254 101.829636 61.870003 101.990005 L 61.869999 106.349998 L 60.220001 106.349998 L 60.220001 100.720001 L 61.570000 100.720001 L 61.700001 101.230003 C 62.238892 100.835289 62.882652 100.609108 63.549999 100.580002 C 63.948467 100.553772 64.337639 100.707970 64.610001 101.000000 C 64.879730 101.347038 65.011520 101.781601 64.980003 102.220001 L 64.980003 106.349998 Z" fill="#232F3E"/><path d=" M 67.599998 103.919998 C 67.600174 104.316200 67.742050 104.699272 68.000000 105.000000 C 68.294472 105.248260 68.676643 105.367241 69.059998 105.330002 C 69.289200 105.323997 69.517128 105.293831 69.739998 105.240005 C 70.011246 105.188805 70.278572 105.118637 70.540001 105.030006 L 70.540001 106.029999 C 70.280983 106.175522 70.000999 106.280098 69.709999 106.339996 C 69.381477 106.411812 69.046280 106.448685 68.709999 106.449997 C 66.989998 106.449997 66.129997 105.449997 66.129997 103.500000 C 66.076958 102.715630 66.299812 101.937401 66.759995 101.300003 C 67.218681 100.775963 67.895020 100.495087 68.589996 100.540001 C 69.949997 100.540001 70.589996 101.300003 70.589996 102.830002 C 70.589127 103.166870 70.548851 103.502487 70.469994 103.830002 Z M 68.510002 101.599998 C 67.930000 101.599998 67.629997 102.059998 67.599998 102.970001 L 69.209999 102.970001 L 69.209999 102.720001 C 69.230438 102.423340 69.171776 102.126572 69.040001 101.860001 C 68.922508 101.684830 68.720444 101.585701 68.510002 101.599998 Z" fill="#232F3E"/></g><g id="ICONS_-_EDIT"><path d=" M 57.000000 36.000000 L 57.000000 64.000000 L 23.000000 64.000000 L 23.000000 36.000000" stroke="#FFFFFF" stroke-width="2.000000" stroke-linejoin="round" fill="none"/><rect x="16.000000" y="16.000000" rx="4.460000" ry="4.460000" width="48.000000" height="20.000000" stroke="#FFFFFF" stroke-width="2.000000" stroke-linejoin="round" fill="none"/><path d=" M 33.970001 44.020000 L 28.230000 49.090000 L 33.950001 54.029999" stroke="#FFFFFF" stroke-width="2.000000" stroke-linejoin="round" fill="none"/><path d=" M 46.099998 44.020000 L 51.849998 49.020000 L 46.099998 54.070000" stroke="#FFFFFF" stroke-width="2.000000" stroke-linejoin="round" fill="none"/><line x1="43.920000" y1="41.150000" x2="37.040000" y2="57.920000" stroke="#FFFFFF" stroke-width="2.000000" stroke-linejoin="round" fill="none"/><line x1="16.000000" y1="31.000000" x2="34.000000" y2="31.000000" stroke="#FFFFFF" stroke-width="2.000000" stroke-linejoin="round" fill="none"/><line x1="41.000000" y1="31.000000" x2="37.000000" y2="31.000000" stroke="#FFFFFF" stroke-width="2.000000" stroke-linejoin="round" fill="none"/><line x1="44.000000" y1="31.000000" x2="64.000000" y2="31.000000" stroke="#FFFFFF" stroke-width="2.000000" stroke-linejoin="round" fill="none"/></g></svg>