<svg version="1.1" width="80.000000" height="115.000000" viewBox="0.000000 0.000000 80.000000 115.000000" xmlns="http://www.w3.org/2000/svg" xmlns:xlink="http://www.w3.org/1999/xlink" overflow="hidden"><g id="CARDS"><rect x="1.000000" y="1.000000" width="78.000000" height="78.000000" fill="#232F3E"/><path d=" M 0.000000 0.000000 L 0.000000 80.000000 L 0.000000 80.000000 L 0.000000 115.000000 L 80.000000 115.000000 L 80.000000 80.000000 L 80.000000 80.000000 L 80.000000 0.000000 Z M 1.000000 1.000000 L 79.000000 1.000000 L 79.000000 79.000000 L 1.000000 79.000000 Z" fill="#FFFFFF"/></g><g id="TEXT_-_EDIT"><path d=" M 19.889999 92.349998 L 19.459999 90.529999 L 17.459999 90.529999 L 17.000000 92.349998 L 15.270000 92.349998 L 17.580000 84.720001 L 19.450001 84.720001 L 21.750000 92.349998 Z M 17.709999 89.430000 L 19.209999 89.430000 L 18.450001 86.269997 Z" fill="#232F3E"/><path d=" M 27.100000 92.349998 L 26.160000 86.720001 L 25.260000 92.349998 L 23.400000 92.349998 L 21.610001 84.720001 L 23.309999 84.720001 L 24.370001 90.779999 L 25.290001 85.000000 L 27.120001 85.000000 L 28.059999 90.650002 L 29.059999 84.650002 L 30.730000 84.650002 L 29.000000 92.349998 Z" fill="#232F3E"/><path d=" M 33.049999 89.000000 C 32.552723 88.768532 32.114914 88.426491 31.769999 88.000000 C 31.507675 87.644348 31.370535 87.211830 31.379999 86.769997 C 31.373390 86.354721 31.491856 85.947060 31.719999 85.599998 C 31.950571 85.264114 32.268753 84.997803 32.639999 84.830002 C 33.068054 84.641380 33.532352 84.549202 34.000000 84.560005 C 34.649567 84.563965 35.291924 84.696510 35.889999 84.950005 L 35.889999 86.120003 C 35.337971 85.918839 34.757278 85.807426 34.169998 85.790001 C 33.885067 85.774620 33.603252 85.855637 33.369999 86.020004 C 33.177277 86.175255 33.069664 86.412743 33.079998 86.660004 C 33.070492 86.863945 33.138351 87.063950 33.269997 87.220001 C 33.473885 87.428474 33.719139 87.591980 33.989998 87.700005 L 34.639999 88.019997 C 34.996571 88.186584 35.332230 88.394691 35.639999 88.639999 C 35.875286 88.820801 36.061043 89.058159 36.180000 89.330002 C 36.307579 89.619499 36.369068 89.933777 36.360001 90.250000 C 36.390263 90.886475 36.115429 91.499283 35.619999 91.900002 C 35.029491 92.337746 34.303761 92.553688 33.570000 92.510002 C 33.190201 92.509125 32.811512 92.468910 32.439999 92.389999 C 32.093765 92.328896 31.757383 92.221252 31.439999 92.070000 L 31.440001 90.919998 C 31.767162 91.026321 32.101295 91.109856 32.440002 91.169998 C 32.769123 91.238113 33.103947 91.274940 33.440002 91.279999 C 33.753757 91.304230 34.065845 91.215561 34.320004 91.029999 C 34.526398 90.853905 34.637596 90.590736 34.620003 90.320000 C 34.626091 90.107033 34.551025 89.899704 34.410004 89.739998 C 34.206234 89.543251 33.969242 89.384132 33.710003 89.269997 Z" fill="#232F3E"/><path d=" M 41.430000 92.349998 L 41.430000 85.940002 L 39.430000 85.940002 L 39.430000 84.720001 L 45.119999 84.720001 L 45.119999 85.940002 L 43.119999 85.940002 L 43.119999 92.349998 Z" fill="#232F3E"/><path d=" M 47.709999 92.489998 C 47.011230 92.527954 46.333462 92.244324 45.869999 91.720001 C 45.003983 90.392052 45.003983 88.677956 45.869999 87.349998 C 46.868824 86.333794 48.502331 86.319710 49.518536 87.318535 C 49.529114 87.328934 49.539604 87.339424 49.549999 87.349998 C 50.416016 88.677948 50.416016 90.392044 49.549999 91.720001 C 49.088322 92.246819 48.409286 92.530983 47.709999 92.489998 Z M 47.709999 91.339996 C 47.994492 91.352325 48.253887 91.178047 48.349998 90.909996 C 48.616795 90.016144 48.616795 89.063843 48.349998 88.169998 C 48.207577 87.816536 47.805584 87.645454 47.452122 87.787872 C 47.278091 87.857994 47.140121 87.995964 47.069996 88.169998 C 46.803200 89.063850 46.803200 90.016151 47.069996 90.909996 C 47.166107 91.178047 47.425503 91.352325 47.709995 91.339996 Z" fill="#232F3E"/><path d=" M 53.590000 92.489998 C 52.890713 92.530975 52.211678 92.246811 51.750000 91.720001 C 50.870846 90.395988 50.870846 88.674019 51.750000 87.349998 C 52.748825 86.333794 54.382332 86.319710 55.398537 87.318535 C 55.409115 87.328934 55.419605 87.339424 55.430000 87.349998 C 56.296017 88.677948 56.296017 90.392044 55.430000 91.720001 C 54.966537 92.244324 54.288769 92.527962 53.590000 92.489998 Z M 53.590000 91.339996 C 53.874493 91.352325 54.133888 91.178047 54.230000 90.909996 C 54.496796 90.016144 54.496796 89.063843 54.230000 88.169998 C 54.137371 87.897995 53.877136 87.719078 53.590000 87.729996 C 53.301109 87.721107 53.039082 87.898483 52.939999 88.169998 C 52.684864 89.065514 52.684864 90.014481 52.939999 90.909996 C 53.042439 91.177567 53.303680 91.350380 53.590000 91.339996 Z" fill="#232F3E"/><path d=" M 59.639999 92.250000 C 59.319740 92.365929 58.980442 92.420219 58.639999 92.410004 C 58.248627 92.422867 57.869099 92.274666 57.590000 92.000000 C 57.333889 91.685440 57.208569 91.284424 57.240002 90.879997 L 57.240002 84.209999 L 58.889999 84.209999 L 58.889999 90.750000 C 58.879196 90.888161 58.906887 91.026619 58.970001 91.150002 C 59.049671 91.241310 59.169937 91.286407 59.290001 91.270004 C 59.406490 91.279053 59.523510 91.279053 59.639999 91.270004 Z" fill="#232F3E"/><path d=" M 62.650002 90.769997 C 62.650002 90.519997 62.480000 90.309998 62.130001 90.150002 L 61.410000 89.800003 C 60.730663 89.566200 60.273403 88.928444 60.270000 88.210007 C 60.245712 87.739006 60.455219 87.286316 60.830002 87.000008 C 61.252361 86.682838 61.772472 86.523621 62.300003 86.550011 C 62.829651 86.551735 63.352280 86.671295 63.830002 86.900009 L 63.830002 87.900002 C 63.601051 87.821503 63.367222 87.758034 63.130001 87.709999 C 62.932865 87.666542 62.731846 87.643089 62.530003 87.639999 C 62.009998 87.639999 61.759998 87.820000 61.759998 88.180000 C 61.759998 88.540001 61.970001 88.629997 62.400002 88.839996 L 63.119999 89.180000 C 63.426876 89.315102 63.692535 89.529015 63.889999 89.800003 C 64.058258 90.080269 64.141624 90.403313 64.129997 90.730003 C 64.154755 91.215942 63.951359 91.685608 63.579998 92.000000 C 63.151665 92.321404 62.624969 92.484009 62.089996 92.459999 C 61.456364 92.465340 60.831211 92.314201 60.269997 92.019997 L 60.270000 91.019997 C 60.789524 91.216797 61.335567 91.334770 61.889999 91.369995 C 62.094173 91.382927 62.296268 91.322655 62.459999 91.199997 C 62.580166 91.089172 62.648968 90.933464 62.649998 90.769997 Z" fill="#232F3E"/><path d=" M 21.080000 106.349998 L 20.930000 105.839996 C 20.779303 106.046989 20.575443 106.209389 20.340000 106.309998 C 20.097038 106.428444 19.830294 106.489998 19.559999 106.489998 C 19.120819 106.513031 18.692318 106.349617 18.379999 106.040001 C 17.769264 105.292549 17.812176 104.206917 18.480000 103.510002 C 18.877274 103.173096 19.390316 103.004471 19.910000 103.040001 C 20.224030 103.046669 20.536179 103.090302 20.840000 103.169998 L 20.840000 102.660004 C 20.862144 102.390068 20.806629 102.119423 20.680000 101.880005 C 20.514797 101.728874 20.292614 101.656029 20.070000 101.680008 C 19.465546 101.705238 18.868567 101.823280 18.299999 102.030006 L 18.299999 101.029999 C 18.582703 100.869797 18.890320 100.758240 19.209999 100.699997 C 19.591402 100.619514 19.980198 100.579300 20.369999 100.579994 C 20.913607 100.534027 21.455008 100.690742 21.889999 101.019997 C 22.234774 101.396851 22.405321 101.901237 22.359999 102.409996 L 22.360001 106.349998 Z M 20.080000 105.430000 C 20.381384 105.418922 20.667318 105.293823 20.879999 105.080002 L 20.879999 104.000000 C 20.674059 103.948677 20.462181 103.925140 20.250000 103.930000 C 20.052252 103.913605 19.857620 103.987053 19.719999 104.129997 C 19.580946 104.293694 19.512604 104.505920 19.529999 104.719994 C 19.519709 104.905304 19.572592 105.088631 19.679998 105.239990 C 19.755980 105.344658 19.871733 105.413383 19.999998 105.429993 Z" fill="#232F3E"/><path d=" M 26.860001 106.349998 L 26.860001 102.650002 C 26.876497 102.408363 26.828165 102.166710 26.720001 101.950005 C 26.604105 101.793236 26.413879 101.709541 26.220001 101.730003 C 25.927971 101.739677 25.644253 101.829636 25.400002 101.990005 L 25.400000 106.349998 L 23.750000 106.349998 L 23.750000 100.720001 L 25.100000 100.720001 L 25.240000 101.230003 C 25.774370 100.833908 26.415401 100.607452 27.080000 100.580002 C 27.481430 100.553581 27.873730 100.707565 28.150000 101.000000 C 28.412020 101.350540 28.539742 101.783371 28.510000 102.220001 L 28.510000 106.349998 Z" fill="#232F3E"/><path d=" M 33.160000 106.349998 L 33.029999 105.860001 C 32.848301 106.040939 32.634708 106.186729 32.399998 106.290001 C 32.172375 106.387421 31.927589 106.438423 31.679998 106.440002 C 31.081474 106.464928 30.511789 106.181969 30.169998 105.690002 C 29.775480 105.052330 29.586933 104.308617 29.629997 103.560005 C 29.585648 102.789658 29.781301 102.024506 30.189997 101.370003 C 30.527565 100.858131 31.107203 100.558846 31.719997 100.580002 C 31.935469 100.590401 32.148010 100.634262 32.349998 100.709999 C 32.580132 100.773102 32.799313 100.870888 33.000000 101.000000 L 33.000000 98.209999 L 34.650002 98.209999 L 34.650002 106.349998 Z M 32.240002 105.349998 C 32.496094 105.346977 32.745956 105.270630 32.960003 105.129997 L 32.959999 102.000000 C 32.722630 101.840775 32.445625 101.750748 32.160000 101.739998 C 31.866488 101.731621 31.598944 101.907326 31.490000 102.180000 C 31.323645 102.623573 31.252108 103.097084 31.280001 103.570000 C 31.251810 104.034950 31.330488 104.500175 31.510000 104.930000 C 31.656843 105.190842 31.941547 105.342941 32.240002 105.320000 Z" fill="#232F3E"/><path d=" M 40.000000 103.000000 C 39.502724 102.768532 39.064915 102.426491 38.720001 102.000000 C 38.457680 101.644348 38.320538 101.211830 38.330002 100.769997 C 38.323391 100.354721 38.441860 99.947060 38.670002 99.599998 C 38.898216 99.261978 39.217068 98.995110 39.590000 98.830002 C 40.033379 98.634041 40.515591 98.541702 41.000000 98.560005 C 41.649567 98.563965 42.291924 98.696510 42.889999 98.950005 L 42.889999 100.120003 C 42.334805 99.917786 41.750648 99.806358 41.160000 99.790001 C 40.878349 99.776108 40.600178 99.857094 40.369999 100.020004 C 40.177277 100.175255 40.069664 100.412743 40.079998 100.660004 C 40.070492 100.863945 40.138351 101.063950 40.269997 101.220001 C 40.471874 101.426239 40.713387 101.589516 40.979996 101.700005 L 41.630001 102.019997 C 41.986053 102.187546 42.321602 102.395592 42.630001 102.639999 C 42.858788 102.827263 43.043213 103.062912 43.170002 103.330002 C 43.297581 103.619499 43.359070 103.933777 43.350002 104.250000 C 43.377865 104.888214 43.099171 105.501343 42.600002 105.900002 C 42.024479 106.329575 41.317299 106.545265 40.600002 106.510002 C 40.220177 106.509636 39.841434 106.469414 39.470001 106.389999 C 39.123341 106.330627 38.786728 106.222908 38.470001 106.070000 L 38.470001 104.919998 C 38.797020 105.026825 39.131187 105.110367 39.470001 105.169998 C 39.799301 105.236969 40.134018 105.273788 40.470001 105.279999 C 40.783756 105.304230 41.095844 105.215561 41.350002 105.029999 C 41.556396 104.853905 41.667595 104.590736 41.650002 104.320000 C 41.656090 104.107033 41.581024 103.899704 41.440002 103.739998 C 41.236233 103.543251 40.999241 103.384132 40.740002 103.269997 Z" fill="#232F3E"/><path d=" M 44.540001 106.349998 L 44.540001 98.720001 L 47.049999 98.720001 C 47.951908 98.670197 48.826378 99.039169 49.419998 99.720001 C 50.479565 101.468689 50.479565 103.661316 49.419998 105.410004 C 48.845661 106.087883 47.987179 106.457916 47.099998 106.410004 Z M 46.220001 99.900002 L 46.220001 105.169998 L 46.930000 105.169998 C 47.404408 105.194519 47.853905 104.956329 48.099998 104.549995 C 48.399330 103.959961 48.534058 103.300148 48.489998 102.639992 L 48.490002 102.419998 C 48.533745 101.760979 48.402657 101.102089 48.110001 100.509995 C 47.857910 100.100891 47.399323 99.865814 46.920002 99.899994 Z" fill="#232F3E"/><path d=" M 51.639999 106.349998 L 51.639999 98.720001 L 53.330002 98.720001 L 53.330002 102.110001 L 55.610001 98.720001 L 57.480000 98.720001 L 54.840000 102.290001 L 57.689999 106.349998 L 55.689999 106.349998 L 53.330002 102.660004 L 53.330002 106.349998 Z" fill="#232F3E"/><path d=" M 60.380001 104.769997 C 60.380001 104.519997 60.209999 104.309998 59.860001 104.150002 L 59.139999 103.800003 C 58.458755 103.568764 58.000362 102.929420 58.000000 102.210007 C 57.981606 101.750854 58.186539 101.311180 58.549999 101.030006 C 58.972359 100.712837 59.492470 100.553619 60.020000 100.580009 C 60.549648 100.581734 61.072277 100.701294 61.549999 100.930008 L 61.549999 101.930000 C 61.321049 101.851501 61.087219 101.788033 60.849998 101.739998 C 60.652863 101.696541 60.451843 101.673088 60.250000 101.669998 C 59.730000 101.669998 59.480000 101.849998 59.480000 102.209999 C 59.480000 102.570000 59.689999 102.660004 60.119999 102.870003 L 60.840000 103.209999 C 61.146877 103.345100 61.412537 103.559013 61.610001 103.830002 C 61.778263 104.110268 61.861629 104.433311 61.850002 104.760002 C 61.874760 105.245941 61.671364 105.715607 61.300003 106.029999 C 60.871670 106.351402 60.344975 106.514008 59.810001 106.489998 C 59.179459 106.496185 58.557339 106.344955 58.000000 106.049995 L 58.000000 105.050003 C 58.515827 105.247581 59.058697 105.365601 59.610001 105.400002 C 59.814175 105.412933 60.016270 105.352661 60.180000 105.230003 C 60.311771 105.114052 60.385078 104.945450 60.380001 104.770004 Z" fill="#232F3E"/></g><g id="ICONS_-_EDIT"><rect x="21.090000" y="24.940000" width="2.000000" height="9.440000" fill="#FFFFFF" transform="matrix(0.500000,-0.866025,0.866025,0.500000,-14.640000,33.960000)"/><rect x="53.220000" y="28.660000" width="9.410000" height="2.000000" fill="#FFFFFF" transform="matrix(0.866113,-0.499849,0.499849,0.866113,-7.070000,32.930000)"/><path d=" M 40.000000 53.700001 C 39.824825 53.701210 39.652405 53.656380 39.500000 53.570000 L 28.500000 47.220001 C 28.189365 47.040661 27.998575 46.708687 28.000000 46.350002 L 28.000000 33.650002 C 27.998575 33.291317 28.189365 32.959343 28.500000 32.780003 L 39.500000 26.430000 C 39.809402 26.251368 40.190598 26.251368 40.500000 26.430000 L 51.500000 32.779999 C 51.810635 32.959339 52.001423 33.291313 52.000000 33.649998 L 52.000000 46.349998 C 52.001423 46.708683 51.810635 47.040657 51.500000 47.219997 L 40.500000 53.570000 C 40.347595 53.656380 40.175175 53.701210 40.000000 53.700001 Z M 30.000000 45.770000 L 40.000000 51.549999 L 50.000000 45.770000 L 50.000000 34.230000 L 40.000000 28.450001 L 30.000000 34.230000 Z" fill="#FFFFFF"/><path d=" M 40.000000 66.400002 C 39.824825 66.401215 39.652405 66.356384 39.500000 66.270004 L 17.500000 53.570000 C 17.189365 53.390659 16.998575 53.058685 17.000000 52.700001 L 17.000000 27.299999 C 16.998575 26.941315 17.189365 26.609341 17.500000 26.429998 L 39.500000 13.730000 C 39.809402 13.551367 40.190598 13.551367 40.500000 13.730000 L 62.500000 26.430000 C 62.810635 26.609341 63.001423 26.941315 63.000000 27.300001 L 63.000000 52.700001 C 63.001423 53.058685 62.810635 53.390659 62.500000 53.570000 L 40.500000 66.269997 C 40.347595 66.356377 40.175175 66.401207 40.000000 66.399994 Z M 19.000000 52.119999 L 40.000000 64.250000 L 61.000000 52.119999 L 61.000000 27.879999 L 40.000000 15.750000 L 19.000000 27.879999 Z" fill="#FFFFFF"/><rect x="39.000000" y="56.000000" width="2.000000" height="9.390000" fill="#FFFFFF"/><rect x="33.500000" y="30.480000" width="2.000000" height="12.710000" fill="#FFFFFF" transform="matrix(0.500302,-0.865851,0.865851,0.500302,-14.650000,48.270000)"/><path d=" M 41.000000 52.700001 L 39.000000 52.700001 L 39.000000 40.000000 C 38.998577 39.641315 39.189365 39.309341 39.500000 39.130001 L 50.500000 32.770000 L 51.500000 34.509998 L 41.000000 40.580002 Z" fill="#FFFFFF"/></g></svg>