<svg version="1.1" width="80.000000" height="100.000000" viewBox="0.000000 0.000000 80.000000 100.000000" xmlns="http://www.w3.org/2000/svg" xmlns:xlink="http://www.w3.org/1999/xlink" overflow="hidden"><g id="CARDS"><rect x="1.000000" y="1.000000" width="78.000000" height="78.000000" fill="#232F3E"/><path d=" M 0.000000 0.000000 L 0.000000 80.000000 L 0.000000 80.000000 L 0.000000 100.000000 L 80.000000 100.000000 L 80.000000 80.000000 L 80.000000 80.000000 L 80.000000 0.000000 Z M 1.000000 1.000000 L 79.000000 1.000000 L 79.000000 79.000000 L 1.000000 79.000000 Z" fill="#FFFFFF"/></g><g id="TEXT_-_EDIT"><path d=" M 18.650000 92.349998 L 18.209999 90.529999 L 16.209999 90.529999 L 15.790000 92.349998 L 14.000000 92.349998 L 16.309999 84.720001 L 18.200001 84.720001 L 20.500000 92.349998 Z M 16.459999 89.430000 L 18.000000 89.430000 L 17.240000 86.269997 Z" fill="#232F3E"/><path d=" M 25.850000 92.349998 L 24.910000 86.720001 L 24.000000 92.349998 L 22.150000 92.349998 L 20.370001 84.720001 L 22.070000 84.720001 L 23.129999 90.779999 L 24.000000 85.000000 L 25.830000 85.000000 L 26.770000 90.650002 L 27.770000 84.650002 L 29.500000 84.650002 L 27.719999 92.279999 Z" fill="#232F3E"/><path d=" M 31.799999 89.000000 C 31.304529 88.765594 30.867329 88.424026 30.519999 88.000000 C 30.261232 87.643089 30.127642 87.210678 30.139999 86.769997 C 30.128889 86.354126 30.247740 85.945145 30.480000 85.599998 C 30.705702 85.259720 31.025288 84.992241 31.400000 84.830002 C 31.821419 84.642693 32.278927 84.550507 32.739998 84.560005 C 33.389763 84.562088 34.032482 84.694710 34.629997 84.950005 L 34.630001 86.120003 C 34.078255 85.917831 33.497395 85.806381 32.910000 85.790001 C 32.625244 85.776161 32.343925 85.857040 32.110001 86.020004 C 31.919699 86.176292 31.815626 86.414169 31.830000 86.660004 C 31.822313 86.862022 31.886044 87.060295 32.009998 87.220001 C 32.217770 87.423737 32.462021 87.586571 32.730000 87.700005 L 33.380001 88.019997 C 33.737839 88.184235 34.073772 88.392517 34.380001 88.639999 C 34.615208 88.823380 34.803677 89.059822 34.930000 89.330002 C 35.049374 89.621704 35.107250 89.934906 35.099998 90.250000 C 35.130260 90.886475 34.855427 91.499283 34.359997 91.900002 C 33.783337 92.327324 33.076981 92.542763 32.359997 92.510002 C 31.976862 92.509674 31.594803 92.469460 31.219997 92.389999 C 30.874218 92.327065 30.538074 92.219498 30.219997 92.070000 L 30.219999 90.919998 C 30.547495 91.025146 30.881548 91.108665 31.219999 91.169998 C 31.549118 91.238113 31.883944 91.274940 32.220001 91.279999 C 32.533581 91.302475 32.845078 91.213982 33.100002 91.029999 C 33.306396 90.853905 33.417595 90.590736 33.400002 90.320000 C 33.406090 90.107033 33.331024 89.899704 33.190002 89.739998 C 32.982327 89.543411 32.742092 89.384384 32.480003 89.269997 Z" fill="#232F3E"/><path d=" M 42.490002 92.349998 L 41.070000 89.639999 L 39.730000 92.349998 L 38.099998 92.349998 L 40.340000 88.430000 L 38.270000 84.720001 L 40.090000 84.720001 L 41.299999 87.230003 L 42.520000 84.720001 L 44.130001 84.720001 L 42.000000 88.419998 L 44.279999 92.349998 Z" fill="#232F3E"/><path d=" M 44.750000 90.120003 L 44.750000 88.889999 L 47.930000 88.889999 L 47.930000 90.120003 Z" fill="#232F3E"/><path d=" M 52.919998 92.349998 L 51.459999 89.519997 L 50.810001 89.519997 L 50.810001 92.349998 L 49.160000 92.349998 L 49.160000 84.720001 L 51.799999 84.720001 C 52.453438 84.689598 53.091537 84.923927 53.570000 85.370003 C 54.019009 85.838562 54.254265 86.471939 54.220001 87.120003 C 54.230640 87.583603 54.120354 88.041977 53.900002 88.450005 C 53.687996 88.822403 53.361984 89.116867 52.970001 89.290001 L 54.660000 92.349998 Z M 50.810001 88.349998 L 51.599998 88.349998 C 51.873032 88.368484 52.137959 88.252815 52.309998 88.040001 C 52.495430 87.763138 52.583389 87.432404 52.559998 87.099998 C 52.585049 86.770569 52.496845 86.442467 52.309998 86.169998 C 52.142315 85.950584 51.875450 85.830307 51.599998 85.849998 L 50.810001 85.849998 Z" fill="#232F3E"/><path d=" M 58.380001 92.349998 L 58.230000 91.839996 C 58.079304 92.046989 57.875443 92.209389 57.639999 92.309998 C 57.397038 92.428444 57.130295 92.489998 56.860001 92.489998 C 56.414749 92.502617 55.985340 92.324303 55.680000 92.000000 C 55.069267 91.252548 55.112175 90.166916 55.779999 89.470001 C 56.177273 89.133095 56.690315 88.964470 57.209999 89.000000 C 57.524029 89.006668 57.836178 89.050301 58.139999 89.129997 L 58.139999 88.620003 C 58.162144 88.350067 58.106628 88.079422 57.980000 87.840004 C 57.814796 87.688873 57.592613 87.616028 57.369999 87.640007 C 56.764797 87.666672 56.167534 87.788155 55.599998 88.000008 L 55.599998 87.000000 C 55.882702 86.839798 56.190319 86.728241 56.509998 86.669998 C 56.891399 86.589516 57.280197 86.549301 57.669998 86.549995 C 58.213604 86.504028 58.755005 86.660744 59.189999 86.989998 C 59.534771 87.366852 59.705322 87.871239 59.660000 88.379997 L 59.660000 92.320000 Z M 57.380001 91.430000 C 57.681385 91.418922 57.967319 91.293823 58.180000 91.080002 L 58.180000 90.000000 C 57.974060 89.948677 57.762180 89.925140 57.549999 89.930000 C 57.352249 89.913605 57.157619 89.987053 57.020000 90.129997 C 56.880947 90.293694 56.812603 90.505920 56.830002 90.719994 C 56.819714 90.905304 56.872593 91.088631 56.980003 91.239990 C 57.064930 91.354698 57.197380 91.424606 57.340004 91.429993 Z" fill="#232F3E"/><path d=" M 62.259998 92.459999 L 60.259998 86.720001 L 62.000000 86.720001 L 62.919998 90.860001 L 63.830002 86.720001 L 65.529999 86.720001 L 63.529999 93.199997 C 63.420708 93.647972 63.188690 94.056602 62.860001 94.379997 C 62.546204 94.631195 62.151501 94.759209 61.750000 94.739998 C 61.390652 94.740013 61.033333 94.686081 60.689999 94.579994 L 60.689999 93.580002 C 60.883106 93.593239 61.076893 93.593239 61.270000 93.580002 C 61.516922 93.600166 61.761684 93.520981 61.950001 93.360001 C 62.134422 93.156609 62.240726 92.894394 62.250000 92.620003 Z" fill="#232F3E"/></g><g id="ICONS_-_EDIT"><path d=" M 57.139999 47.930000 L 56.860001 45.930000 C 59.660000 45.529999 63.000000 43.930000 63.000000 38.599998 C 63.000000 33.599998 59.200001 31.760000 56.000000 31.120001 C 55.552174 31.029186 55.222870 30.646368 55.200001 30.190001 C 54.980000 26.280001 52.709999 24.900000 50.830002 24.900000 C 49.548939 24.904716 48.344860 25.512314 47.580002 26.539999 C 47.359364 26.835087 46.994335 26.984941 46.630001 26.929998 C 46.267384 26.874626 45.964184 26.625160 45.840000 26.279999 C 45.183037 24.402880 44.117382 22.695097 42.720001 21.279999 C 38.439106 16.838068 31.367857 16.707525 26.925926 20.988420 C 24.804083 23.033340 23.576284 25.833895 23.510000 28.779999 C 23.511433 29.227816 23.538141 29.675194 23.590000 30.119999 C 23.655880 30.623985 23.333221 31.097218 22.840000 31.219999 C 20.660000 31.760000 17.000000 33.419998 17.000000 38.490002 C 17.000000 38.680000 17.000000 38.849998 17.000000 39.029999 C 17.160000 42.029999 19.730000 44.720001 23.240000 45.660000 L 22.719999 47.590000 C 18.410000 46.500000 15.230000 43.000000 15.000000 39.200001 C 15.000000 38.980000 15.000000 38.770000 15.000000 38.549999 C 14.815538 34.395485 17.523256 30.663561 21.530001 29.549999 C 21.530001 29.309999 21.530001 29.059999 21.530001 28.820000 C 21.668606 21.547729 27.676306 15.764752 34.948574 15.903358 C 38.417938 15.969481 41.721024 17.402145 44.139999 19.889999 C 45.384853 21.128351 46.400539 22.577398 47.139999 24.170000 C 48.199520 23.343092 49.505997 22.895863 50.849998 22.900000 C 53.660000 22.900000 56.610001 24.900000 57.150002 29.320000 C 62.209999 30.590000 65.000000 33.869999 65.000000 38.619999 C 65.000000 43.830002 62.139999 47.230000 57.139999 47.930000 Z" fill="#FFFFFF"/><path d=" M 40.000000 64.050003 C 31.715729 64.050003 25.000000 57.334274 25.000000 49.050003 C 25.000000 40.765732 31.715729 34.050003 40.000000 34.050003 C 48.284271 34.050003 55.000000 40.765732 55.000000 49.050003 C 55.000000 57.334274 48.284271 64.050003 40.000000 64.050003 Z M 40.000000 36.049999 C 32.820297 36.049999 27.000000 41.870296 27.000000 49.049999 C 27.000000 56.229702 32.820297 62.049999 40.000000 62.049999 C 47.179703 62.049999 53.000000 56.229702 53.000000 49.049999 C 53.000000 41.870296 47.179703 36.049999 40.000000 36.049999 Z" fill="#FFFFFF"/><rect x="32.000000" y="54.050000" width="16.000000" height="2.000000" fill="#FFFFFF"/><rect x="34.000000" y="48.050000" width="2.000000" height="7.000000" fill="#FFFFFF"/><rect x="39.000000" y="45.050000" width="2.000000" height="10.000000" fill="#FFFFFF"/><rect x="44.000000" y="42.050000" width="2.000000" height="13.000000" fill="#FFFFFF"/></g></svg>