<svg id="Product_Icon" data-name="Product Icon" xmlns="http://www.w3.org/2000/svg" xmlns:xlink="http://www.w3.org/1999/xlink" width="75" height="75" viewBox="0 0 75 75"><defs><linearGradient id="BlueGradient" x1="90.53" y1="90.53" x2="-15.53" y2="-15.53" gradientTransform="translate(75 0) rotate(90)" gradientUnits="userSpaceOnUse"><stop offset="0" stop-color="#2e27ad"/><stop offset="1" stop-color="#527fff"/></linearGradient></defs><title>Amazon-Simple-Email-Service-SES</title><rect id="Blue_Gradient" data-name="Blue Gradient" width="75" height="75" style="fill:url(#BlueGradient)"/><g id="Icon_Test" data-name="Icon Test"><path d="M37.5,12.5A25,25,0,0,0,17.21,52.09l1.62-1.17A23,23,0,1,1,60.5,37.5a22.81,22.81,0,0,1-4.33,13.42l1.62,1.17A25,25,0,0,0,37.5,12.5Z" style="fill:#fff"/><path d="M50.5,52.12V48.5a1,1,0,0,0-1-1h-11v-6h11a1,1,0,0,0,1-1v-15a1,1,0,0,0-1-1h-24a1,1,0,0,0-1,1v15a1,1,0,0,0,1,1h11v6h-11a1,1,0,0,0-1,1v3.62a4.5,4.5,0,1,0,2,0V49.5h10v4.12a4.5,4.5,0,1,0,2,0V49.5h10v2.62a4.5,4.5,0,1,0,2,0ZM41.77,33.05,48.5,27.6V38.42Zm-4.27.88L28.32,26.5H46.68ZM33.19,33l-6.69,5.4V27.6Zm1.59,1.29L36.87,36a1,1,0,0,0,1.26,0l2-1.66,6.46,5.16H28.33ZM28,56.5A2.5,2.5,0,1,1,25.5,54,2.5,2.5,0,0,1,28,56.5ZM40,58a2.5,2.5,0,1,1-2.5-2.5A2.5,2.5,0,0,1,40,58Zm9.5,1A2.5,2.5,0,1,1,52,56.5,2.5,2.5,0,0,1,49.5,59Z" style="fill:#fff"/></g></svg>