<svg version="1.1" width="80.000000" height="115.000000" viewBox="0.000000 0.000000 80.000000 115.000000" xmlns="http://www.w3.org/2000/svg" xmlns:xlink="http://www.w3.org/1999/xlink" overflow="hidden"><g id="CARDS"><rect x="1.000000" y="1.000000" width="78.000000" height="78.000000" fill="#232F3E"/><path d=" M 0.000000 0.000000 L 0.000000 80.000000 L 0.000000 80.000000 L 0.000000 115.000000 L 80.000000 115.000000 L 80.000000 80.000000 L 80.000000 80.000000 L 80.000000 0.000000 Z M 1.000000 1.000000 L 79.000000 1.000000 L 79.000000 79.000000 L 1.000000 79.000000 Z" fill="#FFFFFF"/></g><g id="TEXT_-_EDIT"><path d=" M 25.350000 92.349998 L 24.920000 90.529999 L 22.920000 90.529999 L 22.500000 92.349998 L 20.719999 92.349998 L 23.000000 84.720001 L 24.900000 84.720001 L 27.209999 92.349998 Z M 23.170000 89.430000 L 24.660000 89.430000 L 23.900000 86.269997 Z" fill="#232F3E"/><path d=" M 34.060001 92.349998 L 34.060001 88.639999 C 34.076664 88.401566 34.028278 88.163086 33.920002 87.949997 C 33.819908 87.796371 33.642418 87.711487 33.460003 87.729996 C 33.174831 87.743271 32.898491 87.833084 32.660004 87.989998 C 32.664822 88.029854 32.664822 88.070145 32.660004 88.110001 L 32.660000 92.349998 L 31.000000 92.349998 L 31.000000 88.639999 C 31.019257 88.402504 30.974358 88.164200 30.870001 87.949997 C 30.765142 87.796478 30.585056 87.712181 30.400002 87.729996 C 30.121338 87.744865 29.851856 87.834694 29.620001 87.989998 L 29.620001 92.349998 L 28.000000 92.349998 L 28.000000 86.720001 L 29.350000 86.720001 L 29.480000 87.230003 C 30.005705 86.838974 30.635632 86.612755 31.289999 86.580002 C 31.787903 86.543671 32.259682 86.807076 32.489998 87.250000 C 33.020988 86.851845 33.657448 86.618820 34.320000 86.580002 C 34.698605 86.567619 35.063778 86.720993 35.320000 87.000000 C 35.580429 87.351334 35.707973 87.783562 35.680000 88.220001 L 35.680000 92.349998 Z" fill="#232F3E"/><path d=" M 40.000000 92.349998 L 39.860001 91.839996 C 39.704742 92.042564 39.502155 92.203949 39.270000 92.309998 C 39.023094 92.427322 38.753361 92.488777 38.480000 92.489998 C 38.038441 92.498497 37.613724 92.320625 37.310001 92.000000 C 37.006588 91.668808 36.851307 91.228241 36.880001 90.779999 C 36.856857 90.286880 37.050484 89.808296 37.410000 89.470001 C 37.807274 89.133095 38.320316 88.964470 38.840000 89.000000 C 39.154030 89.006668 39.466179 89.050301 39.770000 89.129997 L 39.770000 88.620003 C 39.797573 88.349762 39.741737 88.077560 39.610001 87.840004 C 39.445477 87.687714 39.222755 87.614693 39.000000 87.640007 C 38.395546 87.665237 37.798565 87.783279 37.230000 87.990005 L 37.230000 87.000000 C 37.516563 86.840446 37.827354 86.728966 38.149998 86.669998 C 38.528015 86.589485 38.913502 86.549255 39.299999 86.549995 C 39.843796 86.502090 40.385880 86.659012 40.820000 86.989998 C 41.164772 87.366852 41.335323 87.871239 41.290001 88.379997 L 41.290001 92.320000 Z M 39.000000 91.430000 C 39.298344 91.418404 39.580971 91.293190 39.790001 91.080002 L 39.790001 90.000000 C 39.587475 89.948616 39.378887 89.925064 39.170002 89.930000 C 38.969070 89.911972 38.770714 89.985435 38.630001 90.129997 C 38.490948 90.293694 38.422604 90.505920 38.440002 90.719994 C 38.429714 90.905304 38.482594 91.088631 38.590004 91.239990 C 38.687565 91.366325 38.840549 91.437218 39.000004 91.429993 Z" fill="#232F3E"/><path d=" M 42.279999 92.349998 L 42.279999 91.279999 L 44.770000 87.879997 L 42.369999 87.879997 L 42.369999 86.720001 L 46.509998 86.720001 L 46.509998 87.790001 L 44.000000 91.190002 L 46.540001 91.190002 L 46.540001 92.349998 Z" fill="#232F3E"/><path d=" M 49.790001 92.489998 C 49.108715 92.511253 48.453094 92.229225 48.000000 91.720001 C 47.133984 90.392052 47.133984 88.677956 48.000000 87.349998 C 49.011749 86.331032 50.657967 86.325180 51.676933 87.336929 C 51.681305 87.341270 51.685661 87.345627 51.690002 87.349998 C 52.556019 88.677948 52.556019 90.392044 51.690002 91.720001 C 51.211487 92.259041 50.508781 92.543823 49.790001 92.489998 Z M 49.790001 91.339996 C 50.076321 91.350388 50.337559 91.177567 50.440002 90.909996 C 50.706799 90.016144 50.706799 89.063843 50.440002 88.169998 C 50.304638 87.813774 49.906124 87.634735 49.549900 87.770103 C 49.365585 87.840141 49.220043 87.985687 49.150002 88.169998 C 48.883205 89.063850 48.883205 90.016151 49.150002 90.909996 C 49.248730 91.175995 49.506416 91.349129 49.790001 91.339996 Z" fill="#232F3E"/><path d=" M 56.549999 92.349998 L 56.549999 88.650002 C 56.566494 88.408363 56.518166 88.166710 56.410000 87.950005 C 56.294102 87.793236 56.103878 87.709541 55.910000 87.730003 C 55.621128 87.739960 55.340698 87.829971 55.099998 87.990005 L 55.099998 92.349998 L 53.439999 92.349998 L 53.439999 86.720001 L 54.790001 86.720001 L 54.930000 87.230003 C 55.464371 86.833908 56.105400 86.607452 56.770000 86.580002 C 57.171432 86.553581 57.563728 86.707565 57.840000 87.000000 C 58.102020 87.350540 58.229740 87.783371 58.200001 88.220001 L 58.200001 92.349998 Z" fill="#232F3E"/><path d=" M 26.309999 106.129997 C 25.741667 106.360519 25.133272 106.476074 24.519999 106.469994 C 22.280001 106.470001 21.150000 105.169998 21.150000 102.570000 C 21.069967 101.516510 21.371679 100.469391 22.000000 99.620003 C 22.649338 98.922134 23.579004 98.554680 24.530001 98.620003 C 25.093498 98.620705 25.652317 98.722313 26.180000 98.920006 L 26.180000 100.129997 C 25.712051 99.991005 25.227962 99.913689 24.740000 99.899994 C 24.200451 99.854988 23.674414 100.084198 23.340000 100.509995 C 22.995201 101.091789 22.838070 101.765701 22.889999 102.439995 L 22.889999 102.690002 C 22.839346 103.353394 22.992886 104.016403 23.330000 104.590004 C 23.651361 105.015427 24.168814 105.245827 24.700001 105.200005 C 25.234768 105.173027 25.764786 105.085808 26.280001 104.940002 Z" fill="#232F3E"/><path d=" M 29.540001 106.489998 C 28.838314 106.528084 28.157448 106.244698 27.690001 105.720001 C 26.823986 104.392052 26.823986 102.677956 27.690001 101.349998 C 28.701748 100.331032 30.347967 100.325180 31.366932 101.336929 C 31.371304 101.341270 31.375660 101.345627 31.379999 101.349998 C 32.246014 102.677948 32.246014 104.392044 31.379999 105.720001 C 30.916534 106.244324 30.238766 106.527962 29.539999 106.489998 Z M 29.540001 105.339996 C 29.823584 105.349129 30.081272 105.175995 30.180000 104.909996 C 30.446798 104.016144 30.446798 103.063843 30.180000 102.169998 C 30.044634 101.813774 29.646122 101.634735 29.289898 101.770103 C 29.105585 101.840141 28.960039 101.985687 28.889999 102.169998 C 28.623201 103.063850 28.623201 104.016151 28.889999 104.909996 C 28.992441 105.177567 29.253679 105.350380 29.539999 105.339996 Z" fill="#232F3E"/><path d=" M 36.299999 106.349998 L 36.299999 102.650002 C 36.319313 102.407036 36.267174 102.163719 36.149998 101.950005 C 36.037304 101.794876 35.850807 101.711143 35.659996 101.730003 C 35.367786 101.738640 35.083794 101.828682 34.839996 101.990005 L 34.840000 106.349998 L 33.189999 106.349998 L 33.189999 100.720001 L 34.540001 100.720001 L 34.669998 101.230003 C 35.205238 100.835541 35.845749 100.609268 36.509998 100.580002 C 36.911430 100.553581 37.303726 100.707565 37.579998 101.000000 C 37.845577 101.349174 37.976883 101.782127 37.949997 102.220001 L 37.950001 106.349998 Z" fill="#232F3E"/><path d=" M 42.450001 106.349998 L 42.450001 102.650002 C 42.466496 102.408363 42.418167 102.166710 42.310001 101.950005 C 42.194103 101.793236 42.003880 101.709541 41.810001 101.730003 C 41.520435 101.744469 41.240334 101.837837 41.000000 102.000000 L 41.000000 106.360001 L 39.340000 106.360001 L 39.340000 100.730003 L 40.689999 100.730003 L 40.820000 101.239998 C 41.358891 100.845284 42.002651 100.619102 42.669998 100.589996 C 43.068466 100.563766 43.457634 100.717964 43.730000 101.009995 C 43.999729 101.357033 44.131523 101.791595 44.099998 102.229996 L 44.099998 106.360001 Z" fill="#232F3E"/><path d=" M 46.720001 103.919998 C 46.699253 104.324760 46.827301 104.723129 47.080002 105.040001 C 47.374474 105.288261 47.756645 105.407242 48.140003 105.370003 C 48.369205 105.363998 48.597134 105.333832 48.820004 105.280006 C 49.091255 105.228806 49.358578 105.158638 49.620003 105.070007 L 49.619999 106.070000 C 49.361759 106.217194 49.081505 106.321869 48.789997 106.379997 C 48.461472 106.451813 48.126274 106.488686 47.789997 106.489998 C 46.070000 106.489998 45.209999 105.489998 45.209999 103.540001 C 45.156960 102.755630 45.379818 101.977402 45.840000 101.340004 C 46.300503 100.818497 46.975536 100.538155 47.670002 100.580002 C 49.040001 100.580002 49.669998 101.339996 49.669998 102.870003 C 49.669125 103.206871 49.628853 103.542488 49.549999 103.870003 Z M 47.630001 101.599998 C 47.049999 101.599998 46.750000 102.059998 46.720001 102.970001 L 48.330002 102.970001 L 48.330002 102.720001 C 48.350445 102.423340 48.291782 102.126572 48.160004 101.860001 C 48.042515 101.684830 47.840446 101.585701 47.630005 101.599998 Z" fill="#232F3E"/><path d=" M 54.500000 106.089996 C 54.303364 106.213127 54.086800 106.301109 53.860001 106.349998 C 53.594292 106.410645 53.322540 106.440842 53.049999 106.439995 C 52.357513 106.489487 51.680202 106.220772 51.209999 105.709991 C 50.342289 104.400703 50.342289 102.699280 51.209999 101.389992 C 51.690342 100.866623 52.380886 100.587463 53.090000 100.629990 C 53.559952 100.630135 54.022976 100.743317 54.439999 100.959991 L 54.439999 101.959999 C 54.119217 101.842697 53.781448 101.778526 53.439999 101.769997 C 53.081944 101.735214 52.731010 101.886154 52.509998 102.169998 C 52.288036 102.561913 52.187126 103.010796 52.219997 103.459999 L 52.220001 103.620003 C 52.187836 104.064751 52.285084 104.509300 52.500000 104.900002 C 52.708992 105.182068 53.050587 105.333885 53.400002 105.300003 C 53.772648 105.292633 54.141293 105.221611 54.490002 105.090004 Z" fill="#232F3E"/><path d=" M 58.820000 106.199997 C 58.429893 106.346176 58.016594 106.420708 57.599998 106.419998 C 57.124668 106.463928 56.650990 106.320389 56.279999 106.019997 C 55.979145 105.656647 55.832035 105.190201 55.869999 104.719994 L 55.869999 101.820000 L 55.139999 101.820000 L 55.139999 100.900002 L 55.919998 100.750000 L 56.160000 99.209999 L 57.520000 99.209999 L 57.520000 100.720001 L 58.799999 100.720001 L 58.799999 101.820000 L 57.520000 101.820000 L 57.520000 104.589996 C 57.501530 104.776146 57.555222 104.962288 57.670002 105.109993 C 57.815342 105.237236 58.008530 105.295555 58.200001 105.269997 C 58.408978 105.266144 58.616894 105.239319 58.820000 105.189995 Z" fill="#232F3E"/></g><g id="ICONS_-_EDIT"><path d=" M 33.000000 63.000000 C 32.843456 62.999062 32.689323 62.961384 32.549999 62.889999 C 32.213718 62.720551 32.001141 62.376556 32.000000 62.000000 L 32.000000 52.000000 L 23.000000 52.000000 C 21.900982 52.032131 20.815470 51.751213 19.870001 51.189999 C 16.773935 49.291367 14.919520 45.890968 15.000001 42.259998 C 14.768708 38.026993 17.481611 34.191650 21.550001 33.000000 L 21.549999 32.279999 C 21.549999 27.200001 24.910000 21.980000 29.370001 20.100000 C 34.425659 17.853634 40.347832 19.030861 44.160000 23.040001 C 45.420338 24.318747 46.436962 25.816572 47.160000 27.460001 C 48.775517 26.190916 50.919346 25.815464 52.869999 26.460001 C 55.419998 27.299999 57.020000 29.639999 57.230000 32.799999 C 59.799999 33.430000 65.029999 35.540001 65.029999 42.330002 C 65.029999 51.230000 56.189999 51.990002 56.099998 51.990002 L 48.330002 51.990002 L 33.590000 62.799999 C 33.419647 62.927788 33.212944 62.997856 33.000000 63.000000 Z M 34.709999 21.000000 C 33.124500 21.016001 31.559048 21.356316 30.109999 22.000000 C 26.167830 23.930828 23.624744 27.891876 23.509998 32.279999 L 23.590000 33.730000 C 23.604801 34.197765 23.293200 34.613232 22.840000 34.730000 C 19.290380 35.436420 16.800953 38.646248 17.000000 42.259998 C 16.906271 45.205994 18.408558 47.973564 20.930000 49.500000 C 21.561026 49.853512 22.277185 50.026497 23.000000 50.000000 L 33.000000 50.000000 C 33.552284 50.000000 34.000000 50.447716 34.000000 51.000000 L 34.000000 60.000000 L 47.410000 50.169998 C 47.583973 50.052864 47.790371 49.993393 48.000000 50.000000 L 56.000000 50.000000 C 56.209999 50.000000 63.000000 49.360001 63.000000 42.330002 C 63.000000 36.430000 58.130001 34.959999 56.000000 34.599998 C 55.465004 34.503353 55.105228 33.997002 55.189999 33.459999 C 55.189999 30.870001 54.090000 28.990000 52.189999 28.360001 C 50.477398 27.816813 48.609261 28.428787 47.549999 29.880001 C 47.331738 30.178843 46.966286 30.332716 46.599998 30.280001 C 46.231174 30.226278 45.922829 29.971897 45.799999 29.620001 C 45.159004 27.694193 44.092636 25.937420 42.680000 24.480001 C 40.580036 22.323261 37.719299 21.074156 34.709999 21.000002 Z" fill="#FFFFFF"/><rect x="27.160000" y="38.020000" width="7.720000" height="2.000000" fill="#FFFFFF" transform="matrix(0.709817,-0.704386,0.704386,0.709817,-18.480000,33.170000)"/><rect x="37.960000" y="35.990000" width="2.000000" height="8.050000" fill="#FFFFFF" transform="matrix(0.835903,-0.548877,0.548877,0.835903,-15.570000,27.950000)"/><rect x="43.000000" y="40.010000" width="7.050000" height="2.000000" fill="#FFFFFF" transform="matrix(0.661050,-0.750342,0.750342,0.661050,-15.000000,48.810000)"/><path d=" M 26.500000 47.000000 C 24.567003 47.000000 23.000000 45.432995 23.000000 43.500000 C 23.000000 41.567005 24.567003 40.000000 26.500000 40.000000 C 28.432997 40.000000 30.000000 41.567005 30.000000 43.500000 C 30.000000 45.432995 28.432997 47.000000 26.500000 47.000000 Z M 26.500000 42.000000 C 25.671574 42.000000 25.000000 42.671574 25.000000 43.500000 C 25.000000 44.328426 25.671574 45.000000 26.500000 45.000000 C 27.328426 45.000000 28.000000 44.328426 28.000000 43.500000 C 28.000000 42.671574 27.328426 42.000000 26.500000 42.000000 Z" fill="#FFFFFF"/><path d=" M 35.500000 38.000000 C 33.567005 38.000000 32.000000 36.432995 32.000000 34.500000 C 32.000000 32.567005 33.567005 31.000000 35.500000 31.000000 C 37.432995 31.000000 39.000000 32.567005 39.000000 34.500000 C 39.000000 36.432995 37.432995 38.000000 35.500000 38.000000 Z M 35.500000 33.000000 C 34.671574 33.000000 34.000000 33.671574 34.000000 34.500000 C 34.000000 35.328426 34.671574 36.000000 35.500000 36.000000 C 36.328426 36.000000 37.000000 35.328426 37.000000 34.500000 C 37.000000 33.671574 36.328426 33.000000 35.500000 33.000000 Z" fill="#FFFFFF"/><path d=" M 42.500000 49.000000 C 40.567005 49.000000 39.000000 47.432995 39.000000 45.500000 C 39.000000 43.567005 40.567005 42.000000 42.500000 42.000000 C 44.432995 42.000000 46.000000 43.567005 46.000000 45.500000 C 46.000000 47.432995 44.432995 49.000000 42.500000 49.000000 Z M 42.500000 44.000000 C 41.671574 44.000000 41.000000 44.671574 41.000000 45.500000 C 41.000000 46.328426 41.671574 47.000000 42.500000 47.000000 C 43.328426 47.000000 44.000000 46.328426 44.000000 45.500000 C 44.000000 44.671574 43.328426 44.000000 42.500000 44.000000 Z" fill="#FFFFFF"/><path d=" M 50.500000 40.000000 C 48.567005 40.000000 47.000000 38.432995 47.000000 36.500000 C 47.000000 34.567005 48.567005 33.000000 50.500000 33.000000 C 52.432995 33.000000 54.000000 34.567005 54.000000 36.500000 C 54.000000 38.432995 52.432995 40.000000 50.500000 40.000000 Z M 50.500000 35.000000 C 49.671574 35.000000 49.000000 35.671574 49.000000 36.500000 C 49.000000 37.328426 49.671574 38.000000 50.500000 38.000000 C 51.328426 38.000000 52.000000 37.328426 52.000000 36.500000 C 52.000000 35.671574 51.328426 35.000000 50.500000 35.000000 Z" fill="#FFFFFF"/></g></svg>