<svg version="1.1" width="80.000000" height="115.000000" viewBox="0.000000 0.000000 80.000000 115.000000" xmlns="http://www.w3.org/2000/svg" xmlns:xlink="http://www.w3.org/1999/xlink" overflow="hidden"><g id="CARDS"><rect x="1.000000" y="1.000000" width="78.000000" height="78.000000" fill="#232F3E"/><path d=" M 0.000000 0.000000 L 0.000000 80.000000 L 0.000000 80.000000 L 0.000000 115.000000 L 80.000000 115.000000 L 80.000000 80.000000 L 80.000000 80.000000 L 80.000000 0.000000 Z M 1.000000 1.000000 L 79.000000 1.000000 L 79.000000 79.000000 L 1.000000 79.000000 Z" fill="#FFFFFF"/></g><g id="TEXT_-_EDIT"><path d=" M 25.350000 92.349998 L 24.920000 90.529999 L 22.920000 90.529999 L 22.500000 92.349998 L 20.719999 92.349998 L 23.000000 84.720001 L 24.900000 84.720001 L 27.209999 92.349998 Z M 23.170000 89.430000 L 24.660000 89.430000 L 23.900000 86.269997 Z" fill="#232F3E"/><path d=" M 34.060001 92.349998 L 34.060001 88.639999 C 34.076664 88.401566 34.028278 88.163086 33.920002 87.949997 C 33.819908 87.796371 33.642418 87.711487 33.460003 87.729996 C 33.174831 87.743271 32.898491 87.833084 32.660004 87.989998 C 32.664822 88.029854 32.664822 88.070145 32.660004 88.110001 L 32.660000 92.349998 L 31.000000 92.349998 L 31.000000 88.639999 C 31.019257 88.402504 30.974358 88.164200 30.870001 87.949997 C 30.765142 87.796478 30.585056 87.712181 30.400002 87.729996 C 30.121338 87.744865 29.851856 87.834694 29.620001 87.989998 L 29.620001 92.349998 L 28.000000 92.349998 L 28.000000 86.720001 L 29.350000 86.720001 L 29.480000 87.230003 C 30.005705 86.838974 30.635632 86.612755 31.289999 86.580002 C 31.787903 86.543671 32.259682 86.807076 32.489998 87.250000 C 33.020988 86.851845 33.657448 86.618820 34.320000 86.580002 C 34.698605 86.567619 35.063778 86.720993 35.320000 87.000000 C 35.580429 87.351334 35.707973 87.783562 35.680000 88.220001 L 35.680000 92.349998 Z" fill="#232F3E"/><path d=" M 40.000000 92.349998 L 39.860001 91.839996 C 39.704742 92.042564 39.502155 92.203949 39.270000 92.309998 C 39.023094 92.427322 38.753361 92.488777 38.480000 92.489998 C 38.038441 92.498497 37.613724 92.320625 37.310001 92.000000 C 37.006588 91.668808 36.851307 91.228241 36.880001 90.779999 C 36.856857 90.286880 37.050484 89.808296 37.410000 89.470001 C 37.807274 89.133095 38.320316 88.964470 38.840000 89.000000 C 39.154030 89.006668 39.466179 89.050301 39.770000 89.129997 L 39.770000 88.620003 C 39.797573 88.349762 39.741737 88.077560 39.610001 87.840004 C 39.445477 87.687714 39.222755 87.614693 39.000000 87.640007 C 38.395546 87.665237 37.798565 87.783279 37.230000 87.990005 L 37.230000 87.000000 C 37.516563 86.840446 37.827354 86.728966 38.149998 86.669998 C 38.528015 86.589485 38.913502 86.549255 39.299999 86.549995 C 39.843796 86.502090 40.385880 86.659012 40.820000 86.989998 C 41.164772 87.366852 41.335323 87.871239 41.290001 88.379997 L 41.290001 92.320000 Z M 39.000000 91.430000 C 39.298344 91.418404 39.580971 91.293190 39.790001 91.080002 L 39.790001 90.000000 C 39.587475 89.948616 39.378887 89.925064 39.170002 89.930000 C 38.969070 89.911972 38.770714 89.985435 38.630001 90.129997 C 38.490948 90.293694 38.422604 90.505920 38.440002 90.719994 C 38.429714 90.905304 38.482594 91.088631 38.590004 91.239990 C 38.687565 91.366325 38.840549 91.437218 39.000004 91.429993 Z" fill="#232F3E"/><path d=" M 42.279999 92.349998 L 42.279999 91.279999 L 44.770000 87.879997 L 42.369999 87.879997 L 42.369999 86.720001 L 46.509998 86.720001 L 46.509998 87.790001 L 44.000000 91.190002 L 46.540001 91.190002 L 46.540001 92.349998 Z" fill="#232F3E"/><path d=" M 49.790001 92.489998 C 49.108715 92.511253 48.453094 92.229225 48.000000 91.720001 C 47.133984 90.392052 47.133984 88.677956 48.000000 87.349998 C 49.011749 86.331032 50.657967 86.325180 51.676933 87.336929 C 51.681305 87.341270 51.685661 87.345627 51.690002 87.349998 C 52.556019 88.677948 52.556019 90.392044 51.690002 91.720001 C 51.211487 92.259041 50.508781 92.543823 49.790001 92.489998 Z M 49.790001 91.339996 C 50.076321 91.350388 50.337559 91.177567 50.440002 90.909996 C 50.706799 90.016144 50.706799 89.063843 50.440002 88.169998 C 50.304638 87.813774 49.906124 87.634735 49.549900 87.770103 C 49.365585 87.840141 49.220043 87.985687 49.150002 88.169998 C 48.883205 89.063850 48.883205 90.016151 49.150002 90.909996 C 49.248730 91.175995 49.506416 91.349129 49.790001 91.339996 Z" fill="#232F3E"/><path d=" M 56.549999 92.349998 L 56.549999 88.650002 C 56.566494 88.408363 56.518166 88.166710 56.410000 87.950005 C 56.294102 87.793236 56.103878 87.709541 55.910000 87.730003 C 55.621128 87.739960 55.340698 87.829971 55.099998 87.990005 L 55.099998 92.349998 L 53.439999 92.349998 L 53.439999 86.720001 L 54.790001 86.720001 L 54.930000 87.230003 C 55.464371 86.833908 56.105400 86.607452 56.770000 86.580002 C 57.171432 86.553581 57.563728 86.707565 57.840000 87.000000 C 58.102020 87.350540 58.229740 87.783371 58.200001 88.220001 L 58.200001 92.349998 Z" fill="#232F3E"/><path d=" M 21.780001 103.519997 L 21.780001 106.349998 L 20.129999 106.349998 L 20.129999 98.720001 L 22.770000 98.720001 C 23.420204 98.691185 24.054609 98.925476 24.530001 99.370003 C 25.410034 100.370712 25.410034 101.869293 24.530001 102.870003 C 24.054609 103.314522 23.420204 103.548820 22.770000 103.520004 Z M 21.780001 102.370003 L 22.559999 102.370003 C 22.835594 102.386772 23.102787 102.271729 23.279999 102.060005 C 23.457230 101.779869 23.541243 101.450821 23.519999 101.120003 C 23.542618 100.792213 23.458412 100.465912 23.279999 100.190002 C 23.106913 99.971825 22.837929 99.852280 22.559999 99.870003 L 21.780001 99.870003 Z" fill="#232F3E"/><path d=" M 27.270000 99.809998 C 27.014538 99.824768 26.762354 99.746628 26.560001 99.589996 C 26.388910 99.442520 26.293400 99.225784 26.300001 99.000000 C 26.285618 98.767044 26.381985 98.540955 26.560001 98.389999 C 26.980442 98.084755 27.549561 98.084755 27.970001 98.389999 C 28.148018 98.540955 28.244383 98.767044 28.230001 99.000000 C 28.242809 99.232681 28.146730 99.458099 27.970001 99.610001 C 27.770084 99.762253 27.520176 99.833656 27.270000 99.809998 Z M 26.440001 106.349998 L 26.440001 100.720001 L 28.090000 100.720001 L 28.090000 106.349998 Z" fill="#232F3E"/><path d=" M 32.660000 106.349998 L 32.660000 102.650002 C 32.679314 102.407036 32.627174 102.163719 32.509998 101.950005 C 32.398670 101.793205 32.211147 101.709015 32.019997 101.730003 C 31.727966 101.739677 31.444248 101.829636 31.199997 101.990005 L 31.200001 106.349998 L 29.549999 106.349998 L 29.549999 100.720001 L 30.900000 100.720001 L 31.030001 101.230003 C 31.565239 100.835541 32.205753 100.609268 32.869999 100.580002 C 33.271431 100.553581 33.663727 100.707565 33.939999 101.000000 C 34.205578 101.349174 34.336884 101.782127 34.309998 102.220001 L 34.310001 106.349998 Z" fill="#232F3E"/><path d=" M 35.700001 108.610001 L 35.700001 100.720001 L 37.049999 100.720001 L 37.169998 101.199997 C 37.381084 101.008057 37.624966 100.855629 37.889999 100.750000 C 38.136505 100.643257 38.401432 100.585518 38.669998 100.580002 C 39.267025 100.550934 39.837181 100.830345 40.179996 101.320000 C 40.567715 101.963524 40.749176 102.710312 40.699997 103.459999 C 40.743458 104.230782 40.555401 104.996941 40.159996 105.659996 C 39.821957 106.164963 39.247341 106.459831 38.639996 106.439995 C 38.408226 106.438164 38.178394 106.397598 37.959995 106.319992 C 37.736752 106.242088 37.529911 106.123413 37.349995 105.969994 L 37.349998 108.610001 Z M 38.130001 101.699997 C 37.850071 101.698517 37.576916 101.786064 37.350002 101.949997 L 37.349998 105.059998 C 37.581757 105.223015 37.856720 105.313515 38.139999 105.320000 C 38.437820 105.338585 38.716244 105.171532 38.840000 104.900002 C 39.008617 104.463989 39.080276 103.996498 39.049999 103.529999 C 39.082283 103.050362 39.010654 102.569412 38.840000 102.119995 C 38.712700 101.846878 38.430668 101.680038 38.130001 101.699997 Z" fill="#232F3E"/><path d=" M 44.080002 106.489998 C 43.378315 106.528084 42.697449 106.244698 42.230003 105.720001 C 41.363987 104.392052 41.363987 102.677956 42.230003 101.349998 C 43.241753 100.331032 44.887970 100.325180 45.906937 101.336929 C 45.911308 101.341270 45.915665 101.345627 45.920006 101.349998 C 46.786022 102.677948 46.786022 104.392044 45.920006 105.720001 C 45.456543 106.244324 44.778774 106.527962 44.080006 106.489998 Z M 44.080002 105.339996 C 44.363586 105.349129 44.621273 105.175995 44.720001 104.909996 C 44.986797 104.016144 44.986797 103.063843 44.720001 102.169998 C 44.624676 101.900047 44.366184 101.722336 44.080002 101.729996 C 43.791111 101.721107 43.529083 101.898483 43.430000 102.169998 C 43.163204 103.063850 43.163204 104.016151 43.430000 104.909996 C 43.532440 105.177567 43.793682 105.350380 44.080002 105.339996 Z" fill="#232F3E"/><path d=" M 48.599998 99.809998 C 48.341488 99.824509 48.086250 99.746521 47.879997 99.589996 C 47.708061 99.434639 47.613003 99.211624 47.619999 98.979996 C 47.610191 98.747849 47.705734 98.523689 47.879997 98.369995 C 48.080666 98.202087 48.339149 98.119514 48.599998 98.139992 C 48.850716 98.127335 49.097019 98.209435 49.289997 98.369995 C 49.470448 98.519913 49.570354 98.745628 49.559998 98.979996 C 49.568813 99.214073 49.469193 99.439140 49.289997 99.589996 C 49.095562 99.746964 48.849407 99.825447 48.599998 99.809998 Z M 47.759998 106.349998 L 47.759998 100.720001 L 49.410000 100.720001 L 49.410000 106.349998 Z" fill="#232F3E"/><path d=" M 54.000000 106.349998 L 54.000000 102.650002 C 54.016495 102.408363 53.968166 102.166710 53.860001 101.950005 C 53.742828 101.794846 53.553558 101.711563 53.360001 101.730003 C 53.067970 101.739677 52.784252 101.829636 52.540001 101.990005 L 52.540001 106.349998 L 50.869999 106.349998 L 50.869999 100.720001 L 52.220001 100.720001 L 52.349998 101.230003 C 52.888889 100.835289 53.532650 100.609108 54.199997 100.580002 C 54.598465 100.553772 54.987633 100.707970 55.259998 101.000000 C 55.529728 101.347038 55.661522 101.781601 55.629997 102.220001 L 55.630001 106.349998 Z" fill="#232F3E"/><path d=" M 60.060001 106.199997 C 59.669895 106.346176 59.256596 106.420708 58.840000 106.419998 C 58.364670 106.463928 57.890991 106.320389 57.520000 106.019997 C 57.219147 105.656647 57.072037 105.190201 57.110001 104.719994 L 57.110001 101.820000 L 56.380001 101.820000 L 56.380001 100.900002 L 57.160000 100.750000 L 57.400002 99.209999 L 58.759998 99.209999 L 58.759998 100.720001 L 60.000000 100.720001 L 60.000000 101.820000 L 58.759998 101.820000 L 58.759998 104.589996 C 58.741528 104.776146 58.795219 104.962288 58.910000 105.109993 C 59.055340 105.237236 59.248528 105.295555 59.439999 105.269997 C 59.648975 105.266144 59.856892 105.239319 60.059998 105.189995 Z" fill="#232F3E"/></g><g id="ICONS_-_EDIT"><path d=" M 40.000000 55.439999 C 31.467201 55.439999 24.550001 48.522797 24.550003 39.989994 C 24.550005 31.457195 31.467207 24.539995 40.000008 24.539997 C 48.532806 24.539999 55.450005 31.457201 55.450005 39.990002 C 55.450005 39.993336 55.450005 39.996666 55.450001 40.000000 C 55.438972 48.526608 48.526615 55.434490 40.000000 55.439999 Z M 40.000000 26.549999 C 32.571770 26.549999 26.549999 32.571770 26.549999 40.000000 C 26.549999 47.428230 32.571770 53.450001 40.000000 53.450001 C 47.428230 53.450001 53.450001 47.428230 53.450001 40.000000 C 53.444485 32.574055 47.425945 26.555515 40.000000 26.549999 Z" fill="#FFFFFF"/><path d=" M 40.000000 48.000000 C 35.581722 48.000000 32.000000 44.418278 32.000000 40.000000 C 32.000000 35.581722 35.581722 32.000000 40.000000 32.000000 C 44.418278 32.000000 48.000000 35.581722 48.000000 40.000000 C 48.000000 44.418278 44.418278 48.000000 40.000000 48.000000 Z M 40.000000 34.000000 C 36.686291 34.000000 34.000000 36.686291 34.000000 40.000000 C 34.000000 43.313709 36.686291 46.000000 40.000000 46.000000 C 43.313709 46.000000 46.000000 43.313709 46.000000 40.000000 C 46.000000 36.686291 43.313709 34.000000 40.000000 34.000000 Z" fill="#FFFFFF"/><path d=" M 40.000000 64.000000 C 26.745237 63.956573 16.035334 53.176258 16.078762 39.921497 C 16.122190 26.666735 26.902502 15.956831 40.157265 16.000259 C 43.431385 16.010986 46.668690 16.691525 49.669998 18.000002 L 48.860001 19.830000 C 37.738613 14.936770 24.756203 19.985689 19.862974 31.107077 C 14.969745 42.228462 20.018663 55.210873 31.140051 60.104103 C 42.261436 64.997330 55.243847 59.948414 60.137077 48.827026 C 61.361141 46.044964 61.995449 43.039440 62.000000 40.000000 C 62.012432 36.962414 61.381958 33.956573 60.150002 31.180000 L 62.000000 30.370001 C 63.335876 33.403824 64.017349 36.685135 64.000000 40.000000 C 64.000000 53.254833 53.254833 64.000000 40.000000 64.000000 Z" fill="#FFFFFF"/><path d=" M 56.299999 29.540001 C 53.091225 29.540001 50.489998 26.938776 50.489998 23.730001 C 50.489998 20.521227 53.091225 17.920002 56.299999 17.920002 C 59.508774 17.920002 62.110001 20.521227 62.110001 23.730001 C 62.110001 26.938776 59.508774 29.540001 56.299999 29.540001 Z M 56.299999 19.920000 C 54.195793 19.920000 52.489998 21.625795 52.489998 23.730000 C 52.489998 25.834204 54.195793 27.539999 56.299999 27.539999 C 58.404205 27.539999 60.110001 25.834204 60.110001 23.730000 C 60.104504 21.628075 58.401924 19.925495 56.299999 19.920000 Z" fill="#FFFFFF"/><rect x="37.320000" y="32.560000" width="18.220000" height="2.000000" fill="#FFFFFF" transform="matrix(0.708093,-0.706119,0.706119,0.708093,-10.140000,42.580000)"/></g></svg>