<svg version="1.1" width="80.000000" height="130.000000" viewBox="0.000000 0.000000 80.000000 130.000000" xmlns="http://www.w3.org/2000/svg" xmlns:xlink="http://www.w3.org/1999/xlink" overflow="hidden"><g id="CARDS"><rect x="1.000000" y="1.000000" width="78.000000" height="78.000000" fill="#232F3E"/><path d=" M 0.000000 0.000000 L 0.000000 80.000000 L 0.000000 80.000000 L 0.000000 130.000000 L 80.000000 130.000000 L 80.000000 80.000000 L 80.000000 80.000000 L 80.000000 0.000000 Z M 1.000000 1.000000 L 79.000000 1.000000 L 79.000000 79.000000 L 1.000000 79.000000 Z" fill="#FFFFFF"/></g><g id="TEXT_-_EDIT"><path d=" M 25.350000 92.349998 L 24.920000 90.529999 L 22.920000 90.529999 L 22.500000 92.349998 L 20.719999 92.349998 L 23.000000 84.720001 L 24.900000 84.720001 L 27.209999 92.349998 Z M 23.170000 89.430000 L 24.660000 89.430000 L 23.900000 86.269997 Z" fill="#232F3E"/><path d=" M 34.060001 92.349998 L 34.060001 88.639999 C 34.076664 88.401566 34.028278 88.163086 33.920002 87.949997 C 33.818390 87.798111 33.642017 87.713760 33.460003 87.729996 C 33.174561 87.741776 32.897831 87.831711 32.660004 87.989998 C 32.664921 88.029846 32.664921 88.070152 32.660004 88.110001 L 32.660000 92.349998 L 31.000000 92.349998 L 31.000000 88.639999 C 31.019257 88.402504 30.974358 88.164200 30.870001 87.949997 C 30.765142 87.796478 30.585056 87.712181 30.400002 87.729996 C 30.121338 87.744865 29.851856 87.834694 29.620001 87.989998 L 29.620001 92.349998 L 28.000000 92.349998 L 28.000000 86.720001 L 29.350000 86.720001 L 29.480000 87.230003 C 30.005127 86.837898 30.635393 86.611557 31.289999 86.580002 C 31.787903 86.543671 32.259682 86.807076 32.489998 87.250000 C 33.020988 86.851845 33.657448 86.618820 34.320000 86.580002 C 34.698605 86.567619 35.063778 86.720993 35.320000 87.000000 C 35.580429 87.351334 35.707973 87.783562 35.680000 88.220001 L 35.680000 92.349998 Z" fill="#232F3E"/><path d=" M 40.000000 92.349998 L 39.860001 91.839996 C 39.704742 92.042564 39.502155 92.203949 39.270000 92.309998 C 39.023094 92.427322 38.753361 92.488777 38.480000 92.489998 C 38.038441 92.498497 37.613724 92.320625 37.310001 92.000000 C 37.006588 91.668808 36.851307 91.228241 36.880001 90.779999 C 36.856857 90.286880 37.050484 89.808296 37.410000 89.470001 C 37.807274 89.133095 38.320316 88.964470 38.840000 89.000000 C 39.154030 89.006668 39.466179 89.050301 39.770000 89.129997 L 39.770000 88.620003 C 39.797573 88.349762 39.741737 88.077560 39.610001 87.840004 C 39.445477 87.687714 39.222755 87.614693 39.000000 87.640007 C 38.395546 87.665237 37.798565 87.783279 37.230000 87.990005 L 37.230000 87.000000 C 37.513470 86.841469 37.820801 86.730019 38.139999 86.669998 C 38.521481 86.590019 38.910225 86.549805 39.299999 86.549995 C 39.843796 86.502090 40.385880 86.659012 40.820000 86.989998 C 41.164772 87.366852 41.335323 87.871239 41.290001 88.379997 L 41.290001 92.320000 Z M 39.000000 91.430000 C 39.298344 91.418404 39.580971 91.293190 39.790001 91.080002 L 39.790001 90.000000 C 39.584171 89.948074 39.372208 89.924522 39.160000 89.930000 C 38.962250 89.913605 38.767620 89.987053 38.630001 90.129997 C 38.490948 90.293694 38.422604 90.505920 38.440002 90.719994 C 38.429714 90.905304 38.482594 91.088631 38.590004 91.239990 C 38.687565 91.366325 38.840549 91.437218 39.000004 91.429993 Z" fill="#232F3E"/><path d=" M 42.279999 92.349998 L 42.279999 91.279999 L 44.770000 87.879997 L 42.369999 87.879997 L 42.369999 86.720001 L 46.509998 86.720001 L 46.509998 87.790001 L 44.000000 91.190002 L 46.540001 91.190002 L 46.540001 92.349998 Z" fill="#232F3E"/><path d=" M 49.790001 92.489998 C 49.108448 92.512650 48.452259 92.230377 48.000000 91.720001 C 47.133984 90.392052 47.133984 88.677956 48.000000 87.349998 C 49.011749 86.331032 50.657967 86.325180 51.676933 87.336929 C 51.681305 87.341270 51.685661 87.345627 51.690002 87.349998 C 52.556019 88.677948 52.556019 90.392044 51.690002 91.720001 C 51.211487 92.259041 50.508781 92.543823 49.790001 92.489998 Z M 49.790001 91.339996 C 50.076321 91.350388 50.337559 91.177567 50.440002 90.909996 C 50.706799 90.016144 50.706799 89.063843 50.440002 88.169998 C 50.304638 87.813774 49.906124 87.634735 49.549900 87.770103 C 49.365585 87.840141 49.220043 87.985687 49.150002 88.169998 C 48.883205 89.063850 48.883205 90.016151 49.150002 90.909996 C 49.248730 91.175995 49.506416 91.349129 49.790001 91.339996 Z" fill="#232F3E"/><path d=" M 56.549999 92.349998 L 56.549999 88.650002 C 56.566494 88.408363 56.518166 88.166710 56.410000 87.950005 C 56.294102 87.793236 56.103878 87.709541 55.910000 87.730003 C 55.618229 87.741188 55.334908 87.831024 55.090000 87.990005 L 55.090000 92.349998 L 53.439999 92.349998 L 53.439999 86.720001 L 54.790001 86.720001 L 54.930000 87.230003 C 55.464371 86.833908 56.105400 86.607452 56.770000 86.580002 C 57.171432 86.553581 57.563728 86.707565 57.840000 87.000000 C 58.102020 87.350540 58.229740 87.783371 58.200001 88.220001 L 58.200001 92.349998 Z" fill="#232F3E"/><path d=" M 10.680000 103.000000 C 10.182723 102.768532 9.744914 102.426491 9.400001 102.000000 C 9.134114 101.645622 8.993421 101.212990 9.000001 100.769997 C 8.993392 100.354721 9.111858 99.947060 9.340001 99.599998 C 9.568214 99.261978 9.887068 98.995110 10.260001 98.830002 C 10.684984 98.642815 11.145713 98.550667 11.610002 98.560005 C 12.259570 98.563965 12.901924 98.696510 13.500002 98.950005 L 13.500000 100.120003 C 12.944803 99.917786 12.360649 99.806358 11.770000 99.790001 C 11.497359 99.774712 11.227130 99.848412 11.000000 100.000000 C 10.807279 100.155251 10.699665 100.392738 10.710000 100.639999 C 10.700496 100.843941 10.768355 101.043945 10.900000 101.199997 C 11.101879 101.406235 11.343388 101.569511 11.610000 101.680000 L 12.260000 102.000000 C 12.616052 102.167549 12.951600 102.375595 13.260000 102.620003 C 13.488788 102.807266 13.673213 103.042915 13.800000 103.310005 C 13.924149 103.600281 13.982216 103.914528 13.970000 104.230003 C 14.000261 104.866478 13.725427 105.479286 13.230000 105.880005 C 12.654477 106.309578 11.947297 106.525269 11.230000 106.490005 C 10.850174 106.489639 10.471434 106.449417 10.100000 106.370003 C 9.753342 106.310631 9.416727 106.202911 9.100000 106.050003 L 9.100000 104.900002 C 9.427017 105.006828 9.761186 105.090370 10.100000 105.150002 C 10.429299 105.216972 10.764017 105.253792 11.100000 105.260002 C 11.413756 105.284233 11.725845 105.195564 11.980000 105.010002 C 12.186397 104.833908 12.297593 104.570740 12.280001 104.300003 C 12.286089 104.087036 12.211022 103.879707 12.070001 103.720001 C 11.866231 103.523254 11.629241 103.364136 11.370001 103.250000 Z" fill="#232F3E"/><path d=" M 16.000000 99.809998 C 15.744758 99.822983 15.493181 99.745026 15.290000 99.589996 C 15.112207 99.444801 15.006359 99.229454 15.000000 99.000000 C 14.990191 98.767853 15.085736 98.543694 15.260000 98.389999 C 15.458117 98.224579 15.712521 98.142166 15.970000 98.159996 C 16.224102 98.144775 16.474445 98.227028 16.670000 98.389999 C 16.850451 98.539917 16.950357 98.765633 16.940001 99.000000 C 16.948814 99.234077 16.849197 99.459145 16.670000 99.610001 C 16.478010 99.755119 16.240124 99.826126 16.000000 99.809998 Z M 15.170000 106.349998 L 15.170000 100.720001 L 16.820000 100.720001 L 16.820000 106.349998 Z" fill="#232F3E"/><path d=" M 24.309999 106.349998 L 24.309999 102.639999 C 24.329256 102.402504 24.284357 102.164200 24.180000 101.949997 C 24.075142 101.796478 23.895056 101.712181 23.710001 101.729996 C 23.427711 101.742058 23.154276 101.832047 22.920000 101.989998 C 22.920000 101.989998 22.920000 102.070000 22.920000 102.110001 L 22.920000 106.349998 L 21.280001 106.349998 L 21.280001 102.639999 C 21.296665 102.401566 21.248276 102.163086 21.140001 101.949997 C 21.038391 101.798111 20.862017 101.713760 20.680002 101.729996 C 20.397993 101.743576 20.124956 101.833435 19.890001 101.989998 L 19.889999 106.349998 L 18.240000 106.349998 L 18.240000 100.720001 L 19.590000 100.720001 L 19.719999 101.230003 C 20.246557 100.840569 20.875988 100.614525 21.529999 100.580002 C 22.030237 100.544861 22.504316 100.807365 22.739998 101.250000 C 23.269537 100.849174 23.906834 100.615852 24.569998 100.580002 C 24.949104 100.564880 25.315384 100.718712 25.569998 101.000000 C 25.830427 101.351334 25.957970 101.783562 25.929998 102.220001 L 25.930000 106.349998 Z" fill="#232F3E"/><path d=" M 27.360001 108.610001 L 27.360001 100.720001 L 28.709999 100.720001 L 28.830000 101.199997 C 29.039097 101.010376 29.279268 100.858154 29.539999 100.750000 C 29.790293 100.644142 30.058315 100.586464 30.330000 100.580002 C 30.926632 100.552834 31.495920 100.831825 31.840000 101.320000 C 32.227718 101.963524 32.409180 102.710312 32.360001 103.459999 C 32.405499 104.232277 32.213570 104.999985 31.810001 105.659996 C 31.476517 106.164848 30.904715 106.460220 30.300001 106.439995 C 30.068232 106.438164 29.838398 106.397598 29.620001 106.319992 C 29.395439 106.252296 29.185266 106.143822 29.000000 105.999992 L 29.000000 108.639999 Z M 29.780001 101.699997 C 29.493916 101.710678 29.219509 101.816216 29.000000 102.000000 L 29.000000 105.110001 C 29.231758 105.273018 29.506723 105.363518 29.790001 105.370003 C 30.087124 105.385742 30.364065 105.219574 30.490002 104.950005 C 30.658619 104.513992 30.730280 104.046501 30.700001 103.580002 C 30.732286 103.100365 30.660654 102.619415 30.490002 102.169998 C 30.376198 101.879227 30.092125 101.691177 29.780003 101.699997 Z" fill="#232F3E"/><path d=" M 35.900002 106.250000 C 35.580051 106.367126 35.240520 106.421448 34.900002 106.410004 C 34.504246 106.441948 34.113026 106.307922 33.820000 106.040001 C 33.560101 105.727486 33.434288 105.324898 33.470001 104.919998 L 33.470001 98.209999 L 35.119999 98.209999 L 35.119999 104.750000 C 35.103760 104.888435 35.131763 105.028458 35.200001 105.150002 C 35.275402 105.241234 35.392826 105.286682 35.510002 105.270004 C 35.626446 105.280235 35.743561 105.280235 35.860001 105.270004 Z" fill="#232F3E"/><path d=" M 38.000000 103.919998 C 37.988792 104.323456 38.115814 104.718628 38.360001 105.040001 C 38.655567 105.286263 39.036880 105.404976 39.420002 105.370003 C 39.652554 105.364708 39.883873 105.334534 40.110001 105.280006 C 40.380974 105.227577 40.648212 105.157425 40.910000 105.070007 L 40.910000 106.070000 C 40.647083 106.214767 40.363930 106.319267 40.070000 106.379997 C 39.741600 106.452568 39.406322 106.489449 39.070000 106.489998 C 37.349998 106.489998 36.490002 105.489998 36.490002 103.540001 C 36.436962 102.755630 36.659821 101.977402 37.120003 101.340004 C 37.577766 100.814682 38.254768 100.533524 38.950005 100.580002 C 40.310001 100.580002 40.950001 101.339996 40.950001 102.870003 C 40.949127 103.206871 40.908855 103.542488 40.830002 103.870003 Z M 38.919998 101.599998 C 38.340000 101.599998 38.029999 102.059998 38.000000 102.970001 L 39.619999 102.970001 L 39.619999 102.720001 C 39.640442 102.423340 39.581779 102.126572 39.450001 101.860001 C 39.334362 101.688019 39.136967 101.589325 38.930000 101.599998 Z" fill="#232F3E"/><path d=" M 44.810001 106.349998 L 44.810001 98.720001 L 49.349998 98.720001 L 49.349998 99.900002 L 46.490002 99.900002 L 46.490002 101.849998 L 48.779999 101.849998 L 48.779999 103.000000 L 46.490002 103.000000 L 46.490002 105.150002 L 49.349998 105.150002 L 49.349998 106.330002 Z" fill="#232F3E"/><path d=" M 56.540001 106.349998 L 56.540001 102.639999 C 56.561565 102.401268 56.512905 102.161446 56.400002 101.949997 C 56.299908 101.796371 56.122417 101.711487 55.940002 101.729996 C 55.654831 101.743271 55.378490 101.833084 55.140003 101.989998 C 55.144821 102.029854 55.144821 102.070145 55.140003 102.110001 L 55.139999 106.349998 L 53.509998 106.349998 L 53.509998 102.639999 C 53.526661 102.401566 53.478275 102.163086 53.369999 101.949997 C 53.265141 101.796478 53.085052 101.712181 52.899998 101.729996 C 52.621334 101.744865 52.351852 101.834694 52.119999 101.989998 L 52.119999 106.349998 L 50.470001 106.349998 L 50.470001 100.720001 L 51.820000 100.720001 L 51.950001 101.230003 C 52.475704 100.838974 53.105633 100.612755 53.760002 100.580002 C 54.257908 100.543671 54.729683 100.807076 54.960003 101.250000 C 55.490993 100.851845 56.127453 100.618820 56.790005 100.580002 C 57.168610 100.567619 57.533783 100.720993 57.790005 101.000000 C 58.050434 101.351334 58.177979 101.783562 58.150005 102.220001 L 58.150002 106.349998 Z" fill="#232F3E"/><path d=" M 62.490002 106.349998 L 62.349998 105.839996 C 62.196899 106.044678 61.993721 106.206528 61.759998 106.309998 C 61.516251 106.426201 61.250019 106.487640 60.980000 106.489998 C 60.537800 106.513382 60.106079 106.350128 59.790001 106.040001 C 59.179268 105.292549 59.222176 104.206917 59.889999 103.510002 C 60.287273 103.173096 60.800316 103.004471 61.320000 103.040001 C 61.634029 103.046669 61.946178 103.090302 62.250000 103.169998 L 62.250000 102.660004 C 62.277573 102.389763 62.221737 102.117561 62.090000 101.880005 C 61.925476 101.727715 61.702755 101.654694 61.480000 101.680008 C 60.875546 101.705238 60.278564 101.823280 59.709999 102.030006 L 59.709999 101.029999 C 59.996563 100.870445 60.307354 100.758965 60.629997 100.699997 C 61.008015 100.619484 61.393501 100.579254 61.779999 100.579994 C 62.323795 100.532089 62.865879 100.689011 63.299999 101.019997 C 63.644772 101.396851 63.815323 101.901237 63.770000 102.409996 L 63.770000 106.349998 Z M 61.490002 105.430000 C 61.788345 105.418404 62.070972 105.293190 62.280003 105.080002 L 62.279999 104.000000 C 62.077587 103.947983 61.868912 103.924423 61.660000 103.930000 C 61.459068 103.911972 61.260712 103.985435 61.119999 104.129997 C 60.980946 104.293694 60.912601 104.505920 60.930000 104.719994 C 60.919712 104.905304 60.972591 105.088631 61.080002 105.239990 C 61.171196 105.357796 61.311039 105.427719 61.460003 105.429993 Z" fill="#232F3E"/><path d=" M 66.000000 99.809998 C 65.741486 99.824509 65.486252 99.746521 65.279999 99.589996 C 65.108063 99.434639 65.013008 99.211624 65.019997 98.979996 C 65.010185 98.747849 65.105736 98.523689 65.279999 98.369995 C 65.480667 98.202087 65.739151 98.119514 66.000000 98.139992 C 66.250717 98.127335 66.497025 98.209435 66.690002 98.369995 C 66.891327 98.515671 67.007423 98.751610 67.000000 98.999992 C 67.008812 99.234070 66.909195 99.459137 66.730003 99.609993 C 66.522270 99.769730 66.260139 99.841545 66.000000 99.809990 Z M 65.160004 106.349998 L 65.160004 100.720001 L 66.809998 100.720001 L 66.809998 106.349998 Z" fill="#232F3E"/><path d=" M 70.709999 106.250000 C 70.389801 106.366165 70.050453 106.420456 69.709999 106.410004 C 69.313782 106.445717 68.921082 106.311180 68.629997 106.040001 C 68.366508 105.729019 68.237053 105.326263 68.269997 104.919998 L 68.269997 98.209999 L 70.000000 98.209999 L 70.000000 104.750000 C 69.989197 104.888161 70.016891 105.026619 70.080002 105.150002 C 70.159676 105.241310 70.279938 105.286407 70.400002 105.270004 C 70.516495 105.279053 70.633507 105.279053 70.750000 105.270004 Z" fill="#232F3E"/><path d=" M 24.730000 117.000000 C 24.232723 116.768532 23.794912 116.426491 23.449999 116.000000 C 23.191233 115.643089 23.057642 115.210678 23.070000 114.769997 C 23.059801 114.355682 23.174810 113.947922 23.400000 113.599998 C 23.632124 113.261627 23.954256 112.994911 24.330000 112.830002 C 24.751116 112.641739 25.208838 112.549515 25.670000 112.560005 C 26.319569 112.563965 26.961924 112.696510 27.559999 112.950005 L 27.559999 114.120003 C 27.008253 113.917831 26.427393 113.806381 25.840000 113.790001 C 25.555244 113.776161 25.273926 113.857040 25.040001 114.020004 C 24.847281 114.175255 24.739666 114.412743 24.750000 114.660004 C 24.745146 114.863258 24.812462 115.061668 24.940001 115.220001 C 25.143887 115.428474 25.389143 115.591980 25.660000 115.700005 L 26.309999 116.019997 C 26.667839 116.184235 27.003771 116.392517 27.309999 116.639999 C 27.545288 116.820801 27.731043 117.058159 27.850000 117.330002 C 27.977577 117.619499 28.039066 117.933777 28.030001 118.250000 C 28.060263 118.886475 27.785427 119.499283 27.290001 119.900002 C 26.713343 120.327324 26.006987 120.542763 25.290001 120.510002 C 24.906866 120.509674 24.524807 120.469460 24.150002 120.389999 C 23.804222 120.327065 23.468079 120.219498 23.150002 120.070000 L 23.150000 118.919998 C 23.477161 119.026321 23.811295 119.109856 24.150000 119.169998 C 24.479118 119.238113 24.813944 119.274940 25.150000 119.279999 C 25.457417 119.289337 25.758320 119.190216 26.000000 119.000000 C 26.212818 118.827957 26.328489 118.563034 26.309999 118.290001 C 26.316534 118.075134 26.237391 117.866486 26.090000 117.709999 C 25.886230 117.513252 25.649240 117.354134 25.389999 117.239998 Z" fill="#232F3E"/><path d=" M 30.370001 117.919998 C 30.349251 118.324760 30.477299 118.723129 30.730001 119.040001 C 31.025566 119.286263 31.406881 119.404976 31.790001 119.370003 C 32.019203 119.363998 32.247131 119.333832 32.470001 119.280006 C 32.741528 119.230042 33.008942 119.159843 33.270000 119.070007 L 33.270000 120.070000 C 33.011761 120.217194 32.731506 120.321869 32.439999 120.379997 C 32.111473 120.451813 31.776278 120.488686 31.439999 120.489998 C 29.719999 120.489998 28.860001 119.489998 28.860001 117.540001 C 28.805513 116.753960 29.032366 115.974152 29.500000 115.340004 C 29.954651 114.816292 30.627926 114.535149 31.320000 114.580002 C 32.689999 114.580002 33.369999 115.339996 33.369999 116.870003 C 33.369125 117.206871 33.328854 117.542488 33.250000 117.870003 Z M 31.280001 115.599998 C 30.709999 115.599998 30.400000 116.059998 30.370001 116.970001 L 32.000000 116.970001 L 32.000000 116.720001 C 32.025040 116.423065 31.966135 116.125076 31.830000 115.860001 C 31.708925 115.678207 31.497326 115.578178 31.280001 115.599998 Z" fill="#232F3E"/><path d=" M 34.509998 120.349998 L 34.509998 114.720001 L 35.860001 114.720001 L 36.040001 115.449997 C 36.240948 115.209991 36.485180 115.009857 36.760002 114.860001 C 36.989922 114.734291 37.247959 114.668915 37.510002 114.669998 C 37.639812 114.660080 37.770191 114.660080 37.900002 114.669998 L 37.900002 116.000000 C 37.686886 115.986336 37.473118 115.986336 37.260002 116.000000 C 36.878166 116.000481 36.501644 116.089478 36.160004 116.260002 L 36.160000 120.370003 Z" fill="#232F3E"/><path d=" M 40.320000 120.349998 L 38.459999 114.720001 L 40.209999 114.720001 L 41.099998 118.720001 L 42.020000 114.720001 L 43.720001 114.720001 L 41.869999 120.349998 Z" fill="#232F3E"/><path d=" M 45.340000 113.809998 C 45.084538 113.824768 44.832355 113.746628 44.630001 113.589996 C 44.453274 113.438095 44.357193 113.212677 44.370003 112.979996 C 44.355621 112.747040 44.451988 112.520950 44.630001 112.369995 C 45.050442 112.064751 45.619560 112.064751 46.040001 112.369995 C 46.220451 112.519913 46.320358 112.745628 46.310001 112.979996 C 46.318817 113.214073 46.219196 113.439140 46.040001 113.589996 C 45.842972 113.749374 45.592781 113.828011 45.340000 113.809998 Z M 44.509998 120.349998 L 44.509998 114.720001 L 46.160000 114.720001 L 46.160000 120.349998 Z" fill="#232F3E"/><path d=" M 51.259998 120.089996 C 51.063362 120.213127 50.846798 120.301109 50.619999 120.349998 C 50.354290 120.410645 50.082539 120.440842 49.809998 120.439995 C 49.117512 120.489487 48.440201 120.220772 47.969997 119.709991 C 47.508713 119.088364 47.285229 118.322128 47.339996 117.549988 C 47.289219 116.771988 47.527847 116.002678 48.009995 115.389984 C 48.488075 114.869408 49.174305 114.590515 49.879993 114.629982 C 50.350231 114.627724 50.813824 114.741043 51.229992 114.959984 L 51.230000 115.959999 C 50.909512 115.841644 50.571564 115.777435 50.230000 115.769997 C 49.870422 115.724968 49.514622 115.878006 49.299999 116.169998 C 49.078037 116.561913 48.977127 117.010796 49.009998 117.459999 L 49.009998 117.620003 C 48.973049 118.065079 49.070595 118.511002 49.289997 118.900002 C 49.498989 119.182068 49.840584 119.333885 50.189999 119.300003 C 50.562542 119.291672 50.931026 119.220680 51.279999 119.090004 Z" fill="#232F3E"/><path d=" M 53.520000 117.919998 C 53.508793 118.323456 53.635815 118.718628 53.880001 119.040001 C 54.175568 119.286263 54.556881 119.404976 54.940002 119.370003 C 55.169292 119.365166 55.397346 119.334984 55.620003 119.280006 C 55.894562 119.228943 56.165218 119.158775 56.430004 119.070007 L 56.430000 120.070000 C 56.167084 120.214767 55.883930 120.319267 55.590000 120.379997 C 55.261600 120.452568 54.926323 120.489449 54.590000 120.489998 C 52.869999 120.489998 52.009998 119.489998 52.009998 117.540001 C 51.956959 116.755630 52.179817 115.977402 52.639999 115.340004 C 53.097763 114.814682 53.774765 114.533524 54.470001 114.580002 C 55.830002 114.580002 56.470001 115.339996 56.470001 116.870003 C 56.469128 117.206871 56.428856 117.542488 56.350002 117.870003 Z M 54.439999 115.599998 C 53.860001 115.599998 53.549999 116.059998 53.520000 116.970001 L 55.139999 116.970001 L 55.139999 116.720001 C 55.160442 116.423340 55.101780 116.126572 54.970001 115.860001 C 54.852512 115.684830 54.650444 115.585701 54.440002 115.599998 Z" fill="#232F3E"/></g><g id="ICONS_-_EDIT"><path d=" M 60.290001 54.590000 L 58.669998 53.419998 C 66.088547 43.108841 63.743618 28.736078 53.432461 21.317533 C 43.121304 13.898989 28.748541 16.243914 21.329996 26.555069 C 15.556663 34.579517 15.556663 45.395550 21.329996 53.419998 L 19.709999 54.590000 C 11.643697 43.384140 14.188812 27.760965 25.394672 19.694664 C 36.600533 11.628362 52.223705 14.173477 60.290009 25.379337 C 63.355415 29.637859 65.003220 34.752934 65.000000 40.000000 C 65.011772 45.238949 63.362827 50.346836 60.290001 54.590000 Z" fill="#FFFFFF"/><path d=" M 52.000000 44.000000 L 28.000000 44.000000 C 27.447716 44.000000 27.000000 43.552284 27.000000 43.000000 L 27.000000 28.000000 C 27.000000 27.447716 27.447716 27.000000 28.000000 27.000000 L 52.000000 27.000000 C 52.552284 27.000000 53.000000 27.447716 53.000000 28.000000 L 53.000000 43.000000 C 53.000000 43.552284 52.552284 44.000000 52.000000 44.000000 Z M 29.000000 42.000000 L 51.000000 42.000000 L 51.000000 29.000000 L 29.000000 29.000000 Z" fill="#FFFFFF"/><path d=" M 40.000000 38.720001 C 39.771004 38.720966 39.548615 38.643307 39.369999 38.500000 L 27.370001 28.780001 L 28.629999 27.219999 L 40.000000 36.430000 L 51.369999 27.219999 L 52.630001 28.780001 L 40.630001 38.500000 C 40.451385 38.643303 40.228996 38.720963 40.000000 38.720001 Z" fill="#FFFFFF"/><rect x="46.360000" y="33.370000" width="2.000000" height="11.860000" fill="#FFFFFF" transform="matrix(0.620000,-0.780000,0.780000,0.620000,-12.900000,51.820000)"/><rect x="26.690000" y="38.300000" width="11.780000" height="2.000000" fill="#FFFFFF" transform="matrix(0.778243,-0.627963,0.627963,0.778243,-17.450000,29.170000)"/><path d=" M 29.000000 55.470001 L 27.000000 55.470001 L 27.000000 51.000000 C 27.000000 50.447716 27.447716 50.000000 28.000000 50.000000 L 52.000000 50.000000 C 52.552284 50.000000 53.000000 50.447716 53.000000 51.000000 L 53.000000 55.000000 L 51.000000 55.000000 L 51.000000 52.000000 L 29.000000 52.000000 Z" fill="#FFFFFF"/><rect x="39.000000" y="43.000000" width="2.000000" height="14.000000" fill="#FFFFFF"/><path d=" M 40.000000 65.000000 C 37.514717 65.000000 35.500000 62.985283 35.500000 60.500000 C 35.500000 58.014717 37.514717 56.000000 40.000000 56.000000 C 42.485283 56.000000 44.500000 58.014717 44.500000 60.500000 C 44.494499 62.983002 42.483002 64.994499 40.000000 65.000000 Z M 40.000000 58.000000 C 38.619289 58.000000 37.500000 59.119289 37.500000 60.500000 C 37.500000 61.880711 38.619289 63.000000 40.000000 63.000000 C 41.380711 63.000000 42.500000 61.880711 42.500000 60.500000 C 42.500000 59.119289 41.380711 58.000000 40.000000 58.000000 Z" fill="#FFFFFF"/><path d=" M 52.000000 63.500000 C 49.514717 63.500000 47.500000 61.485283 47.500000 59.000000 C 47.500000 56.514717 49.514717 54.500000 52.000000 54.500000 C 54.485283 54.500000 56.500000 56.514717 56.500000 59.000000 C 56.494499 61.483002 54.483002 63.494499 52.000000 63.500000 Z M 52.000000 56.500000 C 50.619289 56.500000 49.500000 57.619289 49.500000 59.000000 C 49.500000 60.380711 50.619289 61.500000 52.000000 61.500000 C 53.380711 61.500000 54.500000 60.380711 54.500000 59.000000 C 54.500000 57.619289 53.380711 56.500000 52.000000 56.500000 Z" fill="#FFFFFF"/><path d=" M 28.000000 63.500000 C 25.514719 63.500000 23.500000 61.485283 23.500000 59.000000 C 23.500000 56.514717 25.514719 54.500000 28.000000 54.500000 C 30.485281 54.500000 32.500000 56.514717 32.500000 59.000000 C 32.494499 61.483002 30.483000 63.494499 28.000000 63.500000 Z M 28.000000 56.500000 C 26.619287 56.500000 25.500000 57.619289 25.500000 59.000000 C 25.500000 60.380711 26.619287 61.500000 28.000000 61.500000 C 29.380713 61.500000 30.500000 60.380711 30.500000 59.000000 C 30.500000 57.619289 29.380713 56.500000 28.000000 56.500000 Z" fill="#FFFFFF"/></g></svg>