<svg id="Layer_1" data-name="Layer 1" xmlns="http://www.w3.org/2000/svg" width="50" height="50" viewBox="0 0 50 50"><title>AWS-Identity-and-Access-Management-IAM_Long-term-Security-Credential_light-bg</title><path d="M11.17,40.75a9.67,9.67,0,1,1,9-13.3h1.56l2-2a1,1,0,0,1,1.41,0l2,2h.68l2-2a1,1,0,0,1,1.41,0l2,2h1.85a1,1,0,0,1,.66.24l3,2.64a1,1,0,0,1,.1,1.4l-2.26,2.64a1,1,0,0,1-.76.35H20.12A9.6,9.6,0,0,1,11.17,40.75Zm0-17.33a7.67,7.67,0,1,0,7.3,10,1,1,0,0,1,1-.7H35.2l1.32-1.54-2-1.73H32.65a1,1,0,0,1-.71-.3L30.38,27.6l-1.55,1.55a1,1,0,0,1-.71.3h-1.5a1,1,0,0,1-.71-.3L24.36,27.6,22.8,29.15a1,1,0,0,1-.71.3H19.42a1,1,0,0,1-1-.7A7.63,7.63,0,0,0,11.17,23.42ZM8.53,34.72a3.64,3.64,0,1,1,3.64-3.64A3.64,3.64,0,0,1,8.53,34.72Zm0-5.27a1.64,1.64,0,1,0,1.64,1.63A1.64,1.64,0,0,0,8.53,29.45Z" style="fill:#d6242d"/><path d="M38.83,23.42a9.61,9.61,0,0,1-8.95-6H28.32l-2,2a1,1,0,0,1-1.41,0l-2-2h-.68l-2,2a1,1,0,0,1-1.41,0l-2-2H15.09a1,1,0,0,1-.66-.25l-3-2.64a1,1,0,0,1-.1-1.4l2.26-2.64a1,1,0,0,1,.76-.35H29.88a9.67,9.67,0,1,1,9,13.31Zm-10.92-8h2.67a1,1,0,0,1,1,.7,7.67,7.67,0,1,0,0-4.68,1,1,0,0,1-1,.7H14.8l-1.32,1.54,2,1.74h1.88a1,1,0,0,1,.71.29l1.56,1.55,1.55-1.55a1,1,0,0,1,.71-.29h1.5a1,1,0,0,1,.71.29l1.55,1.55,1.56-1.55A1,1,0,0,1,27.91,15.39Zm13.56,2a3.64,3.64,0,1,1,3.64-3.64A3.64,3.64,0,0,1,41.47,17.39Zm0-5.28a1.64,1.64,0,1,0,1.64,1.64A1.65,1.65,0,0,0,41.47,12.11Z" style="fill:#d6242d"/><path d="M47.5,45.92H2.5a1,1,0,0,1-1-1V40.23h2v3.69h43V40.23h2v4.69A1,1,0,0,1,47.5,45.92Z" style="fill:#d6242d"/></svg>