<svg id="Product_Icon" data-name="Product Icon" xmlns="http://www.w3.org/2000/svg" xmlns:xlink="http://www.w3.org/1999/xlink" width="75" height="75" viewBox="0 0 75 75"><defs><linearGradient id="RedGradient" x1="37.5" y1="112.5" x2="37.5" y2="-37.5" gradientTransform="translate(37.5 -15.53) rotate(45)" gradientUnits="userSpaceOnUse"><stop offset="0" stop-color="#bd0816"/><stop offset="1" stop-color="#ff5252"/></linearGradient></defs><title>AWS-Organizations</title><rect id="Red_Gradient" data-name="Red Gradient" width="75" height="75" style="fill:url(#RedGradient)"/><g id="Icon_Test" data-name="Icon Test"><path d="M49,19,38,12.63a1,1,0,0,0-1,0L26,19a1,1,0,0,0-.5.87v12.7a1,1,0,0,0,.5.87l11,6.35a1,1,0,0,0,1,0l11-6.35a1,1,0,0,0,.5-.87V19.85A1,1,0,0,0,49,19ZM36.5,37.17,27.5,32V21.59l9,5.19Zm1-12.12-9-5.2,9-5.2,9,5.2ZM47.5,32l-9,5.19V26.78l9-5.19Z" style="fill:#fff"/><path d="M61.5,50.5h-4v-5a1,1,0,0,0-1-1h-18v-3h-2v3h-18a1,1,0,0,0-1,1v5h-4a1,1,0,0,0-1,1v10a1,1,0,0,0,1,1h10a1,1,0,0,0,1-1v-10a1,1,0,0,0-1-1h-4v-4h17v4h-4a1,1,0,0,0-1,1v10a1,1,0,0,0,1,1h10a1,1,0,0,0,1-1v-10a1,1,0,0,0-1-1h-4v-4h17v4h-4a1,1,0,0,0-1,1v10a1,1,0,0,0,1,1h10a1,1,0,0,0,1-1v-10A1,1,0,0,0,61.5,50.5Zm-39,2v8h-8v-8Zm19,0v8h-8v-8Zm19,8h-8v-8h8Z" style="fill:#fff"/></g></svg>