<svg version="1.1" width="80.000000" height="115.000000" viewBox="0.000000 0.000000 80.000000 115.000000" xmlns="http://www.w3.org/2000/svg" xmlns:xlink="http://www.w3.org/1999/xlink" overflow="hidden"><g id="CARDS"><rect x="1.000000" y="1.000000" width="78.000000" height="78.000000" fill="#232F3E"/><path d=" M 0.000000 0.000000 L 0.000000 80.000000 L 0.000000 80.000000 L 0.000000 115.000000 L 80.000000 115.000000 L 80.000000 80.000000 L 80.000000 80.000000 L 80.000000 0.000000 Z M 1.000000 1.000000 L 79.000000 1.000000 L 79.000000 79.000000 L 1.000000 79.000000 Z" fill="#FFFFFF"/></g><g id="TEXT_-_EDIT"><path d=" M 25.350000 92.349998 L 24.920000 90.529999 L 22.920000 90.529999 L 22.500000 92.349998 L 20.719999 92.349998 L 23.000000 84.720001 L 24.900000 84.720001 L 27.209999 92.349998 Z M 23.170000 89.430000 L 24.660000 89.430000 L 23.900000 86.269997 Z" fill="#232F3E"/><path d=" M 34.060001 92.349998 L 34.060001 88.639999 C 34.076664 88.401566 34.028278 88.163086 33.920002 87.949997 C 33.819908 87.796371 33.642418 87.711487 33.460003 87.729996 C 33.174831 87.743271 32.898491 87.833084 32.660004 87.989998 C 32.664822 88.029854 32.664822 88.070145 32.660004 88.110001 L 32.660000 92.349998 L 31.000000 92.349998 L 31.000000 88.639999 C 31.019257 88.402504 30.974358 88.164200 30.870001 87.949997 C 30.765142 87.796478 30.585056 87.712181 30.400002 87.729996 C 30.121338 87.744865 29.851856 87.834694 29.620001 87.989998 L 29.620001 92.349998 L 28.000000 92.349998 L 28.000000 86.720001 L 29.350000 86.720001 L 29.480000 87.230003 C 30.005705 86.838974 30.635632 86.612755 31.289999 86.580002 C 31.787903 86.543671 32.259682 86.807076 32.489998 87.250000 C 33.020988 86.851845 33.657448 86.618820 34.320000 86.580002 C 34.698605 86.567619 35.063778 86.720993 35.320000 87.000000 C 35.580429 87.351334 35.707973 87.783562 35.680000 88.220001 L 35.680000 92.349998 Z" fill="#232F3E"/><path d=" M 40.000000 92.349998 L 39.860001 91.839996 C 39.704742 92.042564 39.502155 92.203949 39.270000 92.309998 C 39.023094 92.427322 38.753361 92.488777 38.480000 92.489998 C 38.038441 92.498497 37.613724 92.320625 37.310001 92.000000 C 37.006588 91.668808 36.851307 91.228241 36.880001 90.779999 C 36.856857 90.286880 37.050484 89.808296 37.410000 89.470001 C 37.807274 89.133095 38.320316 88.964470 38.840000 89.000000 C 39.154030 89.006668 39.466179 89.050301 39.770000 89.129997 L 39.770000 88.620003 C 39.797573 88.349762 39.741737 88.077560 39.610001 87.840004 C 39.445477 87.687714 39.222755 87.614693 39.000000 87.640007 C 38.395546 87.665237 37.798565 87.783279 37.230000 87.990005 L 37.230000 87.000000 C 37.516563 86.840446 37.827354 86.728966 38.149998 86.669998 C 38.528015 86.589485 38.913502 86.549255 39.299999 86.549995 C 39.843796 86.502090 40.385880 86.659012 40.820000 86.989998 C 41.164772 87.366852 41.335323 87.871239 41.290001 88.379997 L 41.290001 92.320000 Z M 39.000000 91.430000 C 39.298344 91.418404 39.580971 91.293190 39.790001 91.080002 L 39.790001 90.000000 C 39.587475 89.948616 39.378887 89.925064 39.170002 89.930000 C 38.969070 89.911972 38.770714 89.985435 38.630001 90.129997 C 38.490948 90.293694 38.422604 90.505920 38.440002 90.719994 C 38.429714 90.905304 38.482594 91.088631 38.590004 91.239990 C 38.687565 91.366325 38.840549 91.437218 39.000004 91.429993 Z" fill="#232F3E"/><path d=" M 42.279999 92.349998 L 42.279999 91.279999 L 44.770000 87.879997 L 42.369999 87.879997 L 42.369999 86.720001 L 46.509998 86.720001 L 46.509998 87.790001 L 44.000000 91.190002 L 46.540001 91.190002 L 46.540001 92.349998 Z" fill="#232F3E"/><path d=" M 49.790001 92.489998 C 49.108715 92.511253 48.453094 92.229225 48.000000 91.720001 C 47.133984 90.392052 47.133984 88.677956 48.000000 87.349998 C 49.011749 86.331032 50.657967 86.325180 51.676933 87.336929 C 51.681305 87.341270 51.685661 87.345627 51.690002 87.349998 C 52.556019 88.677948 52.556019 90.392044 51.690002 91.720001 C 51.211487 92.259041 50.508781 92.543823 49.790001 92.489998 Z M 49.790001 91.339996 C 50.076321 91.350388 50.337559 91.177567 50.440002 90.909996 C 50.706799 90.016144 50.706799 89.063843 50.440002 88.169998 C 50.304638 87.813774 49.906124 87.634735 49.549900 87.770103 C 49.365585 87.840141 49.220043 87.985687 49.150002 88.169998 C 48.883205 89.063850 48.883205 90.016151 49.150002 90.909996 C 49.248730 91.175995 49.506416 91.349129 49.790001 91.339996 Z" fill="#232F3E"/><path d=" M 56.549999 92.349998 L 56.549999 88.650002 C 56.566494 88.408363 56.518166 88.166710 56.410000 87.950005 C 56.294102 87.793236 56.103878 87.709541 55.910000 87.730003 C 55.621128 87.739960 55.340698 87.829971 55.099998 87.990005 L 55.099998 92.349998 L 53.439999 92.349998 L 53.439999 86.720001 L 54.790001 86.720001 L 54.930000 87.230003 C 55.464371 86.833908 56.105400 86.607452 56.770000 86.580002 C 57.171432 86.553581 57.563728 86.707565 57.840000 87.000000 C 58.102020 87.350540 58.229740 87.783371 58.200001 88.220001 L 58.200001 92.349998 Z" fill="#232F3E"/><path d=" M 15.290000 106.129997 C 14.725158 106.360497 14.120032 106.476082 13.510000 106.469994 C 11.263333 106.470001 10.136666 105.169998 10.130000 102.570000 C 10.061049 101.514618 10.369395 100.469070 11.000000 99.620003 C 11.649338 98.922134 12.579005 98.554680 13.530000 98.620003 C 14.093656 98.618950 14.652787 98.720612 15.179999 98.920006 L 15.180000 100.129997 C 14.712051 99.991005 14.227962 99.913689 13.740001 99.899994 C 13.200453 99.854988 12.674414 100.084198 12.340001 100.509995 C 11.995202 101.091789 11.838071 101.765701 11.890001 102.439995 L 11.890000 102.690002 C 11.839348 103.353394 11.992887 104.016403 12.330000 104.590004 C 12.652573 105.013901 13.169139 105.243904 13.700000 105.200005 C 14.234768 105.173027 14.764785 105.085808 15.280000 104.940002 Z" fill="#232F3E"/><path d=" M 18.520000 106.489998 C 17.820715 106.530975 17.141676 106.246811 16.680000 105.720001 C 15.800846 104.395988 15.800846 102.674019 16.680000 101.349998 C 17.141676 100.823181 17.820715 100.539017 18.520000 100.580002 C 19.218767 100.542046 19.896536 100.825676 20.360001 101.349998 C 21.226015 102.677948 21.226015 104.392044 20.360001 105.720001 C 19.896536 106.244324 19.218767 106.527962 18.520000 106.489998 Z M 18.520000 105.339996 C 18.804493 105.352325 19.063887 105.178047 19.160000 104.909996 C 19.426798 104.016144 19.426798 103.063843 19.160000 102.169998 C 19.067373 101.897995 18.807137 101.719078 18.520000 101.729996 C 18.231110 101.721107 17.969082 101.898483 17.870001 102.169998 C 17.614866 103.065514 17.614866 104.014481 17.870001 104.909996 C 17.972443 105.177567 18.233681 105.350380 18.520000 105.339996 Z" fill="#232F3E"/><path d=" M 28.240000 106.349998 L 28.240000 102.639999 C 28.256664 102.401566 28.208275 102.163086 28.100000 101.949997 C 27.999905 101.796371 27.822418 101.711487 27.640001 101.729996 C 27.354830 101.743271 27.078491 101.833084 26.840002 101.989998 C 26.844820 102.029854 26.844820 102.070145 26.840002 102.110001 L 26.840000 106.349998 L 25.209999 106.349998 L 25.209999 102.639999 C 25.226664 102.401566 25.178274 102.163086 25.070000 101.949997 C 24.965141 101.796478 24.785055 101.712181 24.600000 101.729996 C 24.321337 101.744865 24.051855 101.834694 23.820000 101.989998 L 23.820000 106.349998 L 22.170000 106.349998 L 22.170000 100.720001 L 23.520000 100.720001 L 23.650000 101.230003 C 24.175705 100.838974 24.805632 100.612755 25.459999 100.580002 C 25.957903 100.543671 26.429682 100.807076 26.660000 101.250000 C 27.190990 100.851845 27.827450 100.618820 28.490000 100.580002 C 28.868605 100.567619 29.233778 100.720993 29.490000 101.000000 C 29.750429 101.351334 29.877972 101.783562 29.850000 102.220001 L 29.850000 106.349998 Z" fill="#232F3E"/><path d=" M 31.290001 108.610001 L 31.290001 100.720001 L 32.639999 100.720001 L 32.759998 101.199997 C 32.969093 101.010376 33.209267 100.858154 33.469997 100.750000 C 33.716503 100.643257 33.981430 100.585518 34.249996 100.580002 C 34.849716 100.551254 35.422718 100.830215 35.769997 101.320000 C 36.483044 102.678802 36.483044 104.301193 35.769997 105.659996 C 35.436512 106.164848 34.864712 106.460220 34.259998 106.439995 C 34.024887 106.439087 33.791611 106.398521 33.570000 106.319992 C 33.351116 106.239212 33.148052 106.120766 32.970001 105.969994 L 32.970001 108.610001 Z M 33.709999 101.699997 C 33.432934 101.697105 33.162521 101.784897 32.939999 101.949997 L 32.939999 105.059998 C 33.168671 105.221687 33.440048 105.312141 33.719997 105.320000 C 34.020664 105.339958 34.302696 105.173119 34.429996 104.900002 C 34.598614 104.463989 34.670273 103.996498 34.639996 103.529999 C 34.672279 103.050362 34.600651 102.569412 34.429996 102.119995 C 34.299168 101.845284 34.013519 101.678658 33.709995 101.699997 Z" fill="#232F3E"/><path d=" M 37.430000 106.349998 L 37.430000 100.720001 L 38.779999 100.720001 L 38.959999 101.449997 C 39.160946 101.209991 39.405178 101.009857 39.680000 100.860001 C 39.909920 100.734291 40.167957 100.668915 40.430000 100.669998 C 40.559811 100.660080 40.690189 100.660080 40.820000 100.669998 L 40.820000 102.000000 C 40.606884 101.986336 40.393116 101.986336 40.180000 102.000000 C 39.798294 102.001556 39.422009 102.090492 39.080002 102.260002 L 39.080002 106.370003 Z" fill="#232F3E"/><path d=" M 42.779999 103.919998 C 42.768791 104.323456 42.895813 104.718628 43.139999 105.040001 C 43.435566 105.286263 43.816879 105.404976 44.200001 105.370003 C 44.432552 105.364708 44.663872 105.334534 44.889999 105.280006 C 45.160973 105.227577 45.428211 105.157425 45.689999 105.070007 L 45.689999 106.070000 C 45.427082 106.214767 45.143929 106.319267 44.849998 106.379997 C 44.521599 106.452568 44.186321 106.489449 43.849998 106.489998 C 42.130001 106.489998 41.270000 105.489998 41.270000 103.540001 C 41.216961 102.755630 41.439819 101.977402 41.900002 101.340004 C 42.357765 100.814682 43.034767 100.533524 43.730003 100.580002 C 45.090000 100.580002 45.730000 101.339996 45.730000 102.870003 C 45.729126 103.206871 45.688854 103.542488 45.610001 103.870003 Z M 43.700001 101.599998 C 43.119999 101.599998 42.810001 102.059998 42.779999 102.970001 L 44.400002 102.970001 L 44.400002 102.720001 C 44.420444 102.423340 44.361782 102.126572 44.230003 101.860001 C 44.112514 101.684830 43.910446 101.585701 43.700005 101.599998 Z" fill="#232F3E"/><path d=" M 50.000000 106.349998 L 50.000000 102.650002 C 50.019314 102.407036 49.967175 102.163719 49.849998 101.950005 C 49.737305 101.794876 49.550808 101.711143 49.359997 101.730003 C 49.067787 101.738640 48.783794 101.828682 48.539997 101.990005 L 48.540001 106.349998 L 46.930000 106.349998 L 46.930000 98.209999 L 48.580002 98.209999 L 48.580002 101.120003 C 49.075226 100.787392 49.653793 100.600311 50.250000 100.580002 C 50.651432 100.553581 51.043728 100.707565 51.320000 101.000000 C 51.585579 101.349174 51.716885 101.782127 51.689999 102.220001 L 51.689999 106.349998 Z" fill="#232F3E"/><path d=" M 54.299999 103.919998 C 54.279251 104.324760 54.407299 104.723129 54.660000 105.040001 C 54.955566 105.286263 55.336880 105.404976 55.720001 105.370003 C 55.949249 105.364609 56.177242 105.334435 56.400002 105.280006 C 56.671528 105.230042 56.938942 105.159843 57.200001 105.070007 L 57.200001 106.070000 C 56.941761 106.217194 56.661507 106.321869 56.369999 106.379997 C 56.041473 106.451813 55.706276 106.488686 55.369999 106.489998 C 53.660000 106.489998 52.799999 105.489998 52.799999 103.540001 C 52.746960 102.755630 52.969818 101.977402 53.430000 101.340004 C 53.884651 100.816292 54.557926 100.535149 55.250000 100.580002 C 56.619999 100.580002 57.299999 101.339996 57.299999 102.870003 C 57.299126 103.206871 57.258854 103.542488 57.180000 103.870003 Z M 55.220001 101.599998 C 54.639999 101.599998 54.330002 102.059998 54.299999 102.970001 L 55.910000 102.970001 L 55.910000 102.720001 C 55.932598 102.424286 55.877438 102.127800 55.750000 101.860001 C 55.631138 101.686409 55.430031 101.587753 55.220001 101.599998 Z" fill="#232F3E"/><path d=" M 61.549999 106.349998 L 61.549999 102.650002 C 61.566494 102.408363 61.518166 102.166710 61.410000 101.950005 C 61.294102 101.793236 61.103878 101.709541 60.910000 101.730003 C 60.621128 101.739960 60.340698 101.829971 60.099998 101.990005 L 60.099998 106.349998 L 58.439999 106.349998 L 58.439999 100.720001 L 59.790001 100.720001 L 59.930000 101.230003 C 60.464371 100.833908 61.105400 100.607452 61.770000 100.580002 C 62.171432 100.553581 62.563728 100.707565 62.840000 101.000000 C 63.102020 101.350540 63.229740 101.783371 63.200001 102.220001 L 63.200001 106.349998 Z" fill="#232F3E"/><path d=" M 67.849998 106.349998 L 67.720001 105.860001 C 67.539528 106.042419 67.325645 106.188408 67.090004 106.290001 C 66.862381 106.387421 66.617592 106.438423 66.370003 106.440002 C 65.771477 106.464928 65.201797 106.181969 64.860001 105.690002 C 64.465485 105.052330 64.276932 104.308617 64.320000 103.560005 C 64.275650 102.789658 64.471306 102.024506 64.879997 101.370003 C 65.217567 100.858131 65.797203 100.558846 66.409996 100.580002 C 66.625465 100.590401 66.838005 100.634262 67.039993 100.709999 C 67.258530 100.789223 67.464104 100.900436 67.649994 101.040001 L 67.650002 98.209999 L 69.300003 98.209999 L 69.300003 106.349998 Z M 66.930000 105.349998 C 67.186096 105.346977 67.435959 105.270630 67.650002 105.129997 L 67.650002 102.000000 C 67.413345 101.839310 67.135910 101.749138 66.849998 101.739998 C 66.556488 101.731621 66.288940 101.907326 66.180000 102.180000 C 66.013649 102.623573 65.942108 103.097084 65.970001 103.570000 C 65.941811 104.034950 66.020493 104.500175 66.200005 104.930000 C 66.346848 105.190842 66.631554 105.342941 66.930008 105.320000 Z" fill="#232F3E"/></g><g id="ICONS_-_EDIT"><rect x="45.000000" y="28.000000" width="2.000000" height="11.000000" fill="#FFFFFF"/><path d=" M 46.000000 61.000000 L 16.000000 61.000000 C 15.447715 61.000000 15.000000 60.552284 15.000000 60.000000 L 15.000000 49.000000 L 17.000000 49.000000 L 17.000000 59.000000 L 45.000000 59.000000 L 45.000000 55.000000 L 47.000000 55.000000 L 47.000000 60.000000 C 47.000000 60.552284 46.552284 61.000000 46.000000 61.000000 Z" fill="#FFFFFF"/><path d=" M 17.000000 49.000000 L 15.000000 49.000000 L 15.000000 17.000000 C 15.000000 16.447716 15.447715 16.000000 16.000000 16.000000 L 35.000000 16.000000 L 35.000000 18.000000 L 17.000000 18.000000 Z" fill="#FFFFFF"/><path d=" M 46.000000 29.000000 L 35.000000 29.000000 C 34.447716 29.000000 34.000000 28.552284 34.000000 28.000000 L 34.000000 17.000000 C 34.002014 16.596298 34.246574 16.233404 34.619999 16.080000 C 34.992397 15.923403 35.422440 16.006256 35.709999 16.289999 L 46.709999 27.290001 C 46.993744 27.577562 47.076595 28.007605 46.919998 28.380001 C 46.766594 28.753428 46.403702 28.997986 46.000000 29.000002 Z M 36.000000 27.000000 L 43.590000 27.000000 L 36.000000 19.410000 Z" fill="#FFFFFF"/><rect x="20.000000" y="33.000000" width="6.000000" height="2.000000" fill="#FFFFFF"/><rect x="28.000000" y="33.000000" width="14.000000" height="2.000000" fill="#FFFFFF"/><rect x="20.000000" y="39.000000" width="22.000000" height="2.000000" fill="#FFFFFF"/><rect x="54.000000" y="50.000000" width="2.000000" height="8.660000" fill="#FFFFFF"/><rect x="52.000000" y="49.000000" width="6.000000" height="2.000000" fill="#FFFFFF"/><path d=" M 57.439999 66.000000 L 52.560001 66.000000 C 52.152657 66.002037 51.784790 65.756798 51.630001 65.379997 L 50.419998 62.380001 C 50.290852 62.071342 50.324631 61.718548 50.509998 61.440002 C 50.696270 61.164425 51.007374 60.999500 51.340000 61.000004 L 58.660000 61.000000 C 58.992626 60.999500 59.303730 61.164421 59.490002 61.439999 C 59.675369 61.718544 59.709148 62.071339 59.580002 62.379997 L 58.369999 65.379997 C 58.215210 65.756790 57.847343 66.002037 57.439999 66.000000 Z M 53.230000 64.000000 L 56.770000 64.000000 L 57.169998 63.000000 L 52.830002 63.000000 Z" fill="#FFFFFF"/><path d=" M 59.000000 60.000000 L 51.000000 60.000000 C 50.447716 60.000000 50.000000 59.552284 50.000000 59.000000 L 50.000000 55.410000 C 49.784546 55.185150 49.542809 54.987061 49.279999 54.820000 C 44.751797 51.658157 43.644146 45.424149 46.805984 40.895947 C 48.897953 37.899952 52.457485 36.283539 56.089996 36.680000 C 60.537388 37.200447 64.111198 40.587021 64.869995 45.000000 L 64.870003 45.000000 C 65.502472 48.811256 63.882961 52.645908 60.710003 54.849998 C 60.453960 55.014519 60.215981 55.205574 60.000004 55.419998 L 60.000000 59.000000 C 60.000000 59.552284 59.552284 60.000000 59.000000 60.000000 Z M 52.000000 58.000000 L 58.000000 58.000000 L 58.000000 55.299999 C 58.000000 54.299999 59.000000 53.599998 59.549999 53.200001 C 62.103825 51.434757 63.405777 48.351387 62.889999 45.290001 L 62.889999 45.290001 C 62.296005 41.768169 59.439468 39.066708 55.889999 38.670002 C 51.498463 38.184639 47.544952 41.351223 47.059593 45.742760 C 46.738091 48.651714 48.030712 51.504055 50.430000 53.180004 C 51.000000 53.590000 52.000000 54.270000 52.000000 55.320000 Z" fill="#FFFFFF"/><rect x="20.000000" y="27.000000" width="11.000000" height="2.000000" fill="#FFFFFF"/><rect x="20.000000" y="45.000000" width="12.000000" height="2.000000" fill="#FFFFFF"/><rect x="34.000000" y="45.000000" width="8.000000" height="2.000000" fill="#FFFFFF"/><rect x="20.000000" y="51.000000" width="13.000000" height="2.000000" fill="#FFFFFF"/></g></svg>