<svg version="1.1" width="80.000000" height="100.000000" viewBox="0.000000 0.000000 80.000000 100.000000" xmlns="http://www.w3.org/2000/svg" xmlns:xlink="http://www.w3.org/1999/xlink" overflow="hidden"><g id="CARDS"><rect x="1.000000" y="1.000000" width="78.000000" height="78.000000" fill="#232F3E"/><path d=" M 0.000000 0.000000 L 0.000000 80.000000 L 0.000000 80.000000 L 0.000000 100.000000 L 80.000000 100.000000 L 80.000000 80.000000 L 80.000000 80.000000 L 80.000000 0.000000 Z M 1.000000 1.000000 L 79.000000 1.000000 L 79.000000 79.000000 L 1.000000 79.000000 Z" fill="#FFFFFF"/></g><g id="TEXT_-_EDIT"><path d=" M 9.760000 92.349998 L 9.330000 90.529999 L 7.330000 90.529999 L 6.910000 92.349998 L 5.130000 92.349998 L 7.450000 84.720001 L 9.310000 84.720001 L 11.620000 92.349998 Z M 7.580000 89.430000 L 9.070000 89.430000 L 8.310000 86.269997 Z" fill="#232F3E"/><path d=" M 17.000000 92.349998 L 16.000000 86.720001 L 15.110000 92.349998 L 13.270000 92.349998 L 11.480000 84.720001 L 13.180000 84.720001 L 14.240000 90.779999 L 15.160000 85.000000 L 17.000000 85.000000 L 17.940001 90.650002 L 18.940001 84.650002 L 20.610001 84.650002 L 18.820000 92.279999 Z" fill="#232F3E"/><path d=" M 22.920000 89.000000 C 22.422724 88.768532 21.984913 88.426491 21.639999 88.000000 C 21.377676 87.644348 21.240536 87.211830 21.250000 86.769997 C 21.243391 86.354721 21.361856 85.947060 21.590000 85.599998 C 21.818213 85.261978 22.137066 84.995110 22.510000 84.830002 C 22.934984 84.642815 23.395712 84.550667 23.860001 84.560005 C 24.509569 84.563965 25.151924 84.696510 25.750000 84.950005 L 25.750000 86.120003 C 25.188467 85.915665 24.597387 85.804207 24.000000 85.790001 C 23.718348 85.776108 23.440176 85.857094 23.209999 86.020004 C 23.017279 86.175255 22.909664 86.412743 22.919998 86.660004 C 22.910494 86.863945 22.978354 87.063950 23.109999 87.220001 C 23.311878 87.426239 23.553387 87.589516 23.819998 87.700005 L 24.469999 88.019997 C 24.826050 88.187546 25.161598 88.395592 25.469999 88.639999 C 25.698786 88.827263 25.883211 89.062912 26.010000 89.330002 C 26.137577 89.619499 26.199066 89.933777 26.190001 90.250000 C 26.217863 90.888214 25.939169 91.501343 25.440001 91.900002 C 24.864477 92.329575 24.157297 92.545265 23.440001 92.510002 C 23.060173 92.509636 22.681433 92.469414 22.310001 92.389999 C 21.980888 92.324646 21.661583 92.217087 21.360001 92.070000 L 21.360001 90.919998 C 21.687359 91.025635 22.021444 91.109154 22.360001 91.169998 C 22.689299 91.236969 23.024017 91.273788 23.360001 91.279999 C 23.673756 91.304230 23.985846 91.215561 24.240000 91.029999 C 24.446396 90.853905 24.557592 90.590736 24.539999 90.320000 C 24.546087 90.107033 24.471022 89.899704 24.330000 89.739998 C 24.126230 89.543251 23.889240 89.384132 23.629999 89.269997 Z" fill="#232F3E"/><path d=" M 30.000000 92.349998 L 30.000000 84.720001 L 32.520000 84.720001 C 33.418743 84.671806 34.289490 85.040771 34.880001 85.720001 C 35.474468 86.542496 35.761154 87.547661 35.690002 88.559998 C 35.758835 89.573708 35.476315 90.580185 34.890003 91.409996 C 34.318783 92.086273 33.464024 92.456299 32.580002 92.409996 Z M 31.690001 85.900002 L 31.690001 91.169998 L 32.400002 91.169998 C 32.873920 91.192314 33.322357 90.954681 33.570000 90.549995 C 33.860424 89.957146 33.991394 89.298859 33.950001 88.639992 L 33.950001 88.419998 C 33.993744 87.760979 33.862656 87.102089 33.570000 86.509995 C 33.317909 86.100891 32.859322 85.865814 32.380001 85.899994 Z" fill="#232F3E"/><path d=" M 38.209999 89.919998 C 38.198944 90.311180 38.326447 90.693687 38.570000 91.000000 C 38.864471 91.248260 39.246643 91.367241 39.630001 91.330002 C 39.859203 91.323997 40.087132 91.293831 40.310001 91.240005 C 40.581253 91.188805 40.848576 91.118637 41.110001 91.030006 L 41.110001 92.029999 C 40.850979 92.175522 40.570999 92.280098 40.279999 92.339996 C 39.951473 92.411812 39.616276 92.448685 39.279999 92.449997 C 37.560001 92.449997 36.700001 91.449997 36.700001 89.500000 C 36.646961 88.715630 36.869820 87.937401 37.330002 87.300003 C 37.788692 86.775963 38.465027 86.495087 39.160004 86.540001 C 40.520000 86.540001 41.160000 87.300003 41.160000 88.830002 C 41.159126 89.166870 41.118855 89.502487 41.040001 89.830002 Z M 39.119999 87.599998 C 38.540001 87.599998 38.240002 88.059998 38.209999 88.970001 L 39.820000 88.970001 L 39.820000 88.720001 C 39.840443 88.423340 39.781780 88.126572 39.650002 87.860001 C 39.532513 87.684830 39.330444 87.585701 39.120003 87.599998 Z" fill="#232F3E"/><path d=" M 43.570000 89.919998 C 43.558945 90.311180 43.686447 90.693687 43.930000 91.000000 C 44.225567 91.246262 44.606880 91.364975 44.990002 91.330002 C 45.219204 91.323997 45.447132 91.293831 45.670002 91.240005 C 45.941528 91.190041 46.208942 91.119843 46.470001 91.030006 L 46.470001 92.029999 C 46.211761 92.177193 45.931507 92.281868 45.639999 92.339996 C 45.311474 92.411812 44.976276 92.448685 44.639999 92.449997 C 42.919998 92.449997 42.060001 91.449997 42.060001 89.500000 C 42.005516 88.713959 42.232365 87.934151 42.700001 87.300003 C 43.154652 86.776291 43.827927 86.495148 44.520000 86.540001 C 45.889999 86.540001 46.520000 87.300003 46.520000 88.830002 C 46.519127 89.166870 46.478855 89.502487 46.400002 89.830002 Z M 44.480000 87.599998 C 43.900002 87.599998 43.599998 88.059998 43.570000 88.970001 L 45.180000 88.970001 L 45.180000 88.720001 C 45.200443 88.423340 45.141781 88.126572 45.010002 87.860001 C 44.892513 87.684830 44.690445 87.585701 44.480003 87.599998 Z" fill="#232F3E"/><path d=" M 47.709999 94.610001 L 47.709999 86.720001 L 49.060001 86.720001 L 49.180000 87.199997 C 49.389095 87.010376 49.629269 86.858154 49.889999 86.750000 C 50.139996 86.643204 50.408203 86.585487 50.680000 86.580002 C 51.276630 86.552834 51.845921 86.831825 52.189999 87.320000 C 52.577717 87.963524 52.759178 88.710312 52.709999 89.459999 C 52.755497 90.232277 52.563568 90.999985 52.160000 91.659996 C 51.826515 92.164848 51.254715 92.460220 50.650002 92.439995 C 50.415039 92.437447 50.182030 92.396919 49.960003 92.319992 C 49.741119 92.239212 49.538055 92.120766 49.360004 91.969994 L 49.360001 94.610001 Z M 50.130001 87.699997 C 49.852936 87.697105 49.582523 87.784897 49.360001 87.949997 L 49.360001 91.059998 C 49.591759 91.223015 49.866722 91.313515 50.150002 91.320000 C 50.447124 91.335739 50.724068 91.169571 50.850002 90.900002 C 51.018620 90.463989 51.090279 89.996498 51.060001 89.529999 C 51.092285 89.050362 51.020657 88.569412 50.850002 88.119995 C 50.719173 87.845284 50.433525 87.678658 50.130001 87.699997 Z" fill="#232F3E"/><path d=" M 54.000000 92.349998 L 54.000000 84.720001 L 55.689999 84.720001 L 55.689999 91.120003 L 58.529999 91.120003 L 58.529999 92.349998 Z" fill="#232F3E"/><path d=" M 60.480000 89.919998 C 60.477795 90.309822 60.604343 90.689461 60.840000 91.000000 C 61.135567 91.246262 61.516880 91.364975 61.900002 91.330002 C 62.129250 91.324608 62.357243 91.294434 62.580002 91.240005 C 62.854561 91.188942 63.125217 91.118774 63.390003 91.030006 L 63.389999 92.029999 C 63.127083 92.174767 62.843929 92.279266 62.549999 92.339996 C 62.221600 92.412567 61.886322 92.449448 61.549999 92.449997 C 59.830002 92.449997 58.970001 91.449997 58.970001 89.500000 C 58.916962 88.715630 59.139820 87.937401 59.600002 87.300003 C 60.057766 86.774681 60.734768 86.493523 61.430004 86.540001 C 62.790001 86.540001 63.430000 87.300003 63.430000 88.830002 C 63.429127 89.166870 63.388855 89.502487 63.310001 89.830002 Z M 61.400002 87.599998 C 60.820000 87.599998 60.509998 88.059998 60.480000 88.970001 L 62.099998 88.970001 L 62.099998 88.720001 C 62.120441 88.423340 62.061779 88.126572 61.930000 87.860001 C 61.811138 87.686409 61.610031 87.587753 61.400002 87.599998 Z" fill="#232F3E"/><path d=" M 67.730003 92.349998 L 67.730003 88.650002 C 67.751221 88.408081 67.702637 88.165154 67.590004 87.950005 C 67.477310 87.794876 67.290810 87.711143 67.100006 87.730003 C 66.807800 87.738640 66.523804 87.828682 66.280006 87.990005 L 66.279999 92.349998 L 64.629997 92.349998 L 64.629997 86.720001 L 66.000000 86.720001 L 66.129997 87.230003 C 66.672722 86.828201 67.325066 86.601456 68.000000 86.580002 C 68.377388 86.574059 68.740036 86.726364 69.000000 87.000000 C 69.265579 87.349174 69.396889 87.782127 69.370003 88.220001 L 69.370003 92.349998 Z" fill="#232F3E"/><path d=" M 72.779999 90.769997 C 72.779999 90.519997 72.610001 90.309998 72.260002 90.150002 L 71.540001 89.800003 C 70.866486 89.560318 70.414879 88.924881 70.410004 88.210007 C 70.390846 87.733154 70.612503 87.278572 71.000000 87.000008 C 71.422363 86.682838 71.942467 86.523621 72.470001 86.550011 C 72.999649 86.551735 73.522278 86.671295 74.000000 86.900009 L 74.000000 87.900002 C 73.771828 87.818993 73.537819 87.755478 73.300003 87.709999 C 73.102867 87.666542 72.901848 87.643089 72.700005 87.639999 C 72.190002 87.639999 71.930000 87.820000 71.930000 88.180000 C 71.930000 88.540001 72.139999 88.629997 72.570000 88.839996 L 73.290001 89.180000 C 73.598686 89.312111 73.865074 89.526604 74.059998 89.800003 C 74.228256 90.080269 74.311623 90.403313 74.299995 90.730003 C 74.315056 91.222786 74.096291 91.693680 73.709999 92.000000 C 73.285515 92.321449 72.761909 92.484184 72.229996 92.459999 C 71.596268 92.466171 70.970917 92.314987 70.409996 92.019997 L 70.410004 91.019997 C 70.917885 91.225883 71.453911 91.353989 72.000000 91.399994 C 72.204170 91.412926 72.406265 91.352654 72.570000 91.229996 C 72.709183 91.118797 72.787155 90.948006 72.779999 90.769997 Z" fill="#232F3E"/></g><g id="ICONS_-_EDIT"><rect x="42.000000" y="14.500000" width="2.000000" height="2.000000" fill="#FFFFFF"/><path d=" M 48.709999 40.500000 L 31.290001 40.500000 C 29.475264 40.494511 28.005491 39.024738 28.000000 37.209999 L 28.000000 17.790001 C 28.005491 15.975264 29.475262 14.505492 31.290001 14.500001 L 40.000000 14.500000 L 40.000000 16.500000 L 31.290001 16.500000 C 30.583097 16.494455 30.005545 17.063019 30.000000 17.769920 C 29.999947 17.776613 29.999947 17.783306 30.000000 17.789999 L 30.000000 37.209999 C 29.994455 37.916901 30.563019 38.494453 31.269920 38.500000 C 31.276613 38.500053 31.283306 38.500053 31.289999 38.500000 L 48.709999 38.500000 C 49.416901 38.505543 49.994453 37.936981 50.000000 37.230080 C 50.000053 37.223389 50.000053 37.216694 50.000000 37.209999 L 50.000000 17.790001 C 50.005543 17.083097 49.436981 16.505545 48.730080 16.500000 C 48.723389 16.499947 48.716694 16.499947 48.709999 16.500000 L 46.000000 16.500000 L 46.000000 14.500000 L 48.709999 14.500000 C 50.524738 14.505491 51.994507 15.975263 52.000000 17.790001 L 52.000000 37.209999 C 51.994511 39.024738 50.524738 40.494507 48.709999 40.500000 Z" fill="#FFFFFF"/><path d=" M 40.000000 33.500000 C 36.686291 33.500000 34.000000 30.813709 34.000000 27.500000 C 34.000000 24.186291 36.686291 21.500000 40.000000 21.500000 C 43.313709 21.500000 46.000000 24.186291 46.000000 27.500000 C 46.000000 30.813709 43.313709 33.500000 40.000000 33.500000 Z M 40.000000 23.500000 C 37.790859 23.500000 36.000000 25.290861 36.000000 27.500000 C 36.000000 29.709139 37.790859 31.500000 40.000000 31.500000 C 42.209141 31.500000 44.000000 29.709139 44.000000 27.500000 C 44.000000 25.290861 42.209141 23.500000 40.000000 23.500000 Z" fill="#FFFFFF"/><circle cx="40.000000" cy="27.500000" r="1.500000" fill="#FFFFFF"/><circle cx="40.000000" cy="53.000000" r="1.500000" fill="#FFFFFF"/><circle cx="40.000000" cy="58.000000" r="1.500000" fill="#FFFFFF"/><circle cx="40.000000" cy="63.000000" r="1.500000" fill="#FFFFFF"/><rect x="32.000000" y="50.500000" width="2.000000" height="4.000000" fill="#FFFFFF"/><rect x="32.000000" y="56.500000" width="2.000000" height="8.000000" fill="#FFFFFF"/><rect x="46.000000" y="52.500000" width="2.000000" height="12.000000" fill="#FFFFFF"/><rect x="30.000000" y="45.500000" width="11.920000" height="2.000000" fill="#FFFFFF"/><rect x="44.000000" y="45.500000" width="2.000000" height="2.000000" fill="#FFFFFF"/><rect x="47.000000" y="45.500000" width="3.000000" height="2.000000" fill="#FFFFFF"/><path d=" M 30.000000 55.500000 L 28.000000 55.500000 L 28.000000 50.709999 C 28.000000 48.889999 29.459999 41.500000 32.520000 41.500000 L 35.000000 41.500000 L 35.000000 43.500000 L 32.520000 43.500000 C 31.629999 43.669998 30.000000 48.330002 30.000000 50.709999 Z" fill="#FFFFFF"/><path d=" M 52.000000 64.500000 L 50.000000 64.500000 L 50.000000 50.709999 C 50.000000 48.330002 48.369999 43.709999 47.470001 43.500000 L 45.000000 43.500000 L 45.000000 41.500000 L 47.480000 41.500000 C 50.549999 41.500000 52.000000 48.889999 52.000000 50.709999 Z" fill="#FFFFFF"/><path d=" M 44.000000 43.500000 L 42.000000 43.500000 L 42.000000 41.500000 L 38.000000 41.500000 L 38.000000 43.500000 L 36.000000 43.500000 L 36.000000 39.500000 L 44.000000 39.500000 L 44.000000 43.500000 Z" fill="#FFFFFF"/></g></svg>