<svg version="1.1" width="80.000000" height="115.000000" viewBox="0.000000 0.000000 80.000000 115.000000" xmlns="http://www.w3.org/2000/svg" xmlns:xlink="http://www.w3.org/1999/xlink" overflow="hidden"><g id="CARDS"><rect x="1.000000" y="1.000000" width="78.000000" height="78.000000" fill="#232F3E"/><path d=" M 0.000000 0.000000 L 0.000000 80.000000 L 0.000000 80.000000 L 0.000000 115.000000 L 80.000000 115.000000 L 80.000000 80.000000 L 80.000000 80.000000 L 80.000000 0.000000 Z M 1.000000 1.000000 L 79.000000 1.000000 L 79.000000 79.000000 L 1.000000 79.000000 Z" fill="#FFFFFF"/></g><g id="TEXT_-_EDIT"><path d=" M 20.430000 92.349998 L 20.000000 90.529999 L 18.000000 90.529999 L 17.580000 92.349998 L 15.800000 92.349998 L 18.120001 84.720001 L 20.000000 84.720001 L 22.299999 92.349998 Z M 18.250000 89.430000 L 19.740000 89.430000 L 19.000000 86.269997 Z" fill="#232F3E"/><path d=" M 27.629999 92.349998 L 26.690001 86.720001 L 25.799999 92.349998 L 23.930000 92.349998 L 22.150000 84.720001 L 23.850000 84.720001 L 24.910000 90.779999 L 25.830000 85.000000 L 27.660000 85.000000 L 28.600000 90.650002 L 29.600000 84.650002 L 31.260000 84.650002 L 29.500000 92.349998 Z" fill="#232F3E"/><path d=" M 33.580002 89.000000 C 33.085403 88.768761 32.650803 88.426559 32.310001 88.000000 C 32.047680 87.644348 31.910538 87.211830 31.920002 86.769997 C 31.908892 86.354126 32.027740 85.945145 32.260002 85.599998 C 32.485703 85.259720 32.805290 84.992241 33.180000 84.830002 C 33.601814 84.643929 34.059044 84.551804 34.520000 84.560005 C 35.172909 84.562904 35.818741 84.695473 36.420002 84.950005 L 36.419998 86.120003 C 35.864803 85.917786 35.280647 85.806358 34.689999 85.790001 C 34.408348 85.776108 34.130177 85.857094 33.899998 86.020004 C 33.703197 86.172058 33.594574 86.411781 33.609997 86.660004 C 33.600491 86.863945 33.668350 87.063950 33.799995 87.220001 C 34.001873 87.426239 34.243385 87.589516 34.509995 87.700005 L 35.160000 88.019997 C 35.516052 88.187546 35.851601 88.395592 36.160000 88.639999 C 36.388786 88.827263 36.573212 89.062912 36.700001 89.330002 C 36.819374 89.621704 36.877251 89.934906 36.869999 90.250000 C 36.900261 90.886475 36.625427 91.499283 36.129997 91.900002 C 35.554474 92.329575 34.847294 92.545265 34.129997 92.510002 C 33.750172 92.509636 33.371429 92.469414 32.999996 92.389999 C 32.653336 92.330627 32.316723 92.222908 31.999996 92.070000 L 32.000000 90.919998 C 32.327019 91.026825 32.661186 91.110367 33.000000 91.169998 C 33.329201 91.237587 33.663979 91.274414 34.000000 91.279999 C 34.313755 91.304230 34.625843 91.215561 34.880001 91.029999 C 35.086395 90.853905 35.197594 90.590736 35.180000 90.320000 C 35.186089 90.107033 35.111023 89.899704 34.970001 89.739998 C 34.762325 89.543411 34.522091 89.384384 34.260002 89.269997 Z" fill="#232F3E"/><path d=" M 40.660000 92.349998 L 40.660000 84.720001 L 43.169998 84.720001 C 44.071907 84.670197 44.946377 85.039169 45.539997 85.720001 C 46.599564 87.468689 46.599564 89.661316 45.539997 91.410004 C 44.965660 92.087883 44.107178 92.457916 43.219997 92.410004 Z M 42.340000 85.900002 L 42.340000 91.169998 L 43.049999 91.169998 C 43.524902 91.196777 43.975491 90.958000 44.219997 90.549995 C 44.519329 89.959961 44.654057 89.300148 44.609997 88.639992 L 44.610001 88.419998 C 44.653744 87.760979 44.522655 87.102089 44.230000 86.509995 C 43.971237 86.087242 43.493141 85.850143 43.000000 85.899994 Z" fill="#232F3E"/><path d=" M 48.869999 89.919998 C 48.867794 90.309822 48.994343 90.689461 49.230000 91.000000 C 49.529163 91.246849 49.913765 91.365471 50.299999 91.330002 C 50.529202 91.323997 50.757130 91.293831 50.980000 91.240005 C 51.250973 91.187576 51.518211 91.117424 51.779999 91.030006 L 51.779999 92.029999 C 51.520199 92.173843 51.240482 92.278313 50.949997 92.339996 C 50.621471 92.411812 50.286274 92.448685 49.949997 92.449997 C 48.230000 92.449997 47.369999 91.449997 47.369999 89.500000 C 47.316959 88.715630 47.539818 87.937401 48.000000 87.300003 C 48.457764 86.774681 49.134766 86.493523 49.830002 86.540001 C 51.189999 86.540001 51.830002 87.300003 51.830002 88.830002 C 51.829128 89.166870 51.788857 89.502487 51.710003 89.830002 Z M 49.790001 87.599998 C 49.209999 87.599998 48.910000 88.059998 48.869999 88.970001 L 50.490002 88.970001 L 50.490002 88.720001 C 50.510445 88.423340 50.451782 88.126572 50.320004 87.860001 C 50.202515 87.684830 50.000446 87.585701 49.790005 87.599998 Z" fill="#232F3E"/><path d=" M 54.230000 89.919998 C 54.225971 90.311752 54.356590 90.693016 54.599998 91.000000 C 54.894470 91.248260 55.276642 91.367241 55.660000 91.330002 C 55.889202 91.323997 56.117130 91.293831 56.340000 91.240005 C 56.611252 91.188805 56.878574 91.118637 57.139999 91.030006 L 57.139999 92.029999 C 56.880978 92.175522 56.600998 92.280098 56.309998 92.339996 C 55.981472 92.411812 55.646275 92.448685 55.309998 92.449997 C 53.590000 92.449997 52.730000 91.449997 52.730000 89.500000 C 52.676960 88.715630 52.899818 87.937401 53.360001 87.300003 C 53.818691 86.775963 54.495026 86.495087 55.190002 86.540001 C 56.549999 86.540001 57.189999 87.300003 57.189999 88.830002 C 57.189125 89.166870 57.148853 89.502487 57.070000 89.830002 Z M 55.150002 87.599998 C 54.570000 87.599998 54.270000 88.059998 54.230000 88.970001 L 55.849998 88.970001 L 55.849998 88.720001 C 55.870441 88.423340 55.811779 88.126572 55.680000 87.860001 C 55.562511 87.684830 55.360443 87.585701 55.150002 87.599998 Z" fill="#232F3E"/><path d=" M 58.380001 94.610001 L 58.380001 86.720001 L 59.730000 86.720001 L 59.849998 87.199997 C 60.059093 87.010376 60.299267 86.858154 60.559998 86.750000 C 60.806503 86.643257 61.071430 86.585518 61.339996 86.580002 C 61.937420 86.549004 62.508461 86.828850 62.849995 87.320000 C 63.241806 87.962158 63.426826 88.709206 63.379993 89.459999 C 63.425491 90.232277 63.233562 90.999985 62.829994 91.659996 C 62.496510 92.164848 61.924709 92.460220 61.319996 92.439995 C 61.084885 92.439087 60.851608 92.398521 60.629997 92.319992 C 60.402668 92.251564 60.189339 92.143204 59.999996 91.999992 L 60.000000 94.639999 Z M 60.799999 87.699997 C 60.506687 87.704605 60.224014 87.810608 60.000000 88.000000 L 60.000000 91.110001 C 60.228672 91.271690 60.500050 91.362144 60.779999 91.370003 C 61.080666 91.389961 61.362698 91.223122 61.489998 90.950005 C 61.658615 90.513992 61.730274 90.046501 61.699997 89.580002 C 61.732281 89.100365 61.660652 88.619415 61.489998 88.169998 C 61.378769 87.886162 61.104855 87.699577 60.799999 87.699997 Z" fill="#232F3E"/><path d=" M 6.700000 106.349998 L 6.700000 98.720001 L 8.390000 98.720001 L 8.390000 105.120003 L 11.230000 105.120003 L 11.230000 106.349998 Z" fill="#232F3E"/><path d=" M 13.220000 103.919998 C 13.199251 104.324760 13.327298 104.723129 13.580000 105.040001 C 13.875565 105.286263 14.256880 105.404976 14.640000 105.370003 C 14.869202 105.363998 15.097129 105.333832 15.320001 105.280006 C 15.591528 105.230042 15.858939 105.159843 16.120001 105.070007 L 16.120001 106.070000 C 15.861759 106.217194 15.581509 106.321869 15.290001 106.379997 C 14.961477 106.451813 14.626280 106.488686 14.290001 106.489998 C 12.570000 106.489998 11.710000 105.489998 11.710000 103.540001 C 11.659845 102.754425 11.886273 101.976082 12.350000 101.340004 C 12.804651 100.816292 13.477925 100.535149 14.170000 100.580002 C 15.540000 100.580002 16.219999 101.339996 16.219999 102.870003 C 16.219126 103.206871 16.178852 103.542488 16.099998 103.870003 Z M 14.130000 101.599998 C 13.560000 101.599998 13.250000 102.059998 13.220000 102.970001 L 14.830000 102.970001 L 14.830000 102.720001 C 14.855041 102.423065 14.796135 102.125076 14.660000 101.860001 C 14.542509 101.684830 14.340441 101.585701 14.130000 101.599998 Z" fill="#232F3E"/><path d=" M 20.270000 106.349998 L 20.120001 105.839996 C 19.966904 106.044678 19.763725 106.206528 19.530001 106.309998 C 19.286253 106.426201 19.020021 106.487640 18.750000 106.489998 C 18.310820 106.513031 17.882318 106.349617 17.570000 106.040001 C 17.263969 105.709824 17.105167 105.269508 17.129999 104.820000 C 17.106857 104.326881 17.300482 103.848297 17.660000 103.510002 C 18.057938 103.163506 18.572687 102.981201 19.100000 103.000000 C 19.410767 103.006325 19.719648 103.049973 20.020000 103.129997 L 20.020000 102.620003 C 20.047573 102.349762 19.991737 102.077560 19.860001 101.840004 C 19.695478 101.687714 19.472754 101.614693 19.250000 101.640007 C 18.645546 101.665237 18.048567 101.783279 17.480000 101.990005 L 17.480000 100.989998 C 17.767076 100.831573 18.077679 100.720161 18.400000 100.659996 C 18.781403 100.579514 19.170198 100.539299 19.559999 100.539993 C 20.100548 100.493652 20.638952 100.650543 21.070000 100.979996 C 21.419231 101.354202 21.590473 101.860634 21.539999 102.369995 L 21.540001 106.309998 Z M 19.270000 105.430000 C 19.568346 105.418404 19.850971 105.293190 20.060001 105.080002 L 20.059999 104.000000 C 19.857586 103.947983 19.648914 103.924423 19.439999 103.930000 C 19.239452 103.914780 19.042248 103.987816 18.899998 104.129997 C 18.768236 104.297188 18.704002 104.507729 18.719997 104.719994 C 18.709707 104.905304 18.762590 105.088631 18.869997 105.239990 C 18.954924 105.354698 19.087374 105.424606 19.229998 105.429993 Z" fill="#232F3E"/><path d=" M 22.940001 106.349998 L 22.940001 100.720001 L 24.290001 100.720001 L 24.469999 101.449997 C 24.670946 101.209991 24.915178 101.009857 25.189999 100.860001 C 25.419426 100.733040 25.677795 100.667580 25.939999 100.669998 C 26.069809 100.660080 26.200188 100.660080 26.329998 100.669998 L 26.330000 102.000000 C 26.116886 101.986336 25.903114 101.986336 25.690001 102.000000 C 25.308167 102.000481 24.931643 102.089478 24.590000 102.260002 L 24.590000 106.370003 Z" fill="#232F3E"/><path d=" M 30.180000 106.349998 L 30.180000 102.650002 C 30.175529 102.421661 30.113626 102.198120 30.000000 102.000000 C 29.882828 101.844841 29.693558 101.761559 29.500000 101.779999 C 29.207970 101.789673 28.924252 101.879631 28.680000 102.040001 L 28.680000 106.400002 L 27.070000 106.400002 L 27.070000 100.769997 L 28.420000 100.769997 L 28.549999 101.279999 C 29.088888 100.885284 29.732651 100.659103 30.400000 100.629997 C 30.798468 100.603767 31.187635 100.757965 31.459999 101.049995 C 31.729729 101.397034 31.861523 101.831596 31.830000 102.269997 L 31.830000 106.400002 Z" fill="#232F3E"/><path d=" M 34.099998 99.809998 C 33.843857 99.830612 33.589607 99.751831 33.389999 99.589996 C 33.210804 99.439140 33.111183 99.214073 33.119999 98.979996 C 33.109642 98.745628 33.209549 98.519913 33.389999 98.369995 C 33.810440 98.064751 34.379559 98.064751 34.799999 98.369995 C 34.974262 98.523682 35.069809 98.747849 35.059998 98.979996 C 35.066990 99.211624 34.971935 99.434639 34.799999 99.589996 C 34.602970 99.749374 34.352779 99.828011 34.099998 99.809998 Z M 33.270000 106.349998 L 33.270000 100.720001 L 34.919998 100.720001 L 34.919998 106.349998 Z" fill="#232F3E"/><path d=" M 39.480000 106.349998 L 39.480000 102.650002 C 39.496494 102.408363 39.448166 102.166710 39.340000 101.950005 C 39.224102 101.793236 39.033878 101.709541 38.840000 101.730003 C 38.540134 101.738953 38.248920 101.832558 38.000000 102.000000 L 38.000000 106.360001 L 36.369999 106.360001 L 36.369999 100.730003 L 37.720001 100.730003 L 37.849998 101.239998 C 38.388889 100.845284 39.032650 100.619102 39.699997 100.589996 C 40.101208 100.564980 40.492931 100.718742 40.769997 101.009995 C 41.032017 101.360535 41.159737 101.793365 41.129997 102.229996 L 41.130001 106.360001 Z" fill="#232F3E"/><path d=" M 45.430000 105.709999 C 45.118069 106.047455 44.679539 106.239540 44.220001 106.239998 C 43.644962 106.256142 43.101650 105.976936 42.780003 105.500000 C 42.403477 104.903000 42.218540 104.205116 42.250004 103.500000 C 42.207825 102.757782 42.396458 102.020706 42.790005 101.389999 C 43.109711 100.896965 43.662567 100.605385 44.250004 100.620003 C 44.495686 100.628410 44.737156 100.686226 44.960003 100.790001 C 45.197308 100.897537 45.411316 101.050400 45.590004 101.239998 L 45.709999 100.760002 L 47.060001 100.760002 L 47.060001 106.000000 C 47.060001 107.860001 46.200001 108.790001 44.490002 108.790001 C 43.853321 108.794128 43.225216 108.643105 42.660000 108.349998 L 42.660000 107.349998 C 43.179222 107.547821 43.725422 107.665833 44.279999 107.699997 C 44.520359 107.713081 44.760365 107.668503 44.980000 107.570000 C 45.148441 107.475662 45.271202 107.316795 45.320000 107.129997 C 45.414848 106.805656 45.452080 106.467201 45.430000 106.129997 Z M 44.770000 105.110001 C 45.006287 105.100060 45.235008 105.023819 45.430000 104.889999 L 45.430000 102.000000 C 45.219334 101.838676 44.964939 101.744583 44.700001 101.730003 C 44.430809 101.727432 44.189724 101.896187 44.100002 102.150002 C 43.944038 102.564812 43.875931 103.007492 43.900002 103.450005 C 43.875820 103.886879 43.947495 104.323753 44.110001 104.730003 C 44.235821 104.975739 44.494316 105.124565 44.770000 105.110001 Z" fill="#232F3E"/><path d=" M 55.000000 106.349998 L 54.570000 104.529999 L 52.570000 104.529999 L 52.150002 106.349998 L 50.380001 106.349998 L 52.700001 98.720001 L 54.560001 98.720001 L 56.869999 106.349998 Z M 52.820000 103.430000 L 54.310001 103.430000 L 53.549999 100.269997 Z" fill="#232F3E"/><path d=" M 63.500000 106.349998 L 63.500000 101.000000 L 62.090000 104.459999 L 60.660000 104.459999 L 59.259998 101.000000 L 59.259998 106.320000 L 57.759998 106.320000 L 57.759998 98.720001 L 59.689999 98.720001 L 61.410000 103.000000 L 63.130001 98.730003 L 65.000000 98.730003 L 65.000000 106.360001 Z" fill="#232F3E"/><path d=" M 66.699997 106.349998 L 66.699997 98.720001 L 68.379997 98.720001 L 68.379997 106.349998 Z" fill="#232F3E"/><path d=" M 72.000000 104.769997 C 72.000000 104.519997 71.830002 104.309998 71.480003 104.150002 L 70.760002 103.800003 C 70.086487 103.560318 69.634880 102.924881 69.630005 102.210007 C 69.611610 101.750854 69.816544 101.311180 70.180008 101.030006 C 70.602371 100.712837 71.122475 100.553619 71.650009 100.580009 C 72.179657 100.581734 72.702286 100.701294 73.180008 100.930008 L 73.180000 101.930000 C 72.951439 101.850227 72.717522 101.786736 72.480003 101.739998 C 72.282867 101.696541 72.081848 101.673088 71.880005 101.669998 C 71.370003 101.669998 71.110001 101.849998 71.110001 102.209999 C 71.110001 102.570000 71.320000 102.660004 71.750000 102.870003 L 72.470001 103.209999 C 72.776878 103.345100 73.042542 103.559013 73.239998 103.830002 C 73.408257 104.110268 73.491623 104.433311 73.479996 104.760002 C 73.504753 105.245941 73.301353 105.715607 72.929993 106.029999 C 72.505508 106.351448 71.981903 106.514183 71.449989 106.489998 C 70.816116 106.497437 70.190460 106.346176 69.629990 106.049995 L 69.629997 105.050003 C 70.145828 105.247581 70.688698 105.365601 71.239998 105.400002 C 71.444168 105.412933 71.646263 105.352661 71.809998 105.230003 C 71.941734 105.114784 72.012024 104.944603 72.000000 104.770004 Z" fill="#232F3E"/></g><g id="ICONS_-_EDIT"><rect x="21.470000" y="29.000000" width="34.060000" height="2.000000" fill="#FFFFFF" transform="matrix(0.879732,-0.475471,0.475471,0.879732,-9.630000,21.920000)"/><rect x="35.000000" y="19.000000" width="18.000000" height="2.000000" fill="#FFFFFF"/><rect x="37.500000" y="32.970000" width="2.000000" height="34.060000" fill="#FFFFFF" transform="matrix(0.475624,-0.879649,0.879649,0.475624,-23.790000,60.090000)"/><rect x="35.000000" y="59.000000" width="18.000000" height="2.000000" fill="#FFFFFF"/><path d=" M 41.910000 31.290001 L 39.910000 29.290001 L 33.580002 23.000000 L 35.000000 21.559999 C 36.730000 23.299999 39.000000 25.559999 41.279999 27.830000 L 43.279999 29.830000 Z" fill="#FFFFFF"/><rect x="32.560000" y="52.560000" width="11.770000" height="2.000000" fill="#FFFFFF" transform="matrix(0.707107,-0.707107,0.707107,0.707107,-26.610000,42.870000)"/><rect x="24.000000" y="39.000000" width="15.000000" height="2.000000" fill="#FFFFFF"/><path d=" M 55.290001 52.000000 L 50.709999 52.000000 C 50.157715 52.000000 49.709999 51.552284 49.709999 51.000000 L 49.709999 49.130001 C 49.423615 49.033127 49.143135 48.919601 48.869999 48.790001 L 47.549999 50.110001 C 47.161079 50.502121 46.527920 50.504719 46.135799 50.115799 C 46.133858 50.113873 46.131927 50.111942 46.130001 50.110001 L 42.889999 46.869999 C 42.497879 46.481079 42.495281 45.847919 42.884201 45.455799 C 42.886127 45.453857 42.888058 45.451927 42.889999 45.450001 L 44.209999 44.130001 C 44.090000 43.860001 43.970001 43.580002 43.869999 43.290001 L 42.000000 43.290001 C 41.447716 43.290001 41.000000 42.842285 41.000000 42.290001 L 41.000000 37.709999 C 41.000000 37.157715 41.447716 36.709999 42.000000 36.709999 L 43.869999 36.709999 C 43.970001 36.419998 44.090000 36.139999 44.209999 35.869999 L 42.889999 34.549999 C 42.497879 34.161079 42.495281 33.527920 42.884201 33.135799 C 42.886127 33.133858 42.888058 33.131927 42.889999 33.130001 L 46.130001 29.889999 C 46.518921 29.497877 47.152081 29.495281 47.544201 29.884201 C 47.546143 29.886126 47.548073 29.888060 47.549999 29.889999 L 48.869999 31.209999 C 49.143135 31.080400 49.423615 30.966873 49.709999 30.869999 L 49.709999 29.000000 C 49.709999 28.447716 50.157715 28.000000 50.709999 28.000000 L 55.290001 28.000000 C 55.842285 28.000000 56.290001 28.447716 56.290001 29.000000 L 56.290001 30.870001 C 56.576385 30.966875 56.856865 31.080400 57.130001 31.210001 L 58.450001 29.889999 C 58.838921 29.497877 59.472080 29.495281 59.864201 29.884201 C 59.866142 29.886126 59.868073 29.888060 59.869999 29.889999 L 63.110001 33.130001 C 63.502121 33.518921 63.504719 34.152081 63.115799 34.544201 C 63.113873 34.546143 63.111942 34.548073 63.110001 34.549999 L 61.790001 35.869999 C 61.919601 36.143135 62.033127 36.423615 62.130001 36.709999 L 64.000000 36.709999 C 64.552284 36.709999 65.000000 37.157715 65.000000 37.709999 L 65.000000 42.290001 C 65.000000 42.842285 64.552284 43.290001 64.000000 43.290001 L 62.130001 43.290001 C 62.033127 43.576385 61.919601 43.856865 61.790001 44.130001 L 63.110001 45.450001 C 63.502121 45.838921 63.504719 46.472080 63.115799 46.864201 C 63.113873 46.866142 63.111942 46.868073 63.110001 46.869999 L 59.869999 50.110001 C 59.481079 50.502121 58.847919 50.504719 58.455799 50.115799 C 58.453857 50.113873 58.451927 50.111942 58.450001 50.110001 L 57.130001 48.790001 C 56.856865 48.919601 56.576385 49.033127 56.290001 49.130001 L 56.290001 51.000000 C 56.290001 51.552284 55.842285 52.000000 55.290001 52.000000 Z M 51.709999 50.000000 L 54.290001 50.000000 L 54.290001 48.400002 C 54.274078 47.935131 54.580784 47.520664 55.030003 47.400002 C 55.657082 47.229889 56.258953 46.977707 56.820004 46.650002 C 57.210518 46.427650 57.701389 46.493099 58.020004 46.810001 L 59.160000 48.000000 L 61.000000 46.160000 L 59.849998 45.000000 C 59.533096 44.681389 59.467648 44.190514 59.689999 43.799999 C 60.016758 43.234943 60.268860 42.629898 60.439999 42.000000 C 60.560661 41.550781 60.975128 41.244076 61.439999 41.259998 L 63.000000 41.259998 L 63.000000 38.709999 L 61.400002 38.709999 C 60.935131 38.725922 60.520664 38.419216 60.400002 37.969997 C 60.228050 37.343548 59.975967 36.741913 59.650002 36.179996 C 59.427650 35.789482 59.493099 35.298611 59.810001 34.979996 L 61.000000 33.840000 L 59.160000 32.000000 L 58.000000 33.150002 C 57.681389 33.466904 57.190514 33.532352 56.799999 33.310001 C 56.235813 32.981483 55.630531 32.729282 55.000000 32.560001 C 54.550781 32.439339 54.244076 32.024872 54.259998 31.560001 L 54.259998 30.000000 L 51.709999 30.000000 L 51.709999 31.600000 C 51.725922 32.064869 51.419216 32.479336 50.969997 32.599998 C 50.343548 32.771950 49.741913 33.024033 49.179996 33.349998 C 48.789482 33.572350 48.298611 33.506901 47.979996 33.189999 L 46.840000 32.000000 L 45.000000 33.840000 L 46.150002 35.000000 C 46.466904 35.318611 46.532352 35.809486 46.310001 36.200001 C 45.983242 36.765057 45.731140 37.370102 45.560001 38.000000 C 45.439339 38.449219 45.024872 38.755924 44.560001 38.740002 L 43.000000 38.740002 L 43.000000 41.320000 L 44.599998 41.320000 C 45.064869 41.304077 45.479336 41.610783 45.599998 42.060001 C 45.771950 42.686451 46.024033 43.288086 46.349998 43.850002 C 46.572350 44.240517 46.506901 44.731388 46.189999 45.050003 L 45.000000 46.160000 L 46.840000 48.000000 L 48.000000 46.849998 C 48.318611 46.533096 48.809486 46.467648 49.200001 46.689999 C 49.761917 47.015965 50.363552 47.268047 50.990002 47.439999 C 51.439220 47.560661 51.745926 47.975128 51.730003 48.439999 Z" fill="#FFFFFF"/><path d=" M 53.000000 45.119999 C 50.166779 45.119995 47.870003 42.823212 47.870010 39.989990 C 47.870014 37.156769 50.166798 34.859993 53.000019 34.860001 C 55.833241 34.860004 58.130016 37.156788 58.130009 39.990009 C 58.130009 39.993340 58.130005 39.996670 58.129997 40.000000 C 58.130001 42.827698 55.837704 45.120003 53.010006 45.120010 C 53.006668 45.120010 53.003334 45.120007 52.999996 45.119999 Z M 53.000000 36.869999 C 51.271347 36.869999 49.869999 38.271347 49.869999 40.000000 C 49.869999 41.728653 51.271347 43.130001 53.000000 43.130001 C 54.728653 43.130001 56.130001 41.728653 56.130001 40.000000 C 56.130001 38.271347 54.728653 36.869999 53.000000 36.869999 Z" fill="#FFFFFF"/><rect x="30.000000" y="24.000000" width="2.000000" height="13.000000" fill="#FFFFFF"/><rect x="30.000000" y="43.000000" width="2.000000" height="13.000000" fill="#FFFFFF"/><rect x="17.880000" y="28.880000" width="14.850000" height="2.000000" fill="#FFFFFF" transform="matrix(0.463915,-0.885880,0.885880,0.463915,-12.900000,38.430000)"/><rect x="24.310000" y="42.690000" width="2.000000" height="14.850000" fill="#FFFFFF" transform="matrix(0.885961,-0.463760,0.463760,0.885961,-20.360000,17.450000)"/><path d=" M 20.000000 45.000000 C 17.238577 45.000000 15.000000 42.761425 15.000000 40.000000 C 15.000000 37.238575 17.238577 35.000000 20.000000 35.000000 C 22.761423 35.000000 25.000000 37.238575 25.000000 40.000000 C 25.000000 42.761425 22.761423 45.000000 20.000000 45.000000 Z M 20.000000 37.000000 C 18.343145 37.000000 17.000000 38.343147 17.000000 40.000000 C 17.000000 41.656853 18.343145 43.000000 20.000000 43.000000 C 21.656855 43.000000 23.000000 41.656853 23.000000 40.000000 C 23.000000 38.343147 21.656855 37.000000 20.000000 37.000000 Z" fill="#FFFFFF"/><path d=" M 31.000000 25.000000 C 28.238577 25.000000 26.000000 22.761423 26.000000 20.000000 C 26.000000 17.238577 28.238577 15.000000 31.000000 15.000000 C 33.761425 15.000000 36.000000 17.238577 36.000000 20.000000 C 36.000000 22.761423 33.761425 25.000000 31.000000 25.000000 Z M 31.000000 17.000000 C 29.343145 17.000000 28.000000 18.343145 28.000000 20.000000 C 28.000000 21.656855 29.343145 23.000000 31.000000 23.000000 C 32.656853 23.000000 34.000000 21.656855 34.000000 20.000000 C 34.000000 18.343145 32.656853 17.000000 31.000000 17.000000 Z" fill="#FFFFFF"/><path d=" M 31.000000 65.000000 C 28.238577 65.000000 26.000000 62.761425 26.000000 60.000000 C 26.000000 57.238575 28.238577 55.000000 31.000000 55.000000 C 33.761425 55.000000 36.000000 57.238575 36.000000 60.000000 C 36.000000 62.761425 33.761425 65.000000 31.000000 65.000000 Z M 31.000000 57.000000 C 29.343145 57.000000 28.000000 58.343147 28.000000 60.000000 C 28.000000 61.656853 29.343145 63.000000 31.000000 63.000000 C 32.656853 63.000000 34.000000 61.656853 34.000000 60.000000 C 34.000000 58.343147 32.656853 57.000000 31.000000 57.000000 Z" fill="#FFFFFF"/><path d=" M 57.000000 25.000000 C 54.238575 25.000000 52.000000 22.761423 52.000000 20.000000 C 52.000000 17.238577 54.238575 15.000000 57.000000 15.000000 C 59.761425 15.000000 62.000000 17.238577 62.000000 20.000000 C 62.000000 22.761423 59.761425 25.000000 57.000000 25.000000 Z M 57.000000 17.000000 C 55.343147 17.000000 54.000000 18.343145 54.000000 20.000000 C 54.000000 21.656855 55.343147 23.000000 57.000000 23.000000 C 58.656853 23.000000 60.000000 21.656855 60.000000 20.000000 C 60.000000 18.343145 58.656853 17.000000 57.000000 17.000000 Z" fill="#FFFFFF"/><path d=" M 57.000000 65.000000 C 54.238575 65.000000 52.000000 62.761425 52.000000 60.000000 C 52.000000 57.238575 54.238575 55.000000 57.000000 55.000000 C 59.761425 55.000000 62.000000 57.238575 62.000000 60.000000 C 62.000000 62.761425 59.761425 65.000000 57.000000 65.000000 Z M 57.000000 57.000000 C 55.343147 57.000000 54.000000 58.343147 54.000000 60.000000 C 54.000000 61.656853 55.343147 63.000000 57.000000 63.000000 C 58.656853 63.000000 60.000000 61.656853 60.000000 60.000000 C 60.000000 58.343147 58.656853 57.000000 57.000000 57.000000 Z" fill="#FFFFFF"/></g></svg>