<svg version="1.1" width="80.000000" height="100.000000" viewBox="0.000000 0.000000 80.000000 100.000000" xmlns="http://www.w3.org/2000/svg" xmlns:xlink="http://www.w3.org/1999/xlink" overflow="hidden"><g id="CARDS"><rect x="1.000000" y="1.000000" width="78.000000" height="78.000000" fill="#232F3E"/><path d=" M 0.000000 0.000000 L 0.000000 80.000000 L 0.000000 80.000000 L 0.000000 100.000000 L 80.000000 100.000000 L 80.000000 80.000000 L 80.000000 80.000000 L 80.000000 0.000000 Z M 1.000000 1.000000 L 79.000000 1.000000 L 79.000000 79.000000 L 1.000000 79.000000 Z" fill="#FFFFFF"/></g><g id="TEXT_-_EDIT"><path d=" M 16.000000 92.349998 L 15.570000 90.529999 L 13.570000 90.529999 L 13.140000 92.349998 L 11.390000 92.349998 L 13.710000 84.720001 L 15.570000 84.720001 L 17.870001 92.349998 Z M 13.820000 89.430000 L 15.310000 89.430000 L 14.550000 86.269997 Z" fill="#232F3E"/><path d=" M 24.730000 92.349998 L 24.730000 88.639999 C 24.746664 88.401566 24.698275 88.163086 24.590000 87.949997 C 24.488390 87.798111 24.312016 87.713760 24.130001 87.729996 C 23.844559 87.741776 23.567829 87.831711 23.330002 87.989998 C 23.334919 88.029846 23.334919 88.070152 23.330002 88.110001 L 23.330000 92.349998 L 21.690001 92.349998 L 21.690001 88.639999 C 21.709257 88.402504 21.664358 88.164200 21.560001 87.949997 C 21.455143 87.796478 21.275057 87.712181 21.090002 87.729996 C 20.811150 87.743874 20.541409 87.833786 20.310001 87.989998 L 20.309999 92.349998 L 18.660000 92.349998 L 18.660000 86.720001 L 20.000000 86.720001 L 20.129999 87.230003 C 20.671814 86.826485 21.324715 86.599541 22.000000 86.580002 C 22.497904 86.543671 22.969683 86.807076 23.200001 87.250000 C 23.722589 86.857307 24.347836 86.624573 25.000000 86.580002 C 25.378605 86.567619 25.743778 86.720993 26.000000 87.000000 C 26.260429 87.351334 26.387972 87.783562 26.360001 88.220001 L 26.360001 92.349998 Z" fill="#232F3E"/><path d=" M 30.680000 92.349998 L 30.540001 91.839996 C 30.384743 92.042564 30.182154 92.203949 29.950001 92.309998 C 29.703094 92.427322 29.433361 92.488777 29.160000 92.489998 C 28.721901 92.495682 28.301355 92.318039 28.000000 92.000000 C 27.696589 91.668808 27.541306 91.228241 27.570000 90.779999 C 27.546858 90.286880 27.740482 89.808296 28.100000 89.470001 C 28.492178 89.138031 28.997076 88.969734 29.510000 89.000000 C 29.824030 89.006668 30.136179 89.050301 30.440001 89.129997 L 30.440001 88.620003 C 30.467573 88.349762 30.411737 88.077560 30.280001 87.840004 C 30.115479 87.687714 29.892754 87.614693 29.670000 87.640007 C 29.065020 87.668449 28.468025 87.789871 27.900000 88.000008 L 27.900000 87.000000 C 28.183470 86.841469 28.490803 86.730019 28.809999 86.669998 C 29.202368 86.598000 29.601267 86.567833 30.000000 86.580002 C 30.543798 86.532097 31.085882 86.689018 31.520000 87.020004 C 31.868395 87.395195 32.042641 87.899780 32.000000 88.410004 L 32.000000 92.349998 Z M 29.680000 91.430000 C 29.978346 91.418404 30.260971 91.293190 30.470001 91.080002 L 30.469999 90.000000 C 30.264168 89.948074 30.052208 89.924522 29.840000 89.930000 C 29.642252 89.913605 29.447620 89.987053 29.309999 90.129997 C 29.170946 90.293694 29.102604 90.505920 29.119999 90.719994 C 29.109709 90.905304 29.162592 91.088631 29.269999 91.239990 C 29.361195 91.357796 29.501034 91.427719 29.649998 91.429993 Z" fill="#232F3E"/><path d=" M 33.000000 92.349998 L 33.000000 91.279999 L 35.490002 87.879997 L 33.000000 87.879997 L 33.000000 86.720001 L 37.139999 86.720001 L 37.139999 87.790001 L 34.639999 91.190002 L 37.180000 91.190002 L 37.180000 92.349998 Z" fill="#232F3E"/><path d=" M 40.459999 92.489998 C 39.761230 92.527954 39.083462 92.244324 38.619999 91.720001 C 37.753983 90.392052 37.753983 88.677956 38.619999 87.349998 C 39.631748 86.331032 41.277966 86.325180 42.296932 87.336929 C 42.301304 87.341270 42.305660 87.345627 42.310001 87.349998 C 43.176018 88.677948 43.176018 90.392044 42.310001 91.720001 C 41.842556 92.244698 41.161686 92.528084 40.460003 92.489998 Z M 40.459999 91.339996 C 40.746319 91.350388 41.007557 91.177567 41.110001 90.909996 C 41.376797 90.016144 41.376797 89.063843 41.110001 88.169998 C 40.974636 87.813774 40.576122 87.634735 40.219898 87.770103 C 40.035583 87.840141 39.890041 87.985687 39.820000 88.169998 C 39.553204 89.063850 39.553204 90.016151 39.820000 90.909996 C 39.918728 91.175995 40.176414 91.349129 40.459999 91.339996 Z" fill="#232F3E"/><path d=" M 47.220001 92.349998 L 47.220001 88.650002 C 47.236496 88.408363 47.188168 88.166710 47.080002 87.950005 C 46.964104 87.793236 46.773880 87.709541 46.580002 87.730003 C 46.287971 87.739677 46.004253 87.829636 45.760002 87.990005 L 45.759998 92.349998 L 44.110001 92.349998 L 44.110001 86.720001 L 45.459999 86.720001 L 45.599998 87.230003 C 46.134369 86.833908 46.775398 86.607452 47.439999 86.580002 C 47.841209 86.554985 48.232933 86.708748 48.509998 87.000000 C 48.772018 87.350540 48.899738 87.783371 48.869999 88.220001 L 48.869999 92.349998 Z" fill="#232F3E"/><path d=" M 52.919998 92.349998 L 52.919998 84.720001 L 54.610001 84.720001 L 54.610001 91.120003 L 57.450001 91.120003 L 57.450001 92.349998 Z" fill="#232F3E"/><path d=" M 59.439999 89.919998 C 59.428944 90.311180 59.556446 90.693687 59.799999 91.000000 C 60.095566 91.246262 60.476879 91.364975 60.860001 91.330002 C 61.089203 91.323997 61.317131 91.293831 61.540001 91.240005 C 61.811527 91.190041 62.078941 91.119843 62.340000 91.030006 L 62.340000 92.029999 C 62.081760 92.177193 61.801506 92.281868 61.509998 92.339996 C 61.181473 92.411812 60.846275 92.448685 60.509998 92.449997 C 58.790001 92.449997 57.930000 91.449997 57.930000 89.500000 C 57.875515 88.713959 58.102364 87.934151 58.570000 87.300003 C 59.024651 86.776291 59.697926 86.495148 60.389999 86.540001 C 61.759998 86.540001 62.439999 87.300003 62.439999 88.830002 C 62.439125 89.166870 62.398853 89.502487 62.320000 89.830002 Z M 60.349998 87.599998 C 59.770000 87.599998 59.470001 88.059998 59.439999 88.970001 L 61.049999 88.970001 L 61.049999 88.720001 C 61.075039 88.423065 61.016132 88.125076 60.880001 87.860001 C 60.762512 87.684830 60.560444 87.585701 60.350002 87.599998 Z" fill="#232F3E"/><path d=" M 66.400002 92.349998 L 65.400002 90.559998 L 64.550003 92.349998 L 62.919998 92.349998 L 64.639999 89.519997 L 62.939999 86.720001 L 64.720001 86.720001 L 65.620003 88.449997 L 66.449997 86.720001 L 68.080002 86.720001 L 66.379997 89.519997 L 68.169998 92.349998 Z" fill="#232F3E"/></g><g id="ICONS_-_EDIT"><path d=" M 22.559999 45.209999 C 22.342400 45.208965 22.127558 45.161224 21.930000 45.070000 C 21.363573 44.825653 20.997614 44.266876 21.000000 43.650002 L 21.000000 38.000000 C 21.005751 37.939522 20.961384 37.885834 20.900906 37.880081 C 20.900604 37.880051 20.900303 37.880024 20.900000 37.879997 L 17.080000 37.880001 C 15.926412 37.863598 14.999884 36.923706 15.000000 35.770000 L 15.000000 17.120001 C 14.994397 15.962404 15.922506 15.016446 17.080000 15.000001 L 45.869999 15.000000 C 47.040829 14.994477 47.994453 15.939146 47.999977 17.109976 C 47.999992 17.113317 48.000000 17.116657 48.000000 17.119999 L 48.000000 32.000000 L 46.000000 32.000000 L 46.000000 17.120001 C 46.005524 17.059502 45.960957 17.005980 45.900455 17.000456 C 45.896980 17.000139 45.893490 16.999987 45.889999 17.000002 L 17.080000 17.000000 C 17.020000 17.000000 16.980000 17.049999 16.980000 17.120001 L 16.980000 35.770000 C 16.974249 35.830479 17.018616 35.884167 17.079094 35.889919 C 17.079395 35.889950 17.079697 35.889977 17.080000 35.890003 L 20.920000 35.889999 C 22.071314 35.911713 22.994774 36.848492 23.000000 38.000000 L 23.000000 42.540001 L 28.290001 37.099998 L 29.719999 38.490002 L 23.629999 44.750000 C 23.342690 45.030678 22.961357 45.194614 22.559999 45.209999 Z" fill="#FFFFFF"/><rect x="20.030000" y="19.950000" width="17.000000" height="2.000000" fill="#FFFFFF"/><rect x="39.030000" y="19.950000" width="4.000000" height="2.000000" fill="#FFFFFF"/><rect x="20.030000" y="24.950000" width="9.000000" height="2.000000" fill="#FFFFFF"/><rect x="32.030000" y="24.950000" width="11.000000" height="2.000000" fill="#FFFFFF"/><rect x="20.030000" y="29.950000" width="14.000000" height="2.000000" fill="#FFFFFF"/><rect x="36.030000" y="29.950000" width="4.000000" height="2.000000" fill="#FFFFFF"/><path d=" M 55.509998 65.000000 C 55.138081 64.988632 54.782852 64.842987 54.509998 64.589996 L 47.720001 57.880001 L 33.090000 57.880001 C 31.935724 57.880054 30.999958 56.944370 30.999905 55.790096 C 30.999905 55.783398 30.999937 55.776699 31.000000 55.770000 L 31.000000 36.540001 C 31.016432 35.132359 32.162262 33.999905 33.570000 34.000000 L 63.060001 34.000000 C 64.191879 34.026253 65.088173 34.965103 65.061920 36.096981 C 65.061508 36.114662 65.060875 36.132336 65.060005 36.150002 L 65.059998 55.770000 C 65.071182 56.922127 64.151970 57.868107 62.999996 57.889999 L 57.099998 57.889999 C 57.046921 57.902111 57.007011 57.946011 57.000000 58.000000 L 57.000000 63.430000 C 57.000774 64.054184 56.631725 64.619530 56.060001 64.870003 C 55.886406 64.947334 55.699848 64.991432 55.510002 65.000000 Z M 63.000000 35.919998 L 33.570000 36.000000 C 33.260902 36.010593 33.018913 36.269753 33.029507 36.578850 C 33.029633 36.582569 33.029800 36.586285 33.029999 36.590000 L 33.029999 55.770000 C 33.029999 55.840000 33.029999 55.889999 33.090000 55.889999 L 47.669998 55.889999 C 48.187004 55.886780 48.685173 56.083893 49.059998 56.439999 L 55.060001 62.349998 L 55.060001 58.000000 C 55.043316 56.845844 55.965416 55.896690 57.119572 55.880005 C 57.119717 55.880001 57.119858 55.880001 57.120003 55.879997 L 63.000000 55.880001 C 63.046471 55.858948 63.074547 55.810814 63.070000 55.760002 L 63.070000 36.099998 C 63.068752 36.033596 63.043941 35.969799 63.000000 35.919998 Z" fill="#FFFFFF"/><path d=" M 48.680000 54.000000 L 47.369999 54.000000 C 46.993443 53.998859 46.649448 53.786278 46.480000 53.450001 L 45.959999 52.450001 C 45.617096 52.330040 45.282955 52.186359 44.959999 52.020000 L 43.880001 52.380001 C 43.526089 52.488117 43.141399 52.391945 42.880001 52.130001 L 41.959999 51.209999 C 41.698055 50.948601 41.601883 50.563911 41.709999 50.209999 L 42.000000 49.070000 C 41.809689 48.731659 41.658707 48.372658 41.549999 48.000000 L 40.549999 47.500000 C 40.210495 47.328934 39.997353 46.980156 40.000000 46.599998 L 40.000000 45.290001 C 39.999222 44.915646 40.207600 44.572205 40.540001 44.400002 L 41.540001 43.900002 C 41.659279 43.526428 41.813282 43.164848 42.000000 42.820000 L 41.650002 41.820000 C 41.541885 41.466087 41.638058 41.081398 41.900002 40.820000 L 42.820000 39.900002 C 43.081398 39.638058 43.466087 39.541885 43.820000 39.650002 L 44.889999 40.000000 C 45.248425 39.805859 45.619221 39.635490 46.000000 39.490002 L 46.509998 38.490002 C 46.682201 38.157600 47.025642 37.949223 47.399998 37.950001 L 48.709999 37.950001 C 49.084354 37.949223 49.427795 38.157600 49.599998 38.490002 L 50.099998 39.490002 C 50.473797 39.604458 50.835518 39.755177 51.180000 39.940002 L 52.240002 39.590000 C 52.593914 39.481884 52.978603 39.578056 53.240002 39.840000 L 54.160000 40.759998 C 54.421944 41.021397 54.518116 41.406086 54.410000 41.759998 L 54.000000 42.820000 C 54.178852 43.167290 54.329342 43.528465 54.450001 43.900002 L 55.450001 44.400002 C 55.786282 44.569450 55.998859 44.913445 56.000000 45.290001 L 56.000000 46.599998 C 55.998859 46.976555 55.786278 47.320549 55.450001 47.489998 L 54.450001 48.000000 C 54.329369 48.365093 54.178860 48.719624 54.000000 49.060001 L 54.349998 50.130001 C 54.458115 50.483913 54.361942 50.868603 54.099998 51.130001 L 53.180000 52.049999 C 52.918602 52.311943 52.533913 52.408115 52.180000 52.299999 L 51.130001 52.000000 C 50.792572 52.172291 50.441353 52.316124 50.080002 52.430000 L 49.570000 53.430000 C 49.406170 53.774055 49.061039 53.995098 48.680000 54.000000 Z M 48.000000 52.000000 L 48.070000 52.000000 L 48.500000 51.150002 C 48.632977 50.888168 48.874317 50.698017 49.160000 50.630001 C 49.636166 50.489529 50.088055 50.277073 50.500000 50.000000 C 50.751419 49.844048 51.058994 49.807430 51.340000 49.900002 L 52.240002 50.189999 L 52.240002 50.139999 L 51.950001 49.240002 C 51.860538 48.962006 51.897072 48.658794 52.049999 48.410000 C 52.310150 47.990528 52.499355 47.531033 52.610001 47.049999 C 52.678017 46.764317 52.868164 46.522972 53.130001 46.389999 L 54.000000 46.000000 L 54.000000 45.930000 L 53.160000 45.500000 C 52.898167 45.367023 52.708015 45.125683 52.639999 44.840000 C 52.519196 44.357525 52.327080 43.895775 52.070000 43.470001 C 51.920422 43.219688 51.887550 42.916557 51.980000 42.639999 L 52.270000 41.750000 L 52.209999 41.750000 L 51.320000 42.029999 C 51.042004 42.119461 50.738792 42.082928 50.489998 41.930000 C 50.064224 41.672920 49.602474 41.480804 49.119999 41.360001 C 48.836220 41.294243 48.595215 41.108017 48.459999 40.850002 L 48.060001 40.000000 L 48.000000 40.000000 L 47.570000 40.830002 C 47.441486 41.075333 47.216988 41.256382 46.950001 41.330002 C 46.459057 41.467876 45.985859 41.662521 45.540001 41.910004 C 45.291210 42.062931 44.987995 42.099464 44.709999 42.010002 L 43.820000 41.730000 L 43.770000 41.730000 L 44.049999 42.619999 C 44.142448 42.896553 44.109577 43.199688 43.959999 43.450001 C 43.702919 43.875774 43.510803 44.337524 43.389999 44.820000 C 43.324242 45.103779 43.138016 45.344784 42.880001 45.480000 L 42.040001 45.910000 L 42.040001 46.000000 L 42.880001 46.430000 C 43.160088 46.573269 43.356426 46.839993 43.410000 47.150002 C 43.503143 47.616192 43.690281 48.058517 43.959999 48.450001 C 44.112926 48.698792 44.149460 49.002007 44.059998 49.280003 L 43.770000 50.180000 L 43.820000 50.230000 L 44.720001 49.939999 C 45.001007 49.847427 45.308582 49.884045 45.560001 50.039997 C 45.999748 50.283085 46.466194 50.474361 46.950001 50.609997 C 47.216988 50.683617 47.441490 50.864666 47.570000 51.109997 Z M 48.000000 49.200001 C 46.232689 49.200001 44.799999 47.767311 44.799999 46.000000 C 44.799999 44.232689 46.232689 42.799999 48.000000 42.799999 C 49.767311 42.799999 51.200001 44.232689 51.200001 46.000000 C 51.172688 47.747753 49.747967 49.150215 48.000000 49.150002 Z M 48.000000 44.799999 C 47.337257 44.799999 46.799999 45.337257 46.799999 46.000000 C 46.799999 46.662743 47.337257 47.200001 48.000000 47.200001 C 48.662743 47.200001 49.200001 46.662743 49.200001 46.000000 C 49.200001 45.337257 48.662743 44.799999 48.000000 44.799999 Z" fill="#FFFFFF"/></g></svg>