<svg version="1.1" width="80.000000" height="100.000000" viewBox="0.000000 0.000000 80.000000 100.000000" xmlns="http://www.w3.org/2000/svg" xmlns:xlink="http://www.w3.org/1999/xlink" overflow="hidden"><g id="CARDS"><rect x="1.000000" y="1.000000" width="78.000000" height="78.000000" fill="#232F3E"/><path d=" M 0.000000 0.000000 L 0.000000 80.000000 L 0.000000 80.000000 L 0.000000 100.000000 L 80.000000 100.000000 L 80.000000 80.000000 L 80.000000 80.000000 L 80.000000 0.000000 Z M 1.000000 1.000000 L 79.000000 1.000000 L 79.000000 79.000000 L 1.000000 79.000000 Z" fill="#FFFFFF"/></g><g id="TEXT_-_EDIT"><path d=" M 11.940000 92.349998 L 11.510000 90.529999 L 9.510000 90.529999 L 9.090000 92.349998 L 7.310000 92.349998 L 9.630000 84.720001 L 11.500000 84.720001 L 13.800000 92.349998 Z M 9.760000 89.430000 L 11.250000 89.430000 L 10.500000 86.269997 Z" fill="#232F3E"/><path d=" M 20.650000 92.349998 L 20.650000 88.639999 C 20.666664 88.401566 20.618275 88.163086 20.510000 87.949997 C 20.409904 87.796371 20.232418 87.711487 20.050001 87.729996 C 19.764830 87.743271 19.488491 87.833084 19.250002 87.989998 C 19.254820 88.029854 19.254820 88.070145 19.250002 88.110001 L 19.250000 92.349998 L 17.620001 92.349998 L 17.620001 88.639999 C 17.636665 88.401566 17.588276 88.163086 17.480001 87.949997 C 17.375143 87.796478 17.195057 87.712181 17.010002 87.729996 C 16.731339 87.744865 16.461857 87.834694 16.230001 87.989998 L 16.230000 92.349998 L 14.580000 92.349998 L 14.580000 86.720001 L 15.930000 86.720001 L 16.059999 87.230003 C 16.585705 86.838974 17.215631 86.612755 17.869999 86.580002 C 18.367903 86.543671 18.839682 86.807076 19.070000 87.250000 C 19.600990 86.851845 20.237450 86.618820 20.900000 86.580002 C 21.278605 86.567619 21.643778 86.720993 21.900000 87.000000 C 22.160429 87.351334 22.287971 87.783562 22.260000 88.220001 L 22.260000 92.349998 Z" fill="#232F3E"/><path d=" M 26.600000 92.349998 L 26.459999 91.839996 C 26.306902 92.044678 26.103724 92.206528 25.869999 92.309998 C 25.626251 92.426201 25.360020 92.487640 25.089998 92.489998 C 24.641771 92.502930 24.209160 92.324799 23.899998 92.000000 C 23.289263 91.252548 23.332174 90.166916 23.999998 89.470001 C 24.397272 89.133095 24.910315 88.964470 25.429998 89.000000 C 25.744028 89.006668 26.056177 89.050301 26.359999 89.129997 L 26.360001 88.620003 C 26.387573 88.349762 26.331738 88.077560 26.200001 87.840004 C 26.035479 87.687714 25.812754 87.614693 25.590000 87.640007 C 24.985546 87.665237 24.388567 87.783279 23.820000 87.990005 L 23.820000 87.000000 C 24.106565 86.840446 24.417355 86.728966 24.740000 86.669998 C 25.118017 86.589485 25.503504 86.549255 25.889999 86.549995 C 26.433798 86.502090 26.975882 86.659012 27.410000 86.989998 C 27.754774 87.366852 27.925322 87.871239 27.879999 88.379997 L 27.879999 92.320000 Z M 25.600000 91.430000 C 25.898346 91.418404 26.180971 91.293190 26.390001 91.080002 L 26.389999 90.000000 C 26.187586 89.947983 25.978914 89.924423 25.769999 89.930000 C 25.569067 89.911972 25.370708 89.985435 25.229998 90.129997 C 25.090944 90.293694 25.022602 90.505920 25.039997 90.719994 C 25.029707 90.905304 25.082590 91.088631 25.189997 91.239990 C 25.281193 91.357796 25.421032 91.427719 25.569996 91.429993 Z" fill="#232F3E"/><path d=" M 28.870001 92.349998 L 28.870001 91.279999 L 31.360001 87.879997 L 29.000000 87.879997 L 29.000000 86.720001 L 33.099998 86.720001 L 33.099998 87.790001 L 30.600000 91.190002 L 33.150002 91.190002 L 33.150002 92.349998 Z" fill="#232F3E"/><path d=" M 36.389999 92.489998 C 35.688313 92.528084 35.007446 92.244698 34.540001 91.720001 C 33.673985 90.392052 33.673985 88.677956 34.540001 87.349998 C 35.551750 86.331032 37.197968 86.325180 38.216934 87.336929 C 38.221306 87.341270 38.225662 87.345627 38.230003 87.349998 C 39.096020 88.677948 39.096020 90.392044 38.230003 91.720001 C 37.766541 92.244324 37.088772 92.527962 36.390003 92.489998 Z M 36.389999 91.339996 C 36.673584 91.349129 36.931271 91.175995 37.029999 90.909996 C 37.296795 90.016144 37.296795 89.063843 37.029999 88.169998 C 36.894634 87.813774 36.496120 87.634735 36.139896 87.770103 C 35.955582 87.840141 35.810040 87.985687 35.739998 88.169998 C 35.473202 89.063850 35.473202 90.016151 35.739998 90.909996 C 35.842438 91.177567 36.103680 91.350380 36.389999 91.339996 Z" fill="#232F3E"/><path d=" M 43.139999 92.349998 L 43.139999 88.650002 C 43.151886 88.424744 43.103561 88.200394 43.000000 88.000000 C 42.887306 87.844872 42.700809 87.761139 42.509998 87.779999 C 42.217789 87.788635 41.933796 87.878677 41.689999 88.040001 L 41.689999 92.400002 L 40.000000 92.400002 L 40.000000 86.720001 L 41.349998 86.720001 L 41.480000 87.230003 C 42.014370 86.833908 42.655399 86.607452 43.320000 86.580002 C 43.721432 86.553581 44.113728 86.707565 44.389999 87.000000 C 44.652020 87.350540 44.779739 87.783371 44.750000 88.220001 L 44.750000 92.349998 Z" fill="#232F3E"/><path d=" M 50.490002 89.519997 L 50.490002 92.349998 L 48.840000 92.349998 L 48.840000 84.720001 L 51.480000 84.720001 C 52.133438 84.689598 52.771538 84.923927 53.250000 85.370003 C 53.699009 85.838562 53.934265 86.471939 53.900002 87.120003 C 53.932289 87.770744 53.697510 88.406456 53.250000 88.880005 C 52.768166 89.319534 52.131512 89.549736 51.480000 89.520004 Z M 50.490002 88.379997 L 51.279999 88.379997 C 51.554802 88.396111 51.820061 88.276558 51.989998 88.059998 C 52.175430 87.783134 52.263390 87.452400 52.239998 87.119995 C 52.265049 86.790565 52.176846 86.462463 51.989998 86.189995 C 51.822315 85.970581 51.555450 85.850304 51.279999 85.869995 L 50.490002 85.870003 Z" fill="#232F3E"/><path d=" M 57.169998 92.489998 C 56.468311 92.528084 55.787445 92.244698 55.320000 91.720001 C 54.453983 90.392052 54.453983 88.677956 55.320000 87.349998 C 56.331749 86.331032 57.977966 86.325180 58.996933 87.336929 C 59.001305 87.341270 59.005661 87.345627 59.010002 87.349998 C 59.876019 88.677948 59.876019 90.392044 59.010002 91.720001 C 58.546539 92.244324 57.868771 92.527962 57.170002 92.489998 Z M 57.169998 91.339996 C 57.453583 91.349129 57.711269 91.175995 57.809998 90.909996 C 58.076794 90.016144 58.076794 89.063843 57.809998 88.169998 C 57.674633 87.813774 57.276119 87.634735 56.919895 87.770103 C 56.735580 87.840141 56.590038 87.985687 56.519997 88.169998 C 56.253201 89.063850 56.253201 90.016151 56.519997 90.909996 C 56.622437 91.177567 56.883678 91.350380 57.169998 91.339996 Z" fill="#232F3E"/><path d=" M 63.209999 92.250000 C 62.890049 92.367126 62.550518 92.421448 62.209999 92.410004 C 61.822060 92.420113 61.446671 92.272125 61.169998 92.000000 C 60.913887 91.685440 60.788567 91.284424 60.820000 90.879997 L 60.820000 84.209999 L 62.470001 84.209999 L 62.470001 90.750000 C 62.453762 90.888435 62.481766 91.028458 62.550003 91.150002 C 62.625404 91.241234 62.742828 91.286682 62.860004 91.270004 C 62.976448 91.280235 63.093563 91.280235 63.210003 91.270004 Z" fill="#232F3E"/><path d=" M 66.620003 92.250000 C 66.299805 92.366165 65.960457 92.420456 65.620003 92.410004 C 65.232063 92.420113 64.856674 92.272125 64.580002 92.000000 C 64.320099 91.687485 64.194290 91.284897 64.230003 90.879997 L 64.230003 84.209999 L 65.879997 84.209999 L 65.879997 90.750000 C 65.867119 90.887192 65.891289 91.025330 65.949997 91.150002 C 66.030693 91.239822 66.150139 91.284615 66.269997 91.270004 C 66.386467 91.279564 66.503525 91.279564 66.619995 91.270004 Z" fill="#232F3E"/><path d=" M 69.000000 92.459999 L 67.000000 86.720001 L 68.750000 86.720001 L 69.680000 90.860001 L 70.580002 86.720001 L 72.279999 86.720001 L 70.279999 93.199997 C 70.170708 93.647972 69.938690 94.056602 69.610001 94.379997 C 69.296204 94.631195 68.901497 94.759209 68.500000 94.739998 C 68.140648 94.740013 67.783333 94.686081 67.440002 94.579994 L 67.440002 93.580002 C 67.633110 93.593239 67.826897 93.593239 68.020004 93.580002 C 68.269417 93.595459 68.515572 93.516968 68.710007 93.360001 C 68.886971 93.152000 68.992172 92.892509 69.010010 92.620003 Z" fill="#232F3E"/></g><g id="ICONS_-_EDIT"><rect x="40.040000" y="27.000000" width="2.000000" height="3.000000" fill="#FFFFFF"/><path d=" M 30.000000 54.000000 L 16.000000 54.000000 C 15.447715 54.000000 15.000000 53.552284 15.000000 53.000000 L 15.000000 45.000000 L 17.000000 45.000000 L 17.000000 52.000000 L 30.000000 52.000000 Z" fill="#FFFFFF"/><path d=" M 17.000000 40.000000 L 15.000000 40.000000 L 15.000000 17.000000 C 15.000000 16.447716 15.447715 16.000000 16.000000 16.000000 L 31.000000 16.000000 L 31.000000 18.000000 L 17.000000 18.000000 Z" fill="#FFFFFF"/><path d=" M 41.000000 28.000000 L 31.000000 28.000000 C 30.447716 28.000000 30.000000 27.552284 30.000000 27.000000 L 30.000000 17.000000 C 30.002316 16.447720 30.451904 16.001886 31.004185 16.004202 C 31.269371 16.005314 31.523256 16.111713 31.710001 16.300001 L 41.709999 26.299999 C 42.096603 26.694405 42.090279 27.327538 41.695873 27.714142 C 41.509964 27.896372 41.260323 27.998922 41.000000 27.999998 Z M 32.000000 26.000000 L 38.590000 26.000000 L 32.000000 19.420000 Z" fill="#FFFFFF"/><rect x="19.040000" y="32.900000" width="8.000000" height="2.000000" fill="#FFFFFF"/><path d=" M 63.689999 66.000000 C 63.498798 66.002258 63.309956 65.957626 63.139999 65.870003 L 54.779999 61.689999 C 47.133427 65.985092 37.452801 63.268177 33.157707 55.621605 C 32.181068 53.882889 31.540667 51.975773 31.269997 49.999996 L 33.270000 49.730000 C 34.322212 57.323154 41.330666 62.625637 48.923820 61.573425 C 50.818695 61.310844 52.638836 60.659409 54.270000 59.660000 C 54.579403 59.481365 54.960598 59.481365 55.270000 59.660000 L 62.000000 63.080002 L 58.570000 56.360001 C 58.391365 56.050598 58.391365 55.669403 58.570000 55.360001 C 60.023045 53.133068 60.791389 50.529030 60.779999 47.869999 C 60.760593 40.209835 54.535072 34.015774 46.874908 34.035179 C 44.658726 34.040794 42.476151 34.577381 40.509998 35.599998 L 39.570000 33.840000 C 47.311508 29.742043 56.909294 32.695724 61.007252 40.437233 C 62.214649 42.718143 62.847195 45.259235 62.850002 47.840000 C 62.871288 50.711983 62.103359 53.534649 60.630001 56.000000 L 64.820000 64.209999 C 65.067703 64.690094 64.978958 65.274986 64.599998 65.659996 C 64.354301 65.890404 64.026581 66.012856 63.689999 65.999992 Z M 63.000000 65.059998 L 63.000000 65.059998 Z" fill="#FFFFFF"/><rect x="45.040000" y="44.000000" width="2.000000" height="8.000000" fill="#FFFFFF"/><rect x="48.040000" y="43.000000" width="2.000000" height="10.000000" fill="#FFFFFF"/><rect x="51.040000" y="42.000000" width="2.000000" height="12.000000" fill="#FFFFFF"/><rect x="54.040000" y="45.000000" width="2.000000" height="7.000000" fill="#FFFFFF"/><rect x="39.040000" y="44.000000" width="2.000000" height="8.000000" fill="#FFFFFF"/><rect x="19.040000" y="37.900000" width="19.000000" height="2.000000" fill="#FFFFFF"/><rect x="19.040000" y="42.900000" width="14.000000" height="2.000000" fill="#FFFFFF"/><rect x="29.040000" y="32.900000" width="4.000000" height="2.000000" fill="#FFFFFF"/><rect x="42.040000" y="46.000000" width="2.000000" height="4.000000" fill="#FFFFFF"/><rect x="40.040000" y="37.900000" width="6.000000" height="2.000000" fill="#FFFFFF"/></g></svg>