<svg version="1.1" width="80.000000" height="115.000000" viewBox="0.000000 0.000000 80.000000 115.000000" xmlns="http://www.w3.org/2000/svg" xmlns:xlink="http://www.w3.org/1999/xlink" overflow="hidden"><g id="CARDS"><rect x="1.000000" y="1.000000" width="78.000000" height="78.000000" fill="#232F3E"/><path d=" M 0.000000 0.000000 L 0.000000 80.000000 L 0.000000 80.000000 L 0.000000 115.000000 L 80.000000 115.000000 L 80.000000 80.000000 L 80.000000 80.000000 L 80.000000 0.000000 Z M 1.000000 1.000000 L 79.000000 1.000000 L 79.000000 79.000000 L 1.000000 79.000000 Z" fill="#FFFFFF"/></g><g id="TEXT_-_EDIT"><path d=" M 25.350000 92.349998 L 24.920000 90.529999 L 22.920000 90.529999 L 22.500000 92.349998 L 20.719999 92.349998 L 23.000000 84.720001 L 24.900000 84.720001 L 27.209999 92.349998 Z M 23.170000 89.430000 L 24.660000 89.430000 L 23.900000 86.269997 Z" fill="#232F3E"/><path d=" M 34.060001 92.349998 L 34.060001 88.639999 C 34.076664 88.401566 34.028278 88.163086 33.920002 87.949997 C 33.819908 87.796371 33.642418 87.711487 33.460003 87.729996 C 33.174831 87.743271 32.898491 87.833084 32.660004 87.989998 C 32.664822 88.029854 32.664822 88.070145 32.660004 88.110001 L 32.660000 92.349998 L 31.000000 92.349998 L 31.000000 88.639999 C 31.019257 88.402504 30.974358 88.164200 30.870001 87.949997 C 30.765142 87.796478 30.585056 87.712181 30.400002 87.729996 C 30.121338 87.744865 29.851856 87.834694 29.620001 87.989998 L 29.620001 92.349998 L 28.000000 92.349998 L 28.000000 86.720001 L 29.350000 86.720001 L 29.480000 87.230003 C 30.005705 86.838974 30.635632 86.612755 31.289999 86.580002 C 31.787903 86.543671 32.259682 86.807076 32.489998 87.250000 C 33.020988 86.851845 33.657448 86.618820 34.320000 86.580002 C 34.698605 86.567619 35.063778 86.720993 35.320000 87.000000 C 35.580429 87.351334 35.707973 87.783562 35.680000 88.220001 L 35.680000 92.349998 Z" fill="#232F3E"/><path d=" M 40.000000 92.349998 L 39.860001 91.839996 C 39.704742 92.042564 39.502155 92.203949 39.270000 92.309998 C 39.023094 92.427322 38.753361 92.488777 38.480000 92.489998 C 38.038441 92.498497 37.613724 92.320625 37.310001 92.000000 C 37.006588 91.668808 36.851307 91.228241 36.880001 90.779999 C 36.856857 90.286880 37.050484 89.808296 37.410000 89.470001 C 37.807274 89.133095 38.320316 88.964470 38.840000 89.000000 C 39.154030 89.006668 39.466179 89.050301 39.770000 89.129997 L 39.770000 88.620003 C 39.797573 88.349762 39.741737 88.077560 39.610001 87.840004 C 39.445477 87.687714 39.222755 87.614693 39.000000 87.640007 C 38.395546 87.665237 37.798565 87.783279 37.230000 87.990005 L 37.230000 87.000000 C 37.516563 86.840446 37.827354 86.728966 38.149998 86.669998 C 38.528015 86.589485 38.913502 86.549255 39.299999 86.549995 C 39.843796 86.502090 40.385880 86.659012 40.820000 86.989998 C 41.164772 87.366852 41.335323 87.871239 41.290001 88.379997 L 41.290001 92.320000 Z M 39.000000 91.430000 C 39.298344 91.418404 39.580971 91.293190 39.790001 91.080002 L 39.790001 90.000000 C 39.587475 89.948616 39.378887 89.925064 39.170002 89.930000 C 38.969070 89.911972 38.770714 89.985435 38.630001 90.129997 C 38.490948 90.293694 38.422604 90.505920 38.440002 90.719994 C 38.429714 90.905304 38.482594 91.088631 38.590004 91.239990 C 38.687565 91.366325 38.840549 91.437218 39.000004 91.429993 Z" fill="#232F3E"/><path d=" M 42.279999 92.349998 L 42.279999 91.279999 L 44.770000 87.879997 L 42.369999 87.879997 L 42.369999 86.720001 L 46.509998 86.720001 L 46.509998 87.790001 L 44.000000 91.190002 L 46.540001 91.190002 L 46.540001 92.349998 Z" fill="#232F3E"/><path d=" M 49.790001 92.489998 C 49.108715 92.511253 48.453094 92.229225 48.000000 91.720001 C 47.133984 90.392052 47.133984 88.677956 48.000000 87.349998 C 49.011749 86.331032 50.657967 86.325180 51.676933 87.336929 C 51.681305 87.341270 51.685661 87.345627 51.690002 87.349998 C 52.556019 88.677948 52.556019 90.392044 51.690002 91.720001 C 51.211487 92.259041 50.508781 92.543823 49.790001 92.489998 Z M 49.790001 91.339996 C 50.076321 91.350388 50.337559 91.177567 50.440002 90.909996 C 50.706799 90.016144 50.706799 89.063843 50.440002 88.169998 C 50.304638 87.813774 49.906124 87.634735 49.549900 87.770103 C 49.365585 87.840141 49.220043 87.985687 49.150002 88.169998 C 48.883205 89.063850 48.883205 90.016151 49.150002 90.909996 C 49.248730 91.175995 49.506416 91.349129 49.790001 91.339996 Z" fill="#232F3E"/><path d=" M 56.549999 92.349998 L 56.549999 88.650002 C 56.566494 88.408363 56.518166 88.166710 56.410000 87.950005 C 56.294102 87.793236 56.103878 87.709541 55.910000 87.730003 C 55.621128 87.739960 55.340698 87.829971 55.099998 87.990005 L 55.099998 92.349998 L 53.439999 92.349998 L 53.439999 86.720001 L 54.790001 86.720001 L 54.930000 87.230003 C 55.464371 86.833908 56.105400 86.607452 56.770000 86.580002 C 57.171432 86.553581 57.563728 86.707565 57.840000 87.000000 C 58.102020 87.350540 58.229740 87.783371 58.200001 88.220001 L 58.200001 92.349998 Z" fill="#232F3E"/><path d=" M 15.470000 106.349998 L 14.000000 103.519997 L 13.350000 103.519997 L 13.350000 106.349998 L 11.710000 106.349998 L 11.710000 98.720001 L 14.350000 98.720001 C 15.000204 98.691185 15.634609 98.925476 16.110001 99.370003 C 16.566875 99.834206 16.806551 100.469711 16.770000 101.120003 C 16.782398 101.585030 16.668344 102.044708 16.440001 102.450005 C 16.227995 102.822403 15.901984 103.116867 15.510000 103.290001 L 17.200001 106.349998 Z M 13.360000 102.349998 L 14.140000 102.349998 C 14.415594 102.366768 14.682788 102.251724 14.860001 102.040001 C 15.037231 101.759865 15.121243 101.430817 15.100000 101.099998 C 15.122620 100.772209 15.038415 100.445908 14.860001 100.169998 C 14.686915 99.951820 14.417932 99.832275 14.140000 99.849998 L 13.360000 99.849998 Z" fill="#232F3E"/><path d=" M 19.240000 103.919998 C 19.228947 104.311180 19.356449 104.693687 19.600000 105.000000 C 19.894474 105.248260 20.276644 105.367241 20.660000 105.330002 C 20.889200 105.323997 21.117128 105.293831 21.340000 105.240005 C 21.611252 105.188805 21.878574 105.118637 22.139999 105.030006 L 22.139999 106.029999 C 21.880980 106.175522 21.601000 106.280098 21.309999 106.339996 C 20.981476 106.411812 20.646278 106.448685 20.309999 106.449997 C 18.590000 106.449997 17.730000 105.449997 17.730000 103.500000 C 17.676962 102.715630 17.899818 101.937401 18.359999 101.300003 C 18.818687 100.775963 19.495022 100.495087 20.189999 100.540001 C 21.549999 100.540001 22.240000 101.300003 22.240000 102.830002 C 22.239126 103.166870 22.198853 103.502487 22.119999 103.830002 Z M 20.150000 101.599998 C 19.570000 101.599998 19.270000 102.059998 19.240000 102.970001 L 20.850000 102.970001 L 20.850000 102.720001 C 20.870443 102.423340 20.811779 102.126572 20.680000 101.860001 C 20.562510 101.684830 20.360441 101.585701 20.150000 101.599998 Z" fill="#232F3E"/><path d=" M 23.379999 106.349998 L 23.379999 98.209999 L 25.000000 98.209999 L 25.000000 103.209999 L 26.639999 100.769997 L 28.469999 100.769997 L 26.469999 103.459999 L 28.639999 106.400002 L 26.740000 106.400002 L 25.000000 103.750000 L 25.000000 106.349998 Z" fill="#232F3E"/><path d=" M 31.370001 106.489998 C 30.668314 106.528084 29.987448 106.244698 29.520000 105.720001 C 28.653986 104.392052 28.653986 102.677956 29.520000 101.349998 C 30.531748 100.331032 32.177967 100.325180 33.196934 101.336929 C 33.201305 101.341270 33.205662 101.345627 33.210003 101.349998 C 34.076019 102.677948 34.076019 104.392044 33.210003 105.720001 C 32.746540 106.244324 32.068771 106.527962 31.370003 106.489998 Z M 31.370001 105.339996 C 31.653584 105.349129 31.911272 105.175995 32.010002 104.909996 C 32.276798 104.016144 32.276798 103.063843 32.010002 102.169998 C 31.914677 101.900047 31.656185 101.722336 31.370003 101.729996 C 31.081112 101.721107 30.819084 101.898483 30.720003 102.169998 C 30.453205 103.063850 30.453205 104.016151 30.720003 104.909996 C 30.822445 105.177567 31.083683 105.350380 31.370003 105.339996 Z" fill="#232F3E"/><path d=" M 37.919998 105.709999 C 37.269691 106.394836 36.187340 106.422829 35.502502 105.772522 C 35.415672 105.690071 35.337746 105.598732 35.270000 105.500000 C 34.893475 104.903000 34.708538 104.205116 34.740002 103.500000 C 34.697823 102.757782 34.886456 102.020706 35.280003 101.389999 C 35.598339 100.895470 36.152103 100.603416 36.740002 100.620003 C 36.985683 100.628410 37.227154 100.686226 37.450001 100.790001 C 37.687305 100.897537 37.901314 101.050400 38.080002 101.239998 L 38.200001 100.760002 L 39.549999 100.760002 L 39.549999 106.000000 C 39.549999 107.860001 38.689999 108.790001 36.980000 108.790001 C 36.343319 108.794128 35.715214 108.643105 35.149998 108.349998 L 35.150002 107.349998 C 35.668957 107.548721 36.215294 107.666756 36.770000 107.699997 C 37.007202 107.714256 37.244251 107.669601 37.459999 107.570000 C 37.631474 107.476830 37.757786 107.318039 37.809998 107.129997 C 37.904846 106.805656 37.942078 106.467201 37.919998 106.129997 Z M 37.259998 105.110001 C 37.496284 105.100060 37.725006 105.023819 37.919998 104.889999 L 37.919998 102.000000 C 37.709332 101.838676 37.454937 101.744583 37.189999 101.730003 C 36.918083 101.726189 36.673450 101.894623 36.579998 102.150002 C 36.433243 102.566986 36.368721 103.008461 36.389999 103.450005 C 36.365818 103.886879 36.437492 104.323753 36.599998 104.730003 C 36.725819 104.975739 36.984314 105.124565 37.259998 105.110001 Z" fill="#232F3E"/><path d=" M 44.080002 106.349998 L 44.080002 102.650002 C 44.099316 102.407036 44.047176 102.163719 43.930000 101.950005 C 43.818672 101.793205 43.631149 101.709015 43.439999 101.730003 C 43.147968 101.739677 42.864250 101.829636 42.619999 101.990005 L 42.619999 106.349998 L 41.000000 106.349998 L 41.000000 100.720001 L 42.349998 100.720001 L 42.480000 101.230003 C 43.015240 100.835541 43.655750 100.609268 44.320000 100.580002 C 44.721653 100.552147 45.114540 100.706367 45.389999 101.000000 C 45.655579 101.349174 45.786884 101.782127 45.759998 102.220001 L 45.759998 106.349998 Z" fill="#232F3E"/><path d=" M 48.000000 99.809998 C 47.744759 99.822983 47.493183 99.745026 47.290001 99.589996 C 47.107697 99.448433 47.000732 99.230812 47.000000 99.000000 C 46.985619 98.767044 47.081985 98.540955 47.259998 98.389999 C 47.458115 98.224579 47.712517 98.142166 47.969997 98.159996 C 48.224098 98.144775 48.474442 98.227028 48.669998 98.389999 C 48.873051 98.527206 48.996265 98.754967 49.000000 99.000000 C 49.008816 99.234077 48.909195 99.459145 48.730000 99.610001 C 48.522270 99.769737 48.260139 99.841553 48.000000 99.809998 Z M 47.169998 106.349998 L 47.169998 100.720001 L 48.820000 100.720001 L 48.820000 106.349998 Z" fill="#232F3E"/><path d=" M 53.310001 106.199997 C 52.916233 106.345474 52.499783 106.419960 52.080002 106.419998 C 51.604889 106.461807 51.131989 106.318504 50.760002 106.019997 C 50.459148 105.656647 50.312038 105.190201 50.350002 104.719994 L 50.349998 101.820000 L 49.619999 101.820000 L 49.619999 100.900002 L 50.400002 100.750000 L 50.639999 99.209999 L 52.000000 99.209999 L 52.000000 100.720001 L 53.279999 100.720001 L 53.279999 101.820000 L 52.000000 101.820000 L 52.000000 104.589996 C 51.981529 104.776146 52.035221 104.962288 52.150002 105.109993 C 52.296589 105.234970 52.488747 105.292976 52.680000 105.269997 C 52.892239 105.265694 53.103424 105.238876 53.310001 105.189995 Z" fill="#232F3E"/><path d=" M 55.049999 99.809998 C 54.794758 99.822983 54.543182 99.745026 54.340000 99.589996 C 54.163273 99.438095 54.067192 99.212677 54.080002 98.979996 C 54.065620 98.747040 54.161987 98.520950 54.340000 98.369995 C 54.538116 98.204575 54.792519 98.122162 55.049999 98.139992 C 55.304100 98.124771 55.554443 98.207024 55.750000 98.369995 C 55.928883 98.528214 56.021721 98.762169 56.000000 98.999992 C 56.008816 99.234070 55.909195 99.459137 55.730000 99.609993 C 55.535355 99.757446 55.293484 99.828590 55.049999 99.809990 Z M 54.220001 106.349998 L 54.220001 100.720001 L 55.869999 100.720001 L 55.869999 106.349998 Z" fill="#232F3E"/><path d=" M 59.560001 106.489998 C 58.860714 106.530975 58.181679 106.246811 57.720001 105.720001 C 56.840847 104.395988 56.840847 102.674019 57.720001 101.349998 C 58.718826 100.333794 60.352333 100.319710 61.368538 101.318535 C 61.379116 101.328934 61.389606 101.339424 61.400002 101.349998 C 62.266018 102.677948 62.266018 104.392044 61.400002 105.720001 C 60.936539 106.244324 60.258770 106.527962 59.560001 106.489998 Z M 59.560001 105.339996 C 59.843586 105.349129 60.101273 105.175995 60.200001 104.909996 C 60.466797 104.016144 60.466797 103.063843 60.200001 102.169998 C 60.104675 101.900047 59.846184 101.722336 59.560001 101.729996 C 59.271111 101.721107 59.009083 101.898483 58.910000 102.169998 C 58.654865 103.065514 58.654865 104.014481 58.910000 104.909996 C 59.012440 105.177567 59.273682 105.350380 59.560001 105.339996 Z" fill="#232F3E"/><path d=" M 66.320000 106.349998 L 66.320000 102.650002 C 66.339317 102.407036 66.287178 102.163719 66.169998 101.950005 C 66.058670 101.793205 65.871147 101.709015 65.680000 101.730003 C 65.387970 101.739677 65.104248 101.829636 64.860001 101.990005 L 64.860001 106.349998 L 63.209999 106.349998 L 63.209999 100.720001 L 64.559998 100.720001 L 64.690002 101.230003 C 65.225243 100.835541 65.865753 100.609268 66.529999 100.580002 C 66.931427 100.553581 67.323730 100.707565 67.599998 101.000000 C 67.865578 101.349174 67.996887 101.782127 67.970001 102.220001 L 67.970001 106.349998 Z" fill="#232F3E"/></g><g id="ICONS_-_EDIT"><path d=" M 42.000000 61.000000 C 38.443066 61.009048 34.933174 60.187218 31.750000 58.599998 L 32.639999 56.799999 C 35.544720 58.256058 38.750786 59.009621 42.000000 59.000000 C 53.597980 59.000000 63.000000 49.597980 63.000000 38.000000 C 63.000000 26.402020 53.597980 17.000000 42.000000 17.000000 C 39.122719 16.992966 36.275539 17.585560 33.639999 18.740000 L 32.849998 16.900000 C 35.735744 15.640583 38.851410 14.993614 42.000000 15.000000 C 54.702549 15.000000 65.000000 25.297451 65.000000 38.000000 C 65.000000 50.702549 54.702549 61.000000 42.000000 61.000000 Z" fill="#FFFFFF"/><path d=" M 21.410000 48.240002 C 18.022316 41.429718 18.220720 33.385006 21.940001 26.750002 L 23.690001 27.750000 C 21.929329 30.879513 21.003000 34.409206 21.000000 38.000000 C 20.984486 41.243492 21.738451 44.444424 23.200001 47.340000 Z" fill="#FFFFFF"/><path d=" M 42.000000 55.000000 C 32.611160 55.000000 25.000000 47.388840 25.000000 38.000000 C 25.000000 28.611158 32.611160 21.000000 42.000000 21.000000 C 51.388840 21.000000 59.000000 28.611158 59.000000 38.000000 C 59.000000 47.388840 51.388840 55.000000 42.000000 55.000000 Z M 42.000000 23.000000 C 33.715729 23.000000 27.000000 29.715729 27.000000 38.000000 C 27.000000 46.284271 33.715729 53.000000 42.000000 53.000000 C 50.284271 53.000000 57.000000 46.284271 57.000000 38.000000 C 57.000000 29.715729 50.284271 23.000000 42.000000 23.000000 Z" fill="#FFFFFF"/><path d=" M 20.000000 65.000000 C 17.238577 64.999413 15.000476 62.760361 15.001062 59.998940 C 15.001345 58.671036 15.529843 57.397785 16.469999 56.460003 L 27.510000 45.410000 L 28.920000 46.830002 L 17.920000 57.880001 C 16.749157 59.053608 16.751394 60.954159 17.924999 62.125000 C 19.098604 63.295845 20.999155 63.293606 22.170000 62.119999 L 33.220001 51.119999 L 34.630001 52.540001 L 23.629999 63.540001 C 22.668550 64.499542 21.358086 65.026619 20.000000 65.000000 Z" fill="#FFFFFF"/><path d=" M 50.990002 47.000000 L 45.990002 47.000000 L 45.990002 45.000000 L 48.990002 45.000000 L 48.990002 42.000000 L 50.990002 42.000000 L 50.990002 47.000000 Z" fill="#FFFFFF"/><path d=" M 50.990002 34.000000 L 48.990002 34.000000 L 48.990002 31.000000 L 45.990002 31.000000 L 45.990002 29.000000 L 50.990002 29.000000 L 50.990002 34.000000 Z" fill="#FFFFFF"/><path d=" M 34.990002 34.000000 L 32.990002 34.000000 L 32.990002 29.000000 L 37.990002 29.000000 L 37.990002 31.000000 L 34.990002 31.000000 L 34.990002 34.000000 Z" fill="#FFFFFF"/><path d=" M 37.990002 47.000000 L 32.990002 47.000000 L 32.990002 42.000000 L 34.990002 42.000000 L 34.990002 45.000000 L 37.990002 45.000000 L 37.990002 47.000000 Z" fill="#FFFFFF"/><path d=" M 36.990002 43.000000 L 40.220001 43.000000 L 36.990002 39.779999 L 36.990002 43.000000 Z" fill="#FFFFFF"/><path d=" M 36.990002 33.000000 L 36.990002 36.220001 L 40.220001 33.000000 L 36.990002 33.000000 Z" fill="#FFFFFF"/><path d=" M 46.990002 33.000000 L 43.770000 33.000000 L 46.990002 36.220001 L 46.990002 33.000000 Z" fill="#FFFFFF"/><path d=" M 46.990002 43.000000 L 46.990002 39.779999 L 43.770000 43.000000 L 46.990002 43.000000 Z" fill="#FFFFFF"/></g></svg>