<svg version="1.1" width="80.000000" height="130.000000" viewBox="0.000000 0.000000 80.000000 130.000000" xmlns="http://www.w3.org/2000/svg" xmlns:xlink="http://www.w3.org/1999/xlink" overflow="hidden"><g id="CARDS"><rect x="1.000000" y="1.000000" width="78.000000" height="78.000000" fill="#232F3E"/><path d=" M 0.000000 0.000000 L 0.000000 80.000000 L 0.000000 80.000000 L 0.000000 130.000000 L 80.000000 130.000000 L 80.000000 80.000000 L 80.000000 80.000000 L 80.000000 0.000000 Z M 1.000000 1.000000 L 79.000000 1.000000 L 79.000000 79.000000 L 1.000000 79.000000 Z" fill="#FFFFFF"/><path d=" M 25.350000 92.349998 L 24.920000 90.529999 L 22.920000 90.529999 L 22.500000 92.349998 L 20.719999 92.349998 L 23.000000 84.720001 L 24.900000 84.720001 L 27.209999 92.349998 Z M 23.170000 89.430000 L 24.660000 89.430000 L 23.900000 86.269997 Z" fill="#232F3E"/><path d=" M 34.060001 92.349998 L 34.060001 88.639999 C 34.076664 88.401566 34.028278 88.163086 33.920002 87.949997 C 33.818390 87.798111 33.642017 87.713760 33.460003 87.729996 C 33.174561 87.741776 32.897831 87.831711 32.660004 87.989998 C 32.664921 88.029846 32.664921 88.070152 32.660004 88.110001 L 32.660000 92.349998 L 31.000000 92.349998 L 31.000000 88.639999 C 31.019257 88.402504 30.974358 88.164200 30.870001 87.949997 C 30.765142 87.796478 30.585056 87.712181 30.400002 87.729996 C 30.121338 87.744865 29.851856 87.834694 29.620001 87.989998 L 29.620001 92.349998 L 28.000000 92.349998 L 28.000000 86.720001 L 29.350000 86.720001 L 29.480000 87.230003 C 30.005127 86.837898 30.635393 86.611557 31.289999 86.580002 C 31.787903 86.543671 32.259682 86.807076 32.489998 87.250000 C 33.020988 86.851845 33.657448 86.618820 34.320000 86.580002 C 34.698605 86.567619 35.063778 86.720993 35.320000 87.000000 C 35.580429 87.351334 35.707973 87.783562 35.680000 88.220001 L 35.680000 92.349998 Z" fill="#232F3E"/><path d=" M 40.000000 92.349998 L 39.860001 91.839996 C 39.704742 92.042564 39.502155 92.203949 39.270000 92.309998 C 39.023094 92.427322 38.753361 92.488777 38.480000 92.489998 C 38.038441 92.498497 37.613724 92.320625 37.310001 92.000000 C 37.006588 91.668808 36.851307 91.228241 36.880001 90.779999 C 36.856857 90.286880 37.050484 89.808296 37.410000 89.470001 C 37.807274 89.133095 38.320316 88.964470 38.840000 89.000000 C 39.154030 89.006668 39.466179 89.050301 39.770000 89.129997 L 39.770000 88.620003 C 39.797573 88.349762 39.741737 88.077560 39.610001 87.840004 C 39.445477 87.687714 39.222755 87.614693 39.000000 87.640007 C 38.395546 87.665237 37.798565 87.783279 37.230000 87.990005 L 37.230000 87.000000 C 37.513470 86.841469 37.820801 86.730019 38.139999 86.669998 C 38.521481 86.590019 38.910225 86.549805 39.299999 86.549995 C 39.843796 86.502090 40.385880 86.659012 40.820000 86.989998 C 41.164772 87.366852 41.335323 87.871239 41.290001 88.379997 L 41.290001 92.320000 Z M 39.000000 91.430000 C 39.298344 91.418404 39.580971 91.293190 39.790001 91.080002 L 39.790001 90.000000 C 39.584171 89.948074 39.372208 89.924522 39.160000 89.930000 C 38.962250 89.913605 38.767620 89.987053 38.630001 90.129997 C 38.490948 90.293694 38.422604 90.505920 38.440002 90.719994 C 38.429714 90.905304 38.482594 91.088631 38.590004 91.239990 C 38.687565 91.366325 38.840549 91.437218 39.000004 91.429993 Z" fill="#232F3E"/><path d=" M 42.279999 92.349998 L 42.279999 91.279999 L 44.770000 87.879997 L 42.369999 87.879997 L 42.369999 86.720001 L 46.509998 86.720001 L 46.509998 87.790001 L 44.000000 91.190002 L 46.540001 91.190002 L 46.540001 92.349998 Z" fill="#232F3E"/><path d=" M 49.790001 92.489998 C 49.108448 92.512650 48.452259 92.230377 48.000000 91.720001 C 47.133984 90.392052 47.133984 88.677956 48.000000 87.349998 C 49.011749 86.331032 50.657967 86.325180 51.676933 87.336929 C 51.681305 87.341270 51.685661 87.345627 51.690002 87.349998 C 52.556019 88.677948 52.556019 90.392044 51.690002 91.720001 C 51.211487 92.259041 50.508781 92.543823 49.790001 92.489998 Z M 49.790001 91.339996 C 50.076321 91.350388 50.337559 91.177567 50.440002 90.909996 C 50.706799 90.016144 50.706799 89.063843 50.440002 88.169998 C 50.304638 87.813774 49.906124 87.634735 49.549900 87.770103 C 49.365585 87.840141 49.220043 87.985687 49.150002 88.169998 C 48.883205 89.063850 48.883205 90.016151 49.150002 90.909996 C 49.248730 91.175995 49.506416 91.349129 49.790001 91.339996 Z" fill="#232F3E"/><path d=" M 56.549999 92.349998 L 56.549999 88.650002 C 56.566494 88.408363 56.518166 88.166710 56.410000 87.950005 C 56.294102 87.793236 56.103878 87.709541 55.910000 87.730003 C 55.618229 87.741188 55.334908 87.831024 55.090000 87.990005 L 55.090000 92.349998 L 53.439999 92.349998 L 53.439999 86.720001 L 54.790001 86.720001 L 54.930000 87.230003 C 55.464371 86.833908 56.105400 86.607452 56.770000 86.580002 C 57.171432 86.553581 57.563728 86.707565 57.840000 87.000000 C 58.102020 87.350540 58.229740 87.783371 58.200001 88.220001 L 58.200001 92.349998 Z" fill="#232F3E"/><path d=" M 15.460000 106.349998 L 14.000000 103.519997 L 13.350000 103.519997 L 13.350000 106.349998 L 11.710000 106.349998 L 11.710000 98.720001 L 14.340000 98.720001 C 14.993439 98.689598 15.631538 98.923927 16.110001 99.370003 C 16.566875 99.834206 16.806551 100.469711 16.770000 101.120003 C 16.782398 101.585030 16.668344 102.044708 16.440001 102.450005 C 16.227995 102.822403 15.901984 103.116867 15.510000 103.290001 L 17.200001 106.349998 Z M 13.360000 102.349998 L 14.140000 102.349998 C 14.415594 102.366768 14.682788 102.251724 14.860001 102.040001 C 15.037231 101.759865 15.121243 101.430817 15.100000 101.099998 C 15.122620 100.772209 15.038415 100.445908 14.860001 100.169998 C 14.686915 99.951820 14.417932 99.832275 14.140000 99.849998 L 13.360000 99.849998 Z" fill="#232F3E"/><path d=" M 19.240000 103.919998 C 19.228947 104.311180 19.356449 104.693687 19.600000 105.000000 C 19.894474 105.248260 20.276644 105.367241 20.660000 105.330002 C 20.889200 105.323997 21.117128 105.293831 21.340000 105.240005 C 21.611252 105.188805 21.878574 105.118637 22.139999 105.030006 L 22.139999 106.029999 C 21.880980 106.175522 21.601000 106.280098 21.309999 106.339996 C 20.981476 106.411812 20.646278 106.448685 20.309999 106.449997 C 18.590000 106.449997 17.730000 105.449997 17.730000 103.500000 C 17.676962 102.715630 17.899818 101.937401 18.359999 101.300003 C 18.818687 100.775963 19.495022 100.495087 20.189999 100.540001 C 21.549999 100.540001 22.240000 101.300003 22.240000 102.830002 C 22.239126 103.166870 22.198853 103.502487 22.119999 103.830002 Z M 20.150000 101.599998 C 19.570000 101.599998 19.270000 102.059998 19.240000 102.970001 L 20.850000 102.970001 L 20.850000 102.720001 C 20.870443 102.423340 20.811779 102.126572 20.680000 101.860001 C 20.562510 101.684830 20.360441 101.585701 20.150000 101.599998 Z" fill="#232F3E"/><path d=" M 23.379999 106.349998 L 23.379999 98.209999 L 25.000000 98.209999 L 25.000000 103.209999 L 26.629999 100.769997 L 28.469999 100.769997 L 26.469999 103.459999 L 28.639999 106.400002 L 26.740000 106.400002 L 25.000000 103.750000 L 25.000000 106.349998 Z" fill="#232F3E"/><path d=" M 31.370001 106.489998 C 30.668314 106.528084 29.987448 106.244698 29.520000 105.720001 C 28.653986 104.392052 28.653986 102.677956 29.520000 101.349998 C 30.531748 100.331032 32.177967 100.325180 33.196934 101.336929 C 33.201305 101.341270 33.205662 101.345627 33.210003 101.349998 C 34.076019 102.677948 34.076019 104.392044 33.210003 105.720001 C 32.746540 106.244324 32.068771 106.527962 31.370003 106.489998 Z M 31.370001 105.339996 C 31.653584 105.349129 31.911272 105.175995 32.010002 104.909996 C 32.276798 104.016144 32.276798 103.063843 32.010002 102.169998 C 31.914677 101.900047 31.656185 101.722336 31.370003 101.729996 C 31.081112 101.721107 30.819084 101.898483 30.720003 102.169998 C 30.453205 103.063850 30.453205 104.016151 30.720003 104.909996 C 30.822445 105.177567 31.083683 105.350380 31.370003 105.339996 Z" fill="#232F3E"/><path d=" M 37.919998 105.709999 C 37.605709 106.050018 37.163017 106.242340 36.699997 106.239998 C 36.124958 106.256142 35.581646 105.976936 35.259998 105.500000 C 34.891605 104.899887 34.710556 104.203545 34.739998 103.500000 C 34.697819 102.757782 34.886452 102.020706 35.279999 101.389999 C 35.598335 100.895470 36.152100 100.603416 36.739998 100.620003 C 36.985680 100.628410 37.227150 100.686226 37.449997 100.790001 C 37.687302 100.897537 37.901310 101.050400 38.079998 101.239998 L 38.200001 100.760002 L 39.549999 100.760002 L 39.549999 106.000000 C 39.549999 107.860001 38.689999 108.790001 36.980000 108.790001 C 36.343319 108.794128 35.715214 108.643105 35.149998 108.349998 L 35.150002 107.349998 C 35.665829 107.547577 36.208698 107.665596 36.760002 107.699997 C 37.000515 107.715515 37.241100 107.670830 37.460003 107.570000 C 37.631477 107.476830 37.757790 107.318039 37.810001 107.129997 C 37.899330 106.804581 37.936459 106.467049 37.920002 106.129997 Z M 37.259998 105.110001 C 37.496284 105.100060 37.725006 105.023819 37.919998 104.889999 L 37.919998 102.000000 C 37.709332 101.838676 37.454937 101.744583 37.189999 101.730003 C 36.918083 101.726189 36.673450 101.894623 36.579998 102.150002 C 36.433243 102.566986 36.368721 103.008461 36.389999 103.450005 C 36.365818 103.886879 36.437492 104.323753 36.599998 104.730003 C 36.725819 104.975739 36.984314 105.124565 37.259998 105.110001 Z" fill="#232F3E"/><path d=" M 44.080002 106.349998 L 44.080002 102.650002 C 44.099316 102.407036 44.047176 102.163719 43.930000 101.950005 C 43.818672 101.793205 43.631149 101.709015 43.439999 101.730003 C 43.147968 101.739677 42.864250 101.829636 42.619999 101.990005 L 42.619999 106.349998 L 41.000000 106.349998 L 41.000000 100.720001 L 42.349998 100.720001 L 42.480000 101.230003 C 43.015240 100.835541 43.655750 100.609268 44.320000 100.580002 C 44.721653 100.552147 45.114540 100.706367 45.389999 101.000000 C 45.655579 101.349174 45.786884 101.782127 45.759998 102.220001 L 45.759998 106.349998 Z" fill="#232F3E"/><path d=" M 48.000000 99.809998 C 47.744759 99.822983 47.493183 99.745026 47.290001 99.589996 C 47.107697 99.448433 47.000732 99.230812 47.000000 99.000000 C 46.985619 98.767044 47.081985 98.540955 47.259998 98.389999 C 47.458115 98.224579 47.712517 98.142166 47.969997 98.159996 C 48.224098 98.144775 48.474442 98.227028 48.669998 98.389999 C 48.873051 98.527206 48.996265 98.754967 49.000000 99.000000 C 49.008816 99.234077 48.909195 99.459145 48.730000 99.610001 C 48.522270 99.769737 48.260139 99.841553 48.000000 99.809998 Z M 47.169998 106.349998 L 47.169998 100.720001 L 48.820000 100.720001 L 48.820000 106.349998 Z" fill="#232F3E"/><path d=" M 53.310001 106.199997 C 52.916233 106.345474 52.499783 106.419960 52.080002 106.419998 C 51.604671 106.463928 51.130993 106.320389 50.760002 106.019997 C 50.459148 105.656647 50.312038 105.190201 50.350002 104.719994 L 50.349998 101.820000 L 49.619999 101.820000 L 49.619999 100.900002 L 50.400002 100.750000 L 50.639999 99.209999 L 52.000000 99.209999 L 52.000000 100.720001 L 53.279999 100.720001 L 53.279999 101.820000 L 52.000000 101.820000 L 52.000000 104.589996 C 51.981529 104.776146 52.035221 104.962288 52.150002 105.109993 C 52.296589 105.234970 52.488747 105.292976 52.680000 105.269997 C 52.892239 105.265694 53.103424 105.238876 53.310001 105.189995 Z" fill="#232F3E"/><path d=" M 55.049999 99.809998 C 54.794537 99.824768 54.542355 99.746628 54.340000 99.589996 C 54.163273 99.438095 54.067192 99.212677 54.080002 98.979996 C 54.065620 98.747040 54.161987 98.520950 54.340000 98.369995 C 54.760441 98.064751 55.329559 98.064751 55.750000 98.369995 C 55.928883 98.528214 56.021721 98.762169 56.000000 98.999992 C 56.008816 99.234070 55.909195 99.459137 55.730000 99.609993 C 55.535355 99.757446 55.293484 99.828590 55.049999 99.809990 Z M 54.220001 106.349998 L 54.220001 100.720001 L 55.869999 100.720001 L 55.869999 106.349998 Z" fill="#232F3E"/><path d=" M 59.560001 106.489998 C 58.858315 106.528084 58.177448 106.244698 57.710003 105.720001 C 56.843987 104.392052 56.843987 102.677956 57.710003 101.349998 C 58.721752 100.331032 60.367970 100.325180 61.386936 101.336929 C 61.391308 101.341270 61.395664 101.345627 61.400005 101.349998 C 62.266022 102.677948 62.266022 104.392044 61.400005 105.720001 C 60.936543 106.244324 60.258774 106.527962 59.560005 106.489998 Z M 59.560001 105.339996 C 59.843586 105.349129 60.101273 105.175995 60.200001 104.909996 C 60.466797 104.016144 60.466797 103.063843 60.200001 102.169998 C 60.104675 101.900047 59.846184 101.722336 59.560001 101.729996 C 59.271111 101.721107 59.009083 101.898483 58.910000 102.169998 C 58.643204 103.063850 58.643204 104.016151 58.910000 104.909996 C 59.012440 105.177567 59.273682 105.350380 59.560001 105.339996 Z" fill="#232F3E"/><path d=" M 66.320000 106.349998 L 66.320000 102.650002 C 66.339317 102.407036 66.287178 102.163719 66.169998 101.950005 C 66.058670 101.793205 65.871147 101.709015 65.680000 101.730003 C 65.387970 101.739677 65.104248 101.829636 64.860001 101.990005 L 64.860001 106.349998 L 63.209999 106.349998 L 63.209999 100.720001 L 64.559998 100.720001 L 64.690002 101.230003 C 65.225243 100.835541 65.865753 100.609268 66.529999 100.580002 C 66.931427 100.553581 67.323730 100.707565 67.599998 101.000000 C 67.865578 101.349174 67.996887 101.782127 67.970001 102.220001 L 67.970001 106.349998 Z" fill="#232F3E"/><path d=" M 28.620001 120.349998 L 26.280001 112.720001 L 28.110001 112.720001 L 29.540001 118.790001 L 31.000000 112.720001 L 32.799999 112.720001 L 30.469999 120.349998 Z" fill="#232F3E"/><path d=" M 34.400002 113.809998 C 34.144760 113.822983 33.893185 113.745026 33.690002 113.589996 C 33.518066 113.434639 33.423008 113.211624 33.430004 112.979996 C 33.420197 112.747849 33.515739 112.523689 33.690002 112.369995 C 33.888119 112.204575 34.142521 112.122162 34.400002 112.139992 C 34.654102 112.124771 34.904446 112.207024 35.100002 112.369995 C 35.280453 112.519913 35.380360 112.745628 35.370003 112.979996 C 35.378819 113.214073 35.279198 113.439140 35.100002 113.589996 C 34.902973 113.749374 34.652782 113.828011 34.400002 113.809998 Z M 33.570000 120.349998 L 33.570000 114.720001 L 35.220001 114.720001 L 35.220001 120.349998 Z" fill="#232F3E"/><path d=" M 39.930000 120.349998 L 39.799999 119.860001 C 39.619530 120.042419 39.405640 120.188408 39.169998 120.290001 C 38.942375 120.387421 38.697590 120.438423 38.449997 120.440002 C 37.851471 120.464928 37.281788 120.181969 36.939999 119.690002 C 36.545479 119.052330 36.356934 118.308617 36.399998 117.560005 C 36.355648 116.789658 36.551300 116.024506 36.959999 115.370003 C 37.297569 114.858131 37.877205 114.558846 38.489998 114.580002 C 38.705467 114.590401 38.918011 114.634262 39.119999 114.709999 C 39.338535 114.789223 39.544106 114.900436 39.730000 115.040001 L 39.730000 112.209999 L 41.380001 112.209999 L 41.380001 120.349998 Z M 39.009998 119.349998 C 39.266090 119.346977 39.515953 119.270630 39.730000 119.129997 L 39.730000 116.000000 C 39.493343 115.839310 39.215912 115.749138 38.930000 115.739998 C 38.636486 115.731621 38.368946 115.907326 38.260002 116.180000 C 38.093647 116.623573 38.022110 117.097084 38.050003 117.570000 C 38.021812 118.034950 38.100491 118.500175 38.280003 118.930000 C 38.425259 119.187416 38.705044 119.338966 39.000004 119.320000 Z" fill="#232F3E"/><path d=" M 44.000000 117.919998 C 43.979252 118.324760 44.107300 118.723129 44.360001 119.040001 C 44.655567 119.286263 45.036880 119.404976 45.420002 119.370003 C 45.649204 119.363998 45.877132 119.333832 46.100002 119.280006 C 46.371529 119.230042 46.638943 119.159843 46.900002 119.070007 L 46.900002 120.070000 C 46.641762 120.217194 46.361507 120.321869 46.070000 120.379997 C 45.741474 120.451813 45.406277 120.488686 45.070000 120.489998 C 43.349998 120.489998 42.490002 119.489998 42.490002 117.540001 C 42.435516 116.753960 42.662365 115.974152 43.130001 115.340004 C 43.584652 114.816292 44.257927 114.535149 44.950001 114.580002 C 46.320000 114.580002 47.000000 115.339996 47.000000 116.870003 C 46.999126 117.206871 46.958855 117.542488 46.880001 117.870003 Z M 44.910000 115.599998 C 44.330002 115.599998 44.029999 116.059998 44.000000 116.970001 L 45.610001 116.970001 L 45.610001 116.720001 C 45.635040 116.423065 45.576134 116.125076 45.440002 115.860001 C 45.326252 115.691147 45.133476 115.592865 44.930004 115.599998 Z" fill="#232F3E"/><path d=" M 50.389999 120.489998 C 49.691231 120.527954 49.013462 120.244324 48.549999 119.720001 C 47.683983 118.392052 47.683983 116.677956 48.549999 115.349998 C 49.548824 114.333794 51.182331 114.319710 52.198536 115.318535 C 52.209114 115.328934 52.219604 115.339424 52.230000 115.349998 C 53.096016 116.677948 53.096016 118.392044 52.230000 119.720001 C 51.768322 120.246819 51.089287 120.530983 50.389999 120.489998 Z M 50.389999 119.339996 C 50.676319 119.350388 50.937557 119.177567 51.040001 118.909996 C 51.295135 118.014481 51.295135 117.065514 51.040001 116.169998 C 50.940918 115.898483 50.678894 115.721115 50.389999 115.729996 C 50.102863 115.719078 49.842625 115.897987 49.750000 116.169998 C 49.483204 117.063850 49.483204 118.016151 49.750000 118.909996 C 49.846111 119.178047 50.105507 119.352325 50.389999 119.339996 Z" fill="#232F3E"/></g><g id="ICONS_-_EDIT"><path d=" M 42.000000 61.000000 C 38.443066 61.009048 34.933174 60.187218 31.750000 58.599998 L 32.639999 56.799999 C 35.544720 58.256058 38.750786 59.009621 42.000000 59.000000 C 53.597980 59.000000 63.000000 49.597980 63.000000 38.000000 C 63.000000 26.402020 53.597980 17.000000 42.000000 17.000000 C 39.122601 16.991791 36.275181 17.584436 33.639999 18.740000 L 32.840000 16.900000 C 44.493210 11.844559 58.038246 17.193106 63.093685 28.846315 C 68.149124 40.499523 62.800579 54.044559 51.147369 59.100002 C 48.260342 60.352467 45.146996 60.999138 41.999996 61.000000 Z" fill="#FFFFFF"/><path d=" M 21.410000 48.240002 C 18.022316 41.429718 18.220720 33.385006 21.940001 26.750002 L 23.690001 27.750000 C 21.929329 30.879513 21.003000 34.409206 21.000000 38.000000 C 20.984486 41.243492 21.738451 44.444424 23.200001 47.340000 Z" fill="#FFFFFF"/><path d=" M 42.000000 55.000000 C 32.611160 55.000000 25.000000 47.388840 25.000000 38.000000 C 25.000000 28.611158 32.611160 21.000000 42.000000 21.000000 C 51.388840 21.000000 59.000000 28.611158 59.000000 38.000000 C 59.000000 47.388840 51.388840 55.000000 42.000000 55.000000 Z M 42.000000 23.000000 C 33.715729 23.000000 27.000000 29.715729 27.000000 38.000000 C 27.000000 46.284271 33.715729 53.000000 42.000000 53.000000 C 50.284271 53.000000 57.000000 46.284271 57.000000 38.000000 C 57.000000 29.715729 50.284271 23.000000 42.000000 23.000000 Z" fill="#FFFFFF"/><path d=" M 20.000000 65.000000 C 17.238577 64.999413 15.000476 62.760361 15.001062 59.998940 C 15.001345 58.671036 15.529843 57.397785 16.469999 56.460003 L 27.510000 45.410000 L 28.920000 46.830002 L 17.920000 57.880001 C 16.749157 59.053608 16.751394 60.954159 17.924999 62.125000 C 19.098604 63.295845 20.999155 63.293606 22.170000 62.119999 L 33.220001 51.119999 L 34.630001 52.540001 L 23.629999 63.540001 C 22.668550 64.499542 21.358086 65.026619 20.000000 65.000000 Z" fill="#FFFFFF"/><path d=" M 50.000000 47.000000 L 34.000000 47.000000 C 33.447716 47.000000 33.000000 46.552284 33.000000 46.000000 L 33.000000 30.000000 C 33.000000 29.447716 33.447716 29.000000 34.000000 29.000000 L 50.000000 29.000000 C 50.552284 29.000000 51.000000 29.447716 51.000000 30.000000 L 51.000000 46.000000 C 51.000000 46.552284 50.552284 47.000000 50.000000 47.000000 Z M 35.000000 45.000000 L 49.000000 45.000000 L 49.000000 31.000000 L 35.000000 31.000000 Z" fill="#FFFFFF"/><path d=" M 39.000000 43.000000 C 38.447716 43.000000 38.000000 42.552284 38.000000 42.000000 L 38.000000 34.000000 C 37.998577 33.641315 38.189365 33.309341 38.500000 33.130001 C 38.809402 32.951366 39.190598 32.951366 39.500000 33.130001 L 46.500000 37.130001 C 46.980488 37.402306 47.149254 38.012566 46.876949 38.493053 C 46.787724 38.650497 46.657444 38.780773 46.500000 38.870003 L 39.500000 42.869999 C 39.347595 42.956379 39.175175 43.001209 39.000000 43.000000 Z M 40.000000 35.720001 L 40.000000 40.279999 L 44.000000 38.000000 Z" fill="#FFFFFF"/></g></svg>