<svg version="1.1" width="80.000000" height="115.000000" viewBox="0.000000 0.000000 80.000000 115.000000" xmlns="http://www.w3.org/2000/svg" xmlns:xlink="http://www.w3.org/1999/xlink" overflow="hidden"><g id="CARDS"><rect x="1.000000" y="1.000000" width="78.000000" height="78.000000" fill="#232F3E"/><path d=" M 0.000000 0.000000 L 0.000000 80.000000 L 0.000000 80.000000 L 0.000000 115.000000 L 80.000000 115.000000 L 80.000000 80.000000 L 80.000000 80.000000 L 80.000000 0.000000 Z M 1.000000 1.000000 L 79.000000 1.000000 L 79.000000 79.000000 L 1.000000 79.000000 Z" fill="#FFFFFF"/></g><g id="TEXT_-_EDIT"><path d=" M 25.350000 92.339996 L 24.920000 90.529999 L 22.920000 90.529999 L 22.500000 92.339996 L 20.719999 92.339996 L 23.000000 84.720001 L 24.900000 84.720001 L 27.209999 92.339996 Z M 23.170000 89.430000 L 24.660000 89.430000 L 23.900000 86.269997 Z" fill="#232F3E"/><path d=" M 34.060001 92.339996 L 34.060001 88.639999 C 34.075069 88.398460 34.026810 88.157166 33.920002 87.940002 C 33.816963 87.789780 33.641621 87.705917 33.460003 87.720001 C 33.174065 87.737228 32.897900 87.830437 32.660004 87.989998 C 32.664822 88.029854 32.664822 88.070145 32.660004 88.110001 L 32.660000 92.339996 L 31.000000 92.339996 L 31.000000 88.639999 C 31.017714 88.399361 30.972931 88.158234 30.870001 87.940002 C 30.761147 87.791260 30.583946 87.708321 30.400002 87.720001 C 30.120670 87.739296 29.851484 87.832481 29.620001 87.989998 L 29.620001 92.339996 L 28.000000 92.339996 L 28.000000 86.720001 L 29.350000 86.720001 L 29.480000 87.230003 C 30.005705 86.838974 30.635632 86.612755 31.289999 86.580002 C 31.789103 86.538185 32.263718 86.803177 32.489998 87.250000 C 33.018944 86.848083 33.656586 86.614632 34.320000 86.580002 C 34.698605 86.567619 35.063778 86.720993 35.320000 87.000000 C 35.580429 87.351334 35.707973 87.783562 35.680000 88.220001 L 35.680000 92.339996 Z" fill="#232F3E"/><path d=" M 40.000000 92.339996 L 39.860001 91.839996 C 39.704742 92.042564 39.502155 92.203949 39.270000 92.309998 C 39.023094 92.427322 38.753361 92.488777 38.480000 92.489998 C 38.038441 92.498497 37.613724 92.320625 37.310001 92.000000 C 37.006588 91.668808 36.851307 91.228241 36.880001 90.779999 C 36.856857 90.286880 37.050484 89.808296 37.410000 89.470001 C 37.807274 89.133095 38.320316 88.964470 38.840000 89.000000 C 39.154335 89.010925 39.466377 89.057899 39.770000 89.139999 L 39.770000 88.629997 C 39.797573 88.359756 39.741737 88.087555 39.610001 87.849998 C 39.445477 87.697708 39.222755 87.624687 39.000000 87.650002 C 38.395546 87.675232 37.798565 87.793274 37.230000 88.000000 L 37.230000 87.000000 C 37.516563 86.840446 37.827354 86.728966 38.149998 86.669998 C 38.528015 86.589485 38.913502 86.549255 39.299999 86.549995 C 39.843796 86.502090 40.385880 86.659012 40.820000 86.989998 C 41.165867 87.366203 41.336586 87.871094 41.290001 88.379997 L 41.290001 92.309998 Z M 39.000000 91.430000 C 39.297215 91.413612 39.578182 91.289139 39.790001 91.080002 L 39.790001 90.000000 C 39.587475 89.948616 39.378887 89.925064 39.170002 89.930000 C 38.969070 89.911972 38.770714 89.985435 38.630001 90.129997 C 38.490948 90.293694 38.422604 90.505920 38.440002 90.719994 C 38.429714 90.905304 38.482594 91.088631 38.590004 91.239990 C 38.687565 91.366325 38.840549 91.437218 39.000004 91.429993 Z" fill="#232F3E"/><path d=" M 42.279999 92.339996 L 42.279999 91.279999 L 44.770000 87.879997 L 42.369999 87.879997 L 42.369999 86.720001 L 46.509998 86.720001 L 46.509998 87.790001 L 44.000000 91.190002 L 46.540001 91.190002 L 46.540001 92.339996 Z" fill="#232F3E"/><path d=" M 49.790001 92.489998 C 49.108715 92.511253 48.453094 92.229225 48.000000 91.720001 C 47.133984 90.392052 47.133984 88.677956 48.000000 87.349998 C 49.011749 86.331032 50.657967 86.325180 51.676933 87.336929 C 51.681305 87.341270 51.685661 87.345627 51.690002 87.349998 C 52.556019 88.677948 52.556019 90.392044 51.690002 91.720001 C 51.211487 92.259041 50.508781 92.543823 49.790001 92.489998 Z M 49.790001 91.339996 C 50.076321 91.350388 50.337559 91.177567 50.440002 90.909996 C 50.706799 90.016144 50.706799 89.063843 50.440002 88.169998 C 50.304638 87.813774 49.906124 87.634735 49.549900 87.770103 C 49.365585 87.840141 49.220043 87.985687 49.150002 88.169998 C 48.883205 89.063850 48.883205 90.016151 49.150002 90.909996 C 49.248730 91.175995 49.506416 91.349129 49.790001 91.339996 Z" fill="#232F3E"/><path d=" M 56.549999 92.339996 L 56.549999 88.650002 C 56.564980 88.405243 56.516769 88.160751 56.410000 87.940002 C 56.291615 87.786385 56.103241 87.703499 55.910000 87.720001 C 55.620338 87.733963 55.340107 87.827370 55.099998 87.989998 L 55.099998 92.339996 L 53.439999 92.339996 L 53.439999 86.720001 L 54.790001 86.720001 L 54.930000 87.230003 C 55.464371 86.833908 56.105400 86.607452 56.770000 86.580002 C 57.171432 86.553581 57.563728 86.707565 57.840000 87.000000 C 58.103649 87.349716 58.231556 87.783173 58.200001 88.220001 L 58.200001 92.339996 Z" fill="#232F3E"/><path d=" M 15.680000 103.000000 C 15.184530 102.765594 14.747330 102.424026 14.400001 102.000000 C 14.141234 101.643089 14.007645 101.210678 14.020000 100.769997 C 14.008890 100.354126 14.127740 99.945145 14.360001 99.599998 C 14.585702 99.259720 14.905289 98.992241 15.280001 98.830002 C 15.701815 98.643929 16.159042 98.551804 16.620001 98.560005 C 17.269766 98.562088 17.912485 98.694710 18.510000 98.950005 L 18.510000 100.120003 C 17.958254 99.917831 17.377394 99.806381 16.790001 99.790001 C 16.510502 99.768700 16.232029 99.842720 16.000000 100.000000 C 15.803201 100.152054 15.694576 100.391777 15.710000 100.639999 C 15.702313 100.842018 15.766043 101.040291 15.890000 101.199997 C 16.097773 101.403732 16.342022 101.566566 16.610001 101.680000 L 17.260000 102.000000 C 17.617840 102.164238 17.953772 102.372520 18.260000 102.620003 C 18.495207 102.803383 18.683678 103.039825 18.809999 103.310005 C 18.928574 103.598442 18.986443 103.908218 18.980000 104.220009 C 19.005499 104.858429 18.731874 105.472229 18.240000 105.880013 C 17.664476 106.309586 16.957296 106.525276 16.240000 106.490013 C 15.860141 106.490242 15.481339 106.450012 15.110000 106.370010 C 14.764054 106.307747 14.427825 106.200150 14.110000 106.050011 L 14.110000 104.900002 C 14.437496 105.005150 14.771549 105.088669 15.110000 105.150002 C 15.439119 105.218117 15.773944 105.254944 16.110001 105.260002 C 16.428154 105.282005 16.743725 105.189812 17.000000 105.000000 C 17.206396 104.823906 17.317593 104.560738 17.299999 104.290001 C 17.306087 104.077034 17.231022 103.869705 17.090000 103.709999 C 16.880615 103.512947 16.640882 103.350876 16.380001 103.229996 Z" fill="#232F3E"/><path d=" M 23.000000 106.339996 L 22.850000 105.839996 C 22.699303 106.046989 22.495443 106.209389 22.260000 106.309998 C 22.016693 106.427460 21.750175 106.488968 21.480000 106.489998 C 21.040819 106.513031 20.612318 106.349617 20.299999 106.040001 C 19.993969 105.709824 19.835167 105.269508 19.859999 104.820000 C 19.836857 104.326881 20.030481 103.848297 20.389999 103.510002 C 20.792883 103.175194 21.306807 103.003883 21.830000 103.029999 C 22.144335 103.040924 22.456379 103.087898 22.760000 103.169998 L 22.760000 102.660004 C 22.785198 102.388687 22.725815 102.116226 22.590000 101.880005 C 22.429998 101.726921 22.209850 101.653542 21.990000 101.680008 C 21.382172 101.704216 20.781742 101.822273 20.209999 102.030006 L 20.209999 101.029999 C 20.497076 100.871574 20.807678 100.760162 21.129999 100.699997 C 21.511402 100.619514 21.900198 100.579300 22.289999 100.579994 C 22.830742 100.531685 23.369846 100.688774 23.799999 101.019997 C 24.150381 101.393517 24.321804 101.900490 24.269999 102.409996 L 24.270000 106.339996 Z M 22.000000 105.430000 C 22.300283 105.414192 22.584591 105.289810 22.799999 105.080002 L 22.799999 104.000000 C 22.594059 103.948677 22.382181 103.925140 22.170000 103.930000 C 21.969454 103.914780 21.772249 103.987816 21.629999 104.129997 C 21.498238 104.297188 21.434004 104.507729 21.449999 104.719994 C 21.439709 104.905304 21.492592 105.088631 21.599998 105.239990 C 21.693272 105.366104 21.843313 105.437370 21.999998 105.429993 Z" fill="#232F3E"/><path d=" M 28.590000 105.709999 C 27.917025 106.395988 26.815369 106.406532 26.129381 105.733559 C 26.056168 105.661736 25.989447 105.583572 25.930000 105.500000 C 25.553474 104.903000 25.368536 104.205116 25.400000 103.500000 C 25.357821 102.757782 25.546455 102.020706 25.940001 101.389999 C 26.262375 100.899895 26.813475 100.609245 27.400000 100.620003 C 27.645832 100.627289 27.887526 100.685165 28.109999 100.790001 C 28.347303 100.897537 28.561314 101.050400 28.739998 101.239998 L 28.860001 100.760002 L 30.209999 100.760002 L 30.209999 106.000000 C 30.209999 107.860001 29.360001 108.790001 27.650000 108.790001 C 27.009987 108.795349 26.378353 108.644310 25.809999 108.349998 L 25.809999 107.349998 C 26.329523 107.546799 26.875566 107.664772 27.430000 107.699997 C 27.670435 107.714272 27.910721 107.669647 28.130001 107.570000 C 28.298622 107.473465 28.423868 107.316017 28.480001 107.129997 C 28.569330 106.804581 28.606459 106.467049 28.590002 106.129997 Z M 27.920000 105.110001 C 28.159151 105.098785 28.390751 105.022736 28.590000 104.889999 L 28.590000 102.000000 C 28.375660 101.838440 28.118023 101.744431 27.850000 101.730003 C 27.580807 101.727432 27.339724 101.896187 27.250000 102.150002 C 27.098274 102.565742 27.033604 103.008224 27.059999 103.450005 C 27.034317 103.883705 27.106071 104.317657 27.269999 104.720001 C 27.389462 104.968033 27.644932 105.121315 27.919998 105.110001 Z" fill="#232F3E"/><path d=" M 32.849998 103.910004 C 32.827705 104.318031 32.955791 104.720070 33.209999 105.040001 C 33.505566 105.286263 33.886879 105.404976 34.270000 105.370003 C 34.499249 105.364609 34.727242 105.334435 34.950001 105.280006 C 35.221527 105.230042 35.488941 105.159843 35.750000 105.070007 L 35.750000 106.070000 C 35.489777 106.212921 35.210201 106.317345 34.919998 106.379997 C 34.591473 106.451813 34.256275 106.488686 33.919998 106.489998 C 32.209999 106.489998 31.350000 105.489998 31.350000 103.540001 C 31.296963 102.755630 31.519819 101.977402 31.980000 101.340004 C 32.434650 100.816292 33.107925 100.535149 33.799999 100.580002 C 35.169998 100.580002 35.799999 101.339996 35.799999 102.870003 C 35.800449 103.206955 35.760159 103.542725 35.680000 103.870003 Z M 33.770000 101.599998 C 33.189999 101.599998 32.880001 102.059998 32.849998 102.970001 L 34.459999 102.970001 L 34.459999 102.720001 C 34.483543 102.424232 34.428337 102.127510 34.299999 101.860001 C 34.181137 101.686409 33.980030 101.587753 33.770000 101.599998 Z" fill="#232F3E"/><path d=" M 42.849998 106.339996 L 42.849998 101.000000 L 41.439999 104.459999 L 40.000000 104.459999 L 38.610001 101.000000 L 38.610001 106.309998 L 37.099998 106.309998 L 37.099998 98.720001 L 39.000000 98.720001 L 40.750000 103.000000 L 42.480000 98.730003 L 44.360001 98.730003 L 44.360001 106.349998 Z" fill="#232F3E"/><path d=" M 48.790001 106.339996 L 48.639999 105.839996 C 48.489304 106.046989 48.285442 106.209389 48.049999 106.309998 C 47.807037 106.428444 47.540295 106.489998 47.270000 106.489998 C 46.830822 106.513031 46.402321 106.349617 46.090000 106.040001 C 45.479267 105.292549 45.522175 104.206917 46.189999 103.510002 C 46.585747 103.169495 47.098953 102.997231 47.619999 103.029999 C 47.934334 103.040924 48.246376 103.087898 48.549999 103.169998 L 48.549999 102.660004 C 48.572144 102.390068 48.516628 102.119423 48.389999 101.880005 C 48.224796 101.728874 48.002613 101.656029 47.779999 101.680008 C 47.173565 101.692780 46.572906 101.800766 46.000000 102.000008 L 46.000000 101.000000 C 46.282703 100.839798 46.590321 100.728241 46.910000 100.669998 C 47.291401 100.589516 47.680199 100.549301 48.070000 100.549995 C 48.613605 100.504028 49.155006 100.660744 49.590000 100.989998 C 49.935867 101.366203 50.106586 101.871094 50.060001 102.379997 L 50.060001 106.309998 Z M 47.790001 105.430000 C 48.090282 105.414192 48.374592 105.289810 48.590000 105.080002 L 48.590000 104.000000 C 48.384060 103.948677 48.172180 103.925140 47.959999 103.930000 C 47.762249 103.913605 47.567619 103.987053 47.430000 104.129997 C 47.290947 104.293694 47.222603 104.505920 47.240002 104.719994 C 47.229713 104.905304 47.282593 105.088631 47.390003 105.239990 C 47.474930 105.354698 47.607380 105.424606 47.750004 105.429993 Z" fill="#232F3E"/><path d=" M 51.459999 106.339996 L 51.459999 98.209999 L 53.090000 98.209999 L 53.090000 103.150002 L 54.730000 100.720001 L 56.560001 100.720001 L 54.560001 103.410004 L 56.730000 106.339996 L 54.830002 106.339996 L 53.070000 103.750000 L 53.070000 106.339996 Z" fill="#232F3E"/><path d=" M 58.439999 103.910004 C 58.427433 104.304459 58.554974 104.690620 58.799999 105.000000 C 59.095566 105.246262 59.476879 105.364975 59.860001 105.330002 C 60.089249 105.324608 60.317242 105.294434 60.540001 105.240005 C 60.811527 105.190041 61.078941 105.119843 61.340000 105.030006 L 61.340000 106.029999 C 61.079777 106.172920 60.800201 106.277344 60.509998 106.339996 C 60.181473 106.411812 59.846275 106.448685 59.509998 106.449997 C 57.790001 106.449997 56.930000 105.449997 56.930000 103.500000 C 56.879845 102.714424 57.106274 101.936081 57.570000 101.300003 C 58.024651 100.776291 58.697926 100.495148 59.389999 100.540001 C 60.759998 100.540001 61.439999 101.300003 61.439999 102.830002 C 61.440449 103.166954 61.400158 103.502724 61.320000 103.830002 Z M 59.349998 101.599998 C 58.779999 101.599998 58.470001 102.059998 58.439999 102.970001 L 60.049999 102.970001 L 60.049999 102.720001 C 60.076698 102.422981 60.017704 102.124527 59.880001 101.860001 C 59.763954 101.683182 59.560860 101.583549 59.350002 101.599998 Z" fill="#232F3E"/><path d=" M 62.580002 106.339996 L 62.580002 100.720001 L 63.930000 100.720001 L 64.110001 101.449997 C 64.310951 101.209991 64.555183 101.009857 64.830002 100.860001 C 65.059921 100.734291 65.317963 100.668915 65.580002 100.669998 C 65.709816 100.660080 65.840195 100.660080 65.970001 100.669998 L 65.970001 102.000000 C 65.756889 101.986336 65.543114 101.986336 65.330002 102.000000 C 64.948166 102.000481 64.571640 102.089478 64.230003 102.260002 L 64.230003 106.360001 Z" fill="#232F3E"/></g><g id="ICONS_-_EDIT"><path d=" M 46.240002 65.260002 C 46.060108 65.263107 45.883099 65.214516 45.730003 65.120003 L 40.000000 61.689999 L 34.270000 65.120003 C 33.960598 65.298637 33.579403 65.298637 33.270000 65.120003 L 21.480000 57.939999 C 21.183184 57.759308 21.001450 57.437485 21.000000 57.090000 L 21.000000 49.889999 L 15.510000 46.779999 C 15.195514 46.603226 15.000622 46.270763 15.000000 45.910000 L 15.000000 34.090000 C 15.000622 33.729237 15.195513 33.396774 15.510000 33.220001 L 21.000000 30.110001 L 21.000000 22.910000 C 20.997955 22.558952 21.180138 22.232542 21.480000 22.049999 L 33.240002 14.890000 C 33.549404 14.711368 33.930599 14.711368 34.240002 14.890000 L 40.000000 18.309999 L 45.730000 14.880000 C 46.039402 14.701367 46.420597 14.701367 46.730000 14.880000 L 58.490002 22.049999 C 58.786816 22.230690 58.968552 22.552513 58.970001 22.900000 L 58.970001 30.100000 L 64.459999 33.209999 C 64.774483 33.386772 64.969376 33.719234 64.970001 34.079998 L 64.970001 45.910000 C 64.969383 46.270763 64.774490 46.603226 64.459999 46.779999 L 59.000000 49.889999 L 59.000000 57.090000 C 59.002045 57.441048 58.819862 57.767460 58.520000 57.950001 L 46.759998 65.120003 C 46.601437 65.210236 46.422432 65.258430 46.239998 65.260002 Z M 41.000000 60.000000 L 46.240002 63.130001 L 57.000000 56.529999 L 57.000000 49.310001 C 57.000622 48.949238 57.195515 48.616776 57.509998 48.440002 L 61.939999 45.930000 L 58.220001 43.869999 C 57.012890 44.897274 55.201565 44.751484 54.174290 43.544376 C 53.736034 43.029396 53.493690 42.376209 53.489998 41.700001 C 53.396477 40.117706 54.603367 38.759186 56.185661 38.665665 C 57.767956 38.572144 59.126476 39.779034 59.219997 41.361328 C 59.226665 41.474121 59.226665 41.587208 59.219997 41.700001 C 59.229809 41.839828 59.229809 41.980171 59.219997 42.119999 L 63.000000 44.220001 L 63.000000 34.680000 L 57.509998 31.559999 C 57.195511 31.383224 57.000622 31.050764 57.000000 30.689999 L 57.000000 27.870001 L 54.230000 27.870001 C 53.677715 29.355728 52.025578 30.112434 50.539852 29.560150 C 49.054123 29.007866 48.297421 27.355730 48.849705 25.870001 C 49.401989 24.384274 51.054127 23.627567 52.539852 24.179852 C 53.322197 24.470669 53.939182 25.087656 54.230000 25.870001 L 57.000000 25.870001 L 57.000000 23.469999 L 46.230000 16.910000 L 41.000000 20.000000 L 41.000000 31.000000 L 46.549999 34.220001 C 47.811970 33.270073 49.605064 33.523033 50.554993 34.785004 C 51.504921 36.046974 51.251961 37.840069 49.989990 38.789997 C 48.728020 39.739925 46.934925 39.486965 45.984997 38.224995 C 45.612843 37.730591 45.411079 37.128819 45.410000 36.510002 C 45.409668 36.305180 45.429768 36.100834 45.470001 35.900002 L 39.470001 32.439999 C 39.162457 32.262447 38.972145 31.935110 38.970001 31.579998 L 38.970001 20.000000 L 33.740002 16.870001 L 29.000000 19.809999 L 29.000000 26.870001 L 27.000000 26.870001 L 27.000000 21.000000 L 23.000000 23.440001 L 23.000000 30.100000 L 28.000000 32.939999 L 33.000000 30.110001 L 33.000000 25.000000 L 35.000000 25.000000 L 35.000000 30.690001 C 34.999378 31.050764 34.804485 31.383226 34.490002 31.560001 L 29.000000 34.669998 L 29.000000 39.430000 L 34.540001 43.000000 C 34.826160 43.183594 34.999435 43.500008 35.000000 43.840000 L 35.000000 47.189999 L 39.000000 44.840000 L 39.000000 40.630001 L 33.709999 37.509998 L 34.709999 35.790001 L 40.490002 39.189999 C 40.793701 39.370064 40.979939 39.696930 40.980003 40.049999 L 40.980000 52.860001 L 45.570000 52.860001 C 46.122284 51.380165 47.769642 50.628239 49.249477 51.180523 C 50.729313 51.732807 51.481239 53.380165 50.928955 54.860001 C 50.376671 56.339836 48.729313 57.091763 47.249477 56.539478 C 46.472668 56.249569 45.859909 55.636810 45.570000 54.860001 L 41.000000 54.860001 Z M 29.580000 60.580002 L 33.759998 63.130001 L 39.000000 60.000000 L 39.000000 47.189999 L 27.830000 53.770000 L 26.830000 52.040001 L 33.000000 48.400002 L 33.000000 44.400002 L 28.000000 41.130001 L 22.400000 44.270000 L 21.400000 42.520000 L 27.000000 39.380001 L 27.000000 34.669998 L 22.000000 31.840000 L 17.000000 34.669998 L 17.000000 38.310001 L 21.270000 35.799999 L 22.270000 37.520000 L 17.000000 40.630001 L 17.000000 45.330002 L 22.000000 48.150002 L 27.059999 45.150002 L 28.059999 46.869999 L 22.990000 49.869999 L 22.990000 56.520000 L 27.520000 59.279999 L 32.740002 56.209999 L 32.799999 56.299999 L 33.040001 56.160000 L 34.040001 57.880001 Z M 48.270000 53.000000 C 47.789543 52.994476 47.395580 53.379486 47.390057 53.859943 C 47.384533 54.340401 47.769543 54.734364 48.250000 54.739887 C 48.730457 54.745411 49.124420 54.360401 49.129944 53.879944 C 49.129982 53.876629 49.130001 53.873314 49.130001 53.870003 C 49.135525 53.395069 48.754993 53.005585 48.280060 53.000061 C 48.276707 53.000023 48.273354 53.000004 48.270000 53.000004 Z M 56.360001 40.840000 C 55.879543 40.834476 55.485580 41.219486 55.480057 41.699944 C 55.474533 42.180401 55.859543 42.574364 56.340000 42.579887 C 56.820457 42.585411 57.214420 42.200401 57.219944 41.719944 C 57.219982 41.716629 57.220001 41.713314 57.220001 41.710003 C 57.225555 41.229546 56.840572 40.835560 56.360115 40.830006 C 56.360077 40.830006 56.360039 40.830006 56.360001 40.830006 Z M 48.270000 35.689999 C 47.789543 35.684475 47.395580 36.069485 47.390057 36.549942 C 47.384533 37.030399 47.769543 37.424362 48.250000 37.429886 C 48.730457 37.435410 49.124420 37.050400 49.129944 36.569942 C 49.129982 36.566628 49.130001 36.563313 49.130001 36.560001 C 49.141048 36.085163 48.765072 35.691280 48.290234 35.680233 C 48.283489 35.680077 48.276745 35.680000 48.270000 35.680000 Z M 51.540001 26.000000 C 51.059513 26.000000 50.670002 26.389513 50.670002 26.870001 C 50.670002 27.350489 51.059513 27.740002 51.540001 27.740002 C 52.020489 27.740002 52.410000 27.350489 52.410000 26.870001 C 52.415554 26.395069 52.035049 26.005556 51.560116 26.000000 C 51.553410 25.999922 51.546703 25.999922 51.539997 26.000000 Z" fill="#FFFFFF"/></g></svg>