<svg id="Product_Icon" data-name="Product Icon" xmlns="http://www.w3.org/2000/svg" width="75" height="75" viewBox="0 0 75 75"><title>TensorFlow-on-AWS_light-bg</title><rect id="Turquoise_Light_BG" data-name="Turquoise Light BG" width="75" height="75" style="fill:#1c7b68"/><g id="Product_Icon-2" data-name="Product Icon"><path d="M56,24.1A23.12,23.12,0,0,0,37.5,14.82a22.88,22.88,0,0,0-18,8.65L18,22.22a25,25,0,0,1,39.6.69Z" style="fill:#fff"/><path d="M31.93,62.18A25.15,25.15,0,0,1,12.5,37.82a24.13,24.13,0,0,1,.63-5.54l1.94.46a22.28,22.28,0,0,0-.57,5.08A23.13,23.13,0,0,0,32.37,60.23Z" style="fill:#fff"/><path d="M52,28.93,38,20.85a1,1,0,0,0-1,0L23,28.93a1,1,0,0,0-.5.87V46a1,1,0,0,0,.5.87l14,8.08a1,1,0,0,0,1,0l14-8.08a1,1,0,0,0,.5-.87V29.8A1,1,0,0,0,52,28.93ZM37.5,22.87l12,6.92-12,6.94-12-6.94Zm-13,8.66,12,6.93V52.31l-12-6.92Zm26,13.86-12,6.92V38.46l12-6.93Z" style="fill:#fff"/><path d="M43.07,62.18l-.44-2A23.13,23.13,0,0,0,60.5,37.82a22.22,22.22,0,0,0-.41-4.29l2-.39a23.81,23.81,0,0,1,.45,4.68A25.15,25.15,0,0,1,43.07,62.18Z" style="fill:#fff"/></g></svg>