<svg version="1.1" width="80.000000" height="115.000000" viewBox="0.000000 0.000000 80.000000 115.000000" xmlns="http://www.w3.org/2000/svg" xmlns:xlink="http://www.w3.org/1999/xlink" overflow="hidden"><g id="CARDS"><rect x="1.000000" y="1.000000" width="78.000000" height="78.000000" fill="#232F3E"/><path d=" M 0.000000 0.000000 L 0.000000 80.000000 L 0.000000 80.000000 L 0.000000 115.000000 L 80.000000 115.000000 L 80.000000 80.000000 L 80.000000 80.000000 L 80.000000 0.000000 Z M 1.000000 1.000000 L 79.000000 1.000000 L 79.000000 79.000000 L 1.000000 79.000000 Z" fill="#FFFFFF"/></g><g id="TEXT_-_EDIT"><path d=" M 25.350000 92.349998 L 24.920000 90.529999 L 22.920000 90.529999 L 22.500000 92.349998 L 20.719999 92.349998 L 23.000000 84.720001 L 24.900000 84.720001 L 27.209999 92.349998 Z M 23.170000 89.430000 L 24.660000 89.430000 L 23.900000 86.269997 Z" fill="#232F3E"/><path d=" M 34.060001 92.349998 L 34.060001 88.639999 C 34.076664 88.401566 34.028278 88.163086 33.920002 87.949997 C 33.819908 87.796371 33.642418 87.711487 33.460003 87.729996 C 33.174831 87.743271 32.898491 87.833084 32.660004 87.989998 C 32.664822 88.029854 32.664822 88.070145 32.660004 88.110001 L 32.660000 92.349998 L 31.000000 92.349998 L 31.000000 88.639999 C 31.019257 88.402504 30.974358 88.164200 30.870001 87.949997 C 30.765142 87.796478 30.585056 87.712181 30.400002 87.729996 C 30.121338 87.744865 29.851856 87.834694 29.620001 87.989998 L 29.620001 92.349998 L 28.000000 92.349998 L 28.000000 86.720001 L 29.350000 86.720001 L 29.480000 87.230003 C 30.005705 86.838974 30.635632 86.612755 31.289999 86.580002 C 31.787903 86.543671 32.259682 86.807076 32.489998 87.250000 C 33.020988 86.851845 33.657448 86.618820 34.320000 86.580002 C 34.698605 86.567619 35.063778 86.720993 35.320000 87.000000 C 35.580429 87.351334 35.707973 87.783562 35.680000 88.220001 L 35.680000 92.349998 Z" fill="#232F3E"/><path d=" M 40.000000 92.349998 L 39.860001 91.839996 C 39.704742 92.042564 39.502155 92.203949 39.270000 92.309998 C 39.023094 92.427322 38.753361 92.488777 38.480000 92.489998 C 38.038441 92.498497 37.613724 92.320625 37.310001 92.000000 C 37.006588 91.668808 36.851307 91.228241 36.880001 90.779999 C 36.856857 90.286880 37.050484 89.808296 37.410000 89.470001 C 37.807274 89.133095 38.320316 88.964470 38.840000 89.000000 C 39.154030 89.006668 39.466179 89.050301 39.770000 89.129997 L 39.770000 88.620003 C 39.797573 88.349762 39.741737 88.077560 39.610001 87.840004 C 39.445477 87.687714 39.222755 87.614693 39.000000 87.640007 C 38.395546 87.665237 37.798565 87.783279 37.230000 87.990005 L 37.230000 87.000000 C 37.516563 86.840446 37.827354 86.728966 38.149998 86.669998 C 38.528015 86.589485 38.913502 86.549255 39.299999 86.549995 C 39.843796 86.502090 40.385880 86.659012 40.820000 86.989998 C 41.164772 87.366852 41.335323 87.871239 41.290001 88.379997 L 41.290001 92.320000 Z M 39.000000 91.430000 C 39.298344 91.418404 39.580971 91.293190 39.790001 91.080002 L 39.790001 90.000000 C 39.587475 89.948616 39.378887 89.925064 39.170002 89.930000 C 38.969070 89.911972 38.770714 89.985435 38.630001 90.129997 C 38.490948 90.293694 38.422604 90.505920 38.440002 90.719994 C 38.429714 90.905304 38.482594 91.088631 38.590004 91.239990 C 38.687565 91.366325 38.840549 91.437218 39.000004 91.429993 Z" fill="#232F3E"/><path d=" M 42.279999 92.349998 L 42.279999 91.279999 L 44.770000 87.879997 L 42.369999 87.879997 L 42.369999 86.720001 L 46.509998 86.720001 L 46.509998 87.790001 L 44.000000 91.190002 L 46.540001 91.190002 L 46.540001 92.349998 Z" fill="#232F3E"/><path d=" M 49.790001 92.489998 C 49.108715 92.511253 48.453094 92.229225 48.000000 91.720001 C 47.133984 90.392052 47.133984 88.677956 48.000000 87.349998 C 49.011749 86.331032 50.657967 86.325180 51.676933 87.336929 C 51.681305 87.341270 51.685661 87.345627 51.690002 87.349998 C 52.556019 88.677948 52.556019 90.392044 51.690002 91.720001 C 51.211487 92.259041 50.508781 92.543823 49.790001 92.489998 Z M 49.790001 91.339996 C 50.076321 91.350388 50.337559 91.177567 50.440002 90.909996 C 50.706799 90.016144 50.706799 89.063843 50.440002 88.169998 C 50.304638 87.813774 49.906124 87.634735 49.549900 87.770103 C 49.365585 87.840141 49.220043 87.985687 49.150002 88.169998 C 48.883205 89.063850 48.883205 90.016151 49.150002 90.909996 C 49.248730 91.175995 49.506416 91.349129 49.790001 91.339996 Z" fill="#232F3E"/><path d=" M 56.549999 92.349998 L 56.549999 88.650002 C 56.566494 88.408363 56.518166 88.166710 56.410000 87.950005 C 56.294102 87.793236 56.103878 87.709541 55.910000 87.730003 C 55.621128 87.739960 55.340698 87.829971 55.099998 87.990005 L 55.099998 92.349998 L 53.439999 92.349998 L 53.439999 86.720001 L 54.790001 86.720001 L 54.930000 87.230003 C 55.464371 86.833908 56.105400 86.607452 56.770000 86.580002 C 57.171432 86.553581 57.563728 86.707565 57.840000 87.000000 C 58.102020 87.350540 58.229740 87.783371 58.200001 88.220001 L 58.200001 92.349998 Z" fill="#232F3E"/><path d=" M 19.900000 106.349998 L 19.900000 99.940002 L 17.900000 99.940002 L 17.900000 98.720001 L 23.590000 98.720001 L 23.590000 99.940002 L 21.590000 99.940002 L 21.590000 106.349998 Z" fill="#232F3E"/><path d=" M 24.000000 106.349998 L 24.000000 100.720001 L 25.299999 100.720001 L 25.480000 101.449997 C 25.679729 101.212708 25.920156 101.012917 26.189999 100.860001 C 26.423048 100.733055 26.684628 100.667656 26.949999 100.669998 L 27.330000 100.669998 L 27.330000 102.000000 C 27.116899 101.985909 26.903101 101.985909 26.690001 102.000000 C 26.311373 102.000565 25.938116 102.089600 25.600000 102.260002 L 25.600000 106.370003 Z" fill="#232F3E"/><path d=" M 31.000000 106.349998 L 30.860001 105.839996 C 30.704742 106.042564 30.502153 106.203949 30.270000 106.309998 C 30.023094 106.427322 29.753361 106.488777 29.480000 106.489998 C 29.041018 106.511780 28.613005 106.348557 28.299999 106.040001 C 27.996588 105.708809 27.841305 105.268242 27.869999 104.820000 C 27.846857 104.326881 28.040482 103.848297 28.400000 103.510002 C 28.797274 103.173096 29.310316 103.004471 29.830000 103.040001 C 30.144030 103.046669 30.456179 103.090302 30.760000 103.169998 L 30.760000 102.660004 C 30.787573 102.389763 30.731737 102.117561 30.600000 101.880005 C 30.435478 101.727715 30.212753 101.654694 29.990000 101.680008 C 29.385546 101.705238 28.788567 101.823280 28.219999 102.030006 L 28.219999 101.029999 C 28.503469 100.871468 28.810802 100.760017 29.129999 100.699997 C 29.511480 100.620018 29.900225 100.579803 30.289999 100.579994 C 30.833797 100.532089 31.375881 100.689011 31.809999 101.019997 C 32.154774 101.396851 32.325321 101.901237 32.279999 102.409996 L 32.279999 106.349998 Z M 30.000000 105.430000 C 30.298346 105.418404 30.580971 105.293190 30.790001 105.080002 L 30.790001 104.000000 C 30.584169 103.948074 30.372210 103.924522 30.160002 103.930000 C 29.962254 103.913605 29.767622 103.987053 29.630001 104.129997 C 29.490948 104.293694 29.422606 104.505920 29.440001 104.719994 C 29.429710 104.905304 29.482594 105.088631 29.590000 105.239990 C 29.687563 105.366325 29.840544 105.437218 30.000000 105.429993 Z" fill="#232F3E"/><path d=" M 36.770000 106.349998 L 36.770000 102.650002 C 36.789314 102.407036 36.737175 102.163719 36.619999 101.950005 C 36.507305 101.794876 36.320808 101.711143 36.129997 101.730003 C 35.837788 101.738640 35.553795 101.828682 35.309998 101.990005 L 35.310001 106.349998 L 33.660000 106.349998 L 33.660000 100.720001 L 35.000000 100.720001 L 35.130001 101.230003 C 35.665241 100.835541 36.305752 100.609268 36.970001 100.580002 C 37.371433 100.553581 37.763729 100.707565 38.040001 101.000000 C 38.305580 101.349174 38.436886 101.782127 38.410000 102.220001 L 38.410000 106.349998 Z" fill="#232F3E"/><path d=" M 41.810001 104.769997 C 41.810001 104.519997 41.639999 104.309998 41.290001 104.150002 L 40.570000 103.800003 C 39.896484 103.560318 39.444881 102.924881 39.439999 102.210007 C 39.413937 101.738663 39.623810 101.285187 40.000000 101.000008 C 40.422359 100.682838 40.942471 100.523621 41.470001 100.550011 C 41.999649 100.551735 42.522278 100.671295 43.000000 100.900009 L 43.000000 101.900002 C 42.771828 101.818993 42.537819 101.755478 42.299999 101.709999 C 42.102863 101.666542 41.901844 101.643089 41.700001 101.639999 C 41.189999 101.639999 40.930000 101.820000 40.930000 102.180000 C 40.930000 102.540001 41.139999 102.629997 41.570000 102.839996 L 42.290001 103.180000 C 42.598686 103.312111 42.865074 103.526604 43.060001 103.800003 C 43.228264 104.080269 43.311630 104.403313 43.300003 104.730003 C 43.324760 105.215942 43.121365 105.685608 42.750004 106.000000 C 42.325520 106.321449 41.801914 106.484184 41.270004 106.459999 C 40.636276 106.466171 40.010925 106.314987 39.450005 106.019997 L 39.450001 105.019997 C 39.965828 105.217575 40.508698 105.335594 41.060001 105.369995 C 41.264175 105.382927 41.466270 105.322655 41.630001 105.199997 C 41.749641 105.089638 41.815346 104.932678 41.810001 104.769997 Z" fill="#232F3E"/><path d=" M 46.619999 106.250000 C 46.299801 106.366165 45.960457 106.420456 45.619999 106.410004 C 45.223782 106.445717 44.831078 106.311180 44.539997 106.040001 C 44.276508 105.729019 44.147053 105.326263 44.179996 104.919998 L 44.180000 98.209999 L 45.830002 98.209999 L 45.830002 104.750000 C 45.819199 104.888161 45.846889 105.026619 45.910004 105.150002 C 45.989674 105.241310 46.109940 105.286407 46.230003 105.270004 C 46.346493 105.279053 46.463512 105.279053 46.580002 105.270004 Z" fill="#232F3E"/><path d=" M 50.529999 106.349998 L 50.389999 105.839996 C 50.236900 106.044678 50.033722 106.206528 49.799999 106.309998 C 49.556252 106.426201 49.290020 106.487640 49.020000 106.489998 C 48.580822 106.513031 48.152321 106.349617 47.840000 106.040001 C 47.533970 105.709824 47.375168 105.269508 47.400002 104.820000 C 47.376858 104.326881 47.570484 103.848297 47.930000 103.510002 C 48.333382 103.177032 48.847858 103.009109 49.369999 103.040001 C 49.680676 103.047447 49.989422 103.091080 50.289997 103.169998 L 50.290001 102.660004 C 50.317574 102.389763 50.261738 102.117561 50.130001 101.880005 C 49.965477 101.727715 49.742756 101.654694 49.520000 101.680008 C 48.915546 101.705238 48.318565 101.823280 47.750000 102.030006 L 47.750000 101.029999 C 48.036564 100.870445 48.347355 100.758965 48.669998 100.699997 C 49.048016 100.619484 49.433502 100.579254 49.820000 100.579994 C 50.363796 100.532089 50.905880 100.689011 51.340000 101.019997 C 51.684772 101.396851 51.855324 101.901237 51.810001 102.409996 L 51.810001 106.349998 Z M 49.529999 105.430000 C 49.828342 105.418404 50.110970 105.293190 50.320000 105.080002 L 50.320000 104.000000 C 50.117588 103.947983 49.908913 103.924423 49.700001 103.930000 C 49.499264 103.913399 49.301495 103.986649 49.160000 104.129997 C 49.024662 104.295738 48.956814 104.506424 48.970001 104.719994 C 48.958282 104.907021 49.015167 105.091904 49.130001 105.239990 C 49.217075 105.357422 49.353832 105.427643 49.500000 105.429993 Z" fill="#232F3E"/><path d=" M 56.250000 106.199997 C 55.856232 106.345474 55.439781 106.419960 55.020000 106.419998 C 54.544670 106.463928 54.070992 106.320389 53.700001 106.019997 C 53.399147 105.656647 53.252037 105.190201 53.290001 104.719994 L 53.290001 101.820000 L 52.560001 101.820000 L 52.560001 100.900002 L 53.340000 100.750000 L 53.580002 99.209999 L 54.939999 99.209999 L 54.939999 100.720001 L 56.220001 100.720001 L 56.220001 101.820000 L 54.939999 101.820000 L 54.939999 104.589996 C 54.921528 104.776146 54.975220 104.962288 55.090000 105.109993 C 55.236588 105.234970 55.428745 105.292976 55.619999 105.269997 C 55.832237 105.265694 56.043423 105.238876 56.250000 105.189995 Z" fill="#232F3E"/><path d=" M 58.340000 103.919998 C 58.337795 104.309822 58.464344 104.689461 58.700001 105.000000 C 58.995567 105.246262 59.376881 105.364975 59.760002 105.330002 C 59.989250 105.324608 60.217243 105.294434 60.440002 105.240005 C 60.711529 105.190041 60.978943 105.119843 61.240002 105.030006 L 61.240002 106.029999 C 60.981762 106.177193 60.701508 106.281868 60.410000 106.339996 C 60.081501 106.411957 59.746288 106.448830 59.410000 106.449997 C 57.689999 106.449997 56.830002 105.449997 56.830002 103.500000 C 56.776962 102.715630 56.999821 101.937401 57.460003 101.300003 C 57.917767 100.774681 58.594769 100.493523 59.290005 100.540001 C 60.650002 100.540001 61.290001 101.300003 61.290001 102.830002 C 61.289127 103.166870 61.248856 103.502487 61.170002 103.830002 Z M 59.259998 101.599998 C 58.680000 101.599998 58.369999 102.059998 58.340000 102.970001 L 60.000000 102.970001 L 60.000000 102.720001 C 60.020443 102.423340 59.961781 102.126572 59.830002 101.860001 C 59.703926 101.673141 59.483757 101.572716 59.260002 101.599998 Z" fill="#232F3E"/></g><g id="ICONS_-_EDIT"><rect x="39.500000" y="23.990000" width="2.000000" height="5.030000" fill="#FFFFFF"/><path d=" M 36.500000 49.000000 L 18.500000 49.000000 C 17.947716 49.000000 17.500000 48.552284 17.500000 48.000000 L 17.500000 42.000000 L 19.500000 42.000000 L 19.500000 47.000000 L 36.500000 47.000000 Z" fill="#FFFFFF"/><path d=" M 19.500000 37.000000 L 17.500000 37.000000 L 17.500000 16.000000 C 17.500000 15.447715 17.947716 15.000000 18.500000 15.000000 L 32.590000 15.000000 L 32.590000 17.000000 L 19.500000 17.000000 Z" fill="#FFFFFF"/><path d=" M 40.500000 25.000000 L 32.500000 25.000000 C 31.947716 25.000000 31.500000 24.552284 31.500000 24.000000 L 31.500000 16.000000 C 31.496788 15.447724 31.941893 14.997414 32.494167 14.994202 C 32.762825 14.992640 33.020813 15.099245 33.209999 15.290000 L 41.209999 23.290001 C 41.602131 23.678911 41.604740 24.312071 41.215832 24.704203 C 41.026646 24.894957 40.768658 25.001564 40.500000 25.000002 Z M 33.500000 23.000000 L 38.090000 23.000000 L 33.500000 18.400000 Z" fill="#FFFFFF"/><text fill="#FFFFFF" font-family="amazonember-regular,amazon ember" font-size="20.000000" transform="matrix(1.000000,0.000000,0.000000,1.000000,22.560000,41.480000)">A</text><path d=" M 61.500000 65.000000 L 39.500000 65.000000 C 38.947716 65.000000 38.500000 64.552284 38.500000 64.000000 L 38.500000 32.000000 C 38.500000 31.447716 38.947716 31.000000 39.500000 31.000000 L 53.650002 31.000000 L 53.650002 33.000000 L 40.500000 33.000000 L 40.500000 63.000000 L 60.500000 63.000000 L 60.500000 40.000000 L 62.500000 40.000000 L 62.500000 64.000000 C 62.500000 64.552284 62.052284 65.000000 61.500000 65.000000 Z" fill="#FFFFFF"/><path d=" M 61.500000 41.000000 L 53.500000 41.000000 C 52.947716 41.000000 52.500000 40.552284 52.500000 40.000000 L 52.500000 32.000000 C 52.497959 31.592657 52.743206 31.224787 53.119999 31.070000 C 53.494370 30.915941 53.924690 31.002794 54.209999 31.289999 L 62.209999 39.290001 C 62.602131 39.678913 62.604740 40.312073 62.215832 40.704201 C 62.026646 40.894955 61.768658 41.001560 61.500000 41.000000 Z M 54.500000 39.000000 L 59.090000 39.000000 L 54.500000 34.400002 Z" fill="#FFFFFF"/><text stroke="#FFFFFF" stroke-miterlimit="10.000000" fill="#FFFFFF" font-family="kozgopr6n-regular-83pv-rksj-h,kozuka gothic pr6n" font-size="14.000000" transform="matrix(1.000000,0.000000,0.000000,1.000000,43.270000,55.710000)">文</text><path d=" M 32.790001 57.720001 L 28.500000 53.430000 L 24.209999 57.720001 L 22.790001 56.310001 L 27.790001 51.310001 C 28.178921 50.917881 28.812080 50.915283 29.204203 51.304203 C 29.206142 51.306129 29.208076 51.308060 29.210001 51.310001 L 34.209999 56.310001 Z" fill="#FFFFFF"/><path d=" M 36.500000 65.000000 L 33.500000 65.000000 C 30.186291 65.000000 27.500000 62.313709 27.500000 59.000000 L 27.500000 52.000000 L 29.500000 52.000000 L 29.500000 59.000000 C 29.500000 61.209141 31.290861 63.000000 33.500000 63.000000 L 36.500000 63.000000 Z" fill="#FFFFFF"/><path d=" M 51.500000 29.000000 C 51.232754 28.998890 50.977070 28.890856 50.790001 28.700001 L 45.790001 23.700001 L 47.209999 22.290001 L 51.500000 26.600000 L 55.790001 22.309999 L 57.209999 23.719999 L 52.209999 28.719999 C 52.019657 28.903528 51.764378 29.004202 51.500000 29.000000 Z" fill="#FFFFFF"/><path d=" M 52.500000 28.000000 L 50.500000 28.000000 L 50.500000 21.000000 C 50.500000 18.790861 48.709141 17.000000 46.500000 17.000000 L 42.500000 17.000000 L 42.500000 15.000000 L 46.500000 15.000000 C 49.813709 15.000000 52.500000 17.686291 52.500000 21.000000 Z" fill="#FFFFFF"/></g></svg>