<svg version="1.1" width="80.000000" height="115.000000" viewBox="0.000000 0.000000 80.000000 115.000000" xmlns="http://www.w3.org/2000/svg" xmlns:xlink="http://www.w3.org/1999/xlink" overflow="hidden"><g id="CARDS"><rect x="1.000000" y="1.000000" width="78.000000" height="78.000000" fill="#232F3E"/><path d=" M 0.000000 0.000000 L 0.000000 80.000000 L 0.000000 80.000000 L 0.000000 115.000000 L 80.000000 115.000000 L 80.000000 80.000000 L 80.000000 80.000000 L 80.000000 0.000000 Z M 1.000000 1.000000 L 79.000000 1.000000 L 79.000000 79.000000 L 1.000000 79.000000 Z" fill="#FFFFFF"/></g><g id="TEXT_-_EDIT"><path d=" M 25.350000 92.349998 L 24.920000 90.529999 L 22.920000 90.529999 L 22.500000 92.349998 L 20.719999 92.349998 L 23.000000 84.720001 L 24.900000 84.720001 L 27.209999 92.349998 Z M 23.170000 89.430000 L 24.660000 89.430000 L 23.900000 86.269997 Z" fill="#232F3E"/><path d=" M 34.060001 92.349998 L 34.060001 88.639999 C 34.076664 88.401566 34.028278 88.163086 33.920002 87.949997 C 33.819908 87.796371 33.642418 87.711487 33.460003 87.729996 C 33.174831 87.743271 32.898491 87.833084 32.660004 87.989998 C 32.664822 88.029854 32.664822 88.070145 32.660004 88.110001 L 32.660000 92.349998 L 31.000000 92.349998 L 31.000000 88.639999 C 31.019257 88.402504 30.974358 88.164200 30.870001 87.949997 C 30.765142 87.796478 30.585056 87.712181 30.400002 87.729996 C 30.121338 87.744865 29.851856 87.834694 29.620001 87.989998 L 29.620001 92.349998 L 28.000000 92.349998 L 28.000000 86.720001 L 29.350000 86.720001 L 29.480000 87.230003 C 30.005705 86.838974 30.635632 86.612755 31.289999 86.580002 C 31.787903 86.543671 32.259682 86.807076 32.489998 87.250000 C 33.020988 86.851845 33.657448 86.618820 34.320000 86.580002 C 34.698605 86.567619 35.063778 86.720993 35.320000 87.000000 C 35.580429 87.351334 35.707973 87.783562 35.680000 88.220001 L 35.680000 92.349998 Z" fill="#232F3E"/><path d=" M 40.000000 92.349998 L 39.860001 91.839996 C 39.704742 92.042564 39.502155 92.203949 39.270000 92.309998 C 39.023094 92.427322 38.753361 92.488777 38.480000 92.489998 C 38.038441 92.498497 37.613724 92.320625 37.310001 92.000000 C 37.006588 91.668808 36.851307 91.228241 36.880001 90.779999 C 36.856857 90.286880 37.050484 89.808296 37.410000 89.470001 C 37.807274 89.133095 38.320316 88.964470 38.840000 89.000000 C 39.154030 89.006668 39.466179 89.050301 39.770000 89.129997 L 39.770000 88.620003 C 39.797573 88.349762 39.741737 88.077560 39.610001 87.840004 C 39.445477 87.687714 39.222755 87.614693 39.000000 87.640007 C 38.395546 87.665237 37.798565 87.783279 37.230000 87.990005 L 37.230000 87.000000 C 37.516563 86.840446 37.827354 86.728966 38.149998 86.669998 C 38.528015 86.589485 38.913502 86.549255 39.299999 86.549995 C 39.843796 86.502090 40.385880 86.659012 40.820000 86.989998 C 41.164772 87.366852 41.335323 87.871239 41.290001 88.379997 L 41.290001 92.320000 Z M 39.000000 91.430000 C 39.298344 91.418404 39.580971 91.293190 39.790001 91.080002 L 39.790001 90.000000 C 39.587475 89.948616 39.378887 89.925064 39.170002 89.930000 C 38.969070 89.911972 38.770714 89.985435 38.630001 90.129997 C 38.490948 90.293694 38.422604 90.505920 38.440002 90.719994 C 38.429714 90.905304 38.482594 91.088631 38.590004 91.239990 C 38.687565 91.366325 38.840549 91.437218 39.000004 91.429993 Z" fill="#232F3E"/><path d=" M 42.279999 92.349998 L 42.279999 91.279999 L 44.770000 87.879997 L 42.369999 87.879997 L 42.369999 86.720001 L 46.509998 86.720001 L 46.509998 87.790001 L 44.000000 91.190002 L 46.540001 91.190002 L 46.540001 92.349998 Z" fill="#232F3E"/><path d=" M 49.790001 92.489998 C 49.108715 92.511253 48.453094 92.229225 48.000000 91.720001 C 47.133984 90.392052 47.133984 88.677956 48.000000 87.349998 C 49.011749 86.331032 50.657967 86.325180 51.676933 87.336929 C 51.681305 87.341270 51.685661 87.345627 51.690002 87.349998 C 52.556019 88.677948 52.556019 90.392044 51.690002 91.720001 C 51.211487 92.259041 50.508781 92.543823 49.790001 92.489998 Z M 49.790001 91.339996 C 50.076321 91.350388 50.337559 91.177567 50.440002 90.909996 C 50.706799 90.016144 50.706799 89.063843 50.440002 88.169998 C 50.304638 87.813774 49.906124 87.634735 49.549900 87.770103 C 49.365585 87.840141 49.220043 87.985687 49.150002 88.169998 C 48.883205 89.063850 48.883205 90.016151 49.150002 90.909996 C 49.248730 91.175995 49.506416 91.349129 49.790001 91.339996 Z" fill="#232F3E"/><path d=" M 56.549999 92.349998 L 56.549999 88.650002 C 56.566494 88.408363 56.518166 88.166710 56.410000 87.950005 C 56.294102 87.793236 56.103878 87.709541 55.910000 87.730003 C 55.621128 87.739960 55.340698 87.829971 55.099998 87.990005 L 55.099998 92.349998 L 53.439999 92.349998 L 53.439999 86.720001 L 54.790001 86.720001 L 54.930000 87.230003 C 55.464371 86.833908 56.105400 86.607452 56.770000 86.580002 C 57.171432 86.553581 57.563728 86.707565 57.840000 87.000000 C 58.102020 87.350540 58.229740 87.783371 58.200001 88.220001 L 58.200001 92.349998 Z" fill="#232F3E"/><path d=" M 17.299999 106.349998 L 17.299999 99.940002 L 15.300000 99.940002 L 15.300000 98.720001 L 21.000000 98.720001 L 21.000000 99.940002 L 19.000000 99.940002 L 19.000000 106.349998 Z" fill="#232F3E"/><path d=" M 21.350000 106.349998 L 21.350000 100.720001 L 22.690001 100.720001 L 22.879999 101.449997 C 23.077484 101.210457 23.318357 101.010300 23.589998 100.860001 C 23.823048 100.733055 24.084627 100.667656 24.349998 100.669998 L 24.730000 100.669998 L 24.730000 102.000000 C 24.516899 101.985909 24.303101 101.985909 24.090000 102.000000 C 23.711372 102.000565 23.338116 102.089600 23.000000 102.260002 L 23.000000 106.370003 Z" fill="#232F3E"/><path d=" M 28.379999 106.349998 L 28.240000 105.839996 C 28.084742 106.042564 27.882153 106.203949 27.650000 106.309998 C 27.403093 106.427322 27.133360 106.488777 26.859999 106.489998 C 26.420818 106.513031 25.992317 106.349617 25.679998 106.040001 C 25.069263 105.292549 25.112175 104.206917 25.779999 103.510002 C 26.177273 103.173096 26.690315 103.004471 27.209999 103.040001 C 27.524029 103.046669 27.836178 103.090302 28.139999 103.169998 L 28.139999 102.660004 C 28.167572 102.389763 28.111736 102.117561 27.980000 101.880005 C 27.815477 101.727715 27.592752 101.654694 27.369999 101.680008 C 26.765545 101.705238 26.168566 101.823280 25.599998 102.030006 L 25.600000 101.029999 C 25.883471 100.871468 26.190804 100.760017 26.510000 100.699997 C 26.891481 100.620018 27.280226 100.579803 27.670000 100.579994 C 28.213608 100.534027 28.755009 100.690742 29.190001 101.019997 C 29.534775 101.396851 29.705322 101.901237 29.660000 102.409996 L 29.660000 106.349998 Z M 27.379999 105.430000 C 27.681383 105.418922 27.967318 105.293823 28.179998 105.080002 L 28.180000 104.000000 C 27.974060 103.948677 27.762182 103.925140 27.550001 103.930000 C 27.352253 103.913605 27.157621 103.987053 27.020000 104.129997 C 26.880947 104.293694 26.812605 104.505920 26.830000 104.719994 C 26.819710 104.905304 26.872593 105.088631 26.980000 105.239990 C 27.065874 105.353592 27.197756 105.423195 27.340000 105.429993 Z" fill="#232F3E"/><path d=" M 34.160000 106.349998 L 34.160000 102.650002 C 34.161655 102.423386 34.106655 102.199951 34.000000 102.000000 C 33.884102 101.843231 33.693878 101.759537 33.500000 101.779999 C 33.211128 101.789955 32.930698 101.879967 32.689999 102.040001 L 32.689999 106.400002 L 31.059999 106.400002 L 31.059999 100.769997 L 32.400002 100.769997 L 32.540001 101.279999 C 33.074371 100.883904 33.715401 100.657448 34.380001 100.629997 C 34.781433 100.603577 35.173729 100.757561 35.450001 101.049995 C 35.712021 101.400536 35.839741 101.833366 35.810001 102.269997 L 35.810001 106.400002 Z" fill="#232F3E"/><path d=" M 39.209999 104.769997 C 39.209999 104.519997 39.040001 104.309998 38.689999 104.150002 L 38.000000 103.800003 C 37.326485 103.560318 36.874882 102.924881 36.869999 102.210007 C 36.851604 101.750854 37.056538 101.311180 37.419998 101.030006 C 37.842358 100.712837 38.362469 100.553619 38.889999 100.580009 C 39.419647 100.581734 39.942276 100.701294 40.419998 100.930008 L 40.419998 101.930000 C 40.191441 101.850227 39.957523 101.786736 39.719997 101.739998 C 39.522861 101.696541 39.321842 101.673088 39.119999 101.669998 C 38.610001 101.669998 38.349998 101.849998 38.349998 102.209999 C 38.349998 102.570000 38.560001 102.660004 38.990002 102.870003 L 39.709999 103.209999 C 40.016876 103.345100 40.282536 103.559013 40.480000 103.830002 C 40.648262 104.110268 40.731628 104.433311 40.720001 104.760002 C 40.744759 105.245941 40.541363 105.715607 40.170002 106.029999 C 39.745518 106.351448 39.221912 106.514183 38.690002 106.489998 C 38.056133 106.497437 37.430473 106.346176 36.870003 106.049995 L 36.869999 105.050003 C 37.385826 105.247581 37.928696 105.365601 38.480000 105.400002 C 38.684174 105.412933 38.886269 105.352661 39.049999 105.230003 C 39.170708 105.109100 39.229626 104.939713 39.209999 104.770004 Z" fill="#232F3E"/><path d=" M 45.259998 106.089996 C 45.063362 106.213127 44.846798 106.301109 44.619999 106.349998 C 44.354290 106.410645 44.082539 106.440842 43.809998 106.439995 C 43.117512 106.489487 42.440201 106.220772 41.969997 105.709991 C 41.102287 104.400703 41.102287 102.699280 41.969997 101.389992 C 42.450340 100.866623 43.140884 100.587463 43.849998 100.629990 C 44.316906 100.628960 44.776966 100.742256 45.189999 100.959991 L 45.189999 101.959999 C 44.869923 101.840164 44.531723 101.775909 44.189999 101.769997 C 43.831944 101.735214 43.481010 101.886154 43.259998 102.169998 C 43.038036 102.561913 42.937126 103.010796 42.969997 103.459999 L 42.970001 103.620003 C 42.937836 104.064751 43.035084 104.509300 43.250000 104.900002 C 43.458992 105.182068 43.800587 105.333885 44.150002 105.300003 C 44.522648 105.292633 44.891293 105.221611 45.240002 105.090004 Z" fill="#232F3E"/><path d=" M 46.310001 106.349998 L 46.310001 100.720001 L 47.660000 100.720001 L 47.840000 101.449997 C 48.039730 101.212708 48.280155 101.012917 48.549999 100.860001 C 48.783047 100.733055 49.044628 100.667656 49.309998 100.669998 C 49.436470 100.660080 49.563526 100.660080 49.689999 100.669998 L 49.689999 102.000000 C 49.476898 101.985909 49.263100 101.985909 49.049999 102.000000 C 48.671371 102.000565 48.298115 102.089600 47.959999 102.260002 L 47.959999 106.370003 Z" fill="#232F3E"/><path d=" M 51.310001 99.809998 C 51.053860 99.830612 50.799610 99.751831 50.600002 99.589996 C 50.420807 99.439140 50.321186 99.214073 50.330002 98.979996 C 50.319645 98.745628 50.419552 98.519913 50.600002 98.369995 C 51.020443 98.064751 51.589561 98.064751 52.010002 98.369995 C 52.184265 98.523682 52.279812 98.747849 52.270000 98.979996 C 52.276993 99.211624 52.181938 99.434639 52.010002 99.589996 C 51.812973 99.749374 51.562782 99.828011 51.310001 99.809998 Z M 50.480000 106.349998 L 50.480000 100.720001 L 52.130001 100.720001 L 52.130001 106.349998 Z" fill="#232F3E"/><path d=" M 53.580002 106.349998 L 53.580002 98.209999 L 55.230000 98.209999 L 55.230000 101.110001 C 55.590187 100.777550 56.059917 100.588943 56.549999 100.580002 C 57.145908 100.544815 57.717445 100.821121 58.059998 101.310005 C 58.451546 101.955635 58.633224 102.706802 58.579998 103.460007 C 58.624043 104.229553 58.439651 104.994942 58.049999 105.660004 C 57.711407 106.169579 57.131283 106.465324 56.520000 106.440002 C 56.255276 106.438156 55.993549 106.383774 55.750000 106.279999 C 55.503574 106.177475 55.279419 106.028038 55.090000 105.839996 L 54.939999 106.349998 Z M 56.000000 101.699997 C 55.719852 101.697105 55.446270 101.784790 55.220001 101.949997 L 55.220001 105.059998 C 55.451759 105.223015 55.726723 105.313515 56.010002 105.320000 C 56.307823 105.338585 56.586246 105.171532 56.710003 104.900002 C 56.878620 104.463989 56.950279 103.996498 56.920002 103.529999 C 56.952286 103.050362 56.880657 102.569412 56.710003 102.119995 C 56.582703 101.846878 56.300671 101.680038 56.000004 101.699997 Z" fill="#232F3E"/><path d=" M 60.939999 103.919998 C 60.926594 104.325401 61.057732 104.722366 61.309998 105.040001 C 61.604469 105.288261 61.986641 105.407242 62.369999 105.370003 C 62.599201 105.363998 62.827129 105.333832 63.049999 105.280006 C 63.321251 105.228806 63.588573 105.158638 63.849998 105.070007 L 63.849998 106.070000 C 63.590977 106.215523 63.310997 106.320099 63.019997 106.379997 C 62.691471 106.451813 62.356274 106.488686 62.019997 106.489998 C 60.299999 106.489998 59.439999 105.489998 59.439999 103.540001 C 59.386959 102.755630 59.609818 101.977402 60.070000 101.340004 C 60.528690 100.815964 61.205025 100.535088 61.900002 100.580002 C 63.259998 100.580002 63.950001 101.339996 63.950001 102.870003 C 63.949127 103.206871 63.908855 103.542488 63.830002 103.870003 Z M 61.860001 101.599998 C 61.279999 101.599998 60.980000 102.059998 60.939999 102.970001 L 62.560001 102.970001 L 62.560001 102.720001 C 62.580444 102.423340 62.521782 102.126572 62.390003 101.860001 C 62.272514 101.684830 62.070446 101.585701 61.860004 101.599998 Z" fill="#232F3E"/></g><g id="ICONS_-_EDIT"><path d=" M 16.260000 66.000000 C 15.564124 65.998161 15.001493 65.432556 15.003330 64.736679 C 15.003870 64.532112 15.054210 64.330757 15.150000 64.150002 L 19.350000 56.000000 C 17.880894 53.561150 17.106318 50.767147 17.110001 47.919998 C 17.109985 39.127625 24.237598 31.999985 33.029972 31.999969 C 33.039982 31.999969 33.049992 31.999979 33.060001 31.999998 C 36.518517 31.983067 39.885963 33.107891 42.640003 35.199997 L 41.439999 36.790001 C 35.374393 32.102615 26.657373 33.219883 21.969988 39.285488 C 18.356714 43.961163 18.099888 50.411869 21.330000 55.360001 C 21.524357 55.660389 21.543425 56.041725 21.379999 56.360001 L 17.940001 63.060001 L 24.820000 59.639999 C 25.129400 59.461365 25.510599 59.461365 25.820000 59.639999 C 32.247532 63.542347 40.609772 61.670338 44.759998 55.399998 L 46.419998 56.500000 C 41.797009 63.485401 32.568745 65.722687 25.259998 61.630001 L 16.860001 65.809998 C 16.676456 65.916794 16.471563 65.981682 16.260000 66.000000 Z M 16.930000 65.059998 L 16.930000 65.059998 Z" fill="#FFFFFF"/><rect x="40.000000" y="44.100000" width="2.000000" height="5.880000" fill="#FFFFFF"/><rect x="37.000000" y="40.020000" width="2.000000" height="13.960000" fill="#FFFFFF"/><rect x="34.000000" y="42.980000" width="2.000000" height="8.000000" fill="#FFFFFF"/><rect x="31.000000" y="39.980000" width="2.000000" height="14.000000" fill="#FFFFFF"/><rect x="28.000000" y="41.980000" width="2.000000" height="10.000000" fill="#FFFFFF"/><rect x="25.000000" y="40.980000" width="2.000000" height="12.000000" fill="#FFFFFF"/><rect x="22.000000" y="43.980000" width="2.000000" height="7.000000" fill="#FFFFFF"/><rect x="63.000000" y="26.980000" width="2.000000" height="6.000000" fill="#FFFFFF"/><path d=" M 64.000000 56.000000 L 48.000000 56.000000 L 48.000000 54.000000 L 63.000000 54.000000 L 63.000000 39.000000 L 65.000000 39.000000 L 65.000000 55.000000 C 65.000000 55.552284 64.552284 56.000000 64.000000 56.000000 Z" fill="#FFFFFF"/><path d=" M 37.000000 30.000000 L 35.000000 30.000000 L 35.000000 17.000000 C 35.000000 16.447716 35.447716 16.000000 36.000000 16.000000 L 54.000000 16.000000 L 54.000000 18.000000 L 37.000000 18.000000 Z" fill="#FFFFFF"/><path d=" M 64.000000 28.000000 L 53.919998 28.000000 C 53.367714 28.000000 52.919998 27.552284 52.919998 27.000000 L 52.919998 17.000000 C 52.920326 16.598721 53.160492 16.236500 53.529999 16.080000 C 53.902397 15.923403 54.332439 16.006256 54.619999 16.289999 L 64.699997 26.290001 C 64.987206 26.575308 65.074059 27.005630 64.919998 27.380001 C 64.766594 27.753428 64.403702 27.997986 64.000000 28.000002 Z M 54.919998 26.000000 L 61.560001 26.000000 L 54.919998 19.430000 Z" fill="#FFFFFF"/><rect x="49.000000" y="29.980000" width="10.000000" height="2.000000" fill="#FFFFFF"/><rect x="45.000000" y="33.980000" width="13.000000" height="2.000000" fill="#FFFFFF"/><rect x="41.000000" y="23.980000" width="8.000000" height="2.000000" fill="#FFFFFF"/><rect x="41.000000" y="29.980000" width="6.000000" height="2.000000" fill="#FFFFFF"/><rect x="43.000000" y="40.980000" width="2.000000" height="12.000000" fill="#FFFFFF"/><rect x="46.000000" y="42.980000" width="2.000000" height="8.000000" fill="#FFFFFF"/></g></svg>