<svg version="1.1" width="80.000000" height="130.000000" viewBox="0.000000 0.000000 80.000000 130.000000" xmlns="http://www.w3.org/2000/svg" xmlns:xlink="http://www.w3.org/1999/xlink" overflow="hidden"><g id="CARDS"><rect x="1.000000" y="1.000000" width="78.000000" height="78.000000" fill="#232F3E"/><path d=" M 0.000000 0.000000 L 0.000000 80.000000 L 0.000000 80.000000 L 0.000000 130.000000 L 80.000000 130.000000 L 80.000000 80.000000 L 80.000000 80.000000 L 80.000000 0.000000 Z M 1.000000 1.000000 L 79.000000 1.000000 L 79.000000 79.000000 L 1.000000 79.000000 Z" fill="#FFFFFF"/></g><g id="TEXT_-_EDIT"><path d=" M 25.350000 92.349998 L 24.920000 90.529999 L 22.920000 90.529999 L 22.500000 92.349998 L 20.719999 92.349998 L 23.000000 84.720001 L 24.900000 84.720001 L 27.209999 92.349998 Z M 23.170000 89.430000 L 24.660000 89.430000 L 23.900000 86.269997 Z" fill="#232F3E"/><path d=" M 34.060001 92.349998 L 34.060001 88.639999 C 34.076664 88.401566 34.028278 88.163086 33.920002 87.949997 C 33.818390 87.798111 33.642017 87.713760 33.460003 87.729996 C 33.174561 87.741776 32.897831 87.831711 32.660004 87.989998 C 32.664921 88.029846 32.664921 88.070152 32.660004 88.110001 L 32.660000 92.349998 L 31.000000 92.349998 L 31.000000 88.639999 C 31.019257 88.402504 30.974358 88.164200 30.870001 87.949997 C 30.765142 87.796478 30.585056 87.712181 30.400002 87.729996 C 30.121338 87.744865 29.851856 87.834694 29.620001 87.989998 L 29.620001 92.349998 L 28.000000 92.349998 L 28.000000 86.720001 L 29.350000 86.720001 L 29.480000 87.230003 C 30.005127 86.837898 30.635393 86.611557 31.289999 86.580002 C 31.787903 86.543671 32.259682 86.807076 32.489998 87.250000 C 33.020988 86.851845 33.657448 86.618820 34.320000 86.580002 C 34.698605 86.567619 35.063778 86.720993 35.320000 87.000000 C 35.580429 87.351334 35.707973 87.783562 35.680000 88.220001 L 35.680000 92.349998 Z" fill="#232F3E"/><path d=" M 40.000000 92.349998 L 39.860001 91.839996 C 39.704742 92.042564 39.502155 92.203949 39.270000 92.309998 C 39.023094 92.427322 38.753361 92.488777 38.480000 92.489998 C 38.038441 92.498497 37.613724 92.320625 37.310001 92.000000 C 37.006588 91.668808 36.851307 91.228241 36.880001 90.779999 C 36.856857 90.286880 37.050484 89.808296 37.410000 89.470001 C 37.807274 89.133095 38.320316 88.964470 38.840000 89.000000 C 39.154030 89.006668 39.466179 89.050301 39.770000 89.129997 L 39.770000 88.620003 C 39.797573 88.349762 39.741737 88.077560 39.610001 87.840004 C 39.445477 87.687714 39.222755 87.614693 39.000000 87.640007 C 38.395546 87.665237 37.798565 87.783279 37.230000 87.990005 L 37.230000 87.000000 C 37.513470 86.841469 37.820801 86.730019 38.139999 86.669998 C 38.521481 86.590019 38.910225 86.549805 39.299999 86.549995 C 39.843796 86.502090 40.385880 86.659012 40.820000 86.989998 C 41.164772 87.366852 41.335323 87.871239 41.290001 88.379997 L 41.290001 92.320000 Z M 39.000000 91.430000 C 39.298344 91.418404 39.580971 91.293190 39.790001 91.080002 L 39.790001 90.000000 C 39.584171 89.948074 39.372208 89.924522 39.160000 89.930000 C 38.962250 89.913605 38.767620 89.987053 38.630001 90.129997 C 38.490948 90.293694 38.422604 90.505920 38.440002 90.719994 C 38.429714 90.905304 38.482594 91.088631 38.590004 91.239990 C 38.687565 91.366325 38.840549 91.437218 39.000004 91.429993 Z" fill="#232F3E"/><path d=" M 42.279999 92.349998 L 42.279999 91.279999 L 44.770000 87.879997 L 42.369999 87.879997 L 42.369999 86.720001 L 46.509998 86.720001 L 46.509998 87.790001 L 44.000000 91.190002 L 46.540001 91.190002 L 46.540001 92.349998 Z" fill="#232F3E"/><path d=" M 49.790001 92.489998 C 49.108448 92.512650 48.452259 92.230377 48.000000 91.720001 C 47.133984 90.392052 47.133984 88.677956 48.000000 87.349998 C 49.011749 86.331032 50.657967 86.325180 51.676933 87.336929 C 51.681305 87.341270 51.685661 87.345627 51.690002 87.349998 C 52.556019 88.677948 52.556019 90.392044 51.690002 91.720001 C 51.211487 92.259041 50.508781 92.543823 49.790001 92.489998 Z M 49.790001 91.339996 C 50.076321 91.350388 50.337559 91.177567 50.440002 90.909996 C 50.706799 90.016144 50.706799 89.063843 50.440002 88.169998 C 50.304638 87.813774 49.906124 87.634735 49.549900 87.770103 C 49.365585 87.840141 49.220043 87.985687 49.150002 88.169998 C 48.883205 89.063850 48.883205 90.016151 49.150002 90.909996 C 49.248730 91.175995 49.506416 91.349129 49.790001 91.339996 Z" fill="#232F3E"/><path d=" M 56.549999 92.349998 L 56.549999 88.650002 C 56.566494 88.408363 56.518166 88.166710 56.410000 87.950005 C 56.294102 87.793236 56.103878 87.709541 55.910000 87.730003 C 55.618229 87.741188 55.334908 87.831024 55.090000 87.990005 L 55.090000 92.349998 L 53.439999 92.349998 L 53.439999 86.720001 L 54.790001 86.720001 L 54.930000 87.230003 C 55.464371 86.833908 56.105400 86.607452 56.770000 86.580002 C 57.171432 86.553581 57.563728 86.707565 57.840000 87.000000 C 58.102020 87.350540 58.229740 87.783371 58.200001 88.220001 L 58.200001 92.349998 Z" fill="#232F3E"/><path d=" M 25.129999 106.349998 L 25.129999 98.720001 L 29.670000 98.720001 L 29.670000 99.900002 L 26.820000 99.900002 L 26.820000 101.849998 L 29.110001 101.849998 L 29.110001 103.000000 L 26.820000 103.000000 L 26.820000 105.150002 L 29.670000 105.150002 L 29.670000 106.330002 Z" fill="#232F3E"/><path d=" M 33.189999 106.250000 C 32.869801 106.366165 32.530457 106.420456 32.189999 106.410004 C 31.794245 106.441948 31.403023 106.307922 31.109999 106.040001 C 30.846510 105.729019 30.717052 105.326263 30.749998 104.919998 L 30.750000 98.209999 L 32.410000 98.209999 L 32.410000 104.750000 C 32.397121 104.887192 32.421295 105.025330 32.480000 105.150002 C 32.560696 105.239822 32.680141 105.284615 32.799999 105.270004 C 32.916470 105.279564 33.033527 105.279564 33.149998 105.270004 Z" fill="#232F3E"/><path d=" M 37.110001 106.349998 L 36.959999 105.839996 C 36.809303 106.046989 36.605442 106.209389 36.369999 106.309998 C 36.126694 106.427460 35.860176 106.488968 35.590000 106.489998 C 35.150822 106.513031 34.722321 106.349617 34.410000 106.040001 C 34.103970 105.709824 33.945168 105.269508 33.970001 104.820000 C 33.946857 104.326881 34.140484 103.848297 34.500000 103.510002 C 34.903866 103.177910 35.417988 103.010109 35.939999 103.040001 C 36.254028 103.046669 36.566177 103.090302 36.869999 103.169998 L 36.869999 102.660004 C 36.895195 102.388687 36.835812 102.116226 36.700001 101.880005 C 36.539997 101.726921 36.319851 101.653542 36.100002 101.680008 C 35.492172 101.704216 34.891747 101.822273 34.320004 102.030006 L 34.320000 101.029999 C 34.607075 100.871574 34.917679 100.760162 35.239998 100.699997 C 35.621399 100.619514 36.010197 100.579300 36.399998 100.579994 C 36.943604 100.534027 37.485004 100.690742 37.919998 101.019997 C 38.261158 101.398506 38.428013 101.902695 38.379997 102.409996 L 38.380001 106.349998 Z M 36.110001 105.430000 C 36.411385 105.418922 36.697319 105.293823 36.910000 105.080002 L 36.910000 104.000000 C 36.704060 103.948677 36.492180 103.925140 36.279999 103.930000 C 36.079453 103.914780 35.882248 103.987816 35.739998 104.129997 C 35.608238 104.297188 35.544003 104.507729 35.559998 104.719994 C 35.549709 104.905304 35.602589 105.088631 35.709999 105.239990 C 35.794926 105.354698 35.927376 105.424606 36.070000 105.429993 Z" fill="#232F3E"/><path d=" M 41.779999 104.769997 C 41.779999 104.519997 41.610001 104.309998 41.259998 104.150002 L 40.540001 103.800003 C 39.866486 103.560318 39.414883 102.924881 39.410000 102.210007 C 39.390842 101.733154 39.612499 101.278572 40.000000 101.000008 C 40.422359 100.682838 40.942471 100.523621 41.470001 100.550011 C 41.999649 100.551735 42.522278 100.671295 43.000000 100.900009 L 43.000000 101.900002 C 42.771442 101.820229 42.537525 101.756737 42.299999 101.709999 C 42.102863 101.666542 41.901844 101.643089 41.700001 101.639999 C 41.189999 101.639999 40.930000 101.820000 40.930000 102.180000 C 40.930000 102.540001 41.139999 102.629997 41.570000 102.839996 L 42.290001 103.180000 C 42.598686 103.312111 42.865074 103.526604 43.060001 103.800003 C 43.228264 104.080269 43.311630 104.403313 43.300003 104.730003 C 43.324760 105.215942 43.121365 105.685608 42.750004 106.000000 C 42.325520 106.321449 41.801914 106.484184 41.270004 106.459999 C 40.636276 106.466171 40.010925 106.314987 39.450005 106.019997 L 39.450001 105.019997 C 39.965828 105.217575 40.508698 105.335594 41.060001 105.369995 C 41.264175 105.382927 41.466270 105.322655 41.630001 105.199997 C 41.738655 105.084381 41.793171 104.928108 41.780003 104.769997 Z" fill="#232F3E"/><path d=" M 47.230000 106.199997 C 46.836689 106.347153 46.419933 106.421692 46.000000 106.419998 C 45.527683 106.464508 45.056892 106.320755 44.689999 106.019997 C 44.385262 105.658775 44.237633 105.190689 44.279999 104.719994 L 44.279999 101.820000 L 43.540001 101.820000 L 43.540001 100.900002 L 44.320000 100.750000 L 44.560001 99.209999 L 45.930000 99.209999 L 45.930000 100.720001 L 47.200001 100.720001 L 47.200001 101.820000 L 45.930000 101.820000 L 45.930000 104.589996 C 45.909702 104.774757 45.959682 104.960396 46.070000 105.109993 C 46.216587 105.234970 46.408745 105.292976 46.599998 105.269997 C 46.812237 105.265694 47.023422 105.238876 47.230000 105.189995 Z" fill="#232F3E"/><path d=" M 49.000000 99.809998 C 48.744759 99.822983 48.493183 99.745026 48.290001 99.589996 C 48.112209 99.444801 48.006359 99.229454 48.000000 99.000000 C 47.990192 98.767853 48.085735 98.543694 48.259998 98.389999 C 48.458115 98.224579 48.712517 98.142166 48.969997 98.159996 C 49.224098 98.144775 49.474442 98.227028 49.669998 98.389999 C 49.850449 98.539917 49.950356 98.765633 49.939999 99.000000 C 49.948814 99.234077 49.849194 99.459145 49.669998 99.610001 C 49.478008 99.755119 49.240120 99.826126 49.000000 99.809998 Z M 48.169998 106.349998 L 48.169998 100.720001 L 49.820000 100.720001 L 49.820000 106.349998 Z" fill="#232F3E"/><path d=" M 54.889999 106.089996 C 54.693363 106.213127 54.476799 106.301109 54.250000 106.349998 C 53.984291 106.410645 53.712540 106.440842 53.439999 106.439995 C 52.747513 106.489487 52.070202 106.220772 51.599998 105.709991 C 50.732288 104.400703 50.732288 102.699280 51.599998 101.389992 C 52.080341 100.866623 52.770885 100.587463 53.480000 100.629990 C 53.949951 100.630135 54.412975 100.743317 54.829998 100.959991 L 54.830002 101.959999 C 54.509220 101.842697 54.171452 101.778526 53.830002 101.769997 C 53.471947 101.735214 53.121014 101.886154 52.900002 102.169998 C 52.678040 102.561913 52.577129 103.010796 52.610001 103.459999 L 52.610001 103.620003 C 52.577835 104.064751 52.675083 104.509300 52.889999 104.900002 C 53.098991 105.182068 53.440586 105.333885 53.790001 105.300003 C 54.162647 105.292633 54.531292 105.221611 54.880001 105.090004 Z" fill="#232F3E"/><path d=" M 15.940000 120.349998 L 15.940000 113.940002 L 13.940000 113.940002 L 13.940000 112.720001 L 19.629999 112.720001 L 19.629999 113.940002 L 17.629999 113.940002 L 17.629999 120.349998 Z" fill="#232F3E"/><path d=" M 20.000000 120.349998 L 20.000000 114.720001 L 21.350000 114.720001 L 21.530001 115.449997 C 21.730947 115.209991 21.975180 115.009857 22.250000 114.860001 C 22.478909 114.731735 22.737631 114.666191 23.000000 114.669998 C 23.129810 114.660080 23.260189 114.660080 23.389999 114.669998 L 23.389999 116.000000 C 23.176886 115.986336 22.963114 115.986336 22.750000 116.000000 C 22.368166 116.000481 21.991642 116.089478 21.650000 116.260002 L 21.650000 120.370003 Z" fill="#232F3E"/><path d=" M 27.000000 120.349998 L 26.860001 119.839996 C 26.706903 120.044678 26.503725 120.206528 26.270000 120.309998 C 26.026253 120.426201 25.760021 120.487640 25.490000 120.489998 C 25.050819 120.513031 24.622318 120.349617 24.309999 120.040001 C 24.003969 119.709824 23.845167 119.269508 23.869999 118.820000 C 23.846857 118.326881 24.040482 117.848297 24.400000 117.510002 C 24.803379 117.177032 25.317858 117.009109 25.840000 117.040001 C 26.150675 117.047447 26.459425 117.091080 26.760000 117.169998 L 26.760000 116.660004 C 26.787573 116.389763 26.731737 116.117561 26.600000 115.880005 C 26.435478 115.727715 26.212753 115.654694 25.990000 115.680008 C 25.385546 115.705238 24.788567 115.823280 24.219999 116.030006 L 24.219999 115.029999 C 24.506565 114.870445 24.817354 114.758965 25.139999 114.699997 C 25.518017 114.619484 25.903503 114.579254 26.289999 114.579994 C 26.833797 114.532089 27.375881 114.689011 27.809999 115.019997 C 28.154774 115.396851 28.325321 115.901237 28.279999 116.409996 L 28.280001 120.349998 Z M 26.000000 119.430000 C 26.298346 119.418404 26.580971 119.293190 26.790001 119.080002 L 26.790001 118.000000 C 26.587587 117.947983 26.378916 117.924423 26.170000 117.930000 C 25.969263 117.913399 25.771496 117.986649 25.629999 118.129997 C 25.494661 118.295738 25.426811 118.506424 25.439999 118.719994 C 25.429708 118.905304 25.482592 119.088631 25.589998 119.239990 C 25.688618 119.364990 25.840876 119.435547 25.999998 119.429993 Z" fill="#232F3E"/><path d=" M 32.810001 120.349998 L 32.810001 116.650002 C 32.829315 116.407036 32.777176 116.163719 32.660000 115.950005 C 32.548672 115.793205 32.361149 115.709015 32.169998 115.730003 C 31.877968 115.739677 31.594250 115.829636 31.349998 115.990005 L 31.350000 120.349998 L 29.700001 120.349998 L 29.700001 114.720001 L 31.049999 114.720001 L 31.180000 115.230003 C 31.715239 114.835541 32.355751 114.609268 33.020000 114.580002 C 33.421654 114.552147 33.814541 114.706367 34.090000 115.000000 C 34.355579 115.349174 34.486885 115.782127 34.459999 116.220001 L 34.459999 120.349998 Z" fill="#232F3E"/><path d=" M 37.860001 118.769997 C 37.860001 118.519997 37.680000 118.309998 37.340000 118.150002 L 36.610001 117.800003 C 35.936485 117.560318 35.484882 116.924881 35.480000 116.210007 C 35.446232 115.746109 35.640198 115.294769 36.000000 115.000008 C 36.422359 114.682838 36.942471 114.523621 37.470001 114.550011 C 37.999649 114.551735 38.522278 114.671295 39.000000 114.900009 L 39.000000 115.900002 C 38.771049 115.821503 38.537220 115.758034 38.299999 115.709999 C 38.099594 115.665863 37.895191 115.642410 37.689999 115.639999 C 37.180000 115.639999 36.919998 115.820000 36.919998 116.180000 C 36.919998 116.540001 37.139999 116.629997 37.560001 116.839996 L 38.290001 117.180000 C 38.596878 117.315102 38.862537 117.529015 39.060001 117.800003 C 39.228264 118.080269 39.311630 118.403313 39.300003 118.730003 C 39.320759 119.217346 39.113823 119.686646 38.740002 120.000000 C 38.315517 120.321449 37.791912 120.484184 37.260002 120.459999 C 36.626274 120.466171 36.000923 120.314987 35.440002 120.019997 L 35.439999 119.019997 C 35.958954 119.218719 36.505291 119.336754 37.059998 119.369995 C 37.260902 119.381401 37.459339 119.321159 37.619999 119.199997 C 37.760983 119.100395 37.849236 118.942276 37.860001 118.769997 Z" fill="#232F3E"/><path d=" M 43.900002 120.089996 C 43.703365 120.213127 43.486801 120.301109 43.260002 120.349998 C 42.997776 120.411209 42.729271 120.441414 42.460003 120.439995 C 41.764568 120.489639 41.084152 120.221146 40.610004 119.709991 C 40.156227 119.085075 39.936749 118.320442 39.990005 117.549988 C 39.939228 116.771988 40.177856 116.002678 40.660004 115.389984 C 41.136406 114.867004 41.823833 114.587616 42.530003 114.629982 C 42.999954 114.630127 43.462978 114.743309 43.880001 114.959984 L 43.880001 115.959999 C 43.559464 115.841820 43.221546 115.777618 42.880001 115.769997 C 42.521946 115.735214 42.171013 115.886154 41.950001 116.169998 C 41.732071 116.563194 41.634689 117.011833 41.670002 117.459999 L 41.669998 117.620003 C 41.633049 118.065079 41.730595 118.511002 41.949997 118.900002 C 42.158989 119.182068 42.500584 119.333885 42.849998 119.300003 C 43.219379 119.292480 43.584713 119.221443 43.930000 119.090004 Z" fill="#232F3E"/><path d=" M 47.180000 120.489998 C 46.480713 120.530975 45.801678 120.246811 45.340000 119.720001 C 44.473984 118.392052 44.473984 116.677956 45.340000 115.349998 C 46.338825 114.333794 47.972332 114.319710 48.988537 115.318535 C 48.999115 115.328934 49.009605 115.339424 49.020000 115.349998 C 49.886017 116.677948 49.886017 118.392044 49.020000 119.720001 C 48.556538 120.244324 47.878769 120.527962 47.180000 120.489998 Z M 47.180000 119.339996 C 47.464493 119.352325 47.723888 119.178047 47.820000 118.909996 C 48.086796 118.016144 48.086796 117.063843 47.820000 116.169998 C 47.677578 115.816536 47.275585 115.645454 46.922123 115.787872 C 46.748093 115.857994 46.610123 115.995964 46.539997 116.169998 C 46.273201 117.063850 46.273201 118.016151 46.539997 118.909996 C 46.636108 119.178047 46.895504 119.352325 47.179996 119.339996 Z" fill="#232F3E"/><path d=" M 54.080002 120.349998 L 53.950001 119.860001 C 53.768303 120.040939 53.554710 120.186729 53.320000 120.290001 C 53.092377 120.387421 52.847591 120.438423 52.599998 120.440002 C 52.001472 120.464928 51.431789 120.181969 51.090000 119.690002 C 50.695480 119.052330 50.506935 118.308617 50.549999 117.560005 C 50.505650 116.789658 50.701302 116.024506 51.110001 115.370003 C 51.447571 114.858131 52.027206 114.558846 52.639999 114.580002 C 52.855469 114.590401 53.068012 114.634262 53.270000 114.709999 C 53.488537 114.789223 53.694107 114.900436 53.880001 115.040001 L 53.880001 112.209999 L 55.529999 112.209999 L 55.529999 120.349998 Z M 53.160000 119.349998 C 53.416092 119.346977 53.665955 119.270630 53.880001 119.129997 L 53.880001 116.000000 C 53.642632 115.840775 53.365627 115.750748 53.080002 115.739998 C 52.785641 115.728607 52.516514 115.905350 52.410004 116.180000 C 52.243649 116.623573 52.172112 117.097084 52.200005 117.570000 C 52.171814 118.034950 52.250492 118.500175 52.430004 118.930000 C 52.576847 119.190842 52.861549 119.342941 53.160004 119.320000 Z" fill="#232F3E"/><path d=" M 58.169998 117.919998 C 58.149250 118.324760 58.277298 118.723129 58.529999 119.040001 C 58.825565 119.286263 59.206879 119.404976 59.590000 119.370003 C 59.819202 119.363998 60.047131 119.333832 60.270000 119.280006 C 60.541527 119.230042 60.808941 119.159843 61.070000 119.070007 L 61.070000 120.070000 C 60.811760 120.217194 60.531506 120.321869 60.239998 120.379997 C 59.911472 120.451813 59.576275 120.488686 59.239998 120.489998 C 57.520000 120.489998 56.660000 119.489998 56.660000 117.540001 C 56.605515 116.753960 56.832363 115.974152 57.299999 115.340004 C 57.754650 114.816292 58.427925 114.535149 59.119999 114.580002 C 60.490002 114.580002 61.119999 115.339996 61.119999 116.870003 C 61.119125 117.206871 61.078854 117.542488 61.000000 117.870003 Z M 59.080002 115.599998 C 58.500000 115.599998 58.200001 116.059998 58.169998 116.970001 L 59.779999 116.970001 L 59.779999 116.720001 C 59.800442 116.423340 59.741779 116.126572 59.610001 115.860001 C 59.492512 115.684830 59.290443 115.585701 59.080002 115.599998 Z" fill="#232F3E"/><path d=" M 62.310001 120.349998 L 62.310001 114.720001 L 63.660000 114.720001 L 63.840000 115.449997 C 64.040947 115.209991 64.285179 115.009857 64.559998 114.860001 C 64.789421 114.733040 65.047791 114.667580 65.309998 114.669998 C 65.439812 114.660080 65.570190 114.660080 65.699997 114.669998 L 65.699997 116.000000 C 65.486885 115.986336 65.273109 115.986336 65.059998 116.000000 C 64.678162 116.000481 64.301636 116.089478 63.959999 116.260002 L 63.959999 120.370003 Z" fill="#232F3E"/></g><g id="ICONS_-_EDIT"><path d=" M 18.170000 38.439999 C 17.548124 37.177914 17.232912 35.786873 17.250000 34.379997 C 17.098818 30.874405 19.315880 27.702490 22.660000 26.639997 C 22.660000 26.469999 22.660000 26.299999 22.660000 26.120001 C 22.766630 21.774870 25.311827 17.860373 29.240000 16.000000 C 33.492355 14.102086 38.479046 15.087408 41.689999 18.459999 C 42.698689 19.481342 43.524071 20.668674 44.129997 21.969999 C 44.995480 21.320889 46.048145 20.969999 47.129997 20.969999 C 49.430000 20.969999 52.020000 22.690001 52.540001 26.459999 C 54.951118 26.974630 57.019997 28.510782 58.209999 30.669998 L 56.430000 31.570000 C 55.220001 29.160000 52.529999 28.450001 51.430000 28.260000 C 50.912838 28.168383 50.554680 27.692295 50.610001 27.170000 C 50.369999 24.270000 48.700001 22.969999 47.130001 22.969999 C 46.116051 22.988783 45.170609 23.485603 44.580002 24.309999 C 44.244980 24.749065 43.617458 24.833412 43.178394 24.498392 C 43.013344 24.372454 42.891582 24.198267 42.830002 24.000000 C 42.301918 22.431858 41.426861 21.003056 40.270000 19.820000 C 37.628990 17.036530 33.513680 16.233541 30.020000 17.820000 C 26.816532 19.377848 24.746355 22.589127 24.650000 26.150000 C 24.648417 26.527502 24.668449 26.904787 24.709999 27.279999 C 24.744558 27.562298 24.657278 27.845957 24.469999 28.059999 C 24.321211 28.227507 24.120481 28.340199 23.900000 28.379999 C 21.079521 28.954905 19.102980 31.505283 19.250000 34.379997 C 19.235388 35.476543 19.474983 36.561569 19.950001 37.549995 Z" fill="#FFFFFF"/><path d=" M 56.250000 47.000000 C 51.555580 47.000000 47.750000 43.194420 47.750000 38.500000 C 47.750000 33.805580 51.555580 30.000000 56.250000 30.000000 C 60.944420 30.000000 64.750000 33.805580 64.750000 38.500000 C 64.744492 43.192135 60.942135 46.994488 56.250000 47.000000 Z M 56.250000 32.000000 C 52.660149 32.000000 49.750000 34.910149 49.750000 38.500000 C 49.750000 42.089851 52.660149 45.000000 56.250000 45.000000 C 59.839851 45.000000 62.750000 42.089851 62.750000 38.500000 C 62.744492 34.912434 59.837566 32.005508 56.250000 32.000000 Z" fill="#FFFFFF"/><rect x="34.670000" y="42.010000" width="14.840000" height="2.000000" fill="#FFFFFF" transform="matrix(0.921592,-0.388159,0.388159,0.921592,-13.390000,19.700000)"/><rect x="41.010000" y="47.120000" width="2.000000" height="14.410000" fill="#FFFFFF" transform="matrix(0.345626,-0.938372,0.938372,0.345626,-23.490000,74.970000)"/><path d=" M 35.250000 59.000000 L 16.250000 59.000000 C 15.697715 59.000000 15.250000 58.552284 15.250000 58.000000 L 15.250000 41.000000 C 15.250000 40.447716 15.697715 40.000000 16.250000 40.000000 L 35.250000 40.000000 C 35.802284 40.000000 36.250000 40.447716 36.250000 41.000000 L 36.250000 58.000000 C 36.250000 58.552284 35.802284 59.000000 35.250000 59.000000 Z M 17.250000 57.000000 L 34.250000 57.000000 L 34.250000 42.000000 L 17.250000 42.000000 Z" fill="#FFFFFF"/><path d=" M 21.320000 55.070000 C 21.137125 55.071762 20.957270 55.023338 20.799999 54.930000 C 20.500137 54.747459 20.317955 54.421047 20.320000 54.070000 L 20.320000 44.919998 C 20.302132 44.368004 20.735128 43.906036 21.287125 43.888168 C 21.458282 43.882629 21.627995 43.921135 21.780001 43.999996 L 30.639999 48.580002 C 30.972399 48.752205 31.180779 49.095646 31.180000 49.470001 C 31.180779 49.844357 30.972401 50.187798 30.639999 50.360001 L 21.780001 55.000000 C 21.634304 55.059177 21.476706 55.083160 21.320002 55.070000 Z M 22.320000 46.560001 L 22.320000 52.430000 L 28.000000 49.500000 Z" fill="#FFFFFF"/><path d=" M 54.250000 43.000000 C 54.070518 42.999947 53.894356 42.951588 53.740002 42.860001 C 53.436302 42.679935 53.250065 42.353069 53.250000 42.000000 L 53.250000 35.000000 C 53.251472 34.447716 53.700378 34.001198 54.252663 34.002666 C 54.415676 34.003101 54.576115 34.043381 54.720001 34.119999 L 61.220001 37.619999 C 61.545349 37.793236 61.749016 38.131405 61.750000 38.500000 C 61.749016 38.868595 61.545345 39.206760 61.220001 39.380001 L 54.720001 42.880001 C 54.575558 42.957970 54.414143 42.999180 54.250000 43.000000 Z M 55.250000 36.669998 L 55.250000 40.320000 L 58.639999 38.500000 Z" fill="#FFFFFF"/><path d=" M 56.250000 65.000000 C 51.555580 65.000000 47.750000 61.194420 47.750000 56.500000 C 47.750000 51.805580 51.555580 48.000000 56.250000 48.000000 C 60.944420 48.000000 64.750000 51.805580 64.750000 56.500000 C 64.744492 61.192135 60.942135 64.994492 56.250000 65.000000 Z M 56.250000 50.000000 C 52.660149 50.000000 49.750000 52.910149 49.750000 56.500000 C 49.750000 60.089851 52.660149 63.000000 56.250000 63.000000 C 59.839851 63.000000 62.750000 60.089851 62.750000 56.500000 C 62.744492 52.912434 59.837566 50.005508 56.250000 50.000000 Z" fill="#FFFFFF"/><path d=" M 54.250000 61.000000 C 54.070518 60.999947 53.894356 60.951588 53.740002 60.860001 C 53.436302 60.679935 53.250065 60.353069 53.250000 60.000000 L 53.250000 53.000000 C 53.251472 52.447716 53.700378 52.001198 54.252663 52.002666 C 54.415676 52.003101 54.576115 52.043381 54.720001 52.119999 L 61.220001 55.619999 C 61.545349 55.793236 61.749016 56.131405 61.750000 56.500000 C 61.749016 56.868595 61.545345 57.206760 61.220001 57.380001 L 54.720001 60.880001 C 54.575558 60.957970 54.414143 60.999180 54.250000 61.000000 Z M 55.250000 54.669998 L 55.250000 58.320000 L 58.639999 56.500000 Z" fill="#FFFFFF"/></g></svg>