<svg version="1.1" width="80.000000" height="130.000000" viewBox="0.000000 0.000000 80.000000 130.000000" xmlns="http://www.w3.org/2000/svg" xmlns:xlink="http://www.w3.org/1999/xlink" overflow="hidden"><g id="CARDS"><rect x="1.000000" y="1.000000" width="78.000000" height="78.000000" fill="#232F3E"/><path d=" M 0.000000 0.000000 L 0.000000 80.000000 L 0.000000 80.000000 L 0.000000 130.000000 L 80.000000 130.000000 L 80.000000 80.000000 L 80.000000 80.000000 L 80.000000 0.000000 Z M 1.000000 1.000000 L 79.000000 1.000000 L 79.000000 79.000000 L 1.000000 79.000000 Z" fill="#FFFFFF"/></g><g id="TEXT_-_AWS_Elemental_MediaPackage"><path d=" M 33.689999 92.349998 L 33.250000 90.529999 L 31.250000 90.529999 L 30.830000 92.349998 L 29.059999 92.349998 L 31.370001 84.720001 L 33.240002 84.720001 L 35.540001 92.349998 Z M 31.510000 89.430000 L 33.000000 89.430000 L 32.240002 86.269997 Z" fill="#232F3E"/><path d=" M 40.889999 92.349998 L 40.000000 86.720001 L 39.110001 92.349998 L 37.189999 92.349998 L 35.410000 84.720001 L 37.110001 84.720001 L 38.169998 90.779999 L 39.080002 85.000000 L 40.919998 85.000000 L 41.860001 90.650002 L 42.860001 84.650002 L 44.520000 84.650002 L 42.740002 92.279999 Z" fill="#232F3E"/><path d=" M 46.840000 89.000000 C 46.345402 88.768761 45.910801 88.426559 45.570000 88.000000 C 45.307678 87.644348 45.170536 87.211830 45.180000 86.769997 C 45.168892 86.354126 45.287739 85.945145 45.520000 85.599998 C 45.745701 85.259720 46.065289 84.992241 46.439999 84.830002 C 46.861813 84.643929 47.319042 84.551804 47.779999 84.560005 C 48.429764 84.562088 49.072483 84.694710 49.669998 84.950005 L 49.669998 86.120003 C 49.134098 85.923050 48.570534 85.811684 48.000000 85.790001 C 47.718163 85.774521 47.439480 85.855652 47.209999 86.020004 C 47.013199 86.172058 46.904575 86.411781 46.919998 86.660004 C 46.912312 86.862022 46.976040 87.060295 47.099998 87.220001 C 47.307770 87.423737 47.552021 87.586571 47.820000 87.700005 L 48.470001 88.019997 C 48.826054 88.187546 49.161602 88.395592 49.470001 88.639999 C 49.698788 88.827263 49.883213 89.062912 50.010002 89.330002 C 50.129375 89.621704 50.187252 89.934906 50.180000 90.250000 C 50.210262 90.886475 49.935429 91.499283 49.439999 91.900002 C 48.864475 92.329575 48.157295 92.545265 47.439999 92.510002 C 47.060139 92.510231 46.681335 92.470001 46.309998 92.389999 C 45.964050 92.327736 45.627823 92.220139 45.309998 92.070000 L 45.310001 90.919998 C 45.637497 91.025146 45.971550 91.108665 46.310001 91.169998 C 46.639122 91.238113 46.973946 91.274940 47.310001 91.279999 C 47.623581 91.302475 47.935078 91.213982 48.190002 91.029999 C 48.396397 90.853905 48.507595 90.590736 48.490002 90.320000 C 48.496090 90.107033 48.421024 89.899704 48.280003 89.739998 C 48.072327 89.543411 47.832092 89.384384 47.570004 89.269997 Z" fill="#232F3E"/><path d=" M 16.610001 106.349998 L 16.610001 98.720001 L 21.150000 98.720001 L 21.150000 99.900002 L 18.299999 99.900002 L 18.299999 101.849998 L 20.580000 101.849998 L 20.580000 103.000000 L 18.299999 103.000000 L 18.299999 105.150002 L 21.150000 105.150002 L 21.150000 106.330002 Z" fill="#232F3E"/><path d=" M 24.670000 106.250000 C 24.349802 106.366165 24.010456 106.420456 23.670000 106.410004 C 23.273781 106.445717 22.881079 106.311180 22.590000 106.040001 C 22.326511 105.729019 22.197054 105.326263 22.230000 104.919998 L 22.230000 98.209999 L 23.879999 98.209999 L 23.879999 104.750000 C 23.869198 104.888161 23.896889 105.026619 23.959999 105.150002 C 24.039671 105.241310 24.159935 105.286407 24.279999 105.270004 C 24.396490 105.279053 24.513508 105.279053 24.629999 105.270004 Z" fill="#232F3E"/><path d=" M 26.780001 103.919998 C 26.759251 104.324760 26.887299 104.723129 27.140001 105.040001 C 27.435566 105.286263 27.816881 105.404976 28.200001 105.370003 C 28.429201 105.363998 28.657129 105.333832 28.880001 105.280006 C 29.151527 105.230042 29.418940 105.159843 29.680000 105.070007 L 29.680000 106.070000 C 29.421759 106.217194 29.141508 106.321869 28.850000 106.379997 C 28.521477 106.451813 28.186279 106.488686 27.850000 106.489998 C 26.129999 106.489998 25.270000 105.489998 25.270000 103.540001 C 25.215513 102.753960 25.442366 101.974152 25.910000 101.340004 C 26.364651 100.816292 27.037926 100.535149 27.730000 100.580002 C 29.100000 100.580002 29.780001 101.339996 29.780001 102.870003 C 29.779127 103.206871 29.738853 103.542488 29.660000 103.870003 Z M 27.690001 101.599998 C 27.110001 101.599998 26.809999 102.059998 26.780001 102.970001 L 28.389999 102.970001 L 28.389999 102.720001 C 28.410442 102.423340 28.351778 102.126572 28.219999 101.860001 C 28.102509 101.684830 27.900440 101.585701 27.689999 101.599998 Z" fill="#232F3E"/><path d=" M 37.000000 106.349998 L 37.000000 102.639999 C 37.019257 102.402504 36.974358 102.164200 36.869999 101.949997 C 36.765141 101.796478 36.585052 101.712181 36.399998 101.729996 C 36.117710 101.742058 35.844273 101.832047 35.609997 101.989998 C 35.610001 101.989998 35.610001 102.070000 35.610001 102.110001 L 35.610001 106.349998 L 34.000000 106.349998 L 34.000000 102.639999 C 34.016663 102.401566 33.968277 102.163086 33.860001 101.949997 C 33.758389 101.798111 33.582016 101.713760 33.400002 101.729996 C 33.117992 101.743576 32.844955 101.833435 32.610001 101.989998 L 32.610001 106.349998 L 30.920000 106.349998 L 30.920000 100.720001 L 32.270000 100.720001 L 32.400002 101.230003 C 32.926559 100.840569 33.555988 100.614525 34.210003 100.580002 C 34.710239 100.544861 35.184319 100.807365 35.420002 101.250000 C 35.949543 100.849174 36.586838 100.615852 37.250004 100.580002 C 37.629108 100.564880 37.995392 100.718712 38.250004 101.000000 C 38.510433 101.351334 38.637978 101.783562 38.610004 102.220001 L 38.610001 106.349998 Z" fill="#232F3E"/><path d=" M 41.259998 103.919998 C 41.239250 104.324760 41.367298 104.723129 41.619999 105.040001 C 41.915565 105.286263 42.296879 105.404976 42.680000 105.370003 C 42.909248 105.364609 43.137241 105.334435 43.360001 105.280006 C 43.631527 105.230042 43.898941 105.159843 44.160000 105.070007 L 44.160000 106.070000 C 43.901760 106.217194 43.621506 106.321869 43.329998 106.379997 C 43.001472 106.451813 42.666275 106.488686 42.329998 106.489998 C 40.610001 106.489998 39.750000 105.489998 39.750000 103.540001 C 39.699844 102.754425 39.926273 101.976082 40.389999 101.340004 C 40.844650 100.816292 41.517925 100.535149 42.209999 100.580002 C 43.580002 100.580002 44.259998 101.339996 44.259998 102.870003 C 44.259125 103.206871 44.218853 103.542488 44.139999 103.870003 Z M 42.169998 101.599998 C 41.599998 101.599998 41.290001 102.059998 41.259998 102.970001 L 42.869999 102.970001 L 42.869999 102.720001 C 42.895039 102.423065 42.836132 102.125076 42.700001 101.860001 C 42.583954 101.683182 42.380859 101.583549 42.170002 101.599998 Z" fill="#232F3E"/><path d=" M 48.509998 106.349998 L 48.509998 102.650002 C 48.526493 102.408363 48.478165 102.166710 48.369999 101.950005 C 48.254101 101.793236 48.063877 101.709541 47.869999 101.730003 C 47.577969 101.739677 47.294250 101.829636 47.049999 101.990005 L 47.049999 106.349998 L 45.400002 106.349998 L 45.400002 100.720001 L 46.750000 100.720001 L 46.880001 101.230003 C 47.418892 100.835289 48.062653 100.609108 48.730000 100.580002 C 49.128468 100.553772 49.517635 100.707970 49.790001 101.000000 C 50.059731 101.347038 50.191525 101.781601 50.160000 102.220001 L 50.160000 106.349998 Z" fill="#232F3E"/><path d=" M 54.599998 106.199997 C 54.206230 106.345474 53.789780 106.419960 53.369999 106.419998 C 52.894669 106.463928 52.420990 106.320389 52.049999 106.019997 C 51.749146 105.656647 51.602036 105.190201 51.639999 104.719994 L 51.639999 101.820000 L 50.910000 101.820000 L 50.910000 100.900002 L 51.689999 100.750000 L 51.930000 99.209999 L 53.290001 99.209999 L 53.290001 100.720001 L 54.570000 100.720001 L 54.570000 101.820000 L 53.290001 101.820000 L 53.290001 104.589996 C 53.271530 104.776146 53.325222 104.962288 53.440002 105.109993 C 53.586590 105.234970 53.778748 105.292976 53.970001 105.269997 C 54.182240 105.265694 54.393425 105.238876 54.600002 105.189995 Z" fill="#232F3E"/><path d=" M 58.380001 106.349998 L 58.230000 105.839996 C 58.079304 106.046989 57.875443 106.209389 57.639999 106.309998 C 57.396694 106.427460 57.130177 106.488968 56.860001 106.489998 C 56.420822 106.513031 55.992321 106.349617 55.680000 106.040001 C 55.069267 105.292549 55.112175 104.206917 55.779999 103.510002 C 56.177273 103.173096 56.690315 103.004471 57.209999 103.040001 C 57.524029 103.046669 57.836178 103.090302 58.139999 103.169998 L 58.139999 102.660004 C 58.165195 102.388687 58.105812 102.116226 57.970001 101.880005 C 57.809998 101.726921 57.589851 101.653542 57.370003 101.680008 C 56.762173 101.704216 56.161747 101.822273 55.590004 102.030006 L 55.590000 101.029999 C 55.877075 100.871574 56.187679 100.760162 56.509998 100.699997 C 56.891399 100.619514 57.280197 100.579300 57.669998 100.579994 C 58.213604 100.534027 58.755005 100.690742 59.189999 101.019997 C 59.534771 101.396851 59.705322 101.901237 59.660000 102.409996 L 59.660000 106.349998 Z M 57.380001 105.430000 C 57.681385 105.418922 57.967319 105.293823 58.180000 105.080002 L 58.180000 104.000000 C 57.974060 103.948677 57.762180 103.925140 57.549999 103.930000 C 57.349453 103.914780 57.152248 103.987816 57.009998 104.129997 C 56.878239 104.297188 56.814003 104.507729 56.829998 104.719994 C 56.819710 104.905304 56.872589 105.088631 56.980000 105.239990 C 57.064926 105.354698 57.197376 105.424606 57.340000 105.429993 Z" fill="#232F3E"/><path d=" M 63.450001 106.250000 C 63.129803 106.366165 62.790459 106.420456 62.450001 106.410004 C 62.053783 106.445717 61.661079 106.311180 61.369999 106.040001 C 61.106510 105.729019 60.977055 105.326263 61.009998 104.919998 L 61.009998 98.209999 L 62.700001 98.209999 L 62.700001 104.750000 C 62.689198 104.888161 62.716888 105.026619 62.780003 105.150002 C 62.859673 105.241310 62.979939 105.286407 63.100002 105.270004 C 63.216473 105.279564 63.333530 105.279564 63.450001 105.270004 Z" fill="#232F3E"/><path d=" M 12.110000 120.349998 L 12.110000 115.000000 L 10.700000 118.459999 L 9.270000 118.459999 L 7.870000 115.000000 L 7.870000 120.320000 L 6.360000 120.320000 L 6.360000 112.690002 L 8.290000 112.690002 L 10.000000 117.000000 L 11.730000 112.730003 L 13.610000 112.730003 L 13.610000 120.360001 Z" fill="#232F3E"/><path d=" M 16.360001 117.919998 C 16.348793 118.323456 16.475813 118.718628 16.720001 119.040001 C 17.015566 119.286263 17.396881 119.404976 17.780001 119.370003 C 18.009293 119.365166 18.237347 119.334984 18.460001 119.280006 C 18.734560 119.228943 19.005217 119.158775 19.270000 119.070007 L 19.270000 120.070000 C 19.007084 120.214767 18.723930 120.319267 18.430000 120.379997 C 18.101601 120.452568 17.766321 120.489449 17.430000 120.489998 C 15.710000 120.489998 14.850000 119.489998 14.850000 117.540001 C 14.796962 116.755630 15.019818 115.977402 15.480000 115.340004 C 15.937766 114.814682 16.614765 114.533524 17.310001 114.580002 C 18.670000 114.580002 19.309999 115.339996 19.309999 116.870003 C 19.309126 117.206871 19.268852 117.542488 19.189999 117.870003 Z M 17.280001 115.599998 C 16.700001 115.599998 16.389999 116.059998 16.360001 116.970001 L 18.000000 116.970001 L 18.000000 116.720001 C 18.020443 116.423340 17.961779 116.126572 17.830000 115.860001 C 17.708925 115.678207 17.497326 115.578178 17.280001 115.599998 Z" fill="#232F3E"/><path d=" M 23.760000 120.349998 L 23.629999 119.860001 C 23.444744 120.041252 23.227823 120.186996 22.990000 120.290001 C 22.766144 120.388222 22.524456 120.439285 22.280001 120.440002 C 21.681070 120.466835 21.110512 120.183449 20.770000 119.690002 C 20.375483 119.052330 20.186935 118.308617 20.230000 117.560005 C 20.182665 116.790710 20.374805 116.025650 20.779999 115.370003 C 21.117567 114.858131 21.697205 114.558846 22.309999 114.580002 C 22.528847 114.589363 22.744843 114.633240 22.949999 114.709999 C 23.165470 114.789169 23.367752 114.900421 23.549999 115.040001 L 23.549999 112.209999 L 25.209999 112.209999 L 25.209999 120.349998 Z M 22.830000 119.349998 C 23.086092 119.346977 23.335955 119.270630 23.549999 119.129997 L 23.549999 116.000000 C 23.316931 115.839607 23.042770 115.749374 22.759998 115.739998 C 22.463701 115.730316 22.192577 115.905746 22.079998 116.180000 C 21.922731 116.625710 21.854773 117.098030 21.879997 117.570000 C 21.851807 118.034950 21.930485 118.500175 22.109997 118.930000 C 22.251595 119.191101 22.533943 119.344040 22.829996 119.320000 Z" fill="#232F3E"/><path d=" M 27.490000 113.809998 C 27.234758 113.822983 26.983181 113.745026 26.780001 113.589996 C 26.608063 113.434639 26.513006 113.211624 26.520000 112.979996 C 26.510191 112.747849 26.605736 112.523689 26.780001 112.369995 C 26.978119 112.204575 27.232521 112.122162 27.490000 112.139992 C 27.744102 112.124771 27.994446 112.207024 28.190001 112.369995 C 28.370451 112.519913 28.470358 112.745628 28.460001 112.979996 C 28.468815 113.214073 28.369198 113.439140 28.190001 113.589996 C 27.992973 113.749374 27.742781 113.828011 27.490000 113.809998 Z M 26.660000 120.349998 L 26.660000 114.720001 L 28.309999 114.720001 L 28.309999 120.349998 Z" fill="#232F3E"/><path d=" M 32.669998 120.349998 L 32.529999 119.839996 C 32.376900 120.044678 32.173721 120.206528 31.939999 120.309998 C 31.696251 120.426201 31.430019 120.487640 31.159998 120.489998 C 30.721657 120.496910 30.300638 120.319069 29.999998 120.000000 C 29.693968 119.669823 29.535166 119.229507 29.559998 118.779999 C 29.536856 118.286880 29.730480 117.808296 30.089998 117.470001 C 30.493378 117.137032 31.007856 116.969109 31.529999 117.000000 C 31.840673 117.007446 32.149422 117.051079 32.449997 117.129997 L 32.450001 116.620003 C 32.477573 116.349762 32.421738 116.077560 32.290001 115.840004 C 32.125477 115.687714 31.902754 115.614693 31.680000 115.640007 C 31.075546 115.665237 30.478567 115.783279 29.910000 115.990005 L 29.910000 114.989998 C 30.196566 114.830444 30.507355 114.718964 30.830000 114.659996 C 31.208017 114.579483 31.593504 114.539253 31.980000 114.539993 C 32.523796 114.492088 33.065880 114.649010 33.500000 114.979996 C 33.844772 115.356850 34.015324 115.861237 33.970001 116.369995 L 33.970001 120.309998 Z M 31.670000 119.430000 C 31.968346 119.418404 32.250969 119.293190 32.459999 119.080002 L 32.459999 118.000000 C 32.257587 117.947983 32.048912 117.924423 31.839998 117.930000 C 31.639261 117.913399 31.441494 117.986649 31.299997 118.129997 C 31.164660 118.295738 31.096809 118.506424 31.109997 118.719994 C 31.098276 118.907021 31.155165 119.091904 31.269997 119.239990 C 31.357069 119.357422 31.493826 119.427643 31.639997 119.429993 Z" fill="#232F3E"/><path d=" M 37.110001 117.519997 L 37.110001 120.349998 L 35.459999 120.349998 L 35.459999 112.720001 L 38.099998 112.720001 C 38.750202 112.691185 39.384609 112.925476 39.859997 113.370003 C 40.740032 114.370712 40.740032 115.869293 39.859997 116.870003 C 39.384605 117.314522 38.750202 117.548820 38.099998 117.520004 Z M 37.110001 116.370003 L 37.889999 116.370003 C 38.165878 116.388420 38.433788 116.273071 38.610001 116.060005 C 38.790741 115.781036 38.878277 115.451904 38.860001 115.120003 C 38.879669 114.791100 38.791931 114.464714 38.610001 114.190002 C 38.438015 113.970413 38.168243 113.850517 37.889999 113.870003 L 37.110001 113.870003 Z" fill="#232F3E"/><path d=" M 44.459999 120.349998 L 44.310001 119.839996 C 44.159306 120.046989 43.955444 120.209389 43.720001 120.309998 C 43.476254 120.426201 43.210022 120.487640 42.940002 120.489998 C 42.500824 120.513031 42.072323 120.349617 41.760002 120.040001 C 41.453972 119.709824 41.295170 119.269508 41.320004 118.820000 C 41.296860 118.326881 41.490486 117.848297 41.850002 117.510002 C 42.253868 117.177910 42.767990 117.010109 43.290001 117.040001 C 43.604031 117.046669 43.916180 117.090302 44.220001 117.169998 L 44.220001 116.660004 C 44.245197 116.388687 44.185814 116.116226 44.050003 115.880005 C 43.889999 115.726921 43.669853 115.653542 43.450005 115.680008 C 42.842175 115.704216 42.241749 115.822273 41.670006 116.030006 L 41.669998 115.029999 C 41.957073 114.871574 42.267677 114.760162 42.589996 114.699997 C 42.971397 114.619514 43.360195 114.579300 43.749996 114.579994 C 44.290737 114.531685 44.829842 114.688774 45.259995 115.019997 C 45.609226 115.394203 45.780468 115.900635 45.729996 116.409996 L 45.730000 120.349998 Z M 43.459999 119.430000 C 43.761383 119.418922 44.047318 119.293823 44.259998 119.080002 L 44.259998 118.000000 C 44.054058 117.948677 43.842178 117.925140 43.629997 117.930000 C 43.429451 117.914780 43.232246 117.987816 43.089996 118.129997 C 42.958237 118.297188 42.894001 118.507729 42.909996 118.719994 C 42.899708 118.905304 42.952587 119.088631 43.059998 119.239990 C 43.144924 119.354698 43.277374 119.424606 43.419998 119.429993 Z" fill="#232F3E"/><path d=" M 50.770000 120.089996 C 50.573364 120.213127 50.356800 120.301109 50.130001 120.349998 C 49.864380 120.411171 49.592571 120.441368 49.320000 120.439995 C 48.627514 120.489487 47.950203 120.220772 47.480000 119.709991 C 46.612289 118.400703 46.612289 116.699280 47.480000 115.389992 C 47.960342 114.866623 48.650887 114.587463 49.360001 114.629990 C 49.829952 114.630135 50.292976 114.743317 50.709999 114.959991 L 50.709999 115.959999 C 50.389462 115.841820 50.051544 115.777618 49.709999 115.769997 C 49.351944 115.735214 49.001011 115.886154 48.779999 116.169998 C 48.558037 116.561913 48.457127 117.010796 48.489998 117.459999 L 48.490002 117.620003 C 48.457836 118.064751 48.555084 118.509300 48.770000 118.900002 C 48.980892 119.185333 49.327187 119.337547 49.680000 119.300003 C 50.049297 119.291695 50.414497 119.220688 50.760002 119.090004 Z" fill="#232F3E"/><path d=" M 51.820000 120.349998 L 51.820000 112.209999 L 53.439999 112.209999 L 53.439999 117.209999 L 55.080002 114.769997 L 56.910000 114.769997 L 54.910000 117.459999 L 57.080002 120.400002 L 55.200001 120.400002 L 53.439999 117.800003 L 53.439999 120.400002 Z" fill="#232F3E"/><path d=" M 60.720001 120.349998 L 60.580002 119.839996 C 60.424744 120.042564 60.222157 120.203949 59.990002 120.309998 C 59.743095 120.427322 59.473362 120.488777 59.200001 120.489998 C 58.748096 120.507111 58.310764 120.328537 58.000000 120.000000 C 57.696587 119.668808 57.541306 119.228241 57.570000 118.779999 C 57.546856 118.286880 57.740482 117.808296 58.099998 117.470001 C 58.497272 117.133095 59.010315 116.964470 59.529999 117.000000 C 59.844028 117.006668 60.156178 117.050301 60.459999 117.129997 L 60.459999 116.620003 C 60.487572 116.349762 60.431736 116.077560 60.299999 115.840004 C 60.135475 115.687714 59.912754 115.614693 59.689999 115.640007 C 59.085545 115.665237 58.488564 115.783279 57.919998 115.990005 L 57.919998 114.989998 C 58.203468 114.831467 58.510799 114.720016 58.829998 114.659996 C 59.211479 114.580017 59.600224 114.539803 59.989998 114.539993 C 60.533794 114.492088 61.075878 114.649010 61.509998 114.979996 C 61.854771 115.356850 62.025322 115.861237 61.980000 116.369995 L 61.980000 120.309998 Z M 59.720001 119.430000 C 60.018345 119.418404 60.300972 119.293190 60.510002 119.080002 L 60.509998 118.000000 C 60.304169 117.948074 60.092205 117.924522 59.879997 117.930000 C 59.682247 117.913605 59.487617 117.987053 59.349998 118.129997 C 59.210945 118.293694 59.142601 118.505920 59.160000 118.719994 C 59.149712 118.905304 59.202591 119.088631 59.310001 119.239990 C 59.401196 119.357796 59.541039 119.427719 59.690002 119.429993 Z" fill="#232F3E"/><path d=" M 66.300003 119.709999 C 65.644325 120.397354 64.555588 120.423027 63.868233 119.767349 C 63.783226 119.686256 63.706749 119.596672 63.640003 119.499992 C 63.266983 118.901863 63.085556 118.204063 63.120003 117.499992 C 63.077824 116.757774 63.266457 116.020699 63.660004 115.389992 C 63.978340 114.895462 64.532104 114.603409 65.120003 114.619995 C 65.362602 114.627502 65.600983 114.685402 65.820000 114.789993 C 66.062386 114.893715 66.280388 115.046997 66.459999 115.239990 L 66.580002 114.760002 L 67.930000 114.760002 L 67.930000 120.000000 C 67.930000 121.860001 67.070000 122.790001 65.360001 122.790001 C 64.723320 122.794128 64.095215 122.643105 63.529999 122.349998 L 63.529999 121.349998 C 64.045830 121.547577 64.588699 121.665596 65.139999 121.699997 C 65.380508 121.715515 65.621094 121.670830 65.839996 121.570000 C 66.011475 121.476830 66.137779 121.318039 66.189995 121.129997 C 66.279320 120.804581 66.316452 120.467049 66.299995 120.129997 Z M 65.639999 119.110001 C 65.876289 119.100060 66.105003 119.023819 66.300003 118.889999 L 66.300003 116.000000 C 66.086563 115.836784 65.828400 115.742584 65.560005 115.730003 C 65.290810 115.727432 65.049728 115.896187 64.960007 116.150002 C 64.808281 116.565742 64.743614 117.008224 64.770004 117.450005 C 64.756516 117.878319 64.834938 118.304550 65.000008 118.700005 C 65.114105 118.950676 65.364594 119.111145 65.640007 119.110008 Z" fill="#232F3E"/><path d=" M 70.559998 117.919998 C 70.546593 118.325401 70.677734 118.722366 70.930000 119.040001 C 71.224472 119.288261 71.606644 119.407242 71.989998 119.370003 C 72.219200 119.363998 72.447128 119.333832 72.669998 119.280006 C 72.941246 119.228806 73.208572 119.158638 73.470001 119.070007 L 73.470001 120.070000 C 73.210983 120.215523 72.931000 120.320099 72.639999 120.379997 C 72.311478 120.451813 71.976280 120.488686 71.639999 120.489998 C 69.919998 120.489998 69.059998 119.489998 69.059998 117.540001 C 69.006958 116.755630 69.229813 115.977402 69.689995 115.340004 C 70.147758 114.814682 70.824760 114.533524 71.519997 114.580002 C 72.879997 114.580002 73.519997 115.339996 73.519997 116.870003 C 73.519127 117.206871 73.478851 117.542488 73.399994 117.870003 Z M 71.480003 115.599998 C 70.900002 115.599998 70.599998 116.059998 70.559998 116.970001 L 72.180000 116.970001 L 72.180000 116.720001 C 72.200439 116.423340 72.141777 116.126572 72.010002 115.860001 C 71.892509 115.684830 71.690445 115.585701 71.480003 115.599998 Z" fill="#232F3E"/></g><g id="ICONS_-_EDIT"><g id="MARK_-_AWS_Elemental_MediaPackage"><path d=" M 40.000000 64.089996 C 39.824825 64.091209 39.652405 64.046379 39.500000 63.959995 L 19.500000 52.410000 C 19.192455 52.232449 19.002144 51.905109 19.000000 51.549999 L 19.000000 28.450001 C 19.002144 28.094891 19.192455 27.767553 19.500000 27.590000 L 39.500000 16.000000 C 39.809402 15.821367 40.190598 15.821367 40.500000 16.000000 L 60.500000 27.549999 C 60.807545 27.727552 60.997856 28.054888 61.000000 28.410000 L 61.000000 51.509998 C 60.997856 51.865108 60.807545 52.192448 60.500000 52.369999 L 40.500000 64.000000 C 40.343861 64.072540 40.171635 64.103546 40.000000 64.089996 Z M 39.000000 52.529999 L 41.000000 52.529999 L 41.000000 61.360001 L 58.000000 51.549999 L 53.000000 48.660000 L 48.500000 51.259998 C 48.190598 51.438633 47.809402 51.438633 47.500000 51.259998 L 42.500000 48.380001 C 42.189365 48.200661 41.998577 47.868687 42.000000 47.510002 L 42.000000 41.740002 C 41.998577 41.381317 42.189365 41.049343 42.500000 40.870003 L 47.500000 37.980000 C 47.809402 37.801365 48.190598 37.801365 48.500000 37.980000 L 53.500000 40.869999 C 53.810635 41.049339 54.001423 41.381313 54.000000 41.739998 L 54.000000 46.930000 L 59.000000 49.820000 L 59.000000 30.190001 L 51.349998 34.599998 L 50.349998 32.869999 L 58.000000 28.450001 L 41.000000 18.639999 L 41.000000 24.190001 L 45.500000 26.790001 C 45.807545 26.967554 45.997856 27.294889 46.000000 27.650002 L 46.000000 33.430000 C 45.997856 33.785110 45.807545 34.112450 45.500000 34.290001 L 40.500000 37.180000 C 40.190598 37.358635 39.809402 37.358635 39.500000 37.180000 L 34.500000 34.290001 C 34.192455 34.112450 34.002144 33.785110 34.000000 33.430000 L 34.000000 27.650000 C 34.002144 27.294889 34.192455 26.967552 34.500000 26.789999 L 39.000000 24.190001 L 39.000000 18.639999 L 22.000000 28.450001 L 29.650000 32.869999 L 28.650000 34.599998 L 21.000000 30.190001 L 21.000000 49.810001 L 26.000000 46.930000 L 26.000000 41.730000 C 25.998575 41.371315 26.189365 41.039341 26.500000 40.860001 L 31.500000 37.980000 C 31.809401 37.801365 32.190598 37.801365 32.500000 37.980000 L 37.500000 40.860001 C 37.810635 41.039341 38.001423 41.371315 38.000000 41.730000 L 38.000000 47.500000 C 38.001423 47.858685 37.810635 48.190659 37.500000 48.369999 L 32.500000 51.259998 C 32.190598 51.438633 31.809401 51.438633 31.500000 51.259998 L 27.000000 48.660000 L 22.000000 51.549999 L 39.000000 61.360001 Z M 44.000000 46.930000 L 48.000000 49.240002 L 52.000000 46.930000 L 52.000000 42.310001 L 48.000000 40.000000 L 44.000000 42.310001 Z M 28.000000 46.930000 L 32.000000 49.240002 L 36.000000 46.930000 L 36.000000 42.310001 L 32.000000 40.000000 L 28.000000 42.310001 Z M 36.000000 32.849998 L 40.000000 35.160000 L 44.000000 32.849998 L 44.000000 28.230000 L 40.000000 25.920000 L 36.000000 28.230000 Z" fill="#FFFFFF"/></g></g></svg>