<svg version="1.1" width="80.000000" height="130.000000" viewBox="0.000000 0.000000 80.000000 130.000000" xmlns="http://www.w3.org/2000/svg" xmlns:xlink="http://www.w3.org/1999/xlink" overflow="hidden"><g id="CARDS"><rect x="1.000000" y="1.000000" width="78.000000" height="78.000000" fill="#232F3E"/><path d=" M 0.000000 0.000000 L 0.000000 80.000000 L 0.000000 80.000000 L 0.000000 130.000000 L 80.000000 130.000000 L 80.000000 80.000000 L 80.000000 80.000000 L 80.000000 0.000000 Z M 1.000000 1.000000 L 79.000000 1.000000 L 79.000000 79.000000 L 1.000000 79.000000 Z" fill="#FFFFFF"/></g><g id="TEXT_-_AWS_Elemental_MediaLive"><path d=" M 33.689999 92.349998 L 33.250000 90.529999 L 31.250000 90.529999 L 30.830000 92.349998 L 29.059999 92.349998 L 31.370001 84.720001 L 33.240002 84.720001 L 35.540001 92.349998 Z M 31.510000 89.430000 L 33.000000 89.430000 L 32.240002 86.269997 Z" fill="#232F3E"/><path d=" M 40.889999 92.349998 L 40.000000 86.720001 L 39.110001 92.349998 L 37.189999 92.349998 L 35.410000 84.720001 L 37.110001 84.720001 L 38.169998 90.779999 L 39.080002 85.000000 L 40.919998 85.000000 L 41.860001 90.650002 L 42.860001 84.650002 L 44.520000 84.650002 L 42.740002 92.279999 Z" fill="#232F3E"/><path d=" M 46.840000 89.000000 C 46.345402 88.768761 45.910801 88.426559 45.570000 88.000000 C 45.307678 87.644348 45.170536 87.211830 45.180000 86.769997 C 45.168892 86.354126 45.287739 85.945145 45.520000 85.599998 C 45.745701 85.259720 46.065289 84.992241 46.439999 84.830002 C 46.861813 84.643929 47.319042 84.551804 47.779999 84.560005 C 48.429764 84.562088 49.072483 84.694710 49.669998 84.950005 L 49.669998 86.120003 C 49.134098 85.923050 48.570534 85.811684 48.000000 85.790001 C 47.718163 85.774521 47.439480 85.855652 47.209999 86.020004 C 47.013199 86.172058 46.904575 86.411781 46.919998 86.660004 C 46.912312 86.862022 46.976040 87.060295 47.099998 87.220001 C 47.307770 87.423737 47.552021 87.586571 47.820000 87.700005 L 48.470001 88.019997 C 48.826054 88.187546 49.161602 88.395592 49.470001 88.639999 C 49.698788 88.827263 49.883213 89.062912 50.010002 89.330002 C 50.129375 89.621704 50.187252 89.934906 50.180000 90.250000 C 50.210262 90.886475 49.935429 91.499283 49.439999 91.900002 C 48.864475 92.329575 48.157295 92.545265 47.439999 92.510002 C 47.060139 92.510231 46.681335 92.470001 46.309998 92.389999 C 45.964050 92.327736 45.627823 92.220139 45.309998 92.070000 L 45.310001 90.919998 C 45.637497 91.025146 45.971550 91.108665 46.310001 91.169998 C 46.639122 91.238113 46.973946 91.274940 47.310001 91.279999 C 47.623581 91.302475 47.935078 91.213982 48.190002 91.029999 C 48.396397 90.853905 48.507595 90.590736 48.490002 90.320000 C 48.496090 90.107033 48.421024 89.899704 48.280003 89.739998 C 48.072327 89.543411 47.832092 89.384384 47.570004 89.269997 Z" fill="#232F3E"/><path d=" M 16.610001 106.349998 L 16.610001 98.720001 L 21.150000 98.720001 L 21.150000 99.900002 L 18.299999 99.900002 L 18.299999 101.849998 L 20.580000 101.849998 L 20.580000 103.000000 L 18.299999 103.000000 L 18.299999 105.150002 L 21.150000 105.150002 L 21.150000 106.330002 Z" fill="#232F3E"/><path d=" M 24.670000 106.250000 C 24.349802 106.366165 24.010456 106.420456 23.670000 106.410004 C 23.273781 106.445717 22.881079 106.311180 22.590000 106.040001 C 22.326511 105.729019 22.197054 105.326263 22.230000 104.919998 L 22.230000 98.209999 L 23.879999 98.209999 L 23.879999 104.750000 C 23.869198 104.888161 23.896889 105.026619 23.959999 105.150002 C 24.039671 105.241310 24.159935 105.286407 24.279999 105.270004 C 24.396490 105.279053 24.513508 105.279053 24.629999 105.270004 Z" fill="#232F3E"/><path d=" M 26.780001 103.919998 C 26.759251 104.324760 26.887299 104.723129 27.140001 105.040001 C 27.435566 105.286263 27.816881 105.404976 28.200001 105.370003 C 28.429201 105.363998 28.657129 105.333832 28.880001 105.280006 C 29.151527 105.230042 29.418940 105.159843 29.680000 105.070007 L 29.680000 106.070000 C 29.421759 106.217194 29.141508 106.321869 28.850000 106.379997 C 28.521477 106.451813 28.186279 106.488686 27.850000 106.489998 C 26.129999 106.489998 25.270000 105.489998 25.270000 103.540001 C 25.215513 102.753960 25.442366 101.974152 25.910000 101.340004 C 26.364651 100.816292 27.037926 100.535149 27.730000 100.580002 C 29.100000 100.580002 29.780001 101.339996 29.780001 102.870003 C 29.779127 103.206871 29.738853 103.542488 29.660000 103.870003 Z M 27.690001 101.599998 C 27.110001 101.599998 26.809999 102.059998 26.780001 102.970001 L 28.389999 102.970001 L 28.389999 102.720001 C 28.410442 102.423340 28.351778 102.126572 28.219999 101.860001 C 28.102509 101.684830 27.900440 101.585701 27.689999 101.599998 Z" fill="#232F3E"/><path d=" M 37.000000 106.349998 L 37.000000 102.639999 C 37.019257 102.402504 36.974358 102.164200 36.869999 101.949997 C 36.765141 101.796478 36.585052 101.712181 36.399998 101.729996 C 36.117710 101.742058 35.844273 101.832047 35.609997 101.989998 C 35.610001 101.989998 35.610001 102.070000 35.610001 102.110001 L 35.610001 106.349998 L 34.000000 106.349998 L 34.000000 102.639999 C 34.016663 102.401566 33.968277 102.163086 33.860001 101.949997 C 33.758389 101.798111 33.582016 101.713760 33.400002 101.729996 C 33.117992 101.743576 32.844955 101.833435 32.610001 101.989998 L 32.610001 106.349998 L 30.920000 106.349998 L 30.920000 100.720001 L 32.270000 100.720001 L 32.400002 101.230003 C 32.926559 100.840569 33.555988 100.614525 34.210003 100.580002 C 34.710239 100.544861 35.184319 100.807365 35.420002 101.250000 C 35.949543 100.849174 36.586838 100.615852 37.250004 100.580002 C 37.629108 100.564880 37.995392 100.718712 38.250004 101.000000 C 38.510433 101.351334 38.637978 101.783562 38.610004 102.220001 L 38.610001 106.349998 Z" fill="#232F3E"/><path d=" M 41.259998 103.919998 C 41.239250 104.324760 41.367298 104.723129 41.619999 105.040001 C 41.915565 105.286263 42.296879 105.404976 42.680000 105.370003 C 42.909248 105.364609 43.137241 105.334435 43.360001 105.280006 C 43.631527 105.230042 43.898941 105.159843 44.160000 105.070007 L 44.160000 106.070000 C 43.901760 106.217194 43.621506 106.321869 43.329998 106.379997 C 43.001472 106.451813 42.666275 106.488686 42.329998 106.489998 C 40.610001 106.489998 39.750000 105.489998 39.750000 103.540001 C 39.699844 102.754425 39.926273 101.976082 40.389999 101.340004 C 40.844650 100.816292 41.517925 100.535149 42.209999 100.580002 C 43.580002 100.580002 44.259998 101.339996 44.259998 102.870003 C 44.259125 103.206871 44.218853 103.542488 44.139999 103.870003 Z M 42.169998 101.599998 C 41.599998 101.599998 41.290001 102.059998 41.259998 102.970001 L 42.869999 102.970001 L 42.869999 102.720001 C 42.895039 102.423065 42.836132 102.125076 42.700001 101.860001 C 42.583954 101.683182 42.380859 101.583549 42.170002 101.599998 Z" fill="#232F3E"/><path d=" M 48.509998 106.349998 L 48.509998 102.650002 C 48.526493 102.408363 48.478165 102.166710 48.369999 101.950005 C 48.254101 101.793236 48.063877 101.709541 47.869999 101.730003 C 47.577969 101.739677 47.294250 101.829636 47.049999 101.990005 L 47.049999 106.349998 L 45.400002 106.349998 L 45.400002 100.720001 L 46.750000 100.720001 L 46.880001 101.230003 C 47.418892 100.835289 48.062653 100.609108 48.730000 100.580002 C 49.128468 100.553772 49.517635 100.707970 49.790001 101.000000 C 50.059731 101.347038 50.191525 101.781601 50.160000 102.220001 L 50.160000 106.349998 Z" fill="#232F3E"/><path d=" M 54.599998 106.199997 C 54.206230 106.345474 53.789780 106.419960 53.369999 106.419998 C 52.894669 106.463928 52.420990 106.320389 52.049999 106.019997 C 51.749146 105.656647 51.602036 105.190201 51.639999 104.719994 L 51.639999 101.820000 L 50.910000 101.820000 L 50.910000 100.900002 L 51.689999 100.750000 L 51.930000 99.209999 L 53.290001 99.209999 L 53.290001 100.720001 L 54.570000 100.720001 L 54.570000 101.820000 L 53.290001 101.820000 L 53.290001 104.589996 C 53.271530 104.776146 53.325222 104.962288 53.440002 105.109993 C 53.586590 105.234970 53.778748 105.292976 53.970001 105.269997 C 54.182240 105.265694 54.393425 105.238876 54.600002 105.189995 Z" fill="#232F3E"/><path d=" M 58.380001 106.349998 L 58.230000 105.839996 C 58.079304 106.046989 57.875443 106.209389 57.639999 106.309998 C 57.396694 106.427460 57.130177 106.488968 56.860001 106.489998 C 56.420822 106.513031 55.992321 106.349617 55.680000 106.040001 C 55.069267 105.292549 55.112175 104.206917 55.779999 103.510002 C 56.177273 103.173096 56.690315 103.004471 57.209999 103.040001 C 57.524029 103.046669 57.836178 103.090302 58.139999 103.169998 L 58.139999 102.660004 C 58.165195 102.388687 58.105812 102.116226 57.970001 101.880005 C 57.809998 101.726921 57.589851 101.653542 57.370003 101.680008 C 56.762173 101.704216 56.161747 101.822273 55.590004 102.030006 L 55.590000 101.029999 C 55.877075 100.871574 56.187679 100.760162 56.509998 100.699997 C 56.891399 100.619514 57.280197 100.579300 57.669998 100.579994 C 58.213604 100.534027 58.755005 100.690742 59.189999 101.019997 C 59.534771 101.396851 59.705322 101.901237 59.660000 102.409996 L 59.660000 106.349998 Z M 57.380001 105.430000 C 57.681385 105.418922 57.967319 105.293823 58.180000 105.080002 L 58.180000 104.000000 C 57.974060 103.948677 57.762180 103.925140 57.549999 103.930000 C 57.349453 103.914780 57.152248 103.987816 57.009998 104.129997 C 56.878239 104.297188 56.814003 104.507729 56.829998 104.719994 C 56.819710 104.905304 56.872589 105.088631 56.980000 105.239990 C 57.064926 105.354698 57.197376 105.424606 57.340000 105.429993 Z" fill="#232F3E"/><path d=" M 63.450001 106.250000 C 63.129803 106.366165 62.790459 106.420456 62.450001 106.410004 C 62.053783 106.445717 61.661079 106.311180 61.369999 106.040001 C 61.106510 105.729019 60.977055 105.326263 61.009998 104.919998 L 61.009998 98.209999 L 62.700001 98.209999 L 62.700001 104.750000 C 62.689198 104.888161 62.716888 105.026619 62.780003 105.150002 C 62.859673 105.241310 62.979939 105.286407 63.100002 105.270004 C 63.216473 105.279564 63.333530 105.279564 63.450001 105.270004 Z" fill="#232F3E"/><path d=" M 22.160000 120.349998 L 22.160000 115.000000 L 20.750000 118.459999 L 19.309999 118.459999 L 17.920000 115.000000 L 17.920000 120.320000 L 16.410000 120.320000 L 16.410000 112.690002 L 18.340000 112.690002 L 20.059999 117.000000 L 21.780001 112.730003 L 23.660000 112.730003 L 23.660000 120.360001 Z" fill="#232F3E"/><path d=" M 26.410000 117.919998 C 26.389250 118.324760 26.517298 118.723129 26.770000 119.040001 C 27.065565 119.286263 27.446880 119.404976 27.830000 119.370003 C 28.059248 119.364609 28.287241 119.334435 28.510000 119.280006 C 28.781527 119.230042 29.048939 119.159843 29.309999 119.070007 L 29.309999 120.070000 C 29.051758 120.217194 28.771507 120.321869 28.480000 120.379997 C 28.151476 120.451813 27.816278 120.488686 27.480000 120.489998 C 25.770000 120.489998 24.910000 119.489998 24.910000 117.540001 C 24.856962 116.755630 25.079819 115.977402 25.539999 115.340004 C 25.994650 114.816292 26.667925 114.535149 27.359999 114.580002 C 28.730000 114.580002 29.410000 115.339996 29.410000 116.870003 C 29.409126 117.206871 29.368853 117.542488 29.289999 117.870003 Z M 27.330000 115.599998 C 26.750000 115.599998 26.440001 116.059998 26.410000 116.970001 L 28.000000 116.970001 L 28.000000 116.720001 C 28.022596 116.424286 27.967438 116.127800 27.840000 115.860001 C 27.724968 115.692596 27.533051 115.594757 27.330000 115.599998 Z" fill="#232F3E"/><path d=" M 33.810001 120.349998 L 33.669998 119.860001 C 33.489529 120.042419 33.275639 120.188408 33.039997 120.290001 C 32.816143 120.388222 32.574451 120.439285 32.329998 120.440002 C 31.728388 120.466507 31.154991 120.183578 30.809998 119.690002 C 30.089998 118.340004 30.089998 116.720001 30.809998 115.370003 C 31.147566 114.858131 31.727203 114.558846 32.339996 114.580002 C 32.555634 114.589058 32.768387 114.632957 32.969997 114.709999 C 33.188534 114.789223 33.394104 114.900436 33.579998 115.040001 L 33.580002 112.209999 L 35.230000 112.209999 L 35.230000 120.349998 Z M 32.880001 119.349998 C 33.136093 119.346977 33.385956 119.270630 33.600002 119.129997 L 33.599998 116.000000 C 33.366196 115.841095 33.092480 115.751007 32.809998 115.739998 C 32.512878 115.727325 32.240185 115.903778 32.129997 116.180000 C 31.972731 116.625710 31.904772 117.098030 31.929996 117.570000 C 31.896957 118.035194 31.975824 118.501541 32.159996 118.930000 C 32.301594 119.191101 32.583942 119.344040 32.879997 119.320000 Z" fill="#232F3E"/><path d=" M 37.540001 113.809998 C 37.284760 113.822983 37.033184 113.745026 36.830002 113.589996 C 36.653275 113.438095 36.557194 113.212677 36.570004 112.979996 C 36.555622 112.747040 36.651989 112.520950 36.830002 112.369995 C 37.028118 112.204575 37.282520 112.122162 37.540001 112.139992 C 37.794102 112.124771 38.044445 112.207024 38.240002 112.369995 C 38.420452 112.519913 38.520359 112.745628 38.510002 112.979996 C 38.518818 113.214073 38.419197 113.439140 38.240002 113.589996 C 38.042973 113.749374 37.792782 113.828011 37.540001 113.809998 Z M 36.709999 120.349998 L 36.709999 114.720001 L 38.360001 114.720001 L 38.360001 120.349998 Z" fill="#232F3E"/><path d=" M 42.720001 120.349998 L 42.580002 119.839996 C 42.426903 120.044678 42.223724 120.206528 41.990002 120.309998 C 41.746254 120.426201 41.480022 120.487640 41.210003 120.489998 C 40.754894 120.508713 40.313850 120.330109 40.000004 120.000000 C 39.389271 119.252548 39.432178 118.166916 40.100002 117.470001 C 40.497276 117.133095 41.010319 116.964470 41.530003 117.000000 C 41.844032 117.006668 42.156181 117.050301 42.460003 117.129997 L 42.459999 116.620003 C 42.487572 116.349762 42.431736 116.077560 42.299999 115.840004 C 42.135475 115.687714 41.912754 115.614693 41.689999 115.640007 C 41.085545 115.665237 40.488564 115.783279 39.919998 115.990005 L 39.919998 114.989998 C 40.206562 114.830444 40.517353 114.718964 40.839996 114.659996 C 41.218014 114.579483 41.603500 114.539253 41.989998 114.539993 C 42.533794 114.492088 43.075878 114.649010 43.509998 114.979996 C 43.854771 115.356850 44.025322 115.861237 43.980000 116.369995 L 43.980000 120.309998 Z M 41.720001 119.430000 C 42.018345 119.418404 42.300972 119.293190 42.510002 119.080002 L 42.509998 118.000000 C 42.307472 117.948616 42.098885 117.925064 41.889999 117.930000 C 41.689068 117.911972 41.490711 117.985435 41.349998 118.129997 C 41.210945 118.293694 41.142601 118.505920 41.160000 118.719994 C 41.149712 118.905304 41.202591 119.088631 41.310001 119.239990 C 41.401196 119.357796 41.541039 119.427719 41.690002 119.429993 Z" fill="#232F3E"/><path d=" M 45.509998 120.349998 L 45.509998 112.720001 L 47.189999 112.720001 L 47.189999 119.120003 L 50.000000 119.120003 L 50.000000 120.349998 Z" fill="#232F3E"/><path d=" M 51.669998 113.809998 C 51.414757 113.822983 51.163181 113.745026 50.959999 113.589996 C 50.788063 113.434639 50.693005 113.211624 50.700001 112.979996 C 50.690193 112.747849 50.785736 112.523689 50.959999 112.369995 C 51.158115 112.204575 51.412518 112.122162 51.669998 112.139992 C 51.924099 112.124771 52.174442 112.207024 52.369999 112.369995 C 52.550449 112.519913 52.650356 112.745628 52.639999 112.979996 C 52.648815 113.214073 52.549194 113.439140 52.369999 113.589996 C 52.172970 113.749374 51.922779 113.828011 51.669998 113.809998 Z M 50.840000 120.349998 L 50.840000 114.720001 L 52.490002 114.720001 L 52.490002 120.349998 Z" fill="#232F3E"/><path d=" M 55.139999 120.349998 L 53.290001 114.720001 L 55.000000 114.720001 L 55.889999 118.720001 L 56.799999 114.720001 L 58.500000 114.720001 L 56.660000 120.349998 Z" fill="#232F3E"/><path d=" M 60.520000 117.919998 C 60.499252 118.324760 60.627300 118.723129 60.880001 119.040001 C 61.174473 119.288261 61.556644 119.407242 61.940002 119.370003 C 62.169205 119.363998 62.397133 119.333832 62.620003 119.280006 C 62.891529 119.230042 63.158943 119.159843 63.420002 119.070007 L 63.419998 120.070000 C 63.161758 120.217194 62.881504 120.321869 62.589996 120.379997 C 62.261471 120.451813 61.926273 120.488686 61.589996 120.489998 C 59.869999 120.489998 59.009998 119.489998 59.009998 117.540001 C 58.955513 116.753960 59.182362 115.974152 59.649998 115.340004 C 60.104649 114.816292 60.777924 114.535149 61.469997 114.580002 C 62.840000 114.580002 63.520000 115.339996 63.520000 116.870003 C 63.519127 117.206871 63.478855 117.542488 63.400002 117.870003 Z M 61.430000 115.599998 C 60.849998 115.599998 60.549999 116.059998 60.520000 116.970001 L 62.130001 116.970001 L 62.130001 116.720001 C 62.150444 116.423340 62.091782 116.126572 61.960003 115.860001 C 61.842514 115.684830 61.640446 115.585701 61.430004 115.599998 Z" fill="#232F3E"/></g><g id="ICONS_-_EDIT"><g id="MARK_-_AWS_Elemental_MediaLive"><path d=" M 40.000000 64.089996 C 39.824825 64.091209 39.652405 64.046379 39.500000 63.959995 L 31.500000 59.360001 L 32.500000 57.630001 L 39.000000 61.360001 L 39.000000 54.000000 L 41.000000 54.000000 L 41.000000 61.360001 L 47.459999 57.630001 L 48.459999 59.360001 L 40.459999 63.959999 C 40.319431 64.039879 40.161587 64.084488 40.000000 64.089996 Z M 54.500000 55.720001 C 54.324825 55.721210 54.152405 55.676380 54.000000 55.590000 L 48.500000 52.410000 C 48.192455 52.232449 48.002144 51.905109 48.000000 51.549999 L 48.000000 45.200001 C 47.998577 44.841316 48.189365 44.509342 48.500000 44.330002 L 54.000000 41.150002 C 54.309402 40.971367 54.690598 40.971367 55.000000 41.150002 L 60.500000 44.330002 C 60.810635 44.509342 61.001423 44.841316 61.000000 45.200001 L 61.000000 51.549999 C 60.997856 51.905109 60.807545 52.232449 60.500000 52.410000 L 55.000000 55.590000 C 54.847595 55.676380 54.675175 55.721210 54.500000 55.720001 Z M 50.000000 51.000000 L 54.500000 53.599998 L 59.000000 51.000000 L 59.000000 45.799999 L 54.500000 43.209999 L 50.000000 45.770000 Z M 25.500000 55.720001 C 25.324823 55.721210 25.152403 55.676380 25.000000 55.590000 L 19.500000 52.410000 C 19.192455 52.232449 19.002144 51.905109 19.000000 51.549999 L 19.000000 45.200001 C 18.998575 44.841316 19.189365 44.509342 19.500000 44.330002 L 25.000000 41.150002 C 25.309401 40.971367 25.690599 40.971367 26.000000 41.150002 L 31.500000 44.330002 C 31.810635 44.509342 32.001423 44.841316 32.000000 45.200001 L 32.000000 51.549999 C 31.997856 51.905109 31.807545 52.232449 31.500000 52.410000 L 26.000000 55.590000 C 25.847597 55.676380 25.675177 55.721210 25.500000 55.720001 Z M 21.000000 51.000000 L 25.500000 53.599998 L 30.000000 51.000000 L 30.000000 45.799999 L 25.500000 43.209999 L 21.000000 45.770000 Z M 35.000000 49.240002 C 34.824825 49.241211 34.652405 49.196381 34.500000 49.110001 C 34.189365 48.930660 33.998577 48.598686 34.000000 48.240002 L 34.000000 31.719999 C 34.003323 31.167725 34.453724 30.722710 35.005997 30.726032 C 35.179497 30.727076 35.349743 30.773243 35.500000 30.859999 L 49.779999 39.099998 C 50.260487 39.372303 50.429253 39.982563 50.156948 40.463051 C 50.067722 40.620495 49.937443 40.750771 49.779999 40.840000 L 35.500000 49.080002 C 35.347595 49.166382 35.175175 49.211212 35.000000 49.210003 Z M 36.000000 33.490002 L 36.000000 46.490002 L 47.279999 40.000000 Z M 61.000000 38.000000 L 59.000000 38.000000 L 59.000000 30.180000 L 52.619999 33.860001 L 51.619999 32.130001 L 58.000000 28.450001 L 51.529999 24.719999 L 52.529999 22.990000 L 60.529999 27.590000 C 60.837543 27.767553 61.027855 28.094889 61.029999 28.450001 Z M 21.000000 38.000000 L 19.000000 38.000000 L 19.000000 28.450001 C 19.002144 28.094891 19.192455 27.767553 19.500000 27.590000 L 27.500000 22.990000 L 28.500000 24.719999 L 22.000000 28.450001 L 28.370001 32.130001 L 27.370001 33.860001 L 21.000000 30.180000 Z M 40.500000 30.610001 C 40.323914 30.608171 40.151432 30.559877 40.000000 30.470001 L 34.500000 27.299999 C 34.189365 27.120659 33.998577 26.788685 34.000000 26.429998 L 34.000000 20.080000 C 34.002144 19.724890 34.192455 19.397552 34.500000 19.219999 L 40.000000 16.000000 C 40.309402 15.821367 40.690598 15.821367 41.000000 16.000000 L 46.500000 19.180000 C 46.807545 19.357553 46.997856 19.684889 47.000000 20.040001 L 47.000000 26.389999 C 47.001423 26.748684 46.810635 27.080658 46.500000 27.260000 L 41.000000 30.469999 C 40.848568 30.559875 40.676086 30.608171 40.500000 30.609999 Z M 36.000000 25.860001 L 40.500000 28.450001 L 45.000000 25.860001 L 45.000000 20.660000 L 40.500000 18.059999 L 36.000000 20.660000 Z" fill="#FFFFFF"/></g></g></svg>