<svg version="1.1" width="80.000000" height="130.000000" viewBox="0.000000 0.000000 80.000000 130.000000" xmlns="http://www.w3.org/2000/svg" xmlns:xlink="http://www.w3.org/1999/xlink" overflow="hidden"><g id="CARDS"><rect x="1.000000" y="1.000000" width="78.000000" height="78.000000" fill="#232F3E"/><path d=" M 0.000000 0.000000 L 0.000000 80.000000 L 0.000000 80.000000 L 0.000000 130.000000 L 80.000000 130.000000 L 80.000000 80.000000 L 80.000000 80.000000 L 80.000000 0.000000 Z M 1.000000 1.000000 L 79.000000 1.000000 L 79.000000 79.000000 L 1.000000 79.000000 Z" fill="#FFFFFF"/></g><g id="TEXT_-_AWS_Elemental_MediaConvert"><path d=" M 33.689999 92.349998 L 33.250000 90.529999 L 31.250000 90.529999 L 30.830000 92.349998 L 29.059999 92.349998 L 31.370001 84.720001 L 33.240002 84.720001 L 35.540001 92.349998 Z M 31.510000 89.430000 L 33.000000 89.430000 L 32.240002 86.269997 Z" fill="#232F3E"/><path d=" M 40.889999 92.349998 L 40.000000 86.720001 L 39.110001 92.349998 L 37.189999 92.349998 L 35.410000 84.720001 L 37.110001 84.720001 L 38.169998 90.779999 L 39.080002 85.000000 L 40.919998 85.000000 L 41.860001 90.650002 L 42.860001 84.650002 L 44.520000 84.650002 L 42.740002 92.279999 Z" fill="#232F3E"/><path d=" M 46.840000 89.000000 C 46.345402 88.768761 45.910801 88.426559 45.570000 88.000000 C 45.307678 87.644348 45.170536 87.211830 45.180000 86.769997 C 45.168892 86.354126 45.287739 85.945145 45.520000 85.599998 C 45.745701 85.259720 46.065289 84.992241 46.439999 84.830002 C 46.861813 84.643929 47.319042 84.551804 47.779999 84.560005 C 48.429764 84.562088 49.072483 84.694710 49.669998 84.950005 L 49.669998 86.120003 C 49.134098 85.923050 48.570534 85.811684 48.000000 85.790001 C 47.718163 85.774521 47.439480 85.855652 47.209999 86.020004 C 47.013199 86.172058 46.904575 86.411781 46.919998 86.660004 C 46.912312 86.862022 46.976040 87.060295 47.099998 87.220001 C 47.307770 87.423737 47.552021 87.586571 47.820000 87.700005 L 48.470001 88.019997 C 48.826054 88.187546 49.161602 88.395592 49.470001 88.639999 C 49.698788 88.827263 49.883213 89.062912 50.010002 89.330002 C 50.129375 89.621704 50.187252 89.934906 50.180000 90.250000 C 50.210262 90.886475 49.935429 91.499283 49.439999 91.900002 C 48.864475 92.329575 48.157295 92.545265 47.439999 92.510002 C 47.060139 92.510231 46.681335 92.470001 46.309998 92.389999 C 45.964050 92.327736 45.627823 92.220139 45.309998 92.070000 L 45.310001 90.919998 C 45.637497 91.025146 45.971550 91.108665 46.310001 91.169998 C 46.639122 91.238113 46.973946 91.274940 47.310001 91.279999 C 47.623581 91.302475 47.935078 91.213982 48.190002 91.029999 C 48.396397 90.853905 48.507595 90.590736 48.490002 90.320000 C 48.496090 90.107033 48.421024 89.899704 48.280003 89.739998 C 48.072327 89.543411 47.832092 89.384384 47.570004 89.269997 Z" fill="#232F3E"/><path d=" M 16.610001 106.349998 L 16.610001 98.720001 L 21.150000 98.720001 L 21.150000 99.900002 L 18.299999 99.900002 L 18.299999 101.849998 L 20.580000 101.849998 L 20.580000 103.000000 L 18.299999 103.000000 L 18.299999 105.150002 L 21.150000 105.150002 L 21.150000 106.330002 Z" fill="#232F3E"/><path d=" M 24.670000 106.250000 C 24.349802 106.366165 24.010456 106.420456 23.670000 106.410004 C 23.273781 106.445717 22.881079 106.311180 22.590000 106.040001 C 22.326511 105.729019 22.197054 105.326263 22.230000 104.919998 L 22.230000 98.209999 L 23.879999 98.209999 L 23.879999 104.750000 C 23.869198 104.888161 23.896889 105.026619 23.959999 105.150002 C 24.039671 105.241310 24.159935 105.286407 24.279999 105.270004 C 24.396490 105.279053 24.513508 105.279053 24.629999 105.270004 Z" fill="#232F3E"/><path d=" M 26.780001 103.919998 C 26.759251 104.324760 26.887299 104.723129 27.140001 105.040001 C 27.435566 105.286263 27.816881 105.404976 28.200001 105.370003 C 28.429201 105.363998 28.657129 105.333832 28.880001 105.280006 C 29.151527 105.230042 29.418940 105.159843 29.680000 105.070007 L 29.680000 106.070000 C 29.421759 106.217194 29.141508 106.321869 28.850000 106.379997 C 28.521477 106.451813 28.186279 106.488686 27.850000 106.489998 C 26.129999 106.489998 25.270000 105.489998 25.270000 103.540001 C 25.215513 102.753960 25.442366 101.974152 25.910000 101.340004 C 26.364651 100.816292 27.037926 100.535149 27.730000 100.580002 C 29.100000 100.580002 29.780001 101.339996 29.780001 102.870003 C 29.779127 103.206871 29.738853 103.542488 29.660000 103.870003 Z M 27.690001 101.599998 C 27.110001 101.599998 26.809999 102.059998 26.780001 102.970001 L 28.389999 102.970001 L 28.389999 102.720001 C 28.410442 102.423340 28.351778 102.126572 28.219999 101.860001 C 28.102509 101.684830 27.900440 101.585701 27.689999 101.599998 Z" fill="#232F3E"/><path d=" M 37.000000 106.349998 L 37.000000 102.639999 C 37.019257 102.402504 36.974358 102.164200 36.869999 101.949997 C 36.765141 101.796478 36.585052 101.712181 36.399998 101.729996 C 36.117710 101.742058 35.844273 101.832047 35.609997 101.989998 C 35.610001 101.989998 35.610001 102.070000 35.610001 102.110001 L 35.610001 106.349998 L 34.000000 106.349998 L 34.000000 102.639999 C 34.016663 102.401566 33.968277 102.163086 33.860001 101.949997 C 33.758389 101.798111 33.582016 101.713760 33.400002 101.729996 C 33.117992 101.743576 32.844955 101.833435 32.610001 101.989998 L 32.610001 106.349998 L 30.920000 106.349998 L 30.920000 100.720001 L 32.270000 100.720001 L 32.400002 101.230003 C 32.926559 100.840569 33.555988 100.614525 34.210003 100.580002 C 34.710239 100.544861 35.184319 100.807365 35.420002 101.250000 C 35.949543 100.849174 36.586838 100.615852 37.250004 100.580002 C 37.629108 100.564880 37.995392 100.718712 38.250004 101.000000 C 38.510433 101.351334 38.637978 101.783562 38.610004 102.220001 L 38.610001 106.349998 Z" fill="#232F3E"/><path d=" M 41.259998 103.919998 C 41.239250 104.324760 41.367298 104.723129 41.619999 105.040001 C 41.915565 105.286263 42.296879 105.404976 42.680000 105.370003 C 42.909248 105.364609 43.137241 105.334435 43.360001 105.280006 C 43.631527 105.230042 43.898941 105.159843 44.160000 105.070007 L 44.160000 106.070000 C 43.901760 106.217194 43.621506 106.321869 43.329998 106.379997 C 43.001472 106.451813 42.666275 106.488686 42.329998 106.489998 C 40.610001 106.489998 39.750000 105.489998 39.750000 103.540001 C 39.699844 102.754425 39.926273 101.976082 40.389999 101.340004 C 40.844650 100.816292 41.517925 100.535149 42.209999 100.580002 C 43.580002 100.580002 44.259998 101.339996 44.259998 102.870003 C 44.259125 103.206871 44.218853 103.542488 44.139999 103.870003 Z M 42.169998 101.599998 C 41.599998 101.599998 41.290001 102.059998 41.259998 102.970001 L 42.869999 102.970001 L 42.869999 102.720001 C 42.895039 102.423065 42.836132 102.125076 42.700001 101.860001 C 42.583954 101.683182 42.380859 101.583549 42.170002 101.599998 Z" fill="#232F3E"/><path d=" M 48.509998 106.349998 L 48.509998 102.650002 C 48.526493 102.408363 48.478165 102.166710 48.369999 101.950005 C 48.254101 101.793236 48.063877 101.709541 47.869999 101.730003 C 47.577969 101.739677 47.294250 101.829636 47.049999 101.990005 L 47.049999 106.349998 L 45.400002 106.349998 L 45.400002 100.720001 L 46.750000 100.720001 L 46.880001 101.230003 C 47.418892 100.835289 48.062653 100.609108 48.730000 100.580002 C 49.128468 100.553772 49.517635 100.707970 49.790001 101.000000 C 50.059731 101.347038 50.191525 101.781601 50.160000 102.220001 L 50.160000 106.349998 Z" fill="#232F3E"/><path d=" M 54.599998 106.199997 C 54.206230 106.345474 53.789780 106.419960 53.369999 106.419998 C 52.894669 106.463928 52.420990 106.320389 52.049999 106.019997 C 51.749146 105.656647 51.602036 105.190201 51.639999 104.719994 L 51.639999 101.820000 L 50.910000 101.820000 L 50.910000 100.900002 L 51.689999 100.750000 L 51.930000 99.209999 L 53.290001 99.209999 L 53.290001 100.720001 L 54.570000 100.720001 L 54.570000 101.820000 L 53.290001 101.820000 L 53.290001 104.589996 C 53.271530 104.776146 53.325222 104.962288 53.440002 105.109993 C 53.586590 105.234970 53.778748 105.292976 53.970001 105.269997 C 54.182240 105.265694 54.393425 105.238876 54.600002 105.189995 Z" fill="#232F3E"/><path d=" M 58.380001 106.349998 L 58.230000 105.839996 C 58.079304 106.046989 57.875443 106.209389 57.639999 106.309998 C 57.396694 106.427460 57.130177 106.488968 56.860001 106.489998 C 56.420822 106.513031 55.992321 106.349617 55.680000 106.040001 C 55.069267 105.292549 55.112175 104.206917 55.779999 103.510002 C 56.177273 103.173096 56.690315 103.004471 57.209999 103.040001 C 57.524029 103.046669 57.836178 103.090302 58.139999 103.169998 L 58.139999 102.660004 C 58.165195 102.388687 58.105812 102.116226 57.970001 101.880005 C 57.809998 101.726921 57.589851 101.653542 57.370003 101.680008 C 56.762173 101.704216 56.161747 101.822273 55.590004 102.030006 L 55.590000 101.029999 C 55.877075 100.871574 56.187679 100.760162 56.509998 100.699997 C 56.891399 100.619514 57.280197 100.579300 57.669998 100.579994 C 58.213604 100.534027 58.755005 100.690742 59.189999 101.019997 C 59.534771 101.396851 59.705322 101.901237 59.660000 102.409996 L 59.660000 106.349998 Z M 57.380001 105.430000 C 57.681385 105.418922 57.967319 105.293823 58.180000 105.080002 L 58.180000 104.000000 C 57.974060 103.948677 57.762180 103.925140 57.549999 103.930000 C 57.349453 103.914780 57.152248 103.987816 57.009998 104.129997 C 56.878239 104.297188 56.814003 104.507729 56.829998 104.719994 C 56.819710 104.905304 56.872589 105.088631 56.980000 105.239990 C 57.064926 105.354698 57.197376 105.424606 57.340000 105.429993 Z" fill="#232F3E"/><path d=" M 63.450001 106.250000 C 63.129803 106.366165 62.790459 106.420456 62.450001 106.410004 C 62.053783 106.445717 61.661079 106.311180 61.369999 106.040001 C 61.106510 105.729019 60.977055 105.326263 61.009998 104.919998 L 61.009998 98.209999 L 62.700001 98.209999 L 62.700001 104.750000 C 62.689198 104.888161 62.716888 105.026619 62.780003 105.150002 C 62.859673 105.241310 62.979939 105.286407 63.100002 105.270004 C 63.216473 105.279564 63.333530 105.279564 63.450001 105.270004 Z" fill="#232F3E"/><path d=" M 13.190000 120.349998 L 13.190000 115.000000 L 11.780000 118.459999 L 10.340000 118.459999 L 9.000000 115.000000 L 9.000000 120.320000 L 7.440000 120.320000 L 7.440000 112.690002 L 9.370000 112.690002 L 11.090000 117.000000 L 12.810000 112.730003 L 14.690000 112.730003 L 14.690000 120.360001 Z" fill="#232F3E"/><path d=" M 17.440001 117.919998 C 17.428947 118.311180 17.556450 118.693687 17.800001 119.000000 C 18.095566 119.246262 18.476881 119.364975 18.860001 119.330002 C 19.089249 119.324608 19.317242 119.294434 19.540001 119.240005 C 19.811527 119.190041 20.078939 119.119843 20.340000 119.030006 L 20.340000 120.029999 C 20.081758 120.177193 19.801508 120.281868 19.510000 120.339996 C 19.181477 120.411812 18.846279 120.448685 18.510000 120.449997 C 16.799999 120.449997 15.940000 119.449997 15.940000 117.500000 C 15.886961 116.715630 16.109818 115.937401 16.570000 115.300003 C 17.024651 114.776291 17.697926 114.495148 18.389999 114.540001 C 19.760000 114.540001 20.440001 115.300003 20.440001 116.830002 C 20.439127 117.166870 20.398853 117.502487 20.320000 117.830002 Z M 18.360001 115.599998 C 17.780001 115.599998 17.469999 116.059998 17.440001 116.970001 L 19.049999 116.970001 L 19.049999 116.720001 C 19.072596 116.424286 19.017437 116.127800 18.889999 115.860001 C 18.771135 115.686409 18.570032 115.587753 18.359999 115.599998 Z" fill="#232F3E"/><path d=" M 24.840000 120.349998 L 24.709999 119.860001 C 24.524744 120.041252 24.307823 120.186996 24.070000 120.290001 C 23.277210 120.627693 22.356304 120.379913 21.840000 119.690002 C 21.120001 118.340004 21.120001 116.720001 21.840000 115.370003 C 22.177568 114.858131 22.757206 114.558846 23.370001 114.580002 C 23.585640 114.589058 23.798391 114.632957 24.000000 114.709999 C 24.218534 114.789223 24.424107 114.900436 24.610001 115.040001 L 24.610001 112.209999 L 26.260000 112.209999 L 26.260000 120.349998 Z M 23.910000 119.349998 C 24.166092 119.346977 24.415955 119.270630 24.629999 119.129997 L 24.629999 116.000000 C 24.396194 115.841095 24.122478 115.751007 23.839998 115.739998 C 23.542879 115.727325 23.270187 115.903778 23.159998 116.180000 C 23.002731 116.625710 22.934772 117.098030 22.959997 117.570000 C 22.926958 118.035194 23.005825 118.501541 23.189997 118.930000 C 23.331594 119.191101 23.613943 119.344040 23.909996 119.320000 Z" fill="#232F3E"/><path d=" M 28.570000 113.809998 C 28.314758 113.822983 28.063181 113.745026 27.860001 113.589996 C 27.683271 113.438095 27.587193 113.212677 27.600000 112.979996 C 27.585617 112.747040 27.681984 112.520950 27.860001 112.369995 C 28.058119 112.204575 28.312521 112.122162 28.570000 112.139992 C 28.824102 112.124771 29.074446 112.207024 29.270000 112.369995 C 29.450451 112.519913 29.550358 112.745628 29.540001 112.979996 C 29.548815 113.214073 29.449198 113.439140 29.270000 113.589996 C 29.072973 113.749374 28.822781 113.828011 28.570000 113.809998 Z M 27.740000 120.349998 L 27.740000 114.720001 L 29.389999 114.720001 L 29.389999 120.349998 Z" fill="#232F3E"/><path d=" M 33.750000 120.349998 L 33.610001 119.839996 C 33.456902 120.044678 33.253723 120.206528 33.020000 120.309998 C 32.776253 120.426201 32.510021 120.487640 32.240002 120.489998 C 31.797802 120.513382 31.366083 120.350128 31.050001 120.040001 C 30.439266 119.292549 30.482178 118.206917 31.150002 117.510002 C 31.547276 117.173096 32.060318 117.004471 32.580002 117.040001 C 32.894032 117.046669 33.206181 117.090302 33.510002 117.169998 L 33.509998 116.660004 C 33.537571 116.389763 33.481735 116.117561 33.349998 115.880005 C 33.185474 115.727715 32.962753 115.654694 32.739998 115.680008 C 32.147209 115.698616 31.560617 115.806496 30.999998 116.000008 L 31.000000 115.000000 C 31.286566 114.840446 31.597355 114.728966 31.920000 114.669998 C 32.298016 114.589485 32.683502 114.549255 33.070000 114.549995 C 33.613796 114.502090 34.155880 114.659012 34.590000 114.989998 C 34.934772 115.366852 35.105324 115.871239 35.060001 116.379997 L 35.060001 120.320000 Z M 32.750000 119.430000 C 33.048344 119.418404 33.330971 119.293190 33.540001 119.080002 L 33.540001 118.000000 C 33.337475 117.948616 33.128887 117.925064 32.920002 117.930000 C 32.719070 117.911972 32.520714 117.985435 32.380001 118.129997 C 32.240948 118.293694 32.172604 118.505920 32.190002 118.719994 C 32.179714 118.905304 32.232594 119.088631 32.340004 119.239990 C 32.431198 119.357796 32.571041 119.427719 32.720005 119.429993 Z" fill="#232F3E"/><path d=" M 41.480000 120.129997 C 40.911667 120.360519 40.303272 120.476074 39.689999 120.469994 C 37.443333 120.470001 36.320000 119.169998 36.320000 116.570000 C 36.248547 115.512779 36.561020 114.465294 37.200001 113.620003 C 37.849339 112.922134 38.779007 112.554680 39.730000 112.620003 C 40.293499 112.620705 40.852318 112.722313 41.380001 112.920006 L 41.380001 114.129997 C 40.908653 113.990929 40.421249 113.913612 39.930000 113.899994 C 39.393253 113.854752 38.870094 114.084335 38.540001 114.509995 C 38.195202 115.091789 38.038071 115.765701 38.090000 116.439995 L 38.090000 116.690002 C 38.036976 117.352310 38.186966 118.015060 38.520000 118.590004 C 38.845745 119.015533 39.366039 119.245522 39.900002 119.200005 C 40.434689 119.172272 40.964622 119.085068 41.480003 118.940002 Z" fill="#232F3E"/><path d=" M 44.700001 120.489998 C 44.001232 120.527954 43.323463 120.244324 42.860001 119.720001 C 41.993984 118.392052 41.993984 116.677956 42.860001 115.349998 C 43.871750 114.331032 45.517967 114.325180 46.536934 115.336929 C 46.541306 115.341270 46.545662 115.345627 46.550003 115.349998 C 47.416019 116.677948 47.416019 118.392044 46.550003 119.720001 C 46.082558 120.244698 45.401688 120.528084 44.700005 120.489998 Z M 44.700001 119.339996 C 44.986320 119.350388 45.247559 119.177567 45.350002 118.909996 C 45.616798 118.016144 45.616798 117.063843 45.350002 116.169998 C 45.214638 115.813774 44.816124 115.634735 44.459900 115.770103 C 44.275585 115.840141 44.130043 115.985687 44.060001 116.169998 C 43.793205 117.063850 43.793205 118.016151 44.060001 118.909996 C 44.158730 119.175995 44.416416 119.349129 44.700001 119.339996 Z" fill="#232F3E"/><path d=" M 51.459999 120.349998 L 51.459999 116.650002 C 51.476494 116.408363 51.428165 116.166710 51.320000 115.950005 C 51.204102 115.793236 51.013878 115.709541 50.820000 115.730003 C 50.527275 115.744179 50.243877 115.837486 50.000000 116.000000 L 50.000000 120.360001 L 48.349998 120.360001 L 48.349998 114.730003 L 49.700001 114.730003 L 49.840000 115.239998 C 50.374371 114.843903 51.015400 114.617447 51.680000 114.589996 C 52.081432 114.563576 52.473728 114.717560 52.750000 115.009995 C 53.012020 115.360535 53.139740 115.793365 53.110001 116.229996 L 53.110001 120.360001 Z" fill="#232F3E"/><path d=" M 55.580002 120.349998 L 53.730000 114.720001 L 55.470001 114.720001 L 56.369999 118.720001 L 57.279999 114.720001 L 59.000000 114.720001 L 57.160000 120.349998 Z" fill="#232F3E"/><path d=" M 61.000000 117.919998 C 60.979252 118.324760 61.107300 118.723129 61.360001 119.040001 C 61.654472 119.288261 62.036644 119.407242 62.420002 119.370003 C 62.649204 119.363998 62.877132 119.333832 63.100002 119.280006 C 63.371254 119.228806 63.638577 119.158638 63.900002 119.070007 L 63.900002 120.070000 C 63.640980 120.215523 63.361000 120.320099 63.070000 120.379997 C 62.741474 120.451813 62.406277 120.488686 62.070000 120.489998 C 60.349998 120.489998 59.490002 119.489998 59.490002 117.540001 C 59.436962 116.755630 59.659821 115.977402 60.120003 115.340004 C 60.578693 114.815964 61.255028 114.535088 61.950005 114.580002 C 63.320000 114.580002 63.950001 115.339996 63.950001 116.870003 C 63.949127 117.206871 63.908855 117.542488 63.830002 117.870003 Z M 61.910000 115.599998 C 61.330002 115.599998 61.029999 116.059998 61.000000 116.970001 L 62.610001 116.970001 L 62.610001 116.720001 C 62.630444 116.423340 62.571781 116.126572 62.440002 115.860001 C 62.315510 115.671280 62.094124 115.570297 61.870003 115.599998 Z" fill="#232F3E"/><path d=" M 65.099998 120.349998 L 65.099998 114.720001 L 66.449997 114.720001 L 66.629997 115.449997 C 66.830948 115.209991 67.075180 115.009857 67.349998 114.860001 C 67.578911 114.731735 67.837631 114.666191 68.099998 114.669998 C 68.229813 114.660080 68.360191 114.660080 68.489998 114.669998 L 68.489998 116.000000 C 68.276886 115.986336 68.063110 115.986336 67.849998 116.000000 C 67.468163 116.000481 67.091637 116.089478 66.750000 116.260002 L 66.750000 120.370003 Z" fill="#232F3E"/><path d=" M 72.750000 120.199997 C 72.356689 120.347153 71.939934 120.421692 71.519997 120.419998 C 71.047684 120.464508 70.576889 120.320755 70.209999 120.019997 C 69.905258 119.658775 69.757637 119.190689 69.799995 118.719994 L 69.800003 115.820000 L 69.059998 115.820000 L 69.059998 114.900002 L 69.849998 114.750000 L 70.089996 113.209999 L 71.449997 113.209999 L 71.449997 114.720001 L 72.730003 114.720001 L 72.730003 115.820000 L 71.449997 115.820000 L 71.449997 118.589996 C 71.434326 118.774376 71.483871 118.958412 71.589996 119.109993 C 71.737167 119.233894 71.928848 119.291756 72.119995 119.269997 C 72.332268 119.266159 72.543503 119.239334 72.749992 119.189995 Z" fill="#232F3E"/></g><g id="ICONS_-_EDIT"><g id="MARK_-_AWS_Elemental_MediaConvert"><path d=" M 40.000000 64.089996 C 39.824825 64.091209 39.652405 64.046379 39.500000 63.959995 L 33.500000 60.500000 L 34.500000 58.770000 L 39.000000 61.360001 L 39.000000 55.590000 L 26.500000 48.369999 C 26.192455 48.192448 26.002144 47.865108 26.000000 47.509998 L 26.000000 33.080002 L 21.000000 30.190001 L 21.000000 35.000000 L 19.000000 35.000000 L 19.000000 28.450001 C 19.002144 28.094891 19.192455 27.767553 19.500000 27.590000 L 25.500000 24.129999 L 26.500000 25.860001 L 22.000000 28.450001 L 27.000000 31.340000 L 39.500000 24.120001 C 39.809402 23.941368 40.190598 23.941368 40.500000 24.120001 L 53.000000 31.340000 L 58.000000 28.450001 L 53.509998 25.860001 L 54.509998 24.129999 L 60.509998 27.590000 C 60.817543 27.767553 61.007854 28.094889 61.009998 28.450001 L 61.009998 35.000000 L 59.000000 35.000000 L 59.000000 30.190001 L 54.000000 33.070000 L 54.000000 47.509998 C 53.997856 47.865108 53.807545 48.192448 53.500000 48.369999 L 41.000000 55.590000 L 41.000000 61.360001 L 45.490002 58.770000 L 46.490002 60.500000 L 40.500000 64.000000 C 40.343861 64.072540 40.171635 64.103546 40.000000 64.089996 Z M 28.000000 46.930000 L 40.000000 53.860001 L 52.000000 46.930000 L 52.000000 33.070000 L 40.000000 26.139999 L 28.000000 33.070000 Z M 54.509998 55.869999 L 53.509998 54.139999 L 59.000000 51.000000 L 59.000000 45.000000 L 61.000000 45.000000 L 61.000000 51.549999 C 60.997856 51.905109 60.807545 52.232449 60.500000 52.410000 Z M 25.510000 55.869999 L 19.510000 52.410000 C 19.202456 52.232449 19.012144 51.905109 19.010000 51.549999 L 19.010000 45.000000 L 21.010000 45.000000 L 21.010000 51.000000 L 26.500000 54.169998 Z M 41.000000 50.000000 L 39.000000 50.000000 L 39.000000 46.349998 L 34.500000 43.750000 C 34.192455 43.572449 34.002144 43.245110 34.000000 42.889999 L 34.000000 37.689999 L 31.299999 36.130001 L 32.299999 34.400002 L 35.000000 36.000000 L 39.500000 33.400002 C 39.809402 33.221367 40.190598 33.221367 40.500000 33.400002 L 45.000000 36.000000 L 47.720001 34.430000 L 48.720001 36.160000 L 46.000000 37.689999 L 46.000000 42.889999 C 45.997856 43.245110 45.807545 43.572449 45.500000 43.750000 L 41.000000 46.349998 Z M 36.000000 42.310001 L 40.000000 44.619999 L 44.000000 42.310001 L 44.000000 37.689999 L 40.000000 35.380001 L 36.000000 37.689999 Z M 45.490002 21.230000 L 40.000000 18.059999 L 34.509998 21.230000 L 33.509998 19.500000 L 39.509998 16.040001 C 39.819401 15.861368 40.200596 15.861368 40.509998 16.040001 L 46.509998 19.500000 Z" fill="#FFFFFF"/></g></g></svg>