<svg version="1.1" width="80.000000" height="130.000000" viewBox="0.000000 0.000000 80.000000 130.000000" xmlns="http://www.w3.org/2000/svg" xmlns:xlink="http://www.w3.org/1999/xlink" overflow="hidden"><g id="CARDS"><rect x="1.000000" y="1.000000" width="78.000000" height="78.000000" fill="#232F3E"/><path d=" M 0.000000 0.000000 L 0.000000 80.000000 L 0.000000 80.000000 L 0.000000 130.000000 L 80.000000 130.000000 L 80.000000 80.000000 L 80.000000 80.000000 L 80.000000 0.000000 Z M 1.000000 1.000000 L 79.000000 1.000000 L 79.000000 79.000000 L 1.000000 79.000000 Z" fill="#FFFFFF"/></g><g id="TEXT_-_AWS_Elemental_MediaStore"><path d=" M 33.689999 92.349998 L 33.250000 90.529999 L 31.250000 90.529999 L 30.830000 92.349998 L 29.059999 92.349998 L 31.370001 84.720001 L 33.240002 84.720001 L 35.540001 92.349998 Z M 31.510000 89.430000 L 33.000000 89.430000 L 32.240002 86.269997 Z" fill="#232F3E"/><path d=" M 40.889999 92.349998 L 40.000000 86.720001 L 39.110001 92.349998 L 37.189999 92.349998 L 35.410000 84.720001 L 37.110001 84.720001 L 38.169998 90.779999 L 39.080002 85.000000 L 40.919998 85.000000 L 41.860001 90.650002 L 42.860001 84.650002 L 44.520000 84.650002 L 42.740002 92.279999 Z" fill="#232F3E"/><path d=" M 46.840000 89.000000 C 46.345402 88.768761 45.910801 88.426559 45.570000 88.000000 C 45.307678 87.644348 45.170536 87.211830 45.180000 86.769997 C 45.168892 86.354126 45.287739 85.945145 45.520000 85.599998 C 45.745701 85.259720 46.065289 84.992241 46.439999 84.830002 C 46.861813 84.643929 47.319042 84.551804 47.779999 84.560005 C 48.429764 84.562088 49.072483 84.694710 49.669998 84.950005 L 49.669998 86.120003 C 49.134098 85.923050 48.570534 85.811684 48.000000 85.790001 C 47.718163 85.774521 47.439480 85.855652 47.209999 86.020004 C 47.013199 86.172058 46.904575 86.411781 46.919998 86.660004 C 46.912312 86.862022 46.976040 87.060295 47.099998 87.220001 C 47.307770 87.423737 47.552021 87.586571 47.820000 87.700005 L 48.470001 88.019997 C 48.826054 88.187546 49.161602 88.395592 49.470001 88.639999 C 49.698788 88.827263 49.883213 89.062912 50.010002 89.330002 C 50.128574 89.618439 50.186447 89.928215 50.180000 90.240005 C 50.205498 90.878426 49.931877 91.492226 49.439999 91.900009 C 48.864475 92.329582 48.157295 92.545273 47.439999 92.510010 C 47.060139 92.510239 46.681335 92.470009 46.309998 92.390007 C 45.964050 92.327744 45.627823 92.220146 45.309998 92.070007 L 45.310001 90.919998 C 45.637497 91.025146 45.971550 91.108665 46.310001 91.169998 C 46.639122 91.238113 46.973946 91.274940 47.310001 91.279999 C 47.623581 91.302475 47.935078 91.213982 48.190002 91.029999 C 48.396397 90.853905 48.507595 90.590736 48.490002 90.320000 C 48.496090 90.107033 48.421024 89.899704 48.280003 89.739998 C 48.072327 89.543411 47.832092 89.384384 47.570004 89.269997 Z" fill="#232F3E"/><path d=" M 16.610001 106.349998 L 16.610001 98.720001 L 21.150000 98.720001 L 21.150000 99.900002 L 18.299999 99.900002 L 18.299999 101.849998 L 20.580000 101.849998 L 20.580000 103.000000 L 18.299999 103.000000 L 18.299999 105.150002 L 21.150000 105.150002 L 21.150000 106.330002 Z" fill="#232F3E"/><path d=" M 24.670000 106.250000 C 24.349802 106.366165 24.010456 106.420456 23.670000 106.410004 C 23.273781 106.445717 22.881079 106.311180 22.590000 106.040001 C 22.326511 105.729019 22.197054 105.326263 22.230000 104.919998 L 22.230000 98.209999 L 23.879999 98.209999 L 23.879999 104.750000 C 23.870220 104.888100 23.897858 105.026283 23.959999 105.150002 C 24.039671 105.241310 24.159935 105.286407 24.279999 105.270004 C 24.396490 105.279053 24.513508 105.279053 24.629999 105.270004 Z" fill="#232F3E"/><path d=" M 26.780001 103.910004 C 26.757710 104.318031 26.885792 104.720070 27.140001 105.040001 C 27.435566 105.286263 27.816881 105.404976 28.200001 105.370003 C 28.429201 105.363998 28.657129 105.333832 28.880001 105.280006 C 29.151527 105.230042 29.418940 105.159843 29.680000 105.070007 L 29.680000 106.070000 C 29.421759 106.217194 29.141508 106.321869 28.850000 106.379997 C 28.521477 106.451813 28.186279 106.488686 27.850000 106.489998 C 26.129999 106.489998 25.270000 105.489998 25.270000 103.540001 C 25.215513 102.753960 25.442366 101.974152 25.910000 101.340004 C 26.364651 100.816292 27.037926 100.535149 27.730000 100.580002 C 29.100000 100.580002 29.780001 101.339996 29.780001 102.870003 C 29.780453 103.206955 29.740160 103.542725 29.660000 103.870003 Z M 27.690001 101.599998 C 27.110001 101.599998 26.809999 102.059998 26.780001 102.970001 L 28.389999 102.970001 L 28.389999 102.720001 C 28.411417 102.423279 28.352703 102.126259 28.219999 101.860001 C 28.102509 101.684830 27.900440 101.585701 27.689999 101.599998 Z" fill="#232F3E"/><path d=" M 37.000000 106.349998 L 37.000000 102.639999 C 37.017712 102.399361 36.972931 102.158234 36.869999 101.940002 C 36.760128 101.793510 36.582424 101.714111 36.399998 101.730003 C 36.117710 101.742065 35.844273 101.832054 35.609997 101.990005 C 35.610001 101.989998 35.610001 102.070000 35.610001 102.110001 L 35.610001 106.349998 L 34.000000 106.349998 L 34.000000 102.639999 C 34.015068 102.398460 33.966808 102.157166 33.860001 101.940002 C 33.754608 101.793564 33.579685 101.713707 33.400002 101.730003 C 33.117992 101.743584 32.844955 101.833443 32.610001 101.990005 L 32.610001 106.349998 L 30.920000 106.349998 L 30.920000 100.720001 L 32.270000 100.720001 L 32.400002 101.230003 C 32.926559 100.840569 33.555988 100.614525 34.210003 100.580002 C 34.710239 100.544861 35.184319 100.807365 35.420002 101.250000 C 35.949543 100.849174 36.586838 100.615852 37.250004 100.580002 C 37.629108 100.564880 37.995392 100.718712 38.250004 101.000000 C 38.510433 101.351334 38.637978 101.783562 38.610004 102.220001 L 38.610001 106.349998 Z" fill="#232F3E"/><path d=" M 41.259998 103.910004 C 41.237705 104.318031 41.365791 104.720070 41.619999 105.040001 C 41.915565 105.286263 42.296879 105.404976 42.680000 105.370003 C 42.909248 105.364609 43.137241 105.334435 43.360001 105.280006 C 43.631527 105.230042 43.898941 105.159843 44.160000 105.070007 L 44.160000 106.070000 C 43.901760 106.217194 43.621506 106.321869 43.329998 106.379997 C 43.001472 106.451813 42.666275 106.488686 42.329998 106.489998 C 40.610001 106.489998 39.750000 105.489998 39.750000 103.540001 C 39.699844 102.754425 39.926273 101.976082 40.389999 101.340004 C 40.844650 100.816292 41.517925 100.535149 42.209999 100.580002 C 43.580002 100.580002 44.259998 101.339996 44.259998 102.870003 C 44.260448 103.206955 44.220158 103.542725 44.139999 103.870003 Z M 42.169998 101.599998 C 41.599998 101.599998 41.290001 102.059998 41.259998 102.970001 L 42.869999 102.970001 L 42.869999 102.720001 C 42.896698 102.422981 42.837704 102.124527 42.700001 101.860001 C 42.583954 101.683182 42.380859 101.583549 42.170002 101.599998 Z" fill="#232F3E"/><path d=" M 48.509998 106.349998 L 48.509998 102.650002 C 48.524979 102.405243 48.476768 102.160751 48.369999 101.940002 C 48.250603 101.788589 48.061707 101.709251 47.869999 101.730003 C 47.577969 101.739677 47.294250 101.829636 47.049999 101.990005 L 47.049999 106.349998 L 45.400002 106.349998 L 45.400002 100.720001 L 46.750000 100.720001 L 46.880001 101.230003 C 47.418892 100.835289 48.062653 100.609108 48.730000 100.580002 C 49.128468 100.553772 49.517635 100.707970 49.790001 101.000000 C 50.059731 101.347038 50.191525 101.781601 50.160000 102.220001 L 50.160000 106.349998 Z" fill="#232F3E"/><path d=" M 54.599998 106.199997 C 54.206230 106.345474 53.789780 106.419960 53.369999 106.419998 C 52.894669 106.463928 52.420990 106.320389 52.049999 106.019997 C 51.749146 105.656647 51.602036 105.190201 51.639999 104.719994 L 51.639999 101.820000 L 50.910000 101.820000 L 50.910000 100.900002 L 51.689999 100.750000 L 51.930000 99.209999 L 53.290001 99.209999 L 53.290001 100.720001 L 54.570000 100.720001 L 54.570000 101.820000 L 53.290001 101.820000 L 53.290001 104.589996 C 53.271530 104.776146 53.325222 104.962288 53.440002 105.109993 C 53.586590 105.234970 53.778748 105.292976 53.970001 105.269997 C 54.182240 105.265694 54.393425 105.238876 54.600002 105.189995 Z" fill="#232F3E"/><path d=" M 58.380001 106.349998 L 58.230000 105.839996 C 58.079304 106.046989 57.875443 106.209389 57.639999 106.309998 C 57.396694 106.427460 57.130177 106.488968 56.860001 106.489998 C 56.420822 106.513031 55.992321 106.349617 55.680000 106.040001 C 55.069267 105.292549 55.112175 104.206917 55.779999 103.510002 C 56.175747 103.169495 56.688953 102.997231 57.209999 103.029999 C 57.524334 103.040924 57.836376 103.087898 58.139999 103.169998 L 58.139999 102.660004 C 58.165195 102.388687 58.105812 102.116226 57.970001 101.880005 C 57.809998 101.726921 57.589851 101.653542 57.370003 101.680008 C 56.762173 101.704216 56.161747 101.822273 55.590004 102.030006 L 55.590000 101.029999 C 55.877075 100.871574 56.187679 100.760162 56.509998 100.699997 C 56.891399 100.619514 57.280197 100.579300 57.669998 100.579994 C 58.213604 100.534027 58.755005 100.690742 59.189999 101.019997 C 59.534771 101.396851 59.705322 101.901237 59.660000 102.409996 L 59.660000 106.349998 Z M 57.380001 105.430000 C 57.680283 105.414192 57.964592 105.289810 58.180000 105.080002 L 58.180000 104.000000 C 57.974060 103.948677 57.762180 103.925140 57.549999 103.930000 C 57.349453 103.914780 57.152248 103.987816 57.009998 104.129997 C 56.878239 104.297188 56.814003 104.507729 56.829998 104.719994 C 56.819710 104.905304 56.872589 105.088631 56.980000 105.239990 C 57.064926 105.354698 57.197376 105.424606 57.340000 105.429993 Z" fill="#232F3E"/><path d=" M 63.450001 106.250000 C 63.129803 106.366165 62.790459 106.420456 62.450001 106.410004 C 62.053783 106.445717 61.661079 106.311180 61.369999 106.040001 C 61.106510 105.729019 60.977055 105.326263 61.009998 104.919998 L 61.009998 98.209999 L 62.700001 98.209999 L 62.700001 104.750000 C 62.690224 104.888100 62.717857 105.026283 62.780003 105.150002 C 62.859673 105.241310 62.979939 105.286407 63.100002 105.270004 C 63.216473 105.279564 63.333530 105.279564 63.450001 105.270004 Z" fill="#232F3E"/><path d=" M 19.219999 120.349998 L 19.219999 115.000000 L 17.809999 118.459999 L 16.370001 118.459999 L 15.000000 115.000000 L 15.000000 120.320000 L 13.470000 120.320000 L 13.470000 112.690002 L 15.400000 112.690002 L 17.120001 117.000000 L 18.840000 112.730003 L 20.719999 112.730003 L 20.719999 120.360001 Z" fill="#232F3E"/><path d=" M 23.469999 117.910004 C 23.447708 118.318031 23.575790 118.720070 23.830000 119.040001 C 24.125565 119.286263 24.506880 119.404976 24.889999 119.370003 C 25.119247 119.364609 25.347240 119.334435 25.570000 119.280006 C 25.841526 119.230042 26.108938 119.159843 26.369999 119.070007 L 26.370001 120.070000 C 26.111759 120.217194 25.831509 120.321869 25.540001 120.379997 C 25.211477 120.451813 24.876280 120.488686 24.540001 120.489998 C 22.820000 120.489998 21.969999 119.489998 21.969999 117.540001 C 21.916962 116.755630 22.139818 115.977402 22.599998 115.340004 C 23.054649 114.816292 23.727924 114.535149 24.419998 114.580002 C 25.790001 114.580002 26.469999 115.339996 26.469999 116.870003 C 26.470451 117.206955 26.430159 117.542725 26.349998 117.870003 Z M 24.379999 115.599998 C 23.809999 115.599998 23.500000 116.059998 23.469999 116.970001 L 25.080000 116.970001 L 25.080000 116.720001 C 25.103544 116.424232 25.048340 116.127510 24.920000 115.860001 C 24.797920 115.684784 24.593102 115.586174 24.379999 115.599998 Z" fill="#232F3E"/><path d=" M 30.870001 120.349998 L 30.730000 119.860001 C 30.549530 120.042419 30.335640 120.188408 30.100000 120.290001 C 29.872971 120.389297 29.627796 120.440376 29.380001 120.440002 C 28.781477 120.464928 28.211792 120.181969 27.870001 119.690002 C 27.150002 118.340004 27.150002 116.720001 27.870001 115.370003 C 28.207569 114.858131 28.787207 114.558846 29.400002 114.580002 C 29.615641 114.589058 29.828392 114.632957 30.030001 114.709999 C 30.248535 114.789223 30.454107 114.900436 30.640001 115.040001 L 30.639999 112.209999 L 32.290001 112.209999 L 32.290001 120.349998 Z M 29.940001 119.349998 C 30.196093 119.346977 30.445955 119.270630 30.660000 119.129997 L 30.660000 116.000000 C 30.426195 115.841095 30.152479 115.751007 29.869999 115.739998 C 29.572880 115.727325 29.300188 115.903778 29.189999 116.180000 C 29.032732 116.625710 28.964773 117.098030 28.989998 117.570000 C 28.956959 118.035194 29.035826 118.501541 29.219997 118.930000 C 29.361595 119.191101 29.643944 119.344040 29.939997 119.320000 Z" fill="#232F3E"/><path d=" M 34.599998 113.809998 C 34.344536 113.824768 34.092354 113.746628 33.889999 113.589996 C 33.713272 113.438095 33.617191 113.212677 33.630001 112.979996 C 33.617104 112.744408 33.712925 112.515915 33.889999 112.359993 C 34.314266 112.066772 34.875732 112.066772 35.299999 112.359993 C 35.479565 112.514870 35.578922 112.743027 35.570000 112.979996 C 35.578815 113.214073 35.479195 113.439140 35.299999 113.589996 C 35.102970 113.749374 34.852779 113.828011 34.599998 113.809998 Z M 33.770000 120.349998 L 33.770000 114.720001 L 35.419998 114.720001 L 35.419998 120.349998 Z" fill="#232F3E"/><path d=" M 39.779999 120.349998 L 39.639999 119.839996 C 39.484741 120.042564 39.282154 120.203949 39.049999 120.309998 C 38.803093 120.427322 38.533360 120.488777 38.259998 120.489998 C 37.821014 120.511780 37.393002 120.348557 37.079998 120.040001 C 36.776585 119.708809 36.621304 119.268242 36.649998 118.820000 C 36.626854 118.326881 36.820480 117.848297 37.179996 117.510002 C 37.575745 117.169495 38.088951 116.997231 38.609997 117.029999 C 38.924332 117.040924 39.236374 117.087898 39.539997 117.169998 L 39.540001 116.660004 C 39.567574 116.389763 39.511738 116.117561 39.380001 115.880005 C 39.215477 115.727715 38.992756 115.654694 38.770000 115.680008 C 38.167114 115.695587 37.570179 115.803505 37.000000 116.000008 L 37.000000 115.000000 C 37.286564 114.840446 37.597355 114.728966 37.919998 114.669998 C 38.298016 114.589485 38.683502 114.549255 39.070000 114.549995 C 39.613796 114.502090 40.155880 114.659012 40.590000 114.989998 C 40.934772 115.366852 41.105324 115.871239 41.060001 116.379997 L 41.060001 120.320000 Z M 38.779999 119.430000 C 39.077213 119.413612 39.358181 119.289139 39.570000 119.080002 L 39.570000 118.000000 C 39.367474 117.948616 39.158886 117.925064 38.950001 117.930000 C 38.749069 117.911972 38.550713 117.985435 38.410000 118.129997 C 38.270947 118.293694 38.202602 118.505920 38.220001 118.719994 C 38.209713 118.905304 38.262592 119.088631 38.370003 119.239990 C 38.461197 119.357796 38.601040 119.427719 38.750004 119.429993 Z" fill="#232F3E"/><path d=" M 43.889999 117.000000 C 43.394527 116.765594 42.957329 116.424026 42.610001 116.000000 C 42.351234 115.643089 42.217644 115.210678 42.230000 114.769997 C 42.218891 114.354126 42.337738 113.945145 42.570000 113.599998 C 42.795700 113.259720 43.115288 112.992241 43.489998 112.830002 C 43.911419 112.642693 44.368923 112.550507 44.829998 112.560005 C 45.479679 112.562897 46.122238 112.695488 46.719997 112.950005 L 46.720001 114.120003 C 46.168255 113.917831 45.587395 113.806381 45.000000 113.790001 C 44.715244 113.776161 44.433926 113.857040 44.200001 114.020004 C 44.009697 114.176292 43.905624 114.414169 43.920002 114.660004 C 43.912315 114.862022 43.976044 115.060295 44.100002 115.220001 C 44.305859 115.426086 44.550591 115.589241 44.820004 115.700005 L 45.470001 116.019997 C 45.827839 116.184235 46.163773 116.392517 46.470001 116.639999 C 46.705288 116.820801 46.891045 117.058159 47.010002 117.330002 C 47.136765 117.616226 47.198250 117.927071 47.190002 118.240005 C 47.215500 118.878426 46.941879 119.492226 46.450001 119.900009 C 45.873341 120.327332 45.166985 120.542770 44.450001 120.510010 C 44.066868 120.509682 43.684807 120.469467 43.310001 120.390007 C 42.981331 120.322990 42.662231 120.215508 42.360001 120.070007 L 42.360001 118.919998 C 42.687496 119.025146 43.021549 119.108665 43.360001 119.169998 C 43.689121 119.238113 44.023945 119.274940 44.360001 119.279999 C 44.673580 119.302475 44.985077 119.213982 45.240002 119.029999 C 45.446396 118.853905 45.557594 118.590736 45.540001 118.320000 C 45.546089 118.107033 45.471024 117.899704 45.330002 117.739998 C 45.122326 117.543411 44.882092 117.384384 44.620003 117.269997 Z" fill="#232F3E"/><path d=" M 51.349998 120.199997 C 50.956688 120.347153 50.539932 120.421692 50.119999 120.419998 C 49.647682 120.464508 49.176891 120.320755 48.809998 120.019997 C 48.505260 119.658775 48.357632 119.190689 48.399998 118.719994 L 48.400002 115.820000 L 47.660000 115.820000 L 47.660000 114.900002 L 48.450001 114.750000 L 48.689999 113.209999 L 50.049999 113.209999 L 50.049999 114.720001 L 51.320000 114.720001 L 51.320000 115.820000 L 50.049999 115.820000 L 50.049999 118.589996 C 50.034325 118.774376 50.083870 118.958412 50.189999 119.109993 C 50.336586 119.234970 50.528744 119.292976 50.719997 119.269997 C 50.932270 119.266159 51.143501 119.239334 51.349998 119.189995 Z" fill="#232F3E"/><path d=" M 54.459999 120.489998 C 53.758312 120.528084 53.077446 120.244698 52.610001 119.720001 C 51.743984 118.392052 51.743984 116.677956 52.610001 115.349998 C 53.621750 114.331032 55.267967 114.325180 56.286934 115.336929 C 56.291306 115.341270 56.295662 115.345627 56.300003 115.349998 C 57.166019 116.677948 57.166019 118.392044 56.300003 119.720001 C 55.836540 120.244324 55.158772 120.527962 54.460003 120.489998 Z M 54.459999 119.339996 C 54.743584 119.349129 55.001270 119.175995 55.099998 118.909996 C 55.366795 118.016144 55.366795 117.063843 55.099998 116.169998 C 54.964634 115.813774 54.566120 115.634735 54.209896 115.770103 C 54.025581 115.840141 53.880039 115.985687 53.809998 116.169998 C 53.543201 117.063850 53.543201 118.016151 53.809998 118.909996 C 53.912437 119.177567 54.173679 119.350380 54.459999 119.339996 Z" fill="#232F3E"/><path d=" M 58.110001 120.349998 L 58.110001 114.720001 L 59.459999 114.720001 L 59.639999 115.449997 C 59.839729 115.212708 60.080154 115.012917 60.349998 114.860001 C 60.583046 114.733055 60.844627 114.667656 61.109997 114.669998 L 61.490002 114.669998 L 61.490002 116.000000 C 61.276901 115.985909 61.063103 115.985909 60.850002 116.000000 C 60.471375 116.000565 60.098118 116.089600 59.760002 116.260002 L 59.759998 120.370003 Z" fill="#232F3E"/><path d=" M 63.459999 117.910004 C 63.437706 118.318031 63.565792 118.720070 63.820000 119.040001 C 64.114471 119.288261 64.496643 119.407242 64.879997 119.370003 C 65.109200 119.363998 65.337128 119.333832 65.559998 119.280006 C 65.831245 119.228806 66.098572 119.158638 66.360001 119.070007 L 66.360001 120.070000 C 66.100983 120.215523 65.820999 120.320099 65.529999 120.379997 C 65.201477 120.451813 64.866280 120.488686 64.529999 120.489998 C 62.810001 120.489998 61.950001 119.489998 61.950001 117.540001 C 61.896961 116.755630 62.119820 115.977402 62.580002 115.340004 C 63.038692 114.815964 63.715027 114.535088 64.410004 114.580002 C 65.769997 114.580002 66.410004 115.339996 66.410004 116.870003 C 66.410454 117.206955 66.370163 117.542725 66.290001 117.870003 Z M 64.370003 115.599998 C 63.790001 115.599998 63.490002 116.059998 63.459999 116.970001 L 65.070000 116.970001 L 65.070000 116.720001 C 65.091415 116.423279 65.032707 116.126259 64.900002 115.860001 C 64.782509 115.684830 64.580444 115.585701 64.370003 115.599998 Z" fill="#232F3E"/></g><g id="ICONS_-_EDIT"><g id="MARK_-_AWS_Elemental_MediaStore"><rect x="34.420000" y="55.160000" width="2.000000" height="10.580000" fill="#FFFFFF" transform="matrix(0.500000,-0.866025,0.866025,0.500000,-34.640000,60.900000)"/><path d=" M 40.000000 64.099998 C 39.447716 64.099998 39.000000 63.652283 39.000000 63.099998 L 39.000000 40.580002 L 19.500000 29.320000 C 19.019512 29.047695 18.850746 28.437435 19.123053 27.956947 C 19.212280 27.799505 19.342558 27.669226 19.500000 27.580000 L 39.500000 16.000000 C 39.809402 15.821367 40.190598 15.821367 40.500000 16.000000 L 60.500000 27.540001 C 60.810635 27.719341 61.001423 28.051315 61.000000 28.410002 L 61.000000 51.509998 C 60.997856 51.865108 60.807545 52.192448 60.500000 52.369999 L 40.500000 64.000000 C 40.344776 64.075981 40.172508 64.110435 40.000000 64.099998 Z M 22.000000 28.450001 L 40.500000 39.130001 C 40.810635 39.309341 41.001423 39.641315 41.000000 40.000000 L 41.000000 61.360001 L 59.000000 51.000000 L 59.000000 29.000000 L 40.000000 18.000000 Z" fill="#FFFFFF"/><path d=" M 50.000000 58.320000 C 49.824825 58.321209 49.652405 58.276379 49.500000 58.189999 L 39.500000 52.410000 L 40.500000 50.680000 L 49.000000 55.590000 L 49.000000 34.799999 L 29.500000 23.540001 L 30.500000 21.809999 L 50.500000 33.360001 C 50.810635 33.539341 51.001423 33.871315 51.000000 34.230000 L 51.000000 57.320000 C 51.001423 57.678684 50.810635 58.010658 50.500000 58.189999 C 50.347595 58.276379 50.175175 58.321209 50.000000 58.320000 Z" fill="#FFFFFF"/><rect x="29.000000" y="22.680000" width="2.000000" height="11.550000" fill="#FFFFFF"/><rect x="49.260000" y="30.410000" width="11.390000" height="2.000000" fill="#FFFFFF" transform="matrix(0.869236,-0.494397,0.494397,0.869236,-8.340000,31.280000)"/><rect x="19.000000" y="28.450000" width="2.000000" height="10.550000" fill="#FFFFFF"/><rect x="39.000000" y="28.450000" width="2.000000" height="5.550000" fill="#FFFFFF"/><rect x="46.810000" y="41.980000" width="2.000000" height="5.050000" fill="#FFFFFF" transform="matrix(0.500000,-0.866025,0.866025,0.500000,-14.640000,63.660000)"/><rect x="39.230000" y="24.560000" width="11.550000" height="2.000000" fill="#FFFFFF" transform="matrix(0.866113,-0.499849,0.499849,0.866113,-6.750000,25.920000)"/><rect x="49.230000" y="41.890000" width="11.550000" height="2.000000" fill="#FFFFFF" transform="matrix(0.866113,-0.499849,0.499849,0.866113,-14.070000,33.240000)"/><path d=" M 25.500000 55.720001 C 25.325163 55.718567 25.153395 55.673908 25.000000 55.590000 L 19.500000 52.410000 C 19.189365 52.230659 18.998575 51.898685 19.000000 51.540001 L 19.000000 45.189999 C 19.002144 44.834888 19.192455 44.507549 19.500000 44.329998 L 25.000000 41.150002 C 25.309401 40.971367 25.690599 40.971367 26.000000 41.150002 L 31.500000 44.330002 C 31.807545 44.507553 31.997856 44.834892 32.000000 45.190002 L 32.000000 51.540001 C 32.001423 51.898685 31.810635 52.230659 31.500000 52.410000 L 26.000000 55.590000 C 25.845608 55.671364 25.674469 55.715858 25.500000 55.720001 Z M 21.000000 51.000000 L 25.500000 53.599998 L 30.000000 51.000000 L 30.000000 45.799999 L 25.500000 43.200001 L 21.000000 45.770000 Z" fill="#FFFFFF"/></g></g></svg>