<svg version="1.1" width="80.000000" height="130.000000" viewBox="0.000000 0.000000 80.000000 130.000000" xmlns="http://www.w3.org/2000/svg" xmlns:xlink="http://www.w3.org/1999/xlink" overflow="hidden"><g id="CARDS"><rect x="1.000000" y="1.000000" width="78.000000" height="78.000000" fill="#232F3E"/><path d=" M 0.000000 0.000000 L 0.000000 80.000000 L 0.000000 80.000000 L 0.000000 130.000000 L 80.000000 130.000000 L 80.000000 80.000000 L 80.000000 80.000000 L 80.000000 0.000000 Z M 1.000000 1.000000 L 79.000000 1.000000 L 79.000000 79.000000 L 1.000000 79.000000 Z" fill="#FFFFFF"/></g><g id="TEXT_-_AWS_Elemental_MediaTailor"><path d=" M 33.689999 92.349998 L 33.250000 90.529999 L 31.250000 90.529999 L 30.830000 92.349998 L 29.059999 92.349998 L 31.370001 84.720001 L 33.240002 84.720001 L 35.540001 92.349998 Z M 31.510000 89.430000 L 33.000000 89.430000 L 32.240002 86.269997 Z" fill="#232F3E"/><path d=" M 40.889999 92.349998 L 40.000000 86.720001 L 39.110001 92.349998 L 37.189999 92.349998 L 35.410000 84.720001 L 37.110001 84.720001 L 38.169998 90.779999 L 39.080002 85.000000 L 40.919998 85.000000 L 41.860001 90.650002 L 42.860001 84.650002 L 44.520000 84.650002 L 42.740002 92.279999 Z" fill="#232F3E"/><path d=" M 46.840000 89.000000 C 46.345402 88.768761 45.910801 88.426559 45.570000 88.000000 C 45.307678 87.644348 45.170536 87.211830 45.180000 86.769997 C 45.168892 86.354126 45.287739 85.945145 45.520000 85.599998 C 45.745701 85.259720 46.065289 84.992241 46.439999 84.830002 C 46.861813 84.643929 47.319042 84.551804 47.779999 84.560005 C 48.429764 84.562088 49.072483 84.694710 49.669998 84.950005 L 49.669998 86.120003 C 49.134098 85.923050 48.570534 85.811684 48.000000 85.790001 C 47.718163 85.774521 47.439480 85.855652 47.209999 86.020004 C 47.013199 86.172058 46.904575 86.411781 46.919998 86.660004 C 46.912312 86.862022 46.976040 87.060295 47.099998 87.220001 C 47.307770 87.423737 47.552021 87.586571 47.820000 87.700005 L 48.470001 88.019997 C 48.826054 88.187546 49.161602 88.395592 49.470001 88.639999 C 49.698788 88.827263 49.883213 89.062912 50.010002 89.330002 C 50.129375 89.621704 50.187252 89.934906 50.180000 90.250000 C 50.210262 90.886475 49.935429 91.499283 49.439999 91.900002 C 48.864475 92.329575 48.157295 92.545265 47.439999 92.510002 C 47.060139 92.510231 46.681335 92.470001 46.309998 92.389999 C 45.964050 92.327736 45.627823 92.220139 45.309998 92.070000 L 45.310001 90.919998 C 45.637497 91.025146 45.971550 91.108665 46.310001 91.169998 C 46.639122 91.238113 46.973946 91.274940 47.310001 91.279999 C 47.623581 91.302475 47.935078 91.213982 48.190002 91.029999 C 48.396397 90.853905 48.507595 90.590736 48.490002 90.320000 C 48.496090 90.107033 48.421024 89.899704 48.280003 89.739998 C 48.072327 89.543411 47.832092 89.384384 47.570004 89.269997 Z" fill="#232F3E"/><path d=" M 16.610001 106.349998 L 16.610001 98.720001 L 21.150000 98.720001 L 21.150000 99.900002 L 18.299999 99.900002 L 18.299999 101.849998 L 20.580000 101.849998 L 20.580000 103.000000 L 18.299999 103.000000 L 18.299999 105.150002 L 21.150000 105.150002 L 21.150000 106.330002 Z" fill="#232F3E"/><path d=" M 24.670000 106.250000 C 24.349802 106.366165 24.010456 106.420456 23.670000 106.410004 C 23.273781 106.445717 22.881079 106.311180 22.590000 106.040001 C 22.326511 105.729019 22.197054 105.326263 22.230000 104.919998 L 22.230000 98.209999 L 23.879999 98.209999 L 23.879999 104.750000 C 23.869198 104.888161 23.896889 105.026619 23.959999 105.150002 C 24.039671 105.241310 24.159935 105.286407 24.279999 105.270004 C 24.396490 105.279053 24.513508 105.279053 24.629999 105.270004 Z" fill="#232F3E"/><path d=" M 26.780001 103.919998 C 26.759251 104.324760 26.887299 104.723129 27.140001 105.040001 C 27.435566 105.286263 27.816881 105.404976 28.200001 105.370003 C 28.429201 105.363998 28.657129 105.333832 28.880001 105.280006 C 29.151527 105.230042 29.418940 105.159843 29.680000 105.070007 L 29.680000 106.070000 C 29.421759 106.217194 29.141508 106.321869 28.850000 106.379997 C 28.521477 106.451813 28.186279 106.488686 27.850000 106.489998 C 26.129999 106.489998 25.270000 105.489998 25.270000 103.540001 C 25.215513 102.753960 25.442366 101.974152 25.910000 101.340004 C 26.364651 100.816292 27.037926 100.535149 27.730000 100.580002 C 29.100000 100.580002 29.780001 101.339996 29.780001 102.870003 C 29.779127 103.206871 29.738853 103.542488 29.660000 103.870003 Z M 27.690001 101.599998 C 27.110001 101.599998 26.809999 102.059998 26.780001 102.970001 L 28.389999 102.970001 L 28.389999 102.720001 C 28.410442 102.423340 28.351778 102.126572 28.219999 101.860001 C 28.102509 101.684830 27.900440 101.585701 27.689999 101.599998 Z" fill="#232F3E"/><path d=" M 37.000000 106.349998 L 37.000000 102.639999 C 37.019257 102.402504 36.974358 102.164200 36.869999 101.949997 C 36.765141 101.796478 36.585052 101.712181 36.399998 101.729996 C 36.117710 101.742058 35.844273 101.832047 35.609997 101.989998 C 35.610001 101.989998 35.610001 102.070000 35.610001 102.110001 L 35.610001 106.349998 L 34.000000 106.349998 L 34.000000 102.639999 C 34.016663 102.401566 33.968277 102.163086 33.860001 101.949997 C 33.758389 101.798111 33.582016 101.713760 33.400002 101.729996 C 33.117992 101.743576 32.844955 101.833435 32.610001 101.989998 L 32.610001 106.349998 L 30.920000 106.349998 L 30.920000 100.720001 L 32.270000 100.720001 L 32.400002 101.230003 C 32.926559 100.840569 33.555988 100.614525 34.210003 100.580002 C 34.710239 100.544861 35.184319 100.807365 35.420002 101.250000 C 35.949543 100.849174 36.586838 100.615852 37.250004 100.580002 C 37.629108 100.564880 37.995392 100.718712 38.250004 101.000000 C 38.510433 101.351334 38.637978 101.783562 38.610004 102.220001 L 38.610001 106.349998 Z" fill="#232F3E"/><path d=" M 41.259998 103.919998 C 41.239250 104.324760 41.367298 104.723129 41.619999 105.040001 C 41.915565 105.286263 42.296879 105.404976 42.680000 105.370003 C 42.909248 105.364609 43.137241 105.334435 43.360001 105.280006 C 43.631527 105.230042 43.898941 105.159843 44.160000 105.070007 L 44.160000 106.070000 C 43.901760 106.217194 43.621506 106.321869 43.329998 106.379997 C 43.001472 106.451813 42.666275 106.488686 42.329998 106.489998 C 40.610001 106.489998 39.750000 105.489998 39.750000 103.540001 C 39.699844 102.754425 39.926273 101.976082 40.389999 101.340004 C 40.844650 100.816292 41.517925 100.535149 42.209999 100.580002 C 43.580002 100.580002 44.259998 101.339996 44.259998 102.870003 C 44.259125 103.206871 44.218853 103.542488 44.139999 103.870003 Z M 42.169998 101.599998 C 41.599998 101.599998 41.290001 102.059998 41.259998 102.970001 L 42.869999 102.970001 L 42.869999 102.720001 C 42.895039 102.423065 42.836132 102.125076 42.700001 101.860001 C 42.583954 101.683182 42.380859 101.583549 42.170002 101.599998 Z" fill="#232F3E"/><path d=" M 48.509998 106.349998 L 48.509998 102.650002 C 48.526493 102.408363 48.478165 102.166710 48.369999 101.950005 C 48.254101 101.793236 48.063877 101.709541 47.869999 101.730003 C 47.577969 101.739677 47.294250 101.829636 47.049999 101.990005 L 47.049999 106.349998 L 45.400002 106.349998 L 45.400002 100.720001 L 46.750000 100.720001 L 46.880001 101.230003 C 47.418892 100.835289 48.062653 100.609108 48.730000 100.580002 C 49.128468 100.553772 49.517635 100.707970 49.790001 101.000000 C 50.059731 101.347038 50.191525 101.781601 50.160000 102.220001 L 50.160000 106.349998 Z" fill="#232F3E"/><path d=" M 54.599998 106.199997 C 54.206230 106.345474 53.789780 106.419960 53.369999 106.419998 C 52.894669 106.463928 52.420990 106.320389 52.049999 106.019997 C 51.749146 105.656647 51.602036 105.190201 51.639999 104.719994 L 51.639999 101.820000 L 50.910000 101.820000 L 50.910000 100.900002 L 51.689999 100.750000 L 51.930000 99.209999 L 53.290001 99.209999 L 53.290001 100.720001 L 54.570000 100.720001 L 54.570000 101.820000 L 53.290001 101.820000 L 53.290001 104.589996 C 53.271530 104.776146 53.325222 104.962288 53.440002 105.109993 C 53.586590 105.234970 53.778748 105.292976 53.970001 105.269997 C 54.182240 105.265694 54.393425 105.238876 54.600002 105.189995 Z" fill="#232F3E"/><path d=" M 58.380001 106.349998 L 58.230000 105.839996 C 58.079304 106.046989 57.875443 106.209389 57.639999 106.309998 C 57.396694 106.427460 57.130177 106.488968 56.860001 106.489998 C 56.420822 106.513031 55.992321 106.349617 55.680000 106.040001 C 55.069267 105.292549 55.112175 104.206917 55.779999 103.510002 C 56.177273 103.173096 56.690315 103.004471 57.209999 103.040001 C 57.524029 103.046669 57.836178 103.090302 58.139999 103.169998 L 58.139999 102.660004 C 58.165195 102.388687 58.105812 102.116226 57.970001 101.880005 C 57.809998 101.726921 57.589851 101.653542 57.370003 101.680008 C 56.762173 101.704216 56.161747 101.822273 55.590004 102.030006 L 55.590000 101.029999 C 55.877075 100.871574 56.187679 100.760162 56.509998 100.699997 C 56.891399 100.619514 57.280197 100.579300 57.669998 100.579994 C 58.213604 100.534027 58.755005 100.690742 59.189999 101.019997 C 59.534771 101.396851 59.705322 101.901237 59.660000 102.409996 L 59.660000 106.349998 Z M 57.380001 105.430000 C 57.681385 105.418922 57.967319 105.293823 58.180000 105.080002 L 58.180000 104.000000 C 57.974060 103.948677 57.762180 103.925140 57.549999 103.930000 C 57.349453 103.914780 57.152248 103.987816 57.009998 104.129997 C 56.878239 104.297188 56.814003 104.507729 56.829998 104.719994 C 56.819710 104.905304 56.872589 105.088631 56.980000 105.239990 C 57.064926 105.354698 57.197376 105.424606 57.340000 105.429993 Z" fill="#232F3E"/><path d=" M 63.450001 106.250000 C 63.129803 106.366165 62.790459 106.420456 62.450001 106.410004 C 62.053783 106.445717 61.661079 106.311180 61.369999 106.040001 C 61.106510 105.729019 60.977055 105.326263 61.009998 104.919998 L 61.009998 98.209999 L 62.700001 98.209999 L 62.700001 104.750000 C 62.689198 104.888161 62.716888 105.026619 62.780003 105.150002 C 62.859673 105.241310 62.979939 105.286407 63.100002 105.270004 C 63.216473 105.279564 63.333530 105.279564 63.450001 105.270004 Z" fill="#232F3E"/><path d=" M 18.000000 120.349998 L 18.000000 115.000000 L 16.590000 118.459999 L 15.200000 118.459999 L 13.800000 115.000000 L 13.800000 120.320000 L 12.300000 120.320000 L 12.300000 112.690002 L 14.220000 112.690002 L 16.000000 117.000000 L 17.719999 112.730003 L 19.600000 112.730003 L 19.600000 120.360001 Z" fill="#232F3E"/><path d=" M 22.299999 117.919998 C 22.279249 118.324760 22.407297 118.723129 22.660000 119.040001 C 22.954473 119.288261 23.336643 119.407242 23.719999 119.370003 C 23.949200 119.363998 24.177128 119.333832 24.400000 119.280006 C 24.671251 119.228806 24.938574 119.158638 25.199999 119.070007 L 25.200001 120.070000 C 24.940981 120.215523 24.661001 120.320099 24.370001 120.379997 C 24.041477 120.451813 23.706280 120.488686 23.370001 120.489998 C 21.650000 120.489998 20.790001 119.489998 20.790001 117.540001 C 20.736963 116.755630 20.959820 115.977402 21.420000 115.340004 C 21.878689 114.815964 22.555023 114.535088 23.250000 114.580002 C 24.610001 114.580002 25.250000 115.339996 25.250000 116.870003 C 25.249126 117.206871 25.208853 117.542488 25.129999 117.870003 Z M 23.209999 115.599998 C 22.629999 115.599998 22.330000 116.059998 22.299999 116.970001 L 23.910000 116.970001 L 23.910000 116.720001 C 23.930443 116.423340 23.871778 116.126572 23.740000 115.860001 C 23.622509 115.684830 23.420441 115.585701 23.209999 115.599998 Z" fill="#232F3E"/><path d=" M 29.690001 120.349998 L 29.559999 119.860001 C 29.379530 120.042419 29.165640 120.188408 28.930000 120.290001 C 28.702375 120.387421 28.457592 120.438423 28.210001 120.440002 C 27.611477 120.464928 27.041792 120.181969 26.700001 119.690002 C 26.305483 119.052330 26.116936 118.308617 26.160000 117.560005 C 26.115650 116.789658 26.311304 116.024506 26.719999 115.370003 C 27.057568 114.858131 27.637205 114.558846 28.250000 114.580002 C 28.465471 114.590401 28.678011 114.634262 28.879999 114.709999 C 29.098534 114.789223 29.304106 114.900436 29.490000 115.040001 L 29.490000 112.209999 L 31.139999 112.209999 L 31.139999 120.349998 Z M 28.770000 119.349998 C 29.026093 119.346977 29.275955 119.270630 29.490000 119.129997 L 29.490000 116.000000 C 29.252628 115.840775 28.975628 115.750748 28.690001 115.739998 C 28.396488 115.731621 28.128944 115.907326 28.020000 116.180000 C 27.853645 116.623573 27.782108 117.097084 27.810001 117.570000 C 27.781811 118.034950 27.860489 118.500175 28.040001 118.930000 C 28.186844 119.190842 28.471548 119.342941 28.770000 119.320000 Z" fill="#232F3E"/><path d=" M 33.430000 113.809998 C 33.173859 113.830612 32.919609 113.751831 32.720001 113.589996 C 32.540806 113.439140 32.441185 113.214073 32.450001 112.979996 C 32.439644 112.745628 32.539551 112.519913 32.720001 112.369995 C 33.140442 112.064751 33.709560 112.064751 34.130001 112.369995 C 34.304264 112.523682 34.399811 112.747849 34.389999 112.979996 C 34.396992 113.211624 34.301937 113.434639 34.130001 113.589996 C 33.932972 113.749374 33.682781 113.828011 33.430000 113.809998 Z M 32.599998 120.349998 L 32.599998 114.720001 L 34.250000 114.720001 L 34.250000 120.349998 Z" fill="#232F3E"/><path d=" M 38.610001 120.349998 L 38.459999 119.839996 C 38.309303 120.046989 38.105442 120.209389 37.869999 120.309998 C 37.627037 120.428444 37.360294 120.489998 37.090000 120.489998 C 36.650822 120.513031 36.222321 120.349617 35.910000 120.040001 C 35.299267 119.292549 35.342175 118.206917 36.009998 117.510002 C 36.407272 117.173096 36.920315 117.004471 37.439999 117.040001 C 37.754028 117.046669 38.066177 117.090302 38.369999 117.169998 L 38.369999 116.660004 C 38.392143 116.390068 38.336628 116.119423 38.209999 115.880005 C 38.044796 115.728874 37.822613 115.656029 37.599998 115.680008 C 36.995335 115.703468 36.398083 115.821564 35.829998 116.030006 L 35.830002 115.029999 C 36.112705 114.869797 36.420322 114.758240 36.740002 114.699997 C 37.121403 114.619514 37.510201 114.579300 37.900002 114.579994 C 38.443607 114.534027 38.985008 114.690742 39.420002 115.019997 C 39.764774 115.396851 39.935326 115.901237 39.890003 116.409996 L 39.889999 120.349998 Z M 37.610001 119.430000 C 37.911385 119.418922 38.197319 119.293823 38.410000 119.080002 L 38.410000 118.000000 C 38.204060 117.948677 37.992180 117.925140 37.779999 117.930000 C 37.582249 117.913605 37.387619 117.987053 37.250000 118.129997 C 37.110947 118.293694 37.042603 118.505920 37.060001 118.719994 C 37.049713 118.905304 37.102592 119.088631 37.210003 119.239990 C 37.294930 119.354698 37.427380 119.424606 37.570004 119.429993 Z" fill="#232F3E"/><path d=" M 42.709999 120.349998 L 42.709999 113.940002 L 40.709999 113.940002 L 40.709999 112.720001 L 46.389999 112.720001 L 46.389999 113.940002 L 44.389999 113.940002 L 44.389999 120.349998 Z" fill="#232F3E"/><path d=" M 49.660000 120.349998 L 49.509998 119.839996 C 49.359303 120.046989 49.155441 120.209389 48.919998 120.309998 C 48.676250 120.426201 48.410019 120.487640 48.139999 120.489998 C 47.708591 120.491318 47.295898 120.313934 47.000000 120.000000 C 46.693970 119.669823 46.535168 119.229507 46.560001 118.779999 C 46.536858 118.286880 46.730484 117.808296 47.090000 117.470001 C 47.493866 117.137909 48.007988 116.970108 48.529999 117.000000 C 48.844028 117.006668 49.156178 117.050301 49.459999 117.129997 L 49.459999 116.620003 C 49.485195 116.348686 49.425812 116.076225 49.290001 115.840004 C 49.125477 115.687714 48.902756 115.614693 48.680000 115.640007 C 48.075546 115.665237 47.478565 115.783279 46.910000 115.990005 L 46.910000 114.989998 C 47.197075 114.831573 47.507679 114.720161 47.829998 114.659996 C 48.211399 114.579514 48.600197 114.539299 48.989998 114.539993 C 49.530548 114.493652 50.068951 114.650543 50.499996 114.979996 C 50.849228 115.354202 51.020470 115.860634 50.969997 116.369995 L 50.970001 120.309998 Z M 48.660000 119.430000 C 48.960934 119.416977 49.246193 119.292175 49.459999 119.080002 L 49.459999 118.000000 C 49.254059 117.948677 49.042179 117.925140 48.829998 117.930000 C 48.629452 117.914780 48.432247 117.987816 48.289997 118.129997 C 48.158237 118.297188 48.094002 118.507729 48.109997 118.719994 C 48.099709 118.905304 48.152588 119.088631 48.259998 119.239990 C 48.344925 119.354698 48.477375 119.424606 48.619999 119.429993 Z" fill="#232F3E"/><path d=" M 53.200001 113.809998 C 52.943859 113.830612 52.689610 113.751831 52.490002 113.589996 C 52.310806 113.439140 52.211185 113.214073 52.220001 112.979996 C 52.209644 112.745628 52.309551 112.519913 52.490002 112.369995 C 52.910442 112.064751 53.479561 112.064751 53.900002 112.369995 C 54.074265 112.523682 54.169811 112.747849 54.160000 112.979996 C 54.166992 113.211624 54.071938 113.434639 53.900002 113.589996 C 53.702972 113.749374 53.452782 113.828011 53.200001 113.809998 Z M 52.369999 120.349998 L 52.369999 114.720001 L 54.000000 114.720001 L 54.000000 120.349998 Z" fill="#232F3E"/><path d=" M 57.869999 120.250000 C 57.549801 120.366165 57.210457 120.420456 56.869999 120.410004 C 56.474243 120.441948 56.083023 120.307922 55.789997 120.040001 C 55.530098 119.727486 55.404285 119.324898 55.439999 118.919998 L 55.439999 112.209999 L 57.090000 112.209999 L 57.090000 118.750000 C 57.077122 118.887192 57.101295 119.025330 57.160000 119.150002 C 57.240696 119.239822 57.360142 119.284615 57.480000 119.270004 C 57.596470 119.279564 57.713528 119.279564 57.829998 119.270004 Z" fill="#232F3E"/><path d=" M 61.000000 120.489998 C 60.301231 120.527954 59.623463 120.244324 59.160000 119.720001 C 58.293983 118.392052 58.293983 116.677956 59.160000 115.349998 C 60.171749 114.331032 61.817966 114.325180 62.836933 115.336929 C 62.841305 115.341270 62.845661 115.345627 62.850002 115.349998 C 63.716019 116.677948 63.716019 118.392044 62.850002 119.720001 C 62.382557 120.244698 61.701687 120.528084 61.000004 120.489998 Z M 61.000000 119.339996 C 61.286320 119.350388 61.547558 119.177567 61.650002 118.909996 C 61.916798 118.016144 61.916798 117.063843 61.650002 116.169998 C 61.550919 115.898483 61.288895 115.721115 61.000000 115.729996 C 60.713818 115.722336 60.455326 115.900047 60.360001 116.169998 C 60.093204 117.063850 60.093204 118.016151 60.360001 118.909996 C 60.458729 119.175995 60.716415 119.349129 61.000000 119.339996 Z" fill="#232F3E"/><path d=" M 64.639999 120.349998 L 64.639999 114.720001 L 66.000000 114.720001 L 66.180000 115.449997 C 66.380951 115.209991 66.625183 115.009857 66.900002 114.860001 C 67.129921 114.734291 67.387962 114.668915 67.650002 114.669998 C 67.779816 114.660080 67.910194 114.660080 68.040001 114.669998 L 68.040001 116.000000 C 67.826889 115.986336 67.613113 115.986336 67.400002 116.000000 C 67.018166 116.000481 66.641640 116.089478 66.300003 116.260002 L 66.300003 120.370003 Z" fill="#232F3E"/></g><g id="ICONS_-_EDIT"><g id="MARK_-_AWS_Elemental_MediaTailor"><path d=" M 39.000000 63.000000 L 39.000000 54.000000 L 24.549999 45.669998 C 24.069511 45.397694 23.900745 44.787434 24.173052 44.306946 C 24.262280 44.149502 24.392557 44.019226 24.549999 43.929996 L 31.400000 39.930000 L 24.549999 35.930000 C 24.242455 35.752449 24.052143 35.425110 24.049999 35.070000 C 24.048574 34.711315 24.239365 34.379341 24.549999 34.200001 L 34.230000 28.610001 L 33.500000 28.190001 C 33.189365 28.010660 32.998577 27.678686 33.000000 27.320000 L 33.000000 20.480000 C 33.002144 20.124889 33.192455 19.797552 33.500000 19.619999 L 39.500000 16.150000 C 39.809402 15.971367 40.190598 15.971367 40.500000 16.150000 L 46.500000 19.620001 C 46.807545 19.797554 46.997856 20.124889 47.000000 20.480001 L 47.000000 27.410000 C 47.001423 27.768684 46.810635 28.100658 46.500000 28.280001 L 45.770000 28.700001 L 55.450001 34.290001 C 55.760635 34.469341 55.951424 34.801315 55.950001 35.160000 C 55.947857 35.515110 55.757545 35.842449 55.450001 36.020000 L 48.599998 40.000000 L 55.450001 44.000000 C 55.930489 44.272305 56.099255 44.882565 55.826950 45.363052 C 55.737724 45.520496 55.607445 45.650772 55.450001 45.740002 L 41.000000 54.000000 L 41.000000 63.000000 Z M 27.049999 44.799999 L 40.049999 52.279999 L 53.000000 44.799999 L 46.599998 41.130001 L 41.000000 44.369999 L 41.000000 46.000000 L 39.000000 46.000000 L 39.000000 44.369999 L 33.400002 41.130001 Z M 27.049999 35.160000 L 40.049999 42.630001 L 53.049999 35.160000 L 43.869999 29.850000 L 41.000000 31.450001 L 41.000000 35.939999 L 39.000000 35.939999 L 39.000000 31.450001 L 36.230000 29.850000 Z M 35.049999 26.830000 L 40.049999 29.719999 L 45.049999 26.830000 L 45.049999 21.059999 L 40.049999 18.170000 L 35.049999 21.059999 Z M 46.290001 60.630001 L 45.290001 58.889999 L 59.000000 51.000000 L 59.000000 43.080002 L 61.000000 43.080002 L 61.000000 51.529999 C 60.997856 51.885109 60.807545 52.212448 60.500000 52.389999 Z M 33.810001 60.630001 L 19.500000 52.389999 C 19.192455 52.212448 19.002144 51.885109 19.000000 51.529999 L 19.000000 43.080002 L 21.000000 43.080002 L 21.000000 51.000000 L 34.759998 58.939999 Z M 61.000000 36.869999 L 59.000000 36.869999 L 59.000000 29.000000 L 50.240002 24.000000 L 51.240002 22.270000 L 60.500000 27.620001 C 60.807545 27.797554 60.997856 28.124889 61.000000 28.480001 Z M 21.000000 36.869999 L 19.000000 36.869999 L 19.000000 28.430000 C 19.002144 28.074890 19.192455 27.747553 19.500000 27.570000 L 28.760000 22.219999 L 29.760000 23.950001 L 21.000000 29.000000 Z" fill="#FFFFFF"/></g></g></svg>