<svg version="1.1" width="80.000000" height="130.000000" viewBox="0.000000 0.000000 80.000000 130.000000" xmlns="http://www.w3.org/2000/svg" xmlns:xlink="http://www.w3.org/1999/xlink" overflow="hidden"><defs><clipPath id="clip-path"><rect x="15.000000" y="15.000000" width="50.000000" height="50.000000" fill="none"/></clipPath></defs><g id="CARDS"><rect x="1.000000" y="1.000000" width="78.000000" height="78.000000" fill="#232F3E"/><path d=" M 0.000000 0.000000 L 0.000000 80.000000 L 0.000000 80.000000 L 0.000000 130.000000 L 80.000000 130.000000 L 80.000000 80.000000 L 80.000000 80.000000 L 80.000000 0.000000 Z M 1.000000 1.000000 L 79.000000 1.000000 L 79.000000 79.000000 L 1.000000 79.000000 Z" fill="#FFFFFF"/></g><g id="TEXT_-_EDIT"><path d=" M 25.350000 92.349998 L 24.920000 90.529999 L 22.920000 90.529999 L 22.500000 92.349998 L 20.719999 92.349998 L 23.000000 84.720001 L 24.900000 84.720001 L 27.209999 92.349998 Z M 23.170000 89.430000 L 24.660000 89.430000 L 23.900000 86.269997 Z" fill="#232F3E"/><path d=" M 34.060001 92.349998 L 34.060001 88.639999 C 34.076664 88.401566 34.028278 88.163086 33.920002 87.949997 C 33.818390 87.798111 33.642017 87.713760 33.460003 87.729996 C 33.174561 87.741776 32.897831 87.831711 32.660004 87.989998 C 32.664921 88.029846 32.664921 88.070152 32.660004 88.110001 L 32.660000 92.349998 L 31.000000 92.349998 L 31.000000 88.639999 C 31.019257 88.402504 30.974358 88.164200 30.870001 87.949997 C 30.765142 87.796478 30.585056 87.712181 30.400002 87.729996 C 30.121338 87.744865 29.851856 87.834694 29.620001 87.989998 L 29.620001 92.349998 L 28.000000 92.349998 L 28.000000 86.720001 L 29.350000 86.720001 L 29.480000 87.230003 C 30.005127 86.837898 30.635393 86.611557 31.289999 86.580002 C 31.787903 86.543671 32.259682 86.807076 32.489998 87.250000 C 33.020988 86.851845 33.657448 86.618820 34.320000 86.580002 C 34.698605 86.567619 35.063778 86.720993 35.320000 87.000000 C 35.580429 87.351334 35.707973 87.783562 35.680000 88.220001 L 35.680000 92.349998 Z" fill="#232F3E"/><path d=" M 40.000000 92.349998 L 39.860001 91.839996 C 39.704742 92.042564 39.502155 92.203949 39.270000 92.309998 C 39.023094 92.427322 38.753361 92.488777 38.480000 92.489998 C 38.038441 92.498497 37.613724 92.320625 37.310001 92.000000 C 37.006588 91.668808 36.851307 91.228241 36.880001 90.779999 C 36.856857 90.286880 37.050484 89.808296 37.410000 89.470001 C 37.807274 89.133095 38.320316 88.964470 38.840000 89.000000 C 39.154030 89.006668 39.466179 89.050301 39.770000 89.129997 L 39.770000 88.620003 C 39.797573 88.349762 39.741737 88.077560 39.610001 87.840004 C 39.445477 87.687714 39.222755 87.614693 39.000000 87.640007 C 38.395546 87.665237 37.798565 87.783279 37.230000 87.990005 L 37.230000 87.000000 C 37.513470 86.841469 37.820801 86.730019 38.139999 86.669998 C 38.521481 86.590019 38.910225 86.549805 39.299999 86.549995 C 39.843796 86.502090 40.385880 86.659012 40.820000 86.989998 C 41.164772 87.366852 41.335323 87.871239 41.290001 88.379997 L 41.290001 92.320000 Z M 39.000000 91.430000 C 39.298344 91.418404 39.580971 91.293190 39.790001 91.080002 L 39.790001 90.000000 C 39.584171 89.948074 39.372208 89.924522 39.160000 89.930000 C 38.962250 89.913605 38.767620 89.987053 38.630001 90.129997 C 38.490948 90.293694 38.422604 90.505920 38.440002 90.719994 C 38.429714 90.905304 38.482594 91.088631 38.590004 91.239990 C 38.687565 91.366325 38.840549 91.437218 39.000004 91.429993 Z" fill="#232F3E"/><path d=" M 42.279999 92.349998 L 42.279999 91.279999 L 44.770000 87.879997 L 42.369999 87.879997 L 42.369999 86.720001 L 46.509998 86.720001 L 46.509998 87.790001 L 44.000000 91.190002 L 46.540001 91.190002 L 46.540001 92.349998 Z" fill="#232F3E"/><path d=" M 49.790001 92.489998 C 49.108448 92.512650 48.452259 92.230377 48.000000 91.720001 C 47.133984 90.392052 47.133984 88.677956 48.000000 87.349998 C 49.011749 86.331032 50.657967 86.325180 51.676933 87.336929 C 51.681305 87.341270 51.685661 87.345627 51.690002 87.349998 C 52.556019 88.677948 52.556019 90.392044 51.690002 91.720001 C 51.211487 92.259041 50.508781 92.543823 49.790001 92.489998 Z M 49.790001 91.339996 C 50.076321 91.350388 50.337559 91.177567 50.440002 90.909996 C 50.706799 90.016144 50.706799 89.063843 50.440002 88.169998 C 50.304638 87.813774 49.906124 87.634735 49.549900 87.770103 C 49.365585 87.840141 49.220043 87.985687 49.150002 88.169998 C 48.883205 89.063850 48.883205 90.016151 49.150002 90.909996 C 49.248730 91.175995 49.506416 91.349129 49.790001 91.339996 Z" fill="#232F3E"/><path d=" M 56.549999 92.349998 L 56.549999 88.650002 C 56.566494 88.408363 56.518166 88.166710 56.410000 87.950005 C 56.294102 87.793236 56.103878 87.709541 55.910000 87.730003 C 55.618229 87.741188 55.334908 87.831024 55.090000 87.990005 L 55.090000 92.349998 L 53.439999 92.349998 L 53.439999 86.720001 L 54.790001 86.720001 L 54.930000 87.230003 C 55.464371 86.833908 56.105400 86.607452 56.770000 86.580002 C 57.171432 86.553581 57.563728 86.707565 57.840000 87.000000 C 58.102020 87.350540 58.229740 87.783371 58.200001 88.220001 L 58.200001 92.349998 Z" fill="#232F3E"/><path d=" M 9.000000 106.349998 L 9.000000 98.720001 L 10.680000 98.720001 L 10.680000 102.110001 L 13.000000 98.720001 L 14.870000 98.720001 L 12.230000 102.290001 L 15.080000 106.349998 L 13.080000 106.349998 L 10.720000 102.660004 L 10.720000 106.349998 Z" fill="#232F3E"/><path d=" M 16.629999 99.809998 C 16.373856 99.830612 16.119608 99.751831 15.919999 99.589996 C 15.740803 99.439140 15.641185 99.214073 15.649999 98.979996 C 15.639642 98.745628 15.739549 98.519913 15.919999 98.369995 C 16.340439 98.064751 16.909559 98.064751 17.330000 98.369995 C 17.504265 98.523682 17.599810 98.747849 17.590000 98.979996 C 17.596994 99.211624 17.501938 99.434639 17.330000 99.589996 C 17.132973 99.749374 16.882780 99.828011 16.629999 99.809998 Z M 15.800000 106.349998 L 15.800000 100.720001 L 17.450001 100.720001 L 17.450001 106.349998 Z" fill="#232F3E"/><path d=" M 22.000000 106.349998 L 22.000000 102.650002 C 22.016497 102.408363 21.968164 102.166710 21.860001 101.950005 C 21.744104 101.793236 21.553879 101.709541 21.360001 101.730003 C 21.067970 101.739677 20.784252 101.829636 20.540001 101.990005 L 20.540001 106.349998 L 18.900000 106.349998 L 18.900000 100.720001 L 20.250000 100.720001 L 20.389999 101.230003 C 20.924370 100.833908 21.565401 100.607452 22.230000 100.580002 C 22.631430 100.553581 23.023729 100.707565 23.299999 101.000000 C 23.562019 101.350540 23.689741 101.783371 23.660000 102.220001 L 23.660000 106.349998 Z" fill="#232F3E"/><path d=" M 26.280001 103.919998 C 26.259251 104.324760 26.387299 104.723129 26.640001 105.040001 C 26.935566 105.286263 27.316881 105.404976 27.700001 105.370003 C 27.929201 105.363998 28.157129 105.333832 28.380001 105.280006 C 28.651527 105.230042 28.918940 105.159843 29.180000 105.070007 L 29.180000 106.070000 C 28.921759 106.217194 28.641508 106.321869 28.350000 106.379997 C 28.021477 106.451813 27.686279 106.488686 27.350000 106.489998 C 25.629999 106.489998 24.770000 105.489998 24.770000 103.540001 C 24.715513 102.753960 24.942366 101.974152 25.410000 101.340004 C 25.864651 100.816292 26.537926 100.535149 27.230000 100.580002 C 28.600000 100.580002 29.280001 101.339996 29.280001 102.870003 C 29.279127 103.206871 29.238853 103.542488 29.160000 103.870003 Z M 27.190001 101.599998 C 26.610001 101.599998 26.309999 102.059998 26.280001 102.970001 L 27.889999 102.970001 L 27.889999 102.720001 C 27.910442 102.423340 27.851778 102.126572 27.719999 101.860001 C 27.602509 101.684830 27.400440 101.585701 27.189999 101.599998 Z" fill="#232F3E"/><path d=" M 32.419998 104.769997 C 32.419998 104.519997 32.250000 104.309998 31.900000 104.150002 L 31.180000 103.800003 C 30.506485 103.560318 30.054882 102.924881 30.050001 102.210007 C 30.021605 101.740471 30.227571 101.287346 30.600000 101.000008 C 31.022360 100.682838 31.542471 100.523621 32.070000 100.550011 C 32.599648 100.551735 33.122276 100.671295 33.599998 100.900009 L 33.599998 101.900002 C 33.371441 101.820229 33.137524 101.756737 32.899998 101.709999 C 32.702862 101.666542 32.501842 101.643089 32.299999 101.639999 C 31.790001 101.639999 31.530001 101.820000 31.530001 102.180000 C 31.530001 102.540001 31.740000 102.629997 32.169998 102.839996 L 32.889999 103.180000 C 33.198685 103.312111 33.465073 103.526604 33.660000 103.800003 C 33.828262 104.080269 33.911629 104.403313 33.900002 104.730003 C 33.924759 105.215942 33.721363 105.685608 33.350002 106.000000 C 32.925518 106.321449 32.401913 106.484184 31.870003 106.459999 C 31.236132 106.467438 30.610472 106.316177 30.050003 106.019997 L 30.049999 105.019997 C 30.565828 105.217575 31.108696 105.335594 31.660000 105.369995 C 31.864172 105.382927 32.066269 105.322655 32.230000 105.199997 C 32.353340 105.091476 32.422806 104.934265 32.419998 104.769997 Z" fill="#232F3E"/><path d=" M 35.700001 99.809998 C 35.443859 99.830612 35.189610 99.751831 34.990002 99.589996 C 34.810806 99.439140 34.711185 99.214073 34.720001 98.979996 C 34.709644 98.745628 34.809551 98.519913 34.990002 98.369995 C 35.410442 98.064751 35.979561 98.064751 36.400002 98.369995 C 36.574265 98.523682 36.669811 98.747849 36.660000 98.979996 C 36.666992 99.211624 36.571938 99.434639 36.400002 99.589996 C 36.202972 99.749374 35.952782 99.828011 35.700001 99.809998 Z M 34.869999 106.349998 L 34.869999 100.720001 L 36.520000 100.720001 L 36.520000 106.349998 Z" fill="#232F3E"/><path d=" M 40.000000 104.769997 C 40.000000 104.519997 39.820000 104.309998 39.480000 104.150002 L 38.750000 103.800003 C 38.076485 103.560318 37.624882 102.924881 37.619999 102.210007 C 37.605637 101.749420 37.814110 101.310135 38.180000 101.030006 C 38.602360 100.712837 39.122471 100.553619 39.650002 100.580009 C 40.179649 100.581734 40.702278 100.701294 41.180000 100.930008 L 41.180000 101.930000 C 40.951050 101.851501 40.717220 101.788033 40.480000 101.739998 C 40.279594 101.695862 40.075191 101.672409 39.869999 101.669998 C 39.360001 101.669998 39.099998 101.849998 39.099998 102.209999 C 39.099998 102.570000 39.320000 102.660004 39.740002 102.870003 L 40.470001 103.209999 C 40.776878 103.345100 41.042538 103.559013 41.240002 103.830002 C 41.408264 104.110268 41.491631 104.433311 41.480003 104.760002 C 41.486538 105.240295 41.272846 105.697159 40.900002 106.000000 C 40.475517 106.321449 39.951912 106.484184 39.420002 106.459999 C 38.786274 106.466171 38.160923 106.314987 37.600002 106.019997 L 37.599998 105.019997 C 38.118954 105.218719 38.665291 105.336754 39.219997 105.369995 C 39.420902 105.381401 39.619339 105.321159 39.779999 105.199997 C 39.913437 105.096352 39.994022 104.938850 40.000000 104.769997 Z" fill="#232F3E"/><path d=" M 46.619999 106.349998 L 44.290001 98.720001 L 46.119999 98.720001 L 47.540001 104.790001 L 49.000000 98.720001 L 50.810001 98.720001 L 48.470001 106.349998 Z" fill="#232F3E"/><path d=" M 52.410000 99.809998 C 52.153858 99.830612 51.899609 99.751831 51.700001 99.589996 C 51.520805 99.439140 51.421185 99.214073 51.430000 98.979996 C 51.419643 98.745628 51.519550 98.519913 51.700001 98.369995 C 52.120441 98.064751 52.689560 98.064751 53.110001 98.369995 C 53.284264 98.523682 53.379810 98.747849 53.369999 98.979996 C 53.376991 99.211624 53.281937 99.434639 53.110001 99.589996 C 52.912971 99.749374 52.662781 99.828011 52.410000 99.809998 Z M 51.580002 106.349998 L 51.580002 100.720001 L 53.230000 100.720001 L 53.230000 106.349998 Z" fill="#232F3E"/><path d=" M 57.939999 106.349998 L 57.810001 105.860001 C 57.624744 106.041252 57.407825 106.186996 57.170002 106.290001 C 56.377213 106.627693 55.456306 106.379913 54.940002 105.690002 C 54.220001 104.340004 54.220001 102.720001 54.940002 101.370003 C 55.277573 100.858131 55.857208 100.558846 56.470001 100.580002 C 56.685638 100.589058 56.898392 100.632957 57.100002 100.709999 C 57.318539 100.789223 57.524109 100.900436 57.710003 101.040001 L 57.709999 98.209999 L 59.360001 98.209999 L 59.360001 106.349998 Z M 57.009998 105.349998 C 57.266090 105.346977 57.515953 105.270630 57.730000 105.129997 L 57.730000 102.000000 C 57.496933 101.839607 57.222771 101.749374 56.939999 101.739998 C 56.642879 101.727325 56.370186 101.903778 56.259998 102.180000 C 56.102730 102.625710 56.034771 103.098030 56.059998 103.570000 C 56.026958 104.035194 56.105824 104.501541 56.289997 104.930000 C 56.430069 105.187622 56.707439 105.339981 56.999996 105.320000 Z" fill="#232F3E"/><path d=" M 62.000000 103.919998 C 61.988792 104.323456 62.115814 104.718628 62.360001 105.040001 C 62.655567 105.286263 63.036880 105.404976 63.420002 105.370003 C 63.649292 105.365166 63.877346 105.334984 64.099998 105.280006 C 64.374557 105.228943 64.645218 105.158775 64.909996 105.070007 L 64.910004 106.070000 C 64.647087 106.214767 64.363937 106.319267 64.070007 106.379997 C 63.741608 106.452568 63.406330 106.489449 63.070007 106.489998 C 61.349998 106.489998 60.490002 105.489998 60.490002 103.540001 C 60.436962 102.755630 60.659821 101.977402 61.120003 101.340004 C 61.577766 100.814682 62.254768 100.533524 62.950005 100.580002 C 64.309998 100.580002 64.949997 101.339996 64.949997 102.870003 C 64.949127 103.206871 64.908852 103.542488 64.829994 103.870003 Z M 62.919998 101.599998 C 62.340000 101.599998 62.029999 102.059998 62.000000 102.970001 L 63.619999 102.970001 L 63.619999 102.720001 C 63.640442 102.423340 63.581779 102.126572 63.450001 101.860001 C 63.336250 101.691147 63.143475 101.592865 62.940002 101.599998 Z" fill="#232F3E"/><path d=" M 68.400002 106.489998 C 67.698318 106.528084 67.017448 106.244698 66.550003 105.720001 C 65.683990 104.392052 65.683990 102.677956 66.550003 101.349998 C 67.561752 100.331032 69.207970 100.325180 70.226936 101.336929 C 70.231308 101.341270 70.235664 101.345627 70.240005 101.349998 C 71.106018 102.677948 71.106018 104.392044 70.240005 105.720001 C 69.776543 106.244324 69.098770 106.527962 68.400009 106.489998 Z M 68.400002 105.339996 C 68.683586 105.349129 68.941277 105.175995 69.040001 104.909996 C 69.306801 104.016144 69.306801 103.063843 69.040001 102.169998 C 68.904633 101.813774 68.506119 101.634735 68.149902 101.770103 C 67.965591 101.840141 67.820045 101.985687 67.750008 102.169998 C 67.483208 103.063850 67.483208 104.016151 67.750008 104.909996 C 67.852448 105.177567 68.113686 105.350380 68.400009 105.339996 Z" fill="#232F3E"/><path d=" M 22.730000 117.000000 C 22.232723 116.768532 21.794912 116.426491 21.449999 116.000000 C 21.191233 115.643089 21.057642 115.210678 21.070000 114.769997 C 21.059801 114.355682 21.174810 113.947922 21.400000 113.599998 C 21.632124 113.261627 21.954256 112.994911 22.330000 112.830002 C 22.751116 112.641739 23.208838 112.549515 23.670000 112.560005 C 24.319569 112.563965 24.961924 112.696510 25.559999 112.950005 L 25.559999 114.120003 C 25.008253 113.917831 24.427393 113.806381 23.840000 113.790001 C 23.555244 113.776161 23.273926 113.857040 23.040001 114.020004 C 22.847281 114.175255 22.739666 114.412743 22.750000 114.660004 C 22.745146 114.863258 22.812462 115.061668 22.940001 115.220001 C 23.143887 115.428474 23.389143 115.591980 23.660000 115.700005 L 24.309999 116.019997 C 24.667839 116.184235 25.003771 116.392517 25.309999 116.639999 C 25.545288 116.820801 25.731043 117.058159 25.850000 117.330002 C 25.977577 117.619499 26.039066 117.933777 26.030001 118.250000 C 26.060263 118.886475 25.785427 119.499283 25.290001 119.900002 C 24.713343 120.327324 24.006987 120.542763 23.290001 120.510002 C 22.906866 120.509674 22.524807 120.469460 22.150002 120.389999 C 21.804222 120.327065 21.468079 120.219498 21.150002 120.070000 L 21.150000 118.919998 C 21.477161 119.026321 21.811295 119.109856 22.150000 119.169998 C 22.479118 119.238113 22.813944 119.274940 23.150000 119.279999 C 23.457417 119.289337 23.758320 119.190216 24.000000 119.000000 C 24.212818 118.827957 24.328489 118.563034 24.309999 118.290001 C 24.316534 118.075134 24.237391 117.866486 24.090000 117.709999 C 23.886230 117.513252 23.649240 117.354134 23.389999 117.239998 Z" fill="#232F3E"/><path d=" M 30.190001 120.199997 C 29.796690 120.347153 29.379934 120.421692 28.960001 120.419998 C 28.487684 120.464508 28.016893 120.320755 27.650002 120.019997 C 27.345264 119.658775 27.197636 119.190689 27.240002 118.719994 L 27.240000 115.820000 L 26.500000 115.820000 L 26.500000 114.900002 L 27.280001 114.750000 L 27.520000 113.209999 L 28.889999 113.209999 L 28.889999 114.720001 L 30.160000 114.720001 L 30.160000 115.820000 L 28.889999 115.820000 L 28.889999 118.589996 C 28.869701 118.774757 28.919682 118.960396 29.029999 119.109993 C 29.176586 119.234970 29.368744 119.292976 29.559999 119.269997 C 29.772238 119.265694 29.983421 119.238876 30.189999 119.189995 Z" fill="#232F3E"/><path d=" M 31.070000 120.349998 L 31.070000 114.720001 L 32.419998 114.720001 L 32.599998 115.449997 C 32.799728 115.212708 33.040154 115.012917 33.309998 114.860001 C 33.543045 114.733055 33.804626 114.667656 34.069996 114.669998 L 34.450001 114.669998 L 34.450001 116.000000 C 34.236900 115.985909 34.023102 115.985909 33.810001 116.000000 C 33.431374 116.000565 33.058117 116.089600 32.720001 116.260002 L 32.720001 120.370003 Z" fill="#232F3E"/><path d=" M 36.419998 117.919998 C 36.399250 118.324760 36.527298 118.723129 36.779999 119.040001 C 37.074471 119.288261 37.456642 119.407242 37.840000 119.370003 C 38.069202 119.363998 38.297131 119.333832 38.520000 119.280006 C 38.791252 119.228806 39.058575 119.158638 39.320000 119.070007 L 39.320000 120.070000 C 39.060978 120.215523 38.780998 120.320099 38.489998 120.379997 C 38.161472 120.451813 37.826275 120.488686 37.489998 120.489998 C 35.770000 120.489998 34.910000 119.489998 34.910000 117.540001 C 34.856960 116.755630 35.079819 115.977402 35.540001 115.340004 C 35.998692 114.815964 36.675026 114.535088 37.370003 114.580002 C 38.730000 114.580002 39.369999 115.339996 39.369999 116.870003 C 39.369125 117.206871 39.328854 117.542488 39.250000 117.870003 Z M 37.330002 115.599998 C 36.750000 115.599998 36.450001 116.059998 36.419998 116.970001 L 38.000000 116.970001 L 38.000000 116.720001 C 38.020443 116.423340 37.961781 116.126572 37.830002 115.860001 C 37.718174 115.694191 37.529964 115.596321 37.330002 115.599998 Z" fill="#232F3E"/><path d=" M 43.459999 120.349998 L 43.320000 119.839996 C 43.166901 120.044678 42.963722 120.206528 42.730000 120.309998 C 42.486252 120.426201 42.220020 120.487640 41.950001 120.489998 C 41.507801 120.513382 41.076080 120.350128 40.760002 120.040001 C 40.149269 119.292549 40.192177 118.206917 40.860001 117.510002 C 41.257275 117.173096 41.770317 117.004471 42.290001 117.040001 C 42.604031 117.046669 42.916180 117.090302 43.220001 117.169998 L 43.220001 116.660004 C 43.247574 116.389763 43.191738 116.117561 43.060001 115.880005 C 42.895477 115.727715 42.672756 115.654694 42.450001 115.680008 C 41.845547 115.705238 41.248566 115.823280 40.680000 116.030006 L 40.680000 115.029999 C 40.966564 114.870445 41.277355 114.758965 41.599998 114.699997 C 41.978016 114.619484 42.363503 114.579254 42.750000 114.579994 C 43.293797 114.532089 43.835880 114.689011 44.270000 115.019997 C 44.614773 115.396851 44.785324 115.901237 44.740002 116.409996 L 44.740002 120.349998 Z M 42.459999 119.430000 C 42.758343 119.418404 43.040970 119.293190 43.250000 119.080002 L 43.250000 118.000000 C 43.047474 117.948616 42.838886 117.925064 42.630001 117.930000 C 42.429070 117.911972 42.230713 117.985435 42.090000 118.129997 C 41.950947 118.293694 41.882603 118.505920 41.900002 118.719994 C 41.889713 118.905304 41.942593 119.088631 42.050003 119.239990 C 42.141197 119.357796 42.281040 119.427719 42.430004 119.429993 Z" fill="#232F3E"/><path d=" M 52.209999 120.349998 L 52.209999 116.639999 C 52.226662 116.401566 52.178276 116.163086 52.070000 115.949997 C 51.968388 115.798111 51.792015 115.713760 51.610001 115.729996 C 51.324558 115.741776 51.047829 115.831711 50.810001 115.989998 C 50.814919 116.029846 50.814919 116.070152 50.810001 116.110001 L 50.810001 120.349998 L 49.169998 120.349998 L 49.169998 116.639999 C 49.168194 116.415749 49.109715 116.195587 49.000000 116.000000 C 48.895142 115.846481 48.715054 115.762184 48.529999 115.779999 C 48.251144 115.793877 47.981407 115.883789 47.750000 116.040001 L 47.750000 120.400002 L 46.139999 120.400002 L 46.139999 114.769997 L 47.490002 114.769997 L 47.619999 115.279999 C 48.145126 114.887894 48.775391 114.661552 49.430000 114.629997 C 49.927906 114.593666 50.399681 114.857071 50.630001 115.299995 C 51.160992 114.901840 51.797451 114.668816 52.460003 114.629997 C 52.838608 114.617615 53.203781 114.770988 53.460003 115.049995 C 53.720432 115.401329 53.847977 115.833557 53.820004 116.269997 L 53.820000 120.400002 Z" fill="#232F3E"/><path d=" M 57.259998 118.769997 C 57.259998 118.519997 57.080002 118.309998 56.740002 118.150002 L 56.000000 117.800003 C 55.320663 117.566200 54.863403 116.928444 54.860001 116.210007 C 54.845638 115.749420 55.054111 115.310135 55.420002 115.030006 C 55.842361 114.712837 56.362473 114.553619 56.890003 114.580009 C 57.419651 114.581734 57.942280 114.701294 58.420002 114.930008 L 58.419998 115.930000 C 58.191048 115.851501 57.957218 115.788033 57.719997 115.739998 C 57.522861 115.696541 57.321842 115.673088 57.119999 115.669998 C 56.599998 115.669998 56.349998 115.849998 56.349998 116.209999 C 56.349998 116.570000 56.560001 116.660004 56.980000 116.870003 L 57.709999 117.209999 C 58.016876 117.345100 58.282536 117.559013 58.480000 117.830002 C 58.648262 118.110268 58.731628 118.433311 58.720001 118.760002 C 58.740189 119.245102 58.537624 119.712845 58.170002 120.029999 C 57.741669 120.351402 57.214973 120.514008 56.680000 120.489998 C 56.046368 120.495338 55.421215 120.344200 54.860001 120.049995 L 54.860001 119.050003 C 55.379223 119.247826 55.925423 119.365837 56.480000 119.400002 C 56.681328 119.415108 56.881042 119.354477 57.040001 119.230003 C 57.181652 119.119850 57.263161 118.949417 57.260002 118.770004 Z" fill="#232F3E"/></g><g id="ICONS_-_EDIT"><path d=" M 61.000000 65.059998 L 41.000000 65.059998 C 38.790859 65.059998 37.000000 63.269138 37.000000 61.059998 L 37.000000 47.830002 C 37.027370 45.640415 38.810242 43.879829 41.000000 43.880001 L 61.000000 43.880001 C 63.189758 43.879829 64.972626 45.640411 65.000000 47.830002 L 65.000000 61.099998 C 64.978065 63.293499 63.193611 65.060104 61.000000 65.059998 Z M 41.000000 45.880001 C 39.914665 45.879662 39.027134 46.745007 39.000000 47.830002 L 39.000000 61.099998 C 39.000000 62.204567 39.895432 63.099998 41.000000 63.099998 L 61.000000 63.099998 C 62.104568 63.099998 63.000000 62.204567 63.000000 61.099998 L 63.000000 47.830002 C 62.972866 46.745007 62.085335 45.879662 61.000000 45.880001 Z" fill="#FFFFFF"/><path d=" M 46.000000 60.250000 C 45.805756 60.246174 45.615986 60.190968 45.450001 60.090000 C 45.167656 59.904068 44.998367 59.588066 45.000000 59.250000 L 45.000000 49.669998 C 44.998367 49.331932 45.167656 49.015930 45.450001 48.829998 C 45.732761 48.644382 46.090183 48.614285 46.400002 48.749996 L 57.400002 53.540001 C 57.765591 53.699554 58.001392 54.061115 58.000000 54.459999 C 57.997421 54.855255 57.762268 55.211903 57.400002 55.369999 L 46.400002 60.169998 C 46.272823 60.221371 46.137157 60.248505 46.000000 60.250000 Z M 47.000000 51.189999 L 47.000000 57.720001 L 54.500000 54.459999 Z" fill="#FFFFFF"/><g clip-path="url(#clip-path)"><path d=" M 65.000000 36.919998 L 56.180000 36.919998 C 33.470001 36.919998 15.000000 27.549999 15.000000 16.000000 C 14.998152 15.434099 15.041624 14.868960 15.130000 14.310000 L 17.129999 14.620000 C 17.051529 15.076011 17.008068 15.537357 17.000000 16.000000 C 17.000000 26.410000 34.580002 34.880001 56.180000 34.880001 L 65.000000 34.880001 Z" fill="#FFFFFF"/><path d=" M 65.000000 41.000000 L 52.759998 41.000000 C 42.919998 41.000000 19.379999 40.080002 13.190000 31.590000 L 14.810000 30.410000 C 18.730000 35.790001 32.910000 39.000000 52.759998 39.000000 L 65.000000 39.000000 Z" fill="#FFFFFF"/><path d=" M 14.810000 49.590000 L 13.190000 48.410000 C 19.379999 39.919998 42.919998 39.000000 52.759998 39.000000 L 65.000000 39.000000 L 65.000000 41.000000 L 52.759998 41.000000 C 32.910000 41.000000 18.730000 44.209999 14.810000 49.590000 Z" fill="#FFFFFF"/><path d=" M 65.000000 32.840000 L 60.939999 32.840000 C 41.270000 32.840000 27.000000 26.000000 27.000000 16.670000 C 27.000000 16.670000 27.000000 14.730000 27.000000 14.390000 L 29.000000 14.620000 L 28.000000 14.510000 L 29.000000 14.610000 C 29.000000 14.830000 29.000000 16.230000 29.000000 16.670000 C 29.000000 24.750000 42.730000 30.840000 60.939999 30.840000 L 65.000000 30.840000 Z" fill="#FFFFFF"/><path d=" M 15.130000 65.650002 C 15.043360 65.104271 14.999892 64.552567 15.000000 64.000000 C 15.000000 56.619999 22.370001 49.939999 34.709999 46.139999 L 35.290001 48.000000 C 24.000000 51.490002 17.000000 57.599998 17.000000 64.000000 C 17.001017 64.458832 17.037794 64.916885 17.110001 65.370003 Z" fill="#FFFFFF"/><path d=" M 27.049999 65.620003 C 27.000000 65.260002 27.000000 63.349998 27.000000 63.330002 C 27.000000 59.250000 29.590000 55.599998 34.500000 52.770000 L 35.500000 54.509998 C 32.500000 56.209999 29.000000 59.130001 29.000000 63.330002 C 29.000000 63.759998 29.000000 65.160004 29.000000 65.330002 Z" fill="#FFFFFF"/></g></g></svg>