<svg version="1.1" width="80.000000" height="115.000000" viewBox="0.000000 0.000000 80.000000 115.000000" xmlns="http://www.w3.org/2000/svg" xmlns:xlink="http://www.w3.org/1999/xlink" overflow="hidden"><g id="CARDS"><rect x="1.000000" y="1.000000" width="78.000000" height="78.000000" fill="#232F3E"/><path d=" M 0.000000 0.000000 L 0.000000 80.000000 L 0.000000 80.000000 L 0.000000 115.000000 L 80.000000 115.000000 L 80.000000 80.000000 L 80.000000 80.000000 L 80.000000 0.000000 Z M 1.000000 1.000000 L 79.000000 1.000000 L 79.000000 79.000000 L 1.000000 79.000000 Z" fill="#FFFFFF"/></g><g id="TEXT_-_EDIT"><path d=" M 25.350000 92.349998 L 24.920000 90.529999 L 22.920000 90.529999 L 22.500000 92.349998 L 20.719999 92.349998 L 23.000000 84.720001 L 24.900000 84.720001 L 27.209999 92.349998 Z M 23.170000 89.430000 L 24.660000 89.430000 L 23.900000 86.269997 Z" fill="#232F3E"/><path d=" M 34.060001 92.349998 L 34.060001 88.639999 C 34.076664 88.401566 34.028278 88.163086 33.920002 87.949997 C 33.819908 87.796371 33.642418 87.711487 33.460003 87.729996 C 33.174831 87.743271 32.898491 87.833084 32.660004 87.989998 C 32.664822 88.029854 32.664822 88.070145 32.660004 88.110001 L 32.660000 92.349998 L 31.000000 92.349998 L 31.000000 88.639999 C 31.019257 88.402504 30.974358 88.164200 30.870001 87.949997 C 30.765142 87.796478 30.585056 87.712181 30.400002 87.729996 C 30.121338 87.744865 29.851856 87.834694 29.620001 87.989998 L 29.620001 92.349998 L 28.000000 92.349998 L 28.000000 86.720001 L 29.350000 86.720001 L 29.480000 87.230003 C 30.005705 86.838974 30.635632 86.612755 31.289999 86.580002 C 31.787903 86.543671 32.259682 86.807076 32.489998 87.250000 C 33.020988 86.851845 33.657448 86.618820 34.320000 86.580002 C 34.698605 86.567619 35.063778 86.720993 35.320000 87.000000 C 35.580429 87.351334 35.707973 87.783562 35.680000 88.220001 L 35.680000 92.349998 Z" fill="#232F3E"/><path d=" M 40.000000 92.349998 L 39.860001 91.839996 C 39.704742 92.042564 39.502155 92.203949 39.270000 92.309998 C 39.023094 92.427322 38.753361 92.488777 38.480000 92.489998 C 38.038441 92.498497 37.613724 92.320625 37.310001 92.000000 C 37.006588 91.668808 36.851307 91.228241 36.880001 90.779999 C 36.856857 90.286880 37.050484 89.808296 37.410000 89.470001 C 37.807274 89.133095 38.320316 88.964470 38.840000 89.000000 C 39.154030 89.006668 39.466179 89.050301 39.770000 89.129997 L 39.770000 88.620003 C 39.797573 88.349762 39.741737 88.077560 39.610001 87.840004 C 39.445477 87.687714 39.222755 87.614693 39.000000 87.640007 C 38.395546 87.665237 37.798565 87.783279 37.230000 87.990005 L 37.230000 87.000000 C 37.516563 86.840446 37.827354 86.728966 38.149998 86.669998 C 38.528015 86.589485 38.913502 86.549255 39.299999 86.549995 C 39.843796 86.502090 40.385880 86.659012 40.820000 86.989998 C 41.164772 87.366852 41.335323 87.871239 41.290001 88.379997 L 41.290001 92.320000 Z M 39.000000 91.430000 C 39.298344 91.418404 39.580971 91.293190 39.790001 91.080002 L 39.790001 90.000000 C 39.587475 89.948616 39.378887 89.925064 39.170002 89.930000 C 38.969070 89.911972 38.770714 89.985435 38.630001 90.129997 C 38.490948 90.293694 38.422604 90.505920 38.440002 90.719994 C 38.429714 90.905304 38.482594 91.088631 38.590004 91.239990 C 38.687565 91.366325 38.840549 91.437218 39.000004 91.429993 Z" fill="#232F3E"/><path d=" M 42.279999 92.349998 L 42.279999 91.279999 L 44.770000 87.879997 L 42.369999 87.879997 L 42.369999 86.720001 L 46.509998 86.720001 L 46.509998 87.790001 L 44.000000 91.190002 L 46.540001 91.190002 L 46.540001 92.349998 Z" fill="#232F3E"/><path d=" M 49.790001 92.489998 C 49.108715 92.511253 48.453094 92.229225 48.000000 91.720001 C 47.133984 90.392052 47.133984 88.677956 48.000000 87.349998 C 49.011749 86.331032 50.657967 86.325180 51.676933 87.336929 C 51.681305 87.341270 51.685661 87.345627 51.690002 87.349998 C 52.556019 88.677948 52.556019 90.392044 51.690002 91.720001 C 51.211487 92.259041 50.508781 92.543823 49.790001 92.489998 Z M 49.790001 91.339996 C 50.076321 91.350388 50.337559 91.177567 50.440002 90.909996 C 50.706799 90.016144 50.706799 89.063843 50.440002 88.169998 C 50.304638 87.813774 49.906124 87.634735 49.549900 87.770103 C 49.365585 87.840141 49.220043 87.985687 49.150002 88.169998 C 48.883205 89.063850 48.883205 90.016151 49.150002 90.909996 C 49.248730 91.175995 49.506416 91.349129 49.790001 91.339996 Z" fill="#232F3E"/><path d=" M 56.549999 92.349998 L 56.549999 88.650002 C 56.566494 88.408363 56.518166 88.166710 56.410000 87.950005 C 56.294102 87.793236 56.103878 87.709541 55.910000 87.730003 C 55.621128 87.739960 55.340698 87.829971 55.099998 87.990005 L 55.099998 92.349998 L 53.439999 92.349998 L 53.439999 86.720001 L 54.790001 86.720001 L 54.930000 87.230003 C 55.464371 86.833908 56.105400 86.607452 56.770000 86.580002 C 57.171432 86.553581 57.563728 86.707565 57.840000 87.000000 C 58.102020 87.350540 58.229740 87.783371 58.200001 88.220001 L 58.200001 92.349998 Z" fill="#232F3E"/><path d=" M 19.180000 106.129997 C 18.611668 106.360519 18.003273 106.476074 17.389999 106.469994 C 15.143333 106.470001 14.020000 105.169998 14.020000 102.570000 C 13.948548 101.512779 14.261020 100.465294 14.900001 99.620003 C 15.549338 98.922134 16.479006 98.554680 17.430000 98.620003 C 17.993498 98.620705 18.552317 98.722313 19.080000 98.920006 L 19.080000 100.129997 C 18.608652 99.990929 18.121248 99.913612 17.629999 99.899994 C 17.093250 99.854752 16.570095 100.084335 16.240000 100.509995 C 15.895201 101.091789 15.738070 101.765701 15.790000 102.439995 L 15.790000 102.690002 C 15.741960 103.351952 15.891622 104.013245 16.219999 104.590004 C 16.545746 105.015533 17.066038 105.245522 17.599998 105.200005 C 18.134686 105.172272 18.664619 105.085068 19.179998 104.940002 Z" fill="#232F3E"/><path d=" M 22.570000 106.250000 C 22.249802 106.366165 21.910456 106.420456 21.570000 106.410004 C 21.174246 106.441948 20.783024 106.307922 20.490000 106.040001 C 20.230099 105.727486 20.104290 105.324898 20.139999 104.919998 L 20.139999 98.209999 L 21.790001 98.209999 L 21.790001 104.750000 C 21.777122 104.887192 21.801296 105.025330 21.860001 105.150002 C 21.940697 105.239822 22.060144 105.284615 22.180000 105.270004 C 22.296471 105.279564 22.413528 105.279564 22.530001 105.270004 Z" fill="#232F3E"/><path d=" M 25.690001 106.489998 C 24.991234 106.527954 24.313465 106.244324 23.850000 105.720001 C 22.983986 104.392052 22.983986 102.677956 23.850000 101.349998 C 24.861748 100.331032 26.507967 100.325180 27.526932 101.336929 C 27.531303 101.341270 27.535660 101.345627 27.539999 101.349998 C 28.406013 102.677948 28.406013 104.392044 27.539999 105.720001 C 27.072552 106.244698 26.391685 106.528084 25.689999 106.489998 Z M 25.690001 105.339996 C 25.976320 105.350388 26.237558 105.177567 26.340000 104.909996 C 26.606798 104.016144 26.606798 103.063843 26.340000 102.169998 C 26.204634 101.813774 25.806122 101.634735 25.449898 101.770103 C 25.265585 101.840141 25.120039 101.985687 25.049999 102.169998 C 24.783201 103.063850 24.783201 104.016151 25.049999 104.909996 C 25.148727 105.175995 25.406416 105.349129 25.689999 105.339996 Z" fill="#232F3E"/><path d=" M 32.610001 106.349998 L 32.480000 105.839996 C 31.963741 106.234428 31.339056 106.461273 30.689999 106.489998 C 30.307652 106.511559 29.937370 106.352333 29.689999 106.059998 C 29.439741 105.696587 29.316687 105.260620 29.339998 104.820000 L 29.340000 100.720001 L 31.000000 100.720001 L 31.000000 104.339996 C 30.979488 104.603439 31.024136 104.867889 31.129999 105.109993 C 31.222511 105.267639 31.398037 105.357353 31.580000 105.339996 C 31.852058 105.331230 32.115864 105.244446 32.340000 105.089996 L 32.340000 100.720001 L 34.000000 100.720001 L 34.000000 106.349998 Z" fill="#232F3E"/><path d=" M 38.630001 106.349998 L 38.500000 105.860001 C 38.318302 106.040939 38.104710 106.186729 37.869999 106.290001 C 37.642376 106.387421 37.397591 106.438423 37.149998 106.440002 C 36.551472 106.464928 35.981789 106.181969 35.639999 105.690002 C 35.245480 105.052330 35.056934 104.308617 35.099998 103.560005 C 35.055649 102.789658 35.251301 102.024506 35.660000 101.370003 C 35.997570 100.858131 36.577206 100.558846 37.189999 100.580002 C 37.405468 100.590401 37.618011 100.634262 37.820000 100.709999 C 38.038536 100.789223 38.244106 100.900436 38.430000 101.040001 L 38.430000 98.209999 L 40.080002 98.209999 L 40.080002 106.349998 Z M 37.709999 105.349998 C 37.966091 105.346977 38.215954 105.270630 38.430000 105.129997 L 38.430000 102.000000 C 38.192631 101.840775 37.915627 101.750748 37.630001 101.739998 C 37.336487 101.731621 37.068947 101.907326 36.960003 102.180000 C 36.793648 102.623573 36.722111 103.097084 36.750004 103.570000 C 36.721813 104.034950 36.800491 104.500175 36.980003 104.930000 C 37.126846 105.190842 37.411549 105.342941 37.710003 105.320000 Z" fill="#232F3E"/><path d=" M 41.610001 106.349998 L 41.610001 98.720001 L 46.000000 98.720001 L 46.000000 99.900002 L 43.299999 99.900002 L 43.299999 102.000000 L 45.380001 102.000000 L 45.380001 103.169998 L 43.299999 103.169998 L 43.299999 106.389999 Z" fill="#232F3E"/><path d=" M 46.750000 106.349998 L 46.750000 100.720001 L 48.099998 100.720001 L 48.279999 101.449997 C 48.480946 101.209991 48.725178 101.009857 49.000000 100.860001 C 49.229919 100.734291 49.487957 100.668915 49.750000 100.669998 C 49.879810 100.660080 50.010189 100.660080 50.139999 100.669998 L 50.139999 102.000000 C 49.926884 101.986336 49.713116 101.986336 49.500000 102.000000 C 49.118164 102.000481 48.741642 102.089478 48.400002 102.260002 L 48.400002 106.370003 Z" fill="#232F3E"/><path d=" M 53.110001 106.489998 C 52.411232 106.527954 51.733463 106.244324 51.270000 105.720001 C 50.403984 104.392052 50.403984 102.677956 51.270000 101.349998 C 52.281750 100.331032 53.927967 100.325180 54.946934 101.336929 C 54.951305 101.341270 54.955662 101.345627 54.960003 101.349998 C 55.826019 102.677948 55.826019 104.392044 54.960003 105.720001 C 54.492558 106.244698 53.811687 106.528084 53.110004 106.489998 Z M 53.110001 105.339996 C 53.396320 105.350388 53.657558 105.177567 53.760002 104.909996 C 54.026798 104.016144 54.026798 103.063843 53.760002 102.169998 C 53.660919 101.898483 53.398895 101.721115 53.110001 101.729996 C 52.823818 101.722336 52.565327 101.900047 52.470001 102.169998 C 52.203205 103.063850 52.203205 104.016151 52.470001 104.909996 C 52.568729 105.175995 52.826416 105.349129 53.110001 105.339996 Z" fill="#232F3E"/><path d=" M 59.869999 106.349998 L 59.869999 102.650002 C 59.886494 102.408363 59.838165 102.166710 59.730000 101.950005 C 59.614101 101.793236 59.423878 101.709541 59.230000 101.730003 C 58.937969 101.739677 58.654251 101.829636 58.410000 101.990005 L 58.410000 106.349998 L 56.759998 106.349998 L 56.759998 100.720001 L 58.110001 100.720001 L 58.240002 101.230003 C 58.778893 100.835289 59.422653 100.609108 60.090000 100.580002 C 60.488468 100.553772 60.877636 100.707970 61.150002 101.000000 C 61.419731 101.347038 61.551525 101.781601 61.520000 102.220001 L 61.520000 106.349998 Z" fill="#232F3E"/><path d=" M 66.000000 106.199997 C 65.606232 106.345474 65.189781 106.419960 64.769997 106.419998 C 64.294670 106.463928 63.820988 106.320389 63.449997 106.019997 C 63.149143 105.656647 63.002033 105.190201 63.039997 104.719994 L 63.040001 101.820000 L 62.310001 101.820000 L 62.310001 100.900002 L 63.090000 100.750000 L 63.330002 99.209999 L 64.690002 99.209999 L 64.690002 100.720001 L 65.970001 100.720001 L 65.970001 101.820000 L 64.650002 101.820000 L 64.650002 104.589996 C 64.631531 104.776146 64.685226 104.962288 64.800003 105.109993 C 64.946587 105.234970 65.138748 105.292976 65.330002 105.269997 C 65.542244 105.265694 65.753426 105.238876 65.959999 105.189995 Z" fill="#232F3E"/></g><g id="ICONS_-_EDIT"><g id="cloudfront"><path d=" M 48.639999 63.169998 L 46.860001 62.250000 C 47.808548 60.446072 48.569210 58.549442 49.130001 56.590000 L 51.049999 57.150002 C 50.453037 59.233253 49.645542 61.250317 48.639999 63.170002 Z M 50.490002 44.860001 C 50.144032 39.260593 48.326126 33.851727 45.220001 29.180000 L 46.889999 28.090000 C 50.191040 33.049664 52.122913 38.793541 52.489998 44.740002 Z M 37.310001 20.730000 C 35.858654 19.646158 34.312370 18.695629 32.690002 17.889999 L 33.599998 16.110001 C 35.327042 16.959715 36.973740 17.963800 38.519997 19.110001 Z" fill="#FFFFFF"/><path d=" M 45.459999 47.400002 C 42.308788 44.263340 38.495625 41.871571 34.299999 40.400002 L 35.000000 38.500000 C 39.458466 40.087921 43.506710 42.650101 46.849998 46.000000 Z" fill="#FFFFFF"/><path d=" M 53.740002 59.340000 C 53.369999 58.340000 52.950001 57.419998 52.490002 56.490002 L 54.279999 55.599998 C 54.773247 56.577118 55.217140 57.578377 55.610001 58.599998 Z" fill="#FFFFFF"/><path d=" M 48.070000 63.650002 L 47.430000 61.759998 C 49.825619 60.952644 52.067284 59.745594 54.060001 58.189999 L 55.290001 59.770000 C 53.119759 61.461845 50.678543 62.773746 48.070000 63.650002 Z" fill="#FFFFFF"/><path d=" M 16.280001 39.540001 L 15.820000 37.599998 C 18.037384 37.056938 20.307598 36.758488 22.590000 36.709999 L 22.639999 38.709999 C 20.496122 38.754532 18.363503 39.032848 16.279999 39.540001 Z" fill="#FFFFFF"/><path d=" M 32.680000 33.139999 L 31.000000 32.049999 C 32.467903 29.665907 34.277107 27.509686 36.369999 25.650000 L 37.689999 27.160000 C 35.735600 28.896685 34.047504 30.911619 32.680000 33.139999 Z" fill="#FFFFFF"/><path d=" M 47.549999 21.280001 L 46.869999 19.400000 C 48.388149 18.833641 49.950005 18.392174 51.539997 18.080000 L 51.910000 20.080000 C 50.425560 20.356915 48.967075 20.758333 47.549999 21.280001 Z" fill="#FFFFFF"/><path d=" M 27.750000 61.540001 C 26.115648 57.746933 25.242443 53.669720 25.180000 49.540001 C 25.213745 47.948753 25.421652 46.365982 25.800001 44.820000 C 25.870001 44.470001 25.950001 44.110001 26.020000 43.740002 L 28.020000 44.130001 C 27.950001 44.509998 27.870001 44.869999 27.799999 45.230000 C 27.450581 46.641312 27.256098 48.086521 27.219999 49.540001 C 27.270573 53.406265 28.079178 57.225052 29.599998 60.780003 Z" fill="#FFFFFF"/><path d=" M 40.000000 65.000000 C 26.192881 65.000000 15.000000 53.807117 15.000000 40.000000 C 15.000000 39.490002 15.000000 39.000000 15.050000 38.490002 C 15.666818 27.994083 22.784765 19.005728 32.860001 16.000002 C 39.345287 14.084848 46.329784 14.878541 52.220001 18.200003 C 64.263168 24.952681 68.551956 40.189724 61.799282 52.232891 C 60.158047 55.159977 57.944305 57.726677 55.290005 59.780003 C 50.904369 63.150940 45.531445 64.985252 40.000004 65.000000 Z M 40.000000 17.000000 C 37.772644 17.007175 35.558628 17.344164 33.430000 18.000000 C 24.182779 20.759424 17.641451 28.997986 17.050001 38.630001 C 17.049999 39.099998 17.000000 39.549999 17.000000 40.000000 C 17.000000 52.702549 27.297451 63.000000 40.000000 63.000000 C 42.525223 63.003922 45.033268 62.584789 47.419998 61.759998 C 49.819744 60.955101 52.065098 59.747887 54.059998 58.189999 C 64.106064 50.416237 65.948120 35.970413 58.174362 25.924351 C 53.821877 20.299616 47.112083 17.004835 40.000000 16.999998 Z" fill="#FFFFFF"/><path d=" M 42.430000 28.430000 C 39.983379 28.430000 38.000000 26.446621 38.000000 24.000000 C 38.000000 21.553379 39.983379 19.570000 42.430000 19.570000 C 44.876621 19.570000 46.860001 21.553379 46.860001 24.000000 C 46.860001 26.446621 44.876621 28.430000 42.430000 28.430000 Z M 42.430000 21.580000 C 41.087948 21.580011 40.000008 22.667969 40.000019 24.010021 C 40.000031 25.352074 41.087986 26.440012 42.430038 26.440001 C 43.772091 26.439989 44.860031 25.352032 44.860020 24.009979 C 44.860020 24.006653 44.860012 24.003326 44.860001 24.000000 C 44.854492 22.661856 43.768158 21.579988 42.430000 21.580000 Z" fill="#FFFFFF"/><path d=" M 28.790001 42.380001 C 26.343380 42.379845 24.360126 40.396339 24.360283 37.949718 C 24.360439 35.503098 26.343945 33.519844 28.790565 33.520000 C 31.237186 33.520157 33.220440 35.503662 33.220284 37.950283 C 33.220284 37.966858 33.220188 37.983429 33.220001 38.000000 C 33.187237 40.424793 31.215008 42.374760 28.790001 42.380001 Z M 28.790001 35.520000 C 27.447948 35.520283 26.360231 36.608463 26.360516 37.950516 C 26.360800 39.292568 27.448978 40.380287 28.791031 40.380001 C 30.113396 40.379723 31.192793 39.322086 31.220001 38.000000 C 31.247616 36.658234 30.182283 35.548130 28.840515 35.520515 C 28.823679 35.520168 28.806841 35.519997 28.790001 35.520000 Z" fill="#FFFFFF"/><path d=" M 50.779999 55.200001 C 48.333382 55.205517 46.345539 53.226616 46.340023 50.780003 C 46.334507 48.333385 48.313408 46.345543 50.760021 46.340027 C 53.206638 46.334511 55.194481 48.313412 55.199997 50.760025 C 55.200012 50.766685 55.200012 50.773342 55.199997 50.780003 C 55.199997 53.221100 53.221096 55.200001 50.779999 55.200001 Z M 50.779999 48.349998 C 49.437958 48.344475 48.345543 49.427937 48.340019 50.769978 C 48.334496 52.112019 49.417957 53.204433 50.759998 53.209957 C 52.102039 53.215481 53.194454 52.132019 53.199978 50.789978 C 53.199993 50.786652 53.199997 50.783325 53.199997 50.779999 C 53.200008 49.441841 52.118141 48.355507 50.779999 48.349998 Z" fill="#FFFFFF"/></g></g></svg>