<svg version="1.1" width="80.000000" height="115.000000" viewBox="0.000000 0.000000 80.000000 115.000000" xmlns="http://www.w3.org/2000/svg" xmlns:xlink="http://www.w3.org/1999/xlink" overflow="hidden"><g id="CARDS"><rect x="1.000000" y="1.000000" width="78.000000" height="78.000000" fill="#232F3E"/><path d=" M 0.000000 0.000000 L 0.000000 80.000000 L 0.000000 80.000000 L 0.000000 115.000000 L 80.000000 115.000000 L 80.000000 80.000000 L 80.000000 80.000000 L 80.000000 0.000000 Z M 1.000000 1.000000 L 79.000000 1.000000 L 79.000000 79.000000 L 1.000000 79.000000 Z" fill="#FFFFFF"/></g><g id="TEXT_-_EDIT"><path d=" M 18.120001 92.349998 L 17.690001 90.529999 L 15.690000 90.529999 L 15.270000 92.349998 L 13.500000 92.349998 L 15.810000 84.720001 L 17.680000 84.720001 L 20.000000 92.349998 Z M 15.940000 89.430000 L 17.440001 89.430000 L 16.680000 86.269997 Z" fill="#232F3E"/><path d=" M 25.330000 92.349998 L 24.389999 86.720001 L 23.490000 92.349998 L 21.629999 92.349998 L 19.840000 84.720001 L 21.540001 84.720001 L 22.600000 90.779999 L 23.520000 85.000000 L 25.350000 85.000000 L 26.290001 90.650002 L 27.290001 84.650002 L 29.000000 84.650002 L 27.209999 92.279999 Z" fill="#232F3E"/><path d=" M 31.280001 89.000000 C 30.782724 88.768532 30.344913 88.426491 30.000000 88.000000 C 29.737677 87.644348 29.600536 87.211830 29.610001 86.769997 C 29.618103 86.349426 29.754143 85.941315 30.000000 85.599998 C 30.228212 85.261978 30.547066 84.995110 30.920000 84.830002 C 31.344984 84.642815 31.805712 84.550667 32.270000 84.560005 C 32.919567 84.563965 33.561924 84.696510 34.160000 84.950005 L 34.160000 86.120003 C 33.607971 85.918839 33.027279 85.807426 32.439999 85.790001 C 32.155067 85.774620 31.873255 85.855637 31.639999 86.020004 C 31.447279 86.175255 31.339664 86.412743 31.349998 86.660004 C 31.340494 86.863945 31.408354 87.063950 31.539999 87.220001 C 31.743885 87.428474 31.989141 87.591980 32.259998 87.700005 L 32.910000 88.019997 C 33.265194 88.189125 33.600571 88.397057 33.910000 88.639999 C 34.145287 88.820801 34.331043 89.058159 34.450001 89.330002 C 34.577579 89.619499 34.639069 89.933777 34.630001 90.250000 C 34.660263 90.886475 34.385429 91.499283 33.889999 91.900002 C 33.312969 92.326584 32.606880 92.541946 31.889999 92.510002 C 31.510201 92.509125 31.131512 92.468910 30.760000 92.389999 C 30.430887 92.324646 30.111582 92.217087 29.809999 92.070000 L 29.809999 90.919998 C 30.137161 91.026321 30.471294 91.109856 30.809999 91.169998 C 31.122730 91.235054 31.440676 91.271873 31.760000 91.279999 C 32.073757 91.304230 32.385845 91.215561 32.639999 91.029999 C 32.846394 90.853905 32.957592 90.590736 32.939999 90.320000 C 32.946087 90.107033 32.871021 89.899704 32.730000 89.739998 C 32.526230 89.543251 32.289238 89.384132 32.029999 89.269997 Z" fill="#232F3E"/><path d=" M 38.349998 92.349998 L 38.349998 84.720001 L 40.869999 84.720001 C 41.768742 84.671806 42.639488 85.040771 43.230000 85.720001 C 43.803555 86.539597 44.075634 87.532509 44.000000 88.529999 C 44.068832 89.543709 43.786312 90.550186 43.200001 91.379997 C 42.628780 92.056274 41.774021 92.426300 40.889999 92.379997 Z M 40.000000 85.900002 L 40.000000 91.169998 L 40.709999 91.169998 C 41.183918 91.192314 41.632355 90.954681 41.879997 90.549995 C 42.170422 89.957146 42.301392 89.298859 42.259998 88.639992 L 42.259998 88.419998 C 42.308647 87.760666 42.177307 87.100502 41.879997 86.509995 C 41.631210 86.102509 41.176311 85.867348 40.699997 85.899994 Z" fill="#232F3E"/><path d=" M 46.220001 85.809998 C 45.963860 85.830612 45.709610 85.751831 45.510002 85.589996 C 45.330807 85.439140 45.231186 85.214073 45.240002 84.979996 C 45.229645 84.745628 45.329552 84.519913 45.510002 84.369995 C 45.930443 84.064751 46.499561 84.064751 46.920002 84.369995 C 47.094265 84.523682 47.189812 84.747849 47.180000 84.979996 C 47.186993 85.211624 47.091938 85.434639 46.920002 85.589996 C 46.722973 85.749374 46.472782 85.828011 46.220001 85.809998 Z M 45.389999 92.349998 L 45.389999 86.720001 L 47.000000 86.720001 L 47.000000 92.349998 Z" fill="#232F3E"/><path d=" M 48.490002 92.349998 L 48.490002 86.720001 L 49.840000 86.720001 L 50.020000 87.449997 C 50.223160 87.212234 50.466949 87.012466 50.740002 86.860001 C 50.969921 86.734291 51.227959 86.668915 51.490002 86.669998 C 51.619812 86.660080 51.750191 86.660080 51.880001 86.669998 L 51.880001 88.000000 C 51.666885 87.986336 51.453117 87.986336 51.240002 88.000000 C 50.861374 88.000565 50.488117 88.089600 50.150002 88.260002 L 50.150002 92.370003 Z" fill="#232F3E"/><path d=" M 53.840000 89.919998 C 53.837795 90.309822 53.964344 90.689461 54.200001 91.000000 C 54.498634 91.247833 54.883652 91.366577 55.270000 91.330002 C 55.499203 91.323997 55.727131 91.293831 55.950001 91.240005 C 56.220974 91.187576 56.488213 91.117424 56.750000 91.030006 L 56.750000 92.029999 C 56.490200 92.173843 56.210484 92.278313 55.919998 92.339996 C 55.591473 92.411812 55.256275 92.448685 54.919998 92.449997 C 53.200001 92.449997 52.340000 91.449997 52.340000 89.500000 C 52.286961 88.715630 52.509819 87.937401 52.970001 87.300003 C 53.427765 86.774681 54.104767 86.493523 54.800003 86.540001 C 56.160000 86.540001 56.799999 87.300003 56.799999 88.830002 C 56.799126 89.166870 56.758854 89.502487 56.680000 89.830002 Z M 54.759998 87.599998 C 54.180000 87.599998 53.880001 88.059998 53.840000 88.970001 L 55.459999 88.970001 L 55.459999 88.720001 C 55.480442 88.423340 55.421780 88.126572 55.290001 87.860001 C 55.172512 87.684830 54.970444 87.585701 54.760002 87.599998 Z" fill="#232F3E"/><path d=" M 61.630001 92.089996 C 61.432568 92.211563 61.216278 92.299431 60.990002 92.349998 C 60.724293 92.410645 60.452541 92.440842 60.180000 92.439995 C 59.487282 92.490982 58.809345 92.222023 58.340000 91.709991 C 57.878716 91.088364 57.655231 90.322128 57.709999 89.549988 C 57.659222 88.771988 57.897850 88.002678 58.379997 87.389984 C 58.856400 86.867004 59.543827 86.587616 60.249996 86.629982 C 60.723637 86.640007 61.187431 86.767120 61.599995 86.999985 L 61.599998 88.000000 C 61.279510 87.881645 60.941563 87.817436 60.599998 87.809998 C 60.238846 87.773590 59.884178 87.924515 59.660000 88.209999 C 59.446384 88.604805 59.349281 89.052162 59.380001 89.500000 L 59.380001 89.660004 C 59.343052 90.105080 59.440598 90.551003 59.660000 90.940002 C 59.868992 91.222069 60.210587 91.373886 60.560001 91.340004 C 60.932545 91.331673 61.301029 91.260681 61.650002 91.130005 Z" fill="#232F3E"/><path d=" M 66.000000 92.199997 C 65.606689 92.347153 65.189934 92.421692 64.769997 92.419998 C 63.978142 92.599106 63.191021 92.102379 63.011909 91.310524 C 62.968025 91.116516 62.963974 90.915619 62.999996 90.719994 L 63.000000 87.820000 L 62.270000 87.820000 L 62.270000 86.900002 L 63.049999 86.750000 L 63.290001 85.209999 L 64.650002 85.209999 L 64.650002 86.720001 L 65.930000 86.720001 L 65.930000 87.820000 L 64.650002 87.820000 L 64.650002 90.589996 C 64.634331 90.774376 64.683876 90.958412 64.790001 91.109993 C 64.937172 91.233894 65.128853 91.291756 65.320000 91.269997 C 65.532318 91.266800 65.743622 91.239967 65.949997 91.189995 Z" fill="#232F3E"/><path d=" M 26.309999 106.129997 C 25.741667 106.360519 25.133272 106.476074 24.519999 106.469994 C 22.280001 106.470001 21.150000 105.169998 21.150000 102.570000 C 21.069967 101.516510 21.371679 100.469391 22.000000 99.620003 C 22.649338 98.922134 23.579004 98.554680 24.530001 98.620003 C 25.093498 98.620705 25.652317 98.722313 26.180000 98.920006 L 26.180000 100.129997 C 25.712051 99.991005 25.227962 99.913689 24.740000 99.899994 C 24.200451 99.854988 23.674414 100.084198 23.340000 100.509995 C 22.995201 101.091789 22.838070 101.765701 22.889999 102.439995 L 22.889999 102.690002 C 22.839346 103.353394 22.992886 104.016403 23.330000 104.590004 C 23.651361 105.015427 24.168814 105.245827 24.700001 105.200005 C 25.234768 105.173027 25.764786 105.085808 26.280001 104.940002 Z" fill="#232F3E"/><path d=" M 29.540001 106.489998 C 28.838314 106.528084 28.157448 106.244698 27.690001 105.720001 C 26.823986 104.392052 26.823986 102.677956 27.690001 101.349998 C 28.701748 100.331032 30.347967 100.325180 31.366932 101.336929 C 31.371304 101.341270 31.375660 101.345627 31.379999 101.349998 C 32.246014 102.677948 32.246014 104.392044 31.379999 105.720001 C 30.916534 106.244324 30.238766 106.527962 29.539999 106.489998 Z M 29.540001 105.339996 C 29.823584 105.349129 30.081272 105.175995 30.180000 104.909996 C 30.446798 104.016144 30.446798 103.063843 30.180000 102.169998 C 30.044634 101.813774 29.646122 101.634735 29.289898 101.770103 C 29.105585 101.840141 28.960039 101.985687 28.889999 102.169998 C 28.623201 103.063850 28.623201 104.016151 28.889999 104.909996 C 28.992441 105.177567 29.253679 105.350380 29.539999 105.339996 Z" fill="#232F3E"/><path d=" M 36.299999 106.349998 L 36.299999 102.650002 C 36.319313 102.407036 36.267174 102.163719 36.149998 101.950005 C 36.037304 101.794876 35.850807 101.711143 35.659996 101.730003 C 35.367786 101.738640 35.083794 101.828682 34.839996 101.990005 L 34.840000 106.349998 L 33.189999 106.349998 L 33.189999 100.720001 L 34.540001 100.720001 L 34.669998 101.230003 C 35.205238 100.835541 35.845749 100.609268 36.509998 100.580002 C 36.911430 100.553581 37.303726 100.707565 37.579998 101.000000 C 37.845577 101.349174 37.976883 101.782127 37.949997 102.220001 L 37.950001 106.349998 Z" fill="#232F3E"/><path d=" M 42.450001 106.349998 L 42.450001 102.650002 C 42.466496 102.408363 42.418167 102.166710 42.310001 101.950005 C 42.194103 101.793236 42.003880 101.709541 41.810001 101.730003 C 41.520435 101.744469 41.240334 101.837837 41.000000 102.000000 L 41.000000 106.360001 L 39.340000 106.360001 L 39.340000 100.730003 L 40.689999 100.730003 L 40.820000 101.239998 C 41.358891 100.845284 42.002651 100.619102 42.669998 100.589996 C 43.068466 100.563766 43.457634 100.717964 43.730000 101.009995 C 43.999729 101.357033 44.131523 101.791595 44.099998 102.229996 L 44.099998 106.360001 Z" fill="#232F3E"/><path d=" M 46.720001 103.919998 C 46.699253 104.324760 46.827301 104.723129 47.080002 105.040001 C 47.374474 105.288261 47.756645 105.407242 48.140003 105.370003 C 48.369205 105.363998 48.597134 105.333832 48.820004 105.280006 C 49.091255 105.228806 49.358578 105.158638 49.620003 105.070007 L 49.619999 106.070000 C 49.361759 106.217194 49.081505 106.321869 48.789997 106.379997 C 48.461472 106.451813 48.126274 106.488686 47.789997 106.489998 C 46.070000 106.489998 45.209999 105.489998 45.209999 103.540001 C 45.156960 102.755630 45.379818 101.977402 45.840000 101.340004 C 46.300503 100.818497 46.975536 100.538155 47.670002 100.580002 C 49.040001 100.580002 49.669998 101.339996 49.669998 102.870003 C 49.669125 103.206871 49.628853 103.542488 49.549999 103.870003 Z M 47.630001 101.599998 C 47.049999 101.599998 46.750000 102.059998 46.720001 102.970001 L 48.330002 102.970001 L 48.330002 102.720001 C 48.350445 102.423340 48.291782 102.126572 48.160004 101.860001 C 48.042515 101.684830 47.840446 101.585701 47.630005 101.599998 Z" fill="#232F3E"/><path d=" M 54.500000 106.089996 C 54.303364 106.213127 54.086800 106.301109 53.860001 106.349998 C 53.594292 106.410645 53.322540 106.440842 53.049999 106.439995 C 52.357513 106.489487 51.680202 106.220772 51.209999 105.709991 C 50.342289 104.400703 50.342289 102.699280 51.209999 101.389992 C 51.690342 100.866623 52.380886 100.587463 53.090000 100.629990 C 53.559952 100.630135 54.022976 100.743317 54.439999 100.959991 L 54.439999 101.959999 C 54.119217 101.842697 53.781448 101.778526 53.439999 101.769997 C 53.081944 101.735214 52.731010 101.886154 52.509998 102.169998 C 52.288036 102.561913 52.187126 103.010796 52.219997 103.459999 L 52.220001 103.620003 C 52.187836 104.064751 52.285084 104.509300 52.500000 104.900002 C 52.708992 105.182068 53.050587 105.333885 53.400002 105.300003 C 53.772648 105.292633 54.141293 105.221611 54.490002 105.090004 Z" fill="#232F3E"/><path d=" M 58.820000 106.199997 C 58.429893 106.346176 58.016594 106.420708 57.599998 106.419998 C 57.124668 106.463928 56.650990 106.320389 56.279999 106.019997 C 55.979145 105.656647 55.832035 105.190201 55.869999 104.719994 L 55.869999 101.820000 L 55.139999 101.820000 L 55.139999 100.900002 L 55.919998 100.750000 L 56.160000 99.209999 L 57.520000 99.209999 L 57.520000 100.720001 L 58.799999 100.720001 L 58.799999 101.820000 L 57.520000 101.820000 L 57.520000 104.589996 C 57.501530 104.776146 57.555222 104.962288 57.670002 105.109993 C 57.815342 105.237236 58.008530 105.295555 58.200001 105.269997 C 58.408978 105.266144 58.616894 105.239319 58.820000 105.189995 Z" fill="#232F3E"/></g><g id="ICONS_-_EDIT"><path d=" M 55.000000 46.500000 L 48.000000 46.500000 L 48.000000 44.500000 L 55.000000 44.500000 C 57.410000 44.500000 63.000000 43.779999 63.000000 37.099998 C 63.000000 33.099998 60.650002 30.580000 56.000000 29.650000 C 55.555611 29.560144 55.227276 29.182562 55.200001 28.730000 C 54.970001 24.820000 52.700001 23.440001 50.830002 23.440001 C 49.547173 23.447071 48.342758 24.058542 47.580002 25.090000 C 47.359364 25.385088 46.994335 25.534943 46.630001 25.480000 C 46.267384 25.424627 45.964184 25.175161 45.840000 24.830000 C 45.190617 22.961540 44.119598 21.267759 42.709999 19.879999 C 38.437271 15.437873 31.372482 15.300550 26.930357 19.573278 C 24.809555 21.613207 23.580259 24.408201 23.510000 27.349998 C 23.510845 27.797832 23.537556 28.245245 23.590000 28.689999 C 23.655880 29.193985 23.333221 29.667217 22.840000 29.789999 C 20.660000 30.320000 17.000000 32.000000 17.000000 37.000000 C 17.000000 37.169998 17.000000 37.340000 17.000000 37.520000 C 17.328409 41.566673 20.771955 44.645195 24.830000 44.520000 L 30.000000 44.520000 L 30.000000 46.520000 L 24.850000 46.520000 C 19.741138 46.653835 15.417499 42.773533 15.000000 37.680000 C 15.000000 37.439999 15.000000 37.240002 15.000000 37.029999 C 14.800396 32.870953 17.514252 29.130571 21.530001 28.029999 C 21.530001 27.790001 21.530001 27.540001 21.530001 27.299999 C 21.684986 20.028061 27.705698 14.258630 34.977634 14.413615 C 38.431904 14.487235 41.718906 15.915323 44.129997 18.389999 C 45.378136 19.625586 46.394257 21.075256 47.129997 22.670000 C 48.182854 21.836756 49.487320 21.385481 50.829998 21.389999 C 53.630001 21.389999 56.580002 23.389999 57.130001 27.799999 C 62.209999 29.100000 65.000000 32.369999 65.000000 37.099998 C 65.000000 44.000000 59.830002 46.500000 55.000000 46.500000 Z" fill="#FFFFFF"/><path d=" M 49.000000 59.500000 L 47.000000 59.500000 L 47.000000 53.270000 C 47.000000 52.849998 46.529999 52.500000 46.000000 52.500000 L 32.000000 52.500000 C 31.440001 52.500000 31.000000 52.849998 31.000000 53.270000 L 31.000000 59.500000 L 29.000000 59.500000 L 29.000000 53.270000 C 29.075655 51.682293 30.411308 50.449039 32.000000 50.500000 L 46.000000 50.500000 C 47.588692 50.449039 48.924347 51.682293 49.000000 53.270000 Z" fill="#FFFFFF"/><path d=" M 33.000000 40.500000 C 30.790861 40.500000 29.000000 38.709141 29.000000 36.500000 C 29.000000 34.290859 30.790861 32.500000 33.000000 32.500000 C 35.209141 32.500000 37.000000 34.290859 37.000000 36.500000 C 37.000000 38.709141 35.209141 40.500000 33.000000 40.500000 Z M 33.000000 34.500000 C 31.895430 34.500000 31.000000 35.395432 31.000000 36.500000 C 31.000000 37.604568 31.895430 38.500000 33.000000 38.500000 C 34.104568 38.500000 35.000000 37.604568 35.000000 36.500000 C 35.000000 35.395432 34.104568 34.500000 33.000000 34.500000 Z" fill="#FFFFFF"/><path d=" M 45.000000 40.500000 C 42.790859 40.500000 41.000000 38.709141 41.000000 36.500000 C 41.000000 34.290859 42.790859 32.500000 45.000000 32.500000 C 47.209141 32.500000 49.000000 34.290859 49.000000 36.500000 C 49.000000 38.709141 47.209141 40.500000 45.000000 40.500000 Z M 45.000000 34.500000 C 43.895432 34.500000 43.000000 35.395432 43.000000 36.500000 C 43.000000 37.604568 43.895432 38.500000 45.000000 38.500000 C 46.104568 38.500000 47.000000 37.604568 47.000000 36.500000 C 47.000000 35.395432 46.104568 34.500000 45.000000 34.500000 Z" fill="#FFFFFF"/><path d=" M 38.939999 33.500000 C 36.730858 33.500000 34.939999 31.709139 34.939999 29.500000 C 34.939999 27.290861 36.730858 25.500000 38.939999 25.500000 C 41.149139 25.500000 42.939999 27.290861 42.939999 29.500000 C 42.939999 31.709139 41.149139 33.500000 38.939999 33.500000 Z M 38.939999 27.500000 C 37.835430 27.500000 36.939999 28.395430 36.939999 29.500000 C 36.939999 30.604570 37.835430 31.500000 38.939999 31.500000 C 40.044567 31.500000 40.939999 30.604570 40.939999 29.500000 C 40.939999 28.395430 40.044567 27.500000 38.939999 27.500000 Z" fill="#FFFFFF"/><rect x="32.000000" y="39.500000" width="2.000000" height="10.000000" fill="#FFFFFF"/><rect x="38.000000" y="32.500000" width="2.000000" height="17.000000" fill="#FFFFFF"/><rect x="44.000000" y="39.500000" width="2.000000" height="10.000000" fill="#FFFFFF"/><path d=" M 52.000000 64.500000 L 50.000000 64.500000 L 50.000000 61.610001 C 50.000000 60.980000 49.630001 60.500000 49.310001 60.500000 L 28.690001 60.500000 C 28.370001 60.500000 28.000000 60.980000 28.000000 61.610001 L 28.000000 64.500000 L 26.000000 64.500000 L 26.000000 61.610001 C 25.896551 60.012558 27.094320 58.627777 28.690001 58.500000 L 49.310001 58.500000 C 50.905682 58.627777 52.103451 60.012558 52.000000 61.610001 Z" fill="#FFFFFF"/></g></svg>