<svg version="1.1" width="80.000000" height="115.000000" viewBox="0.000000 0.000000 80.000000 115.000000" xmlns="http://www.w3.org/2000/svg" xmlns:xlink="http://www.w3.org/1999/xlink" overflow="hidden"><g id="CARDS"><rect x="1.000000" y="1.000000" width="78.000000" height="78.000000" fill="#232F3E"/><path d=" M 0.000000 0.000000 L 0.000000 80.000000 L 0.000000 80.000000 L 0.000000 115.000000 L 80.000000 115.000000 L 80.000000 80.000000 L 80.000000 80.000000 L 80.000000 0.000000 Z M 1.000000 1.000000 L 79.000000 1.000000 L 79.000000 79.000000 L 1.000000 79.000000 Z" fill="#FFFFFF"/></g><g id="TEXT_-_EDIT"><path d=" M 33.689999 92.349998 L 33.250000 90.529999 L 31.250000 90.529999 L 30.830000 92.349998 L 29.059999 92.349998 L 31.370001 84.720001 L 33.240002 84.720001 L 35.540001 92.349998 Z M 31.510000 89.430000 L 33.000000 89.430000 L 32.240002 86.269997 Z" fill="#232F3E"/><path d=" M 40.889999 92.349998 L 40.000000 86.720001 L 39.110001 92.349998 L 37.189999 92.349998 L 35.410000 84.720001 L 37.110001 84.720001 L 38.169998 90.779999 L 39.080002 85.000000 L 40.919998 85.000000 L 41.860001 90.650002 L 42.860001 84.650002 L 44.520000 84.650002 L 42.740002 92.279999 Z" fill="#232F3E"/><path d=" M 46.840000 89.000000 C 46.345402 88.768761 45.910801 88.426559 45.570000 88.000000 C 45.307678 87.644348 45.170536 87.211830 45.180000 86.769997 C 45.168892 86.354126 45.287739 85.945145 45.520000 85.599998 C 45.745701 85.259720 46.065289 84.992241 46.439999 84.830002 C 46.861813 84.643929 47.319042 84.551804 47.779999 84.560005 C 48.429764 84.562088 49.072483 84.694710 49.669998 84.950005 L 49.669998 86.120003 C 49.134098 85.923050 48.570534 85.811684 48.000000 85.790001 C 47.718163 85.774521 47.439480 85.855652 47.209999 86.020004 C 47.013199 86.172058 46.904575 86.411781 46.919998 86.660004 C 46.912312 86.862022 46.976040 87.060295 47.099998 87.220001 C 47.307770 87.423737 47.552021 87.586571 47.820000 87.700005 L 48.470001 88.019997 C 48.826054 88.187546 49.161602 88.395592 49.470001 88.639999 C 49.698788 88.827263 49.883213 89.062912 50.010002 89.330002 C 50.129375 89.621704 50.187252 89.934906 50.180000 90.250000 C 50.210262 90.886475 49.935429 91.499283 49.439999 91.900002 C 48.864475 92.329575 48.157295 92.545265 47.439999 92.510002 C 47.060139 92.510231 46.681335 92.470001 46.309998 92.389999 C 45.980469 92.326210 45.660961 92.218590 45.359997 92.070000 L 45.360001 90.919998 C 45.687019 91.026825 46.021187 91.110367 46.360001 91.169998 C 46.689121 91.238113 47.023945 91.274940 47.360001 91.279999 C 47.673580 91.302475 47.985077 91.213982 48.240002 91.029999 C 48.446396 90.853905 48.557594 90.590736 48.540001 90.320000 C 48.546089 90.107033 48.471024 89.899704 48.330002 89.739998 C 48.122326 89.543411 47.882092 89.384384 47.620003 89.269997 Z" fill="#232F3E"/><path d=" M 15.000000 103.519997 L 15.000000 106.349998 L 13.300000 106.349998 L 13.300000 98.720001 L 15.940000 98.720001 C 16.593439 98.689598 17.231539 98.923927 17.709999 99.370003 C 18.576994 100.375595 18.576994 101.864410 17.709999 102.870003 C 17.231537 103.316078 16.593437 103.550407 15.939999 103.520004 Z M 15.000000 102.370003 L 15.790000 102.370003 C 16.063034 102.388489 16.327959 102.272820 16.500000 102.060005 C 16.685431 101.783142 16.773392 101.452408 16.750000 101.120003 C 16.775049 100.790573 16.686850 100.462471 16.500000 100.190002 C 16.332315 99.970589 16.065453 99.850311 15.790000 99.870003 L 15.000000 99.870003 Z" fill="#232F3E"/><path d=" M 19.580000 106.349998 L 19.580000 100.720001 L 20.930000 100.720001 L 21.110001 101.449997 C 21.310947 101.209991 21.555180 101.009857 21.830000 100.860001 C 22.058908 100.731735 22.317631 100.666191 22.580000 100.669998 C 22.709810 100.660080 22.840189 100.660080 22.969999 100.669998 L 22.969999 102.000000 C 22.756886 101.986336 22.543114 101.986336 22.330000 102.000000 C 21.948166 102.000481 21.571642 102.089478 21.230000 102.260002 L 21.230000 106.370003 Z" fill="#232F3E"/><path d=" M 24.580000 99.809998 C 24.323856 99.830612 24.069609 99.751831 23.870001 99.589996 C 23.696354 99.443558 23.597309 99.227127 23.600000 99.000000 C 23.589643 98.765633 23.689550 98.539917 23.870001 98.389999 C 24.290442 98.084755 24.859560 98.084755 25.280001 98.389999 C 25.454266 98.543686 25.549810 98.767853 25.540001 99.000000 C 25.546995 99.231628 25.451939 99.454643 25.280001 99.610001 C 25.080084 99.762253 24.830175 99.833656 24.580000 99.809998 Z M 23.750000 106.349998 L 23.750000 100.720001 L 25.400000 100.720001 L 25.400000 106.349998 Z" fill="#232F3E"/><path d=" M 28.049999 106.349998 L 26.190001 100.720001 L 27.940001 100.720001 L 28.830000 104.720001 L 29.750000 100.720001 L 31.450001 100.720001 L 29.600000 106.349998 Z" fill="#232F3E"/><path d=" M 35.110001 106.349998 L 34.959999 105.839996 C 34.809303 106.046989 34.605442 106.209389 34.369999 106.309998 C 34.126694 106.427460 33.860176 106.488968 33.590000 106.489998 C 33.150822 106.513031 32.722321 106.349617 32.410000 106.040001 C 31.799265 105.292549 31.842176 104.206917 32.509998 103.510002 C 32.907272 103.173096 33.420315 103.004471 33.939999 103.040001 C 34.254028 103.046669 34.566177 103.090302 34.869999 103.169998 L 34.869999 102.660004 C 34.895195 102.388687 34.835812 102.116226 34.700001 101.880005 C 34.539997 101.726921 34.319851 101.653542 34.100002 101.680008 C 33.492172 101.704216 32.891747 101.822273 32.320004 102.030006 L 32.320000 101.029999 C 32.607075 100.871574 32.917679 100.760162 33.239998 100.699997 C 33.621399 100.619514 34.010197 100.579300 34.399998 100.579994 C 34.943604 100.534027 35.485004 100.690742 35.919998 101.019997 C 36.264771 101.396851 36.435322 101.901237 36.389999 102.409996 L 36.389999 106.349998 Z M 34.110001 105.430000 C 34.411385 105.418922 34.697319 105.293823 34.910000 105.080002 L 34.910000 104.000000 C 34.704060 103.948677 34.492180 103.925140 34.279999 103.930000 C 34.079453 103.914780 33.882248 103.987816 33.739998 104.129997 C 33.608238 104.297188 33.544003 104.507729 33.559998 104.719994 C 33.549709 104.905304 33.602589 105.088631 33.709999 105.239990 C 33.794926 105.354698 33.927376 105.424606 34.070000 105.429993 Z" fill="#232F3E"/><path d=" M 40.820000 106.199997 C 40.426689 106.347153 40.009933 106.421692 39.590000 106.419998 C 39.117683 106.464508 38.646893 106.320755 38.279999 106.019997 C 37.975262 105.658775 37.827633 105.190689 37.869999 104.719994 L 37.869999 101.820000 L 37.130001 101.820000 L 37.130001 100.900002 L 37.919998 100.750000 L 38.160000 99.209999 L 39.520000 99.209999 L 39.520000 100.720001 L 40.790001 100.720001 L 40.790001 101.820000 L 39.520000 101.820000 L 39.520000 104.589996 C 39.504326 104.774376 39.553871 104.958412 39.660000 105.109993 C 39.807175 105.233894 39.998852 105.291756 40.189999 105.269997 C 40.402271 105.266159 40.613503 105.239334 40.820000 105.189995 Z" fill="#232F3E"/><path d=" M 42.910000 103.919998 C 42.896595 104.325401 43.027733 104.722366 43.279999 105.040001 C 43.574471 105.288261 43.956642 105.407242 44.340000 105.370003 C 44.569202 105.363998 44.797131 105.333832 45.020000 105.280006 C 45.291252 105.228806 45.558575 105.158638 45.820000 105.070007 L 45.820000 106.070000 C 45.560978 106.215523 45.280998 106.320099 44.989998 106.379997 C 44.661472 106.451813 44.326275 106.488686 43.989998 106.489998 C 42.270000 106.489998 41.410000 105.489998 41.410000 103.540001 C 41.356960 102.755630 41.579819 101.977402 42.040001 101.340004 C 42.498692 100.815964 43.175026 100.535088 43.870003 100.580002 C 45.230000 100.580002 45.869999 101.339996 45.869999 102.870003 C 45.869125 103.206871 45.828854 103.542488 45.750000 103.870003 Z M 43.830002 101.599998 C 43.250000 101.599998 42.950001 102.059998 42.910000 102.970001 L 44.529999 102.970001 L 44.529999 102.720001 C 44.550442 102.423340 44.491779 102.126572 44.360001 101.860001 C 44.242512 101.684830 44.040443 101.585701 43.830002 101.599998 Z" fill="#232F3E"/><path d=" M 47.169998 106.349998 L 47.169998 98.720001 L 48.849998 98.720001 L 48.849998 105.120003 L 51.700001 105.120003 L 51.700001 106.349998 Z" fill="#232F3E"/><path d=" M 53.340000 99.809998 C 53.081490 99.824509 52.826252 99.746521 52.619999 99.589996 C 52.448063 99.434639 52.353004 99.211624 52.360001 98.979996 C 52.350193 98.747849 52.445736 98.523689 52.619999 98.369995 C 52.820667 98.202087 53.079151 98.119514 53.340000 98.139992 C 53.590717 98.127335 53.837021 98.209435 54.029999 98.369995 C 54.210449 98.519913 54.310356 98.745628 54.299999 98.979996 C 54.308815 99.214073 54.209194 99.439140 54.029999 99.589996 C 53.835564 99.746964 53.589409 99.825447 53.340000 99.809998 Z M 52.500000 106.349998 L 52.500000 100.720001 L 54.150002 100.720001 L 54.150002 106.349998 Z" fill="#232F3E"/><path d=" M 58.720001 106.349998 L 58.720001 102.650002 C 58.736496 102.408363 58.688168 102.166710 58.580002 101.950005 C 58.462830 101.794846 58.273560 101.711563 58.080002 101.730003 C 57.787971 101.739677 57.504253 101.829636 57.260002 101.990005 L 57.259998 106.349998 L 55.610001 106.349998 L 55.610001 100.720001 L 57.000000 100.720001 L 57.130001 101.230003 C 57.668892 100.835289 58.312653 100.609108 58.980000 100.580002 C 59.364765 100.565758 59.736820 100.718956 60.000000 101.000000 C 60.269730 101.347038 60.401524 101.781601 60.369999 102.220001 L 60.369999 106.349998 Z" fill="#232F3E"/><path d=" M 61.770000 106.349998 L 61.770000 98.209999 L 63.400002 98.209999 L 63.400002 103.209999 L 65.000000 100.720001 L 66.830002 100.720001 L 64.830002 103.410004 L 67.000000 106.349998 L 65.150002 106.349998 L 63.400002 103.750000 L 63.400002 106.349998 Z" fill="#232F3E"/></g><g id="ICONS_-_EDIT"><path d=" M 48.380001 49.779999 L 44.000000 49.779999 L 44.000000 47.779999 L 48.380001 47.779999 C 49.437721 47.778187 50.451664 47.357506 51.200001 46.610001 C 51.831646 45.810204 52.119442 44.792118 52.000000 43.779999 C 52.166260 41.743320 50.649986 39.957485 48.613308 39.791225 C 48.542328 39.785431 48.471195 39.781689 48.400002 39.779999 L 40.900002 39.779999 C 40.562298 39.777493 40.225842 39.821232 39.900002 39.910000 C 38.489140 40.259460 37.378880 41.346752 37.000000 42.750000 C 36.746937 43.674229 36.839371 44.659004 37.259998 45.520000 L 35.459999 46.400002 C 35.061764 45.584221 34.856476 44.687786 34.860001 43.780003 C 34.861881 43.253086 34.932476 42.728661 35.070000 42.220001 C 35.636677 40.151196 37.264664 38.542274 39.340000 38.000000 C 39.841904 37.863880 40.359978 37.796597 40.880001 37.799999 L 48.369999 37.799999 C 51.517696 37.845325 54.032665 40.433781 53.987339 43.581478 C 53.986290 43.654358 53.983841 43.727215 53.980000 43.799999 C 54.108795 45.327511 53.614708 46.842228 52.610001 48.000000 C 51.496689 49.137955 49.971981 49.779560 48.380001 49.779999 Z" fill="#FFFFFF"/><path d=" M 37.529999 51.779999 L 30.000000 51.779999 C 26.686291 51.779999 24.000000 49.093708 24.000000 45.779999 C 24.000000 42.466290 26.686291 39.779999 30.000000 39.779999 L 34.000000 39.779999 L 34.000000 41.779999 L 30.000000 41.779999 C 27.790861 41.779999 26.000000 43.570858 26.000000 45.779999 C 26.000000 47.989140 27.790861 49.779999 30.000000 49.779999 L 37.500000 49.779999 C 38.241592 49.775059 38.967735 49.567589 39.599998 49.180000 C 39.865467 49.024593 40.107826 48.832726 40.320000 48.610001 C 41.080276 47.865345 41.506058 46.844193 41.500000 45.779999 C 41.500000 45.650002 41.500000 45.529999 41.500000 45.410000 C 41.399921 44.320366 40.857826 43.319302 40.000000 42.639999 L 41.230000 41.070000 C 42.518280 42.079445 43.338284 43.571350 43.500000 45.200001 C 43.510487 45.393192 43.510487 45.586811 43.500000 45.780003 C 43.501026 47.365383 42.867188 48.885159 41.740002 50.000004 C 41.414288 50.328533 41.048000 50.614170 40.650002 50.850002 C 39.720356 51.452030 38.637543 51.774792 37.530003 51.780003 Z" fill="#FFFFFF"/><path d=" M 55.360001 55.779999 L 24.639999 55.779999 C 19.340000 55.779999 15.290000 52.250000 15.020000 47.400002 C 15.020000 47.180000 15.020000 46.959999 15.020000 46.740002 C 14.831773 42.584358 17.541016 38.850334 21.550001 37.740002 C 21.549999 37.500000 21.549999 37.259998 21.549999 37.009998 C 21.718248 29.732830 27.753952 23.969913 35.031120 24.138163 C 38.471394 24.217703 41.744129 25.639593 44.149998 28.099998 C 45.399811 29.334171 46.416161 30.784163 47.149998 32.379997 C 48.678040 31.174820 50.702103 30.800686 52.559998 31.379997 C 55.070000 32.139999 56.750000 34.380001 57.150002 37.529999 C 62.209999 38.820000 65.000000 42.080002 65.000000 46.810001 C 65.000000 52.599998 61.580002 55.779999 55.360001 55.779999 Z M 22.760000 39.509998 C 20.580000 40.070000 17.000000 41.750000 17.000000 46.740002 C 17.000000 46.919998 17.000000 47.110001 17.000000 47.279999 C 17.209999 51.040001 20.420000 53.779999 24.620001 53.779999 L 55.360001 53.779999 C 60.430000 53.779999 63.000000 51.439999 63.000000 46.779999 C 63.000000 42.779999 60.650002 40.259998 56.000000 39.330002 C 55.555611 39.240147 55.227276 38.862564 55.200001 38.410004 C 55.040001 35.730000 53.849998 33.869999 51.950001 33.290001 C 50.318687 32.801594 48.556999 33.399521 47.560001 34.780003 C 47.338867 35.067898 46.979080 35.213345 46.620003 35.160004 C 46.257385 35.104630 45.954185 34.855167 45.830002 34.510002 C 45.175262 32.646477 44.108826 30.954531 42.710003 29.560001 C 38.429504 25.117685 31.358271 24.986506 26.915955 29.267004 C 24.800980 31.304937 23.573765 34.093872 23.500002 37.030003 C 23.496746 37.481277 23.523470 37.932270 23.580002 38.380001 C 23.658365 38.916721 23.294561 39.418056 22.760002 39.510002 Z" fill="#FFFFFF"/></g></svg>