<svg version="1.1" width="80.000000" height="115.000000" viewBox="0.000000 0.000000 80.000000 115.000000" xmlns="http://www.w3.org/2000/svg" xmlns:xlink="http://www.w3.org/1999/xlink" overflow="hidden"><g id="CARDS"><rect x="1.000000" y="1.000000" width="78.000000" height="78.000000" fill="#232F3E"/><path d=" M 0.000000 0.000000 L 0.000000 80.000000 L 0.000000 80.000000 L 0.000000 115.000000 L 80.000000 115.000000 L 80.000000 80.000000 L 80.000000 80.000000 L 80.000000 0.000000 Z M 1.000000 1.000000 L 79.000000 1.000000 L 79.000000 79.000000 L 1.000000 79.000000 Z" fill="#FFFFFF"/></g><g id="TEXT_-_EDIT"><path d=" M 25.350000 92.349998 L 24.920000 90.529999 L 22.920000 90.529999 L 22.500000 92.349998 L 20.719999 92.349998 L 23.000000 84.720001 L 24.900000 84.720001 L 27.209999 92.349998 Z M 23.170000 89.430000 L 24.660000 89.430000 L 23.900000 86.269997 Z" fill="#232F3E"/><path d=" M 34.060001 92.349998 L 34.060001 88.639999 C 34.076664 88.401566 34.028278 88.163086 33.920002 87.949997 C 33.819908 87.796371 33.642418 87.711487 33.460003 87.729996 C 33.174831 87.743271 32.898491 87.833084 32.660004 87.989998 C 32.664822 88.029854 32.664822 88.070145 32.660004 88.110001 L 32.660000 92.349998 L 31.000000 92.349998 L 31.000000 88.639999 C 31.019257 88.402504 30.974358 88.164200 30.870001 87.949997 C 30.765142 87.796478 30.585056 87.712181 30.400002 87.729996 C 30.121338 87.744865 29.851856 87.834694 29.620001 87.989998 L 29.620001 92.349998 L 28.000000 92.349998 L 28.000000 86.720001 L 29.350000 86.720001 L 29.480000 87.230003 C 30.005705 86.838974 30.635632 86.612755 31.289999 86.580002 C 31.787903 86.543671 32.259682 86.807076 32.489998 87.250000 C 33.020988 86.851845 33.657448 86.618820 34.320000 86.580002 C 34.698605 86.567619 35.063778 86.720993 35.320000 87.000000 C 35.580429 87.351334 35.707973 87.783562 35.680000 88.220001 L 35.680000 92.349998 Z" fill="#232F3E"/><path d=" M 40.000000 92.349998 L 39.860001 91.839996 C 39.704742 92.042564 39.502155 92.203949 39.270000 92.309998 C 39.023094 92.427322 38.753361 92.488777 38.480000 92.489998 C 38.038441 92.498497 37.613724 92.320625 37.310001 92.000000 C 37.006588 91.668808 36.851307 91.228241 36.880001 90.779999 C 36.856857 90.286880 37.050484 89.808296 37.410000 89.470001 C 37.807274 89.133095 38.320316 88.964470 38.840000 89.000000 C 39.154030 89.006668 39.466179 89.050301 39.770000 89.129997 L 39.770000 88.620003 C 39.797573 88.349762 39.741737 88.077560 39.610001 87.840004 C 39.445477 87.687714 39.222755 87.614693 39.000000 87.640007 C 38.395546 87.665237 37.798565 87.783279 37.230000 87.990005 L 37.230000 87.000000 C 37.516563 86.840446 37.827354 86.728966 38.149998 86.669998 C 38.528015 86.589485 38.913502 86.549255 39.299999 86.549995 C 39.843796 86.502090 40.385880 86.659012 40.820000 86.989998 C 41.164772 87.366852 41.335323 87.871239 41.290001 88.379997 L 41.290001 92.320000 Z M 39.000000 91.430000 C 39.298344 91.418404 39.580971 91.293190 39.790001 91.080002 L 39.790001 90.000000 C 39.587475 89.948616 39.378887 89.925064 39.170002 89.930000 C 38.969070 89.911972 38.770714 89.985435 38.630001 90.129997 C 38.490948 90.293694 38.422604 90.505920 38.440002 90.719994 C 38.429714 90.905304 38.482594 91.088631 38.590004 91.239990 C 38.687565 91.366325 38.840549 91.437218 39.000004 91.429993 Z" fill="#232F3E"/><path d=" M 42.279999 92.349998 L 42.279999 91.279999 L 44.770000 87.879997 L 42.369999 87.879997 L 42.369999 86.720001 L 46.509998 86.720001 L 46.509998 87.790001 L 44.000000 91.190002 L 46.540001 91.190002 L 46.540001 92.349998 Z" fill="#232F3E"/><path d=" M 49.790001 92.489998 C 49.108715 92.511253 48.453094 92.229225 48.000000 91.720001 C 47.133984 90.392052 47.133984 88.677956 48.000000 87.349998 C 49.011749 86.331032 50.657967 86.325180 51.676933 87.336929 C 51.681305 87.341270 51.685661 87.345627 51.690002 87.349998 C 52.556019 88.677948 52.556019 90.392044 51.690002 91.720001 C 51.211487 92.259041 50.508781 92.543823 49.790001 92.489998 Z M 49.790001 91.339996 C 50.076321 91.350388 50.337559 91.177567 50.440002 90.909996 C 50.706799 90.016144 50.706799 89.063843 50.440002 88.169998 C 50.304638 87.813774 49.906124 87.634735 49.549900 87.770103 C 49.365585 87.840141 49.220043 87.985687 49.150002 88.169998 C 48.883205 89.063850 48.883205 90.016151 49.150002 90.909996 C 49.248730 91.175995 49.506416 91.349129 49.790001 91.339996 Z" fill="#232F3E"/><path d=" M 56.549999 92.349998 L 56.549999 88.650002 C 56.566494 88.408363 56.518166 88.166710 56.410000 87.950005 C 56.294102 87.793236 56.103878 87.709541 55.910000 87.730003 C 55.621128 87.739960 55.340698 87.829971 55.099998 87.990005 L 55.099998 92.349998 L 53.439999 92.349998 L 53.439999 86.720001 L 54.790001 86.720001 L 54.930000 87.230003 C 55.464371 86.833908 56.105400 86.607452 56.770000 86.580002 C 57.171432 86.553581 57.563728 86.707565 57.840000 87.000000 C 58.102020 87.350540 58.229740 87.783371 58.200001 88.220001 L 58.200001 92.349998 Z" fill="#232F3E"/><path d=" M 23.420000 106.349998 L 22.000000 103.519997 L 21.350000 103.519997 L 21.350000 106.349998 L 19.660000 106.349998 L 19.660000 98.720001 L 22.299999 98.720001 C 22.950203 98.691185 23.584608 98.925476 24.059999 99.370003 C 24.516874 99.834206 24.756550 100.469711 24.719999 101.120003 C 24.732397 101.585030 24.618343 102.044708 24.389999 102.450005 C 24.177994 102.822403 23.851984 103.116867 23.459999 103.290001 L 25.150000 106.349998 Z M 21.309999 102.349998 L 22.090000 102.349998 C 22.365595 102.366768 22.632788 102.251724 22.809999 102.040001 C 22.990740 101.761032 23.078276 101.431900 23.059999 101.099998 C 23.079666 100.771095 22.991928 100.444710 22.809999 100.169998 C 22.636913 99.951820 22.367929 99.832275 22.090000 99.849998 L 21.309999 99.849998 Z" fill="#232F3E"/><path d=" M 28.200001 106.489998 C 27.500715 106.530975 26.821676 106.246811 26.360001 105.720001 C 25.480846 104.395988 25.480846 102.674019 26.360001 101.349998 C 27.358828 100.333794 28.992332 100.319710 30.008535 101.318535 C 30.019114 101.328934 30.029602 101.339424 30.040001 101.349998 C 30.906015 102.677948 30.906015 104.392044 30.040001 105.720001 C 29.576536 106.244324 28.898767 106.527962 28.200001 106.489998 Z M 28.200001 105.339996 C 28.484493 105.352325 28.743887 105.178047 28.840000 104.909996 C 29.106798 104.016144 29.106798 103.063843 28.840000 102.169998 C 28.747374 101.897995 28.487137 101.719078 28.200001 101.729996 C 27.911110 101.721107 27.649082 101.898483 27.550001 102.169998 C 27.294867 103.065514 27.294867 104.014481 27.550001 104.909996 C 27.652443 105.177567 27.913681 105.350380 28.200001 105.339996 Z" fill="#232F3E"/><path d=" M 35.110001 106.349998 L 34.980000 105.839996 C 34.467445 106.234222 33.845985 106.461166 33.200001 106.489998 C 32.818481 106.506950 32.450146 106.348564 32.200001 106.059998 C 31.949743 105.696587 31.826689 105.260620 31.850000 104.820000 L 31.850000 100.720001 L 33.509998 100.720001 L 33.509998 104.339996 C 33.489487 104.603439 33.534134 104.867889 33.639999 105.109993 C 33.729149 105.266022 33.900997 105.355850 34.079998 105.339996 C 34.352257 105.332367 34.616375 105.245483 34.839996 105.089996 L 34.840000 100.720001 L 36.490002 100.720001 L 36.490002 106.349998 Z" fill="#232F3E"/><path d=" M 40.919998 106.199997 C 40.526688 106.347153 40.109932 106.421692 39.689999 106.419998 C 38.892197 106.570419 38.123508 106.045616 37.973083 105.247818 C 37.940216 105.073509 37.939171 104.894684 37.969997 104.720001 L 37.970001 101.820000 L 37.230000 101.820000 L 37.230000 100.900002 L 38.020000 100.750000 L 38.259998 99.209999 L 39.619999 99.209999 L 39.619999 100.720001 L 40.900002 100.720001 L 40.900002 101.820000 L 39.619999 101.820000 L 39.619999 104.589996 C 39.604324 104.774376 39.653870 104.958412 39.759998 105.109993 C 39.907173 105.233894 40.098850 105.291756 40.289997 105.269997 C 40.502316 105.266800 40.713619 105.239967 40.919998 105.189995 Z" fill="#232F3E"/><path d=" M 43.000000 103.919998 C 42.979252 104.324760 43.107300 104.723129 43.360001 105.040001 C 43.655567 105.286263 44.036880 105.404976 44.420002 105.370003 C 44.649204 105.363998 44.877132 105.333832 45.100002 105.280006 C 45.371529 105.230042 45.638943 105.159843 45.900002 105.070007 L 45.900002 106.070000 C 45.641762 106.217194 45.361507 106.321869 45.070000 106.379997 C 44.741474 106.451813 44.406277 106.488686 44.070000 106.489998 C 42.349998 106.489998 41.490002 105.489998 41.490002 103.540001 C 41.435516 102.753960 41.662365 101.974152 42.130001 101.340004 C 42.584652 100.816292 43.257927 100.535149 43.950001 100.580002 C 45.320000 100.580002 46.000000 101.339996 46.000000 102.870003 C 45.999126 103.206871 45.958855 103.542488 45.880001 103.870003 Z M 43.910000 101.599998 C 43.330002 101.599998 43.029999 102.059998 43.000000 102.970001 L 44.610001 102.970001 L 44.610001 102.720001 C 44.630444 102.423340 44.571781 102.126572 44.440002 101.860001 C 44.326252 101.691147 44.133476 101.592865 43.930004 101.599998 Z" fill="#232F3E"/><path d=" M 49.580002 105.000000 C 50.159523 105.215759 50.771690 105.330750 51.390003 105.339996 C 51.727325 105.362122 52.059223 105.246674 52.310001 105.019997 C 52.528618 104.757210 52.639404 104.421280 52.620003 104.079994 C 52.666344 103.710243 52.536804 103.340141 52.270004 103.079994 C 51.950256 102.853256 51.560589 102.746986 51.170006 102.779991 C 50.731361 102.787117 50.293697 102.823868 49.860004 102.889992 L 49.860001 102.000000 L 50.049999 98.739998 L 54.000000 98.739998 L 54.000000 99.959999 L 51.389999 99.959999 L 51.279999 101.779999 C 51.543465 101.727631 51.811378 101.700836 52.079998 101.699997 C 52.490288 101.689415 52.895420 101.793297 53.249996 102.000000 C 53.571434 102.202591 53.830910 102.489746 53.999996 102.830002 C 54.183125 103.199631 54.275673 103.607536 54.269997 104.020004 C 54.278095 104.483963 54.156906 104.941010 53.919998 105.340004 C 53.678810 105.721466 53.331161 106.023918 52.919998 106.210007 C 52.486290 106.416710 52.010353 106.519432 51.529999 106.510010 C 51.194645 106.510010 50.859966 106.479889 50.529999 106.420013 C 50.186737 106.351959 49.851566 106.248055 49.529999 106.110016 Z" fill="#232F3E"/><path d=" M 57.250000 106.489998 C 56.632870 106.484398 56.023521 106.351631 55.459999 106.099998 L 55.459999 105.000000 C 55.739250 105.107002 56.026905 105.190620 56.320000 105.250000 C 56.575371 105.312782 56.837051 105.346329 57.099998 105.349998 C 57.711464 105.443413 58.282883 105.023453 58.376301 104.411995 C 58.392086 104.308678 58.393330 104.203659 58.380001 104.099998 C 58.380001 103.366669 57.919998 103.000000 57.000000 103.000000 C 56.781601 103.002647 56.563953 103.026085 56.349998 103.070000 L 56.349998 102.129997 L 58.080002 99.970001 L 55.549999 99.970001 L 55.549999 98.720001 L 59.720001 98.720001 L 59.720001 99.839996 L 58.000000 101.930000 C 58.547203 101.959404 59.063969 102.191055 59.450001 102.580002 C 59.813408 102.962288 60.011086 103.472664 60.000000 104.000000 C 60.034477 104.677490 59.762810 105.334633 59.259998 105.790001 C 58.701431 106.267036 57.984058 106.516869 57.250000 106.489998 Z" fill="#232F3E"/></g><g id="ICONS_-_EDIT"><path d=" M 31.610001 44.480000 C 32.607433 44.831326 33.653019 45.026951 34.709999 45.060001 C 35.386456 45.103203 36.056267 44.904739 36.599998 44.500000 C 37.057007 44.089939 37.300335 43.492683 37.259998 42.880001 C 37.318447 42.256916 37.094601 41.640430 36.649998 41.200001 C 36.060772 40.806702 35.356171 40.623505 34.649998 40.680000 C 33.807762 40.688797 32.966583 40.742207 32.129997 40.840000 L 32.130001 39.759998 L 32.439999 34.889999 L 38.439999 34.889999 L 38.439999 36.230000 L 33.779999 36.230000 L 33.560001 39.540001 C 34.093842 39.435074 34.636009 39.378181 35.180000 39.370003 C 36.182758 39.310364 37.169266 39.643982 37.930000 40.300003 C 38.617474 40.968826 38.982105 41.902283 38.930000 42.860004 C 38.960602 43.855473 38.533085 44.810009 37.770000 45.450005 C 36.907246 46.140339 35.824009 46.495499 34.720001 46.450005 C 33.649025 46.455776 32.589016 46.234230 31.610001 45.800003 Z" fill="#FFFFFF"/><path d=" M 44.520000 39.730000 L 44.840000 39.730000 C 45.773529 39.679520 46.690536 39.991161 47.400002 40.599998 C 48.064022 41.192986 48.430382 42.050259 48.400002 42.939999 C 48.435806 43.922924 48.010426 44.866158 47.250000 45.489998 C 46.370308 46.177586 45.275742 46.531811 44.160000 46.489998 C 43.126263 46.479076 42.105553 46.257923 41.160000 45.839996 L 41.160000 44.540001 C 42.123959 44.887421 43.136009 45.083084 44.160000 45.120003 C 44.824902 45.132126 45.474022 44.916927 46.000000 44.510002 C 46.449432 44.110790 46.695461 43.530594 46.669998 42.930000 C 46.669998 41.610001 45.840000 40.930000 44.169998 40.930000 C 43.652214 40.926472 43.134666 40.953182 42.619999 41.010002 L 42.619999 40.000000 L 46.049999 36.270000 L 41.240002 36.270000 L 41.240002 34.889999 L 47.880001 34.889999 L 47.880001 36.180000 Z" fill="#FFFFFF"/><path d=" M 40.000000 58.189999 L 39.500000 57.900002 C 36.410843 56.061695 33.028015 54.769455 29.500000 54.080002 C 27.500000 53.720001 21.010000 52.180000 21.010000 47.480000 C 21.010000 45.480000 21.719999 44.130001 22.879999 42.130001 C 24.040001 40.130001 25.500000 37.630001 25.500000 34.130001 C 25.492043 31.442764 24.718506 28.813435 23.270000 26.550001 L 22.879999 26.000000 L 25.190001 23.150000 L 25.930000 23.559999 C 27.891298 24.674189 30.104408 25.269629 32.360001 25.289999 C 34.887447 25.326088 37.361752 24.563150 39.430000 23.109999 L 40.000000 22.719999 L 40.570000 23.110001 C 42.638248 24.563150 45.112553 25.326090 47.639999 25.290001 C 49.895592 25.269630 52.108700 24.674191 54.070000 23.560001 L 54.810001 23.150000 L 57.119999 26.000000 L 56.740002 26.610001 C 55.291496 28.873434 54.517960 31.502766 54.510002 34.190002 C 54.509998 37.639999 55.900002 40.029999 57.130001 42.189999 C 58.360001 44.349998 59.000000 45.459999 59.000000 47.480000 C 59.000000 52.180000 52.500000 53.720001 50.509998 54.080002 C 46.981983 54.769455 43.599155 56.061695 40.509998 57.900002 Z M 25.320000 26.190001 C 26.736166 28.618643 27.484812 31.378632 27.490000 34.190002 C 27.405115 37.404297 26.402317 40.527195 24.600000 43.190002 C 23.549999 45.000000 23.000000 46.000000 23.000000 47.480000 C 23.000000 50.709999 28.700001 51.900002 29.840000 52.110001 C 33.410831 52.799797 36.843521 54.073540 40.000000 55.880001 C 43.156479 54.073544 46.589169 52.799797 50.160000 52.110001 C 51.299999 51.900002 57.000000 50.709999 57.000000 47.480000 C 57.000000 45.970001 56.450001 44.950001 55.400002 43.139999 C 53.597683 40.477192 52.594887 37.354294 52.510002 34.139999 C 52.515190 31.328630 53.263836 28.568642 54.680000 26.139999 L 54.299999 25.670000 C 52.231159 26.703321 49.952507 27.247324 47.639999 27.260000 C 44.941364 27.289845 42.290478 26.547318 40.000000 25.120001 C 37.711651 26.554346 35.060616 27.303854 32.360001 27.280001 C 30.047495 27.267324 27.768839 26.723322 25.700001 25.690001 Z" fill="#FFFFFF"/><path d=" M 40.000000 64.000000 C 39.779049 63.999313 39.564548 63.925468 39.389999 63.790001 C 36.163689 61.463631 32.489468 59.832535 28.599998 59.000000 C 20.709999 57.580002 16.000000 53.270000 16.000000 47.480000 C 16.077055 44.669395 16.962374 41.940533 18.549999 39.619999 C 19.549999 37.830002 20.490000 36.279999 20.490000 34.180000 C 20.383926 31.360754 19.121637 28.709585 17.000000 26.850000 C 16.796436 26.682802 16.667068 26.442034 16.639999 26.180000 C 16.611322 25.913830 16.690569 25.647274 16.859999 25.440001 C 16.920000 25.370001 22.500000 18.610001 23.770000 16.860001 C 23.946054 16.617992 24.221245 16.467556 24.520000 16.450001 C 24.816298 16.430931 25.105745 16.544512 25.310001 16.760000 C 27.071686 18.858318 29.624168 20.132748 32.360001 20.280001 C 35.040001 20.280001 37.150002 19.080000 39.209999 16.389999 C 39.548607 15.953694 40.176800 15.874496 40.613106 16.213106 C 40.679241 16.264433 40.738670 16.323862 40.789997 16.389999 C 42.849998 19.080000 44.959999 20.280001 47.639999 20.280001 C 50.358112 20.119223 52.890015 18.846037 54.639999 16.760000 C 54.844254 16.544512 55.133701 16.430931 55.430000 16.450001 C 55.728756 16.467556 56.003944 16.617992 56.180000 16.860001 C 57.450001 18.610001 63.029999 25.370001 63.090000 25.440001 C 63.259430 25.647274 63.338676 25.913830 63.310001 26.180000 C 63.289749 26.444077 63.159031 26.687357 62.950001 26.850000 C 60.836014 28.715364 59.575382 31.363050 59.459999 34.180000 C 59.459999 36.279999 60.360001 37.830002 61.400002 39.619999 C 63.005360 41.935020 63.908180 44.664314 64.000000 47.480000 C 64.000000 53.270000 59.290001 57.580002 51.400002 59.000000 C 47.508808 59.827217 43.833527 61.458782 40.610001 63.790001 C 40.435452 63.925468 40.220951 63.999313 40.000000 64.000000 Z M 19.000000 26.000000 C 21.170431 28.181522 22.419830 31.113495 22.490000 34.189999 C 22.490000 36.830002 21.360001 38.759998 20.280001 40.639999 C 19.200001 42.520000 18.000000 44.549999 18.000000 47.480000 C 18.000000 54.480000 26.389999 56.570000 29.000000 57.029999 C 32.949345 57.850296 36.691387 59.462772 40.000000 61.770000 C 43.306183 59.452156 47.048378 57.829407 51.000000 57.000000 C 53.570000 56.540001 62.000000 54.480000 62.000000 47.450001 C 62.000000 44.520000 60.889999 42.610001 59.720001 40.599998 C 58.549999 38.590000 57.509998 36.790001 57.509998 34.150002 C 57.590324 31.087435 58.838963 28.171566 61.000000 26.000002 C 59.750000 24.469999 56.840000 20.930000 55.310001 19.000000 C 53.264683 21.036066 50.524326 22.222242 47.640003 22.320000 C 44.656487 22.302633 41.843731 20.925707 40.000004 18.580000 C 38.148289 20.910704 35.336742 22.272316 32.360004 22.280001 C 29.481201 22.192968 26.741592 21.021402 24.690004 19.000000 C 23.160000 20.920000 20.250000 24.459999 19.000000 26.000000 Z" fill="#FFFFFF"/></g></svg>