<svg version="1.1" width="80.000000" height="100.000000" viewBox="0.000000 0.000000 80.000000 100.000000" xmlns="http://www.w3.org/2000/svg" xmlns:xlink="http://www.w3.org/1999/xlink" overflow="hidden"><g id="CARDS"><rect x="1.000000" y="1.000000" width="78.000000" height="78.000000" fill="#232F3E"/><path d=" M 0.000000 0.000000 L 0.000000 80.000000 L 0.000000 80.000000 L 0.000000 100.000000 L 80.000000 100.000000 L 80.000000 80.000000 L 80.000000 80.000000 L 80.000000 0.000000 Z M 1.000000 1.000000 L 79.000000 1.000000 L 79.000000 79.000000 L 1.000000 79.000000 Z" fill="#FFFFFF"/></g><g id="TEXT_-_EDIT"><path d=" M 14.560000 92.349998 L 14.120000 90.529999 L 12.120000 90.529999 L 11.700000 92.349998 L 9.930000 92.349998 L 12.240000 84.720001 L 14.110000 84.720001 L 16.410000 92.349998 Z M 12.370000 89.430000 L 13.870000 89.430000 L 13.110000 86.269997 Z" fill="#232F3E"/><path d=" M 23.270000 92.349998 L 23.270000 88.639999 C 23.286665 88.401566 23.238276 88.163086 23.130001 87.949997 C 23.025143 87.796478 22.845057 87.712181 22.660002 87.729996 C 22.377993 87.743576 22.104956 87.833435 21.870001 87.989998 C 21.874918 88.029846 21.874918 88.070152 21.870001 88.110001 L 21.870001 92.349998 L 20.230000 92.349998 L 20.230000 88.639999 C 20.246664 88.401566 20.198275 88.163086 20.090000 87.949997 C 19.988390 87.798111 19.812016 87.713760 19.630001 87.729996 C 19.347992 87.743576 19.074955 87.833435 18.840000 87.989998 L 18.840000 92.349998 L 17.190001 92.349998 L 17.190001 86.720001 L 18.540001 86.720001 L 18.680000 87.230003 C 19.202045 86.839226 19.828726 86.612923 20.480000 86.580002 C 20.980238 86.544861 21.454317 86.807365 21.689999 87.250000 C 22.220989 86.851845 22.857449 86.618820 23.519999 86.580002 C 23.898355 86.568954 24.262999 86.722107 24.519999 87.000000 C 24.780428 87.351334 24.907970 87.783562 24.879999 88.220001 L 24.879999 92.349998 Z" fill="#232F3E"/><path d=" M 29.219999 92.349998 L 29.070000 91.839996 C 28.919302 92.046989 28.715443 92.209389 28.480000 92.309998 C 28.236692 92.427460 27.970175 92.488968 27.699999 92.489998 C 27.254749 92.502617 26.825338 92.324303 26.519999 92.000000 C 26.213968 91.669823 26.055166 91.229507 26.079998 90.779999 C 26.056856 90.286880 26.250481 89.808296 26.609999 89.470001 C 27.013863 89.137909 27.527987 88.970108 28.049999 89.000000 C 28.364029 89.006668 28.676178 89.050301 28.980000 89.129997 L 28.980000 88.620003 C 29.005198 88.348686 28.945814 88.076225 28.809999 87.840004 C 28.649998 87.686920 28.429850 87.613541 28.209999 87.640007 C 27.602171 87.664215 27.001741 87.782272 26.429998 87.990005 L 26.430000 87.000000 C 26.717077 86.841576 27.027679 86.730164 27.350000 86.669998 C 27.731403 86.589516 28.120199 86.549301 28.510000 86.549995 C 29.045330 86.509621 29.576513 86.670044 30.000000 86.999992 C 30.349232 87.374199 30.520473 87.880630 30.469999 88.389992 L 30.469999 92.330002 Z M 28.219999 91.430000 C 28.521383 91.418922 28.807318 91.293823 29.019999 91.080002 L 29.020000 90.000000 C 28.814060 89.948677 28.602182 89.925140 28.390001 89.930000 C 28.189455 89.914780 27.992250 89.987816 27.850000 90.129997 C 27.718239 90.297188 27.654005 90.507729 27.670000 90.719994 C 27.659710 90.905304 27.712593 91.088631 27.820000 91.239990 C 27.904926 91.354698 28.037376 91.424606 28.180000 91.429993 Z" fill="#232F3E"/><path d=" M 31.480000 92.349998 L 31.480000 91.279999 L 33.980000 87.879997 L 31.580000 87.879997 L 31.580000 86.720001 L 35.709999 86.720001 L 35.709999 87.790001 L 33.220001 91.190002 L 35.759998 91.190002 L 35.759998 92.349998 Z" fill="#232F3E"/><path d=" M 39.000000 92.489998 C 38.300713 92.530975 37.621677 92.246811 37.160000 91.720001 C 36.293983 90.392052 36.293983 88.677956 37.160000 87.349998 C 38.158825 86.333794 39.792332 86.319710 40.808537 87.318535 C 40.819115 87.328934 40.829605 87.339424 40.840000 87.349998 C 41.706017 88.677948 41.706017 90.392044 40.840000 91.720001 C 40.376537 92.244324 39.698769 92.527962 39.000000 92.489998 Z M 39.000000 91.339996 C 39.284492 91.352325 39.543888 91.178047 39.639999 90.909996 C 39.906796 90.016144 39.906796 89.063843 39.639999 88.169998 C 39.547371 87.897995 39.287136 87.719078 39.000000 87.729996 C 38.711109 87.721107 38.449081 87.898483 38.349998 88.169998 C 38.094864 89.065514 38.094864 90.014481 38.349998 90.909996 C 38.452438 91.177567 38.713680 91.350380 39.000000 91.339996 Z" fill="#232F3E"/><path d=" M 45.759998 92.349998 L 45.759998 88.650002 C 45.779312 88.407036 45.727173 88.163719 45.609997 87.950005 C 45.498669 87.793205 45.311146 87.709015 45.119995 87.730003 C 44.827965 87.739677 44.544247 87.829636 44.299995 87.990005 L 44.299999 92.349998 L 42.650002 92.349998 L 42.650002 86.720001 L 44.000000 86.720001 L 44.130001 87.230003 C 44.673615 86.829895 45.325420 86.603333 46.000000 86.580002 C 46.377869 86.571548 46.741489 86.724274 47.000000 87.000000 C 47.269730 87.347038 47.401524 87.781601 47.369999 88.220001 L 47.369999 92.349998 Z" fill="#232F3E"/><path d=" M 53.049999 92.349998 L 50.709999 84.720001 L 52.540001 84.720001 L 54.000000 90.790001 L 55.410000 84.720001 L 57.220001 84.720001 L 54.880001 92.349998 Z" fill="#232F3E"/><path d=" M 59.720001 89.519997 L 59.720001 92.349998 L 58.070000 92.349998 L 58.070000 84.720001 L 60.709999 84.720001 C 61.360741 84.687714 61.996456 84.922493 62.469997 85.370003 C 63.350033 86.370712 63.350033 87.869293 62.469997 88.870003 C 61.996452 89.317513 61.360737 89.552292 60.709999 89.520004 Z M 59.720001 88.370003 L 60.500000 88.370003 C 60.776165 88.390114 61.044819 88.274445 61.220001 88.060005 C 61.405434 87.783142 61.493393 87.452408 61.470001 87.120003 C 61.495052 86.790573 61.406849 86.462471 61.220001 86.190002 C 61.049152 85.968956 60.778561 85.848694 60.500000 85.870003 L 59.720001 85.870003 Z" fill="#232F3E"/><path d=" M 69.400002 92.129997 C 68.831367 92.359505 68.223183 92.475029 67.610001 92.469994 C 65.363335 92.470001 64.239998 91.169998 64.239998 88.570000 C 64.168549 87.512779 64.481018 86.465294 65.119995 85.620003 C 65.768501 84.920914 66.698776 84.553215 67.649994 84.620003 C 68.213493 84.620705 68.772308 84.722313 69.299995 84.920006 L 69.300003 86.129997 C 68.828506 85.991577 68.341187 85.914284 67.850006 85.899994 C 67.313255 85.854752 66.790100 86.084335 66.460007 86.509995 C 66.115723 87.084953 65.955231 87.751335 66.000008 88.419998 L 66.000000 88.669998 C 65.946976 89.332306 66.096962 89.995056 66.430000 90.570000 C 66.755745 90.995529 67.276039 91.225517 67.809998 91.180000 C 68.344681 91.152267 68.874619 91.065063 69.389999 90.919998 Z" fill="#232F3E"/></g><g id="ICONS_-_EDIT"><path d=" M 38.830002 49.000000 L 24.830000 49.000000 C 19.330000 49.000000 15.140000 45.340000 14.830000 40.299999 C 14.830000 40.099998 14.830000 39.860001 14.830000 39.619999 C 14.658561 35.318207 17.477615 31.466883 21.629999 30.329998 C 21.629999 30.070000 21.629999 29.799999 21.629999 29.540001 C 21.791027 21.986462 28.044918 15.993647 35.598457 16.154675 C 39.188862 16.231215 42.605183 17.716526 45.109997 20.290001 C 46.420872 21.585560 47.487881 23.106470 48.259998 24.780001 C 49.357140 23.898569 50.722645 23.418701 52.129997 23.420000 C 55.040001 23.420000 58.130001 25.490000 58.660000 30.090000 C 61.141296 30.587215 63.378204 31.917364 65.000000 33.860001 L 63.419998 35.090000 C 61.909737 33.359901 59.824970 32.234055 57.549999 31.920000 C 57.105610 31.830145 56.777275 31.452562 56.750000 31.000000 C 56.529999 27.160000 54.279999 25.450001 52.150002 25.450001 C 50.799305 25.457851 49.531574 26.102839 48.730003 27.190001 C 48.393520 27.627947 47.765720 27.710199 47.327774 27.373716 C 47.179077 27.259468 47.065498 27.105711 47.000004 26.930000 C 46.318184 24.979437 45.203667 23.208517 43.740005 21.750000 C 39.259987 17.108795 31.865774 16.978127 27.224569 21.458145 C 25.017078 23.588972 23.736654 26.502825 23.660006 29.570000 C 23.644115 30.046858 23.654129 30.524227 23.690006 31.000000 C 23.750454 31.500431 23.428993 31.967621 22.940006 32.090000 C 20.660000 32.650002 16.830000 34.389999 16.830000 39.669998 C 16.820030 39.846523 16.820030 40.023472 16.830000 40.199997 C 17.049999 44.200001 20.410000 47.049999 24.830000 47.049999 L 38.830002 47.049999 Z" fill="#FFFFFF"/><path d=" M 52.830002 63.770000 C 40.970001 63.770000 40.830002 50.439999 40.830002 50.299999 L 40.830002 38.139999 C 40.828644 37.721527 41.087994 37.346462 41.480003 37.200001 L 52.480000 33.119999 C 52.706463 33.039932 52.953533 33.039932 53.180000 33.119999 L 64.180000 37.200001 C 64.572006 37.346466 64.831360 37.721527 64.830002 38.139999 L 64.830002 51.060001 C 64.830002 51.189999 64.690002 63.770000 52.830002 63.770000 Z M 42.830002 38.830002 L 42.830002 50.299999 C 42.830002 50.770000 42.980000 61.770000 52.830002 61.770000 C 62.680000 61.770000 62.830002 51.500000 62.830002 51.060001 L 62.830002 38.830002 L 52.830002 35.130001 Z" fill="#FFFFFF"/><path d=" M 52.830002 60.000000 C 46.470001 60.000000 44.910000 51.930000 44.830002 51.590000 C 44.825603 51.526745 44.825603 51.463257 44.830002 51.400002 L 44.830002 41.080002 C 44.829605 40.670197 45.079281 40.301628 45.460003 40.150002 L 52.459999 37.389999 C 52.697590 37.295376 52.962406 37.295376 53.200001 37.389999 L 60.200001 40.150002 C 60.580723 40.301628 60.830399 40.670197 60.830002 41.080002 L 60.830002 51.430000 C 60.839310 51.492992 60.839310 51.557011 60.830002 51.619999 C 60.750000 52.000000 59.189999 60.000000 52.830002 60.000000 Z M 46.830002 51.299999 C 47.000000 52.070000 48.419998 58.000000 52.830002 58.000000 C 57.240002 58.000000 58.669998 52.070000 58.830002 51.299999 L 58.830002 41.759998 L 52.830002 39.389999 L 46.830002 41.759998 Z" fill="#FFFFFF"/></g></svg>