<svg id="Layer_1" data-name="Layer 1" xmlns="http://www.w3.org/2000/svg" width="50" height="50" viewBox="0 0 50 50"><title>AWS-RoboMaker_Cloud-Extension-ROS_light-bg</title><path d="M44.85,18.81a4,4,0,1,1,4-4A4,4,0,0,1,44.85,18.81Zm0-5.92a2,2,0,1,0,2,2A2,2,0,0,0,44.85,12.89Z" style="fill:#d6242d"/><path d="M44.85,29.17a4,4,0,1,1,4-4A4,4,0,0,1,44.85,29.17Zm0-5.92a2,2,0,1,0,2,2A2,2,0,0,0,44.85,23.25Z" style="fill:#d6242d"/><path d="M24.87,18.81a4,4,0,1,1,4-4A4,4,0,0,1,24.87,18.81Zm0-5.92a2,2,0,1,0,2,2A2,2,0,0,0,24.87,12.89Z" style="fill:#d6242d"/><path d="M14.51,9.19a4,4,0,1,1,4-4A4,4,0,0,1,14.51,9.19Zm0-5.92a2,2,0,1,0,2,2A2,2,0,0,0,14.51,3.27Z" style="fill:#d6242d"/><path d="M14.51,49.15a4,4,0,1,1,4-4A4,4,0,0,1,14.51,49.15Zm0-5.92a2,2,0,1,0,2,2A2,2,0,0,0,14.51,43.23Z" style="fill:#d6242d"/><path d="M4.9,29.17a4,4,0,1,1,4-4A4,4,0,0,1,4.9,29.17Zm0-5.92a2,2,0,1,0,2,2A2,2,0,0,0,4.9,23.25Z" style="fill:#d6242d"/><path d="M4.9,18.81a4,4,0,1,1,4-4A4,4,0,0,1,4.9,18.81Zm0-5.92a2,2,0,1,0,2,2A2,2,0,0,0,4.9,12.89Z" style="fill:#d6242d"/><path d="M44.85,7a1.74,1.74,0,1,1,1.74-1.74A1.75,1.75,0,0,1,44.85,7Zm0-2a.26.26,0,0,0-.26.26c0,.28.52.29.52,0A.26.26,0,0,0,44.85,5Z" style="fill:#d6242d"/><path d="M35.23,46.93A1.74,1.74,0,1,1,37,45.19,1.75,1.75,0,0,1,35.23,46.93Zm0-2a.26.26,0,0,0-.26.26c0,.28.52.28.52,0A.26.26,0,0,0,35.23,44.93Z" style="fill:#d6242d"/><path d="M44.85,37.31a1.74,1.74,0,1,1,1.74-1.74A1.75,1.75,0,0,1,44.85,37.31Zm0-2a.26.26,0,0,0-.26.26c0,.29.52.29.52,0A.26.26,0,0,0,44.85,35.31Z" style="fill:#d6242d"/><path d="M35.23,16.59A1.74,1.74,0,1,1,37,14.85,1.75,1.75,0,0,1,35.23,16.59Zm0-2a.26.26,0,0,0-.26.26c0,.29.52.29.52,0A.26.26,0,0,0,35.23,14.59Z" style="fill:#d6242d"/><path d="M24.87,7a1.74,1.74,0,1,1,1.74-1.74A1.74,1.74,0,0,1,24.87,7Zm0-2a.26.26,0,0,0-.26.26c0,.29.52.28.53,0A.27.27,0,0,0,24.87,5Z" style="fill:#d6242d"/><path d="M4.9,37.31a1.74,1.74,0,1,1,1.74-1.74A1.74,1.74,0,0,1,4.9,37.31Zm0-2a.26.26,0,0,0-.26.26c0,.29.52.29.52,0A.26.26,0,0,0,4.9,35.31Z" style="fill:#d6242d"/><path d="M14.51,27a1.74,1.74,0,1,1,1.75-1.74A1.74,1.74,0,0,1,14.51,27Zm0-2a.26.26,0,0,0-.25.26c0,.29.51.29.52,0A.27.27,0,0,0,14.51,25Z" style="fill:#d6242d"/><path d="M24.14,27a1.74,1.74,0,1,1,1.73-1.74A1.75,1.75,0,0,1,24.14,27Zm0-2a.27.27,0,0,0-.27.26c0,.29.52.29.52,0A.26.26,0,0,0,24.14,25Z" style="fill:#d6242d"/><path d="M24.14,35.92a1.74,1.74,0,1,1,1.73-1.74A1.75,1.75,0,0,1,24.14,35.92Zm0-2a.26.26,0,0,0-.27.26c0,.28.52.28.52,0A.25.25,0,0,0,24.14,33.92Z" style="fill:#d6242d"/><path d="M4.9,46.93a1.74,1.74,0,1,1,1.74-1.74A1.74,1.74,0,0,1,4.9,46.93Zm0-2a.26.26,0,0,0-.26.26c0,.29.52.29.52,0A.26.26,0,0,0,4.9,44.93Z" style="fill:#d6242d"/><path d="M4.9,7A1.74,1.74,0,1,1,6.64,5.23,1.74,1.74,0,0,1,4.9,7Zm0-2a.26.26,0,0,0-.26.26c0,.28.52.29.52,0A.26.26,0,0,0,4.9,5Z" style="fill:#d6242d"/><path d="M35.23,28.43a3.22,3.22,0,1,1,3.22-3.22A3.23,3.23,0,0,1,35.23,28.43Zm0-4.44a1.22,1.22,0,1,0,1.22,1.22A1.22,1.22,0,0,0,35.23,24Z" style="fill:#d6242d"/><path d="M35.23,38.79a3.22,3.22,0,1,1,3.22-3.22A3.23,3.23,0,0,1,35.23,38.79Zm0-4.44a1.22,1.22,0,1,0,1.22,1.22A1.22,1.22,0,0,0,35.23,34.35Z" style="fill:#d6242d"/><path d="M44.85,48.41a3.22,3.22,0,1,1,3.22-3.22A3.23,3.23,0,0,1,44.85,48.41Zm0-4.44a1.22,1.22,0,1,0,1.22,1.22A1.22,1.22,0,0,0,44.85,44Z" style="fill:#d6242d"/><path d="M35.23,8.45a3.22,3.22,0,1,1,3.22-3.22A3.22,3.22,0,0,1,35.23,8.45Zm0-4.44a1.22,1.22,0,1,0,1.22,1.22A1.22,1.22,0,0,0,35.23,4Z" style="fill:#d6242d"/><path d="M14.51,18.07a3.22,3.22,0,1,1,3.23-3.22A3.22,3.22,0,0,1,14.51,18.07Zm0-4.44a1.22,1.22,0,1,0,1.23,1.22A1.22,1.22,0,0,0,14.51,13.63Z" style="fill:#d6242d"/><path d="M14.51,38.79a3.22,3.22,0,1,1,3.23-3.22A3.22,3.22,0,0,1,14.51,38.79Zm0-4.44a1.22,1.22,0,1,0,1.23,1.22A1.22,1.22,0,0,0,14.51,34.35Z" style="fill:#d6242d"/><path d="M24.87,48.41a3.22,3.22,0,1,1,3.22-3.22A3.22,3.22,0,0,1,24.87,48.41Zm0-4.44a1.22,1.22,0,1,0,1.22,1.22A1.22,1.22,0,0,0,24.87,44Z" style="fill:#d6242d"/></svg>