<svg id="Layer_1" data-name="Layer 1" xmlns="http://www.w3.org/2000/svg" width="50" height="50" viewBox="0 0 50 50"><title>AWS-RoboMaker_Fleet-Management_light-bg</title><path d="M15.07,8.86a4,4,0,1,1,4-4A4,4,0,0,1,15.07,8.86Zm0-6a2,2,0,1,0,2,2A2,2,0,0,0,15.07,2.87Z" style="fill:#d6242d"/><path d="M6,17.93a4,4,0,1,1,4-4A4,4,0,0,1,6,17.93Zm0-6a2,2,0,1,0,2,2A2,2,0,0,0,6,11.94Z" style="fill:#d6242d"/><path d="M15.41,16.51a1.75,1.75,0,1,1,1.75-1.75A1.76,1.76,0,0,1,15.41,16.51Zm0-2a.25.25,0,0,0-.25.25c0,.28.5.28.5,0A.25.25,0,0,0,15.41,14.51Z" style="fill:#d6242d"/><path d="M24.88,6.62a1.75,1.75,0,1,1,1.75-1.75A1.75,1.75,0,0,1,24.88,6.62Zm0-2a.25.25,0,0,0-.25.25c0,.28.51.28.51,0A.26.26,0,0,0,24.88,4.62Z" style="fill:#d6242d"/><path d="M6,36.64A1.75,1.75,0,1,1,7.75,34.9,1.75,1.75,0,0,1,6,36.64Zm0-2a.26.26,0,0,0-.25.26c0,.27.5.27.5,0A.26.26,0,0,0,6,34.64Z" style="fill:#d6242d"/><path d="M6,6.62A1.75,1.75,0,1,1,7.75,4.87,1.76,1.76,0,0,1,6,6.62Zm0-2a.25.25,0,0,0-.25.25c0,.28.5.28.5,0A.25.25,0,0,0,6,4.62Z" style="fill:#d6242d"/><path d="M34.7,8.11A3.25,3.25,0,1,1,38,4.87,3.25,3.25,0,0,1,34.7,8.11Zm0-4.49A1.25,1.25,0,1,0,36,4.87,1.25,1.25,0,0,0,34.7,3.62Z" style="fill:#d6242d"/><path d="M5.83,27.83a3.25,3.25,0,1,1,3.24-3.25A3.26,3.26,0,0,1,5.83,27.83Zm0-4.49a1.25,1.25,0,1,0,1.24,1.24A1.25,1.25,0,0,0,5.83,23.34Z" style="fill:#d6242d"/><path d="M41,24.34a11.5,11.5,0,0,0-20.77,0l-1.8-.86a13.5,13.5,0,0,1,24.38,0Z" style="fill:#d6242d"/><path d="M30.61,42.75a13.55,13.55,0,0,1-12.19-7.7l1.81-.86a11.49,11.49,0,0,0,20.76,0l1.81.86A13.56,13.56,0,0,1,30.61,42.75Z" style="fill:#d6242d"/><path d="M40.7,43.75l-1.15-1.64a15.72,15.72,0,0,0-7.26-28.5l.21-2a17.72,17.72,0,0,1,8.2,32.13Z" style="fill:#d6242d"/><path d="M28.72,46.91a17.72,17.72,0,0,1-8.2-32.13l1.14,1.64a15.72,15.72,0,0,0,7.27,28.5Z" style="fill:#d6242d"/><path d="M30.61,15.4a2.79,2.79,0,1,1,2.78-2.79A2.79,2.79,0,0,1,30.61,15.4Zm0-3.57a.79.79,0,1,0,.78.78A.78.78,0,0,0,30.61,11.83Z" style="fill:#d6242d"/><path d="M30.61,48.7a2.79,2.79,0,1,1,2.78-2.78A2.79,2.79,0,0,1,30.61,48.7Zm0-3.57a.79.79,0,1,0,0,1.57.79.79,0,0,0,0-1.57Z" style="fill:#d6242d"/><rect x="19.9" y="28.27" width="21.41" height="2" style="fill:#d6242d"/><path d="M30.61,23.72a17.37,17.37,0,0,1-9.48-2.47l1.12-1.65a15.62,15.62,0,0,0,8.36,2.12A15.64,15.64,0,0,0,39,19.6l1.12,1.65A17.4,17.4,0,0,1,30.61,23.72Z" style="fill:#d6242d"/><path d="M39,38.93a15.64,15.64,0,0,0-8.36-2.12,15.62,15.62,0,0,0-8.36,2.12l-1.12-1.65a17.37,17.37,0,0,1,9.48-2.47,17.4,17.4,0,0,1,9.48,2.47Z" style="fill:#d6242d"/><path d="M18.12,32.05a2.79,2.79,0,1,1,2.78-2.78A2.79,2.79,0,0,1,18.12,32.05Zm0-3.57a.79.79,0,1,0,0,1.57.79.79,0,0,0,0-1.57Z" style="fill:#d6242d"/><path d="M43.1,32.05a2.79,2.79,0,1,1,2.78-2.78A2.79,2.79,0,0,1,43.1,32.05Zm0-3.57a.79.79,0,1,0,0,1.57.79.79,0,0,0,0-1.57Z" style="fill:#d6242d"/><path d="M30.61,42.75c-3.39,0-5.17-6.78-5.17-13.48s1.78-13.49,5.17-13.49,5.16,6.78,5.16,13.49S34,42.75,30.61,42.75Zm0-25c-1.08,0-3.17,4-3.17,11.49s2.09,11.48,3.17,11.48,3.16-4,3.16-11.48S31.68,17.78,30.61,17.78Z" style="fill:#d6242d"/></svg>