<svg id="Layer_1" data-name="Layer 1" xmlns="http://www.w3.org/2000/svg" width="50" height="50" viewBox="0 0 50 50"><title>AWS-RoboMaker_Development-Environment_light-bg</title><path d="M24.11,24.48,22.7,23.07l2.59-2.59L22.7,17.89l1.41-1.42,3.3,3.3a1,1,0,0,1,.29.71,1,1,0,0,1-.29.7Z" style="fill:#d6242d"/><rect x="27.22" y="23.11" width="5.7" height="2" style="fill:#d6242d"/><path d="M12.15,10.18a3.34,3.34,0,1,1,3.33-3.33A3.34,3.34,0,0,1,12.15,10.18Zm0-4.67a1.34,1.34,0,1,0,1.33,1.34A1.34,1.34,0,0,0,12.15,5.51Z" style="fill:#d6242d"/><path d="M12.15,41.7a3.34,3.34,0,1,1,3.33-3.34A3.35,3.35,0,0,1,12.15,41.7Zm0-4.67a1.34,1.34,0,1,0,1.33,1.33A1.34,1.34,0,0,0,12.15,37Z" style="fill:#d6242d"/><path d="M4.56,25.94A3.34,3.34,0,1,1,7.89,22.6,3.35,3.35,0,0,1,4.56,25.94Zm0-4.67A1.34,1.34,0,1,0,5.89,22.6,1.34,1.34,0,0,0,4.56,21.27Z" style="fill:#d6242d"/><path d="M4.56,17.77a3.34,3.34,0,1,1,3.33-3.34A3.35,3.35,0,0,1,4.56,17.77Zm0-4.67a1.34,1.34,0,1,0,1.33,1.33A1.34,1.34,0,0,0,4.56,13.1Z" style="fill:#d6242d"/><path d="M36.07,8.43a1.59,1.59,0,1,1,1.59-1.58A1.58,1.58,0,0,1,36.07,8.43Zm0-2a.42.42,0,0,0-.41.42.42.42,0,0,0,.83,0A.42.42,0,0,0,36.07,6.43Z" style="fill:#d6242d"/><path d="M35.43,20.33A1.58,1.58,0,1,1,37,18.75,1.58,1.58,0,0,1,35.43,20.33Zm0-2a.42.42,0,0,0,0,.84.42.42,0,0,0,0-.84Z" style="fill:#d6242d"/><path d="M20.32,8.43A1.59,1.59,0,1,1,21.9,6.85,1.59,1.59,0,0,1,20.32,8.43Zm0-2a.42.42,0,0,0-.42.42.41.41,0,0,0,.42.41.41.41,0,0,0,.41-.41A.41.41,0,0,0,20.32,6.43Z" style="fill:#d6242d"/><path d="M4.56,32.36a1.59,1.59,0,1,1,1.58-1.58A1.59,1.59,0,0,1,4.56,32.36Zm0-2a.42.42,0,0,0-.42.42.41.41,0,0,0,.42.41A.41.41,0,0,0,5,30.78.41.41,0,0,0,4.56,30.36Z" style="fill:#d6242d"/><path d="M12.15,24.19a1.59,1.59,0,1,1,1.58-1.59A1.59,1.59,0,0,1,12.15,24.19Zm0-2a.42.42,0,1,0,.41.41A.42.42,0,0,0,12.15,22.19Z" style="fill:#d6242d"/><path d="M4.56,40a1.59,1.59,0,1,1,1.58-1.59A1.59,1.59,0,0,1,4.56,40Zm0-2a.41.41,0,0,0-.42.41.42.42,0,0,0,.42.42A.41.41,0,0,0,5,38.36.41.41,0,0,0,4.56,38Z" style="fill:#d6242d"/><path d="M4.56,8.43A1.59,1.59,0,1,1,6.14,6.85,1.59,1.59,0,0,1,4.56,8.43Zm0-2a.42.42,0,0,0-.42.42.41.41,0,0,0,.42.41A.41.41,0,0,0,5,6.85.41.41,0,0,0,4.56,6.43Z" style="fill:#d6242d"/><path d="M28.49,9.6a2.75,2.75,0,1,1,2.75-2.75A2.75,2.75,0,0,1,28.49,9.6Zm0-3.5a.75.75,0,0,0,0,1.5.75.75,0,0,0,0-1.5Z" style="fill:#d6242d"/><path d="M12.15,17.19a2.76,2.76,0,1,1,2.75-2.76A2.77,2.77,0,0,1,12.15,17.19Zm0-3.51a.76.76,0,1,0,.75.75A.76.76,0,0,0,12.15,13.68Z" style="fill:#d6242d"/><path d="M12.15,33.53a2.75,2.75,0,1,1,2.75-2.75A2.76,2.76,0,0,1,12.15,33.53Zm0-3.5a.75.75,0,1,0,.75.75A.75.75,0,0,0,12.15,30Z" style="fill:#d6242d"/><path d="M31.7,44.85H18.84a1,1,0,0,1-1-1V13a1,1,0,0,1,1-1H39.42a1,1,0,0,1,1,1V27.46h-2V14H19.84V42.85H31.7Z" style="fill:#d6242d"/><path d="M39.74,46.78a9,9,0,1,1,9-9A9,9,0,0,1,39.74,46.78Zm0-16.07a7,7,0,1,0,7,7A7,7,0,0,0,39.74,30.71Z" style="fill:#d6242d"/><rect x="38.74" y="32.92" width="2" height="10.18" style="fill:#d6242d"/><path d="M37.77,36.42,36.35,35,39,32.33a1,1,0,0,1,1.42,0L43.13,35l-1.42,1.41-2-2Z" style="fill:#d6242d"/><path d="M25,31a1.59,1.59,0,1,1,1.59-1.59A1.59,1.59,0,0,1,25,31Zm0-2a.42.42,0,0,0,0,.83A.42.42,0,1,0,25,29Z" style="fill:#d6242d"/><path d="M24.36,41.06a3.34,3.34,0,1,1,3.34-3.34A3.34,3.34,0,0,1,24.36,41.06Zm0-4.67a1.34,1.34,0,1,0,1.34,1.33A1.33,1.33,0,0,0,24.36,36.39Z" style="fill:#d6242d"/></svg>