<svg id="Layer_1" data-name="Layer 1" xmlns="http://www.w3.org/2000/svg" width="50" height="50" viewBox="0 0 50 50"><title>AWS-RoboMaker_Simulation_light-bg</title><rect x="14.44" y="43.01" width="34.36" height="2" style="fill:#d6242d"/><path d="M11.88,45H1.67V43h9.21V6.57h2V44A1,1,0,0,1,11.88,45Z" style="fill:#d6242d"/><rect x="1.67" y="19.64" width="10.21" height="2" style="fill:#d6242d"/><rect x="1.67" y="12.38" width="10.21" height="2" style="fill:#d6242d"/><rect x="1.67" y="26.97" width="10.21" height="2" style="fill:#d6242d"/><rect x="1.67" y="35.02" width="10.21" height="2" style="fill:#d6242d"/><path d="M2.67,41.46h-2V6.57a1,1,0,0,1,1-1H48.8v2H2.67Z" style="fill:#d6242d"/><rect x="14.44" y="8.98" width="34.36" height="2" style="fill:#d6242d"/><rect x="4.23" y="8.98" width="1.7" height="2" style="fill:#d6242d"/><path d="M45.58,25.34a1.49,1.49,0,1,1,1.48-1.49A1.49,1.49,0,0,1,45.58,25.34Zm0-2a.52.52,0,1,0,.52.51A.51.51,0,0,0,45.58,23.34Z" style="fill:#d6242d"/><path d="M45.58,18.79A2.45,2.45,0,1,1,48,16.35,2.44,2.44,0,0,1,45.58,18.79Zm0-2.89a.45.45,0,1,0,.45.45A.45.45,0,0,0,45.58,15.9Z" style="fill:#d6242d"/><path d="M45.1,35A2.93,2.93,0,1,1,48,32.1,2.93,2.93,0,0,1,45.1,35Zm0-3.86a.93.93,0,1,0,.93.93A.93.93,0,0,0,45.1,31.17Z" style="fill:#d6242d"/><path d="M34.56,36H19.83a5.27,5.27,0,0,1-.91-10.45A4.52,4.52,0,0,1,23.34,22v2a2.51,2.51,0,0,0-2.51,2.52,1,1,0,0,1-1,1,3.24,3.24,0,0,0-3.21,3.25A3.29,3.29,0,0,0,19.83,34H34.56a4,4,0,0,0,0-8,1,1,0,0,1-1-1,3.92,3.92,0,0,0-3.91-3.91v-2a5.93,5.93,0,0,1,5.84,5A6,6,0,0,1,34.56,36Z" style="fill:#d6242d"/><path d="M27.32,27.07a2.61,2.61,0,1,1,2.61-2.6A2.61,2.61,0,0,1,27.32,27.07Zm0-3.21a.61.61,0,1,0,.61.61A.6.6,0,0,0,27.32,23.86Z" style="fill:#d6242d"/><path d="M33.47,32.31a1.4,1.4,0,1,1,1.4-1.4A1.4,1.4,0,0,1,33.47,32.31Zm0-2a.6.6,0,1,0,.6.6A.6.6,0,0,0,33.47,30.31Z" style="fill:#d6242d"/><path d="M27.32,20.41A1.41,1.41,0,1,1,28.72,19,1.41,1.41,0,0,1,27.32,20.41Zm0-2a.59.59,0,0,0-.6.59.6.6,0,0,0,1.2,0A.59.59,0,0,0,27.32,18.41Z" style="fill:#d6242d"/><path d="M27.32,33.1a2.21,2.21,0,1,1,2.21-2.2A2.21,2.21,0,0,1,27.32,33.1Zm0-2.41a.2.2,0,0,0-.2.21c0,.22.41.22.41,0A.21.21,0,0,0,27.32,30.69Z" style="fill:#d6242d"/><path d="M40.44,24.26a2.93,2.93,0,1,1,2.93-2.93A2.93,2.93,0,0,1,40.44,24.26Zm0-3.85a.93.93,0,0,0,0,1.85.93.93,0,1,0,0-1.85Z" style="fill:#d6242d"/></svg>