<svg id="Product_Icon" data-name="Product Icon" xmlns="http://www.w3.org/2000/svg" xmlns:xlink="http://www.w3.org/1999/xlink" width="75" height="75" viewBox="0 0 75 75"><defs><linearGradient id="GreenGradient" x1="-15.54" y1="-15.53" x2="90.53" y2="90.54" gradientTransform="translate(0 75) rotate(-90)" gradientUnits="userSpaceOnUse"><stop offset="0" stop-color="#1b660f"/><stop offset="1" stop-color="#6cae3e"/></linearGradient></defs><title>AWS-Cost-And-Usage-Report</title><rect id="Green_Gradient" data-name="Green Gradient" width="75" height="75" style="fill:url(#GreenGradient)"/><g id="Icon_Test" data-name="Icon Test"><path d="M62.47,26.76a1,1,0,0,0-.26-.47l-8-8a1,1,0,0,0-.47-.26.93.93,0,0,0-.24,0h-16a1,1,0,0,0-1,1V41h2V20h14v7a1,1,0,0,0,1,1h7V55h-22V47h-2v9a1,1,0,0,0,1,1h24a1,1,0,0,0,1-1V27A.93.93,0,0,0,62.47,26.76Zm-8-.76V21.41L59.09,26Z" style="fill:#fff"/><rect x="55.5" y="31" width="3" height="2" style="fill:#fff"/><rect x="52.5" y="43" width="6" height="2" style="fill:#fff"/><path d="M28.5,43V18a1,1,0,0,0-1-1H21.38a4.5,4.5,0,1,0,0,2H26.5V30H21.38a4.5,4.5,0,1,0,0,2H26.5V43H21.38a4.5,4.5,0,1,0,0,2H26.5V56H21.38a4.5,4.5,0,1,0,0,2H27.5a1,1,0,0,0,1-1V45h22V43ZM17,20.5A2.5,2.5,0,1,1,19.5,18,2.5,2.5,0,0,1,17,20.5Zm0,13A2.5,2.5,0,1,1,19.5,31,2.5,2.5,0,0,1,17,33.5Zm0,13A2.5,2.5,0,1,1,19.5,44,2.5,2.5,0,0,1,17,46.5Zm0,13A2.5,2.5,0,1,1,19.5,57,2.5,2.5,0,0,1,17,59.5Z" style="fill:#fff"/><rect x="40.5" y="31" width="12" height="2" style="fill:#fff"/><rect x="55.5" y="36" width="3" height="2" style="fill:#fff"/><rect x="40.5" y="36" width="7" height="2" style="fill:#fff"/></g></svg>