<svg version="1.1" width="80.000000" height="100.000000" viewBox="0.000000 0.000000 80.000000 100.000000" xmlns="http://www.w3.org/2000/svg" xmlns:xlink="http://www.w3.org/1999/xlink" overflow="hidden"><g id="CARDS"><rect x="1.000000" y="1.000000" width="78.000000" height="78.000000" fill="#232F3E"/><path d=" M 0.000000 0.000000 L 0.000000 80.000000 L 0.000000 80.000000 L 0.000000 100.000000 L 80.000000 100.000000 L 80.000000 80.000000 L 80.000000 80.000000 L 80.000000 0.000000 Z M 1.000000 1.000000 L 79.000000 1.000000 L 79.000000 79.000000 L 1.000000 79.000000 Z" fill="#FFFFFF"/></g><g id="TEXT_-_EDIT"><path d=" M 13.330000 92.349998 L 12.890000 90.529999 L 10.890000 90.529999 L 10.470000 92.349998 L 8.700000 92.349998 L 11.000000 84.720001 L 12.870000 84.720001 L 15.170000 92.349998 Z M 11.150000 89.430000 L 12.640000 89.430000 L 11.880000 86.269997 Z" fill="#232F3E"/><path d=" M 20.530001 92.349998 L 19.590000 86.720001 L 18.700001 92.349998 L 16.830000 92.349998 L 15.050000 84.720001 L 16.750000 84.720001 L 17.809999 90.779999 L 18.719999 85.000000 L 20.559999 85.000000 L 21.500000 90.650002 L 22.500000 84.650002 L 24.160000 84.650002 L 22.400000 92.349998 Z" fill="#232F3E"/><path d=" M 26.480000 89.000000 C 25.985399 88.768761 25.550800 88.426559 25.209999 88.000000 C 24.947676 87.644348 24.810535 87.211830 24.820000 86.769997 C 24.808889 86.354126 24.927740 85.945145 25.160000 85.599998 C 25.385702 85.259720 25.705288 84.992241 26.080000 84.830002 C 26.501814 84.643929 26.959042 84.551804 27.420000 84.560005 C 28.069765 84.562088 28.712484 84.694710 29.309999 84.950005 L 29.309999 86.120003 C 28.758253 85.917831 28.177393 85.806381 27.590000 85.790001 C 27.308165 85.774521 27.029482 85.855652 26.799999 86.020004 C 26.603201 86.172058 26.494576 86.411781 26.509998 86.660004 C 26.502312 86.862022 26.566042 87.060295 26.689999 87.220001 C 26.897772 87.423737 27.142019 87.586571 27.409998 87.700005 L 28.059999 88.019997 C 28.416050 88.187546 28.751598 88.395592 29.059999 88.639999 C 29.288786 88.827263 29.473211 89.062912 29.600000 89.330002 C 29.719376 89.621704 29.777248 89.934906 29.770000 90.250000 C 29.793097 90.891716 29.506664 91.505501 29.000000 91.900002 C 28.424477 92.329575 27.717297 92.545265 27.000000 92.510002 C 26.620142 92.510231 26.241339 92.470001 25.870001 92.389999 C 25.524055 92.327736 25.187826 92.220139 24.870001 92.070000 L 24.870001 90.919998 C 25.197496 91.025146 25.531549 91.108665 25.870001 91.169998 C 26.199120 91.238113 26.533945 91.274940 26.870001 91.279999 C 27.183578 91.302475 27.495077 91.213982 27.750000 91.029999 C 27.956396 90.853905 28.067593 90.590736 28.049999 90.320000 C 28.056087 90.107033 27.981022 89.899704 27.840000 89.739998 C 27.632324 89.543411 27.392090 89.384384 27.130001 89.269997 Z" fill="#232F3E"/><path d=" M 33.560001 92.349998 L 33.560001 84.720001 L 36.070000 84.720001 C 36.667332 84.695900 37.252159 84.895592 37.709999 85.279999 C 38.133221 85.649055 38.368195 86.188759 38.349998 86.750000 C 38.364204 87.100403 38.277428 87.447510 38.099998 87.750000 C 37.921505 88.024216 37.663235 88.237114 37.359997 88.360001 C 38.201160 88.571098 38.769997 89.354828 38.709995 90.220001 C 38.733860 90.820930 38.474773 91.398331 38.009995 91.779999 C 37.480797 92.193329 36.820683 92.402725 36.149994 92.369995 Z M 35.150002 85.820000 L 35.150002 87.930000 L 35.820000 87.930000 C 36.069180 87.942482 36.311012 87.843552 36.480000 87.660004 C 36.651993 87.441597 36.737438 87.167458 36.720001 86.890007 C 36.736767 86.610947 36.663124 86.333908 36.510002 86.100006 C 36.373634 85.917992 36.157341 85.813576 35.930000 85.820007 Z M 35.150002 88.980003 L 35.150002 91.250000 L 36.150002 91.250000 C 36.415134 91.263878 36.672363 91.157310 36.850002 90.959999 C 37.034504 90.720627 37.123589 90.421303 37.100002 90.120003 C 37.120964 89.815750 37.024315 89.515060 36.830002 89.280006 C 36.611103 89.064018 36.305004 88.960754 36.000000 89.000008 Z" fill="#232F3E"/><path d=" M 43.099998 92.349998 L 43.000000 91.839996 C 42.488083 92.235382 41.866241 92.462456 41.220001 92.489998 C 40.837654 92.511559 40.467373 92.352333 40.220001 92.059998 C 39.961697 91.700417 39.837830 91.261566 39.870003 90.820000 L 39.869999 86.720001 L 41.520000 86.720001 L 41.520000 90.339996 C 41.499489 90.603439 41.544136 90.867889 41.650002 91.109993 C 41.742516 91.267639 41.918037 91.357353 42.100002 91.339996 C 42.372059 91.331230 42.635868 91.244446 42.860001 91.089996 L 42.860001 86.720001 L 44.509998 86.720001 L 44.509998 92.349998 Z" fill="#232F3E"/><path d=" M 49.119999 92.349998 L 49.000000 91.860001 C 48.814743 92.041252 48.597824 92.186996 48.360001 92.290001 C 48.136147 92.388222 47.894455 92.439285 47.650002 92.440002 C 47.051071 92.466835 46.480515 92.183449 46.140003 91.690002 C 45.407326 90.343201 45.407326 88.716805 46.140003 87.370003 C 46.471584 86.856697 47.049370 86.556396 47.660004 86.580002 C 47.878853 86.589363 48.094845 86.633240 48.300003 86.709999 C 48.517574 86.791359 48.722851 86.902412 48.910004 87.040001 L 48.910000 84.209999 L 50.560001 84.209999 L 50.560001 92.349998 Z M 48.189999 91.349998 C 48.448997 91.345612 48.701706 91.269455 48.919998 91.129997 L 48.919998 88.000000 C 48.682629 87.840775 48.405624 87.750748 48.119999 87.739998 C 47.825638 87.728607 47.556511 87.905350 47.450001 88.180000 C 47.283646 88.623573 47.212109 89.097084 47.240002 89.570000 C 47.211811 90.034950 47.290489 90.500175 47.470001 90.930000 C 47.611599 91.191101 47.893948 91.344040 48.190002 91.320000 Z" fill="#232F3E"/><path d=" M 54.889999 91.709999 C 54.575710 92.050018 54.133018 92.242340 53.669998 92.239998 C 53.094959 92.256142 52.551647 91.976936 52.230000 91.500000 C 51.861607 90.899887 51.680557 90.203545 51.709999 89.500000 C 51.667820 88.757782 51.856453 88.020706 52.250000 87.389999 C 52.568336 86.895470 53.122101 86.603416 53.709999 86.620003 C 53.955681 86.628410 54.197151 86.686226 54.419998 86.790001 C 54.657303 86.897537 54.871311 87.050400 55.049999 87.239998 L 55.169998 86.760002 L 56.520000 86.760002 L 56.520000 92.000000 C 56.520000 93.860001 55.660000 94.790001 53.950001 94.790001 C 53.313320 94.794128 52.685215 94.643105 52.119999 94.349998 L 52.119999 93.349998 C 52.635826 93.547577 53.178696 93.665596 53.730000 93.699997 C 53.970512 93.715515 54.211098 93.670830 54.430000 93.570000 C 54.601475 93.476830 54.727787 93.318039 54.779999 93.129997 C 54.869328 92.804581 54.906456 92.467049 54.889999 92.129997 Z M 54.230000 91.110001 C 54.466286 91.100060 54.695007 91.023819 54.889999 90.889999 L 54.889999 88.000000 C 54.679333 87.838676 54.424938 87.744583 54.160000 87.730003 C 53.888084 87.726189 53.643452 87.894623 53.549999 88.150002 C 53.403244 88.566986 53.338722 89.008461 53.360001 89.450005 C 53.335819 89.886879 53.407494 90.323753 53.570000 90.730003 C 53.695820 90.975739 53.954315 91.124565 54.230000 91.110001 Z" fill="#232F3E"/><path d=" M 59.160000 89.919998 C 59.148945 90.311180 59.276447 90.693687 59.520000 91.000000 C 59.814472 91.248260 60.196644 91.367241 60.580002 91.330002 C 60.809204 91.323997 61.037132 91.293831 61.260002 91.240005 C 61.531254 91.188805 61.798576 91.118637 62.060001 91.030006 L 62.060001 92.029999 C 61.800980 92.175522 61.521000 92.280098 61.230000 92.339996 C 60.901474 92.411812 60.566277 92.448685 60.230000 92.449997 C 58.509998 92.449997 57.650002 91.449997 57.650002 89.500000 C 57.596962 88.715630 57.819820 87.937401 58.280003 87.300003 C 58.738693 86.775963 59.415028 86.495087 60.110004 86.540001 C 61.470001 86.540001 62.160000 87.300003 62.160000 88.830002 C 62.159126 89.166870 62.118855 89.502487 62.040001 89.830002 Z M 60.070000 87.599998 C 59.490002 87.599998 59.189999 88.059998 59.160000 88.970001 L 60.770000 88.970001 L 60.770000 88.720001 C 60.790443 88.423340 60.731781 88.126572 60.600002 87.860001 C 60.482513 87.684830 60.280445 87.585701 60.070004 87.599998 Z" fill="#232F3E"/><path d=" M 66.339996 92.199997 C 65.946228 92.345474 65.529778 92.419960 65.109993 92.419998 C 64.634880 92.461807 64.161980 92.318504 63.789993 92.019997 C 63.489140 91.656647 63.342030 91.190201 63.379993 90.719994 L 63.380001 87.820000 L 62.650002 87.820000 L 62.650002 86.900002 L 63.430000 86.750000 L 63.669998 85.209999 L 65.000000 85.209999 L 65.000000 86.720001 L 66.279999 86.720001 L 66.279999 87.820000 L 65.000000 87.820000 L 65.000000 90.589996 C 64.981529 90.776146 65.035225 90.962288 65.150002 91.109993 C 65.296585 91.234970 65.488747 91.292976 65.680000 91.269997 C 65.892242 91.265694 66.103424 91.238876 66.309998 91.189995 Z" fill="#232F3E"/><path d=" M 69.220001 90.769997 C 69.220001 90.519997 69.040001 90.309998 68.699997 90.150002 L 68.000000 89.800003 C 67.326485 89.560318 66.874878 88.924881 66.870003 88.210007 C 66.838631 87.744354 67.036469 87.292686 67.400002 87.000008 C 67.822365 86.682838 68.342468 86.523621 68.870003 86.550011 C 69.399651 86.551735 69.922279 86.671295 70.400002 86.900009 L 70.400002 87.900002 C 70.171051 87.821503 69.937225 87.758034 69.700005 87.709999 C 69.499603 87.665863 69.295197 87.642410 69.090004 87.639999 C 68.580002 87.639999 68.320000 87.820000 68.320000 88.180000 C 68.320000 88.540001 68.540001 88.629997 68.959999 88.839996 L 69.690002 89.180000 C 69.996880 89.315102 70.262543 89.529015 70.459999 89.800003 C 70.628258 90.080269 70.711624 90.403313 70.699997 90.730003 C 70.720757 91.217346 70.513817 91.686646 70.139999 92.000000 C 69.715515 92.321449 69.191910 92.484184 68.659996 92.459999 C 68.026268 92.466171 67.400917 92.314987 66.839996 92.019997 L 66.839996 91.019997 C 67.358948 91.218719 67.905289 91.336754 68.459999 91.369995 C 68.660904 91.381401 68.859337 91.321159 69.019997 91.199997 C 69.145958 91.092514 69.218948 90.935577 69.219994 90.769997 Z" fill="#232F3E"/></g><g id="ICONS_-_EDIT"><path d=" M 62.000000 64.000000 L 18.000000 64.000000 C 17.438133 63.968147 16.999098 63.502769 17.000000 62.939999 L 17.000000 40.000000 C 17.003639 39.726322 17.119295 39.466095 17.320000 39.279999 L 23.780001 33.520000 L 25.000000 35.000000 L 18.860001 40.470001 L 18.860001 62.080002 L 61.119999 62.080002 L 61.119999 40.430000 L 55.000000 35.000000 L 56.279999 33.560001 L 62.740002 39.320000 C 62.909027 39.505947 63.001850 39.748718 63.000000 40.000000 L 63.000000 62.939999 C 63.000904 63.502769 62.561867 63.968143 62.000000 64.000000 Z" fill="#FFFFFF"/><path d=" M 40.000000 56.410000 C 39.754272 56.409912 39.514111 56.336823 39.310001 56.200001 L 17.309999 40.889999 L 18.549999 39.110001 L 40.000000 54.000000 L 61.459999 39.110001 L 62.700001 40.889999 L 40.700001 56.200001 C 40.493061 56.338734 40.249134 56.411911 40.000000 56.410000 Z M 40.549999 54.410000 L 40.549999 54.410000 Z" fill="#FFFFFF"/><rect x="14.920000" y="55.080000" width="19.070000" height="1.920000" fill="#FFFFFF" transform="matrix(0.682509,-0.730877,0.730877,0.682509,-33.200000,35.660000)"/><rect x="54.590000" y="46.510000" width="1.920000" height="19.070000" fill="#FFFFFF" transform="matrix(0.731116,-0.682254,0.682254,0.731116,-23.300000,52.970000)"/><path d=" M 31.150000 43.480000 L 29.650000 42.279999 L 33.490002 37.480000 C 33.827934 37.087887 34.409248 37.018475 34.830002 37.320000 L 37.830002 39.630001 L 45.000000 30.760000 L 46.500000 31.959999 L 38.709999 41.560001 C 38.373165 41.946270 37.798832 42.015362 37.379997 41.720001 L 34.380001 39.419998 Z" fill="#FFFFFF"/><path d=" M 48.919998 31.000000 C 48.291660 31.039927 47.749924 30.562927 47.709999 29.934589 C 47.706940 29.886442 47.706940 29.838148 47.709999 29.790001 C 47.675949 29.155787 48.162476 28.614052 48.796692 28.580002 C 48.837765 28.577797 48.878925 28.577797 48.919998 28.580002 C 49.560024 28.551765 50.101761 29.047720 50.129997 29.687748 C 50.131500 29.721817 50.131500 29.755934 50.129997 29.790003 C 50.164047 30.424217 49.677521 30.965952 49.043304 31.000002 C 49.002232 31.002207 48.961071 31.002207 48.919998 31.000002 Z M 48.139999 27.719999 L 47.840000 21.540001 C 48.176178 21.374079 48.545143 21.285254 48.920002 21.280001 C 49.291645 21.285391 49.657326 21.374247 49.990002 21.540001 L 49.700001 27.719999 Z" fill="#FFFFFF"/><path d=" M 54.400002 42.880001 L 52.480000 42.880001 L 52.480000 17.879999 L 27.480000 17.879999 L 27.480000 42.880001 L 25.600000 42.880001 L 25.600000 17.000000 C 25.600000 16.447716 26.047716 16.000000 26.600000 16.000000 L 53.439999 16.000000 C 53.992283 16.000000 54.439999 16.447716 54.439999 17.000000 Z" fill="#FFFFFF"/><path d=" M 46.759998 35.180000 L 44.840000 35.180000 L 44.840000 32.320000 L 42.000000 32.320000 L 42.000000 30.400000 L 45.799999 30.400000 C 46.352283 30.400000 46.799999 30.847715 46.799999 31.400000 Z" fill="#FFFFFF"/></g></svg>