<svg version="1.1" width="80.000000" height="115.000000" viewBox="0.000000 0.000000 80.000000 115.000000" xmlns="http://www.w3.org/2000/svg" xmlns:xlink="http://www.w3.org/1999/xlink" overflow="hidden"><g id="CARDS"><rect x="1.000000" y="1.000000" width="78.000000" height="78.000000" fill="#232F3E"/><path d=" M 0.000000 0.000000 L 0.000000 80.000000 L 0.000000 80.000000 L 0.000000 115.000000 L 80.000000 115.000000 L 80.000000 80.000000 L 80.000000 80.000000 L 80.000000 0.000000 Z M 1.000000 1.000000 L 79.000000 1.000000 L 79.000000 79.000000 L 1.000000 79.000000 Z" fill="#FFFFFF"/></g><g id="TEXT_-_EDIT"><path d=" M 12.090000 92.349998 L 11.660000 90.529999 L 9.660000 90.529999 L 9.240000 92.349998 L 7.470000 92.349998 L 9.780000 84.720001 L 11.650000 84.720001 L 14.000000 92.349998 Z M 9.910000 89.430000 L 11.400000 89.430000 L 10.650000 86.269997 Z" fill="#232F3E"/><path d=" M 19.299999 92.349998 L 18.360001 86.720001 L 17.459999 92.349998 L 15.600000 92.349998 L 13.810000 84.720001 L 15.510000 84.720001 L 16.570000 90.779999 L 17.490000 85.000000 L 19.320000 85.000000 L 20.260000 90.650002 L 21.260000 84.650002 L 23.000000 84.650002 L 21.209999 92.279999 Z" fill="#232F3E"/><path d=" M 25.250000 89.000000 C 24.763565 88.764702 24.336336 88.422920 24.000000 88.000000 C 23.737677 87.644348 23.600536 87.211830 23.610001 86.769997 C 23.603392 86.354721 23.721857 85.947060 23.950001 85.599998 C 24.178213 85.261978 24.497066 84.995110 24.870001 84.830002 C 25.294985 84.642815 25.755713 84.550667 26.220001 84.560005 C 26.869570 84.563965 27.511925 84.696510 28.110001 84.950005 L 28.110001 86.120003 C 27.557974 85.918839 26.977280 85.807426 26.390001 85.790001 C 26.105068 85.774620 25.823257 85.855637 25.590002 86.020004 C 25.397282 86.175255 25.289667 86.412743 25.300001 86.660004 C 25.290497 86.863945 25.358356 87.063950 25.490002 87.220001 C 25.693888 87.428474 25.939144 87.591980 26.210001 87.700005 L 26.860001 88.019997 C 27.215193 88.189125 27.550570 88.397057 27.860001 88.639999 C 28.092379 88.823715 28.277514 89.060280 28.400002 89.330002 C 28.527578 89.619499 28.589067 89.933777 28.580002 90.250000 C 28.610264 90.886475 28.335428 91.499283 27.840002 91.900002 C 27.249495 92.337746 26.523764 92.553688 25.790003 92.510002 C 25.410204 92.509125 25.031515 92.468910 24.660004 92.389999 C 24.330891 92.324646 24.011585 92.217087 23.710003 92.070000 L 23.709999 90.919998 C 24.037161 91.026321 24.371294 91.109856 24.709999 91.169998 C 25.022730 91.235054 25.340675 91.271873 25.660000 91.279999 C 25.973755 91.304230 26.285845 91.215561 26.539999 91.029999 C 26.746395 90.853905 26.857592 90.590736 26.839998 90.320000 C 26.846087 90.107033 26.771021 89.899704 26.629999 89.739998 C 26.426229 89.543251 26.189240 89.384132 25.929998 89.269997 Z" fill="#232F3E"/><path d=" M 37.259998 92.129997 C 36.694855 92.359474 36.089935 92.475021 35.480000 92.469994 C 33.233334 92.470001 32.106667 91.169998 32.099998 88.570000 C 32.039631 87.510925 32.358723 86.465012 33.000000 85.620003 C 33.649338 84.922134 34.579006 84.554680 35.529999 84.620003 C 36.093498 84.620705 36.652317 84.722313 37.180000 84.920006 L 37.180000 86.129997 C 36.712051 85.991005 36.227962 85.913689 35.740002 85.899994 C 35.200455 85.854988 34.674416 86.084198 34.340000 86.509995 C 33.995201 87.091789 33.838070 87.765701 33.889999 88.439995 L 33.889999 88.690002 C 33.839348 89.353394 33.992886 90.016403 34.329998 90.590004 C 34.651360 91.015427 35.168812 91.245827 35.699997 91.200005 C 36.234764 91.173027 36.764782 91.085808 37.279999 90.940002 Z" fill="#232F3E"/><path d=" M 40.490002 92.489998 C 39.790714 92.530975 39.111679 92.246811 38.650002 91.720001 C 37.770847 90.395988 37.770847 88.674019 38.650002 87.349998 C 39.648827 86.333794 41.282333 86.319710 42.298538 87.318535 C 42.309116 87.328934 42.319607 87.339424 42.330002 87.349998 C 43.196018 88.677948 43.196018 90.392044 42.330002 91.720001 C 41.866539 92.244324 41.188770 92.527962 40.490002 92.489998 Z M 40.490002 91.339996 C 40.773586 91.349129 41.031273 91.175995 41.130001 90.909996 C 41.396797 90.016144 41.396797 89.063843 41.130001 88.169998 C 41.034676 87.900047 40.776184 87.722336 40.490002 87.729996 C 40.201111 87.721107 39.939083 87.898483 39.840000 88.169998 C 39.584866 89.065514 39.584866 90.014481 39.840000 90.909996 C 39.942440 91.177567 40.203682 91.350380 40.490002 91.339996 Z" fill="#232F3E"/><path d=" M 46.139999 90.769997 C 46.139999 90.519997 45.970001 90.309998 45.619999 90.150002 L 44.900002 89.800003 C 44.220665 89.566200 43.763405 88.928444 43.760002 88.210007 C 43.735714 87.739006 43.945221 87.286316 44.320004 87.000008 C 44.742363 86.682838 45.262474 86.523621 45.790005 86.550011 C 46.319653 86.551735 46.842281 86.671295 47.320004 86.900009 L 47.320000 87.900002 C 47.091049 87.821503 46.857220 87.758034 46.619999 87.709999 C 46.422863 87.666542 46.221844 87.643089 46.020000 87.639999 C 45.500000 87.639999 45.250000 87.820000 45.250000 88.180000 C 45.250000 88.540001 45.459999 88.629997 45.889999 88.839996 L 46.610001 89.180000 C 46.916878 89.315102 47.182537 89.529015 47.380001 89.800003 C 47.548264 90.080269 47.631630 90.403313 47.620003 90.730003 C 47.644760 91.215942 47.441364 91.685608 47.070004 92.000000 C 46.641670 92.321404 46.114975 92.484009 45.580002 92.459999 C 44.946369 92.465340 44.321217 92.314201 43.760002 92.019997 L 43.759998 91.019997 C 44.279221 91.217819 44.825420 91.335831 45.379997 91.369995 C 45.581326 91.385101 45.781040 91.324471 45.939999 91.199997 C 46.065956 91.092514 46.138954 90.935577 46.139999 90.769997 Z" fill="#232F3E"/><path d=" M 51.580002 92.199997 C 51.186691 92.347153 50.769936 92.421692 50.350002 92.419998 C 49.552200 92.570419 48.783512 92.045616 48.633087 91.247818 C 48.600220 91.073509 48.599174 90.894684 48.630001 90.720001 L 48.630001 87.820000 L 47.900002 87.820000 L 47.900002 86.900002 L 48.680000 86.750000 L 48.919998 85.209999 L 50.279999 85.209999 L 50.279999 86.720001 L 51.560001 86.720001 L 51.560001 87.820000 L 50.279999 87.820000 L 50.279999 90.589996 C 50.261528 90.776146 50.315220 90.962288 50.430000 91.109993 C 50.575340 91.237236 50.768528 91.295555 50.959999 91.269997 C 51.168976 91.266144 51.376892 91.239319 51.579998 91.189995 Z" fill="#232F3E"/><path d=" M 57.910000 92.349998 L 57.759998 91.839996 C 57.609303 92.046989 57.405441 92.209389 57.169998 92.309998 C 56.926693 92.427460 56.660175 92.488968 56.389999 92.489998 C 55.944748 92.502617 55.515339 92.324303 55.209999 92.000000 C 54.585308 91.257271 54.628635 90.161102 55.309998 89.470001 C 55.707272 89.133095 56.220314 88.964470 56.739998 89.000000 C 57.054028 89.006668 57.366177 89.050301 57.669998 89.129997 L 57.669998 88.620003 C 57.695194 88.348686 57.635811 88.076225 57.500000 87.840004 C 57.339996 87.686920 57.119850 87.613541 56.900002 87.640007 C 56.292171 87.664215 55.691746 87.782272 55.120003 87.990005 L 55.119999 87.000000 C 55.396400 86.855904 55.693138 86.754745 56.000000 86.699997 C 56.381401 86.619514 56.770199 86.579300 57.160000 86.579994 C 57.703606 86.534027 58.245007 86.690742 58.680000 87.019997 C 59.024773 87.396851 59.195324 87.901237 59.150002 88.409996 L 59.150002 92.349998 Z M 56.910000 91.430000 C 57.211384 91.418922 57.497318 91.293823 57.709999 91.080002 L 57.709999 90.000000 C 57.504059 89.948677 57.292179 89.925140 57.079998 89.930000 C 56.879452 89.914780 56.682247 89.987816 56.539997 90.129997 C 56.408237 90.297188 56.344002 90.507729 56.359997 90.719994 C 56.349709 90.905304 56.402588 91.088631 56.509998 91.239990 C 56.594925 91.354698 56.727375 91.424606 56.869999 91.429993 Z" fill="#232F3E"/><path d=" M 63.689999 92.349998 L 63.689999 88.650002 C 63.706493 88.408363 63.658165 88.166710 63.549999 87.950005 C 63.432827 87.794846 63.243557 87.711563 63.049999 87.730003 C 62.757969 87.739677 62.474251 87.829636 62.230000 87.990005 L 62.230000 92.349998 L 60.580002 92.349998 L 60.580002 86.720001 L 61.930000 86.720001 L 62.060001 87.230003 C 62.598892 86.835289 63.242653 86.609108 63.910000 86.580002 C 64.318665 86.544418 64.720879 86.699402 65.000000 87.000000 C 65.269730 87.347038 65.401520 87.781601 65.370003 88.220001 L 65.370003 92.349998 Z" fill="#232F3E"/><path d=" M 70.000000 92.349998 L 69.870003 91.860001 C 69.686638 92.038925 69.473434 92.184441 69.240005 92.290001 C 69.012383 92.387421 68.767593 92.438423 68.520004 92.440002 C 67.917587 92.470360 67.342430 92.186562 67.000008 91.690002 C 66.605492 91.052330 66.416939 90.308617 66.460007 89.560005 C 66.409683 88.791771 66.598312 88.026787 67.000008 87.370003 C 67.337578 86.858131 67.917213 86.558846 68.530006 86.580002 C 68.745476 86.590401 68.958015 86.634262 69.160004 86.709999 C 69.378540 86.789223 69.584114 86.900436 69.770004 87.040001 L 69.769997 84.209999 L 71.419998 84.209999 L 71.419998 92.349998 Z M 69.070000 91.349998 C 69.329414 91.348328 69.582855 91.271950 69.800003 91.129997 L 69.800003 88.000000 C 69.562630 87.840775 69.285629 87.750748 69.000000 87.739998 C 68.705643 87.728607 68.436508 87.905350 68.330002 88.180000 C 68.163651 88.623573 68.092110 89.097084 68.120003 89.570000 C 68.091812 90.034950 68.170494 90.500175 68.350006 90.930000 C 68.490082 91.187622 68.767448 91.339981 69.060005 91.320000 Z" fill="#232F3E"/><path d=" M 12.840000 98.720001 L 14.530000 98.720001 L 14.530000 103.660004 C 14.731784 105.037056 13.779040 106.316956 12.401989 106.518738 C 12.162634 106.553810 11.919477 106.554237 11.680000 106.520004 C 10.295104 106.705620 9.021950 105.733414 8.836330 104.348518 C 8.805250 104.116631 8.806485 103.881554 8.840000 103.650002 L 8.840000 98.720001 L 10.530000 98.720001 L 10.530000 103.720001 C 10.495613 104.126762 10.593845 104.533722 10.809999 104.880005 C 11.017555 105.145027 11.344525 105.287842 11.679999 105.260002 C 12.018885 105.291336 12.350440 105.148163 12.559999 104.880005 C 12.769199 104.530838 12.866882 104.126152 12.839999 103.720001 Z" fill="#232F3E"/><path d=" M 18.000000 104.769997 C 18.000000 104.519997 17.830000 104.309998 17.480000 104.150002 L 16.760000 103.800003 C 16.082706 103.565338 15.628900 102.926796 15.630000 102.210007 C 15.606255 101.736839 15.820047 101.282997 16.200001 101.000008 C 16.622360 100.682838 17.142471 100.523621 17.670000 100.550011 C 18.199650 100.551735 18.722279 100.671295 19.200001 100.900009 L 19.200001 101.900002 C 18.971443 101.820229 18.737524 101.756737 18.500000 101.709999 C 18.302864 101.666542 18.101847 101.643089 17.900000 101.639999 C 17.389999 101.639999 17.129999 101.820000 17.129999 102.180000 C 17.129999 102.540001 17.340000 102.629997 17.770000 102.839996 L 18.490000 103.180000 C 18.796877 103.315102 19.062536 103.529015 19.260000 103.800003 C 19.428261 104.080269 19.511627 104.403313 19.500000 104.730003 C 19.537193 105.207657 19.352842 105.675911 19.000000 106.000000 C 18.574739 106.319939 18.051695 106.482506 17.520000 106.459999 C 16.886129 106.467438 16.260469 106.316177 15.700001 106.019997 L 15.700000 105.019997 C 16.215828 105.217575 16.758698 105.335594 17.309999 105.369995 C 17.514172 105.382927 17.716269 105.322655 17.879999 105.199997 C 17.977873 105.079491 18.021330 104.923767 18.000000 104.769997 Z" fill="#232F3E"/><path d=" M 23.330000 106.349998 L 23.190001 105.839996 C 23.034742 106.042564 22.832153 106.203949 22.600000 106.309998 C 22.353094 106.427322 22.083361 106.488777 21.809999 106.489998 C 21.371017 106.511780 20.943005 106.348557 20.629999 106.040001 C 20.019264 105.292549 20.062176 104.206917 20.730000 103.510002 C 21.127274 103.173096 21.640316 103.004471 22.160000 103.040001 C 22.474030 103.046669 22.786179 103.090302 23.090000 103.169998 L 23.090000 102.660004 C 23.117573 102.389763 23.061737 102.117561 22.930000 101.880005 C 22.765478 101.727715 22.542753 101.654694 22.320000 101.680008 C 21.715546 101.705238 21.118567 101.823280 20.549999 102.030006 L 20.549999 101.029999 C 20.836565 100.870445 21.147354 100.758965 21.469999 100.699997 C 21.848017 100.619484 22.233503 100.579254 22.619999 100.579994 C 23.163797 100.532089 23.705881 100.689011 24.139999 101.019997 C 24.484774 101.396851 24.655321 101.901237 24.609999 102.409996 L 24.610001 106.349998 Z M 22.330000 105.430000 C 22.628345 105.418404 22.910971 105.293190 23.120001 105.080002 L 23.120001 104.000000 C 22.917473 103.948616 22.708887 103.925064 22.500000 103.930000 C 22.299068 103.911972 22.100710 103.985435 21.959999 104.129997 C 21.820946 104.293694 21.752604 104.505920 21.769999 104.719994 C 21.759708 104.905304 21.812592 105.088631 21.919998 105.239990 C 22.011194 105.357796 22.151033 105.427719 22.299997 105.429993 Z" fill="#232F3E"/><path d=" M 28.910000 105.709999 C 28.254322 106.397354 27.165581 106.423027 26.478230 105.767349 C 26.393223 105.686256 26.316748 105.596672 26.250000 105.499992 C 25.876982 104.901863 25.695555 104.204063 25.730000 103.499992 C 25.687820 102.757774 25.876455 102.020699 26.270000 101.389992 C 26.588337 100.895462 27.142103 100.603409 27.730000 100.619995 C 27.975681 100.628403 28.217154 100.686218 28.439999 100.789993 C 28.677303 100.897530 28.891314 101.050392 29.069998 101.239990 L 29.190001 100.760002 L 30.540001 100.760002 L 30.540001 106.000000 C 30.540001 107.860001 29.680000 108.790001 27.969999 108.790001 C 27.333319 108.794128 26.705215 108.643105 26.139999 108.349998 L 26.139999 107.349998 C 26.655828 107.547577 27.198696 107.665596 27.750000 107.699997 C 27.990511 107.715515 28.231096 107.670830 28.450001 107.570000 C 28.621477 107.476830 28.747786 107.318039 28.800001 107.129997 C 28.889330 106.804581 28.926458 106.467049 28.910002 106.129997 Z M 28.250000 105.110001 C 28.486286 105.100060 28.715006 105.023819 28.910000 104.889999 L 28.910000 102.000000 C 28.699335 101.838676 28.444939 101.744583 28.180000 101.730003 C 27.908087 101.726189 27.663454 101.894623 27.570000 102.150002 C 27.418274 102.565742 27.353603 103.008224 27.379999 103.450005 C 27.355820 103.886879 27.427494 104.323753 27.589998 104.730003 C 27.715816 104.975739 27.974314 105.124565 28.249998 105.110001 Z" fill="#232F3E"/><path d=" M 33.180000 103.919998 C 33.159252 104.324760 33.287300 104.723129 33.540001 105.040001 C 33.834473 105.288261 34.216644 105.407242 34.600002 105.370003 C 34.829205 105.363998 35.057133 105.333832 35.280003 105.280006 C 35.551254 105.228806 35.818577 105.158638 36.080002 105.070007 L 36.080002 106.070000 C 35.820980 106.215523 35.541000 106.320099 35.250000 106.379997 C 34.921474 106.451813 34.586277 106.488686 34.250000 106.489998 C 32.529999 106.489998 31.670000 105.489998 31.670000 103.540001 C 31.616962 102.755630 31.839819 101.977402 32.299999 101.340004 C 32.758690 100.815964 33.435024 100.535088 34.130001 100.580002 C 35.490002 100.580002 36.130001 101.339996 36.130001 102.870003 C 36.129128 103.206871 36.088856 103.542488 36.010002 103.870003 Z M 34.090000 101.599998 C 33.509998 101.599998 33.209999 102.059998 33.180000 102.970001 L 34.790001 102.970001 L 34.790001 102.720001 C 34.810444 102.423340 34.751781 102.126572 34.620003 101.860001 C 34.502514 101.684830 34.300446 101.585701 34.090004 101.599998 Z" fill="#232F3E"/><path d=" M 43.730000 106.349998 L 42.270000 103.519997 L 41.619999 103.519997 L 41.619999 106.349998 L 40.000000 106.349998 L 40.000000 98.720001 L 42.639999 98.720001 C 43.290741 98.687714 43.926456 98.922493 44.399998 99.370003 C 44.856873 99.834206 45.096546 100.469711 45.059998 101.120003 C 45.072395 101.585030 44.958344 102.044708 44.729996 102.450005 C 44.520580 102.820808 44.198273 103.115089 43.809998 103.290001 L 45.490002 106.349998 Z M 41.619999 102.349998 L 42.400002 102.349998 C 42.676167 102.370110 42.944820 102.254440 43.120003 102.040001 C 43.300743 101.761032 43.388279 101.431900 43.370003 101.099998 C 43.389671 100.771095 43.301933 100.444710 43.120003 100.169998 C 42.949154 99.948952 42.678562 99.828690 42.400002 99.849998 L 41.619999 99.849998 Z" fill="#232F3E"/><path d=" M 47.500000 103.919998 C 47.479252 104.324760 47.607300 104.723129 47.860001 105.040001 C 48.155567 105.286263 48.536880 105.404976 48.920002 105.370003 C 49.149250 105.364609 49.377243 105.334435 49.600002 105.280006 C 49.871529 105.230042 50.138943 105.159843 50.400002 105.070007 L 50.400002 106.070000 C 50.141762 106.217194 49.861507 106.321869 49.570000 106.379997 C 49.241474 106.451813 48.906277 106.488686 48.570000 106.489998 C 46.849998 106.489998 46.000000 105.489998 46.000000 103.540001 C 45.946960 102.755630 46.169819 101.977402 46.630001 101.340004 C 47.084652 100.816292 47.757927 100.535149 48.450001 100.580002 C 49.820000 100.580002 50.450001 101.339996 50.450001 102.870003 C 50.449127 103.206871 50.408855 103.542488 50.330002 103.870003 Z M 48.410000 101.599998 C 47.840000 101.599998 47.529999 102.059998 47.500000 102.970001 L 49.110001 102.970001 L 49.110001 102.720001 C 49.135040 102.423065 49.076134 102.125076 48.940002 101.860001 C 48.823956 101.683182 48.620861 101.583549 48.410004 101.599998 Z" fill="#232F3E"/><path d=" M 51.639999 108.610001 L 51.639999 100.720001 L 53.000000 100.720001 L 53.119999 101.199997 C 53.329094 101.010376 53.569267 100.858154 53.829998 100.750000 C 54.080292 100.644142 54.348316 100.586464 54.619999 100.580002 C 55.217026 100.550934 55.787182 100.830345 56.129997 101.320000 C 56.517715 101.963524 56.699177 102.710312 56.649998 103.459999 C 56.693459 104.230782 56.505402 104.996941 56.109997 105.659996 C 55.771957 106.164963 55.197342 106.459831 54.589996 106.439995 C 54.358227 106.438164 54.128395 106.397598 53.909996 106.319992 C 53.686752 106.242088 53.479912 106.123413 53.299995 105.969994 L 53.299999 108.610001 Z M 54.070000 101.699997 C 53.789852 101.697105 53.516270 101.784790 53.290001 101.949997 L 53.290001 105.059998 C 53.521759 105.223015 53.796722 105.313515 54.080002 105.320000 C 54.377823 105.338585 54.656246 105.171532 54.780003 104.900002 C 54.948620 104.463989 55.020279 103.996498 54.990002 103.529999 C 55.022285 103.050362 54.950657 102.569412 54.780003 102.119995 C 54.652702 101.846878 54.370670 101.680038 54.070004 101.699997 Z" fill="#232F3E"/><path d=" M 60.000000 106.489998 C 59.298313 106.528084 58.617447 106.244698 58.150002 105.720001 C 57.283985 104.392052 57.283985 102.677956 58.150002 101.349998 C 59.161751 100.331032 60.807968 100.325180 61.826935 101.336929 C 61.831306 101.341270 61.835663 101.345627 61.840004 101.349998 C 62.706020 102.677948 62.706020 104.392044 61.840004 105.720001 C 61.376541 106.244324 60.698772 106.527962 60.000004 106.489998 Z M 60.000000 105.339996 C 60.283585 105.349129 60.541271 105.175995 60.639999 104.909996 C 60.906796 104.016144 60.906796 103.063843 60.639999 102.169998 C 60.544674 101.900047 60.286182 101.722336 60.000000 101.729996 C 59.711109 101.721107 59.449081 101.898483 59.349998 102.169998 C 59.083202 103.063850 59.083202 104.016151 59.349998 104.909996 C 59.452438 105.177567 59.713680 105.350380 60.000000 105.339996 Z" fill="#232F3E"/><path d=" M 63.669998 106.349998 L 63.669998 100.720001 L 65.000000 100.720001 L 65.180000 101.449997 C 65.379730 101.212708 65.620155 101.012917 65.889999 100.860001 C 66.123047 100.733055 66.384628 100.667656 66.650002 100.669998 C 66.776474 100.660080 66.903526 100.660080 67.029999 100.669998 L 67.029999 102.000000 C 66.816895 101.985909 66.603096 101.985909 66.389999 102.000000 C 66.011375 102.000565 65.638115 102.089600 65.300003 102.260002 L 65.300003 106.370003 Z" fill="#232F3E"/><path d=" M 71.320000 106.199997 C 70.926460 106.346306 70.509857 106.420822 70.089996 106.419998 C 69.614883 106.461807 69.141983 106.318504 68.769997 106.019997 C 68.469147 105.656647 68.322037 105.190201 68.359993 104.719994 L 68.360001 101.820000 L 67.629997 101.820000 L 67.629997 100.900002 L 68.410004 100.750000 L 68.650002 99.209999 L 70.000000 99.209999 L 70.000000 100.720001 L 71.269997 100.720001 L 71.269997 101.820000 L 70.000000 101.820000 L 70.000000 104.589996 C 69.979706 104.774757 70.029678 104.960396 70.139999 105.109993 C 70.286583 105.234970 70.478745 105.292976 70.669998 105.269997 C 70.882240 105.265694 71.093422 105.238876 71.299995 105.189995 Z" fill="#232F3E"/></g><g id="ICONS_-_EDIT"><path d=" M 64.000000 59.500000 L 40.000000 59.500000 C 39.447716 59.500000 39.000000 59.052284 39.000000 58.500000 L 39.000000 49.500000 L 41.000000 49.500000 L 41.000000 57.500000 L 63.000000 57.500000 L 63.000000 29.910000 L 55.590000 22.500000 L 41.000000 22.500000 L 41.000000 43.500000 L 39.000000 43.500000 L 39.000000 21.500000 C 39.000000 20.947716 39.447716 20.500000 40.000000 20.500000 L 56.000000 20.500000 C 56.265804 20.498463 56.521282 20.602814 56.709999 20.790001 L 64.709999 28.790001 C 64.897186 28.978720 65.001534 29.234198 65.000000 29.500000 L 65.000000 58.500000 C 65.000000 59.052284 64.552284 59.500000 64.000000 59.500000 Z" fill="#FFFFFF"/><path d=" M 64.000000 30.500000 L 56.000000 30.500000 C 55.447716 30.500000 55.000000 30.052284 55.000000 29.500000 L 55.000000 21.500000 C 55.002014 21.096298 55.246574 20.733404 55.619999 20.580000 C 55.992397 20.423403 56.422440 20.506256 56.709999 20.789999 L 64.709999 28.790001 C 64.993744 29.077562 65.076599 29.507605 64.919998 29.880001 C 64.766594 30.253428 64.403702 30.497986 64.000000 30.500002 Z M 57.000000 28.500000 L 61.590000 28.500000 L 57.000000 23.910000 Z" fill="#FFFFFF"/><rect x="58.000000" y="33.500000" width="3.000000" height="2.000000" fill="#FFFFFF"/><rect x="55.000000" y="45.500000" width="6.000000" height="2.000000" fill="#FFFFFF"/><path d=" M 19.500000 64.000000 C 17.014719 64.000000 15.000000 61.985283 15.000000 59.500000 C 15.000000 57.014717 17.014719 55.000000 19.500000 55.000000 C 21.985281 55.000000 24.000000 57.014717 24.000000 59.500000 C 23.994501 61.983002 21.983000 63.994499 19.500000 64.000000 Z M 19.500000 57.000000 C 18.119287 57.000000 17.000000 58.119289 17.000000 59.500000 C 17.000000 60.880711 18.119287 62.000000 19.500000 62.000000 C 20.880713 62.000000 22.000000 60.880711 22.000000 59.500000 C 22.000000 58.119289 20.880713 57.000000 19.500000 57.000000 Z" fill="#FFFFFF"/><path d=" M 19.500000 51.000000 C 17.014719 51.000000 15.000000 48.985283 15.000000 46.500000 C 15.000000 44.014717 17.014719 42.000000 19.500000 42.000000 C 21.985281 42.000000 24.000000 44.014717 24.000000 46.500000 C 23.994501 48.983002 21.983000 50.994499 19.500000 51.000000 Z M 19.500000 44.000000 C 18.119287 44.000000 17.000000 45.119289 17.000000 46.500000 C 17.000000 47.880711 18.119287 49.000000 19.500000 49.000000 C 20.880713 49.000000 22.000000 47.880711 22.000000 46.500000 C 22.000000 45.119289 20.880713 44.000000 19.500000 44.000000 Z" fill="#FFFFFF"/><path d=" M 19.500000 38.000000 C 17.014719 38.000000 15.000000 35.985283 15.000000 33.500000 C 15.000000 31.014719 17.014719 29.000000 19.500000 29.000000 C 21.985281 29.000000 24.000000 31.014719 24.000000 33.500000 C 23.994501 35.983002 21.983000 37.994499 19.500000 38.000000 Z M 19.500000 31.000000 C 18.119287 31.000000 17.000000 32.119289 17.000000 33.500000 C 17.000000 34.880711 18.119287 36.000000 19.500000 36.000000 C 20.880713 36.000000 22.000000 34.880711 22.000000 33.500000 C 22.000000 32.119289 20.880713 31.000000 19.500000 31.000000 Z" fill="#FFFFFF"/><path d=" M 19.500000 25.000000 C 17.014719 25.000000 15.000000 22.985281 15.000000 20.500000 C 15.000000 18.014719 17.014719 16.000000 19.500000 16.000000 C 21.985281 16.000000 24.000000 18.014719 24.000000 20.500000 C 23.994501 22.983000 21.983000 24.994501 19.500000 25.000000 Z M 19.500000 18.000000 C 18.119287 18.000000 17.000000 19.119287 17.000000 20.500000 C 17.000000 21.880713 18.119287 23.000000 19.500000 23.000000 C 20.880713 23.000000 22.000000 21.880713 22.000000 20.500000 C 22.000000 19.119287 20.880713 18.000000 19.500000 18.000000 Z" fill="#FFFFFF"/><path d=" M 30.000000 60.500000 L 23.000000 60.500000 L 23.000000 58.500000 L 29.000000 58.500000 L 29.000000 21.500000 L 23.000000 21.500000 L 23.000000 19.500000 L 30.000000 19.500000 C 30.552284 19.500000 31.000000 19.947716 31.000000 20.500000 L 31.000000 59.500000 C 31.000000 60.052284 30.552284 60.500000 30.000000 60.500000 Z" fill="#FFFFFF"/><path d=" M 30.049999 34.500000 L 23.000000 34.500000 L 23.000000 32.500000 L 30.000000 32.500000 L 30.049999 34.500000 Z" fill="#FFFFFF"/><rect x="23.000000" y="45.500000" width="30.000000" height="2.000000" fill="#FFFFFF"/><rect x="43.000000" y="33.500000" width="12.000000" height="2.000000" fill="#FFFFFF"/><rect x="58.000000" y="38.500000" width="3.000000" height="2.000000" fill="#FFFFFF"/><rect x="43.000000" y="38.500000" width="7.000000" height="2.000000" fill="#FFFFFF"/></g></svg>