<svg version="1.1" viewBox="0.000000 0.000000 80.000000 115.000000" xmlns="http://www.w3.org/2000/svg" xmlns:xlink="http://www.w3.org/1999/xlink" overflow="hidden"><defs></defs><g id="CARDS"><rect x="1.000000" y="1.000000" width="78.000000" height="78.000000" fill="#232F3E"/><path d=" M 0.000000 0.000000 L 0.000000 80.000000 L 0.000000 80.000000 L 0.000000 115.000000 L 80.000000 115.000000 L 80.000000 80.000000 L 80.000000 80.000000 L 80.000000 0.000000 Z M 1.000000 1.000000 L 79.000000 1.000000 L 79.000000 79.000000 L 1.000000 79.000000 Z" fill="#FFFFFF"/><path d=" M 22.290001 92.349998 L 21.860001 90.529999 L 19.860001 90.529999 L 19.430000 92.349998 L 17.660000 92.349998 L 20.000000 84.720001 L 21.860001 84.720001 L 24.160000 92.349998 Z M 20.110001 89.430000 L 21.600000 89.430000 L 20.840000 86.269997 Z" fill="#232F3E"/><path d=" M 29.490000 92.349998 L 28.549999 86.720001 L 27.660000 92.349998 L 25.790001 92.349998 L 24.000000 84.720001 L 25.700001 84.720001 L 26.760000 90.779999 L 27.690001 85.000000 L 29.520000 85.000000 L 30.459999 90.650002 L 31.459999 84.650002 L 33.119999 84.650002 L 31.340000 92.279999 Z" fill="#232F3E"/><path d=" M 35.450001 89.000000 C 34.951015 88.771332 34.512611 88.428833 34.170002 88.000000 C 33.907681 87.644348 33.770538 87.211830 33.780003 86.769997 C 33.773392 86.354721 33.891861 85.947060 34.120003 85.599998 C 34.345703 85.259720 34.665291 84.992241 35.040001 84.830002 C 35.461815 84.643929 35.919044 84.551804 36.380001 84.560005 C 37.032909 84.562904 37.678741 84.695473 38.280003 84.950005 L 38.279999 86.120003 C 37.724804 85.917786 37.140648 85.806358 36.549999 85.790001 C 36.268349 85.776108 35.990177 85.857094 35.759998 86.020004 C 35.567276 86.175255 35.459663 86.412743 35.469997 86.660004 C 35.460491 86.863945 35.528351 87.063950 35.659996 87.220001 C 35.861874 87.426239 36.103386 87.589516 36.369995 87.700005 L 37.000000 88.000000 C 37.356052 88.167549 37.691601 88.375595 38.000000 88.620003 C 38.228786 88.807266 38.413212 89.042915 38.540001 89.310005 C 38.664150 89.600281 38.722218 89.914528 38.709999 90.230003 C 38.754025 90.868179 38.490120 91.488914 38.000000 91.900002 C 37.424477 92.329575 36.717297 92.545265 36.000000 92.510002 C 35.620174 92.509636 35.241432 92.469414 34.869999 92.389999 C 34.523338 92.330627 34.186726 92.222908 33.869999 92.070000 L 33.869999 90.919998 C 34.197018 91.026825 34.531185 91.110367 34.869999 91.169998 C 35.199299 91.236969 35.534016 91.273788 35.869999 91.279999 C 36.183754 91.304230 36.495842 91.215561 36.750000 91.029999 C 36.956394 90.853905 37.067593 90.590736 37.049999 90.320000 C 37.056087 90.107033 36.981022 89.899704 36.840000 89.739998 C 36.634480 89.545425 36.397888 89.386574 36.139999 89.269997 Z" fill="#232F3E"/><path d=" M 47.459999 92.129997 C 46.891666 92.360519 46.283272 92.476074 45.669998 92.469994 C 43.423332 92.470001 42.299999 91.169998 42.299999 88.570000 C 42.228546 87.512779 42.541019 86.465294 43.180000 85.620003 C 43.829338 84.922134 44.759007 84.554680 45.709999 84.620003 C 46.273499 84.620705 46.832317 84.722313 47.360001 84.920006 L 47.360001 86.129997 C 46.891903 85.991669 46.407898 85.914360 45.920002 85.899994 C 45.380150 85.853134 44.853264 86.082703 44.520000 86.509995 C 44.175201 87.091789 44.018070 87.765701 44.070000 88.439995 L 44.070000 88.690002 C 44.021957 89.351952 44.171619 90.013245 44.500000 90.590004 C 44.825745 91.015533 45.346039 91.245522 45.880001 91.200005 C 46.414688 91.172272 46.944622 91.085068 47.460003 90.940002 Z" fill="#232F3E"/><path d=" M 50.689999 92.489998 C 49.988312 92.528084 49.307446 92.244698 48.840000 91.720001 C 47.973984 90.392052 47.973984 88.677956 48.840000 87.349998 C 49.851749 86.331032 51.497967 86.325180 52.516933 87.336929 C 52.521305 87.341270 52.525661 87.345627 52.530003 87.349998 C 53.396019 88.677948 53.396019 90.392044 52.530003 91.720001 C 52.066540 92.244324 51.388771 92.527962 50.690002 92.489998 Z M 50.689999 91.339996 C 50.973583 91.349129 51.231270 91.175995 51.329998 90.909996 C 51.596794 90.016144 51.596794 89.063843 51.329998 88.169998 C 51.194633 87.813774 50.796120 87.634735 50.439896 87.770103 C 50.255581 87.840141 50.110039 87.985687 50.039997 88.169998 C 49.773201 89.063850 49.773201 90.016151 50.039997 90.909996 C 50.142437 91.177567 50.403679 91.350380 50.689999 91.339996 Z" fill="#232F3E"/><path d=" M 56.340000 90.769997 C 56.340000 90.519997 56.160000 90.309998 55.820000 90.150002 L 55.090000 89.800003 C 54.432240 89.547142 53.998669 88.914688 54.000000 88.210007 C 53.966232 87.746109 54.160198 87.294769 54.520000 87.000008 C 54.949036 86.691238 55.472733 86.542618 56.000000 86.580009 C 56.529648 86.581734 57.052277 86.701294 57.529999 86.930008 L 57.529999 87.930000 C 57.301048 87.851501 57.067219 87.788033 56.829998 87.739998 C 56.629593 87.695862 56.425190 87.672409 56.219997 87.669998 C 55.709999 87.669998 55.450001 87.849998 55.450001 88.209999 C 55.450001 88.570000 55.669998 88.660004 56.090000 88.870003 L 56.820000 89.209999 C 57.126877 89.345100 57.392536 89.559013 57.590000 89.830002 C 57.758263 90.110268 57.841629 90.433311 57.830002 90.760002 C 57.838978 91.238617 57.629108 91.695183 57.260002 92.000000 C 56.835518 92.321449 56.311913 92.484184 55.780003 92.459999 C 55.162369 92.468102 54.551857 92.327477 54.000004 92.049995 L 54.000000 91.050003 C 54.518955 91.248726 55.065292 91.366760 55.619999 91.400002 C 55.821114 91.413208 56.020164 91.352783 56.180000 91.230003 C 56.299454 91.108322 56.358158 90.939552 56.340000 90.770004 Z" fill="#232F3E"/><path d=" M 61.779999 92.199997 C 61.386688 92.347153 60.969933 92.421692 60.549999 92.419998 C 59.752197 92.570419 58.983509 92.045616 58.833084 91.247818 C 58.800217 91.073509 58.799171 90.894684 58.829998 90.720001 L 58.830002 87.820000 L 58.090000 87.820000 L 58.090000 86.900002 L 58.880001 86.750000 L 59.119999 85.209999 L 60.480000 85.209999 L 60.480000 86.720001 L 61.759998 86.720001 L 61.759998 87.820000 L 60.480000 87.820000 L 60.480000 90.589996 C 60.464325 90.774376 60.513870 90.958412 60.619999 91.109993 C 60.767174 91.233894 60.958851 91.291756 61.149998 91.269997 C 61.362316 91.266800 61.573620 91.239967 61.779999 91.189995 Z" fill="#232F3E"/><path d=" M 20.559999 106.349998 L 20.559999 98.720001 L 25.100000 98.720001 L 25.100000 99.900002 L 22.250000 99.900002 L 22.250000 101.849998 L 24.540001 101.849998 L 24.540001 103.000000 L 22.250000 103.000000 L 22.250000 105.150002 L 25.100000 105.150002 L 25.100000 106.330002 Z" fill="#232F3E"/><path d=" M 29.000000 106.349998 L 28.000000 104.559998 L 27.150000 106.349998 L 25.559999 106.349998 L 27.280001 103.519997 L 25.580000 100.720001 L 27.360001 100.720001 L 28.260000 102.449997 L 29.090000 100.720001 L 30.719999 100.720001 L 29.020000 103.519997 L 30.809999 106.349998 Z" fill="#232F3E"/><path d=" M 31.570000 108.610001 L 31.570000 100.720001 L 32.919998 100.720001 L 33.040001 101.199997 C 33.249096 101.010376 33.489269 100.858154 33.750000 100.750000 C 34.000294 100.644142 34.268318 100.586464 34.540001 100.580002 C 35.136631 100.552834 35.705921 100.831825 36.049999 101.320000 C 36.437717 101.963524 36.619179 102.710312 36.570000 103.459999 C 36.615498 104.232277 36.423569 104.999985 36.020000 105.659996 C 35.686516 106.164848 35.114716 106.460220 34.510002 106.439995 C 34.278233 106.438164 34.048401 106.397598 33.830002 106.319992 C 33.606758 106.242088 33.399918 106.123413 33.220001 105.969994 L 33.220001 108.610001 Z M 34.000000 101.699997 C 33.723156 101.698547 33.453190 101.786194 33.230000 101.949997 L 33.230000 105.059998 C 33.461758 105.223015 33.736721 105.313515 34.020000 105.320000 C 34.317123 105.335739 34.594067 105.169571 34.720001 104.900002 C 34.888618 104.463989 34.960278 103.996498 34.930000 103.529999 C 34.962284 103.050362 34.890656 102.569412 34.720001 102.119995 C 34.589172 101.845284 34.303524 101.678658 34.000000 101.699997 Z" fill="#232F3E"/><path d=" M 40.110001 106.250000 C 39.790051 106.367126 39.450520 106.421448 39.110001 106.410004 C 38.714245 106.441948 38.323025 106.307922 38.029999 106.040001 C 37.770100 105.727486 37.644287 105.324898 37.680000 104.919998 L 37.680000 98.209999 L 39.330002 98.209999 L 39.330002 104.750000 C 39.313763 104.888435 39.341766 105.028458 39.410004 105.150002 C 39.485405 105.241234 39.602829 105.286682 39.720005 105.270004 C 39.836449 105.280235 39.953564 105.280235 40.070004 105.270004 Z" fill="#232F3E"/><path d=" M 43.230000 106.489998 C 42.531490 106.526466 41.854343 106.243095 41.389999 105.720001 C 40.523983 104.392052 40.523983 102.677956 41.389999 101.349998 C 42.401749 100.331032 44.047966 100.325180 45.066933 101.336929 C 45.071304 101.341270 45.075661 101.345627 45.080002 101.349998 C 45.946018 102.677948 45.946018 104.392044 45.080002 105.720001 C 44.612556 106.244698 43.931686 106.528084 43.230003 106.489998 Z M 43.230000 105.339996 C 43.516319 105.350388 43.777557 105.177567 43.880001 104.909996 C 44.146797 104.016144 44.146797 103.063843 43.880001 102.169998 C 43.744637 101.813774 43.346123 101.634735 42.989899 101.770103 C 42.805584 101.840141 42.660042 101.985687 42.590000 102.169998 C 42.323204 103.063850 42.323204 104.016151 42.590000 104.909996 C 42.688728 105.175995 42.946415 105.349129 43.230000 105.339996 Z" fill="#232F3E"/><path d=" M 46.880001 106.349998 L 46.880001 100.720001 L 48.230000 100.720001 L 48.419998 101.449997 C 48.617485 101.210457 48.858356 101.010300 49.129997 100.860001 C 49.359917 100.734291 49.617954 100.668915 49.879997 100.669998 C 50.009808 100.660080 50.140186 100.660080 50.269997 100.669998 L 50.270000 102.000000 C 50.056885 101.986336 49.843117 101.986336 49.630001 102.000000 C 49.251373 102.000565 48.878117 102.089600 48.540001 102.260002 L 48.540001 106.370003 Z" fill="#232F3E"/><path d=" M 52.230000 103.919998 C 52.218792 104.323456 52.345814 104.718628 52.590000 105.040001 C 52.889164 105.286850 53.273766 105.405472 53.660000 105.370003 C 53.889202 105.363998 54.117130 105.333832 54.340000 105.280006 C 54.610973 105.227577 54.878212 105.157425 55.139999 105.070007 L 55.139999 106.070000 C 54.880199 106.213844 54.600483 106.318314 54.309998 106.379997 C 53.981472 106.451813 53.646275 106.488686 53.309998 106.489998 C 51.590000 106.489998 50.730000 105.489998 50.730000 103.540001 C 50.676960 102.755630 50.899818 101.977402 51.360001 101.340004 C 51.817764 100.814682 52.494766 100.533524 53.190002 100.580002 C 54.549999 100.580002 55.189999 101.339996 55.189999 102.870003 C 55.190464 103.207581 55.146763 103.543762 55.059998 103.870003 Z M 53.150002 101.599998 C 52.570000 101.599998 52.270000 102.059998 52.230000 102.970001 L 53.849998 102.970001 L 53.849998 102.720001 C 53.870441 102.423340 53.811779 102.126572 53.680000 101.860001 C 53.562511 101.684830 53.360443 101.585701 53.150002 101.599998 Z" fill="#232F3E"/><path d=" M 56.380001 106.349998 L 56.380001 100.720001 L 57.730000 100.720001 L 57.910000 101.449997 C 58.109730 101.212708 58.350155 101.012917 58.619999 100.860001 C 58.853046 100.733055 59.114628 100.667656 59.379997 100.669998 C 59.506470 100.660080 59.633526 100.660080 59.759998 100.669998 L 59.759998 102.000000 C 59.546909 101.985519 59.333084 101.985519 59.119999 102.000000 C 58.741371 102.000565 58.368114 102.089600 58.029999 102.260002 L 58.029999 106.370003 Z" fill="#232F3E"/></g><g id="ICONS_-_EDIT"><path d=" M 59.900002 16.709999 L 59.900002 15.000000 L 57.900002 15.000000 L 57.900002 16.760000 C 55.902199 17.263630 54.501598 19.059696 54.500000 21.120001 C 54.495022 21.199923 54.495022 21.280079 54.500000 21.360001 L 49.669998 23.900000 C 49.033718 22.993845 48.081169 22.358814 47.000000 22.119999 L 47.000000 15.000000 L 45.000000 15.000000 L 45.000000 22.120001 C 42.953133 22.582703 41.499763 24.401487 41.500000 26.500000 C 41.496872 27.651852 41.941502 28.759838 42.740002 29.590000 L 34.740002 40.340000 C 34.500408 40.239647 34.252888 40.159370 34.000000 40.099998 L 34.000000 15.000000 L 32.000000 15.000000 L 32.000000 40.130001 C 31.246088 40.320072 30.556002 40.706520 30.000000 41.250000 L 24.209999 37.250000 C 25.140175 34.945354 24.025948 32.323013 21.721302 31.392836 C 21.487534 31.298485 21.246252 31.223944 21.000000 31.170000 L 21.000000 15.000000 L 19.000000 15.000000 L 19.000000 31.170000 C 16.580994 31.715534 15.062243 34.118767 15.607776 36.537777 C 15.989055 38.228447 17.309330 39.548721 19.000000 39.930000 L 19.000000 63.000000 L 55.430000 63.000000 L 53.430000 61.000000 L 47.000000 61.000000 L 47.000000 60.520000 C 46.322006 60.440750 45.652599 60.300175 45.000000 60.100002 L 45.000000 61.000000 L 34.000000 61.000000 L 34.000000 48.900002 C 35.114704 48.652603 36.096031 47.996006 36.750000 47.060001 L 36.750000 47.060001 C 37.266350 46.310032 37.541920 45.420532 37.540001 44.510002 C 37.544991 44.423409 37.544991 44.336597 37.540001 44.250004 C 37.486649 43.227833 37.080185 42.255863 36.389999 41.500004 L 44.389999 30.709999 C 44.583172 30.790773 44.784267 30.851101 44.989998 30.889999 L 44.990002 37.500000 C 45.642601 37.299828 46.312008 37.159252 46.990002 37.080002 L 46.990002 30.879999 C 49.309982 30.351236 50.817333 28.107738 50.430000 25.759998 L 50.430000 25.760000 L 55.070000 23.340000 C 55.695995 24.443075 56.761124 25.228287 58.000000 25.500000 L 58.000000 41.889999 C 58.985435 43.241875 59.667622 44.790436 60.000000 46.430000 L 60.000000 25.500000 C 62.421227 24.939394 63.929562 22.522141 63.368954 20.100912 C 62.972988 18.390757 61.618721 17.066957 59.900002 16.709999 Z M 17.500000 35.549999 C 17.500000 34.169289 18.619287 33.049999 20.000000 33.049999 C 21.380713 33.049999 22.500000 34.169289 22.500000 35.549999 C 22.500000 36.930710 21.380713 38.049999 20.000000 38.049999 C 18.619287 38.049999 17.500000 36.930710 17.500000 35.549999 Z M 32.000000 61.000000 L 21.000000 61.000000 L 21.000000 39.930000 C 21.743502 39.779781 22.433723 39.434669 23.000000 38.930000 L 28.850000 42.930000 C 28.656084 43.434097 28.557741 43.969898 28.559999 44.510002 C 28.566160 46.581978 29.986315 48.381943 32.000000 48.870003 Z M 33.000000 47.000000 C 31.619287 47.000000 30.500000 45.880711 30.500000 44.500000 C 30.500000 43.119289 31.619287 42.000000 33.000000 42.000000 C 34.380711 42.000000 35.500000 43.119289 35.500000 44.500000 C 35.500271 45.861420 34.411148 46.972771 33.049999 47.000000 Z M 46.000000 29.000000 C 44.619289 29.000000 43.500000 27.880713 43.500000 26.500000 C 43.500000 25.119287 44.619289 24.000000 46.000000 24.000000 C 47.380711 24.000000 48.500000 25.119287 48.500000 26.500000 C 48.500000 27.880713 47.380711 29.000000 46.000000 29.000000 Z M 59.000000 23.620001 C 57.619289 23.620001 56.500000 22.500713 56.500000 21.120001 C 56.500000 19.739288 57.619289 18.620001 59.000000 18.620001 C 60.380711 18.620001 61.500000 19.739288 61.500000 21.120001 C 61.500000 22.500713 60.380711 23.620001 59.000000 23.620001 Z" fill="#FFFFFF"/><path d=" M 64.000000 59.299999 L 57.459999 52.740002 C 58.003513 51.497715 58.282757 50.155979 58.279999 48.800003 C 58.285522 43.343433 53.866573 38.915531 48.410004 38.910007 C 42.953434 38.904484 38.525532 43.323433 38.520008 48.780003 C 38.514484 54.236572 42.933434 58.664474 48.390003 58.669998 C 48.393333 58.670002 48.396667 58.670002 48.399998 58.670002 C 49.944477 58.675308 51.467484 58.308277 52.839996 57.600002 L 59.299999 64.000000 C 60.727745 65.167992 62.832005 64.957428 64.000000 63.529682 C 65.006454 62.299404 65.006454 60.530281 64.000000 59.300003 Z M 48.400002 56.669998 C 44.047997 56.669994 40.520004 53.141994 40.520008 48.789993 C 40.520012 44.437988 44.048012 40.909996 48.400013 40.910000 C 52.752018 40.910004 56.280010 44.438004 56.280006 48.790005 C 56.280006 48.793335 56.280003 48.796669 56.279999 48.799999 C 56.269070 53.134148 52.764107 56.648041 48.430000 56.669998 Z M 62.580002 62.610001 C 62.053864 63.131111 61.206142 63.131111 60.680000 62.610001 L 54.599998 56.500000 C 55.312054 55.925285 55.938377 55.251820 56.459999 54.500000 L 62.610001 60.669998 C 63.145718 61.188557 63.159626 62.043217 62.641064 62.578934 C 62.630878 62.589455 62.620522 62.599812 62.610001 62.609997 Z" fill="#FFFFFF"/><path d=" M 45.000000 52.540001 C 42.760487 50.883148 42.288147 47.724514 43.945000 45.485001 C 45.601852 43.245487 48.760487 42.773148 51.000000 44.430000 L 49.830002 46.000000 C 49.177288 45.520222 48.360966 45.318840 47.560001 45.439999 C 46.760368 45.551388 46.039383 45.980373 45.560001 46.629997 C 44.548859 47.942535 44.793190 49.826252 46.105728 50.837395 C 46.133453 50.858753 46.161549 50.879623 46.190002 50.899998 Z" fill="#FFFFFF"/></g></svg>