<svg version="1.1" width="80.000000" height="130.000000" viewBox="0.000000 0.000000 80.000000 130.000000" xmlns="http://www.w3.org/2000/svg" xmlns:xlink="http://www.w3.org/1999/xlink" overflow="hidden"><g id="CARDS"><rect x="1.000000" y="1.000000" width="78.000000" height="78.000000" fill="#232F3E"/><path d=" M 0.000000 0.000000 L 0.000000 80.000000 L 0.000000 80.000000 L 0.000000 130.000000 L 80.000000 130.000000 L 80.000000 80.000000 L 80.000000 80.000000 L 80.000000 0.000000 Z M 1.000000 1.000000 L 79.000000 1.000000 L 79.000000 79.000000 L 1.000000 79.000000 Z" fill="#FFFFFF"/></g><g id="TEXT_-_EDIT"><path d=" M 22.850000 92.349998 L 21.389999 89.519997 L 20.740000 89.519997 L 20.740000 92.349998 L 19.090000 92.349998 L 19.090000 84.720001 L 21.730000 84.720001 C 22.383438 84.689598 23.021538 84.923927 23.500000 85.370003 C 23.949009 85.838562 24.184263 86.471939 24.150000 87.120003 C 24.160639 87.583603 24.050352 88.041977 23.830000 88.450005 C 23.617994 88.822403 23.291985 89.116867 22.900000 89.290001 L 24.580000 92.349998 Z M 20.740000 88.349998 L 21.530001 88.349998 C 21.803034 88.368484 22.067961 88.252815 22.240000 88.040001 C 22.425430 87.763138 22.513391 87.432404 22.490000 87.099998 C 22.515049 86.770569 22.426849 86.442467 22.240000 86.169998 C 22.072315 85.950584 21.805452 85.830307 21.530001 85.849998 L 20.740000 85.849998 Z" fill="#232F3E"/><path d=" M 26.620001 89.919998 C 26.623524 90.312157 26.757187 90.692039 27.000000 91.000000 C 27.295565 91.246262 27.676880 91.364975 28.059999 91.330002 C 28.289248 91.324608 28.517241 91.294434 28.740000 91.240005 C 29.011526 91.190041 29.278938 91.119843 29.539999 91.030006 L 29.540001 92.029999 C 29.281759 92.177193 29.001509 92.281868 28.710001 92.339996 C 28.381502 92.411957 28.046288 92.448830 27.710001 92.449997 C 25.990000 92.449997 25.129999 91.449997 25.129999 89.500000 C 25.076962 88.715630 25.299818 87.937401 25.759998 87.300003 C 26.214649 86.776291 26.887924 86.495148 27.579998 86.540001 C 28.950001 86.540001 29.629999 87.300003 29.629999 88.830002 C 29.629126 89.166870 29.588852 89.502487 29.509998 89.830002 Z M 27.540001 87.599998 C 26.959999 87.599998 26.650000 88.059998 26.620001 88.970001 L 28.240000 88.970001 L 28.240000 88.720001 C 28.260443 88.423340 28.201778 88.126572 28.070000 87.860001 C 27.951136 87.686409 27.750032 87.587753 27.539999 87.599998 Z" fill="#232F3E"/><path d=" M 32.770000 90.769997 C 32.770000 90.519997 32.590000 90.309998 32.250000 90.150002 L 31.520000 89.800003 C 30.846485 89.560318 30.394882 88.924881 30.390001 88.210007 C 30.377201 87.729820 30.606346 87.275284 31.000002 87.000008 C 31.422361 86.682838 31.942472 86.523621 32.470001 86.550011 C 32.999649 86.551735 33.522278 86.671295 34.000000 86.900009 L 34.000000 87.900002 C 33.771049 87.821503 33.537220 87.758034 33.299999 87.709999 C 33.099594 87.665863 32.895191 87.642410 32.689999 87.639999 C 32.180000 87.639999 31.920000 87.820000 31.920000 88.180000 C 31.920000 88.540001 32.139999 88.629997 32.560001 88.839996 L 33.290001 89.180000 C 33.596878 89.315102 33.862537 89.529015 34.060001 89.800003 C 34.228264 90.080269 34.311630 90.403313 34.300003 90.730003 C 34.308697 91.225929 34.082531 91.696793 33.690002 92.000000 C 33.265518 92.321449 32.741913 92.484184 32.210003 92.459999 C 31.576277 92.466171 30.950922 92.314987 30.390003 92.019997 L 30.389999 91.019997 C 30.904156 91.227997 31.447100 91.356148 32.000000 91.399994 C 32.200905 91.411400 32.399342 91.351158 32.560001 91.229996 C 32.697906 91.117798 32.775566 90.947685 32.770000 90.769997 Z" fill="#232F3E"/><path d=" M 36.389999 89.919998 C 36.387794 90.309822 36.514343 90.689461 36.750000 91.000000 C 37.045567 91.246262 37.426880 91.364975 37.810001 91.330002 C 38.039249 91.324608 38.267242 91.294434 38.490002 91.240005 C 38.761528 91.190041 39.028942 91.119843 39.290001 91.030006 L 39.290001 92.029999 C 39.031761 92.177193 38.751507 92.281868 38.459999 92.339996 C 38.131500 92.411957 37.796288 92.448830 37.459999 92.449997 C 35.740002 92.449997 34.880001 91.449997 34.880001 89.500000 C 34.826962 88.715630 35.049820 87.937401 35.510002 87.300003 C 35.967766 86.774681 36.644768 86.493523 37.340004 86.540001 C 38.700001 86.540001 39.340000 87.300003 39.340000 88.830002 C 39.339127 89.166870 39.298855 89.502487 39.220001 89.830002 Z M 37.310001 87.599998 C 36.730000 87.599998 36.419998 88.059998 36.389999 88.970001 L 38.000000 88.970001 L 38.000000 88.720001 C 38.020443 88.423340 37.961781 88.126572 37.830002 87.860001 C 37.713036 87.689537 37.516552 87.591293 37.310001 87.599998 Z" fill="#232F3E"/><path d=" M 40.540001 92.349998 L 40.540001 86.720001 L 41.889999 86.720001 L 42.070000 87.449997 C 42.269730 87.212708 42.510155 87.012917 42.779999 86.860001 C 43.013046 86.733055 43.274628 86.667656 43.539997 86.669998 L 43.919998 86.669998 L 43.919998 88.000000 C 43.706898 87.985909 43.493099 87.985909 43.279999 88.000000 C 42.901371 88.000565 42.528114 88.089600 42.189999 88.260002 L 42.189999 92.370003 Z" fill="#232F3E"/><path d=" M 46.340000 92.349998 L 44.490002 86.720001 L 46.230000 86.720001 L 47.119999 90.720001 L 48.040001 86.720001 L 49.740002 86.720001 L 47.900002 92.349998 Z" fill="#232F3E"/><path d=" M 51.709999 89.919998 C 51.705971 90.311752 51.836590 90.693016 52.079998 91.000000 C 52.374470 91.248260 52.756641 91.367241 53.139999 91.330002 C 53.369202 91.323997 53.597130 91.293831 53.820000 91.240005 C 54.091251 91.188805 54.358574 91.118637 54.619999 91.030006 L 54.619999 92.029999 C 54.360977 92.175522 54.080997 92.280098 53.789997 92.339996 C 53.461472 92.411812 53.126274 92.448685 52.789997 92.449997 C 51.070000 92.449997 50.209999 91.449997 50.209999 89.500000 C 50.156960 88.715630 50.379818 87.937401 50.840000 87.300003 C 51.298691 86.775963 51.975025 86.495087 52.670002 86.540001 C 54.029999 86.540001 54.669998 87.300003 54.669998 88.830002 C 54.669125 89.166870 54.628853 89.502487 54.549999 89.830002 Z M 52.630001 87.599998 C 52.049999 87.599998 51.750000 88.059998 51.709999 88.970001 L 53.330002 88.970001 L 53.330002 88.720001 C 53.350445 88.423340 53.291782 88.126572 53.160004 87.860001 C 53.042515 87.684830 52.840446 87.585701 52.630005 87.599998 Z" fill="#232F3E"/><path d=" M 59.110001 92.349998 L 59.000000 91.860001 C 58.816639 92.038925 58.603436 92.184441 58.369999 92.290001 C 58.142376 92.387421 57.897591 92.438423 57.649998 92.440002 C 57.051472 92.464928 56.481789 92.181969 56.139999 91.690002 C 55.745480 91.052330 55.556934 90.308617 55.599998 89.560005 C 55.555649 88.789658 55.751301 88.024506 56.160000 87.370003 C 56.497570 86.858131 57.077206 86.558846 57.689999 86.580002 C 57.905468 86.590401 58.118011 86.634262 58.320000 86.709999 C 58.538536 86.789223 58.744106 86.900436 58.930000 87.040001 L 58.930000 84.209999 L 60.580002 84.209999 L 60.580002 92.349998 Z M 58.180000 91.349998 C 58.439419 91.348328 58.692860 91.271950 58.910000 91.129997 L 58.910000 88.000000 C 58.672630 87.840775 58.395626 87.750748 58.110001 87.739998 C 57.815639 87.728607 57.546513 87.905350 57.440002 88.180000 C 57.273647 88.623573 57.202110 89.097084 57.230003 89.570000 C 57.201813 90.034950 57.280491 90.500175 57.460003 90.930000 C 57.603466 91.189232 57.884502 91.341454 58.180004 91.320000 Z" fill="#232F3E"/><path d=" M 20.799999 106.349998 L 20.799999 98.720001 L 22.480000 98.720001 L 22.480000 106.349998 Z" fill="#232F3E"/><path d=" M 27.170000 106.349998 L 27.170000 102.650002 C 27.168587 102.422523 27.110136 102.199043 27.000000 102.000000 C 26.882828 101.844841 26.693558 101.761559 26.500000 101.779999 C 26.207970 101.789673 25.924252 101.879631 25.680000 102.040001 L 25.680000 106.400002 L 24.059999 106.400002 L 24.059999 100.769997 L 25.410000 100.769997 L 25.540001 101.279999 C 26.078890 100.885284 26.722652 100.659103 27.390001 100.629997 C 27.788469 100.603767 28.177637 100.757965 28.450001 101.049995 C 28.719730 101.397034 28.851524 101.831596 28.820002 102.269997 L 28.820000 106.400002 Z" fill="#232F3E"/><path d=" M 32.220001 104.769997 C 32.220001 104.519997 32.040001 104.309998 31.700001 104.150002 L 31.000000 103.800003 C 30.320662 103.566200 29.863403 102.928444 29.860001 102.210007 C 29.831005 101.742584 30.032724 101.290581 30.400002 101.000008 C 30.822361 100.682838 31.342472 100.523621 31.870001 100.550011 C 32.399651 100.551735 32.922279 100.671295 33.400002 100.900009 L 33.400002 101.900002 C 33.171051 101.821503 32.937222 101.758034 32.700001 101.709999 C 32.502865 101.666542 32.301846 101.643089 32.100002 101.639999 C 31.580000 101.639999 31.330000 101.820000 31.330000 102.180000 C 31.330000 102.540001 31.540001 102.629997 31.959999 102.839996 L 32.689999 103.180000 C 32.996876 103.315102 33.262535 103.529015 33.459999 103.800003 C 33.628262 104.080269 33.711628 104.403313 33.700001 104.730003 C 33.720188 105.215103 33.517624 105.682846 33.150002 106.000000 C 32.721668 106.321404 32.194973 106.484009 31.660002 106.459999 C 31.026371 106.465340 30.401217 106.314201 29.840002 106.019997 L 29.840000 105.019997 C 30.359221 105.217819 30.905420 105.335831 31.460001 105.369995 C 31.661331 105.385101 31.861044 105.324471 32.020000 105.199997 C 32.145958 105.092514 32.218956 104.935577 32.220001 104.769997 Z" fill="#232F3E"/><path d=" M 37.660000 106.199997 C 37.266689 106.347153 36.849934 106.421692 36.430000 106.419998 C 35.632198 106.570419 34.863510 106.045616 34.713085 105.247818 C 34.680218 105.073509 34.679173 104.894684 34.709999 104.720001 L 34.709999 101.820000 L 34.000000 101.820000 L 34.000000 100.900002 L 34.779999 100.750000 L 35.000000 99.209999 L 36.360001 99.209999 L 36.360001 100.720001 L 37.639999 100.720001 L 37.639999 101.820000 L 36.360001 101.820000 L 36.360001 104.589996 C 36.341530 104.776146 36.395222 104.962288 36.510002 105.109993 C 36.655342 105.237236 36.848530 105.295555 37.040001 105.269997 C 37.248978 105.266144 37.456894 105.239319 37.660000 105.189995 Z" fill="#232F3E"/><path d=" M 41.450001 106.349998 L 41.299999 105.839996 C 41.146900 106.044678 40.943722 106.206528 40.709999 106.309998 C 40.466251 106.426201 40.200020 106.487640 39.930000 106.489998 C 39.490822 106.513031 39.062321 106.349617 38.750000 106.040001 C 38.443970 105.709824 38.285168 105.269508 38.310001 104.820000 C 38.286858 104.326881 38.480484 103.848297 38.840000 103.510002 C 39.243382 103.177032 39.757858 103.009109 40.279999 103.040001 C 40.590675 103.047447 40.899422 103.091080 41.199997 103.169998 L 41.200001 102.660004 C 41.227573 102.389763 41.171738 102.117561 41.040001 101.880005 C 40.875477 101.727715 40.652756 101.654694 40.430000 101.680008 C 39.825546 101.705238 39.228565 101.823280 38.660000 102.030006 L 38.660000 101.029999 C 38.947075 100.871574 39.257679 100.760162 39.579998 100.699997 C 39.958096 100.619995 40.343529 100.579773 40.730000 100.579994 C 41.273796 100.532089 41.815880 100.689011 42.250000 101.019997 C 42.599232 101.394203 42.770473 101.900635 42.720001 102.409996 L 42.720001 106.349998 Z M 40.450001 105.430000 C 40.748344 105.418404 41.030972 105.293190 41.240002 105.080002 L 41.240002 104.000000 C 41.037590 103.947983 40.828915 103.924423 40.620003 103.930000 C 40.419266 103.913399 40.221497 103.986649 40.080002 104.129997 C 39.948242 104.297188 39.884007 104.507729 39.900002 104.719994 C 39.889713 104.905304 39.942593 105.088631 40.050003 105.239990 C 40.134930 105.354698 40.267380 105.424606 40.410004 105.429993 Z" fill="#232F3E"/><path d=" M 47.230000 106.349998 L 47.230000 102.650002 C 47.249313 102.407036 47.197174 102.163719 47.079998 101.950005 C 46.968670 101.793205 46.781147 101.709015 46.589996 101.730003 C 46.297966 101.739677 46.014248 101.829636 45.769997 101.990005 L 45.770000 106.349998 L 44.119999 106.349998 L 44.119999 100.720001 L 45.470001 100.720001 L 45.599998 101.230003 C 46.138031 100.833672 46.782303 100.607300 47.449997 100.580002 C 47.848465 100.553772 48.237633 100.707970 48.509998 101.000000 C 48.779728 101.347038 48.911522 101.781601 48.879997 102.220001 L 48.880001 106.349998 Z" fill="#232F3E"/><path d=" M 53.919998 106.089996 C 53.722565 106.211563 53.506275 106.299431 53.279999 106.349998 C 53.014290 106.410645 52.742538 106.440842 52.469997 106.439995 C 51.777279 106.490982 51.099342 106.222023 50.629997 105.709991 C 50.168713 105.088364 49.945229 104.322128 49.999996 103.549988 C 49.949219 102.771988 50.187847 102.002678 50.669994 101.389984 C 51.146397 100.867004 51.833824 100.587616 52.539993 100.629982 C 53.009945 100.630127 53.472969 100.743309 53.889992 100.959984 L 53.889999 101.959999 C 53.569511 101.841644 53.231564 101.777435 52.889999 101.769997 C 52.528847 101.733589 52.174179 101.884514 51.950001 102.169998 C 51.732071 102.563194 51.634689 103.011833 51.670002 103.459999 L 51.669998 103.620003 C 51.633049 104.065079 51.730595 104.511002 51.949997 104.900002 C 52.158989 105.182068 52.500584 105.333885 52.849998 105.300003 C 53.222542 105.291672 53.591026 105.220680 53.939999 105.090004 Z" fill="#232F3E"/><path d=" M 56.180000 103.919998 C 56.159252 104.324760 56.287300 104.723129 56.540001 105.040001 C 56.835567 105.286263 57.216881 105.404976 57.600002 105.370003 C 57.829250 105.364609 58.057243 105.334435 58.280003 105.280006 C 58.551529 105.230042 58.818943 105.159843 59.080002 105.070007 L 59.080002 106.070000 C 58.821762 106.217194 58.541508 106.321869 58.250000 106.379997 C 57.921474 106.451813 57.586277 106.488686 57.250000 106.489998 C 55.529999 106.489998 54.680000 105.489998 54.680000 103.540001 C 54.626961 102.755630 54.849819 101.977402 55.310001 101.340004 C 55.764652 100.816292 56.437927 100.535149 57.130001 100.580002 C 58.500000 100.580002 59.130001 101.339996 59.130001 102.870003 C 59.129128 103.206871 59.088856 103.542488 59.010002 103.870003 Z M 57.090000 101.599998 C 56.520000 101.599998 56.209999 102.059998 56.180000 102.970001 L 57.790001 102.970001 L 57.790001 102.720001 C 57.815041 102.423065 57.756134 102.125076 57.620003 101.860001 C 57.503956 101.683182 57.300861 101.583549 57.090004 101.599998 Z" fill="#232F3E"/><path d=" M 20.549999 120.349998 L 19.100000 117.519997 L 18.450001 117.519997 L 18.450001 120.349998 L 16.799999 120.349998 L 16.799999 112.720001 L 19.430000 112.720001 C 20.083439 112.689598 20.721539 112.923927 21.200001 113.370003 C 21.656876 113.834206 21.896551 114.469711 21.860001 115.120003 C 21.872398 115.585030 21.758345 116.044708 21.530001 116.450005 C 21.317995 116.822403 20.991985 117.116867 20.600000 117.290001 L 22.290001 120.349998 Z M 18.450001 116.349998 L 19.230000 116.349998 C 19.505594 116.366768 19.772787 116.251724 19.949999 116.040001 C 20.127230 115.759865 20.211243 115.430817 20.189999 115.099998 C 20.212618 114.772209 20.128412 114.445908 19.949999 114.169998 C 19.776913 113.951820 19.507929 113.832275 19.230000 113.849998 L 18.450001 113.849998 Z" fill="#232F3E"/><path d=" M 24.330000 117.919998 C 24.309250 118.324760 24.437298 118.723129 24.690001 119.040001 C 24.984474 119.288261 25.366644 119.407242 25.750000 119.370003 C 25.979200 119.363998 26.207129 119.333832 26.430000 119.280006 C 26.701252 119.228806 26.968575 119.158638 27.230000 119.070007 L 27.230000 120.070000 C 26.970980 120.215523 26.691000 120.320099 26.400000 120.379997 C 26.071476 120.451813 25.736279 120.488686 25.400000 120.489998 C 23.680000 120.489998 22.820000 119.489998 22.820000 117.540001 C 22.766962 116.755630 22.989819 115.977402 23.449999 115.340004 C 23.908688 114.815964 24.585022 114.535088 25.279999 114.580002 C 26.639999 114.580002 27.330000 115.339996 27.330000 116.870003 C 27.329126 117.206871 27.288853 117.542488 27.209999 117.870003 Z M 25.240000 115.599998 C 24.660000 115.599998 24.360001 116.059998 24.330000 116.970001 L 25.940001 116.970001 L 25.940001 116.720001 C 25.960443 116.423340 25.901779 116.126572 25.770000 115.860001 C 25.652510 115.684830 25.450441 115.585701 25.240000 115.599998 Z" fill="#232F3E"/><path d=" M 28.469999 122.610001 L 28.469999 114.720001 L 29.820000 114.720001 L 29.940001 115.199997 C 30.149097 115.010376 30.389269 114.858154 30.650000 114.750000 C 30.896505 114.643257 31.161432 114.585518 31.430000 114.580002 C 32.029720 114.551254 32.602722 114.830215 32.950001 115.320000 C 33.663048 116.678802 33.663048 118.301193 32.950001 119.659996 C 32.616516 120.164848 32.044716 120.460220 31.440001 120.439995 C 31.204954 120.438339 30.971804 120.397789 30.750000 120.319992 C 30.531116 120.239212 30.328054 120.120766 30.150000 119.969994 L 30.150000 122.610001 Z M 30.889999 115.699997 C 30.612934 115.697105 30.342522 115.784897 30.119999 115.949997 L 30.120001 119.059998 C 30.348673 119.221687 30.620050 119.312141 30.900002 119.320000 C 31.200668 119.339958 31.482702 119.173119 31.610001 118.900002 C 31.778618 118.463989 31.850279 117.996498 31.820000 117.529999 C 31.852285 117.050362 31.780653 116.569412 31.610001 116.119995 C 31.479172 115.845284 31.193523 115.678658 30.890001 115.699997 Z" fill="#232F3E"/><path d=" M 36.840000 120.489998 C 36.141232 120.527954 35.463463 120.244324 35.000000 119.720001 C 34.133984 118.392052 34.133984 116.677956 35.000000 115.349998 C 36.011749 114.331032 37.657967 114.325180 38.676933 115.336929 C 38.681305 115.341270 38.685661 115.345627 38.690002 115.349998 C 39.556019 116.677948 39.556019 118.392044 38.690002 119.720001 C 38.222557 120.244698 37.541687 120.528084 36.840004 120.489998 Z M 36.840000 119.339996 C 37.126320 119.350388 37.387558 119.177567 37.490002 118.909996 C 37.756798 118.016144 37.756798 117.063843 37.490002 116.169998 C 37.390919 115.898483 37.128895 115.721115 36.840000 115.729996 C 36.553818 115.722336 36.295326 115.900047 36.200001 116.169998 C 35.933205 117.063850 35.933205 118.016151 36.200001 118.909996 C 36.298729 119.175995 36.556416 119.349129 36.840000 119.339996 Z" fill="#232F3E"/><path d=" M 40.490002 120.349998 L 40.490002 114.720001 L 41.840000 114.720001 L 42.020000 115.449997 C 42.220947 115.209991 42.465179 115.009857 42.740002 114.860001 C 42.969921 114.734291 43.227959 114.668915 43.490002 114.669998 C 43.619812 114.660080 43.750191 114.660080 43.880001 114.669998 L 43.880001 116.000000 C 43.666885 115.986336 43.453117 115.986336 43.240002 116.000000 C 42.858166 116.000481 42.481644 116.089478 42.140003 116.260002 L 42.139999 120.370003 Z" fill="#232F3E"/><path d=" M 48.139999 120.199997 C 47.746689 120.347153 47.329933 120.421692 46.910000 120.419998 C 46.112198 120.570419 45.343510 120.045616 45.193085 119.247818 C 45.160217 119.073509 45.159172 118.894684 45.189999 118.720001 L 45.189999 115.820000 L 44.459999 115.820000 L 44.459999 114.900002 L 45.240002 114.750000 L 45.480000 113.209999 L 46.840000 113.209999 L 46.840000 114.720001 L 48.119999 114.720001 L 48.119999 115.820000 L 46.840000 115.820000 L 46.840000 118.589996 C 46.821529 118.776146 46.875221 118.962288 46.990002 119.109993 C 47.135342 119.237236 47.328529 119.295555 47.520000 119.269997 C 47.728977 119.266144 47.936893 119.239319 48.139999 119.189995 Z" fill="#232F3E"/><path d=" M 49.889999 113.809998 C 49.633858 113.830612 49.379608 113.751831 49.180000 113.589996 C 49.000805 113.439140 48.901184 113.214073 48.910000 112.979996 C 48.899643 112.745628 48.999550 112.519913 49.180000 112.369995 C 49.600441 112.064751 50.169559 112.064751 50.590000 112.369995 C 50.764263 112.523682 50.859810 112.747849 50.849998 112.979996 C 50.856991 113.211624 50.761936 113.434639 50.590000 113.589996 C 50.392971 113.749374 50.142780 113.828011 49.889999 113.809998 Z M 49.060001 120.349998 L 49.060001 114.720001 L 50.709999 114.720001 L 50.709999 120.349998 Z" fill="#232F3E"/><path d=" M 55.270000 120.349998 L 55.270000 116.650002 C 55.291222 116.408081 55.242634 116.165154 55.130001 115.950005 C 55.017307 115.794876 54.830811 115.711143 54.639999 115.730003 C 54.347790 115.738640 54.063797 115.828682 53.820000 115.990005 L 53.820000 120.349998 L 52.169998 120.349998 L 52.169998 114.720001 L 53.520000 114.720001 L 53.650002 115.230003 C 54.184372 114.833908 54.825401 114.607452 55.490002 114.580002 C 55.891434 114.553581 56.283730 114.707565 56.560001 115.000000 C 56.822021 115.350540 56.949741 115.783371 56.920002 116.220001 L 56.919998 120.349998 Z" fill="#232F3E"/><path d=" M 61.230000 119.709999 C 60.574322 120.397354 59.485580 120.423027 58.798229 119.767349 C 58.713223 119.686256 58.636745 119.596672 58.570000 119.499992 C 58.193474 118.902992 58.008537 118.205109 58.040001 117.499992 C 57.997822 116.757774 58.186455 116.020699 58.580002 115.389992 C 58.902374 114.899887 59.453476 114.609238 60.040001 114.619995 C 60.285831 114.627281 60.527527 114.685158 60.750000 114.789993 C 60.987305 114.897530 61.201313 115.050392 61.380001 115.239990 L 61.500000 114.760002 L 62.849998 114.760002 L 62.849998 120.000000 C 62.849998 121.860001 62.000000 122.790001 60.290001 122.790001 C 59.653038 122.796577 59.024353 122.645416 58.459999 122.349998 L 58.459999 121.349998 C 58.975826 121.547577 59.518696 121.665596 60.070000 121.699997 C 60.310436 121.714272 60.550720 121.669647 60.770000 121.570000 C 60.938622 121.473465 61.063869 121.316017 61.119999 121.129997 C 61.209328 120.804581 61.246456 120.467049 61.230000 120.129997 Z M 60.560001 119.110001 C 60.799152 119.098785 61.030750 119.022736 61.230000 118.889999 L 61.230000 116.000000 C 61.015659 115.838440 60.758022 115.744431 60.489998 115.730003 C 60.220806 115.727432 59.979721 115.896187 59.889999 116.150002 C 59.738274 116.565742 59.673603 117.008224 59.700001 117.450005 C 59.675819 117.886879 59.747494 118.323753 59.910000 118.730003 C 60.034294 118.972328 60.287861 119.120567 60.560001 119.110001 Z" fill="#232F3E"/></g><g id="ICONS_-_EDIT"><path d=" M 40.000000 62.169998 L 24.320000 55.680000 L 17.830000 40.000000 L 24.320000 24.320000 L 40.000000 17.830000 L 55.689999 24.320000 L 62.169998 40.000000 L 55.680000 55.680000 Z M 25.840000 54.169998 L 40.000000 60.000000 L 54.150002 54.139999 L 60.000000 40.000000 L 54.150002 25.850000 L 40.000000 20.000000 L 25.850000 25.850000 L 20.000000 40.000000 Z" fill="#FFFFFF"/><rect x="51.230000" y="43.930000" width="2.000000" height="16.660000" fill="#FFFFFF" transform="matrix(0.707107,-0.707107,0.707107,0.707107,-21.660000,52.240000)"/><rect x="26.710000" y="19.380000" width="2.000000" height="16.730000" fill="#FFFFFF" transform="matrix(0.707107,-0.707107,0.707107,0.707107,-11.500000,27.720000)"/><rect x="19.350000" y="51.240000" width="16.720000" height="2.000000" fill="#FFFFFF" transform="matrix(0.707107,-0.707107,0.707107,0.707107,-28.820000,34.890000)"/><rect x="43.890000" y="26.730000" width="16.670000" height="2.000000" fill="#FFFFFF" transform="matrix(0.707107,-0.707107,0.707107,0.707107,-4.310000,45.050000)"/><path d=" M 40.000000 47.000000 C 36.134007 47.000000 33.000000 43.865993 33.000000 40.000000 C 33.000000 36.134007 36.134007 33.000000 40.000000 33.000000 C 43.865993 33.000000 47.000000 36.134007 47.000000 40.000000 C 47.000000 43.865993 43.865993 47.000000 40.000000 47.000000 Z M 40.000000 35.000000 C 37.238575 35.000000 35.000000 37.238575 35.000000 40.000000 C 35.000000 42.761425 37.238575 45.000000 40.000000 45.000000 C 42.761425 45.000000 45.000000 42.761425 45.000000 40.000000 C 45.000000 37.238575 42.761425 35.000000 40.000000 35.000000 Z" fill="#FFFFFF"/><rect x="39.000000" y="15.000000" width="2.000000" height="4.000000" fill="#FFFFFF"/><rect x="39.000000" y="61.000000" width="2.000000" height="4.000000" fill="#FFFFFF"/><rect x="15.000000" y="39.000000" width="4.000000" height="2.000000" fill="#FFFFFF"/><rect x="61.000000" y="39.000000" width="4.000000" height="2.000000" fill="#FFFFFF"/></g></svg>