<svg version="1.1" width="80.000000" height="100.000000" viewBox="0.000000 0.000000 80.000000 100.000000" xmlns="http://www.w3.org/2000/svg" xmlns:xlink="http://www.w3.org/1999/xlink" overflow="hidden"><g id="CARDS"><rect x="1.000000" y="1.000000" width="78.000000" height="78.000000" fill="#232F3E"/><path d=" M 0.000000 0.000000 L 0.000000 80.000000 L 0.000000 80.000000 L 0.000000 100.000000 L 80.000000 100.000000 L 80.000000 80.000000 L 80.000000 80.000000 L 80.000000 0.000000 Z M 1.000000 1.000000 L 79.000000 1.000000 L 79.000000 79.000000 L 1.000000 79.000000 Z" fill="#FFFFFF"/></g><g id="TEXT_-_EDIT"><path d=" M 14.090000 92.349998 L 13.660000 90.529999 L 11.660000 90.529999 L 11.240000 92.349998 L 9.470000 92.349998 L 11.780000 84.720001 L 13.650000 84.720001 L 16.000000 92.349998 Z M 11.910000 89.430000 L 13.410000 89.430000 L 12.650000 86.269997 Z" fill="#232F3E"/><path d=" M 21.299999 92.349998 L 20.360001 86.720001 L 19.469999 92.349998 L 17.600000 92.349998 L 15.810000 84.720001 L 17.510000 84.720001 L 18.570000 90.779999 L 19.490000 85.000000 L 21.320000 85.000000 L 22.260000 90.650002 L 23.260000 84.650002 L 25.000000 84.650002 L 23.209999 92.279999 Z" fill="#232F3E"/><path d=" M 27.250000 89.000000 C 26.763565 88.764702 26.336336 88.422920 26.000000 88.000000 C 25.741234 87.643089 25.607643 87.210678 25.620001 86.769997 C 25.609802 86.355682 25.724812 85.947922 25.950001 85.599998 C 26.182125 85.261627 26.504257 84.994911 26.880001 84.830002 C 27.301117 84.641739 27.758839 84.549515 28.220001 84.560005 C 28.869570 84.563965 29.511925 84.696510 30.110001 84.950005 L 30.110001 86.120003 C 29.557974 85.918839 28.977280 85.807426 28.390001 85.790001 C 28.105068 85.774620 27.823257 85.855637 27.590002 86.020004 C 27.397282 86.175255 27.289667 86.412743 27.300001 86.660004 C 27.290497 86.863945 27.358356 87.063950 27.490002 87.220001 C 27.693888 87.428474 27.939144 87.591980 28.210001 87.700005 L 28.860001 88.019997 C 29.216574 88.186584 29.552231 88.394691 29.860001 88.639999 C 30.095289 88.820801 30.281044 89.058159 30.400002 89.330002 C 30.527578 89.619499 30.589067 89.933777 30.580002 90.250000 C 30.610264 90.886475 30.335428 91.499283 29.840002 91.900002 C 29.249495 92.337746 28.523764 92.553688 27.790003 92.510002 C 27.410204 92.509125 27.031515 92.468910 26.660004 92.389999 C 26.330891 92.324646 26.011585 92.217087 25.710003 92.070000 L 25.709999 90.919998 C 26.037161 91.026321 26.371294 91.109856 26.709999 91.169998 C 27.022730 91.235054 27.340675 91.271873 27.660000 91.279999 C 27.973755 91.304230 28.285845 91.215561 28.539999 91.029999 C 28.746395 90.853905 28.857592 90.590736 28.839998 90.320000 C 28.846087 90.107033 28.771021 89.899704 28.629999 89.739998 C 28.426229 89.543251 28.189240 89.384132 27.929998 89.269997 Z" fill="#232F3E"/><path d=" M 38.200001 92.349998 L 37.770000 90.529999 L 35.770000 90.529999 L 35.349998 92.349998 L 33.570000 92.349998 L 35.889999 84.720001 L 37.750000 84.720001 L 40.060001 92.349998 Z M 36.000000 89.430000 L 37.490002 89.430000 L 36.730000 86.269997 Z" fill="#232F3E"/><path d=" M 40.840000 92.349998 L 40.840000 86.720001 L 42.189999 86.720001 L 42.369999 87.449997 C 42.570946 87.209991 42.815178 87.009857 43.090000 86.860001 C 43.318909 86.731735 43.577633 86.666191 43.840000 86.669998 C 43.966457 86.659698 44.093544 86.659698 44.220001 86.669998 L 44.220001 88.000000 C 44.010239 87.985909 43.799767 87.985909 43.590000 88.000000 C 43.208038 87.999374 42.831261 88.088432 42.490002 88.260002 L 42.490002 92.370003 Z" fill="#232F3E"/><path d=" M 48.490002 92.199997 C 48.096691 92.347153 47.679935 92.421692 47.260002 92.419998 C 46.801819 92.445732 46.351109 92.295494 46.000004 92.000000 C 45.695267 91.638779 45.547638 91.170692 45.590004 90.699997 L 45.590000 87.800003 L 44.799999 87.800003 L 44.799999 86.900002 L 45.580002 86.750000 L 45.820000 85.209999 L 47.189999 85.209999 L 47.189999 86.720001 L 48.459999 86.720001 L 48.459999 87.820000 L 47.189999 87.820000 L 47.189999 90.589996 C 47.169701 90.774757 47.219681 90.960396 47.329998 91.109993 C 47.476585 91.234970 47.668743 91.292976 47.859997 91.269997 C 48.072235 91.265694 48.283421 91.238876 48.489998 91.189995 Z" fill="#232F3E"/><path d=" M 50.230000 85.809998 C 49.974758 85.822983 49.723183 85.745026 49.520000 85.589996 C 49.348064 85.434639 49.253006 85.211624 49.260002 84.979996 C 49.250195 84.747849 49.345737 84.523689 49.520000 84.369995 C 49.718117 84.204575 49.972519 84.122162 50.230000 84.139992 C 50.484100 84.124771 50.734444 84.207024 50.930000 84.369995 C 51.110451 84.519913 51.210358 84.745628 51.200001 84.979996 C 51.208817 85.214073 51.109196 85.439140 50.930000 85.589996 C 50.732971 85.749374 50.482780 85.828011 50.230000 85.809998 Z M 49.400002 92.349998 L 49.400002 86.720001 L 51.049999 86.720001 L 51.049999 92.349998 Z" fill="#232F3E"/><path d=" M 52.720001 92.349998 L 52.720001 87.820000 L 51.930000 87.820000 L 51.930000 86.900002 L 52.720001 86.750000 L 52.720001 86.089996 C 52.676178 85.534058 52.848064 84.982582 53.200001 84.549995 C 53.605152 84.189583 54.139286 84.009132 54.680000 84.049995 C 55.050320 84.048149 55.417355 84.119514 55.760002 84.259995 L 55.759998 85.260002 C 55.556400 85.214745 55.348564 85.191277 55.139999 85.190002 C 54.923740 85.164169 54.705738 85.221352 54.529999 85.350006 C 54.401596 85.529663 54.344566 85.750648 54.369999 85.970009 L 54.369999 86.709999 L 55.700001 86.709999 L 55.700001 87.809998 L 54.369999 87.809998 L 54.369999 92.339996 Z" fill="#232F3E"/><path d=" M 59.340000 92.349998 L 59.200001 91.839996 C 59.044743 92.042564 58.842155 92.203949 58.610001 92.309998 C 58.363094 92.427322 58.093361 92.488777 57.820000 92.489998 C 57.374985 92.501343 56.946079 92.323235 56.639999 92.000000 C 56.336586 91.668808 56.181305 91.228241 56.209999 90.779999 C 56.186855 90.286880 56.380482 89.808296 56.739998 89.470001 C 57.137272 89.133095 57.650314 88.964470 58.169998 89.000000 C 58.484028 89.006668 58.796177 89.050301 59.099998 89.129997 L 59.099998 88.620003 C 59.127571 88.349762 59.071735 88.077560 58.939999 87.840004 C 58.775475 87.687714 58.552753 87.614693 58.329998 87.640007 C 57.725544 87.665237 57.128563 87.783279 56.559998 87.990005 L 56.560001 87.000000 C 56.846565 86.840446 57.157356 86.728966 57.480000 86.669998 C 57.858017 86.589485 58.243504 86.549255 58.630001 86.549995 C 59.173798 86.502090 59.715881 86.659012 60.150002 86.989998 C 60.494774 87.366852 60.665325 87.871239 60.620003 88.379997 L 60.619999 92.320000 Z M 58.340000 91.430000 C 58.638344 91.418404 58.920971 91.293190 59.130001 91.080002 L 59.130001 90.000000 C 58.927475 89.948616 58.718887 89.925064 58.510002 89.930000 C 58.309071 89.911972 58.110714 89.985435 57.970001 90.129997 C 57.830948 90.293694 57.762604 90.505920 57.780003 90.719994 C 57.769714 90.905304 57.822594 91.088631 57.930004 91.239990 C 58.021198 91.357796 58.161041 91.427719 58.310005 91.429993 Z" fill="#232F3E"/><path d=" M 65.660004 92.089996 C 65.462570 92.211563 65.246284 92.299431 65.020004 92.349998 C 64.754295 92.410645 64.482544 92.440842 64.210007 92.439995 C 63.517288 92.490982 62.839352 92.222023 62.370007 91.709991 C 61.908722 91.088364 61.685238 90.322128 61.740005 89.549988 C 61.689228 88.771988 61.927856 88.002678 62.410004 87.389984 C 62.886406 86.867004 63.573833 86.587616 64.280006 86.629982 C 64.750244 86.627724 65.213837 86.741043 65.630005 86.959984 L 65.629997 87.959999 C 65.309509 87.841644 64.971558 87.777435 64.629997 87.769997 C 64.268845 87.733589 63.914177 87.884514 63.689999 88.169998 C 63.472069 88.563194 63.374687 89.011833 63.410000 89.459999 L 63.410000 89.620003 C 63.373051 90.065079 63.470596 90.511002 63.689999 90.900002 C 63.898991 91.182068 64.240585 91.333885 64.589996 91.300003 C 64.962540 91.291672 65.331024 91.220680 65.679993 91.090004 Z" fill="#232F3E"/><path d=" M 70.000000 92.199997 C 69.606689 92.347153 69.189934 92.421692 68.769997 92.419998 C 67.978142 92.599106 67.191017 92.102379 67.011909 91.310524 C 66.968025 91.116516 66.963974 90.915619 67.000000 90.719994 L 67.000000 87.820000 L 66.260002 87.820000 L 66.260002 86.900002 L 67.050003 86.750000 L 67.290001 85.209999 L 68.650002 85.209999 L 68.650002 86.720001 L 70.000000 86.720001 L 70.000000 87.820000 L 68.680000 87.820000 L 68.680000 90.589996 C 68.664330 90.774376 68.713875 90.958412 68.820000 91.109993 C 68.967171 91.233894 69.158852 91.291756 69.349998 91.269997 C 69.562317 91.266800 69.773621 91.239967 69.979996 91.189995 Z" fill="#232F3E"/></g><g id="ICONS_-_EDIT"><path d=" M 40.000000 65.000000 C 39.734196 65.001534 39.478718 64.897186 39.290001 64.709999 L 33.290001 58.709999 C 33.006256 58.422440 32.923405 57.992397 33.080002 57.619999 C 33.233406 57.246574 33.596298 57.002014 34.000000 57.000000 L 37.000000 57.000000 L 37.000000 53.000000 L 39.000000 53.000000 L 39.000000 58.000000 C 39.000000 58.552284 38.552284 59.000000 38.000000 59.000000 L 36.410000 59.000000 L 40.000000 62.590000 L 43.590000 59.000000 L 42.000000 59.000000 C 41.447716 59.000000 41.000000 58.552284 41.000000 58.000000 L 41.000000 53.000000 L 43.000000 53.000000 L 43.000000 57.000000 L 46.000000 57.000000 C 46.403702 57.002014 46.766598 57.246574 46.919998 57.619999 C 47.076595 57.992397 46.993744 58.422440 46.709999 58.709999 L 40.709999 64.709999 C 40.521278 64.897186 40.265800 65.001534 40.000000 65.000000 Z" fill="#FFFFFF"/><path d=" M 52.000000 52.000000 L 30.000000 52.000000 C 29.447716 52.000000 29.000000 51.552284 29.000000 51.000000 L 29.000000 23.000000 C 29.000000 22.447716 29.447716 22.000000 30.000000 22.000000 L 45.000000 22.000000 L 45.000000 24.000000 L 31.000000 24.000000 L 31.000000 50.000000 L 51.000000 50.000000 L 51.000000 30.000000 L 53.000000 30.000000 L 53.000000 51.000000 C 53.000000 51.552284 52.552284 52.000000 52.000000 52.000000 Z" fill="#FFFFFF"/><rect x="33.000000" y="34.000000" width="16.000000" height="2.000000" fill="#FFFFFF"/><rect x="33.000000" y="38.000000" width="5.000000" height="2.000000" fill="#FFFFFF"/><rect x="33.000000" y="42.000000" width="10.000000" height="2.000000" fill="#FFFFFF"/><rect x="33.000000" y="29.000000" width="8.000000" height="2.000000" fill="#FFFFFF"/><path d=" M 46.250000 64.209999 L 45.750000 62.270000 C 58.049191 59.094364 65.445290 46.549538 62.269653 34.250347 C 59.094017 21.951157 46.549191 14.555056 34.250000 17.730694 C 21.950809 20.906332 14.554708 33.451157 17.730347 45.750347 C 19.822136 53.851814 26.148535 60.178211 34.250000 62.270000 L 33.750000 64.209999 C 20.381315 60.758221 12.342074 47.122540 15.793854 33.753853 C 19.245634 20.385168 32.881313 12.345927 46.250000 15.797707 C 59.618687 19.249487 67.657928 32.885166 64.206146 46.253853 C 61.932461 55.059795 55.055943 61.936314 46.250000 64.209999 Z" fill="#FFFFFF"/><path d=" M 52.000000 31.000000 L 45.000000 31.000000 C 44.447716 31.000000 44.000000 30.552284 44.000000 30.000000 L 44.000000 23.000000 C 44.002014 22.596298 44.246574 22.233404 44.619999 22.080000 C 44.992397 21.923403 45.422440 22.006256 45.709999 22.289999 L 52.709999 29.290001 C 52.993744 29.577562 53.076595 30.007605 52.919998 30.380001 C 52.766594 30.753428 52.403702 30.997986 52.000000 31.000002 Z M 46.000000 29.000000 L 49.590000 29.000000 L 46.000000 25.410000 Z" fill="#FFFFFF"/></g></svg>