<svg version="1.1" width="80.000000" height="130.000000" viewBox="0.000000 0.000000 80.000000 130.000000" xmlns="http://www.w3.org/2000/svg" xmlns:xlink="http://www.w3.org/1999/xlink" overflow="hidden"><g id="CARDS"><rect x="1.000000" y="1.000000" width="78.000000" height="78.000000" fill="#232F3E"/><path d=" M 0.000000 0.000000 L 0.000000 80.000000 L 0.000000 80.000000 L 0.000000 130.000000 L 80.000000 130.000000 L 80.000000 80.000000 L 80.000000 80.000000 L 80.000000 0.000000 Z M 1.000000 1.000000 L 79.000000 1.000000 L 79.000000 79.000000 L 1.000000 79.000000 Z" fill="#FFFFFF"/></g><g id="TEXT_-_EDIT"><path d=" M 33.689999 92.349998 L 33.250000 90.529999 L 31.250000 90.529999 L 30.830000 92.349998 L 29.059999 92.349998 L 31.370001 84.720001 L 33.240002 84.720001 L 35.540001 92.349998 Z M 31.510000 89.430000 L 33.000000 89.430000 L 32.240002 86.269997 Z" fill="#232F3E"/><path d=" M 40.889999 92.349998 L 40.000000 86.720001 L 39.110001 92.349998 L 37.189999 92.349998 L 35.410000 84.720001 L 37.110001 84.720001 L 38.169998 90.779999 L 39.080002 85.000000 L 40.919998 85.000000 L 41.860001 90.650002 L 42.860001 84.650002 L 44.520000 84.650002 L 42.740002 92.279999 Z" fill="#232F3E"/><path d=" M 46.840000 89.000000 C 46.345402 88.768761 45.910801 88.426559 45.570000 88.000000 C 45.307678 87.644348 45.170536 87.211830 45.180000 86.769997 C 45.168892 86.354126 45.287739 85.945145 45.520000 85.599998 C 45.745701 85.259720 46.065289 84.992241 46.439999 84.830002 C 46.861813 84.643929 47.319042 84.551804 47.779999 84.560005 C 48.429764 84.562088 49.072483 84.694710 49.669998 84.950005 L 49.669998 86.120003 C 49.134098 85.923050 48.570534 85.811684 48.000000 85.790001 C 47.718163 85.774521 47.439480 85.855652 47.209999 86.020004 C 47.013199 86.172058 46.904575 86.411781 46.919998 86.660004 C 46.912312 86.862022 46.976040 87.060295 47.099998 87.220001 C 47.307770 87.423737 47.552021 87.586571 47.820000 87.700005 L 48.470001 88.019997 C 48.826054 88.187546 49.161602 88.395592 49.470001 88.639999 C 49.698788 88.827263 49.883213 89.062912 50.010002 89.330002 C 50.129375 89.621704 50.187252 89.934906 50.180000 90.250000 C 50.210262 90.886475 49.935429 91.499283 49.439999 91.900002 C 48.864475 92.329575 48.157295 92.545265 47.439999 92.510002 C 47.060139 92.510231 46.681335 92.470001 46.309998 92.389999 C 45.964050 92.327736 45.627823 92.220139 45.309998 92.070000 L 45.310001 90.919998 C 45.637497 91.025146 45.971550 91.108665 46.310001 91.169998 C 46.639122 91.238113 46.973946 91.274940 47.310001 91.279999 C 47.623581 91.302475 47.935078 91.213982 48.190002 91.029999 C 48.396397 90.853905 48.507595 90.590736 48.490002 90.320000 C 48.496090 90.107033 48.421024 89.899704 48.280003 89.739998 C 48.072327 89.543411 47.832092 89.384384 47.570004 89.269997 Z" fill="#232F3E"/><path d=" M 20.870001 106.129997 C 20.305159 106.360497 19.700033 106.476082 19.090000 106.469994 C 16.843334 106.470001 15.720000 105.169998 15.720000 102.570000 C 15.648548 101.512779 15.961020 100.465294 16.600000 99.620003 C 17.248503 98.920914 18.178780 98.553215 19.130001 98.620003 C 19.693499 98.620705 20.252317 98.722313 20.780001 98.920006 L 20.780001 100.129997 C 20.308504 99.991577 19.821186 99.914284 19.330000 99.899994 C 18.790756 99.856819 18.265545 100.085663 17.930000 100.509995 C 17.593435 101.094772 17.440155 101.767120 17.490000 102.439995 L 17.490000 102.690002 C 17.436974 103.352310 17.586966 104.015060 17.920000 104.590004 C 18.245747 105.015533 18.766039 105.245522 19.299999 105.200005 C 19.831459 105.172783 20.358137 105.085564 20.869999 104.940002 Z" fill="#232F3E"/><path d=" M 23.090000 103.919998 C 23.078793 104.323456 23.205812 104.718628 23.450001 105.040001 C 23.745565 105.286263 24.126881 105.404976 24.510000 105.370003 C 24.739248 105.364609 24.967241 105.334435 25.190001 105.280006 C 25.461527 105.230042 25.728939 105.159843 25.990000 105.070007 L 25.990000 106.070000 C 25.731758 106.217194 25.451508 106.321869 25.160000 106.379997 C 24.831476 106.451813 24.496279 106.488686 24.160000 106.489998 C 22.450001 106.489998 21.590000 105.489998 21.590000 103.540001 C 21.536963 102.755630 21.759819 101.977402 22.219999 101.340004 C 22.674650 100.816292 23.347925 100.535149 24.039999 100.580002 C 25.410000 100.580002 26.090000 101.339996 26.090000 102.870003 C 26.089127 103.206871 26.048853 103.542488 25.969999 103.870003 Z M 24.000000 101.599998 C 23.420000 101.599998 23.110001 102.059998 23.080000 102.970001 L 24.700001 102.970001 L 24.700001 102.720001 C 24.720444 102.423340 24.661779 102.126572 24.530001 101.860001 C 24.411137 101.686409 24.210033 101.587753 24.000000 101.599998 Z" fill="#232F3E"/><path d=" M 27.240000 106.349998 L 27.240000 100.720001 L 28.580000 100.720001 L 28.770000 101.449997 C 28.969730 101.212708 29.210157 101.012917 29.480000 100.860001 C 29.713049 100.733055 29.974628 100.667656 30.240000 100.669998 L 30.620001 100.669998 L 30.620001 102.000000 C 30.406900 101.985909 30.193102 101.985909 29.980001 102.000000 C 29.601374 102.000565 29.228117 102.089600 28.890001 102.260002 L 28.889999 106.370003 Z" fill="#232F3E"/><path d=" M 34.880001 106.199997 C 34.489895 106.346176 34.076595 106.420708 33.660000 106.419998 C 33.184669 106.463928 32.710991 106.320389 32.340000 106.019997 C 32.039146 105.656647 31.892038 105.190201 31.930000 104.719994 L 31.930000 101.820000 L 31.200001 101.820000 L 31.200001 100.900002 L 31.980000 100.750000 L 32.220001 99.209999 L 33.580002 99.209999 L 33.580002 100.720001 L 34.860001 100.720001 L 34.860001 101.820000 L 33.580002 101.820000 L 33.580002 104.589996 C 33.561531 104.776146 33.615223 104.962288 33.730003 105.109993 C 33.875343 105.237236 34.068531 105.295555 34.260002 105.269997 C 34.468979 105.266144 34.676895 105.239319 34.880001 105.189995 Z" fill="#232F3E"/><path d=" M 36.630001 99.809998 C 36.374538 99.824768 36.122356 99.746628 35.920002 99.589996 C 35.743275 99.438095 35.647194 99.212677 35.660004 98.979996 C 35.645622 98.747040 35.741989 98.520950 35.920002 98.369995 C 36.340443 98.064751 36.909561 98.064751 37.330002 98.369995 C 37.508018 98.520950 37.604385 98.747040 37.590000 98.979996 C 37.602810 99.212677 37.506729 99.438095 37.330002 99.589996 C 37.132973 99.749374 36.882782 99.828011 36.630001 99.809998 Z M 35.799999 106.349998 L 35.799999 100.720001 L 37.450001 100.720001 L 37.450001 106.349998 Z" fill="#232F3E"/><path d=" M 39.110001 106.349998 L 39.110001 101.820000 L 38.330002 101.820000 L 38.330002 100.900002 L 39.110001 100.750000 L 39.110001 100.089996 C 39.069714 99.545418 39.229740 99.004875 39.560001 98.570000 C 39.909317 98.203087 40.404808 98.012230 40.910000 98.050003 C 41.254070 98.041336 41.595730 98.109673 41.910000 98.250000 L 41.910000 99.250000 C 41.767296 99.231010 41.622704 99.231010 41.480000 99.250000 C 41.291725 99.226089 41.102264 99.284386 40.959999 99.410004 C 40.843658 99.594757 40.790977 99.812500 40.809998 100.030006 L 40.810001 100.769997 L 44.189999 100.769997 L 44.189999 106.400002 L 42.490002 106.400002 L 42.490002 101.870003 L 40.759998 101.870003 L 40.759998 106.400002 Z M 43.320000 99.809998 C 43.063858 99.830612 42.809608 99.751831 42.610001 99.589996 C 42.430805 99.439140 42.331184 99.214073 42.340000 98.979996 C 42.329643 98.745628 42.429550 98.519913 42.610001 98.369995 C 43.030441 98.064751 43.599560 98.064751 44.020000 98.369995 C 44.194263 98.523682 44.289810 98.747849 44.279999 98.979996 C 44.286991 99.211624 44.191936 99.434639 44.020000 99.589996 C 43.822971 99.749374 43.572781 99.828011 43.320000 99.809998 Z" fill="#232F3E"/><path d=" M 49.230000 106.089996 C 49.033363 106.213127 48.816799 106.301109 48.590000 106.349998 C 48.327774 106.411209 48.059269 106.441414 47.790001 106.439995 C 47.094566 106.489639 46.414150 106.221146 45.940002 105.709991 C 45.486225 105.085075 45.266747 104.320442 45.320004 103.549988 C 45.269226 102.771988 45.507854 102.002678 45.990002 101.389984 C 46.466404 100.867004 47.153831 100.587616 47.860001 100.629982 C 48.329952 100.630127 48.792976 100.743309 49.209999 100.959984 L 49.209999 101.959999 C 48.889462 101.841820 48.551544 101.777618 48.209999 101.769997 C 47.851944 101.735214 47.501011 101.886154 47.279999 102.169998 C 47.062069 102.563194 46.964687 103.011833 47.000000 103.459999 L 47.000000 103.620003 C 46.963051 104.065079 47.060596 104.511002 47.279999 104.900002 C 47.488991 105.182068 47.830585 105.333885 48.180000 105.300003 C 48.549381 105.292480 48.914715 105.221443 49.260002 105.090004 Z" fill="#232F3E"/><path d=" M 53.180000 106.349998 L 53.040001 105.839996 C 52.886902 106.044678 52.683723 106.206528 52.450001 106.309998 C 52.206253 106.426201 51.940022 106.487640 51.670002 106.489998 C 51.230824 106.513031 50.802322 106.349617 50.490002 106.040001 C 50.183971 105.709824 50.025169 105.269508 50.050003 104.820000 C 50.026859 104.326881 50.220486 103.848297 50.580002 103.510002 C 50.972317 103.167412 51.479362 102.985298 52.000000 103.000000 C 52.310677 103.007446 52.619423 103.051079 52.919998 103.129997 L 52.919998 102.620003 C 52.947571 102.349762 52.891735 102.077560 52.759998 101.840004 C 52.595474 101.687714 52.372753 101.614693 52.149998 101.640007 C 51.545544 101.665237 50.948563 101.783279 50.379997 101.990005 L 50.380001 100.989998 C 50.666565 100.830444 50.977356 100.718964 51.299999 100.659996 C 51.678017 100.579483 52.063503 100.539253 52.450001 100.539993 C 53.006428 100.490013 53.560921 100.654572 54.000000 100.999992 C 54.344772 101.376846 54.515324 101.881233 54.470001 102.389992 L 54.470001 106.330002 Z M 52.180000 105.430000 C 52.478344 105.418404 52.760971 105.293190 52.970001 105.080002 L 52.970001 104.000000 C 52.767590 103.947983 52.558914 103.924423 52.350002 103.930000 C 52.149265 103.913399 51.951496 103.986649 51.810001 104.129997 C 51.674664 104.295738 51.606815 104.506424 51.620003 104.719994 C 51.608284 104.907021 51.665169 105.091904 51.780003 105.239990 C 51.867077 105.357422 52.003834 105.427643 52.150002 105.429993 Z" fill="#232F3E"/><path d=" M 58.900002 106.199997 C 58.506233 106.345474 58.089783 106.419960 57.670002 106.419998 C 57.194672 106.463928 56.720993 106.320389 56.350002 106.019997 C 56.049149 105.656647 55.902039 105.190201 55.940002 104.719994 L 55.939999 101.820000 L 55.209999 101.820000 L 55.209999 100.900002 L 55.990002 100.750000 L 56.230000 99.209999 L 57.590000 99.209999 L 57.590000 100.720001 L 58.869999 100.720001 L 58.869999 101.820000 L 57.590000 101.820000 L 57.590000 104.589996 C 57.571529 104.776146 57.625221 104.962288 57.740002 105.109993 C 57.885342 105.237236 58.078529 105.295555 58.270000 105.269997 C 58.482239 105.265694 58.693424 105.238876 58.900002 105.189995 Z" fill="#232F3E"/><path d=" M 61.000000 103.919998 C 60.988792 104.323456 61.115814 104.718628 61.360001 105.040001 C 61.655567 105.286263 62.036880 105.404976 62.420002 105.370003 C 62.649250 105.364609 62.877243 105.334435 63.100002 105.280006 C 63.371529 105.230042 63.638943 105.159843 63.900002 105.070007 L 63.900002 106.070000 C 63.641762 106.217194 63.361507 106.321869 63.070000 106.379997 C 62.741501 106.451958 62.406288 106.488831 62.070000 106.489998 C 60.349998 106.489998 59.490002 105.489998 59.490002 103.540001 C 59.436962 102.755630 59.659821 101.977402 60.120003 101.340004 C 60.577766 100.814682 61.254768 100.533524 61.950005 100.580002 C 63.310001 100.580002 63.950001 101.339996 63.950001 102.870003 C 63.949127 103.206871 63.908855 103.542488 63.830002 103.870003 Z M 61.919998 101.599998 C 61.340000 101.599998 61.029999 102.059998 61.000000 102.970001 L 62.619999 102.970001 L 62.619999 102.720001 C 62.640442 102.423340 62.581779 102.126572 62.450001 101.860001 C 62.329277 101.683205 62.123497 101.584122 61.910000 101.599998 Z" fill="#232F3E"/><path d=" M 25.510000 120.349998 L 25.510000 115.000000 L 24.100000 118.459999 L 22.670000 118.459999 L 21.270000 115.000000 L 21.270000 120.320000 L 19.770000 120.320000 L 19.770000 112.690002 L 21.690001 112.690002 L 23.420000 117.000000 L 25.139999 112.730003 L 27.000000 112.730003 L 27.000000 120.360001 Z" fill="#232F3E"/><path d=" M 31.450001 120.349998 L 31.309999 119.839996 C 31.154741 120.042564 30.952152 120.203949 30.719999 120.309998 C 30.473093 120.427322 30.203360 120.488777 29.929998 120.489998 C 29.491016 120.511780 29.063004 120.348557 28.749998 120.040001 C 28.446587 119.708809 28.291304 119.268242 28.319998 118.820000 C 28.296856 118.326881 28.490480 117.848297 28.849998 117.510002 C 29.247272 117.173096 29.760315 117.004471 30.279999 117.040001 C 30.594028 117.046669 30.906178 117.090302 31.209999 117.169998 L 31.209999 116.660004 C 31.237572 116.389763 31.181736 116.117561 31.049999 115.880005 C 30.885477 115.727715 30.662752 115.654694 30.439999 115.680008 C 29.835545 115.705238 29.238565 115.823280 28.669998 116.030006 L 28.670000 115.029999 C 28.953470 114.871468 29.260803 114.760017 29.580000 114.699997 C 29.961481 114.620018 30.350225 114.579803 30.740000 114.579994 C 31.283798 114.532089 31.825882 114.689011 32.259998 115.019997 C 32.604771 115.396851 32.775322 115.901237 32.730000 116.409996 L 32.730000 120.349998 Z M 30.450001 119.430000 C 30.748346 119.418404 31.030972 119.293190 31.240002 119.080002 L 31.240000 118.000000 C 31.034168 117.948074 30.822208 117.924522 30.610001 117.930000 C 30.412252 117.913605 30.217621 117.987053 30.080000 118.129997 C 29.940947 118.293694 29.872604 118.505920 29.889999 118.719994 C 29.879709 118.905304 29.932592 119.088631 30.039999 119.239990 C 30.131195 119.357796 30.271034 119.427719 30.419998 119.429993 Z" fill="#232F3E"/><path d=" M 37.230000 120.349998 L 37.230000 116.650002 C 37.251221 116.408081 37.202633 116.165154 37.090000 115.950005 C 36.977306 115.794876 36.790810 115.711143 36.599998 115.730003 C 36.307789 115.738640 36.023796 115.828682 35.779999 115.990005 L 35.779999 120.349998 L 34.130001 120.349998 L 34.130001 114.720001 L 35.480000 114.720001 L 35.610001 115.230003 C 36.144371 114.833908 36.785400 114.607452 37.450001 114.580002 C 37.851433 114.553581 38.243729 114.707565 38.520000 115.000000 C 38.782021 115.350540 38.909740 115.783371 38.880001 116.220001 L 38.880001 120.349998 Z" fill="#232F3E"/><path d=" M 43.189999 120.349998 L 43.040001 119.839996 C 42.886902 120.044678 42.683723 120.206528 42.450001 120.309998 C 42.206253 120.426201 41.940022 120.487640 41.670002 120.489998 C 41.230824 120.513031 40.802322 120.349617 40.490002 120.040001 C 40.183971 119.709824 40.025169 119.269508 40.050003 118.820000 C 40.026859 118.326881 40.220486 117.848297 40.580002 117.510002 C 40.972820 117.168266 41.479519 116.986282 42.000000 117.000000 C 42.310768 117.006325 42.619648 117.049973 42.919998 117.129997 L 42.919998 116.620003 C 42.947571 116.349762 42.891735 116.077560 42.759998 115.840004 C 42.595474 115.687714 42.372753 115.614693 42.149998 115.640007 C 41.545544 115.665237 40.948563 115.783279 40.379997 115.990005 L 40.380001 114.989998 C 40.667076 114.831573 40.977680 114.720161 41.299999 114.659996 C 41.678097 114.579994 42.063530 114.539772 42.450001 114.539993 C 43.006428 114.490013 43.560921 114.654572 44.000000 114.999992 C 44.349232 115.374199 44.520473 115.880630 44.470001 116.389992 L 44.470001 120.330002 Z M 42.189999 119.430000 C 42.488342 119.418404 42.770969 119.293190 42.980000 119.080002 L 42.980000 118.000000 C 42.777588 117.947983 42.568913 117.924423 42.360001 117.930000 C 42.159264 117.913399 41.961494 117.986649 41.820000 118.129997 C 41.688240 118.297188 41.624004 118.507729 41.639999 118.719994 C 41.629711 118.905304 41.682590 119.088631 41.790001 119.239990 C 41.874928 119.354698 42.007378 119.424606 42.150002 119.429993 Z" fill="#232F3E"/><path d=" M 48.759998 119.709999 C 48.448067 120.047455 48.009537 120.239540 47.549999 120.239998 C 46.974960 120.256142 46.431648 119.976936 46.110001 119.500000 C 45.733475 118.903000 45.548538 118.205116 45.580002 117.500000 C 45.537823 116.757782 45.726456 116.020706 46.120003 115.389999 C 46.439709 114.896965 46.992565 114.605385 47.580002 114.620003 C 47.825832 114.627289 48.067528 114.685165 48.290001 114.790001 C 48.527306 114.897537 48.741314 115.050400 48.920002 115.239998 L 49.040001 114.760002 L 50.389999 114.760002 L 50.389999 120.000000 C 50.389999 121.860001 49.540001 122.790001 47.820000 122.790001 C 47.182510 122.777115 46.557785 122.608925 46.000000 122.300003 L 46.000000 121.300003 C 46.519222 121.497826 47.065422 121.615837 47.619999 121.650002 C 47.860435 121.664276 48.100719 121.619652 48.320000 121.520004 C 48.488621 121.423470 48.613869 121.266022 48.669998 121.080002 C 48.754818 120.753838 48.788555 120.416504 48.769997 120.080002 Z M 48.099998 119.110001 C 48.336285 119.100060 48.565006 119.023819 48.759998 118.889999 L 48.759998 116.000000 C 48.549332 115.838676 48.294937 115.744583 48.029999 115.730003 C 47.760807 115.727432 47.519722 115.896187 47.430000 116.150002 C 47.274036 116.564812 47.205929 117.007492 47.230000 117.450005 C 47.205818 117.886879 47.277493 118.323753 47.439999 118.730003 C 47.565819 118.975739 47.824314 119.124565 48.099998 119.110001 Z" fill="#232F3E"/><path d=" M 53.000000 117.919998 C 52.979252 118.324760 53.107300 118.723129 53.360001 119.040001 C 53.655567 119.286263 54.036880 119.404976 54.420002 119.370003 C 54.649204 119.363998 54.877132 119.333832 55.100002 119.280006 C 55.371529 119.230042 55.638943 119.159843 55.900002 119.070007 L 55.900002 120.070000 C 55.641762 120.217194 55.361507 120.321869 55.070000 120.379997 C 54.741474 120.451813 54.406277 120.488686 54.070000 120.489998 C 52.349998 120.489998 51.490002 119.489998 51.490002 117.540001 C 51.439846 116.754425 51.666275 115.976082 52.130001 115.340004 C 52.584652 114.816292 53.257927 114.535149 53.950001 114.580002 C 55.320000 114.580002 55.950001 115.339996 55.950001 116.870003 C 55.949127 117.206871 55.908855 117.542488 55.830002 117.870003 Z M 53.910000 115.599998 C 53.340000 115.599998 53.029999 116.059998 53.000000 116.970001 L 54.610001 116.970001 L 54.610001 116.720001 C 54.635040 116.423065 54.576134 116.125076 54.440002 115.860001 C 54.328175 115.694191 54.139965 115.596321 53.940002 115.599998 Z" fill="#232F3E"/><path d=" M 57.169998 120.349998 L 57.169998 114.720001 L 58.520000 114.720001 L 58.700001 115.449997 C 58.900948 115.209991 59.145180 115.009857 59.420002 114.860001 C 59.649921 114.734291 59.907959 114.668915 60.170002 114.669998 C 60.299812 114.660080 60.430191 114.660080 60.560001 114.669998 L 60.560001 116.000000 C 60.346886 115.986336 60.133118 115.986336 59.920002 116.000000 C 59.538166 116.000481 59.161644 116.089478 58.820004 116.260002 L 58.820000 120.370003 Z" fill="#232F3E"/></g><g id="ICONS_-_EDIT"><rect x="34.970000" y="51.000000" width="19.000000" height="2.000000" fill="#FFFFFF"/><rect x="25.970000" y="51.000000" width="5.000000" height="2.000000" fill="#FFFFFF"/><rect x="34.970000" y="55.000000" width="12.000000" height="2.000000" fill="#FFFFFF"/><rect x="25.970000" y="55.000000" width="5.000000" height="2.000000" fill="#FFFFFF"/><rect x="15.970000" y="23.000000" width="48.000000" height="2.000000" fill="#FFFFFF"/><path d=" M 64.000000 63.000000 L 59.000000 63.000000 L 59.000000 61.000000 L 63.000000 61.000000 L 63.000000 19.000000 L 17.000000 19.000000 L 17.000000 61.000000 L 49.000000 61.000000 L 49.000000 63.000000 L 16.000000 63.000000 C 15.447715 63.000000 15.000000 62.552284 15.000000 62.000000 L 15.000000 18.000000 C 15.000000 17.447716 15.447715 17.000000 16.000000 17.000000 L 64.000000 17.000000 C 64.552284 17.000000 65.000000 17.447716 65.000000 18.000000 L 65.000000 62.000000 C 65.000000 62.552284 64.552284 63.000000 64.000000 63.000000 Z" fill="#FFFFFF"/><path d=" M 34.189999 47.090000 C 33.981590 47.088654 33.778809 47.022224 33.609997 46.900002 C 33.293213 46.673073 33.137104 46.282799 33.209995 45.900002 L 34.209999 39.980000 L 29.900000 35.779999 C 29.507660 35.391300 29.504709 34.758141 29.893410 34.365799 C 30.046234 34.211544 30.245115 34.111221 30.459999 34.079998 L 36.400002 33.209999 L 39.060001 27.820000 C 39.226662 27.479834 39.571217 27.263035 39.950001 27.260000 L 39.950001 27.260000 C 40.328785 27.263035 40.673344 27.479836 40.840000 27.820000 L 43.509998 33.209999 L 49.450001 34.060001 C 49.997955 34.129025 50.386208 34.629181 50.317184 35.177135 C 50.287525 35.412590 50.175098 35.629818 50.000000 35.790001 L 45.730000 40.000000 L 46.730000 45.919998 C 46.802891 46.302795 46.646782 46.693069 46.329998 46.919998 C 46.028091 47.135681 45.631584 47.166481 45.299999 47.000000 L 40.000000 44.169998 L 34.660000 47.000000 C 34.512924 47.067596 34.351643 47.098480 34.189999 47.090000 Z M 32.759998 35.779999 L 36.000000 38.930000 C 36.234928 39.158154 36.343258 39.486877 36.290001 39.810001 L 35.529999 44.259998 L 39.529999 42.160000 C 39.821140 42.007080 40.168858 42.007080 40.459999 42.160000 L 44.459999 44.250000 L 43.700001 39.810001 C 43.640739 39.485306 43.745510 39.152279 43.980000 38.920002 L 47.209999 35.770000 L 42.750000 35.130001 C 42.424767 35.081150 42.144348 34.875511 42.000000 34.580002 L 40.000000 30.580000 L 38.000000 34.630001 C 37.853157 34.921658 37.573170 35.123249 37.250000 35.170002 Z" fill="#FFFFFF"/></g></svg>