<svg version="1.1" width="80.000000" height="115.000000" viewBox="0.000000 0.000000 80.000000 115.000000" xmlns="http://www.w3.org/2000/svg" xmlns:xlink="http://www.w3.org/1999/xlink" overflow="hidden"><g id="CARDS"><rect x="1.000000" y="1.000000" width="78.000000" height="78.000000" fill="#232F3E"/><path d=" M 0.000000 0.000000 L 0.000000 80.000000 L 0.000000 80.000000 L 0.000000 115.000000 L 80.000000 115.000000 L 80.000000 80.000000 L 80.000000 80.000000 L 80.000000 0.000000 Z M 1.000000 1.000000 L 79.000000 1.000000 L 79.000000 79.000000 L 1.000000 79.000000 Z" fill="#FFFFFF"/></g><g id="TEXT_-_EDIT"><path d=" M 33.689999 92.349998 L 33.250000 90.529999 L 31.250000 90.529999 L 30.830000 92.349998 L 29.059999 92.349998 L 31.370001 84.720001 L 33.240002 84.720001 L 35.540001 92.349998 Z M 31.510000 89.430000 L 33.000000 89.430000 L 32.240002 86.269997 Z" fill="#232F3E"/><path d=" M 40.889999 92.349998 L 40.000000 86.720001 L 39.110001 92.349998 L 37.189999 92.349998 L 35.410000 84.720001 L 37.110001 84.720001 L 38.169998 90.779999 L 39.080002 85.000000 L 40.919998 85.000000 L 41.860001 90.650002 L 42.860001 84.650002 L 44.520000 84.650002 L 42.740002 92.279999 Z" fill="#232F3E"/><path d=" M 46.840000 89.000000 C 46.345402 88.768761 45.910801 88.426559 45.570000 88.000000 C 45.307678 87.644348 45.170536 87.211830 45.180000 86.769997 C 45.168892 86.354126 45.287739 85.945145 45.520000 85.599998 C 45.745701 85.259720 46.065289 84.992241 46.439999 84.830002 C 46.861813 84.643929 47.319042 84.551804 47.779999 84.560005 C 48.429764 84.562088 49.072483 84.694710 49.669998 84.950005 L 49.669998 86.120003 C 49.134098 85.923050 48.570534 85.811684 48.000000 85.790001 C 47.718163 85.774521 47.439480 85.855652 47.209999 86.020004 C 47.013199 86.172058 46.904575 86.411781 46.919998 86.660004 C 46.912312 86.862022 46.976040 87.060295 47.099998 87.220001 C 47.307770 87.423737 47.552021 87.586571 47.820000 87.700005 L 48.470001 88.019997 C 48.826054 88.187546 49.161602 88.395592 49.470001 88.639999 C 49.698788 88.827263 49.883213 89.062912 50.010002 89.330002 C 50.129375 89.621704 50.187252 89.934906 50.180000 90.250000 C 50.210262 90.886475 49.935429 91.499283 49.439999 91.900002 C 48.864475 92.329575 48.157295 92.545265 47.439999 92.510002 C 47.060139 92.510231 46.681335 92.470001 46.309998 92.389999 C 45.980469 92.326210 45.660961 92.218590 45.359997 92.070000 L 45.360001 90.919998 C 45.687019 91.026825 46.021187 91.110367 46.360001 91.169998 C 46.689121 91.238113 47.023945 91.274940 47.360001 91.279999 C 47.673580 91.302475 47.985077 91.213982 48.240002 91.029999 C 48.446396 90.853905 48.557594 90.590736 48.540001 90.320000 C 48.546089 90.107033 48.471024 89.899704 48.330002 89.739998 C 48.122326 89.543411 47.882092 89.384384 47.620003 89.269997 Z" fill="#232F3E"/><path d=" M 20.799999 106.129997 C 20.231667 106.360519 19.623272 106.476074 19.009998 106.469994 C 16.763332 106.470001 15.640000 105.169998 15.640000 102.570000 C 15.568548 101.512779 15.881020 100.465294 16.520000 99.620003 C 17.169338 98.922134 18.099005 98.554680 19.050001 98.620003 C 19.613499 98.620705 20.172318 98.722313 20.700001 98.920006 L 20.700001 100.129997 C 20.228653 99.990929 19.741249 99.913612 19.250000 99.899994 C 18.713251 99.854752 18.190096 100.084335 17.860001 100.509995 C 17.515202 101.091789 17.358070 101.765701 17.410000 102.439995 L 17.410000 102.690002 C 17.361959 103.351952 17.511621 104.013245 17.840000 104.590004 C 18.165747 105.015533 18.686039 105.245522 19.219999 105.200005 C 19.754686 105.172272 20.284620 105.085068 20.799999 104.940002 Z" fill="#232F3E"/><path d=" M 24.190001 106.250000 C 23.869802 106.366165 23.530457 106.420456 23.190001 106.410004 C 22.794247 106.441948 22.403025 106.307922 22.110001 106.040001 C 21.850100 105.727486 21.724291 105.324898 21.760000 104.919998 L 21.760000 98.209999 L 23.410000 98.209999 L 23.410000 104.750000 C 23.397121 104.887192 23.421295 105.025330 23.480000 105.150002 C 23.560696 105.239822 23.680143 105.284615 23.799999 105.270004 C 23.916470 105.279564 24.033527 105.279564 24.150000 105.270004 Z" fill="#232F3E"/><path d=" M 27.309999 106.489998 C 26.611233 106.527954 25.933464 106.244324 25.469999 105.720001 C 24.603985 104.392052 24.603985 102.677956 25.469999 101.349998 C 26.481747 100.331032 28.127966 100.325180 29.146931 101.336929 C 29.151302 101.341270 29.155659 101.345627 29.159998 101.349998 C 30.026012 102.677948 30.026012 104.392044 29.159998 105.720001 C 28.692551 106.244698 28.011684 106.528084 27.309998 106.489998 Z M 27.309999 105.339996 C 27.596319 105.350388 27.857557 105.177567 27.959999 104.909996 C 28.226797 104.016144 28.226797 103.063843 27.959999 102.169998 C 27.824633 101.813774 27.426121 101.634735 27.069897 101.770103 C 26.885584 101.840141 26.740038 101.985687 26.669998 102.169998 C 26.403200 103.063850 26.403200 104.016151 26.669998 104.909996 C 26.768726 105.175995 27.026415 105.349129 27.309998 105.339996 Z" fill="#232F3E"/><path d=" M 34.230000 106.349998 L 34.099998 105.839996 C 33.583740 106.234428 32.959057 106.461273 32.309998 106.489998 C 31.927650 106.511559 31.557369 106.352333 31.309998 106.059998 C 31.059740 105.696587 30.936686 105.260620 30.959997 104.820000 L 30.959999 100.720001 L 32.610001 100.720001 L 32.610001 104.339996 C 32.589489 104.603439 32.634136 104.867889 32.740002 105.109993 C 32.832516 105.267639 33.008038 105.357353 33.190002 105.339996 C 33.462059 105.331230 33.725868 105.244446 33.950001 105.089996 L 33.950001 100.720001 L 35.599998 100.720001 L 35.599998 106.349998 Z" fill="#232F3E"/><path d=" M 40.250000 106.349998 L 40.119999 105.860001 C 39.939529 106.042419 39.725639 106.188408 39.489998 106.290001 C 39.262375 106.387421 39.017590 106.438423 38.769997 106.440002 C 38.171471 106.464928 37.601788 106.181969 37.259998 105.690002 C 36.865479 105.052330 36.676933 104.308617 36.719997 103.560005 C 36.675648 102.789658 36.871300 102.024506 37.279999 101.370003 C 37.617569 100.858131 38.197205 100.558846 38.809998 100.580002 C 39.025467 100.590401 39.238010 100.634262 39.439999 100.709999 C 39.658535 100.789223 39.864105 100.900436 40.049999 101.040001 L 40.049999 98.209999 L 41.700001 98.209999 L 41.700001 106.349998 Z M 39.330002 105.349998 C 39.586094 105.346977 39.835957 105.270630 40.050003 105.129997 L 40.049999 102.000000 C 39.812630 101.840775 39.535625 101.750748 39.250000 101.739998 C 38.956486 101.731621 38.688946 101.907326 38.580002 102.180000 C 38.413647 102.623573 38.342110 103.097084 38.370003 103.570000 C 38.341812 104.034950 38.420490 104.500175 38.600002 104.930000 C 38.746845 105.190842 39.031548 105.342941 39.330002 105.320000 Z" fill="#232F3E"/><path d=" M 47.250000 106.349998 L 47.250000 103.050003 L 44.919998 103.050003 L 44.919998 106.349998 L 43.230000 106.349998 L 43.230000 98.720001 L 44.919998 98.720001 L 44.919998 101.870003 L 47.250000 101.870003 L 47.250000 98.720001 L 48.939999 98.720001 L 48.939999 106.349998 Z" fill="#232F3E"/><path d=" M 51.900002 103.000000 C 51.405403 102.768761 50.970802 102.426559 50.630001 102.000000 C 50.367680 101.644348 50.230537 101.211830 50.240002 100.769997 C 50.228893 100.354126 50.347740 99.945145 50.580002 99.599998 C 50.805702 99.259720 51.125290 98.992241 51.500000 98.830002 C 51.921814 98.643929 52.379044 98.551804 52.840000 98.560005 C 53.489765 98.562088 54.132484 98.694710 54.730000 98.950005 L 54.730000 100.120003 C 54.175087 99.916763 53.590763 99.805305 53.000000 99.790001 C 52.718163 99.774521 52.439480 99.855652 52.209999 100.020004 C 52.013199 100.172058 51.904575 100.411781 51.919998 100.660004 C 51.912312 100.862022 51.976040 101.060295 52.099998 101.220001 C 52.307770 101.423737 52.552021 101.586571 52.820000 101.700005 L 53.470001 102.019997 C 53.826054 102.187546 54.161602 102.395592 54.470001 102.639999 C 54.698788 102.827263 54.883213 103.062912 55.010002 103.330002 C 55.129375 103.621704 55.187252 103.934906 55.180000 104.250000 C 55.210262 104.886475 54.935429 105.499283 54.439999 105.900002 C 53.864475 106.329575 53.157295 106.545265 52.439999 106.510002 C 52.060139 106.510231 51.681335 106.470001 51.309998 106.389999 C 50.964050 106.327736 50.627823 106.220139 50.309998 106.070000 L 50.310001 104.919998 C 50.637497 105.025146 50.971550 105.108665 51.310001 105.169998 C 51.639122 105.238113 51.973946 105.274940 52.310001 105.279999 C 52.623581 105.302475 52.935078 105.213982 53.190002 105.029999 C 53.396397 104.853905 53.507595 104.590736 53.490002 104.320000 C 53.496090 104.107033 53.421024 103.899704 53.280003 103.739998 C 53.072327 103.543411 52.832092 103.384384 52.570004 103.269997 Z" fill="#232F3E"/><path d=" M 62.180000 106.349998 L 62.180000 101.000000 L 60.770000 104.459999 L 59.340000 104.459999 L 57.939999 101.000000 L 57.939999 106.320000 L 56.430000 106.320000 L 56.430000 98.720001 L 58.360001 98.720001 L 60.080002 103.000000 L 61.810001 98.730003 L 63.689999 98.730003 L 63.689999 106.360001 Z" fill="#232F3E"/></g><g id="ICONS_-_EDIT"><path d=" M 41.500000 56.000000 L 21.780001 56.000000 C 20.512049 55.983543 19.494404 54.948048 19.500000 53.680000 L 19.500000 20.320000 C 19.494404 19.051954 20.512049 18.016455 21.780001 18.000000 L 55.220001 18.000000 C 56.490208 18.010998 57.511002 19.049620 57.500004 20.319826 C 57.500004 20.319883 57.500004 20.319942 57.500004 20.320000 L 57.500000 44.000000 L 55.500000 44.000000 L 55.500000 20.320000 C 55.511387 20.154707 55.386623 20.011477 55.221329 20.000088 C 55.220886 20.000057 55.220444 20.000027 55.219997 19.999998 L 21.780001 20.000000 C 21.614658 20.010654 21.489258 20.153328 21.499912 20.318670 C 21.499941 20.319115 21.499969 20.319557 21.500002 20.320002 L 21.500000 53.680000 C 21.488611 53.845295 21.613377 53.988522 21.778669 53.999912 C 21.779112 53.999943 21.779556 53.999973 21.780001 54.000000 L 41.500000 54.000000 Z" fill="#FFFFFF"/><path d=" M 56.529999 55.000000 C 56.944450 54.160686 57.156776 53.236042 57.149998 52.299999 C 57.144478 48.815086 54.314926 45.994480 50.830013 46.000000 C 50.666859 45.989143 50.503166 45.989143 50.340012 46.000000 L 50.160000 46.000000 C 49.919998 46.000000 49.689999 46.000000 49.470001 46.099998 C 49.153637 46.162033 48.842670 46.248970 48.540001 46.359997 L 47.939999 46.639999 C 47.761227 46.730263 47.587624 46.830418 47.419998 46.939999 C 44.547829 48.913651 43.819439 52.841961 45.793087 55.714130 C 47.497040 58.193821 50.714714 59.125549 53.479996 57.939999 L 54.480000 58.939999 L 54.480000 60.939999 L 56.480000 60.939999 L 57.480000 61.939999 L 57.480000 63.939999 L 60.480000 63.939999 L 62.480000 65.940002 L 64.480003 65.940002 L 64.480003 63.000000 Z M 51.220001 52.669998 C 50.525711 53.360279 49.404293 53.360279 48.710003 52.669998 C 48.301491 52.346310 48.210098 51.763138 48.500004 51.329998 L 48.500000 51.330002 C 48.257442 50.947609 48.348778 50.443092 48.709999 50.170002 C 49.404289 49.479721 50.525707 49.479721 51.219997 50.170002 C 51.462715 50.358273 51.572330 50.671463 51.499996 50.970001 L 51.500000 50.970001 C 51.816833 51.535557 51.700661 52.245029 51.220001 52.680000 Z" stroke="#FFFFFF" stroke-width="2.000000" stroke-linejoin="round" fill="none"/><path d=" M 50.080002 54.180000 C 48.555698 54.178219 47.321449 52.941082 47.323231 51.416775 C 47.324085 50.686684 47.614178 49.986675 48.130001 49.469997 C 49.222507 48.431267 50.937492 48.431267 52.030003 49.469997 C 53.107182 50.548512 53.106094 52.296047 52.027580 53.373226 C 51.498501 53.901646 50.777657 54.192780 50.030003 54.179996 Z M 50.080002 50.669998 C 49.880711 50.667908 49.689228 50.747391 49.550003 50.889999 C 49.243484 51.182709 49.232292 51.668480 49.525002 51.974998 C 49.817711 52.281517 50.303482 52.292709 50.610001 52.000000 L 50.610001 52.000000 C 50.902454 51.707184 50.902454 51.232819 50.610001 50.939999 C 50.477352 50.781731 50.286011 50.684258 50.080002 50.669998 Z" fill="#FFFFFF"/><path d=" M 20.500000 33.000000 L 16.500000 33.000000 C 15.947715 33.000000 15.500000 32.552284 15.500000 32.000000 L 15.500000 26.000000 C 15.500000 25.447716 15.947715 25.000000 16.500000 25.000000 L 20.500000 25.000000 C 21.052284 25.000000 21.500000 25.447716 21.500000 26.000000 L 21.500000 32.000000 C 21.500000 32.552284 21.052284 33.000000 20.500000 33.000000 Z M 17.500000 31.000000 L 19.500000 31.000000 L 19.500000 27.000000 L 17.500000 27.000000 Z" fill="#FFFFFF"/><path d=" M 20.500000 49.000000 L 16.500000 49.000000 C 15.947715 49.000000 15.500000 48.552284 15.500000 48.000000 L 15.500000 42.000000 C 15.500000 41.447716 15.947715 41.000000 16.500000 41.000000 L 20.500000 41.000000 C 21.052284 41.000000 21.500000 41.447716 21.500000 42.000000 L 21.500000 48.000000 C 21.500000 48.552284 21.052284 49.000000 20.500000 49.000000 Z M 17.500000 47.000000 L 19.500000 47.000000 L 19.500000 43.000000 L 17.500000 43.000000 Z" fill="#FFFFFF"/><path d=" M 37.500000 43.000000 C 34.186291 43.000000 31.500000 40.313709 31.500000 37.000000 C 31.500000 33.686291 34.186291 31.000000 37.500000 31.000000 C 40.813709 31.000000 43.500000 33.686291 43.500000 37.000000 C 43.500000 40.313709 40.813709 43.000000 37.500000 43.000000 Z M 37.500000 33.000000 C 35.290859 33.000000 33.500000 34.790859 33.500000 37.000000 C 33.500000 39.209141 35.290859 41.000000 37.500000 41.000000 C 39.709141 41.000000 41.500000 39.209141 41.500000 37.000000 C 41.500000 34.790859 39.709141 33.000000 37.500000 33.000000 Z" fill="#FFFFFF"/><path d=" M 37.500000 48.000000 C 31.424868 48.002743 26.497778 43.080097 26.495037 37.004967 C 26.492294 30.929834 31.414940 26.002745 37.490070 26.000004 C 42.214409 25.997871 46.412506 29.012632 47.919998 33.490002 L 46.020000 34.130001 C 44.434944 29.418941 39.330933 26.884815 34.619873 28.469872 C 29.908813 30.054928 27.374687 35.158939 28.959743 39.869999 C 30.544800 44.581059 35.648811 47.115185 40.359871 45.530128 C 43.027946 44.632442 45.122314 42.538078 46.020000 39.869999 L 47.919998 40.509998 C 46.413670 44.983906 42.220684 47.997868 37.500000 48.000000 Z" fill="#FFFFFF"/><rect x="42.500000" y="36.000000" width="9.000000" height="2.000000" fill="#FFFFFF"/></g></svg>