<svg version="1.1" width="80.000000" height="115.000000" viewBox="0.000000 0.000000 80.000000 115.000000" xmlns="http://www.w3.org/2000/svg" xmlns:xlink="http://www.w3.org/1999/xlink" overflow="hidden"><g id="CARDS"><rect x="1.000000" y="1.000000" width="78.000000" height="78.000000" fill="#232F3E"/><path d=" M 0.000000 0.000000 L 0.000000 80.000000 L 0.000000 80.000000 L 0.000000 115.000000 L 80.000000 115.000000 L 80.000000 80.000000 L 80.000000 80.000000 L 80.000000 0.000000 Z M 1.000000 1.000000 L 79.000000 1.000000 L 79.000000 79.000000 L 1.000000 79.000000 Z" fill="#FFFFFF"/></g><g id="TEXT_-_EDIT"><path d=" M 25.350000 92.349998 L 24.920000 90.529999 L 22.920000 90.529999 L 22.500000 92.349998 L 20.719999 92.349998 L 23.000000 84.720001 L 24.900000 84.720001 L 27.209999 92.349998 Z M 23.170000 89.430000 L 24.660000 89.430000 L 23.900000 86.269997 Z" fill="#232F3E"/><path d=" M 34.060001 92.349998 L 34.060001 88.639999 C 34.076664 88.401566 34.028278 88.163086 33.920002 87.949997 C 33.819908 87.796371 33.642418 87.711487 33.460003 87.729996 C 33.174831 87.743271 32.898491 87.833084 32.660004 87.989998 C 32.664822 88.029854 32.664822 88.070145 32.660004 88.110001 L 32.660000 92.349998 L 31.000000 92.349998 L 31.000000 88.639999 C 31.019257 88.402504 30.974358 88.164200 30.870001 87.949997 C 30.765142 87.796478 30.585056 87.712181 30.400002 87.729996 C 30.121338 87.744865 29.851856 87.834694 29.620001 87.989998 L 29.620001 92.349998 L 28.000000 92.349998 L 28.000000 86.720001 L 29.350000 86.720001 L 29.480000 87.230003 C 30.005705 86.838974 30.635632 86.612755 31.289999 86.580002 C 31.787903 86.543671 32.259682 86.807076 32.489998 87.250000 C 33.020988 86.851845 33.657448 86.618820 34.320000 86.580002 C 34.698605 86.567619 35.063778 86.720993 35.320000 87.000000 C 35.580429 87.351334 35.707973 87.783562 35.680000 88.220001 L 35.680000 92.349998 Z" fill="#232F3E"/><path d=" M 40.000000 92.349998 L 39.860001 91.839996 C 39.704742 92.042564 39.502155 92.203949 39.270000 92.309998 C 39.023094 92.427322 38.753361 92.488777 38.480000 92.489998 C 38.038441 92.498497 37.613724 92.320625 37.310001 92.000000 C 37.006588 91.668808 36.851307 91.228241 36.880001 90.779999 C 36.856857 90.286880 37.050484 89.808296 37.410000 89.470001 C 37.807274 89.133095 38.320316 88.964470 38.840000 89.000000 C 39.154030 89.006668 39.466179 89.050301 39.770000 89.129997 L 39.770000 88.620003 C 39.797573 88.349762 39.741737 88.077560 39.610001 87.840004 C 39.445477 87.687714 39.222755 87.614693 39.000000 87.640007 C 38.395546 87.665237 37.798565 87.783279 37.230000 87.990005 L 37.230000 87.000000 C 37.516563 86.840446 37.827354 86.728966 38.149998 86.669998 C 38.528015 86.589485 38.913502 86.549255 39.299999 86.549995 C 39.843796 86.502090 40.385880 86.659012 40.820000 86.989998 C 41.164772 87.366852 41.335323 87.871239 41.290001 88.379997 L 41.290001 92.320000 Z M 39.000000 91.430000 C 39.298344 91.418404 39.580971 91.293190 39.790001 91.080002 L 39.790001 90.000000 C 39.587475 89.948616 39.378887 89.925064 39.170002 89.930000 C 38.969070 89.911972 38.770714 89.985435 38.630001 90.129997 C 38.490948 90.293694 38.422604 90.505920 38.440002 90.719994 C 38.429714 90.905304 38.482594 91.088631 38.590004 91.239990 C 38.687565 91.366325 38.840549 91.437218 39.000004 91.429993 Z" fill="#232F3E"/><path d=" M 42.279999 92.349998 L 42.279999 91.279999 L 44.770000 87.879997 L 42.369999 87.879997 L 42.369999 86.720001 L 46.509998 86.720001 L 46.509998 87.790001 L 44.000000 91.190002 L 46.540001 91.190002 L 46.540001 92.349998 Z" fill="#232F3E"/><path d=" M 49.790001 92.489998 C 49.108715 92.511253 48.453094 92.229225 48.000000 91.720001 C 47.133984 90.392052 47.133984 88.677956 48.000000 87.349998 C 49.011749 86.331032 50.657967 86.325180 51.676933 87.336929 C 51.681305 87.341270 51.685661 87.345627 51.690002 87.349998 C 52.556019 88.677948 52.556019 90.392044 51.690002 91.720001 C 51.211487 92.259041 50.508781 92.543823 49.790001 92.489998 Z M 49.790001 91.339996 C 50.076321 91.350388 50.337559 91.177567 50.440002 90.909996 C 50.706799 90.016144 50.706799 89.063843 50.440002 88.169998 C 50.304638 87.813774 49.906124 87.634735 49.549900 87.770103 C 49.365585 87.840141 49.220043 87.985687 49.150002 88.169998 C 48.883205 89.063850 48.883205 90.016151 49.150002 90.909996 C 49.248730 91.175995 49.506416 91.349129 49.790001 91.339996 Z" fill="#232F3E"/><path d=" M 56.549999 92.349998 L 56.549999 88.650002 C 56.566494 88.408363 56.518166 88.166710 56.410000 87.950005 C 56.294102 87.793236 56.103878 87.709541 55.910000 87.730003 C 55.621128 87.739960 55.340698 87.829971 55.099998 87.990005 L 55.099998 92.349998 L 53.439999 92.349998 L 53.439999 86.720001 L 54.790001 86.720001 L 54.930000 87.230003 C 55.464371 86.833908 56.105400 86.607452 56.770000 86.580002 C 57.171432 86.553581 57.563728 86.707565 57.840000 87.000000 C 58.102020 87.350540 58.229740 87.783371 58.200001 88.220001 L 58.200001 92.349998 Z" fill="#232F3E"/><path d=" M 27.000000 106.129997 C 26.435158 106.360497 25.830032 106.476082 25.219999 106.469994 C 22.973333 106.470001 21.850000 105.169998 21.850000 102.570000 C 21.778547 101.512779 22.091021 100.465294 22.730000 99.620003 C 23.378502 98.920914 24.308779 98.553215 25.260000 98.620003 C 25.823498 98.620705 26.382317 98.722313 26.910000 98.920006 L 26.910000 100.129997 C 26.438503 99.991577 25.951185 99.914284 25.459999 99.899994 C 24.920755 99.856819 24.395544 100.085663 24.059999 100.509995 C 23.723434 101.094772 23.570154 101.767120 23.619999 102.439995 L 23.620001 102.690002 C 23.566975 103.352310 23.716967 104.015060 24.050001 104.590004 C 24.375748 105.015533 24.896040 105.245522 25.430000 105.200005 C 25.961388 105.172112 26.487991 105.084900 27.000000 104.940002 Z" fill="#232F3E"/><path d=" M 30.270000 106.489998 C 29.571234 106.527954 28.893465 106.244324 28.430000 105.720001 C 27.563986 104.392052 27.563986 102.677956 28.430000 101.349998 C 29.441748 100.331032 31.087967 100.325180 32.106934 101.336929 C 32.111305 101.341270 32.115662 101.345627 32.120003 101.349998 C 32.986019 102.677948 32.986019 104.392044 32.120003 105.720001 C 31.652555 106.244698 30.971689 106.528084 30.270002 106.489998 Z M 30.270000 105.339996 C 30.556320 105.350388 30.817558 105.177567 30.920000 104.909996 C 31.186798 104.016144 31.186798 103.063843 30.920000 102.169998 C 30.820919 101.898483 30.558891 101.721115 30.270000 101.729996 C 29.983816 101.722336 29.725327 101.900047 29.630001 102.169998 C 29.363203 103.063850 29.363203 104.016151 29.630001 104.909996 C 29.728729 105.175995 29.986418 105.349129 30.270000 105.339996 Z" fill="#232F3E"/><path d=" M 36.830002 105.709999 C 36.174324 106.397354 35.085583 106.423027 34.398232 105.767349 C 34.313225 105.686256 34.236748 105.596672 34.170002 105.499992 C 33.796982 104.901863 33.615555 104.204063 33.650002 103.499992 C 33.604836 102.758835 33.789959 102.021835 34.180000 101.389992 C 34.504276 100.896835 35.059952 100.605766 35.650002 100.619995 C 35.892445 100.628639 36.130600 100.686478 36.350002 100.789993 C 36.587307 100.897530 36.801315 101.050392 36.980003 101.239990 L 37.099998 100.760002 L 38.450001 100.760002 L 38.450001 106.000000 C 38.450001 107.860001 37.599998 108.790001 35.889999 108.790001 C 35.253036 108.796577 34.624352 108.645416 34.059998 108.349998 L 34.060001 107.349998 C 34.575829 107.547577 35.118698 107.665596 35.670002 107.699997 C 35.910439 107.714272 36.150723 107.669647 36.370003 107.570000 C 36.541477 107.476830 36.667789 107.318039 36.720001 107.129997 C 36.809330 106.804581 36.846458 106.467049 36.830002 106.129997 Z M 36.160000 105.110001 C 36.399151 105.098785 36.630749 105.022736 36.829998 104.889999 L 36.830002 102.000000 C 36.615662 101.838440 36.358025 101.744431 36.090000 101.730003 C 35.820808 101.727432 35.579723 101.896187 35.490002 102.150002 C 35.338276 102.565742 35.273605 103.008224 35.300003 103.450005 C 35.275822 103.886879 35.347496 104.323753 35.510002 104.730003 C 35.634296 104.972328 35.887863 105.120567 36.160004 105.110001 Z" fill="#232F3E"/><path d=" M 43.000000 106.349998 L 43.000000 102.650002 C 43.016495 102.408363 42.968166 102.166710 42.860001 101.950005 C 42.744102 101.793236 42.553879 101.709541 42.360001 101.730003 C 42.067970 101.739677 41.784252 101.829636 41.540001 101.990005 L 41.540001 106.349998 L 39.869999 106.349998 L 39.869999 100.720001 L 41.220001 100.720001 L 41.349998 101.230003 C 41.888889 100.835289 42.532650 100.609108 43.199997 100.580002 C 43.601208 100.554985 43.992931 100.708748 44.269997 101.000000 C 44.532017 101.350540 44.659737 101.783371 44.629997 102.220001 L 44.630001 106.349998 Z" fill="#232F3E"/><path d=" M 46.900002 99.809998 C 46.643860 99.830612 46.389610 99.751831 46.190002 99.589996 C 46.010807 99.439140 45.911186 99.214073 45.920002 98.979996 C 45.909645 98.745628 46.009552 98.519913 46.190002 98.369995 C 46.610443 98.064751 47.179562 98.064751 47.600002 98.369995 C 47.774265 98.523682 47.869812 98.747849 47.860001 98.979996 C 47.866993 99.211624 47.771938 99.434639 47.600002 99.589996 C 47.402973 99.749374 47.152782 99.828011 46.900002 99.809998 Z M 46.070000 106.349998 L 46.070000 100.720001 L 47.720001 100.720001 L 47.720001 106.349998 Z" fill="#232F3E"/><path d=" M 52.209999 106.199997 C 51.816689 106.347153 51.399933 106.421692 50.980000 106.419998 C 50.182198 106.570419 49.413509 106.045616 49.263084 105.247818 C 49.230217 105.073509 49.229172 104.894684 49.259998 104.720001 L 49.259998 101.820000 L 48.520000 101.820000 L 48.520000 100.900002 L 49.310001 100.750000 L 49.549999 99.209999 L 50.910000 99.209999 L 50.910000 100.720001 L 52.189999 100.720001 L 52.189999 101.820000 L 50.910000 101.820000 L 50.910000 104.589996 C 50.894325 104.774376 50.943871 104.958412 51.049999 105.109993 C 51.197174 105.233894 51.388851 105.291756 51.579998 105.269997 C 51.792271 105.266159 52.003502 105.239334 52.209999 105.189995 Z" fill="#232F3E"/><path d=" M 55.320000 106.489998 C 54.620712 106.530975 53.941677 106.246811 53.480000 105.720001 C 52.600845 104.395988 52.600845 102.674019 53.480000 101.349998 C 54.478825 100.333794 56.112331 100.319710 57.128536 101.318535 C 57.139114 101.328934 57.149605 101.339424 57.160000 101.349998 C 58.026016 102.677948 58.026016 104.392044 57.160000 105.720001 C 56.696537 106.244324 56.018768 106.527962 55.320000 106.489998 Z M 55.320000 105.339996 C 55.603584 105.349129 55.861271 105.175995 55.959999 104.909996 C 56.226795 104.016144 56.226795 103.063843 55.959999 102.169998 C 55.864674 101.900047 55.606182 101.722336 55.320000 101.729996 C 55.031109 101.721107 54.769081 101.898483 54.669998 102.169998 C 54.414864 103.065514 54.414864 104.014481 54.669998 104.909996 C 54.772438 105.177567 55.033680 105.350380 55.320000 105.339996 Z" fill="#232F3E"/></g><g id="ICONS_-_EDIT"><path d=" M 40.250000 52.450001 L 19.000000 52.450001 C 16.845915 52.336857 15.187983 50.504642 15.290000 48.350002 L 15.290000 23.549999 C 15.187983 21.395357 16.845915 19.563143 19.000000 19.449999 L 57.549999 19.450001 C 59.700108 19.568430 61.352139 21.399055 61.250000 23.550001 L 61.250000 41.450001 L 59.250000 41.450001 L 59.250000 23.549999 C 59.349487 22.503935 58.593853 21.570501 57.549999 21.449999 L 19.000000 21.450001 C 17.970686 21.598913 17.227283 22.511864 17.290001 23.550001 L 17.290001 48.349998 C 17.227283 49.388134 17.970688 50.301086 19.000000 50.449997 L 40.250000 50.450001 Z" fill="#FFFFFF"/><rect x="19.250000" y="36.450000" width="11.000000" height="2.000000" fill="#FFFFFF"/><rect x="19.250000" y="41.450000" width="7.000000" height="2.000000" fill="#FFFFFF"/><rect x="28.250000" y="41.450000" width="3.000000" height="2.000000" fill="#FFFFFF"/><path d=" M 44.250000 47.450001 L 36.250000 47.450001 C 35.697716 47.450001 35.250000 47.002285 35.250000 46.450001 L 35.250000 25.450001 C 35.250000 24.897717 35.697716 24.450001 36.250000 24.450001 L 55.250000 24.450001 C 55.802284 24.450001 56.250000 24.897717 56.250000 25.450001 L 56.250000 40.450001 L 54.250000 40.450001 L 54.250000 26.450001 L 37.250000 26.450001 L 37.250000 45.450001 L 44.250000 45.450001 Z" fill="#FFFFFF"/><rect x="16.250000" y="29.450000" width="19.030000" height="2.000000" fill="#FFFFFF"/><rect x="55.250000" y="29.450000" width="5.000000" height="2.000000" fill="#FFFFFF"/><path d=" M 54.639999 64.550003 C 49.067448 64.551949 44.548424 60.036079 44.546478 54.463524 C 44.544533 48.890972 49.060402 44.371948 54.632957 44.370003 C 60.205509 44.368057 64.724533 48.883926 64.726479 54.456482 C 64.727318 56.854309 63.874191 59.174061 62.320000 61.000004 C 61.400150 62.079262 60.270645 62.960411 59.000000 63.590004 C 57.635494 64.228348 56.146427 64.556221 54.639999 64.550003 Z M 54.639999 46.330002 C 53.358395 46.326279 52.095226 46.635208 50.959999 47.230003 C 46.974247 49.261269 45.389820 54.139023 47.421085 58.124779 C 48.648388 60.532997 50.996044 62.170349 53.679996 62.490005 C 55.197285 62.673817 56.735695 62.427811 58.119995 61.780006 C 59.153885 61.284840 60.073387 60.579887 60.819996 59.710007 C 63.730515 56.305511 63.330070 51.186184 59.925579 48.275661 C 58.713501 47.239452 57.222843 46.583561 55.639996 46.390007 L 55.639999 46.389999 C 55.301510 46.349586 54.960896 46.329552 54.619999 46.329998 Z" fill="#FFFFFF"/><path d=" M 53.049999 58.700001 C 52.784195 58.701538 52.528717 58.597187 52.340000 58.410000 L 49.110001 55.180000 L 50.529999 53.770000 L 53.049999 56.290001 L 58.750000 50.580002 L 60.169998 52.000000 L 53.750000 58.410000 C 53.563740 58.594746 53.312340 58.698895 53.049999 58.700001 Z" fill="#FFFFFF"/><path d=" M 42.840000 47.450001 L 36.700001 47.450001 C 36.147717 47.450001 35.700001 47.002285 35.700001 46.450001 L 35.700001 45.200001 C 35.690350 40.717613 38.747150 36.809864 43.100002 35.740002 C 43.342804 35.678799 43.599735 35.710915 43.820004 35.830002 C 44.995224 36.455780 46.404781 36.455780 47.580002 35.830002 C 47.797462 35.713440 48.050335 35.681385 48.290001 35.740002 C 50.791397 36.365307 52.946510 37.949318 54.290001 40.150002 L 52.580002 41.150002 C 51.581825 39.501266 50.006508 38.282356 48.160004 37.730003 C 46.595409 38.433319 44.804600 38.433319 43.240005 37.730003 C 39.934456 38.706413 37.674744 41.753357 37.700005 45.200005 L 37.700001 45.450001 L 42.840000 45.450001 Z" fill="#FFFFFF"/><path d=" M 45.700001 38.279999 C 44.774780 38.279816 43.864128 38.049576 43.049999 37.610001 C 40.388268 36.146446 39.416954 32.802242 40.880508 30.140509 C 42.344063 27.478777 45.688267 26.507462 48.349998 27.971018 C 51.011730 29.434572 51.983044 32.778778 50.519489 35.440510 C 50.016754 36.354820 49.264309 37.107265 48.349998 37.610001 C 47.535416 38.048405 46.625061 38.278568 45.699997 38.279999 Z M 45.700001 29.360001 C 43.776413 29.354458 42.211018 30.906435 42.200001 32.830002 C 42.212868 34.084751 42.905991 35.233574 44.010002 35.830002 C 45.065750 36.395344 46.334255 36.395344 47.390003 35.830002 L 47.389999 35.830002 C 48.497097 35.236820 49.191441 34.085972 49.200001 32.830002 C 49.188984 30.906435 47.623589 29.354458 45.700001 29.360003 Z" fill="#FFFFFF"/></g></svg>