<svg version="1.1" width="80.000000" height="115.000000" viewBox="0.000000 0.000000 80.000000 115.000000" xmlns="http://www.w3.org/2000/svg" xmlns:xlink="http://www.w3.org/1999/xlink" overflow="hidden"><g id="CARDS"><rect x="1.000000" y="1.000000" width="78.000000" height="78.000000" fill="#232F3E"/><path d=" M 0.000000 0.000000 L 0.000000 80.000000 L 0.000000 80.000000 L 0.000000 115.000000 L 80.000000 115.000000 L 80.000000 80.000000 L 80.000000 80.000000 L 80.000000 0.000000 Z M 1.000000 1.000000 L 79.000000 1.000000 L 79.000000 79.000000 L 1.000000 79.000000 Z" fill="#FFFFFF"/></g><g id="TEXT_-_EDIT"><path d=" M 10.190000 92.349998 L 9.750000 90.529999 L 7.750000 90.529999 L 7.330000 92.349998 L 5.560000 92.349998 L 7.880000 84.720001 L 9.740000 84.720001 L 12.000000 92.349998 Z M 8.000000 89.430000 L 9.500000 89.430000 L 8.740000 86.269997 Z" fill="#232F3E"/><path d=" M 17.389999 92.349998 L 16.450001 86.720001 L 15.560000 92.349998 L 13.690000 92.349998 L 11.910000 84.720001 L 13.610000 84.720001 L 14.670000 90.779999 L 15.590000 85.000000 L 17.420000 85.000000 L 18.360001 90.650002 L 19.360001 84.650002 L 21.000000 84.650002 L 19.219999 92.279999 Z" fill="#232F3E"/><path d=" M 23.340000 89.000000 C 22.845400 88.768761 22.410801 88.426559 22.070000 88.000000 C 21.807676 87.644348 21.670536 87.211830 21.680000 86.769997 C 21.662979 86.356277 21.774790 85.947464 22.000000 85.599998 C 22.225702 85.259720 22.545288 84.992241 22.920000 84.830002 C 23.341814 84.643929 23.799042 84.551804 24.260000 84.560005 C 24.912910 84.562904 25.558741 84.695473 26.160000 84.950005 L 26.160000 86.120003 C 25.604574 85.918625 25.020555 85.807220 24.430000 85.790001 C 24.148348 85.776108 23.870176 85.857094 23.639999 86.020004 C 23.443201 86.172058 23.334576 86.411781 23.349998 86.660004 C 23.340494 86.863945 23.408354 87.063950 23.539999 87.220001 C 23.741879 87.426239 23.983387 87.589516 24.249998 87.700005 L 24.900000 88.019997 C 25.256050 88.187546 25.591599 88.395592 25.900000 88.639999 C 26.128786 88.827263 26.313211 89.062912 26.440001 89.330002 C 26.559376 89.621704 26.617249 89.934906 26.610001 90.250000 C 26.640263 90.886475 26.365427 91.499283 25.870001 91.900002 C 25.294477 92.329575 24.587297 92.545265 23.870001 92.510002 C 23.490173 92.509636 23.111433 92.469414 22.740002 92.389999 C 22.410471 92.326210 22.090965 92.218590 21.790001 92.070000 L 21.790001 90.919998 C 22.117018 91.026825 22.451187 91.110367 22.790001 91.169998 C 23.119204 91.237587 23.453978 91.274414 23.790001 91.279999 C 24.103756 91.304230 24.415846 91.215561 24.670000 91.029999 C 24.876396 90.853905 24.987593 90.590736 24.969999 90.320000 C 24.976088 90.107033 24.901022 89.899704 24.760000 89.739998 C 24.552324 89.543411 24.312090 89.384384 24.050001 89.269997 Z" fill="#232F3E"/><path d=" M 30.420000 92.349998 L 30.420000 84.720001 L 32.930000 84.720001 C 33.831909 84.670197 34.706379 85.039169 35.299999 85.720001 C 36.359566 87.468689 36.359566 89.661316 35.299999 91.410004 C 34.725662 92.087883 33.867180 92.457916 32.980000 92.410004 Z M 32.099998 85.900002 L 32.099998 91.169998 L 32.810001 91.169998 C 33.291885 91.204468 33.752125 90.964676 34.000000 90.549995 C 34.299332 89.959961 34.434059 89.300148 34.389999 88.639992 L 34.389999 88.419998 C 34.430649 87.760086 34.296104 87.101151 34.000000 86.509995 C 33.747910 86.100891 33.289322 85.865814 32.810001 85.899994 Z" fill="#232F3E"/><path d=" M 38.279999 85.809998 C 38.024757 85.822983 37.773182 85.745026 37.570000 85.589996 C 37.398064 85.434639 37.303005 85.211624 37.310001 84.979996 C 37.300194 84.747849 37.395737 84.523689 37.570000 84.369995 C 37.768116 84.204575 38.022518 84.122162 38.279999 84.139992 C 38.534100 84.124771 38.784443 84.207024 38.980000 84.369995 C 39.160450 84.519913 39.260357 84.745628 39.250000 84.979996 C 39.258816 85.214073 39.159195 85.439140 38.980000 85.589996 C 38.782970 85.749374 38.532780 85.828011 38.279999 85.809998 Z M 37.450001 92.349998 L 37.450001 86.720001 L 39.099998 86.720001 L 39.099998 92.349998 Z" fill="#232F3E"/><path d=" M 40.560001 92.349998 L 40.560001 86.720001 L 41.910000 86.720001 L 42.090000 87.449997 C 42.290947 87.209991 42.535179 87.009857 42.810001 86.860001 C 43.039429 86.733040 43.297798 86.667580 43.560001 86.669998 C 43.689812 86.660080 43.820190 86.660080 43.950001 86.669998 L 43.950001 88.000000 C 43.736885 87.986336 43.523117 87.986336 43.310001 88.000000 C 42.928165 88.000481 42.551643 88.089478 42.210003 88.260002 L 42.209999 92.370003 Z" fill="#232F3E"/><path d=" M 45.910000 89.919998 C 45.898945 90.311180 46.026447 90.693687 46.270000 91.000000 C 46.565567 91.246262 46.946880 91.364975 47.330002 91.330002 C 47.559250 91.324608 47.787243 91.294434 48.010002 91.240005 C 48.281528 91.190041 48.548943 91.119843 48.810001 91.030006 L 48.810001 92.029999 C 48.551762 92.177193 48.271507 92.281868 47.980000 92.339996 C 47.651474 92.411812 47.316277 92.448685 46.980000 92.449997 C 45.259998 92.449997 44.410000 91.449997 44.410000 89.500000 C 44.356960 88.715630 44.579819 87.937401 45.040001 87.300003 C 45.494652 86.776291 46.167927 86.495148 46.860001 86.540001 C 48.230000 86.540001 48.910000 87.300003 48.910000 88.830002 C 48.909126 89.166870 48.868855 89.502487 48.790001 89.830002 Z M 46.820000 87.599998 C 46.250000 87.599998 45.939999 88.059998 45.910000 88.970001 L 47.520000 88.970001 L 47.520000 88.720001 C 47.545040 88.423065 47.486134 88.125076 47.350002 87.860001 C 47.233955 87.683182 47.030861 87.583549 46.820004 87.599998 Z" fill="#232F3E"/><path d=" M 53.689999 92.089996 C 53.493362 92.213127 53.276798 92.301109 53.049999 92.349998 C 52.787773 92.411209 52.519268 92.441414 52.250000 92.439995 C 51.554565 92.489639 50.874149 92.221146 50.400002 91.709991 C 49.946224 91.085075 49.726746 90.320442 49.780003 89.549988 C 49.729225 88.771988 49.967854 88.002678 50.450001 87.389984 C 50.926403 86.867004 51.613831 86.587616 52.320000 86.629982 C 52.789951 86.630127 53.252975 86.743309 53.669998 86.959984 L 53.669998 87.959999 C 53.349461 87.841820 53.011543 87.777618 52.669998 87.769997 C 52.311943 87.735214 51.961010 87.886154 51.739998 88.169998 C 51.522068 88.563194 51.424686 89.011833 51.459999 89.459999 L 51.459999 89.620003 C 51.425354 90.063736 51.519081 90.508072 51.730000 90.900002 C 51.940891 91.185333 52.287186 91.337547 52.639999 91.300003 C 53.009380 91.292480 53.374714 91.221443 53.720001 91.090004 Z" fill="#232F3E"/><path d=" M 58.000000 92.199997 C 57.606689 92.347153 57.189934 92.421692 56.770000 92.419998 C 56.297684 92.464508 55.826893 92.320755 55.459999 92.019997 C 55.155262 91.658775 55.007633 91.190689 55.049999 90.719994 L 55.049999 87.820000 L 54.310001 87.820000 L 54.310001 86.900002 L 55.090000 86.750000 L 55.330002 85.209999 L 56.700001 85.209999 L 56.700001 86.720001 L 58.000000 86.720001 L 58.000000 87.820000 L 56.720001 87.820000 L 56.720001 90.589996 C 56.704327 90.774376 56.753872 90.958412 56.860001 91.109993 C 57.006588 91.234970 57.198746 91.292976 57.389999 91.269997 C 57.602238 91.265694 57.813423 91.238876 58.020000 91.189995 Z" fill="#232F3E"/><path d=" M 61.130001 92.489998 C 60.428314 92.528084 59.747448 92.244698 59.280003 91.720001 C 58.413986 90.392052 58.413986 88.677956 59.280003 87.349998 C 60.291752 86.331032 61.937969 86.325180 62.956936 87.336929 C 62.961308 87.341270 62.965664 87.345627 62.970005 87.349998 C 63.836021 88.677948 63.836021 90.392044 62.970005 91.720001 C 62.506542 92.244324 61.828773 92.527962 61.130005 92.489998 Z M 61.130001 91.339996 C 61.413586 91.349129 61.671272 91.175995 61.770000 90.909996 C 62.036797 90.016144 62.036797 89.063843 61.770000 88.169998 C 61.634636 87.813774 61.236122 87.634735 60.879898 87.770103 C 60.695583 87.840141 60.550041 87.985687 60.480000 88.169998 C 60.213203 89.063850 60.213203 90.016151 60.480000 90.909996 C 60.582439 91.177567 60.843681 91.350380 61.130001 91.339996 Z" fill="#232F3E"/><path d=" M 64.779999 92.349998 L 64.779999 86.720001 L 66.129997 86.720001 L 66.309998 87.449997 C 66.509727 87.212708 66.750153 87.012917 67.019997 86.860001 C 67.253044 86.733055 67.514626 86.667656 67.779999 86.669998 L 68.160004 86.669998 L 68.160004 88.000000 C 67.946899 87.985909 67.733101 87.985909 67.520004 88.000000 C 67.141380 88.000565 66.768120 88.089600 66.430008 88.260002 L 66.430000 92.370003 Z" fill="#232F3E"/><path d=" M 70.709999 92.459999 L 68.709999 86.720001 L 70.449997 86.720001 L 71.379997 90.860001 L 72.279999 86.720001 L 74.000000 86.720001 L 72.000000 93.199997 C 71.887398 93.648880 71.651917 94.057495 71.320000 94.379997 C 71.006203 94.631195 70.611496 94.759209 70.209999 94.739998 C 69.850761 94.738548 69.493660 94.684647 69.150002 94.579994 L 69.150002 93.580002 C 69.343109 93.593239 69.536896 93.593239 69.730003 93.580002 C 69.980156 93.601768 70.228622 93.522552 70.420006 93.360001 C 70.596970 93.152000 70.702171 92.892509 70.720009 92.620003 Z" fill="#232F3E"/><path d=" M 24.730000 103.000000 C 24.234529 102.765594 23.797329 102.424026 23.449999 102.000000 C 23.191233 101.643089 23.057642 101.210678 23.070000 100.769997 C 23.059801 100.355682 23.174810 99.947922 23.400000 99.599998 C 23.632124 99.261627 23.954256 98.994911 24.330000 98.830002 C 24.751419 98.642693 25.208925 98.550507 25.670000 98.560005 C 26.319679 98.562897 26.962242 98.695488 27.559999 98.950005 L 27.559999 100.120003 C 27.008253 99.917831 26.427393 99.806381 25.840000 99.790001 C 25.555244 99.776161 25.273926 99.857040 25.040001 100.020004 C 24.847281 100.175255 24.739666 100.412743 24.750000 100.660004 C 24.745146 100.863258 24.812462 101.061668 24.940001 101.220001 C 25.143887 101.428474 25.389143 101.591980 25.660000 101.700005 L 26.309999 102.019997 C 26.667839 102.184235 27.003771 102.392517 27.309999 102.639999 C 27.545288 102.820801 27.731043 103.058159 27.850000 103.330002 C 27.977577 103.619499 28.039066 103.933777 28.030001 104.250000 C 28.060263 104.886475 27.785427 105.499283 27.290001 105.900002 C 26.713343 106.327324 26.006987 106.542763 25.290001 106.510002 C 24.906866 106.509674 24.524807 106.469460 24.150002 106.389999 C 23.804222 106.327065 23.468079 106.219498 23.150002 106.070000 L 23.150000 104.919998 C 23.477161 105.026321 23.811295 105.109856 24.150000 105.169998 C 24.479118 105.238113 24.813944 105.274940 25.150000 105.279999 C 25.457417 105.289337 25.758320 105.190216 26.000000 105.000000 C 26.371050 104.665001 26.414988 104.098183 26.100000 103.709999 C 25.890545 103.515663 25.650711 103.356903 25.390001 103.239998 Z" fill="#232F3E"/><path d=" M 30.370001 103.919998 C 30.349251 104.324760 30.477299 104.723129 30.730001 105.040001 C 31.025566 105.286263 31.406881 105.404976 31.790001 105.370003 C 32.019249 105.364609 32.247242 105.334435 32.470001 105.280006 C 32.741528 105.230042 33.008942 105.159843 33.270000 105.070007 L 33.270000 106.070000 C 33.011761 106.217194 32.731506 106.321869 32.439999 106.379997 C 32.111473 106.451813 31.776278 106.488686 31.439999 106.489998 C 29.719999 106.489998 28.860001 105.489998 28.860001 103.540001 C 28.809847 102.754425 29.036274 101.976082 29.500000 101.340004 C 29.954651 100.816292 30.627926 100.535149 31.320000 100.580002 C 32.689999 100.580002 33.369999 101.339996 33.369999 102.870003 C 33.369125 103.206871 33.328854 103.542488 33.250000 103.870003 Z M 31.280001 101.599998 C 30.709999 101.599998 30.400000 102.059998 30.370001 102.970001 L 32.000000 102.970001 L 32.000000 102.720001 C 32.025040 102.423065 31.966135 102.125076 31.830000 101.860001 C 31.708925 101.678207 31.497326 101.578178 31.280001 101.599998 Z" fill="#232F3E"/><path d=" M 34.509998 106.349998 L 34.509998 100.720001 L 35.860001 100.720001 L 36.040001 101.449997 C 36.240948 101.209991 36.485180 101.009857 36.760002 100.860001 C 36.989922 100.734291 37.247959 100.668915 37.510002 100.669998 C 37.639812 100.660080 37.770191 100.660080 37.900002 100.669998 L 37.900002 102.000000 C 37.686886 101.986336 37.473118 101.986336 37.260002 102.000000 C 36.878166 102.000481 36.501644 102.089478 36.160004 102.260002 L 36.160000 106.370003 Z" fill="#232F3E"/><path d=" M 40.320000 106.349998 L 38.459999 100.720001 L 40.209999 100.720001 L 41.099998 104.720001 L 42.020000 100.720001 L 43.720001 100.720001 L 41.869999 106.349998 Z" fill="#232F3E"/><path d=" M 45.340000 99.809998 C 45.084759 99.822983 44.833183 99.745026 44.630001 99.589996 C 44.453274 99.438095 44.357193 99.212677 44.370003 98.979996 C 44.355621 98.747040 44.451988 98.520950 44.630001 98.369995 C 44.828117 98.204575 45.082520 98.122162 45.340000 98.139992 C 45.594101 98.124771 45.844444 98.207024 46.040001 98.369995 C 46.220451 98.519913 46.320358 98.745628 46.310001 98.979996 C 46.318817 99.214073 46.219196 99.439140 46.040001 99.589996 C 45.842972 99.749374 45.592781 99.828011 45.340000 99.809998 Z M 44.509998 106.349998 L 44.509998 100.720001 L 46.160000 100.720001 L 46.160000 106.349998 Z" fill="#232F3E"/><path d=" M 51.259998 106.089996 C 51.063362 106.213127 50.846798 106.301109 50.619999 106.349998 C 50.354290 106.410645 50.082539 106.440842 49.809998 106.439995 C 49.117512 106.489487 48.440201 106.220772 47.969997 105.709991 C 47.508713 105.088364 47.285229 104.322128 47.339996 103.549988 C 47.289219 102.771988 47.527847 102.002678 48.009995 101.389984 C 48.488075 100.869408 49.174305 100.590515 49.879993 100.629982 C 50.350231 100.627724 50.813824 100.741043 51.229992 100.959984 L 51.230000 101.959999 C 50.909512 101.841644 50.571564 101.777435 50.230000 101.769997 C 49.870422 101.724968 49.514622 101.878006 49.299999 102.169998 C 49.078037 102.561913 48.977127 103.010796 49.009998 103.459999 L 49.009998 103.620003 C 48.977833 104.064751 49.075081 104.509300 49.289997 104.900002 C 49.498989 105.182068 49.840584 105.333885 50.189999 105.300003 C 50.562542 105.291672 50.931026 105.220680 51.279999 105.090004 Z" fill="#232F3E"/><path d=" M 53.520000 103.919998 C 53.508793 104.323456 53.635815 104.718628 53.880001 105.040001 C 54.175568 105.286263 54.556881 105.404976 54.940002 105.370003 C 55.172554 105.364708 55.403873 105.334534 55.630001 105.280006 C 55.900974 105.227577 56.168213 105.157425 56.430000 105.070007 L 56.430000 106.070000 C 56.170200 106.213844 55.890484 106.318314 55.599998 106.379997 C 55.271473 106.451813 54.936275 106.488686 54.599998 106.489998 C 52.880001 106.489998 52.020000 105.489998 52.020000 103.540001 C 51.966961 102.755630 52.189819 101.977402 52.650002 101.340004 C 53.107765 100.814682 53.784767 100.533524 54.480003 100.580002 C 55.840000 100.580002 56.480000 101.339996 56.480000 102.870003 C 56.479126 103.206871 56.438854 103.542488 56.360001 103.870003 Z M 54.439999 101.599998 C 53.860001 101.599998 53.560001 102.059998 53.520000 102.970001 L 55.139999 102.970001 L 55.139999 102.720001 C 55.160442 102.423340 55.101780 102.126572 54.970001 101.860001 C 54.852512 101.684830 54.650444 101.585701 54.440002 101.599998 Z" fill="#232F3E"/></g><g id="ICONS_-_EDIT"><path d=" M 17.760000 53.889999 C 16.134790 53.492535 14.993700 52.033092 15.000000 50.360001 L 15.000000 24.639999 C 15.000000 22.629683 16.629684 21.000000 18.639999 21.000000 L 57.360001 21.000000 C 59.033096 20.993700 60.492535 22.134790 60.889999 23.760000 L 59.000000 24.240000 C 58.815819 23.490540 58.131287 22.972965 57.360001 23.000000 L 18.639999 23.000000 C 17.736523 23.005459 17.005459 23.736525 17.000000 24.639999 L 17.000000 50.360001 C 16.972965 51.131287 17.490541 51.815819 18.240000 52.000000 Z" fill="#FFFFFF"/><rect x="24.000000" y="43.000000" width="10.000000" height="2.000000" fill="#FFFFFF"/><rect x="24.000000" y="48.000000" width="7.000000" height="2.000000" fill="#FFFFFF"/><rect x="32.000000" y="48.000000" width="3.000000" height="2.000000" fill="#FFFFFF"/><rect x="21.000000" y="36.000000" width="18.030000" height="2.000000" fill="#FFFFFF"/><rect x="59.000000" y="36.000000" width="5.000000" height="2.000000" fill="#FFFFFF"/><path d=" M 61.389999 59.000000 L 23.610001 59.000000 C 21.616253 59.000000 20.000000 57.383747 20.000000 55.389999 L 20.000000 29.610001 C 20.000000 27.616253 21.616253 26.000000 23.610001 26.000000 L 61.389999 26.000000 C 63.383747 26.000000 65.000000 27.616253 65.000000 29.610001 L 65.000000 55.389999 C 65.000000 57.383747 63.383747 59.000000 61.389999 59.000000 Z M 23.610001 28.000000 C 22.720821 28.000000 22.000000 28.720821 22.000000 29.610001 L 22.000000 55.389999 C 22.000000 56.279179 22.720821 57.000000 23.610001 57.000000 L 61.389999 57.000000 C 62.279179 57.000000 63.000000 56.279179 63.000000 55.389999 L 63.000000 29.610001 C 63.000000 28.720821 62.279179 28.000000 61.389999 28.000000 Z" fill="#FFFFFF"/><path d=" M 59.000000 54.000000 L 40.000000 54.000000 C 39.447716 54.000000 39.000000 53.552284 39.000000 53.000000 L 39.000000 32.000000 C 39.000000 31.447716 39.447716 31.000000 40.000000 31.000000 L 59.000000 31.000000 C 59.552284 31.000000 60.000000 31.447716 60.000000 32.000000 L 60.000000 53.000000 C 60.000000 53.552284 59.552284 54.000000 59.000000 54.000000 Z M 41.000000 52.000000 L 58.000000 52.000000 L 58.000000 33.000000 L 41.000000 33.000000 Z" fill="#FFFFFF"/><path d=" M 59.500000 53.000000 L 57.500000 53.000000 L 57.500000 51.750000 C 57.512672 48.329178 55.275414 45.306843 52.000000 44.320000 C 50.434544 45.035477 48.635456 45.035477 47.070000 44.320000 C 43.784702 45.298794 41.534592 48.321999 41.540001 51.750000 L 41.540001 53.000000 L 39.540001 53.000000 L 39.540001 51.750000 C 39.526718 47.266365 42.585068 43.356636 46.940002 42.290001 C 47.182804 42.228798 47.439735 42.260914 47.660004 42.380001 C 48.829403 43.014832 50.240604 43.014832 51.410004 42.380001 C 51.630272 42.260918 51.887199 42.228798 52.130005 42.290001 C 56.486828 43.355949 59.548531 47.264683 59.540005 51.750000 Z" fill="#FFFFFF"/><path d=" M 49.439999 44.830002 C 46.419037 44.815239 43.982033 42.354294 43.996796 39.333332 C 44.011559 36.312370 46.472504 33.875366 49.493465 33.890129 C 52.514427 33.904892 54.951431 36.365837 54.936668 39.386799 C 54.926941 41.377300 53.836689 43.205399 52.090000 44.160000 C 51.275875 44.599579 50.365219 44.829819 49.439999 44.829998 Z M 49.439999 35.919998 C 47.520283 35.914425 45.956493 37.460346 45.939999 39.379997 C 45.952866 40.634747 46.645988 41.783569 47.750000 42.379997 C 48.804379 42.950768 50.075623 42.950768 51.130001 42.379997 L 51.130001 42.380001 C 52.237099 41.786819 52.931442 40.635971 52.940002 39.380001 C 52.928989 37.458080 51.362038 35.908985 49.440117 35.920002 C 49.440079 35.920002 49.440041 35.920002 49.440002 35.920002 Z" fill="#FFFFFF"/></g></svg>