<svg version="1.1" width="80.000000" height="115.000000" viewBox="0.000000 0.000000 80.000000 115.000000" xmlns="http://www.w3.org/2000/svg" xmlns:xlink="http://www.w3.org/1999/xlink" overflow="hidden"><g id="CARDS"><rect x="1.000000" y="1.000000" width="78.000000" height="78.000000" fill="#232F3E"/><path d=" M 0.000000 0.000000 L 0.000000 80.000000 L 0.000000 80.000000 L 0.000000 115.000000 L 80.000000 115.000000 L 80.000000 80.000000 L 80.000000 80.000000 L 80.000000 0.000000 Z M 1.000000 1.000000 L 79.000000 1.000000 L 79.000000 79.000000 L 1.000000 79.000000 Z" fill="#FFFFFF"/></g><g id="TEXT_-_EDIT"><path d=" M 13.240000 92.349998 L 12.810000 90.529999 L 10.810000 90.529999 L 10.390000 92.349998 L 8.620000 92.349998 L 10.930000 84.720001 L 12.800000 84.720001 L 15.100000 92.349998 Z M 11.060000 89.430000 L 12.560000 89.430000 L 11.800000 86.269997 Z" fill="#232F3E"/><path d=" M 20.450001 92.349998 L 19.510000 86.720001 L 18.620001 92.349998 L 16.750000 92.349998 L 15.000000 84.720001 L 16.700001 84.720001 L 17.760000 90.779999 L 18.639999 85.000000 L 20.469999 85.000000 L 21.410000 90.650002 L 22.410000 84.650002 L 24.100000 84.650002 L 22.309999 92.279999 Z" fill="#232F3E"/><path d=" M 26.400000 89.000000 C 25.902723 88.768532 25.464912 88.426491 25.119999 88.000000 C 24.861233 87.643089 24.727642 87.210678 24.740000 86.769997 C 24.729801 86.355682 24.844810 85.947922 25.070000 85.599998 C 25.302124 85.261627 25.624256 84.994911 26.000000 84.830002 C 26.421116 84.641739 26.878838 84.549515 27.340000 84.560005 C 27.989569 84.563965 28.631924 84.696510 29.230000 84.950005 L 29.230000 86.120003 C 28.677973 85.918839 28.097279 85.807426 27.510000 85.790001 C 27.225067 85.774620 26.943256 85.855637 26.710001 86.020004 C 26.517281 86.175255 26.409666 86.412743 26.420000 86.660004 C 26.410496 86.863945 26.478355 87.063950 26.610001 87.220001 C 26.813887 87.428474 27.059143 87.591980 27.330000 87.700005 L 28.000000 88.000000 C 28.356573 88.166588 28.692230 88.374695 29.000000 88.620003 C 29.235289 88.800804 29.421043 89.038162 29.540001 89.310005 C 29.667578 89.599503 29.729067 89.913780 29.720001 90.230003 C 29.761602 90.869904 29.493847 91.490952 29.000002 91.900002 C 28.409494 92.337746 27.683764 92.553688 26.950003 92.510002 C 26.570204 92.509125 26.191515 92.468910 25.820004 92.389999 C 25.490891 92.324646 25.171585 92.217087 24.870003 92.070000 L 24.870001 90.919998 C 25.197163 91.026321 25.531296 91.109856 25.870001 91.169998 C 26.199120 91.238113 26.533945 91.274940 26.870001 91.279999 C 27.183756 91.304230 27.495846 91.215561 27.750000 91.029999 C 27.956396 90.853905 28.067593 90.590736 28.049999 90.320000 C 28.056087 90.107033 27.981022 89.899704 27.840000 89.739998 C 27.636230 89.543251 27.399240 89.384132 27.139999 89.269997 Z" fill="#232F3E"/><path d=" M 33.470001 92.349998 L 33.470001 84.720001 L 37.820000 84.720001 L 37.820000 85.900002 L 35.160000 85.900002 L 35.160000 88.000000 L 37.240002 88.000000 L 37.240002 89.169998 L 35.160000 89.169998 L 35.160000 92.389999 Z" fill="#232F3E"/><path d=" M 39.599998 85.809998 C 39.344757 85.822983 39.093182 85.745026 38.889999 85.589996 C 38.713272 85.438095 38.617191 85.212677 38.630001 84.979996 C 38.615620 84.747040 38.711987 84.520950 38.889999 84.369995 C 39.088116 84.204575 39.342518 84.122162 39.599998 84.139992 C 39.854099 84.124771 40.104443 84.207024 40.299999 84.369995 C 40.480450 84.519913 40.580357 84.745628 40.570000 84.979996 C 40.578815 85.214073 40.479195 85.439140 40.299999 85.589996 C 40.102970 85.749374 39.852779 85.828011 39.599998 85.809998 Z M 38.770000 92.349998 L 38.770000 86.720001 L 40.419998 86.720001 L 40.419998 92.349998 Z" fill="#232F3E"/><path d=" M 41.880001 92.349998 L 41.880001 86.720001 L 43.230000 86.720001 L 43.410000 87.449997 C 43.610947 87.209991 43.855179 87.009857 44.130001 86.860001 C 44.358910 86.731735 44.617634 86.666191 44.880001 86.669998 C 45.009811 86.660080 45.140190 86.660080 45.270000 86.669998 L 45.270000 88.000000 C 45.056885 87.986336 44.843117 87.986336 44.630001 88.000000 C 44.248165 88.000481 43.871643 88.089478 43.530003 88.260002 L 43.529999 92.370003 Z" fill="#232F3E"/><path d=" M 47.230000 89.919998 C 47.218945 90.311180 47.346447 90.693687 47.590000 91.000000 C 47.885567 91.246262 48.266880 91.364975 48.650002 91.330002 C 48.879204 91.323997 49.107132 91.293831 49.330002 91.240005 C 49.601528 91.190041 49.868942 91.119843 50.130001 91.030006 L 50.130001 92.029999 C 49.871761 92.177193 49.591507 92.281868 49.299999 92.339996 C 48.971474 92.411812 48.636276 92.448685 48.299999 92.449997 C 46.580002 92.449997 45.720001 91.449997 45.720001 89.500000 C 45.669846 88.714424 45.896275 87.936081 46.360001 87.300003 C 46.814651 86.776291 47.487926 86.495148 48.180000 86.540001 C 49.549999 86.540001 50.230000 87.300003 50.230000 88.830002 C 50.229126 89.166870 50.188854 89.502487 50.110001 89.830002 Z M 48.139999 87.599998 C 47.570000 87.599998 47.259998 88.059998 47.230000 88.970001 L 48.840000 88.970001 L 48.840000 88.720001 C 48.865040 88.423065 48.806133 88.125076 48.670002 87.860001 C 48.552513 87.684830 48.350445 87.585701 48.140003 87.599998 Z" fill="#232F3E"/><path d=" M 55.410000 92.349998 L 54.610001 88.349998 L 53.840000 92.349998 L 52.290001 92.349998 L 50.730000 86.720001 L 52.450001 86.720001 L 53.160000 90.720001 L 53.930000 86.720001 L 55.400002 86.720001 L 56.220001 91.000000 L 56.869999 86.769997 L 58.529999 86.769997 L 57.000000 92.349998 Z" fill="#232F3E"/><path d=" M 62.220001 92.349998 L 62.070000 91.839996 C 61.916901 92.044678 61.713722 92.206528 61.480000 92.309998 C 61.236252 92.426201 60.970020 92.487640 60.700001 92.489998 C 60.254749 92.502617 59.825340 92.324303 59.520000 92.000000 C 59.213970 91.669823 59.055168 91.229507 59.080002 90.779999 C 59.056858 90.286880 59.250484 89.808296 59.610001 89.470001 C 60.013866 89.137909 60.527988 88.970108 61.049999 89.000000 C 61.360767 89.006325 61.669647 89.049973 61.969997 89.129997 L 61.970001 88.620003 C 61.997574 88.349762 61.941738 88.077560 61.810001 87.840004 C 61.645477 87.687714 61.422756 87.614693 61.200001 87.640007 C 60.595547 87.665237 59.998566 87.783279 59.430000 87.990005 L 59.430000 87.000000 C 59.717075 86.841576 60.027679 86.730164 60.349998 86.669998 C 60.728096 86.589996 61.113529 86.549774 61.500000 86.549995 C 62.038376 86.509987 62.572556 86.670242 63.000000 86.999992 C 63.349232 87.374199 63.520473 87.880630 63.470001 88.389992 L 63.470001 92.330002 Z M 61.220001 91.430000 C 61.518345 91.418404 61.800972 91.293190 62.010002 91.080002 L 62.009998 90.000000 C 61.807587 89.947983 61.598911 89.924423 61.389999 89.930000 C 61.189453 89.914780 60.992249 89.987816 60.849998 90.129997 C 60.718239 90.297188 60.654003 90.507729 60.669998 90.719994 C 60.659710 90.905304 60.712589 91.088631 60.820000 91.239990 C 60.904926 91.354698 61.037376 91.424606 61.180000 91.429993 Z" fill="#232F3E"/><path d=" M 67.290001 92.250000 C 66.969742 92.365929 66.630440 92.420219 66.290001 92.410004 C 65.901230 92.424904 65.524010 92.276192 65.250000 92.000000 C 64.986511 91.689018 64.857056 91.286263 64.889999 90.879997 L 64.889999 84.209999 L 66.540001 84.209999 L 66.540001 90.750000 C 66.529198 90.888161 66.556892 91.026619 66.620003 91.150002 C 66.699677 91.241310 66.819939 91.286407 66.940002 91.270004 C 67.056496 91.279053 67.173508 91.279053 67.290001 91.270004 Z" fill="#232F3E"/><path d=" M 70.699997 92.250000 C 70.379738 92.365929 70.040436 92.420219 69.699997 92.410004 C 69.311226 92.424904 68.934006 92.276192 68.659996 92.000000 C 68.396507 91.689018 68.267052 91.286263 68.299995 90.879997 L 68.300003 84.209999 L 70.000000 84.209999 L 70.000000 90.750000 C 69.989197 90.888161 70.016891 91.026619 70.080002 91.150002 C 70.159676 91.241310 70.279938 91.286407 70.400002 91.270004 C 70.516495 91.279053 70.633507 91.279053 70.750000 91.270004 Z" fill="#232F3E"/><path d=" M 25.510000 106.349998 L 25.510000 101.000000 L 24.100000 104.459999 L 22.670000 104.459999 L 21.270000 101.000000 L 21.270000 106.320000 L 19.770000 106.320000 L 19.770000 98.720001 L 21.690001 98.720001 L 23.420000 103.000000 L 25.139999 98.730003 L 27.000000 98.730003 L 27.000000 106.360001 Z" fill="#232F3E"/><path d=" M 31.450001 106.349998 L 31.309999 105.839996 C 31.154741 106.042564 30.952152 106.203949 30.719999 106.309998 C 30.473093 106.427322 30.203360 106.488777 29.929998 106.489998 C 29.491016 106.511780 29.063004 106.348557 28.749998 106.040001 C 28.446587 105.708809 28.291304 105.268242 28.319998 104.820000 C 28.296856 104.326881 28.490480 103.848297 28.849998 103.510002 C 29.247272 103.173096 29.760315 103.004471 30.279999 103.040001 C 30.594028 103.046669 30.906178 103.090302 31.209999 103.169998 L 31.209999 102.660004 C 31.237572 102.389763 31.181736 102.117561 31.049999 101.880005 C 30.885477 101.727715 30.662752 101.654694 30.439999 101.680008 C 29.835545 101.705238 29.238565 101.823280 28.669998 102.030006 L 28.670000 101.029999 C 28.953470 100.871468 29.260803 100.760017 29.580000 100.699997 C 29.961481 100.620018 30.350225 100.579803 30.740000 100.579994 C 31.283798 100.532089 31.825882 100.689011 32.259998 101.019997 C 32.604771 101.396851 32.775322 101.901237 32.730000 102.409996 L 32.730000 106.349998 Z M 30.450001 105.430000 C 30.748346 105.418404 31.030972 105.293190 31.240002 105.080002 L 31.240000 104.000000 C 31.034168 103.948074 30.822208 103.924522 30.610001 103.930000 C 30.412252 103.913605 30.217621 103.987053 30.080000 104.129997 C 29.940947 104.293694 29.872604 104.505920 29.889999 104.719994 C 29.879709 104.905304 29.932592 105.088631 30.039999 105.239990 C 30.131195 105.357796 30.271034 105.427719 30.419998 105.429993 Z" fill="#232F3E"/><path d=" M 37.230000 106.349998 L 37.230000 102.650002 C 37.251221 102.408081 37.202633 102.165154 37.090000 101.950005 C 36.977306 101.794876 36.790810 101.711143 36.599998 101.730003 C 36.307789 101.738640 36.023796 101.828682 35.779999 101.990005 L 35.779999 106.349998 L 34.130001 106.349998 L 34.130001 100.720001 L 35.480000 100.720001 L 35.610001 101.230003 C 36.144371 100.833908 36.785400 100.607452 37.450001 100.580002 C 37.851433 100.553581 38.243729 100.707565 38.520000 101.000000 C 38.782021 101.350540 38.909740 101.783371 38.880001 102.220001 L 38.880001 106.349998 Z" fill="#232F3E"/><path d=" M 43.189999 106.349998 L 43.040001 105.839996 C 42.886902 106.044678 42.683723 106.206528 42.450001 106.309998 C 42.206253 106.426201 41.940022 106.487640 41.670002 106.489998 C 41.230824 106.513031 40.802322 106.349617 40.490002 106.040001 C 40.183971 105.709824 40.025169 105.269508 40.050003 104.820000 C 40.026859 104.326881 40.220486 103.848297 40.580002 103.510002 C 40.972820 103.168266 41.479519 102.986282 42.000000 103.000000 C 42.310768 103.006325 42.619648 103.049973 42.919998 103.129997 L 42.919998 102.620003 C 42.947571 102.349762 42.891735 102.077560 42.759998 101.840004 C 42.595474 101.687714 42.372753 101.614693 42.149998 101.640007 C 41.545544 101.665237 40.948563 101.783279 40.379997 101.990005 L 40.380001 100.989998 C 40.667076 100.831573 40.977680 100.720161 41.299999 100.659996 C 41.678097 100.579994 42.063530 100.539772 42.450001 100.539993 C 43.006428 100.490013 43.560921 100.654572 44.000000 100.999992 C 44.349232 101.374199 44.520473 101.880630 44.470001 102.389992 L 44.470001 106.330002 Z M 42.189999 105.430000 C 42.488342 105.418404 42.770969 105.293190 42.980000 105.080002 L 42.980000 104.000000 C 42.777588 103.947983 42.568913 103.924423 42.360001 103.930000 C 42.159264 103.913399 41.961494 103.986649 41.820000 104.129997 C 41.688240 104.297188 41.624004 104.507729 41.639999 104.719994 C 41.629711 104.905304 41.682590 105.088631 41.790001 105.239990 C 41.874928 105.354698 42.007378 105.424606 42.150002 105.429993 Z" fill="#232F3E"/><path d=" M 48.759998 105.709999 C 48.448067 106.047455 48.009537 106.239540 47.549999 106.239998 C 46.974960 106.256142 46.431648 105.976936 46.110001 105.500000 C 45.733475 104.903000 45.548538 104.205116 45.580002 103.500000 C 45.537823 102.757782 45.726456 102.020706 46.120003 101.389999 C 46.439709 100.896965 46.992565 100.605385 47.580002 100.620003 C 47.825832 100.627289 48.067528 100.685165 48.290001 100.790001 C 48.527306 100.897537 48.741314 101.050400 48.920002 101.239998 L 49.040001 100.760002 L 50.389999 100.760002 L 50.389999 106.000000 C 50.389999 107.860001 49.540001 108.790001 47.820000 108.790001 C 47.182510 108.777115 46.557785 108.608925 46.000000 108.300003 L 46.000000 107.300003 C 46.519222 107.497826 47.065422 107.615837 47.619999 107.650002 C 47.860435 107.664276 48.100719 107.619652 48.320000 107.520004 C 48.488621 107.423470 48.613869 107.266022 48.669998 107.080002 C 48.754818 106.753838 48.788555 106.416504 48.769997 106.080002 Z M 48.099998 105.110001 C 48.336285 105.100060 48.565006 105.023819 48.759998 104.889999 L 48.759998 102.000000 C 48.549332 101.838676 48.294937 101.744583 48.029999 101.730003 C 47.760807 101.727432 47.519722 101.896187 47.430000 102.150002 C 47.274036 102.564812 47.205929 103.007492 47.230000 103.450005 C 47.205818 103.886879 47.277493 104.323753 47.439999 104.730003 C 47.565819 104.975739 47.824314 105.124565 48.099998 105.110001 Z" fill="#232F3E"/><path d=" M 53.000000 103.919998 C 52.979252 104.324760 53.107300 104.723129 53.360001 105.040001 C 53.655567 105.286263 54.036880 105.404976 54.420002 105.370003 C 54.649204 105.363998 54.877132 105.333832 55.100002 105.280006 C 55.371529 105.230042 55.638943 105.159843 55.900002 105.070007 L 55.900002 106.070000 C 55.641762 106.217194 55.361507 106.321869 55.070000 106.379997 C 54.741474 106.451813 54.406277 106.488686 54.070000 106.489998 C 52.349998 106.489998 51.490002 105.489998 51.490002 103.540001 C 51.439846 102.754425 51.666275 101.976082 52.130001 101.340004 C 52.584652 100.816292 53.257927 100.535149 53.950001 100.580002 C 55.320000 100.580002 55.950001 101.339996 55.950001 102.870003 C 55.949127 103.206871 55.908855 103.542488 55.830002 103.870003 Z M 53.910000 101.599998 C 53.340000 101.599998 53.029999 102.059998 53.000000 102.970001 L 54.610001 102.970001 L 54.610001 102.720001 C 54.635040 102.423065 54.576134 102.125076 54.440002 101.860001 C 54.328175 101.694191 54.139965 101.596321 53.940002 101.599998 Z" fill="#232F3E"/><path d=" M 57.169998 106.349998 L 57.169998 100.720001 L 58.520000 100.720001 L 58.700001 101.449997 C 58.900948 101.209991 59.145180 101.009857 59.420002 100.860001 C 59.649921 100.734291 59.907959 100.668915 60.170002 100.669998 C 60.299812 100.660080 60.430191 100.660080 60.560001 100.669998 L 60.560001 102.000000 C 60.346886 101.986336 60.133118 101.986336 59.920002 102.000000 C 59.538166 102.000481 59.161644 102.089478 58.820004 102.260002 L 58.820000 106.370003 Z" fill="#232F3E"/></g><g id="ICONS_-_EDIT"><path d=" M 38.880001 64.370003 L 38.549999 64.230003 L 38.549999 64.300003 C 36.171448 63.481678 33.911793 62.351849 31.830000 60.940002 C 27.697250 58.063633 26.402678 52.531490 28.830000 48.120003 L 29.150000 47.590000 C 31.280001 44.250000 29.080000 38.450001 29.059999 38.400002 C 28.940275 38.090927 28.981474 37.742615 29.170000 37.470001 C 29.349312 37.182980 29.661627 37.006126 30.000000 37.000000 C 32.360001 37.000000 34.369999 39.049999 35.599998 40.700001 C 36.310802 37.554184 35.346542 34.264351 33.049999 32.000000 C 32.700367 31.710573 32.589508 31.221975 32.779999 30.809999 C 32.968719 30.396725 33.412315 30.162603 33.860001 30.240000 C 35.678913 30.531837 37.396946 31.270590 38.860001 32.389999 L 38.959999 32.490002 L 38.209999 33.220001 L 37.619999 33.970001 C 37.261215 33.681343 36.876202 33.426903 36.469997 33.210003 C 37.639999 35.400002 38.560001 38.860001 36.919998 43.529999 C 36.787788 43.899776 36.451389 44.157944 36.059998 44.189999 C 35.651424 44.238918 35.254597 44.032570 35.059998 43.669998 C 34.190670 42.036797 32.959263 40.624100 31.459997 39.539997 C 32.049999 41.840000 32.639999 45.820000 30.799999 48.700001 L 30.530001 49.150002 C 28.629488 52.653141 29.667564 57.025120 32.940002 59.300003 C 34.880772 60.610104 36.985508 61.659107 39.200001 62.420002 C 39.346554 62.474144 39.479614 62.559441 39.590000 62.670002 L 38.880001 63.340000 Z" fill="#FFFFFF"/><path d=" M 39.000000 64.500000 C 38.537994 64.517082 38.124512 64.215240 38.000000 63.770000 C 37.689999 62.919998 35.360001 56.020000 38.500000 49.270000 C 38.669998 48.900002 38.849998 48.549999 39.049999 48.189999 C 40.277493 46.097443 40.948807 43.725468 41.000000 41.299999 C 41.056728 39.203884 40.404945 37.149887 39.150002 35.469997 C 39.053215 35.341324 38.949738 35.217819 38.840000 35.099998 L 38.840000 35.099998 C 38.494869 34.732643 38.116600 34.397892 37.709999 34.099998 C 37.278126 33.755756 37.207085 33.126587 37.551327 32.694714 C 37.805817 32.375439 38.228848 32.242943 38.619999 32.359997 L 38.720001 32.360001 L 38.900002 32.439999 C 43.855778 34.703232 47.161835 39.512390 47.500000 44.949997 C 47.714977 44.187798 47.862213 43.408104 47.939999 42.619995 C 48.000443 42.071030 48.494465 41.674999 49.043434 41.735443 C 49.171875 41.749584 49.296360 41.788486 49.410000 41.849995 C 49.650002 41.970001 55.020000 45.049999 52.330002 55.480000 C 50.330002 63.299999 40.330002 64.419998 39.150002 64.480003 Z M 42.410000 37.500000 C 42.795273 38.730110 42.994148 40.010983 43.000000 41.299999 C 42.970455 44.059879 42.233654 46.766071 40.860001 49.160000 C 40.686668 49.480000 40.526669 49.813332 40.380001 50.160000 C 38.000000 55.200001 39.150002 60.509998 39.700001 62.410000 C 42.000000 62.060001 48.900002 60.560001 50.360001 55.000000 C 51.820000 49.439999 50.639999 46.220001 49.570000 44.759998 C 49.229179 46.719158 48.285278 48.523056 46.869999 49.919998 C 46.442890 50.270138 45.812809 50.207745 45.462669 49.780636 C 45.279373 49.557049 45.201817 49.265072 45.250000 48.979996 C 46.130001 43.459999 44.410000 39.810001 42.410000 37.509998 Z" fill="#FFFFFF"/><path d=" M 24.809999 58.189999 C 19.851366 53.891312 17.001955 47.652527 17.000000 41.090000 C 17.000000 40.549999 17.000000 40.020000 17.059999 39.490002 L 19.059999 39.630001 C 19.059999 40.119999 19.059999 40.630001 19.059999 41.090000 C 19.060396 47.071117 21.654076 52.758240 26.170000 56.680000 Z" fill="#FFFFFF"/><path d=" M 20.450001 33.520000 L 18.590000 32.779999 C 20.031105 29.123592 22.402807 25.907316 25.469999 23.449999 L 26.719999 25.000000 C 23.923330 27.245165 21.761927 30.182192 20.449999 33.520000 Z" fill="#FFFFFF"/><path d=" M 57.880001 54.549999 L 56.270000 53.360001 C 58.897308 49.811302 60.301052 45.505322 60.270000 41.090000 L 60.270000 40.669998 L 62.270000 40.540001 C 62.270000 40.720001 62.270000 40.919998 62.270000 41.090000 C 62.300327 45.933285 60.760025 50.655933 57.880001 54.549999 Z" fill="#FFFFFF"/><path d=" M 59.230000 34.459999 C 58.722763 32.983162 58.051926 31.567696 57.230000 30.240000 L 58.919998 29.180000 C 59.826477 30.634945 60.564552 32.188259 61.119999 33.810001 Z" fill="#FFFFFF"/><path d=" M 49.389999 22.879999 C 45.467384 20.788956 40.976505 20.014183 36.579998 20.670000 L 36.279999 18.670000 C 41.105026 17.937426 46.037556 18.786409 50.340000 21.090000 Z" fill="#FFFFFF"/><path d=" M 55.000000 29.500000 C 52.790859 29.500000 51.000000 27.709139 51.000000 25.500000 C 51.000000 23.290861 52.790859 21.500000 55.000000 21.500000 C 57.209141 21.500000 59.000000 23.290861 59.000000 25.500000 C 59.000000 27.709139 57.209141 29.500000 55.000000 29.500000 Z M 55.000000 23.500000 C 53.895432 23.500000 53.000000 24.395430 53.000000 25.500000 C 53.000000 26.604570 53.895432 27.500000 55.000000 27.500000 C 56.104568 27.500000 57.000000 26.604570 57.000000 25.500000 C 57.000000 24.395430 56.104568 23.500000 55.000000 23.500000 Z" fill="#FFFFFF"/><path d=" M 32.000000 25.500000 C 29.790861 25.500000 28.000000 23.709139 28.000000 21.500000 C 28.000000 19.290861 29.790861 17.500000 32.000000 17.500000 C 34.209141 17.500000 36.000000 19.290861 36.000000 21.500000 C 36.000000 23.709139 34.209141 25.500000 32.000000 25.500000 Z M 32.000000 19.500000 C 30.895430 19.500000 30.000000 20.395430 30.000000 21.500000 C 30.000000 22.604570 30.895430 23.500000 32.000000 23.500000 C 33.104568 23.500000 34.000000 22.604570 34.000000 21.500000 C 34.000000 20.395430 33.104568 19.500000 32.000000 19.500000 Z" fill="#FFFFFF"/><path d=" M 61.000000 41.500000 C 58.790859 41.500000 57.000000 39.709141 57.000000 37.500000 C 57.000000 35.290859 58.790859 33.500000 61.000000 33.500000 C 63.209141 33.500000 65.000000 35.290859 65.000000 37.500000 C 65.000000 39.709141 63.209141 41.500000 61.000000 41.500000 Z M 61.000000 35.500000 C 59.895432 35.500000 59.000000 36.395432 59.000000 37.500000 C 59.000000 38.604568 59.895432 39.500000 61.000000 39.500000 C 62.104568 39.500000 63.000000 38.604568 63.000000 37.500000 C 63.000000 36.395432 62.104568 35.500000 61.000000 35.500000 Z" fill="#FFFFFF"/><path d=" M 19.000000 40.500000 C 16.790861 40.500000 15.000000 38.709141 15.000000 36.500000 C 15.000000 34.290859 16.790861 32.500000 19.000000 32.500000 C 21.209139 32.500000 23.000000 34.290859 23.000000 36.500000 C 23.000000 38.709141 21.209139 40.500000 19.000000 40.500000 Z M 19.000000 34.500000 C 17.895430 34.500000 17.000000 35.395432 17.000000 36.500000 C 17.000000 37.604568 17.895430 38.500000 19.000000 38.500000 C 20.104570 38.500000 21.000000 37.604568 21.000000 36.500000 C 21.000000 35.395432 20.104570 34.500000 19.000000 34.500000 Z" fill="#FFFFFF"/></g></svg>