<svg version="1.1" width="80.000000" height="115.000000" viewBox="0.000000 0.000000 80.000000 115.000000" xmlns="http://www.w3.org/2000/svg" xmlns:xlink="http://www.w3.org/1999/xlink" overflow="hidden"><g id="CARDS"><rect x="1.000000" y="1.000000" width="78.000000" height="78.000000" fill="#232F3E"/><path d=" M 0.000000 0.000000 L 0.000000 80.000000 L 0.000000 80.000000 L 0.000000 115.000000 L 80.000000 115.000000 L 80.000000 80.000000 L 80.000000 80.000000 L 80.000000 0.000000 Z M 1.000000 1.000000 L 79.000000 1.000000 L 79.000000 79.000000 L 1.000000 79.000000 Z" fill="#FFFFFF"/></g><g id="TEXT_-_EDIT"><path d=" M 25.350000 92.349998 L 24.920000 90.529999 L 22.920000 90.529999 L 22.500000 92.349998 L 20.719999 92.349998 L 23.000000 84.720001 L 24.900000 84.720001 L 27.209999 92.349998 Z M 23.170000 89.430000 L 24.660000 89.430000 L 23.900000 86.269997 Z" fill="#232F3E"/><path d=" M 34.060001 92.349998 L 34.060001 88.639999 C 34.076664 88.401566 34.028278 88.163086 33.920002 87.949997 C 33.819908 87.796371 33.642418 87.711487 33.460003 87.729996 C 33.174831 87.743271 32.898491 87.833084 32.660004 87.989998 C 32.664822 88.029854 32.664822 88.070145 32.660004 88.110001 L 32.660000 92.349998 L 31.000000 92.349998 L 31.000000 88.639999 C 31.019257 88.402504 30.974358 88.164200 30.870001 87.949997 C 30.765142 87.796478 30.585056 87.712181 30.400002 87.729996 C 30.121338 87.744865 29.851856 87.834694 29.620001 87.989998 L 29.620001 92.349998 L 28.000000 92.349998 L 28.000000 86.720001 L 29.350000 86.720001 L 29.480000 87.230003 C 30.005705 86.838974 30.635632 86.612755 31.289999 86.580002 C 31.787903 86.543671 32.259682 86.807076 32.489998 87.250000 C 33.020988 86.851845 33.657448 86.618820 34.320000 86.580002 C 34.698605 86.567619 35.063778 86.720993 35.320000 87.000000 C 35.580429 87.351334 35.707973 87.783562 35.680000 88.220001 L 35.680000 92.349998 Z" fill="#232F3E"/><path d=" M 40.000000 92.349998 L 39.860001 91.839996 C 39.704742 92.042564 39.502155 92.203949 39.270000 92.309998 C 39.023094 92.427322 38.753361 92.488777 38.480000 92.489998 C 38.038441 92.498497 37.613724 92.320625 37.310001 92.000000 C 37.006588 91.668808 36.851307 91.228241 36.880001 90.779999 C 36.856857 90.286880 37.050484 89.808296 37.410000 89.470001 C 37.807274 89.133095 38.320316 88.964470 38.840000 89.000000 C 39.154030 89.006668 39.466179 89.050301 39.770000 89.129997 L 39.770000 88.620003 C 39.797573 88.349762 39.741737 88.077560 39.610001 87.840004 C 39.445477 87.687714 39.222755 87.614693 39.000000 87.640007 C 38.395546 87.665237 37.798565 87.783279 37.230000 87.990005 L 37.230000 87.000000 C 37.516563 86.840446 37.827354 86.728966 38.149998 86.669998 C 38.528015 86.589485 38.913502 86.549255 39.299999 86.549995 C 39.843796 86.502090 40.385880 86.659012 40.820000 86.989998 C 41.164772 87.366852 41.335323 87.871239 41.290001 88.379997 L 41.290001 92.320000 Z M 39.000000 91.430000 C 39.298344 91.418404 39.580971 91.293190 39.790001 91.080002 L 39.790001 90.000000 C 39.587475 89.948616 39.378887 89.925064 39.170002 89.930000 C 38.969070 89.911972 38.770714 89.985435 38.630001 90.129997 C 38.490948 90.293694 38.422604 90.505920 38.440002 90.719994 C 38.429714 90.905304 38.482594 91.088631 38.590004 91.239990 C 38.687565 91.366325 38.840549 91.437218 39.000004 91.429993 Z" fill="#232F3E"/><path d=" M 42.279999 92.349998 L 42.279999 91.279999 L 44.770000 87.879997 L 42.369999 87.879997 L 42.369999 86.720001 L 46.509998 86.720001 L 46.509998 87.790001 L 44.000000 91.190002 L 46.540001 91.190002 L 46.540001 92.349998 Z" fill="#232F3E"/><path d=" M 49.790001 92.489998 C 49.108715 92.511253 48.453094 92.229225 48.000000 91.720001 C 47.133984 90.392052 47.133984 88.677956 48.000000 87.349998 C 49.011749 86.331032 50.657967 86.325180 51.676933 87.336929 C 51.681305 87.341270 51.685661 87.345627 51.690002 87.349998 C 52.556019 88.677948 52.556019 90.392044 51.690002 91.720001 C 51.211487 92.259041 50.508781 92.543823 49.790001 92.489998 Z M 49.790001 91.339996 C 50.076321 91.350388 50.337559 91.177567 50.440002 90.909996 C 50.706799 90.016144 50.706799 89.063843 50.440002 88.169998 C 50.304638 87.813774 49.906124 87.634735 49.549900 87.770103 C 49.365585 87.840141 49.220043 87.985687 49.150002 88.169998 C 48.883205 89.063850 48.883205 90.016151 49.150002 90.909996 C 49.248730 91.175995 49.506416 91.349129 49.790001 91.339996 Z" fill="#232F3E"/><path d=" M 56.549999 92.349998 L 56.549999 88.650002 C 56.566494 88.408363 56.518166 88.166710 56.410000 87.950005 C 56.294102 87.793236 56.103878 87.709541 55.910000 87.730003 C 55.621128 87.739960 55.340698 87.829971 55.099998 87.990005 L 55.099998 92.349998 L 53.439999 92.349998 L 53.439999 86.720001 L 54.790001 86.720001 L 54.930000 87.230003 C 55.464371 86.833908 56.105400 86.607452 56.770000 86.580002 C 57.171432 86.553581 57.563728 86.707565 57.840000 87.000000 C 58.102020 87.350540 58.229740 87.783371 58.200001 88.220001 L 58.200001 92.349998 Z" fill="#232F3E"/><path d=" M 18.170000 105.250000 C 18.359743 105.263977 18.550257 105.263977 18.740000 105.250000 L 18.740000 103.250000 L 17.580000 103.250000 L 17.580000 102.139999 L 20.280001 102.139999 L 20.280001 105.910004 C 19.926714 106.106285 19.545723 106.247894 19.150002 106.330002 C 18.707031 106.430351 18.254196 106.480667 17.800001 106.480003 C 16.875916 106.541153 15.975385 106.172089 15.360002 105.480003 C 14.749553 104.656525 14.451817 103.642807 14.520001 102.620003 C 14.437142 101.544525 14.754050 100.476295 15.410002 99.620003 C 16.084248 98.915726 17.037592 98.549057 18.010002 98.620003 C 18.703976 98.598663 19.392046 98.753479 20.010002 99.070000 L 20.010000 100.239998 C 19.707485 100.115891 19.392265 100.025345 19.070000 99.970001 C 18.774307 99.905373 18.472666 99.871857 18.170000 99.870003 C 17.606606 99.819138 17.053932 100.046928 16.690001 100.480003 C 16.336149 101.084099 16.175629 101.782013 16.230001 102.480003 L 16.230000 102.690002 C 16.167999 103.387268 16.325323 104.086487 16.680000 104.690002 C 17.055216 105.109085 17.611643 105.318207 18.170000 105.250000 Z" fill="#232F3E"/><path d=" M 24.940001 106.349998 L 24.809999 105.839996 C 24.297445 106.234222 23.675983 106.461166 23.029999 106.489998 C 22.648207 106.508453 22.279240 106.349800 22.029999 106.059998 C 21.779741 105.696587 21.656687 105.260620 21.679998 104.820000 L 21.680000 100.720001 L 23.299999 100.720001 L 23.299999 104.339996 C 23.281782 104.604317 23.329906 104.869003 23.439999 105.109993 C 23.525272 105.269989 23.699953 105.361298 23.879999 105.339996 C 24.152058 105.331230 24.415863 105.244446 24.639999 105.089996 L 24.639999 100.720001 L 26.290001 100.720001 L 26.290001 106.349998 Z" fill="#232F3E"/><path d=" M 30.620001 106.349998 L 30.469999 105.839996 C 30.316902 106.044678 30.113724 106.206528 29.879999 106.309998 C 29.636251 106.426201 29.370020 106.487640 29.099998 106.489998 C 28.660818 106.513031 28.232317 106.349617 27.919998 106.040001 C 27.613968 105.709824 27.455166 105.269508 27.479998 104.820000 C 27.456856 104.326881 27.650480 103.848297 28.009998 103.510002 C 28.413862 103.177910 28.927986 103.010109 29.449999 103.040001 C 29.760765 103.046326 30.069647 103.089973 30.369999 103.169998 L 30.370001 102.660004 C 30.397573 102.389763 30.341738 102.117561 30.210001 101.880005 C 30.045479 101.727715 29.822754 101.654694 29.600000 101.680008 C 28.995546 101.705238 28.398567 101.823280 27.830000 102.030006 L 27.830000 101.029999 C 28.117077 100.871574 28.427679 100.760162 28.750000 100.699997 C 29.128098 100.619995 29.513531 100.579773 29.900000 100.579994 C 30.443798 100.532089 30.985882 100.689011 31.420000 101.019997 C 31.769232 101.394203 31.940474 101.900635 31.889999 102.409996 L 31.889999 106.349998 Z M 29.620001 105.430000 C 29.918346 105.418404 30.200972 105.293190 30.410002 105.080002 L 30.410000 104.000000 C 30.207586 103.947983 29.998915 103.924423 29.789999 103.930000 C 29.589453 103.914780 29.392248 103.987816 29.249998 104.129997 C 29.118237 104.297188 29.054003 104.507729 29.069998 104.719994 C 29.059708 104.905304 29.112591 105.088631 29.219997 105.239990 C 29.304924 105.354698 29.437374 105.424606 29.579998 105.429993 Z" fill="#232F3E"/><path d=" M 33.290001 106.349998 L 33.290001 100.720001 L 34.639999 100.720001 L 34.820000 101.449997 C 35.020947 101.209991 35.265179 101.009857 35.540001 100.860001 C 35.768909 100.731735 36.027634 100.666191 36.290001 100.669998 C 36.419811 100.660080 36.550190 100.660080 36.680000 100.669998 L 36.680000 102.000000 C 36.466885 101.986336 36.253117 101.986336 36.040001 102.000000 C 35.658165 102.000481 35.281643 102.089478 34.940002 102.260002 L 34.939999 106.370003 Z" fill="#232F3E"/><path d=" M 40.680000 106.349998 L 40.540001 105.860001 C 40.359531 106.042419 40.145641 106.188408 39.910000 106.290001 C 39.682377 106.387421 39.437592 106.438423 39.189999 106.440002 C 38.591473 106.464928 38.021790 106.181969 37.680000 105.690002 C 37.288979 105.051193 37.103947 104.307564 37.150002 103.560005 C 37.102669 102.790710 37.294807 102.025650 37.700001 101.370003 C 38.037571 100.858131 38.617207 100.558846 39.230000 100.580002 C 39.445469 100.590401 39.658012 100.634262 39.860001 100.709999 C 40.078537 100.789223 40.284107 100.900436 40.470001 101.040001 L 40.470001 98.209999 L 42.119999 98.209999 L 42.119999 106.349998 Z M 39.750000 105.349998 C 40.006092 105.346977 40.255955 105.270630 40.470001 105.129997 L 40.470001 102.000000 C 40.236198 101.841095 39.962482 101.751007 39.680000 101.739998 C 39.382881 101.727325 39.110188 101.903778 39.000000 102.180000 C 38.837902 102.624512 38.769798 103.097824 38.799999 103.570000 C 38.769703 104.034126 38.844917 104.499092 39.020000 104.930000 C 39.166843 105.190842 39.451546 105.342941 39.750000 105.320000 Z" fill="#232F3E"/><path d=" M 43.650002 106.349998 L 43.650002 98.720001 L 46.169998 98.720001 C 47.068741 98.671806 47.939487 99.040771 48.529999 99.720001 C 49.124466 100.542496 49.411152 101.547661 49.340000 102.559998 C 49.408833 103.573708 49.126312 104.580185 48.540001 105.409996 C 47.968781 106.086273 47.114021 106.456299 46.230000 106.409996 Z M 45.340000 99.900002 L 45.340000 105.169998 L 46.049999 105.169998 C 46.523918 105.192314 46.972355 104.954681 47.219997 104.549995 C 47.510422 103.957146 47.641392 103.298859 47.599998 102.639992 L 47.599998 102.419998 C 47.648647 101.760666 47.517307 101.100502 47.219997 100.509995 C 46.964561 100.088875 46.490154 99.851669 45.999996 99.899994 Z" fill="#232F3E"/><path d=" M 53.919998 106.349998 L 53.779999 105.839996 C 53.267445 106.234222 52.645985 106.461166 52.000000 106.489998 C 51.617653 106.511559 51.247372 106.352333 51.000000 106.059998 C 50.741695 105.700417 50.617828 105.261566 50.650002 104.820000 L 50.650002 100.720001 L 52.299999 100.720001 L 52.299999 104.339996 C 52.279488 104.603439 52.324135 104.867889 52.430000 105.109993 C 52.522514 105.267639 52.698036 105.357353 52.880001 105.339996 C 53.149136 105.332176 53.410000 105.245216 53.630001 105.089996 L 53.630001 100.720001 L 55.290001 100.720001 L 55.290001 106.349998 Z" fill="#232F3E"/><path d=" M 59.720001 106.199997 C 59.326691 106.347153 58.909935 106.421692 58.490002 106.419998 C 57.692200 106.570419 56.923512 106.045616 56.773087 105.247818 C 56.740219 105.073509 56.739174 104.894684 56.770000 104.720001 L 56.770000 101.820000 L 56.000000 101.820000 L 56.000000 100.900002 L 56.779999 100.750000 L 57.020000 99.209999 L 58.380001 99.209999 L 58.380001 100.720001 L 59.700001 100.720001 L 59.700001 101.820000 L 58.419998 101.820000 L 58.419998 104.589996 C 58.401527 104.776146 58.455219 104.962288 58.570000 105.109993 C 58.715340 105.237236 58.908527 105.295555 59.099998 105.269997 C 59.308975 105.266144 59.516891 105.239319 59.719997 105.189995 Z" fill="#232F3E"/><path d=" M 62.290001 106.459999 L 60.290001 100.720001 L 62.040001 100.720001 L 62.970001 104.860001 L 63.869999 100.720001 L 65.570000 100.720001 L 63.570000 107.199997 C 63.460709 107.647972 63.228691 108.056602 62.900002 108.379997 C 62.586205 108.631195 62.191502 108.759209 61.790001 108.739998 C 61.430653 108.740013 61.073334 108.686081 60.730000 108.579994 L 60.730000 107.580002 C 60.923107 107.593239 61.116894 107.593239 61.310001 107.580002 C 61.556923 107.600166 61.801685 107.520981 61.990002 107.360001 C 62.174423 107.156609 62.280727 106.894394 62.290001 106.620003 Z" fill="#232F3E"/></g><g id="ICONS_-_EDIT"><path d=" M 44.770000 65.000000 L 35.230000 65.000000 C 34.954338 65.001701 34.690205 64.889534 34.500000 64.690002 C 34.309944 64.488228 34.212162 64.216621 34.230000 63.940002 L 34.410000 60.799999 C 32.603848 60.315292 30.869059 59.595825 29.250000 58.660000 L 27.150000 61.000000 C 26.965647 61.204407 26.705189 61.323780 26.430000 61.330002 C 26.157297 61.336948 25.893593 61.232189 25.700001 61.040001 L 19.000000 54.299999 C 18.807812 54.106407 18.703053 53.842701 18.709999 53.570000 C 18.716217 53.294811 18.835594 53.034351 19.039999 52.849998 L 21.389999 50.750000 C 20.457331 49.130585 19.741217 47.395771 19.260000 45.590000 L 16.110001 45.770000 C 15.558711 45.803139 15.084939 45.383095 15.051801 44.831802 C 15.050564 44.811226 15.049964 44.790615 15.050000 44.770000 L 15.050000 35.230000 C 15.048299 34.954338 15.160466 34.690205 15.360001 34.500000 C 15.561775 34.309944 15.833385 34.212162 16.110001 34.230000 L 19.270000 34.410000 C 19.752214 32.606171 20.471838 30.874367 21.410000 29.260000 L 19.000000 27.150000 C 18.795595 26.965647 18.676218 26.705189 18.670000 26.430000 C 18.673464 26.151312 18.793077 25.886715 19.000000 25.700001 L 25.700001 19.000000 C 26.080387 18.599594 26.713343 18.583363 27.113750 18.963749 C 27.126143 18.975521 27.138229 18.987608 27.150002 19.000000 L 29.260000 21.360001 C 30.876734 20.429062 32.608009 19.713020 34.410000 19.230001 L 34.230000 16.070000 C 34.212162 15.793384 34.309944 15.521774 34.500000 15.320000 C 34.690205 15.120465 34.954338 15.008298 35.230000 15.009999 L 44.770000 15.010000 C 45.045662 15.008299 45.309795 15.120466 45.500000 15.320001 C 45.690056 15.521775 45.787838 15.793385 45.770000 16.070000 L 45.590000 19.230000 C 47.392368 19.716503 49.123623 20.435898 50.740002 21.369999 L 52.849998 19.000000 C 53.034351 18.795595 53.294807 18.676218 53.570000 18.670000 C 53.842701 18.663052 54.106407 18.767811 54.299999 18.960001 L 61.049999 25.709999 C 61.450405 26.090385 61.466637 26.723341 61.086250 27.123749 C 61.074478 27.136141 61.062389 27.148228 61.049999 27.160000 L 58.689999 29.260000 C 59.624184 30.879869 60.343559 32.614437 60.829998 34.420002 L 63.980000 34.240002 C 64.255440 34.230045 64.524109 34.326763 64.729996 34.510002 C 64.929527 34.700207 65.041695 34.964340 65.039993 35.240002 L 65.040001 44.779999 C 65.041702 45.055660 64.929535 45.319794 64.730003 45.509998 C 64.528229 45.700054 64.256622 45.797836 63.980003 45.779999 L 60.830002 45.599998 C 60.347950 47.407051 59.628342 49.142181 58.690002 50.759998 L 61.000000 52.849998 C 61.204407 53.034351 61.323780 53.294807 61.330002 53.570000 C 61.336948 53.842701 61.232189 54.106407 61.040001 54.299999 L 54.299999 61.049999 C 54.106407 61.242188 53.842701 61.346947 53.570000 61.340000 C 53.294811 61.333782 53.034351 61.214405 52.849998 61.009998 L 50.759998 58.660000 C 49.138680 59.598412 47.400238 60.317997 45.590000 60.799999 L 45.770000 63.939999 C 45.787838 64.216614 45.690056 64.488228 45.500000 64.690002 C 45.309795 64.889534 45.045662 65.001701 44.770000 65.000000 Z M 36.290001 63.000000 L 43.709999 63.000000 L 43.540001 60.090000 C 43.528351 59.613338 43.854847 59.194756 44.320000 59.090000 C 46.482883 58.606289 48.546349 57.753841 50.419998 56.570000 C 50.833321 56.309128 51.374653 56.385254 51.699997 56.750000 L 53.639999 58.930000 L 58.889999 53.680000 L 56.700001 51.680000 C 56.335255 51.354656 56.259132 50.813324 56.520000 50.400002 C 57.691093 48.531509 58.530128 46.474518 59.000000 44.320000 C 59.104755 43.854847 59.523338 43.528351 60.000000 43.540001 L 62.930000 43.709999 L 62.930000 36.290001 L 60.000000 36.459999 C 59.523338 36.471649 59.104755 36.145153 59.000000 35.680000 C 58.511856 33.524776 57.659634 31.468618 56.480000 29.600000 C 56.219128 29.186678 56.295254 28.645346 56.660000 28.320000 L 58.849998 26.320000 L 53.599998 21.070000 L 51.599998 23.270000 C 51.274654 23.634747 50.733322 23.710871 50.320000 23.450001 C 48.471264 22.303188 46.443058 21.475002 44.320000 21.000000 C 43.854847 20.895247 43.528351 20.476660 43.540001 20.000000 L 43.709999 17.000000 L 36.290001 17.000000 L 36.459999 19.940001 C 36.471649 20.416660 36.145153 20.835247 35.680000 20.940001 C 33.523396 21.423790 31.466516 22.276314 29.600000 23.460001 C 29.186678 23.720871 28.645346 23.644747 28.320000 23.280001 L 26.320000 21.080000 L 21.070000 26.330000 L 23.270000 28.330000 C 23.634747 28.655344 23.710871 29.196678 23.450001 29.610001 C 22.294022 31.479252 21.465466 33.532043 21.000000 35.680000 C 20.895247 36.145153 20.476660 36.471649 20.000000 36.459999 L 17.000000 36.290001 L 17.000000 43.709999 L 19.920000 43.540001 C 20.396660 43.528351 20.815247 43.854847 20.920000 44.320000 C 21.406313 46.478931 22.258621 48.538681 23.440001 50.410000 C 23.700871 50.823322 23.624746 51.364655 23.260000 51.689999 L 21.080000 53.689999 L 26.330000 58.939999 L 28.280001 56.759998 C 28.605345 56.395252 29.146679 56.319130 29.560001 56.579998 C 31.433027 57.758076 33.492191 58.610146 35.650002 59.099998 C 36.115154 59.204754 36.441650 59.623337 36.430000 60.099998 Z" fill="#FFFFFF"/><path d=" M 40.000000 55.180000 C 28.139999 55.180000 28.000000 42.560001 28.000000 42.430000 L 28.000000 29.540001 C 28.002016 29.136299 28.246574 28.773405 28.620001 28.620001 L 39.619999 24.080000 C 39.861492 23.970472 40.138504 23.970472 40.379997 24.080000 L 51.380001 28.620001 C 51.753426 28.773405 51.997986 29.136299 52.000000 29.540001 L 52.000000 42.470001 C 52.000000 42.590000 51.860001 55.180000 40.000000 55.180000 Z M 30.000000 30.180000 L 30.000000 42.430000 C 30.000000 42.869999 30.150000 53.180000 40.000000 53.180000 C 49.849998 53.180000 50.000000 42.900002 50.000000 42.470001 L 50.000000 30.209999 L 40.000000 26.080000 Z" fill="#FFFFFF"/><path d=" M 40.000000 51.070000 C 33.650002 51.070000 32.080002 43.230000 32.000000 42.889999 C 31.995083 42.830101 31.995083 42.769897 32.000000 42.709999 L 32.000000 32.830002 C 31.999603 32.420197 32.249279 32.051628 32.630001 31.900002 L 39.630001 29.070000 C 39.867592 28.975376 40.132408 28.975376 40.370003 29.070000 L 47.369999 31.900000 C 47.750721 32.051628 48.000397 32.420197 48.000000 32.829998 L 48.000000 42.709999 C 48.004917 42.769897 48.004917 42.830101 48.000000 42.889999 C 47.919998 43.230000 46.360001 51.070000 40.000000 51.070000 Z M 34.000000 42.599998 C 34.169998 43.360001 35.590000 49.070000 40.000000 49.070000 C 44.410000 49.070000 45.830002 43.360001 46.000000 42.599998 L 46.000000 33.500000 L 40.000000 31.080000 L 34.000000 33.500000 Z" fill="#FFFFFF"/><rect x="39.000000" y="30.000000" width="2.000000" height="20.070000" fill="#FFFFFF"/></g></svg>