<svg version="1.1" width="80.000000" height="130.000000" viewBox="0.000000 0.000000 80.000000 130.000000" xmlns="http://www.w3.org/2000/svg" xmlns:xlink="http://www.w3.org/1999/xlink" overflow="hidden"><g id="CARDS"><rect x="1.000000" y="1.000000" width="78.000000" height="78.000000" fill="#232F3E"/><path d=" M 0.000000 0.000000 L 0.000000 80.000000 L 0.000000 80.000000 L 0.000000 130.000000 L 80.000000 130.000000 L 80.000000 80.000000 L 80.000000 80.000000 L 80.000000 0.000000 Z M 1.000000 1.000000 L 79.000000 1.000000 L 79.000000 79.000000 L 1.000000 79.000000 Z" fill="#FFFFFF"/></g><g id="TEXT_-_EDIT"><path d=" M 13.530000 92.349998 L 13.100000 90.529999 L 11.100000 90.529999 L 10.680000 92.349998 L 8.910000 92.349998 L 11.220000 84.720001 L 13.090000 84.720001 L 15.390000 92.349998 Z M 11.350000 89.430000 L 12.840000 89.430000 L 12.090000 86.269997 Z" fill="#232F3E"/><path d=" M 20.740000 92.349998 L 19.799999 86.720001 L 18.900000 92.349998 L 17.000000 92.349998 L 15.210000 84.720001 L 17.000000 84.720001 L 18.000000 90.779999 L 18.930000 85.000000 L 20.760000 85.000000 L 21.700001 90.650002 L 22.700001 84.650002 L 24.370001 84.650002 L 22.600000 92.349998 Z" fill="#232F3E"/><path d=" M 26.690001 89.000000 C 26.192724 88.768532 25.754913 88.426491 25.410000 88.000000 C 25.140543 87.646904 24.996294 87.214149 25.000000 86.769997 C 24.993391 86.354721 25.111856 85.947060 25.340000 85.599998 C 25.568213 85.261978 25.887066 84.995110 26.260000 84.830002 C 26.684984 84.642815 27.145712 84.550667 27.610001 84.560005 C 28.259569 84.563965 28.901924 84.696510 29.500000 84.950005 L 29.500000 86.120003 C 28.947973 85.918839 28.367279 85.807426 27.780001 85.790001 C 27.504074 85.773247 27.230217 85.846977 27.000000 86.000000 C 26.807280 86.155251 26.699665 86.392738 26.709999 86.639999 C 26.700495 86.843941 26.768354 87.043945 26.900000 87.199997 C 27.103886 87.408470 27.349142 87.571976 27.619999 87.680000 L 28.270000 88.000000 C 28.625193 88.169128 28.960569 88.377060 29.270000 88.620003 C 29.502378 88.803719 29.687513 89.040283 29.810001 89.310005 C 29.937578 89.599503 29.999067 89.913780 29.990002 90.230003 C 30.020264 90.866478 29.745428 91.479286 29.250002 91.880005 C 28.672972 92.306587 27.966883 92.521950 27.250002 92.490005 C 26.870203 92.489128 26.491514 92.448914 26.120003 92.370003 C 25.790890 92.304649 25.471584 92.197090 25.170002 92.050003 L 25.170000 90.919998 C 25.497162 91.026321 25.831295 91.109856 26.170000 91.169998 C 26.482731 91.235054 26.800676 91.271873 27.120001 91.279999 C 27.437479 91.295662 27.749949 91.196243 28.000000 91.000000 C 28.206396 90.823906 28.317593 90.560738 28.299999 90.290001 C 28.306087 90.077034 28.231022 89.869705 28.090000 89.709999 C 27.886230 89.513252 27.649240 89.354134 27.389999 89.239998 Z" fill="#232F3E"/><path d=" M 33.810001 92.349998 L 33.810001 84.720001 L 35.490002 84.720001 L 35.490002 92.349998 Z" fill="#232F3E"/><path d=" M 40.330002 92.349998 L 40.189999 91.860001 C 40.009529 92.042419 39.795639 92.188408 39.559998 92.290001 C 39.332375 92.387421 39.087589 92.438423 38.839996 92.440002 C 38.241470 92.464928 37.671787 92.181969 37.329998 91.690002 C 36.938976 91.051193 36.753944 90.307564 36.799999 89.560005 C 36.752666 88.790710 36.944805 88.025650 37.349998 87.370003 C 37.687569 86.858131 38.267204 86.558846 38.879997 86.580002 C 39.095634 86.589058 39.308388 86.632957 39.509998 86.709999 C 39.728535 86.789223 39.934105 86.900436 40.119999 87.040001 L 40.119999 84.209999 L 41.770000 84.209999 L 41.770000 92.349998 Z M 39.400002 91.349998 C 39.656094 91.346977 39.905956 91.270630 40.120003 91.129997 L 40.119999 88.000000 C 39.886196 87.841095 39.612480 87.751007 39.329998 87.739998 C 39.032879 87.727325 38.760185 87.903778 38.649998 88.180000 C 38.487900 88.624512 38.419796 89.097824 38.449997 89.570000 C 38.416958 90.035194 38.495823 90.501541 38.679996 90.930000 C 38.821594 91.191101 39.103943 91.344040 39.399998 91.320000 Z" fill="#232F3E"/><path d=" M 44.410000 89.919998 C 44.398945 90.311180 44.526447 90.693687 44.770000 91.000000 C 45.065567 91.246262 45.446880 91.364975 45.830002 91.330002 C 46.059250 91.324608 46.287243 91.294434 46.510002 91.240005 C 46.781528 91.190041 47.048943 91.119843 47.310001 91.030006 L 47.310001 92.029999 C 47.051762 92.177193 46.771507 92.281868 46.480000 92.339996 C 46.151474 92.411812 45.816277 92.448685 45.480000 92.449997 C 43.770000 92.449997 42.910000 91.449997 42.910000 89.500000 C 42.856960 88.715630 43.079819 87.937401 43.540001 87.300003 C 43.994652 86.776291 44.667927 86.495148 45.360001 86.540001 C 46.730000 86.540001 47.410000 87.300003 47.410000 88.830002 C 47.409126 89.166870 47.368855 89.502487 47.290001 89.830002 Z M 45.330002 87.599998 C 44.750000 87.599998 44.439999 88.059998 44.410000 88.970001 L 46.000000 88.970001 L 46.000000 88.720001 C 46.022598 88.424286 45.967438 88.127800 45.840000 87.860001 C 45.724968 87.692596 45.533051 87.594757 45.330002 87.599998 Z" fill="#232F3E"/><path d=" M 51.660000 92.349998 L 51.660000 88.650002 C 51.676495 88.408363 51.628166 88.166710 51.520000 87.950005 C 51.404102 87.793236 51.213879 87.709541 51.020000 87.730003 C 50.731129 87.739960 50.450699 87.829971 50.209999 87.990005 L 50.209999 92.349998 L 48.549999 92.349998 L 48.549999 86.720001 L 49.900002 86.720001 L 50.040001 87.230003 C 50.574371 86.833908 51.215401 86.607452 51.880001 86.580002 C 52.298370 86.537941 52.712448 86.693222 53.000000 87.000000 C 53.262020 87.350540 53.389740 87.783371 53.360001 88.220001 L 53.360001 92.349998 Z" fill="#232F3E"/><path d=" M 57.750000 92.199997 C 57.356457 92.346306 56.939857 92.420822 56.520000 92.419998 C 56.047684 92.464508 55.576893 92.320755 55.209999 92.019997 C 54.901669 91.660332 54.750385 91.192078 54.790001 90.719994 L 54.790001 87.820000 L 54.060001 87.820000 L 54.060001 86.900002 L 54.840000 86.750000 L 55.080002 85.209999 L 56.450001 85.209999 L 56.450001 86.720001 L 57.720001 86.720001 L 57.720001 87.820000 L 56.450001 87.820000 L 56.450001 90.589996 C 56.429703 90.774757 56.479683 90.960396 56.590000 91.109993 C 56.736588 91.234970 56.928745 91.292976 57.119999 91.269997 C 57.332237 91.265694 57.543423 91.238876 57.750000 91.189995 Z" fill="#232F3E"/><path d=" M 59.490002 85.809998 C 59.234760 85.822983 58.983185 85.745026 58.780003 85.589996 C 58.608067 85.434639 58.513008 85.211624 58.520004 84.979996 C 58.510197 84.747849 58.605740 84.523689 58.780003 84.369995 C 58.978119 84.204575 59.232521 84.122162 59.490002 84.139992 C 59.744102 84.124771 59.994446 84.207024 60.190002 84.369995 C 60.370453 84.519913 60.470360 84.745628 60.460003 84.979996 C 60.468819 85.214073 60.369198 85.439140 60.190002 85.589996 C 59.992973 85.749374 59.742783 85.828011 59.490002 85.809998 Z M 58.660000 92.349998 L 58.660000 86.720001 L 60.310001 86.720001 L 60.310001 92.349998 Z" fill="#232F3E"/><path d=" M 64.809998 92.199997 C 64.416458 92.346306 63.999855 92.420822 63.579998 92.419998 C 63.104885 92.461807 62.631985 92.318504 62.259998 92.019997 C 61.959145 91.656647 61.812035 91.190201 61.849998 90.719994 L 61.849998 87.820000 L 61.119999 87.820000 L 61.119999 86.900002 L 61.900002 86.750000 L 62.139999 85.209999 L 63.500000 85.209999 L 63.500000 86.720001 L 64.779999 86.720001 L 64.779999 87.820000 L 63.500000 87.820000 L 63.500000 90.589996 C 63.481529 90.776146 63.535221 90.962288 63.650002 91.109993 C 63.796589 91.234970 63.988747 91.292976 64.180000 91.269997 C 64.392242 91.265694 64.603424 91.238876 64.809998 91.189995 Z" fill="#232F3E"/><path d=" M 67.370003 92.459999 L 65.370003 86.720001 L 67.120003 86.720001 L 68.050003 90.860001 L 68.949997 86.720001 L 70.650002 86.720001 L 68.650002 93.199997 C 68.550438 93.647324 68.324883 94.056786 68.000000 94.379997 C 67.686203 94.631195 67.291496 94.759209 66.889999 94.739998 C 66.530708 94.739273 66.173500 94.685356 65.830002 94.579994 L 65.830002 93.580002 C 66.023109 93.593239 66.216896 93.593239 66.410004 93.580002 C 66.659416 93.595459 66.905571 93.516968 67.100006 93.360001 C 67.276970 93.152000 67.382172 92.892509 67.400009 92.620003 Z" fill="#232F3E"/><path d=" M 18.100000 106.349998 L 17.950001 105.839996 C 17.799303 106.046989 17.595444 106.209389 17.360001 106.309998 C 17.116693 106.427460 16.850176 106.488968 16.580000 106.489998 C 16.134750 106.502617 15.705339 106.324303 15.400000 106.000000 C 14.775309 105.257271 14.818636 104.161102 15.500000 103.470001 C 15.897273 103.133095 16.410316 102.964470 16.930000 103.000000 C 17.244030 103.006668 17.556179 103.050301 17.860001 103.129997 L 17.860001 102.620003 C 17.885199 102.348686 17.825815 102.076225 17.690001 101.840004 C 17.529999 101.686920 17.309851 101.613541 17.090000 101.640007 C 16.482172 101.664215 15.881742 101.782272 15.310000 101.990005 L 15.310000 100.989998 C 15.597076 100.831573 15.907679 100.720161 16.230000 100.659996 C 16.611403 100.579514 17.000198 100.539299 17.389999 100.539993 C 17.933607 100.494026 18.475008 100.650742 18.910000 100.979996 C 19.254774 101.356850 19.425322 101.861237 19.379999 102.369995 L 19.379999 106.309998 Z M 17.100000 105.430000 C 17.401384 105.418922 17.687319 105.293823 17.900000 105.080002 L 17.900000 104.000000 C 17.694059 103.948677 17.482182 103.925140 17.270000 103.930000 C 17.069454 103.914780 16.872250 103.987816 16.730000 104.129997 C 16.598238 104.297188 16.534004 104.507729 16.549999 104.719994 C 16.539709 104.905304 16.592592 105.088631 16.699999 105.239990 C 16.784925 105.354698 16.917376 105.424606 17.059999 105.429993 Z" fill="#232F3E"/><path d=" M 23.879999 106.349998 L 23.879999 102.650002 C 23.896496 102.408363 23.848164 102.166710 23.740000 101.950005 C 23.622828 101.794846 23.433558 101.711563 23.240000 101.730003 C 22.947969 101.739677 22.664251 101.829636 22.420000 101.990005 L 22.420000 106.349998 L 20.770000 106.349998 L 20.770000 100.720001 L 22.120001 100.720001 L 22.250000 101.230003 C 22.788889 100.835289 23.432652 100.609108 24.100000 100.580002 C 24.498468 100.553772 24.887636 100.707970 25.160000 101.000000 C 25.429729 101.347038 25.561523 101.781601 25.530001 102.220001 L 25.530001 106.349998 Z" fill="#232F3E"/><path d=" M 30.180000 106.349998 L 30.049999 105.860001 C 29.866638 106.038925 29.653435 106.184441 29.420000 106.290001 C 29.192375 106.387421 28.947592 106.438423 28.700001 106.440002 C 28.101070 106.466835 27.530512 106.183449 27.190001 105.690002 C 26.795483 105.052330 26.606936 104.308617 26.650000 103.560005 C 26.605650 102.789658 26.801304 102.024506 27.209999 101.370003 C 27.546207 100.856621 28.126760 100.556854 28.740000 100.580002 C 28.955471 100.590401 29.168011 100.634262 29.369999 100.709999 C 29.593185 100.774979 29.805498 100.872704 29.999998 101.000000 L 30.000000 98.209999 L 31.650000 98.209999 L 31.650000 106.349998 Z M 29.250000 105.349998 C 29.509417 105.348328 29.762859 105.271950 29.980000 105.129997 L 29.980000 102.000000 C 29.742628 101.840775 29.465628 101.750748 29.180000 101.739998 C 28.885639 101.728607 28.616512 101.905350 28.510000 102.180000 C 28.343645 102.623573 28.272108 103.097084 28.300001 103.570000 C 28.271811 104.034950 28.350489 104.500175 28.530001 104.930000 C 28.671598 105.191101 28.953947 105.344040 29.250000 105.320000 Z" fill="#232F3E"/><path d=" M 39.580002 106.349998 L 39.139999 104.529999 L 37.139999 104.529999 L 36.720001 106.349998 L 35.000000 106.349998 L 37.320000 98.720001 L 39.180000 98.720001 L 41.480000 106.349998 Z M 37.400002 103.430000 L 38.889999 103.430000 L 38.130001 100.269997 Z" fill="#232F3E"/><path d=" M 45.860001 106.089996 C 45.662567 106.211563 45.446278 106.299431 45.220001 106.349998 C 44.954292 106.410645 44.682541 106.440842 44.410000 106.439995 C 43.717281 106.490982 43.039345 106.222023 42.570000 105.709991 C 42.108715 105.088364 41.885231 104.322128 41.939999 103.549988 C 41.889221 102.771988 42.127850 102.002678 42.609997 101.389984 C 43.086399 100.867004 43.773827 100.587616 44.479996 100.629982 C 44.950233 100.627724 45.413826 100.741043 45.829994 100.959984 L 45.830002 101.959999 C 45.509514 101.841644 45.171566 101.777435 44.830002 101.769997 C 44.468849 101.733589 44.114182 101.884514 43.890003 102.169998 C 43.672073 102.563194 43.574692 103.011833 43.610004 103.459999 L 43.610001 103.620003 C 43.573051 104.065079 43.670597 104.511002 43.889999 104.900002 C 44.098991 105.182068 44.440586 105.333885 44.790001 105.300003 C 45.162544 105.291672 45.531029 105.220680 45.880001 105.090004 Z" fill="#232F3E"/><path d=" M 50.540001 106.089996 C 50.343365 106.213127 50.126801 106.301109 49.900002 106.349998 C 49.637775 106.411209 49.369270 106.441414 49.100002 106.439995 C 48.404339 106.491119 47.723305 106.222382 47.250004 105.709991 C 46.405552 104.393791 46.405552 102.706192 47.250004 101.389992 C 47.732002 100.869011 48.421364 100.590332 49.130005 100.629990 C 49.599957 100.630135 50.062981 100.743317 50.480003 100.959991 L 50.480000 101.959999 C 50.159462 101.841820 49.821545 101.777618 49.480000 101.769997 C 49.121944 101.735214 48.771011 101.886154 48.549999 102.169998 C 48.332069 102.563194 48.234688 103.011833 48.270000 103.459999 L 48.270000 103.620003 C 48.235355 104.063736 48.329082 104.508072 48.540001 104.900002 C 48.750893 105.185333 49.097187 105.337547 49.450001 105.300003 C 49.819382 105.292480 50.184715 105.221443 50.530003 105.090004 Z" fill="#232F3E"/><path d=" M 52.810001 103.919998 C 52.789253 104.324760 52.917301 104.723129 53.170002 105.040001 C 53.464474 105.288261 53.846645 105.407242 54.230003 105.370003 C 54.459206 105.363998 54.687134 105.333832 54.910004 105.280006 C 55.181530 105.230042 55.448944 105.159843 55.710003 105.070007 L 55.709999 106.070000 C 55.451759 106.217194 55.171505 106.321869 54.879997 106.379997 C 54.551472 106.451813 54.216274 106.488686 53.879997 106.489998 C 52.160000 106.489998 51.299999 105.489998 51.299999 103.540001 C 51.245514 102.753960 51.472363 101.974152 51.939999 101.340004 C 52.394650 100.816292 53.067924 100.535149 53.759998 100.580002 C 55.130001 100.580002 55.759998 101.339996 55.759998 102.870003 C 55.759125 103.206871 55.718853 103.542488 55.639999 103.870003 Z M 53.720001 101.599998 C 53.139999 101.599998 52.840000 102.059998 52.810001 102.970001 L 54.419998 102.970001 L 54.419998 102.720001 C 54.440441 102.423340 54.381779 102.126572 54.250000 101.860001 C 54.132511 101.684830 53.930443 101.585701 53.720001 101.599998 Z" fill="#232F3E"/><path d=" M 59.000000 104.769997 C 59.000000 104.519997 58.830002 104.309998 58.480000 104.150002 L 57.759998 103.800003 C 57.086483 103.560318 56.634880 102.924881 56.629997 102.210007 C 56.611603 101.750854 56.816536 101.311180 57.179996 101.030006 C 57.602356 100.712837 58.122467 100.553619 58.649998 100.580009 C 59.179646 100.581734 59.702274 100.701294 60.179996 100.930008 L 60.180000 101.930000 C 59.951443 101.850227 59.717525 101.786736 59.480000 101.739998 C 59.282864 101.696541 59.081844 101.673088 58.880001 101.669998 C 58.369999 101.669998 58.110001 101.849998 58.110001 102.209999 C 58.110001 102.570000 58.320000 102.660004 58.750000 102.870003 L 59.470001 103.209999 C 59.776878 103.345100 60.042538 103.559013 60.240002 103.830002 C 60.408264 104.110268 60.491631 104.433311 60.480003 104.760002 C 60.504761 105.245941 60.301365 105.715607 59.930004 106.029999 C 59.505520 106.351448 58.981915 106.514183 58.450005 106.489998 C 57.816135 106.497437 57.190475 106.346176 56.630005 106.049995 L 56.630001 105.050003 C 57.145828 105.247581 57.688698 105.365601 58.240002 105.400002 C 58.444176 105.412933 58.646271 105.352661 58.810001 105.230003 C 58.941734 105.114784 59.012028 104.944603 59.000000 104.770004 Z" fill="#232F3E"/><path d=" M 63.360001 104.769997 C 63.360001 104.519997 63.189999 104.309998 62.840000 104.150002 L 62.119999 103.800003 C 61.446651 103.561943 60.997417 102.924187 61.000000 102.210007 C 60.981606 101.750854 61.186539 101.311180 61.549999 101.030006 C 61.972359 100.712837 62.492470 100.553619 63.020000 100.580009 C 63.549648 100.581734 64.072281 100.701294 64.550003 100.930008 L 64.550003 101.930000 C 64.321442 101.850227 64.087524 101.786736 63.850002 101.739998 C 63.652866 101.696541 63.451847 101.673088 63.250004 101.669998 C 62.740002 101.669998 62.480000 101.849998 62.480000 102.209999 C 62.480000 102.570000 62.689999 102.660004 63.119999 102.870003 L 63.840000 103.209999 C 64.146881 103.345100 64.412537 103.559013 64.610001 103.830002 C 64.778259 104.110268 64.861626 104.433311 64.849998 104.760002 C 64.874756 105.245941 64.671356 105.715607 64.299995 106.029999 C 63.874737 106.349937 63.351688 106.512505 62.819996 106.489998 C 62.186127 106.497437 61.560467 106.346176 60.999996 106.049995 L 61.000000 105.050003 C 61.515827 105.247581 62.058697 105.365601 62.610001 105.400002 C 62.814175 105.412933 63.016270 105.352661 63.180000 105.230003 C 63.308037 105.112846 63.374523 104.942947 63.360001 104.770004 Z" fill="#232F3E"/><path d=" M 15.300000 120.349998 L 15.300000 115.000000 L 13.890000 118.459999 L 12.460000 118.459999 L 11.060000 115.000000 L 11.060000 120.320000 L 9.560000 120.320000 L 9.560000 112.690002 L 11.480000 112.690002 L 13.210000 117.000000 L 14.930000 112.730003 L 16.809999 112.730003 L 16.809999 120.360001 Z" fill="#232F3E"/><path d=" M 21.240000 120.349998 L 21.100000 119.839996 C 20.944742 120.042564 20.742153 120.203949 20.510000 120.309998 C 20.263094 120.427322 19.993361 120.488777 19.719999 120.489998 C 19.281017 120.511780 18.853004 120.348557 18.539999 120.040001 C 18.236588 119.708809 18.081305 119.268242 18.109999 118.820000 C 18.086857 118.326881 18.280481 117.848297 18.639999 117.510002 C 19.037273 117.173096 19.550316 117.004471 20.070000 117.040001 C 20.384029 117.046669 20.696178 117.090302 21.000000 117.169998 L 21.000000 116.660004 C 21.027573 116.389763 20.971737 116.117561 20.840000 115.880005 C 20.675478 115.727715 20.452753 115.654694 20.230000 115.680008 C 19.625546 115.705238 19.028566 115.823280 18.459999 116.030006 L 18.459999 115.029999 C 18.743469 114.871468 19.050802 114.760017 19.369999 114.699997 C 19.751480 114.620018 20.140224 114.579803 20.529999 114.579994 C 21.073797 114.532089 21.615881 114.689011 22.049999 115.019997 C 22.394773 115.396851 22.565321 115.901237 22.519999 116.409996 L 22.520000 120.349998 Z M 20.240000 119.430000 C 20.538345 119.418404 20.820971 119.293190 21.030001 119.080002 L 21.030001 118.000000 C 20.824169 117.948074 20.612209 117.924522 20.400002 117.930000 C 20.202253 117.913605 20.007622 117.987053 19.870001 118.129997 C 19.730947 118.293694 19.662605 118.505920 19.680000 118.719994 C 19.669710 118.905304 19.722593 119.088631 19.830000 119.239990 C 19.921196 119.357796 20.061035 119.427719 20.209999 119.429993 Z" fill="#232F3E"/><path d=" M 27.000000 120.349998 L 27.000000 116.650002 C 27.021219 116.408081 26.972633 116.165154 26.860001 115.950005 C 26.747309 115.794876 26.560808 115.711143 26.370001 115.730003 C 26.077791 115.738640 25.793797 115.828682 25.550001 115.990005 L 25.549999 120.349998 L 23.920000 120.349998 L 23.920000 114.720001 L 25.270000 114.720001 L 25.400000 115.230003 C 25.934370 114.833908 26.575401 114.607452 27.240000 114.580002 C 27.641430 114.553581 28.033730 114.707565 28.309999 115.000000 C 28.572020 115.350540 28.699741 115.783371 28.670000 116.220001 L 28.670000 120.349998 Z" fill="#232F3E"/><path d=" M 33.000000 120.349998 L 32.849998 119.839996 C 32.696899 120.044678 32.493721 120.206528 32.259998 120.309998 C 32.016251 120.426201 31.750019 120.487640 31.479998 120.489998 C 31.040817 120.513031 30.612316 120.349617 30.299997 120.040001 C 29.993967 119.709824 29.835165 119.269508 29.859997 118.820000 C 29.836855 118.326881 30.030479 117.848297 30.389997 117.510002 C 30.793861 117.177910 31.307985 117.010109 31.829998 117.040001 C 32.140766 117.046326 32.449646 117.089973 32.749996 117.169998 L 32.750000 116.660004 C 32.777573 116.389763 32.721737 116.117561 32.590000 115.880005 C 32.425476 115.727715 32.202755 115.654694 31.980000 115.680008 C 31.375546 115.705238 30.778566 115.823280 30.209999 116.030006 L 30.209999 115.029999 C 30.497076 114.871574 30.807678 114.760162 31.129999 114.699997 C 31.508097 114.619995 31.893530 114.579773 32.279999 114.579994 C 32.823795 114.532089 33.365879 114.689011 33.799999 115.019997 C 34.149231 115.394203 34.320473 115.900635 34.270000 116.409996 L 34.270000 120.349998 Z M 32.000000 119.430000 C 32.298344 119.418404 32.580971 119.293190 32.790001 119.080002 L 32.790001 118.000000 C 32.587589 117.947983 32.378914 117.924423 32.170002 117.930000 C 31.969456 117.914780 31.772251 117.987816 31.630001 118.129997 C 31.498240 118.297188 31.434006 118.507729 31.450001 118.719994 C 31.439711 118.905304 31.492594 119.088631 31.600000 119.239990 C 31.680525 119.349510 31.804523 119.418808 31.940001 119.429993 Z" fill="#232F3E"/><path d=" M 38.549999 119.709999 C 38.238068 120.047455 37.799538 120.239540 37.340000 120.239998 C 36.764961 120.256142 36.221649 119.976936 35.900002 119.500000 C 35.523476 118.903000 35.338539 118.205116 35.370003 117.500000 C 35.327824 116.757782 35.516457 116.020706 35.910004 115.389999 C 36.229710 114.896965 36.782566 114.605385 37.370003 114.620003 C 37.615833 114.627289 37.857529 114.685165 38.080002 114.790001 C 38.317307 114.897537 38.531315 115.050400 38.710003 115.239998 L 38.830002 114.760002 L 40.180000 114.760002 L 40.180000 120.000000 C 40.180000 121.860001 39.330002 122.790001 37.610001 122.790001 C 36.973320 122.794128 36.345215 122.643105 35.779999 122.349998 L 35.779999 121.349998 C 36.299221 121.547821 36.845421 121.665833 37.399998 121.699997 C 37.640434 121.714272 37.880718 121.669647 38.099998 121.570000 C 38.268620 121.473465 38.393867 121.316017 38.449997 121.129997 C 38.534817 120.803833 38.568554 120.466499 38.549995 120.129997 Z M 37.889999 119.110001 C 38.126286 119.100060 38.355007 119.023819 38.549999 118.889999 L 38.549999 116.000000 C 38.339333 115.838676 38.084938 115.744583 37.820000 115.730003 C 37.550808 115.727432 37.309723 115.896187 37.220001 116.150002 C 37.064037 116.564812 36.995930 117.007492 37.020000 117.450005 C 36.995819 117.886879 37.067493 118.323753 37.230000 118.730003 C 37.357708 118.973930 37.614929 119.122025 37.889999 119.110001 Z" fill="#232F3E"/><path d=" M 42.820000 117.919998 C 42.799252 118.324760 42.927299 118.723129 43.180000 119.040001 C 43.475567 119.286263 43.856880 119.404976 44.240002 119.370003 C 44.469204 119.363998 44.697132 119.333832 44.920002 119.280006 C 45.191528 119.230042 45.458942 119.159843 45.720001 119.070007 L 45.720001 120.070000 C 45.461761 120.217194 45.181507 120.321869 44.889999 120.379997 C 44.561474 120.451813 44.226276 120.488686 43.889999 120.489998 C 42.169998 120.489998 41.310001 119.489998 41.310001 117.540001 C 41.259846 116.754425 41.486275 115.976082 41.950001 115.340004 C 42.404652 114.816292 43.077927 114.535149 43.770000 114.580002 C 45.139999 114.580002 45.770000 115.339996 45.770000 116.870003 C 45.769127 117.206871 45.728855 117.542488 45.650002 117.870003 Z M 43.730000 115.599998 C 43.160000 115.599998 42.849998 116.059998 42.820000 116.970001 L 44.430000 116.970001 L 44.430000 116.720001 C 44.455040 116.423065 44.396133 116.125076 44.260002 115.860001 C 44.142513 115.684830 43.940445 115.585701 43.730003 115.599998 Z" fill="#232F3E"/><path d=" M 53.000000 120.349998 L 53.000000 116.639999 C 53.016663 116.401566 52.968277 116.163086 52.860001 115.949997 C 52.755142 115.796478 52.575054 115.712181 52.389999 115.729996 C 52.107712 115.742058 51.834274 115.832047 51.599998 115.989998 C 51.604916 116.029846 51.604916 116.070152 51.599998 116.110001 L 51.599998 120.349998 L 50.000000 120.349998 L 50.000000 116.639999 C 50.016663 116.401566 49.968277 116.163086 49.860001 115.949997 C 49.758389 115.798111 49.582016 115.713760 49.400002 115.729996 C 49.117992 115.743576 48.844955 115.833435 48.610001 115.989998 L 48.610001 120.349998 L 47.000000 120.349998 L 47.000000 114.720001 L 48.349998 114.720001 L 48.480000 115.230003 C 49.006557 114.840569 49.635986 114.614525 50.290001 114.580002 C 50.790237 114.544861 51.264317 114.807365 51.500000 115.250000 C 52.030991 114.851845 52.667450 114.618820 53.330002 114.580002 C 53.709106 114.564880 54.075390 114.718712 54.330002 115.000000 C 54.593987 115.349983 54.725109 115.782341 54.700001 116.220001 L 54.700001 120.349998 Z" fill="#232F3E"/><path d=" M 57.299999 117.919998 C 57.279251 118.324760 57.407299 118.723129 57.660000 119.040001 C 57.955566 119.286263 58.336880 119.404976 58.720001 119.370003 C 58.949249 119.364609 59.177242 119.334435 59.400002 119.280006 C 59.671528 119.230042 59.938942 119.159843 60.200001 119.070007 L 60.200001 120.070000 C 59.941761 120.217194 59.661507 120.321869 59.369999 120.379997 C 59.041473 120.451813 58.706276 120.488686 58.369999 120.489998 C 56.660000 120.489998 55.799999 119.489998 55.799999 117.540001 C 55.746960 116.755630 55.969818 115.977402 56.430000 115.340004 C 56.884651 114.816292 57.557926 114.535149 58.250000 114.580002 C 59.619999 114.580002 60.299999 115.339996 60.299999 116.870003 C 60.299126 117.206871 60.258854 117.542488 60.180000 117.870003 Z M 58.209999 115.599998 C 57.639999 115.599998 57.330002 116.059998 57.299999 116.970001 L 58.910000 116.970001 L 58.910000 116.720001 C 58.932598 116.424286 58.877438 116.127800 58.750000 115.860001 C 58.627918 115.684784 58.423103 115.586174 58.209999 115.599998 Z" fill="#232F3E"/><path d=" M 64.550003 120.349998 L 64.550003 116.650002 C 64.566498 116.408363 64.518166 116.166710 64.410004 115.950005 C 64.294106 115.793236 64.103882 115.709541 63.910004 115.730003 C 63.618233 115.741188 63.334911 115.831024 63.090004 115.990005 L 63.090000 120.349998 L 61.439999 120.349998 L 61.439999 114.720001 L 62.790001 114.720001 L 62.930000 115.230003 C 63.464371 114.833908 64.105400 114.607452 64.769997 114.580002 C 65.171425 114.553581 65.563728 114.707565 65.839996 115.000000 C 66.102020 115.350540 66.229736 115.783371 66.199997 116.220001 L 66.199997 120.349998 Z" fill="#232F3E"/><path d=" M 70.639999 120.199997 C 70.246460 120.346306 69.829857 120.420822 69.409996 120.419998 C 68.934883 120.461807 68.461983 120.318504 68.089996 120.019997 C 67.789146 119.656647 67.642036 119.190201 67.679993 118.719994 L 67.680000 115.820000 L 67.000000 115.820000 L 67.000000 114.900002 L 67.779999 114.750000 L 68.019997 113.209999 L 69.379997 113.209999 L 69.379997 114.720001 L 70.660004 114.720001 L 70.660004 115.820000 L 69.330002 115.820000 L 69.330002 118.589996 C 69.311531 118.776146 69.365227 118.962288 69.480003 119.109993 C 69.626587 119.234970 69.818748 119.292976 70.010002 119.269997 C 70.222244 119.265694 70.433426 119.238876 70.639999 119.189995 Z" fill="#232F3E"/></g><g id="ICONS_-_EDIT"><path d=" M 62.200001 58.500000 L 17.799999 58.500000 C 16.255880 58.494514 15.005485 57.244118 14.999999 55.700001 L 15.000000 24.299999 C 15.005486 22.755880 16.255880 21.505486 17.799999 21.500000 L 62.200001 21.500000 C 63.744122 21.505486 64.994514 22.755880 65.000000 24.299999 L 65.000000 55.700001 C 64.994514 57.244122 63.744118 58.494514 62.200001 58.500000 Z M 17.799999 23.500000 C 17.358171 23.500000 17.000000 23.858171 17.000000 24.299999 L 17.000000 55.700001 C 17.000000 56.141830 17.358171 56.500000 17.799999 56.500000 L 62.200001 56.500000 C 62.641830 56.500000 63.000000 56.141827 63.000000 55.700001 L 63.000000 24.299999 C 63.000000 23.858171 62.641827 23.500000 62.200001 23.500000 Z" fill="#FFFFFF"/><rect x="43.000000" y="34.500000" width="10.000000" height="2.000000" fill="#FFFFFF"/><rect x="57.000000" y="34.500000" width="2.000000" height="2.000000" fill="#FFFFFF"/><path d=" M 38.000000 53.500000 L 20.000000 53.500000 C 19.447716 53.500000 19.000000 53.052284 19.000000 52.500000 L 19.000000 38.500000 C 19.000000 37.947716 19.447716 37.500000 20.000000 37.500000 L 38.000000 37.500000 C 38.552284 37.500000 39.000000 37.947716 39.000000 38.500000 L 39.000000 52.500000 C 39.000000 53.052284 38.552284 53.500000 38.000000 53.500000 Z M 21.000000 51.500000 L 37.000000 51.500000 L 37.000000 39.500000 L 21.000000 39.500000 Z" fill="#FFFFFF"/><path d=" M 24.000000 38.500000 L 22.000000 38.500000 L 22.000000 32.599998 C 22.000000 29.240000 25.139999 26.500000 29.000000 26.500000 L 29.000000 26.500000 C 30.783014 26.481943 32.515026 27.094700 33.889999 28.230000 C 35.208122 29.300468 35.981430 30.902058 36.000000 32.599998 L 36.000000 38.500000 L 34.000000 38.500000 L 34.000000 32.599998 C 33.976845 31.492741 33.464142 30.452684 32.599998 29.759998 C 31.586529 28.927900 30.311169 28.481524 28.999998 28.499998 L 29.000000 28.500000 C 26.250000 28.500000 24.000000 30.340000 24.000000 32.599998 Z" fill="#FFFFFF"/><rect x="28.000000" y="46.500000" width="2.000000" height="3.000000" fill="#FFFFFF"/><rect x="34.000000" y="42.500000" width="4.000000" height="2.000000" fill="#FFFFFF"/><rect x="34.000000" y="46.500000" width="4.000000" height="2.000000" fill="#FFFFFF"/><path d=" M 29.000000 47.650002 C 27.260303 47.650002 25.850000 46.239700 25.850000 44.500000 C 25.850000 42.760303 27.260303 41.349998 29.000000 41.349998 C 30.739697 41.349998 32.150002 42.760300 32.150002 44.500000 C 32.150002 46.239697 30.739698 47.650002 29.000002 47.650002 Z M 29.000000 43.349998 C 28.364872 43.349998 27.850000 43.864872 27.850000 44.500000 C 27.850000 45.135128 28.364872 45.650002 29.000000 45.650002 C 29.635128 45.650002 30.150000 45.135128 30.150000 44.500000 C 30.144567 43.867138 29.632864 43.355434 29.000000 43.349998 Z" fill="#FFFFFF"/><rect x="43.000000" y="39.500000" width="7.000000" height="2.000000" fill="#FFFFFF"/><rect x="54.000000" y="39.500000" width="5.000000" height="2.000000" fill="#FFFFFF"/><rect x="43.000000" y="44.500000" width="13.000000" height="2.000000" fill="#FFFFFF"/></g></svg>