<svg version="1.1" width="80.000000" height="115.000000" viewBox="0.000000 0.000000 80.000000 115.000000" xmlns="http://www.w3.org/2000/svg" xmlns:xlink="http://www.w3.org/1999/xlink" overflow="hidden"><g id="CARDS"><rect x="1.000000" y="1.000000" width="78.000000" height="78.000000" fill="#232F3E"/><path d=" M 0.000000 0.000000 L 0.000000 80.000000 L 0.000000 80.000000 L 0.000000 115.000000 L 80.000000 115.000000 L 80.000000 80.000000 L 80.000000 80.000000 L 80.000000 0.000000 Z M 1.000000 1.000000 L 79.000000 1.000000 L 79.000000 79.000000 L 1.000000 79.000000 Z" fill="#FFFFFF"/></g><g id="TEXT_-_EDIT"><path d=" M 25.350000 92.349998 L 24.920000 90.529999 L 22.920000 90.529999 L 22.500000 92.349998 L 20.719999 92.349998 L 23.000000 84.720001 L 24.900000 84.720001 L 27.209999 92.349998 Z M 23.170000 89.430000 L 24.660000 89.430000 L 23.900000 86.269997 Z" fill="#232F3E"/><path d=" M 34.060001 92.349998 L 34.060001 88.639999 C 34.076664 88.401566 34.028278 88.163086 33.920002 87.949997 C 33.819908 87.796371 33.642418 87.711487 33.460003 87.729996 C 33.174831 87.743271 32.898491 87.833084 32.660004 87.989998 C 32.664822 88.029854 32.664822 88.070145 32.660004 88.110001 L 32.660000 92.349998 L 31.000000 92.349998 L 31.000000 88.639999 C 31.019257 88.402504 30.974358 88.164200 30.870001 87.949997 C 30.765142 87.796478 30.585056 87.712181 30.400002 87.729996 C 30.121338 87.744865 29.851856 87.834694 29.620001 87.989998 L 29.620001 92.349998 L 28.000000 92.349998 L 28.000000 86.720001 L 29.350000 86.720001 L 29.480000 87.230003 C 30.005705 86.838974 30.635632 86.612755 31.289999 86.580002 C 31.787903 86.543671 32.259682 86.807076 32.489998 87.250000 C 33.020988 86.851845 33.657448 86.618820 34.320000 86.580002 C 34.698605 86.567619 35.063778 86.720993 35.320000 87.000000 C 35.580429 87.351334 35.707973 87.783562 35.680000 88.220001 L 35.680000 92.349998 Z" fill="#232F3E"/><path d=" M 40.000000 92.349998 L 39.860001 91.839996 C 39.704742 92.042564 39.502155 92.203949 39.270000 92.309998 C 39.023094 92.427322 38.753361 92.488777 38.480000 92.489998 C 38.038441 92.498497 37.613724 92.320625 37.310001 92.000000 C 37.006588 91.668808 36.851307 91.228241 36.880001 90.779999 C 36.856857 90.286880 37.050484 89.808296 37.410000 89.470001 C 37.807274 89.133095 38.320316 88.964470 38.840000 89.000000 C 39.154030 89.006668 39.466179 89.050301 39.770000 89.129997 L 39.770000 88.620003 C 39.797573 88.349762 39.741737 88.077560 39.610001 87.840004 C 39.445477 87.687714 39.222755 87.614693 39.000000 87.640007 C 38.395546 87.665237 37.798565 87.783279 37.230000 87.990005 L 37.230000 87.000000 C 37.516563 86.840446 37.827354 86.728966 38.149998 86.669998 C 38.528015 86.589485 38.913502 86.549255 39.299999 86.549995 C 39.843796 86.502090 40.385880 86.659012 40.820000 86.989998 C 41.164772 87.366852 41.335323 87.871239 41.290001 88.379997 L 41.290001 92.320000 Z M 39.000000 91.430000 C 39.298344 91.418404 39.580971 91.293190 39.790001 91.080002 L 39.790001 90.000000 C 39.587475 89.948616 39.378887 89.925064 39.170002 89.930000 C 38.969070 89.911972 38.770714 89.985435 38.630001 90.129997 C 38.490948 90.293694 38.422604 90.505920 38.440002 90.719994 C 38.429714 90.905304 38.482594 91.088631 38.590004 91.239990 C 38.687565 91.366325 38.840549 91.437218 39.000004 91.429993 Z" fill="#232F3E"/><path d=" M 42.279999 92.349998 L 42.279999 91.279999 L 44.770000 87.879997 L 42.369999 87.879997 L 42.369999 86.720001 L 46.509998 86.720001 L 46.509998 87.790001 L 44.000000 91.190002 L 46.540001 91.190002 L 46.540001 92.349998 Z" fill="#232F3E"/><path d=" M 49.790001 92.489998 C 49.108715 92.511253 48.453094 92.229225 48.000000 91.720001 C 47.133984 90.392052 47.133984 88.677956 48.000000 87.349998 C 49.011749 86.331032 50.657967 86.325180 51.676933 87.336929 C 51.681305 87.341270 51.685661 87.345627 51.690002 87.349998 C 52.556019 88.677948 52.556019 90.392044 51.690002 91.720001 C 51.211487 92.259041 50.508781 92.543823 49.790001 92.489998 Z M 49.790001 91.339996 C 50.076321 91.350388 50.337559 91.177567 50.440002 90.909996 C 50.706799 90.016144 50.706799 89.063843 50.440002 88.169998 C 50.304638 87.813774 49.906124 87.634735 49.549900 87.770103 C 49.365585 87.840141 49.220043 87.985687 49.150002 88.169998 C 48.883205 89.063850 48.883205 90.016151 49.150002 90.909996 C 49.248730 91.175995 49.506416 91.349129 49.790001 91.339996 Z" fill="#232F3E"/><path d=" M 56.549999 92.349998 L 56.549999 88.650002 C 56.566494 88.408363 56.518166 88.166710 56.410000 87.950005 C 56.294102 87.793236 56.103878 87.709541 55.910000 87.730003 C 55.621128 87.739960 55.340698 87.829971 55.099998 87.990005 L 55.099998 92.349998 L 53.439999 92.349998 L 53.439999 86.720001 L 54.790001 86.720001 L 54.930000 87.230003 C 55.464371 86.833908 56.105400 86.607452 56.770000 86.580002 C 57.171432 86.553581 57.563728 86.707565 57.840000 87.000000 C 58.102020 87.350540 58.229740 87.783371 58.200001 88.220001 L 58.200001 92.349998 Z" fill="#232F3E"/><path d=" M 18.469999 106.349998 L 18.469999 98.720001 L 20.150000 98.720001 L 20.150000 106.349998 Z" fill="#232F3E"/><path d=" M 24.840000 106.349998 L 24.840000 102.650002 C 24.859314 102.407036 24.807177 102.163719 24.690001 101.950005 C 24.578672 101.793205 24.391150 101.709015 24.200001 101.730003 C 23.907970 101.739677 23.624252 101.829636 23.380001 101.990005 L 23.379999 106.349998 L 21.730000 106.349998 L 21.730000 100.720001 L 23.080000 100.720001 L 23.209999 101.230003 C 23.748034 100.833672 24.392305 100.607300 25.059999 100.580002 C 25.458467 100.553772 25.847635 100.707970 26.119999 101.000000 C 26.389729 101.347038 26.521523 101.781601 26.490000 102.220001 L 26.490000 106.349998 Z" fill="#232F3E"/><path d=" M 29.889999 104.769997 C 29.889999 104.519997 29.709999 104.309998 29.370001 104.150002 L 28.650000 103.800003 C 27.970661 103.566200 27.513403 102.928444 27.510000 102.210007 C 27.495638 101.749420 27.704113 101.310135 28.070000 101.030006 C 28.492359 100.712837 29.012470 100.553619 29.539999 100.580009 C 30.069649 100.581734 30.592278 100.701294 31.070000 100.930008 L 31.070000 101.930000 C 30.841051 101.851501 30.607220 101.788033 30.369999 101.739998 C 30.172863 101.696541 29.971846 101.673088 29.769999 101.669998 C 29.250000 101.669998 29.000000 101.849998 29.000000 102.209999 C 29.000000 102.570000 29.209999 102.660004 29.629999 102.870003 L 30.360001 103.209999 C 30.666878 103.345100 30.932537 103.559013 31.130001 103.830002 C 31.298262 104.110268 31.381628 104.433311 31.370001 104.760002 C 31.390757 105.247345 31.183821 105.716644 30.810001 106.029999 C 30.385515 106.351448 29.861914 106.514183 29.330002 106.489998 C 28.696371 106.495338 28.071217 106.344200 27.510002 106.049995 L 27.510000 105.050003 C 28.029221 105.247826 28.575420 105.365837 29.130001 105.400002 C 29.331331 105.415108 29.531044 105.354477 29.690001 105.230003 C 29.824177 105.115822 29.898008 104.946007 29.890001 104.770004 Z" fill="#232F3E"/><path d=" M 32.299999 108.610001 L 32.299999 100.720001 L 33.650002 100.720001 L 33.770000 101.199997 C 33.977428 101.008194 34.218010 100.855713 34.480000 100.750000 C 34.726505 100.643257 34.991432 100.585518 35.259998 100.580002 C 35.857025 100.550934 36.427181 100.830345 36.769997 101.320000 C 37.161808 101.962158 37.346828 102.709206 37.299995 103.459999 C 37.340450 104.231796 37.148891 104.998039 36.749996 105.659996 C 36.415180 106.163361 35.844269 106.458267 35.239998 106.439995 C 35.004887 106.439087 34.771610 106.398521 34.549999 106.319992 C 34.350765 106.243362 34.165081 106.135330 34.000000 105.999992 L 34.000000 108.639999 Z M 34.720001 101.699997 C 34.454475 101.721992 34.202591 101.826950 34.000000 102.000000 L 34.000000 105.110001 C 34.227249 105.274483 34.499512 105.365234 34.779999 105.370003 C 35.079987 105.387131 35.360550 105.221169 35.489998 104.950005 C 35.653881 104.512749 35.725384 104.046272 35.699997 103.580002 C 35.727180 103.100586 35.655708 102.620689 35.489998 102.169998 C 35.366768 101.859230 35.052731 101.667542 34.719997 101.699997 Z" fill="#232F3E"/><path d=" M 39.660000 103.919998 C 39.643261 104.308716 39.763599 104.690971 40.000000 105.000000 C 40.295567 105.246262 40.676880 105.364975 41.060001 105.330002 C 41.289204 105.323997 41.517132 105.293831 41.740002 105.240005 C 42.011528 105.190041 42.278942 105.119843 42.540001 105.030006 L 42.540001 106.029999 C 42.281761 106.177193 42.001507 106.281868 41.709999 106.339996 C 41.381474 106.411812 41.046276 106.448685 40.709999 106.449997 C 38.990002 106.449997 38.130001 105.449997 38.130001 103.500000 C 38.075516 102.713959 38.302364 101.934151 38.770000 101.300003 C 39.224651 100.776291 39.897926 100.495148 40.590000 100.540001 C 41.959999 100.540001 42.639999 101.300003 42.639999 102.830002 C 42.639126 103.166870 42.598854 103.502487 42.520000 103.830002 Z M 40.570000 101.599998 C 39.990002 101.599998 39.689999 102.059998 39.660000 102.970001 L 41.270000 102.970001 L 41.270000 102.720001 C 41.295040 102.423065 41.236134 102.125076 41.100002 101.860001 C 40.982513 101.684830 40.780445 101.585701 40.570004 101.599998 Z" fill="#232F3E"/><path d=" M 47.439999 106.089996 C 47.243362 106.213127 47.026798 106.301109 46.799999 106.349998 C 46.534378 106.411171 46.262569 106.441368 45.989998 106.439995 C 45.297512 106.489487 44.620201 106.220772 44.149998 105.709991 C 43.282288 104.400703 43.282288 102.699280 44.149998 101.389992 C 44.630341 100.866623 45.320885 100.587463 46.029999 100.629990 C 46.499950 100.630135 46.962975 100.743317 47.379997 100.959991 L 47.380001 101.959999 C 47.059464 101.841820 46.721546 101.777618 46.380001 101.769997 C 46.021946 101.735214 45.671013 101.886154 45.450001 102.169998 C 45.232071 102.563194 45.134689 103.011833 45.170002 103.459999 L 45.169998 103.620003 C 45.135353 104.063736 45.229080 104.508072 45.439999 104.900002 C 45.650890 105.185333 45.997185 105.337547 46.349998 105.300003 C 46.719379 105.292480 47.084713 105.221443 47.430000 105.090004 Z" fill="#232F3E"/><path d=" M 51.770000 106.199997 C 51.376232 106.345474 50.959782 106.419960 50.540001 106.419998 C 50.064888 106.461807 49.591988 106.318504 49.220001 106.019997 C 48.919147 105.656647 48.772038 105.190201 48.810001 104.719994 L 48.810001 101.820000 L 48.080002 101.820000 L 48.080002 100.900002 L 48.860001 100.750000 L 49.099998 99.209999 L 50.459999 99.209999 L 50.459999 100.720001 L 51.740002 100.720001 L 51.740002 101.820000 L 50.459999 101.820000 L 50.459999 104.589996 C 50.441528 104.776146 50.495220 104.962288 50.610001 105.109993 C 50.756588 105.234970 50.948746 105.292976 51.139999 105.269997 C 51.352238 105.265694 51.563423 105.238876 51.770000 105.189995 Z" fill="#232F3E"/><path d=" M 54.869999 106.489998 C 54.171230 106.527954 53.493462 106.244324 53.029999 105.720001 C 52.163982 104.392052 52.163982 102.677956 53.029999 101.349998 C 54.041748 100.331032 55.687965 100.325180 56.706932 101.336929 C 56.711304 101.341270 56.715660 101.345627 56.720001 101.349998 C 57.586018 102.677948 57.586018 104.392044 56.720001 105.720001 C 56.252556 106.244698 55.571686 106.528084 54.870003 106.489998 Z M 54.869999 105.339996 C 55.156319 105.350388 55.417557 105.177567 55.520000 104.909996 C 55.786797 104.016144 55.786797 103.063843 55.520000 102.169998 C 55.384636 101.813774 54.986122 101.634735 54.629898 101.770103 C 54.445583 101.840141 54.300041 101.985687 54.230000 102.169998 C 53.963203 103.063850 53.963203 104.016151 54.230000 104.909996 C 54.328728 105.175995 54.586414 105.349129 54.869999 105.339996 Z" fill="#232F3E"/><path d=" M 58.520000 106.349998 L 58.520000 100.720001 L 59.869999 100.720001 L 60.049999 101.449997 C 60.250946 101.209991 60.495178 101.009857 60.770000 100.860001 C 60.999920 100.734291 61.257957 100.668915 61.520000 100.669998 C 61.649811 100.660080 61.780190 100.660080 61.910000 100.669998 L 61.910000 102.000000 C 61.696884 101.986336 61.483116 101.986336 61.270000 102.000000 C 60.888294 102.001556 60.512009 102.090492 60.170002 102.260002 L 60.169998 106.370003 Z" fill="#232F3E"/></g><g id="ICONS_-_EDIT"><path d=" M 60.180000 63.700001 C 58.983879 63.701221 57.829674 63.259487 56.939999 62.459999 L 44.790001 51.459999 L 46.180000 50.000000 L 58.330002 61.000000 C 59.495472 61.999493 61.250519 61.864944 62.250011 60.699474 C 63.215282 59.573914 63.127274 57.888882 62.049999 56.869999 L 49.860001 45.869999 L 51.250000 44.320000 L 63.439999 55.320000 C 65.433769 57.108761 65.599968 60.175110 63.811207 62.168884 C 62.886349 63.199741 61.564915 63.786045 60.179996 63.780003 Z" fill="#FFFFFF"/><path d=" M 36.000000 33.380001 C 33.790859 33.380001 32.000000 31.589140 32.000000 29.380001 C 32.000000 27.170862 33.790859 25.380001 36.000000 25.380001 C 38.209141 25.380001 40.000000 27.170862 40.000000 29.380001 C 40.000000 31.589140 38.209141 33.380001 36.000000 33.380001 Z M 36.000000 27.379999 C 34.895432 27.379999 34.000000 28.275429 34.000000 29.379999 C 34.000000 30.484570 34.895432 31.379999 36.000000 31.379999 C 37.104568 31.379999 38.000000 30.484570 38.000000 29.379999 C 38.000000 28.275429 37.104568 27.379999 36.000000 27.379999 Z" fill="#FFFFFF"/><path d=" M 24.340000 37.919998 L 24.340000 35.919998 C 26.217762 35.915264 27.736153 34.389202 27.731421 32.511440 C 27.728512 31.357586 27.140602 30.283955 26.170000 29.660000 L 27.250000 28.000000 C 28.805836 28.984129 29.746399 30.699051 29.740000 32.540001 C 29.718100 35.509972 27.310030 37.909122 24.340000 37.920002 Z" fill="#FFFFFF"/><path d=" M 34.500000 47.380001 C 31.440422 47.402092 28.942236 44.939724 28.920145 41.880146 C 28.898054 38.820568 31.360422 36.322380 34.420002 36.300289 C 37.479580 36.278198 39.977768 38.740566 39.999859 41.800144 C 39.999954 41.813431 40.000004 41.826714 40.000004 41.840000 C 39.994648 44.881863 37.541748 47.352600 34.500004 47.380001 Z M 34.500000 38.380001 C 32.589222 38.402092 31.058140 39.968994 31.080231 41.879768 C 31.102322 43.790546 32.669224 45.321629 34.579998 45.299538 C 36.475082 45.277626 37.999870 43.735214 37.999996 41.840000 C 38.000122 39.929096 36.451134 38.379898 34.540226 38.379768 C 34.526814 38.379768 34.513405 38.379845 34.499996 38.380001 Z" fill="#FFFFFF"/><path d=" M 34.500000 55.380001 C 23.708378 55.402092 14.942132 46.671665 14.920041 35.880043 C 14.897949 25.088421 23.628378 16.322176 34.420002 16.300083 C 45.211624 16.277992 53.977871 25.008421 53.999962 35.800041 C 53.999989 35.813362 54.000004 35.826679 54.000004 35.840000 C 53.989040 46.611496 45.271454 55.346966 34.500004 55.380001 Z M 34.500000 18.379999 C 24.857134 18.402090 17.057955 26.237087 17.080046 35.879951 C 17.102137 45.522820 24.937134 53.321999 34.579998 53.299904 C 44.207230 53.277847 51.999973 45.467251 51.999996 35.839996 C 51.988956 26.186066 44.153950 18.368958 34.500019 18.379997 Z" fill="#FFFFFF"/><path d=" M 34.500000 50.380001 C 26.469810 50.402092 19.942146 43.910248 19.920055 35.880054 C 19.897964 27.849865 26.389811 21.322201 34.420002 21.300110 C 42.450191 21.278019 48.977856 27.769865 48.999947 35.800056 C 48.999985 35.813370 49.000000 35.826687 49.000000 35.840000 C 48.989063 43.850086 42.510029 50.347000 34.500000 50.380001 Z M 34.500000 23.379999 C 27.618568 23.402090 22.057972 28.998503 22.080065 35.879936 C 22.102156 42.761368 27.698568 48.321964 34.580002 48.299873 C 41.445793 48.277832 46.999966 42.705830 47.000000 35.840000 C 46.994495 28.953012 41.407028 23.374466 34.520039 23.379969 C 34.513359 23.379974 34.506680 23.379984 34.500000 23.380001 Z" fill="#FFFFFF"/><rect x="41.510000" y="37.240000" width="2.080000" height="8.120000" fill="#FFFFFF" transform="matrix(0.143838,-0.989601,0.989601,0.143838,-4.440000,77.460000)"/><rect x="34.960000" y="32.340000" width="2.080000" height="5.000000" fill="#FFFFFF"/><rect x="28.000000" y="35.020000" width="2.080000" height="4.370000" fill="#FFFFFF" transform="matrix(0.710554,-0.703643,0.703643,0.710554,-17.770000,31.210000)"/></g></svg>