<svg version="1.1" width="80.000000" height="130.000000" viewBox="0.000000 0.000000 80.000000 130.000000" xmlns="http://www.w3.org/2000/svg" xmlns:xlink="http://www.w3.org/1999/xlink" overflow="hidden"><g id="CARDS"><rect x="1.000000" y="1.000000" width="78.000000" height="78.000000" fill="#232F3E"/><path d=" M 0.000000 0.000000 L 0.000000 80.000000 L 0.000000 80.000000 L 0.000000 130.000000 L 80.000000 130.000000 L 80.000000 80.000000 L 80.000000 80.000000 L 80.000000 0.000000 Z M 1.000000 1.000000 L 79.000000 1.000000 L 79.000000 79.000000 L 1.000000 79.000000 Z" fill="#FFFFFF"/></g><g id="TEXT_-_EDIT"><path d=" M 23.690001 92.349998 L 23.250000 90.529999 L 21.250000 90.529999 L 20.830000 92.349998 L 19.059999 92.349998 L 21.370001 84.720001 L 23.240000 84.720001 L 25.540001 92.349998 Z M 21.510000 89.430000 L 23.000000 89.430000 L 22.240000 86.269997 Z" fill="#232F3E"/><path d=" M 30.889999 92.349998 L 30.000000 86.720001 L 29.110001 92.349998 L 27.190001 92.349998 L 25.410000 84.720001 L 27.110001 84.720001 L 28.170000 90.779999 L 29.080000 85.000000 L 30.920000 85.000000 L 31.860001 90.650002 L 32.860001 84.650002 L 34.520000 84.650002 L 32.740002 92.279999 Z" fill="#232F3E"/><path d=" M 36.840000 89.000000 C 36.345402 88.768761 35.910801 88.426559 35.570000 88.000000 C 35.307678 87.644348 35.170536 87.211830 35.180000 86.769997 C 35.168892 86.354126 35.287739 85.945145 35.520000 85.599998 C 35.745701 85.259720 36.065289 84.992241 36.439999 84.830002 C 36.861813 84.643929 37.319042 84.551804 37.779999 84.560005 C 38.429764 84.562088 39.072483 84.694710 39.669998 84.950005 L 39.669998 86.120003 C 39.134098 85.923050 38.570534 85.811684 38.000000 85.790001 C 37.718163 85.774521 37.439480 85.855652 37.209999 86.020004 C 37.013199 86.172058 36.904575 86.411781 36.919998 86.660004 C 36.912312 86.862022 36.976040 87.060295 37.099998 87.220001 C 37.307770 87.423737 37.552021 87.586571 37.820000 87.700005 L 38.470001 88.019997 C 38.826054 88.187546 39.161602 88.395592 39.470001 88.639999 C 39.698788 88.827263 39.883213 89.062912 40.010002 89.330002 C 40.129375 89.621704 40.187252 89.934906 40.180000 90.250000 C 40.210262 90.886475 39.935429 91.499283 39.439999 91.900002 C 38.864475 92.329575 38.157295 92.545265 37.439999 92.510002 C 37.060139 92.510231 36.681335 92.470001 36.309998 92.389999 C 35.964050 92.327736 35.627823 92.220139 35.309998 92.070000 L 35.310001 90.919998 C 35.637497 91.025146 35.971550 91.108665 36.310001 91.169998 C 36.639122 91.238113 36.973946 91.274940 37.310001 91.279999 C 37.623581 91.302475 37.935078 91.213982 38.190002 91.029999 C 38.396397 90.853905 38.507595 90.590736 38.490002 90.320000 C 38.496090 90.107033 38.421024 89.899704 38.280003 89.739998 C 38.072327 89.543411 37.832092 89.384384 37.570004 89.269997 Z" fill="#232F3E"/><path d=" M 43.919998 92.349998 L 43.919998 84.720001 L 45.599998 84.720001 L 45.599998 88.110001 L 47.880001 84.720001 L 49.750000 84.720001 L 47.110001 88.290001 L 50.000000 92.349998 L 48.000000 92.349998 L 45.599998 88.660004 L 45.599998 92.349998 Z" fill="#232F3E"/><path d=" M 51.750000 89.919998 C 51.738945 90.311180 51.866447 90.693687 52.110001 91.000000 C 52.404472 91.248260 52.786644 91.367241 53.170002 91.330002 C 53.399204 91.323997 53.627132 91.293831 53.850002 91.240005 C 54.121254 91.188805 54.388577 91.118637 54.650002 91.030006 L 54.650002 92.029999 C 54.390980 92.175522 54.111000 92.280098 53.820000 92.339996 C 53.491474 92.411812 53.156277 92.448685 52.820000 92.449997 C 51.099998 92.449997 50.240002 91.449997 50.240002 89.500000 C 50.186962 88.715630 50.409821 87.937401 50.870003 87.300003 C 51.330505 86.778496 52.005539 86.498154 52.700005 86.540001 C 54.070000 86.540001 54.700001 87.300003 54.700001 88.830002 C 54.699127 89.166870 54.658855 89.502487 54.580002 89.830002 Z M 52.660000 87.599998 C 52.080002 87.599998 51.779999 88.059998 51.750000 88.970001 L 53.360001 88.970001 L 53.360001 88.720001 C 53.380444 88.423340 53.321781 88.126572 53.190002 87.860001 C 53.072514 87.684830 52.870445 87.585701 52.660004 87.599998 Z" fill="#232F3E"/><path d=" M 57.220001 92.459999 L 55.220001 86.720001 L 57.000000 86.720001 L 57.930000 90.860001 L 58.840000 86.720001 L 60.500000 86.720001 L 58.500000 93.199997 C 58.391499 93.650528 58.155403 94.060219 57.820000 94.379997 C 57.509270 94.629692 57.118233 94.757668 56.720001 94.739998 C 56.357422 94.739380 55.996902 94.685471 55.650002 94.579994 L 55.650002 93.580002 C 55.843117 93.592934 56.036884 93.592934 56.230003 93.580002 C 56.480156 93.601768 56.728619 93.522552 56.920002 93.360001 C 57.096962 93.152000 57.202164 92.892509 57.220001 92.620003 Z" fill="#232F3E"/><path d=" M 15.300000 106.349998 L 15.300000 101.000000 L 13.890000 104.459999 L 12.460000 104.459999 L 11.060000 101.000000 L 11.060000 106.320000 L 9.560000 106.320000 L 9.560000 98.720001 L 11.480000 98.720001 L 13.210000 103.000000 L 14.930000 98.730003 L 16.809999 98.730003 L 16.809999 106.360001 Z" fill="#232F3E"/><path d=" M 21.240000 106.349998 L 21.100000 105.839996 C 20.944742 106.042564 20.742153 106.203949 20.510000 106.309998 C 20.263094 106.427322 19.993361 106.488777 19.719999 106.489998 C 19.281017 106.511780 18.853004 106.348557 18.539999 106.040001 C 18.236588 105.708809 18.081305 105.268242 18.109999 104.820000 C 18.086857 104.326881 18.280481 103.848297 18.639999 103.510002 C 19.037273 103.173096 19.550316 103.004471 20.070000 103.040001 C 20.384029 103.046669 20.696178 103.090302 21.000000 103.169998 L 21.000000 102.660004 C 21.027573 102.389763 20.971737 102.117561 20.840000 101.880005 C 20.675478 101.727715 20.452753 101.654694 20.230000 101.680008 C 19.625546 101.705238 19.028566 101.823280 18.459999 102.030006 L 18.459999 101.029999 C 18.743469 100.871468 19.050802 100.760017 19.369999 100.699997 C 19.751480 100.620018 20.140224 100.579803 20.529999 100.579994 C 21.073797 100.532089 21.615881 100.689011 22.049999 101.019997 C 22.394773 101.396851 22.565321 101.901237 22.519999 102.409996 L 22.520000 106.349998 Z M 20.240000 105.430000 C 20.538345 105.418404 20.820971 105.293190 21.030001 105.080002 L 21.030001 104.000000 C 20.824169 103.948074 20.612209 103.924522 20.400002 103.930000 C 20.202253 103.913605 20.007622 103.987053 19.870001 104.129997 C 19.730947 104.293694 19.662605 104.505920 19.680000 104.719994 C 19.669710 104.905304 19.722593 105.088631 19.830000 105.239990 C 19.921196 105.357796 20.061035 105.427719 20.209999 105.429993 Z" fill="#232F3E"/><path d=" M 27.000000 106.349998 L 27.000000 102.650002 C 27.021219 102.408081 26.972633 102.165154 26.860001 101.950005 C 26.747309 101.794876 26.560808 101.711143 26.370001 101.730003 C 26.077791 101.738640 25.793797 101.828682 25.550001 101.990005 L 25.549999 106.349998 L 23.920000 106.349998 L 23.920000 100.720001 L 25.270000 100.720001 L 25.400000 101.230003 C 25.934370 100.833908 26.575401 100.607452 27.240000 100.580002 C 27.641430 100.553581 28.033730 100.707565 28.309999 101.000000 C 28.572020 101.350540 28.699741 101.783371 28.670000 102.220001 L 28.670000 106.349998 Z" fill="#232F3E"/><path d=" M 33.000000 106.349998 L 32.849998 105.839996 C 32.696899 106.044678 32.493721 106.206528 32.259998 106.309998 C 32.016251 106.426201 31.750019 106.487640 31.479998 106.489998 C 31.040817 106.513031 30.612316 106.349617 30.299997 106.040001 C 29.993967 105.709824 29.835165 105.269508 29.859997 104.820000 C 29.836855 104.326881 30.030479 103.848297 30.389997 103.510002 C 30.793861 103.177910 31.307985 103.010109 31.829998 103.040001 C 32.140766 103.046326 32.449646 103.089973 32.749996 103.169998 L 32.750000 102.660004 C 32.777573 102.389763 32.721737 102.117561 32.590000 101.880005 C 32.425476 101.727715 32.202755 101.654694 31.980000 101.680008 C 31.375546 101.705238 30.778566 101.823280 30.209999 102.030006 L 30.209999 101.029999 C 30.497076 100.871574 30.807678 100.760162 31.129999 100.699997 C 31.508097 100.619995 31.893530 100.579773 32.279999 100.579994 C 32.823795 100.532089 33.365879 100.689011 33.799999 101.019997 C 34.149231 101.394203 34.320473 101.900635 34.270000 102.409996 L 34.270000 106.349998 Z M 32.000000 105.430000 C 32.298344 105.418404 32.580971 105.293190 32.790001 105.080002 L 32.790001 104.000000 C 32.587589 103.947983 32.378914 103.924423 32.170002 103.930000 C 31.969456 103.914780 31.772251 103.987816 31.630001 104.129997 C 31.498240 104.297188 31.434006 104.507729 31.450001 104.719994 C 31.439711 104.905304 31.492594 105.088631 31.600000 105.239990 C 31.680525 105.349510 31.804523 105.418808 31.940001 105.429993 Z" fill="#232F3E"/><path d=" M 38.549999 105.709999 C 38.238068 106.047455 37.799538 106.239540 37.340000 106.239998 C 36.764961 106.256142 36.221649 105.976936 35.900002 105.500000 C 35.523476 104.903000 35.338539 104.205116 35.370003 103.500000 C 35.327824 102.757782 35.516457 102.020706 35.910004 101.389999 C 36.229710 100.896965 36.782566 100.605385 37.370003 100.620003 C 37.615833 100.627289 37.857529 100.685165 38.080002 100.790001 C 38.317307 100.897537 38.531315 101.050400 38.710003 101.239998 L 38.830002 100.760002 L 40.180000 100.760002 L 40.180000 106.000000 C 40.180000 107.860001 39.330002 108.790001 37.610001 108.790001 C 36.973320 108.794128 36.345215 108.643105 35.779999 108.349998 L 35.779999 107.349998 C 36.299221 107.547821 36.845421 107.665833 37.399998 107.699997 C 37.640434 107.714272 37.880718 107.669647 38.099998 107.570000 C 38.268620 107.473465 38.393867 107.316017 38.449997 107.129997 C 38.534817 106.803833 38.568554 106.466499 38.549995 106.129997 Z M 37.889999 105.110001 C 38.126286 105.100060 38.355007 105.023819 38.549999 104.889999 L 38.549999 102.000000 C 38.339333 101.838676 38.084938 101.744583 37.820000 101.730003 C 37.550808 101.727432 37.309723 101.896187 37.220001 102.150002 C 37.064037 102.564812 36.995930 103.007492 37.020000 103.450005 C 36.995819 103.886879 37.067493 104.323753 37.230000 104.730003 C 37.357708 104.973930 37.614929 105.122025 37.889999 105.110001 Z" fill="#232F3E"/><path d=" M 42.820000 103.919998 C 42.799252 104.324760 42.927299 104.723129 43.180000 105.040001 C 43.475567 105.286263 43.856880 105.404976 44.240002 105.370003 C 44.469204 105.363998 44.697132 105.333832 44.920002 105.280006 C 45.191528 105.230042 45.458942 105.159843 45.720001 105.070007 L 45.720001 106.070000 C 45.461761 106.217194 45.181507 106.321869 44.889999 106.379997 C 44.561474 106.451813 44.226276 106.488686 43.889999 106.489998 C 42.169998 106.489998 41.310001 105.489998 41.310001 103.540001 C 41.259846 102.754425 41.486275 101.976082 41.950001 101.340004 C 42.404652 100.816292 43.077927 100.535149 43.770000 100.580002 C 45.139999 100.580002 45.770000 101.339996 45.770000 102.870003 C 45.769127 103.206871 45.728855 103.542488 45.650002 103.870003 Z M 43.730000 101.599998 C 43.160000 101.599998 42.849998 102.059998 42.820000 102.970001 L 44.430000 102.970001 L 44.430000 102.720001 C 44.455040 102.423065 44.396133 102.125076 44.260002 101.860001 C 44.142513 101.684830 43.940445 101.585701 43.730003 101.599998 Z" fill="#232F3E"/><path d=" M 53.000000 106.349998 L 53.000000 102.639999 C 53.016663 102.401566 52.968277 102.163086 52.860001 101.949997 C 52.755142 101.796478 52.575054 101.712181 52.389999 101.729996 C 52.107712 101.742058 51.834274 101.832047 51.599998 101.989998 C 51.604916 102.029846 51.604916 102.070152 51.599998 102.110001 L 51.599998 106.349998 L 50.000000 106.349998 L 50.000000 102.639999 C 50.016663 102.401566 49.968277 102.163086 49.860001 101.949997 C 49.758389 101.798111 49.582016 101.713760 49.400002 101.729996 C 49.117992 101.743576 48.844955 101.833435 48.610001 101.989998 L 48.610001 106.349998 L 47.000000 106.349998 L 47.000000 100.720001 L 48.349998 100.720001 L 48.480000 101.230003 C 49.006557 100.840569 49.635986 100.614525 50.290001 100.580002 C 50.790237 100.544861 51.264317 100.807365 51.500000 101.250000 C 52.030991 100.851845 52.667450 100.618820 53.330002 100.580002 C 53.709106 100.564880 54.075390 100.718712 54.330002 101.000000 C 54.593987 101.349983 54.725109 101.782341 54.700001 102.220001 L 54.700001 106.349998 Z" fill="#232F3E"/><path d=" M 57.299999 103.919998 C 57.279251 104.324760 57.407299 104.723129 57.660000 105.040001 C 57.955566 105.286263 58.336880 105.404976 58.720001 105.370003 C 58.949249 105.364609 59.177242 105.334435 59.400002 105.280006 C 59.671528 105.230042 59.938942 105.159843 60.200001 105.070007 L 60.200001 106.070000 C 59.941761 106.217194 59.661507 106.321869 59.369999 106.379997 C 59.041473 106.451813 58.706276 106.488686 58.369999 106.489998 C 56.660000 106.489998 55.799999 105.489998 55.799999 103.540001 C 55.746960 102.755630 55.969818 101.977402 56.430000 101.340004 C 56.884651 100.816292 57.557926 100.535149 58.250000 100.580002 C 59.619999 100.580002 60.299999 101.339996 60.299999 102.870003 C 60.299126 103.206871 60.258854 103.542488 60.180000 103.870003 Z M 58.209999 101.599998 C 57.639999 101.599998 57.330002 102.059998 57.299999 102.970001 L 58.910000 102.970001 L 58.910000 102.720001 C 58.932598 102.424286 58.877438 102.127800 58.750000 101.860001 C 58.627918 101.684784 58.423103 101.586174 58.209999 101.599998 Z" fill="#232F3E"/><path d=" M 64.550003 106.349998 L 64.550003 102.650002 C 64.566498 102.408363 64.518166 102.166710 64.410004 101.950005 C 64.294106 101.793236 64.103882 101.709541 63.910004 101.730003 C 63.618233 101.741188 63.334911 101.831024 63.090004 101.990005 L 63.090000 106.349998 L 61.439999 106.349998 L 61.439999 100.720001 L 62.790001 100.720001 L 62.930000 101.230003 C 63.464371 100.833908 64.105400 100.607452 64.769997 100.580002 C 65.171425 100.553581 65.563728 100.707565 65.839996 101.000000 C 66.102020 101.350540 66.229736 101.783371 66.199997 102.220001 L 66.199997 106.349998 Z" fill="#232F3E"/><path d=" M 70.639999 106.199997 C 70.246460 106.346306 69.829857 106.420822 69.409996 106.419998 C 68.934883 106.461807 68.461983 106.318504 68.089996 106.019997 C 67.789146 105.656647 67.642036 105.190201 67.679993 104.719994 L 67.680000 101.820000 L 67.000000 101.820000 L 67.000000 100.900002 L 67.779999 100.750000 L 68.000000 99.209999 L 69.360001 99.209999 L 69.360001 100.720001 L 70.639999 100.720001 L 70.639999 101.820000 L 69.330002 101.820000 L 69.330002 104.589996 C 69.311531 104.776146 69.365227 104.962288 69.480003 105.109993 C 69.626587 105.234970 69.818748 105.292976 70.010002 105.269997 C 70.222244 105.265694 70.433426 105.238876 70.639999 105.189995 Z" fill="#232F3E"/><path d=" M 24.730000 117.000000 C 24.232723 116.768532 23.794912 116.426491 23.449999 116.000000 C 23.191233 115.643089 23.057642 115.210678 23.070000 114.769997 C 23.059801 114.355682 23.174810 113.947922 23.400000 113.599998 C 23.632124 113.261627 23.954256 112.994911 24.330000 112.830002 C 24.751116 112.641739 25.208838 112.549515 25.670000 112.560005 C 26.319569 112.563965 26.961924 112.696510 27.559999 112.950005 L 27.559999 114.120003 C 27.008253 113.917831 26.427393 113.806381 25.840000 113.790001 C 25.555244 113.776161 25.273926 113.857040 25.040001 114.020004 C 24.847281 114.175255 24.739666 114.412743 24.750000 114.660004 C 24.745146 114.863258 24.812462 115.061668 24.940001 115.220001 C 25.143887 115.428474 25.389143 115.591980 25.660000 115.700005 L 26.309999 116.019997 C 26.667839 116.184235 27.003771 116.392517 27.309999 116.639999 C 27.545288 116.820801 27.731043 117.058159 27.850000 117.330002 C 27.977577 117.619499 28.039066 117.933777 28.030001 118.250000 C 28.060263 118.886475 27.785427 119.499283 27.290001 119.900002 C 26.713343 120.327324 26.006987 120.542763 25.290001 120.510002 C 24.906866 120.509674 24.524807 120.469460 24.150002 120.389999 C 23.804222 120.327065 23.468079 120.219498 23.150002 120.070000 L 23.150000 118.919998 C 23.477161 119.026321 23.811295 119.109856 24.150000 119.169998 C 24.479118 119.238113 24.813944 119.274940 25.150000 119.279999 C 25.457417 119.289337 25.758320 119.190216 26.000000 119.000000 C 26.212818 118.827957 26.328489 118.563034 26.309999 118.290001 C 26.316534 118.075134 26.237391 117.866486 26.090000 117.709999 C 25.886230 117.513252 25.649240 117.354134 25.389999 117.239998 Z" fill="#232F3E"/><path d=" M 30.370001 117.919998 C 30.349251 118.324760 30.477299 118.723129 30.730001 119.040001 C 31.025566 119.286263 31.406881 119.404976 31.790001 119.370003 C 32.019203 119.363998 32.247131 119.333832 32.470001 119.280006 C 32.741528 119.230042 33.008942 119.159843 33.270000 119.070007 L 33.270000 120.070000 C 33.011761 120.217194 32.731506 120.321869 32.439999 120.379997 C 32.111473 120.451813 31.776278 120.488686 31.439999 120.489998 C 29.719999 120.489998 28.860001 119.489998 28.860001 117.540001 C 28.805513 116.753960 29.032366 115.974152 29.500000 115.340004 C 29.954651 114.816292 30.627926 114.535149 31.320000 114.580002 C 32.689999 114.580002 33.369999 115.339996 33.369999 116.870003 C 33.369125 117.206871 33.328854 117.542488 33.250000 117.870003 Z M 31.280001 115.599998 C 30.709999 115.599998 30.400000 116.059998 30.370001 116.970001 L 32.000000 116.970001 L 32.000000 116.720001 C 32.025040 116.423065 31.966135 116.125076 31.830000 115.860001 C 31.708925 115.678207 31.497326 115.578178 31.280001 115.599998 Z" fill="#232F3E"/><path d=" M 34.509998 120.349998 L 34.509998 114.720001 L 35.860001 114.720001 L 36.040001 115.449997 C 36.240948 115.209991 36.485180 115.009857 36.760002 114.860001 C 36.989922 114.734291 37.247959 114.668915 37.510002 114.669998 C 37.639812 114.660080 37.770191 114.660080 37.900002 114.669998 L 37.900002 116.000000 C 37.686886 115.986336 37.473118 115.986336 37.260002 116.000000 C 36.878166 116.000481 36.501644 116.089478 36.160004 116.260002 L 36.160000 120.370003 Z" fill="#232F3E"/><path d=" M 40.320000 120.349998 L 38.459999 114.720001 L 40.209999 114.720001 L 41.099998 118.720001 L 42.020000 114.720001 L 43.720001 114.720001 L 41.869999 120.349998 Z" fill="#232F3E"/><path d=" M 45.340000 113.809998 C 45.084538 113.824768 44.832355 113.746628 44.630001 113.589996 C 44.453274 113.438095 44.357193 113.212677 44.370003 112.979996 C 44.355621 112.747040 44.451988 112.520950 44.630001 112.369995 C 45.050442 112.064751 45.619560 112.064751 46.040001 112.369995 C 46.220451 112.519913 46.320358 112.745628 46.310001 112.979996 C 46.318817 113.214073 46.219196 113.439140 46.040001 113.589996 C 45.842972 113.749374 45.592781 113.828011 45.340000 113.809998 Z M 44.509998 120.349998 L 44.509998 114.720001 L 46.160000 114.720001 L 46.160000 120.349998 Z" fill="#232F3E"/><path d=" M 51.259998 120.089996 C 51.063362 120.213127 50.846798 120.301109 50.619999 120.349998 C 50.354290 120.410645 50.082539 120.440842 49.809998 120.439995 C 49.117512 120.489487 48.440201 120.220772 47.969997 119.709991 C 47.508713 119.088364 47.285229 118.322128 47.339996 117.549988 C 47.289219 116.771988 47.527847 116.002678 48.009995 115.389984 C 48.488075 114.869408 49.174305 114.590515 49.879993 114.629982 C 50.350231 114.627724 50.813824 114.741043 51.229992 114.959984 L 51.230000 115.959999 C 50.909512 115.841644 50.571564 115.777435 50.230000 115.769997 C 49.870422 115.724968 49.514622 115.878006 49.299999 116.169998 C 49.078037 116.561913 48.977127 117.010796 49.009998 117.459999 L 49.009998 117.620003 C 48.973049 118.065079 49.070595 118.511002 49.289997 118.900002 C 49.498989 119.182068 49.840584 119.333885 50.189999 119.300003 C 50.562542 119.291672 50.931026 119.220680 51.279999 119.090004 Z" fill="#232F3E"/><path d=" M 53.520000 117.919998 C 53.508793 118.323456 53.635815 118.718628 53.880001 119.040001 C 54.175568 119.286263 54.556881 119.404976 54.940002 119.370003 C 55.169292 119.365166 55.397346 119.334984 55.620003 119.280006 C 55.894562 119.228943 56.165218 119.158775 56.430004 119.070007 L 56.430000 120.070000 C 56.167084 120.214767 55.883930 120.319267 55.590000 120.379997 C 55.261600 120.452568 54.926323 120.489449 54.590000 120.489998 C 52.869999 120.489998 52.009998 119.489998 52.009998 117.540001 C 51.956959 116.755630 52.179817 115.977402 52.639999 115.340004 C 53.097763 114.814682 53.774765 114.533524 54.470001 114.580002 C 55.830002 114.580002 56.470001 115.339996 56.470001 116.870003 C 56.469128 117.206871 56.428856 117.542488 56.350002 117.870003 Z M 54.439999 115.599998 C 53.860001 115.599998 53.549999 116.059998 53.520000 116.970001 L 55.139999 116.970001 L 55.139999 116.720001 C 55.160442 116.423340 55.101780 116.126572 54.970001 115.860001 C 54.852512 115.684830 54.650444 115.585701 54.440002 115.599998 Z" fill="#232F3E"/></g><g id="ICONS_-_EDIT"><path d=" M 27.500000 64.500000 C 27.209288 64.502533 26.931866 64.378418 26.740000 64.160004 L 23.240000 60.160000 C 23.088024 59.973267 23.003468 59.740734 23.000000 59.500000 L 23.000000 56.910000 L 20.290001 54.209999 C 19.897879 53.821079 19.895283 53.187920 20.284203 52.795799 C 20.286127 52.793858 20.288061 52.791927 20.290001 52.790001 L 23.000000 50.080002 L 23.000000 48.910000 L 20.290001 46.209999 C 19.897879 45.821079 19.895283 45.187920 20.284203 44.795799 C 20.286127 44.793858 20.288061 44.791927 20.290001 44.790001 L 23.000000 42.080002 L 23.000000 39.669998 C 17.258438 37.440269 13.983557 31.373476 15.270000 25.349998 L 15.270000 25.350000 C 16.230488 20.709906 19.763107 17.029608 24.360001 15.880000 C 28.134706 14.924036 32.139343 15.765563 35.209999 18.160000 C 40.643593 22.418541 41.596165 30.275570 37.337620 35.709167 C 35.947174 37.483276 34.102879 38.848400 31.999998 39.660000 L 32.000000 60.500000 C 32.000019 60.792313 31.872137 61.069996 31.650000 61.259998 L 28.150000 64.260002 C 27.968859 64.414909 27.738344 64.500023 27.500000 64.500000 Z M 25.000000 59.119999 L 27.600000 62.119999 L 30.000000 60.000000 L 30.000000 39.000000 C 29.979235 38.546398 30.266691 38.135746 30.700001 38.000000 C 36.226837 36.244328 39.283966 30.340691 37.528297 24.813856 C 36.889610 22.803274 35.660103 21.031700 34.000004 19.730000 C 31.411917 17.715525 28.036512 17.013853 24.860004 17.830000 C 21.016327 18.792122 18.062874 21.869930 17.260004 25.750000 L 17.260000 25.750000 C 16.107538 31.036119 19.152458 36.334454 24.300001 38.000000 C 24.733311 38.135746 25.020767 38.546398 25.000002 39.000000 L 25.000000 42.500000 C 24.998890 42.767246 24.890856 43.022930 24.700001 43.209999 L 22.410000 45.500000 L 24.700001 47.790001 C 24.890856 47.977074 24.998892 48.232754 25.000000 48.500000 L 25.000000 50.500000 C 24.998890 50.767246 24.890856 51.022930 24.700001 51.209999 L 22.410000 53.500000 L 24.700001 55.790001 C 24.890856 55.977074 24.998892 56.232754 25.000000 56.500000 Z M 27.299999 29.250000 C 24.853384 29.255516 22.865538 27.276615 22.860022 24.830000 C 22.854506 22.383385 24.833406 20.395538 27.280022 20.390022 C 29.726637 20.384506 31.714483 22.363407 31.719999 24.810022 C 31.720015 24.816681 31.720015 24.823341 31.719999 24.830000 C 31.714500 27.268818 29.738817 29.244501 27.299999 29.250000 Z M 27.299999 22.400000 C 25.957958 22.394476 24.865543 23.477938 24.860020 24.819979 C 24.854496 26.162020 25.937958 27.254435 27.279999 27.259958 C 28.622040 27.265482 29.714455 26.182020 29.719978 24.839979 C 29.719992 24.836653 29.719999 24.833326 29.719999 24.830000 C 29.720011 23.491844 28.638144 22.405506 27.299999 22.400000 Z" fill="#FFFFFF"/><path d=" M 63.130001 57.000000 L 34.000000 57.000000 L 34.000000 55.000000 L 63.000000 55.000000 L 63.000000 34.000000 L 42.000000 34.000000 L 42.000000 32.000000 L 63.130001 32.000000 C 64.151665 31.988895 64.988892 32.808117 65.000000 33.829784 C 65.000000 33.829857 65.000000 33.829929 65.000000 33.830002 L 65.000000 55.160000 C 64.989014 56.183338 64.153381 57.005562 63.130001 57.000000 Z" fill="#FFFFFF"/><path d=" M 37.000000 48.000000 C 34.790859 48.000000 33.000000 46.209141 33.000000 44.000000 C 33.000000 41.790859 34.790859 40.000000 37.000000 40.000000 C 39.209141 40.000000 41.000000 41.790859 41.000000 44.000000 C 41.000000 46.209141 39.209141 48.000000 37.000000 48.000000 Z M 37.000000 42.000000 C 35.895432 42.000000 35.000000 42.895432 35.000000 44.000000 C 35.000000 45.104568 35.895432 46.000000 37.000000 46.000000 C 38.104568 46.000000 39.000000 45.104568 39.000000 44.000000 C 39.000000 42.895432 38.104568 42.000000 37.000000 42.000000 Z" fill="#FFFFFF"/><path d=" M 47.000000 48.000000 C 44.790859 48.000000 43.000000 46.209141 43.000000 44.000000 C 43.000000 41.790859 44.790859 40.000000 47.000000 40.000000 C 49.209141 40.000000 51.000000 41.790859 51.000000 44.000000 C 51.000000 46.209141 49.209141 48.000000 47.000000 48.000000 Z M 47.000000 42.000000 C 45.895432 42.000000 45.000000 42.895432 45.000000 44.000000 C 45.000000 45.104568 45.895432 46.000000 47.000000 46.000000 C 48.104568 46.000000 49.000000 45.104568 49.000000 44.000000 C 49.000000 42.895432 48.104568 42.000000 47.000000 42.000000 Z" fill="#FFFFFF"/><rect x="34.000000" y="50.000000" width="7.000000" height="2.000000" fill="#FFFFFF"/><rect x="43.000000" y="50.000000" width="7.000000" height="2.000000" fill="#FFFFFF"/><rect x="53.000000" y="50.000000" width="7.000000" height="2.000000" fill="#FFFFFF"/></g></svg>