<svg version="1.1" width="80.000000" height="115.000000" viewBox="0.000000 0.000000 80.000000 115.000000" xmlns="http://www.w3.org/2000/svg" xmlns:xlink="http://www.w3.org/1999/xlink" overflow="hidden"><g id="CARDS"><rect x="1.000000" y="1.000000" width="78.000000" height="78.000000" fill="#232F3E"/><path d=" M 0.000000 0.000000 L 0.000000 80.000000 L 0.000000 80.000000 L 0.000000 115.000000 L 80.000000 115.000000 L 80.000000 80.000000 L 80.000000 80.000000 L 80.000000 0.000000 Z M 1.000000 1.000000 L 79.000000 1.000000 L 79.000000 79.000000 L 1.000000 79.000000 Z" fill="#FFFFFF"/></g><g id="TEXT_-_EDIT"><path d=" M 15.560000 92.349998 L 15.120000 90.529999 L 13.120000 90.529999 L 12.700000 92.349998 L 10.930000 92.349998 L 13.240000 84.720001 L 15.110000 84.720001 L 17.410000 92.349998 Z M 13.370000 89.430000 L 14.870000 89.430000 L 14.110000 86.269997 Z" fill="#232F3E"/><path d=" M 22.760000 92.349998 L 21.820000 86.720001 L 20.930000 92.349998 L 19.059999 92.349998 L 17.280001 84.720001 L 19.000000 84.720001 L 20.000000 90.779999 L 21.000000 85.000000 L 22.830000 85.000000 L 23.770000 90.650002 L 24.770000 84.650002 L 26.430000 84.650002 L 24.650000 92.279999 Z" fill="#232F3E"/><path d=" M 28.709999 89.000000 C 28.214529 88.765594 27.777328 88.424026 27.429998 88.000000 C 27.171232 87.643089 27.037642 87.210678 27.049999 86.769997 C 27.038889 86.354126 27.157740 85.945145 27.389999 85.599998 C 27.615702 85.259720 27.935287 84.992241 28.309999 84.830002 C 28.731813 84.643929 29.189041 84.551804 29.650000 84.560005 C 30.299765 84.562088 30.942484 84.694710 31.539999 84.950005 L 31.540001 86.120003 C 30.988255 85.917831 30.407394 85.806381 29.820002 85.790001 C 29.530828 85.765778 29.241936 85.839767 29.000002 86.000000 C 28.809700 86.156288 28.705627 86.394165 28.720001 86.639999 C 28.712315 86.842018 28.776045 87.040291 28.900002 87.199997 C 29.107775 87.403732 29.352022 87.566566 29.620001 87.680000 L 30.270000 88.000000 C 30.627840 88.164238 30.963772 88.372520 31.270000 88.620003 C 31.505207 88.803383 31.693678 89.039825 31.820000 89.310005 C 31.939375 89.601707 31.997248 89.914909 31.990000 90.230003 C 32.020260 90.866478 31.745426 91.479286 31.250000 91.880005 C 30.674095 92.308823 29.967194 92.524429 29.250000 92.490005 C 28.866865 92.489677 28.484806 92.449463 28.110001 92.370003 C 27.781330 92.302986 27.462233 92.195503 27.160000 92.050003 L 27.160000 90.919998 C 27.487495 91.025146 27.821548 91.108665 28.160000 91.169998 C 28.489119 91.238113 28.823944 91.274940 29.160000 91.279999 C 29.463638 91.284546 29.759815 91.185814 30.000000 91.000000 C 30.206396 90.823906 30.317593 90.560738 30.299999 90.290001 C 30.306087 90.077034 30.231022 89.869705 30.090000 89.709999 C 29.882324 89.513412 29.642090 89.354385 29.380001 89.239998 Z" fill="#232F3E"/><path d=" M 37.110001 89.000000 C 36.612724 88.768532 36.174915 88.426491 35.830002 88.000000 C 35.571236 87.643089 35.437645 87.210678 35.450001 86.769997 C 35.439804 86.355682 35.554813 85.947922 35.780003 85.599998 C 36.012127 85.261627 36.334259 84.994911 36.710003 84.830002 C 37.131119 84.641739 37.588840 84.549515 38.050003 84.560005 C 38.699570 84.563965 39.341927 84.696510 39.940002 84.950005 L 39.939999 86.120003 C 39.388252 85.917831 38.807392 85.806381 38.219997 85.790001 C 37.935066 85.774620 37.653252 85.855637 37.419998 86.020004 C 37.227276 86.175255 37.119663 86.412743 37.129997 86.660004 C 37.120491 86.863945 37.188351 87.063950 37.319996 87.220001 C 37.523884 87.428474 37.769138 87.591980 38.039997 87.700005 L 38.689999 88.019997 C 39.046570 88.186584 39.382229 88.394691 39.689999 88.639999 C 39.925285 88.820801 40.111042 89.058159 40.230000 89.330002 C 40.357578 89.619499 40.419067 89.933777 40.410000 90.250000 C 40.440262 90.886475 40.165428 91.499283 39.669998 91.900002 C 39.092968 92.326584 38.386879 92.541946 37.669998 92.510002 C 37.290199 92.509125 36.911510 92.468910 36.539997 92.389999 C 36.210884 92.324646 35.891579 92.217087 35.589996 92.070000 L 35.590000 90.919998 C 35.917160 91.026321 36.251293 91.109856 36.590000 91.169998 C 36.919121 91.238113 37.253944 91.274940 37.590000 91.279999 C 37.903755 91.304230 38.215843 91.215561 38.470001 91.029999 C 38.678822 90.854942 38.793560 90.592155 38.780003 90.320000 C 38.782352 90.105858 38.703781 89.898712 38.560001 89.739998 C 38.356232 89.543251 38.119240 89.384132 37.860001 89.269997 Z" fill="#232F3E"/><path d=" M 42.750000 89.919998 C 42.738945 90.311180 42.866447 90.693687 43.110001 91.000000 C 43.405567 91.246262 43.786880 91.364975 44.170002 91.330002 C 44.399204 91.323997 44.627132 91.293831 44.850002 91.240005 C 45.121529 91.190041 45.388943 91.119843 45.650002 91.030006 L 45.650002 92.029999 C 45.391762 92.177193 45.111507 92.281868 44.820000 92.339996 C 44.491474 92.411812 44.156277 92.448685 43.820000 92.449997 C 42.099998 92.449997 41.240002 91.449997 41.240002 89.500000 C 41.185516 88.713959 41.412365 87.934151 41.880001 87.300003 C 42.334652 86.776291 43.007927 86.495148 43.700001 86.540001 C 45.070000 86.540001 45.700001 87.300003 45.700001 88.830002 C 45.699127 89.166870 45.658855 89.502487 45.580002 89.830002 Z M 43.660000 87.599998 C 43.080002 87.599998 42.779999 88.059998 42.750000 88.970001 L 44.360001 88.970001 L 44.360001 88.720001 C 44.385040 88.423065 44.326134 88.125076 44.190002 87.860001 C 44.072514 87.684830 43.870445 87.585701 43.660004 87.599998 Z" fill="#232F3E"/><path d=" M 50.529999 92.089996 C 50.333363 92.213127 50.116798 92.301109 49.889999 92.349998 C 49.624378 92.411171 49.352570 92.441368 49.079998 92.439995 C 48.387512 92.489487 47.710201 92.220772 47.239998 91.709991 C 46.372288 90.400703 46.372288 88.699280 47.239998 87.389992 C 47.720341 86.866623 48.410885 86.587463 49.119999 86.629990 C 49.589951 86.630135 50.052975 86.743317 50.469997 86.959991 L 50.470001 87.959999 C 50.149464 87.841820 49.811546 87.777618 49.470001 87.769997 C 49.111946 87.735214 48.761013 87.886154 48.540001 88.169998 C 48.322071 88.563194 48.224689 89.011833 48.260002 89.459999 L 48.259998 89.620003 C 48.225353 90.063736 48.319080 90.508072 48.529999 90.900002 C 48.740891 91.185333 49.087185 91.337547 49.439999 91.300003 C 49.809296 91.291695 50.174496 91.220688 50.520000 91.090004 Z" fill="#232F3E"/><path d=" M 51.580002 92.349998 L 51.580002 86.720001 L 52.930000 86.720001 L 53.110001 87.449997 C 53.310947 87.209991 53.555180 87.009857 53.830002 86.860001 C 54.058910 86.731735 54.317635 86.666191 54.580002 86.669998 C 54.706459 86.659698 54.833546 86.659698 54.960003 86.669998 L 54.959999 88.000000 C 54.750237 87.985909 54.539764 87.985909 54.329998 88.000000 C 53.948036 87.999374 53.571259 88.088432 53.230000 88.260002 L 53.230000 92.370003 Z" fill="#232F3E"/><path d=" M 56.930000 89.919998 C 56.918945 90.311180 57.046448 90.693687 57.290001 91.000000 C 57.585567 91.246262 57.966881 91.364975 58.350002 91.330002 C 58.579205 91.323997 58.807133 91.293831 59.030003 91.240005 C 59.301529 91.190041 59.568943 91.119843 59.830002 91.030006 L 59.830002 92.029999 C 59.571762 92.177193 59.291508 92.281868 59.000000 92.339996 C 58.671474 92.411812 58.336277 92.448685 58.000000 92.449997 C 56.279999 92.449997 55.419998 91.449997 55.419998 89.500000 C 55.365513 88.713959 55.592361 87.934151 56.059998 87.300003 C 56.514648 86.776291 57.187923 86.495148 57.879997 86.540001 C 59.250000 86.540001 59.880001 87.300003 59.880001 88.830002 C 59.879128 89.166870 59.838856 89.502487 59.760002 89.830002 Z M 57.840000 87.599998 C 57.259998 87.599998 56.959999 88.059998 56.930000 88.970001 L 58.540001 88.970001 L 58.540001 88.720001 C 58.560444 88.423340 58.501781 88.126572 58.370003 87.860001 C 58.252514 87.684830 58.050446 87.585701 57.840004 87.599998 Z" fill="#232F3E"/><path d=" M 64.110001 92.199997 C 63.716690 92.347153 63.299934 92.421692 62.880001 92.419998 C 62.407684 92.464508 61.936893 92.320755 61.570000 92.019997 C 61.265263 91.658775 61.117634 91.190689 61.160000 90.719994 L 61.160000 87.820000 L 60.419998 87.820000 L 60.419998 86.900002 L 61.200001 86.750000 L 61.439999 85.209999 L 62.810001 85.209999 L 62.810001 86.720001 L 64.080002 86.720001 L 64.080002 87.820000 L 62.810001 87.820000 L 62.810001 90.589996 C 62.789703 90.774757 62.839684 90.960396 62.950001 91.109993 C 63.096588 91.234970 63.288746 91.292976 63.480000 91.269997 C 63.692238 91.265694 63.903423 91.238876 64.110001 91.189995 Z" fill="#232F3E"/><path d=" M 67.000000 90.769997 C 67.000000 90.519997 66.820000 90.309998 66.480003 90.150002 L 65.760002 89.800003 C 65.080666 89.566200 64.623405 88.928444 64.620003 88.210007 C 64.593369 87.740799 64.798981 87.288460 65.170006 87.000008 C 65.592369 86.682838 66.112473 86.523621 66.640007 86.550011 C 67.169655 86.551735 67.692284 86.671295 68.170006 86.900009 L 68.169998 87.900002 C 67.941048 87.821503 67.707222 87.758034 67.470001 87.709999 C 67.272865 87.666542 67.071846 87.643089 66.870003 87.639999 C 66.349998 87.639999 66.099998 87.820000 66.099998 88.180000 C 66.099998 88.540001 66.309998 88.629997 66.730003 88.839996 L 67.459999 89.180000 C 67.766876 89.315102 68.032539 89.529015 68.229996 89.800003 C 68.398254 90.080269 68.481621 90.403313 68.469994 90.730003 C 68.490753 91.217346 68.283813 91.686646 67.909996 92.000000 C 67.485512 92.321449 66.961906 92.484184 66.429993 92.459999 C 65.796364 92.465340 65.171204 92.314201 64.609993 92.019997 L 64.610001 91.019997 C 65.129219 91.217819 65.675423 91.335831 66.230003 91.369995 C 66.431335 91.385101 66.631050 91.324471 66.790001 91.199997 C 66.919693 91.094414 66.996468 90.937195 67.000000 90.769997 Z" fill="#232F3E"/><path d=" M 25.510000 106.349998 L 25.510000 101.000000 L 24.100000 104.459999 L 22.670000 104.459999 L 21.270000 101.000000 L 21.270000 106.320000 L 19.770000 106.320000 L 19.770000 98.720001 L 21.690001 98.720001 L 23.420000 103.000000 L 25.139999 98.730003 L 27.000000 98.730003 L 27.000000 106.360001 Z" fill="#232F3E"/><path d=" M 31.450001 106.349998 L 31.309999 105.839996 C 31.154741 106.042564 30.952152 106.203949 30.719999 106.309998 C 30.473093 106.427322 30.203360 106.488777 29.929998 106.489998 C 29.491016 106.511780 29.063004 106.348557 28.749998 106.040001 C 28.446587 105.708809 28.291304 105.268242 28.319998 104.820000 C 28.296856 104.326881 28.490480 103.848297 28.849998 103.510002 C 29.247272 103.173096 29.760315 103.004471 30.279999 103.040001 C 30.594028 103.046669 30.906178 103.090302 31.209999 103.169998 L 31.209999 102.660004 C 31.237572 102.389763 31.181736 102.117561 31.049999 101.880005 C 30.885477 101.727715 30.662752 101.654694 30.439999 101.680008 C 29.835545 101.705238 29.238565 101.823280 28.669998 102.030006 L 28.670000 101.029999 C 28.953470 100.871468 29.260803 100.760017 29.580000 100.699997 C 29.961481 100.620018 30.350225 100.579803 30.740000 100.579994 C 31.283798 100.532089 31.825882 100.689011 32.259998 101.019997 C 32.604771 101.396851 32.775322 101.901237 32.730000 102.409996 L 32.730000 106.349998 Z M 30.450001 105.430000 C 30.748346 105.418404 31.030972 105.293190 31.240002 105.080002 L 31.240000 104.000000 C 31.034168 103.948074 30.822208 103.924522 30.610001 103.930000 C 30.412252 103.913605 30.217621 103.987053 30.080000 104.129997 C 29.940947 104.293694 29.872604 104.505920 29.889999 104.719994 C 29.879709 104.905304 29.932592 105.088631 30.039999 105.239990 C 30.131195 105.357796 30.271034 105.427719 30.419998 105.429993 Z" fill="#232F3E"/><path d=" M 37.230000 106.349998 L 37.230000 102.650002 C 37.251221 102.408081 37.202633 102.165154 37.090000 101.950005 C 36.977306 101.794876 36.790810 101.711143 36.599998 101.730003 C 36.307789 101.738640 36.023796 101.828682 35.779999 101.990005 L 35.779999 106.349998 L 34.130001 106.349998 L 34.130001 100.720001 L 35.480000 100.720001 L 35.610001 101.230003 C 36.144371 100.833908 36.785400 100.607452 37.450001 100.580002 C 37.851433 100.553581 38.243729 100.707565 38.520000 101.000000 C 38.785580 101.349174 38.916885 101.782127 38.889999 102.220001 L 38.889999 106.349998 Z" fill="#232F3E"/><path d=" M 43.189999 106.349998 L 43.040001 105.839996 C 42.886902 106.044678 42.683723 106.206528 42.450001 106.309998 C 42.206253 106.426201 41.940022 106.487640 41.670002 106.489998 C 41.230824 106.513031 40.802322 106.349617 40.490002 106.040001 C 40.183971 105.709824 40.025169 105.269508 40.050003 104.820000 C 40.026859 104.326881 40.220486 103.848297 40.580002 103.510002 C 40.972820 103.168266 41.479519 102.986282 42.000000 103.000000 C 42.310768 103.006325 42.619648 103.049973 42.919998 103.129997 L 42.919998 102.620003 C 42.947571 102.349762 42.891735 102.077560 42.759998 101.840004 C 42.595474 101.687714 42.372753 101.614693 42.149998 101.640007 C 41.545544 101.665237 40.948563 101.783279 40.379997 101.990005 L 40.380001 100.989998 C 40.667076 100.831573 40.977680 100.720161 41.299999 100.659996 C 41.681400 100.579514 42.070198 100.539299 42.459999 100.539993 C 43.013184 100.491592 43.563988 100.656120 44.000000 100.999992 C 44.349232 101.374199 44.520473 101.880630 44.470001 102.389992 L 44.470001 106.330002 Z M 42.189999 105.430000 C 42.488342 105.418404 42.770969 105.293190 42.980000 105.080002 L 42.980000 104.000000 C 42.777588 103.947983 42.568913 103.924423 42.360001 103.930000 C 42.159454 103.914780 41.962250 103.987816 41.820000 104.129997 C 41.688240 104.297188 41.624004 104.507729 41.639999 104.719994 C 41.629711 104.905304 41.682590 105.088631 41.790001 105.239990 C 41.874928 105.354698 42.007378 105.424606 42.150002 105.429993 Z" fill="#232F3E"/><path d=" M 48.759998 105.709999 C 48.448067 106.047455 48.009537 106.239540 47.549999 106.239998 C 46.974960 106.256142 46.431648 105.976936 46.110001 105.500000 C 45.733475 104.903000 45.548538 104.205116 45.580002 103.500000 C 45.537823 102.757782 45.726456 102.020706 46.120003 101.389999 C 46.442375 100.899895 46.993477 100.609245 47.580002 100.620003 C 47.825832 100.627289 48.067528 100.685165 48.290001 100.790001 C 48.527306 100.897537 48.741314 101.050400 48.920002 101.239998 L 49.040001 100.760002 L 50.389999 100.760002 L 50.389999 106.000000 C 50.389999 107.860001 49.540001 108.790001 47.820000 108.790001 C 47.182510 108.777115 46.557785 108.608925 46.000000 108.300003 L 46.000000 107.300003 C 46.519222 107.497826 47.065422 107.615837 47.619999 107.650002 C 47.860435 107.664276 48.100719 107.619652 48.320000 107.520004 C 48.488621 107.423470 48.613869 107.266022 48.669998 107.080002 C 48.754818 106.753838 48.788555 106.416504 48.769997 106.080002 Z M 48.099998 105.110001 C 48.336285 105.100060 48.565006 105.023819 48.759998 104.889999 L 48.759998 102.000000 C 48.549332 101.838676 48.294937 101.744583 48.029999 101.730003 C 47.760807 101.727432 47.519722 101.896187 47.430000 102.150002 C 47.274036 102.564812 47.205929 103.007492 47.230000 103.450005 C 47.205818 103.886879 47.277493 104.323753 47.439999 104.730003 C 47.567707 104.973930 47.824928 105.122025 48.099998 105.110001 Z" fill="#232F3E"/><path d=" M 53.000000 103.919998 C 52.979252 104.324760 53.107300 104.723129 53.360001 105.040001 C 53.655567 105.286263 54.036880 105.404976 54.420002 105.370003 C 54.649250 105.364609 54.877243 105.334435 55.100002 105.280006 C 55.371529 105.230042 55.638943 105.159843 55.900002 105.070007 L 55.900002 106.070000 C 55.641762 106.217194 55.361507 106.321869 55.070000 106.379997 C 54.741474 106.451813 54.406277 106.488686 54.070000 106.489998 C 52.349998 106.489998 51.490002 105.489998 51.490002 103.540001 C 51.439846 102.754425 51.666275 101.976082 52.130001 101.340004 C 52.584652 100.816292 53.257927 100.535149 53.950001 100.580002 C 55.320000 100.580002 55.950001 101.339996 55.950001 102.870003 C 55.949127 103.206871 55.908855 103.542488 55.830002 103.870003 Z M 53.910000 101.599998 C 53.340000 101.599998 53.029999 102.059998 53.000000 102.970001 L 54.610001 102.970001 L 54.610001 102.720001 C 54.635040 102.423065 54.576134 102.125076 54.440002 101.860001 C 54.329472 101.692749 54.140404 101.594429 53.940002 101.599998 Z" fill="#232F3E"/><path d=" M 57.169998 106.349998 L 57.169998 100.720001 L 58.520000 100.720001 L 58.700001 101.449997 C 58.900948 101.209991 59.145180 101.009857 59.420002 100.860001 C 59.649921 100.734291 59.907959 100.668915 60.170002 100.669998 C 60.299812 100.660080 60.430191 100.660080 60.560001 100.669998 L 60.560001 102.000000 C 60.346886 101.986336 60.133118 101.986336 59.920002 102.000000 C 59.538166 102.000481 59.161644 102.089478 58.820004 102.260002 L 58.820000 106.370003 Z" fill="#232F3E"/></g><g id="ICONS_-_EDIT"><rect x="57.020000" y="49.570000" width="2.000000" height="16.910000" fill="#FFFFFF" transform="matrix(0.707107,-0.707107,0.707107,0.707107,-24.030000,58.020000)"/><rect x="21.620000" y="13.260000" width="2.000000" height="18.740000" fill="#FFFFFF" transform="matrix(0.707107,-0.707107,0.707107,0.707107,-9.370000,22.620000)"/><rect x="22.790000" y="14.190000" width="2.000000" height="19.270000" fill="#FFFFFF" transform="matrix(0.707107,-0.707107,0.707107,0.707107,-9.880000,23.800000)"/><rect x="53.190000" y="44.590000" width="2.000000" height="19.270000" fill="#FFFFFF" transform="matrix(0.707107,-0.707107,0.707107,0.707107,-22.470000,54.200000)"/><rect x="17.550000" y="56.530000" width="9.900000" height="2.000000" fill="#FFFFFF" transform="matrix(0.707107,-0.707107,0.707107,0.707107,-34.090000,32.760000)"/><rect x="52.550000" y="21.530000" width="9.900000" height="2.000000" fill="#FFFFFF" transform="matrix(0.707107,-0.707107,0.707107,0.707107,0.910000,47.260000)"/><rect x="15.000000" y="39.000000" width="6.000000" height="2.000000" fill="#FFFFFF"/><rect x="59.000000" y="39.000000" width="6.000000" height="2.000000" fill="#FFFFFF"/><rect x="39.000000" y="59.000000" width="2.000000" height="6.000000" fill="#FFFFFF"/><rect x="39.000000" y="15.000000" width="2.000000" height="6.000000" fill="#FFFFFF"/><path d=" M 58.650002 53.500000 L 57.000000 52.330002 C 62.300690 44.990311 62.300690 35.079693 57.000000 27.740002 L 58.619999 26.570000 C 64.424599 34.608307 64.424599 45.461693 58.619999 53.500000 Z" fill="#FFFFFF"/><path d=" M 52.290001 23.000000 C 44.952435 17.704123 35.047569 17.704123 27.710001 23.000000 L 26.530001 21.379999 C 34.570431 15.570581 45.429569 15.570581 53.470001 21.379999 Z" fill="#FFFFFF"/><path d=" M 40.000000 63.000000 C 35.162209 63.015789 30.444788 61.492344 26.530001 58.650002 L 27.709999 57.029999 C 35.047565 62.325878 44.952431 62.325878 52.290001 57.029999 L 53.470001 58.650002 C 49.554577 61.491096 44.837578 63.014404 40.000000 63.000000 Z" fill="#FFFFFF"/><path d=" M 21.350000 53.500000 C 15.545399 45.461693 15.545399 34.608307 21.350000 26.570000 L 23.000000 27.740000 C 17.699308 35.079693 17.699308 44.990307 23.000000 52.329998 Z" fill="#FFFFFF"/><path d=" M 49.000000 52.000000 L 31.000000 52.000000 C 30.447716 52.000000 30.000000 51.552284 30.000000 51.000000 L 30.000000 37.000000 C 30.000000 36.447716 30.447716 36.000000 31.000000 36.000000 L 49.000000 36.000000 C 49.552284 36.000000 50.000000 36.447716 50.000000 37.000000 L 50.000000 51.000000 C 50.000000 51.552284 49.552284 52.000000 49.000000 52.000000 Z M 32.000000 50.000000 L 48.000000 50.000000 L 48.000000 38.000000 L 32.000000 38.000000 Z" fill="#FFFFFF"/><path d=" M 35.000000 37.000000 L 33.000000 37.000000 L 33.000000 31.100000 C 33.000000 27.740000 36.139999 25.000000 40.000000 25.000000 L 40.000000 25.000000 C 41.783012 24.981943 43.515026 25.594700 44.889999 26.730000 C 46.208122 27.800468 46.981430 29.402058 47.000000 31.100000 L 47.000000 37.000000 L 45.000000 37.000000 L 45.000000 31.100000 C 44.976845 29.992743 44.464142 28.952686 43.599998 28.260000 C 42.586529 27.427902 41.311169 26.981525 40.000000 27.000000 L 40.000000 27.000000 C 37.250000 27.000000 35.000000 28.840000 35.000000 31.100000 Z" fill="#FFFFFF"/><rect x="39.000000" y="45.000000" width="2.000000" height="3.000000" fill="#FFFFFF"/><rect x="45.000000" y="41.000000" width="4.000000" height="2.000000" fill="#FFFFFF"/><rect x="45.000000" y="45.000000" width="4.000000" height="2.000000" fill="#FFFFFF"/><path d=" M 40.000000 45.930000 C 38.381805 45.930000 37.070000 44.618195 37.070000 43.000000 C 37.070000 41.381805 38.381805 40.070000 40.000000 40.070000 C 41.618195 40.070000 42.930000 41.381805 42.930000 43.000000 C 42.924515 44.615917 41.615917 45.924515 40.000000 45.930000 Z M 40.000000 41.930000 C 39.409054 41.930000 38.930000 42.409054 38.930000 43.000000 C 38.930000 43.590946 39.409054 44.070000 40.000000 44.070000 C 40.590946 44.070000 41.070000 43.590946 41.070000 43.000000 C 41.070000 42.409054 40.590946 41.930000 40.000000 41.930000 Z" fill="#FFFFFF"/></g></svg>