<svg version="1.1" width="80.000000" height="100.000000" viewBox="0.000000 0.000000 80.000000 100.000000" xmlns="http://www.w3.org/2000/svg" xmlns:xlink="http://www.w3.org/1999/xlink" overflow="hidden"><g id="CARDS"><rect x="1.000000" y="1.000000" width="78.000000" height="78.000000" fill="#232F3E"/><path d=" M 0.000000 0.000000 L 0.000000 80.000000 L 0.000000 80.000000 L 0.000000 100.000000 L 80.000000 100.000000 L 80.000000 80.000000 L 80.000000 80.000000 L 80.000000 0.000000 Z M 1.000000 1.000000 L 79.000000 1.000000 L 79.000000 79.000000 L 1.000000 79.000000 Z" fill="#FFFFFF"/></g><g id="TEXT_-_EDIT"><path d=" M 17.450001 92.349998 L 17.000000 90.529999 L 15.000000 90.529999 L 14.580000 92.349998 L 12.830000 92.349998 L 15.140000 84.720001 L 17.000000 84.720001 L 19.299999 92.349998 Z M 15.270000 89.430000 L 16.770000 89.430000 L 16.000000 86.269997 Z" fill="#232F3E"/><path d=" M 24.660000 92.349998 L 23.719999 86.720001 L 22.830000 92.349998 L 21.000000 92.349998 L 19.219999 84.720001 L 20.910000 84.720001 L 21.980000 90.779999 L 22.850000 85.000000 L 24.680000 85.000000 L 25.620001 90.650002 L 26.620001 84.650002 L 28.280001 84.650002 L 26.490000 92.279999 Z" fill="#232F3E"/><path d=" M 30.610001 89.000000 C 30.112724 88.768532 29.674913 88.426491 29.330000 88.000000 C 29.088919 87.636909 28.973042 87.205002 29.000000 86.769997 C 28.989801 86.355682 29.104811 85.947922 29.330000 85.599998 C 29.562124 85.261627 29.884256 84.994911 30.260000 84.830002 C 30.681116 84.641739 31.138838 84.549515 31.600000 84.560005 C 32.249569 84.563965 32.891922 84.696510 33.490002 84.950005 L 33.490002 86.120003 C 32.938255 85.917831 32.357395 85.806381 31.770002 85.790001 C 31.485069 85.774620 31.203259 85.855637 30.970003 86.020004 C 30.777283 86.175255 30.669668 86.412743 30.680002 86.660004 C 30.670498 86.863945 30.738358 87.063950 30.870003 87.220001 C 31.073889 87.428474 31.319145 87.591980 31.590002 87.700005 L 32.240002 88.019997 C 32.596573 88.186584 32.932232 88.394691 33.240002 88.639999 C 33.475288 88.820801 33.661045 89.058159 33.780003 89.330002 C 33.907581 89.619499 33.969070 89.933777 33.960003 90.250000 C 33.990265 90.886475 33.715431 91.499283 33.220001 91.900002 C 32.642971 92.326584 31.936882 92.541946 31.220001 92.510002 C 30.810133 92.515587 30.400925 92.475342 30.000002 92.389999 C 29.670889 92.324646 29.351583 92.217087 29.050001 92.070000 L 29.049999 90.919998 C 29.377161 91.026321 29.711294 91.109856 30.049999 91.169998 C 30.362730 91.235054 30.680676 91.271873 31.000000 91.279999 C 31.313755 91.304230 31.625845 91.215561 31.879999 91.029999 C 32.088821 90.854942 32.203556 90.592155 32.189999 90.320000 C 32.192348 90.105858 32.113777 89.898712 31.969999 89.739998 C 31.766230 89.543251 31.529240 89.384132 31.269999 89.269997 Z" fill="#232F3E"/><path d=" M 39.000000 89.000000 C 38.502724 88.768532 38.064915 88.426491 37.720001 88.000000 C 37.457680 87.644348 37.320538 87.211830 37.330002 86.769997 C 37.323391 86.354721 37.441860 85.947060 37.670002 85.599998 C 37.898216 85.261978 38.217068 84.995110 38.590000 84.830002 C 39.033379 84.634041 39.515591 84.541702 40.000000 84.560005 C 40.649567 84.563965 41.291924 84.696510 41.889999 84.950005 L 41.889999 86.120003 C 41.334805 85.917786 40.750648 85.806358 40.160000 85.790001 C 39.878349 85.776108 39.600178 85.857094 39.369999 86.020004 C 39.177277 86.175255 39.069664 86.412743 39.079998 86.660004 C 39.070492 86.863945 39.138351 87.063950 39.269997 87.220001 C 39.471874 87.426239 39.713387 87.589516 39.979996 87.700005 L 40.630001 88.019997 C 40.986053 88.187546 41.321602 88.395592 41.630001 88.639999 C 41.858788 88.827263 42.043213 89.062912 42.170002 89.330002 C 42.297581 89.619499 42.359070 89.933777 42.350002 90.250000 C 42.377865 90.888214 42.099171 91.501343 41.600002 91.900002 C 41.024479 92.329575 40.317299 92.545265 39.600002 92.510002 C 39.220177 92.509636 38.841434 92.469414 38.470001 92.389999 C 38.123768 92.328896 37.787388 92.221252 37.470001 92.070000 L 37.470001 90.919998 C 37.797359 91.025635 38.131447 91.109154 38.470001 91.169998 C 38.799301 91.236969 39.134018 91.273788 39.470001 91.279999 C 39.783756 91.304230 40.095844 91.215561 40.350002 91.029999 C 40.556396 90.853905 40.667595 90.590736 40.650002 90.320000 C 40.656090 90.107033 40.581024 89.899704 40.440002 89.739998 C 40.236233 89.543251 39.999241 89.384132 39.740002 89.269997 Z" fill="#232F3E"/><path d=" M 46.540001 92.349998 L 46.540001 88.650002 C 46.559315 88.407036 46.507175 88.163719 46.389999 87.950005 C 46.278671 87.793205 46.091148 87.709015 45.899998 87.730003 C 45.607967 87.739677 45.324249 87.829636 45.079998 87.990005 L 45.080002 92.349998 L 43.430000 92.349998 L 43.430000 84.209999 L 45.080002 84.209999 L 45.080002 87.120003 C 45.575226 86.787392 46.153793 86.600311 46.750000 86.580002 C 47.151432 86.553581 47.543728 86.707565 47.820000 87.000000 C 48.085579 87.349174 48.216885 87.782127 48.189999 88.220001 L 48.189999 92.349998 Z" fill="#232F3E"/><path d=" M 50.450001 85.809998 C 50.194538 85.824768 49.942356 85.746628 49.740002 85.589996 C 49.563274 85.438095 49.467194 85.212677 49.480003 84.979996 C 49.465622 84.747040 49.561989 84.520950 49.740002 84.369995 C 50.160442 84.064751 50.729561 84.064751 51.150002 84.369995 C 51.330452 84.519913 51.430359 84.745628 51.420002 84.979996 C 51.428818 85.214073 51.329197 85.439140 51.150002 85.589996 C 50.952972 85.749374 50.702782 85.828011 50.450001 85.809998 Z M 49.619999 92.349998 L 49.619999 86.720001 L 51.270000 86.720001 L 51.270000 92.349998 Z" fill="#232F3E"/><path d=" M 54.000000 89.919998 C 53.974651 90.305092 54.084267 90.686981 54.310001 91.000000 C 54.604473 91.248260 54.986645 91.367241 55.370003 91.330002 C 55.599205 91.323997 55.827133 91.293831 56.050003 91.240005 C 56.321255 91.188805 56.588577 91.118637 56.850002 91.030006 L 56.849998 92.029999 C 56.590977 92.175522 56.310997 92.280098 56.019997 92.339996 C 55.691471 92.411812 55.356274 92.448685 55.019997 92.449997 C 53.299999 92.449997 52.439999 91.449997 52.439999 89.500000 C 52.386959 88.715630 52.609818 87.937401 53.070000 87.300003 C 53.528690 86.775963 54.205025 86.495087 54.900002 86.540001 C 56.259998 86.540001 56.950001 87.300003 56.950001 88.830002 C 56.949127 89.166870 56.908855 89.502487 56.830002 89.830002 Z M 54.910000 87.599998 C 54.330002 87.599998 54.029999 88.059998 54.000000 88.970001 L 55.610001 88.970001 L 55.610001 88.720001 C 55.630444 88.423340 55.571781 88.126572 55.440002 87.860001 C 55.313866 87.667702 55.087486 87.566223 54.860001 87.599998 Z" fill="#232F3E"/><path d=" M 60.490002 92.250000 C 60.169743 92.365929 59.830444 92.420219 59.490002 92.410004 C 59.101234 92.424904 58.724014 92.276192 58.450001 92.000000 C 58.186512 91.689018 58.057056 91.286263 58.090000 90.879997 L 58.090000 84.209999 L 59.740002 84.209999 L 59.740002 90.750000 C 59.729198 90.888161 59.756889 91.026619 59.820004 91.150002 C 59.899673 91.241310 60.019939 91.286407 60.140003 91.270004 C 60.256493 91.279053 60.373512 91.279053 60.490002 91.270004 Z" fill="#232F3E"/><path d=" M 64.629997 92.349998 L 64.500000 91.860001 C 64.316635 92.038925 64.103432 92.184441 63.869999 92.290001 C 63.642376 92.387421 63.397591 92.438423 63.149998 92.440002 C 62.551472 92.464928 61.981789 92.181969 61.639999 91.690002 C 61.245480 91.052330 61.056934 90.308617 61.099998 89.560005 C 61.055649 88.789658 61.251301 88.024506 61.660000 87.370003 C 61.997570 86.858131 62.577206 86.558846 63.189999 86.580002 C 63.405468 86.590401 63.618011 86.634262 63.820000 86.709999 C 64.038536 86.789223 64.244110 86.900436 64.430000 87.040001 L 64.430000 84.209999 L 66.080002 84.209999 L 66.080002 92.349998 Z M 63.700001 91.349998 C 63.959419 91.348328 64.212860 91.271950 64.430000 91.129997 L 64.430000 88.000000 C 64.192627 87.840775 63.915627 87.750748 63.630001 87.739998 C 63.335640 87.728607 63.066513 87.905350 62.960003 88.180000 C 62.793648 88.623573 62.722111 89.097084 62.750004 89.570000 C 62.734192 90.023109 62.819595 90.474052 63.000004 90.889999 C 63.129093 91.157959 63.402630 91.325989 63.700005 91.320000 Z" fill="#232F3E"/></g><g id="ICONS_-_EDIT"><path d=" M 36.000000 66.000000 C 25.639999 66.000000 20.750000 59.770000 18.459999 54.540001 C 16.946363 50.975983 16.112045 47.160500 15.999999 43.290001 L 16.000000 22.100000 C 15.998641 21.681528 16.257994 21.306465 16.650000 21.160000 L 35.650002 14.060000 C 35.864395 13.989764 36.095608 13.989764 36.310001 14.060000 L 55.310001 20.170000 C 55.721264 20.304098 55.999683 20.687426 56.000000 21.120001 L 56.000000 41.000000 L 54.000000 41.000000 L 54.000000 21.840000 L 36.000000 16.059999 L 18.000000 22.790001 L 18.000000 43.290001 C 18.120319 46.884785 18.899921 50.426888 20.299999 53.740002 C 23.270000 60.549999 28.549999 64.000000 36.000000 64.000000 C 39.185665 64.080956 42.336948 63.325886 45.139999 61.810001 L 46.139999 63.549999 C 43.033321 65.241714 39.536362 66.086639 36.000000 66.000000 Z" fill="#FFFFFF"/><path d=" M 36.000000 60.740002 C 31.000000 60.740002 26.870001 58.060001 23.940001 53.000000 C 22.583183 50.646801 21.591866 48.101074 21.000000 45.450001 C 20.995102 45.386761 20.995102 45.323238 21.000000 45.260002 L 21.000000 25.520000 C 20.998640 25.101528 21.257994 24.726465 21.650000 24.580000 L 35.650002 19.320000 C 35.876465 19.239933 36.123535 19.239933 36.350002 19.320000 L 50.349998 24.580000 C 50.742004 24.726463 51.001358 25.101528 51.000000 25.520000 L 51.000000 42.000000 L 49.000000 42.000000 L 49.000000 26.209999 L 36.000000 21.330000 L 23.000000 26.209999 L 23.000000 45.160000 C 23.250000 46.330002 26.200001 58.740002 36.000000 58.740002 C 38.145382 58.752964 40.241871 58.099560 42.000000 56.870003 L 43.139999 58.509998 C 41.048923 59.975941 38.553692 60.755264 36.000000 60.739998 Z" fill="#FFFFFF"/><rect x="35.000000" y="20.260000" width="2.000000" height="39.480000" fill="#FFFFFF"/><rect x="50.000000" y="53.000000" width="10.000000" height="2.000000" fill="#FFFFFF"/><rect x="54.000000" y="49.000000" width="2.000000" height="10.000000" fill="#FFFFFF"/><path d=" M 55.000000 65.000000 C 48.924870 65.000000 44.000000 60.075130 44.000000 54.000000 C 44.000000 47.924870 48.924870 43.000000 55.000000 43.000000 C 61.075130 43.000000 66.000000 47.924870 66.000000 54.000000 C 66.000000 60.075130 61.075130 65.000000 55.000000 65.000000 Z M 55.000000 45.000000 C 50.029438 45.000000 46.000000 49.029438 46.000000 54.000000 C 46.000000 58.970562 50.029438 63.000000 55.000000 63.000000 C 59.970562 63.000000 64.000000 58.970562 64.000000 54.000000 C 64.000000 49.029438 59.970562 45.000000 55.000000 45.000000 Z" fill="#FFFFFF"/></g></svg>