<svg version="1.1" width="80.000000" height="115.000000" viewBox="0.000000 0.000000 80.000000 115.000000" xmlns="http://www.w3.org/2000/svg" xmlns:xlink="http://www.w3.org/1999/xlink" overflow="hidden"><g id="CARDS"><rect x="1.000000" y="1.000000" width="78.000000" height="78.000000" fill="#232F3E"/><path d=" M 0.000000 0.000000 L 0.000000 80.000000 L 0.000000 80.000000 L 0.000000 115.000000 L 80.000000 115.000000 L 80.000000 80.000000 L 80.000000 80.000000 L 80.000000 0.000000 Z M 1.000000 1.000000 L 79.000000 1.000000 L 79.000000 79.000000 L 1.000000 79.000000 Z" fill="#FFFFFF"/></g><g id="TEXT_-_EDIT"><path d=" M 17.540001 92.349998 L 17.100000 90.529999 L 15.100000 90.529999 L 14.680000 92.349998 L 12.910000 92.349998 L 15.230000 84.720001 L 17.090000 84.720001 L 19.389999 92.349998 Z M 15.360000 89.430000 L 16.850000 89.430000 L 16.090000 86.269997 Z" fill="#232F3E"/><path d=" M 24.740000 92.349998 L 23.799999 86.720001 L 22.910000 92.349998 L 21.000000 92.349998 L 19.219999 84.720001 L 21.000000 84.720001 L 22.000000 90.779999 L 22.940001 85.000000 L 24.770000 85.000000 L 25.709999 90.650002 L 26.709999 84.650002 L 28.370001 84.650002 L 26.590000 92.279999 Z" fill="#232F3E"/><path d=" M 30.690001 89.000000 C 30.195400 88.768761 29.760801 88.426559 29.420000 88.000000 C 29.146967 87.648193 28.999159 87.215324 29.000000 86.769997 C 28.988890 86.354126 29.107740 85.945145 29.340000 85.599998 C 29.565702 85.259720 29.885288 84.992241 30.260000 84.830002 C 30.681814 84.643929 31.139042 84.551804 31.600000 84.560005 C 32.249763 84.562088 32.892487 84.694710 33.490002 84.950005 L 33.490002 86.120003 C 32.938255 85.917831 32.357395 85.806381 31.770002 85.790001 C 31.497360 85.774712 31.227133 85.848412 31.000002 86.000000 C 30.803204 86.152054 30.694578 86.391777 30.710001 86.639999 C 30.702314 86.842018 30.766045 87.040291 30.890001 87.199997 C 31.097775 87.403732 31.342022 87.566566 31.610001 87.680000 L 32.259998 88.000000 C 32.616051 88.167549 32.951599 88.375595 33.259998 88.620003 C 33.488785 88.807266 33.673210 89.042915 33.799999 89.310005 C 33.919373 89.601707 33.977249 89.914909 33.969997 90.230003 C 34.000259 90.866478 33.725426 91.479286 33.229996 91.880005 C 32.654472 92.309578 31.947292 92.525269 31.229996 92.490005 C 30.850138 92.490234 30.471334 92.450005 30.099997 92.370003 C 29.770466 92.306213 29.450960 92.198593 29.149996 92.050003 L 29.150000 90.919998 C 29.477016 91.026825 29.811186 91.110367 30.150000 91.169998 C 30.479118 91.238113 30.813944 91.274940 31.150000 91.279999 C 31.457293 91.288490 31.757914 91.189461 32.000000 91.000000 C 32.206394 90.823906 32.317593 90.560738 32.299999 90.290001 C 32.306087 90.077034 32.231022 89.869705 32.090000 89.709999 C 31.882324 89.513412 31.642090 89.354385 31.380001 89.239998 Z" fill="#232F3E"/><path d=" M 39.090000 89.000000 C 38.594528 88.765594 38.157330 88.424026 37.810001 88.000000 C 37.551235 87.643089 37.417645 87.210678 37.430000 86.769997 C 37.418892 86.354126 37.537739 85.945145 37.770000 85.599998 C 37.995701 85.259720 38.315289 84.992241 38.689999 84.830002 C 39.102207 84.646965 39.549007 84.554878 40.000000 84.560005 C 40.649765 84.562088 41.292484 84.694710 41.889999 84.950005 L 41.889999 86.120003 C 41.338253 85.917831 40.757393 85.806381 40.169998 85.790001 C 39.885242 85.776161 39.603924 85.857040 39.369999 86.020004 C 39.179695 86.176292 39.075623 86.414169 39.090000 86.660004 C 39.082314 86.862022 39.146042 87.060295 39.270000 87.220001 C 39.477772 87.423737 39.722023 87.586571 39.990002 87.700005 L 40.639999 88.019997 C 40.997837 88.184235 41.333771 88.392517 41.639999 88.639999 C 41.875206 88.823380 42.063675 89.059822 42.189999 89.330002 C 42.309372 89.621704 42.367249 89.934906 42.359997 90.250000 C 42.390259 90.886475 42.115425 91.499283 41.619995 91.900002 C 41.044090 92.328819 40.337189 92.544426 39.619995 92.510002 C 39.236862 92.509674 38.854801 92.469460 38.479996 92.389999 C 38.134216 92.327065 37.798073 92.219498 37.479996 92.070000 L 37.480000 90.919998 C 37.807495 91.025146 38.141548 91.108665 38.480000 91.169998 C 38.809120 91.238113 39.143944 91.274940 39.480000 91.279999 C 39.793579 91.302475 40.105076 91.213982 40.360001 91.029999 C 40.566395 90.853905 40.677593 90.590736 40.660000 90.320000 C 40.666088 90.107033 40.591022 89.899704 40.450001 89.739998 C 40.242325 89.543411 40.002090 89.384384 39.740002 89.269997 Z" fill="#232F3E"/><path d=" M 44.380001 85.809998 C 44.124538 85.824768 43.872356 85.746628 43.670002 85.589996 C 43.496353 85.443558 43.397308 85.227127 43.400002 85.000000 C 43.389645 84.765633 43.489552 84.539917 43.670002 84.389999 C 44.090443 84.084755 44.659561 84.084755 45.080002 84.389999 C 45.258018 84.540955 45.354385 84.767044 45.340000 85.000000 C 45.352810 85.232681 45.256729 85.458099 45.080002 85.610001 C 44.880085 85.762253 44.630177 85.833656 44.380001 85.809998 Z M 43.549999 92.349998 L 43.549999 86.720001 L 45.200001 86.720001 L 45.200001 92.349998 Z" fill="#232F3E"/><path d=" M 49.770000 92.349998 L 49.770000 88.650002 C 49.789314 88.407036 49.737175 88.163719 49.619999 87.950005 C 49.507305 87.794876 49.320808 87.711143 49.129997 87.730003 C 48.837788 87.738640 48.553795 87.828682 48.309998 87.990005 L 48.310001 92.349998 L 46.660000 92.349998 L 46.660000 86.720001 L 48.000000 86.720001 L 48.130001 87.230003 C 48.673615 86.829895 49.325420 86.603333 50.000000 86.580002 C 50.401432 86.553581 50.793728 86.707565 51.070000 87.000000 C 51.335579 87.349174 51.466885 87.782127 51.439999 88.220001 L 51.439999 92.349998 Z" fill="#232F3E"/><path d=" M 55.720001 91.709999 C 55.064323 92.397354 53.975582 92.423027 53.288231 91.767349 C 53.203224 91.686256 53.126747 91.596672 53.060001 91.499992 C 52.686981 90.901863 52.505554 90.204063 52.540001 89.499992 C 52.499981 88.759315 52.684723 88.023834 53.070000 87.389992 C 53.394276 86.896835 53.949951 86.605766 54.540001 86.619995 C 54.782444 86.628639 55.020599 86.686478 55.240002 86.789993 C 55.479389 86.893883 55.694092 87.047241 55.870003 87.239990 L 55.990002 86.760002 L 57.340000 86.760002 L 57.340000 92.000000 C 57.340000 93.860001 56.490002 94.790001 54.779999 94.790001 C 54.155941 94.771873 53.545414 94.603806 53.000000 94.300003 L 53.000000 93.300003 C 53.515827 93.497581 54.058697 93.615601 54.610001 93.650002 C 54.850513 93.665520 55.091099 93.620834 55.310001 93.520004 C 55.481476 93.426834 55.607788 93.268044 55.660000 93.080002 C 55.749329 92.754585 55.786457 92.417053 55.770000 92.080002 Z M 55.060001 91.110001 C 55.296288 91.100060 55.525009 91.023819 55.720001 90.889999 L 55.720001 88.000000 C 55.514748 87.831337 55.264290 87.726974 55.000000 87.699997 C 54.730808 87.697426 54.489723 87.866180 54.400002 88.119995 C 54.248276 88.535736 54.183605 88.978218 54.210003 89.419998 C 54.185822 89.856873 54.257496 90.293747 54.420002 90.699997 C 54.534100 90.950668 54.784588 91.111137 55.060001 91.110001 Z" fill="#232F3E"/><path d=" M 61.160000 92.250000 C 60.839802 92.366165 60.500458 92.420456 60.160000 92.410004 C 59.772060 92.420113 59.396671 92.272125 59.119999 92.000000 C 58.860100 91.687485 58.734287 91.284897 58.770000 90.879997 L 58.770000 84.209999 L 60.419998 84.209999 L 60.419998 90.750000 C 60.407120 90.887192 60.431293 91.025330 60.489998 91.150002 C 60.570694 91.239822 60.690140 91.284615 60.809998 91.270004 C 60.926468 91.279564 61.043526 91.279564 61.159996 91.270004 Z" fill="#232F3E"/><path d=" M 63.270000 89.919998 C 63.267796 90.309822 63.394344 90.689461 63.630001 91.000000 C 63.925568 91.246262 64.306877 91.364975 64.690002 91.330002 C 64.919250 91.324608 65.147247 91.294434 65.370003 91.240005 C 65.641533 91.190041 65.908943 91.119843 66.170006 91.030006 L 66.169998 92.029999 C 65.911758 92.177193 65.631508 92.281868 65.339996 92.339996 C 65.011475 92.411812 64.676277 92.448685 64.339996 92.449997 C 62.630001 92.449997 61.770000 91.449997 61.770000 89.500000 C 61.716961 88.715630 61.939819 87.937401 62.400002 87.300003 C 62.854652 86.776291 63.527927 86.495148 64.220001 86.540001 C 65.589996 86.540001 66.220001 87.300003 66.220001 88.830002 C 66.219131 89.166870 66.178856 89.502487 66.099998 89.830002 Z M 64.190002 87.599998 C 63.610001 87.599998 63.299999 88.059998 63.270000 88.970001 L 64.889999 88.970001 L 64.889999 88.720001 C 64.910439 88.423340 64.851776 88.126572 64.720001 87.860001 C 64.601135 87.686409 64.400032 87.587753 64.190002 87.599998 Z" fill="#232F3E"/><path d=" M 22.330000 103.000000 C 21.835400 102.768761 21.400801 102.426559 21.059999 102.000000 C 20.797676 101.644348 20.660536 101.211830 20.670000 100.769997 C 20.655939 100.355202 20.771267 99.946312 21.000000 99.599998 C 21.225702 99.259720 21.545288 98.992241 21.920000 98.830002 C 22.341814 98.643929 22.799042 98.551804 23.260000 98.560005 C 23.909765 98.562088 24.552485 98.694710 25.150000 98.950005 L 25.150000 100.120003 C 24.598253 99.917831 24.017393 99.806381 23.430000 99.790001 C 23.148165 99.774521 22.869482 99.855652 22.639999 100.020004 C 22.443201 100.172058 22.334576 100.411781 22.349998 100.660004 C 22.342312 100.862022 22.406042 101.060295 22.529999 101.220001 C 22.737772 101.423737 22.982019 101.586571 23.249998 101.700005 L 23.900000 102.019997 C 24.257839 102.184235 24.593771 102.392517 24.900000 102.639999 C 25.135206 102.823380 25.323677 103.059822 25.449999 103.330002 C 25.569374 103.621704 25.627247 103.934906 25.619999 104.250000 C 25.650261 104.886475 25.375425 105.499283 24.879999 105.900002 C 24.304476 106.329575 23.597296 106.545265 22.879999 106.510002 C 22.500141 106.510231 22.121338 106.470001 21.750000 106.389999 C 21.404055 106.327736 21.067825 106.220139 20.750000 106.070000 L 20.750000 104.919998 C 21.077496 105.025146 21.411549 105.108665 21.750000 105.169998 C 22.079119 105.238113 22.413944 105.274940 22.750000 105.279999 C 23.063578 105.302475 23.375076 105.213982 23.629999 105.029999 C 23.836395 104.853905 23.947592 104.590736 23.929998 104.320000 C 23.936087 104.107033 23.861021 103.899704 23.719999 103.739998 C 23.512323 103.543411 23.272089 103.384384 23.010000 103.269997 Z" fill="#232F3E"/><path d=" M 27.620001 99.809998 C 27.364538 99.824768 27.112354 99.746628 26.910002 99.589996 C 26.733273 99.438095 26.637194 99.212677 26.650002 98.979996 C 26.635618 98.747040 26.731985 98.520950 26.910002 98.369995 C 27.330442 98.064751 27.899561 98.064751 28.320002 98.369995 C 28.500452 98.519913 28.600359 98.745628 28.590002 98.979996 C 28.598816 99.214073 28.499199 99.439140 28.320002 99.589996 C 28.122974 99.749374 27.872782 99.828011 27.620001 99.809998 Z M 26.790001 106.349998 L 26.790001 100.720001 L 28.440001 100.720001 L 28.440001 106.349998 Z" fill="#232F3E"/><path d=" M 32.799999 105.709999 C 32.488068 106.047455 32.049538 106.239540 31.590000 106.239998 C 31.014963 106.256142 30.471647 105.976936 30.150000 105.500000 C 29.773474 104.903000 29.588535 104.205116 29.619999 103.500000 C 29.577820 102.757782 29.766455 102.020706 30.160000 101.389999 C 30.479706 100.896965 31.032562 100.605385 31.619999 100.620003 C 31.865681 100.628410 32.107151 100.686226 32.329998 100.790001 C 32.567303 100.897537 32.781311 101.050400 32.959999 101.239998 L 33.080002 100.760002 L 34.430000 100.760002 L 34.430000 106.000000 C 34.430000 107.860001 33.570000 108.790001 31.860001 108.790001 C 31.208929 108.783676 30.569685 108.615273 30.000000 108.300003 L 30.000000 107.300003 C 30.518953 107.498726 31.065292 107.616760 31.620001 107.650002 C 31.857204 107.664261 32.094250 107.619606 32.310001 107.520004 C 32.483841 107.429672 32.611088 107.269707 32.660000 107.080002 C 32.754848 106.755661 32.792080 106.417206 32.770000 106.080002 Z M 32.139999 105.110001 C 32.376286 105.100060 32.605007 105.023819 32.799999 104.889999 L 32.799999 102.000000 C 32.589333 101.838676 32.334938 101.744583 32.070000 101.730003 C 31.799845 101.724297 31.557106 101.894211 31.469999 102.150002 C 31.314035 102.564812 31.245930 103.007492 31.269999 103.450005 C 31.245819 103.886879 31.317493 104.323753 31.479998 104.730003 C 31.605816 104.975739 31.864313 105.124565 32.139999 105.110001 Z" fill="#232F3E"/><path d=" M 39.000000 106.349998 L 39.000000 102.650002 C 39.019314 102.407036 38.967175 102.163719 38.849998 101.950005 C 38.738670 101.793205 38.551147 101.709015 38.359997 101.730003 C 38.067966 101.739677 37.784248 101.829636 37.539997 101.990005 L 37.540001 106.349998 L 35.849998 106.349998 L 35.849998 100.720001 L 37.200001 100.720001 L 37.330002 101.230003 C 37.868034 100.833672 38.512306 100.607300 39.180000 100.580002 C 39.578468 100.553772 39.967636 100.707970 40.240002 101.000000 C 40.509731 101.347038 40.641525 101.781601 40.610001 102.220001 L 40.610001 106.349998 Z" fill="#232F3E"/><path d=" M 41.700001 104.120003 L 41.700001 102.889999 L 44.889999 102.889999 L 44.889999 104.120003 Z" fill="#232F3E"/><path d=" M 45.900002 102.529999 C 45.831627 101.479309 46.144032 100.439148 46.780003 99.599998 C 48.110264 98.235855 50.294510 98.208389 51.658653 99.538651 C 51.679359 99.558846 51.699810 99.579292 51.720001 99.599998 C 52.351173 100.441574 52.663033 101.479919 52.600002 102.529999 C 52.661942 103.583038 52.350315 104.624161 51.720001 105.470001 C 50.389740 106.834145 48.205494 106.861610 46.841351 105.531349 C 46.820644 105.511154 46.800194 105.490707 46.780003 105.470001 C 46.145748 104.626152 45.833679 103.583549 45.900002 102.529999 Z M 47.630001 102.529999 C 47.595844 103.220573 47.736881 103.908569 48.040001 104.529999 C 48.274734 104.977013 48.745472 105.249344 49.250000 105.229996 C 49.751591 105.247879 50.218670 104.975418 50.450001 104.529999 C 50.757362 103.910019 50.898632 103.220909 50.860001 102.529999 C 50.908089 101.820229 50.770218 101.110191 50.459999 100.470001 C 50.218796 100.032837 49.748531 99.772438 49.250000 99.800003 C 48.749058 99.773369 48.276318 100.032990 48.029999 100.470001 C 47.724926 101.111900 47.587318 101.820580 47.629997 102.529999 Z" fill="#232F3E"/><path d=" M 57.000000 106.349998 L 57.000000 102.650002 C 57.019314 102.407036 56.967175 102.163719 56.849998 101.950005 C 56.738670 101.793205 56.551147 101.709015 56.359997 101.730003 C 56.067966 101.739677 55.784248 101.829636 55.539997 101.990005 L 55.540001 106.349998 L 53.910000 106.349998 L 53.910000 100.720001 L 55.259998 100.720001 L 55.389999 101.230003 C 55.925240 100.835541 56.565750 100.609268 57.230000 100.580002 C 57.631653 100.552147 58.024540 100.706367 58.299999 101.000000 C 58.569729 101.347038 58.701523 101.781601 58.669998 102.220001 L 58.669998 106.349998 Z" fill="#232F3E"/></g><g id="ICONS_-_EDIT"><path d=" M 31.790001 49.709999 L 24.850000 49.709999 C 19.610001 49.709999 15.300000 45.889999 15.020000 41.040001 C 15.020000 40.830002 15.020000 40.619999 15.020000 40.400002 C 14.882917 36.306473 17.591263 32.660786 21.550001 31.610001 C 21.549999 31.379999 21.549999 31.150000 21.549999 30.910000 C 21.703136 25.868069 24.759115 21.369856 29.389999 19.369999 C 34.405746 17.249710 40.203960 18.345499 44.099998 22.150000 C 45.351658 23.351973 46.368942 24.776171 47.099998 26.350000 C 48.164104 25.532789 49.468300 25.089855 50.809998 25.090000 C 53.610001 25.090000 56.549999 27.040001 57.110001 31.370001 C 62.209999 32.590000 65.000000 35.799999 65.000000 40.459999 C 65.000000 45.459999 62.270000 48.770000 57.500000 49.549999 L 57.180000 47.549999 C 59.830002 47.119999 63.000000 45.549999 63.000000 40.439999 C 63.000000 36.509998 60.650002 34.060001 56.000000 33.160000 C 55.551666 33.074150 55.218372 32.695595 55.189999 32.240002 C 54.959999 28.420000 52.689999 27.070000 50.820000 27.070000 C 49.540760 27.074606 48.336235 27.673174 47.560001 28.690001 C 47.338867 28.977898 46.979080 29.123343 46.620003 29.070000 C 46.259777 29.016436 45.957150 28.771271 45.830002 28.430000 C 45.179256 26.593714 44.111240 24.933496 42.710003 23.580000 C 39.367924 20.307850 34.386585 19.365221 30.080004 21.190001 C 26.225447 22.909502 23.676632 26.662998 23.500004 30.880001 C 23.501431 31.314520 23.528143 31.748587 23.580004 32.180000 C 23.584921 32.219849 23.584921 32.260151 23.580004 32.299999 L 23.580000 32.299999 C 23.585638 32.798641 23.223038 33.225231 22.730000 33.299999 C 20.540001 33.849998 16.980000 35.509998 16.980000 40.360001 C 16.980000 40.540001 16.980000 40.720001 16.980000 40.889999 C 17.200001 44.680000 20.639999 47.660000 24.809999 47.669998 L 31.750000 47.669998 Z" fill="#FFFFFF"/><path d=" M 64.000000 65.709999 L 61.060001 65.709999 C 60.797661 65.708893 60.546261 65.604744 60.360001 65.419998 L 58.590000 63.709999 L 54.000000 63.709999 C 53.447716 63.709999 53.000000 63.262283 53.000000 62.709999 L 53.000000 60.119999 L 51.590000 58.709999 L 49.000000 58.709999 C 48.447716 58.709999 48.000000 58.262283 48.000000 57.709999 L 48.000000 55.000000 L 47.619999 54.389999 C 46.512676 54.785454 45.345818 54.988388 44.169998 54.989998 C 38.558788 54.997089 34.004257 50.454060 33.997162 44.842850 C 33.992767 41.365635 35.766949 38.127686 38.699997 36.259998 C 38.959999 36.090000 39.250000 35.930000 39.529999 35.779999 C 39.810001 35.630001 40.160000 35.480000 40.470001 35.349998 C 40.967693 35.163502 41.479267 35.016380 42.000000 34.910000 C 42.266548 34.847370 42.537239 34.803925 42.810001 34.779999 L 43.060001 34.779999 L 43.380001 34.779999 L 43.529999 34.779999 C 43.738258 34.744694 43.948818 34.724640 44.160000 34.719997 C 49.748920 34.725266 54.290642 39.231289 54.340000 44.819996 C 54.372303 46.022186 54.164940 47.218777 53.730000 48.339996 L 64.730003 59.340000 C 64.894241 59.521767 64.989754 59.755238 65.000000 60.000000 L 65.000000 64.690002 C 65.011047 65.242180 64.572372 65.698753 64.020203 65.709801 C 64.013474 65.709938 64.006737 65.709999 64.000000 65.709999 Z M 61.470001 63.709999 L 63.000000 63.709999 L 63.000000 60.439999 L 51.830002 49.270000 C 51.546989 48.986549 51.460419 48.561573 51.610001 48.189999 L 51.610001 48.189999 C 52.119896 47.148861 52.367096 45.998699 52.330002 44.840000 C 52.324493 40.330116 48.669884 36.675510 44.160004 36.670002 C 44.040226 36.659649 43.919781 36.659649 43.800003 36.670002 L 43.570000 36.669998 L 43.459999 36.669998 L 43.259998 36.669998 L 43.040001 36.669998 C 42.834766 36.685295 42.630905 36.715370 42.430000 36.759998 C 42.005318 36.845875 41.587528 36.962856 41.180000 37.109997 C 40.980000 37.200001 40.700001 37.320000 40.430000 37.459999 C 40.200283 37.578712 39.976669 37.708874 39.760002 37.849998 C 35.945553 40.249962 34.798885 45.287735 37.198849 49.102184 C 39.394695 52.592216 43.849110 53.895702 47.580002 52.139999 C 48.036091 51.925732 48.580360 52.084297 48.850002 52.509998 L 49.849998 54.070000 C 49.950447 54.232021 50.002491 54.419380 50.000000 54.610001 L 50.000000 56.610001 L 52.000000 56.610001 C 52.265804 56.608463 52.521282 56.712814 52.709999 56.900002 L 54.709999 58.900002 C 54.897186 59.088722 55.001537 59.344200 55.000000 59.610001 L 55.000000 61.610001 L 59.000000 61.610001 C 59.260929 61.608433 59.512135 61.708916 59.700001 61.889999 Z M 42.470001 46.849998 L 42.470001 46.849998 C 40.421078 46.835323 38.771992 45.162449 38.786667 43.113522 C 38.793602 42.145279 39.178795 41.218113 39.860001 40.529995 C 41.306911 39.092270 43.643089 39.092270 45.090000 40.529995 C 45.796898 41.213825 46.194183 42.156475 46.189999 43.139996 C 46.173683 45.182175 44.522179 46.833679 42.480000 46.849995 Z M 42.470001 41.450001 C 42.023582 41.446674 41.594643 41.623295 41.280003 41.940002 C 40.960938 42.257965 40.781105 42.689556 40.780003 43.140003 C 40.768795 44.073296 41.516293 44.838966 42.449585 44.850174 C 42.912270 44.855732 43.356998 44.671329 43.680000 44.340000 L 43.680000 44.340000 C 43.999065 44.022038 44.178898 43.590446 44.180000 43.139999 C 44.179562 42.692352 43.999424 42.263622 43.680000 41.950001 C 43.349136 41.625786 42.903217 41.445980 42.439999 41.450001 Z" fill="#FFFFFF"/></g></svg>