<svg version="1.1" width="80.000000" height="100.000000" viewBox="0.000000 0.000000 80.000000 100.000000" xmlns="http://www.w3.org/2000/svg" xmlns:xlink="http://www.w3.org/1999/xlink" overflow="hidden"><g id="CARDS"><rect x="1.000000" y="1.000000" width="78.000000" height="78.000000" fill="#232F3E"/><path d=" M 0.000000 0.000000 L 0.000000 80.000000 L 0.000000 80.000000 L 0.000000 100.000000 L 80.000000 100.000000 L 80.000000 80.000000 L 80.000000 80.000000 L 80.000000 0.000000 Z M 1.000000 1.000000 L 79.000000 1.000000 L 79.000000 79.000000 L 1.000000 79.000000 Z" fill="#FFFFFF"/></g><g id="TEXT_-_EDIT"><path d=" M 21.870001 92.349998 L 21.440001 90.529999 L 19.440001 90.529999 L 19.000000 92.349998 L 17.250000 92.349998 L 19.559999 84.720001 L 21.430000 84.720001 L 23.730000 92.349998 Z M 19.690001 89.430000 L 21.190001 89.430000 L 20.430000 86.269997 Z" fill="#232F3E"/><path d=" M 29.080000 92.349998 L 28.139999 86.720001 L 27.250000 92.349998 L 25.379999 92.349998 L 23.600000 84.720001 L 25.299999 84.720001 L 26.360001 90.779999 L 27.270000 85.000000 L 29.100000 85.000000 L 30.000000 90.680000 L 31.000000 84.680000 L 32.660000 84.680000 L 31.000000 92.349998 Z" fill="#232F3E"/><path d=" M 35.000000 89.000000 C 34.504528 88.765594 34.067329 88.424026 33.720001 88.000000 C 33.461235 87.643089 33.327644 87.210678 33.340000 86.769997 C 33.328892 86.354126 33.447739 85.945145 33.680000 85.599998 C 33.905701 85.259720 34.225288 84.992241 34.599998 84.830002 C 35.039787 84.633842 35.518803 84.541458 36.000000 84.560005 C 36.649681 84.562897 37.292240 84.695488 37.889999 84.950005 L 37.889999 86.120003 C 37.338253 85.917831 36.757393 85.806381 36.169998 85.790001 C 35.885242 85.776161 35.603924 85.857040 35.369999 86.020004 C 35.179695 86.176292 35.075623 86.414169 35.090000 86.660004 C 35.082314 86.862022 35.146042 87.060295 35.270000 87.220001 C 35.475857 87.426086 35.720589 87.589241 35.990002 87.700005 L 36.639999 88.019997 C 36.997837 88.184235 37.333771 88.392517 37.639999 88.639999 C 37.875206 88.823380 38.063675 89.059822 38.189999 89.330002 C 38.309372 89.621704 38.367249 89.934906 38.359997 90.250000 C 38.390259 90.886475 38.115425 91.499283 37.619995 91.900002 C 37.043335 92.327324 36.336979 92.542763 35.619995 92.510002 C 35.236862 92.509674 34.854801 92.469460 34.479996 92.389999 C 34.151325 92.322983 33.832226 92.215500 33.529995 92.070000 L 33.529999 90.919998 C 33.857494 91.025146 34.191547 91.108665 34.529999 91.169998 C 34.859119 91.238113 35.193943 91.274940 35.529999 91.279999 C 35.809605 91.269348 36.078861 91.171432 36.299999 91.000000 C 36.506393 90.823906 36.617592 90.560738 36.599998 90.290001 C 36.606087 90.077034 36.531021 89.869705 36.389999 89.709999 C 36.182323 89.513412 35.942089 89.354385 35.680000 89.239998 Z" fill="#232F3E"/><path d=" M 46.919998 92.349998 L 46.000000 86.720001 L 45.110001 92.349998 L 43.220001 92.349998 L 41.439999 84.720001 L 43.139999 84.720001 L 44.200001 90.779999 L 45.110001 85.000000 L 47.000000 85.000000 L 47.939999 90.650002 L 48.939999 84.650002 L 50.599998 84.650002 L 48.820000 92.279999 Z" fill="#232F3E"/><path d=" M 55.070000 92.349998 L 54.630001 90.529999 L 52.630001 90.529999 L 52.209999 92.349998 L 50.439999 92.349998 L 52.750000 84.720001 L 54.619999 84.720001 L 56.919998 92.349998 Z M 52.889999 89.430000 L 54.380001 89.430000 L 53.619999 86.269997 Z" fill="#232F3E"/><path d=" M 57.810001 92.349998 L 57.810001 84.720001 L 62.160000 84.720001 L 62.160000 85.900002 L 59.500000 85.900002 L 59.500000 88.000000 L 61.580002 88.000000 L 61.580002 89.169998 L 59.500000 89.169998 L 59.500000 92.389999 Z" fill="#232F3E"/></g><g id="ICONS_-_EDIT"><rect x="57.020000" y="49.570000" width="2.000000" height="16.910000" fill="#FFFFFF" transform="matrix(0.707107,-0.707107,0.707107,0.707107,-24.030000,58.020000)"/><rect x="21.630000" y="13.260000" width="2.000000" height="18.740000" fill="#FFFFFF" transform="matrix(0.707107,-0.707107,0.707107,0.707107,-9.370000,22.630000)"/><rect x="17.550000" y="56.530000" width="9.900000" height="2.000000" fill="#FFFFFF" transform="matrix(0.707107,-0.707107,0.707107,0.707107,-34.090000,32.760000)"/><rect x="52.550000" y="21.530000" width="9.900000" height="2.000000" fill="#FFFFFF" transform="matrix(0.707107,-0.707107,0.707107,0.707107,0.910000,47.260000)"/><rect x="15.000000" y="39.000000" width="6.000000" height="2.000000" fill="#FFFFFF"/><rect x="59.000000" y="39.000000" width="6.000000" height="2.000000" fill="#FFFFFF"/><rect x="39.000000" y="59.000000" width="2.000000" height="6.000000" fill="#FFFFFF"/><rect x="39.000000" y="15.000000" width="2.000000" height="6.000000" fill="#FFFFFF"/><path d=" M 58.650002 53.500000 L 57.000000 52.330002 C 62.300690 44.990311 62.300690 35.079693 57.000000 27.740002 L 58.619999 26.570000 C 64.424599 34.608307 64.424599 45.461693 58.619999 53.500000 Z" fill="#FFFFFF"/><path d=" M 52.290001 23.000000 C 44.952435 17.704123 35.047569 17.704123 27.710001 23.000000 L 26.530001 21.379999 C 34.570431 15.570581 45.429569 15.570581 53.470001 21.379999 Z" fill="#FFFFFF"/><path d=" M 40.000000 63.000000 C 35.162422 63.014400 30.445423 61.491096 26.530001 58.650002 L 27.709999 57.029999 C 35.047565 62.325878 44.952431 62.325878 52.290001 57.029999 L 53.470001 58.650002 C 49.554577 61.491096 44.837578 63.014404 40.000000 63.000000 Z" fill="#FFFFFF"/><path d=" M 21.350000 53.500000 C 15.545399 45.461693 15.545399 34.608307 21.350000 26.570000 L 23.000000 27.740000 C 17.699308 35.079693 17.699308 44.990307 23.000000 52.329998 Z" fill="#FFFFFF"/><path d=" M 39.349998 55.000000 C 39.234043 54.999863 39.118996 54.979561 39.009998 54.939999 C 36.780788 54.171196 34.662567 53.112087 32.709999 51.789997 C 28.859936 49.084061 27.658562 43.916859 29.919998 39.789997 C 30.020000 39.630001 30.110001 39.459999 30.219999 39.299999 C 31.860001 36.720001 30.709999 32.299999 30.129999 30.780001 C 29.931173 30.264746 30.187691 29.685871 30.702946 29.487045 C 30.816872 29.443085 30.937887 29.420361 31.059999 29.420000 C 33.230000 29.420000 35.060001 31.260000 36.240002 32.779999 C 36.895103 29.882631 35.997574 26.852999 33.870003 24.779999 C 33.426384 24.451029 33.333443 23.824722 33.662411 23.381104 C 33.896980 23.064785 34.295353 22.915588 34.680000 22.999998 C 37.860012 23.427958 40.611191 25.427448 42.000000 28.319998 C 43.689999 31.840000 43.360001 36.560001 41.139999 40.650002 C 37.810001 46.759998 40.290001 53.580002 40.310001 53.650002 C 40.446499 54.013050 40.360756 54.422283 40.090000 54.700001 C 39.895691 54.898415 39.627625 55.007092 39.349998 55.000000 Z M 32.570000 31.910000 C 33.099998 34.090000 33.570000 37.689999 31.900000 40.330002 L 31.660000 40.740002 C 29.879482 43.975632 30.823771 48.033051 33.849998 50.150002 C 35.104679 51.012516 36.445129 51.743061 37.849998 52.330002 C 36.840736 48.075085 37.372200 43.600163 39.349998 39.700001 C 41.270000 36.160000 41.590000 32.130001 40.169998 29.190001 C 39.549736 27.853640 38.533916 26.740078 37.259998 26.000000 C 38.702297 28.969072 38.818581 32.410339 37.579998 35.470001 C 37.399857 35.992081 36.830593 36.269276 36.308514 36.089134 C 36.068211 36.006218 35.868504 35.834896 35.750000 35.610004 C 34.959080 34.168781 33.875973 32.908562 32.570000 31.910004 Z" fill="#FFFFFF"/><path d=" M 39.410000 55.000000 L 39.250000 53.000000 C 39.340000 53.000000 48.250000 52.209999 49.849998 46.000000 C 51.180000 40.840000 50.180000 38.000000 49.220001 36.639999 C 48.888500 38.428185 48.011723 40.069958 46.710003 41.340000 C 46.282894 41.690140 45.652813 41.627747 45.302673 41.200638 C 45.119377 40.977051 45.041821 40.685074 45.090004 40.399998 C 46.740002 30.129999 38.650002 26.860001 38.299999 26.730000 L 39.000000 24.860001 C 43.621384 26.894732 46.778484 31.272577 47.250000 36.299999 C 47.392971 35.707024 47.499836 35.105919 47.570000 34.500000 C 47.602074 34.164116 47.801369 33.867054 48.099998 33.709999 C 48.393803 33.553555 48.746193 33.553555 49.039997 33.709999 C 49.259998 33.830002 54.310001 36.709999 51.790001 46.490002 C 49.830002 54.099998 39.830002 55.000000 39.410000 55.000000 Z" fill="#FFFFFF"/></g></svg>