<svg id="Layer_1" data-name="Layer 1" xmlns="http://www.w3.org/2000/svg" width="50" height="50" viewBox="0 0 50 50"><title>Amazon-CloudWatch_Event-Event-Based_light-bg</title><path d="M14.69,44.75H5.31a1,1,0,0,1-1-1V23.12a1,1,0,0,1,1-1h9.38a1,1,0,0,1,1,1V43.75A1,1,0,0,1,14.69,44.75Zm-8.38-2h7.38V24.12H6.31Z" style="fill:#cd2264"/><path d="M29.69,44.75H20.31a1,1,0,0,1-1-1V27.81a1,1,0,0,1,1-1h9.38a1,1,0,0,1,1,1V43.75A1,1,0,0,1,29.69,44.75Zm-8.38-2h7.38V28.81H21.31Z" style="fill:#cd2264"/><rect x="1.56" y="46.5" width="46.87" height="2" style="fill:#cd2264"/><path d="M45.15,16.62H34.85a2.41,2.41,0,0,1-2.41-2.41V3.92A2.41,2.41,0,0,1,34.85,1.5h10.3a2.41,2.41,0,0,1,2.41,2.42V14.21A2.41,2.41,0,0,1,45.15,16.62ZM34.85,3.5a.41.41,0,0,0-.41.42V14.21a.41.41,0,0,0,.41.41h10.3a.41.41,0,0,0,.41-.41V3.92a.42.42,0,0,0-.41-.42Z" style="fill:#cd2264"/><path d="M44.69,44.75H35.31a1,1,0,0,1-1-1V19.38a1,1,0,0,1,1-1h9.38a1,1,0,0,1,1,1V43.75A1,1,0,0,1,44.69,44.75Zm-8.38-2h7.38V20.38H36.31Z" style="fill:#cd2264"/></svg>