<svg id="Layer_1" data-name="Layer 1" xmlns="http://www.w3.org/2000/svg" width="50" height="50" viewBox="0 0 50 50"><title>Amazon-CloudWatch_Rule_light-bg</title><path d="M16.17,18.05l-2.86-2.82-11.82,0L1.58,2H14.14L17,4.77H48.5V18ZM3.5,13.21l10.63,0L17,16.05,46.51,16V6.77H16.16L13.32,4H3.57Z" style="fill:#cd2264"/><path d="M16.16,33l-2.85-2.81H1.49V17H14.2L17,19.79H48.49V33ZM3.49,28.22H14.14L17,31H46.5V21.8H16.13L13.36,19H3.49Z" style="fill:#cd2264"/><path d="M48.5,48,16.19,48l-2.85-2.77H1.49V32H14.07L17,34.78H48.5ZM17,46,46.5,46V36.78H16.17L13.25,34H3.49v9.27H14.15Z" style="fill:#cd2264"/><polygon points="37.14 29.68 34.6 27.13 36.02 25.72 37.26 26.97 42.17 22.86 43.45 24.39 37.14 29.68" style="fill:#cd2264"/><polygon points="36.89 44.62 34.35 42.08 35.76 40.67 37.01 41.91 41.92 37.81 43.2 39.34 36.89 44.62" style="fill:#cd2264"/><rect x="38.98" y="7.46" width="2" height="7.91" transform="translate(3.6 31.55) rotate(-44.9)" style="fill:#cd2264"/><rect x="36.01" y="10.41" width="7.91" height="2" transform="translate(3.64 31.61) rotate(-45)" style="fill:#cd2264"/></svg>