<svg id="Layer_1" data-name="Layer 1" xmlns="http://www.w3.org/2000/svg" width="50" height="50" viewBox="0 0 50 50"><title>Amazon-CloudWatch_Event-Time-Based_light-bg</title><path d="M14.69,44.75H5.31a1,1,0,0,1-1-1V23.12a1,1,0,0,1,1-1h9.38a1,1,0,0,1,1,1V43.75A1,1,0,0,1,14.69,44.75Zm-8.38-2h7.38V24.12H6.31Z" style="fill:#cd2264"/><path d="M29.69,44.75H20.31a1,1,0,0,1-1-1V27.81a1,1,0,0,1,1-1h9.38a1,1,0,0,1,1,1V43.75A1,1,0,0,1,29.69,44.75Zm-8.38-2h7.38V28.81H21.31Z" style="fill:#cd2264"/><rect x="1.56" y="46.5" width="46.87" height="2" style="fill:#cd2264"/><path d="M44.69,44.75H35.31a1,1,0,0,1-1-1V20.31a1,1,0,0,1,1.41-.91,10.55,10.55,0,0,0,8.56,0,1,1,0,0,1,1.41.91V43.75A1,1,0,0,1,44.69,44.75Zm-8.38-2h7.38v-21a12.71,12.71,0,0,1-7.38,0Z" style="fill:#cd2264"/><path d="M40,18.5A8.5,8.5,0,1,1,48.5,10,8.51,8.51,0,0,1,40,18.5Zm0-15A6.5,6.5,0,1,0,46.5,10,6.51,6.51,0,0,0,40,3.5Z" style="fill:#cd2264"/><polygon points="41 11.92 35.33 11.92 35.33 9.92 39 9.92 39 5.31 41 5.31 41 11.92" style="fill:#cd2264"/></svg>