<svg id="Layer_1" data-name="Layer 1" xmlns="http://www.w3.org/2000/svg" width="50" height="50" viewBox="0 0 50 50"><title>AWS-Systems-Manager_Documents_light-bg</title><path d="M43.28,48.5H18a1,1,0,0,1-1-1V10a1,1,0,0,1,1-1H33.91a1,1,0,0,1,.7.29L44,18.67a1,1,0,0,1,.29.71V47.5A1,1,0,0,1,43.28,48.5ZM19,46.5H42.28V19.79L33.49,11H19Z" style="fill:#cd2264"/><path d="M15.16,44.75H12.34a1,1,0,0,1-1-1V6.25a1,1,0,0,1,1-1H29.22v2H13.34v35.5h1.82Z" style="fill:#cd2264"/><path d="M8.59,41H6.72a1,1,0,0,1-1-1V2.5a1,1,0,0,1,1-1H24.53v2H7.72V39h.87Z" style="fill:#cd2264"/><path d="M43.28,20.38H33.91a1,1,0,0,1-1-1V10h2v8.38h8.37Z" style="fill:#cd2264"/><rect x="20.78" y="17.44" width="8.44" height="2" style="fill:#cd2264"/><rect x="20.78" y="24" width="19.69" height="2" style="fill:#cd2264"/><rect x="20.78" y="30.56" width="15.94" height="2" style="fill:#cd2264"/></svg>