<svg id="Layer_1" data-name="Layer 1" xmlns="http://www.w3.org/2000/svg" width="50" height="50" viewBox="0 0 50 50"><title>AWS-CloudFormation_Stack_light-bg</title><path d="M48.5,16.16H1.5V2h47Zm-45-2h43V4H3.5Z" style="fill:#cd2264"/><path d="M24.12,32.09H1.5V17.91H24.12Zm-20.62-2H22.12V19.91H3.5Z" style="fill:#cd2264"/><path d="M15.69,48H1.5V33.84H15.69ZM3.5,46H13.69V35.84H3.5Z" style="fill:#cd2264"/><path d="M32.56,48H17.44V33.84H32.56ZM19.44,46H30.56V35.84H19.44Z" style="fill:#cd2264"/><path d="M48.5,48H34.31V33.84H48.5ZM36.31,46H46.5V35.84H36.31Z" style="fill:#cd2264"/><path d="M48.5,32.09H25.87V17.91H48.5Zm-20.63-2H46.5V19.91H27.87Z" style="fill:#cd2264"/></svg>