<svg id="Product_Icon" data-name="Product Icon" xmlns="http://www.w3.org/2000/svg" xmlns:xlink="http://www.w3.org/1999/xlink" width="75" height="75" viewBox="0 0 75 75"><defs><linearGradient id="PinkGradient" x1="37.49" y1="-37.49" x2="37.49" y2="112.51" gradientTransform="translate(37.49 90.53) rotate(-135)" gradientUnits="userSpaceOnUse"><stop offset="0" stop-color="#b0084d"/><stop offset="1" stop-color="#ff4f8b"/></linearGradient></defs><title>AWS-Control-Tower</title><rect id="Pink_Gradient" data-name="Pink Gradient" width="75" height="75" style="fill:url(#PinkGradient)"/><g id="Icon_Test" data-name="Icon Test"><path d="M37.5,21.62l-4.42-4.43,4.42-4.42,4.42,4.42Zm-1.59-4.43,1.59,1.6,1.59-1.6L37.5,15.6Z" style="fill:#fff"/><path d="M57.81,41.92,53.38,37.5l4.43-4.42,4.42,4.42Zm-1.6-4.42,1.6,1.59L59.4,37.5l-1.59-1.59Z" style="fill:#fff"/><path d="M17.19,41.92,12.77,37.5l4.42-4.42,4.43,4.42ZM15.6,37.5l1.59,1.59,1.6-1.59-1.6-1.59Z" style="fill:#fff"/><path d="M37.5,62.23l-4.42-4.42,4.42-4.43,4.42,4.43Zm-1.59-4.42L37.5,59.4l1.59-1.59-1.59-1.6Z" style="fill:#fff"/><rect x="24.71" y="36.5" width="25.57" height="2" style="fill:#fff"/><rect x="36.5" y="24.72" width="2" height="25.57" style="fill:#fff"/><polygon points="27.39 41.59 23.3 37.5 27.39 33.41 28.81 34.82 26.13 37.5 28.81 40.18 27.39 41.59" style="fill:#fff"/><polygon points="40.18 28.81 37.5 26.13 34.82 28.81 33.41 27.39 37.5 23.3 41.59 27.39 40.18 28.81" style="fill:#fff"/><polygon points="37.5 51.7 33.41 47.61 34.82 46.19 37.5 48.87 40.18 46.19 41.59 47.61 37.5 51.7" style="fill:#fff"/><polygon points="47.61 41.59 46.19 40.18 48.87 37.5 46.19 34.82 47.61 33.41 51.7 37.5 47.61 41.59" style="fill:#fff"/><path d="M37.5,44.08a6.59,6.59,0,1,1,4.65-1.93A6.52,6.52,0,0,1,37.5,44.08Zm0-11.16a4.58,4.58,0,0,0-4.58,4.58,4.53,4.53,0,0,0,1.34,3.24,4.58,4.58,0,0,0,6.48,0,4.59,4.59,0,0,0,0-6.48A4.58,4.58,0,0,0,37.5,32.92Z" style="fill:#fff"/><path d="M21.18,35.2l-1.41-1.42L22.6,31,24,32.37Zm5.66-5.66-1.41-1.41,2.82-2.83,1.42,1.41Zm5.66-5.65-1.42-1.42,2.42-2.41,1.41,1.41Z" style="fill:#fff"/><path d="M41.59,55.13l-1.41-1.42L43,50.89l1.41,1.41Zm5.66-5.66-1.42-1.41,2.83-2.83,1.42,1.41Zm5.65-5.66L51.49,42.4,53.91,40l1.41,1.41Z" style="fill:#fff"/><path d="M53.91,34.44l-2.83-2.82,1.41-1.42L55.32,33Zm-5.66-5.65L45.42,26l1.41-1.42,2.83,2.83Zm-5.66-5.66-2.41-2.41,1.41-1.42L44,21.72Z" style="fill:#fff"/><path d="M33.5,55.41l-2.83-2.83,1.41-1.42L34.91,54Zm-5.66-5.66L25,46.92l1.42-1.41,2.82,2.82Zm-5.66-5.66-2.41-2.41,1.41-1.42,2.42,2.42Z" style="fill:#fff"/></g></svg>