<svg id="Layer_1" data-name="Layer 1" xmlns="http://www.w3.org/2000/svg" width="50" height="50" viewBox="0 0 50 50"><title>AWS-Systems-Manager_Inventory_light-bg</title><path d="M48.5,48.5H1.5V14.78L25,1.35,48.5,14.78Zm-45-2h43V15.94L25,3.65,3.5,15.94Z" style="fill:#cd2264"/><path d="M42.87,44.75H7.12V16.5H42.87Zm-33.75-2H40.87V18.5H9.12Z" style="fill:#cd2264"/><path d="M16.62,26H10.87V20.25h5.75Zm-3.75-2h1.75V22.25H12.87Z" style="fill:#cd2264"/><path d="M24.12,26H18.37V20.25h5.75Zm-3.75-2h1.75V22.25H20.37Z" style="fill:#cd2264"/><path d="M16.62,33.5H10.87V27.75h5.75Zm-3.75-2h1.75V29.75H12.87Z" style="fill:#cd2264"/><path d="M24.12,33.5H18.37V27.75h5.75Zm-3.75-2h1.75V29.75H20.37Z" style="fill:#cd2264"/><path d="M31.62,33.5H25.87V27.75h5.75Zm-3.75-2h1.75V29.75H27.87Z" style="fill:#cd2264"/><path d="M16.62,41H10.87V35.25h5.75Zm-3.75-2h1.75V37.25H12.87Z" style="fill:#cd2264"/><path d="M24.12,41H18.37V35.25h5.75Zm-3.75-2h1.75V37.25H20.37Z" style="fill:#cd2264"/><path d="M31.62,41H25.87V35.25h5.75Zm-3.75-2h1.75V37.25H27.87Z" style="fill:#cd2264"/><path d="M39.12,41H33.37V35.25h5.75Zm-3.75-2h1.75V37.25H35.37Z" style="fill:#cd2264"/></svg>