<svg id="Layer_1" data-name="Layer 1" xmlns="http://www.w3.org/2000/svg" width="50" height="50" viewBox="0 0 50 50"><title>AWS-OpsWorks_Instances_light-bg</title><path d="M13.75,14.75H2.5a1,1,0,0,1-1-1V2.5a1,1,0,0,1,1-1H13.75a1,1,0,0,1,1,1V13.75A1,1,0,0,1,13.75,14.75Zm-10.25-2h9.25V3.5H3.5Z" style="fill:#cd2264"/><path d="M47.5,14.75H36.25a1,1,0,0,1-1-1V2.5a1,1,0,0,1,1-1H47.5a1,1,0,0,1,1,1V13.75A1,1,0,0,1,47.5,14.75Zm-10.25-2H46.5V3.5H37.25Z" style="fill:#cd2264"/><path d="M30.62,14.75H19.37a1,1,0,0,1-1-1V2.5a1,1,0,0,1,1-1H30.62a1,1,0,0,1,1,1V13.75A1,1,0,0,1,30.62,14.75Zm-10.25-2h9.25V3.5H20.37Z" style="fill:#cd2264"/><path d="M13.75,31.62H2.5a1,1,0,0,1-1-1V19.38a1,1,0,0,1,1-1H13.75a1,1,0,0,1,1,1V30.62A1,1,0,0,1,13.75,31.62Zm-10.25-2h9.25V20.38H3.5Z" style="fill:#cd2264"/><path d="M47.5,31.62H36.25a1,1,0,0,1-1-1V19.38a1,1,0,0,1,1-1H47.5a1,1,0,0,1,1,1V30.62A1,1,0,0,1,47.5,31.62Zm-10.25-2H46.5V20.38H37.25Z" style="fill:#cd2264"/><path d="M30.62,31.62H19.37a1,1,0,0,1-1-1V19.38a1,1,0,0,1,1-1H30.62a1,1,0,0,1,1,1V30.62A1,1,0,0,1,30.62,31.62Zm-10.25-2h9.25V20.38H20.37Z" style="fill:#cd2264"/><path d="M13.75,48.5H2.5a1,1,0,0,1-1-1V36.25a1,1,0,0,1,1-1H13.75a1,1,0,0,1,1,1V47.5A1,1,0,0,1,13.75,48.5ZM3.5,46.5h9.25V37.25H3.5Z" style="fill:#cd2264"/><path d="M47.5,48.5H36.25a1,1,0,0,1-1-1V36.25a1,1,0,0,1,1-1H47.5a1,1,0,0,1,1,1V47.5A1,1,0,0,1,47.5,48.5Zm-10.25-2H46.5V37.25H37.25Z" style="fill:#cd2264"/><path d="M30.62,48.5H19.37a1,1,0,0,1-1-1V36.25a1,1,0,0,1,1-1H30.62a1,1,0,0,1,1,1V47.5A1,1,0,0,1,30.62,48.5Zm-10.25-2h9.25V37.25H20.37Z" style="fill:#cd2264"/></svg>