<svg id="Layer_1" data-name="Layer 1" xmlns="http://www.w3.org/2000/svg" width="50" height="50" viewBox="0 0 50 50"><title>Amazon-EC2_X1-Instance_light-bg_1</title><path d="M22.68,30.09l-2.23-3.93-2.19,3.93H15.72l3.46-5.53L16,19.44h2.6l2,3.46,1.95-3.46H25l-3.25,5.09,3.51,5.56Z" style="fill:#d86613"/><path d="M29.5,30.09v-8.4l-2.73.86V20.8l3-1.36h2V30.09Z" style="fill:#d86613"/><path d="M44.31,44.31H5.69V5.69H44.31Zm-36.62-2H42.31V7.69H7.69Z" style="fill:#d86613"/><rect x="11.21" y="1" width="2" height="5.69" style="fill:#d86613"/><rect x="17.48" y="1" width="2" height="5.69" style="fill:#d86613"/><rect x="23.76" y="1" width="2" height="5.69" style="fill:#d86613"/><rect x="30.04" y="1" width="2" height="5.69" style="fill:#d86613"/><rect x="36.32" y="1" width="2" height="5.69" style="fill:#d86613"/><rect x="11.21" y="43.31" width="2" height="5.69" style="fill:#d86613"/><rect x="17.48" y="43.31" width="2" height="5.69" style="fill:#d86613"/><rect x="23.76" y="43.31" width="2" height="5.69" style="fill:#d86613"/><rect x="30.04" y="43.31" width="2" height="5.69" style="fill:#d86613"/><rect x="36.32" y="43.31" width="2" height="5.69" style="fill:#d86613"/><rect x="43.31" y="11.45" width="5.69" height="2" style="fill:#d86613"/><rect x="43.31" y="17.72" width="5.69" height="2" style="fill:#d86613"/><rect x="43.31" y="24" width="5.69" height="2" style="fill:#d86613"/><rect x="43.31" y="30.28" width="5.69" height="2" style="fill:#d86613"/><rect x="43.31" y="36.55" width="5.69" height="2" style="fill:#d86613"/><rect x="1" y="11.45" width="5.69" height="2" style="fill:#d86613"/><rect x="1" y="17.72" width="5.69" height="2" style="fill:#d86613"/><rect x="1" y="24" width="5.69" height="2" style="fill:#d86613"/><rect x="1" y="30.28" width="5.69" height="2" style="fill:#d86613"/><rect x="1" y="36.55" width="5.69" height="2" style="fill:#d86613"/></svg>