<svg id="Layer_1" data-name="Layer 1" xmlns="http://www.w3.org/2000/svg" width="50" height="50" viewBox="0 0 50 50"><title>Amazon-EC2_R4-Instance_light-bg</title><path d="M16.84,30.09V19.44h4.1a3.77,3.77,0,0,1,2.62.88,3,3,0,0,1,1,2.38A2.86,2.86,0,0,1,24,24.36a3.27,3.27,0,0,1-1.42,1.15l2.64,4.58H22.86L20.55,26h-1.5v4.13Zm2.21-5.73h1.6a1.43,1.43,0,0,0,1.61-1.63,1.41,1.41,0,0,0-1.58-1.6H19.05Z" style="fill:#d86613"/><path d="M30.69,30.09V28h-5V26.34l4.82-6.9h2.09v6.82H34V28H32.64v2.11Zm0-3.83V22.18l-2.86,4.08Z" style="fill:#d86613"/><path d="M44.31,44.31H5.69V5.69H44.31Zm-36.62-2H42.31V7.69H7.69Z" style="fill:#d86613"/><rect x="11.21" y="1" width="2" height="5.69" style="fill:#d86613"/><rect x="17.48" y="1" width="2" height="5.69" style="fill:#d86613"/><rect x="23.76" y="1" width="2" height="5.69" style="fill:#d86613"/><rect x="30.04" y="1" width="2" height="5.69" style="fill:#d86613"/><rect x="36.32" y="1" width="2" height="5.69" style="fill:#d86613"/><rect x="11.21" y="43.31" width="2" height="5.69" style="fill:#d86613"/><rect x="17.48" y="43.31" width="2" height="5.69" style="fill:#d86613"/><rect x="23.76" y="43.31" width="2" height="5.69" style="fill:#d86613"/><rect x="30.04" y="43.31" width="2" height="5.69" style="fill:#d86613"/><rect x="36.32" y="43.31" width="2" height="5.69" style="fill:#d86613"/><rect x="43.31" y="11.45" width="5.69" height="2" style="fill:#d86613"/><rect x="43.31" y="17.72" width="5.69" height="2" style="fill:#d86613"/><rect x="43.31" y="24" width="5.69" height="2" style="fill:#d86613"/><rect x="43.31" y="30.28" width="5.69" height="2" style="fill:#d86613"/><rect x="43.31" y="36.55" width="5.69" height="2" style="fill:#d86613"/><rect x="1" y="11.45" width="5.69" height="2" style="fill:#d86613"/><rect x="1" y="17.72" width="5.69" height="2" style="fill:#d86613"/><rect x="1" y="24" width="5.69" height="2" style="fill:#d86613"/><rect x="1" y="30.28" width="5.69" height="2" style="fill:#d86613"/><rect x="1" y="36.55" width="5.69" height="2" style="fill:#d86613"/></svg>