<svg id="Layer_1" data-name="Layer 1" xmlns="http://www.w3.org/2000/svg" width="50" height="50" viewBox="0 0 50 50"><title>Amazon-EC2_High-Memory-Instance_light-bg</title><path d="M18,30.09V25.56H13.8v4.53H11.5V19.44h2.3v4.34H18V19.44h2.31V30.09Z" style="fill:#d86613"/><path d="M31.59,30.09V22.72l-2.35,4.77H27.18l-2.35-4.77v7.37h-2V19.44h2.52l2.91,6.06,2.91-6.06h2.48V30.09Z" style="fill:#d86613"/><path d="M36.14,30.09V19.44h2.3V30.09Z" style="fill:#d86613"/><path d="M44.31,44.31H5.69V5.69H44.31Zm-36.62-2H42.31V7.69H7.69Z" style="fill:#d86613"/><rect x="11.21" y="1" width="2" height="5.69" style="fill:#d86613"/><rect x="17.48" y="1" width="2" height="5.69" style="fill:#d86613"/><rect x="23.76" y="1" width="2" height="5.69" style="fill:#d86613"/><rect x="30.04" y="1" width="2" height="5.69" style="fill:#d86613"/><rect x="36.32" y="1" width="2" height="5.69" style="fill:#d86613"/><rect x="11.21" y="43.31" width="2" height="5.69" style="fill:#d86613"/><rect x="17.48" y="43.31" width="2" height="5.69" style="fill:#d86613"/><rect x="23.76" y="43.31" width="2" height="5.69" style="fill:#d86613"/><rect x="30.04" y="43.31" width="2" height="5.69" style="fill:#d86613"/><rect x="36.32" y="43.31" width="2" height="5.69" style="fill:#d86613"/><rect x="43.31" y="11.45" width="5.69" height="2" style="fill:#d86613"/><rect x="43.31" y="17.72" width="5.69" height="2" style="fill:#d86613"/><rect x="43.31" y="24" width="5.69" height="2" style="fill:#d86613"/><rect x="43.31" y="30.28" width="5.69" height="2" style="fill:#d86613"/><rect x="43.31" y="36.55" width="5.69" height="2" style="fill:#d86613"/><rect x="1" y="11.45" width="5.69" height="2" style="fill:#d86613"/><rect x="1" y="17.72" width="5.69" height="2" style="fill:#d86613"/><rect x="1" y="24" width="5.69" height="2" style="fill:#d86613"/><rect x="1" y="30.28" width="5.69" height="2" style="fill:#d86613"/><rect x="1" y="36.55" width="5.69" height="2" style="fill:#d86613"/></svg>