<svg id="Layer_1" data-name="Layer 1" xmlns="http://www.w3.org/2000/svg" width="50" height="50" viewBox="0 0 50 50"><title>Amazon-VPC_Customer-Gateway_light-bg</title><path d="M25,48.5A23.5,23.5,0,1,1,48.5,25,23.52,23.52,0,0,1,25,48.5Zm0-45A21.5,21.5,0,1,0,46.5,25,21.52,21.52,0,0,0,25,3.5Z" style="fill:#693cc5"/><path d="M29,11.64l-4-4-4,4-1.41-1.41,4.68-4.69a1,1,0,0,1,1.42,0l4.68,4.69Z" style="fill:#693cc5"/><rect x="24" y="7" width="2" height="36" style="fill:#693cc5"/><path d="M25,44.75a1,1,0,0,1-.71-.29l-4.68-4.69L21,38.36l4,4,4-4,1.41,1.41-4.68,4.69A1,1,0,0,1,25,44.75Z" style="fill:#693cc5"/><path d="M39.77,30.39,38.36,29l4-4-4-4,1.41-1.41,4.69,4.68a1,1,0,0,1,0,1.42Z" style="fill:#693cc5"/><rect x="7" y="24" width="36" height="2" style="fill:#693cc5"/><path d="M10.23,30.39,5.54,25.71a1,1,0,0,1,0-1.42l4.69-4.68L11.65,21l-4,4,4,4Z" style="fill:#693cc5"/></svg>