<svg id="Layer_1" data-name="Layer 1" xmlns="http://www.w3.org/2000/svg" width="50" height="50" viewBox="0 0 50 50"><title>Amazon-CloudFront_Download-Distribution_light-bg</title><path d="M25,48.5A23.5,23.5,0,1,1,48.5,25,23.52,23.52,0,0,1,25,48.5Zm0-45A21.5,21.5,0,1,0,46.5,25,21.52,21.52,0,0,0,25,3.5Z" style="fill:#693cc5"/><rect x="24" y="9.06" width="2" height="2" style="fill:#693cc5"/><path d="M26,34.2H24V30.34h2Zm0-5.79H24V24.56h2Zm0-5.78H24V18.77h2Zm0-5.78H24V13h2Z" style="fill:#693cc5"/><rect x="24" y="36.13" width="2" height="2" style="fill:#693cc5"/><rect x="32.67" y="29.39" width="2" height="2" transform="translate(-11.63 32.71) rotate(-45)" style="fill:#693cc5"/><rect x="27.37" y="33.38" width="4.63" height="2" transform="translate(-15.61 31.06) rotate(-45)" style="fill:#693cc5"/><path d="M25,40.06a1,1,0,0,1-.71-.29l-1.41-1.41,1.41-1.42.71.71.71-.71,1.41,1.42-1.41,1.41A1,1,0,0,1,25,40.06Z" style="fill:#693cc5"/><rect x="19.31" y="32.06" width="2" height="4.63" transform="translate(-18.36 24.43) rotate(-45)" style="fill:#693cc5"/><rect x="15.33" y="29.39" width="2" height="2" transform="translate(-16.71 20.45) rotate(-45)" style="fill:#693cc5"/></svg>