<svg id="Layer_1" data-name="Layer 1" xmlns="http://www.w3.org/2000/svg" width="50" height="50" viewBox="0 0 50 50"><title>Amazon-CloudFront_Streaming-Distribution_light-bg</title><path d="M25,48.5A23.5,23.5,0,1,1,48.5,25,23.52,23.52,0,0,1,25,48.5Zm0-45A21.5,21.5,0,1,0,46.5,25,21.52,21.52,0,0,0,25,3.5Z" style="fill:#693cc5"/><rect x="24" y="9.06" width="2" height="29.06" style="fill:#693cc5"/><path d="M25,40.06a1,1,0,0,1-.71-.29l-8.43-8.44,1.41-1.41L25,37.65l7.73-7.73,1.41,1.41-8.43,8.44A1,1,0,0,1,25,40.06Z" style="fill:#693cc5"/></svg>