<svg id="Layer_1" data-name="Layer 1" xmlns="http://www.w3.org/2000/svg" width="50" height="50" viewBox="0 0 50 50"><title>Amazon-VPC_Flow-Logs_light-bg</title><path d="M25,48.5A23.5,23.5,0,1,1,48.5,25,23.52,23.52,0,0,1,25,48.5Zm0-45A21.5,21.5,0,1,0,46.5,25,21.52,21.52,0,0,0,25,3.5Z" style="fill:#693cc5"/><path d="M35.37,22.19h-2V11.94H15.69V22.19h-2V10.94a1,1,0,0,1,1-1H34.37a1,1,0,0,1,1,1Z" style="fill:#693cc5"/><path d="M34.37,40.06H14.69a1,1,0,0,1-1-1V27.81h2V38.06H33.37V27.81h2V39.06A1,1,0,0,1,34.37,40.06Z" style="fill:#693cc5"/><rect x="17.5" y="14.63" width="14.06" height="2" style="fill:#693cc5"/><rect x="17.5" y="19.31" width="14.06" height="2" style="fill:#693cc5"/><rect x="17.5" y="28.69" width="14.06" height="2" style="fill:#693cc5"/><rect x="17.5" y="33.38" width="14.06" height="2" style="fill:#693cc5"/><rect x="7.19" y="24" width="36.56" height="2" style="fill:#693cc5"/><path d="M39.77,30.39,38.36,29l4-4-4-4,1.41-1.41,4.69,4.68a1,1,0,0,1,0,1.42Z" style="fill:#693cc5"/></svg>