<svg id="Layer_1" data-name="Layer 1" xmlns="http://www.w3.org/2000/svg" width="50" height="50" viewBox="0 0 50 50"><title>Amazon-CloudFront_Edge-Location_light-bg</title><path d="M48.5,48.5H1.5V1.5h47Zm-45-2h43V3.5H3.5Z" style="fill:#693cc5"/><path d="M33.5,33.5h-17v-17h17Zm-15-2h13v-13h-13Z" style="fill:#693cc5"/><path d="M47,30.7a45.38,45.38,0,0,0-14.68-5.05l.32-2A47.4,47.4,0,0,1,48,28.94Z" style="fill:#693cc5"/><path d="M3,30.7,2,28.94a47.4,47.4,0,0,1,15.32-5.27l.32,2A45.38,45.38,0,0,0,3,30.7Z" style="fill:#693cc5"/></svg>