<svg id="Layer_1" data-name="Layer 1" xmlns="http://www.w3.org/2000/svg" width="50" height="50" viewBox="0 0 50 50"><title>Amazon-VPC_VPN-Connection_light-bg</title><path d="M40.28,48.5h-30a1,1,0,0,1-1-1V24.06a1,1,0,0,1,.29-.7,1,1,0,0,1,.71-.3h30a1,1,0,0,1,1,1V47.5A1,1,0,0,1,40.28,48.5Zm-29-2h28V25.07h-28Z" style="fill:#693cc5"/><path d="M25.29,35.75h0a4.13,4.13,0,1,1,2.93-1.21A4.15,4.15,0,0,1,25.29,35.75Zm0-6.28a2.15,2.15,0,0,0-2.14,2.14,2.14,2.14,0,0,0,2.14,2.14h0a2.13,2.13,0,0,0,2.14-2.14h0a2.09,2.09,0,0,0-.63-1.51,2.13,2.13,0,0,0-1.51-.63Z" style="fill:#693cc5"/><rect x="24.29" y="34.87" width="2" height="6.32" style="fill:#693cc5"/><rect x="14.98" y="18.44" width="2" height="5.63" style="fill:#693cc5"/><rect x="33.7" y="18.44" width="2" height="5.63" style="fill:#693cc5"/><path d="M35.7,12.77h-2v-.32c0-4.92-3.71-8.93-8.31-8.95A8.67,8.67,0,0,0,17,12.36v.41H15v-.42A10.67,10.67,0,0,1,25.36,1.5a10.66,10.66,0,0,1,10.34,11Z" style="fill:#693cc5"/><path d="M41.06,21l-1.42-1.41,4-4-4.06-3.91,1.39-1.44,4.79,4.61a1.05,1.05,0,0,1,.31.71,1,1,0,0,1-.29.72Z" style="fill:#693cc5"/><rect x="4.94" y="14.65" width="40.29" height="2" style="fill:#693cc5"/><path d="M8.8,21,4.06,16.32a1,1,0,0,1,0-1.42L8.8,10.23l1.4,1.42-4,4,4,4Z" style="fill:#693cc5"/></svg>