<svg id="Product_Icon" data-name="Product Icon" xmlns="http://www.w3.org/2000/svg" xmlns:xlink="http://www.w3.org/1999/xlink" width="75" height="75" viewBox="0 0 75 75"><defs><linearGradient id="PurpleGradient" x1="37.49" y1="112.51" x2="37.49" y2="-37.49" gradientTransform="translate(37.51 -15.53) rotate(45)" gradientUnits="userSpaceOnUse"><stop offset="0" stop-color="#4d27a8"/><stop offset="1" stop-color="#a166ff"/></linearGradient></defs><title>AWS-App-Mesh</title><rect id="Purple_Gradient" data-name="Purple Gradient" width="75" height="75" style="fill:url(#PurpleGradient)"/><g id="Icon_Test" data-name="Icon Test"><path d="M21.23,26.23l-1-1.76,5.87-3.19,1,1.76Zm9.38-5.11-1-1.76,5.26-2.88,1,1.76Z" style="fill:#fff"/><path d="M36,35.59,30.7,32.82l.92-1.77,5.32,2.77ZM27.15,31,21.83,28.2l.92-1.77,5.32,2.77Z" style="fill:#fff"/><path d="M39.92,35.47,39,33.67,44.43,31l.88,1.79Zm9-4.41L48,29.27l5.38-2.65.88,1.8Z" style="fill:#fff"/><path d="M35.41,59.16l-6-3.17.93-1.77,6,3.17Zm-9-4.66-5.28-2.84.95-1.76,5.28,2.84Z" style="fill:#fff"/><rect x="19.04" y="28.84" width="2" height="7.7" style="fill:#fff"/><rect x="36.6" y="48.79" width="2" height="7.88" style="fill:#fff"/><path d="M20,29.64a2.71,2.71,0,0,1-2.7-2.71A2.69,2.69,0,0,1,18.13,25,2.77,2.77,0,0,1,22,25h0a2.68,2.68,0,0,1,0,3.82A2.65,2.65,0,0,1,20,29.64Zm0-3.41a.68.68,0,0,0-.7.7.7.7,0,0,0,.2.5.71.71,0,0,0,1.21-.5.75.75,0,0,0-.21-.5A.74.74,0,0,0,20,26.23Z" style="fill:#fff"/><path d="M20,52a2.71,2.71,0,0,1-1.91-4.62,2.77,2.77,0,0,1,3.82,0h0a2.69,2.69,0,0,1,0,3.83A2.67,2.67,0,0,1,20,52Zm0-3.41a.7.7,0,0,0-.7.71.7.7,0,0,0,1.2.49.69.69,0,0,0,0-1h0A.7.7,0,0,0,20,48.63Z" style="fill:#fff"/><path d="M37.6,61a2.7,2.7,0,1,1,1.91-4.61A2.7,2.7,0,0,1,37.6,61Zm0-3.4a.74.74,0,0,0-.5.2.71.71,0,1,0,1,0A.74.74,0,0,0,37.6,57.59Z" style="fill:#fff"/><path d="M37.6,38.57a2.71,2.71,0,1,1,1.91-.79A2.71,2.71,0,0,1,37.6,38.57Zm0-3.41a.71.71,0,0,0-.5,1.2.72.72,0,0,0,1,0,.71.71,0,0,0-.5-1.2Z" style="fill:#fff"/><path d="M55,52a2.65,2.65,0,0,1-1.91-.79,2.7,2.7,0,0,1,0-3.83,2.77,2.77,0,0,1,3.82,0A2.71,2.71,0,0,1,55,52Zm0-3.41a.71.71,0,1,0,.5.21A.7.7,0,0,0,55,48.63Z" style="fill:#fff"/><path d="M55,29.64a2.65,2.65,0,0,1-1.91-.8,2.69,2.69,0,0,1,0-3.82,2.77,2.77,0,0,1,3.82,0h0a2.71,2.71,0,0,1,0,3.82A2.65,2.65,0,0,1,55,29.64Zm0-3.41a.74.74,0,0,0-.5.2.72.72,0,0,0,0,1,.71.71,0,0,0,1,0,.72.72,0,0,0,0-1A.74.74,0,0,0,55,26.23Z" style="fill:#fff"/><path d="M37.6,19.41a2.7,2.7,0,1,1,1.91-4.61,2.7,2.7,0,0,1-1.91,4.61Zm0-3.4a.74.74,0,0,0-.5.2.71.71,0,1,0,1,0A.74.74,0,0,0,37.6,16Z" style="fill:#fff"/><rect x="19.04" y="38.54" width="2" height="8.65" style="fill:#fff"/><rect x="53.85" y="28.84" width="2" height="7.7" style="fill:#fff"/><rect x="53.85" y="38.54" width="2" height="8.65" style="fill:#fff"/><path d="M48.15,23l1-1.75,5.74,3.06-1,1.76Zm-9.59-5.19,1-1.75,6.08,3.27-1,1.75Z" style="fill:#fff"/><rect x="36.6" y="37.75" width="2" height="7.91" style="fill:#fff"/><path d="M38.91,57.4l5.78-3,.93,1.78-5.78,3Zm8.74-4.49,5.72-3,1,1.76-5.72,3Z" style="fill:#fff"/></g></svg>