<svg id="Product_Icon" data-name="Product Icon" xmlns="http://www.w3.org/2000/svg" xmlns:xlink="http://www.w3.org/1999/xlink" width="75" height="75" viewBox="0 0 75 75"><defs><linearGradient id="PurpleGradient" x1="112.5" y1="37.5" x2="-37.5" y2="37.5" gradientTransform="translate(90.53 37.5) rotate(135)" gradientUnits="userSpaceOnUse"><stop offset="0" stop-color="#4d27a8"/><stop offset="1" stop-color="#a166ff"/></linearGradient></defs><title>AWS-Global-Accelerator</title><rect id="Purple_Gradient" data-name="Purple Gradient" width="75" height="75" style="fill:url(#PurpleGradient)"/><g id="Icon_Test" data-name="Icon Test"><path d="M37.64,51A16.73,16.73,0,1,1,54.36,34.27,16.74,16.74,0,0,1,37.64,51Zm0-31.45A14.73,14.73,0,1,0,52.36,34.27,14.75,14.75,0,0,0,37.64,19.54Z" style="fill:#fff"/><path d="M37.64,27.74A26.52,26.52,0,0,1,25.15,25l1-1.74a24.65,24.65,0,0,0,11.52,2.5,24.61,24.61,0,0,0,11.51-2.5l1,1.74A26.5,26.5,0,0,1,37.64,27.74Z" style="fill:#fff"/><path d="M49.15,44.91A24.49,24.49,0,0,0,37.63,42.4a24.51,24.51,0,0,0-11.51,2.51l-1-1.75A26.5,26.5,0,0,1,37.63,40.4a26.64,26.64,0,0,1,12.49,2.76Z" style="fill:#fff"/><path d="M37.64,51c-4.74,0-8.45-7.34-8.45-16.72s3.71-16.73,8.45-16.73,8.44,7.35,8.44,16.73S42.37,51,37.64,51Zm0-31.45c-3.12,0-6.45,5.92-6.45,14.73S34.52,49,37.64,49s6.44-5.91,6.44-14.72S40.75,19.54,37.64,19.54Z" style="fill:#fff"/><rect x="36.58" y="37.26" width="2" height="19.47" style="fill:#fff"/><path d="M28.28,59.55a3.29,3.29,0,1,1,3.28-3.29A3.3,3.3,0,0,1,28.28,59.55Zm0-4.57a1.29,1.29,0,1,0,1.28,1.28A1.29,1.29,0,0,0,28.28,55Z" style="fill:#fff"/><path d="M37.56,62.3A3.29,3.29,0,1,1,40.85,59,3.3,3.3,0,0,1,37.56,62.3Zm0-4.57A1.29,1.29,0,1,0,38.85,59,1.29,1.29,0,0,0,37.56,57.73Z" style="fill:#fff"/><path d="M46.88,59.55a3.29,3.29,0,1,1,3.28-3.29A3.29,3.29,0,0,1,46.88,59.55Zm0-4.57a1.29,1.29,0,1,0,1.28,1.28A1.29,1.29,0,0,0,46.88,55Z" style="fill:#fff"/><path d="M47.88,53.82h-2v-.88h-8.3v-2h8.28c1.21,0,2,.56,2,1.39Z" style="fill:#fff"/><path d="M29.28,53.82h-2V52.33c0-.83.81-1.39,2-1.39h8.28v2h-8.3Z" style="fill:#fff"/><polygon points="35.68 40.03 34.26 38.62 37.64 35.25 41.01 38.62 39.59 40.03 37.64 38.08 35.68 40.03" style="fill:#fff"/><path d="M52.81,49.65l-1.42-1.42a19.64,19.64,0,1,0-27.78,0l-1.42,1.42a21.65,21.65,0,1,1,30.62,0Z" style="fill:#fff"/><rect x="21.91" y="32.33" width="31.45" height="2" style="fill:#fff"/></g></svg>