<svg id="Product_Icon" data-name="Product Icon" xmlns="http://www.w3.org/2000/svg" width="75" height="75" viewBox="0 0 75 75"><title>AWS-Transit-Gateway_light-bg</title><rect id="Purple_Light_BG" data-name="Purple Light BG" width="75" height="75" style="fill:#693cc5"/><g id="Product_Icon-2" data-name="Product Icon"><path d="M37.5,24.26a4.75,4.75,0,1,1,4.75-4.74A4.75,4.75,0,0,1,37.5,24.26Zm0-7.49a2.75,2.75,0,1,0,2.75,2.75A2.75,2.75,0,0,0,37.5,16.77Z" style="fill:#fff"/><path d="M55.48,42.25a4.75,4.75,0,1,1,4.75-4.75A4.75,4.75,0,0,1,55.48,42.25Zm0-7.5a2.75,2.75,0,1,0,2.75,2.75A2.75,2.75,0,0,0,55.48,34.75Z" style="fill:#fff"/><path d="M37.5,60.23a4.75,4.75,0,1,1,4.75-4.75A4.75,4.75,0,0,1,37.5,60.23Zm0-7.49a2.75,2.75,0,1,0,2.75,2.74A2.75,2.75,0,0,0,37.5,52.74Z" style="fill:#fff"/><path d="M19.52,42.25a4.75,4.75,0,1,1,4.74-4.75A4.75,4.75,0,0,1,19.52,42.25Zm0-7.5a2.75,2.75,0,1,0,2.74,2.75A2.75,2.75,0,0,0,19.52,34.75Z" style="fill:#fff"/><path d="M37.5,61.73A24.23,24.23,0,1,1,61.73,37.5,24.26,24.26,0,0,1,37.5,61.73Zm0-46.46A22.23,22.23,0,1,0,59.73,37.5,22.26,22.26,0,0,0,37.5,15.27Z" style="fill:#fff"/><path d="M37.5,44.43a6.93,6.93,0,1,1,6.93-6.93A6.94,6.94,0,0,1,37.5,44.43Zm0-11.86a4.93,4.93,0,1,0,4.93,4.93A4.93,4.93,0,0,0,37.5,32.57Z" style="fill:#fff"/><rect x="23.26" y="36.5" width="8.3" height="2" style="fill:#fff"/><rect x="43.43" y="36.5" width="8.3" height="2" style="fill:#fff"/><rect x="36.5" y="43.43" width="2" height="8.3" style="fill:#fff"/><rect x="36.5" y="23.26" width="2" height="8.3" style="fill:#fff"/></g></svg>