<svg id="Product_Icon" data-name="Product Icon" xmlns="http://www.w3.org/2000/svg" xmlns:xlink="http://www.w3.org/1999/xlink" width="75" height="75" viewBox="0 0 75 75"><defs><linearGradient id="RedGradient" x1="90.53" y1="-15.53" x2="-15.53" y2="90.53" gradientTransform="translate(75 75) rotate(180)" gradientUnits="userSpaceOnUse"><stop offset="0" stop-color="#bd0816"/><stop offset="1" stop-color="#ff5252"/></linearGradient></defs><title>Amazon-WorkMail</title><rect id="Red_Gradient" data-name="Red Gradient" width="75" height="75" style="fill:url(#RedGradient)"/><g id="Icon_Test" data-name="Icon Test"><path d="M61.5,12.5h-48a1,1,0,0,0-1,1v48a1,1,0,0,0,1,1h48a1,1,0,0,0,1-1v-48A1,1,0,0,0,61.5,12.5Zm-2.42,2L37.5,36.09,15.92,14.5Zm1.42,46h-46V15.92L36.79,38.21a1,1,0,0,0,1.42,0L60.5,15.92Z" style="fill:#fff"/></g></svg>