<svg id="Product_Icon" data-name="Product Icon" xmlns="http://www.w3.org/2000/svg" xmlns:xlink="http://www.w3.org/1999/xlink" width="75" height="75" viewBox="0 0 75 75"><defs><linearGradient id="RedGradient" x1="112.5" y1="37.5" x2="-37.5" y2="37.5" gradientTransform="translate(90.53 37.5) rotate(135)" gradientUnits="userSpaceOnUse"><stop offset="0" stop-color="#bd0816"/><stop offset="1" stop-color="#ff5252"/></linearGradient></defs><title>Amazon-Chime</title><rect id="Red_Gradient" data-name="Red Gradient" width="75" height="75" style="fill:url(#RedGradient)"/><g id="Icon_Test" data-name="Icon Test"><path d="M61.78,36.54l-13.86-4L59.57,26a1,1,0,0,0,.5-.73,1,1,0,0,0-.28-.85l-4.61-4.61a1,1,0,0,0-1.2-.16L41.23,26.74l3.75-13a1.06,1.06,0,0,0-.16-.88,1,1,0,0,0-.8-.4H37.5a1,1,0,0,0-1,.72l-4,13.86L26,15.43a1,1,0,0,0-1.58-.22l-4.61,4.61A1,1,0,0,0,19.66,21l7.08,12.76L13.78,30a1,1,0,0,0-1.28,1V37.5a1,1,0,0,0,.72,1l13.86,4L15.43,49a1,1,0,0,0-.5.73,1,1,0,0,0,.28.85l4.61,4.61a1,1,0,0,0,.71.29,1,1,0,0,0,.49-.13l12.75-7.08L30,61.22a1.06,1.06,0,0,0,.16.88,1,1,0,0,0,.8.4H37.5a1,1,0,0,0,1-.72l4-13.86L49,59.57a1,1,0,0,0,.73.5h.14a1,1,0,0,0,.71-.29l4.61-4.61A1,1,0,0,0,55.34,54L48.26,41.23l13,3.75a1.35,1.35,0,0,0,.28,0,1,1,0,0,0,1-1V37.5A1,1,0,0,0,61.78,36.54ZM54.3,21.77l3.14,3.14-12,6.72-3.16-3.16Zm-16-7.27h4.44l-3.76,13H34.47ZM21.77,20.7l3.14-3.14,6.72,12.05-3.16,3.16ZM14.5,36.75V32.31l13,3.76v4.46Zm6.2,16.48-3.14-3.14,12.05-6.72,3.16,3.16ZM36.75,60.5H32.31l3.76-13h4.46Zm4.67-16a1,1,0,0,0-.24,1H35.32a.94.94,0,0,0-.57.18l-4.26-4.26a1,1,0,0,0-1-.25V35.32a.94.94,0,0,0-.18-.57l4.26-4.26a1,1,0,0,0,.25-1h5.85a.94.94,0,0,0,.57-.18l4.26,4.26a1,1,0,0,0,.7.29.92.92,0,0,0,.29,0v5.85a.94.94,0,0,0,.18.57ZM53.23,54.3l-3.14,3.14-6.72-12,3.16-3.16ZM60.5,42.69l-13-3.76V34.47l13,3.78Z" style="fill:#fff"/></g></svg>