<svg id="Product_Icon" data-name="Product Icon" xmlns="http://www.w3.org/2000/svg" xmlns:xlink="http://www.w3.org/1999/xlink" width="75" height="75" viewBox="0 0 75 75"><defs><linearGradient id="RedGradient" x1="90.53" y1="90.53" x2="-15.53" y2="-15.53" gradientTransform="translate(75 0) rotate(90)" gradientUnits="userSpaceOnUse"><stop offset="0" stop-color="#bd0816"/><stop offset="1" stop-color="#ff5252"/></linearGradient></defs><title>Amazon-WorkDocs</title><rect id="Red_Gradient" data-name="Red Gradient" width="75" height="75" style="fill:url(#RedGradient)"/><g id="Icon_Test" data-name="Icon Test"><path d="M62.21,36.79l-24-24a1,1,0,0,0-.71-.29h-24a1,1,0,0,0-1,1v48a1,1,0,0,0,1,1h48a1,1,0,0,0,1-1v-24A1,1,0,0,0,62.21,36.79ZM38.5,15.91,59.09,36.5H38.5Zm22,44.59h-22v-2h-2v2h-22v-22h2v-2h-2v-22h22v22h-3v2h3v3h2v-3h22Zm-42-24v2h3v-2Zm5,0v2h3v-2Zm5,0v2h3v-2Zm8,7v3h2v-3Zm0,5v3h2v-3Zm0,5v3h2v-3Z" style="fill:#fff"/></g></svg>