<svg id="Product_Icon" data-name="Product Icon" xmlns="http://www.w3.org/2000/svg" xmlns:xlink="http://www.w3.org/1999/xlink" width="75" height="75" viewBox="0 0 75 75"><defs><linearGradient id="BlueGradient" x1="112.5" y1="37.5" x2="-37.5" y2="37.5" gradientTransform="translate(90.53 37.5) rotate(135)" gradientUnits="userSpaceOnUse"><stop offset="0" stop-color="#2e27ad"/><stop offset="1" stop-color="#527fff"/></linearGradient></defs><title>Amazon-ElastiCache</title><rect id="Blue_Gradient" data-name="Blue Gradient" width="75" height="75" style="fill:url(#BlueGradient)"/><g id="Icon_Test" data-name="Icon Test"><path d="M37.52,27C30.81,27,24,28.75,24,32.1V54.9c0,3.35,6.78,5.1,13.49,5.1S51,58.25,51,54.9V32.1C51,28.75,44.21,27,37.52,27Zm0,31C30.08,58,26,56,26,54.9V50.09c2.5,1.52,7,2.31,11.49,2.31s9-.79,11.48-2.3v4.8C49,56,44.94,58,37.52,58Zm0-7.6c-7.44,0-11.49-2-11.49-3.1V42.5c2.5,1.51,7,2.3,11.49,2.3s9-.79,11.48-2.3v4.8C49,48.35,44.94,50.4,37.52,50.4Zm0-7.6c-7.44,0-11.49-2-11.49-3.1V34.89c2.5,1.52,7,2.31,11.49,2.31s9-.79,11.48-2.31V39.7C49,40.75,44.94,42.8,37.52,42.8Zm0-7.6C30.08,35.2,26,33.15,26,32.1s4-3.1,11.49-3.1S49,31.05,49,32.1,44.94,35.2,37.52,35.2Z" style="fill:#fff"/><path d="M62,19.19a1,1,0,0,0,1-1V16a1,1,0,0,0-1-1H13a1,1,0,0,0-1,1v2.18a1,1,0,0,0,1,1,2.22,2.22,0,0,1,0,4.42,1,1,0,0,0-1,1V42a1,1,0,0,0,1,1H22V41H18V40h4V38H17a1,1,0,0,0-1,1v2H14V25.47a4.26,4.26,0,0,0,0-8.15V17H61v.33a4.27,4.27,0,0,0,0,8.13V41H60V39a1,1,0,0,0-1-1H53v2h5v1H53v2h9a1,1,0,0,0,1-1V24.6a1,1,0,0,0-1-1,2.22,2.22,0,0,1,0-4.41Z" style="fill:#fff"/><path d="M37,25V20a1,1,0,0,0-1-1H29a1,1,0,0,0-1,1v6h2V21h5v4Z" style="fill:#fff"/><path d="M47,26V20a1,1,0,0,0-1-1H39a1,1,0,0,0-1,1v5h2V21h5v5Z" style="fill:#fff"/><path d="M53,34v2h3a1,1,0,0,0,1-1V20a1,1,0,0,0-1-1H49a1,1,0,0,0-1,1v7h2V21h5V34Z" style="fill:#fff"/><path d="M20,21h5v6h2V20a1,1,0,0,0-1-1H19a1,1,0,0,0-1,1V35a1,1,0,0,0,1,1h3V34H20Z" style="fill:#fff"/></g></svg>