<svg id="Product_Icon" data-name="Product Icon" xmlns="http://www.w3.org/2000/svg" xmlns:xlink="http://www.w3.org/1999/xlink" width="75" height="75" viewBox="0 0 75 75"><defs><linearGradient id="BlueGradient" x1="-15.54" y1="90.54" x2="90.53" y2="-15.53" gradientTransform="translate(0 0)" gradientUnits="userSpaceOnUse"><stop offset="0" stop-color="#2e27ad"/><stop offset="1" stop-color="#527fff"/></linearGradient></defs><title>Amazon-Redshift</title><rect id="Blue_Gradient" data-name="Blue Gradient" width="75" height="75" style="fill:url(#BlueGradient)"/><g id="Icon_Test" data-name="Icon Test"><path d="M37.5,62.5c-8.24,0-17-2.39-17-6.82V19.32h2V55.68c0,2,5.71,4.82,15,4.82s15-2.8,15-4.82V19.32h2V55.68C54.5,60.11,45.74,62.5,37.5,62.5Z" style="fill:#fff"/><path d="M37.5,62.5c-8.24,0-17-2.39-17-6.82V19.32h2V55.68c0,2,5.71,4.82,15,4.82s15-2.8,15-4.82V19.32h2V55.68C54.5,60.11,45.74,62.5,37.5,62.5Z" style="fill:#fff"/><path d="M37.5,26.13c-8.24,0-17-2.39-17-6.81s8.76-6.82,17-6.82,17,2.39,17,6.82S45.74,26.13,37.5,26.13Zm0-11.63c-9.29,0-15,2.8-15,4.82s5.71,4.81,15,4.81,15-2.8,15-4.81S46.79,14.5,37.5,14.5Z" style="fill:#fff"/><rect x="36.48" y="38.02" width="2" height="6.22" transform="translate(-10.94 68.55) rotate(-77.19)" style="fill:#fff"/><rect x="42.05" y="35.78" width="6.3" height="2" transform="translate(-5.61 65.32) rotate(-68.46)" style="fill:#fff"/><rect x="27.4" y="43.59" width="5.2" height="2" transform="translate(-22.78 54.68) rotate(-66.89)" style="fill:#fff"/><path d="M28,52.77a3.5,3.5,0,1,1,3.5-3.5A3.5,3.5,0,0,1,28,52.77Zm0-5a1.5,1.5,0,1,0,1.5,1.5A1.5,1.5,0,0,0,28,47.77Z" style="fill:#fff"/><path d="M32,43.39a3.5,3.5,0,1,1,3.5-3.5A3.5,3.5,0,0,1,32,43.39Zm0-5a1.5,1.5,0,1,0,1.5,1.5h0A1.5,1.5,0,0,0,32,38.39Z" style="fill:#fff"/><path d="M43,45.5A3.5,3.5,0,1,1,46.5,42,3.5,3.5,0,0,1,43,45.5Zm0-5A1.5,1.5,0,1,0,44.5,42,1.5,1.5,0,0,0,43,40.5Z" style="fill:#fff"/><path d="M47,35a3.5,3.5,0,1,1,3.5-3.5v.05A3.51,3.51,0,0,1,47,35Zm0-5a1.5,1.5,0,1,0,1.5,1.55A1.5,1.5,0,0,0,47,30Z" style="fill:#fff"/></g></svg>