<svg id="Layer_1" data-name="Layer 1" xmlns="http://www.w3.org/2000/svg" width="50" height="50" viewBox="0 0 50 50"><title>Amazon-DynamoDB_Attributes_light-bg</title><path d="M24.12,16.16H1.5V2H24.12Zm-20.62-2H22.12V4H3.5Z" style="fill:#3b48cc"/><path d="M24.12,32.09H1.5V17.91H24.12Zm-20.62-2H22.12V19.91H3.5Z" style="fill:#3b48cc"/><path d="M24.12,48H1.5V33.84H24.12ZM3.5,46H22.12V35.84H3.5Z" style="fill:#3b48cc"/><path d="M48.5,16.16H25.88V2H48.5Zm-20.62-2H46.5V4H27.88Z" style="fill:#3b48cc"/><path d="M48.5,32.09H25.88V17.91H48.5Zm-20.62-2H46.5V19.91H27.88Z" style="fill:#3b48cc"/><path d="M48.5,48H25.88V33.84H48.5ZM27.88,46H46.5V35.84H27.88Z" style="fill:#3b48cc"/><path d="M12.81,13.34a4.28,4.28,0,1,1,4.28-4.28A4.28,4.28,0,0,1,12.81,13.34Zm0-6.56a2.28,2.28,0,1,0,2.28,2.28A2.28,2.28,0,0,0,12.81,6.78Z" style="fill:#3b48cc"/><path d="M12.81,29.28A4.28,4.28,0,1,1,17.09,25,4.28,4.28,0,0,1,12.81,29.28Zm0-6.56A2.28,2.28,0,1,0,15.09,25,2.28,2.28,0,0,0,12.81,22.72Z" style="fill:#3b48cc"/><path d="M12.81,45.22a4.28,4.28,0,1,1,4.28-4.28A4.28,4.28,0,0,1,12.81,45.22Zm0-6.56a2.28,2.28,0,1,0,2.28,2.28A2.28,2.28,0,0,0,12.81,38.66Z" style="fill:#3b48cc"/></svg>