<svg version="1.1" width="80.000000" height="115.000000" viewBox="0.000000 0.000000 80.000000 115.000000" xmlns="http://www.w3.org/2000/svg" xmlns:xlink="http://www.w3.org/1999/xlink" overflow="hidden"><g id="CARDS"><rect x="1.000000" y="1.000000" width="78.000000" height="78.000000" fill="#232F3E"/><path d=" M 0.000000 0.000000 L 0.000000 80.000000 L 0.000000 80.000000 L 0.000000 115.000000 L 80.000000 115.000000 L 80.000000 80.000000 L 80.000000 80.000000 L 80.000000 0.000000 Z M 1.000000 1.000000 L 79.000000 1.000000 L 79.000000 79.000000 L 1.000000 79.000000 Z" fill="#FFFFFF"/></g><g id="TEXT_-_EDIT"><path d=" M 25.350000 92.349998 L 24.920000 90.529999 L 22.920000 90.529999 L 22.500000 92.349998 L 20.719999 92.349998 L 23.000000 84.720001 L 24.900000 84.720001 L 27.209999 92.349998 Z M 23.170000 89.430000 L 24.660000 89.430000 L 23.900000 86.269997 Z" fill="#232F3E"/><path d=" M 34.060001 92.349998 L 34.060001 88.639999 C 34.076664 88.401566 34.028278 88.163086 33.920002 87.949997 C 33.819908 87.796371 33.642418 87.711487 33.460003 87.729996 C 33.174831 87.743271 32.898491 87.833084 32.660004 87.989998 C 32.664822 88.029854 32.664822 88.070145 32.660004 88.110001 L 32.660000 92.349998 L 31.000000 92.349998 L 31.000000 88.639999 C 31.019257 88.402504 30.974358 88.164200 30.870001 87.949997 C 30.765142 87.796478 30.585056 87.712181 30.400002 87.729996 C 30.121338 87.744865 29.851856 87.834694 29.620001 87.989998 L 29.620001 92.349998 L 28.000000 92.349998 L 28.000000 86.720001 L 29.350000 86.720001 L 29.480000 87.230003 C 30.005705 86.838974 30.635632 86.612755 31.289999 86.580002 C 31.787903 86.543671 32.259682 86.807076 32.489998 87.250000 C 33.020988 86.851845 33.657448 86.618820 34.320000 86.580002 C 34.698605 86.567619 35.063778 86.720993 35.320000 87.000000 C 35.580429 87.351334 35.707973 87.783562 35.680000 88.220001 L 35.680000 92.349998 Z" fill="#232F3E"/><path d=" M 40.000000 92.349998 L 39.860001 91.839996 C 39.704742 92.042564 39.502155 92.203949 39.270000 92.309998 C 39.023094 92.427322 38.753361 92.488777 38.480000 92.489998 C 38.038441 92.498497 37.613724 92.320625 37.310001 92.000000 C 37.006588 91.668808 36.851307 91.228241 36.880001 90.779999 C 36.856857 90.286880 37.050484 89.808296 37.410000 89.470001 C 37.807274 89.133095 38.320316 88.964470 38.840000 89.000000 C 39.154030 89.006668 39.466179 89.050301 39.770000 89.129997 L 39.770000 88.620003 C 39.797573 88.349762 39.741737 88.077560 39.610001 87.840004 C 39.445477 87.687714 39.222755 87.614693 39.000000 87.640007 C 38.395546 87.665237 37.798565 87.783279 37.230000 87.990005 L 37.230000 87.000000 C 37.516563 86.840446 37.827354 86.728966 38.149998 86.669998 C 38.528015 86.589485 38.913502 86.549255 39.299999 86.549995 C 39.843796 86.502090 40.385880 86.659012 40.820000 86.989998 C 41.164772 87.366852 41.335323 87.871239 41.290001 88.379997 L 41.290001 92.320000 Z M 39.000000 91.430000 C 39.298344 91.418404 39.580971 91.293190 39.790001 91.080002 L 39.790001 90.000000 C 39.587475 89.948616 39.378887 89.925064 39.170002 89.930000 C 38.969070 89.911972 38.770714 89.985435 38.630001 90.129997 C 38.490948 90.293694 38.422604 90.505920 38.440002 90.719994 C 38.429714 90.905304 38.482594 91.088631 38.590004 91.239990 C 38.687565 91.366325 38.840549 91.437218 39.000004 91.429993 Z" fill="#232F3E"/><path d=" M 42.279999 92.349998 L 42.279999 91.279999 L 44.770000 87.879997 L 42.369999 87.879997 L 42.369999 86.720001 L 46.509998 86.720001 L 46.509998 87.790001 L 44.000000 91.190002 L 46.540001 91.190002 L 46.540001 92.349998 Z" fill="#232F3E"/><path d=" M 49.790001 92.489998 C 49.108715 92.511253 48.453094 92.229225 48.000000 91.720001 C 47.133984 90.392052 47.133984 88.677956 48.000000 87.349998 C 49.011749 86.331032 50.657967 86.325180 51.676933 87.336929 C 51.681305 87.341270 51.685661 87.345627 51.690002 87.349998 C 52.556019 88.677948 52.556019 90.392044 51.690002 91.720001 C 51.211487 92.259041 50.508781 92.543823 49.790001 92.489998 Z M 49.790001 91.339996 C 50.076321 91.350388 50.337559 91.177567 50.440002 90.909996 C 50.706799 90.016144 50.706799 89.063843 50.440002 88.169998 C 50.304638 87.813774 49.906124 87.634735 49.549900 87.770103 C 49.365585 87.840141 49.220043 87.985687 49.150002 88.169998 C 48.883205 89.063850 48.883205 90.016151 49.150002 90.909996 C 49.248730 91.175995 49.506416 91.349129 49.790001 91.339996 Z" fill="#232F3E"/><path d=" M 56.549999 92.349998 L 56.549999 88.650002 C 56.566494 88.408363 56.518166 88.166710 56.410000 87.950005 C 56.294102 87.793236 56.103878 87.709541 55.910000 87.730003 C 55.621128 87.739960 55.340698 87.829971 55.099998 87.990005 L 55.099998 92.349998 L 53.439999 92.349998 L 53.439999 86.720001 L 54.790001 86.720001 L 54.930000 87.230003 C 55.464371 86.833908 56.105400 86.607452 56.770000 86.580002 C 57.171432 86.553581 57.563728 86.707565 57.840000 87.000000 C 58.102020 87.350540 58.229740 87.783371 58.200001 88.220001 L 58.200001 92.349998 Z" fill="#232F3E"/><path d=" M 28.280001 106.349998 L 27.840000 104.529999 L 25.840000 104.529999 L 25.420000 106.349998 L 23.650000 106.349998 L 26.000000 98.720001 L 27.860001 98.720001 L 30.160000 106.349998 Z M 26.100000 103.430000 L 27.590000 103.430000 L 26.830000 100.269997 Z" fill="#232F3E"/><path d=" M 34.180000 106.349998 L 34.049999 105.839996 C 33.537445 106.234222 32.915985 106.461166 32.270000 106.489998 C 31.888208 106.508453 31.519241 106.349800 31.270000 106.059998 C 31.019743 105.696587 30.896688 105.260620 30.920000 104.820000 L 30.920000 100.720001 L 32.570000 100.720001 L 32.570000 104.339996 C 32.551785 104.604317 32.599907 104.869003 32.709999 105.109993 C 32.795273 105.269989 32.969955 105.361298 33.149998 105.339996 C 33.422054 105.331230 33.685863 105.244446 33.909996 105.089996 L 33.910000 100.720001 L 35.560001 100.720001 L 35.560001 106.349998 Z" fill="#232F3E"/><path d=" M 37.000000 106.349998 L 37.000000 100.720001 L 38.299999 100.720001 L 38.480000 101.449997 C 38.680946 101.209991 38.925179 101.009857 39.200001 100.860001 C 39.429920 100.734291 39.687958 100.668915 39.950001 100.669998 C 40.079811 100.660080 40.210190 100.660080 40.340000 100.669998 L 40.340000 102.000000 C 40.126884 101.986336 39.913116 101.986336 39.700001 102.000000 C 39.318165 102.000481 38.941643 102.089478 38.600002 102.260002 L 38.599998 106.370003 Z" fill="#232F3E"/><path d=" M 43.310001 106.489998 C 42.611233 106.527954 41.933464 106.244324 41.470001 105.720001 C 40.603985 104.392052 40.603985 102.677956 41.470001 101.349998 C 42.481750 100.331032 44.127968 100.325180 45.146935 101.336929 C 45.151306 101.341270 45.155663 101.345627 45.160004 101.349998 C 46.026020 102.677948 46.026020 104.392044 45.160004 105.720001 C 44.692558 106.244698 44.011688 106.528084 43.310005 106.489998 Z M 43.310001 105.339996 C 43.596321 105.350388 43.857559 105.177567 43.960003 104.909996 C 44.226799 104.016144 44.226799 103.063843 43.960003 102.169998 C 43.860920 101.898483 43.598896 101.721115 43.310001 101.729996 C 43.023819 101.722336 42.765327 101.900047 42.670002 102.169998 C 42.403206 103.063850 42.403206 104.016151 42.670002 104.909996 C 42.768730 105.175995 43.026417 105.349129 43.310001 105.339996 Z" fill="#232F3E"/><path d=" M 47.000000 106.349998 L 47.000000 100.720001 L 48.349998 100.720001 L 48.529999 101.449997 C 48.730946 101.209991 48.975178 101.009857 49.250000 100.860001 C 49.479919 100.734291 49.737957 100.668915 50.000000 100.669998 C 50.129810 100.660080 50.260189 100.660080 50.389999 100.669998 L 50.389999 102.000000 C 50.176884 101.986336 49.963116 101.986336 49.750000 102.000000 C 49.368164 102.000481 48.991642 102.089478 48.650002 102.260002 L 48.650002 106.370003 Z" fill="#232F3E"/><path d=" M 54.000000 106.349998 L 53.849998 105.839996 C 53.699303 106.046989 53.495441 106.209389 53.259998 106.309998 C 53.017036 106.428444 52.750294 106.489998 52.480000 106.489998 C 52.034748 106.502617 51.605339 106.324303 51.299999 106.000000 C 50.689266 105.252548 50.732174 104.166916 51.399998 103.470001 C 51.797272 103.133095 52.310314 102.964470 52.829998 103.000000 C 53.144028 103.006668 53.456177 103.050301 53.759998 103.129997 L 53.759998 102.620003 C 53.782143 102.350067 53.726627 102.079422 53.599998 101.840004 C 53.434795 101.688873 53.212612 101.616028 52.989998 101.640007 C 52.385334 101.663467 51.788082 101.781563 51.219997 101.990005 L 51.220001 100.989998 C 51.502705 100.829796 51.810322 100.718239 52.130001 100.659996 C 52.511402 100.579514 52.900200 100.539299 53.290001 100.539993 C 53.833607 100.494026 54.375008 100.650742 54.810001 100.979996 C 55.154774 101.356850 55.325325 101.861237 55.280003 102.369995 L 55.279999 106.309998 Z M 53.000000 105.430000 C 53.301384 105.418922 53.587318 105.293823 53.799999 105.080002 L 53.799999 104.000000 C 53.594059 103.948677 53.382179 103.925140 53.169998 103.930000 C 52.972248 103.913605 52.777618 103.987053 52.639999 104.129997 C 52.500946 104.293694 52.432602 104.505920 52.450001 104.719994 C 52.439713 104.905304 52.492592 105.088631 52.600002 105.239990 C 52.693275 105.366104 52.843319 105.437370 53.000004 105.429993 Z" fill="#232F3E"/></g><g id="ICONS_-_EDIT"><path d=" M 30.000000 33.549999 C 23.209999 33.549999 16.000000 31.450001 16.000000 27.549999 C 16.000000 23.650000 23.209999 21.549999 30.000000 21.549999 C 36.790001 21.549999 44.000000 23.650000 44.000000 27.549999 C 44.000000 31.450001 36.790001 33.549999 30.000000 33.549999 Z M 30.000000 23.549999 C 22.570000 23.549999 18.000000 25.879999 18.000000 27.549999 C 18.000000 29.219999 22.570000 31.549999 30.000000 31.549999 C 37.430000 31.549999 42.000000 29.219999 42.000000 27.549999 C 42.000000 25.879999 37.430000 23.549999 30.000000 23.549999 Z" fill="#FFFFFF"/><rect x="42.000000" y="27.550000" width="2.000000" height="16.000000" fill="#FFFFFF"/><path d=" M 30.000000 62.520000 C 23.209999 62.520000 16.000000 60.380001 16.000000 56.419998 L 16.000000 27.549999 L 18.000000 27.549999 L 18.000000 56.419998 C 18.000000 58.130001 22.559999 60.520000 30.000000 60.520000 C 37.439999 60.520000 42.000000 58.130001 42.000000 56.419998 L 42.000000 53.549999 L 44.000000 53.549999 L 44.000000 56.419998 C 44.000000 60.380001 36.779999 62.520000 30.000000 62.520000 Z" fill="#FFFFFF"/><path d=" M 30.000000 44.080002 C 23.209999 44.080002 16.000000 41.970001 16.000000 38.080002 L 18.000000 38.080002 C 18.000000 39.770000 22.570000 42.080002 30.000000 42.080002 C 37.430000 42.080002 42.000000 39.740002 42.000000 38.080002 L 44.000000 38.080002 C 44.000000 42.000000 36.790001 44.080002 30.000000 44.080002 Z" fill="#FFFFFF"/><path d=" M 30.059999 54.000000 C 23.270000 54.000000 16.059999 51.880001 16.059999 48.000000 L 18.059999 48.000000 C 18.059999 49.680000 22.620001 52.000000 30.059999 52.000000 C 32.884556 52.037785 35.696903 51.622517 38.389999 50.770000 L 39.000000 52.630001 C 36.112236 53.560955 33.094025 54.023479 30.059999 54.000000 Z" fill="#FFFFFF"/><path d=" M 51.099998 63.450001 C 50.547714 63.450001 50.099998 63.002285 50.099998 62.450001 C 50.099998 56.450001 43.230000 49.549999 37.209999 49.549999 C 36.657715 49.549999 36.209999 49.102283 36.209999 48.549999 C 36.209999 47.997715 36.657715 47.549999 37.209999 47.549999 C 43.209999 47.549999 50.099998 40.680000 50.099998 34.660000 C 50.099998 34.107716 50.547714 33.660000 51.099998 33.660000 C 51.652283 33.660000 52.099998 34.107716 52.099998 34.660000 C 52.099998 40.660000 58.970001 47.549999 65.000000 47.549999 C 65.552284 47.549999 66.000000 47.997715 66.000000 48.549999 C 66.000000 49.102283 65.552284 49.549999 65.000000 49.549999 C 59.000000 49.549999 52.099998 56.419998 52.099998 62.450001 C 52.099998 63.002285 51.652283 63.450001 51.099998 63.450001 Z M 41.810001 48.549999 C 45.950508 50.394035 49.260422 53.707512 51.100002 57.849998 C 52.943607 53.706829 56.256832 50.393604 60.400002 48.549999 C 56.255322 46.713619 52.940842 43.402702 51.100002 39.259998 C 49.263195 43.402020 45.952023 46.713192 41.810001 48.549999 Z" fill="#FFFFFF"/><rect x="55.000000" y="26.550000" width="2.000000" height="6.000000" fill="#FFFFFF"/><rect x="53.000000" y="28.550000" width="6.000000" height="2.000000" fill="#FFFFFF"/><rect x="45.000000" y="17.550000" width="2.000000" height="6.000000" fill="#FFFFFF"/><rect x="43.000000" y="19.550000" width="6.000000" height="2.000000" fill="#FFFFFF"/></g></svg>