<svg version="1.1" width="80.000000" height="130.000000" viewBox="0.000000 0.000000 80.000000 130.000000" xmlns="http://www.w3.org/2000/svg" xmlns:xlink="http://www.w3.org/1999/xlink" overflow="hidden"><g id="CARDS"><rect x="1.000000" y="1.000000" width="78.000000" height="78.000000" fill="#232F3E"/><path d=" M 0.000000 0.000000 L 0.000000 80.000000 L 0.000000 80.000000 L 0.000000 130.000000 L 80.000000 130.000000 L 80.000000 80.000000 L 80.000000 80.000000 L 80.000000 0.000000 Z M 1.000000 1.000000 L 79.000000 1.000000 L 79.000000 79.000000 L 1.000000 79.000000 Z" fill="#FFFFFF"/></g><g id="TEXT_-_EDIT"><path d=" M 10.580000 92.349998 L 10.150000 90.529999 L 8.150000 90.529999 L 7.720000 92.349998 L 6.000000 92.349998 L 8.320000 84.720001 L 10.180000 84.720001 L 12.480000 92.349998 Z M 8.400000 89.430000 L 9.890000 89.430000 L 9.130000 86.269997 Z" fill="#232F3E"/><path d=" M 17.780001 92.349998 L 16.840000 86.720001 L 16.000000 92.349998 L 14.080000 92.349998 L 12.300000 84.720001 L 14.000000 84.720001 L 15.060000 90.779999 L 16.000000 85.000000 L 17.830000 85.000000 L 18.770000 90.650002 L 19.770000 84.650002 L 21.430000 84.650002 L 19.650000 92.279999 Z" fill="#232F3E"/><path d=" M 23.740000 89.000000 C 23.241013 88.771332 22.802608 88.428833 22.459999 88.000000 C 22.197676 87.644348 22.060535 87.211830 22.070000 86.769997 C 22.063391 86.354721 22.181856 85.947060 22.410000 85.599998 C 22.635702 85.259720 22.955288 84.992241 23.330000 84.830002 C 23.751814 84.643929 24.209042 84.551804 24.670000 84.560005 C 25.322910 84.562904 25.968740 84.695473 26.570000 84.950005 L 26.570000 86.120003 C 26.014803 85.917786 25.430649 85.806358 24.840000 85.790001 C 24.558348 85.776108 24.280176 85.857094 24.049999 86.020004 C 23.857279 86.175255 23.749664 86.412743 23.759998 86.660004 C 23.750494 86.863945 23.818354 87.063950 23.949999 87.220001 C 24.151878 87.426239 24.393387 87.589516 24.659998 87.700005 L 25.309999 88.019997 C 25.666050 88.187546 26.001598 88.395592 26.309999 88.639999 C 26.538786 88.827263 26.723211 89.062912 26.850000 89.330002 C 26.974148 89.620277 27.032215 89.934525 27.020000 90.250000 C 27.050262 90.886475 26.775427 91.499283 26.280001 91.900002 C 25.704477 92.329575 24.997297 92.545265 24.280001 92.510002 C 23.900173 92.509636 23.521433 92.469414 23.150002 92.389999 C 22.820471 92.326210 22.500965 92.218590 22.200001 92.070000 L 22.200001 90.919998 C 22.527018 91.026825 22.861187 91.110367 23.200001 91.169998 C 23.529299 91.236969 23.864017 91.273788 24.200001 91.279999 C 24.490196 91.277145 24.771364 91.178734 25.000000 91.000000 C 25.206396 90.823906 25.317593 90.560738 25.299999 90.290001 C 25.306087 90.077034 25.231022 89.869705 25.090000 89.709999 C 24.884481 89.515427 24.647888 89.356575 24.389999 89.239998 Z" fill="#232F3E"/><path d=" M 30.809999 92.349998 L 30.809999 84.720001 L 33.330002 84.720001 C 34.228745 84.671806 35.099491 85.040771 35.690002 85.720001 C 36.749569 87.468689 36.749569 89.661316 35.690002 91.410004 C 35.118782 92.086281 34.264023 92.456306 33.380001 92.410004 Z M 32.490002 85.900002 L 32.490002 91.169998 L 33.209999 91.169998 C 33.681904 91.195251 34.128803 90.956390 34.369999 90.549995 C 34.669331 89.959961 34.804058 89.300148 34.759998 88.639992 L 34.759998 88.419998 C 34.803741 87.760979 34.672653 87.102089 34.379997 86.509995 C 34.127907 86.100891 33.669319 85.865814 33.189999 85.899994 Z" fill="#232F3E"/><path d=" M 40.709999 92.349998 L 40.570000 91.839996 C 40.414742 92.042564 40.212154 92.203949 39.980000 92.309998 C 39.733093 92.427322 39.463360 92.488777 39.189999 92.489998 C 38.741539 92.504211 38.308422 92.325874 38.000000 92.000000 C 37.389267 91.252548 37.432175 90.166916 38.099998 89.470001 C 38.499809 89.130592 39.016941 88.961807 39.539997 89.000000 C 39.854027 89.006668 40.166176 89.050301 40.469997 89.129997 L 40.470001 88.620003 C 40.497574 88.349762 40.441738 88.077560 40.310001 87.840004 C 40.145477 87.687714 39.922756 87.614693 39.700001 87.640007 C 39.095547 87.665237 38.498566 87.783279 37.930000 87.990005 L 37.930000 87.000000 C 38.213470 86.841469 38.520802 86.730019 38.840000 86.669998 C 39.222530 86.600090 39.611263 86.569931 40.000000 86.580002 C 40.543797 86.532097 41.085880 86.689018 41.520000 87.020004 C 41.868397 87.395195 42.042641 87.899780 42.000000 88.410004 L 42.000000 92.349998 Z M 39.709999 91.430000 C 40.011841 91.420944 40.298492 91.295532 40.509998 91.080002 L 40.509998 90.000000 C 40.304058 89.948677 40.092178 89.925140 39.879997 89.930000 C 39.682247 89.913605 39.487617 89.987053 39.349998 90.129997 C 39.210945 90.293694 39.142601 90.505920 39.160000 90.719994 C 39.149712 90.905304 39.202591 91.088631 39.310001 91.239990 C 39.395874 91.353592 39.527760 91.423195 39.670002 91.429993 Z" fill="#232F3E"/><path d=" M 46.419998 92.199997 C 46.026688 92.347153 45.609932 92.421692 45.189999 92.419998 C 44.392197 92.570419 43.623508 92.045616 43.473083 91.247818 C 43.440216 91.073509 43.439171 90.894684 43.469997 90.720001 L 43.470001 87.820000 L 42.740002 87.820000 L 42.740002 86.900002 L 43.520000 86.750000 L 43.759998 85.209999 L 45.119999 85.209999 L 45.119999 86.720001 L 46.400002 86.720001 L 46.400002 87.820000 L 45.119999 87.820000 L 45.119999 90.589996 C 45.104324 90.774376 45.153870 90.958412 45.259998 91.109993 C 45.407173 91.233894 45.598850 91.291756 45.789997 91.269997 C 46.002316 91.266800 46.213619 91.239967 46.419998 91.189995 Z" fill="#232F3E"/><path d=" M 50.200001 92.349998 L 50.060001 91.839996 C 49.906902 92.044678 49.703724 92.206528 49.470001 92.309998 C 49.226254 92.426201 48.960022 92.487640 48.690002 92.489998 C 48.244274 92.505234 47.813828 92.326492 47.510002 92.000000 C 47.203972 91.669823 47.045170 91.229507 47.070004 90.779999 C 47.046860 90.286880 47.240486 89.808296 47.600002 89.470001 C 47.993011 89.146538 48.491421 88.979210 49.000004 89.000000 C 49.310680 89.007446 49.619427 89.051079 49.920002 89.129997 L 49.919998 88.620003 C 49.947571 88.349762 49.891735 88.077560 49.759998 87.840004 C 49.595474 87.687714 49.372753 87.614693 49.149998 87.640007 C 48.545544 87.665237 47.948563 87.783279 47.379997 87.990005 L 47.380001 87.000000 C 47.666565 86.840446 47.977356 86.728966 48.299999 86.669998 C 48.678017 86.589485 49.063503 86.549255 49.450001 86.549995 C 50.005116 86.497192 50.559467 86.658134 51.000000 86.999992 C 51.344772 87.376846 51.515324 87.881233 51.470001 88.389992 L 51.470001 92.330002 Z M 49.200001 91.430000 C 49.498344 91.418404 49.780972 91.293190 49.990002 91.080002 L 49.990002 90.000000 C 49.787590 89.947983 49.578915 89.924423 49.370003 89.930000 C 49.169071 89.911972 48.970715 89.985435 48.830002 90.129997 C 48.694664 90.295738 48.626816 90.506424 48.640003 90.719994 C 48.629715 90.905304 48.682594 91.088631 48.790005 91.239990 C 48.882126 91.356667 49.021393 91.426300 49.170006 91.429993 Z" fill="#232F3E"/><path d=" M 52.880001 92.349998 L 52.880001 84.209999 L 54.529999 84.209999 L 54.529999 87.110001 C 54.705982 86.941505 54.913200 86.809021 55.139999 86.720001 C 55.363049 86.631737 55.600159 86.584312 55.840000 86.580002 C 56.438602 86.545181 57.012959 86.821022 57.360001 87.310005 C 57.751549 87.955635 57.933228 88.706802 57.880001 89.460007 C 57.926579 90.231071 57.738300 90.998138 57.340000 91.660004 C 57.007404 92.171043 56.429108 92.467804 55.820000 92.440002 C 55.555275 92.438156 55.293549 92.383774 55.049999 92.279999 C 54.799263 92.180046 54.571354 92.030373 54.380001 91.839996 L 54.240002 92.349998 Z M 55.299999 87.699997 C 55.022934 87.697105 54.752522 87.784897 54.529999 87.949997 L 54.529999 91.059998 C 54.758671 91.221687 55.030048 91.312141 55.309998 91.320000 C 55.603558 91.331604 55.875465 91.166092 55.999996 90.900002 C 56.168613 90.463989 56.240273 89.996498 56.209995 89.529999 C 56.242279 89.050362 56.170650 88.569412 55.999996 88.119995 C 55.871971 87.852318 55.596432 87.686996 55.299995 87.699997 Z" fill="#232F3E"/><path d=" M 61.930000 92.349998 L 61.779999 91.839996 C 61.629303 92.046989 61.425442 92.209389 61.189999 92.309998 C 60.946251 92.426201 60.680019 92.487640 60.410000 92.489998 C 59.964748 92.502617 59.535339 92.324303 59.230000 92.000000 C 58.923969 91.669823 58.765167 91.229507 58.790001 90.779999 C 58.766857 90.286880 58.960484 89.808296 59.320000 89.470001 C 59.723866 89.137909 60.237988 88.970108 60.759998 89.000000 C 61.074028 89.006668 61.386177 89.050301 61.689999 89.129997 L 61.689999 88.620003 C 61.715195 88.348686 61.655811 88.076225 61.520000 87.840004 C 61.359997 87.686920 61.139851 87.613541 60.920002 87.640007 C 60.312172 87.664215 59.711746 87.782272 59.140003 87.990005 L 59.139999 87.000000 C 59.427074 86.841576 59.737679 86.730164 60.059998 86.669998 C 60.441399 86.589516 60.830196 86.549301 61.219997 86.549995 C 61.760738 86.501686 62.299843 86.658775 62.729996 86.989998 C 63.079227 87.364204 63.250469 87.870636 63.199997 88.379997 L 63.200001 92.320000 Z M 60.930000 91.430000 C 61.231384 91.418922 61.517319 91.293823 61.730000 91.080002 L 61.730000 90.000000 C 61.524059 89.948677 61.312180 89.925140 61.099998 89.930000 C 60.899452 89.914780 60.702248 89.987816 60.559998 90.129997 C 60.428238 90.297188 60.364002 90.507729 60.379997 90.719994 C 60.369709 90.905304 60.422588 91.088631 60.529999 91.239990 C 60.614925 91.354698 60.747375 91.424606 60.889999 91.429993 Z" fill="#232F3E"/><path d=" M 66.599998 90.769997 C 66.599998 90.519997 66.430000 90.309998 66.080002 90.150002 L 65.360001 89.800003 C 64.686485 89.560318 64.234879 88.924881 64.230003 88.210007 C 64.201607 87.740471 64.407570 87.287346 64.780006 87.000008 C 65.202370 86.682838 65.722473 86.523621 66.250008 86.550011 C 66.779655 86.551735 67.302284 86.671295 67.780006 86.900009 L 67.779999 87.900002 C 67.551437 87.820229 67.317520 87.756737 67.080002 87.709999 C 66.882866 87.666542 66.681847 87.643089 66.480003 87.639999 C 65.970001 87.639999 65.709999 87.820000 65.709999 88.180000 C 65.709999 88.540001 65.919998 88.629997 66.349998 88.839996 L 67.070000 89.180000 C 67.376877 89.315102 67.642540 89.529015 67.839996 89.800003 C 68.008255 90.080269 68.091621 90.403313 68.079994 90.730003 C 68.104752 91.215942 67.901352 91.685608 67.529991 92.000000 C 67.105507 92.321449 66.581902 92.484184 66.049988 92.459999 C 65.416115 92.467438 64.790459 92.316177 64.229988 92.019997 L 64.230003 91.019997 C 64.745834 91.217575 65.288704 91.335594 65.840004 91.369995 C 66.044174 91.382927 66.246269 91.322655 66.410004 91.199997 C 66.533348 91.091476 66.602814 90.934265 66.600006 90.769997 Z" fill="#232F3E"/><path d=" M 70.230003 89.919998 C 70.218948 90.311180 70.346451 90.693687 70.590004 91.000000 C 70.885567 91.246262 71.266884 91.364975 71.650002 91.330002 C 71.879204 91.323997 72.107132 91.293831 72.330002 91.240005 C 72.601532 91.190041 72.868942 91.119843 73.130005 91.030006 L 73.129997 92.029999 C 72.871758 92.177193 72.591507 92.281868 72.299995 92.339996 C 71.971474 92.411812 71.636276 92.448685 71.299995 92.449997 C 69.580002 92.449997 68.720001 91.449997 68.720001 89.500000 C 68.665512 88.713959 68.892365 87.934151 69.360001 87.300003 C 69.814651 86.776291 70.487923 86.495148 71.180000 86.540001 C 72.550003 86.540001 73.180000 87.300003 73.180000 88.830002 C 73.179131 89.166870 73.138855 89.502487 73.059998 89.830002 Z M 71.139999 87.599998 C 70.559998 87.599998 70.260002 88.059998 70.230003 88.970001 L 71.839996 88.970001 L 71.839996 88.720001 C 71.865036 88.423065 71.806129 88.125076 71.669998 87.860001 C 71.552505 87.684830 71.350441 87.585701 71.139999 87.599998 Z" fill="#232F3E"/><path d=" M 22.940001 106.349998 L 22.940001 101.000000 L 21.530001 104.459999 L 20.100000 104.459999 L 18.700001 101.000000 L 18.700001 106.320000 L 17.190001 106.320000 L 17.190001 98.720001 L 19.120001 98.720001 L 20.840000 103.000000 L 22.570000 98.730003 L 24.450001 98.730003 L 24.450001 106.360001 Z" fill="#232F3E"/><path d=" M 26.840000 99.809998 C 26.584759 99.822983 26.333181 99.745026 26.130001 99.589996 C 25.958063 99.434639 25.863007 99.211624 25.870001 98.979996 C 25.860191 98.747849 25.955736 98.523689 26.130001 98.369995 C 26.328119 98.204575 26.582521 98.122162 26.840000 98.139992 C 27.094103 98.124771 27.344446 98.207024 27.540001 98.369995 C 27.720451 98.519913 27.820358 98.745628 27.810001 98.979996 C 27.818815 99.214073 27.719198 99.439140 27.540001 99.589996 C 27.342974 99.749374 27.092781 99.828011 26.840000 99.809998 Z M 26.000000 106.349998 L 26.000000 100.720001 L 27.650000 100.720001 L 27.650000 106.349998 Z" fill="#232F3E"/><path d=" M 32.000000 105.709999 C 31.688070 106.047455 31.249540 106.239540 30.790001 106.239998 C 30.214964 106.256142 29.671648 105.976936 29.350000 105.500000 C 28.973475 104.903000 28.788536 104.205116 28.820000 103.500000 C 28.777821 102.757782 28.966455 102.020706 29.360001 101.389999 C 29.682375 100.899895 30.233475 100.609245 30.820000 100.620003 C 31.065832 100.627289 31.307526 100.685165 31.529999 100.790001 C 31.767303 100.897537 31.981314 101.050400 32.160000 101.239998 L 32.279999 100.760002 L 33.630001 100.760002 L 33.630001 106.000000 C 33.630001 107.860001 32.779999 108.790001 31.059999 108.790001 C 30.423319 108.794128 29.795216 108.643105 29.230000 108.349998 L 29.230000 107.349998 C 29.749220 107.547821 30.295420 107.665833 30.850000 107.699997 C 31.090435 107.714272 31.330721 107.669647 31.550001 107.570000 C 31.718622 107.473465 31.843868 107.316017 31.900002 107.129997 C 31.984823 106.803833 32.018559 106.466499 32.000000 106.129997 Z M 31.340000 105.110001 C 31.576286 105.100060 31.805006 105.023819 32.000000 104.889999 L 32.000000 102.000000 C 31.789335 101.838676 31.534939 101.744583 31.270000 101.730003 C 31.000807 101.727432 30.759724 101.896187 30.670000 102.150002 C 30.514036 102.564812 30.445930 103.007492 30.469999 103.450005 C 30.443111 103.887955 30.518429 104.326164 30.689999 104.730003 C 30.815271 104.981140 31.080168 105.131378 31.359999 105.110001 Z" fill="#232F3E"/><path d=" M 35.070000 106.349998 L 35.070000 100.720001 L 36.419998 100.720001 L 36.599998 101.449997 C 36.800945 101.209991 37.045177 101.009857 37.320000 100.860001 C 37.549919 100.734291 37.807957 100.668915 38.070000 100.669998 C 38.199810 100.660080 38.330189 100.660080 38.459999 100.669998 L 38.459999 102.000000 C 38.246883 101.986336 38.033115 101.986336 37.820000 102.000000 C 37.438164 102.000481 37.061642 102.089478 36.720001 102.260002 L 36.720001 106.370003 Z" fill="#232F3E"/><path d=" M 42.110001 106.349998 L 41.959999 105.839996 C 41.809303 106.046989 41.605442 106.209389 41.369999 106.309998 C 41.126694 106.427460 40.860176 106.488968 40.590000 106.489998 C 40.150822 106.513031 39.722321 106.349617 39.410000 106.040001 C 39.103970 105.709824 38.945168 105.269508 38.970001 104.820000 C 38.946857 104.326881 39.140484 103.848297 39.500000 103.510002 C 39.903866 103.177910 40.417988 103.010109 40.939999 103.040001 C 41.254028 103.046669 41.566177 103.090302 41.869999 103.169998 L 41.869999 102.660004 C 41.895195 102.388687 41.835812 102.116226 41.700001 101.880005 C 41.539997 101.726921 41.319851 101.653542 41.100002 101.680008 C 40.492172 101.704216 39.891747 101.822273 39.320004 102.030006 L 39.320000 101.029999 C 39.607075 100.871574 39.917679 100.760162 40.239998 100.699997 C 40.621399 100.619514 41.010197 100.579300 41.399998 100.579994 C 41.943604 100.534027 42.485004 100.690742 42.919998 101.019997 C 43.261158 101.398506 43.428013 101.902695 43.379997 102.409996 L 43.380001 106.349998 Z M 41.110001 105.430000 C 41.411385 105.418922 41.697319 105.293823 41.910000 105.080002 L 41.910000 104.000000 C 41.704060 103.948677 41.492180 103.925140 41.279999 103.930000 C 41.079453 103.914780 40.882248 103.987816 40.739998 104.129997 C 40.608238 104.297188 40.544003 104.507729 40.559998 104.719994 C 40.549709 104.905304 40.602589 105.088631 40.709999 105.239990 C 40.794926 105.354698 40.927376 105.424606 41.070000 105.429993 Z" fill="#232F3E"/><path d=" M 47.820000 106.199997 C 47.426689 106.347153 47.009933 106.421692 46.590000 106.419998 C 46.117683 106.464508 45.646893 106.320755 45.279999 106.019997 C 44.975262 105.658775 44.827633 105.190689 44.869999 104.719994 L 44.869999 101.820000 L 44.130001 101.820000 L 44.130001 100.900002 L 44.919998 100.750000 L 45.160000 99.209999 L 46.520000 99.209999 L 46.520000 100.720001 L 47.790001 100.720001 L 47.790001 101.820000 L 46.520000 101.820000 L 46.520000 104.589996 C 46.504326 104.774376 46.553871 104.958412 46.660000 105.109993 C 46.806587 105.234970 46.998745 105.292976 47.189999 105.269997 C 47.402237 105.265694 47.613422 105.238876 47.820000 105.189995 Z" fill="#232F3E"/><path d=" M 49.560001 99.809998 C 49.304760 99.822983 49.053185 99.745026 48.850002 99.589996 C 48.678066 99.434639 48.583008 99.211624 48.590004 98.979996 C 48.580196 98.747849 48.675739 98.523689 48.850002 98.369995 C 49.048119 98.204575 49.302521 98.122162 49.560001 98.139992 C 49.814102 98.124771 50.064445 98.207024 50.260002 98.369995 C 50.440453 98.519913 50.540359 98.745628 50.530003 98.979996 C 50.538818 99.214073 50.439198 99.439140 50.260002 99.589996 C 50.062973 99.749374 49.812782 99.828011 49.560001 99.809998 Z M 48.730000 106.349998 L 48.730000 100.720001 L 50.380001 100.720001 L 50.380001 106.349998 Z" fill="#232F3E"/><path d=" M 54.070000 106.489998 C 53.371231 106.527954 52.693462 106.244324 52.230000 105.720001 C 51.363983 104.392052 51.363983 102.677956 52.230000 101.349998 C 53.228825 100.333794 54.862331 100.319710 55.878536 101.318535 C 55.889114 101.328934 55.899605 101.339424 55.910000 101.349998 C 56.776016 102.677948 56.776016 104.392044 55.910000 105.720001 C 55.448322 106.246819 54.769287 106.530983 54.070000 106.489998 Z M 54.070000 105.339996 C 54.354492 105.352325 54.613888 105.178047 54.709999 104.909996 C 54.976795 104.016144 54.976795 103.063843 54.709999 102.169998 C 54.567577 101.816536 54.165585 101.645454 53.812122 101.787872 C 53.638092 101.857994 53.500122 101.995964 53.429996 102.169998 C 53.163200 103.063850 53.163200 104.016151 53.429996 104.909996 C 53.526108 105.178047 53.785503 105.352325 54.069996 105.339996 Z" fill="#232F3E"/><path d=" M 60.830002 106.349998 L 60.830002 102.650002 C 60.849316 102.407036 60.797176 102.163719 60.680000 101.950005 C 60.568672 101.793205 60.381149 101.709015 60.189999 101.730003 C 59.897968 101.739677 59.614250 101.829636 59.369999 101.990005 L 59.369999 106.349998 L 57.720001 106.349998 L 57.720001 100.720001 L 59.070000 100.720001 L 59.200001 101.230003 C 59.738033 100.833672 60.382305 100.607300 61.049999 100.580002 C 61.448467 100.553772 61.837635 100.707970 62.110001 101.000000 C 62.379730 101.347038 62.511524 101.781601 62.480000 102.220001 L 62.480000 106.349998 Z" fill="#232F3E"/><path d=" M 24.730000 117.000000 C 24.232723 116.768532 23.794912 116.426491 23.449999 116.000000 C 23.191233 115.643089 23.057642 115.210678 23.070000 114.769997 C 23.059801 114.355682 23.174810 113.947922 23.400000 113.599998 C 23.632124 113.261627 23.954256 112.994911 24.330000 112.830002 C 24.751116 112.641739 25.208838 112.549515 25.670000 112.560005 C 26.319569 112.563965 26.961924 112.696510 27.559999 112.950005 L 27.559999 114.120003 C 27.008253 113.917831 26.427393 113.806381 25.840000 113.790001 C 25.555244 113.776161 25.273926 113.857040 25.040001 114.020004 C 24.847281 114.175255 24.739666 114.412743 24.750000 114.660004 C 24.745146 114.863258 24.812462 115.061668 24.940001 115.220001 C 25.143887 115.428474 25.389143 115.591980 25.660000 115.700005 L 26.309999 116.019997 C 26.667839 116.184235 27.003771 116.392517 27.309999 116.639999 C 27.545288 116.820801 27.731043 117.058159 27.850000 117.330002 C 27.977577 117.619499 28.039066 117.933777 28.030001 118.250000 C 28.060263 118.886475 27.785427 119.499283 27.290001 119.900002 C 26.713343 120.327324 26.006987 120.542763 25.290001 120.510002 C 24.906866 120.509674 24.524807 120.469460 24.150002 120.389999 C 23.804222 120.327065 23.468079 120.219498 23.150002 120.070000 L 23.150000 118.919998 C 23.477161 119.026321 23.811295 119.109856 24.150000 119.169998 C 24.479118 119.238113 24.813944 119.274940 25.150000 119.279999 C 25.457417 119.289337 25.758320 119.190216 26.000000 119.000000 C 26.212818 118.827957 26.328489 118.563034 26.309999 118.290001 C 26.316534 118.075134 26.237391 117.866486 26.090000 117.709999 C 25.886230 117.513252 25.649240 117.354134 25.389999 117.239998 Z" fill="#232F3E"/><path d=" M 30.370001 117.919998 C 30.349251 118.324760 30.477299 118.723129 30.730001 119.040001 C 31.025566 119.286263 31.406881 119.404976 31.790001 119.370003 C 32.019203 119.363998 32.247131 119.333832 32.470001 119.280006 C 32.741528 119.230042 33.008942 119.159843 33.270000 119.070007 L 33.270000 120.070000 C 33.011761 120.217194 32.731506 120.321869 32.439999 120.379997 C 32.111473 120.451813 31.776278 120.488686 31.439999 120.489998 C 29.719999 120.489998 28.860001 119.489998 28.860001 117.540001 C 28.805513 116.753960 29.032366 115.974152 29.500000 115.340004 C 29.954651 114.816292 30.627926 114.535149 31.320000 114.580002 C 32.689999 114.580002 33.369999 115.339996 33.369999 116.870003 C 33.369125 117.206871 33.328854 117.542488 33.250000 117.870003 Z M 31.280001 115.599998 C 30.709999 115.599998 30.400000 116.059998 30.370001 116.970001 L 32.000000 116.970001 L 32.000000 116.720001 C 32.025040 116.423065 31.966135 116.125076 31.830000 115.860001 C 31.708925 115.678207 31.497326 115.578178 31.280001 115.599998 Z" fill="#232F3E"/><path d=" M 34.509998 120.349998 L 34.509998 114.720001 L 35.860001 114.720001 L 36.040001 115.449997 C 36.240948 115.209991 36.485180 115.009857 36.760002 114.860001 C 36.989922 114.734291 37.247959 114.668915 37.510002 114.669998 C 37.639812 114.660080 37.770191 114.660080 37.900002 114.669998 L 37.900002 116.000000 C 37.686886 115.986336 37.473118 115.986336 37.260002 116.000000 C 36.878166 116.000481 36.501644 116.089478 36.160004 116.260002 L 36.160000 120.370003 Z" fill="#232F3E"/><path d=" M 40.320000 120.349998 L 38.459999 114.720001 L 40.209999 114.720001 L 41.099998 118.720001 L 42.020000 114.720001 L 43.720001 114.720001 L 41.869999 120.349998 Z" fill="#232F3E"/><path d=" M 45.340000 113.809998 C 45.084538 113.824768 44.832355 113.746628 44.630001 113.589996 C 44.453274 113.438095 44.357193 113.212677 44.370003 112.979996 C 44.355621 112.747040 44.451988 112.520950 44.630001 112.369995 C 45.050442 112.064751 45.619560 112.064751 46.040001 112.369995 C 46.220451 112.519913 46.320358 112.745628 46.310001 112.979996 C 46.318817 113.214073 46.219196 113.439140 46.040001 113.589996 C 45.842972 113.749374 45.592781 113.828011 45.340000 113.809998 Z M 44.509998 120.349998 L 44.509998 114.720001 L 46.160000 114.720001 L 46.160000 120.349998 Z" fill="#232F3E"/><path d=" M 51.259998 120.089996 C 51.063362 120.213127 50.846798 120.301109 50.619999 120.349998 C 50.354290 120.410645 50.082539 120.440842 49.809998 120.439995 C 49.117512 120.489487 48.440201 120.220772 47.969997 119.709991 C 47.508713 119.088364 47.285229 118.322128 47.339996 117.549988 C 47.289219 116.771988 47.527847 116.002678 48.009995 115.389984 C 48.488075 114.869408 49.174305 114.590515 49.879993 114.629982 C 50.350231 114.627724 50.813824 114.741043 51.229992 114.959984 L 51.230000 115.959999 C 50.909512 115.841644 50.571564 115.777435 50.230000 115.769997 C 49.870422 115.724968 49.514622 115.878006 49.299999 116.169998 C 49.078037 116.561913 48.977127 117.010796 49.009998 117.459999 L 49.009998 117.620003 C 48.973049 118.065079 49.070595 118.511002 49.289997 118.900002 C 49.498989 119.182068 49.840584 119.333885 50.189999 119.300003 C 50.562542 119.291672 50.931026 119.220680 51.279999 119.090004 Z" fill="#232F3E"/><path d=" M 53.520000 117.919998 C 53.508793 118.323456 53.635815 118.718628 53.880001 119.040001 C 54.175568 119.286263 54.556881 119.404976 54.940002 119.370003 C 55.169292 119.365166 55.397346 119.334984 55.620003 119.280006 C 55.894562 119.228943 56.165218 119.158775 56.430004 119.070007 L 56.430000 120.070000 C 56.167084 120.214767 55.883930 120.319267 55.590000 120.379997 C 55.261600 120.452568 54.926323 120.489449 54.590000 120.489998 C 52.869999 120.489998 52.009998 119.489998 52.009998 117.540001 C 51.956959 116.755630 52.179817 115.977402 52.639999 115.340004 C 53.097763 114.814682 53.774765 114.533524 54.470001 114.580002 C 55.830002 114.580002 56.470001 115.339996 56.470001 116.870003 C 56.469128 117.206871 56.428856 117.542488 56.350002 117.870003 Z M 54.439999 115.599998 C 53.860001 115.599998 53.549999 116.059998 53.520000 116.970001 L 55.139999 116.970001 L 55.139999 116.720001 C 55.160442 116.423340 55.101780 116.126572 54.970001 115.860001 C 54.852512 115.684830 54.650444 115.585701 54.440002 115.599998 Z" fill="#232F3E"/></g><g id="ICONS_-_EDIT"><path d=" M 40.000000 27.500000 C 33.209999 27.500000 26.000000 25.400000 26.000000 21.500000 C 26.000000 17.600000 33.209999 15.500000 40.000000 15.500000 C 46.790001 15.500000 54.000000 17.600000 54.000000 21.500000 C 54.000000 25.400000 46.790001 27.500000 40.000000 27.500000 Z M 40.000000 17.500000 C 32.570000 17.500000 28.000000 19.830000 28.000000 21.500000 C 28.000000 23.170000 32.570000 25.500000 40.000000 25.500000 C 47.430000 25.500000 52.000000 23.170000 52.000000 21.500000 C 52.000000 19.830000 47.430000 17.500000 40.000000 17.500000 Z" fill="#FFFFFF"/><path d=" M 40.000000 56.430000 C 33.209999 56.430000 26.000000 54.310001 26.000000 50.369999 L 26.000000 21.500000 L 28.000000 21.500000 L 28.000000 50.369999 C 28.000000 52.060001 32.570000 54.430000 40.000000 54.430000 C 47.430000 54.430000 52.000000 52.060001 52.000000 50.369999 L 52.000000 21.500000 L 54.000000 21.500000 L 54.000000 50.369999 C 54.000000 54.310001 46.790001 56.430000 40.000000 56.430000 Z" fill="#FFFFFF"/><path d=" M 40.000000 37.599998 C 33.230000 37.599998 26.000000 35.480000 26.000000 31.549999 L 28.000000 31.549999 C 28.000000 33.240002 32.560001 35.599998 40.000000 35.599998 C 47.439999 35.599998 52.000000 33.240002 52.000000 31.549999 L 54.000000 31.549999 C 54.000000 35.480000 46.799999 37.599998 40.000000 37.599998 Z" fill="#FFFFFF"/><path d=" M 40.000000 47.529999 C 33.230000 47.529999 26.000000 45.400002 26.000000 41.470001 L 28.000000 41.470001 C 28.000000 43.169998 32.560001 45.529999 40.000000 45.529999 C 47.439999 45.529999 52.000000 43.169998 52.000000 41.470001 L 54.000000 41.470001 C 54.000000 45.400002 46.799999 47.529999 40.000000 47.529999 Z" fill="#FFFFFF"/><rect x="27.000000" y="57.500000" width="2.000000" height="6.000000" fill="#FFFFFF"/><rect x="51.000000" y="57.500000" width="2.000000" height="6.000000" fill="#FFFFFF"/><rect x="35.000000" y="59.500000" width="2.000000" height="6.000000" fill="#FFFFFF"/><rect x="43.000000" y="59.500000" width="2.000000" height="6.000000" fill="#FFFFFF"/></g></svg>