<svg version="1.1" width="80.000000" height="115.000000" viewBox="0.000000 0.000000 80.000000 115.000000" xmlns="http://www.w3.org/2000/svg" xmlns:xlink="http://www.w3.org/1999/xlink" overflow="hidden"><g id="CARDS"><rect x="1.000000" y="1.000000" width="78.000000" height="78.000000" fill="#232F3E"/><path d=" M 0.000000 0.000000 L 0.000000 80.000000 L 0.000000 80.000000 L 0.000000 115.000000 L 80.000000 115.000000 L 80.000000 80.000000 L 80.000000 80.000000 L 80.000000 0.000000 Z M 1.000000 1.000000 L 79.000000 1.000000 L 79.000000 79.000000 L 1.000000 79.000000 Z" fill="#FFFFFF"/></g><g id="TEXT_-_EDIT"><path d=" M 25.350000 92.349998 L 24.920000 90.529999 L 22.920000 90.529999 L 22.500000 92.349998 L 20.719999 92.349998 L 23.000000 84.720001 L 24.900000 84.720001 L 27.209999 92.349998 Z M 23.170000 89.430000 L 24.660000 89.430000 L 23.900000 86.269997 Z" fill="#232F3E"/><path d=" M 34.060001 92.349998 L 34.060001 88.639999 C 34.076664 88.401566 34.028278 88.163086 33.920002 87.949997 C 33.819908 87.796371 33.642418 87.711487 33.460003 87.729996 C 33.174831 87.743271 32.898491 87.833084 32.660004 87.989998 C 32.664822 88.029854 32.664822 88.070145 32.660004 88.110001 L 32.660000 92.349998 L 31.000000 92.349998 L 31.000000 88.639999 C 31.019257 88.402504 30.974358 88.164200 30.870001 87.949997 C 30.765142 87.796478 30.585056 87.712181 30.400002 87.729996 C 30.121338 87.744865 29.851856 87.834694 29.620001 87.989998 L 29.620001 92.349998 L 28.000000 92.349998 L 28.000000 86.720001 L 29.350000 86.720001 L 29.480000 87.230003 C 30.005705 86.838974 30.635632 86.612755 31.289999 86.580002 C 31.787903 86.543671 32.259682 86.807076 32.489998 87.250000 C 33.020988 86.851845 33.657448 86.618820 34.320000 86.580002 C 34.698605 86.567619 35.063778 86.720993 35.320000 87.000000 C 35.580429 87.351334 35.707973 87.783562 35.680000 88.220001 L 35.680000 92.349998 Z" fill="#232F3E"/><path d=" M 40.000000 92.349998 L 39.860001 91.839996 C 39.704742 92.042564 39.502155 92.203949 39.270000 92.309998 C 39.023094 92.427322 38.753361 92.488777 38.480000 92.489998 C 38.038441 92.498497 37.613724 92.320625 37.310001 92.000000 C 37.006588 91.668808 36.851307 91.228241 36.880001 90.779999 C 36.856857 90.286880 37.050484 89.808296 37.410000 89.470001 C 37.807274 89.133095 38.320316 88.964470 38.840000 89.000000 C 39.154030 89.006668 39.466179 89.050301 39.770000 89.129997 L 39.770000 88.620003 C 39.797573 88.349762 39.741737 88.077560 39.610001 87.840004 C 39.445477 87.687714 39.222755 87.614693 39.000000 87.640007 C 38.395546 87.665237 37.798565 87.783279 37.230000 87.990005 L 37.230000 87.000000 C 37.516563 86.840446 37.827354 86.728966 38.149998 86.669998 C 38.528015 86.589485 38.913502 86.549255 39.299999 86.549995 C 39.843796 86.502090 40.385880 86.659012 40.820000 86.989998 C 41.164772 87.366852 41.335323 87.871239 41.290001 88.379997 L 41.290001 92.320000 Z M 39.000000 91.430000 C 39.298344 91.418404 39.580971 91.293190 39.790001 91.080002 L 39.790001 90.000000 C 39.587475 89.948616 39.378887 89.925064 39.170002 89.930000 C 38.969070 89.911972 38.770714 89.985435 38.630001 90.129997 C 38.490948 90.293694 38.422604 90.505920 38.440002 90.719994 C 38.429714 90.905304 38.482594 91.088631 38.590004 91.239990 C 38.687565 91.366325 38.840549 91.437218 39.000004 91.429993 Z" fill="#232F3E"/><path d=" M 42.279999 92.349998 L 42.279999 91.279999 L 44.770000 87.879997 L 42.369999 87.879997 L 42.369999 86.720001 L 46.509998 86.720001 L 46.509998 87.790001 L 44.000000 91.190002 L 46.540001 91.190002 L 46.540001 92.349998 Z" fill="#232F3E"/><path d=" M 49.790001 92.489998 C 49.108715 92.511253 48.453094 92.229225 48.000000 91.720001 C 47.133984 90.392052 47.133984 88.677956 48.000000 87.349998 C 49.011749 86.331032 50.657967 86.325180 51.676933 87.336929 C 51.681305 87.341270 51.685661 87.345627 51.690002 87.349998 C 52.556019 88.677948 52.556019 90.392044 51.690002 91.720001 C 51.211487 92.259041 50.508781 92.543823 49.790001 92.489998 Z M 49.790001 91.339996 C 50.076321 91.350388 50.337559 91.177567 50.440002 90.909996 C 50.706799 90.016144 50.706799 89.063843 50.440002 88.169998 C 50.304638 87.813774 49.906124 87.634735 49.549900 87.770103 C 49.365585 87.840141 49.220043 87.985687 49.150002 88.169998 C 48.883205 89.063850 48.883205 90.016151 49.150002 90.909996 C 49.248730 91.175995 49.506416 91.349129 49.790001 91.339996 Z" fill="#232F3E"/><path d=" M 56.549999 92.349998 L 56.549999 88.650002 C 56.566494 88.408363 56.518166 88.166710 56.410000 87.950005 C 56.294102 87.793236 56.103878 87.709541 55.910000 87.730003 C 55.621128 87.739960 55.340698 87.829971 55.099998 87.990005 L 55.099998 92.349998 L 53.439999 92.349998 L 53.439999 86.720001 L 54.790001 86.720001 L 54.930000 87.230003 C 55.464371 86.833908 56.105400 86.607452 56.770000 86.580002 C 57.171432 86.553581 57.563728 86.707565 57.840000 87.000000 C 58.102020 87.350540 58.229740 87.783371 58.200001 88.220001 L 58.200001 92.349998 Z" fill="#232F3E"/><path d=" M 14.240000 106.349998 L 14.240000 98.720001 L 16.750000 98.720001 C 17.651911 98.670197 18.526379 99.039169 19.120001 99.720001 C 20.179567 101.468689 20.179567 103.661316 19.120001 105.410004 C 18.545662 106.087883 17.687181 106.457916 16.800001 106.410004 Z M 15.920000 99.900002 L 15.920000 105.169998 L 16.629999 105.169998 C 17.104904 105.196777 17.555492 104.958000 17.799999 104.549995 C 18.099333 103.959961 18.234060 103.300148 18.189999 102.639992 L 18.190001 102.419998 C 18.233744 101.760979 18.102657 101.102089 17.810001 100.509995 C 17.557911 100.100891 17.099321 99.865814 16.620001 99.899994 Z" fill="#232F3E"/><path d=" M 22.559999 106.459999 L 20.559999 100.720001 L 22.309999 100.720001 L 23.240000 104.860001 L 24.139999 100.720001 L 25.840000 100.720001 L 23.840000 107.199997 C 23.734825 107.649590 23.502193 108.059303 23.170000 108.379997 C 22.856201 108.631195 22.461498 108.759209 22.059999 108.739998 C 21.700706 108.739273 21.343500 108.685356 21.000000 108.579994 L 21.000000 107.580002 C 21.193108 107.593239 21.386894 107.593239 21.580000 107.580002 C 21.829409 107.595459 22.075565 107.516968 22.270000 107.360001 C 22.446960 107.152000 22.552162 106.892509 22.570000 106.620003 Z" fill="#232F3E"/><path d=" M 29.719999 106.349998 L 29.719999 102.650002 C 29.739313 102.407036 29.687176 102.163719 29.570000 101.950005 C 29.458672 101.793205 29.271149 101.709015 29.080000 101.730003 C 28.787970 101.739677 28.504251 101.829636 28.260000 101.990005 L 28.260000 106.349998 L 26.610001 106.349998 L 26.610001 100.720001 L 28.000000 100.720001 L 28.129999 101.230003 C 28.668034 100.833672 29.312305 100.607300 29.980000 100.580002 C 30.364765 100.565758 30.736822 100.718956 31.000000 101.000000 C 31.269730 101.347038 31.401524 101.781601 31.370001 102.220001 L 31.370001 106.349998 Z" fill="#232F3E"/><path d=" M 35.669998 106.349998 L 35.520000 105.839996 C 35.369305 106.046989 35.165443 106.209389 34.930000 106.309998 C 34.687038 106.428444 34.420296 106.489998 34.150002 106.489998 C 33.715126 106.494102 33.298275 106.316490 33.000000 106.000000 C 32.389267 105.252548 32.432175 104.166916 33.099998 103.470001 C 33.489616 103.140472 33.990459 102.972328 34.500000 103.000000 C 34.814030 103.006668 35.126179 103.050301 35.430000 103.129997 L 35.430000 102.620003 C 35.452145 102.350067 35.396629 102.079422 35.270000 101.840004 C 35.104797 101.688873 34.882614 101.616028 34.660000 101.640007 C 34.055546 101.665237 33.458565 101.783279 32.889999 101.990005 L 32.889999 100.989998 C 33.172703 100.829796 33.480320 100.718239 33.799999 100.659996 C 34.181400 100.579514 34.570198 100.539299 34.959999 100.539993 C 35.503605 100.494026 36.045006 100.650742 36.480000 100.979996 C 36.824772 101.356850 36.995323 101.861237 36.950001 102.369995 L 36.950001 106.309998 Z M 34.669998 105.430000 C 34.971382 105.418922 35.257317 105.293823 35.469997 105.080002 L 35.470001 104.000000 C 35.264061 103.948677 35.052181 103.925140 34.840000 103.930000 C 34.642250 103.913605 34.447620 103.987053 34.310001 104.129997 C 34.170948 104.293694 34.102604 104.505920 34.120003 104.719994 C 34.109715 104.905304 34.162594 105.088631 34.270004 105.239990 C 34.354931 105.354698 34.487381 105.424606 34.630005 105.429993 Z" fill="#232F3E"/><path d=" M 44.419998 106.349998 L 44.419998 102.639999 C 44.436661 102.401566 44.388275 102.163086 44.279999 101.949997 C 44.176632 101.794739 43.995438 101.709923 43.809998 101.729996 C 43.520142 101.742920 43.239635 101.836418 42.999996 101.999992 C 43.004913 102.039841 43.004913 102.080147 42.999996 102.119995 L 43.000000 106.360001 L 41.380001 106.360001 L 41.380001 102.650002 C 41.396664 102.411568 41.348278 102.173088 41.240002 101.959999 C 41.138390 101.808113 40.962017 101.723763 40.780003 101.739998 C 40.501431 101.755356 40.232075 101.845139 40.000004 102.000000 L 40.000000 106.360001 L 38.340000 106.360001 L 38.340000 100.730003 L 39.689999 100.730003 L 39.830002 101.239998 C 40.352047 100.849220 40.978729 100.622917 41.630001 100.589996 C 42.130238 100.554855 42.604317 100.817360 42.840000 101.259995 C 43.370991 100.861839 44.007450 100.628815 44.670002 100.589996 C 45.048359 100.578949 45.413002 100.732101 45.670002 101.009995 C 45.930431 101.361328 46.057976 101.793556 46.030003 102.229996 L 46.029999 106.360001 Z" fill="#232F3E"/><path d=" M 49.689999 106.489998 C 48.991230 106.527954 48.313461 106.244324 47.849998 105.720001 C 46.983982 104.392052 46.983982 102.677956 47.849998 101.349998 C 48.861748 100.331032 50.507965 100.325180 51.526932 101.336929 C 51.531303 101.341270 51.535660 101.345627 51.540001 101.349998 C 52.406017 102.677948 52.406017 104.392044 51.540001 105.720001 C 51.072556 106.244698 50.391685 106.528084 49.690002 106.489998 Z M 49.689999 105.339996 C 49.976318 105.350388 50.237556 105.177567 50.340000 104.909996 C 50.606796 104.016144 50.606796 103.063843 50.340000 102.169998 C 50.240917 101.898483 49.978893 101.721115 49.689999 101.729996 C 49.403816 101.722336 49.145325 101.900047 49.049999 102.169998 C 48.783203 103.063850 48.783203 104.016151 49.049999 104.909996 C 49.148727 105.175995 49.406414 105.349129 49.689999 105.339996 Z" fill="#232F3E"/><path d=" M 53.450001 106.349998 L 53.450001 98.720001 L 56.000000 98.720001 C 56.899010 98.670280 57.770401 99.039513 58.360001 99.720001 C 58.954468 100.542496 59.241154 101.547661 59.170002 102.559998 C 59.238834 103.573708 58.956314 104.580185 58.370003 105.409996 C 57.798782 106.086273 56.944023 106.456299 56.060001 106.409996 Z M 55.139999 99.900002 L 55.139999 105.169998 L 55.849998 105.169998 C 56.323917 105.192314 56.772354 104.954681 57.019997 104.549995 C 57.310421 103.957146 57.441391 103.298859 57.399998 102.639992 L 57.400002 102.419998 C 57.448650 101.760666 57.317310 101.100502 57.020000 100.509995 C 56.771214 100.102509 56.316315 99.867348 55.840000 99.899994 Z" fill="#232F3E"/><path d=" M 60.560001 106.349998 L 60.560001 98.720001 L 63.080002 98.720001 C 63.676914 98.698769 64.260735 98.898125 64.720001 99.279999 C 65.137184 99.652626 65.367882 100.190910 65.349998 100.750000 C 65.364204 101.100403 65.277428 101.447510 65.099998 101.750000 C 64.925110 102.023499 64.670219 102.236488 64.369995 102.360001 C 64.767570 102.473686 65.118118 102.712059 65.369995 103.040001 C 65.946007 103.914436 65.797318 105.078438 65.019997 105.779999 C 64.486893 106.193230 63.823723 106.402466 63.149998 106.369995 Z M 62.150002 99.820000 L 62.150002 101.930000 L 62.820000 101.930000 C 63.072369 101.944092 63.317921 101.845139 63.489998 101.660004 C 63.661991 101.441597 63.747437 101.167458 63.730000 100.890007 C 63.746765 100.610947 63.673122 100.333908 63.520000 100.100006 C 63.379406 99.917717 63.160122 99.813652 62.930000 99.820007 Z M 62.150002 102.980003 L 62.150002 105.250000 L 63.150002 105.250000 C 63.418076 105.264053 63.678429 105.157715 63.860001 104.959999 C 64.039581 104.718140 64.128105 104.420692 64.110001 104.120003 C 64.132523 103.813858 64.031708 103.511406 63.830002 103.280006 C 63.611103 103.064018 63.305004 102.960754 63.000000 103.000008 Z" fill="#232F3E"/></g><g id="ICONS_-_EDIT"><path d=" M 38.750000 29.000000 C 30.510000 29.000000 21.750000 26.559999 21.750000 22.000000 C 21.750000 17.440001 30.510000 15.000000 38.750000 15.000000 C 42.911755 14.908253 47.054638 15.586302 50.970001 17.000000 L 50.209999 18.850000 C 46.535465 17.536966 42.651043 16.909901 38.750000 17.000000 C 30.170000 17.000000 23.750000 19.620001 23.750000 22.000000 C 23.750000 24.379999 30.170000 27.000000 38.750000 27.000000 L 39.459999 27.000000 L 39.540001 29.000000 Z" fill="#FFFFFF"/><path d=" M 36.730000 36.919998 C 31.570000 36.689999 27.059999 35.570000 24.360001 33.849998 C 22.219999 32.459999 21.760000 31.000000 21.750000 30.000000 L 23.750000 30.000000 L 23.750000 30.000000 C 23.750000 30.670000 24.360001 31.430000 25.440001 32.139999 C 27.809999 33.650002 32.070000 34.680000 36.820000 34.900002 Z" fill="#FFFFFF"/><path d=" M 54.750000 59.000000 C 54.197716 59.000000 53.750000 58.552284 53.750000 58.000000 L 53.750000 50.000000 C 53.750000 49.447716 54.197716 49.000000 54.750000 49.000000 C 55.302284 49.000000 55.750000 49.447716 55.750000 50.000000 L 55.750000 58.000000 C 55.750000 58.552284 55.302284 59.000000 54.750000 59.000000 Z" fill="#FFFFFF"/><path d=" M 22.750000 31.000000 C 22.197716 31.000000 21.750000 30.552284 21.750000 30.000000 L 21.750000 22.000000 C 21.750000 21.447716 22.197716 21.000000 22.750000 21.000000 C 23.302284 21.000000 23.750000 21.447716 23.750000 22.000000 L 23.750000 30.000000 C 23.750000 30.552284 23.302284 31.000000 22.750000 31.000000 Z" fill="#FFFFFF"/><path d=" M 38.750000 43.000000 C 30.510000 43.000000 21.750000 40.560001 21.750000 36.000000 C 21.750000 35.000000 22.200001 33.549999 24.360001 32.160000 L 25.440001 33.849998 C 24.670000 34.340000 23.750000 35.119999 23.750000 36.000000 C 23.750000 38.340000 30.170000 41.000000 38.750000 41.000000 C 39.619999 41.000000 40.480000 41.000000 41.320000 40.919998 L 41.459999 42.919998 C 40.580002 42.930000 39.669998 43.000000 38.750000 43.000000 Z" fill="#FFFFFF"/><path d=" M 39.139999 51.000000 L 38.750000 51.000000 C 32.750000 51.000000 27.430000 49.840000 24.360001 47.880001 C 22.219999 46.459999 21.760000 45.000000 21.750000 44.000000 L 23.750000 44.000000 C 23.750000 44.700001 24.360001 45.459999 25.440001 46.169998 C 28.150000 47.900002 33.250000 49.000000 38.750000 49.000000 L 39.139999 49.000000 Z" fill="#FFFFFF"/><path d=" M 51.169998 48.860001 L 50.410000 47.000000 C 50.982311 46.773174 51.531502 46.491882 52.049999 46.160000 C 52.830002 45.650002 53.750000 44.869999 53.750000 44.000000 L 55.750000 44.000000 C 55.750000 45.410000 54.880001 46.700001 53.150002 47.830002 C 52.524086 48.235226 51.861111 48.580105 51.170002 48.860001 Z" fill="#FFFFFF"/><path d=" M 22.750000 45.000000 C 22.197716 45.000000 21.750000 44.552284 21.750000 44.000000 L 21.750000 36.000000 C 21.750000 35.447716 22.197716 35.000000 22.750000 35.000000 C 23.302284 35.000000 23.750000 35.447716 23.750000 36.000000 L 23.750000 44.000000 C 23.750000 44.552284 23.302284 45.000000 22.750000 45.000000 Z" fill="#FFFFFF"/><path d=" M 38.750000 57.000000 C 30.510000 57.000000 21.750000 54.560001 21.750000 50.000000 C 21.750000 49.000000 22.200001 47.560001 24.360001 46.169998 L 25.440001 47.860001 C 24.670000 48.349998 23.750000 49.130001 23.750000 50.000000 C 23.750000 52.349998 30.170000 55.000000 38.750000 55.000000 C 47.330002 55.000000 53.750000 52.380001 53.750000 50.000000 C 53.750000 49.130001 52.830002 48.349998 52.060001 47.860001 L 53.139999 46.169998 C 55.299999 47.549999 55.750000 49.000000 55.750000 50.000000 C 55.750000 54.520000 47.000000 57.000000 38.750000 57.000000 Z" fill="#FFFFFF"/><path d=" M 38.750000 65.000000 C 30.510000 65.000000 21.750000 62.560001 21.750000 58.000000 L 23.750000 58.000000 C 23.750000 60.340000 30.170000 63.000000 38.750000 63.000000 C 47.330002 63.000000 53.750000 60.380001 53.750000 58.000000 L 55.750000 58.000000 C 55.750000 62.529999 47.000000 65.000000 38.750000 65.000000 Z" fill="#FFFFFF"/><path d=" M 22.750000 59.000000 C 22.197716 59.000000 21.750000 58.552284 21.750000 58.000000 L 21.750000 50.000000 C 21.750000 49.447716 22.197716 49.000000 22.750000 49.000000 C 23.302284 49.000000 23.750000 49.447716 23.750000 50.000000 L 23.750000 58.000000 C 23.750000 58.552284 23.302284 59.000000 22.750000 59.000000 Z" fill="#FFFFFF"/><circle cx="26.750000" cy="30.020000" r="1.250000" fill="#FFFFFF"/><circle cx="26.750000" cy="44.020000" r="1.250000" fill="#FFFFFF"/><circle cx="26.750000" cy="58.020000" r="1.250000" fill="#FFFFFF"/><path d=" M 41.250000 54.000000 C 41.074825 54.001209 40.902405 53.956379 40.750000 53.869999 C 40.349155 53.639187 40.158913 53.163586 40.290001 52.719997 L 45.910000 34.000000 L 40.250000 34.000000 C 39.904499 34.000690 39.583115 33.822987 39.400002 33.529999 C 39.221367 33.220596 39.221367 32.839401 39.400002 32.529999 L 45.400002 20.530001 C 45.566662 20.189835 45.911217 19.973036 46.290001 19.970001 L 59.290001 19.969999 C 59.841507 19.940695 60.312347 20.364025 60.341652 20.915531 C 60.348400 21.042503 60.330868 21.169596 60.290001 21.289999 L 57.639999 29.000000 L 63.250000 29.000000 C 63.651279 29.000326 64.013504 29.240496 64.169998 29.610001 C 64.324699 29.977669 64.246101 30.402109 63.969997 30.690001 L 41.970001 53.689999 C 41.782192 53.887012 41.522190 53.998959 41.250000 54.000000 Z M 41.869999 32.000000 L 47.250000 32.000000 C 47.801769 31.976110 48.268433 32.404037 48.292320 32.955807 C 48.297211 33.068798 48.282902 33.181797 48.250000 33.290001 L 43.439999 49.290001 L 60.910000 31.000000 L 56.250000 31.000000 C 55.698399 31.027430 55.228996 30.602505 55.201569 30.050901 C 55.195488 29.928650 55.211906 29.806322 55.250000 29.690001 L 57.860001 22.000000 L 46.860001 22.000000 Z" fill="#FFFFFF"/></g></svg>