<svg version="1.1" viewBox="0.000000 0.000000 80.000000 130.000000" xmlns="http://www.w3.org/2000/svg" xmlns:xlink="http://www.w3.org/1999/xlink" overflow="hidden"><defs></defs><g id="CARDS"><rect x="1.000000" y="1.000000" width="78.000000" height="78.000000" fill="#232F3E"/><path d=" M 0.000000 0.000000 L 0.000000 80.000000 L 0.000000 80.000000 L 0.000000 130.000000 L 80.000000 130.000000 L 80.000000 80.000000 L 80.000000 80.000000 L 80.000000 0.000000 Z M 1.000000 1.000000 L 79.000000 1.000000 L 79.000000 79.000000 L 1.000000 79.000000 Z" fill="#FFFFFF"/></g><g id="TEXT_-_EDIT"><path d=" M 25.350000 92.349998 L 24.920000 90.529999 L 22.920000 90.529999 L 22.500000 92.349998 L 20.719999 92.349998 L 23.000000 84.720001 L 24.900000 84.720001 L 27.209999 92.349998 Z M 23.170000 89.430000 L 24.660000 89.430000 L 23.900000 86.269997 Z" fill="#232F3E"/><path d=" M 34.060001 92.349998 L 34.060001 88.639999 C 34.076664 88.401566 34.028278 88.163086 33.920002 87.949997 C 33.818390 87.798111 33.642017 87.713760 33.460003 87.729996 C 33.174561 87.741776 32.897831 87.831711 32.660004 87.989998 C 32.664921 88.029846 32.664921 88.070152 32.660004 88.110001 L 32.660000 92.349998 L 31.000000 92.349998 L 31.000000 88.639999 C 31.019257 88.402504 30.974358 88.164200 30.870001 87.949997 C 30.765142 87.796478 30.585056 87.712181 30.400002 87.729996 C 30.121338 87.744865 29.851856 87.834694 29.620001 87.989998 L 29.620001 92.349998 L 28.000000 92.349998 L 28.000000 86.720001 L 29.350000 86.720001 L 29.480000 87.230003 C 30.005127 86.837898 30.635393 86.611557 31.289999 86.580002 C 31.787903 86.543671 32.259682 86.807076 32.489998 87.250000 C 33.020988 86.851845 33.657448 86.618820 34.320000 86.580002 C 34.698605 86.567619 35.063778 86.720993 35.320000 87.000000 C 35.580429 87.351334 35.707973 87.783562 35.680000 88.220001 L 35.680000 92.349998 Z" fill="#232F3E"/><path d=" M 40.000000 92.349998 L 39.860001 91.839996 C 39.704742 92.042564 39.502155 92.203949 39.270000 92.309998 C 39.023094 92.427322 38.753361 92.488777 38.480000 92.489998 C 38.038441 92.498497 37.613724 92.320625 37.310001 92.000000 C 37.006588 91.668808 36.851307 91.228241 36.880001 90.779999 C 36.856857 90.286880 37.050484 89.808296 37.410000 89.470001 C 37.807274 89.133095 38.320316 88.964470 38.840000 89.000000 C 39.154030 89.006668 39.466179 89.050301 39.770000 89.129997 L 39.770000 88.620003 C 39.797573 88.349762 39.741737 88.077560 39.610001 87.840004 C 39.445477 87.687714 39.222755 87.614693 39.000000 87.640007 C 38.395546 87.665237 37.798565 87.783279 37.230000 87.990005 L 37.230000 87.000000 C 37.513470 86.841469 37.820801 86.730019 38.139999 86.669998 C 38.521481 86.590019 38.910225 86.549805 39.299999 86.549995 C 39.843796 86.502090 40.385880 86.659012 40.820000 86.989998 C 41.164772 87.366852 41.335323 87.871239 41.290001 88.379997 L 41.290001 92.320000 Z M 39.000000 91.430000 C 39.298344 91.418404 39.580971 91.293190 39.790001 91.080002 L 39.790001 90.000000 C 39.584171 89.948074 39.372208 89.924522 39.160000 89.930000 C 38.962250 89.913605 38.767620 89.987053 38.630001 90.129997 C 38.490948 90.293694 38.422604 90.505920 38.440002 90.719994 C 38.429714 90.905304 38.482594 91.088631 38.590004 91.239990 C 38.687565 91.366325 38.840549 91.437218 39.000004 91.429993 Z" fill="#232F3E"/><path d=" M 42.279999 92.349998 L 42.279999 91.279999 L 44.770000 87.879997 L 42.369999 87.879997 L 42.369999 86.720001 L 46.509998 86.720001 L 46.509998 87.790001 L 44.000000 91.190002 L 46.540001 91.190002 L 46.540001 92.349998 Z" fill="#232F3E"/><path d=" M 49.790001 92.489998 C 49.108448 92.512650 48.452259 92.230377 48.000000 91.720001 C 47.133984 90.392052 47.133984 88.677956 48.000000 87.349998 C 49.011749 86.331032 50.657967 86.325180 51.676933 87.336929 C 51.681305 87.341270 51.685661 87.345627 51.690002 87.349998 C 52.556019 88.677948 52.556019 90.392044 51.690002 91.720001 C 51.211487 92.259041 50.508781 92.543823 49.790001 92.489998 Z M 49.790001 91.339996 C 50.076321 91.350388 50.337559 91.177567 50.440002 90.909996 C 50.706799 90.016144 50.706799 89.063843 50.440002 88.169998 C 50.304638 87.813774 49.906124 87.634735 49.549900 87.770103 C 49.365585 87.840141 49.220043 87.985687 49.150002 88.169998 C 48.883205 89.063850 48.883205 90.016151 49.150002 90.909996 C 49.248730 91.175995 49.506416 91.349129 49.790001 91.339996 Z" fill="#232F3E"/><path d=" M 56.549999 92.349998 L 56.549999 88.650002 C 56.566494 88.408363 56.518166 88.166710 56.410000 87.950005 C 56.294102 87.793236 56.103878 87.709541 55.910000 87.730003 C 55.618229 87.741188 55.334908 87.831024 55.090000 87.990005 L 55.090000 92.349998 L 53.439999 92.349998 L 53.439999 86.720001 L 54.790001 86.720001 L 54.930000 87.230003 C 55.464371 86.833908 56.105400 86.607452 56.770000 86.580002 C 57.171432 86.553581 57.563728 86.707565 57.840000 87.000000 C 58.102020 87.350540 58.229740 87.783371 58.200001 88.220001 L 58.200001 92.349998 Z" fill="#232F3E"/><path d=" M 13.560000 106.349998 L 13.560000 98.720001 L 18.100000 98.720001 L 18.100000 99.900002 L 15.250000 99.900002 L 15.250000 101.849998 L 17.540001 101.849998 L 17.540001 103.000000 L 15.250000 103.000000 L 15.250000 105.150002 L 18.100000 105.150002 L 18.100000 106.330002 Z" fill="#232F3E"/><path d=" M 21.620001 106.250000 C 21.299803 106.366165 20.960457 106.420456 20.620001 106.410004 C 20.223938 106.444443 19.831741 106.310081 19.540001 106.040001 C 19.276512 105.729019 19.147055 105.326263 19.180000 104.919998 L 19.180000 98.209999 L 20.830000 98.209999 L 20.830000 104.750000 C 20.819199 104.888161 20.846889 105.026619 20.910000 105.150002 C 20.989672 105.241310 21.109936 105.286407 21.230000 105.270004 C 21.346470 105.279564 21.463528 105.279564 21.580000 105.270004 Z" fill="#232F3E"/><path d=" M 25.540001 106.349998 L 25.389999 105.839996 C 25.236902 106.044678 25.033724 106.206528 24.799999 106.309998 C 24.556252 106.426201 24.290020 106.487640 24.019999 106.489998 C 23.580818 106.513031 23.152317 106.349617 22.839998 106.040001 C 22.533968 105.709824 22.375166 105.269508 22.399998 104.820000 C 22.376856 104.326881 22.570480 103.848297 22.929998 103.510002 C 23.333862 103.177910 23.847986 103.010109 24.369999 103.040001 C 24.680765 103.046326 24.989647 103.089973 25.289999 103.169998 L 25.290001 102.660004 C 25.317574 102.389763 25.261738 102.117561 25.130001 101.880005 C 24.965479 101.727715 24.742754 101.654694 24.520000 101.680008 C 23.915546 101.705238 23.318567 101.823280 22.750000 102.030006 L 22.750000 101.029999 C 23.037077 100.871574 23.347679 100.760162 23.670000 100.699997 C 24.051403 100.619514 24.440199 100.579300 24.830000 100.579994 C 25.370548 100.533653 25.908953 100.690544 26.340000 101.019997 C 26.689232 101.394203 26.860474 101.900635 26.809999 102.409996 L 26.809999 106.349998 Z M 24.540001 105.430000 C 24.838346 105.418404 25.120972 105.293190 25.330002 105.080002 L 25.330000 104.000000 C 25.127586 103.947983 24.918915 103.924423 24.709999 103.930000 C 24.509453 103.914780 24.312248 103.987816 24.169998 104.129997 C 24.038237 104.297188 23.974003 104.507729 23.989998 104.719994 C 23.979708 104.905304 24.032591 105.088631 24.139997 105.239990 C 24.224924 105.354698 24.357374 105.424606 24.499998 105.429993 Z" fill="#232F3E"/><path d=" M 30.209999 104.769997 C 30.209999 104.519997 30.040001 104.309998 29.690001 104.150002 L 29.000000 103.800003 C 28.322706 103.565338 27.868898 102.926796 27.870001 102.210007 C 27.851606 101.750854 28.056538 101.311180 28.420000 101.030006 C 28.842360 100.712837 29.362471 100.553619 29.889999 100.580009 C 30.419649 100.581734 30.942278 100.701294 31.420000 100.930008 L 31.420000 101.930000 C 31.191442 101.850227 30.957523 101.786736 30.719999 101.739998 C 30.522863 101.696541 30.321846 101.673088 30.119999 101.669998 C 29.610001 101.669998 29.350000 101.849998 29.350000 102.209999 C 29.350000 102.570000 29.559999 102.660004 29.990000 102.870003 L 30.709999 103.209999 C 31.016876 103.345100 31.282536 103.559013 31.480000 103.830002 C 31.648260 104.110268 31.731627 104.433311 31.719999 104.760002 C 31.744759 105.245941 31.541359 105.715607 31.170000 106.029999 C 30.745514 106.351448 30.221912 106.514183 29.690001 106.489998 C 29.056129 106.497437 28.430470 106.346176 27.870001 106.049995 L 27.870001 105.050003 C 28.385830 105.247581 28.928698 105.365601 29.480001 105.400002 C 29.684174 105.412933 29.886271 105.352661 30.050001 105.230003 C 30.170710 105.109100 30.229628 104.939713 30.210001 104.770004 Z" fill="#232F3E"/><path d=" M 35.660000 106.199997 C 35.266232 106.345474 34.849781 106.419960 34.430000 106.419998 C 33.954887 106.461807 33.481987 106.318504 33.110001 106.019997 C 32.809147 105.656647 32.662037 105.190201 32.700001 104.719994 L 32.700001 101.820000 L 32.000000 101.820000 L 32.000000 100.900002 L 32.779999 100.750000 L 33.000000 99.209999 L 34.360001 99.209999 L 34.360001 100.720001 L 35.639999 100.720001 L 35.639999 101.820000 L 34.349998 101.820000 L 34.349998 104.589996 C 34.331528 104.776146 34.385220 104.962288 34.500000 105.109993 C 34.646587 105.234970 34.838745 105.292976 35.029999 105.269997 C 35.242237 105.265694 35.453423 105.238876 35.660000 105.189995 Z" fill="#232F3E"/><path d=" M 37.400002 99.809998 C 37.144760 99.822983 36.893185 99.745026 36.690002 99.589996 C 36.513275 99.438095 36.417194 99.212677 36.430004 98.979996 C 36.415623 98.747040 36.511990 98.520950 36.690002 98.369995 C 36.888119 98.204575 37.142521 98.122162 37.400002 98.139992 C 37.654102 98.124771 37.904446 98.207024 38.100002 98.369995 C 38.280453 98.519913 38.380360 98.745628 38.370003 98.979996 C 38.378819 99.214073 38.279198 99.439140 38.100002 99.589996 C 37.902973 99.749374 37.652782 99.828011 37.400002 99.809998 Z M 36.570000 106.349998 L 36.570000 100.720001 L 38.220001 100.720001 L 38.220001 106.349998 Z" fill="#232F3E"/><path d=" M 44.730000 106.129997 C 44.161667 106.360519 43.553272 106.476074 42.939999 106.469994 C 40.700001 106.470001 39.570000 105.169998 39.570000 102.570000 C 39.498547 101.512779 39.811020 100.465294 40.450001 99.620003 C 41.099339 98.922134 42.029007 98.554680 42.980000 98.620003 C 43.543499 98.620705 44.102318 98.722313 44.630001 98.920006 L 44.630001 100.129997 C 44.161903 99.991669 43.677898 99.914360 43.190002 99.899994 C 42.650150 99.853134 42.123264 100.082703 41.790001 100.509995 C 41.445202 101.091789 41.288071 101.765701 41.340000 102.439995 L 41.340000 102.690002 C 41.289349 103.353394 41.442886 104.016403 41.779999 104.590004 C 42.101360 105.015427 42.618813 105.245827 43.149998 105.200005 C 43.684685 105.172272 44.214619 105.085068 44.730000 104.940002 Z" fill="#232F3E"/><path d=" M 48.630001 106.349998 L 48.490002 105.839996 C 48.334743 106.042564 48.132156 106.203949 47.900002 106.309998 C 47.653095 106.427322 47.383362 106.488777 47.110001 106.489998 C 46.671017 106.511780 46.243004 106.348557 45.930000 106.040001 C 45.319267 105.292549 45.362175 104.206917 46.029999 103.510002 C 46.427273 103.173096 46.940315 103.004471 47.459999 103.040001 C 47.774029 103.046669 48.086178 103.090302 48.389999 103.169998 L 48.389999 102.660004 C 48.417572 102.389763 48.361736 102.117561 48.230000 101.880005 C 48.065475 101.727715 47.842754 101.654694 47.619999 101.680008 C 47.015545 101.705238 46.418564 101.823280 45.849998 102.030006 L 45.849998 101.029999 C 46.133469 100.871468 46.440800 100.760017 46.759998 100.699997 C 47.141479 100.620018 47.530224 100.579803 47.919998 100.579994 C 48.463604 100.534027 49.005005 100.690742 49.439999 101.019997 C 49.784771 101.396851 49.955322 101.901237 49.910000 102.409996 L 49.910000 106.349998 Z M 47.630001 105.430000 C 47.931385 105.418922 48.217319 105.293823 48.430000 105.080002 L 48.430000 104.000000 C 48.224060 103.948677 48.012180 103.925140 47.799999 103.930000 C 47.602249 103.913605 47.407619 103.987053 47.270000 104.129997 C 47.130947 104.293694 47.062603 104.505920 47.080002 104.719994 C 47.069714 104.905304 47.122593 105.088631 47.230003 105.239990 C 47.315876 105.353592 47.447762 105.423195 47.590004 105.429993 Z" fill="#232F3E"/><path d=" M 54.939999 106.089996 C 54.747086 106.213348 54.533760 106.301392 54.309998 106.349998 C 54.044289 106.410645 53.772537 106.440842 53.499996 106.439995 C 52.807278 106.490982 52.129341 106.222023 51.659996 105.709991 C 51.198711 105.088364 50.975227 104.322128 51.029995 103.549988 C 50.979218 102.771988 51.217846 102.002678 51.699993 101.389984 C 52.176395 100.867004 52.863823 100.587616 53.569992 100.629982 C 54.039944 100.630127 54.502968 100.743309 54.919991 100.959984 L 54.919998 101.959999 C 54.599510 101.841644 54.261562 101.777435 53.919998 101.769997 C 53.558846 101.733589 53.204178 101.884514 52.980000 102.169998 C 52.762070 102.563194 52.664688 103.011833 52.700001 103.459999 L 52.700001 103.620003 C 52.669102 104.067123 52.773647 104.513176 53.000000 104.900002 C 53.208992 105.182068 53.550587 105.333885 53.900002 105.300003 C 54.269382 105.292480 54.634716 105.221443 54.980003 105.090004 Z" fill="#232F3E"/><path d=" M 59.099998 106.349998 L 59.099998 102.650002 C 59.120342 102.428413 59.086006 102.205223 59.000000 102.000000 C 58.882828 101.844841 58.693558 101.761559 58.500000 101.779999 C 58.207970 101.789673 57.924252 101.879631 57.680000 102.040001 L 57.680000 106.400002 L 56.000000 106.400002 L 56.000000 98.209999 L 57.650002 98.209999 L 57.650002 101.120003 C 58.149483 100.788506 58.730915 100.601616 59.330002 100.580002 C 59.728470 100.553772 60.117638 100.707970 60.390003 101.000000 C 60.659733 101.347038 60.791527 101.781601 60.760002 102.220001 L 60.759998 106.349998 Z" fill="#232F3E"/><path d=" M 63.369999 103.919998 C 63.349251 104.324760 63.477299 104.723129 63.730000 105.040001 C 64.024475 105.288261 64.406647 105.407242 64.790001 105.370003 C 65.019203 105.363998 65.247131 105.333832 65.470001 105.280006 C 65.741249 105.228806 66.008575 105.158638 66.270004 105.070007 L 66.269997 106.070000 C 66.010979 106.215523 65.730995 106.320099 65.439995 106.379997 C 65.111473 106.451813 64.776276 106.488686 64.439995 106.489998 C 62.720001 106.489998 61.860001 105.489998 61.860001 103.540001 C 61.806961 102.755630 62.029819 101.977402 62.490002 101.340004 C 62.948692 100.815964 63.625027 100.535088 64.320000 100.580002 C 65.680000 100.580002 66.320000 101.339996 66.320000 102.870003 C 66.319130 103.206871 66.278854 103.542488 66.199997 103.870003 Z M 64.279999 101.599998 C 63.700001 101.599998 63.400002 102.059998 63.369999 102.970001 L 65.000000 102.970001 L 65.000000 102.720001 C 65.020439 102.423340 64.961777 102.126572 64.830002 101.860001 C 64.708931 101.678207 64.497330 101.578178 64.279999 101.599998 Z" fill="#232F3E"/><path d=" M 19.719999 120.349998 L 19.719999 115.820000 L 18.930000 115.820000 L 18.930000 114.900002 L 19.719999 114.750000 L 19.719999 114.089996 C 19.676174 113.534058 19.848063 112.982582 20.199999 112.549995 C 20.605150 112.189583 21.139282 112.009132 21.679998 112.049995 C 22.053465 112.049156 22.423576 112.120461 22.769999 112.259995 L 22.770000 113.260002 C 22.562944 113.215202 22.351841 113.191750 22.140001 113.190002 C 21.923744 113.164169 21.705740 113.221352 21.530001 113.350006 C 21.401596 113.529663 21.344568 113.750648 21.370001 113.970009 L 21.370001 114.709999 L 22.709999 114.709999 L 22.709999 115.809998 L 21.370001 115.809998 L 21.370001 120.339996 Z" fill="#232F3E"/><path d=" M 25.670000 120.489998 C 24.970715 120.530975 24.291676 120.246811 23.830000 119.720001 C 22.950846 118.395988 22.950846 116.674019 23.830000 115.349998 C 24.291676 114.823181 24.970715 114.539017 25.670000 114.580002 C 26.368767 114.542046 27.046535 114.825676 27.510000 115.349998 C 28.376015 116.677948 28.376015 118.392044 27.510000 119.720001 C 27.046535 120.244324 26.368767 120.527962 25.670000 120.489998 Z M 25.670000 119.339996 C 25.954493 119.352325 26.213886 119.178047 26.309999 118.909996 C 26.576797 118.016144 26.576797 117.063843 26.309999 116.169998 C 26.217373 115.897995 25.957136 115.719078 25.670000 115.729996 C 25.381109 115.721107 25.119081 115.898483 25.020000 116.169998 C 24.764866 117.065514 24.764866 118.014481 25.020000 118.909996 C 25.122442 119.177567 25.383680 119.350380 25.670000 119.339996 Z" fill="#232F3E"/><path d=" M 29.320000 120.349998 L 29.320000 114.720001 L 30.670000 114.720001 L 30.850000 115.449997 C 31.050947 115.209991 31.295179 115.009857 31.570000 114.860001 C 31.798908 114.731735 32.057632 114.666191 32.320000 114.669998 C 32.449810 114.660080 32.580189 114.660080 32.709999 114.669998 L 32.709999 116.000000 C 32.496883 115.986336 32.283115 115.986336 32.070000 116.000000 C 31.688166 116.000481 31.311642 116.089478 30.969999 116.260002 L 30.969999 120.370003 Z" fill="#232F3E"/><path d=" M 39.860001 120.349998 L 38.400002 117.519997 L 37.750000 117.519997 L 37.750000 120.349998 L 36.099998 120.349998 L 36.099998 112.720001 L 38.740002 112.720001 C 39.390743 112.687714 40.026459 112.922493 40.500000 113.370003 C 40.956875 113.834206 41.196548 114.469711 41.160000 115.120003 C 41.170639 115.583603 41.060352 116.041977 40.840000 116.450005 C 40.627995 116.822403 40.301983 117.116867 39.910000 117.290001 L 41.590000 120.349998 Z M 37.750000 116.349998 L 38.540001 116.349998 C 38.813034 116.368484 39.077961 116.252815 39.250000 116.040001 C 39.435432 115.763138 39.523392 115.432404 39.500000 115.099998 C 39.525051 114.770569 39.436848 114.442467 39.250000 114.169998 C 39.082317 113.950584 38.815453 113.830307 38.540001 113.849998 L 37.750000 113.849998 Z" fill="#232F3E"/><path d=" M 43.630001 117.919998 C 43.630665 118.310982 43.760769 118.690742 44.000000 119.000000 C 44.295567 119.246262 44.676880 119.364975 45.060001 119.330002 C 45.289249 119.324608 45.517242 119.294434 45.740002 119.240005 C 46.011528 119.190041 46.278942 119.119843 46.540001 119.030006 L 46.540001 120.029999 C 46.281761 120.177193 46.001507 120.281868 45.709999 120.339996 C 45.381474 120.411812 45.046276 120.448685 44.709999 120.449997 C 43.000000 120.449997 42.139999 119.449997 42.139999 117.500000 C 42.086960 116.715630 42.309818 115.937401 42.770000 115.300003 C 43.224651 114.776291 43.897926 114.495148 44.590000 114.540001 C 45.959999 114.540001 46.590000 115.300003 46.590000 116.830002 C 46.589127 117.166870 46.548855 117.502487 46.470001 117.830002 Z M 44.549999 115.599998 C 43.970001 115.599998 43.660000 116.059998 43.630001 116.970001 L 45.250000 116.970001 L 45.250000 116.720001 C 45.270443 116.423340 45.211781 116.126572 45.080002 115.860001 C 44.961140 115.686409 44.760033 115.587753 44.550003 115.599998 Z" fill="#232F3E"/><path d=" M 51.000000 120.349998 L 50.869999 119.860001 C 50.684742 120.041252 50.467823 120.186996 50.230000 120.290001 C 49.437210 120.627693 48.516304 120.379913 48.000000 119.690002 C 47.279999 118.340004 47.279999 116.720001 48.000000 115.370003 C 48.337570 114.858131 48.917206 114.558846 49.529999 114.580002 C 49.745636 114.589058 49.958389 114.632957 50.160000 114.709999 C 50.378536 114.789223 50.584106 114.900436 50.770000 115.040001 L 50.770000 112.209999 L 52.419998 112.209999 L 52.419998 120.349998 Z M 50.070000 119.349998 C 50.326092 119.346977 50.575954 119.270630 50.790001 119.129997 L 50.790001 116.000000 C 50.556934 115.839607 50.282772 115.749374 50.000000 115.739998 C 49.702881 115.727325 49.430187 115.903778 49.320000 116.180000 C 49.162731 116.625710 49.094772 117.098030 49.119999 117.570000 C 49.086960 118.035194 49.165825 118.501541 49.349998 118.930000 C 49.495945 119.201927 49.793568 119.356689 50.099998 119.320000 Z" fill="#232F3E"/><path d=" M 54.759998 113.809998 C 54.504757 113.822983 54.253181 113.745026 54.049999 113.589996 C 53.878063 113.434639 53.783005 113.211624 53.790001 112.979996 C 53.780193 112.747849 53.875736 112.523689 54.049999 112.369995 C 54.248116 112.204575 54.502518 112.122162 54.759998 112.139992 C 55.014099 112.124771 55.264442 112.207024 55.459999 112.369995 C 55.640450 112.519913 55.740356 112.745628 55.730000 112.979996 C 55.738815 113.214073 55.639194 113.439140 55.459999 113.589996 C 55.262970 113.749374 55.012779 113.828011 54.759998 113.809998 Z M 53.930000 120.349998 L 53.930000 114.720001 L 55.580002 114.720001 L 55.580002 120.349998 Z" fill="#232F3E"/><path d=" M 59.000000 118.769997 C 59.000000 118.519997 58.830002 118.309998 58.480000 118.150002 L 57.759998 117.800003 C 57.082703 117.565338 56.628899 116.926796 56.629997 116.210007 C 56.611603 115.750854 56.816536 115.311180 57.179996 115.030006 C 57.602356 114.712837 58.122467 114.553619 58.649998 114.580009 C 59.179646 114.581734 59.702274 114.701294 60.179996 114.930008 L 60.180000 115.930000 C 59.951443 115.850227 59.717525 115.786736 59.480000 115.739998 C 59.282864 115.696541 59.081844 115.673088 58.880001 115.669998 C 58.369999 115.669998 58.110001 115.849998 58.110001 116.209999 C 58.110001 116.570000 58.320000 116.660004 58.750000 116.870003 L 59.470001 117.209999 C 59.776878 117.345100 60.042538 117.559013 60.240002 117.830002 C 60.408264 118.110268 60.491631 118.433311 60.480003 118.760002 C 60.512985 119.224243 60.336964 119.678963 60.000004 120.000000 C 59.574745 120.319939 59.051697 120.482506 58.520004 120.459999 C 57.886135 120.467438 57.260475 120.316177 56.700005 120.019997 L 56.700001 119.019997 C 57.215828 119.217575 57.758698 119.335594 58.310001 119.369995 C 58.514175 119.382927 58.716270 119.322655 58.880001 119.199997 C 58.977875 119.079491 59.021332 118.923767 59.000000 118.769997 Z" fill="#232F3E"/></g><g id="ICONS_-_EDIT"><path d=" M 54.000000 34.660000 C 54.000000 31.309999 47.230000 29.559999 40.540001 29.559999 C 33.849998 29.559999 27.070000 31.309999 27.070000 34.660000 L 27.070000 57.459999 C 27.070000 60.810001 33.840000 62.560001 40.540001 62.560001 C 47.240002 62.560001 54.000000 60.810001 54.000000 57.459999 L 54.000000 50.099998 C 54.004803 50.020069 54.004803 49.939926 54.000000 49.859997 L 54.000000 42.259998 C 54.004826 42.203434 54.004826 42.146561 54.000000 42.090000 Z M 40.540001 31.559999 C 47.959999 31.559999 52.000000 33.610001 52.000000 34.660000 C 52.000000 35.709999 48.000000 37.759998 40.540001 37.759998 C 33.080002 37.759998 29.000000 35.709999 29.000000 34.660000 C 29.000000 33.610001 33.090000 31.559999 40.520000 31.559999 Z M 40.540001 60.560001 C 33.110001 60.560001 29.059999 58.509998 29.059999 57.459999 L 29.059999 52.680000 C 30.573931 53.509468 32.217010 54.077446 33.919998 54.360001 L 34.310001 52.360001 C 30.490000 51.599998 29.059999 50.360001 29.059999 49.820000 L 29.059999 45.080002 C 30.573931 45.909470 32.217010 46.477448 33.919998 46.760002 L 34.310001 44.759998 C 30.469999 44.000000 29.000000 42.840000 29.000000 42.259998 L 29.000000 37.450001 C 31.500000 38.970001 36.000000 39.759998 40.480000 39.759998 C 44.959999 39.759998 49.480000 38.970001 51.980000 37.430000 L 51.980000 42.259998 C 51.980000 42.759998 50.869999 43.779999 47.830002 44.549999 L 48.310001 46.490002 C 49.602440 46.198395 50.845497 45.720039 52.000000 45.070004 L 52.000000 49.860001 C 52.000000 50.360001 50.889999 51.380001 47.849998 52.150002 L 48.330002 54.090000 C 49.619427 53.799366 50.856987 53.313782 52.000000 52.650002 L 52.000000 57.459999 C 52.000000 58.509998 47.939999 60.560001 40.520000 60.560001 Z" fill="#FFFFFF"/><path d=" M 65.000000 22.190001 C 65.552284 22.190001 66.000000 21.742285 66.000000 21.190001 L 66.000000 19.000000 C 66.000000 18.447716 65.552284 18.000000 65.000000 18.000000 L 16.000000 18.000000 C 15.447715 18.000000 15.000000 18.447716 15.000000 19.000000 L 15.000000 21.180000 C 15.000000 21.732285 15.447715 22.180000 16.000000 22.180000 C 17.220549 22.296244 18.115767 23.379927 17.999525 24.600475 C 17.898602 25.660170 17.059694 26.499077 16.000000 26.600000 C 15.447715 26.600000 15.000000 27.047716 15.000000 27.600000 L 15.000000 45.000000 C 15.000000 45.552284 15.447715 46.000000 16.000000 46.000000 L 25.049999 46.000000 L 25.049999 44.000000 L 21.049999 44.000000 L 21.049999 43.000000 L 25.049999 43.000000 L 25.049999 41.000000 L 20.049999 41.000000 C 19.497715 41.000000 19.049999 41.447716 19.049999 42.000000 L 19.049999 44.000000 L 17.000000 44.000000 L 17.000000 28.469999 C 19.250561 27.765478 20.503874 25.369913 19.799353 23.119352 C 19.381302 21.783909 18.335443 20.738049 17.000000 20.320000 L 17.000000 20.000000 L 64.000000 20.000000 L 64.000000 20.330000 C 61.754963 21.051926 60.520237 23.457125 61.242165 25.702164 C 61.663395 27.012098 62.690067 28.038771 64.000000 28.460001 L 64.000000 44.000000 L 63.000000 44.000000 L 63.000000 42.000000 C 63.000000 41.447716 62.552284 41.000000 62.000000 41.000000 L 56.000000 41.000000 L 56.000000 43.000000 L 61.000000 43.000000 L 61.000000 44.000000 L 56.000000 44.000000 L 56.000000 46.000000 L 65.000000 46.000000 C 65.552284 46.000000 66.000000 45.552284 66.000000 45.000000 L 66.000000 27.600000 C 66.000000 27.047716 65.552284 26.600000 65.000000 26.600000 C 63.782211 26.457714 62.910347 25.355154 63.052635 24.137367 C 63.172043 23.115398 63.978035 22.309408 65.000000 22.190001 Z" fill="#FFFFFF"/><path d=" M 40.000000 28.000000 L 40.000000 23.000000 C 40.000000 22.447716 39.552284 22.000000 39.000000 22.000000 L 32.000000 22.000000 C 31.447716 22.000000 31.000000 22.447716 31.000000 23.000000 L 31.000000 29.000000 L 33.000000 29.000000 L 33.000000 24.000000 L 38.000000 24.000000 L 38.000000 28.000000 Z" fill="#FFFFFF"/><path d=" M 50.000000 29.000000 L 50.000000 23.000000 C 50.000000 22.447716 49.552284 22.000000 49.000000 22.000000 L 42.000000 22.000000 C 41.447716 22.000000 41.000000 22.447716 41.000000 23.000000 L 41.000000 28.000000 L 43.000000 28.000000 L 43.000000 24.000000 L 48.000000 24.000000 L 48.000000 29.000000 Z" fill="#FFFFFF"/><path d=" M 56.000000 37.000000 L 56.000000 39.000000 L 59.000000 39.000000 C 59.552284 39.000000 60.000000 38.552284 60.000000 38.000000 L 60.000000 23.000000 C 60.000000 22.447716 59.552284 22.000000 59.000000 22.000000 L 52.000000 22.000000 C 51.447716 22.000000 51.000000 22.447716 51.000000 23.000000 L 51.000000 30.000000 L 53.000000 30.000000 L 53.000000 24.000000 L 58.000000 24.000000 L 58.000000 37.000000 Z" fill="#FFFFFF"/><path d=" M 23.049999 24.000000 L 28.049999 24.000000 L 28.049999 30.000000 L 30.049999 30.000000 L 30.049999 23.000000 C 30.049999 22.447716 29.602283 22.000000 29.049999 22.000000 L 22.049999 22.000000 C 21.497715 22.000000 21.049999 22.447716 21.049999 23.000000 L 21.049999 38.000000 C 21.049999 38.552284 21.497715 39.000000 22.049999 39.000000 L 25.049999 39.000000 L 25.049999 37.000000 L 23.049999 37.000000 Z" fill="#FFFFFF"/><path d=" M 36.080002 56.900002 L 36.080002 43.000000 L 41.259998 43.000000 C 42.448391 42.941189 43.614418 43.338211 44.519997 44.110001 C 45.353935 44.878574 45.804379 45.977215 45.749996 47.110001 C 45.769272 47.942822 45.528049 48.760880 45.059998 49.450001 C 44.555740 50.136189 43.859932 50.658047 43.059998 50.950001 L 46.630001 56.869999 L 44.189999 56.869999 L 41.000000 51.400002 L 38.520000 51.400002 L 38.520000 56.900002 Z M 38.520000 49.520000 L 41.000000 49.520000 C 42.086750 49.717606 43.127926 48.996807 43.325527 47.910057 C 43.366989 47.682034 43.368500 47.448540 43.329998 47.220001 C 43.513504 46.130783 42.779274 45.099033 41.690056 44.915531 C 41.461514 44.877029 41.228020 44.878540 41.000000 44.920002 L 38.520000 44.919998 Z" fill="#FFFFFF"/></g></svg>