<svg version="1.1" width="80.000000" height="130.000000" viewBox="0.000000 0.000000 80.000000 130.000000" xmlns="http://www.w3.org/2000/svg" xmlns:xlink="http://www.w3.org/1999/xlink" overflow="hidden"><g id="CARDS"><rect x="1.000000" y="1.000000" width="78.000000" height="78.000000" fill="#232F3E"/><path d=" M 0.000000 0.000000 L 0.000000 80.000000 L 0.000000 80.000000 L 0.000000 130.000000 L 80.000000 130.000000 L 80.000000 80.000000 L 80.000000 80.000000 L 80.000000 0.000000 Z M 1.000000 1.000000 L 79.000000 1.000000 L 79.000000 79.000000 L 1.000000 79.000000 Z" fill="#FFFFFF"/></g><g id="TEXT_-_EDIT"><path d=" M 26.000000 92.349998 L 25.570000 90.529999 L 23.570000 90.529999 L 23.150000 92.349998 L 21.330000 92.349998 L 23.639999 84.720001 L 25.510000 84.720001 L 27.809999 92.349998 Z M 23.820000 89.430000 L 25.320000 89.430000 L 24.559999 86.269997 Z" fill="#232F3E"/><path d=" M 34.419998 92.349998 L 34.419998 88.639999 C 34.441563 88.401268 34.392902 88.161446 34.279999 87.949997 C 34.179905 87.796371 34.002415 87.711487 33.820000 87.729996 C 33.526997 87.742645 33.243202 87.836090 33.000000 87.999992 C 33.004818 88.039848 33.004818 88.080139 33.000000 88.119995 L 33.000000 92.360001 L 31.389999 92.360001 L 31.389999 88.639999 C 31.406664 88.401566 31.358274 88.163086 31.250000 87.949997 C 31.145142 87.796478 30.965055 87.712181 30.780001 87.729996 C 30.500376 87.747841 30.230818 87.841148 30.000000 87.999992 L 30.000000 92.360001 L 28.350000 92.360001 L 28.350000 86.720001 L 29.700001 86.720001 L 29.830000 87.230003 C 30.355705 86.838974 30.985632 86.612755 31.639999 86.580002 C 32.137905 86.543671 32.609680 86.807076 32.840000 87.250000 C 33.370991 86.851845 34.007450 86.618820 34.670002 86.580002 C 35.048607 86.567619 35.413780 86.720993 35.670002 87.000000 C 35.930431 87.351334 36.057976 87.783562 36.030003 88.220001 L 36.029999 92.349998 Z" fill="#232F3E"/><path d=" M 40.130001 92.349998 L 40.000000 91.839996 C 39.846901 92.044678 39.643723 92.206528 39.410000 92.309998 C 39.166252 92.426201 38.900021 92.487640 38.630001 92.489998 C 38.178329 92.505806 37.741512 92.327438 37.430000 92.000000 C 36.819267 91.252548 36.862175 90.166916 37.529999 89.470001 C 37.937386 89.122978 38.466854 88.953690 39.000000 89.000000 C 39.314030 89.006668 39.626179 89.050301 39.930000 89.129997 L 39.930000 88.620003 C 39.957573 88.349762 39.901737 88.077560 39.770000 87.840004 C 39.605476 87.687714 39.382755 87.614693 39.160000 87.640007 C 38.555546 87.665237 37.958565 87.783279 37.389999 87.990005 L 37.389999 87.000000 C 37.676563 86.840446 37.987354 86.728966 38.309998 86.669998 C 38.688015 86.589485 39.073502 86.549255 39.459999 86.549995 C 40.003796 86.502090 40.545879 86.659012 40.980000 86.989998 C 41.324772 87.366852 41.495323 87.871239 41.450001 88.379997 L 41.450001 92.320000 Z M 39.130001 91.430000 C 39.428345 91.418404 39.710972 91.293190 39.920002 91.080002 L 39.919998 90.000000 C 39.717472 89.948616 39.508884 89.925064 39.299999 89.930000 C 39.099068 89.911972 38.900711 89.985435 38.759998 90.129997 C 38.620945 90.293694 38.552601 90.505920 38.570000 90.719994 C 38.559711 90.905304 38.612591 91.088631 38.720001 91.239990 C 38.811195 91.357796 38.951038 91.427719 39.100002 91.429993 Z" fill="#232F3E"/><path d=" M 42.160000 92.349998 L 42.160000 91.279999 L 44.650002 87.879997 L 42.250000 87.879997 L 42.250000 86.720001 L 46.389999 86.720001 L 46.389999 87.790001 L 43.889999 91.190002 L 46.430000 91.190002 L 46.430000 92.349998 Z" fill="#232F3E"/><path d=" M 49.430000 92.489998 C 48.731232 92.527954 48.053463 92.244324 47.590000 91.720001 C 46.723984 90.392052 46.723984 88.677956 47.590000 87.349998 C 48.601749 86.331032 50.247967 86.325180 51.266933 87.336929 C 51.271305 87.341270 51.275661 87.345627 51.280003 87.349998 C 52.146019 88.677948 52.146019 90.392044 51.280003 91.720001 C 50.812557 92.244698 50.131687 92.528084 49.430004 92.489998 Z M 49.430000 91.339996 C 49.716320 91.350388 49.977558 91.177567 50.080002 90.909996 C 50.346798 90.016144 50.346798 89.063843 50.080002 88.169998 C 49.980919 87.898483 49.718895 87.721115 49.430000 87.729996 C 49.143818 87.722336 48.885326 87.900047 48.790001 88.169998 C 48.523205 89.063850 48.523205 90.016151 48.790001 90.909996 C 48.888729 91.175995 49.146416 91.349129 49.430000 91.339996 Z" fill="#232F3E"/><path d=" M 56.000000 92.349998 L 56.000000 88.650002 C 56.016495 88.408363 55.968166 88.166710 55.860001 87.950005 C 55.742828 87.794846 55.553558 87.711563 55.360001 87.730003 C 55.067970 87.739677 54.784252 87.829636 54.540001 87.990005 L 54.540001 92.349998 L 52.840000 92.349998 L 52.840000 86.720001 L 54.189999 86.720001 L 54.320000 87.230003 C 54.858891 86.835289 55.502651 86.609108 56.169998 86.580002 C 56.568466 86.553772 56.957634 86.707970 57.230000 87.000000 C 57.499729 87.347038 57.631523 87.781601 57.599998 88.220001 L 57.599998 92.349998 Z" fill="#232F3E"/><path d=" M 7.000000 106.349998 L 7.000000 98.720001 L 11.540000 98.720001 L 11.540000 99.900002 L 8.690000 99.900002 L 8.690000 101.849998 L 11.000000 101.849998 L 11.000000 103.000000 L 8.690000 103.000000 L 8.690000 105.150002 L 11.550000 105.150002 L 11.550000 106.330002 Z" fill="#232F3E"/><path d=" M 14.830000 106.250000 C 14.509742 106.365929 14.170442 106.420219 13.830000 106.410004 C 13.434245 106.441948 13.043023 106.307922 12.750000 106.040001 C 12.493888 105.725441 12.368570 105.324425 12.400000 104.919998 L 12.400000 98.209999 L 14.050000 98.209999 L 14.050000 104.750000 C 14.039199 104.888161 14.066890 105.026619 14.130000 105.150002 C 14.209671 105.241310 14.329935 105.286407 14.450000 105.270004 C 14.566491 105.279053 14.683509 105.279053 14.800000 105.270004 Z" fill="#232F3E"/><path d=" M 18.500000 106.349998 L 18.360001 105.839996 C 18.204742 106.042564 18.002153 106.203949 17.770000 106.309998 C 17.523094 106.427322 17.253361 106.488777 16.980000 106.489998 C 16.534986 106.501343 16.106079 106.323235 15.799999 106.000000 C 15.189264 105.252548 15.232175 104.166916 15.900000 103.470001 C 16.297274 103.133095 16.810316 102.964470 17.330000 103.000000 C 17.644030 103.006668 17.956179 103.050301 18.260000 103.129997 L 18.260000 102.620003 C 18.287573 102.349762 18.231737 102.077560 18.100000 101.840004 C 17.935478 101.687714 17.712753 101.614693 17.490000 101.640007 C 16.885546 101.665237 16.288567 101.783279 15.719999 101.990005 L 15.720000 100.989998 C 16.003469 100.831467 16.310802 100.720016 16.630001 100.659996 C 17.011482 100.580017 17.400227 100.539803 17.790001 100.539993 C 18.333799 100.492088 18.875883 100.649010 19.310001 100.979996 C 19.654776 101.356850 19.825323 101.861237 19.780001 102.369995 L 19.780001 106.309998 Z M 17.500000 105.430000 C 17.801842 105.420944 18.088493 105.295532 18.299999 105.080002 L 18.299999 104.000000 C 18.094168 103.948074 17.882208 103.924522 17.670000 103.930000 C 17.472252 103.913605 17.277620 103.987053 17.139999 104.129997 C 17.000946 104.293694 16.932604 104.505920 16.949999 104.719994 C 16.939709 104.905304 16.992592 105.088631 17.099998 105.239990 C 17.185873 105.353592 17.317755 105.423195 17.459999 105.429993 Z" fill="#232F3E"/><path d=" M 22.930000 104.769997 C 22.930000 104.519997 22.760000 104.309998 22.420000 104.150002 L 21.690001 103.800003 C 21.016485 103.560318 20.564882 102.924881 20.560001 102.210007 C 20.545639 101.749420 20.754114 101.310135 21.120001 101.030006 C 21.538101 100.711998 22.055422 100.552551 22.580000 100.580009 C 23.112873 100.581589 23.638790 100.701111 24.120001 100.930008 L 24.120001 101.930000 C 23.891052 101.851501 23.657221 101.788033 23.420000 101.739998 C 23.219517 101.696335 23.015162 101.672890 22.809999 101.669998 C 22.299999 101.669998 22.040001 101.849998 22.040001 102.209999 C 22.040001 102.570000 22.260000 102.660004 22.680000 102.870003 L 23.400000 103.209999 C 23.708685 103.342110 23.975073 103.556602 24.170000 103.830002 C 24.346266 104.107231 24.433502 104.431755 24.420000 104.760002 C 24.440756 105.247345 24.233820 105.716644 23.860001 106.029999 C 23.435514 106.351448 22.911913 106.514183 22.380001 106.489998 C 21.746275 106.496170 21.120920 106.344986 20.560001 106.049995 L 20.559999 105.050003 C 21.078953 105.248726 21.625292 105.366760 22.180000 105.400002 C 22.380905 105.411407 22.579342 105.351166 22.740000 105.230003 C 22.871735 105.114784 22.942026 104.944603 22.930000 104.770004 Z" fill="#232F3E"/><path d=" M 28.139999 106.199997 C 27.746689 106.347153 27.329933 106.421692 26.910000 106.419998 C 26.437683 106.464508 25.966892 106.320755 25.600000 106.019997 C 25.295263 105.658775 25.147635 105.190689 25.190001 104.719994 L 25.190001 101.820000 L 24.450001 101.820000 L 24.450001 100.900002 L 25.240000 100.750000 L 25.480000 99.209999 L 26.840000 99.209999 L 26.840000 100.720001 L 28.110001 100.720001 L 28.110001 101.820000 L 26.840000 101.820000 L 26.840000 104.589996 C 26.824326 104.774376 26.873873 104.958412 26.980000 105.109993 C 27.126587 105.234970 27.318745 105.292976 27.510000 105.269997 C 27.722273 105.266159 27.933504 105.239334 28.139999 105.189995 Z" fill="#232F3E"/><path d=" M 29.639999 99.809998 C 29.384758 99.822983 29.133181 99.745026 28.930000 99.589996 C 28.758062 99.434639 28.663006 99.211624 28.670000 98.979996 C 28.660191 98.747849 28.755735 98.523689 28.930000 98.369995 C 29.128119 98.204575 29.382521 98.122162 29.639999 98.139992 C 29.894102 98.124771 30.144445 98.207024 30.340000 98.369995 C 30.520451 98.519913 30.620358 98.745628 30.610001 98.979996 C 30.618814 99.214073 30.519197 99.439140 30.340000 99.589996 C 30.142973 99.749374 29.892780 99.828011 29.639999 99.809998 Z M 28.809999 106.349998 L 28.809999 100.720001 L 30.459999 100.720001 L 30.459999 106.349998 Z" fill="#232F3E"/><path d=" M 36.730000 106.129997 C 36.164856 106.359474 35.559937 106.475021 34.950001 106.469994 C 32.703335 106.470001 31.576666 105.169998 31.570000 102.570000 C 31.503914 101.513390 31.815842 100.467720 32.450001 99.620003 C 33.099339 98.922134 34.029007 98.554680 34.980000 98.620003 C 35.543499 98.620705 36.102318 98.722313 36.630001 98.920006 L 36.630001 100.129997 C 36.162052 99.991005 35.677963 99.913689 35.190002 99.899994 C 34.650455 99.854988 34.124416 100.084198 33.790001 100.509995 C 33.445202 101.091789 33.288071 101.765701 33.340000 102.439995 L 33.340000 102.690002 C 33.289349 103.353394 33.442886 104.016403 33.779999 104.590004 C 34.101360 105.015427 34.618813 105.245827 35.149998 105.200005 C 35.684765 105.173027 36.214783 105.085808 36.730000 104.940002 Z" fill="#232F3E"/><path d=" M 40.389999 106.349998 L 40.250000 105.839996 C 40.094742 106.042564 39.892155 106.203949 39.660000 106.309998 C 39.413094 106.427322 39.143360 106.488777 38.869999 106.489998 C 38.431015 106.511780 38.003002 106.348557 37.689999 106.040001 C 37.079266 105.292549 37.122173 104.206917 37.789997 103.510002 C 38.187271 103.173096 38.700314 103.004471 39.219997 103.040001 C 39.534027 103.046669 39.846176 103.090302 40.149998 103.169998 L 40.150002 102.660004 C 40.177574 102.389763 40.121738 102.117561 39.990002 101.880005 C 39.825478 101.727715 39.602757 101.654694 39.380001 101.680008 C 38.775547 101.705238 38.178566 101.823280 37.610001 102.030006 L 37.610001 101.029999 C 37.893471 100.871468 38.200802 100.760017 38.520000 100.699997 C 38.901482 100.620018 39.290226 100.579803 39.680000 100.579994 C 40.223606 100.534027 40.765007 100.690742 41.200001 101.019997 C 41.544773 101.396851 41.715324 101.901237 41.670002 102.409996 L 41.669998 106.349998 Z M 39.389999 105.430000 C 39.691383 105.418922 39.977318 105.293823 40.189999 105.080002 L 40.189999 104.000000 C 39.984058 103.948677 39.772179 103.925140 39.559998 103.930000 C 39.362247 103.913605 39.167618 103.987053 39.029999 104.129997 C 38.890945 104.293694 38.822601 104.505920 38.840000 104.719994 C 38.829712 104.905304 38.882591 105.088631 38.990002 105.239990 C 39.075874 105.353592 39.207760 105.423195 39.350002 105.429993 Z" fill="#232F3E"/><path d=" M 46.459999 106.089996 C 46.263363 106.213127 46.046799 106.301109 45.820000 106.349998 C 45.557774 106.411209 45.289268 106.441414 45.020000 106.439995 C 44.324566 106.489639 43.644150 106.221146 43.170002 105.709991 C 42.716225 105.085075 42.496746 104.320442 42.550003 103.549988 C 42.499226 102.771988 42.737854 102.002678 43.220001 101.389984 C 43.696404 100.867004 44.383831 100.587616 45.090000 100.629982 C 45.559952 100.630127 46.022976 100.743309 46.439999 100.959984 L 46.439999 101.959999 C 46.119461 101.841820 45.781544 101.777618 45.439999 101.769997 C 45.081944 101.735214 44.731010 101.886154 44.509998 102.169998 C 44.292068 102.563194 44.194687 103.011833 44.230000 103.459999 L 44.230000 103.620003 C 44.195354 104.063736 44.289082 104.508072 44.500000 104.900002 C 44.710892 105.185333 45.057186 105.337547 45.410000 105.300003 C 45.779381 105.292480 46.144714 105.221443 46.490002 105.090004 Z" fill="#232F3E"/><path d=" M 50.380001 106.349998 L 50.380001 102.650002 C 50.399315 102.407036 50.347176 102.163719 50.230000 101.950005 C 50.118671 101.793205 49.931149 101.709015 49.739998 101.730003 C 49.447968 101.739677 49.164249 101.829636 48.919998 101.990005 L 48.919998 106.349998 L 47.270000 106.349998 L 47.270000 98.209999 L 48.919998 98.209999 L 48.919998 101.120003 C 49.415691 100.788361 49.993977 100.601364 50.589996 100.580002 C 50.991650 100.552147 51.384537 100.706367 51.659996 101.000000 C 51.929726 101.347038 52.061520 101.781601 52.029995 102.220001 L 52.029999 106.349998 Z" fill="#232F3E"/><path d=" M 54.400002 103.919998 C 54.388794 104.323456 54.515816 104.718628 54.760002 105.040001 C 55.055569 105.286263 55.436882 105.404976 55.820004 105.370003 C 56.049294 105.365166 56.277348 105.334984 56.500004 105.280006 C 56.774563 105.228943 57.045219 105.158775 57.310005 105.070007 L 57.310001 106.070000 C 57.047085 106.214767 56.763931 106.319267 56.470001 106.379997 C 56.141602 106.452568 55.806324 106.489449 55.470001 106.489998 C 53.750000 106.489998 52.889999 105.489998 52.889999 103.540001 C 52.836960 102.755630 53.059818 101.977402 53.520000 101.340004 C 53.977764 100.814682 54.654766 100.533524 55.350002 100.580002 C 56.709999 100.580002 57.349998 101.339996 57.349998 102.870003 C 57.349125 103.206871 57.308853 103.542488 57.230000 103.870003 Z M 55.320000 101.599998 C 54.740002 101.599998 54.430000 102.059998 54.400002 102.970001 L 56.000000 102.970001 L 56.000000 102.720001 C 56.020443 102.423340 55.961781 102.126572 55.830002 101.860001 C 55.716251 101.691147 55.523476 101.592865 55.320004 101.599998 Z" fill="#232F3E"/><path d=" M 60.810001 106.349998 L 60.810001 101.820000 L 60.000000 101.820000 L 60.000000 100.900002 L 60.779999 100.750000 L 60.779999 100.089996 C 60.736176 99.534058 60.908062 98.982582 61.259998 98.549995 C 61.665150 98.189583 62.199284 98.009132 62.739998 98.049995 C 63.113464 98.049156 63.483578 98.120461 63.829998 98.259995 L 63.830002 99.260002 C 63.623062 99.214485 63.411884 99.191025 63.200001 99.190002 C 62.983883 99.166145 62.766586 99.223145 62.590000 99.350006 C 62.465752 99.531578 62.409130 99.750984 62.430000 99.970009 L 62.430000 100.709999 L 63.799999 100.709999 L 63.799999 101.809998 L 62.459999 101.809998 L 62.459999 106.339996 Z" fill="#232F3E"/><path d=" M 66.519997 106.489998 C 65.821228 106.527954 65.143463 106.244324 64.680000 105.720001 C 63.813984 104.392052 63.813984 102.677956 64.680000 101.349998 C 65.691750 100.331032 67.337967 100.325180 68.356934 101.336929 C 68.361305 101.341270 68.365662 101.345627 68.370003 101.349998 C 69.236015 102.677948 69.236015 104.392044 68.370003 105.720001 C 67.902557 106.244698 67.221687 106.528084 66.520004 106.489998 Z M 66.519997 105.339996 C 66.806313 105.350388 67.067558 105.177567 67.169998 104.909996 C 67.436798 104.016144 67.436798 103.063843 67.169998 102.169998 C 67.070915 101.898483 66.808891 101.721115 66.519997 101.729996 C 66.232857 101.719078 65.972626 101.897987 65.879997 102.169998 C 65.613197 103.063850 65.613197 104.016151 65.879997 104.909996 C 65.976112 105.178047 66.235504 105.352325 66.519997 105.339996 Z" fill="#232F3E"/><path d=" M 69.930000 106.349998 L 69.930000 100.720001 L 71.279999 100.720001 L 71.459999 101.449997 C 71.660950 101.209991 71.905182 101.009857 72.180000 100.860001 C 72.409920 100.734291 72.667961 100.668915 72.930000 100.669998 C 73.059814 100.660080 73.190193 100.660080 73.320000 100.669998 L 73.320000 102.000000 C 73.106888 101.986336 72.893112 101.986336 72.680000 102.000000 C 72.298164 102.000481 71.921638 102.089478 71.580002 102.260002 L 71.580002 106.370003 Z" fill="#232F3E"/><path d=" M 19.320000 120.349998 L 19.320000 115.000000 L 17.910000 118.459999 L 16.480000 118.459999 L 15.080000 115.000000 L 15.080000 120.320000 L 13.570000 120.320000 L 13.570000 112.690002 L 15.500000 112.690002 L 17.219999 117.000000 L 19.000000 112.720001 L 20.879999 112.720001 L 20.879999 120.349998 Z" fill="#232F3E"/><path d=" M 23.330000 117.919998 C 23.318792 118.323456 23.445812 118.718628 23.690001 119.040001 C 23.985565 119.286263 24.366880 119.404976 24.750000 119.370003 C 24.979248 119.364609 25.207241 119.334435 25.430000 119.280006 C 25.701527 119.230042 25.968939 119.159843 26.230000 119.070007 L 26.230000 120.070000 C 25.971758 120.217194 25.691507 120.321869 25.400000 120.379997 C 25.071501 120.451958 24.736286 120.488831 24.400000 120.489998 C 22.680000 120.489998 21.820000 119.489998 21.820000 117.540001 C 21.766962 116.755630 21.989819 115.977402 22.449999 115.340004 C 22.904650 114.816292 23.577925 114.535149 24.269999 114.580002 C 25.639999 114.580002 26.320000 115.339996 26.320000 116.870003 C 26.319126 117.206871 26.278852 117.542488 26.199999 117.870003 Z M 24.250000 115.599998 C 23.670000 115.599998 23.360001 116.059998 23.330000 116.970001 L 25.000000 116.970001 L 25.000000 116.720001 C 25.020443 116.423340 24.961779 116.126572 24.830000 115.860001 C 24.702221 115.669640 24.477129 115.568733 24.250000 115.599998 Z" fill="#232F3E"/><path d=" M 33.310001 120.349998 L 33.310001 116.639999 C 33.326664 116.401566 33.278278 116.163086 33.170002 115.949997 C 33.068390 115.798111 32.892017 115.713760 32.710003 115.729996 C 32.424561 115.741776 32.147831 115.831711 31.910004 115.989998 C 31.914921 116.029846 31.914921 116.070152 31.910004 116.110001 L 31.910000 120.349998 L 30.270000 120.349998 L 30.270000 116.639999 C 30.286665 116.401566 30.238276 116.163086 30.130001 115.949997 C 30.029905 115.796371 29.852419 115.711487 29.670002 115.729996 C 29.390862 115.742325 29.120712 115.832375 28.890001 115.989998 L 28.889999 120.349998 L 27.240000 120.349998 L 27.240000 114.720001 L 28.580000 114.720001 L 28.719999 115.230003 C 29.242044 114.839226 29.868725 114.612923 30.519999 114.580002 C 31.020817 114.542221 31.496244 114.805473 31.729998 115.250000 C 32.260990 114.851845 32.897449 114.618820 33.559998 114.580002 C 33.938602 114.567619 34.303776 114.720993 34.559998 115.000000 C 34.820427 115.351334 34.947971 115.783562 34.919998 116.220001 L 34.919998 120.349998 Z" fill="#232F3E"/><path d=" M 39.750000 120.089996 C 39.553364 120.213127 39.336800 120.301109 39.110001 120.349998 C 38.847775 120.411209 38.579269 120.441414 38.310001 120.439995 C 37.614567 120.489639 36.934151 120.221146 36.460003 119.709991 C 36.006226 119.085075 35.786747 118.320442 35.840004 117.549988 C 35.789227 116.771988 36.027855 116.002678 36.510002 115.389984 C 36.986404 114.867004 37.673832 114.587616 38.380001 114.629982 C 38.849953 114.630127 39.312977 114.743309 39.730000 114.959984 L 39.730000 115.959999 C 39.409462 115.841820 39.071545 115.777618 38.730000 115.769997 C 38.371944 115.735214 38.021011 115.886154 37.799999 116.169998 C 37.582069 116.563194 37.484688 117.011833 37.520000 117.459999 L 37.520000 117.620003 C 37.485355 118.063736 37.579082 118.508072 37.790001 118.900002 C 38.000893 119.185333 38.347187 119.337547 38.700001 119.300003 C 39.069382 119.292480 39.434715 119.221443 39.780003 119.090004 Z" fill="#232F3E"/><path d=" M 43.459999 120.349998 L 43.320000 119.839996 C 43.166901 120.044678 42.963722 120.206528 42.730000 120.309998 C 42.486252 120.426201 42.220020 120.487640 41.950001 120.489998 C 41.507801 120.513382 41.076080 120.350128 40.760002 120.040001 C 40.149269 119.292549 40.192177 118.206917 40.860001 117.510002 C 41.257275 117.173096 41.770317 117.004471 42.290001 117.040001 C 42.604031 117.046669 42.916180 117.090302 43.220001 117.169998 L 43.220001 116.660004 C 43.247574 116.389763 43.191738 116.117561 43.060001 115.880005 C 42.895477 115.727715 42.672756 115.654694 42.450001 115.680008 C 41.845547 115.705238 41.248566 115.823280 40.680000 116.030006 L 40.680000 115.029999 C 40.966564 114.870445 41.277355 114.758965 41.599998 114.699997 C 41.978016 114.619484 42.363503 114.579254 42.750000 114.579994 C 43.293797 114.532089 43.835880 114.689011 44.270000 115.019997 C 44.614773 115.396851 44.785324 115.901237 44.740002 116.409996 L 44.740002 120.349998 Z M 42.459999 119.430000 C 42.758343 119.418404 43.040970 119.293190 43.250000 119.080002 L 43.250000 118.000000 C 43.047474 117.948616 42.838886 117.925064 42.630001 117.930000 C 42.429070 117.911972 42.230713 117.985435 42.090000 118.129997 C 41.950947 118.293694 41.882603 118.505920 41.900002 118.719994 C 41.889713 118.905304 41.942593 119.088631 42.050003 119.239990 C 42.141197 119.357796 42.281040 119.427719 42.430004 119.429993 Z" fill="#232F3E"/><path d=" M 49.540001 120.089996 C 49.342567 120.211563 49.126278 120.299431 48.900002 120.349998 C 48.634293 120.410645 48.362541 120.440842 48.090000 120.439995 C 47.397282 120.490982 46.719345 120.222023 46.250000 119.709991 C 45.788715 119.088364 45.565231 118.322128 45.619999 117.549988 C 45.569221 116.771988 45.807850 116.002678 46.289997 115.389984 C 46.766399 114.867004 47.453827 114.587616 48.159996 114.629982 C 48.629948 114.630127 49.092972 114.743309 49.509995 114.959984 L 49.509998 115.959999 C 49.189510 115.841644 48.851562 115.777435 48.509998 115.769997 C 48.148846 115.733589 47.794178 115.884514 47.570000 116.169998 C 47.352070 116.563194 47.254688 117.011833 47.290001 117.459999 L 47.290001 117.620003 C 47.253052 118.065079 47.350597 118.511002 47.570000 118.900002 C 47.778992 119.182068 48.120586 119.333885 48.470001 119.300003 C 48.842545 119.291672 49.211029 119.220680 49.560001 119.090004 Z" fill="#232F3E"/><path d=" M 53.450001 120.349998 L 53.450001 116.650002 C 53.466496 116.408363 53.418167 116.166710 53.310001 115.950005 C 53.192829 115.794846 53.003559 115.711563 52.810001 115.730003 C 52.520435 115.744469 52.240334 115.837837 52.000000 116.000000 L 52.000000 120.360001 L 50.340000 120.360001 L 50.340000 112.220001 L 52.000000 112.220001 L 52.000000 115.129997 C 52.499481 114.798500 53.080914 114.611610 53.680000 114.589996 C 54.078468 114.563766 54.467636 114.717964 54.740002 115.009995 C 55.009731 115.357033 55.141525 115.791595 55.110001 116.229996 L 55.110001 120.360001 Z" fill="#232F3E"/><path d=" M 57.470001 117.919998 C 57.456596 118.325401 57.587734 118.722366 57.840000 119.040001 C 58.134472 119.288261 58.516644 119.407242 58.900002 119.370003 C 59.129204 119.363998 59.357132 119.333832 59.580002 119.280006 C 59.851254 119.228806 60.118576 119.158638 60.380001 119.070007 L 60.380001 120.070000 C 60.120979 120.215523 59.841000 120.320099 59.549999 120.379997 C 59.221474 120.451813 58.886276 120.488686 58.549999 120.489998 C 56.830002 120.489998 55.970001 119.489998 55.970001 117.540001 C 55.916962 116.755630 56.139820 115.977402 56.600002 115.340004 C 57.058693 114.815964 57.735027 114.535088 58.430004 114.580002 C 59.790001 114.580002 60.480000 115.339996 60.480000 116.870003 C 60.479126 117.206871 60.438854 117.542488 60.360001 117.870003 Z M 58.389999 115.599998 C 57.810001 115.599998 57.509998 116.059998 57.470001 116.970001 L 59.090000 116.970001 L 59.090000 116.720001 C 59.110443 116.423340 59.051781 116.126572 58.920002 115.860001 C 58.802513 115.684830 58.600445 115.585701 58.390003 115.599998 Z" fill="#232F3E"/><path d=" M 64.629997 120.349998 L 64.500000 119.860001 C 64.316635 120.038925 64.103432 120.184441 63.869999 120.290001 C 63.642376 120.387421 63.397591 120.438423 63.149998 120.440002 C 62.551067 120.466835 61.980511 120.183449 61.639999 119.690002 C 61.245480 119.052330 61.056934 118.308617 61.099998 117.560005 C 61.055649 116.789658 61.251301 116.024506 61.660000 115.370003 C 61.991581 114.856697 62.569366 114.556396 63.180000 114.580002 C 63.398849 114.589363 63.614841 114.633240 63.820000 114.709999 C 64.037567 114.791359 64.242844 114.902412 64.430000 115.040001 L 64.430000 112.209999 L 66.080002 112.209999 L 66.080002 120.349998 Z M 63.700001 119.349998 C 63.959000 119.345612 64.211708 119.269455 64.430000 119.129997 L 64.430000 116.000000 C 64.192627 115.840775 63.915627 115.750748 63.630001 115.739998 C 63.335640 115.728607 63.066513 115.905350 62.960003 116.180000 C 62.793648 116.623573 62.722111 117.097084 62.750004 117.570000 C 62.721813 118.034950 62.800491 118.500175 62.980003 118.930000 C 63.121601 119.191101 63.403950 119.344040 63.700005 119.320000 Z" fill="#232F3E"/></g><g id="ICONS_-_EDIT"><path d=" M 40.000000 39.700001 C 33.290001 39.700001 26.510000 37.950001 26.510000 34.599998 C 26.510000 31.250000 33.310001 29.500000 40.000000 29.500000 C 46.689999 29.500000 53.500000 31.250000 53.500000 34.599998 C 53.500000 37.950001 46.709999 39.700001 40.000000 39.700001 Z M 40.000000 31.500000 C 32.560001 31.500000 28.510000 33.500000 28.510000 34.599998 C 28.510000 35.700001 32.509998 37.700001 40.000000 37.700001 C 47.490002 37.700001 51.500000 35.650002 51.500000 34.599998 C 51.500000 33.549999 47.439999 31.500000 40.000000 31.500000 Z" fill="#FFFFFF"/><path d=" M 40.000000 62.500000 C 33.290001 62.500000 26.510000 60.750000 26.510000 57.400002 L 26.510000 34.599998 L 28.510000 34.599998 L 28.510000 57.400002 C 28.510000 58.450001 32.509998 60.500000 40.000000 60.500000 C 47.490002 60.500000 51.480000 58.500000 51.480000 57.400002 L 51.480000 34.599998 L 53.480000 34.599998 L 53.480000 57.400002 C 53.500000 60.750000 46.709999 62.500000 40.000000 62.500000 Z" fill="#FFFFFF"/><path d=" M 31.240000 46.169998 C 27.350000 44.980000 26.530001 43.349998 26.530001 42.169998 L 28.530001 42.169998 C 28.530001 42.529999 29.219999 43.430000 31.820000 44.169998 Z" fill="#FFFFFF"/><path d=" M 48.820000 46.160000 L 48.240002 44.240002 C 50.820000 43.450001 51.500000 42.560001 51.500000 42.240002 L 53.500000 42.240002 C 53.500000 43.349998 52.689999 45.000000 48.820000 46.160000 Z" fill="#FFFFFF"/><path d=" M 31.240000 53.770000 C 27.350000 52.580002 26.530001 50.950001 26.530001 49.770000 L 28.530001 49.770000 C 28.530001 50.130001 29.219999 51.029999 31.820000 51.820000 Z" fill="#FFFFFF"/><path d=" M 48.820000 53.759998 L 48.240002 51.840000 C 50.820000 51.049999 51.500000 50.160000 51.500000 49.840000 L 53.500000 49.840000 C 53.500000 51.000000 52.689999 52.570000 48.820000 53.759998 Z" fill="#FFFFFF"/><path d=" M 40.000000 39.700001 C 33.290001 39.700001 26.510000 37.950001 26.510000 34.599998 C 26.510000 31.250000 33.310001 29.500000 40.000000 29.500000 C 46.689999 29.500000 53.500000 31.250000 53.500000 34.599998 C 53.500000 37.950001 46.709999 39.700001 40.000000 39.700001 Z M 40.000000 31.500000 C 32.560001 31.500000 28.510000 33.500000 28.510000 34.599998 C 28.510000 35.700001 32.509998 37.700001 40.000000 37.700001 C 47.490002 37.700001 51.500000 35.650002 51.500000 34.599998 C 51.500000 33.549999 47.439999 31.500000 40.000000 31.500000 Z" fill="#FFFFFF"/><path d=" M 20.530001 44.500000 L 18.530001 44.500000 L 18.530001 41.500000 C 18.530001 40.947716 18.977716 40.500000 19.530001 40.500000 L 24.530001 40.500000 L 24.530001 42.500000 L 20.530001 42.500000 Z" fill="#FFFFFF"/><path d=" M 61.529999 45.500000 L 55.529999 45.500000 L 55.529999 43.500000 L 60.529999 43.500000 L 60.529999 42.500000 L 55.529999 42.500000 L 55.529999 40.500000 L 61.529999 40.500000 C 62.082283 40.500000 62.529999 40.947716 62.529999 41.500000 L 62.529999 44.500000 C 62.529999 45.052284 62.082283 45.500000 61.529999 45.500000 Z" fill="#FFFFFF"/><path d=" M 64.529999 45.500000 L 55.529999 45.500000 L 55.529999 43.500000 L 63.529999 43.500000 L 63.529999 28.000000 C 61.284962 27.278074 60.050236 24.872875 60.772163 22.627836 C 61.193394 21.317902 62.220066 20.291229 63.529999 19.869999 L 63.529999 19.500000 L 16.469999 19.500000 L 16.469999 19.820000 C 18.720560 20.505806 19.989042 22.886202 19.303236 25.136763 C 18.889620 26.494095 17.827330 27.556383 16.469999 27.969999 L 16.469999 43.500000 L 24.530001 43.500000 L 24.530001 45.500000 L 15.470000 45.500000 C 14.917715 45.500000 14.470000 45.052284 14.470000 44.500000 L 14.470000 27.100000 C 14.470000 26.547716 14.917715 26.100000 15.470000 26.100000 C 16.690550 25.983757 17.585768 24.900074 17.469524 23.679525 C 17.368601 22.619831 16.529694 21.780924 15.470000 21.680000 C 14.917715 21.680000 14.470000 21.232285 14.470000 20.680000 L 14.470000 18.500000 C 14.470000 17.947716 14.917715 17.500000 15.470000 17.500000 L 64.529999 17.500000 C 65.082283 17.500000 65.529999 17.947716 65.529999 18.500000 L 65.529999 20.690001 C 65.529999 21.242285 65.082283 21.690001 64.529999 21.690001 C 63.312210 21.832287 62.440346 22.934847 62.582634 24.152634 C 62.702042 25.174603 63.508034 25.980593 64.529999 26.100000 C 65.082283 26.100000 65.529999 26.547716 65.529999 27.100000 L 65.529999 44.500000 C 65.529999 45.052284 65.082283 45.500000 64.529999 45.500000 Z" fill="#FFFFFF"/><path d=" M 32.529999 28.500000 L 30.530001 28.500000 L 30.530001 22.500000 C 30.530001 21.947716 30.977716 21.500000 31.530001 21.500000 L 38.529999 21.500000 C 39.082283 21.500000 39.529999 21.947716 39.529999 22.500000 L 39.529999 27.500000 L 37.529999 27.500000 L 37.529999 23.500000 L 32.529999 23.500000 Z" fill="#FFFFFF"/><path d=" M 49.529999 28.500000 L 47.529999 28.500000 L 47.529999 23.500000 L 42.529999 23.500000 L 42.529999 27.500000 L 40.529999 27.500000 L 40.529999 22.500000 C 40.529999 21.947716 40.977715 21.500000 41.529999 21.500000 L 48.529999 21.500000 C 49.082283 21.500000 49.529999 21.947716 49.529999 22.500000 Z" fill="#FFFFFF"/><path d=" M 58.529999 38.500000 L 55.529999 38.500000 L 55.529999 36.500000 L 57.529999 36.500000 L 57.529999 23.500000 L 52.529999 23.500000 L 52.529999 29.500000 L 50.529999 29.500000 L 50.529999 22.500000 C 50.529999 21.947716 50.977715 21.500000 51.529999 21.500000 L 58.529999 21.500000 C 59.082283 21.500000 59.529999 21.947716 59.529999 22.500000 L 59.529999 37.500000 C 59.529999 38.052284 59.082283 38.500000 58.529999 38.500000 Z" fill="#FFFFFF"/><path d=" M 24.530001 38.500000 L 21.530001 38.500000 C 20.977716 38.500000 20.530001 38.052284 20.530001 37.500000 L 20.530001 22.500000 C 20.530001 21.947716 20.977716 21.500000 21.530001 21.500000 L 28.530001 21.500000 C 29.082285 21.500000 29.530001 21.947716 29.530001 22.500000 L 29.530001 29.500000 L 27.530001 29.500000 L 27.530001 23.500000 L 22.530001 23.500000 L 22.530001 36.500000 L 24.530001 36.500000 Z" fill="#FFFFFF"/><path d=" M 44.689999 56.250000 L 44.689999 45.869999 L 41.090000 52.770000 L 38.889999 52.770000 L 35.410000 45.910000 L 35.410000 56.250000 L 33.169998 56.250000 L 33.169998 42.389999 L 35.889999 42.389999 L 40.049999 50.650002 L 44.290001 42.389999 L 46.930000 42.389999 L 46.930000 56.250000 Z" fill="#FFFFFF"/></g></svg>