<svg version="1.1" width="80.000000" height="115.000000" viewBox="0.000000 0.000000 80.000000 115.000000" xmlns="http://www.w3.org/2000/svg" xmlns:xlink="http://www.w3.org/1999/xlink" overflow="hidden"><g id="CARDS"><rect x="1.000000" y="1.000000" width="78.000000" height="78.000000" fill="#232F3E"/><path d=" M 0.000000 0.000000 L 0.000000 80.000000 L 0.000000 80.000000 L 0.000000 115.000000 L 80.000000 115.000000 L 80.000000 80.000000 L 80.000000 80.000000 L 80.000000 0.000000 Z M 1.000000 1.000000 L 79.000000 1.000000 L 79.000000 79.000000 L 1.000000 79.000000 Z" fill="#FFFFFF"/></g><g id="TEXT_-_EDIT"><path d=" M 25.350000 92.349998 L 24.920000 90.529999 L 22.920000 90.529999 L 22.500000 92.349998 L 20.719999 92.349998 L 23.000000 84.720001 L 24.900000 84.720001 L 27.209999 92.349998 Z M 23.170000 89.430000 L 24.660000 89.430000 L 23.900000 86.269997 Z" fill="#232F3E"/><path d=" M 34.060001 92.349998 L 34.060001 88.639999 C 34.076664 88.401566 34.028278 88.163086 33.920002 87.949997 C 33.819908 87.796371 33.642418 87.711487 33.460003 87.729996 C 33.174831 87.743271 32.898491 87.833084 32.660004 87.989998 C 32.664822 88.029854 32.664822 88.070145 32.660004 88.110001 L 32.660000 92.349998 L 31.000000 92.349998 L 31.000000 88.639999 C 31.019257 88.402504 30.974358 88.164200 30.870001 87.949997 C 30.765142 87.796478 30.585056 87.712181 30.400002 87.729996 C 30.121338 87.744865 29.851856 87.834694 29.620001 87.989998 L 29.620001 92.349998 L 28.000000 92.349998 L 28.000000 86.720001 L 29.350000 86.720001 L 29.480000 87.230003 C 30.005705 86.838974 30.635632 86.612755 31.289999 86.580002 C 31.787903 86.543671 32.259682 86.807076 32.489998 87.250000 C 33.020988 86.851845 33.657448 86.618820 34.320000 86.580002 C 34.698605 86.567619 35.063778 86.720993 35.320000 87.000000 C 35.580429 87.351334 35.707973 87.783562 35.680000 88.220001 L 35.680000 92.349998 Z" fill="#232F3E"/><path d=" M 40.000000 92.349998 L 39.860001 91.839996 C 39.704742 92.042564 39.502155 92.203949 39.270000 92.309998 C 39.023094 92.427322 38.753361 92.488777 38.480000 92.489998 C 38.038441 92.498497 37.613724 92.320625 37.310001 92.000000 C 37.006588 91.668808 36.851307 91.228241 36.880001 90.779999 C 36.856857 90.286880 37.050484 89.808296 37.410000 89.470001 C 37.807274 89.133095 38.320316 88.964470 38.840000 89.000000 C 39.154030 89.006668 39.466179 89.050301 39.770000 89.129997 L 39.770000 88.620003 C 39.797573 88.349762 39.741737 88.077560 39.610001 87.840004 C 39.445477 87.687714 39.222755 87.614693 39.000000 87.640007 C 38.395546 87.665237 37.798565 87.783279 37.230000 87.990005 L 37.230000 87.000000 C 37.516563 86.840446 37.827354 86.728966 38.149998 86.669998 C 38.528015 86.589485 38.913502 86.549255 39.299999 86.549995 C 39.843796 86.502090 40.385880 86.659012 40.820000 86.989998 C 41.164772 87.366852 41.335323 87.871239 41.290001 88.379997 L 41.290001 92.320000 Z M 39.000000 91.430000 C 39.298344 91.418404 39.580971 91.293190 39.790001 91.080002 L 39.790001 90.000000 C 39.587475 89.948616 39.378887 89.925064 39.170002 89.930000 C 38.969070 89.911972 38.770714 89.985435 38.630001 90.129997 C 38.490948 90.293694 38.422604 90.505920 38.440002 90.719994 C 38.429714 90.905304 38.482594 91.088631 38.590004 91.239990 C 38.687565 91.366325 38.840549 91.437218 39.000004 91.429993 Z" fill="#232F3E"/><path d=" M 42.279999 92.349998 L 42.279999 91.279999 L 44.770000 87.879997 L 42.369999 87.879997 L 42.369999 86.720001 L 46.509998 86.720001 L 46.509998 87.790001 L 44.000000 91.190002 L 46.540001 91.190002 L 46.540001 92.349998 Z" fill="#232F3E"/><path d=" M 49.790001 92.489998 C 49.108715 92.511253 48.453094 92.229225 48.000000 91.720001 C 47.133984 90.392052 47.133984 88.677956 48.000000 87.349998 C 49.011749 86.331032 50.657967 86.325180 51.676933 87.336929 C 51.681305 87.341270 51.685661 87.345627 51.690002 87.349998 C 52.556019 88.677948 52.556019 90.392044 51.690002 91.720001 C 51.211487 92.259041 50.508781 92.543823 49.790001 92.489998 Z M 49.790001 91.339996 C 50.076321 91.350388 50.337559 91.177567 50.440002 90.909996 C 50.706799 90.016144 50.706799 89.063843 50.440002 88.169998 C 50.304638 87.813774 49.906124 87.634735 49.549900 87.770103 C 49.365585 87.840141 49.220043 87.985687 49.150002 88.169998 C 48.883205 89.063850 48.883205 90.016151 49.150002 90.909996 C 49.248730 91.175995 49.506416 91.349129 49.790001 91.339996 Z" fill="#232F3E"/><path d=" M 56.549999 92.349998 L 56.549999 88.650002 C 56.566494 88.408363 56.518166 88.166710 56.410000 87.950005 C 56.294102 87.793236 56.103878 87.709541 55.910000 87.730003 C 55.621128 87.739960 55.340698 87.829971 55.099998 87.990005 L 55.099998 92.349998 L 53.439999 92.349998 L 53.439999 86.720001 L 54.790001 86.720001 L 54.930000 87.230003 C 55.464371 86.833908 56.105400 86.607452 56.770000 86.580002 C 57.171432 86.553581 57.563728 86.707565 57.840000 87.000000 C 58.102020 87.350540 58.229740 87.783371 58.200001 88.220001 L 58.200001 92.349998 Z" fill="#232F3E"/><path d=" M 13.560000 106.349998 L 13.560000 98.720001 L 18.100000 98.720001 L 18.100000 99.900002 L 15.250000 99.900002 L 15.250000 101.849998 L 17.540001 101.849998 L 17.540001 103.000000 L 15.250000 103.000000 L 15.250000 105.150002 L 18.100000 105.150002 L 18.100000 106.330002 Z" fill="#232F3E"/><path d=" M 21.620001 106.250000 C 21.299803 106.366165 20.960457 106.420456 20.620001 106.410004 C 20.224247 106.441948 19.833025 106.307922 19.540001 106.040001 C 19.276512 105.729019 19.147055 105.326263 19.180000 104.919998 L 19.180000 98.209999 L 20.830000 98.209999 L 20.830000 104.750000 C 20.819199 104.888161 20.846889 105.026619 20.910000 105.150002 C 20.990696 105.239822 21.110144 105.284615 21.230000 105.270004 C 21.346470 105.279564 21.463528 105.279564 21.580000 105.270004 Z" fill="#232F3E"/><path d=" M 25.540001 106.349998 L 25.389999 105.839996 C 25.239302 106.046989 25.035442 106.209389 24.799999 106.309998 C 24.556252 106.426201 24.290020 106.487640 24.019999 106.489998 C 23.580818 106.513031 23.152317 106.349617 22.839998 106.040001 C 22.533968 105.709824 22.375166 105.269508 22.399998 104.820000 C 22.376856 104.326881 22.570480 103.848297 22.929998 103.510002 C 23.333862 103.177910 23.847986 103.010109 24.369999 103.040001 C 24.684029 103.046669 24.996178 103.090302 25.299999 103.169998 L 25.299999 102.660004 C 25.325197 102.388687 25.265814 102.116226 25.129999 101.880005 C 24.965477 101.727715 24.742752 101.654694 24.519999 101.680008 C 23.915545 101.705238 23.318565 101.823280 22.749998 102.030006 L 22.750000 101.029999 C 23.037077 100.871574 23.347679 100.760162 23.670000 100.699997 C 24.051403 100.619514 24.440199 100.579300 24.830000 100.579994 C 25.370548 100.533653 25.908953 100.690544 26.340000 101.019997 C 26.689232 101.394203 26.860474 101.900635 26.809999 102.409996 L 26.809999 106.349998 Z M 24.540001 105.430000 C 24.841385 105.418922 25.127319 105.293823 25.340000 105.080002 L 25.340000 104.000000 C 25.134060 103.948677 24.922182 103.925140 24.710001 103.930000 C 24.509455 103.914780 24.312250 103.987816 24.170000 104.129997 C 24.038239 104.297188 23.974005 104.507729 23.990000 104.719994 C 23.979710 104.905304 24.032593 105.088631 24.139999 105.239990 C 24.224926 105.354698 24.357376 105.424606 24.500000 105.429993 Z" fill="#232F3E"/><path d=" M 30.209999 104.769997 C 30.209999 104.519997 30.040001 104.309998 29.690001 104.150002 L 29.000000 103.800003 C 28.326485 103.560318 27.874882 102.924881 27.870001 102.210007 C 27.851606 101.750854 28.056538 101.311180 28.420000 101.030006 C 28.842360 100.712837 29.362471 100.553619 29.889999 100.580009 C 30.419649 100.581734 30.942278 100.701294 31.420000 100.930008 L 31.420000 101.930000 C 31.191442 101.850227 30.957523 101.786736 30.719999 101.739998 C 30.522863 101.696541 30.321846 101.673088 30.119999 101.669998 C 29.610001 101.669998 29.350000 101.849998 29.350000 102.209999 C 29.350000 102.570000 29.559999 102.660004 29.990000 102.870003 L 30.709999 103.209999 C 31.016876 103.345100 31.282536 103.559013 31.480000 103.830002 C 31.648260 104.110268 31.731627 104.433311 31.719999 104.760002 C 31.744759 105.245941 31.541359 105.715607 31.170000 106.029999 C 30.745514 106.351448 30.221912 106.514183 29.690001 106.489998 C 29.056129 106.497437 28.430470 106.346176 27.870001 106.049995 L 27.870001 105.050003 C 28.385830 105.247581 28.928698 105.365601 29.480001 105.400002 C 29.684174 105.412933 29.886271 105.352661 30.050001 105.230003 C 30.170710 105.109100 30.229628 104.939713 30.210001 104.770004 Z" fill="#232F3E"/><path d=" M 35.660000 106.199997 C 35.266457 106.346306 34.849857 106.420822 34.430000 106.419998 C 33.954887 106.461807 33.481987 106.318504 33.110001 106.019997 C 32.809147 105.656647 32.662037 105.190201 32.700001 104.719994 L 32.700001 101.820000 L 32.000000 101.820000 L 32.000000 100.900002 L 32.779999 100.750000 L 33.000000 99.209999 L 34.360001 99.209999 L 34.360001 100.720001 L 35.639999 100.720001 L 35.639999 101.820000 L 34.349998 101.820000 L 34.349998 104.589996 C 34.331528 104.776146 34.385220 104.962288 34.500000 105.109993 C 34.646587 105.234970 34.838745 105.292976 35.029999 105.269997 C 35.242237 105.265694 35.453423 105.238876 35.660000 105.189995 Z" fill="#232F3E"/><path d=" M 37.400002 99.809998 C 37.144760 99.822983 36.893185 99.745026 36.690002 99.589996 C 36.518066 99.434639 36.423008 99.211624 36.430004 98.979996 C 36.420197 98.747849 36.515739 98.523689 36.690002 98.369995 C 36.888119 98.204575 37.142521 98.122162 37.400002 98.139992 C 37.654102 98.124771 37.904446 98.207024 38.100002 98.369995 C 38.280453 98.519913 38.380360 98.745628 38.370003 98.979996 C 38.378819 99.214073 38.279198 99.439140 38.100002 99.589996 C 37.902973 99.749374 37.652782 99.828011 37.400002 99.809998 Z M 36.570000 106.349998 L 36.570000 100.720001 L 38.220001 100.720001 L 38.220001 106.349998 Z" fill="#232F3E"/><path d=" M 44.730000 106.129997 C 44.161667 106.360519 43.553272 106.476074 42.939999 106.469994 C 40.700001 106.470001 39.570000 105.169998 39.570000 102.570000 C 39.498547 101.512779 39.811020 100.465294 40.450001 99.620003 C 41.099339 98.922134 42.029007 98.554680 42.980000 98.620003 C 43.543499 98.620705 44.102318 98.722313 44.630001 98.920006 L 44.630001 100.129997 C 44.162052 99.991005 43.677963 99.913689 43.190002 99.899994 C 42.650455 99.854988 42.124416 100.084198 41.790001 100.509995 C 41.445202 101.091789 41.288071 101.765701 41.340000 102.439995 L 41.340000 102.690002 C 41.289349 103.353394 41.442886 104.016403 41.779999 104.590004 C 42.101360 105.015427 42.618813 105.245827 43.149998 105.200005 C 43.684765 105.173027 44.214783 105.085808 44.730000 104.940002 Z" fill="#232F3E"/><path d=" M 48.630001 106.349998 L 48.490002 105.839996 C 48.334743 106.042564 48.132156 106.203949 47.900002 106.309998 C 47.653095 106.427322 47.383362 106.488777 47.110001 106.489998 C 46.671017 106.511780 46.243004 106.348557 45.930000 106.040001 C 45.626587 105.708809 45.471306 105.268242 45.500000 104.820000 C 45.476856 104.326881 45.670483 103.848297 46.029999 103.510002 C 46.427273 103.173096 46.940315 103.004471 47.459999 103.040001 C 47.774029 103.046669 48.086178 103.090302 48.389999 103.169998 L 48.389999 102.660004 C 48.417572 102.389763 48.361736 102.117561 48.230000 101.880005 C 48.065475 101.727715 47.842754 101.654694 47.619999 101.680008 C 47.015545 101.705238 46.418564 101.823280 45.849998 102.030006 L 45.849998 101.029999 C 46.133469 100.871468 46.440800 100.760017 46.759998 100.699997 C 47.141479 100.620018 47.530224 100.579803 47.919998 100.579994 C 48.463795 100.532089 49.005878 100.689011 49.439999 101.019997 C 49.784771 101.396851 49.955322 101.901237 49.910000 102.409996 L 49.910000 106.349998 Z M 47.630001 105.430000 C 47.928345 105.418404 48.210972 105.293190 48.420002 105.080002 L 48.419998 104.000000 C 48.214169 103.948074 48.002205 103.924522 47.789997 103.930000 C 47.592247 103.913605 47.397617 103.987053 47.259998 104.129997 C 47.120945 104.293694 47.052601 104.505920 47.070000 104.719994 C 47.059711 104.905304 47.112591 105.088631 47.220001 105.239990 C 47.311195 105.357796 47.451038 105.427719 47.600002 105.429993 Z" fill="#232F3E"/><path d=" M 54.939999 106.089996 C 54.747086 106.213348 54.533760 106.301392 54.309998 106.349998 C 54.044289 106.410645 53.772537 106.440842 53.499996 106.439995 C 52.807278 106.490982 52.129341 106.222023 51.659996 105.709991 C 51.198711 105.088364 50.975227 104.322128 51.029995 103.549988 C 50.979218 102.771988 51.217846 102.002678 51.699993 101.389984 C 52.176395 100.867004 52.863823 100.587616 53.569992 100.629982 C 54.039944 100.630127 54.502968 100.743309 54.919991 100.959984 L 54.919998 101.959999 C 54.599510 101.841644 54.261562 101.777435 53.919998 101.769997 C 53.558846 101.733589 53.204178 101.884514 52.980000 102.169998 C 52.762070 102.563194 52.664688 103.011833 52.700001 103.459999 L 52.700001 103.620003 C 52.669102 104.067123 52.773647 104.513176 53.000000 104.900002 C 53.208992 105.182068 53.550587 105.333885 53.900002 105.300003 C 54.269382 105.292480 54.634716 105.221443 54.980003 105.090004 Z" fill="#232F3E"/><path d=" M 59.099998 106.349998 L 59.099998 102.650002 C 59.120342 102.428413 59.086006 102.205223 59.000000 102.000000 C 58.882828 101.844841 58.693558 101.761559 58.500000 101.779999 C 58.207970 101.789673 57.924252 101.879631 57.680000 102.040001 L 57.680000 106.400002 L 56.000000 106.400002 L 56.000000 98.209999 L 57.650002 98.209999 L 57.650002 101.120003 C 58.149483 100.788506 58.730915 100.601616 59.330002 100.580002 C 59.728470 100.553772 60.117638 100.707970 60.390003 101.000000 C 60.659733 101.347038 60.791527 101.781601 60.760002 102.220001 L 60.759998 106.349998 Z" fill="#232F3E"/><path d=" M 63.369999 103.919998 C 63.349251 104.324760 63.477299 104.723129 63.730000 105.040001 C 64.024475 105.288261 64.406647 105.407242 64.790001 105.370003 C 65.019203 105.363998 65.247131 105.333832 65.470001 105.280006 C 65.741249 105.228806 66.008575 105.158638 66.270004 105.070007 L 66.269997 106.070000 C 66.010979 106.215523 65.730995 106.320099 65.439995 106.379997 C 65.111473 106.451813 64.776276 106.488686 64.439995 106.489998 C 62.720001 106.489998 61.860001 105.489998 61.860001 103.540001 C 61.806961 102.755630 62.029819 101.977402 62.490002 101.340004 C 62.948692 100.815964 63.625027 100.535088 64.320000 100.580002 C 65.680000 100.580002 66.320000 101.339996 66.320000 102.870003 C 66.319130 103.206871 66.278854 103.542488 66.199997 103.870003 Z M 64.279999 101.599998 C 63.700001 101.599998 63.400002 102.059998 63.369999 102.970001 L 65.000000 102.970001 L 65.000000 102.720001 C 65.020439 102.423340 64.961777 102.126572 64.830002 101.860001 C 64.708931 101.678207 64.497330 101.578178 64.279999 101.599998 Z" fill="#232F3E"/></g><g id="ICONS_-_EDIT"><path d=" M 40.000000 39.700001 C 33.290001 39.700001 26.510000 37.950001 26.510000 34.599998 C 26.510000 31.250000 33.310001 29.500000 40.000000 29.500000 C 46.689999 29.500000 53.500000 31.250000 53.500000 34.599998 C 53.500000 37.950001 46.709999 39.700001 40.000000 39.700001 Z M 40.000000 31.500000 C 32.560001 31.500000 28.510000 33.500000 28.510000 34.599998 C 28.510000 35.700001 32.509998 37.700001 40.000000 37.700001 C 47.490002 37.700001 51.500000 35.650002 51.500000 34.599998 C 51.500000 33.549999 47.439999 31.500000 40.000000 31.500000 Z" fill="#FFFFFF"/><path d=" M 40.000000 62.500000 C 33.290001 62.500000 26.510000 60.750000 26.510000 57.400002 L 26.510000 34.599998 L 28.510000 34.599998 L 28.510000 57.400002 C 28.510000 58.450001 32.509998 60.500000 40.000000 60.500000 C 47.490002 60.500000 51.480000 58.500000 51.480000 57.400002 L 51.480000 34.599998 L 53.480000 34.599998 L 53.480000 57.400002 C 53.500000 60.750000 46.709999 62.500000 40.000000 62.500000 Z" fill="#FFFFFF"/><path d=" M 40.000000 47.299999 C 33.290001 47.299999 26.510000 45.549999 26.510000 42.200001 L 28.510000 42.200001 C 28.510000 43.200001 32.509998 45.299999 40.000000 45.299999 C 47.490002 45.299999 51.480000 43.299999 51.480000 42.200001 L 53.480000 42.200001 C 53.500000 45.549999 46.709999 47.299999 40.000000 47.299999 Z" fill="#FFFFFF"/><path d=" M 40.000000 54.900002 C 33.290001 54.900002 26.510000 53.150002 26.510000 49.799999 L 28.510000 49.799999 C 28.510000 50.849998 32.509998 52.900002 40.000000 52.900002 C 47.490002 52.900002 51.480000 50.900002 51.480000 49.799999 L 53.480000 49.799999 C 53.500000 53.150002 46.709999 54.900002 40.000000 54.900002 Z" fill="#FFFFFF"/><path d=" M 40.000000 39.700001 C 33.290001 39.700001 26.510000 37.950001 26.510000 34.599998 C 26.510000 31.250000 33.310001 29.500000 40.000000 29.500000 C 46.689999 29.500000 53.500000 31.250000 53.500000 34.599998 C 53.500000 37.950001 46.709999 39.700001 40.000000 39.700001 Z M 40.000000 31.500000 C 32.560001 31.500000 28.510000 33.500000 28.510000 34.599998 C 28.510000 35.700001 32.509998 37.700001 40.000000 37.700001 C 47.490002 37.700001 51.500000 35.650002 51.500000 34.599998 C 51.500000 33.549999 47.439999 31.500000 40.000000 31.500000 Z" fill="#FFFFFF"/><path d=" M 20.530001 44.500000 L 18.530001 44.500000 L 18.530001 41.500000 C 18.530001 40.947716 18.977716 40.500000 19.530001 40.500000 L 24.469999 40.500000 L 24.469999 42.500000 L 20.530001 42.500000 Z" fill="#FFFFFF"/><path d=" M 61.529999 45.500000 L 55.529999 45.500000 L 55.529999 43.500000 L 60.529999 43.500000 L 60.529999 42.500000 L 55.529999 42.500000 L 55.529999 40.500000 L 61.529999 40.500000 C 62.082283 40.500000 62.529999 40.947716 62.529999 41.500000 L 62.529999 44.500000 C 62.529999 45.052284 62.082283 45.500000 61.529999 45.500000 Z" fill="#FFFFFF"/><path d=" M 64.529999 45.500000 L 55.529999 45.500000 L 55.529999 43.500000 L 63.529999 43.500000 L 63.529999 28.000000 C 61.284962 27.278074 60.050236 24.872875 60.772163 22.627836 C 61.193394 21.317902 62.220066 20.291229 63.529999 19.869999 L 63.529999 19.500000 L 16.469999 19.500000 L 16.469999 19.820000 C 18.720560 20.505806 19.989042 22.886202 19.303236 25.136763 C 18.889620 26.494095 17.827330 27.556383 16.469999 27.969999 L 16.469999 43.500000 L 24.469999 43.500000 L 24.469999 45.500000 L 15.470000 45.500000 C 14.917715 45.500000 14.470000 45.052284 14.470000 44.500000 L 14.470000 27.100000 C 14.470000 26.547716 14.917715 26.100000 15.470000 26.100000 C 16.690550 25.983757 17.585768 24.900074 17.469524 23.679525 C 17.368601 22.619831 16.529694 21.780924 15.470000 21.680000 C 14.917715 21.680000 14.470000 21.232285 14.470000 20.680000 L 14.470000 18.500000 C 14.470000 17.947716 14.917715 17.500000 15.470000 17.500000 L 64.529999 17.500000 C 65.082283 17.500000 65.529999 17.947716 65.529999 18.500000 L 65.529999 20.690001 C 65.529999 21.242285 65.082283 21.690001 64.529999 21.690001 C 63.312210 21.832287 62.440346 22.934847 62.582634 24.152634 C 62.702042 25.174603 63.508034 25.980593 64.529999 26.100000 C 65.082283 26.100000 65.529999 26.547716 65.529999 27.100000 L 65.529999 44.500000 C 65.529999 45.052284 65.082283 45.500000 64.529999 45.500000 Z" fill="#FFFFFF"/><path d=" M 32.529999 28.500000 L 30.530001 28.500000 L 30.530001 22.500000 C 30.530001 21.947716 30.977716 21.500000 31.530001 21.500000 L 38.529999 21.500000 C 39.082283 21.500000 39.529999 21.947716 39.529999 22.500000 L 39.529999 27.500000 L 37.529999 27.500000 L 37.529999 23.500000 L 32.529999 23.500000 Z" fill="#FFFFFF"/><path d=" M 49.529999 28.500000 L 47.529999 28.500000 L 47.529999 23.500000 L 42.529999 23.500000 L 42.529999 27.500000 L 40.529999 27.500000 L 40.529999 22.500000 C 40.529999 21.947716 40.977715 21.500000 41.529999 21.500000 L 48.529999 21.500000 C 49.082283 21.500000 49.529999 21.947716 49.529999 22.500000 Z" fill="#FFFFFF"/><path d=" M 58.529999 38.500000 L 55.529999 38.500000 L 55.529999 36.500000 L 57.529999 36.500000 L 57.529999 23.500000 L 52.529999 23.500000 L 52.529999 29.500000 L 50.529999 29.500000 L 50.529999 22.500000 C 50.529999 21.947716 50.977715 21.500000 51.529999 21.500000 L 58.529999 21.500000 C 59.082283 21.500000 59.529999 21.947716 59.529999 22.500000 L 59.529999 37.500000 C 59.529999 38.052284 59.082283 38.500000 58.529999 38.500000 Z" fill="#FFFFFF"/><path d=" M 24.469999 38.500000 L 21.530001 38.500000 C 20.977716 38.500000 20.530001 38.052284 20.530001 37.500000 L 20.530001 22.500000 C 20.530001 21.947716 20.977716 21.500000 21.530001 21.500000 L 28.530001 21.500000 C 29.082285 21.500000 29.530001 21.947716 29.530001 22.500000 L 29.530001 29.500000 L 27.530001 29.500000 L 27.530001 23.500000 L 22.530001 23.500000 L 22.530001 36.500000 L 24.469999 36.500000 Z" fill="#FFFFFF"/></g></svg>