<svg version="1.1" width="80.000000" height="115.000000" viewBox="0.000000 0.000000 80.000000 115.000000" xmlns="http://www.w3.org/2000/svg" xmlns:xlink="http://www.w3.org/1999/xlink" overflow="hidden"><g id="CARDS"><rect x="1.000000" y="1.000000" width="78.000000" height="78.000000" fill="#232F3E"/><path d=" M 0.000000 0.000000 L 0.000000 80.000000 L 0.000000 80.000000 L 0.000000 115.000000 L 80.000000 115.000000 L 80.000000 80.000000 L 80.000000 80.000000 L 80.000000 0.000000 Z M 1.000000 1.000000 L 79.000000 1.000000 L 79.000000 79.000000 L 1.000000 79.000000 Z" fill="#FFFFFF"/></g><g id="TEXT_-_EDIT"><path d=" M 25.350000 92.349998 L 24.920000 90.529999 L 22.920000 90.529999 L 22.500000 92.349998 L 20.719999 92.349998 L 23.000000 84.720001 L 24.900000 84.720001 L 27.209999 92.349998 Z M 23.170000 89.430000 L 24.660000 89.430000 L 23.900000 86.269997 Z" fill="#232F3E"/><path d=" M 34.060001 92.349998 L 34.060001 88.639999 C 34.076664 88.401566 34.028278 88.163086 33.920002 87.949997 C 33.819908 87.796371 33.642418 87.711487 33.460003 87.729996 C 33.174831 87.743271 32.898491 87.833084 32.660004 87.989998 C 32.664822 88.029854 32.664822 88.070145 32.660004 88.110001 L 32.660000 92.349998 L 31.000000 92.349998 L 31.000000 88.639999 C 31.019257 88.402504 30.974358 88.164200 30.870001 87.949997 C 30.765142 87.796478 30.585056 87.712181 30.400002 87.729996 C 30.121338 87.744865 29.851856 87.834694 29.620001 87.989998 L 29.620001 92.349998 L 28.000000 92.349998 L 28.000000 86.720001 L 29.350000 86.720001 L 29.480000 87.230003 C 30.005705 86.838974 30.635632 86.612755 31.289999 86.580002 C 31.787903 86.543671 32.259682 86.807076 32.489998 87.250000 C 33.020988 86.851845 33.657448 86.618820 34.320000 86.580002 C 34.698605 86.567619 35.063778 86.720993 35.320000 87.000000 C 35.580429 87.351334 35.707973 87.783562 35.680000 88.220001 L 35.680000 92.349998 Z" fill="#232F3E"/><path d=" M 40.000000 92.349998 L 39.860001 91.839996 C 39.704742 92.042564 39.502155 92.203949 39.270000 92.309998 C 39.023094 92.427322 38.753361 92.488777 38.480000 92.489998 C 38.038441 92.498497 37.613724 92.320625 37.310001 92.000000 C 37.006588 91.668808 36.851307 91.228241 36.880001 90.779999 C 36.856857 90.286880 37.050484 89.808296 37.410000 89.470001 C 37.807274 89.133095 38.320316 88.964470 38.840000 89.000000 C 39.154030 89.006668 39.466179 89.050301 39.770000 89.129997 L 39.770000 88.620003 C 39.797573 88.349762 39.741737 88.077560 39.610001 87.840004 C 39.445477 87.687714 39.222755 87.614693 39.000000 87.640007 C 38.395546 87.665237 37.798565 87.783279 37.230000 87.990005 L 37.230000 87.000000 C 37.516563 86.840446 37.827354 86.728966 38.149998 86.669998 C 38.528015 86.589485 38.913502 86.549255 39.299999 86.549995 C 39.843796 86.502090 40.385880 86.659012 40.820000 86.989998 C 41.164772 87.366852 41.335323 87.871239 41.290001 88.379997 L 41.290001 92.320000 Z M 39.000000 91.430000 C 39.298344 91.418404 39.580971 91.293190 39.790001 91.080002 L 39.790001 90.000000 C 39.587475 89.948616 39.378887 89.925064 39.170002 89.930000 C 38.969070 89.911972 38.770714 89.985435 38.630001 90.129997 C 38.490948 90.293694 38.422604 90.505920 38.440002 90.719994 C 38.429714 90.905304 38.482594 91.088631 38.590004 91.239990 C 38.687565 91.366325 38.840549 91.437218 39.000004 91.429993 Z" fill="#232F3E"/><path d=" M 42.279999 92.349998 L 42.279999 91.279999 L 44.770000 87.879997 L 42.369999 87.879997 L 42.369999 86.720001 L 46.509998 86.720001 L 46.509998 87.790001 L 44.000000 91.190002 L 46.540001 91.190002 L 46.540001 92.349998 Z" fill="#232F3E"/><path d=" M 49.790001 92.489998 C 49.108715 92.511253 48.453094 92.229225 48.000000 91.720001 C 47.133984 90.392052 47.133984 88.677956 48.000000 87.349998 C 49.011749 86.331032 50.657967 86.325180 51.676933 87.336929 C 51.681305 87.341270 51.685661 87.345627 51.690002 87.349998 C 52.556019 88.677948 52.556019 90.392044 51.690002 91.720001 C 51.211487 92.259041 50.508781 92.543823 49.790001 92.489998 Z M 49.790001 91.339996 C 50.076321 91.350388 50.337559 91.177567 50.440002 90.909996 C 50.706799 90.016144 50.706799 89.063843 50.440002 88.169998 C 50.304638 87.813774 49.906124 87.634735 49.549900 87.770103 C 49.365585 87.840141 49.220043 87.985687 49.150002 88.169998 C 48.883205 89.063850 48.883205 90.016151 49.150002 90.909996 C 49.248730 91.175995 49.506416 91.349129 49.790001 91.339996 Z" fill="#232F3E"/><path d=" M 56.549999 92.349998 L 56.549999 88.650002 C 56.566494 88.408363 56.518166 88.166710 56.410000 87.950005 C 56.294102 87.793236 56.103878 87.709541 55.910000 87.730003 C 55.621128 87.739960 55.340698 87.829971 55.099998 87.990005 L 55.099998 92.349998 L 53.439999 92.349998 L 53.439999 86.720001 L 54.790001 86.720001 L 54.930000 87.230003 C 55.464371 86.833908 56.105400 86.607452 56.770000 86.580002 C 57.171432 86.553581 57.563728 86.707565 57.840000 87.000000 C 58.102020 87.350540 58.229740 87.783371 58.200001 88.220001 L 58.200001 92.349998 Z" fill="#232F3E"/><path d=" M 21.780001 101.000000 L 21.780001 106.370003 L 20.389999 106.370003 L 20.389999 98.720001 L 22.270000 98.720001 L 24.780001 104.070000 L 24.780001 98.720001 L 26.180000 98.720001 L 26.180000 106.349998 L 24.330000 106.349998 Z" fill="#232F3E"/><path d=" M 28.930000 103.919998 C 28.909250 104.324760 29.037298 104.723129 29.290001 105.040001 C 29.585566 105.286263 29.966881 105.404976 30.350000 105.370003 C 30.579248 105.364609 30.807241 105.334435 31.030001 105.280006 C 31.301527 105.230042 31.568939 105.159843 31.830000 105.070007 L 31.830000 106.070000 C 31.571758 106.217194 31.291508 106.321869 31.000000 106.379997 C 30.671476 106.451813 30.336279 106.488686 30.000000 106.489998 C 28.280001 106.489998 27.430000 105.489998 27.430000 103.540001 C 27.376963 102.755630 27.599819 101.977402 28.059999 101.340004 C 28.514650 100.816292 29.187925 100.535149 29.879999 100.580002 C 31.250000 100.580002 31.930000 101.339996 31.930000 102.870003 C 31.929127 103.206871 31.888853 103.542488 31.809999 103.870003 Z M 29.840000 101.599998 C 29.270000 101.599998 28.959999 102.059998 28.930000 102.970001 L 30.540001 102.970001 L 30.540001 102.720001 C 30.565041 102.423065 30.506136 102.125076 30.370001 101.860001 C 30.253952 101.683182 30.050858 101.583549 29.840000 101.599998 Z" fill="#232F3E"/><path d=" M 33.070000 108.610001 L 33.070000 100.720001 L 34.419998 100.720001 L 34.540001 101.199997 C 34.749096 101.010376 34.989269 100.858154 35.250000 100.750000 C 35.500294 100.644142 35.768318 100.586464 36.040001 100.580002 C 36.637028 100.550934 37.207184 100.830345 37.549999 101.320000 C 37.937717 101.963524 38.119179 102.710312 38.070000 103.459999 C 38.115498 104.232277 37.923569 104.999985 37.520000 105.659996 C 37.187870 106.166351 36.615158 106.462196 36.010002 106.439995 C 35.778233 106.438164 35.548401 106.397598 35.330002 106.319992 C 35.106758 106.242088 34.899918 106.123413 34.720001 105.969994 L 34.720001 108.610001 Z M 35.500000 101.699997 C 35.219852 101.697105 34.946270 101.784790 34.720001 101.949997 L 34.720001 105.059998 C 34.951759 105.223015 35.226723 105.313515 35.510002 105.320000 C 35.807823 105.338585 36.086246 105.171532 36.210003 104.900002 C 36.378620 104.463989 36.450279 103.996498 36.420002 103.529999 C 36.452286 103.050362 36.380657 102.569412 36.210003 102.119995 C 36.082703 101.846878 35.800671 101.680038 35.500004 101.699997 Z" fill="#232F3E"/><path d=" M 42.250000 106.199997 C 41.856689 106.347153 41.439934 106.421692 41.020000 106.419998 C 40.222198 106.570419 39.453510 106.045616 39.303085 105.247818 C 39.270218 105.073509 39.269173 104.894684 39.299999 104.720001 L 39.299999 101.820000 L 38.570000 101.820000 L 38.570000 100.900002 L 39.349998 100.750000 L 39.590000 99.209999 L 41.000000 99.209999 L 41.000000 100.720001 L 42.279999 100.720001 L 42.279999 101.820000 L 41.000000 101.820000 L 41.000000 104.589996 C 40.981529 104.776146 41.035221 104.962288 41.150002 105.109993 C 41.295341 105.237236 41.488529 105.295555 41.680000 105.269997 C 41.888977 105.266144 42.096893 105.239319 42.299999 105.189995 Z" fill="#232F3E"/><path d=" M 46.400002 106.349998 L 46.270000 105.839996 C 45.753742 106.234428 45.129059 106.461273 44.480000 106.489998 C 44.097652 106.511559 43.727371 106.352333 43.480000 106.059998 C 43.229744 105.696587 43.106686 105.260620 43.130001 104.820000 L 43.130001 100.720001 L 44.779999 100.720001 L 44.779999 104.339996 C 44.759487 104.603439 44.804134 104.867889 44.910000 105.109993 C 45.002514 105.267639 45.178036 105.357353 45.360001 105.339996 C 45.632057 105.331230 45.895866 105.244446 46.119999 105.089996 L 46.119999 100.720001 L 47.770000 100.720001 L 47.770000 106.349998 Z" fill="#232F3E"/><path d=" M 52.279999 106.349998 L 52.279999 102.650002 C 52.299313 102.407036 52.247173 102.163719 52.129997 101.950005 C 52.018669 101.793205 51.831146 101.709015 51.639996 101.730003 C 51.347965 101.739677 51.064247 101.829636 50.819996 101.990005 L 50.820000 106.349998 L 49.169998 106.349998 L 49.169998 100.720001 L 50.520000 100.720001 L 50.650002 101.230003 C 51.185242 100.835541 51.825752 100.609268 52.490002 100.580002 C 52.891655 100.552147 53.284542 100.706367 53.560001 101.000000 C 53.829731 101.347038 53.961525 101.781601 53.930000 102.220001 L 53.930000 106.349998 Z" fill="#232F3E"/><path d=" M 56.540001 103.919998 C 56.537796 104.309822 56.664345 104.689461 56.900002 105.000000 C 57.195568 105.246262 57.576881 105.364975 57.960003 105.330002 C 58.192554 105.324707 58.423874 105.294533 58.650002 105.240005 C 58.920975 105.187576 59.188213 105.117424 59.450001 105.030006 L 59.450001 106.029999 C 59.187084 106.174767 58.903931 106.279266 58.610001 106.339996 C 58.281601 106.412567 57.946323 106.449448 57.610001 106.449997 C 55.889999 106.449997 55.029999 105.449997 55.029999 103.500000 C 54.976959 102.715630 55.199818 101.937401 55.660000 101.300003 C 56.117764 100.774681 56.794765 100.493523 57.490002 100.540001 C 58.849998 100.540001 59.490002 101.300003 59.490002 102.830002 C 59.489128 103.166870 59.448856 103.502487 59.370003 103.830002 Z M 57.459999 101.599998 C 56.880001 101.599998 56.570000 102.059998 56.540001 102.970001 L 58.160000 102.970001 L 58.160000 102.720001 C 58.180443 102.423340 58.121780 102.126572 57.990002 101.860001 C 57.872513 101.684830 57.670444 101.585701 57.460003 101.599998 Z" fill="#232F3E"/></g><g id="ICONS_-_EDIT"><path d=" M 34.000000 29.440001 C 25.780001 29.440001 17.000000 26.910000 17.000000 22.219999 C 17.000000 17.530001 25.740000 15.000000 34.000000 15.000000 C 42.259998 15.000000 51.000000 17.530001 51.000000 22.219999 C 51.000000 26.910000 42.180000 29.440001 34.000000 29.440001 Z M 34.000000 17.000000 C 25.180000 17.000000 19.000000 19.750000 19.000000 22.219999 C 19.000000 24.690001 25.139999 27.440001 34.000000 27.440001 C 42.860001 27.440001 49.000000 24.690001 49.000000 22.219999 C 49.000000 19.750000 42.779999 17.000000 34.000000 17.000000 Z" fill="#FFFFFF"/><rect x="48.920000" y="22.220000" width="2.000000" height="13.360000" fill="#FFFFFF"/><path d=" M 34.000000 65.000000 C 25.780001 65.000000 17.000000 62.470001 17.000000 57.779999 L 17.000000 22.219999 L 19.000000 22.219999 L 19.000000 57.779999 C 19.000000 60.250000 25.139999 63.000000 34.000000 63.000000 C 42.860001 63.000000 49.000000 60.250000 49.000000 57.779999 L 49.000000 53.000000 L 51.000000 53.000000 L 51.000000 57.779999 C 50.919998 62.470001 42.180000 65.000000 34.000000 65.000000 Z" fill="#FFFFFF"/><path d=" M 34.000000 41.869999 C 25.799999 41.869999 17.080000 39.340000 17.080000 34.650002 L 19.080000 34.650002 C 19.080000 37.119999 25.209999 39.869999 34.000000 39.869999 C 36.811344 39.889072 39.614792 39.570118 42.349998 38.919998 L 42.830002 40.860001 C 39.938076 41.550999 36.973267 41.890121 34.000000 41.869999 Z" fill="#FFFFFF"/><path d=" M 34.000000 54.090000 C 25.799999 54.090000 17.080000 51.560001 17.080000 46.869999 L 19.080000 46.869999 C 19.080000 49.340000 25.209999 52.090000 34.000000 52.090000 C 35.476601 52.090359 36.952122 52.010239 38.419998 51.849998 L 38.639999 53.849998 C 37.098919 54.015205 35.549900 54.095329 34.000000 54.090000 Z" fill="#FFFFFF"/><rect x="55.590000" y="39.650000" width="7.920000" height="2.000000" fill="#FFFFFF" transform="matrix(0.510843,-0.859674,0.859674,0.510843,-5.810000,71.080000)"/><rect x="54.730000" y="51.790000" width="2.000000" height="6.230000" fill="#FFFFFF" transform="matrix(0.998986,-0.045014,0.045014,0.998986,-2.410000,2.560000)"/><rect x="49.280000" y="39.160000" width="2.000000" height="6.380000" fill="#FFFFFF" transform="matrix(0.714839,-0.699289,0.699289,0.714839,-15.280000,47.230000)"/><rect x="45.780000" y="48.050000" width="5.600000" height="2.000000" fill="#FFFFFF" transform="matrix(0.980000,-0.200000,0.200000,0.980000,-8.970000,10.910000)"/><rect x="58.110000" y="56.910000" width="5.650000" height="2.000000" fill="#FFFFFF" transform="matrix(0.848233,-0.529623,0.529623,0.848233,-21.420000,41.060000)"/><path d=" M 55.400002 52.799999 C 52.544689 52.799999 50.230003 50.485310 50.230003 47.630001 C 50.230003 44.774689 52.544693 42.460003 55.400002 42.460003 C 58.255314 42.460003 60.570000 44.774693 60.570000 47.630001 C 60.564499 50.483032 58.253029 52.794498 55.400002 52.799999 Z M 55.400002 44.459999 C 53.649258 44.459999 52.230003 45.879257 52.230003 47.629997 C 52.230003 49.380741 53.649261 50.799995 55.400002 50.799995 C 57.150745 50.799995 58.570000 49.380737 58.570000 47.629997 C 58.570000 45.879253 57.150742 44.459999 55.400002 44.459999 Z" fill="#FFFFFF"/><path d=" M 43.500000 54.000000 C 41.567005 54.000000 40.000000 52.432995 40.000000 50.500000 C 40.000000 48.567005 41.567005 47.000000 43.500000 47.000000 C 45.432995 47.000000 47.000000 48.567005 47.000000 50.500000 C 47.000000 52.432995 45.432995 54.000000 43.500000 54.000000 Z M 43.500000 49.000000 C 42.671574 49.000000 42.000000 49.671574 42.000000 50.500000 C 42.000000 51.328426 42.671574 52.000000 43.500000 52.000000 C 44.328426 52.000000 45.000000 51.328426 45.000000 50.500000 C 45.000000 49.671574 44.328426 49.000000 43.500000 49.000000 Z" fill="#FFFFFF"/><path d=" M 47.000000 41.500000 C 45.619289 41.500000 44.500000 40.380711 44.500000 39.000000 C 44.500000 37.619289 45.619289 36.500000 47.000000 36.500000 C 48.380711 36.500000 49.500000 37.619289 49.500000 39.000000 C 49.500000 40.380711 48.380711 41.500000 47.000000 41.500000 Z M 47.000000 38.500000 C 46.723858 38.500000 46.500000 38.723858 46.500000 39.000000 C 46.500000 39.276142 46.723858 39.500000 47.000000 39.500000 C 47.276142 39.500000 47.500000 39.276142 47.500000 39.000000 C 47.500000 38.723858 47.276142 38.500000 47.000000 38.500000 Z" fill="#FFFFFF"/><path d=" M 63.000000 38.689999 C 61.067005 38.689999 59.500000 37.122993 59.500000 35.189999 C 59.500000 33.257004 61.067005 31.689999 63.000000 31.689999 C 64.932999 31.689999 66.500000 33.257004 66.500000 35.189999 C 66.500000 37.122993 64.932999 38.689999 63.000000 38.689999 Z M 63.000000 33.689999 C 62.171574 33.689999 61.500000 34.361572 61.500000 35.189999 C 61.500000 36.018425 62.171574 36.689999 63.000000 36.689999 C 63.828426 36.689999 64.500000 36.018425 64.500000 35.189999 C 64.500000 34.361572 63.828426 33.689999 63.000000 33.689999 Z" fill="#FFFFFF"/><path d=" M 64.500000 58.000000 C 63.119289 58.000000 62.000000 56.880711 62.000000 55.500000 C 62.000000 54.119289 63.119289 53.000000 64.500000 53.000000 C 65.880714 53.000000 67.000000 54.119289 67.000000 55.500000 C 67.000000 56.880711 65.880714 58.000000 64.500000 58.000000 Z M 64.500000 55.000000 C 64.223854 55.000000 64.000000 55.223858 64.000000 55.500000 C 64.000000 55.776142 64.223854 56.000000 64.500000 56.000000 C 64.776146 56.000000 65.000000 55.776142 65.000000 55.500000 C 65.000000 55.223858 64.776146 55.000000 64.500000 55.000000 Z" fill="#FFFFFF"/><path d=" M 56.000000 65.000000 C 53.790859 65.000000 52.000000 63.209141 52.000000 61.000000 C 52.000000 58.790859 53.790859 57.000000 56.000000 57.000000 C 58.209141 57.000000 60.000000 58.790859 60.000000 61.000000 C 60.000000 63.209141 58.209141 65.000000 56.000000 65.000000 Z M 56.000000 59.000000 C 54.895432 59.000000 54.000000 59.895432 54.000000 61.000000 C 54.000000 62.104568 54.895432 63.000000 56.000000 63.000000 C 57.104568 63.000000 58.000000 62.104568 58.000000 61.000000 C 58.000000 59.895432 57.104568 59.000000 56.000000 59.000000 Z" fill="#FFFFFF"/></g></svg>