<svg version="1.1" width="80.000000" height="100.000000" viewBox="0.000000 0.000000 80.000000 100.000000" xmlns="http://www.w3.org/2000/svg" xmlns:xlink="http://www.w3.org/1999/xlink" overflow="hidden"><g id="CARDS"><rect x="1.000000" y="1.000000" width="78.000000" height="78.000000" fill="#232F3E"/><path d=" M 0.000000 0.000000 L 0.000000 80.000000 L 0.000000 80.000000 L 0.000000 100.000000 L 80.000000 100.000000 L 80.000000 80.000000 L 80.000000 80.000000 L 80.000000 0.000000 Z M 1.000000 1.000000 L 79.000000 1.000000 L 79.000000 79.000000 L 1.000000 79.000000 Z" fill="#FFFFFF"/></g><g id="TEXT_-_EDIT"><path d=" M 14.450000 92.349998 L 14.000000 90.529999 L 12.000000 90.529999 L 11.580000 92.349998 L 9.820000 92.349998 L 12.130000 84.720001 L 14.000000 84.720001 L 16.299999 92.349998 Z M 12.270000 89.430000 L 13.760000 89.430000 L 13.000000 86.269997 Z" fill="#232F3E"/><path d=" M 23.160000 92.349998 L 23.160000 88.639999 C 23.161694 88.416565 23.106642 88.196350 23.000000 88.000000 C 22.898390 87.848114 22.722015 87.763763 22.540001 87.779999 C 22.254559 87.791779 21.977829 87.881714 21.740002 88.040001 C 21.744919 88.079849 21.744919 88.120155 21.740002 88.160004 L 21.740000 92.400002 L 20.120001 92.400002 L 20.120001 88.639999 C 20.134073 88.419991 20.092817 88.199966 20.000000 88.000000 C 19.899904 87.846375 19.722418 87.761490 19.540001 87.779999 C 19.260860 87.792328 18.990711 87.882378 18.760000 88.040001 L 18.760000 92.400002 L 17.090000 92.400002 L 17.090000 86.720001 L 18.440001 86.720001 L 18.570000 87.230003 C 19.092045 86.839226 19.718725 86.612923 20.369999 86.580002 C 20.870817 86.542221 21.346245 86.805473 21.579998 87.250000 C 22.110989 86.851845 22.747448 86.618820 23.409998 86.580002 C 23.788603 86.567619 24.153776 86.720993 24.409998 87.000000 C 24.670427 87.351334 24.797970 87.783562 24.769999 88.220001 L 24.770000 92.349998 Z" fill="#232F3E"/><path d=" M 29.110001 92.349998 L 29.000000 91.839996 C 28.849302 92.046989 28.645443 92.209389 28.410000 92.309998 C 28.167038 92.428444 27.900293 92.489998 27.629999 92.489998 C 27.171003 92.514374 26.724619 92.335091 26.410000 92.000000 C 25.799265 91.252548 25.842176 90.166916 26.510000 89.470001 C 26.907274 89.133095 27.420317 88.964470 27.940001 89.000000 C 28.254030 89.006668 28.566179 89.050301 28.870001 89.129997 L 28.870001 88.620003 C 28.892145 88.350067 28.836630 88.079422 28.710001 87.840004 C 28.544798 87.688873 28.322615 87.616028 28.100000 87.640007 C 27.495337 87.663467 26.898087 87.781563 26.330000 87.990005 L 26.330000 87.000000 C 26.612703 86.839798 26.920321 86.728241 27.240000 86.669998 C 27.621403 86.589516 28.010199 86.549301 28.400000 86.549995 C 28.943607 86.504028 29.485008 86.660744 29.920000 86.989998 C 30.264774 87.366852 30.435322 87.871239 30.389999 88.379997 L 30.389999 92.320000 Z M 28.110001 91.430000 C 28.411385 91.418922 28.697319 91.293823 28.910000 91.080002 L 28.910000 90.000000 C 28.704060 89.948677 28.492182 89.925140 28.280001 89.930000 C 28.082253 89.913605 27.887621 89.987053 27.750000 90.129997 C 27.610947 90.293694 27.542604 90.505920 27.559999 90.719994 C 27.549709 90.905304 27.602592 91.088631 27.709999 91.239990 C 27.794926 91.354698 27.927376 91.424606 28.070000 91.429993 Z" fill="#232F3E"/><path d=" M 31.370001 92.349998 L 31.370001 91.279999 L 33.869999 87.879997 L 31.469999 87.879997 L 31.469999 86.720001 L 35.599998 86.720001 L 35.599998 87.790001 L 33.110001 91.190002 L 35.650002 91.190002 L 35.650002 92.349998 Z" fill="#232F3E"/><path d=" M 38.889999 92.489998 C 38.191231 92.527954 37.513462 92.244324 37.049999 91.720001 C 36.183983 90.392052 36.183983 88.677956 37.049999 87.349998 C 38.048824 86.333794 39.682331 86.319710 40.698536 87.318535 C 40.709114 87.328934 40.719604 87.339424 40.730000 87.349998 C 41.609154 88.674011 41.609154 90.395981 40.730000 91.720001 C 40.268322 92.246819 39.589287 92.530983 38.889999 92.489998 Z M 38.889999 91.339996 C 39.176319 91.350388 39.437557 91.177567 39.540001 90.909996 C 39.795135 90.014481 39.795135 89.065514 39.540001 88.169998 C 39.440918 87.898483 39.178894 87.721115 38.889999 87.729996 C 38.602863 87.719078 38.342625 87.897987 38.250000 88.169998 C 37.983204 89.063850 37.983204 90.016151 38.250000 90.909996 C 38.346111 91.178047 38.605507 91.352325 38.889999 91.339996 Z" fill="#232F3E"/><path d=" M 45.650002 92.349998 L 45.650002 88.650002 C 45.666496 88.408363 45.618168 88.166710 45.510002 87.950005 C 45.392830 87.794846 45.203560 87.711563 45.010002 87.730003 C 44.717972 87.739677 44.434254 87.829636 44.190002 87.990005 L 44.189999 92.349998 L 42.540001 92.349998 L 42.540001 86.720001 L 43.889999 86.720001 L 44.020000 87.230003 C 44.558891 86.835289 45.202652 86.609108 45.869999 86.580002 C 46.268467 86.553772 46.657635 86.707970 46.930000 87.000000 C 47.199730 87.347038 47.331524 87.781601 47.299999 88.220001 L 47.299999 92.349998 Z" fill="#232F3E"/><path d=" M 55.110001 92.349998 L 53.650002 89.519997 L 53.000000 89.519997 L 53.000000 92.349998 L 51.349998 92.349998 L 51.349998 84.720001 L 54.000000 84.720001 C 54.650562 84.688881 55.285835 84.923500 55.759998 85.370003 C 56.216873 85.834206 56.456547 86.469711 56.419998 87.120003 C 56.432396 87.585030 56.318344 88.044708 56.089996 88.450005 C 55.877991 88.822403 55.551979 89.116867 55.159996 89.290001 L 56.849998 92.349998 Z M 53.000000 88.349998 L 53.779999 88.349998 C 54.055878 88.368416 54.323788 88.253067 54.500000 88.040001 C 54.680740 87.761032 54.768276 87.431900 54.750000 87.099998 C 54.769669 86.771095 54.681931 86.444710 54.500000 86.169998 C 54.328014 85.950409 54.058243 85.830513 53.779999 85.849998 L 53.000000 85.849998 Z" fill="#232F3E"/><path d=" M 57.770000 92.349998 L 57.770000 84.720001 L 60.290001 84.720001 C 61.188744 84.671806 62.059490 85.040771 62.650002 85.720001 C 63.244469 86.542496 63.531155 87.547661 63.460003 88.559998 C 63.528835 89.573708 63.246315 90.580185 62.660004 91.409996 C 62.088783 92.086273 61.234024 92.456299 60.350002 92.409996 Z M 59.459999 85.900002 L 59.459999 91.169998 L 60.169998 91.169998 C 60.643917 91.192314 61.092354 90.954681 61.339996 90.549995 C 61.630421 89.957146 61.761391 89.298859 61.719997 88.639992 L 61.720001 88.419998 C 61.763744 87.760979 61.632656 87.102089 61.340000 86.509995 C 61.087910 86.100891 60.629322 85.865814 60.150002 85.899994 Z" fill="#232F3E"/><path d=" M 66.080002 89.000000 C 65.585403 88.768761 65.150803 88.426559 64.810005 88.000000 C 64.547684 87.644348 64.410545 87.211830 64.420006 86.769997 C 64.408897 86.354126 64.527748 85.945145 64.760002 85.599998 C 64.985703 85.259720 65.305290 84.992241 65.680000 84.830002 C 66.095665 84.646751 66.545769 84.554688 67.000000 84.560005 C 67.649765 84.562088 68.292488 84.694710 68.889999 84.950005 L 68.889999 86.120003 C 68.338249 85.917831 67.757393 85.806381 67.169998 85.790001 C 66.888161 85.774521 66.609482 85.855652 66.379997 86.020004 C 66.183197 86.172058 66.074570 86.411781 66.089996 86.660004 C 66.082306 86.862022 66.146042 87.060295 66.269997 87.220001 C 66.477768 87.423737 66.722015 87.586571 66.989998 87.700005 L 67.639999 88.019997 C 67.997841 88.184235 68.333771 88.392517 68.639999 88.639999 C 68.875206 88.823380 69.063675 89.059822 69.190002 89.330002 C 69.309380 89.621704 69.367249 89.934906 69.360001 90.250000 C 69.390259 90.886475 69.115425 91.499283 68.620003 91.900002 C 68.044479 92.329575 67.337303 92.545265 66.620003 92.510002 C 66.240143 92.510231 65.861343 92.470001 65.490005 92.389999 C 65.144058 92.327736 64.807831 92.220139 64.490005 92.070000 L 64.489998 90.919998 C 64.817497 91.025146 65.151550 91.108665 65.489998 91.169998 C 65.819115 91.238113 66.153938 91.274940 66.489998 91.279999 C 66.803574 91.302475 67.115074 91.213982 67.369995 91.029999 C 67.576393 90.853905 67.687584 90.590736 67.669998 90.320000 C 67.676086 90.107033 67.601021 89.899704 67.459999 89.739998 C 67.252327 89.543411 67.012085 89.384384 66.750000 89.269997 Z" fill="#232F3E"/></g><g id="ICONS_-_EDIT"><path d=" M 40.000000 35.000000 C 34.700001 35.000000 29.000000 33.750000 29.000000 31.000000 C 29.000000 28.250000 34.700001 27.000000 40.000000 27.000000 C 45.299999 27.000000 51.000000 28.250000 51.000000 31.000000 C 51.000000 33.750000 45.299999 35.000000 40.000000 35.000000 Z M 40.000000 29.000000 C 34.150002 29.000000 31.150000 30.459999 31.000000 31.000000 C 31.150000 31.530001 34.150002 33.000000 40.000000 33.000000 C 45.849998 33.000000 48.799999 31.570000 49.000000 31.000000 C 48.799999 30.430000 45.799999 29.000000 40.000000 29.000000 Z" fill="#FFFFFF"/><path d=" M 40.000000 53.529999 C 34.700001 53.529999 29.000000 52.200001 29.000000 49.279999 L 29.000000 31.000000 L 31.000000 31.000000 L 31.000000 49.279999 C 31.000000 49.930000 34.150002 51.529999 40.000000 51.529999 C 45.849998 51.529999 49.000000 49.930000 49.000000 49.279999 L 49.000000 31.000000 L 51.000000 31.000000 L 51.000000 49.279999 C 51.000000 52.200001 45.299999 53.529999 40.000000 53.529999 Z" fill="#FFFFFF"/><path d=" M 40.000000 41.450001 C 34.720001 41.450001 29.000000 40.130001 29.000000 37.220001 L 31.000000 37.220001 C 31.000000 37.869999 34.139999 39.450001 40.000000 39.450001 C 45.860001 39.450001 49.000000 37.869999 49.000000 37.220001 L 51.000000 37.220001 C 51.000000 40.130001 45.310001 41.450001 40.000000 41.450001 Z" fill="#FFFFFF"/><path d=" M 40.000000 47.820000 C 34.720001 47.820000 29.000000 46.490002 29.000000 43.580002 L 31.000000 43.580002 C 31.000000 44.230000 34.139999 45.820000 40.000000 45.820000 C 45.860001 45.820000 49.000000 44.230000 49.000000 43.580002 L 51.000000 43.580002 C 51.000000 46.490002 45.310001 47.820000 40.000000 47.820000 Z" fill="#FFFFFF"/><path d=" M 25.000000 65.000000 L 16.000000 65.000000 C 15.447715 65.000000 15.000000 64.552284 15.000000 64.000000 L 15.000000 55.000000 L 17.000000 55.000000 L 17.000000 63.000000 L 25.000000 63.000000 Z" fill="#FFFFFF"/><rect x="14.100000" y="58.400000" width="13.000000" height="2.000000" fill="#FFFFFF" transform="matrix(0.707107,-0.707107,0.707107,0.707107,-35.970000,31.960000)"/><path d=" M 64.000000 65.000000 L 55.000000 65.000000 L 55.000000 63.000000 L 63.000000 63.000000 L 63.000000 55.000000 L 65.000000 55.000000 L 65.000000 64.000000 C 65.000000 64.552284 64.552284 65.000000 64.000000 65.000000 Z" fill="#FFFFFF"/><rect x="58.450000" y="53.020000" width="2.000000" height="12.860000" fill="#FFFFFF" transform="matrix(0.707107,-0.707107,0.707107,0.707107,-24.630000,59.450000)"/><path d=" M 65.000000 25.000000 L 63.000000 25.000000 L 63.000000 17.000000 L 55.000000 17.000000 L 55.000000 15.000000 L 64.000000 15.000000 C 64.552284 15.000000 65.000000 15.447715 65.000000 16.000000 Z" fill="#FFFFFF"/><rect x="53.020000" y="19.550000" width="12.860000" height="2.000000" fill="#FFFFFF" transform="matrix(0.707107,-0.707107,0.707107,0.707107,2.880000,48.060000)"/><path d=" M 17.000000 25.000000 L 15.000000 25.000000 L 15.000000 16.000000 C 15.000000 15.447715 15.447715 15.000000 16.000000 15.000000 L 25.000000 15.000000 L 25.000000 17.000000 L 17.000000 17.000000 Z" fill="#FFFFFF"/><rect x="19.600000" y="14.100000" width="2.000000" height="13.000000" fill="#FFFFFF" transform="matrix(0.707107,-0.707107,0.707107,0.707107,-8.530000,20.600000)"/><path d=" M 24.660000 49.000000 C 18.549999 46.799999 15.050000 43.439999 15.050000 39.790001 C 15.050000 36.139999 18.549999 32.790001 24.660000 30.580000 L 25.340000 32.459999 C 20.150000 34.330002 17.049999 37.070000 17.049999 39.790001 C 17.049999 42.509998 20.150000 45.250000 25.340000 47.119999 Z" fill="#FFFFFF"/><path d=" M 54.779999 49.180000 L 54.139999 47.279999 C 59.689999 45.410000 63.000000 42.590000 63.000000 39.750000 C 63.000000 36.910000 59.689999 34.090000 54.139999 32.220001 L 54.779999 30.320000 C 61.279999 32.520000 65.000000 36.000000 65.000000 39.750000 C 65.000000 43.500000 61.279999 47.000000 54.779999 49.180000 Z" fill="#FFFFFF"/></g></svg>