<svg id="Layer_1" data-name="Layer 1" xmlns="http://www.w3.org/2000/svg" width="50" height="50" viewBox="0 0 50 50"><title>Amazon-Simple-Notification-Service-SNS_Email-Notification_light-bg</title><path d="M47.5,20.38H2.5a1,1,0,0,1-1-1V14.69h2v3.69h43V10.06H16.56v-2H47.5a1,1,0,0,1,1,1V19.38A1,1,0,0,1,47.5,20.38Z" style="fill:#cd2264"/><path d="M47.5,34.44h-2v-2h1v-1h2v2A1,1,0,0,1,47.5,34.44Z" style="fill:#cd2264"/><path d="M43.64,34.44H39.91v-2h3.73Zm-5.59,0H34.32v-2h3.73Zm-5.59,0H28.73v-2h3.73Zm-5.6,0H23.14v-2h3.72Zm-5.59,0H17.55v-2h3.72Zm-5.59,0H12v-2h3.72Zm-5.59,0H6.36v-2h3.73Z" style="fill:#cd2264"/><path d="M4.5,34.44h-2a1,1,0,0,1-1-1v-2h2v1h1Z" style="fill:#cd2264"/><rect x="1.5" y="26.7" width="2" height="3.16" style="fill:#cd2264"/><path d="M3.5,25.13h-2v-2a1,1,0,0,1,1-1h2v2h-1Z" style="fill:#cd2264"/><path d="M43.64,24.13H39.91v-2h3.73Zm-5.6,0H34.32v-2H38Zm-5.59,0H28.73v-2h3.72Zm-5.59,0H23.14v-2h3.72Zm-5.59,0H17.54v-2h3.73Zm-5.59,0H12v-2h3.73Zm-5.59,0H6.36v-2h3.73Z" style="fill:#cd2264"/><path d="M48.5,25.13h-2v-1h-1v-2h2a1,1,0,0,1,1,1Z" style="fill:#cd2264"/><rect x="46.5" y="26.7" width="2" height="3.16" style="fill:#cd2264"/><path d="M47.5,48.5h-2v-2h1v-1h2v2A1,1,0,0,1,47.5,48.5Z" style="fill:#cd2264"/><path d="M43.64,48.5H39.91v-2h3.73Zm-5.59,0H34.32v-2h3.73Zm-5.59,0H28.73v-2h3.73Zm-5.6,0H23.14v-2h3.72Zm-5.59,0H17.55v-2h3.72Zm-5.59,0H12v-2h3.72Zm-5.59,0H6.36v-2h3.73Z" style="fill:#cd2264"/><path d="M4.5,48.5h-2a1,1,0,0,1-1-1v-2h2v1h1Z" style="fill:#cd2264"/><rect x="1.5" y="40.77" width="2" height="3.16" style="fill:#cd2264"/><path d="M3.5,39.19h-2v-2a1,1,0,0,1,1-1h2v2h-1Z" style="fill:#cd2264"/><path d="M43.64,38.19H39.91v-2h3.73Zm-5.6,0H34.32v-2H38Zm-5.59,0H28.73v-2h3.72Zm-5.59,0H23.14v-2h3.72Zm-5.59,0H17.54v-2h3.73Zm-5.59,0H12v-2h3.73Zm-5.59,0H6.36v-2h3.73Z" style="fill:#cd2264"/><path d="M48.5,39.19h-2v-1h-1v-2h2a1,1,0,0,1,1,1Z" style="fill:#cd2264"/><rect x="46.5" y="40.77" width="2" height="3.16" style="fill:#cd2264"/><path d="M17.82,17.59V11.1h4v.77H18.78v2h2.58v.77H18.78v2.2h3.08v.76Z" style="fill:#cd2264"/><path d="M28.5,17.59V12.48l-1.83,3.45H25.8L24,12.48v5.11h-.88V11.1h1.07l2.1,4,2.09-4h1v6.49Z" style="fill:#cd2264"/><path d="M35.1,17.59l-.6-1.72H31.82l-.58,1.72h-1l2.4-6.49h1l2.4,6.49Zm-3-2.44h2.18L33.16,12Z" style="fill:#cd2264"/><path d="M37,17.59V11.1h1v6.49Z" style="fill:#cd2264"/><path d="M39.58,17.59V11.1h1v5.71H43.6v.78Z" style="fill:#cd2264"/><path d="M8.13,14.75a6.63,6.63,0,1,1,6.62-6.62A6.63,6.63,0,0,1,8.13,14.75Zm0-11.25a4.63,4.63,0,1,0,4.62,4.63A4.63,4.63,0,0,0,8.13,3.5Z" style="fill:#cd2264"/></svg>