<svg id="Layer_1" data-name="Layer 1" xmlns="http://www.w3.org/2000/svg" width="50" height="50" viewBox="0 0 50 50"><title>Amazon-Simple-Notification-Service-SNS_HTTP-Notification_light-bg</title><path d="M47.5,20.38H2.5a1,1,0,0,1-1-1V14.69h2v3.69h43V10.06H16.56v-2H47.5a1,1,0,0,1,1,1V19.38A1,1,0,0,1,47.5,20.38Z" style="fill:#cd2264"/><path d="M47.5,34.44h-2v-2h1v-1h2v2A1,1,0,0,1,47.5,34.44Z" style="fill:#cd2264"/><path d="M43.64,34.44H39.91v-2h3.73Zm-5.59,0H34.32v-2h3.73Zm-5.6,0H28.73v-2h3.72Zm-5.59,0H23.14v-2h3.72Zm-5.59,0H17.55v-2h3.72Zm-5.59,0H12v-2h3.73Zm-5.59,0H6.36v-2h3.73Z" style="fill:#cd2264"/><path d="M4.5,34.44h-2a1,1,0,0,1-1-1v-2h2v1h1Z" style="fill:#cd2264"/><rect x="1.5" y="26.7" width="2" height="3.16" style="fill:#cd2264"/><path d="M3.5,25.13h-2v-2a1,1,0,0,1,1-1h2v2h-1Z" style="fill:#cd2264"/><path d="M43.64,24.13H39.91v-2h3.73Zm-5.59,0H34.32v-2h3.73Zm-5.6,0H28.73v-2h3.72Zm-5.59,0H23.14v-2h3.72Zm-5.59,0H17.55v-2h3.72Zm-5.59,0H12v-2h3.73Zm-5.59,0H6.36v-2h3.73Z" style="fill:#cd2264"/><path d="M48.5,25.13h-2v-1h-1v-2h2a1,1,0,0,1,1,1Z" style="fill:#cd2264"/><rect x="46.5" y="26.7" width="2" height="3.16" style="fill:#cd2264"/><path d="M47.5,48.5h-2v-2h1v-1h2v2A1,1,0,0,1,47.5,48.5Z" style="fill:#cd2264"/><path d="M43.64,48.5H39.91v-2h3.73Zm-5.59,0H34.32v-2h3.73Zm-5.6,0H28.73v-2h3.72Zm-5.59,0H23.14v-2h3.72Zm-5.59,0H17.55v-2h3.72Zm-5.59,0H12v-2h3.73Zm-5.59,0H6.36v-2h3.73Z" style="fill:#cd2264"/><path d="M4.5,48.5h-2a1,1,0,0,1-1-1v-2h2v1h1Z" style="fill:#cd2264"/><rect x="1.5" y="40.77" width="2" height="3.16" style="fill:#cd2264"/><path d="M3.5,39.19h-2v-2a1,1,0,0,1,1-1h2v2h-1Z" style="fill:#cd2264"/><path d="M43.64,38.19H39.91v-2h3.73Zm-5.59,0H34.32v-2h3.73Zm-5.6,0H28.73v-2h3.72Zm-5.59,0H23.14v-2h3.72Zm-5.59,0H17.55v-2h3.72Zm-5.59,0H12v-2h3.73Zm-5.59,0H6.36v-2h3.73Z" style="fill:#cd2264"/><path d="M48.5,39.19h-2v-1h-1v-2h2a1,1,0,0,1,1,1Z" style="fill:#cd2264"/><rect x="46.5" y="40.77" width="2" height="3.16" style="fill:#cd2264"/><path d="M23,17.59V14.66H19.71v2.93h-.95V11.1h.95v2.79H23V11.1h.95v6.49Z" style="fill:#cd2264"/><path d="M26.91,17.59V11.88H24.84V11.1h5.1v.78H27.87v5.71Z" style="fill:#cd2264"/><path d="M32.58,17.59V11.88H30.5V11.1h5.1v.78H33.53v5.71Z" style="fill:#cd2264"/><path d="M37.46,15.08v2.51h-.93V11.1h2.35a2.08,2.08,0,0,1,1.51.54A1.9,1.9,0,0,1,41,13.09a1.9,1.9,0,0,1-.57,1.45,2.08,2.08,0,0,1-1.51.54Zm0-.76H38.8a1.18,1.18,0,0,0,.89-.31,1.29,1.29,0,0,0,.3-.92,1.07,1.07,0,0,0-1.19-1.23H37.46Z" style="fill:#cd2264"/><path d="M8.12,14.75a6.63,6.63,0,1,1,6.63-6.62A6.63,6.63,0,0,1,8.12,14.75Zm0-11.25a4.63,4.63,0,1,0,4.63,4.63A4.62,4.62,0,0,0,8.12,3.5Z" style="fill:#cd2264"/></svg>