<svg id="Layer_1" data-name="Layer 1" xmlns="http://www.w3.org/2000/svg" width="50" height="50" viewBox="0 0 50 50"><title>Amazon-Simple-Notification-Service-SNS_Topic_light-bg</title><path d="M47.5,17.09H2.5a1,1,0,0,1-1-1V5.78a1,1,0,0,1,1-1h45a1,1,0,0,1,1,1V16.09A1,1,0,0,1,47.5,17.09Zm-44-2h43V6.78H3.5Z" style="fill:#cd2264"/><path d="M47.5,31.16h-2v-2h1v-1h2v2A1,1,0,0,1,47.5,31.16Z" style="fill:#cd2264"/><path d="M43.64,31.16H39.91v-2h3.73Zm-5.59,0H34.32v-2h3.73Zm-5.59,0H28.73v-2h3.73Zm-5.6,0H23.14v-2h3.72Zm-5.59,0H17.55v-2h3.72Zm-5.59,0H12v-2h3.72Zm-5.59,0H6.36v-2h3.73Z" style="fill:#cd2264"/><path d="M4.5,31.16h-2a1,1,0,0,1-1-1v-2h2v1h1Z" style="fill:#cd2264"/><rect x="1.5" y="23.42" width="2" height="3.16" style="fill:#cd2264"/><path d="M3.5,21.84h-2v-2a1,1,0,0,1,1-1h2v2h-1Z" style="fill:#cd2264"/><path d="M43.64,20.84H39.91v-2h3.73Zm-5.6,0H34.32v-2H38Zm-5.59,0H28.73v-2h3.72Zm-5.59,0H23.14v-2h3.72Zm-5.59,0H17.54v-2h3.73Zm-5.59,0H12v-2h3.73Zm-5.59,0H6.36v-2h3.73Z" style="fill:#cd2264"/><path d="M48.5,21.84h-2v-1h-1v-2h2a1,1,0,0,1,1,1Z" style="fill:#cd2264"/><rect x="46.5" y="23.42" width="2" height="3.16" style="fill:#cd2264"/><path d="M47.5,45.22h-2v-2h1v-1h2v2A1,1,0,0,1,47.5,45.22Z" style="fill:#cd2264"/><path d="M43.64,45.22H39.91v-2h3.73Zm-5.59,0H34.32v-2h3.73Zm-5.59,0H28.73v-2h3.73Zm-5.6,0H23.14v-2h3.72Zm-5.59,0H17.55v-2h3.72Zm-5.59,0H12v-2h3.72Zm-5.59,0H6.36v-2h3.73Z" style="fill:#cd2264"/><path d="M4.5,45.22h-2a1,1,0,0,1-1-1v-2h2v1h1Z" style="fill:#cd2264"/><rect x="1.5" y="37.48" width="2" height="3.16" style="fill:#cd2264"/><path d="M3.5,35.91h-2v-2a1,1,0,0,1,1-1h2v2h-1Z" style="fill:#cd2264"/><path d="M43.64,34.91H39.91v-2h3.73Zm-5.6,0H34.32v-2H38Zm-5.59,0H28.73v-2h3.72Zm-5.59,0H23.14v-2h3.72Zm-5.59,0H17.54v-2h3.73Zm-5.59,0H12v-2h3.73Zm-5.59,0H6.36v-2h3.73Z" style="fill:#cd2264"/><path d="M48.5,35.91h-2v-1h-1v-2h2a1,1,0,0,1,1,1Z" style="fill:#cd2264"/><rect x="46.5" y="37.48" width="2" height="3.16" style="fill:#cd2264"/></svg>