<svg id="Layer_1" data-name="Layer 1" xmlns="http://www.w3.org/2000/svg" width="35" height="35" viewBox="0 0 35 35"><title>Auto-Scaling_light-bg</title><rect width="35" height="35" style="fill:#d86613"/><polygon points="12.3 14.83 11.59 15.54 13.05 17 5 17 5 18 13.05 18 11.59 19.46 12.3 20.17 14.97 17.5 12.3 14.83" style="fill:#fff"/><polygon points="30 17 21.95 17 23.41 15.54 22.7 14.83 20.03 17.5 22.7 20.17 23.41 19.46 21.95 18 30 18 30 17" style="fill:#fff"/><polygon points="17 6.64 17 14.69 18 14.69 18 6.64 19.46 8.1 20.17 7.39 17.5 4.72 14.83 7.39 15.54 8.1 17 6.64" style="fill:#fff"/><polygon points="18 28.36 18 20.31 17 20.31 17 28.36 15.54 26.9 14.83 27.61 17.5 30.28 20.17 27.61 19.46 26.9 18 28.36" style="fill:#fff"/></svg>