<svg id="Layer_1" data-name="Layer 1" xmlns="http://www.w3.org/2000/svg" width="35" height="35" viewBox="0 0 35 35"><title>Corporate-data-center_light-bg</title><rect width="35" height="35" style="fill:#5a6c86"/><path d="M25.31,13.25H21.65V5.5a.5.5,0,0,0-.5-.5h-7.3a.5.5,0,0,0-.5.5v7.75H9.69a.5.5,0,0,0-.5.5V29.5a.5.5,0,0,0,.5.5H25.31a.5.5,0,0,0,.5-.5V13.75A.5.5,0,0,0,25.31,13.25ZM24.81,29H10.19V14.25h3.66a.5.5,0,0,0,.5-.5V6h6.3v7.75a.5.5,0,0,0,.5.5h3.66Z" style="fill:#fff"/><rect x="12.38" y="16.31" width="1" height="2.6" style="fill:#fff"/><rect x="12.38" y="20.48" width="1" height="2.6" style="fill:#fff"/><rect x="12.38" y="24.65" width="1" height="2.6" style="fill:#fff"/><rect x="17.07" y="16.31" width="1" height="2.6" style="fill:#fff"/><rect x="17.07" y="20.48" width="1" height="2.6" style="fill:#fff"/><rect x="17.07" y="24.65" width="1" height="2.6" style="fill:#fff"/><rect x="21.76" y="16.31" width="1" height="2.6" style="fill:#fff"/><rect x="21.76" y="20.48" width="1" height="2.6" style="fill:#fff"/><rect x="21.76" y="24.65" width="1" height="2.6" style="fill:#fff"/><rect x="17.07" y="8.31" width="1" height="2.6" style="fill:#fff"/><rect x="17.07" y="12.48" width="1" height="2.6" style="fill:#fff"/></svg>