<svg id="Layer_1" data-name="Layer 1" xmlns="http://www.w3.org/2000/svg" width="50" height="50" viewBox="0 0 50 50"><title>Amazon-Elastic-Block-Store-EBS_Snapshot_light-bg</title><path d="M36.25,8.19H11.88a1,1,0,0,1-.92-.6,1,1,0,0,1,.18-1.08l4.33-4.69a1,1,0,0,1,.74-.32H31.92a1,1,0,0,1,.73.32L37,6.51a1,1,0,0,1,.19,1.08A1,1,0,0,1,36.25,8.19Zm-22.09-2H34L31.48,3.5H16.65Z" style="fill:#3f8624"/><path d="M37.25,13.75h-2V11.94H12.88v1.81h-2V10.94a1,1,0,0,1,1-1H36.25a1,1,0,0,1,1,1Z" style="fill:#3f8624"/><path d="M24,48.5c-5,0-12.43-1.12-12.55-4.19L8.11,19.47a1,1,0,0,1,2-.39C10.41,20.4,16,22.31,24,22.31s13.6-1.91,14-3.23a1,1,0,0,1,2,.39L36.57,44.31c0,1.09-1,2-2.76,2.71a17.91,17.91,0,0,1-2.35.7A34.22,34.22,0,0,1,24,48.5ZM10.46,22l3,22.15s0,.09,0,.14C13.71,45,17.92,46.5,24,46.5a32,32,0,0,0,7-.73,15.07,15.07,0,0,0,2.06-.61c1.34-.53,1.5-.95,1.5-.95a.45.45,0,0,1,0-.11l3-22.16c-3.28,1.7-9.26,2.37-13.55,2.37S13.75,23.64,10.46,22Z" style="fill:#3f8624"/><path d="M24,24.31c-5.88,0-15-1.26-15.87-4.72a.53.53,0,0,1,0-.12l0-.31c0-.05,0-.09,0-.13,0-3.47,8.25-5.81,16-5.81S40,15.56,40,19v.13l0,.31,0,.12C39,23.05,29.9,24.31,24,24.31ZM10.08,19.13c.46,1.31,6,3.18,13.93,3.18s13.48-1.87,13.93-3.18L38,19c-.14-1.15-5.52-3.76-13.95-3.76S10.2,17.83,10.07,19Z" style="fill:#3f8624"/><path d="M39.74,34.51c-2.3,0-7-1.34-16.17-5.85l.88-1.8c6,2.95,13.12,5.77,15.23,5.77a11.4,11.4,0,0,0-2.55-1.74L37,30.83l1-1.75.11.06c2.48,1.37,3.63,2.4,3.82,3.45a1.63,1.63,0,0,1-.35,1.34A2.28,2.28,0,0,1,39.74,34.51Zm.38-1.95Z" style="fill:#3f8624"/><path d="M24,29.63a1.87,1.87,0,1,1,1.87-1.87A1.87,1.87,0,0,1,24,29.63Zm0-2a.13.13,0,0,0-.13.13c0,.15.27.15.27,0A.13.13,0,0,0,24,27.63Z" style="fill:#3f8624"/><rect x="-83" y="-11" width="304" height="439" style="fill:none;stroke:#6cae3e;stroke-miterlimit:10;stroke-width:3px"/></svg>