<svg version="1.1" viewBox="0.000000 0.000000 80.000000 130.000000" xmlns="http://www.w3.org/2000/svg" xmlns:xlink="http://www.w3.org/1999/xlink" overflow="hidden"><defs></defs><g id="CARDS"><rect x="1.000000" y="1.000000" width="78.000000" height="78.000000" fill="#232F3E"/><path d=" M 0.000000 0.000000 L 0.000000 80.000000 L 0.000000 80.000000 L 0.000000 130.000000 L 80.000000 130.000000 L 80.000000 80.000000 L 80.000000 80.000000 L 80.000000 0.000000 Z M 1.000000 1.000000 L 79.000000 1.000000 L 79.000000 79.000000 L 1.000000 79.000000 Z" fill="#FFFFFF"/></g><g id="TEXT_-_EDIT"><path d=" M 25.350000 92.349998 L 24.920000 90.529999 L 22.920000 90.529999 L 22.500000 92.349998 L 20.719999 92.349998 L 23.000000 84.720001 L 24.900000 84.720001 L 27.209999 92.349998 Z M 23.170000 89.430000 L 24.660000 89.430000 L 23.900000 86.269997 Z" fill="#232F3E"/><path d=" M 34.060001 92.349998 L 34.060001 88.639999 C 34.076664 88.401566 34.028278 88.163086 33.920002 87.949997 C 33.818390 87.798111 33.642017 87.713760 33.460003 87.729996 C 33.174561 87.741776 32.897831 87.831711 32.660004 87.989998 C 32.664921 88.029846 32.664921 88.070152 32.660004 88.110001 L 32.660000 92.349998 L 31.000000 92.349998 L 31.000000 88.639999 C 31.019257 88.402504 30.974358 88.164200 30.870001 87.949997 C 30.765142 87.796478 30.585056 87.712181 30.400002 87.729996 C 30.121338 87.744865 29.851856 87.834694 29.620001 87.989998 L 29.620001 92.349998 L 28.000000 92.349998 L 28.000000 86.720001 L 29.350000 86.720001 L 29.480000 87.230003 C 30.005127 86.837898 30.635393 86.611557 31.289999 86.580002 C 31.787903 86.543671 32.259682 86.807076 32.489998 87.250000 C 33.020988 86.851845 33.657448 86.618820 34.320000 86.580002 C 34.698605 86.567619 35.063778 86.720993 35.320000 87.000000 C 35.580429 87.351334 35.707973 87.783562 35.680000 88.220001 L 35.680000 92.349998 Z" fill="#232F3E"/><path d=" M 40.000000 92.349998 L 39.860001 91.839996 C 39.704742 92.042564 39.502155 92.203949 39.270000 92.309998 C 39.023094 92.427322 38.753361 92.488777 38.480000 92.489998 C 38.038441 92.498497 37.613724 92.320625 37.310001 92.000000 C 37.006588 91.668808 36.851307 91.228241 36.880001 90.779999 C 36.856857 90.286880 37.050484 89.808296 37.410000 89.470001 C 37.807274 89.133095 38.320316 88.964470 38.840000 89.000000 C 39.154030 89.006668 39.466179 89.050301 39.770000 89.129997 L 39.770000 88.620003 C 39.797573 88.349762 39.741737 88.077560 39.610001 87.840004 C 39.445477 87.687714 39.222755 87.614693 39.000000 87.640007 C 38.395546 87.665237 37.798565 87.783279 37.230000 87.990005 L 37.230000 87.000000 C 37.513470 86.841469 37.820801 86.730019 38.139999 86.669998 C 38.521481 86.590019 38.910225 86.549805 39.299999 86.549995 C 39.843796 86.502090 40.385880 86.659012 40.820000 86.989998 C 41.164772 87.366852 41.335323 87.871239 41.290001 88.379997 L 41.290001 92.320000 Z M 39.000000 91.430000 C 39.298344 91.418404 39.580971 91.293190 39.790001 91.080002 L 39.790001 90.000000 C 39.584171 89.948074 39.372208 89.924522 39.160000 89.930000 C 38.962250 89.913605 38.767620 89.987053 38.630001 90.129997 C 38.490948 90.293694 38.422604 90.505920 38.440002 90.719994 C 38.429714 90.905304 38.482594 91.088631 38.590004 91.239990 C 38.687565 91.366325 38.840549 91.437218 39.000004 91.429993 Z" fill="#232F3E"/><path d=" M 42.279999 92.349998 L 42.279999 91.279999 L 44.770000 87.879997 L 42.369999 87.879997 L 42.369999 86.720001 L 46.509998 86.720001 L 46.509998 87.790001 L 44.000000 91.190002 L 46.540001 91.190002 L 46.540001 92.349998 Z" fill="#232F3E"/><path d=" M 49.790001 92.489998 C 49.108448 92.512650 48.452259 92.230377 48.000000 91.720001 C 47.133984 90.392052 47.133984 88.677956 48.000000 87.349998 C 49.011749 86.331032 50.657967 86.325180 51.676933 87.336929 C 51.681305 87.341270 51.685661 87.345627 51.690002 87.349998 C 52.556019 88.677948 52.556019 90.392044 51.690002 91.720001 C 51.211487 92.259041 50.508781 92.543823 49.790001 92.489998 Z M 49.790001 91.339996 C 50.076321 91.350388 50.337559 91.177567 50.440002 90.909996 C 50.706799 90.016144 50.706799 89.063843 50.440002 88.169998 C 50.304638 87.813774 49.906124 87.634735 49.549900 87.770103 C 49.365585 87.840141 49.220043 87.985687 49.150002 88.169998 C 48.883205 89.063850 48.883205 90.016151 49.150002 90.909996 C 49.248730 91.175995 49.506416 91.349129 49.790001 91.339996 Z" fill="#232F3E"/><path d=" M 56.549999 92.349998 L 56.549999 88.650002 C 56.566494 88.408363 56.518166 88.166710 56.410000 87.950005 C 56.294102 87.793236 56.103878 87.709541 55.910000 87.730003 C 55.618229 87.741188 55.334908 87.831024 55.090000 87.990005 L 55.090000 92.349998 L 53.439999 92.349998 L 53.439999 86.720001 L 54.790001 86.720001 L 54.930000 87.230003 C 55.464371 86.833908 56.105400 86.607452 56.770000 86.580002 C 57.171432 86.553581 57.563728 86.707565 57.840000 87.000000 C 58.102020 87.350540 58.229740 87.783371 58.200001 88.220001 L 58.200001 92.349998 Z" fill="#232F3E"/><path d=" M 10.740000 106.349998 L 10.740000 98.720001 L 15.280000 98.720001 L 15.280000 99.900002 L 12.430000 99.900002 L 12.430000 101.849998 L 14.720000 101.849998 L 14.720000 103.000000 L 12.430000 103.000000 L 12.430000 105.150002 L 15.280000 105.150002 L 15.280000 106.330002 Z" fill="#232F3E"/><path d=" M 18.799999 106.250000 C 18.479801 106.366165 18.140455 106.420456 17.799999 106.410004 C 17.404245 106.441948 17.013023 106.307922 16.719999 106.040001 C 16.456511 105.729019 16.327053 105.326263 16.359999 104.919998 L 16.360001 98.209999 L 18.010000 98.209999 L 18.010000 104.750000 C 17.999199 104.888161 18.026890 105.026619 18.090000 105.150002 C 18.170696 105.239822 18.290144 105.284615 18.410000 105.270004 C 18.526470 105.279564 18.643528 105.279564 18.760000 105.270004 Z" fill="#232F3E"/><path d=" M 22.719999 106.349998 L 22.570000 105.839996 C 22.419302 106.046989 22.215443 106.209389 21.980000 106.309998 C 21.736252 106.426201 21.470020 106.487640 21.199999 106.489998 C 20.747864 106.508438 20.309999 106.329643 19.999998 106.000000 C 19.693968 105.669823 19.535166 105.229507 19.559998 104.779999 C 19.536856 104.286880 19.730480 103.808296 20.089998 103.470001 C 20.493862 103.137909 21.007986 102.970108 21.529999 103.000000 C 21.844028 103.006668 22.156178 103.050301 22.459999 103.129997 L 22.459999 102.620003 C 22.485197 102.348686 22.425814 102.076225 22.289999 101.840004 C 22.129997 101.686920 21.909849 101.613541 21.689999 101.640007 C 21.082170 101.664215 20.481741 101.782272 19.909998 101.990005 L 19.910000 100.989998 C 20.197077 100.831573 20.507679 100.720161 20.830000 100.659996 C 21.211403 100.579514 21.600199 100.539299 21.990000 100.539993 C 22.530743 100.491684 23.069847 100.648773 23.500000 100.979996 C 23.849232 101.354202 24.020473 101.860634 23.969999 102.369995 L 23.969999 106.309998 Z M 21.719999 105.430000 C 22.021383 105.418922 22.307318 105.293823 22.519999 105.080002 L 22.520000 104.000000 C 22.314060 103.948677 22.102182 103.925140 21.890001 103.930000 C 21.689455 103.914780 21.492250 103.987816 21.350000 104.129997 C 21.218239 104.297188 21.154005 104.507729 21.170000 104.719994 C 21.159710 104.905304 21.212593 105.088631 21.320000 105.239990 C 21.404926 105.354698 21.537376 105.424606 21.680000 105.429993 Z" fill="#232F3E"/><path d=" M 27.389999 104.769997 C 27.389999 104.519997 27.219999 104.309998 26.870001 104.150002 L 26.150000 103.800003 C 25.468596 103.567070 25.007881 102.930077 25.000000 102.210007 C 24.981606 101.750854 25.186537 101.311180 25.549999 101.030006 C 25.972359 100.712837 26.492470 100.553619 27.019999 100.580009 C 27.549648 100.581734 28.072277 100.701294 28.549999 100.930008 L 28.549999 101.930000 C 28.321442 101.850227 28.087523 101.786736 27.849998 101.739998 C 27.652863 101.696541 27.451845 101.673088 27.249998 101.669998 C 26.740000 101.669998 26.480000 101.849998 26.480000 102.209999 C 26.480000 102.570000 26.690001 102.660004 27.120001 102.870003 L 27.840000 103.209999 C 28.146877 103.345100 28.412537 103.559013 28.610001 103.830002 C 28.778261 104.110268 28.861628 104.433311 28.850000 104.760002 C 28.874760 105.245941 28.671360 105.715607 28.300001 106.029999 C 27.875515 106.351448 27.351913 106.514183 26.820002 106.489998 C 26.186131 106.497437 25.560471 106.346176 25.000002 106.049995 L 25.000000 105.050003 C 25.515829 105.247581 26.058697 105.365601 26.610001 105.400002 C 26.814173 105.412933 27.016270 105.352661 27.180000 105.230003 C 27.319185 105.118805 27.397154 104.948013 27.389999 104.770004 Z" fill="#232F3E"/><path d=" M 32.840000 106.199997 C 32.446457 106.346306 32.029858 106.420822 31.610001 106.419998 C 31.134890 106.461807 30.661989 106.318504 30.290001 106.019997 C 29.989149 105.656647 29.842039 105.190201 29.880001 104.719994 L 29.879999 101.820000 L 29.150000 101.820000 L 29.150000 100.900002 L 29.930000 100.750000 L 30.170000 99.209999 L 31.540001 99.209999 L 31.540001 100.720001 L 32.810001 100.720001 L 32.810001 101.820000 L 31.540001 101.820000 L 31.540001 104.589996 C 31.519703 104.774757 31.569683 104.960396 31.680000 105.109993 C 31.826588 105.234970 32.018745 105.292976 32.209999 105.269997 C 32.422237 105.265694 32.633423 105.238876 32.840000 105.189995 Z" fill="#232F3E"/><path d=" M 34.580002 99.809998 C 34.324760 99.822983 34.073185 99.745026 33.870003 99.589996 C 33.698067 99.434639 33.603008 99.211624 33.610004 98.979996 C 33.600197 98.747849 33.695740 98.523689 33.870003 98.369995 C 34.068119 98.204575 34.322521 98.122162 34.580002 98.139992 C 34.834103 98.124771 35.084446 98.207024 35.280003 98.369995 C 35.460453 98.519913 35.560360 98.745628 35.550003 98.979996 C 35.558819 99.214073 35.459198 99.439140 35.280003 99.589996 C 35.082973 99.749374 34.832783 99.828011 34.580002 99.809998 Z M 33.750000 106.349998 L 33.750000 100.720001 L 35.400002 100.720001 L 35.400002 106.349998 Z" fill="#232F3E"/><path d=" M 40.500000 106.089996 C 40.303364 106.213127 40.086800 106.301109 39.860001 106.349998 C 39.594292 106.410645 39.322540 106.440842 39.049999 106.439995 C 38.357513 106.489487 37.680202 106.220772 37.209999 105.709991 C 36.342289 104.400703 36.342289 102.699280 37.209999 101.389992 C 37.688080 100.869415 38.374310 100.590523 39.079998 100.629990 C 39.550236 100.627731 40.013828 100.741051 40.429996 100.959991 L 40.430000 101.959999 C 40.109924 101.840164 39.771725 101.775909 39.430000 101.769997 C 39.071945 101.735214 38.721012 101.886154 38.500000 102.169998 C 38.278038 102.561913 38.177128 103.010796 38.209999 103.459999 L 38.209999 103.620003 C 38.177834 104.064751 38.275082 104.509300 38.489998 104.900002 C 38.698990 105.182068 39.040585 105.333885 39.389999 105.300003 C 39.762646 105.292633 40.131290 105.221611 40.480000 105.090004 Z" fill="#232F3E"/><path d=" M 44.200001 106.349998 L 44.200001 98.720001 L 46.709999 98.720001 C 47.307331 98.695900 47.892159 98.895592 48.349998 99.279999 C 48.773220 99.649055 49.008194 100.188759 48.989998 100.750000 C 49.004204 101.100403 48.917427 101.447510 48.739998 101.750000 C 48.564018 102.026451 48.304947 102.240005 47.999996 102.360001 C 48.397873 102.473038 48.748611 102.711540 48.999996 103.040001 C 49.563072 103.917397 49.415543 105.072319 48.649998 105.779999 C 48.116894 106.193230 47.453724 106.402466 46.779999 106.369995 Z M 45.790001 99.820000 L 45.790001 101.930000 L 46.459999 101.930000 C 46.709179 101.942482 46.951012 101.843552 47.119999 101.660004 C 47.300018 101.445457 47.389656 101.169380 47.369999 100.890007 C 47.382023 100.611443 47.308758 100.335838 47.160000 100.100006 C 47.018375 99.918999 46.799778 99.815262 46.570000 99.820007 Z M 45.790001 102.980003 L 45.790001 105.250000 L 46.790001 105.250000 C 47.058075 105.264053 47.318428 105.157715 47.500000 104.959999 C 47.676033 104.716812 47.760983 104.419479 47.740002 104.120003 C 47.760963 103.815750 47.664314 103.515060 47.470001 103.280006 C 47.268589 103.073669 46.987915 102.964317 46.700001 102.980003 Z" fill="#232F3E"/><path d=" M 52.869999 106.250000 C 52.549801 106.366165 52.210457 106.420456 51.869999 106.410004 C 51.473934 106.444443 51.081738 106.310081 50.789997 106.040001 C 50.526508 105.729019 50.397053 105.326263 50.429996 104.919998 L 50.430000 98.209999 L 52.080002 98.209999 L 52.080002 104.750000 C 52.069199 104.888161 52.096889 105.026619 52.160004 105.150002 C 52.239674 105.241310 52.359940 105.286407 52.480003 105.270004 C 52.596474 105.279564 52.713531 105.279564 52.830002 105.270004 Z" fill="#232F3E"/><path d=" M 56.000000 106.489998 C 55.301231 106.527954 54.623463 106.244324 54.160000 105.720001 C 53.293983 104.392052 53.293983 102.677956 54.160000 101.349998 C 55.158825 100.333794 56.792332 100.319710 57.808537 101.318535 C 57.819115 101.328934 57.829605 101.339424 57.840000 101.349998 C 58.719154 102.674011 58.719154 104.395981 57.840000 105.720001 C 57.378323 106.246819 56.699287 106.530983 56.000000 106.489998 Z M 56.000000 105.339996 C 56.286320 105.350388 56.547558 105.177567 56.650002 104.909996 C 56.905136 104.014481 56.905136 103.065514 56.650002 102.169998 C 56.550919 101.898483 56.288895 101.721115 56.000000 101.729996 C 55.712864 101.719078 55.452625 101.897987 55.360001 102.169998 C 55.093204 103.063850 55.093204 104.016151 55.360001 104.909996 C 55.456112 105.178047 55.715508 105.352325 56.000000 105.339996 Z" fill="#232F3E"/><path d=" M 63.279999 106.089996 C 63.083363 106.213127 62.866798 106.301109 62.639999 106.349998 C 62.374378 106.411171 62.102570 106.441368 61.829998 106.439995 C 61.137512 106.489487 60.460201 106.220772 59.989998 105.709991 C 59.122288 104.400703 59.122288 102.699280 59.989998 101.389992 C 60.470341 100.866623 61.160885 100.587463 61.869999 100.629990 C 62.339951 100.630135 62.802975 100.743317 63.219997 100.959991 L 63.220001 101.959999 C 62.899220 101.842697 62.561451 101.778526 62.220001 101.769997 C 61.861946 101.735214 61.511013 101.886154 61.290001 102.169998 C 61.068039 102.561913 60.967129 103.010796 61.000000 103.459999 L 61.000000 103.620003 C 60.967834 104.064751 61.065083 104.509300 61.279999 104.900002 C 61.490891 105.185333 61.837185 105.337547 62.189999 105.300003 C 62.559296 105.291695 62.924496 105.220688 63.270000 105.090004 Z" fill="#232F3E"/><path d=" M 64.330002 106.349998 L 64.330002 98.209999 L 66.000000 98.209999 L 66.000000 103.209999 L 67.639999 100.769997 L 69.470001 100.769997 L 67.470001 103.459999 L 69.639999 106.400002 L 67.709999 106.400002 L 66.000000 103.750000 L 66.000000 106.349998 Z" fill="#232F3E"/><path d=" M 29.340000 117.000000 C 28.845400 116.768761 28.410801 116.426559 28.070000 116.000000 C 27.807676 115.644348 27.670536 115.211830 27.680000 114.769997 C 27.662979 114.356277 27.774790 113.947464 28.000000 113.599998 C 28.225702 113.259720 28.545288 112.992241 28.920000 112.830002 C 29.341814 112.643929 29.799042 112.551804 30.260000 112.560005 C 30.909765 112.562088 31.552485 112.694710 32.150002 112.950005 L 32.150002 114.120003 C 31.598255 113.917831 31.017395 113.806381 30.430002 113.790001 C 30.148350 113.776108 29.870178 113.857094 29.640001 114.020004 C 29.443203 114.172058 29.334578 114.411781 29.350000 114.660004 C 29.342314 114.862022 29.406044 115.060295 29.530001 115.220001 C 29.737774 115.423737 29.982021 115.586571 30.250000 115.700005 L 30.900000 116.019997 C 31.256050 116.187546 31.591599 116.395592 31.900000 116.639999 C 32.128788 116.827263 32.313213 117.062912 32.439999 117.330002 C 32.559372 117.621704 32.617249 117.934906 32.609997 118.250000 C 32.640259 118.886475 32.365425 119.499283 31.869997 119.900002 C 31.294474 120.329575 30.587294 120.545265 29.869997 120.510002 C 29.490139 120.510231 29.111336 120.470001 28.739998 120.389999 C 28.410467 120.326210 28.090961 120.218590 27.789997 120.070000 L 27.790001 118.919998 C 28.117018 119.026825 28.451187 119.110367 28.790001 119.169998 C 29.119120 119.238113 29.453945 119.274940 29.790001 119.279999 C 30.103756 119.304230 30.415846 119.215561 30.670000 119.029999 C 30.876396 118.853905 30.987593 118.590736 30.969999 118.320000 C 30.976088 118.107033 30.901022 117.899704 30.760000 117.739998 C 30.552324 117.543411 30.312090 117.384384 30.050001 117.269997 Z" fill="#232F3E"/><path d=" M 36.799999 120.199997 C 36.406689 120.347153 35.989933 120.421692 35.570000 120.419998 C 34.772198 120.570419 34.003510 120.045616 33.853085 119.247818 C 33.820217 119.073509 33.819172 118.894684 33.849998 118.720001 L 33.849998 115.820000 L 33.119999 115.820000 L 33.119999 114.900002 L 33.900002 114.750000 L 34.139999 113.209999 L 35.500000 113.209999 L 35.500000 114.720001 L 36.779999 114.720001 L 36.779999 115.820000 L 35.500000 115.820000 L 35.500000 118.589996 C 35.484325 118.774376 35.533871 118.958412 35.639999 119.109993 C 35.787174 119.233894 35.978851 119.291756 36.169998 119.269997 C 36.382317 119.266800 36.593620 119.239967 36.799999 119.189995 Z" fill="#232F3E"/><path d=" M 39.910000 120.489998 C 39.210712 120.530975 38.531677 120.246811 38.070000 119.720001 C 37.203983 118.392052 37.203983 116.677956 38.070000 115.349998 C 39.068825 114.333794 40.702332 114.319710 41.718536 115.318535 C 41.729115 115.328934 41.739605 115.339424 41.750000 115.349998 C 42.616016 116.677948 42.616016 118.392044 41.750000 119.720001 C 41.286537 120.244324 40.608768 120.527962 39.910000 120.489998 Z M 39.910000 119.339996 C 40.194492 119.352325 40.453888 119.178047 40.549999 118.909996 C 40.816795 118.016144 40.816795 117.063843 40.549999 116.169998 C 40.457371 115.897995 40.197136 115.719078 39.910000 115.729996 C 39.621109 115.721107 39.359081 115.898483 39.259998 116.169998 C 39.004864 117.065514 39.004864 118.014481 39.259998 118.909996 C 39.362438 119.177567 39.623680 119.350380 39.910000 119.339996 Z" fill="#232F3E"/><path d=" M 43.560001 120.349998 L 43.560001 114.720001 L 44.910000 114.720001 L 45.090000 115.449997 C 45.290947 115.209991 45.535179 115.009857 45.810001 114.860001 C 46.038910 114.731735 46.297634 114.666191 46.560001 114.669998 C 46.689812 114.660080 46.820190 114.660080 46.950001 114.669998 L 46.950001 116.000000 C 46.736885 115.986336 46.523117 115.986336 46.310001 116.000000 C 45.928165 116.000481 45.551643 116.089478 45.210003 116.260002 L 45.209999 120.370003 Z" fill="#232F3E"/><path d=" M 48.910000 117.919998 C 48.889252 118.324760 49.017300 118.723129 49.270000 119.040001 C 49.565567 119.286263 49.946880 119.404976 50.330002 119.370003 C 50.559204 119.363998 50.787132 119.333832 51.010002 119.280006 C 51.281528 119.230042 51.548943 119.159843 51.810001 119.070007 L 51.810001 120.070000 C 51.551762 120.217194 51.271507 120.321869 50.980000 120.379997 C 50.651474 120.451813 50.316277 120.488686 49.980000 120.489998 C 48.259998 120.489998 47.400002 119.489998 47.400002 117.540001 C 47.345516 116.753960 47.572365 115.974152 48.040001 115.340004 C 48.494652 114.816292 49.167927 114.535149 49.860001 114.580002 C 51.230000 114.580002 51.910000 115.339996 51.910000 116.870003 C 51.909126 117.206871 51.868855 117.542488 51.790001 117.870003 Z M 49.820000 115.599998 C 49.250000 115.599998 48.939999 116.059998 48.910000 116.970001 L 50.520000 116.970001 L 50.520000 116.720001 C 50.545040 116.423065 50.486134 116.125076 50.350002 115.860001 C 50.232513 115.684830 50.030445 115.585701 49.820004 115.599998 Z" fill="#232F3E"/></g><g id="ICONS_-_EDIT"><path d=" M 40.000000 56.000000 C 34.000000 56.000000 28.000000 54.320000 28.000000 51.099998 L 28.000000 28.770000 C 28.000000 25.549999 34.000000 23.870001 40.000000 23.870001 C 46.000000 23.870001 52.000000 25.549999 52.000000 28.770000 L 52.000000 51.099998 C 52.000000 54.320000 46.000000 56.000000 40.000000 56.000000 Z M 40.000000 25.870001 C 33.529999 25.870001 30.000000 27.790001 30.000000 28.770000 L 30.000000 51.099998 C 30.000000 52.099998 33.529999 54.000000 40.000000 54.000000 C 46.470001 54.000000 50.000000 52.080002 50.000000 51.099998 L 50.000000 28.770000 C 50.000000 27.790001 46.470001 25.870001 40.000000 25.870001 Z" fill="#FFFFFF"/><path d=" M 40.000000 33.000000 C 34.000000 33.000000 28.000000 31.320000 28.000000 28.100000 L 30.000000 28.100000 C 30.000000 29.100000 33.529999 31.000000 40.000000 31.000000 C 46.470001 31.000000 50.000000 29.080000 50.000000 28.100000 L 52.000000 28.100000 C 52.000000 31.320000 46.000000 33.000000 40.000000 33.000000 Z" fill="#FFFFFF"/><path d=" M 17.000000 24.000000 L 15.000000 24.000000 L 15.000000 16.000000 C 15.000000 15.447715 15.447715 15.000000 16.000000 15.000000 L 24.000000 15.000000 L 24.000000 17.000000 L 17.000000 17.000000 Z" fill="#FFFFFF"/><rect x="19.500000" y="14.140000" width="2.000000" height="12.730000" fill="#FFFFFF" transform="matrix(0.707107,-0.707107,0.707107,0.707107,-8.490000,20.500000)"/><path d=" M 65.000000 24.000000 L 63.000000 24.000000 L 63.000000 17.000000 L 56.000000 17.000000 L 56.000000 15.000000 L 64.000000 15.000000 C 64.552284 15.000000 65.000000 15.447715 65.000000 16.000000 Z" fill="#FFFFFF"/><rect x="53.140000" y="19.500000" width="12.730000" height="2.000000" fill="#FFFFFF" transform="matrix(0.707107,-0.707107,0.707107,0.707107,2.930000,48.080000)"/><path d=" M 24.000000 65.000000 L 16.000000 65.000000 C 15.447715 65.000000 15.000000 64.552284 15.000000 64.000000 L 15.000000 56.000000 L 17.000000 56.000000 L 17.000000 63.000000 L 24.000000 63.000000 Z" fill="#FFFFFF"/><rect x="14.140000" y="58.500000" width="12.730000" height="2.000000" fill="#FFFFFF" transform="matrix(0.707107,-0.707107,0.707107,0.707107,-36.070000,31.920000)"/><path d=" M 64.000000 65.000000 L 56.000000 65.000000 L 56.000000 63.000000 L 63.000000 63.000000 L 63.000000 56.000000 L 65.000000 56.000000 L 65.000000 64.000000 C 65.000000 64.552284 64.552284 65.000000 64.000000 65.000000 Z" fill="#FFFFFF"/><rect x="58.500000" y="53.140000" width="2.000000" height="12.730000" fill="#FFFFFF" transform="matrix(0.707107,-0.707107,0.707107,0.707107,-24.650000,59.500000)"/></g></svg>