<svg version="1.1" width="80.000000" height="130.000000" viewBox="0.000000 0.000000 80.000000 130.000000" xmlns="http://www.w3.org/2000/svg" xmlns:xlink="http://www.w3.org/1999/xlink" overflow="hidden"><g id="CARDS"><rect x="1.000000" y="1.000000" width="78.000000" height="78.000000" fill="#232F3E"/><path d=" M 0.000000 0.000000 L 0.000000 80.000000 L 0.000000 80.000000 L 0.000000 130.000000 L 80.000000 130.000000 L 80.000000 80.000000 L 80.000000 80.000000 L 80.000000 0.000000 Z M 1.000000 1.000000 L 79.000000 1.000000 L 79.000000 79.000000 L 1.000000 79.000000 Z" fill="#FFFFFF"/></g><g id="TEXT_-_EDIT"><path d=" M 25.350000 92.349998 L 24.920000 90.529999 L 22.920000 90.529999 L 22.500000 92.349998 L 20.719999 92.349998 L 23.000000 84.720001 L 24.900000 84.720001 L 27.209999 92.349998 Z M 23.170000 89.430000 L 24.660000 89.430000 L 23.900000 86.269997 Z" fill="#232F3E"/><path d=" M 34.060001 92.349998 L 34.060001 88.639999 C 34.076664 88.401566 34.028278 88.163086 33.920002 87.949997 C 33.818390 87.798111 33.642017 87.713760 33.460003 87.729996 C 33.174561 87.741776 32.897831 87.831711 32.660004 87.989998 C 32.664921 88.029846 32.664921 88.070152 32.660004 88.110001 L 32.660000 92.349998 L 31.000000 92.349998 L 31.000000 88.639999 C 31.019257 88.402504 30.974358 88.164200 30.870001 87.949997 C 30.765142 87.796478 30.585056 87.712181 30.400002 87.729996 C 30.121338 87.744865 29.851856 87.834694 29.620001 87.989998 L 29.620001 92.349998 L 28.000000 92.349998 L 28.000000 86.720001 L 29.350000 86.720001 L 29.480000 87.230003 C 30.005127 86.837898 30.635393 86.611557 31.289999 86.580002 C 31.787903 86.543671 32.259682 86.807076 32.489998 87.250000 C 33.020988 86.851845 33.657448 86.618820 34.320000 86.580002 C 34.698605 86.567619 35.063778 86.720993 35.320000 87.000000 C 35.580429 87.351334 35.707973 87.783562 35.680000 88.220001 L 35.680000 92.349998 Z" fill="#232F3E"/><path d=" M 40.000000 92.349998 L 39.860001 91.839996 C 39.704742 92.042564 39.502155 92.203949 39.270000 92.309998 C 39.023094 92.427322 38.753361 92.488777 38.480000 92.489998 C 38.038441 92.498497 37.613724 92.320625 37.310001 92.000000 C 37.006588 91.668808 36.851307 91.228241 36.880001 90.779999 C 36.856857 90.286880 37.050484 89.808296 37.410000 89.470001 C 37.807274 89.133095 38.320316 88.964470 38.840000 89.000000 C 39.154030 89.006668 39.466179 89.050301 39.770000 89.129997 L 39.770000 88.620003 C 39.797573 88.349762 39.741737 88.077560 39.610001 87.840004 C 39.445477 87.687714 39.222755 87.614693 39.000000 87.640007 C 38.395546 87.665237 37.798565 87.783279 37.230000 87.990005 L 37.230000 87.000000 C 37.513470 86.841469 37.820801 86.730019 38.139999 86.669998 C 38.521481 86.590019 38.910225 86.549805 39.299999 86.549995 C 39.843796 86.502090 40.385880 86.659012 40.820000 86.989998 C 41.164772 87.366852 41.335323 87.871239 41.290001 88.379997 L 41.290001 92.320000 Z M 39.000000 91.430000 C 39.298344 91.418404 39.580971 91.293190 39.790001 91.080002 L 39.790001 90.000000 C 39.584171 89.948074 39.372208 89.924522 39.160000 89.930000 C 38.962250 89.913605 38.767620 89.987053 38.630001 90.129997 C 38.490948 90.293694 38.422604 90.505920 38.440002 90.719994 C 38.429714 90.905304 38.482594 91.088631 38.590004 91.239990 C 38.687565 91.366325 38.840549 91.437218 39.000004 91.429993 Z" fill="#232F3E"/><path d=" M 42.279999 92.349998 L 42.279999 91.279999 L 44.770000 87.879997 L 42.369999 87.879997 L 42.369999 86.720001 L 46.509998 86.720001 L 46.509998 87.790001 L 44.000000 91.190002 L 46.540001 91.190002 L 46.540001 92.349998 Z" fill="#232F3E"/><path d=" M 49.790001 92.489998 C 49.108448 92.512650 48.452259 92.230377 48.000000 91.720001 C 47.133984 90.392052 47.133984 88.677956 48.000000 87.349998 C 49.011749 86.331032 50.657967 86.325180 51.676933 87.336929 C 51.681305 87.341270 51.685661 87.345627 51.690002 87.349998 C 52.556019 88.677948 52.556019 90.392044 51.690002 91.720001 C 51.211487 92.259041 50.508781 92.543823 49.790001 92.489998 Z M 49.790001 91.339996 C 50.076321 91.350388 50.337559 91.177567 50.440002 90.909996 C 50.706799 90.016144 50.706799 89.063843 50.440002 88.169998 C 50.304638 87.813774 49.906124 87.634735 49.549900 87.770103 C 49.365585 87.840141 49.220043 87.985687 49.150002 88.169998 C 48.883205 89.063850 48.883205 90.016151 49.150002 90.909996 C 49.248730 91.175995 49.506416 91.349129 49.790001 91.339996 Z" fill="#232F3E"/><path d=" M 56.549999 92.349998 L 56.549999 88.650002 C 56.566494 88.408363 56.518166 88.166710 56.410000 87.950005 C 56.294102 87.793236 56.103878 87.709541 55.910000 87.730003 C 55.618229 87.741188 55.334908 87.831024 55.090000 87.990005 L 55.090000 92.349998 L 53.439999 92.349998 L 53.439999 86.720001 L 54.790001 86.720001 L 54.930000 87.230003 C 55.464371 86.833908 56.105400 86.607452 56.770000 86.580002 C 57.171432 86.553581 57.563728 86.707565 57.840000 87.000000 C 58.102020 87.350540 58.229740 87.783371 58.200001 88.220001 L 58.200001 92.349998 Z" fill="#232F3E"/><path d=" M 25.129999 106.349998 L 25.129999 98.720001 L 29.670000 98.720001 L 29.670000 99.900002 L 26.820000 99.900002 L 26.820000 101.849998 L 29.110001 101.849998 L 29.110001 103.000000 L 26.820000 103.000000 L 26.820000 105.150002 L 29.670000 105.150002 L 29.670000 106.330002 Z" fill="#232F3E"/><path d=" M 33.189999 106.250000 C 32.869801 106.366165 32.530457 106.420456 32.189999 106.410004 C 31.794245 106.441948 31.403023 106.307922 31.109999 106.040001 C 30.846510 105.729019 30.717052 105.326263 30.749998 104.919998 L 30.750000 98.209999 L 32.410000 98.209999 L 32.410000 104.750000 C 32.397121 104.887192 32.421295 105.025330 32.480000 105.150002 C 32.560696 105.239822 32.680141 105.284615 32.799999 105.270004 C 32.916470 105.279564 33.033527 105.279564 33.149998 105.270004 Z" fill="#232F3E"/><path d=" M 37.110001 106.349998 L 36.959999 105.839996 C 36.809303 106.046989 36.605442 106.209389 36.369999 106.309998 C 36.126694 106.427460 35.860176 106.488968 35.590000 106.489998 C 35.150822 106.513031 34.722321 106.349617 34.410000 106.040001 C 34.103970 105.709824 33.945168 105.269508 33.970001 104.820000 C 33.946857 104.326881 34.140484 103.848297 34.500000 103.510002 C 34.903866 103.177910 35.417988 103.010109 35.939999 103.040001 C 36.254028 103.046669 36.566177 103.090302 36.869999 103.169998 L 36.869999 102.660004 C 36.895195 102.388687 36.835812 102.116226 36.700001 101.880005 C 36.539997 101.726921 36.319851 101.653542 36.100002 101.680008 C 35.492172 101.704216 34.891747 101.822273 34.320004 102.030006 L 34.320000 101.029999 C 34.607075 100.871574 34.917679 100.760162 35.239998 100.699997 C 35.621399 100.619514 36.010197 100.579300 36.399998 100.579994 C 36.943604 100.534027 37.485004 100.690742 37.919998 101.019997 C 38.261158 101.398506 38.428013 101.902695 38.379997 102.409996 L 38.380001 106.349998 Z M 36.110001 105.430000 C 36.411385 105.418922 36.697319 105.293823 36.910000 105.080002 L 36.910000 104.000000 C 36.704060 103.948677 36.492180 103.925140 36.279999 103.930000 C 36.079453 103.914780 35.882248 103.987816 35.739998 104.129997 C 35.608238 104.297188 35.544003 104.507729 35.559998 104.719994 C 35.549709 104.905304 35.602589 105.088631 35.709999 105.239990 C 35.794926 105.354698 35.927376 105.424606 36.070000 105.429993 Z" fill="#232F3E"/><path d=" M 41.779999 104.769997 C 41.779999 104.519997 41.610001 104.309998 41.259998 104.150002 L 40.540001 103.800003 C 39.866486 103.560318 39.414883 102.924881 39.410000 102.210007 C 39.390842 101.733154 39.612499 101.278572 40.000000 101.000008 C 40.422359 100.682838 40.942471 100.523621 41.470001 100.550011 C 41.999649 100.551735 42.522278 100.671295 43.000000 100.900009 L 43.000000 101.900002 C 42.771442 101.820229 42.537525 101.756737 42.299999 101.709999 C 42.102863 101.666542 41.901844 101.643089 41.700001 101.639999 C 41.189999 101.639999 40.930000 101.820000 40.930000 102.180000 C 40.930000 102.540001 41.139999 102.629997 41.570000 102.839996 L 42.290001 103.180000 C 42.598686 103.312111 42.865074 103.526604 43.060001 103.800003 C 43.228264 104.080269 43.311630 104.403313 43.300003 104.730003 C 43.324760 105.215942 43.121365 105.685608 42.750004 106.000000 C 42.325520 106.321449 41.801914 106.484184 41.270004 106.459999 C 40.636276 106.466171 40.010925 106.314987 39.450005 106.019997 L 39.450001 105.019997 C 39.965828 105.217575 40.508698 105.335594 41.060001 105.369995 C 41.264175 105.382927 41.466270 105.322655 41.630001 105.199997 C 41.738655 105.084381 41.793171 104.928108 41.780003 104.769997 Z" fill="#232F3E"/><path d=" M 47.230000 106.199997 C 46.836689 106.347153 46.419933 106.421692 46.000000 106.419998 C 45.527683 106.464508 45.056892 106.320755 44.689999 106.019997 C 44.385262 105.658775 44.237633 105.190689 44.279999 104.719994 L 44.279999 101.820000 L 43.540001 101.820000 L 43.540001 100.900002 L 44.320000 100.750000 L 44.560001 99.209999 L 45.930000 99.209999 L 45.930000 100.720001 L 47.200001 100.720001 L 47.200001 101.820000 L 45.930000 101.820000 L 45.930000 104.589996 C 45.909702 104.774757 45.959682 104.960396 46.070000 105.109993 C 46.216587 105.234970 46.408745 105.292976 46.599998 105.269997 C 46.812237 105.265694 47.023422 105.238876 47.230000 105.189995 Z" fill="#232F3E"/><path d=" M 49.000000 99.809998 C 48.744759 99.822983 48.493183 99.745026 48.290001 99.589996 C 48.112209 99.444801 48.006359 99.229454 48.000000 99.000000 C 47.990192 98.767853 48.085735 98.543694 48.259998 98.389999 C 48.458115 98.224579 48.712517 98.142166 48.969997 98.159996 C 49.224098 98.144775 49.474442 98.227028 49.669998 98.389999 C 49.850449 98.539917 49.950356 98.765633 49.939999 99.000000 C 49.948814 99.234077 49.849194 99.459145 49.669998 99.610001 C 49.478008 99.755119 49.240120 99.826126 49.000000 99.809998 Z M 48.169998 106.349998 L 48.169998 100.720001 L 49.820000 100.720001 L 49.820000 106.349998 Z" fill="#232F3E"/><path d=" M 54.889999 106.089996 C 54.693363 106.213127 54.476799 106.301109 54.250000 106.349998 C 53.984291 106.410645 53.712540 106.440842 53.439999 106.439995 C 52.747513 106.489487 52.070202 106.220772 51.599998 105.709991 C 50.732288 104.400703 50.732288 102.699280 51.599998 101.389992 C 52.080341 100.866623 52.770885 100.587463 53.480000 100.629990 C 53.949951 100.630135 54.412975 100.743317 54.829998 100.959991 L 54.830002 101.959999 C 54.509220 101.842697 54.171452 101.778526 53.830002 101.769997 C 53.471947 101.735214 53.121014 101.886154 52.900002 102.169998 C 52.678040 102.561913 52.577129 103.010796 52.610001 103.459999 L 52.610001 103.620003 C 52.577835 104.064751 52.675083 104.509300 52.889999 104.900002 C 53.098991 105.182068 53.440586 105.333885 53.790001 105.300003 C 54.162647 105.292633 54.531292 105.221611 54.880001 105.090004 Z" fill="#232F3E"/><path d=" M 13.720000 120.349998 L 13.720000 112.720001 L 18.070000 112.720001 L 18.070000 113.900002 L 15.400000 113.900002 L 15.400000 116.000000 L 17.490000 116.000000 L 17.490000 117.169998 L 15.400000 117.169998 L 15.400000 120.389999 Z" fill="#232F3E"/><path d=" M 19.850000 113.809998 C 19.594538 113.824768 19.342354 113.746628 19.140001 113.589996 C 18.960806 113.439140 18.861187 113.214073 18.870001 112.979996 C 18.859644 112.745628 18.959551 112.519913 19.140001 112.369995 C 19.560442 112.064751 20.129560 112.064751 20.550001 112.369995 C 20.724266 112.523682 20.819811 112.747849 20.810001 112.979996 C 20.816996 113.211624 20.721939 113.434639 20.550001 113.589996 C 20.352974 113.749374 20.102781 113.828011 19.850000 113.809998 Z M 19.000000 120.349998 L 19.000000 114.720001 L 20.650000 114.720001 L 20.650000 120.349998 Z" fill="#232F3E"/><path d=" M 24.520000 120.250000 C 24.200052 120.367126 23.860519 120.421448 23.520000 120.410004 C 23.124247 120.441948 22.733025 120.307922 22.440001 120.040001 C 22.183887 119.725441 22.058571 119.324425 22.090000 118.919998 L 22.090000 112.209999 L 23.740000 112.209999 L 23.740000 118.750000 C 23.723759 118.888435 23.751764 119.028458 23.820000 119.150002 C 23.895403 119.241234 24.012823 119.286682 24.129999 119.270004 C 24.246441 119.280235 24.363556 119.280235 24.480000 119.270004 Z" fill="#232F3E"/><path d=" M 26.629999 117.919998 C 26.630663 118.310982 26.760767 118.690742 27.000000 119.000000 C 27.295565 119.246262 27.676880 119.364975 28.059999 119.330002 C 28.292551 119.324707 28.523869 119.294533 28.750000 119.240005 C 29.020973 119.187576 29.288214 119.117424 29.549999 119.030006 L 29.549999 120.029999 C 29.290201 120.173843 29.010485 120.278313 28.719999 120.339996 C 28.391476 120.411812 28.056278 120.448685 27.719999 120.449997 C 26.000000 120.449997 25.139999 119.449997 25.139999 117.500000 C 25.086962 116.715630 25.309818 115.937401 25.769999 115.300003 C 26.227764 114.774681 26.904764 114.493523 27.599998 114.540001 C 28.959999 114.540001 29.600000 115.300003 29.600000 116.830002 C 29.599127 117.166870 29.558853 117.502487 29.480000 117.830002 Z M 27.549999 115.599998 C 26.969999 115.599998 26.670000 116.059998 26.629999 116.970001 L 28.250000 116.970001 L 28.250000 116.720001 C 28.270443 116.423340 28.211779 116.126572 28.080000 115.860001 C 27.962509 115.684830 27.760441 115.585701 27.549999 115.599998 Z" fill="#232F3E"/><path d=" M 34.750000 117.000000 C 34.255402 116.768761 33.820801 116.426559 33.480000 116.000000 C 33.217678 115.644348 33.080536 115.211830 33.090000 114.769997 C 33.078892 114.354126 33.197739 113.945145 33.430000 113.599998 C 33.655701 113.259720 33.975288 112.992241 34.349998 112.830002 C 34.771812 112.643929 35.229042 112.551804 35.689999 112.560005 C 36.339764 112.562088 36.982483 112.694710 37.579998 112.950005 L 37.580002 114.120003 C 37.028255 113.917831 36.447395 113.806381 35.860001 113.790001 C 35.578163 113.774521 35.299480 113.855652 35.070000 114.020004 C 34.873199 114.172058 34.764576 114.411781 34.779999 114.660004 C 34.772312 114.862022 34.836040 115.060295 34.959999 115.220001 C 35.167770 115.423737 35.412022 115.586571 35.680000 115.700005 L 36.330002 116.019997 C 36.686054 116.187546 37.021603 116.395592 37.330002 116.639999 C 37.558788 116.827263 37.743214 117.062912 37.870003 117.330002 C 37.989376 117.621704 38.047253 117.934906 38.040001 118.250000 C 38.070263 118.886475 37.795429 119.499283 37.299999 119.900002 C 36.724476 120.329575 36.017296 120.545265 35.299999 120.510002 C 34.920139 120.510231 34.541336 120.470001 34.169998 120.389999 C 33.824051 120.327736 33.487823 120.220139 33.169998 120.070000 L 33.169998 118.919998 C 33.497494 119.025146 33.831547 119.108665 34.169998 119.169998 C 34.499119 119.238113 34.833942 119.274940 35.169998 119.279999 C 35.470219 119.282280 35.762512 119.183678 36.000000 119.000000 C 36.206394 118.823906 36.317593 118.560738 36.299999 118.290001 C 36.306087 118.077034 36.231022 117.869705 36.090000 117.709999 C 35.882324 117.513412 35.642090 117.354385 35.380001 117.239998 Z" fill="#232F3E"/><path d=" M 40.500000 120.459999 L 38.500000 114.720001 L 40.250000 114.720001 L 41.180000 118.860001 L 42.080002 114.720001 L 43.779999 114.720001 L 41.779999 121.199997 C 41.670708 121.647972 41.438690 122.056602 41.110001 122.379997 C 40.796204 122.631195 40.401501 122.759209 40.000000 122.739998 C 39.640652 122.740013 39.283333 122.686081 38.939999 122.579994 L 38.939999 121.580002 C 39.133106 121.593239 39.326893 121.593239 39.520000 121.580002 C 39.766922 121.600166 40.011684 121.520981 40.200001 121.360001 C 40.384483 121.155769 40.493832 120.894745 40.510002 120.620003 Z" fill="#232F3E"/><path d=" M 46.549999 118.769997 C 46.549999 118.519997 46.380001 118.309998 46.029999 118.150002 L 45.310001 117.800003 C 44.630665 117.566200 44.173405 116.928444 44.170002 116.210007 C 44.155640 115.749420 44.364113 115.310135 44.730003 115.030006 C 45.152363 114.712837 45.672474 114.553619 46.200005 114.580009 C 46.729652 114.581734 47.252281 114.701294 47.730003 114.930008 L 47.730000 115.930000 C 47.501049 115.851501 47.267220 115.788033 47.029999 115.739998 C 46.832863 115.696541 46.631844 115.673088 46.430000 115.669998 C 45.910000 115.669998 45.660000 115.849998 45.660000 116.209999 C 45.660000 116.570000 45.869999 116.660004 46.290001 116.870003 L 47.020000 117.209999 C 47.326878 117.345100 47.592537 117.559013 47.790001 117.830002 C 47.958263 118.110268 48.041630 118.433311 48.030003 118.760002 C 48.050190 119.245102 47.847626 119.712845 47.480003 120.029999 C 47.051670 120.351402 46.524975 120.514008 45.990002 120.489998 C 45.356369 120.495338 44.731216 120.344200 44.170002 120.049995 L 44.169998 119.050003 C 44.689220 119.247826 45.235420 119.365837 45.789997 119.400002 C 45.991325 119.415108 46.191040 119.354477 46.349998 119.230003 C 46.484173 119.115822 46.558006 118.946007 46.549999 118.770004 Z" fill="#232F3E"/><path d=" M 52.000000 120.199997 C 51.606689 120.347153 51.189934 120.421692 50.770000 120.419998 C 49.972198 120.570419 49.203510 120.045616 49.053085 119.247818 C 49.020218 119.073509 49.019173 118.894684 49.049999 118.720001 L 49.049999 115.820000 L 48.320000 115.820000 L 48.320000 114.900002 L 49.099998 114.750000 L 49.340000 113.209999 L 50.700001 113.209999 L 50.700001 114.720001 L 52.000000 114.720001 L 52.000000 115.820000 L 50.689999 115.820000 L 50.689999 118.589996 C 50.671528 118.776146 50.725220 118.962288 50.840000 119.109993 C 50.985340 119.237236 51.178528 119.295555 51.369999 119.269997 C 51.578976 119.266144 51.786892 119.239319 51.989998 119.189995 Z" fill="#232F3E"/><path d=" M 54.090000 117.919998 C 54.069252 118.324760 54.197300 118.723129 54.450001 119.040001 C 54.745567 119.286263 55.126881 119.404976 55.510002 119.370003 C 55.739250 119.364609 55.967243 119.334435 56.190002 119.280006 C 56.461529 119.230042 56.728943 119.159843 56.990002 119.070007 L 56.990002 120.070000 C 56.731762 120.217194 56.451508 120.321869 56.160000 120.379997 C 55.831474 120.451813 55.496277 120.488686 55.160000 120.489998 C 53.439999 120.489998 52.580002 119.489998 52.580002 117.540001 C 52.529846 116.754425 52.756275 115.976082 53.220001 115.340004 C 53.674652 114.816292 54.347927 114.535149 55.040001 114.580002 C 56.410000 114.580002 57.090000 115.339996 57.090000 116.870003 C 57.089127 117.206871 57.048855 117.542488 56.970001 117.870003 Z M 55.000000 115.599998 C 54.430000 115.599998 54.119999 116.059998 54.090000 116.970001 L 55.700001 116.970001 L 55.700001 116.720001 C 55.725040 116.423065 55.666134 116.125076 55.530003 115.860001 C 55.413956 115.683182 55.210861 115.583549 55.000004 115.599998 Z" fill="#232F3E"/><path d=" M 64.309998 120.349998 L 64.309998 116.639999 C 64.326660 116.401566 64.278275 116.163086 64.169998 115.949997 C 64.065140 115.796478 63.885052 115.712181 63.699997 115.729996 C 63.417988 115.743576 63.144951 115.833435 62.909996 115.989998 C 62.914913 116.029846 62.914913 116.070152 62.909996 116.110001 L 62.910000 120.349998 L 61.270000 120.349998 L 61.270000 116.639999 C 61.286663 116.401566 61.238277 116.163086 61.130001 115.949997 C 61.028389 115.798111 60.852016 115.713760 60.670002 115.729996 C 60.387993 115.743576 60.114956 115.833435 59.880001 115.989998 L 59.880001 120.349998 L 58.230000 120.349998 L 58.230000 114.720001 L 59.580002 114.720001 L 59.709999 115.230003 C 60.236557 114.840569 60.865986 114.614525 61.520000 114.580002 C 62.020237 114.544861 62.494316 114.807365 62.730000 115.250000 C 63.260990 114.851845 63.897449 114.618820 64.559998 114.580002 C 64.939102 114.564880 65.305382 114.718712 65.559998 115.000000 C 65.823982 115.349983 65.955109 115.782341 65.930000 116.220001 L 65.930000 120.349998 Z" fill="#232F3E"/></g><g id="ICONS_-_EDIT"><path d=" M 17.000000 24.000000 L 15.000000 24.000000 L 15.000000 16.000000 C 15.000000 15.447715 15.447715 15.000000 16.000000 15.000000 L 24.000000 15.000000 L 24.000000 17.000000 L 17.000000 17.000000 Z" fill="#FFFFFF"/><rect x="19.500000" y="14.140000" width="2.000000" height="12.730000" fill="#FFFFFF" transform="matrix(0.707107,-0.707107,0.707107,0.707107,-8.490000,20.500000)"/><path d=" M 65.000000 24.000000 L 63.000000 24.000000 L 63.000000 17.000000 L 56.000000 17.000000 L 56.000000 15.000000 L 64.000000 15.000000 C 64.552284 15.000000 65.000000 15.447715 65.000000 16.000000 Z" fill="#FFFFFF"/><rect x="53.140000" y="19.500000" width="12.730000" height="2.000000" fill="#FFFFFF" transform="matrix(0.707107,-0.707107,0.707107,0.707107,2.930000,48.080000)"/><path d=" M 24.000000 65.000000 L 16.000000 65.000000 C 15.447715 65.000000 15.000000 64.552284 15.000000 64.000000 L 15.000000 56.000000 L 17.000000 56.000000 L 17.000000 63.000000 L 24.000000 63.000000 Z" fill="#FFFFFF"/><rect x="14.140000" y="58.500000" width="12.730000" height="2.000000" fill="#FFFFFF" transform="matrix(0.707107,-0.707107,0.707107,0.707107,-36.070000,31.920000)"/><path d=" M 64.000000 65.000000 L 56.000000 65.000000 L 56.000000 63.000000 L 63.000000 63.000000 L 63.000000 56.000000 L 65.000000 56.000000 L 65.000000 64.000000 C 65.000000 64.552284 64.552284 65.000000 64.000000 65.000000 Z" fill="#FFFFFF"/><rect x="58.500000" y="53.140000" width="2.000000" height="12.730000" fill="#FFFFFF" transform="matrix(0.707107,-0.707107,0.707107,0.707107,-24.650000,59.500000)"/><path d=" M 24.680000 50.669998 C 21.466166 49.611752 19.217999 46.706551 19.000000 43.329998 C 19.000000 43.139999 19.000000 42.950001 19.000000 42.759998 C 18.866919 39.168568 21.145124 35.929180 24.570000 34.840000 C 24.570000 34.650002 24.570000 34.470001 24.570000 34.290001 C 24.678646 29.819260 27.303213 25.793377 31.350000 23.890001 C 35.721100 21.975201 40.821941 22.980215 44.139999 26.410002 C 45.177197 27.453167 46.026352 28.667698 46.649998 30.000002 C 47.548260 29.340706 48.635799 28.989887 49.749996 29.000002 C 52.189999 29.000000 54.750000 30.750000 55.270000 34.630001 C 59.619999 35.779999 62.000000 38.630001 62.000000 42.820000 C 62.000000 47.009998 59.919998 49.689999 56.150002 50.599998 L 55.680000 48.660000 C 58.590000 47.939999 60.000000 46.000000 60.000000 42.810001 C 60.000000 39.380001 58.000000 37.230000 54.139999 36.410000 C 53.695610 36.320145 53.367275 35.942562 53.340000 35.490002 C 53.150002 32.169998 51.290001 30.990000 49.750000 30.990000 C 48.692963 31.004845 47.705769 31.520710 47.090000 32.380001 C 46.860588 32.693035 46.470772 32.845066 46.090000 32.770000 C 45.727383 32.714626 45.424183 32.465164 45.299999 32.119999 C 44.755569 30.508837 43.852947 29.042072 42.660000 27.829998 C 39.925411 24.989910 35.710258 24.155661 32.099998 25.739998 C 28.799852 27.331482 26.660133 30.627806 26.549999 34.289997 C 26.553778 34.677902 26.580490 35.065247 26.629999 35.449997 C 26.690447 35.950428 26.368986 36.417618 25.879999 36.539997 C 22.924227 37.097073 20.837675 39.756569 21.000000 42.759998 C 21.000000 42.919998 21.000000 43.070000 21.000000 43.220001 C 21.174862 45.782764 22.888138 47.982723 25.330000 48.780003 Z" fill="#FFFFFF"/><path d=" M 51.000000 58.000000 L 28.000000 58.000000 C 27.447716 58.000000 27.000000 57.552284 27.000000 57.000000 L 27.000000 44.480000 C 27.006050 43.443649 27.427515 42.453030 28.170000 41.730000 C 28.673206 41.231400 29.362398 40.966606 30.070000 41.000000 L 31.240000 41.000000 C 31.540001 40.119999 32.130001 39.000000 33.029999 39.000000 L 37.029999 39.000000 L 37.220001 39.000000 C 37.990002 39.150002 38.490002 40.169998 38.750000 41.000000 L 49.000000 41.000000 C 49.684631 40.980190 50.346977 41.244404 50.830002 41.730000 C 51.572487 42.453030 51.993954 43.443649 52.000000 44.480000 L 52.000000 57.000000 C 52.000000 57.552284 51.552284 58.000000 51.000000 58.000000 Z M 29.000000 56.000000 L 50.000000 56.000000 L 50.000000 44.480000 C 49.994244 43.998158 49.804657 43.536713 49.470001 43.189999 C 49.369961 43.072392 49.224365 43.003235 49.070000 43.000000 L 38.000000 43.000000 C 37.447716 43.000000 37.000000 42.552284 37.000000 42.000000 C 36.909206 41.652676 36.778328 41.317085 36.610001 41.000000 L 33.430000 41.000000 C 33.243217 41.334110 33.098770 41.690186 33.000000 42.060001 C 32.968220 42.588726 32.529678 43.000957 32.000000 43.000000 L 30.000000 43.000000 C 29.824615 42.982925 29.652214 43.054134 29.540001 43.189999 C 29.199049 43.533382 29.005342 43.996124 29.000000 44.480000 Z" fill="#FFFFFF"/><path d=" M 52.000000 57.320000 L 50.099998 56.680000 L 53.610001 46.000000 L 51.000000 46.000000 L 51.000000 44.000000 L 55.000000 44.000000 C 55.321857 44.001488 55.623325 44.157803 55.810001 44.419998 C 55.998512 44.680099 56.050598 45.014927 55.950001 45.320000 Z" fill="#FFFFFF"/></g></svg>