<svg version="1.1" width="80.000000" height="115.000000" viewBox="0.000000 0.000000 80.000000 115.000000" xmlns="http://www.w3.org/2000/svg" xmlns:xlink="http://www.w3.org/1999/xlink" overflow="hidden"><g id="CARDS"><rect x="1.000000" y="1.000000" width="78.000000" height="78.000000" fill="#232F3E"/><path d=" M 0.000000 0.000000 L 0.000000 80.000000 L 0.000000 80.000000 L 0.000000 115.000000 L 80.000000 115.000000 L 80.000000 80.000000 L 80.000000 80.000000 L 80.000000 0.000000 Z M 1.000000 1.000000 L 79.000000 1.000000 L 79.000000 79.000000 L 1.000000 79.000000 Z" fill="#FFFFFF"/></g><g id="TEXT_-_EDIT"><path d=" M 25.350000 92.349998 L 24.920000 90.529999 L 22.920000 90.529999 L 22.500000 92.349998 L 20.719999 92.349998 L 23.000000 84.720001 L 24.900000 84.720001 L 27.209999 92.349998 Z M 23.170000 89.430000 L 24.660000 89.430000 L 23.900000 86.269997 Z" fill="#232F3E"/><path d=" M 34.060001 92.349998 L 34.060001 88.639999 C 34.076664 88.401566 34.028278 88.163086 33.920002 87.949997 C 33.819908 87.796371 33.642418 87.711487 33.460003 87.729996 C 33.174831 87.743271 32.898491 87.833084 32.660004 87.989998 C 32.664822 88.029854 32.664822 88.070145 32.660004 88.110001 L 32.660000 92.349998 L 31.000000 92.349998 L 31.000000 88.639999 C 31.019257 88.402504 30.974358 88.164200 30.870001 87.949997 C 30.765142 87.796478 30.585056 87.712181 30.400002 87.729996 C 30.121338 87.744865 29.851856 87.834694 29.620001 87.989998 L 29.620001 92.349998 L 28.000000 92.349998 L 28.000000 86.720001 L 29.350000 86.720001 L 29.480000 87.230003 C 30.005705 86.838974 30.635632 86.612755 31.289999 86.580002 C 31.787903 86.543671 32.259682 86.807076 32.489998 87.250000 C 33.020988 86.851845 33.657448 86.618820 34.320000 86.580002 C 34.698605 86.567619 35.063778 86.720993 35.320000 87.000000 C 35.580429 87.351334 35.707973 87.783562 35.680000 88.220001 L 35.680000 92.349998 Z" fill="#232F3E"/><path d=" M 40.000000 92.349998 L 39.860001 91.839996 C 39.704742 92.042564 39.502155 92.203949 39.270000 92.309998 C 39.023094 92.427322 38.753361 92.488777 38.480000 92.489998 C 38.038441 92.498497 37.613724 92.320625 37.310001 92.000000 C 37.006588 91.668808 36.851307 91.228241 36.880001 90.779999 C 36.856857 90.286880 37.050484 89.808296 37.410000 89.470001 C 37.807274 89.133095 38.320316 88.964470 38.840000 89.000000 C 39.154030 89.006668 39.466179 89.050301 39.770000 89.129997 L 39.770000 88.620003 C 39.797573 88.349762 39.741737 88.077560 39.610001 87.840004 C 39.445477 87.687714 39.222755 87.614693 39.000000 87.640007 C 38.395546 87.665237 37.798565 87.783279 37.230000 87.990005 L 37.230000 87.000000 C 37.516563 86.840446 37.827354 86.728966 38.149998 86.669998 C 38.528015 86.589485 38.913502 86.549255 39.299999 86.549995 C 39.843796 86.502090 40.385880 86.659012 40.820000 86.989998 C 41.164772 87.366852 41.335323 87.871239 41.290001 88.379997 L 41.290001 92.320000 Z M 39.000000 91.430000 C 39.298344 91.418404 39.580971 91.293190 39.790001 91.080002 L 39.790001 90.000000 C 39.587475 89.948616 39.378887 89.925064 39.170002 89.930000 C 38.969070 89.911972 38.770714 89.985435 38.630001 90.129997 C 38.490948 90.293694 38.422604 90.505920 38.440002 90.719994 C 38.429714 90.905304 38.482594 91.088631 38.590004 91.239990 C 38.687565 91.366325 38.840549 91.437218 39.000004 91.429993 Z" fill="#232F3E"/><path d=" M 42.279999 92.349998 L 42.279999 91.279999 L 44.770000 87.879997 L 42.369999 87.879997 L 42.369999 86.720001 L 46.509998 86.720001 L 46.509998 87.790001 L 44.000000 91.190002 L 46.540001 91.190002 L 46.540001 92.349998 Z" fill="#232F3E"/><path d=" M 49.790001 92.489998 C 49.108715 92.511253 48.453094 92.229225 48.000000 91.720001 C 47.133984 90.392052 47.133984 88.677956 48.000000 87.349998 C 49.011749 86.331032 50.657967 86.325180 51.676933 87.336929 C 51.681305 87.341270 51.685661 87.345627 51.690002 87.349998 C 52.556019 88.677948 52.556019 90.392044 51.690002 91.720001 C 51.211487 92.259041 50.508781 92.543823 49.790001 92.489998 Z M 49.790001 91.339996 C 50.076321 91.350388 50.337559 91.177567 50.440002 90.909996 C 50.706799 90.016144 50.706799 89.063843 50.440002 88.169998 C 50.304638 87.813774 49.906124 87.634735 49.549900 87.770103 C 49.365585 87.840141 49.220043 87.985687 49.150002 88.169998 C 48.883205 89.063850 48.883205 90.016151 49.150002 90.909996 C 49.248730 91.175995 49.506416 91.349129 49.790001 91.339996 Z" fill="#232F3E"/><path d=" M 56.549999 92.349998 L 56.549999 88.650002 C 56.566494 88.408363 56.518166 88.166710 56.410000 87.950005 C 56.294102 87.793236 56.103878 87.709541 55.910000 87.730003 C 55.621128 87.739960 55.340698 87.829971 55.099998 87.990005 L 55.099998 92.349998 L 53.439999 92.349998 L 53.439999 86.720001 L 54.790001 86.720001 L 54.930000 87.230003 C 55.464371 86.833908 56.105400 86.607452 56.770000 86.580002 C 57.171432 86.553581 57.563728 86.707565 57.840000 87.000000 C 58.102020 87.350540 58.229740 87.783371 58.200001 88.220001 L 58.200001 92.349998 Z" fill="#232F3E"/><path d=" M 27.340000 105.250000 C 27.529711 105.264816 27.720289 105.264816 27.910000 105.250000 L 27.910000 103.250000 L 26.750000 103.250000 L 26.750000 102.139999 L 29.450001 102.139999 L 29.450001 105.910004 C 29.099268 106.104134 28.721899 106.245651 28.330000 106.330002 C 27.883726 106.430847 27.427525 106.481163 26.969999 106.480003 C 26.049332 106.538010 25.153170 106.169220 24.539999 105.480003 C 23.925997 104.657875 23.624680 103.644028 23.689999 102.620003 C 23.611841 101.545029 23.928263 100.478439 24.579998 99.620003 C 25.258913 98.916504 26.214819 98.550255 27.189999 98.620003 C 27.884056 98.597786 28.572344 98.752655 29.189999 99.070000 L 29.190001 100.239998 C 28.890463 100.117241 28.578705 100.026733 28.260000 99.970001 C 27.964136 99.906425 27.662603 99.872917 27.360001 99.870003 C 26.796343 99.817390 26.242887 100.045502 25.880001 100.480003 C 25.521845 101.082382 25.361008 101.781677 25.420002 102.480003 L 25.420000 102.690002 C 25.360868 103.385834 25.514296 104.083229 25.860001 104.690002 C 26.233082 105.105995 26.784990 105.314827 27.340000 105.250000 Z" fill="#232F3E"/><path d=" M 33.250000 106.250000 C 32.929741 106.365929 32.590443 106.420219 32.250000 106.410004 C 31.856989 106.444092 31.468004 106.309586 31.180000 106.040001 C 30.916512 105.729019 30.787054 105.326263 30.820000 104.919998 L 30.820000 98.209999 L 32.500000 98.209999 L 32.500000 104.750000 C 32.489197 104.888161 32.516888 105.026619 32.580002 105.150002 C 32.659672 105.241310 32.779938 105.286407 32.900002 105.270004 C 33.016491 105.279053 33.133511 105.279053 33.250000 105.270004 Z" fill="#232F3E"/><path d=" M 37.160000 106.349998 L 37.020000 105.839996 C 36.866901 106.044678 36.663723 106.206528 36.430000 106.309998 C 36.186253 106.426201 35.920021 106.487640 35.650002 106.489998 C 35.207802 106.513382 34.776081 106.350128 34.460003 106.040001 C 33.849270 105.292549 33.892178 104.206917 34.560001 103.510002 C 34.953609 103.156158 35.471428 102.972763 36.000000 103.000000 C 36.314030 103.006668 36.626179 103.050301 36.930000 103.129997 L 36.930000 102.620003 C 36.957573 102.349762 36.901737 102.077560 36.770000 101.840004 C 36.605476 101.687714 36.382755 101.614693 36.160000 101.640007 C 35.555546 101.665237 34.958565 101.783279 34.389999 101.990005 L 34.389999 100.989998 C 34.676563 100.830444 34.987354 100.718964 35.309998 100.659996 C 35.688015 100.579483 36.073502 100.539253 36.459999 100.539993 C 37.013081 100.492607 37.563515 100.657028 38.000000 100.999992 C 38.344772 101.376846 38.515324 101.881233 38.470001 102.389992 L 38.470001 106.330002 Z M 36.160000 105.430000 C 36.458344 105.418404 36.740971 105.293190 36.950001 105.080002 L 36.950001 104.000000 C 36.747475 103.948616 36.538887 103.925064 36.330002 103.930000 C 36.129070 103.911972 35.930714 103.985435 35.790001 104.129997 C 35.650948 104.293694 35.582603 104.505920 35.600002 104.719994 C 35.589714 104.905304 35.642593 105.088631 35.750004 105.239990 C 35.841198 105.357796 35.981041 105.427719 36.130005 105.429993 Z" fill="#232F3E"/><path d=" M 43.480000 106.089996 C 43.282566 106.211563 43.066277 106.299431 42.840000 106.349998 C 42.574291 106.410645 42.302540 106.440842 42.029999 106.439995 C 41.337280 106.490982 40.659344 106.222023 40.189999 105.709991 C 39.728714 105.088364 39.505230 104.322128 39.559998 103.549988 C 39.509220 102.771988 39.747849 102.002678 40.229996 101.389984 C 40.706398 100.867004 41.393826 100.587616 42.099995 100.629982 C 42.570232 100.627724 43.033825 100.741043 43.449993 100.959984 L 43.450001 101.959999 C 43.129513 101.841644 42.791565 101.777435 42.450001 101.769997 C 42.088848 101.733589 41.734180 101.884514 41.510002 102.169998 C 41.296387 102.564804 41.199284 103.012161 41.230003 103.459999 L 41.230000 103.620003 C 41.193050 104.065079 41.290596 104.511002 41.509998 104.900002 C 41.718990 105.182068 42.060585 105.333885 42.410000 105.300003 C 42.782543 105.291672 43.151028 105.220680 43.500000 105.090004 Z" fill="#232F3E"/><path d=" M 45.389999 99.809998 C 45.134537 99.824768 44.882355 99.746628 44.680000 99.589996 C 44.503273 99.438095 44.407192 99.212677 44.420002 98.979996 C 44.405621 98.747040 44.501987 98.520950 44.680000 98.369995 C 45.100441 98.064751 45.669559 98.064751 46.090000 98.369995 C 46.268017 98.520950 46.364384 98.747040 46.349998 98.979996 C 46.362808 99.212677 46.266727 99.438095 46.090000 99.589996 C 45.892971 99.749374 45.642780 99.828011 45.389999 99.809998 Z M 44.560001 106.349998 L 44.560001 100.720001 L 46.209999 100.720001 L 46.209999 106.349998 Z" fill="#232F3E"/><path d=" M 48.889999 103.919998 C 48.869251 104.324760 48.997299 104.723129 49.250000 105.040001 C 49.544472 105.288261 49.926643 105.407242 50.310001 105.370003 C 50.539204 105.363998 50.767132 105.333832 50.990002 105.280006 C 51.261253 105.228806 51.528576 105.158638 51.790001 105.070007 L 51.790001 106.070000 C 51.530979 106.215523 51.250999 106.320099 50.959999 106.379997 C 50.631474 106.451813 50.296276 106.488686 49.959999 106.489998 C 48.240002 106.489998 47.380001 105.489998 47.380001 103.540001 C 47.326962 102.755630 47.549820 101.977402 48.010002 101.340004 C 48.468693 100.815964 49.145027 100.535088 49.840004 100.580002 C 51.200001 100.580002 51.840000 101.339996 51.840000 102.870003 C 51.839127 103.206871 51.798855 103.542488 51.720001 103.870003 Z M 49.799999 101.599998 C 49.220001 101.599998 48.919998 102.059998 48.889999 102.970001 L 50.500000 102.970001 L 50.500000 102.720001 C 50.520443 102.423340 50.461781 102.126572 50.330002 101.860001 C 50.212513 101.684830 50.010445 101.585701 49.800003 101.599998 Z" fill="#232F3E"/><path d=" M 53.000000 106.349998 L 53.000000 100.720001 L 54.349998 100.720001 L 54.529999 101.449997 C 54.730946 101.209991 54.975178 101.009857 55.250000 100.860001 C 55.478909 100.731735 55.737633 100.666191 56.000000 100.669998 C 56.129810 100.660080 56.260189 100.660080 56.389999 100.669998 L 56.389999 102.000000 C 56.176884 101.986336 55.963116 101.986336 55.750000 102.000000 C 55.368164 102.000481 54.991642 102.089478 54.650002 102.260002 L 54.650002 106.370003 Z" fill="#232F3E"/></g><g id="ICONS_-_EDIT"><path d=" M 38.580002 64.500000 C 31.790001 64.500000 21.000000 63.000000 20.900000 58.869999 L 16.080000 23.000000 C 15.975066 22.447716 16.337715 21.914934 16.889999 21.809999 C 17.442284 21.705065 17.975065 22.067715 18.080000 22.619999 C 18.620001 24.700001 26.700001 27.620001 38.619999 27.620001 C 50.540001 27.620001 58.619999 24.719999 59.150002 22.620001 C 59.254936 22.067717 59.787716 21.705067 60.340000 21.810001 C 60.892284 21.914936 61.254932 22.447716 61.150002 23.000002 L 58.250000 44.580002 L 56.250000 44.320000 L 58.680000 25.799999 C 54.680000 28.280001 46.250000 29.600000 38.580002 29.600000 C 30.910000 29.600000 22.520000 28.280001 18.469999 25.799999 L 22.889999 58.660000 C 22.894957 58.703190 22.894957 58.746807 22.889999 58.790001 C 22.889999 60.060001 29.000000 62.500000 38.570000 62.500000 C 40.793308 62.500523 43.014423 62.360241 45.220001 62.080002 L 45.480000 64.080002 C 43.191105 64.364784 40.886539 64.505058 38.579998 64.500000 Z" fill="#FFFFFF"/><path d=" M 38.570000 29.600000 C 28.500000 29.600000 17.200001 27.330000 16.100000 23.129999 C 16.095211 23.086798 16.095211 23.043200 16.100000 23.000000 L 16.000000 22.559999 C 15.995042 22.516808 15.995042 22.473190 16.000000 22.430000 C 16.000000 17.760000 27.889999 14.500000 38.560001 14.500000 C 49.230000 14.500000 61.130001 17.760000 61.130001 22.430000 C 61.134960 22.473192 61.134960 22.516809 61.130001 22.559999 L 61.080002 23.000000 L 61.080002 23.129999 C 60.000000 27.330000 48.650002 29.600000 38.570000 29.600000 Z M 18.049999 22.670000 C 18.709999 24.750000 26.750000 27.600000 38.570000 27.600000 C 50.389999 27.600000 58.439999 24.750000 59.099998 22.670000 L 59.099998 22.379999 C 58.959999 20.280001 50.520000 16.500000 38.529999 16.500000 C 26.540001 16.500000 18.150000 20.280001 18.000000 22.379999 Z" fill="#FFFFFF"/><path d=" M 61.279999 44.450001 C 59.873295 44.387970 58.481087 44.139122 57.139999 43.709999 C 51.290001 42.080002 42.689999 38.110001 39.270000 36.470001 L 40.130001 34.669998 C 42.759998 35.919998 51.820000 40.150002 57.680000 41.790001 C 60.790001 42.660000 61.740002 42.459999 61.970001 42.360001 C 61.860001 42.090000 61.250000 41.110001 57.680000 39.150002 L 57.529999 39.060001 L 58.529999 37.320000 L 58.660000 37.389999 C 62.090000 39.279999 63.720001 40.720001 63.980000 42.060001 C 64.086365 42.618362 63.935795 43.194946 63.570000 43.630001 C 62.973923 44.241787 62.128933 44.544361 61.279999 44.450001 Z" fill="#FFFFFF"/><path d=" M 38.580002 37.279999 C 37.337360 37.279888 36.330090 36.272438 36.330200 35.029800 C 36.330311 33.787159 37.337761 32.779888 38.580399 32.779999 C 39.811260 32.780109 40.813587 33.769245 40.829998 35.000000 C 40.846565 36.242531 39.852730 37.263233 38.610199 37.279800 C 38.600132 37.279934 38.590065 37.280003 38.579998 37.279999 Z M 38.580002 34.779999 C 38.441929 34.779999 38.330002 34.891926 38.330002 35.029999 C 38.330002 35.299999 38.830002 35.299999 38.830002 35.029999 C 38.830002 34.891926 38.718075 34.779999 38.580002 34.779999 Z" fill="#FFFFFF"/><rect x="47.900000" y="54.500000" width="6.110000" height="2.000000" fill="#FFFFFF"/><path d=" M 45.880001 58.930000 L 44.490002 57.500000 L 46.490002 55.500000 L 44.490002 53.500000 L 45.900002 52.090000 L 48.650002 54.840000 C 48.837189 55.028721 48.941540 55.284199 48.940002 55.549999 C 48.938892 55.817245 48.830856 56.072929 48.640003 56.259998 Z" fill="#FFFFFF"/><rect x="49.430000" y="57.140000" width="6.110000" height="2.000000" fill="#FFFFFF" transform="matrix(0.500907,-0.865501,0.865501,0.500907,-24.130000,74.450000)"/><path d=" M 51.000000 64.750000 L 50.279999 62.000000 L 47.500000 62.740002 L 47.000000 60.820000 L 50.750000 59.820000 C 51.283203 59.676079 51.832119 59.991657 51.976040 60.524860 C 51.977398 60.529896 51.978718 60.534943 51.980000 60.540001 L 52.980000 64.260002 Z" fill="#FFFFFF"/><rect x="54.540000" y="55.090000" width="2.000000" height="6.110000" fill="#FFFFFF" transform="matrix(0.866374,-0.499395,0.499395,0.866374,-21.620000,35.510000)"/><path d=" M 57.000000 64.760002 L 55.060001 64.239998 L 56.060001 60.490002 C 56.126556 60.228367 56.296066 60.004753 56.530003 59.870003 C 56.764126 59.737686 57.041676 59.705246 57.300003 59.780003 L 60.990002 60.779999 L 60.450001 62.709999 L 57.779999 62.000000 Z" fill="#FFFFFF"/><rect x="54.010000" y="54.500000" width="6.100000" height="2.000000" fill="#FFFFFF"/><path d=" M 62.130001 58.919998 L 59.380001 56.169998 C 59.189144 55.982925 59.081112 55.727245 59.080002 55.459999 C 59.089054 55.192471 59.199944 54.938499 59.390003 54.750000 L 62.139999 52.070000 L 63.529999 53.500000 L 61.529999 55.500000 L 63.529999 57.500000 Z" fill="#FFFFFF"/><rect x="52.480000" y="51.860000" width="6.110000" height="2.000000" fill="#FFFFFF" transform="matrix(0.499244,-0.866461,0.866461,0.499244,-17.990000,74.590000)"/><path d=" M 57.000000 51.220001 C 56.820518 51.219948 56.644356 51.171589 56.490002 51.080002 C 56.261978 50.945564 56.096558 50.726204 56.030003 50.470001 L 55.080002 46.750000 L 57.020000 46.250000 L 57.720001 48.990002 L 60.490002 48.250000 L 61.000000 50.180000 L 57.250000 51.180000 Z" fill="#FFFFFF"/><rect x="51.480000" y="49.800000" width="2.000000" height="6.110000" fill="#FFFFFF" transform="matrix(0.865589,-0.500756,0.500756,0.865589,-19.410000,33.380000)"/><path d=" M 50.939999 51.259998 C 50.850258 51.269669 50.759739 51.269669 50.669998 51.259998 L 46.970001 50.259998 L 47.520000 48.330002 L 50.240002 49.099998 L 51.000000 46.240002 L 52.930000 46.759998 L 51.930000 50.509998 C 51.861046 50.767918 51.691814 50.987556 51.459999 51.119999 C 51.302727 51.213337 51.122871 51.261761 50.939999 51.259998 Z" fill="#FFFFFF"/></g></svg>