<svg version="1.1" width="80.000000" height="100.000000" viewBox="0.000000 0.000000 80.000000 100.000000" xmlns="http://www.w3.org/2000/svg" xmlns:xlink="http://www.w3.org/1999/xlink" overflow="hidden"><g id="CARDS"><rect x="1.000000" y="1.000000" width="78.000000" height="78.000000" fill="#232F3E"/><path d=" M 0.000000 0.000000 L 0.000000 80.000000 L 0.000000 80.000000 L 0.000000 100.000000 L 80.000000 100.000000 L 80.000000 80.000000 L 80.000000 80.000000 L 80.000000 0.000000 Z M 1.000000 1.000000 L 79.000000 1.000000 L 79.000000 79.000000 L 1.000000 79.000000 Z" fill="#FFFFFF"/></g><g id="TEXT_-_EDIT"><path d=" M 18.219999 92.349998 L 17.790001 90.529999 L 15.790000 90.529999 L 15.370000 92.349998 L 13.600000 92.349998 L 15.910000 84.720001 L 17.780001 84.720001 L 20.080000 92.349998 Z M 16.000000 89.430000 L 17.500000 89.430000 L 16.740000 86.269997 Z" fill="#232F3E"/><path d=" M 26.940001 92.349998 L 26.940001 88.639999 C 26.947857 88.418289 26.899708 88.198181 26.800001 88.000000 C 26.695143 87.846481 26.515057 87.762184 26.330002 87.779999 C 26.047712 87.792061 25.774277 87.882050 25.540001 88.040001 C 25.544918 88.079849 25.544918 88.120155 25.540001 88.160004 L 25.540001 92.400002 L 23.900000 92.400002 L 23.900000 88.639999 C 23.916664 88.401566 23.868275 88.163086 23.760000 87.949997 C 23.658390 87.798111 23.482016 87.713760 23.300001 87.729996 C 23.017992 87.743576 22.744955 87.833435 22.510000 87.989998 L 22.510000 92.349998 L 20.860001 92.349998 L 20.860001 86.720001 L 22.209999 86.720001 L 22.340000 87.230003 C 22.866558 86.840569 23.495989 86.614525 24.150000 86.580002 C 24.650238 86.544861 25.124317 86.807365 25.359999 87.250000 C 25.890989 86.851845 26.527449 86.618820 27.189999 86.580002 C 27.569105 86.564880 27.935385 86.718712 28.189999 87.000000 C 28.453983 87.349983 28.585108 87.782341 28.559999 88.220001 L 28.559999 92.349998 Z" fill="#232F3E"/><path d=" M 32.889999 92.349998 L 32.740002 91.839996 C 32.586903 92.044678 32.383724 92.206528 32.150002 92.309998 C 31.906254 92.426201 31.640022 92.487640 31.370001 92.489998 C 30.924751 92.502617 30.495340 92.324303 30.190001 92.000000 C 29.883970 91.669823 29.725168 91.229507 29.750000 90.779999 C 29.726858 90.286880 29.920483 89.808296 30.280001 89.470001 C 30.683865 89.137909 31.197989 88.970108 31.720001 89.000000 C 32.034031 89.006668 32.346180 89.050301 32.650002 89.129997 L 32.650002 88.620003 C 32.675198 88.348686 32.615814 88.076225 32.480003 87.840004 C 32.315479 87.687714 32.092758 87.614693 31.870003 87.640007 C 31.265022 87.668449 30.668028 87.789871 30.100002 88.000008 L 30.100000 87.000000 C 30.382645 86.853973 30.686268 86.752762 31.000000 86.699997 C 31.381403 86.619514 31.770199 86.579300 32.160000 86.579994 C 32.700550 86.533653 33.238953 86.690544 33.669998 87.019997 C 34.019230 87.394203 34.190472 87.900635 34.139999 88.409996 L 34.139999 92.349998 Z M 31.889999 91.430000 C 32.190933 91.416977 32.476192 91.292175 32.689999 91.080002 L 32.689999 90.000000 C 32.484058 89.948677 32.272179 89.925140 32.059998 89.930000 C 31.859451 89.914780 31.662247 89.987816 31.519997 90.129997 C 31.388235 90.297188 31.324001 90.507729 31.339996 90.719994 C 31.329706 90.905304 31.382589 91.088631 31.489996 91.239990 C 31.574923 91.354698 31.707373 91.424606 31.849997 91.429993 Z" fill="#232F3E"/><path d=" M 35.150002 92.349998 L 35.150002 91.279999 L 37.650002 87.879997 L 35.250000 87.879997 L 35.250000 86.720001 L 39.380001 86.720001 L 39.380001 87.790001 L 36.889999 91.190002 L 39.430000 91.190002 L 39.430000 92.349998 Z" fill="#232F3E"/><path d=" M 42.669998 92.489998 C 41.970711 92.530975 41.291676 92.246811 40.829998 91.720001 C 39.950844 90.395988 39.950844 88.674019 40.829998 87.349998 C 41.828823 86.333794 43.462330 86.319710 44.478535 87.318535 C 44.489113 87.328934 44.499603 87.339424 44.509998 87.349998 C 45.376015 88.677948 45.376015 90.392044 44.509998 91.720001 C 44.046535 92.244324 43.368767 92.527962 42.669998 92.489998 Z M 42.669998 91.339996 C 42.954491 91.352325 43.213886 91.178047 43.309998 90.909996 C 43.576794 90.016144 43.576794 89.063843 43.309998 88.169998 C 43.217369 87.897995 42.957134 87.719078 42.669998 87.729996 C 42.381107 87.721107 42.119080 87.898483 42.019997 88.169998 C 41.764862 89.065514 41.764862 90.014481 42.019997 90.909996 C 42.122437 91.177567 42.383678 91.350380 42.669998 91.339996 Z" fill="#232F3E"/><path d=" M 49.430000 92.349998 L 49.430000 88.650002 C 49.449314 88.407036 49.397175 88.163719 49.279999 87.950005 C 49.168671 87.793205 48.981148 87.709015 48.789997 87.730003 C 48.507317 87.748032 48.234581 87.841240 47.999996 88.000000 L 48.000000 92.360001 L 46.320000 92.360001 L 46.320000 86.720001 L 47.669998 86.720001 L 47.799999 87.230003 C 48.335239 86.835541 48.975750 86.609268 49.639999 86.580002 C 50.041653 86.552147 50.434540 86.706367 50.709999 87.000000 C 50.975578 87.349174 51.106884 87.782127 51.079998 88.220001 L 51.080002 92.349998 Z" fill="#232F3E"/><path d=" M 56.450001 89.000000 C 55.954529 88.765594 55.517330 88.424026 55.170002 88.000000 C 54.911236 87.643089 54.777645 87.210678 54.790001 86.769997 C 54.778893 86.354126 54.897739 85.945145 55.130001 85.599998 C 55.355701 85.259720 55.675289 84.992241 56.049999 84.830002 C 56.471420 84.642693 56.928925 84.550507 57.389999 84.560005 C 58.039680 84.562897 58.682240 84.695488 59.279999 84.950005 L 59.279999 86.120003 C 58.728252 85.917831 58.147392 85.806381 57.559998 85.790001 C 57.275242 85.776161 56.993923 85.857040 56.759998 86.020004 C 56.569695 86.176292 56.465622 86.414169 56.480000 86.660004 C 56.472313 86.862022 56.536041 87.060295 56.660000 87.220001 C 56.865856 87.426086 57.110588 87.589241 57.380001 87.700005 L 58.000000 88.000000 C 58.357838 88.164238 58.693771 88.372520 59.000000 88.620003 C 59.235287 88.800804 59.421043 89.038162 59.540001 89.310005 C 59.667580 89.599503 59.729069 89.913780 59.720001 90.230003 C 59.761604 90.869904 59.493847 91.490952 59.000000 91.900002 C 58.423340 92.327324 57.716984 92.542763 57.000000 92.510002 C 56.616867 92.509674 56.234806 92.469460 55.860001 92.389999 C 55.514221 92.327065 55.178078 92.219498 54.860001 92.070000 L 54.860001 90.919998 C 55.187496 91.025146 55.521549 91.108665 55.860001 91.169998 C 56.189121 91.238113 56.523945 91.274940 56.860001 91.279999 C 57.173580 91.302475 57.485077 91.213982 57.740002 91.029999 C 57.946396 90.853905 58.057594 90.590736 58.040001 90.320000 C 58.046089 90.107033 57.971024 89.899704 57.830002 89.739998 C 57.622326 89.543411 57.382092 89.384384 57.120003 89.269997 Z" fill="#232F3E"/><path d=" M 62.560001 92.489998 C 61.946087 92.484459 61.339989 92.351662 60.780003 92.099998 L 60.779999 91.000000 C 61.055828 91.107002 61.340160 91.190628 61.629997 91.250000 C 61.885582 91.311638 62.147133 91.345169 62.409996 91.349998 C 63.021461 91.443413 63.592880 91.023453 63.686298 90.411995 C 63.702084 90.308678 63.703327 90.203659 63.689999 90.099998 C 63.689999 89.379997 63.240002 89.019997 62.340000 89.019997 C 62.121632 89.023117 61.904026 89.046547 61.689999 89.089996 L 61.689999 88.099998 L 63.430000 85.940002 L 60.860001 85.940002 L 60.860001 84.720001 L 65.000000 84.720001 L 65.000000 85.839996 L 63.310001 87.930000 C 63.857204 87.959404 64.373970 88.191055 64.760002 88.580002 C 65.127060 88.960686 65.328407 89.471245 65.320000 90.000000 C 65.350525 90.678848 65.075317 91.335670 64.570000 91.790001 C 64.011429 92.267036 63.294060 92.516869 62.560001 92.489998 Z" fill="#232F3E"/></g><g id="ICONS_-_EDIT"><path d=" M 39.570000 65.000000 C 32.779999 65.000000 22.000000 63.470001 21.910000 59.369999 L 17.080000 23.510000 C 16.972305 22.957716 17.332716 22.422695 17.885000 22.315001 C 18.437284 22.207306 18.972305 22.567717 19.080000 23.120001 C 19.620001 25.200001 27.700001 28.120001 39.610001 28.120001 C 51.520000 28.120001 59.610001 25.219999 60.160000 23.120001 C 60.267696 22.567717 60.802715 22.207306 61.355000 22.315001 C 61.907284 22.422695 62.267696 22.957716 62.160000 23.510000 L 57.250000 59.369999 C 57.250000 60.750000 55.959999 61.930000 53.540001 62.889999 C 52.459877 63.305820 51.350101 63.640091 50.220001 63.889999 C 46.721748 64.651299 43.150059 65.023560 39.570000 65.000000 Z M 19.469999 26.299999 L 23.900000 59.160000 L 23.900000 59.290001 C 23.900000 60.560001 30.000000 63.000000 39.570000 63.000000 C 42.998486 63.019756 46.418839 62.664310 49.770000 61.939999 C 50.791832 61.713951 51.794785 61.409721 52.770000 61.029999 C 54.709999 60.259998 55.220001 59.560001 55.220001 59.290001 C 55.215042 59.246811 55.215042 59.203194 55.220001 59.160000 L 59.680000 26.299999 C 55.680000 28.790001 47.250000 30.100000 39.570000 30.100000 C 31.889999 30.100000 23.520000 28.790001 19.469999 26.299999 Z" fill="#FFFFFF"/><path d=" M 39.570000 30.100000 C 29.500000 30.100000 18.200001 27.830000 17.100000 23.629999 C 17.095211 23.586798 17.095211 23.543200 17.100000 23.500000 L 17.000000 23.059999 C 16.995043 23.016808 16.995043 22.973190 17.000000 22.930000 C 17.000000 18.260000 28.900000 15.000000 39.570000 15.000000 C 50.240002 15.000000 62.139999 18.260000 62.139999 22.930000 C 62.144958 22.973192 62.144958 23.016809 62.139999 23.059999 L 62.090000 23.500000 L 62.090000 23.629999 C 61.000000 27.830000 49.650002 30.100000 39.570000 30.100000 Z M 19.049999 23.170000 C 19.709999 25.250000 27.750000 28.100000 39.570000 28.100000 C 51.389999 28.100000 59.439999 25.250000 60.099998 23.170000 L 60.099998 22.879999 C 60.000000 20.780001 51.560001 17.000000 39.570000 17.000000 C 27.580000 17.000000 19.150000 20.780001 19.000000 22.879999 Z" fill="#FFFFFF"/><path d=" M 62.279999 45.000000 C 60.873295 44.937969 59.481087 44.689121 58.139999 44.259998 C 52.290001 42.630001 43.689999 38.660000 40.270000 37.020000 L 41.130001 35.220001 C 43.770000 36.470001 52.820000 40.700001 58.680000 42.340000 C 61.790001 43.209999 62.740002 43.009998 62.970001 42.910000 C 62.860001 42.639999 62.250000 41.660000 58.680000 39.700001 L 58.529999 39.610001 L 59.529999 37.869999 L 59.660000 37.939999 C 63.090000 39.830002 64.720001 41.270000 64.980003 42.610001 C 65.086372 43.168362 64.935799 43.744946 64.570000 44.180000 C 63.973923 44.791786 63.128933 45.094360 62.279999 45.000000 Z" fill="#FFFFFF"/><path d=" M 39.580002 37.779999 C 38.337360 37.779999 37.330002 36.772640 37.330002 35.529999 C 37.330002 34.287357 38.337360 33.279999 39.580002 33.279999 C 40.822643 33.279999 41.830002 34.287357 41.830002 35.529999 C 41.830002 36.772640 40.822643 37.779999 39.580002 37.779999 Z M 39.580002 35.279999 C 39.441929 35.279999 39.330002 35.391926 39.330002 35.529999 C 39.330002 35.799999 39.830002 35.799999 39.830002 35.529999 C 39.830002 35.391926 39.718075 35.279999 39.580002 35.279999 Z" fill="#FFFFFF"/></g></svg>