<svg version="1.1" viewBox="0.000000 0.000000 80.000000 115.000000" xmlns="http://www.w3.org/2000/svg" xmlns:xlink="http://www.w3.org/1999/xlink" id="Layer_1" overflow="hidden"><g id="CARDS"><rect x="1.000000" y="1.000000" width="78.000000" height="78.000000" fill="#232F3E"/><path d=" M 0.000000 0.000000 L 0.000000 80.000000 L 0.000000 80.000000 L 0.000000 115.000000 L 80.000000 115.000000 L 80.000000 80.000000 L 80.000000 80.000000 L 80.000000 0.000000 L 0.000000 0.000000 Z M 1.000000 1.000000 L 79.000000 1.000000 L 79.000000 79.000000 L 1.000000 79.000000 L 1.000000 1.000000 Z" fill="#FFFFFF"/></g><g id="TEXT_-_EDIT"><g><path d=" M 10.250000 92.349998 L 9.810000 90.540001 L 7.810000 90.540001 L 7.390000 92.349998 L 5.600000 92.349998 L 7.920000 84.730003 L 9.800000 84.730003 L 12.110000 92.349998 L 10.250000 92.349998 Z M 8.060000 89.440002 L 9.560000 89.440002 L 8.800000 86.279999 L 8.060000 89.440002 Z" fill="#232F3E"/></g><g><path d=" M 17.480000 92.349998 L 16.540001 86.730003 L 15.640000 92.349998 L 13.760000 92.349998 L 11.970000 84.730003 L 13.680000 84.730003 L 14.740000 90.790001 L 15.660000 85.040001 L 17.500000 85.040001 L 18.440001 90.690002 L 19.469999 84.730003 L 21.139999 84.730003 L 19.350000 92.349998 L 17.480000 92.349998 Z" fill="#232F3E"/><path d=" M 23.459999 88.949997 C 22.860001 88.660004 22.440001 88.339996 22.180000 88.000000 C 21.920000 87.660004 21.790001 87.250000 21.790001 86.769997 C 21.790001 86.320000 21.900000 85.930000 22.129999 85.599998 C 22.360001 85.269997 22.660000 85.010002 23.059999 84.830002 C 23.450001 84.650002 23.900000 84.559998 24.410000 84.559998 C 25.049999 84.559998 25.680000 84.690002 26.309999 84.959999 L 26.309999 86.129997 C 25.660000 85.910004 25.080000 85.800003 24.580000 85.800003 C 24.240000 85.800003 23.980000 85.879997 23.780001 86.029999 C 23.590000 86.180000 23.490000 86.400002 23.490000 86.669998 C 23.490000 86.900002 23.549999 87.089996 23.680000 87.230003 C 23.799999 87.379997 24.040001 87.540001 24.400000 87.709999 L 25.049999 88.029999 C 25.469999 88.239998 25.799999 88.440002 26.049999 88.650002 C 26.299999 88.860001 26.480000 89.089996 26.590000 89.339996 C 26.709999 89.589996 26.770000 89.900002 26.770000 90.260002 C 26.770000 90.959999 26.520000 91.510002 26.030001 91.919998 C 25.530001 92.330002 24.850000 92.529999 23.980000 92.529999 C 23.600000 92.529999 23.219999 92.489998 22.840000 92.410004 C 22.459999 92.330002 22.139999 92.220001 21.879999 92.089996 L 21.879999 90.930000 C 22.180000 91.029999 22.520000 91.120003 22.889999 91.190002 C 23.260000 91.260002 23.590000 91.290001 23.850000 91.290001 C 24.240000 91.290001 24.530001 91.209999 24.730000 91.040001 C 24.930000 90.879997 25.030001 90.639999 25.030001 90.330002 C 25.030001 90.099998 24.959999 89.910004 24.820000 89.750000 C 24.680000 89.589996 24.440001 89.430000 24.110001 89.269997 L 23.459999 88.949997 Z" fill="#232F3E"/><path d=" M 31.900000 88.949997 C 31.299999 88.660004 30.879999 88.339996 30.620001 88.000000 C 30.360001 87.660004 30.230000 87.250000 30.230000 86.769997 C 30.230000 86.320000 30.340000 85.930000 30.570000 85.599998 C 30.799999 85.269997 31.100000 85.010002 31.500000 84.830002 C 31.889999 84.650002 32.340000 84.559998 32.849998 84.559998 C 33.490002 84.559998 34.119999 84.690002 34.750000 84.959999 L 34.750000 86.129997 C 34.099998 85.910004 33.520000 85.800003 33.020000 85.800003 C 32.680000 85.800003 32.419998 85.879997 32.220001 86.029999 C 32.029999 86.180000 31.930000 86.400002 31.930000 86.669998 C 31.930000 86.900002 31.990000 87.089996 32.119999 87.230003 C 32.240002 87.379997 32.480000 87.540001 32.840000 87.709999 L 33.490002 88.029999 C 33.910000 88.239998 34.240002 88.440002 34.490002 88.650002 C 34.740002 88.860001 34.919998 89.089996 35.029999 89.339996 C 35.150002 89.589996 35.209999 89.900002 35.209999 90.260002 C 35.209999 90.959999 34.959999 91.510002 34.470001 91.919998 C 33.970001 92.330002 33.290001 92.529999 32.419998 92.529999 C 32.040001 92.529999 31.660000 92.489998 31.280001 92.410004 C 30.900000 92.330002 30.580000 92.220001 30.320000 92.089996 L 30.320000 90.930000 C 30.620001 91.029999 30.959999 91.120003 31.330000 91.190002 C 31.700001 91.260002 32.029999 91.290001 32.290001 91.290001 C 32.680000 91.290001 32.970001 91.209999 33.169998 91.040001 C 33.369999 90.879997 33.470001 90.639999 33.470001 90.330002 C 33.470001 90.099998 33.400002 89.910004 33.259998 89.750000 C 33.119999 89.589996 32.880001 89.430000 32.549999 89.269997 L 31.900000 88.949997 Z" fill="#232F3E"/><path d=" M 39.459999 92.349998 L 39.459999 88.650002 C 39.459999 88.330002 39.410000 88.089996 39.310001 87.949997 C 39.209999 87.809998 39.049999 87.730003 38.810001 87.730003 C 38.560001 87.730003 38.290001 87.820000 37.990002 87.989998 L 37.990002 92.349998 L 36.330002 92.349998 L 36.330002 86.730003 L 37.689999 86.730003 L 37.820000 87.239998 C 38.470001 86.809998 39.080002 86.589996 39.669998 86.589996 C 40.139999 86.589996 40.490002 86.730003 40.740002 87.010002 C 40.990002 87.290001 41.110001 87.699997 41.110001 88.230003 L 41.110001 92.349998 L 39.459999 92.349998 Z" fill="#232F3E"/><path d=" M 44.759998 92.489998 C 43.959999 92.489998 43.340000 92.230003 42.910000 91.720001 C 42.470001 91.209999 42.259998 90.480003 42.259998 89.540001 C 42.259998 88.589996 42.480000 87.860001 42.910000 87.349998 C 43.349998 86.839996 43.959999 86.580002 44.759998 86.580002 C 45.560001 86.580002 46.180000 86.839996 46.610001 87.349998 C 47.049999 87.860001 47.259998 88.589996 47.259998 89.540001 C 47.259998 90.480003 47.040001 91.209999 46.610001 91.720001 C 46.169998 92.239998 45.560001 92.489998 44.759998 92.489998 Z M 44.759998 91.349998 C 45.060001 91.349998 45.270000 91.209999 45.410000 90.910004 C 45.540001 90.620003 45.610001 90.160004 45.610001 89.540001 C 45.610001 88.919998 45.540001 88.459999 45.410000 88.160004 C 45.279999 87.870003 45.060001 87.720001 44.759998 87.720001 C 44.459999 87.720001 44.250000 87.870003 44.110001 88.160004 C 43.980000 88.449997 43.910000 88.910004 43.910000 89.540001 C 43.910000 90.169998 43.980000 90.620003 44.110001 90.910004 C 44.240002 91.209999 44.459999 91.349998 44.759998 91.349998 Z" fill="#232F3E"/><path d=" M 52.480000 92.349998 L 51.680000 88.320000 L 50.900002 92.349998 L 49.340000 92.349998 L 47.779999 86.730003 L 49.500000 86.730003 L 50.209999 90.769997 L 50.990002 86.730003 L 52.470001 86.730003 L 53.290001 90.949997 L 53.939999 86.730003 L 55.610001 86.730003 L 54.040001 92.349998 L 52.480000 92.349998 Z" fill="#232F3E"/><path d=" M 56.400002 92.349998 L 56.400002 84.209999 L 58.060001 84.209999 L 58.060001 87.110001 C 58.240002 86.940002 58.439999 86.809998 58.680000 86.720001 C 58.919998 86.629997 59.150002 86.580002 59.380001 86.580002 C 60.049999 86.580002 60.560001 86.820000 60.900002 87.309998 C 61.250000 87.790001 61.419998 88.510002 61.419998 89.470001 C 61.419998 90.419998 61.240002 91.150002 60.880001 91.669998 C 60.520000 92.190002 60.009998 92.449997 59.349998 92.449997 C 59.099998 92.449997 58.840000 92.400002 58.580002 92.279999 C 58.310001 92.169998 58.090000 92.019997 57.910000 91.839996 L 57.770000 92.349998 L 56.400002 92.349998 Z M 58.830002 87.709999 C 58.549999 87.709999 58.290001 87.790001 58.060001 87.949997 L 58.060001 91.059998 C 58.320000 91.239998 58.580002 91.320000 58.849998 91.320000 C 59.180000 91.320000 59.419998 91.180000 59.560001 90.900002 C 59.700001 90.620003 59.770000 90.160004 59.770000 89.519997 C 59.770000 88.849998 59.700001 88.379997 59.560001 88.110001 C 59.410000 87.849998 59.169998 87.709999 58.830002 87.709999 Z" fill="#232F3E"/><path d=" M 65.480003 92.349998 L 65.339996 91.839996 C 65.199997 92.029999 65.010002 92.190002 64.750000 92.309998 C 64.489998 92.430000 64.230003 92.489998 63.959999 92.489998 C 63.459999 92.489998 63.060001 92.339996 62.770000 92.040001 C 62.480000 91.739998 62.330002 91.330002 62.330002 90.809998 C 62.330002 90.260002 62.509998 89.820000 62.860001 89.510002 C 63.209999 89.199997 63.689999 89.029999 64.300003 89.029999 C 64.550003 89.029999 64.860001 89.070000 65.230003 89.160004 L 65.230003 88.650002 C 65.230003 88.269997 65.180000 88.010002 65.070000 87.870003 C 64.959999 87.730003 64.760002 87.669998 64.459999 87.669998 C 63.980000 87.669998 63.380001 87.790001 62.680000 88.019997 L 62.680000 87.019997 C 62.910000 86.879997 63.220001 86.769997 63.599998 86.690002 C 63.980000 86.610001 64.370003 86.570000 64.760002 86.570000 C 65.459999 86.570000 65.970001 86.709999 66.279999 87.000000 C 66.589996 87.290001 66.750000 87.750000 66.750000 88.389999 L 66.750000 92.330002 L 65.480003 92.330002 Z M 64.440002 91.440002 C 64.709999 91.440002 64.970001 91.320000 65.239998 91.089996 L 65.239998 90.010002 C 65.059998 89.959999 64.849998 89.930000 64.610001 89.930000 C 64.379997 89.930000 64.199997 90.000000 64.070000 90.129997 C 63.939999 90.260002 63.880001 90.459999 63.880001 90.720001 C 63.880001 90.940002 63.930000 91.110001 64.029999 91.239998 C 64.139999 91.370003 64.279999 91.440002 64.440002 91.440002 Z" fill="#232F3E"/><path d=" M 70.580002 92.250000 C 70.290001 92.360001 69.970001 92.419998 69.610001 92.419998 C 69.129997 92.419998 68.760002 92.300003 68.529999 92.050003 C 68.290001 91.800003 68.169998 91.430000 68.169998 90.919998 L 68.169998 84.209999 L 69.830002 84.209999 L 69.830002 90.750000 C 69.830002 90.940002 69.860001 91.080002 69.910004 91.150002 C 69.959999 91.230003 70.070000 91.269997 70.230003 91.269997 C 70.290001 91.269997 70.410004 91.260002 70.580002 91.239998 L 70.580002 92.250000 Z" fill="#232F3E"/><path d=" M 74.000000 92.250000 C 73.709999 92.360001 73.389999 92.419998 73.029999 92.419998 C 72.550003 92.419998 72.180000 92.300003 71.949997 92.050003 C 71.709999 91.800003 71.589996 91.430000 71.589996 90.919998 L 71.589996 84.209999 L 73.250000 84.209999 L 73.250000 90.750000 C 73.250000 90.940002 73.279999 91.080002 73.330002 91.150002 C 73.379997 91.230003 73.489998 91.269997 73.650002 91.269997 C 73.709999 91.269997 73.830002 91.260002 74.000000 91.239998 L 74.000000 92.250000 Z" fill="#232F3E"/></g><g><path d=" M 29.150000 106.349998 L 29.150000 98.730003 L 33.709999 98.730003 L 33.709999 99.910004 L 30.840000 99.910004 L 30.840000 101.860001 L 33.139999 101.860001 L 33.139999 103.040001 L 30.840000 103.040001 L 30.840000 105.190002 L 33.709999 105.190002 L 33.709999 106.370003 L 29.150000 106.370003 Z" fill="#232F3E"/></g><g><path d=" M 37.980000 106.349998 L 37.849998 105.870003 C 37.660000 106.050003 37.450001 106.199997 37.209999 106.300003 C 36.970001 106.400002 36.730000 106.449997 36.490002 106.449997 C 35.840000 106.449997 35.330002 106.199997 34.970001 105.690002 C 34.610001 105.180000 34.430000 104.480003 34.430000 103.570000 C 34.430000 102.629997 34.619999 101.900002 34.990002 101.379997 C 35.360001 100.849998 35.869999 100.589996 36.529999 100.589996 C 36.720001 100.589996 36.930000 100.629997 37.169998 100.720001 C 37.410000 100.809998 37.610001 100.919998 37.779999 101.050003 L 37.779999 98.209999 L 39.439999 98.209999 L 39.439999 106.349998 L 37.980000 106.349998 Z M 37.049999 105.330002 C 37.290001 105.330002 37.529999 105.260002 37.779999 105.110001 L 37.779999 101.959999 C 37.509998 101.790001 37.240002 101.709999 36.980000 101.709999 C 36.669998 101.709999 36.439999 101.860001 36.299999 102.139999 C 36.160000 102.430000 36.090000 102.889999 36.090000 103.529999 C 36.090000 104.150002 36.169998 104.610001 36.320000 104.889999 C 36.470001 105.180000 36.720001 105.330002 37.049999 105.330002 Z" fill="#232F3E"/><path d=" M 43.779999 105.709999 C 43.430000 106.059998 43.029999 106.239998 42.560001 106.239998 C 41.950001 106.239998 41.470001 105.989998 41.110001 105.500000 C 40.759998 105.010002 40.580002 104.330002 40.580002 103.470001 C 40.580002 102.570000 40.759998 101.860001 41.119999 101.349998 C 41.480000 100.839996 41.970001 100.589996 42.590000 100.589996 C 42.810001 100.589996 43.040001 100.650002 43.299999 100.760002 C 43.560001 100.870003 43.770000 101.019997 43.930000 101.209999 L 44.049999 100.739998 L 45.410000 100.739998 L 45.410000 105.970001 C 45.410000 107.830002 44.549999 108.760002 42.830002 108.760002 C 42.180000 108.760002 41.570000 108.610001 40.990002 108.320000 L 40.990002 107.279999 C 41.680000 107.510002 42.220001 107.629997 42.610001 107.629997 C 42.919998 107.629997 43.150002 107.589996 43.310001 107.500000 C 43.470001 107.410004 43.590000 107.269997 43.660000 107.050003 C 43.730000 106.830002 43.770000 106.519997 43.770000 106.099998 L 43.770000 105.709999 Z M 43.110001 105.120003 C 43.310001 105.120003 43.529999 105.050003 43.779999 104.900002 L 43.779999 101.970001 C 43.509998 101.790001 43.270000 101.709999 43.040001 101.709999 C 42.770000 101.709999 42.560001 101.849998 42.430000 102.120003 C 42.299999 102.389999 42.240002 102.830002 42.240002 103.419998 C 42.240002 103.989998 42.310001 104.419998 42.450001 104.699997 C 42.590000 104.980003 42.810001 105.120003 43.110001 105.120003 Z" fill="#232F3E"/><path d=" M 48.060001 103.919998 C 48.080002 104.449997 48.200001 104.820000 48.419998 105.040001 C 48.639999 105.260002 48.990002 105.370003 49.490002 105.370003 C 49.680000 105.370003 49.900002 105.339996 50.169998 105.290001 C 50.439999 105.230003 50.709999 105.160004 50.970001 105.080002 L 50.970001 106.080002 C 50.740002 106.209999 50.470001 106.320000 50.130001 106.389999 C 49.799999 106.459999 49.470001 106.500000 49.139999 106.500000 C 47.410000 106.500000 46.549999 105.519997 46.549999 103.550003 C 46.549999 102.589996 46.759998 101.860001 47.189999 101.349998 C 47.610001 100.839996 48.220001 100.589996 49.020000 100.589996 C 50.389999 100.589996 51.080002 101.349998 51.080002 102.879997 C 51.080002 103.260002 51.040001 103.610001 50.959999 103.919998 L 48.060001 103.919998 Z M 48.980000 101.610001 C 48.400002 101.610001 48.090000 102.070000 48.060001 102.970001 L 49.680000 102.970001 L 49.680000 102.720001 C 49.680000 102.320000 49.619999 102.040001 49.509998 101.870003 C 49.400002 101.699997 49.220001 101.610001 48.980000 101.610001 Z" fill="#232F3E"/></g></g><g id="ICONS_-_EDIT"><path d=" M 39.900002 54.400002 L 22.070000 54.400002 C 20.320000 54.389999 18.900000 52.970001 18.900000 51.220001 L 18.900000 26.580000 C 18.910000 24.830000 20.320000 23.410000 22.070000 23.400000 L 31.900000 23.400000 C 32.349998 23.379999 32.759998 23.650000 32.900002 24.080000 L 34.000000 27.400000 L 45.820000 27.400000 L 47.000000 24.080000 C 47.139999 23.680000 47.509998 23.400000 47.939999 23.400000 L 57.770000 23.400000 C 59.520000 23.410000 60.939999 24.830000 60.939999 26.580000 L 60.939999 42.400002 L 58.939999 42.400002 L 58.939999 26.580000 C 58.950001 25.930000 58.430000 25.410000 57.779999 25.400000 C 57.779999 25.400000 57.770000 25.400000 57.770000 25.400000 L 48.619999 25.400000 L 47.480000 28.730000 C 47.340000 29.129999 46.959999 29.400000 46.529999 29.400000 L 33.270000 29.400000 C 32.849998 29.400000 32.470001 29.129999 32.330002 28.730000 L 31.190001 25.400000 L 22.070000 25.400000 C 21.420000 25.410000 20.900000 25.930000 20.900000 26.580000 L 20.900000 51.220001 C 20.910000 51.869999 21.420000 52.389999 22.070000 52.400002 L 39.900002 52.400002 L 39.900002 54.400002 Z" fill="#FFFFFF"/><path d=" M 39.900002 58.400002 L 20.280001 58.400002 C 17.270000 58.349998 14.860000 55.869999 14.900000 52.860001 L 14.900000 24.940001 C 14.870000 21.930000 17.270000 19.450001 20.280001 19.400000 L 59.520000 19.400000 C 62.529999 19.450001 64.940002 21.930000 64.900002 24.940001 L 64.900002 45.400002 L 62.900002 45.400002 L 62.900002 24.940001 C 62.939999 23.030001 61.430000 21.440001 59.520000 21.400000 C 59.520000 21.400000 59.520000 21.400000 59.520000 21.400000 L 20.280001 21.400000 C 18.370001 21.450001 16.860001 23.030001 16.900000 24.940001 L 16.900000 52.860001 C 16.860001 54.770000 18.370001 56.360001 20.280001 56.400002 C 20.280001 56.400002 20.280001 56.400002 20.280001 56.400002 L 39.900002 56.400002 L 39.900002 58.400002 Z" fill="#FFFFFF"/><path d=" M 42.900002 47.400002 L 26.900000 47.400002 C 26.350000 47.400002 25.900000 46.950001 25.900000 46.400002 L 25.900000 33.400002 C 25.900000 32.849998 26.350000 32.400002 26.900000 32.400002 L 53.900002 32.400002 C 54.450001 32.400002 54.900002 32.849998 54.900002 33.400002 L 54.900002 41.400002 L 52.900002 41.400002 L 52.900002 34.400002 L 27.900000 34.400002 L 27.900000 45.400002 L 42.900002 45.400002 L 42.900002 47.400002 Z" fill="#FFFFFF"/><rect x="35.900000" y="23.400000" width="8.000000" height="2.000000" fill="#FFFFFF"/><path d=" M 53.730000 45.400002 L 54.349998 45.450001 L 54.980000 45.450001 L 55.599998 45.450001 L 56.480000 47.450001 C 57.299999 47.709999 58.080002 48.099998 58.790001 48.599998 L 61.000000 48.169998 L 61.410000 48.639999 L 61.820000 49.110001 L 62.230000 49.580002 L 61.400002 51.660000 C 61.799999 52.419998 62.080002 53.230000 62.220001 54.080002 L 64.150002 55.230000 L 64.150002 55.849998 L 64.150002 56.470001 L 64.150002 57.099998 L 61.910000 58.000000 C 61.660000 58.820000 61.270000 59.590000 60.779999 60.290001 L 61.330002 62.470001 L 60.860001 62.880001 L 60.389999 63.290001 L 59.919998 63.700001 L 57.830002 62.869999 C 57.070000 63.259998 56.259998 63.540001 55.419998 63.689999 L 54.270000 65.599998 L 53.650002 65.599998 L 53.029999 65.599998 L 52.400002 65.599998 L 51.520000 63.540001 C 50.700001 63.279999 49.919998 62.900002 49.220001 62.410000 L 47.049999 62.959999 L 46.639999 62.490002 L 46.230000 62.020000 L 45.820000 61.549999 L 46.650002 59.480000 C 46.240002 58.720001 45.959999 57.889999 45.810001 57.040001 L 43.900002 55.770000 L 43.950001 55.150002 L 43.950001 54.520000 L 43.950001 53.900002 L 45.950001 53.020000 C 46.200001 52.189999 46.590000 51.410000 47.090000 50.709999 L 46.549999 48.549999 L 47.020000 48.139999 L 47.490002 47.730000 L 47.959999 47.320000 L 50.020000 48.139999 C 50.790001 47.730000 51.610001 47.450001 52.470001 47.310001 L 53.610001 45.400002 M 53.610001 43.400002 C 52.900002 43.400002 52.250000 43.779999 51.889999 44.400002 L 51.200001 45.560001 C 50.779999 45.680000 50.369999 45.820000 49.959999 45.980000 L 48.700001 45.480000 C 48.459999 45.389999 48.209999 45.340000 47.959999 45.340000 C 47.480000 45.340000 47.009998 45.509998 46.639999 45.830002 L 46.169998 46.250000 L 45.700001 46.660000 L 45.230000 47.070000 C 44.660000 47.570000 44.419998 48.340000 44.610001 49.070000 L 44.939999 50.389999 C 44.720001 50.770000 44.529999 51.160000 44.360001 51.560001 L 43.119999 52.099998 C 42.470001 52.410000 42.049999 53.049999 42.000000 53.770000 L 42.000000 54.389999 L 42.000000 55.000000 L 42.000000 55.619999 C 41.959999 56.380001 42.340000 57.090000 43.000000 57.470001 L 44.169998 58.169998 C 44.279999 58.590000 44.419998 58.990002 44.590000 59.389999 L 44.000000 60.680000 C 43.720001 61.380001 43.860001 62.169998 44.349998 62.740002 L 44.770000 63.209999 L 45.180000 63.680000 L 45.590000 64.150002 C 45.970001 64.580002 46.520000 64.830002 47.090000 64.830002 C 47.259998 64.830002 47.419998 64.809998 47.580002 64.769997 L 48.919998 64.430000 C 49.270000 64.639999 49.630001 64.830002 50.000000 65.000000 L 50.540001 66.260002 C 50.840000 66.949997 51.500000 67.419998 52.250000 67.470001 L 52.869999 67.470001 L 53.500000 67.470001 L 54.119999 67.470001 L 54.250000 67.470001 C 54.959999 67.470001 55.610001 67.089996 55.970001 66.470001 L 56.680000 65.279999 C 57.090000 65.209999 57.490002 65.120003 57.889999 65.000000 L 59.180000 65.519997 C 59.419998 65.610001 59.669998 65.660004 59.919998 65.660004 C 60.400002 65.660004 60.869999 65.489998 61.240002 65.169998 L 61.709999 64.750000 L 62.180000 64.339996 L 62.650002 63.930000 C 63.220001 63.430000 63.459999 62.660000 63.270000 61.930000 L 62.930000 60.580002 C 63.139999 60.209999 63.330002 59.840000 63.490002 59.450001 L 64.760002 58.900002 C 65.449997 58.619999 65.930000 57.970001 66.000000 57.230000 L 66.000000 56.610001 L 66.000000 55.990002 L 66.000000 55.360001 C 66.040001 54.599998 65.660004 53.889999 65.000000 53.509998 L 63.820000 52.810001 C 63.709999 52.400002 63.570000 51.990002 63.410000 51.599998 L 64.000000 50.320000 C 64.279999 49.619999 64.139999 48.830002 63.650002 48.259998 L 63.230000 47.790001 L 62.820000 47.320000 L 62.410000 46.849998 C 62.029999 46.419998 61.480000 46.169998 60.910000 46.169998 C 60.740002 46.169998 60.580002 46.189999 60.419998 46.230000 L 59.090000 46.570000 C 58.740002 46.360001 58.369999 46.169998 58.000000 46.000000 L 57.450001 44.750000 C 57.160000 44.060001 56.500000 43.590000 55.750000 43.540001 L 55.130001 43.540001 L 54.509998 43.540001 L 53.880001 43.540001 L 53.610001 43.400002 Z" fill="#FFFFFF"/><path d=" M 54.000000 60.180000 C 51.419998 60.180000 49.320000 58.080002 49.320000 55.500000 C 49.320000 52.919998 51.419998 50.820000 54.000000 50.820000 C 56.580002 50.820000 58.680000 52.919998 58.680000 55.500000 C 58.669998 58.080002 56.580002 60.169998 54.000000 60.180000 Z M 54.000000 52.820000 C 52.520000 52.820000 51.320000 54.020000 51.320000 55.500000 C 51.320000 56.980000 52.520000 58.180000 54.000000 58.180000 C 55.480000 58.180000 56.680000 56.980000 56.680000 55.500000 C 56.680000 54.020000 55.480000 52.820000 54.000000 52.820000 L 54.000000 52.820000 Z" fill="#FFFFFF"/></g></svg>