<svg version="1.1" width="80.000000" height="115.000000" viewBox="0.000000 0.000000 80.000000 115.000000" xmlns="http://www.w3.org/2000/svg" xmlns:xlink="http://www.w3.org/1999/xlink" overflow="hidden"><g id="CARDS"><rect x="1.000000" y="1.000000" width="78.000000" height="78.000000" fill="#232F3E"/><path d=" M 0.000000 0.000000 L 0.000000 80.000000 L 0.000000 80.000000 L 0.000000 115.000000 L 80.000000 115.000000 L 80.000000 80.000000 L 80.000000 80.000000 L 80.000000 0.000000 Z M 1.000000 1.000000 L 79.000000 1.000000 L 79.000000 79.000000 L 1.000000 79.000000 Z" fill="#FFFFFF"/></g><g id="TEXT_-_EDIT"><path d=" M 14.080000 92.349998 L 13.650000 90.529999 L 11.650000 90.529999 L 11.230000 92.349998 L 9.450000 92.349998 L 11.770000 84.720001 L 13.630000 84.720001 L 15.940000 92.349998 Z M 11.900000 89.430000 L 13.390000 89.430000 L 12.630000 86.269997 Z" fill="#232F3E"/><path d=" M 21.280001 92.349998 L 20.340000 86.720001 L 19.450001 92.349998 L 17.590000 92.349998 L 15.800000 84.720001 L 17.500000 84.720001 L 18.559999 90.779999 L 19.480000 85.000000 L 21.309999 85.000000 L 22.250000 90.650002 L 23.250000 84.650002 L 24.920000 84.650002 L 23.129999 92.279999 Z" fill="#232F3E"/><path d=" M 27.240000 89.000000 C 26.757177 88.763443 26.333473 88.421745 26.000000 88.000000 C 25.737677 87.644348 25.600536 87.211830 25.610001 86.769997 C 25.603392 86.354721 25.721857 85.947060 25.950001 85.599998 C 26.178213 85.261978 26.497066 84.995110 26.870001 84.830002 C 27.294985 84.642815 27.755713 84.550667 28.220001 84.560005 C 28.869570 84.563965 29.511925 84.696510 30.110001 84.950005 L 30.110001 86.120003 C 29.554804 85.917786 28.970650 85.806358 28.380001 85.790001 C 28.098349 85.776108 27.820177 85.857094 27.590000 86.020004 C 27.397280 86.175255 27.289665 86.412743 27.299999 86.660004 C 27.290495 86.863945 27.358355 87.063950 27.490000 87.220001 C 27.691879 87.426239 27.933388 87.589516 28.199999 87.700005 L 28.850000 88.019997 C 29.206051 88.187546 29.541599 88.395592 29.850000 88.639999 C 30.078787 88.827263 30.263212 89.062912 30.390001 89.330002 C 30.514149 89.620277 30.572216 89.934525 30.560001 90.250000 C 30.590263 90.886475 30.315428 91.499283 29.820002 91.900002 C 29.244478 92.329575 28.537298 92.545265 27.820002 92.510002 C 27.440174 92.509636 27.061434 92.469414 26.690002 92.389999 C 26.360472 92.326210 26.040966 92.218590 25.740002 92.070000 L 25.740000 90.919998 C 26.067017 91.026825 26.401186 91.110367 26.740000 91.169998 C 27.069298 91.236969 27.404016 91.273788 27.740000 91.279999 C 28.016415 91.268616 28.282267 91.170670 28.500000 91.000000 C 28.706396 90.823906 28.817593 90.560738 28.799999 90.290001 C 28.806087 90.077034 28.731022 89.869705 28.590000 89.709999 C 28.386230 89.513252 28.149240 89.354134 27.889999 89.239998 Z" fill="#232F3E"/><path d=" M 35.630001 89.000000 C 35.135403 88.768761 34.700802 88.426559 34.360001 88.000000 C 34.108330 87.640587 33.981831 87.208389 34.000000 86.769997 C 33.988892 86.354126 34.107738 85.945145 34.340000 85.599998 C 34.565701 85.259720 34.885288 84.992241 35.259998 84.830002 C 35.681812 84.643929 36.139042 84.551804 36.599998 84.560005 C 37.249763 84.562088 37.892483 84.694710 38.489998 84.950005 L 38.490002 86.120003 C 37.938255 85.917831 37.357395 85.806381 36.770000 85.790001 C 36.497204 85.773232 36.226509 85.847054 36.000000 86.000000 C 35.803200 86.152054 35.694576 86.391777 35.709999 86.639999 C 35.702312 86.842018 35.766041 87.040291 35.889999 87.199997 C 36.097771 87.403732 36.342022 87.566566 36.610001 87.680000 L 37.259998 88.000000 C 37.616051 88.167549 37.951599 88.375595 38.259998 88.620003 C 38.488785 88.807266 38.673210 89.042915 38.799999 89.310005 C 38.919373 89.601707 38.977249 89.914909 38.969997 90.230003 C 39.000259 90.866478 38.725426 91.479286 38.229996 91.880005 C 37.654472 92.309578 36.947292 92.525269 36.229996 92.490005 C 35.817513 92.504227 35.404766 92.470673 34.999996 92.390007 C 34.670467 92.326218 34.350960 92.218597 34.049995 92.070007 L 34.049999 90.919998 C 34.377018 91.026825 34.711185 91.110367 35.049999 91.169998 C 35.379120 91.238113 35.713943 91.274940 36.049999 91.279999 C 36.357048 91.286835 36.657127 91.187981 36.899998 91.000000 C 37.106392 90.823906 37.217590 90.560738 37.199997 90.290001 C 37.206085 90.077034 37.131020 89.869705 36.989998 89.709999 C 36.782322 89.513412 36.542088 89.354385 36.279999 89.239998 Z" fill="#232F3E"/><path d=" M 43.090000 92.199997 C 42.696690 92.347153 42.279934 92.421692 41.860001 92.419998 C 41.062199 92.570419 40.293510 92.045616 40.143085 91.247818 C 40.110218 91.073509 40.109173 90.894684 40.139999 90.720001 L 40.139999 87.820000 L 39.400002 87.820000 L 39.400002 86.900002 L 40.189999 86.750000 L 40.430000 85.209999 L 41.790001 85.209999 L 41.790001 86.720001 L 43.070000 86.720001 L 43.070000 87.820000 L 41.790001 87.820000 L 41.790001 90.589996 C 41.774326 90.774376 41.823872 90.958412 41.930000 91.109993 C 42.077175 91.233894 42.268852 91.291756 42.459999 91.269997 C 42.672318 91.266800 42.883621 91.239967 43.090000 91.189995 Z" fill="#232F3E"/><path d=" M 46.200001 92.489998 C 45.500713 92.530975 44.821678 92.246811 44.360001 91.720001 C 43.480846 90.395988 43.480846 88.674019 44.360001 87.349998 C 45.358826 86.333794 46.992332 86.319710 48.008537 87.318535 C 48.019115 87.328934 48.029606 87.339424 48.040001 87.349998 C 48.906017 88.677948 48.906017 90.392044 48.040001 91.720001 C 47.576538 92.244324 46.898769 92.527962 46.200001 92.489998 Z M 46.200001 91.339996 C 46.484493 91.352325 46.743889 91.178047 46.840000 90.909996 C 47.106796 90.016144 47.106796 89.063843 46.840000 88.169998 C 46.747372 87.897995 46.487137 87.719078 46.200001 87.729996 C 45.911110 87.721107 45.649082 87.898483 45.549999 88.169998 C 45.294865 89.065514 45.294865 90.014481 45.549999 90.909996 C 45.652439 91.177567 45.913681 91.350380 46.200001 91.339996 Z" fill="#232F3E"/><path d=" M 49.849998 92.349998 L 49.849998 86.720001 L 51.200001 86.720001 L 51.380001 87.449997 C 51.580948 87.209991 51.825180 87.009857 52.100002 86.860001 C 52.328911 86.731735 52.587635 86.666191 52.850002 86.669998 C 52.976460 86.659698 53.103546 86.659698 53.230003 86.669998 L 53.230000 88.000000 C 53.020237 87.985909 52.809765 87.985909 52.599998 88.000000 C 52.218163 88.000481 51.841640 88.089478 51.500000 88.260002 L 51.500000 92.370003 Z" fill="#232F3E"/><path d=" M 56.880001 92.349998 L 56.740002 91.839996 C 56.586903 92.044678 56.383724 92.206528 56.150002 92.309998 C 55.906254 92.426201 55.640022 92.487640 55.370003 92.489998 C 54.924751 92.502617 54.495342 92.324303 54.190002 92.000000 C 53.883972 91.669823 53.725170 91.229507 53.750004 90.779999 C 53.726860 90.286880 53.920486 89.808296 54.280003 89.470001 C 54.683384 89.137032 55.197861 88.969109 55.720001 89.000000 C 56.030678 89.007446 56.339424 89.051079 56.639999 89.129997 L 56.639999 88.620003 C 56.667572 88.349762 56.611736 88.077560 56.480000 87.840004 C 56.315475 87.687714 56.092754 87.614693 55.869999 87.640007 C 55.265018 87.668449 54.668026 87.789871 54.099998 88.000008 L 54.099998 87.000000 C 54.382187 86.852898 54.685986 86.751633 55.000000 86.699997 C 55.378017 86.619484 55.763504 86.579254 56.150002 86.579994 C 56.693798 86.532089 57.235882 86.689011 57.670002 87.019997 C 58.014774 87.396851 58.185326 87.901237 58.140003 88.409996 L 58.139999 92.349998 Z M 55.880001 91.430000 C 56.178345 91.418404 56.460972 91.293190 56.670002 91.080002 L 56.669998 90.000000 C 56.467587 89.947983 56.258911 89.924423 56.049999 89.930000 C 55.849068 89.911972 55.650711 89.985435 55.509998 90.129997 C 55.374660 90.295738 55.306812 90.506424 55.320000 90.719994 C 55.309711 90.905304 55.362591 91.088631 55.470001 91.239990 C 55.562122 91.356667 55.701389 91.426300 55.850002 91.429993 Z" fill="#232F3E"/><path d=" M 62.459999 91.709999 C 62.148067 92.047455 61.709538 92.239540 61.250000 92.239998 C 60.674961 92.256142 60.131649 91.976936 59.810001 91.500000 C 59.433475 90.903000 59.248539 90.205116 59.280003 89.500000 C 59.237823 88.757782 59.426456 88.020706 59.820004 87.389999 C 60.139709 86.896965 60.692566 86.605385 61.280003 86.620003 C 61.525684 86.628410 61.767155 86.686226 61.990002 86.790001 C 62.227306 86.897537 62.441315 87.050400 62.620003 87.239998 L 62.740002 86.760002 L 64.089996 86.760002 L 64.089996 92.000000 C 64.089996 93.860001 63.230000 94.790001 61.520000 94.790001 C 60.883320 94.794128 60.255215 94.643105 59.689999 94.349998 L 59.689999 93.349998 C 60.208954 93.548721 60.755291 93.666756 61.309998 93.699997 C 61.547199 93.714256 61.784248 93.669601 61.999996 93.570000 C 62.173836 93.479668 62.301083 93.319702 62.349995 93.129997 C 62.444843 92.805656 62.482075 92.467201 62.459995 92.129997 Z M 61.799999 91.110001 C 62.036285 91.100060 62.265007 91.023819 62.459999 90.889999 L 62.459999 88.000000 C 62.249332 87.838676 61.994938 87.744583 61.730000 87.730003 C 61.459843 87.724297 61.217106 87.894211 61.130001 88.150002 C 60.974037 88.564812 60.905930 89.007492 60.930000 89.450005 C 60.905819 89.886879 60.977493 90.323753 61.139999 90.730003 C 61.265820 90.975739 61.524315 91.124565 61.799999 91.110001 Z" fill="#232F3E"/><path d=" M 66.730003 89.919998 C 66.718948 90.311180 66.846451 90.693687 67.090004 91.000000 C 67.385567 91.246262 67.766884 91.364975 68.150002 91.330002 C 68.379204 91.323997 68.607132 91.293831 68.830002 91.240005 C 69.101532 91.190041 69.368942 91.119843 69.630005 91.030006 L 69.629997 92.029999 C 69.371758 92.177193 69.091507 92.281868 68.799995 92.339996 C 68.471474 92.411812 68.136276 92.448685 67.799995 92.449997 C 66.080002 92.449997 65.220001 91.449997 65.220001 89.500000 C 65.165512 88.713959 65.392365 87.934151 65.860001 87.300003 C 66.314651 86.776291 66.987923 86.495148 67.680000 86.540001 C 69.050003 86.540001 69.680000 87.300003 69.680000 88.830002 C 69.679131 89.166870 69.638855 89.502487 69.559998 89.830002 Z M 67.639999 87.599998 C 67.059998 87.599998 66.760002 88.059998 66.730003 88.970001 L 68.339996 88.970001 L 68.339996 88.720001 C 68.360435 88.423340 68.301773 88.126572 68.169998 87.860001 C 68.052505 87.684830 67.850441 87.585701 67.639999 87.599998 Z" fill="#232F3E"/><path d=" M 23.690001 105.250000 C 23.876390 105.264381 24.063610 105.264381 24.250000 105.250000 L 24.250000 103.250000 L 23.100000 103.250000 L 23.100000 102.139999 L 25.799999 102.139999 L 25.799999 105.910004 C 25.445724 106.104126 25.065062 106.245613 24.670000 106.330002 C 24.223726 106.430847 23.767525 106.481163 23.309999 106.480003 C 22.389332 106.538010 21.493170 106.169220 20.879999 105.480003 C 20.269550 104.656525 19.971813 103.642807 20.039999 102.620003 C 19.958990 101.546288 20.271820 100.479820 20.919998 99.620003 C 21.598913 98.916504 22.554819 98.550255 23.529999 98.620003 C 24.224140 98.596901 24.912647 98.751816 25.529999 99.070000 L 25.530001 100.239998 C 25.230463 100.117241 24.918705 100.026733 24.600000 99.970001 C 24.304308 99.905373 24.002666 99.871857 23.700001 99.870003 C 23.136606 99.819138 22.583933 100.046928 22.220001 100.480003 C 21.861845 101.082382 21.701008 101.781677 21.760002 102.480003 L 21.760000 102.690002 C 21.698000 103.387268 21.855324 104.086487 22.210001 104.690002 C 22.583082 105.105995 23.134991 105.314827 23.690001 105.250000 Z" fill="#232F3E"/><path d=" M 30.100000 106.349998 L 29.950001 105.839996 C 29.799303 106.046989 29.595444 106.209389 29.360001 106.309998 C 29.116253 106.426201 28.850021 106.487640 28.580000 106.489998 C 28.134750 106.502617 27.705339 106.324303 27.400000 106.000000 C 27.093969 105.669823 26.935167 105.229507 26.959999 104.779999 C 26.936857 104.286880 27.130482 103.808296 27.490000 103.470001 C 27.893864 103.137909 28.407988 102.970108 28.930000 103.000000 C 29.244030 103.006668 29.556179 103.050301 29.860001 103.129997 L 29.860001 102.620003 C 29.885199 102.348686 29.825815 102.076225 29.690001 101.840004 C 29.529999 101.686920 29.309851 101.613541 29.090000 101.640007 C 28.482172 101.664215 27.881742 101.782272 27.309999 101.990005 L 27.309999 100.989998 C 27.597076 100.831573 27.907679 100.720161 28.230000 100.659996 C 28.611403 100.579514 29.000198 100.539299 29.389999 100.539993 C 29.930742 100.491684 30.469847 100.648773 30.900000 100.979996 C 31.249231 101.354202 31.420473 101.860634 31.369999 102.369995 L 31.370001 106.309998 Z M 29.100000 105.430000 C 29.401384 105.418922 29.687319 105.293823 29.900000 105.080002 L 29.900000 104.000000 C 29.694059 103.948677 29.482182 103.925140 29.270000 103.930000 C 29.069454 103.914780 28.872250 103.987816 28.730000 104.129997 C 28.598238 104.297188 28.534004 104.507729 28.549999 104.719994 C 28.539709 104.905304 28.592592 105.088631 28.699999 105.239990 C 28.784925 105.354698 28.917376 105.424606 29.059999 105.429993 Z" fill="#232F3E"/><path d=" M 35.810001 106.199997 C 35.416691 106.347153 34.999935 106.421692 34.580002 106.419998 C 34.107685 106.464508 33.636894 106.320755 33.270000 106.019997 C 32.965263 105.658775 32.817635 105.190689 32.860001 104.719994 L 32.860001 101.820000 L 32.119999 101.820000 L 32.119999 100.900002 L 32.900002 100.750000 L 33.150002 99.209999 L 34.509998 99.209999 L 34.509998 100.720001 L 35.779999 100.720001 L 35.779999 101.820000 L 34.509998 101.820000 L 34.509998 104.589996 C 34.494324 104.774376 34.543869 104.958412 34.649998 105.109993 C 34.796585 105.234970 34.988743 105.292976 35.179996 105.269997 C 35.392235 105.265694 35.603420 105.238876 35.809998 105.189995 Z" fill="#232F3E"/><path d=" M 37.900002 103.919998 C 37.886597 104.325401 38.017735 104.722366 38.270000 105.040001 C 38.564472 105.288261 38.946644 105.407242 39.330002 105.370003 C 39.559204 105.363998 39.787132 105.333832 40.010002 105.280006 C 40.280975 105.227577 40.548214 105.157425 40.810001 105.070007 L 40.810001 106.070000 C 40.550980 106.215523 40.271000 106.320099 39.980000 106.379997 C 39.651474 106.451813 39.316277 106.488686 38.980000 106.489998 C 37.259998 106.489998 36.400002 105.489998 36.400002 103.540001 C 36.346962 102.755630 36.569820 101.977402 37.030003 101.340004 C 37.487766 100.814682 38.164768 100.533524 38.860004 100.580002 C 40.220001 100.580002 40.910000 101.339996 40.910000 102.870003 C 40.909126 103.206871 40.868855 103.542488 40.790001 103.870003 Z M 38.820000 101.599998 C 38.240002 101.599998 37.939999 102.059998 37.900002 102.970001 L 39.520000 102.970001 L 39.520000 102.720001 C 39.540443 102.423340 39.481781 102.126572 39.350002 101.860001 C 39.232513 101.684830 39.030445 101.585701 38.820004 101.599998 Z" fill="#232F3E"/><path d=" M 46.080002 106.349998 L 45.290001 102.349998 L 44.520000 106.349998 L 43.000000 106.349998 L 41.450001 100.720001 L 43.160000 100.720001 L 43.869999 104.720001 L 44.639999 100.720001 L 46.110001 100.720001 L 46.930000 104.949997 L 47.580002 100.720001 L 49.200001 100.720001 L 47.639999 106.349998 Z" fill="#232F3E"/><path d=" M 52.889999 106.349998 L 52.750000 105.839996 C 52.594742 106.042564 52.392155 106.203949 52.160000 106.309998 C 51.913094 106.427322 51.643360 106.488777 51.369999 106.489998 C 50.931015 106.511780 50.503002 106.348557 50.189999 106.040001 C 49.886585 105.708809 49.731304 105.268242 49.759998 104.820000 C 49.736855 104.326881 49.930481 103.848297 50.289997 103.510002 C 50.687271 103.173096 51.200314 103.004471 51.719997 103.040001 C 52.034027 103.046669 52.346176 103.090302 52.649998 103.169998 L 52.650002 102.660004 C 52.677574 102.389763 52.621738 102.117561 52.490002 101.880005 C 52.325478 101.727715 52.102757 101.654694 51.880001 101.680008 C 51.275547 101.705238 50.678566 101.823280 50.110001 102.030006 L 50.110001 101.029999 C 50.393471 100.871468 50.700802 100.760017 51.020000 100.699997 C 51.401482 100.620018 51.790226 100.579803 52.180000 100.579994 C 52.723797 100.532089 53.265881 100.689011 53.700001 101.019997 C 54.044773 101.396851 54.215324 101.901237 54.170002 102.409996 L 54.169998 106.349998 Z M 51.889999 105.430000 C 52.191841 105.420944 52.478493 105.295532 52.689999 105.080002 L 52.689999 104.000000 C 52.484169 103.948074 52.272205 103.924522 52.059998 103.930000 C 51.862247 103.913605 51.667618 103.987053 51.529999 104.129997 C 51.390945 104.293694 51.322601 104.505920 51.340000 104.719994 C 51.329712 104.905304 51.382591 105.088631 51.490002 105.239990 C 51.575874 105.353592 51.707760 105.423195 51.850002 105.429993 Z" fill="#232F3E"/><path d=" M 56.770000 106.459999 L 54.770000 100.720001 L 56.520000 100.720001 L 57.450001 104.860001 L 58.349998 100.720001 L 60.049999 100.720001 L 58.049999 107.199997 C 57.940708 107.647972 57.708691 108.056602 57.380001 108.379997 C 57.066204 108.631195 56.671501 108.759209 56.270000 108.739998 C 55.910706 108.739273 55.553501 108.685356 55.209999 108.579994 L 55.209999 107.580002 C 55.403107 107.593239 55.596893 107.593239 55.790001 107.580002 C 56.039410 107.595459 56.285568 107.516968 56.480000 107.360001 C 56.656960 107.152000 56.762161 106.892509 56.779999 106.620003 Z" fill="#232F3E"/></g><g id="ICONS_-_EDIT"><path d=" M 57.220001 46.689999 L 56.980000 44.689999 C 61.029999 44.220001 62.980000 41.970001 62.980000 37.810001 C 62.980000 33.810001 60.630001 31.299999 55.980000 30.350000 C 55.535610 30.260145 55.207275 29.882563 55.180000 29.430000 C 54.959999 25.780001 52.820000 24.150000 50.810001 24.150000 C 49.524406 24.157072 48.316952 24.768208 47.550003 25.799999 C 47.329365 26.095087 46.964336 26.244942 46.600002 26.189999 C 46.237385 26.134626 45.934185 25.885160 45.810001 25.539999 C 45.158802 23.677103 44.095749 21.985107 42.700001 20.589998 C 38.411755 16.147486 31.334074 16.022429 26.891562 20.310677 C 24.782383 22.346615 23.557238 25.129519 23.480001 28.059999 C 23.481447 28.504490 23.508158 28.948540 23.560001 29.389999 C 23.564499 29.426529 23.564499 29.463470 23.560001 29.500000 L 23.559999 29.500000 C 23.565638 29.998644 23.203037 30.425230 22.709999 30.500000 C 20.559999 31.100000 17.000000 32.779999 17.000000 37.750000 C 17.000000 37.930000 17.000000 38.110001 17.000000 38.279999 C 17.190001 41.650002 19.629999 44.150002 23.230000 44.689999 L 22.930000 46.689999 C 18.624252 46.226871 15.276846 42.731724 15.000000 38.410000 C 15.000000 38.169998 15.000000 37.970001 15.000000 37.750000 C 14.832867 33.614067 17.539221 29.908890 21.530001 28.809999 C 21.530001 28.570000 21.530001 28.330000 21.530001 28.080000 C 21.692724 20.802706 27.724052 15.035208 35.001347 15.197932 C 38.449982 15.275045 41.730946 16.701099 44.140003 19.170000 C 45.385345 20.407942 46.401096 21.857080 47.140003 23.450001 C 48.198219 22.619511 49.504814 22.168716 50.850002 22.170000 C 53.650002 22.170000 56.590000 24.170000 57.150002 28.570000 C 62.220001 29.840000 65.000000 33.110001 65.000000 37.830002 C 65.000000 43.000000 62.240002 46.110001 57.220001 46.689999 Z" fill="#FFFFFF"/><path d=" M 54.139999 64.769997 L 49.139999 64.769997 C 48.587715 64.769997 48.139999 64.322281 48.139999 63.769997 L 48.139999 39.419998 C 45.789799 38.124950 43.153332 37.437477 40.470001 37.419998 C 37.539104 37.438751 34.665291 38.232239 32.139999 39.719997 L 32.139999 63.770000 C 32.139999 64.322289 31.692284 64.770004 31.139999 64.770004 L 26.139999 64.769997 C 25.587715 64.769997 25.139999 64.322281 25.139999 63.769997 L 25.139999 36.599998 C 25.137825 36.314339 25.257923 36.041386 25.469999 35.849998 C 29.160000 32.599998 34.610001 30.730000 40.470001 30.730000 C 45.606579 30.638414 50.629761 32.244846 54.760002 35.299999 C 54.998741 35.488647 55.138599 35.775726 55.140003 36.079998 L 55.139999 63.770000 C 55.139999 64.322289 54.692284 64.770004 54.139999 64.770004 Z M 50.139999 62.770000 L 53.139999 62.770000 L 53.139999 36.570000 C 49.417442 33.990726 44.978050 32.647366 40.450001 32.730000 C 35.648724 32.608833 30.950985 34.137100 27.140001 37.060001 L 27.139999 62.770000 L 30.139999 62.770000 L 30.139999 39.119999 C 30.140621 38.759235 30.335512 38.426773 30.650000 38.250000 C 33.605320 36.430553 36.999725 35.448872 40.470001 35.410000 C 43.679993 35.446728 46.825642 36.314968 49.600002 37.930000 C 49.929222 38.100544 50.137058 38.439243 50.140003 38.810001 Z" fill="#FFFFFF"/></g></svg>