<svg version="1.1" width="80.000000" height="100.000000" viewBox="0.000000 0.000000 80.000000 100.000000" xmlns="http://www.w3.org/2000/svg" xmlns:xlink="http://www.w3.org/1999/xlink" overflow="hidden"><g id="CARDS"><rect x="1.000000" y="1.000000" width="78.000000" height="78.000000" fill="#232F3E"/><path d=" M 0.000000 0.000000 L 0.000000 80.000000 L 0.000000 80.000000 L 0.000000 100.000000 L 80.000000 100.000000 L 80.000000 80.000000 L 80.000000 80.000000 L 80.000000 0.000000 Z M 1.000000 1.000000 L 79.000000 1.000000 L 79.000000 79.000000 L 1.000000 79.000000 Z" fill="#FFFFFF"/></g><g id="TEXT_-_EDIT"><path d=" M 11.920000 92.349998 L 11.490000 90.529999 L 9.490000 90.529999 L 9.070000 92.349998 L 7.300000 92.349998 L 9.610000 84.720001 L 11.480000 84.720001 L 13.780000 92.349998 Z M 9.740000 89.430000 L 11.240000 89.430000 L 10.480000 86.269997 Z" fill="#232F3E"/><path d=" M 19.129999 92.349998 L 18.190001 86.720001 L 17.299999 92.349998 L 15.430000 92.349998 L 13.650000 84.720001 L 15.350000 84.720001 L 16.410000 90.779999 L 17.320000 85.000000 L 19.150000 85.000000 L 20.090000 90.650002 L 21.090000 84.650002 L 22.750000 84.650002 L 21.000000 92.349998 Z" fill="#232F3E"/><path d=" M 25.080000 89.000000 C 24.582724 88.768532 24.144913 88.426491 23.799999 88.000000 C 23.541233 87.643089 23.407642 87.210678 23.420000 86.769997 C 23.409801 86.355682 23.524811 85.947922 23.750000 85.599998 C 23.982124 85.261627 24.304256 84.994911 24.680000 84.830002 C 25.094984 84.644630 25.545557 84.552467 26.000000 84.560005 C 26.649569 84.563965 27.291924 84.696510 27.889999 84.950005 L 27.889999 86.120003 C 27.338253 85.917831 26.757393 85.806381 26.170000 85.790001 C 25.885244 85.776161 25.603926 85.857040 25.370001 86.020004 C 25.177280 86.175255 25.069666 86.412743 25.080000 86.660004 C 25.075146 86.863258 25.142462 87.061668 25.270000 87.220001 C 25.473886 87.428474 25.719143 87.591980 25.990000 87.700005 L 26.639999 88.019997 C 26.997839 88.184235 27.333771 88.392517 27.639999 88.639999 C 27.875288 88.820801 28.061043 89.058159 28.180000 89.330002 C 28.307577 89.619499 28.369066 89.933777 28.360001 90.250000 C 28.390263 90.886475 28.115427 91.499283 27.620001 91.900002 C 27.043343 92.327324 26.336987 92.542763 25.620001 92.510002 C 25.236866 92.509674 24.854807 92.469460 24.480001 92.389999 C 24.151331 92.322983 23.832233 92.215500 23.530001 92.070000 L 23.530001 90.919998 C 23.857162 91.026321 24.191296 91.109856 24.530001 91.169998 C 24.859119 91.238113 25.193945 91.274940 25.530001 91.279999 C 25.840494 91.302689 26.148920 91.214066 26.400002 91.029999 C 26.771051 90.695000 26.814989 90.128181 26.500002 89.739998 C 26.290546 89.545662 26.050713 89.386902 25.790003 89.269997 Z" fill="#232F3E"/><path d=" M 36.000000 92.349998 L 35.570000 90.529999 L 33.570000 90.529999 L 33.150002 92.349998 L 31.400000 92.349998 L 33.720001 84.720001 L 35.590000 84.720001 L 37.889999 92.349998 Z M 33.820000 89.430000 L 35.310001 89.430000 L 34.560001 86.269997 Z" fill="#232F3E"/><path d=" M 38.669998 94.610001 L 38.669998 86.720001 L 40.000000 86.720001 L 40.119999 87.199997 C 40.329094 87.010376 40.569267 86.858154 40.829998 86.750000 C 41.076504 86.643257 41.341431 86.585518 41.609997 86.580002 C 42.209717 86.551254 42.782719 86.830215 43.129997 87.320000 C 43.843044 88.678802 43.843044 90.301193 43.129997 91.659996 C 42.796513 92.164848 42.224712 92.460220 41.619999 92.439995 C 41.384888 92.439087 41.151611 92.398521 40.930000 92.319992 C 40.711117 92.239212 40.508053 92.120766 40.330002 91.969994 L 40.330002 94.610001 Z M 41.090000 87.699997 C 40.812935 87.697105 40.542522 87.784897 40.320000 87.949997 L 40.320000 91.059998 C 40.548672 91.221687 40.820049 91.312141 41.099998 91.320000 C 41.400665 91.339958 41.682697 91.173119 41.809998 90.900002 C 41.971817 90.462486 42.036648 89.995041 41.999996 89.529999 C 42.032280 89.050362 41.960651 88.569412 41.789997 88.119995 C 41.661972 87.852318 41.386433 87.686996 41.089996 87.699997 Z" fill="#232F3E"/><path d=" M 44.810001 94.610001 L 44.810001 86.720001 L 46.160000 86.720001 L 46.279999 87.199997 C 46.489094 87.010376 46.729267 86.858154 46.989998 86.750000 C 47.240292 86.644142 47.508316 86.586464 47.779999 86.580002 C 48.377026 86.550934 48.947182 86.830345 49.289997 87.320000 C 49.677715 87.963524 49.859177 88.710312 49.809998 89.459999 C 49.853458 90.230782 49.665401 90.996941 49.269997 91.659996 C 48.931957 92.164963 48.357342 92.459831 47.749996 92.439995 C 47.518227 92.438164 47.288395 92.397598 47.069996 92.319992 C 46.846752 92.242088 46.639912 92.123413 46.459995 91.969994 L 46.459999 94.610001 Z M 47.240002 87.699997 C 46.959854 87.697105 46.686272 87.784790 46.460003 87.949997 L 46.459999 91.059998 C 46.691757 91.223015 46.966721 91.313515 47.250000 91.320000 C 47.547821 91.338585 47.826244 91.171532 47.950001 90.900002 C 48.118618 90.463989 48.190277 89.996498 48.160000 89.529999 C 48.208279 89.053963 48.153713 88.573112 48.000000 88.119995 C 47.866520 87.828163 47.558113 87.657730 47.240002 87.699997 Z" fill="#232F3E"/><path d=" M 52.389999 89.000000 C 51.894527 88.765594 51.457329 88.424026 51.110001 88.000000 C 50.851234 87.643089 50.717644 87.210678 50.730000 86.769997 C 50.718891 86.354126 50.837738 85.945145 51.070000 85.599998 C 51.295700 85.259720 51.615288 84.992241 51.989998 84.830002 C 52.411812 84.643929 52.869041 84.551804 53.329998 84.560005 C 53.979763 84.562088 54.622482 84.694710 55.219997 84.950005 L 55.220001 86.120003 C 54.668255 85.917831 54.087395 85.806381 53.500000 85.790001 C 53.218163 85.774521 52.939480 85.855652 52.709999 86.020004 C 52.513199 86.172058 52.404575 86.411781 52.419998 86.660004 C 52.412312 86.862022 52.476040 87.060295 52.599998 87.220001 C 52.807770 87.423737 53.052021 87.586571 53.320000 87.700005 L 54.000000 88.000000 C 54.357838 88.164238 54.693771 88.372520 55.000000 88.620003 C 55.235207 88.803383 55.423676 89.039825 55.549999 89.310005 C 55.669373 89.601707 55.727249 89.914909 55.719997 90.230003 C 55.750259 90.866478 55.475426 91.479286 54.979996 91.880005 C 54.404472 92.309578 53.697292 92.525269 52.979996 92.490005 C 52.600136 92.490234 52.221333 92.450005 51.849995 92.370003 C 51.504047 92.307739 51.167820 92.200142 50.849995 92.050003 L 50.849998 90.919998 C 51.177494 91.025146 51.511547 91.108665 51.849998 91.169998 C 52.179119 91.238113 52.513943 91.274940 52.849998 91.279999 C 53.163578 91.302475 53.475075 91.213982 53.730000 91.029999 C 53.936394 90.853905 54.047592 90.590736 54.029999 90.320000 C 54.036087 90.107033 53.961021 89.899704 53.820000 89.739998 C 53.612324 89.543411 53.372089 89.384384 53.110001 89.269997 Z" fill="#232F3E"/><path d=" M 58.139999 92.459999 L 56.139999 86.720001 L 57.900002 86.720001 L 58.830002 90.860001 L 59.730000 86.720001 L 61.430000 86.720001 L 59.430000 93.199997 C 59.320709 93.647972 59.088692 94.056602 58.760002 94.379997 C 58.446205 94.631195 58.051502 94.759209 57.650002 94.739998 C 57.290653 94.740013 56.933334 94.686081 56.590000 94.579994 L 56.590000 93.580002 C 56.783108 93.593239 56.976894 93.593239 57.170002 93.580002 C 57.416924 93.600166 57.661686 93.520981 57.850002 93.360001 C 58.034424 93.156609 58.140728 92.894394 58.150002 92.620003 Z" fill="#232F3E"/><path d=" M 65.300003 92.349998 L 65.300003 88.650002 C 65.319321 88.407036 65.267181 88.163719 65.150002 87.950005 C 65.037308 87.794876 64.850807 87.711143 64.660004 87.730003 C 64.367798 87.738640 64.083801 87.828682 63.840004 87.990005 L 63.840000 92.349998 L 62.189999 92.349998 L 62.189999 86.720001 L 63.540001 86.720001 L 63.669998 87.230003 C 64.205238 86.835541 64.845749 86.609268 65.509995 86.580002 C 65.911423 86.553581 66.303726 86.707565 66.579994 87.000000 C 66.863472 87.342186 67.012756 87.775826 66.999992 88.220001 L 67.000000 92.349998 Z" fill="#232F3E"/><path d=" M 72.000000 92.089996 C 71.803360 92.213127 71.586800 92.301109 71.360001 92.349998 C 71.097778 92.411209 70.829269 92.441414 70.559998 92.439995 C 69.864334 92.491119 69.183304 92.222382 68.709999 91.709991 C 67.865547 90.393791 67.865547 88.706192 68.709999 87.389992 C 69.191994 86.869011 69.881363 86.590332 70.589996 86.629990 C 71.083664 86.632568 71.568672 86.759842 72.000000 86.999992 L 72.000000 88.000000 C 71.679459 87.881821 71.341545 87.817619 71.000000 87.809998 C 70.641945 87.775215 70.291008 87.926155 70.070000 88.209999 C 69.852066 88.603195 69.754692 89.051834 69.790001 89.500000 L 69.790001 89.660004 C 69.744499 90.084785 69.817169 90.513893 70.000000 90.900002 C 70.210892 91.185333 70.557182 91.337547 70.910004 91.300003 C 71.282753 91.293633 71.651566 91.222572 72.000000 91.090004 Z" fill="#232F3E"/></g><g id="ICONS_-_EDIT"><path d=" M 40.119999 62.730000 C 36.304379 62.729755 32.550991 61.763023 29.209999 59.919998 L 30.209999 58.169998 C 40.233650 63.656116 52.806805 59.977718 58.292923 49.954067 C 61.861828 43.433346 61.658390 35.499252 57.759998 29.169998 L 56.759998 34.169998 L 54.759998 33.779999 L 56.209999 26.450001 C 56.315804 25.909338 56.838970 25.556089 57.379997 25.660000 L 64.720001 27.110001 L 64.330002 29.110001 L 59.430000 28.110001 C 66.002213 38.799065 62.664845 52.792091 51.975784 59.364304 C 48.409428 61.557091 44.306541 62.721844 40.120003 62.730000 Z M 22.780001 54.000000 C 22.696953 54.009769 22.613049 54.009769 22.530001 54.000000 L 15.280000 52.180000 L 15.770000 50.240002 L 20.430000 51.410000 C 14.122504 40.581795 17.787262 26.690567 28.615465 20.383070 C 35.483971 16.382122 43.945324 16.267151 50.920002 20.080000 L 49.919998 21.830000 C 39.870621 16.391146 27.314930 20.128712 21.876076 30.178087 C 18.395576 36.609009 18.568146 44.399506 22.330000 50.669998 L 23.629999 45.520000 L 25.570000 46.000000 L 23.750000 53.250000 C 23.635838 53.692150 23.236650 54.000801 22.780001 54.000000 Z M 48.000000 49.700001 C 46.173393 49.703205 44.576649 48.468605 44.119999 46.700001 L 35.900002 46.700001 C 35.347717 48.838989 33.166008 50.125267 31.027018 49.572983 C 28.888027 49.020699 27.601749 46.838989 28.154036 44.699997 C 28.610312 42.932850 30.204899 41.698639 32.030003 41.700001 C 32.391220 41.700237 32.750885 41.747299 33.100002 41.840000 L 37.279999 34.599998 C 35.675758 33.081215 35.606480 30.549503 37.125259 28.945261 C 38.644043 27.341019 41.175755 27.271740 42.779999 28.790524 C 44.384239 30.309307 44.453518 32.841019 42.934738 34.445263 C 42.884579 34.498245 42.832981 34.549843 42.779999 34.600002 L 47.000000 41.840000 C 47.326450 41.753098 47.662235 41.706085 48.000000 41.700001 C 50.209141 41.700001 52.000000 43.490860 52.000000 45.700001 C 52.000000 47.909142 50.209141 49.700001 48.000000 49.700001 Z M 48.000000 43.700001 C 46.895432 43.700001 46.000000 44.595432 46.000000 45.700001 C 46.000000 46.804569 46.895432 47.700001 48.000000 47.700001 C 49.104568 47.700001 50.000000 46.804569 50.000000 45.700001 C 50.000000 44.595432 49.104568 43.700001 48.000000 43.700001 Z M 32.000000 43.700001 C 30.895430 43.700001 30.000000 44.595432 30.000000 45.700001 C 30.000000 46.804569 30.895430 47.700001 32.000000 47.700001 C 33.104568 47.700001 34.000000 46.804569 34.000000 45.700001 C 34.000000 44.595432 33.104568 43.700001 32.000000 43.700001 Z M 35.869999 44.700001 L 44.119999 44.700001 C 44.303432 43.993027 44.676937 43.349770 45.200001 42.840000 L 41.000000 35.570000 C 40.344090 35.739357 39.655910 35.739357 39.000000 35.570000 L 34.810001 42.849998 C 35.335152 43.355797 35.712067 43.995514 35.900002 44.699997 Z M 40.000000 29.700001 C 38.895432 29.700001 38.000000 30.595430 38.000000 31.700001 C 38.000000 32.804569 38.895432 33.700001 40.000000 33.700001 C 41.104568 33.700001 42.000000 32.804569 42.000000 31.700001 C 42.000000 30.595430 41.104568 29.700001 40.000000 29.700001 Z" fill="#FFFFFF"/></g></svg>