<svg version="1.1" width="80.000000" height="100.000000" viewBox="0.000000 0.000000 80.000000 100.000000" xmlns="http://www.w3.org/2000/svg" xmlns:xlink="http://www.w3.org/1999/xlink" overflow="hidden"><g id="CARDS"><rect x="1.000000" y="1.000000" width="78.000000" height="78.000000" fill="#232F3E"/><path d=" M 0.000000 0.000000 L 0.000000 80.000000 L 0.000000 80.000000 L 0.000000 100.000000 L 80.000000 100.000000 L 80.000000 80.000000 L 80.000000 80.000000 L 80.000000 0.000000 Z M 1.000000 1.000000 L 79.000000 1.000000 L 79.000000 79.000000 L 1.000000 79.000000 Z" fill="#FFFFFF"/></g><g id="TEXT_-_EDIT"><path d=" M 15.680000 92.349998 L 15.250000 90.529999 L 13.250000 90.529999 L 12.830000 92.349998 L 11.060000 92.349998 L 13.370000 84.720001 L 15.240000 84.720001 L 17.540001 92.349998 Z M 13.500000 89.430000 L 15.000000 89.430000 L 14.240000 86.269997 Z" fill="#232F3E"/><path d=" M 24.389999 92.349998 L 24.389999 88.639999 C 24.411562 88.401268 24.362902 88.161446 24.250000 87.949997 C 24.149904 87.796371 23.972418 87.711487 23.790001 87.729996 C 23.506729 87.745018 23.233213 87.838501 23.000000 87.999992 C 23.000000 88.000000 23.000000 88.080002 23.000000 88.120003 L 23.000000 92.360001 L 21.360001 92.360001 L 21.360001 88.639999 C 21.376665 88.401566 21.328276 88.163086 21.220001 87.949997 C 21.116632 87.794739 20.935438 87.709923 20.750002 87.729996 C 20.480740 87.753075 20.222189 87.846153 20.000002 87.999992 L 20.000000 92.360001 L 18.320000 92.360001 L 18.320000 86.720001 L 19.670000 86.720001 L 19.799999 87.230003 C 20.325705 86.838974 20.955631 86.612755 21.609999 86.580002 C 22.107903 86.543671 22.579681 86.807076 22.809999 87.250000 C 23.344072 86.850533 23.984112 86.617470 24.650000 86.580002 C 25.029106 86.564880 25.395386 86.718712 25.650000 87.000000 C 25.906879 87.352669 26.030848 87.784782 26.000000 88.220001 L 26.000000 92.349998 Z" fill="#232F3E"/><path d=" M 30.340000 92.349998 L 30.200001 91.839996 C 30.046904 92.044678 29.843725 92.206528 29.610001 92.309998 C 29.366253 92.426201 29.100021 92.487640 28.830000 92.489998 C 28.384750 92.502617 27.955339 92.324303 27.650000 92.000000 C 27.343969 91.669823 27.185167 91.229507 27.209999 90.779999 C 27.186857 90.286880 27.380482 89.808296 27.740000 89.470001 C 28.143379 89.137032 28.657858 88.969109 29.180000 89.000000 C 29.490675 89.007446 29.799425 89.051079 30.100000 89.129997 L 30.100000 88.620003 C 30.127573 88.349762 30.071737 88.077560 29.940001 87.840004 C 29.775478 87.687714 29.552753 87.614693 29.330000 87.640007 C 28.725546 87.665237 28.128567 87.783279 27.559999 87.990005 L 27.559999 87.000000 C 27.846565 86.840446 28.157354 86.728966 28.480000 86.669998 C 28.858017 86.589485 29.243504 86.549255 29.629999 86.549995 C 30.173798 86.502090 30.715881 86.659012 31.150000 86.989998 C 31.494774 87.366852 31.665321 87.871239 31.619999 88.379997 L 31.620001 92.320000 Z M 29.340000 91.430000 C 29.638346 91.418404 29.920971 91.293190 30.130001 91.080002 L 30.129999 90.000000 C 29.927586 89.947983 29.718914 89.924423 29.509998 89.930000 C 29.309067 89.911972 29.110708 89.985435 28.969997 90.129997 C 28.834660 90.295738 28.766809 90.506424 28.779997 90.719994 C 28.769707 90.905304 28.822590 91.088631 28.929996 91.239990 C 29.022120 91.356667 29.161383 91.426300 29.309996 91.429993 Z" fill="#232F3E"/><path d=" M 32.610001 92.349998 L 32.610001 91.279999 L 35.099998 87.879997 L 32.709999 87.879997 L 32.709999 86.720001 L 36.840000 86.720001 L 36.840000 87.790001 L 34.340000 91.190002 L 36.889999 91.190002 L 36.889999 92.349998 Z" fill="#232F3E"/><path d=" M 40.130001 92.489998 C 39.428314 92.528084 38.747448 92.244698 38.280003 91.720001 C 37.413986 90.392052 37.413986 88.677956 38.280003 87.349998 C 39.291752 86.331032 40.937969 86.325180 41.956936 87.336929 C 41.961308 87.341270 41.965664 87.345627 41.970005 87.349998 C 42.836021 88.677948 42.836021 90.392044 41.970005 91.720001 C 41.506542 92.244324 40.828773 92.527962 40.130005 92.489998 Z M 40.130001 91.339996 C 40.413586 91.349129 40.671272 91.175995 40.770000 90.909996 C 41.036797 90.016144 41.036797 89.063843 40.770000 88.169998 C 40.634636 87.813774 40.236122 87.634735 39.879898 87.770103 C 39.695583 87.840141 39.550041 87.985687 39.480000 88.169998 C 39.213203 89.063850 39.213203 90.016151 39.480000 90.909996 C 39.582439 91.177567 39.843681 91.350380 40.130001 91.339996 Z" fill="#232F3E"/><path d=" M 46.889999 92.349998 L 46.889999 88.650002 C 46.909313 88.407036 46.857174 88.163719 46.739998 87.950005 C 46.627304 87.794876 46.440807 87.711143 46.249996 87.730003 C 45.957787 87.738640 45.673794 87.828682 45.429996 87.990005 L 45.430000 92.349998 L 43.779999 92.349998 L 43.779999 86.720001 L 45.130001 86.720001 L 45.259998 87.230003 C 45.795238 86.835541 46.435749 86.609268 47.099998 86.580002 C 47.501431 86.553581 47.893726 86.707565 48.169998 87.000000 C 48.435577 87.349174 48.566883 87.782127 48.539997 88.220001 L 48.540001 92.349998 Z" fill="#232F3E"/><path d=" M 58.330002 92.349998 L 58.330002 87.000000 L 56.919998 90.459999 L 55.490002 90.459999 L 54.090000 87.000000 L 54.090000 92.320000 L 52.580002 92.320000 L 52.580002 84.720001 L 54.509998 84.720001 L 56.230000 89.000000 L 58.000000 84.720001 L 59.880001 84.720001 L 59.880001 92.349998 Z" fill="#232F3E"/><path d=" M 61.259998 88.529999 C 61.191624 87.479309 61.504028 86.439148 62.139999 85.599998 C 63.470261 84.235855 65.654510 84.208389 67.018654 85.538651 C 67.039360 85.558846 67.059814 85.579292 67.080002 85.599998 C 67.725426 86.436142 68.051620 87.474991 68.000000 88.529999 C 68.019180 89.390388 67.815956 90.241158 67.410004 91.000000 C 67.066132 91.629707 66.498871 92.107780 65.820007 92.339996 C 66.071121 92.528030 66.351562 92.673325 66.650009 92.769997 C 67.012817 92.889343 67.389015 92.963242 67.770012 92.989998 L 67.769997 94.250000 C 67.131630 94.155609 66.513283 93.956253 65.939995 93.660004 C 65.377052 93.375084 64.869171 92.992485 64.439995 92.530006 C 63.532074 92.541023 62.668015 92.140244 62.089996 91.440010 C 61.485706 90.594902 61.192448 89.566742 61.259995 88.530006 Z M 62.990002 88.529999 C 62.955845 89.220573 63.096882 89.908569 63.400002 90.529999 C 63.634735 90.977013 64.105476 91.249344 64.610001 91.229996 C 65.111595 91.247879 65.578667 90.975418 65.809998 90.529999 C 66.350082 89.216690 66.350082 87.743309 65.809998 86.430000 C 65.383133 85.758972 64.493126 85.561043 63.822098 85.987900 C 63.644131 86.101112 63.493210 86.252029 63.379997 86.430000 C 63.069721 87.084038 62.938587 87.808708 62.999996 88.529999 Z" fill="#232F3E"/></g><g id="ICONS_-_EDIT"><path d=" M 28.790001 44.869999 L 27.379999 43.459999 L 29.750000 41.080002 L 27.370001 38.700001 L 28.790001 37.290001 L 31.870001 40.369999 C 32.262123 40.758919 32.264721 41.392078 31.875799 41.784199 C 31.873875 41.786140 31.871941 41.788071 31.870001 41.789997 Z" fill="#FFFFFF"/><rect x="23.000000" y="39.990000" width="8.000000" height="2.000000" fill="#FFFFFF"/><path d=" M 51.139999 44.869999 L 49.730000 43.459999 L 52.110001 41.080002 L 49.730000 38.700001 L 51.139999 37.290001 L 54.230000 40.369999 C 54.622120 40.758919 54.624718 41.392078 54.235798 41.784199 C 54.233871 41.786140 54.231941 41.788071 54.230000 41.789997 Z" fill="#FFFFFF"/><rect x="45.000000" y="39.990000" width="8.000000" height="2.000000" fill="#FFFFFF"/><path d=" M 54.500000 60.000000 C 52.020248 59.994377 50.014568 57.979588 50.020187 55.499832 C 50.025810 53.020081 52.040600 51.014400 54.520355 51.020020 C 57.000107 51.025642 59.005787 53.040432 59.000168 55.520187 C 58.997471 56.709972 58.522652 57.850040 57.680000 58.689999 L 57.680000 58.689999 C 56.834644 59.529560 55.691422 60.000511 54.500000 60.000000 Z M 54.500000 53.000000 C 53.119289 53.002472 52.002007 54.123760 52.004478 55.504471 C 52.006950 56.885181 53.128239 58.002464 54.508949 57.999992 C 55.169342 57.998810 55.802444 57.736378 56.270004 57.270000 L 56.270000 57.270000 C 57.242062 56.281700 57.228901 54.692509 56.240597 53.720448 C 55.775940 53.263424 55.151730 53.005058 54.500000 53.000000 Z" fill="#FFFFFF"/><path d=" M 60.500000 45.000000 C 58.020248 44.994377 56.014568 42.979588 56.020187 40.499832 C 56.025810 38.020081 58.040600 36.014400 60.520355 36.020020 C 63.000107 36.025642 65.005791 38.040432 65.000168 40.520187 C 64.997475 41.709972 64.522652 42.850040 63.680000 43.689999 L 63.680000 43.689999 C 62.834644 44.529560 61.691422 45.000511 60.500000 45.000000 Z M 60.500000 38.000000 C 59.119289 38.002472 58.002007 39.123760 58.004478 40.504471 C 58.006950 41.885181 59.128239 43.002464 60.508949 42.999992 C 61.169342 42.998810 61.802444 42.736378 62.270004 42.270000 L 62.270000 42.270000 C 63.242062 41.281700 63.228901 39.692509 62.240597 38.720448 C 61.775940 38.263424 61.151730 38.005058 60.500000 38.000000 Z" fill="#FFFFFF"/><path d=" M 54.500000 30.000000 C 52.020248 29.994379 50.014568 27.979586 50.020187 25.499834 C 50.025810 23.020082 52.040600 21.014402 54.520355 21.020023 C 57.000107 21.025644 59.005787 23.040438 59.000168 25.520189 C 58.997471 26.709972 58.522652 27.850042 57.680000 28.690001 L 57.680000 28.690001 C 56.834644 29.529562 55.691422 30.000511 54.500000 30.000000 Z M 54.500000 23.000000 C 53.119289 23.002470 52.002007 24.123758 52.004478 25.504469 C 52.006950 26.885180 53.128239 28.002462 54.508949 27.999992 C 55.169342 27.998812 55.802444 27.736378 56.270004 27.270000 L 56.270000 27.270000 C 57.242062 26.281698 57.228901 24.692509 56.240597 23.720446 C 55.775940 23.263422 55.151730 23.005058 54.500000 23.000000 Z" fill="#FFFFFF"/><path d=" M 19.500000 45.000000 C 18.308577 45.000511 17.165356 44.529560 16.320000 43.689999 L 16.320000 43.689999 C 14.552689 41.934803 14.542869 39.079243 16.298065 37.311932 C 18.053263 35.544621 20.908819 35.534801 22.676130 37.289997 C 24.443441 39.045193 24.453260 41.900753 22.698065 43.668064 C 21.851873 44.520096 20.700830 44.999481 19.500000 44.999996 Z M 19.500000 38.000000 C 18.119289 37.997528 16.998001 39.114815 16.995531 40.495522 C 16.994341 41.161209 17.258692 41.799881 17.730000 42.269997 L 17.730000 42.270000 C 18.707546 43.245075 20.290457 43.243069 21.265532 42.265522 C 22.240604 41.287975 22.238602 39.705063 21.261055 38.729992 C 20.793495 38.263615 20.160395 38.001183 19.500000 38.000000 Z" fill="#FFFFFF"/><path d=" M 47.830002 49.939999 C 47.567661 49.938892 47.316261 49.834743 47.130001 49.649998 C 45.101692 47.802238 42.432262 46.819141 39.690002 46.909996 C 36.944664 46.818638 34.271938 47.801628 32.240002 49.649998 C 31.849964 50.037720 31.220039 50.037720 30.830002 49.649998 C 30.442278 49.259960 30.442278 48.630035 30.830002 48.239998 C 34.520000 44.549999 34.520000 37.040001 30.830000 33.360001 C 30.642813 33.171280 30.538464 32.915802 30.539999 32.650002 C 30.538462 32.384197 30.642813 32.128719 30.830000 31.940002 C 31.220037 31.552279 31.849962 31.552279 32.240002 31.940002 C 35.930000 35.630001 43.439999 35.630001 47.130001 31.940001 C 47.520039 31.552277 48.149963 31.552277 48.540001 31.940001 C 48.727188 32.128719 48.831539 32.384197 48.830002 32.650002 C 48.831539 32.915806 48.727188 33.171284 48.540001 33.360001 C 44.860001 37.040001 44.860001 44.549999 48.540001 48.240002 C 48.926605 48.634407 48.920280 49.267540 48.525875 49.654144 C 48.339966 49.836376 48.090324 49.938927 47.830002 49.940002 Z M 34.700001 35.810001 C 35.897228 39.035831 35.897228 42.584171 34.700001 45.810001 C 37.931644 44.645588 41.468357 44.645588 44.700001 45.810001 C 43.497414 42.585133 43.497414 39.034870 44.700001 35.810001 C 41.475948 37.017090 37.924053 37.017090 34.700001 35.810001 Z" fill="#FFFFFF"/><path d=" M 48.750000 22.100000 C 43.303333 19.307697 36.874371 19.178600 31.320000 21.750000 L 30.480000 19.930000 C 36.593510 17.105410 43.666367 17.249226 49.660000 20.320000 Z" fill="#FFFFFF"/><path d=" M 20.549999 34.520000 L 18.639999 33.939999 C 19.194920 32.123165 19.988516 30.388016 21.000000 28.779999 L 22.700001 29.840000 C 21.780500 31.298586 21.057589 32.872181 20.550001 34.520000 Z" fill="#FFFFFF"/><path d=" M 58.849998 34.380001 C 58.370590 32.958652 57.750870 31.588562 57.000000 30.290001 L 58.720001 29.290001 C 59.553787 30.699289 60.240719 32.190437 60.770000 33.740002 Z" fill="#FFFFFF"/><path d=" M 58.939999 50.799999 L 57.220001 49.799999 C 58.031609 48.428135 58.701717 46.977348 59.220001 45.469997 L 61.119999 46.119999 C 60.548698 47.747768 59.818512 49.315331 58.939999 50.799999 Z" fill="#FFFFFF"/><path d=" M 39.689999 62.090000 C 36.327843 62.093517 33.010769 61.316452 29.999998 59.820000 L 30.860001 58.000000 C 36.544697 60.805508 43.222847 60.749859 48.860001 57.849998 L 49.770000 59.630001 C 46.653236 61.239395 43.197750 62.082699 39.689999 62.090000 Z" fill="#FFFFFF"/><path d=" M 20.620001 51.340000 C 19.744385 49.820507 19.043270 48.206936 18.530001 46.529999 L 20.440001 45.939999 C 20.909702 47.475235 21.553911 48.951546 22.360001 50.340000 Z" fill="#FFFFFF"/><path d=" M 25.500000 60.000000 C 24.308577 60.000511 23.165356 59.529560 22.320000 58.689999 L 22.320000 58.689999 C 20.552689 56.934803 20.542870 54.079243 22.298065 52.311932 C 24.053263 50.544621 26.908819 50.534801 28.676130 52.289997 C 30.443441 54.045193 30.453260 56.900753 28.698065 58.668064 C 27.851873 59.520096 26.700830 59.999481 25.500000 59.999996 Z M 25.500000 53.000000 C 24.119289 52.997528 22.998001 54.114815 22.995531 55.495522 C 22.994341 56.161209 23.258692 56.799881 23.730000 57.269997 L 23.730000 57.270000 C 24.707546 58.245075 26.290457 58.243069 27.265532 57.265522 C 28.240604 56.287975 28.238602 54.705063 27.261055 53.729992 C 26.793495 53.263615 26.160395 53.001183 25.500000 53.000000 Z" fill="#FFFFFF"/><path d=" M 25.500000 30.000000 C 24.308577 30.000511 23.165356 29.529562 22.320000 28.690001 L 22.320000 28.690001 C 20.552689 26.934803 20.542870 24.079247 22.298065 22.311935 C 24.053263 20.544624 26.908819 20.534805 28.676130 22.290001 C 30.443441 24.045198 30.453260 26.900755 28.698065 28.668066 C 27.851873 29.520098 26.700830 29.999485 25.500000 30.000000 Z M 25.500000 23.000000 C 24.119289 22.997530 22.998001 24.114813 22.995531 25.495523 C 22.994341 26.161211 23.258692 26.799885 23.730000 27.270000 L 23.730000 27.270000 C 24.707546 28.245073 26.290457 28.243071 27.265532 27.265524 C 28.240604 26.287977 28.238602 24.705067 27.261055 23.729992 C 26.793495 23.263615 26.160395 23.001181 25.500000 23.000000 Z" fill="#FFFFFF"/></g></svg>