<svg version="1.1" viewBox="0.000000 0.000000 80.000000 100.000000" xmlns="http://www.w3.org/2000/svg" xmlns:xlink="http://www.w3.org/1999/xlink" overflow="hidden"><defs></defs><g id="CARDS"><rect x="1.000000" y="1.000000" width="78.000000" height="78.000000" fill="#232F3E"/><path d=" M 0.000000 0.000000 L 0.000000 80.000000 L 0.000000 80.000000 L 0.000000 100.000000 L 80.000000 100.000000 L 80.000000 80.000000 L 80.000000 80.000000 L 80.000000 0.000000 Z M 1.000000 1.000000 L 79.000000 1.000000 L 79.000000 79.000000 L 1.000000 79.000000 Z" fill="#FFFFFF"/></g><g id="ICONS_-_EDIT"><path d=" M 56.000000 54.000000 L 51.000000 54.000000 C 50.447716 54.000000 50.000000 53.552284 50.000000 53.000000 L 50.000000 27.000000 C 50.000000 26.447716 50.447716 26.000000 51.000000 26.000000 L 56.000000 26.000000 L 56.000000 28.000000 L 52.000000 28.000000 L 52.000000 52.000000 L 56.000000 52.000000 Z" fill="#FFFFFF"/><rect x="43.000000" y="39.000000" width="15.000000" height="2.000000" fill="#FFFFFF"/><path d=" M 33.610001 52.000000 L 33.000000 52.000000 C 32.447716 52.000000 32.000000 51.552284 32.000000 51.000000 L 32.000000 45.299999 L 27.580000 34.060001 L 29.440001 33.330002 L 33.930000 44.750000 C 33.978073 44.863838 34.001911 44.986443 34.000000 45.110001 L 34.000000 49.840000 C 34.615986 49.514870 35.204582 49.140308 35.759998 48.720001 L 36.000000 48.549999 L 36.000000 45.080002 C 36.000938 44.923458 36.038616 44.769325 36.110001 44.630001 L 41.860001 33.209999 L 43.639999 34.110001 L 38.000000 45.320000 L 38.000000 49.080002 C 38.002857 49.423542 37.829163 49.744495 37.540001 49.930000 C 37.369999 50.029999 37.160000 50.180000 36.919998 50.349998 C 35.997013 51.131310 34.910236 51.695206 33.739998 52.000000 Z" fill="#FFFFFF"/><path d=" M 35.570000 37.000000 C 34.750000 37.000000 27.510000 36.919998 27.510000 34.000000 C 27.510000 31.080000 34.750000 31.000000 35.570000 31.000000 C 36.389999 31.000000 43.639999 31.090000 43.639999 34.000000 C 43.639999 36.910000 36.400002 37.000000 35.570000 37.000000 Z M 29.670000 34.000000 C 30.340000 34.419998 32.380001 35.000000 35.570000 35.000000 C 38.759998 35.000000 40.810001 34.400002 41.480000 34.000000 C 40.810001 33.580002 38.759998 33.000000 35.570000 33.000000 C 32.380001 33.000000 30.340000 33.560001 29.670000 34.000000 Z" fill="#FFFFFF"/><rect x="22.000000" y="39.000000" width="6.000000" height="2.000000" fill="#FFFFFF"/><path d=" M 40.000000 63.000000 C 28.510792 62.973896 18.795067 54.490761 17.219999 43.110001 L 19.219999 42.849998 C 20.643209 53.239849 29.513134 60.987160 40.000000 61.000000 C 44.406906 60.997131 48.699356 59.596661 52.259998 57.000000 L 53.430000 58.630001 C 49.526798 61.467678 44.825703 62.997372 40.000000 63.000000 Z" fill="#FFFFFF"/><path d=" M 19.200001 37.150002 L 17.200001 36.889999 C 18.916079 24.303902 30.510283 15.492011 43.096378 17.208090 C 46.691208 17.698235 50.119091 19.031853 53.099998 21.100000 L 52.000000 22.740000 C 42.478832 16.117273 29.391621 18.466923 22.768894 27.988091 C 20.870996 30.716604 19.647840 33.856636 19.200001 37.149998 Z" fill="#FFFFFF"/><path d=" M 19.000000 44.000000 C 16.790861 44.000000 15.000000 42.209141 15.000000 40.000000 C 15.000000 37.790859 16.790861 36.000000 19.000000 36.000000 C 21.209139 36.000000 23.000000 37.790859 23.000000 40.000000 C 23.000000 42.209141 21.209139 44.000000 19.000000 44.000000 Z M 19.000000 38.000000 C 17.895430 38.000000 17.000000 38.895432 17.000000 40.000000 C 17.000000 41.104568 17.895430 42.000000 19.000000 42.000000 C 20.104570 42.000000 21.000000 41.104568 21.000000 40.000000 C 21.000000 38.895432 20.104570 38.000000 19.000000 38.000000 Z" fill="#FFFFFF"/><path d=" M 61.000000 44.000000 C 58.790859 44.000000 57.000000 42.209141 57.000000 40.000000 C 57.000000 37.790859 58.790859 36.000000 61.000000 36.000000 C 63.209141 36.000000 65.000000 37.790859 65.000000 40.000000 C 65.000000 42.209141 63.209141 44.000000 61.000000 44.000000 Z M 61.000000 38.000000 C 59.895432 38.000000 59.000000 38.895432 59.000000 40.000000 C 59.000000 41.104568 59.895432 42.000000 61.000000 42.000000 C 62.104568 42.000000 63.000000 41.104568 63.000000 40.000000 C 63.000000 38.895432 62.104568 38.000000 61.000000 38.000000 Z" fill="#FFFFFF"/><path d=" M 58.000000 31.000000 C 55.790859 31.000000 54.000000 29.209139 54.000000 27.000000 C 54.000000 24.790861 55.790859 23.000000 58.000000 23.000000 C 60.209141 23.000000 62.000000 24.790861 62.000000 27.000000 C 62.000000 29.209139 60.209141 31.000000 58.000000 31.000000 Z M 58.000000 25.000000 C 56.895432 25.000000 56.000000 25.895430 56.000000 27.000000 C 56.000000 28.104570 56.895432 29.000000 58.000000 29.000000 C 59.104568 29.000000 60.000000 28.104570 60.000000 27.000000 C 60.000000 25.895430 59.104568 25.000000 58.000000 25.000000 Z" fill="#FFFFFF"/><path d=" M 58.000000 57.000000 C 55.790859 57.000000 54.000000 55.209141 54.000000 53.000000 C 54.000000 50.790859 55.790859 49.000000 58.000000 49.000000 C 60.209141 49.000000 62.000000 50.790859 62.000000 53.000000 C 62.000000 55.209141 60.209141 57.000000 58.000000 57.000000 Z M 58.000000 51.000000 C 56.895432 51.000000 56.000000 51.895432 56.000000 53.000000 C 56.000000 54.104568 56.895432 55.000000 58.000000 55.000000 C 59.104568 55.000000 60.000000 54.104568 60.000000 53.000000 C 60.000000 51.895432 59.104568 51.000000 58.000000 51.000000 Z" fill="#FFFFFF"/><path d=" M 14.910000 92.120003 L 14.480000 90.300003 L 12.480000 90.300003 L 12.060000 92.120003 L 10.280000 92.120003 L 12.600000 84.489998 L 14.470000 84.489998 L 16.770000 92.120003 Z M 12.730000 89.199997 L 14.220000 89.199997 L 13.470000 86.000000 Z" fill="#232F3E"/><path d=" M 23.620001 92.120003 L 23.620001 88.410004 C 23.641563 88.171272 23.592903 87.931450 23.480001 87.720001 C 23.376574 87.559357 23.189209 87.473488 23.000002 87.500000 C 22.714830 87.513275 22.438492 87.603088 22.200003 87.760002 C 22.204821 87.799858 22.204821 87.840149 22.200003 87.880005 L 22.200001 92.120003 L 20.590000 92.120003 L 20.590000 88.410004 C 20.606665 88.171570 20.558275 87.933090 20.450001 87.720001 C 20.348825 87.572983 20.178162 87.489548 20.000000 87.500000 C 19.721336 87.514870 19.451855 87.604698 19.219999 87.760002 L 19.219999 92.120003 L 17.549999 92.120003 L 17.549999 86.489998 L 18.900000 86.489998 L 19.000000 87.000000 C 19.525705 86.608971 20.155632 86.382751 20.809999 86.349998 C 21.299931 86.314003 21.765520 86.568321 22.000000 87.000000 C 22.530991 86.601845 23.167450 86.368820 23.830000 86.330002 C 24.208605 86.317619 24.573778 86.470993 24.830000 86.750000 C 25.125986 87.098038 25.282717 87.543297 25.270000 88.000000 L 25.270000 92.129997 Z" fill="#232F3E"/><path d=" M 29.570000 92.120003 L 29.430000 91.610001 C 29.276903 91.814682 29.073725 91.976532 28.840000 92.080002 C 28.596252 92.196205 28.330021 92.257645 28.059999 92.260002 C 27.617800 92.283386 27.186081 92.120132 26.869999 91.810005 C 26.259264 91.062553 26.302176 89.976921 26.969999 89.280006 C 27.367273 88.943100 27.880316 88.774475 28.400000 88.810005 C 28.714029 88.816673 29.026178 88.860306 29.330000 88.940002 L 29.330000 88.430000 C 29.357573 88.159760 29.301737 87.887558 29.170000 87.650002 C 29.005478 87.497711 28.782753 87.424690 28.559999 87.450005 C 27.955545 87.475235 27.358566 87.593277 26.789999 87.800003 L 26.790001 86.800003 C 27.076567 86.640450 27.387356 86.528969 27.710001 86.470001 C 28.088018 86.389488 28.473505 86.349258 28.860001 86.349998 C 29.403799 86.302094 29.945883 86.459015 30.380001 86.790001 C 30.724775 87.166855 30.895323 87.671242 30.850000 88.180000 L 30.850000 92.120003 Z M 28.570000 91.199997 C 28.868345 91.188400 29.150970 91.063187 29.360001 90.849998 L 29.360001 89.769997 C 29.157587 89.717979 28.948915 89.694420 28.740000 89.699997 C 28.539068 89.681969 28.340710 89.755432 28.199999 89.899994 C 28.060946 90.063690 27.992603 90.275917 28.009998 90.489990 C 27.999708 90.675301 28.052591 90.858627 28.159998 91.009987 C 28.251194 91.127792 28.391033 91.197716 28.539997 91.199989 Z" fill="#232F3E"/><path d=" M 31.840000 92.120003 L 31.840000 91.050003 L 34.330002 87.650002 L 31.930000 87.650002 L 31.930000 86.489998 L 36.070000 86.489998 L 36.070000 87.559998 L 33.570000 91.000000 L 36.119999 91.000000 L 36.119999 92.160004 Z" fill="#232F3E"/><path d=" M 39.360001 92.260002 C 38.658314 92.298088 37.977448 92.014702 37.510002 91.490005 C 36.643986 90.162056 36.643986 88.447960 37.510002 87.120003 C 38.521751 86.101036 40.167969 86.095184 41.186935 87.106934 C 41.191307 87.111275 41.195663 87.115631 41.200005 87.120003 C 42.066021 88.447952 42.066021 90.162048 41.200005 91.490005 C 40.736542 92.014328 40.058773 92.297966 39.360004 92.260002 Z M 39.360001 91.110001 C 39.643585 91.119133 39.901272 90.945999 40.000000 90.680000 C 40.266796 89.786148 40.266796 88.833847 40.000000 87.940002 C 39.864635 87.583778 39.466122 87.404739 39.109898 87.540108 C 38.925583 87.610146 38.780041 87.755692 38.709999 87.940002 C 38.443203 88.833855 38.443203 89.786156 38.709999 90.680000 C 38.812439 90.947571 39.073681 91.120384 39.360001 91.110001 Z" fill="#232F3E"/><path d=" M 46.110001 92.120003 L 46.110001 88.419998 C 46.131222 88.178078 46.082634 87.935150 45.970001 87.720001 C 45.857307 87.564873 45.670811 87.481140 45.480000 87.500000 C 45.187790 87.508636 44.903797 87.598679 44.660000 87.760002 L 44.660000 92.120003 L 43.000000 92.120003 L 43.000000 86.489998 L 44.349998 86.489998 L 44.480000 87.000000 C 45.014370 86.603905 45.655399 86.377449 46.320000 86.349998 C 46.721432 86.323578 47.113728 86.477562 47.389999 86.769997 C 47.657894 87.121826 47.789330 87.558762 47.759998 88.000000 L 47.759998 92.129997 Z" fill="#232F3E"/><path d=" M 53.139999 88.720001 C 52.642723 88.488533 52.204914 88.146492 51.860001 87.720001 C 51.597679 87.364349 51.460537 86.931831 51.470001 86.489998 C 51.463390 86.074722 51.581860 85.667061 51.810001 85.320000 C 52.038216 84.981979 52.357067 84.715111 52.730000 84.550003 C 53.154984 84.362816 53.615711 84.270668 54.079998 84.280006 C 54.729565 84.283966 55.371922 84.416512 55.969997 84.670006 L 55.970001 85.839996 C 55.417973 85.638832 54.837280 85.527420 54.250000 85.509995 C 53.965069 85.494614 53.683254 85.575630 53.450001 85.739998 C 53.257278 85.895248 53.149666 86.132736 53.160000 86.379997 C 53.150494 86.583939 53.218353 86.783943 53.349998 86.939995 C 53.553886 87.148468 53.799141 87.311974 54.070000 87.419998 L 54.720001 87.739998 C 55.075195 87.909126 55.410572 88.117058 55.720001 88.360001 C 55.952377 88.543716 56.137516 88.780281 56.260002 89.050003 C 56.387581 89.339500 56.449070 89.653778 56.440002 89.970001 C 56.470264 90.606476 56.195431 91.219284 55.700001 91.620003 C 55.122971 92.046585 54.416882 92.261948 53.700001 92.230003 C 53.320202 92.229126 52.941513 92.188911 52.570000 92.110001 C 52.240887 92.044647 51.921581 91.937088 51.619999 91.790001 L 51.619999 90.690002 C 51.947159 90.796326 52.281292 90.879860 52.619999 90.940002 C 52.949120 91.008118 53.283943 91.044945 53.619999 91.050003 C 53.933754 91.074234 54.245842 90.985565 54.500000 90.800003 C 54.706394 90.623909 54.817593 90.360741 54.799999 90.090004 C 54.806087 89.877037 54.731022 89.669708 54.590000 89.510002 C 54.386230 89.313255 54.149239 89.154137 53.889999 89.040001 Z" fill="#232F3E"/><path d=" M 59.070000 86.750000 L 59.070000 92.120003 L 57.669998 92.120003 L 57.669998 84.489998 L 59.549999 84.489998 L 62.070000 89.839996 L 62.070000 84.489998 L 63.459999 84.489998 L 63.459999 92.120003 L 61.610001 92.120003 Z" fill="#232F3E"/><path d=" M 66.430000 88.720001 C 65.932724 88.488533 65.494911 88.146492 65.150002 87.720001 C 64.887680 87.364349 64.750542 86.931831 64.760002 86.489998 C 64.753395 86.074722 64.871857 85.667061 65.099998 85.320000 C 65.329613 85.003258 65.640579 84.754486 66.000000 84.599998 C 66.424980 84.412811 66.885712 84.320663 67.349998 84.330002 C 67.999565 84.333961 68.641922 84.466507 69.239998 84.720001 L 69.239998 85.889999 C 68.684799 85.687782 68.100647 85.576355 67.509995 85.559998 C 67.228340 85.546104 66.950172 85.627090 66.719994 85.790001 C 66.527275 85.945251 66.419662 86.182739 66.429993 86.430000 C 66.420486 86.633942 66.488350 86.833946 66.619995 86.989998 C 66.821877 87.196236 67.063385 87.359512 67.329994 87.470001 L 67.980003 87.790001 C 68.336052 87.957550 68.671600 88.165596 68.980003 88.410004 C 69.208794 88.597267 69.393219 88.832916 69.520004 89.100006 C 69.647583 89.389503 69.709068 89.703781 69.700005 90.020004 C 69.739975 90.649628 69.480522 91.261192 69.000008 91.670006 C 68.424484 92.099579 67.717308 92.315269 67.000008 92.280006 C 66.620178 92.279640 66.241440 92.239418 65.870010 92.160004 C 65.523773 92.098900 65.187393 91.991257 64.870010 91.840004 L 64.870003 90.690002 C 65.197365 90.795639 65.531448 90.879158 65.870003 90.940002 C 66.199303 91.006973 66.534019 91.043793 66.870003 91.050003 C 67.183762 91.074234 67.495850 90.985565 67.750000 90.800003 C 67.956398 90.623909 68.067589 90.360741 68.050003 90.090004 C 68.056091 89.877037 67.981026 89.669708 67.840004 89.510002 C 67.636230 89.313255 67.399246 89.154137 67.140007 89.040001 Z" fill="#232F3E"/></g></svg>