<svg version="1.1" width="80.000000" height="100.000000" viewBox="0.000000 0.000000 80.000000 100.000000" xmlns="http://www.w3.org/2000/svg" xmlns:xlink="http://www.w3.org/1999/xlink" overflow="hidden"><g id="CARDS"><rect x="1.000000" y="1.000000" width="78.000000" height="78.000000" fill="#232F3E"/><path d=" M 0.000000 0.000000 L 0.000000 80.000000 L 0.000000 80.000000 L 0.000000 100.000000 L 80.000000 100.000000 L 80.000000 80.000000 L 80.000000 80.000000 L 80.000000 0.000000 Z M 1.000000 1.000000 L 79.000000 1.000000 L 79.000000 79.000000 L 1.000000 79.000000 Z" fill="#FFFFFF"/></g><g id="TEXT_-_EDIT"><path d=" M 14.330000 92.349998 L 13.900000 90.529999 L 11.900000 90.529999 L 11.480000 92.349998 L 9.710000 92.349998 L 12.000000 84.720001 L 13.870000 84.720001 L 16.170000 92.349998 Z M 12.150000 89.430000 L 13.650000 89.430000 L 12.890000 86.269997 Z" fill="#232F3E"/><path d=" M 23.000000 92.349998 L 23.000000 88.639999 C 23.024448 88.421562 22.989918 88.200569 22.900000 88.000000 C 22.799904 87.846375 22.622417 87.761490 22.440001 87.779999 C 22.157711 87.792061 21.884275 87.882050 21.650000 88.040001 C 21.650000 88.040001 21.650000 88.120003 21.650000 88.160004 L 21.650000 92.400002 L 20.000000 92.400002 L 20.000000 88.639999 C 20.016665 88.401566 19.968275 88.163086 19.860001 87.949997 C 19.756632 87.794739 19.575438 87.709923 19.390001 87.729996 C 19.111338 87.744865 18.841856 87.834694 18.610001 87.989998 L 18.610001 92.349998 L 17.000000 92.349998 L 17.000000 86.720001 L 18.350000 86.720001 L 18.480000 87.230003 C 19.006557 86.840569 19.635988 86.614525 20.289999 86.580002 C 20.787903 86.543671 21.259682 86.807076 21.490000 87.250000 C 22.024073 86.850533 22.664112 86.617470 23.330000 86.580002 C 23.709106 86.564880 24.075386 86.718712 24.330000 87.000000 C 24.590429 87.351334 24.717972 87.783562 24.690001 88.220001 L 24.690001 92.349998 Z" fill="#232F3E"/><path d=" M 29.000000 92.349998 L 28.860001 91.839996 C 28.706903 92.044678 28.503725 92.206528 28.270000 92.309998 C 28.026253 92.426201 27.760021 92.487640 27.490000 92.489998 C 27.041304 92.505516 26.607676 92.326958 26.299999 92.000000 C 25.993969 91.669823 25.835167 91.229507 25.859999 90.779999 C 25.836857 90.286880 26.030481 89.808296 26.389999 89.470001 C 26.793379 89.137032 27.307858 88.969109 27.830000 89.000000 C 28.140675 89.007446 28.449425 89.051079 28.750000 89.129997 L 28.750000 88.620003 C 28.777573 88.349762 28.721737 88.077560 28.590000 87.840004 C 28.425478 87.687714 28.202753 87.614693 27.980000 87.640007 C 27.375546 87.665237 26.778566 87.783279 26.209999 87.990005 L 26.209999 87.000000 C 26.496565 86.840446 26.807354 86.728966 27.129999 86.669998 C 27.508017 86.589485 27.893503 86.549255 28.279999 86.549995 C 28.825083 86.504929 29.367302 86.665451 29.799999 86.999992 C 30.144773 87.376846 30.315321 87.881233 30.269999 88.389992 L 30.270000 92.330002 Z M 28.000000 91.430000 C 28.298346 91.418404 28.580971 91.293190 28.790001 91.080002 L 28.790001 90.000000 C 28.587587 89.947983 28.378916 89.924423 28.170000 89.930000 C 27.969263 89.913399 27.771496 89.986649 27.629999 90.129997 C 27.494661 90.295738 27.426811 90.506424 27.439999 90.719994 C 27.428278 90.907021 27.485167 91.091904 27.599998 91.239990 C 27.693272 91.366104 27.843313 91.437370 27.999998 91.429993 Z" fill="#232F3E"/><path d=" M 31.260000 92.349998 L 31.260000 91.279999 L 33.750000 87.879997 L 31.360001 87.879997 L 31.360001 86.720001 L 35.490002 86.720001 L 35.490002 87.790001 L 33.000000 91.190002 L 35.549999 91.190002 L 35.549999 92.349998 Z" fill="#232F3E"/><path d=" M 38.779999 92.489998 C 38.078312 92.528084 37.397446 92.244698 36.930000 91.720001 C 36.063984 90.392052 36.063984 88.677956 36.930000 87.349998 C 37.941750 86.331032 39.587967 86.325180 40.606934 87.336929 C 40.611305 87.341270 40.615662 87.345627 40.620003 87.349998 C 41.486019 88.677948 41.486019 90.392044 40.620003 91.720001 C 40.156540 92.244324 39.478771 92.527962 38.780003 92.489998 Z M 38.779999 91.339996 C 39.063583 91.349129 39.321270 91.175995 39.419998 90.909996 C 39.686794 90.016144 39.686794 89.063843 39.419998 88.169998 C 39.324673 87.900047 39.066181 87.722336 38.779999 87.729996 C 38.491108 87.721107 38.229080 87.898483 38.129997 88.169998 C 37.863201 89.063850 37.863201 90.016151 38.129997 90.909996 C 38.232437 91.177567 38.493679 91.350380 38.779999 91.339996 Z" fill="#232F3E"/><path d=" M 45.540001 92.349998 L 45.540001 88.650002 C 45.559315 88.407036 45.507175 88.163719 45.389999 87.950005 C 45.277306 87.794876 45.090809 87.711143 44.899998 87.730003 C 44.607788 87.738640 44.323795 87.828682 44.079998 87.990005 L 44.080002 92.349998 L 42.430000 92.349998 L 42.430000 86.720001 L 43.779999 86.720001 L 43.910000 87.230003 C 44.445240 86.835541 45.085751 86.609268 45.750000 86.580002 C 46.151432 86.553581 46.543728 86.707565 46.820000 87.000000 C 47.085579 87.349174 47.216885 87.782127 47.189999 88.220001 L 47.189999 92.349998 Z" fill="#232F3E"/><path d=" M 52.560001 89.000000 C 52.062725 88.768532 51.624916 88.426491 51.280003 88.000000 C 51.021236 87.643089 50.887646 87.210678 50.900002 86.769997 C 50.889805 86.355682 51.004814 85.947922 51.230003 85.599998 C 51.462128 85.261627 51.784260 84.994911 52.160004 84.830002 C 52.581120 84.641739 53.038841 84.549515 53.500004 84.560005 C 54.149570 84.563965 54.791927 84.696510 55.390003 84.950005 L 55.389999 86.120003 C 54.838253 85.917831 54.257393 85.806381 53.669998 85.790001 C 53.385067 85.774620 53.103252 85.855637 52.869999 86.020004 C 52.677277 86.175255 52.569664 86.412743 52.579998 86.660004 C 52.575146 86.863258 52.642460 87.061668 52.769997 87.220001 C 52.973885 87.428474 53.219139 87.591980 53.489998 87.700005 L 54.139999 88.019997 C 54.497837 88.184235 54.833771 88.392517 55.139999 88.639999 C 55.375286 88.820801 55.561043 89.058159 55.680000 89.330002 C 55.807579 89.619499 55.869068 89.933777 55.860001 90.250000 C 55.890263 90.886475 55.615429 91.499283 55.119999 91.900002 C 54.542969 92.326584 53.836880 92.541946 53.119999 92.510002 C 52.740200 92.509125 52.361511 92.468910 51.989998 92.389999 C 51.644218 92.327065 51.308075 92.219498 50.989998 92.070000 L 50.990002 90.919998 C 51.317162 91.026321 51.651295 91.109856 51.990002 91.169998 C 52.302731 91.235054 52.620678 91.271873 52.940002 91.279999 C 53.253757 91.304230 53.565845 91.215561 53.820004 91.029999 C 54.028824 90.854942 54.143562 90.592155 54.130005 90.320000 C 54.136539 90.105133 54.057396 89.896484 53.910004 89.739998 C 53.706234 89.543251 53.469242 89.384132 53.210003 89.269997 Z" fill="#232F3E"/><path d=" M 56.869999 88.529999 C 56.806969 87.479919 57.118828 86.441574 57.750000 85.599998 C 59.080261 84.235855 61.264507 84.208389 62.628651 85.538651 C 62.649357 85.558846 62.669807 85.579292 62.689999 85.599998 C 63.325970 86.439148 63.638374 87.479309 63.570000 88.529999 C 63.599472 89.389030 63.402924 90.240753 63.000000 91.000000 C 62.662422 91.630951 62.097607 92.109978 61.419998 92.339996 C 61.669884 92.529984 61.950668 92.675446 62.250000 92.769997 C 62.612564 92.890259 62.988884 92.964180 63.369999 92.989998 L 63.369999 94.250000 C 62.731632 94.155609 62.113281 93.956253 61.539997 93.660004 C 60.974052 93.375191 60.462868 92.992645 60.029999 92.530006 C 59.122078 92.541023 58.258018 92.140244 57.680000 91.440010 C 57.087238 90.590202 56.801556 89.563866 56.869999 88.530006 Z M 58.610001 88.529999 C 58.571369 89.220909 58.712639 89.910019 59.020000 90.529999 C 59.251331 90.975418 59.718410 91.247879 60.220001 91.229996 C 60.723923 91.246910 61.193462 90.975273 61.430000 90.529999 C 61.733120 89.908569 61.874157 89.220573 61.840000 88.529999 C 61.882683 87.820580 61.745075 87.111893 61.439999 86.470001 C 61.007202 85.796211 60.110142 85.600853 59.436352 86.033646 C 59.261276 86.146103 59.112453 86.294922 58.999996 86.470001 C 58.698772 87.112930 58.564636 87.821457 58.609997 88.529999 Z" fill="#232F3E"/><path d=" M 66.199997 89.000000 C 65.702721 88.768532 65.264908 88.426491 64.919998 88.000000 C 64.657677 87.644348 64.520538 87.211830 64.529999 86.769997 C 64.523392 86.354721 64.641853 85.947060 64.869995 85.599998 C 65.098206 85.261978 65.417061 84.995110 65.789993 84.830002 C 66.214973 84.642815 66.675705 84.550667 67.139992 84.560005 C 67.782791 84.583672 68.414719 84.733162 68.999992 85.000008 L 69.000000 86.169998 C 68.447975 85.968834 67.867279 85.857422 67.279999 85.839996 C 66.995064 85.824615 66.713257 85.905632 66.479996 86.070000 C 66.287277 86.225250 66.179665 86.462738 66.189995 86.709999 C 66.180489 86.913940 66.248352 87.113945 66.379997 87.269997 C 66.583885 87.478470 66.829140 87.641975 67.099998 87.750000 L 67.750000 88.070000 C 68.105194 88.239128 68.440567 88.447060 68.750000 88.690002 C 68.985291 88.870804 69.171043 89.108162 69.290001 89.380005 C 69.417580 89.669502 69.479065 89.983780 69.470001 90.300003 C 69.500259 90.936478 69.225426 91.549286 68.730003 91.950005 C 68.152969 92.376587 67.446884 92.591949 66.730003 92.560005 C 66.350204 92.559128 65.971519 92.518913 65.600006 92.440002 C 65.270889 92.374649 64.951591 92.267090 64.650009 92.120003 L 64.650002 90.919998 C 64.977165 91.026321 65.311295 91.109856 65.650002 91.169998 C 65.979118 91.238113 66.313942 91.274940 66.650002 91.279999 C 66.963760 91.304230 67.275848 91.215561 67.529999 91.029999 C 67.736397 90.853905 67.847588 90.590736 67.830002 90.320000 C 67.836090 90.107033 67.761024 89.899704 67.620003 89.739998 C 67.416229 89.543251 67.179245 89.384132 66.920006 89.269997 Z" fill="#232F3E"/></g><g id="ICONS_-_EDIT"><path d=" M 22.230000 33.840000 L 20.350000 33.180000 C 24.126110 22.371788 35.949039 16.671143 46.757252 20.447250 C 52.719501 22.530306 57.406944 27.217749 59.490002 33.180000 L 57.599998 33.830002 C 54.176350 24.062845 43.483093 18.920416 33.715935 22.344065 C 28.340710 24.228224 24.114157 28.454777 22.229998 33.830002 Z" fill="#FFFFFF"/><path d=" M 39.919998 60.720001 C 31.086987 60.721516 23.223204 55.125748 20.329998 46.780003 L 22.219999 46.130001 C 25.617775 55.906189 36.297382 61.076908 46.073566 57.679134 C 51.504177 55.791691 55.767895 51.515919 57.639999 46.080002 L 59.529999 46.720001 C 56.654869 55.096382 48.776077 60.721222 39.919998 60.720001 Z" fill="#FFFFFF"/><path d=" M 20.000000 45.000000 C 17.238581 44.995068 15.004006 42.752499 15.008938 39.991077 C 15.013869 37.229656 17.256441 34.995083 20.017860 35.000015 C 22.779280 35.004948 25.013855 37.247517 25.008923 40.008938 C 25.006556 41.334110 24.478222 42.604145 23.540001 43.540001 L 23.540001 43.540001 C 22.600494 44.477139 21.326990 45.002373 20.000000 45.000000 Z M 20.000000 37.000000 C 18.343151 37.004078 17.003315 38.350529 17.007395 40.007378 C 17.011475 41.664227 18.357922 43.004063 20.014772 42.999981 C 21.671621 42.995903 23.011457 41.649452 23.007378 39.992603 C 23.005415 39.195259 22.686115 38.431496 22.120001 37.869999 C 21.556297 37.310894 20.793949 36.998043 20.000000 37.000000 Z" fill="#FFFFFF"/><path d=" M 60.000000 45.000000 C 57.238579 44.995068 55.004005 42.752499 55.008938 39.991077 C 55.013870 37.229656 57.256439 34.995083 60.017860 35.000015 C 62.779282 35.004948 65.013855 37.247517 65.008926 40.008938 C 65.006561 41.334110 64.478226 42.604145 63.540005 43.540001 L 63.540001 43.540001 C 62.600494 44.477139 61.326988 45.002373 60.000000 45.000000 Z M 60.000000 37.000000 C 58.343151 37.004078 57.003315 38.350529 57.007397 40.007378 C 57.011475 41.664227 58.357925 43.004063 60.014774 42.999981 C 61.671623 42.995903 63.011459 41.649452 63.007378 39.992603 C 63.005413 39.195259 62.686115 38.431496 62.120003 37.869999 C 61.556301 37.310894 60.793953 36.998043 60.000004 37.000000 Z" fill="#FFFFFF"/><path d=" M 32.360001 48.660000 C 32.094196 48.661537 31.838720 48.557186 31.650002 48.369999 C 31.257879 47.981079 31.255283 47.347919 31.644203 46.955799 C 31.646128 46.953857 31.648062 46.951927 31.650002 46.950001 C 33.375984 45.055836 34.291367 42.560963 34.200001 40.000000 C 34.288727 37.442455 33.373524 34.951660 31.650002 33.060001 C 31.462814 32.871281 31.358465 32.615803 31.360001 32.350002 C 31.361105 32.087662 31.465256 31.836264 31.650002 31.650002 C 32.040039 31.262278 32.669964 31.262278 33.060001 31.650002 C 36.430000 35.020000 43.570000 35.020000 46.939999 31.650000 C 47.330036 31.262276 47.959961 31.262276 48.349998 31.650000 C 48.534744 31.836260 48.638893 32.087658 48.639999 32.349998 C 48.641537 32.615803 48.537186 32.871281 48.349998 33.059998 C 45.000000 36.450001 45.000000 43.580002 48.349998 47.000000 C 48.742119 47.388920 48.744717 48.022079 48.355797 48.414200 C 48.353870 48.416142 48.351940 48.418072 48.349998 48.419998 C 47.959961 48.807720 47.330036 48.807720 46.939999 48.419998 C 43.570000 45.040001 36.439999 45.049999 33.060001 48.419998 C 32.865940 48.586563 32.615440 48.672451 32.360001 48.660000 Z M 35.419998 35.439999 C 36.459763 38.401382 36.459763 41.628616 35.419998 44.590000 C 38.377880 43.529884 41.612118 43.529884 44.570000 44.590000 C 43.509884 41.632118 43.509884 38.397881 44.570000 35.439999 C 41.612991 36.505123 38.377010 36.505123 35.419998 35.439999 Z" fill="#FFFFFF"/><path d=" M 50.470001 43.610001 L 49.049999 42.189999 L 51.250000 40.000000 L 49.070000 37.820000 L 50.480000 36.410000 L 53.369999 39.290001 C 53.762119 39.678921 53.764717 40.312080 53.375797 40.704201 C 53.373871 40.706142 53.371941 40.708073 53.369999 40.709999 Z" fill="#FFFFFF"/><rect x="47.000000" y="39.020000" width="6.000000" height="2.000000" fill="#FFFFFF"/><path d=" M 29.889999 43.619999 L 28.480000 42.209999 L 30.680000 40.000000 L 28.480000 37.799999 L 29.889999 36.389999 L 32.799999 39.290001 C 32.987186 39.478722 33.091537 39.734200 33.090000 40.000000 C 33.088894 40.262341 32.984745 40.513741 32.799999 40.700001 Z" fill="#FFFFFF"/><rect x="26.000000" y="39.020000" width="6.000000" height="2.000000" fill="#FFFFFF"/></g></svg>