<svg version="1.1" width="80.000000" height="115.000000" viewBox="0.000000 0.000000 80.000000 115.000000" xmlns="http://www.w3.org/2000/svg" xmlns:xlink="http://www.w3.org/1999/xlink" overflow="hidden"><g id="CARDS"><rect x="1.000000" y="1.000000" width="78.000000" height="78.000000" fill="#232F3E"/><path d=" M 0.000000 0.000000 L 0.000000 80.000000 L 0.000000 80.000000 L 0.000000 115.000000 L 80.000000 115.000000 L 80.000000 80.000000 L 80.000000 80.000000 L 80.000000 0.000000 Z M 1.000000 1.000000 L 79.000000 1.000000 L 79.000000 79.000000 L 1.000000 79.000000 Z" fill="#FFFFFF"/></g><g id="TEXT_-_EDIT"><path d=" M 21.780001 92.349998 L 21.340000 90.529999 L 19.340000 90.529999 L 18.920000 92.349998 L 17.150000 92.349998 L 19.459999 84.720001 L 21.330000 84.720001 L 23.629999 92.349998 Z M 19.600000 89.430000 L 21.090000 89.430000 L 20.330000 86.269997 Z" fill="#232F3E"/><path d=" M 29.000000 92.349998 L 28.000000 86.720001 L 27.110001 92.349998 L 25.280001 92.349998 L 23.500000 84.720001 L 25.200001 84.720001 L 26.260000 90.779999 L 27.170000 85.000000 L 29.000000 85.000000 L 30.000000 90.680000 L 31.000000 84.680000 L 32.660000 84.680000 L 30.879999 92.309998 Z" fill="#232F3E"/><path d=" M 34.930000 89.000000 C 34.435402 88.768761 34.000801 88.426559 33.660000 88.000000 C 33.397678 87.644348 33.260536 87.211830 33.270000 86.769997 C 33.258892 86.354126 33.377739 85.945145 33.610001 85.599998 C 33.835701 85.259720 34.155289 84.992241 34.529999 84.830002 C 34.951813 84.643929 35.409042 84.551804 35.869999 84.560005 C 36.519764 84.562088 37.162483 84.694710 37.759998 84.950005 L 37.759998 86.120003 C 37.195587 85.913536 36.600864 85.802032 36.000000 85.790001 C 35.718349 85.776108 35.440178 85.857094 35.209999 86.020004 C 35.013199 86.172058 34.904575 86.411781 34.919998 86.660004 C 34.912312 86.862022 34.976040 87.060295 35.099998 87.220001 C 35.307770 87.423737 35.552021 87.586571 35.820000 87.700005 L 36.470001 88.019997 C 36.826054 88.187546 37.161602 88.395592 37.470001 88.639999 C 37.698788 88.827263 37.883213 89.062912 38.010002 89.330002 C 38.129375 89.621704 38.187252 89.934906 38.180000 90.250000 C 38.210262 90.886475 37.935429 91.499283 37.439999 91.900002 C 36.864475 92.329575 36.157295 92.545265 35.439999 92.510002 C 35.060139 92.510231 34.681335 92.470001 34.309998 92.389999 C 33.963337 92.330627 33.626724 92.222908 33.309998 92.070000 L 33.310001 90.919998 C 33.637020 91.026825 33.971188 91.110367 34.310001 91.169998 C 34.639122 91.238113 34.973946 91.274940 35.310001 91.279999 C 35.630863 91.298119 35.947311 91.198563 36.200001 91.000000 C 36.406395 90.823906 36.517593 90.560738 36.500000 90.290001 C 36.506088 90.077034 36.431023 89.869705 36.290001 89.709999 C 36.082325 89.513412 35.842091 89.354385 35.580002 89.239998 Z" fill="#232F3E"/><path d=" M 43.330002 89.000000 C 42.834530 88.765594 42.397331 88.424026 42.050003 88.000000 C 41.791237 87.643089 41.657646 87.210678 41.670002 86.769997 C 41.655941 86.355202 41.771271 85.946312 42.000004 85.599998 C 42.225704 85.259720 42.545292 84.992241 42.920002 84.830002 C 43.341423 84.642693 43.798927 84.550507 44.260002 84.560005 C 44.909767 84.562088 45.552486 84.694710 46.150002 84.950005 L 46.150002 86.120003 C 45.598255 85.917831 45.017395 85.806381 44.430000 85.790001 C 44.145245 85.776161 43.863926 85.857040 43.630001 86.020004 C 43.439697 86.176292 43.335625 86.414169 43.350002 86.660004 C 43.342316 86.862022 43.406044 87.060295 43.530003 87.220001 C 43.737774 87.423737 43.982025 87.586571 44.250004 87.700005 L 44.900002 88.019997 C 45.257839 88.184235 45.593773 88.392517 45.900002 88.639999 C 46.135208 88.823380 46.323677 89.059822 46.450001 89.330002 C 46.569374 89.621704 46.627251 89.934906 46.619999 90.250000 C 46.650261 90.886475 46.375427 91.499283 45.879997 91.900002 C 45.303337 92.327324 44.596981 92.542763 43.879997 92.510002 C 43.496864 92.509674 43.114803 92.469460 42.739998 92.389999 C 42.394218 92.327065 42.058075 92.219498 41.739998 92.070000 L 41.740002 90.919998 C 42.067497 91.025146 42.401550 91.108665 42.740002 91.169998 C 43.069122 91.238113 43.403946 91.274940 43.740002 91.279999 C 44.050453 91.289154 44.354446 91.190178 44.600002 91.000000 C 44.806396 90.823906 44.917595 90.560738 44.900002 90.290001 C 44.906090 90.077034 44.831024 89.869705 44.690002 89.709999 C 44.482327 89.513412 44.242092 89.354385 43.980003 89.239998 Z" fill="#232F3E"/><path d=" M 50.790001 92.199997 C 50.396690 92.347153 49.979935 92.421692 49.560001 92.419998 C 49.087685 92.464508 48.616894 92.320755 48.250000 92.019997 C 47.945263 91.658775 47.797634 91.190689 47.840000 90.719994 L 47.840000 87.820000 L 47.099998 87.820000 L 47.099998 86.900002 L 47.889999 86.750000 L 48.130001 85.209999 L 49.490002 85.209999 L 49.490002 86.720001 L 50.759998 86.720001 L 50.759998 87.820000 L 49.490002 87.820000 L 49.490002 90.589996 C 49.474327 90.774376 49.523872 90.958412 49.630001 91.109993 C 49.777176 91.233894 49.968853 91.291756 50.160000 91.269997 C 50.372272 91.266159 50.583504 91.239334 50.790001 91.189995 Z" fill="#232F3E"/><path d=" M 52.880001 89.919998 C 52.875973 90.311752 53.006592 90.693016 53.250000 91.000000 C 53.544472 91.248260 53.926643 91.367241 54.310001 91.330002 C 54.539204 91.323997 54.767132 91.293831 54.990002 91.240005 C 55.261253 91.188805 55.528576 91.118637 55.790001 91.030006 L 55.790001 92.029999 C 55.530979 92.175522 55.250999 92.280098 54.959999 92.339996 C 54.631474 92.411812 54.296276 92.448685 53.959999 92.449997 C 52.240002 92.449997 51.380001 91.449997 51.380001 89.500000 C 51.326962 88.715630 51.549820 87.937401 52.010002 87.300003 C 52.468693 86.775963 53.145027 86.495087 53.840004 86.540001 C 55.200001 86.540001 55.840000 87.300003 55.840000 88.830002 C 55.839127 89.166870 55.798855 89.502487 55.720001 89.830002 Z M 53.799999 87.599998 C 53.220001 87.599998 52.919998 88.059998 52.880001 88.970001 L 54.500000 88.970001 L 54.500000 88.720001 C 54.520443 88.423340 54.461781 88.126572 54.330002 87.860001 C 54.212513 87.684830 54.010445 87.585701 53.800003 87.599998 Z" fill="#232F3E"/><path d=" M 57.000000 94.610001 L 57.000000 86.720001 L 58.349998 86.720001 L 58.470001 87.199997 C 58.679096 87.010376 58.919270 86.858154 59.180000 86.750000 C 59.426506 86.643257 59.691433 86.585518 59.959999 86.580002 C 60.557423 86.549004 61.128464 86.828850 61.469997 87.320000 C 61.861809 87.962158 62.046829 88.709206 61.999996 89.459999 C 62.045494 90.232277 61.853565 90.999985 61.449997 91.659996 C 61.116512 92.164848 60.544712 92.460220 59.939999 92.439995 C 59.704887 92.439087 59.471611 92.398521 59.250000 92.319992 C 59.031116 92.239212 58.828053 92.120766 58.650002 91.969994 L 58.650002 94.610001 Z M 59.419998 87.699997 C 59.142933 87.697105 58.872520 87.784897 58.649998 87.949997 L 58.650002 91.059998 C 58.878674 91.221687 59.150051 91.312141 59.430000 91.320000 C 59.730667 91.339958 60.012699 91.173119 60.139999 90.900002 C 60.308617 90.463989 60.380276 89.996498 60.349998 89.529999 C 60.382282 89.050362 60.310654 88.569412 60.139999 88.119995 C 60.013432 87.855736 59.742867 87.691048 59.450001 87.699997 Z" fill="#232F3E"/><path d=" M 17.590000 106.349998 L 17.590000 98.720001 L 21.940001 98.720001 L 21.940001 99.900002 L 19.280001 99.900002 L 19.280001 102.000000 L 21.360001 102.000000 L 21.360001 103.169998 L 19.280001 103.169998 L 19.280001 106.389999 Z" fill="#232F3E"/><path d=" M 26.120001 106.349998 L 25.990000 105.839996 C 25.477446 106.234222 24.855984 106.461166 24.209999 106.489998 C 23.828207 106.508453 23.459240 106.349800 23.209999 106.059998 C 22.959742 105.696587 22.836687 105.260620 22.859999 104.820000 L 22.860001 100.720001 L 24.510000 100.720001 L 24.510000 104.339996 C 24.491783 104.604317 24.539907 104.869003 24.650000 105.109993 C 24.735273 105.269989 24.909954 105.361298 25.090000 105.339996 C 25.362059 105.331230 25.625864 105.244446 25.850000 105.089996 L 25.850000 100.720001 L 27.500000 100.720001 L 27.500000 106.349998 Z" fill="#232F3E"/><path d=" M 32.000000 106.349998 L 32.000000 102.650002 C 32.016495 102.408363 31.968164 102.166710 31.860001 101.950005 C 31.742828 101.794846 31.553558 101.711563 31.360001 101.730003 C 31.067970 101.739677 30.784252 101.829636 30.540001 101.990005 L 30.540001 106.349998 L 28.889999 106.349998 L 28.889999 100.720001 L 30.240000 100.720001 L 30.370001 101.230003 C 30.908890 100.835289 31.552652 100.609108 32.220001 100.580002 C 32.618469 100.553772 33.007637 100.707970 33.280003 101.000000 C 33.549732 101.347038 33.681526 101.781601 33.650002 102.220001 L 33.650002 106.349998 Z" fill="#232F3E"/><path d=" M 38.689999 106.089996 C 38.493362 106.213127 38.276798 106.301109 38.049999 106.349998 C 37.784290 106.410645 37.512539 106.440842 37.239998 106.439995 C 36.547512 106.489487 35.870201 106.220772 35.399998 105.709991 C 34.938713 105.088364 34.715229 104.322128 34.769997 103.549988 C 34.719219 102.771988 34.957848 102.002678 35.439995 101.389984 C 35.918076 100.869408 36.604305 100.590515 37.309994 100.629982 C 37.780231 100.627724 38.243824 100.741043 38.659992 100.959984 L 38.660000 101.959999 C 38.339512 101.841644 38.001564 101.777435 37.660000 101.769997 C 37.300423 101.724968 36.944622 101.878006 36.730000 102.169998 C 36.508038 102.561913 36.407127 103.010796 36.439999 103.459999 L 36.439999 103.620003 C 36.403049 104.065079 36.500595 104.511002 36.719997 104.900002 C 36.928989 105.182068 37.270584 105.333885 37.619999 105.300003 C 37.992542 105.291672 38.361027 105.220680 38.709999 105.090004 Z" fill="#232F3E"/><path d=" M 43.000000 106.199997 C 42.606689 106.347153 42.189934 106.421692 41.770000 106.419998 C 40.972198 106.570419 40.203510 106.045616 40.053085 105.247818 C 40.020218 105.073509 40.019173 104.894684 40.049999 104.720001 L 40.049999 101.820000 L 39.320000 101.820000 L 39.320000 100.900002 L 40.099998 100.750000 L 40.340000 99.209999 L 41.700001 99.209999 L 41.700001 100.720001 L 43.000000 100.720001 L 43.000000 101.820000 L 41.709999 101.820000 L 41.709999 104.589996 C 41.691528 104.776146 41.745220 104.962288 41.860001 105.109993 C 42.005341 105.237236 42.198528 105.295555 42.389999 105.269997 C 42.598976 105.266144 42.806892 105.239319 43.009998 105.189995 Z" fill="#232F3E"/><path d=" M 44.759998 99.809998 C 44.503857 99.830612 44.249607 99.751831 44.049999 99.589996 C 43.870804 99.439140 43.771183 99.214073 43.779999 98.979996 C 43.769642 98.745628 43.869549 98.519913 44.049999 98.369995 C 44.470440 98.064751 45.039558 98.064751 45.459999 98.369995 C 45.634262 98.523682 45.729809 98.747849 45.719997 98.979996 C 45.726990 99.211624 45.631935 99.434639 45.459999 99.589996 C 45.262970 99.749374 45.012779 99.828011 44.759998 99.809998 Z M 43.930000 106.349998 L 43.930000 100.720001 L 45.580002 100.720001 L 45.580002 106.349998 Z" fill="#232F3E"/><path d=" M 49.259998 106.489998 C 48.561489 106.526466 47.884342 106.243095 47.419998 105.720001 C 46.553982 104.392052 46.553982 102.677956 47.419998 101.349998 C 48.431747 100.331032 50.077965 100.325180 51.096931 101.336929 C 51.101303 101.341270 51.105659 101.345627 51.110001 101.349998 C 51.976017 102.677948 51.976017 104.392044 51.110001 105.720001 C 50.642555 106.244698 49.961685 106.528084 49.260002 106.489998 Z M 49.259998 105.339996 C 49.546318 105.350388 49.807556 105.177567 49.910000 104.909996 C 50.176796 104.016144 50.176796 103.063843 49.910000 102.169998 C 49.774635 101.813774 49.376122 101.634735 49.019897 101.770103 C 48.835583 101.840141 48.690041 101.985687 48.619999 102.169998 C 48.353203 103.063850 48.353203 104.016151 48.619999 104.909996 C 48.718727 105.175995 48.976414 105.349129 49.259998 105.339996 Z" fill="#232F3E"/><path d=" M 56.000000 106.349998 L 56.000000 102.650002 C 56.016495 102.408363 55.968166 102.166710 55.860001 101.950005 C 55.744102 101.793236 55.553879 101.709541 55.360001 101.730003 C 55.071129 101.739960 54.790699 101.829971 54.549999 101.990005 L 54.549999 106.349998 L 52.919998 106.349998 L 52.919998 100.720001 L 54.259998 100.720001 L 54.400002 101.230003 C 54.934372 100.833908 55.575401 100.607452 56.240002 100.580002 C 56.641434 100.553581 57.033730 100.707565 57.310001 101.000000 C 57.572021 101.350540 57.699741 101.783371 57.670002 102.220001 L 57.669998 106.349998 Z" fill="#232F3E"/><path d=" M 61.070000 104.769997 C 61.070000 104.519997 60.900002 104.309998 60.549999 104.150002 L 59.830002 103.800003 C 59.156487 103.560318 58.704884 102.924881 58.700001 102.210007 C 58.681606 101.750854 58.886539 101.311180 59.250000 101.030006 C 59.672359 100.712837 60.192471 100.553619 60.720001 100.580009 C 61.249649 100.581734 61.772278 100.701294 62.250000 100.930008 L 62.250000 101.930000 C 62.021442 101.850227 61.787525 101.786736 61.549999 101.739998 C 61.352863 101.696541 61.151844 101.673088 60.950001 101.669998 C 60.439999 101.669998 60.180000 101.849998 60.180000 102.209999 C 60.180000 102.570000 60.389999 102.660004 60.820000 102.870003 L 61.540001 103.209999 C 61.846878 103.345100 62.112537 103.559013 62.310001 103.830002 C 62.478264 104.110268 62.561630 104.433311 62.550003 104.760002 C 62.565376 105.235588 62.362854 105.692177 62.000004 106.000000 C 61.575520 106.321449 61.051914 106.484184 60.520004 106.459999 C 59.886135 106.467438 59.260475 106.316177 58.700005 106.019997 L 58.700001 105.019997 C 59.215828 105.217575 59.758698 105.335594 60.310001 105.369995 C 60.514175 105.382927 60.716270 105.322655 60.880001 105.199997 C 61.003342 105.091476 61.072807 104.934265 61.070000 104.769997 Z" fill="#232F3E"/></g><g id="ICONS_-_EDIT"><path d=" M 56.000000 34.000000 L 54.000000 34.000000 L 54.000000 29.000000 L 26.000000 29.000000 L 26.000000 33.000000 L 24.000000 33.000000 L 24.000000 28.000000 C 24.000000 27.447716 24.447716 27.000000 25.000000 27.000000 L 55.000000 27.000000 C 55.552284 27.000000 56.000000 27.447716 56.000000 28.000000 Z" fill="#FFFFFF"/><path d=" M 55.000000 53.000000 L 25.000000 53.000000 C 24.447716 53.000000 24.000000 52.552284 24.000000 52.000000 L 24.000000 47.000000 L 26.000000 47.000000 L 26.000000 51.000000 L 54.000000 51.000000 L 54.000000 47.000000 L 56.000000 47.000000 L 56.000000 52.000000 C 56.000000 52.552284 55.552284 53.000000 55.000000 53.000000 Z" fill="#FFFFFF"/><path d=" M 40.000000 25.000000 C 37.238575 25.000000 35.000000 22.761423 35.000000 20.000000 C 35.000000 17.238577 37.238575 15.000000 40.000000 15.000000 C 42.761425 15.000000 45.000000 17.238577 45.000000 20.000000 C 45.000000 22.761423 42.761425 25.000000 40.000000 25.000000 Z M 40.000000 17.000000 C 38.343147 17.000000 37.000000 18.343145 37.000000 20.000000 C 37.000000 21.656855 38.343147 23.000000 40.000000 23.000000 C 41.656853 23.000000 43.000000 21.656855 43.000000 20.000000 C 43.000000 18.343145 41.656853 17.000000 40.000000 17.000000 Z" fill="#FFFFFF"/><path d=" M 40.000000 65.000000 C 37.238575 65.000000 35.000000 62.761425 35.000000 60.000000 C 35.000000 57.238575 37.238575 55.000000 40.000000 55.000000 C 42.761425 55.000000 45.000000 57.238575 45.000000 60.000000 C 45.000000 62.761425 42.761425 65.000000 40.000000 65.000000 Z M 40.000000 57.000000 C 38.343147 57.000000 37.000000 58.343147 37.000000 60.000000 C 37.000000 61.656853 38.343147 63.000000 40.000000 63.000000 C 41.656853 63.000000 43.000000 61.656853 43.000000 60.000000 C 43.000000 58.343147 41.656853 57.000000 40.000000 57.000000 Z" fill="#FFFFFF"/><path d=" M 34.000000 39.000000 L 16.000000 39.000000 C 15.447715 39.000000 15.000000 38.552284 15.000000 38.000000 L 15.000000 33.000000 C 15.000000 32.447716 15.447715 32.000000 16.000000 32.000000 L 34.000000 32.000000 C 34.552284 32.000000 35.000000 32.447716 35.000000 33.000000 L 35.000000 38.000000 C 35.000000 38.552284 34.552284 39.000000 34.000000 39.000000 Z M 17.000000 37.000000 L 33.000000 37.000000 L 33.000000 34.000000 L 17.000000 34.000000 Z" fill="#FFFFFF"/><path d=" M 64.000000 45.000000 L 44.000000 45.000000 C 43.447716 45.000000 43.000000 44.552284 43.000000 44.000000 L 43.000000 37.000000 C 43.000000 36.447716 43.447716 36.000000 44.000000 36.000000 L 64.000000 36.000000 C 64.552284 36.000000 65.000000 36.447716 65.000000 37.000000 L 65.000000 44.000000 C 65.000000 44.552284 64.552284 45.000000 64.000000 45.000000 Z M 45.000000 43.000000 L 63.000000 43.000000 L 63.000000 38.000000 L 45.000000 38.000000 Z" fill="#FFFFFF"/><path d=" M 34.000000 48.000000 L 16.000000 48.000000 C 15.447715 48.000000 15.000000 47.552284 15.000000 47.000000 L 15.000000 42.000000 C 15.000000 41.447716 15.447715 41.000000 16.000000 41.000000 L 34.000000 41.000000 C 34.552284 41.000000 35.000000 41.447716 35.000000 42.000000 L 35.000000 47.000000 C 35.000000 47.552284 34.552284 48.000000 34.000000 48.000000 Z M 17.000000 46.000000 L 33.000000 46.000000 L 33.000000 43.000000 L 17.000000 43.000000 Z" fill="#FFFFFF"/><rect x="39.000000" y="24.000000" width="2.000000" height="4.000000" fill="#FFFFFF"/><rect x="39.000000" y="52.000000" width="2.000000" height="4.000000" fill="#FFFFFF"/><rect x="24.000000" y="38.000000" width="2.000000" height="4.000000" fill="#FFFFFF"/></g></svg>