<svg id="Layer_1" data-name="Layer 1" xmlns="http://www.w3.org/2000/svg" width="50" height="50" viewBox="0 0 50 50"><title>Amazon-Elastic-Container-Service_Container1_light-bg</title><path d="M47.5,39.56H2.5a1,1,0,0,1-1-1V10.44a1,1,0,0,1,1-1h45a1,1,0,0,1,1,1V38.56A1,1,0,0,1,47.5,39.56Zm-44-2h43V11.44H3.5Z" style="fill:#d86613"/><rect x="7.13" y="14.19" width="2" height="20.63" style="fill:#d86613"/><rect x="12.75" y="14.19" width="2" height="20.63" style="fill:#d86613"/><rect x="18.38" y="14.19" width="2" height="20.63" style="fill:#d86613"/><rect x="24" y="14.19" width="2" height="20.63" style="fill:#d86613"/><rect x="29.63" y="14.19" width="2" height="20.63" style="fill:#d86613"/><rect x="35.25" y="14.19" width="2" height="20.63" style="fill:#d86613"/><rect x="40.88" y="14.19" width="2" height="20.63" style="fill:#d86613"/></svg>