<svg id="Layer_1" data-name="Layer 1" xmlns="http://www.w3.org/2000/svg" width="50" height="50" viewBox="0 0 50 50"><title>Amazon-Elastic-Block-Store-EBS_Volume_light-bg</title><path d="M42.84,48.5H7.22a1,1,0,0,1-1-1V14.69a1,1,0,0,1,1-1H42.84a1,1,0,0,1,1,1V47.5A1,1,0,0,1,42.84,48.5Zm-34.62-2H41.84V15.69H8.22Z" style="fill:#3f8624"/><path d="M42.84,11.94H7.16a1,1,0,0,1-.9-.56,1,1,0,0,1,.1-1L12.7,1.9a1,1,0,0,1,.8-.4h23a1,1,0,0,1,.8.4l6.34,8.44a1,1,0,0,1,.1,1A1,1,0,0,1,42.84,11.94Zm-33.68-2H40.84L36,3.5H14Z" style="fill:#3f8624"/></svg>