<svg id="Layer_1" data-name="Layer 1" xmlns="http://www.w3.org/2000/svg" width="50" height="50" viewBox="0 0 50 50"><title>Amazon-Elastic-Container-Service_Container2_light-bg</title><path d="M47.5,39.56H2.5a1,1,0,0,1-1-1V10.44a1,1,0,0,1,1-1h45a1,1,0,0,1,1,1V38.56A1,1,0,0,1,47.5,39.56Zm-44-2h43V11.44H3.5Z" style="fill:#d86613"/><rect x="6.19" y="14.19" width="2" height="20.63" style="fill:#d86613"/><rect x="11.81" y="14.19" width="2" height="20.63" style="fill:#d86613"/><rect x="36.19" y="14.19" width="2" height="20.63" style="fill:#d86613"/><rect x="41.81" y="14.19" width="2" height="20.63" style="fill:#d86613"/><path d="M30.87,32.06H19.13a1.69,1.69,0,0,1-1.69-1.69V18.63a1.69,1.69,0,0,1,1.69-1.69H30.87a1.69,1.69,0,0,1,1.69,1.69V30.37A1.69,1.69,0,0,1,30.87,32.06Zm-11.43-2H30.56V18.94H19.44Z" style="fill:#d86613"/><rect x="18.38" y="15.13" width="2" height="2.81" style="fill:#d86613"/><rect x="22.13" y="15.13" width="2" height="2.81" style="fill:#d86613"/><rect x="25.88" y="15.13" width="2" height="2.81" style="fill:#d86613"/><rect x="29.63" y="15.13" width="2" height="2.81" style="fill:#d86613"/><rect x="18.38" y="31.06" width="2" height="2.81" style="fill:#d86613"/><rect x="22.13" y="31.06" width="2" height="2.81" style="fill:#d86613"/><rect x="25.88" y="31.06" width="2" height="2.81" style="fill:#d86613"/><rect x="29.63" y="31.06" width="2" height="2.81" style="fill:#d86613"/><rect x="15.63" y="17.88" width="2.81" height="2" style="fill:#d86613"/><rect x="15.63" y="21.63" width="2.81" height="2" style="fill:#d86613"/><rect x="15.63" y="25.38" width="2.81" height="2" style="fill:#d86613"/><rect x="15.63" y="29.13" width="2.81" height="2" style="fill:#d86613"/><rect x="31.56" y="17.88" width="2.81" height="2" style="fill:#d86613"/><rect x="31.56" y="21.63" width="2.81" height="2" style="fill:#d86613"/><rect x="31.56" y="25.38" width="2.81" height="2" style="fill:#d86613"/><rect x="31.56" y="29.13" width="2.81" height="2" style="fill:#d86613"/></svg>