<svg id="Layer_1" data-name="Layer 1" xmlns="http://www.w3.org/2000/svg" width="50" height="50" viewBox="0 0 50 50"><title>Amazon-EC2-Container-Registry_Registry_light-bg</title><path d="M42.05,48.5H8A6.45,6.45,0,0,1,1.5,42.05V8A6.45,6.45,0,0,1,8,1.5h34.1A6.45,6.45,0,0,1,48.5,8v34.1A6.45,6.45,0,0,1,42.05,48.5ZM8,3.5A4.46,4.46,0,0,0,3.5,8v34.1A4.46,4.46,0,0,0,8,46.5h34.1a4.46,4.46,0,0,0,4.45-4.45V8A4.46,4.46,0,0,0,42.05,3.5Z" style="fill:#d86613"/><path d="M23.12,17.56h-15a1,1,0,0,1-1-1V7.19a1,1,0,0,1,1-1h15a1,1,0,0,1,1,1v9.37A1,1,0,0,1,23.12,17.56Zm-14-2h13V8.19h-13Z" style="fill:#d86613"/><rect x="10.88" y="10" width="2" height="3.75" style="fill:#d86613"/><rect x="14.63" y="10" width="2" height="3.75" style="fill:#d86613"/><rect x="18.38" y="10" width="2" height="3.75" style="fill:#d86613"/><path d="M23.12,30.69h-15a1,1,0,0,1-1-1V20.31a1,1,0,0,1,1-1h15a1,1,0,0,1,1,1v9.38A1,1,0,0,1,23.12,30.69Zm-14-2h13V21.31h-13Z" style="fill:#d86613"/><rect x="10.88" y="23.13" width="2" height="3.75" style="fill:#d86613"/><rect x="14.63" y="23.13" width="2" height="3.75" style="fill:#d86613"/><rect x="18.38" y="23.13" width="2" height="3.75" style="fill:#d86613"/><path d="M23.12,43.81h-15a1,1,0,0,1-1-1V33.44a1,1,0,0,1,1-1h15a1,1,0,0,1,1,1v9.37A1,1,0,0,1,23.12,43.81Zm-14-2h13V34.44h-13Z" style="fill:#d86613"/><rect x="10.88" y="36.25" width="2" height="3.75" style="fill:#d86613"/><rect x="14.63" y="36.25" width="2" height="3.75" style="fill:#d86613"/><rect x="18.38" y="36.25" width="2" height="3.75" style="fill:#d86613"/><path d="M41.88,17.56h-15a1,1,0,0,1-1-1V7.19a1,1,0,0,1,1-1h15a1,1,0,0,1,1,1v9.37A1,1,0,0,1,41.88,17.56Zm-14-2h13V8.19h-13Z" style="fill:#d86613"/><rect x="29.63" y="10" width="2" height="3.75" style="fill:#d86613"/><rect x="33.38" y="10" width="2" height="3.75" style="fill:#d86613"/><rect x="37.13" y="10" width="2" height="3.75" style="fill:#d86613"/><path d="M41.88,30.69h-15a1,1,0,0,1-1-1V20.31a1,1,0,0,1,1-1h15a1,1,0,0,1,1,1v9.38A1,1,0,0,1,41.88,30.69Zm-14-2h13V21.31h-13Z" style="fill:#d86613"/><rect x="29.63" y="23.13" width="2" height="3.75" style="fill:#d86613"/><rect x="33.38" y="23.13" width="2" height="3.75" style="fill:#d86613"/><rect x="37.13" y="23.13" width="2" height="3.75" style="fill:#d86613"/><path d="M41.88,43.81h-15a1,1,0,0,1-1-1V33.44a1,1,0,0,1,1-1h15a1,1,0,0,1,1,1v9.37A1,1,0,0,1,41.88,43.81Zm-14-2h13V34.44h-13Z" style="fill:#d86613"/><rect x="29.63" y="36.25" width="2" height="3.75" style="fill:#d86613"/><rect x="33.38" y="36.25" width="2" height="3.75" style="fill:#d86613"/><rect x="37.13" y="36.25" width="2" height="3.75" style="fill:#d86613"/></svg>