<svg version="1.1" width="80.000000" height="115.000000" viewBox="0.000000 0.000000 80.000000 115.000000" xmlns="http://www.w3.org/2000/svg" xmlns:xlink="http://www.w3.org/1999/xlink" overflow="hidden"><g id="CARDS"><rect x="1.000000" y="1.000000" width="78.000000" height="78.000000" fill="#232F3E"/><path d=" M 0.000000 0.000000 L 0.000000 80.000000 L 0.000000 80.000000 L 0.000000 115.000000 L 80.000000 115.000000 L 80.000000 80.000000 L 80.000000 80.000000 L 80.000000 0.000000 Z M 1.000000 1.000000 L 79.000000 1.000000 L 79.000000 79.000000 L 1.000000 79.000000 Z" fill="#FFFFFF"/></g><g id="TEXT_-_EDIT"><path d=" M 17.059999 92.349998 L 16.620001 90.529999 L 14.620000 90.529999 L 14.200000 92.349998 L 12.430000 92.349998 L 14.740000 84.720001 L 16.610001 84.720001 L 18.910000 92.349998 Z M 14.870000 89.430000 L 16.370001 89.430000 L 15.610000 86.269997 Z" fill="#232F3E"/><path d=" M 19.690001 94.610001 L 19.690001 86.720001 L 21.000000 86.720001 L 21.120001 87.199997 C 21.329098 87.010376 21.569269 86.858154 21.830000 86.750000 C 22.080294 86.644142 22.348316 86.586464 22.620001 86.580002 C 23.217028 86.550934 23.787184 86.830345 24.130001 87.320000 C 24.517719 87.963524 24.699181 88.710312 24.650002 89.459999 C 24.693462 90.230782 24.505405 90.996941 24.110001 91.659996 C 23.771963 92.164963 23.197348 92.459831 22.590000 92.439995 C 22.358231 92.438164 22.128397 92.397598 21.910000 92.319992 C 21.686756 92.242088 21.479916 92.123413 21.299999 91.969994 L 21.299999 94.610001 Z M 22.120001 87.699997 C 21.839855 87.697105 21.566269 87.784790 21.340000 87.949997 L 21.340000 91.059998 C 21.571758 91.223015 21.846724 91.313515 22.130001 91.320000 C 22.427824 91.338585 22.706245 91.171532 22.830002 90.900002 C 22.985046 90.460999 23.043045 89.993591 23.000002 89.529999 C 23.032288 89.050362 22.960655 88.569412 22.790003 88.119995 C 22.668400 87.860680 22.406391 87.696442 22.120003 87.699997 Z" fill="#232F3E"/><path d=" M 25.840000 94.610001 L 25.840000 86.720001 L 27.190001 86.720001 L 27.309999 87.199997 C 27.519096 87.010376 27.759268 86.858154 28.019999 86.750000 C 28.266504 86.643257 28.531431 86.585518 28.799999 86.580002 C 29.397026 86.550934 29.967182 86.830345 30.309999 87.320000 C 30.701813 87.962158 30.886829 88.709206 30.840000 89.459999 C 30.880455 90.231796 30.688896 90.998039 30.290001 91.659996 C 29.955185 92.163361 29.384274 92.458267 28.780001 92.439995 C 28.544888 92.439087 28.311613 92.398521 28.090000 92.319992 C 27.871117 92.239212 27.668055 92.120766 27.490000 91.969994 L 27.490000 94.610001 Z M 28.260000 87.699997 C 27.982935 87.697105 27.712523 87.784897 27.490000 87.949997 L 27.490000 91.059998 C 27.718672 91.221687 27.990049 91.312141 28.270000 91.320000 C 28.577703 91.348625 28.870096 91.180405 29.000000 90.900002 C 29.168617 90.463989 29.240278 89.996498 29.209999 89.529999 C 29.242285 89.050362 29.170652 88.569412 29.000000 88.119995 C 28.866531 87.837997 28.570541 87.670006 28.260000 87.699997 Z" fill="#232F3E"/><path d=" M 34.380001 92.250000 C 34.059803 92.366165 33.720459 92.420456 33.380001 92.410004 C 32.991444 92.423676 32.614697 92.275154 32.340000 92.000000 C 32.093636 91.696236 31.972078 91.310112 32.000000 90.919998 L 32.000000 84.209999 L 33.650002 84.209999 L 33.650002 90.750000 C 33.639198 90.888161 33.666889 91.026619 33.730003 91.150002 C 33.809673 91.241310 33.929939 91.286407 34.050003 91.270004 C 34.166473 91.279564 34.283531 91.279564 34.400002 91.270004 Z" fill="#232F3E"/><path d=" M 36.259998 85.809998 C 36.004536 85.824768 35.752354 85.746628 35.549999 85.589996 C 35.370804 85.439140 35.271183 85.214073 35.279999 84.979996 C 35.269642 84.745628 35.369549 84.519913 35.549999 84.369995 C 35.970440 84.064751 36.539558 84.064751 36.959999 84.369995 C 37.134262 84.523682 37.229809 84.747849 37.219997 84.979996 C 37.226990 85.211624 37.131935 85.434639 36.959999 85.589996 C 36.762970 85.749374 36.512779 85.828011 36.259998 85.809998 Z M 35.430000 92.349998 L 35.430000 86.720001 L 37.080002 86.720001 L 37.080002 92.349998 Z" fill="#232F3E"/><path d=" M 42.180000 92.089996 C 41.982567 92.211563 41.766277 92.299431 41.540001 92.349998 C 41.274292 92.410645 41.002541 92.440842 40.730000 92.439995 C 40.037281 92.490982 39.359344 92.222023 38.889999 91.709991 C 38.428715 91.088364 38.205231 90.322128 38.259998 89.549988 C 38.209221 88.771988 38.447849 88.002678 38.929996 87.389984 C 39.406399 86.867004 40.093826 86.587616 40.799995 86.629982 C 41.270092 86.628937 41.733395 86.742188 42.149994 86.959984 L 42.150002 87.959999 C 41.829514 87.841644 41.491566 87.777435 41.150002 87.769997 C 40.788849 87.733589 40.434181 87.884514 40.210003 88.169998 C 39.992073 88.563194 39.894691 89.011833 39.930004 89.459999 L 39.930000 89.620003 C 39.893051 90.065079 39.990597 90.511002 40.209999 90.900002 C 40.418991 91.182068 40.760586 91.333885 41.110001 91.300003 C 41.482544 91.291672 41.851028 91.220680 42.200001 91.090004 Z" fill="#232F3E"/><path d=" M 46.130001 92.349998 L 46.000000 91.839996 C 45.849304 92.046989 45.645443 92.209389 45.410000 92.309998 C 45.166252 92.426201 44.900021 92.487640 44.630001 92.489998 C 44.177864 92.508438 43.740002 92.329643 43.430000 92.000000 C 43.137665 91.678162 42.983269 91.254471 43.000000 90.820000 C 42.976856 90.326881 43.170483 89.848297 43.529999 89.510002 C 43.935566 89.156227 44.462471 88.973427 45.000000 89.000000 C 45.314030 89.006668 45.626179 89.050301 45.930000 89.129997 L 45.930000 88.620003 C 45.955196 88.348686 45.895813 88.076225 45.760002 87.840004 C 45.595478 87.687714 45.372757 87.614693 45.150002 87.640007 C 44.545547 87.665237 43.948566 87.783279 43.380001 87.990005 L 43.380001 87.000000 C 43.667076 86.841576 43.977680 86.730164 44.299999 86.669998 C 44.681400 86.589516 45.070198 86.549301 45.459999 86.549995 C 46.000549 86.503654 46.538952 86.660545 46.969997 86.989998 C 47.319229 87.364204 47.490471 87.870636 47.439999 88.379997 L 47.439999 92.320000 Z M 45.130001 91.430000 C 45.430935 91.416977 45.716194 91.292175 45.930000 91.080002 L 45.930000 90.000000 C 45.724060 89.948677 45.512180 89.925140 45.299999 89.930000 C 45.099453 89.914780 44.902248 89.987816 44.759998 90.129997 C 44.628239 90.297188 44.564003 90.507729 44.579998 90.719994 C 44.569710 90.905304 44.622589 91.088631 44.730000 91.239990 C 44.814926 91.354698 44.947376 91.424606 45.090000 91.429993 Z" fill="#232F3E"/><path d=" M 51.840000 92.199997 C 51.446690 92.347153 51.029934 92.421692 50.610001 92.419998 C 50.134949 92.458969 49.663834 92.307922 49.299999 92.000000 C 48.995262 91.638779 48.847633 91.170692 48.889999 90.699997 L 48.889999 87.800003 L 48.150002 87.800003 L 48.150002 86.900002 L 48.930000 86.750000 L 49.169998 85.209999 L 50.540001 85.209999 L 50.540001 86.720001 L 51.810001 86.720001 L 51.810001 87.820000 L 50.540001 87.820000 L 50.540001 90.589996 C 50.519703 90.774757 50.569683 90.960396 50.680000 91.109993 C 50.826588 91.234970 51.018745 91.292976 51.209999 91.269997 C 51.422237 91.265694 51.633423 91.238876 51.840000 91.189995 Z" fill="#232F3E"/><path d=" M 53.580002 85.809998 C 53.324760 85.822983 53.073185 85.745026 52.870003 85.589996 C 52.698067 85.434639 52.603008 85.211624 52.610004 84.979996 C 52.600197 84.747849 52.695740 84.523689 52.870003 84.369995 C 53.068119 84.204575 53.322521 84.122162 53.580002 84.139992 C 53.834103 84.124771 54.084446 84.207024 54.280003 84.369995 C 54.460453 84.519913 54.560360 84.745628 54.550003 84.979996 C 54.558819 85.214073 54.459198 85.439140 54.280003 85.589996 C 54.082973 85.749374 53.832783 85.828011 53.580002 85.809998 Z M 52.750000 92.349998 L 52.750000 86.720001 L 54.400002 86.720001 L 54.400002 92.349998 Z" fill="#232F3E"/><path d=" M 58.090000 92.489998 C 57.390713 92.530975 56.711678 92.246811 56.250000 91.720001 C 55.383984 90.392052 55.383984 88.677956 56.250000 87.349998 C 57.248825 86.333794 58.882332 86.319710 59.898537 87.318535 C 59.909115 87.328934 59.919605 87.339424 59.930000 87.349998 C 60.796017 88.677948 60.796017 90.392044 59.930000 91.720001 C 59.466537 92.244324 58.788769 92.527962 58.090000 92.489998 Z M 58.090000 91.339996 C 58.374493 91.352325 58.633888 91.178047 58.730000 90.909996 C 58.996796 90.016144 58.996796 89.063843 58.730000 88.169998 C 58.637371 87.897995 58.377136 87.719078 58.090000 87.729996 C 57.801109 87.721107 57.539082 87.898483 57.439999 88.169998 C 57.184864 89.065514 57.184864 90.014481 57.439999 90.909996 C 57.542439 91.177567 57.803680 91.350380 58.090000 91.339996 Z" fill="#232F3E"/><path d=" M 64.849998 92.349998 L 64.849998 88.650002 C 64.869316 88.407036 64.817177 88.163719 64.699997 87.950005 C 64.588669 87.793205 64.401146 87.709015 64.209999 87.730003 C 63.917969 87.739677 63.634251 87.829636 63.389999 87.990005 L 63.389999 92.349998 L 61.740002 92.349998 L 61.740002 86.720001 L 63.090000 86.720001 L 63.220001 87.230003 C 63.755241 86.835541 64.395752 86.609268 65.059998 86.580002 C 65.461647 86.552147 65.854538 86.706367 66.129997 87.000000 C 66.399727 87.347038 66.531517 87.781601 66.500000 88.220001 L 66.500000 92.349998 Z" fill="#232F3E"/><path d=" M 7.180000 106.349998 L 7.180000 98.720001 L 8.870000 98.720001 L 8.870000 105.120003 L 11.710000 105.120003 L 11.710000 106.349998 Z" fill="#232F3E"/><path d=" M 14.710000 106.489998 C 14.011232 106.527954 13.333465 106.244324 12.870000 105.720001 C 12.003984 104.392052 12.003984 102.677956 12.870000 101.349998 C 13.333464 100.825676 14.011232 100.542038 14.710000 100.580002 C 15.411686 100.541916 16.092554 100.825302 16.559999 101.349998 C 17.426014 102.677948 17.426014 104.392044 16.559999 105.720001 C 16.092552 106.244698 15.411685 106.528084 14.709999 106.489998 Z M 14.710000 105.339996 C 14.996320 105.350388 15.257559 105.177567 15.360000 104.909996 C 15.626797 104.016144 15.626797 103.063843 15.360000 102.169998 C 15.260918 101.898483 14.998891 101.721115 14.710000 101.729996 C 14.423817 101.722336 14.165326 101.900047 14.070000 102.169998 C 13.803203 103.063850 13.803203 104.016151 14.070000 104.909996 C 14.168729 105.175995 14.426416 105.349129 14.710000 105.339996 Z" fill="#232F3E"/><path d=" M 21.270000 106.349998 L 21.120001 105.839996 C 20.966904 106.044678 20.763725 106.206528 20.530001 106.309998 C 20.286253 106.426201 20.020021 106.487640 19.750000 106.489998 C 19.310820 106.513031 18.882318 106.349617 18.570000 106.040001 C 18.263969 105.709824 18.105167 105.269508 18.129999 104.820000 C 18.106857 104.326881 18.300482 103.848297 18.660000 103.510002 C 19.057938 103.163506 19.572687 102.981201 20.100000 103.000000 C 20.410767 103.006325 20.719648 103.049973 21.020000 103.129997 L 21.020000 102.620003 C 21.047573 102.349762 20.991737 102.077560 20.860001 101.840004 C 20.695478 101.687714 20.472754 101.614693 20.250000 101.640007 C 19.645546 101.665237 19.048567 101.783279 18.480000 101.990005 L 18.480000 100.989998 C 18.767076 100.831573 19.077679 100.720161 19.400000 100.659996 C 19.781403 100.579514 20.170198 100.539299 20.559999 100.539993 C 21.100548 100.493652 21.638952 100.650543 22.070000 100.979996 C 22.419231 101.354202 22.590473 101.860634 22.539999 102.369995 L 22.540001 106.309998 Z M 20.270000 105.430000 C 20.568346 105.418404 20.850971 105.293190 21.060001 105.080002 L 21.059999 104.000000 C 20.857586 103.947983 20.648914 103.924423 20.439999 103.930000 C 20.239452 103.914780 20.042248 103.987816 19.899998 104.129997 C 19.768236 104.297188 19.704002 104.507729 19.719997 104.719994 C 19.709707 104.905304 19.762590 105.088631 19.869997 105.239990 C 19.954924 105.354698 20.087374 105.424606 20.229998 105.429993 Z" fill="#232F3E"/><path d=" M 27.190001 106.349998 L 27.059999 105.860001 C 26.879530 106.042419 26.665640 106.188408 26.430000 106.290001 C 26.202375 106.387421 25.957592 106.438423 25.710001 106.440002 C 25.111477 106.464928 24.541792 106.181969 24.200001 105.690002 C 23.805483 105.052330 23.616936 104.308617 23.660000 103.560005 C 23.615650 102.789658 23.811304 102.024506 24.219999 101.370003 C 24.557568 100.858131 25.137205 100.558846 25.750000 100.580002 C 25.965471 100.590401 26.178011 100.634262 26.379999 100.709999 C 26.599712 100.775887 26.808594 100.873589 27.000000 101.000000 L 27.000000 98.209999 L 28.650000 98.209999 L 28.650000 106.349998 Z M 26.270000 105.349998 C 26.526093 105.346977 26.775955 105.270630 26.990000 105.129997 L 26.990000 102.000000 C 26.753344 101.839310 26.475910 101.749138 26.190001 101.739998 C 25.896488 101.731621 25.628944 101.907326 25.520000 102.180000 C 25.353645 102.623573 25.282108 103.097084 25.310001 103.570000 C 25.281811 104.034950 25.360489 104.500175 25.540001 104.930000 C 25.686844 105.190842 25.971548 105.342941 26.270000 105.320000 Z" fill="#232F3E"/><path d=" M 32.709999 106.349998 L 32.709999 98.720001 L 35.230000 98.720001 C 35.827053 98.697823 36.411205 98.897285 36.869999 99.279999 C 37.289749 99.651588 37.523975 100.189575 37.509998 100.750000 C 37.520622 101.101326 37.430397 101.448341 37.250000 101.750000 C 37.075111 102.023499 36.820221 102.236488 36.520000 102.360001 C 36.918812 102.471031 37.270134 102.709930 37.520000 103.040001 C 38.096008 103.914436 37.947323 105.078438 37.170002 105.779999 C 36.636898 106.193230 35.973728 106.402466 35.300003 106.369995 Z M 34.299999 99.820000 L 34.299999 101.930000 L 35.000000 101.930000 C 35.249180 101.942482 35.491013 101.843552 35.660000 101.660004 C 35.831993 101.441597 35.917439 101.167458 35.900002 100.890007 C 35.916767 100.610947 35.843124 100.333908 35.690002 100.100006 C 35.549408 99.917717 35.330124 99.813652 35.100002 99.820007 Z M 34.299999 102.980003 L 34.299999 105.250000 L 35.299999 105.250000 C 35.558804 105.274139 35.815037 105.182625 36.000000 105.000000 C 36.179581 104.758141 36.268108 104.460693 36.250000 104.160004 C 36.270962 103.855751 36.174313 103.555061 35.980000 103.320007 C 35.776249 103.110954 35.491325 103.001366 35.200001 103.020004 Z" fill="#232F3E"/><path d=" M 41.889999 106.349998 L 41.750000 105.839996 C 41.594742 106.042564 41.392155 106.203949 41.160000 106.309998 C 40.913094 106.427322 40.643360 106.488777 40.369999 106.489998 C 39.931015 106.511780 39.503002 106.348557 39.189999 106.040001 C 38.886585 105.708809 38.731304 105.268242 38.759998 104.820000 C 38.736855 104.326881 38.930481 103.848297 39.289997 103.510002 C 39.687271 103.173096 40.200314 103.004471 40.719997 103.040001 C 41.034027 103.046669 41.346176 103.090302 41.649998 103.169998 L 41.650002 102.660004 C 41.677574 102.389763 41.621738 102.117561 41.490002 101.880005 C 41.325478 101.727715 41.102757 101.654694 40.880001 101.680008 C 40.275547 101.705238 39.678566 101.823280 39.110001 102.030006 L 39.110001 101.029999 C 39.393471 100.871468 39.700802 100.760017 40.020000 100.699997 C 40.401482 100.620018 40.790226 100.579803 41.180000 100.579994 C 41.723797 100.532089 42.265881 100.689011 42.700001 101.019997 C 43.044773 101.396851 43.215324 101.901237 43.170002 102.409996 L 43.169998 106.349998 Z M 40.889999 105.430000 C 41.191841 105.420944 41.478493 105.295532 41.689999 105.080002 L 41.689999 104.000000 C 41.484169 103.948074 41.272205 103.924522 41.059998 103.930000 C 40.862247 103.913605 40.667618 103.987053 40.529999 104.129997 C 40.390945 104.293694 40.322601 104.505920 40.340000 104.719994 C 40.329712 104.905304 40.382591 105.088631 40.490002 105.239990 C 40.575874 105.353592 40.707760 105.423195 40.850002 105.429993 Z" fill="#232F3E"/><path d=" M 47.000000 106.250000 C 46.679802 106.366165 46.340458 106.420456 46.000000 106.410004 C 45.604244 106.441948 45.213024 106.307922 44.919998 106.040001 C 44.660099 105.727486 44.534286 105.324898 44.570000 104.919998 L 44.570000 98.209999 L 46.220001 98.209999 L 46.220001 104.750000 C 46.207123 104.887192 46.231297 105.025330 46.290001 105.150002 C 46.370697 105.239822 46.490143 105.284615 46.610001 105.270004 C 46.726471 105.279564 46.843529 105.279564 46.959999 105.270004 Z" fill="#232F3E"/><path d=" M 50.880001 106.349998 L 50.730000 105.839996 C 50.579304 106.046989 50.375443 106.209389 50.139999 106.309998 C 49.897038 106.428444 49.630295 106.489998 49.360001 106.489998 C 48.920822 106.513031 48.492321 106.349617 48.180000 106.040001 C 47.569267 105.292549 47.612175 104.206917 48.279999 103.510002 C 48.677273 103.173096 49.190315 103.004471 49.709999 103.040001 C 50.024029 103.046669 50.336178 103.090302 50.639999 103.169998 L 50.639999 102.660004 C 50.662144 102.390068 50.606628 102.119423 50.480000 101.880005 C 50.314796 101.728874 50.092613 101.656029 49.869999 101.680008 C 49.265335 101.703468 48.668083 101.821564 48.099998 102.030006 L 48.099998 101.029999 C 48.382702 100.869797 48.690319 100.758240 49.009998 100.699997 C 49.391399 100.619514 49.780197 100.579300 50.169998 100.579994 C 50.713604 100.534027 51.255005 100.690742 51.689999 101.019997 C 52.034771 101.396851 52.205322 101.901237 52.160000 102.409996 L 52.160000 106.349998 Z M 49.880001 105.430000 C 50.181385 105.418922 50.467319 105.293823 50.680000 105.080002 L 50.680000 104.000000 C 50.474060 103.948677 50.262180 103.925140 50.049999 103.930000 C 49.852249 103.913605 49.657619 103.987053 49.520000 104.129997 C 49.380947 104.293694 49.312603 104.505920 49.330002 104.719994 C 49.319714 104.905304 49.372593 105.088631 49.480003 105.239990 C 49.564930 105.354698 49.697380 105.424606 49.840004 105.429993 Z" fill="#232F3E"/><path d=" M 56.660000 106.349998 L 56.660000 102.650002 C 56.676495 102.408363 56.628166 102.166710 56.520000 101.950005 C 56.404102 101.793236 56.213879 101.709541 56.020000 101.730003 C 55.727970 101.739677 55.444252 101.829636 55.200001 101.990005 L 55.200001 106.349998 L 53.549999 106.349998 L 53.549999 100.720001 L 54.900002 100.720001 L 55.029999 101.230003 C 55.568890 100.835289 56.212650 100.609108 56.879997 100.580002 C 57.278465 100.553772 57.667633 100.707970 57.939999 101.000000 C 58.209728 101.347038 58.341522 101.781601 58.309998 102.220001 L 58.310001 106.349998 Z" fill="#232F3E"/><path d=" M 63.349998 106.089996 C 63.153362 106.213127 62.936798 106.301109 62.709999 106.349998 C 62.444290 106.410645 62.172539 106.440842 61.899998 106.439995 C 61.207512 106.489487 60.530201 106.220772 60.059998 105.709991 C 59.598713 105.088364 59.375229 104.322128 59.429996 103.549988 C 59.379219 102.771988 59.617847 102.002678 60.099995 101.389984 C 60.578075 100.869408 61.264305 100.590515 61.969994 100.629982 C 62.440231 100.627724 62.903824 100.741043 63.319992 100.959984 L 63.320000 101.959999 C 62.999512 101.841644 62.661564 101.777435 62.320000 101.769997 C 61.960423 101.724968 61.604622 101.878006 61.389999 102.169998 C 61.168037 102.561913 61.067127 103.010796 61.099998 103.459999 L 61.099998 103.620003 C 61.067833 104.064751 61.165081 104.509300 61.379997 104.900002 C 61.588989 105.182068 61.930584 105.333885 62.279999 105.300003 C 62.652542 105.291672 63.021027 105.220680 63.369999 105.090004 Z" fill="#232F3E"/><path d=" M 65.610001 103.919998 C 65.616371 104.313332 65.753593 104.693344 66.000000 105.000000 C 66.295563 105.246262 66.676880 105.364975 67.059998 105.330002 C 67.292549 105.324707 67.523865 105.294533 67.750000 105.240005 C 68.020973 105.187576 68.288216 105.117424 68.550003 105.030006 L 68.550003 106.029999 C 68.290207 106.173843 68.010490 106.278313 67.720001 106.339996 C 67.391396 106.411301 67.056252 106.448166 66.720001 106.449997 C 65.000000 106.449997 64.139999 105.449997 64.139999 103.500000 C 64.086960 102.715630 64.309814 101.937401 64.769997 101.300003 C 65.227760 100.774681 65.904762 100.493523 66.599998 100.540001 C 67.959999 100.540001 68.599998 101.300003 68.599998 102.830002 C 68.599129 103.166870 68.558853 103.502487 68.479996 103.830002 Z M 66.529999 101.599998 C 65.949997 101.599998 65.650002 102.059998 65.610001 102.970001 L 67.230003 102.970001 L 67.230003 102.720001 C 67.250443 102.423340 67.191780 102.126572 67.060005 101.860001 C 66.942513 101.684830 66.740448 101.585701 66.530006 101.599998 Z" fill="#232F3E"/><path d=" M 69.760002 106.349998 L 69.760002 100.720001 L 71.110001 100.720001 L 71.290001 101.449997 C 71.489731 101.212708 71.730156 101.012917 72.000000 100.860001 C 72.233047 100.733055 72.494629 100.667656 72.760002 100.669998 C 72.886475 100.660080 73.013527 100.660080 73.139999 100.669998 L 73.139999 102.000000 C 72.926895 101.985909 72.713097 101.985909 72.500000 102.000000 C 72.121376 102.000565 71.748116 102.089600 71.410004 102.260002 L 71.410004 106.370003 Z" fill="#232F3E"/></g><g id="ICONS_-_EDIT"><path d=" M 40.000000 65.000000 C 26.192881 65.000000 15.000000 53.807117 15.000000 40.000000 C 15.000000 26.192881 26.192881 15.000000 40.000000 15.000000 C 53.807117 15.000000 65.000000 26.192881 65.000000 40.000000 C 65.000000 53.807117 53.807117 65.000000 40.000000 65.000000 Z M 40.000000 17.000000 C 27.297451 17.000000 17.000000 27.297451 17.000000 40.000000 C 17.000000 52.702549 27.297451 63.000000 40.000000 63.000000 C 52.702549 63.000000 63.000000 52.702549 63.000000 40.000000 C 63.000000 27.297451 52.702549 17.000000 40.000000 17.000000 Z" fill="#FFFFFF"/><path d=" M 48.000000 34.000000 L 32.000000 34.000000 C 31.447716 34.000000 31.000000 33.552284 31.000000 33.000000 L 31.000000 24.000000 C 31.000000 23.447716 31.447716 23.000000 32.000000 23.000000 L 48.000000 23.000000 C 48.552284 23.000000 49.000000 23.447716 49.000000 24.000000 L 49.000000 33.000000 C 49.000000 33.552284 48.552284 34.000000 48.000000 34.000000 Z M 33.000000 32.000000 L 47.000000 32.000000 L 47.000000 25.000000 L 33.000000 25.000000 Z" fill="#FFFFFF"/><path d=" M 30.000000 54.000000 L 25.100000 54.000000 C 24.547716 54.000000 24.100000 53.552284 24.100000 53.000000 L 24.100000 48.000000 C 24.100000 47.447716 24.547716 47.000000 25.100000 47.000000 L 30.000000 47.000000 C 30.552284 47.000000 31.000000 47.447716 31.000000 48.000000 L 31.000000 53.000000 C 31.000000 53.552284 30.552284 54.000000 30.000000 54.000000 Z M 26.100000 52.000000 L 29.000000 52.000000 L 29.000000 49.000000 L 26.100000 49.000000 Z" fill="#FFFFFF"/><path d=" M 38.000000 54.000000 L 33.000000 54.000000 C 32.447716 54.000000 32.000000 53.552284 32.000000 53.000000 L 32.000000 48.000000 C 32.000000 47.447716 32.447716 47.000000 33.000000 47.000000 L 38.000000 47.000000 C 38.552284 47.000000 39.000000 47.447716 39.000000 48.000000 L 39.000000 53.000000 C 39.000000 53.552284 38.552284 54.000000 38.000000 54.000000 Z M 34.000000 52.000000 L 37.000000 52.000000 L 37.000000 49.000000 L 34.000000 49.000000 Z" fill="#FFFFFF"/><path d=" M 36.000000 48.000000 L 34.000000 48.000000 L 34.000000 44.000000 L 29.000000 44.000000 L 29.000000 48.000000 L 27.000000 48.000000 L 27.000000 43.000000 C 27.000000 42.447716 27.447716 42.000000 28.000000 42.000000 L 35.000000 42.000000 C 35.552284 42.000000 36.000000 42.447716 36.000000 43.000000 Z" fill="#FFFFFF"/><path d=" M 47.000000 54.000000 L 42.000000 54.000000 C 41.447716 54.000000 41.000000 53.552284 41.000000 53.000000 L 41.000000 48.000000 C 41.000000 47.447716 41.447716 47.000000 42.000000 47.000000 L 47.000000 47.000000 C 47.552284 47.000000 48.000000 47.447716 48.000000 48.000000 L 48.000000 53.000000 C 48.000000 53.552284 47.552284 54.000000 47.000000 54.000000 Z M 43.000000 52.000000 L 46.000000 52.000000 L 46.000000 49.000000 L 43.000000 49.000000 Z" fill="#FFFFFF"/><path d=" M 54.900002 54.000000 L 49.900002 54.000000 C 49.347717 54.000000 48.900002 53.552284 48.900002 53.000000 L 48.900002 48.000000 C 48.900002 47.447716 49.347717 47.000000 49.900002 47.000000 L 54.900002 47.000000 C 55.452286 47.000000 55.900002 47.447716 55.900002 48.000000 L 55.900002 53.000000 C 55.900002 53.552284 55.452286 54.000000 54.900002 54.000000 Z M 50.900002 52.000000 L 53.900002 52.000000 L 53.900002 49.000000 L 50.900002 49.000000 Z" fill="#FFFFFF"/><path d=" M 53.000000 48.000000 L 51.000000 48.000000 L 51.000000 44.000000 L 46.000000 44.000000 L 46.000000 48.000000 L 44.000000 48.000000 L 44.000000 43.000000 C 44.000000 42.447716 44.447716 42.000000 45.000000 42.000000 L 52.000000 42.000000 C 52.552284 42.000000 53.000000 42.447716 53.000000 43.000000 Z" fill="#FFFFFF"/><path d=" M 49.000000 43.000000 L 47.000000 43.000000 L 47.000000 39.000000 L 33.000000 39.000000 L 33.000000 43.000000 L 31.000000 43.000000 L 31.000000 38.000000 C 31.000000 37.447716 31.447716 37.000000 32.000000 37.000000 L 48.000000 37.000000 C 48.552284 37.000000 49.000000 37.447716 49.000000 38.000000 Z" fill="#FFFFFF"/><rect x="39.000000" y="33.000000" width="2.000000" height="5.000000" fill="#FFFFFF"/></g></svg>