<svg id="Layer_1" data-name="Layer 1" xmlns="http://www.w3.org/2000/svg" width="50" height="50" viewBox="0 0 50 50"><title>AWS-Elastic-Beanstalk_Application_light-bg</title><path d="M15.9,31c-1.54,0-2.71-.09-3.29-.15l-.2,0a1,1,0,0,1-.88-.87c-.07-.59-1.61-14.57,6.08-22.41S39,1.27,39.6,1.34a1,1,0,0,1,.87.88c.07.59,1.61,14.56-6.08,22.41C29,30.14,20.67,31,15.9,31Zm-2.45-2.09c2.87.2,13.47.46,19.51-5.7s5.79-16.95,5.59-20C35.57,3.06,25,2.83,19,9S13.25,25.92,13.45,28.93Z" style="fill:#d86613"/><path d="M12.71,30.87h-.13l-.17,0a1,1,0,0,1-.88-.87c-.07-.59-1.61-14.57,6.08-22.41S39,1.27,39.6,1.34a1,1,0,0,1,.71,1.55A109.68,109.68,0,0,1,27.66,18.25,108.49,108.49,0,0,1,13.29,30.69,1,1,0,0,1,12.71,30.87ZM36.26,3.19C31.91,3.19,24,3.94,19,9c-5.58,5.69-5.79,15.37-5.63,19.17A108.94,108.94,0,0,0,26.23,16.85,109.36,109.36,0,0,0,37.66,3.21Z" style="fill:#d86613"/><rect x="11.37" y="28.13" width="2" height="19.69" style="fill:#d86613"/></svg>