<svg id="Product_Icon" data-name="Product Icon" xmlns="http://www.w3.org/2000/svg" viewBox="0 0 75 75"><title>AWS-Lambda_light-bg</title><rect id="Orange_Light_BG" data-name="Orange Light BG" width="75" height="75" style="fill:#d86613"/><g id="Product_Icon-2" data-name="Product Icon"><path d="M60.5,62.5H48.18a1,1,0,0,1-.9-.57L29.86,25.5H22.49a1,1,0,0,1-1-1v-11a1,1,0,0,1,1-1H37.89a1,1,0,0,1,.9.57L56.13,49.5H60.5a1,1,0,0,1,1,1v11A1,1,0,0,1,60.5,62.5Zm-11.69-2H59.5v-9h-4a1,1,0,0,1-.9-.57L37.26,14.5H23.5v9h7a1,1,0,0,1,.9.57Z" style="fill:#fff"/><path d="M27.48,62.5h-13a1,1,0,0,1-.85-.47,1,1,0,0,1-.05-1L27.18,32.62a1,1,0,0,1,.9-.57h0a1,1,0,0,1,.9.56L35.49,46a1,1,0,0,1,0,.87l-7.1,15A1,1,0,0,1,27.48,62.5Zm-11.4-2H26.85l6.63-14L28.09,35.35Z" style="fill:#fff"/></g></svg>