<svg id="Product_Icon" data-name="Product Icon" xmlns="http://www.w3.org/2000/svg" xmlns:xlink="http://www.w3.org/1999/xlink" width="75" height="75" viewBox="0 0 75 75"><defs><linearGradient id="OrangeGradient" x1="112.5" y1="37.5" x2="-37.5" y2="37.5" gradientTransform="translate(90.53 37.5) rotate(135)" gradientUnits="userSpaceOnUse"><stop offset="0" stop-color="#c8511b"/><stop offset="1" stop-color="#f90"/></linearGradient></defs><title>AWS-Batch</title><rect id="Orange_Gradient" data-name="Orange Gradient" width="75" height="75" style="fill:url(#OrangeGradient)"/><g id="Icon_Test" data-name="Icon Test"><path d="M57.75,50.59V43.41a6,6,0,1,0-6.91-6.91H43.66a6,6,0,0,0-4.91-4.91V26.42a7,7,0,1,0-2,0v5.17a6,6,0,0,0-4.91,4.91H25.17a6.5,6.5,0,1,0-7.42,7.42v6.67a6,6,0,1,0,2,0V43.92a6.52,6.52,0,0,0,5.42-5.42h6.67a6,6,0,0,0,4.91,4.91v6.17a6.5,6.5,0,1,0,2,0V43.41a6,6,0,0,0,4.91-4.91h7.18a6,6,0,0,0,4.91,4.91v7.18a6,6,0,1,0,2,0Zm-35,5.91a4,4,0,1,1-4-4A4,4,0,0,1,22.75,56.5Zm-4-14.5a4.5,4.5,0,1,1,4.5-4.5A4.51,4.51,0,0,1,18.75,42Zm14-22.5a5,5,0,1,1,5,5A5,5,0,0,1,32.75,19.5ZM42.25,56a4.5,4.5,0,1,1-4.5-4.5A4.51,4.51,0,0,1,42.25,56Zm-4.5-14.5a4,4,0,1,1,4-4A4,4,0,0,1,37.75,41.5Zm15-4a4,4,0,1,1,4,4A4,4,0,0,1,52.75,37.5Zm4,23a4,4,0,1,1,4-4A4,4,0,0,1,56.75,60.5Z" style="fill:#fff"/><circle cx="18.75" cy="37.5" r="2" style="fill:#fff"/><circle cx="37.75" cy="56" r="2" style="fill:#fff"/></g></svg>