<svg version="1.1" width="80.000000" height="100.000000" viewBox="0.000000 0.000000 80.000000 100.000000" xmlns="http://www.w3.org/2000/svg" xmlns:xlink="http://www.w3.org/1999/xlink" overflow="hidden"><g id="CARDS"><rect x="1.000000" y="1.000000" width="78.000000" height="78.000000" fill="#232F3E"/><path d=" M 0.000000 0.000000 L 0.000000 80.000000 L 0.000000 80.000000 L 0.000000 100.000000 L 80.000000 100.000000 L 80.000000 80.000000 L 80.000000 80.000000 L 80.000000 0.000000 Z M 1.000000 1.000000 L 79.000000 1.000000 L 79.000000 79.000000 L 1.000000 79.000000 Z" fill="#FFFFFF"/></g><g id="TEXT_-_EDIT"><path d=" M 19.049999 92.349998 L 18.620001 90.529999 L 16.620001 90.529999 L 16.200001 92.349998 L 14.430000 92.349998 L 16.740000 84.720001 L 18.610001 84.720001 L 20.910000 92.349998 Z M 16.870001 89.430000 L 18.370001 89.430000 L 17.610001 86.269997 Z" fill="#232F3E"/><path d=" M 26.260000 92.349998 L 25.320000 86.720001 L 24.430000 92.349998 L 22.559999 92.349998 L 20.780001 84.720001 L 22.480000 84.720001 L 23.540001 90.779999 L 24.450001 85.000000 L 26.280001 85.000000 L 27.219999 90.650002 L 28.219999 84.650002 L 29.879999 84.650002 L 28.100000 92.279999 Z" fill="#232F3E"/><path d=" M 32.209999 89.000000 C 31.714529 88.765594 31.277328 88.424026 30.929998 88.000000 C 30.671232 87.643089 30.537642 87.210678 30.549999 86.769997 C 30.538889 86.354126 30.657740 85.945145 30.889999 85.599998 C 31.115702 85.259720 31.435287 84.992241 31.809999 84.830002 C 32.231419 84.642693 32.688927 84.550507 33.149998 84.560005 C 33.789658 84.583160 34.418407 84.732697 34.999996 85.000008 L 35.000000 86.169998 C 34.448254 85.967827 33.867393 85.856377 33.279999 85.839996 C 32.995243 85.826157 32.713924 85.907036 32.480000 86.070000 C 32.289696 86.226288 32.185623 86.464165 32.200001 86.709999 C 32.192314 86.912018 32.256042 87.110291 32.380001 87.269997 C 32.587772 87.473732 32.832024 87.636566 33.100002 87.750000 L 33.750000 88.070000 C 34.107838 88.234238 34.443771 88.442520 34.750000 88.690002 C 34.985207 88.873383 35.173676 89.109825 35.299999 89.380005 C 35.419373 89.671707 35.477249 89.984909 35.469997 90.300003 C 35.500259 90.936478 35.225426 91.549286 34.729996 91.950005 C 34.153336 92.377327 33.446980 92.592766 32.729996 92.560005 C 32.346863 92.559677 31.964802 92.519463 31.589996 92.440002 C 31.261326 92.372986 30.942228 92.265503 30.639996 92.120003 L 30.639999 90.919998 C 30.967495 91.025146 31.301548 91.108665 31.639999 91.169998 C 31.969118 91.238113 32.303944 91.274940 32.639999 91.279999 C 32.953579 91.302475 33.265076 91.213982 33.520000 91.029999 C 33.726395 90.853905 33.837593 90.590736 33.820000 90.320000 C 33.826088 90.107033 33.751022 89.899704 33.610001 89.739998 C 33.402325 89.543411 33.162090 89.384384 32.900002 89.269997 Z" fill="#232F3E"/><path d=" M 39.279999 92.349998 L 39.279999 84.720001 L 41.799999 84.720001 C 42.397053 84.697823 42.981205 84.897285 43.439999 85.279999 C 43.863220 85.649055 44.098194 86.188759 44.079998 86.750000 C 44.088867 87.099831 44.002449 87.445496 43.829998 87.750000 C 43.651505 88.024216 43.393234 88.237114 43.089996 88.360001 C 43.931160 88.571098 44.499996 89.354828 44.439995 90.220001 C 44.463860 90.820930 44.204773 91.398331 43.739994 91.779999 C 43.206890 92.193230 42.543720 92.402466 41.869995 92.369995 Z M 40.869999 85.820000 L 40.869999 87.930000 L 41.549999 87.930000 C 41.799179 87.942482 42.041012 87.843552 42.209999 87.660004 C 42.381992 87.441597 42.467438 87.167458 42.450001 86.890007 C 42.466766 86.610947 42.393124 86.333908 42.240002 86.100006 C 42.103634 85.917992 41.887341 85.813576 41.660000 85.820007 Z M 40.869999 88.980003 L 40.869999 91.250000 L 41.869999 91.250000 C 42.135132 91.263878 42.392361 91.157310 42.570000 90.959999 C 42.754501 90.720627 42.843586 90.421303 42.820000 90.120003 C 42.840961 89.815750 42.744312 89.515060 42.549999 89.280006 C 42.346249 89.070953 42.061325 88.961365 41.770000 88.980003 Z" fill="#232F3E"/><path d=" M 48.459999 92.349998 L 48.320000 91.839996 C 48.166901 92.044678 47.963722 92.206528 47.730000 92.309998 C 47.486252 92.426201 47.220020 92.487640 46.950001 92.489998 C 46.501774 92.502930 46.069164 92.324799 45.760002 92.000000 C 45.149269 91.252548 45.192177 90.166916 45.860001 89.470001 C 46.257275 89.133095 46.770317 88.964470 47.290001 89.000000 C 47.604031 89.006668 47.916180 89.050301 48.220001 89.129997 L 48.220001 88.620003 C 48.247574 88.349762 48.191738 88.077560 48.060001 87.840004 C 47.895477 87.687714 47.672756 87.614693 47.450001 87.640007 C 46.845547 87.665237 46.248566 87.783279 45.680000 87.990005 L 45.680000 87.000000 C 45.966564 86.840446 46.277355 86.728966 46.599998 86.669998 C 46.978016 86.589485 47.363503 86.549255 47.750000 86.549995 C 48.293797 86.502090 48.835880 86.659012 49.270000 86.989998 C 49.614773 87.366852 49.785324 87.871239 49.740002 88.379997 L 49.740002 92.320000 Z M 47.459999 91.430000 C 47.758343 91.418404 48.040970 91.293190 48.250000 91.080002 L 48.250000 90.000000 C 48.047588 89.947983 47.838913 89.924423 47.630001 89.930000 C 47.429070 89.911972 47.230713 89.985435 47.090000 90.129997 C 46.950947 90.293694 46.882603 90.505920 46.900002 90.719994 C 46.889713 90.905304 46.942593 91.088631 47.050003 91.239990 C 47.141197 91.357796 47.281040 91.427719 47.430004 91.429993 Z" fill="#232F3E"/><path d=" M 54.169998 92.199997 C 53.776688 92.347153 53.359932 92.421692 52.939999 92.419998 C 52.142197 92.570419 51.373508 92.045616 51.223083 91.247818 C 51.190216 91.073509 51.189171 90.894684 51.219997 90.720001 L 51.220001 87.820000 L 50.490002 87.820000 L 50.490002 86.900002 L 51.270000 86.750000 L 51.509998 85.209999 L 52.869999 85.209999 L 52.869999 86.720001 L 54.150002 86.720001 L 54.150002 87.820000 L 52.869999 87.820000 L 52.869999 90.589996 C 52.851528 90.776146 52.905220 90.962288 53.020000 91.109993 C 53.165340 91.237236 53.358528 91.295555 53.549999 91.269997 C 53.758976 91.266144 53.966892 91.239319 54.169998 91.189995 Z" fill="#232F3E"/><path d=" M 58.689999 92.089996 C 58.493362 92.213127 58.276798 92.301109 58.049999 92.349998 C 57.787773 92.411209 57.519268 92.441414 57.250000 92.439995 C 56.554337 92.491119 55.873302 92.222382 55.400002 91.709991 C 54.555550 90.393791 54.555550 88.706192 55.400002 87.389992 C 55.880344 86.866623 56.570889 86.587463 57.280003 86.629990 C 57.749954 86.630135 58.212978 86.743317 58.630001 86.959991 L 58.630001 87.959999 C 58.309464 87.841820 57.971546 87.777618 57.630001 87.769997 C 57.271946 87.735214 56.921013 87.886154 56.700001 88.169998 C 56.482071 88.563194 56.384689 89.011833 56.420002 89.459999 L 56.419998 89.620003 C 56.385353 90.063736 56.479080 90.508072 56.689999 90.900002 C 56.900890 91.185333 57.247185 91.337547 57.599998 91.300003 C 57.969379 91.292480 58.334713 91.221443 58.680000 91.090004 Z" fill="#232F3E"/><path d=" M 62.849998 92.349998 L 62.849998 88.650002 C 62.869312 88.407036 62.817173 88.163719 62.699997 87.950005 C 62.588669 87.793205 62.401146 87.709015 62.209995 87.730003 C 61.917965 87.739677 61.634247 87.829636 61.389996 87.990005 L 61.389999 92.349998 L 59.740002 92.349998 L 59.740002 84.209999 L 61.389999 84.209999 L 61.389999 87.120003 C 61.885693 86.788361 62.463978 86.601364 63.059998 86.580002 C 63.461651 86.552147 63.854538 86.706367 64.129997 87.000000 C 64.399727 87.347038 64.531517 87.781601 64.500000 88.220001 L 64.500000 92.349998 Z" fill="#232F3E"/></g><g id="ICONS_-_EDIT"><rect x="39.000000" y="27.750000" width="2.000000" height="7.000000" fill="#FFFFFF"/><rect x="39.000000" y="44.750000" width="2.000000" height="8.000000" fill="#FFFFFF"/><rect x="58.000000" y="44.750000" width="2.000000" height="9.000000" fill="#FFFFFF"/><rect x="20.000000" y="45.750000" width="2.000000" height="8.000000" fill="#FFFFFF"/><rect x="27.000000" y="38.750000" width="8.000000" height="2.000000" fill="#FFFFFF"/><rect x="45.000000" y="38.750000" width="9.000000" height="2.000000" fill="#FFFFFF"/><path d=" M 59.049999 46.000000 C 55.736290 46.000000 53.049999 43.313709 53.049999 40.000000 C 53.049999 36.686291 55.736290 34.000000 59.049999 34.000000 C 62.363708 34.000000 65.050003 36.686291 65.050003 40.000000 C 65.050003 43.313709 62.363712 46.000000 59.050003 46.000000 Z M 59.049999 36.099998 C 56.840858 36.099998 55.049999 37.890858 55.049999 40.099998 C 55.049999 42.309139 56.840858 44.099998 59.049999 44.099998 C 61.259140 44.099998 63.049999 42.309139 63.049999 40.099998 C 63.077614 37.891033 61.309277 36.077927 59.100311 36.050312 C 59.083542 36.050102 59.066769 36.049999 59.049999 36.049999 Z" fill="#FFFFFF"/><path d=" M 59.049999 64.750000 C 55.764023 64.722267 53.122692 62.035976 53.150421 58.750000 C 53.178154 55.464024 55.864445 52.822693 59.150421 52.850422 C 62.397251 52.877823 65.022598 55.503170 65.049995 58.750000 C 65.049995 62.063709 62.363705 64.750000 59.049995 64.750000 Z M 59.049999 54.860001 C 56.868649 54.887623 55.122707 56.678345 55.150330 58.859695 C 55.177952 61.041046 56.968674 62.786987 59.150024 62.759365 C 61.315643 62.731945 63.055309 60.965782 63.049999 58.799999 C 63.044651 56.618481 61.271847 54.854347 59.090328 54.859695 C 59.076885 54.859730 59.063442 54.859829 59.049999 54.860001 Z" fill="#FFFFFF"/><path d=" M 21.440001 46.439999 C 17.883291 46.434475 15.004485 43.546715 15.010008 39.990005 C 15.015531 36.433296 17.903290 33.554489 21.460001 33.560013 C 25.012802 33.565529 27.889997 36.447189 27.890001 39.999996 C 27.884485 43.558327 24.998337 46.439999 21.440001 46.439995 Z M 21.440001 35.560001 C 18.987862 35.565525 17.004490 37.557854 17.010012 40.009991 C 17.015535 42.462128 19.007862 44.445503 21.460001 44.439980 C 23.908230 44.434467 25.889996 42.448238 25.890001 40.000004 C 25.890007 37.547859 23.902157 35.559998 21.450012 35.559994 C 21.446674 35.559994 21.443338 35.559998 21.440001 35.560005 Z" fill="#FFFFFF"/><path d=" M 40.250000 46.000000 C 36.936291 46.000000 34.250000 43.313709 34.250000 40.000000 C 34.250000 36.686291 36.936291 34.000000 40.250000 34.000000 C 43.563709 34.000000 46.250000 36.686291 46.250000 40.000000 C 46.250000 43.313709 43.563709 46.000000 40.250000 46.000000 Z M 40.250000 36.099998 C 38.040859 36.099998 36.250000 37.890858 36.250000 40.099998 C 36.250000 42.309139 38.040859 44.099998 40.250000 44.099998 C 42.459141 44.099998 44.250000 42.309139 44.250000 40.099998 C 44.277615 37.891033 42.509277 36.077927 40.300312 36.050312 C 40.283543 36.050102 40.266769 36.049999 40.250000 36.049999 Z" fill="#FFFFFF"/><path d=" M 21.440001 64.750000 C 18.153906 64.749886 15.490094 62.085884 15.490211 58.799789 C 15.490327 55.513695 18.154325 52.849884 21.440420 52.849998 C 24.706923 52.850113 27.362551 55.483612 27.389999 58.750000 C 27.390114 62.044281 24.734165 64.722549 21.439999 64.750000 Z M 21.440001 54.860001 C 19.258476 54.860008 17.490005 56.628487 17.490013 58.810013 C 17.490021 60.991539 19.258501 62.760006 21.440025 62.759998 C 23.621550 62.759991 25.390020 60.991512 25.390013 58.809986 C 25.390013 58.806656 25.390009 58.803329 25.389999 58.799999 C 25.357666 56.633648 23.606426 54.886841 21.439999 54.860001 Z" fill="#FFFFFF"/><path d=" M 40.250000 64.750000 C 36.693287 64.750000 33.810001 61.866714 33.810001 58.310001 C 33.810001 54.753288 36.693287 51.870003 40.250000 51.870003 C 43.806713 51.870003 46.689999 54.753288 46.689999 58.310001 C 46.679020 61.862156 43.802155 64.739021 40.250000 64.750000 Z M 40.250000 53.869999 C 37.797855 53.869999 35.810001 55.857853 35.810001 58.309998 C 35.810001 60.762142 37.797855 62.749996 40.250000 62.749996 C 42.702145 62.749996 44.689999 60.762142 44.689999 58.309998 C 44.684498 55.860134 42.699860 53.875496 40.250000 53.869999 Z" fill="#FFFFFF"/><path d=" M 40.250000 29.120001 C 36.417145 29.119997 33.310001 26.012850 33.310009 22.179995 C 33.310013 18.347139 36.417160 15.239998 40.250015 15.240002 C 44.082870 15.240005 47.190014 18.347153 47.190006 22.180008 C 47.190006 22.183338 47.190002 22.186670 47.189999 22.190001 C 47.184483 26.018951 44.078953 29.120005 40.250000 29.120001 Z M 40.250000 17.250000 C 37.521713 17.250000 35.310001 19.461714 35.310001 22.190001 C 35.310001 24.918287 37.521713 27.130001 40.250000 27.130001 C 42.978287 27.130001 45.189999 24.918287 45.189999 22.190001 C 45.189999 19.461714 42.978287 17.250000 40.250000 17.250000 Z" fill="#FFFFFF"/><circle cx="21.440000" cy="40.000000" r="1.980000" fill="#FFFFFF"/><circle cx="40.250000" cy="58.310000" r="1.980000" fill="#FFFFFF"/></g></svg>