<svg version="1.1" width="80.000000" height="115.000000" viewBox="0.000000 0.000000 80.000000 115.000000" xmlns="http://www.w3.org/2000/svg" xmlns:xlink="http://www.w3.org/1999/xlink" overflow="hidden"><g id="CARDS"><rect x="1.000000" y="1.000000" width="78.000000" height="78.000000" fill="#232F3E"/><path d=" M 0.000000 0.000000 L 0.000000 80.000000 L 0.000000 80.000000 L 0.000000 115.000000 L 80.000000 115.000000 L 80.000000 80.000000 L 80.000000 80.000000 L 80.000000 0.000000 Z M 1.000000 1.000000 L 79.000000 1.000000 L 79.000000 79.000000 L 1.000000 79.000000 Z" fill="#FFFFFF"/></g><g id="TEXT_-_EDIT"><path d=" M 16.920000 92.129997 C 16.355158 92.360497 15.750032 92.476082 15.140000 92.469994 C 12.893333 92.470001 11.770000 91.169998 11.770000 88.570000 C 11.698548 87.512779 12.011020 86.465294 12.650001 85.620003 C 13.298504 84.920914 14.228779 84.553215 15.180000 84.620003 C 15.743499 84.620705 16.302317 84.722313 16.830000 84.920006 L 16.830000 86.129997 C 16.358503 85.991577 15.871185 85.914284 15.380000 85.899994 C 14.840755 85.856819 14.315546 86.085663 13.980000 86.509995 C 13.643435 87.094772 13.490154 87.767120 13.540001 88.439995 L 13.540000 88.690002 C 13.486975 89.352310 13.636965 90.015060 13.970000 90.590004 C 14.295746 91.015533 14.816040 91.245522 15.350000 91.200005 C 15.881387 91.172112 16.407991 91.084900 16.920000 90.940002 Z" fill="#232F3E"/><path d=" M 20.320000 92.250000 C 19.999802 92.366165 19.660456 92.420456 19.320000 92.410004 C 18.931650 92.422470 18.555367 92.274124 18.279999 92.000000 C 18.016510 91.689018 17.887053 91.286263 17.919998 90.879997 L 17.920000 84.209999 L 19.570000 84.209999 L 19.570000 90.750000 C 19.559198 90.888161 19.586889 91.026619 19.650000 91.150002 C 19.729671 91.241310 19.849936 91.286407 19.969999 91.270004 C 20.086470 91.279564 20.203527 91.279564 20.320000 91.270004 Z" fill="#232F3E"/><path d=" M 24.240000 92.349998 L 24.090000 91.839996 C 23.936903 92.044678 23.733725 92.206528 23.500000 92.309998 C 23.256252 92.426201 22.990021 92.487640 22.719999 92.489998 C 22.274750 92.502617 21.845339 92.324303 21.539999 92.000000 C 21.233969 91.669823 21.075167 91.229507 21.099998 90.779999 C 21.076857 90.286880 21.270481 89.808296 21.629999 89.470001 C 22.033863 89.137909 22.547987 88.970108 23.070000 89.000000 C 23.380766 89.006325 23.689648 89.049973 23.990000 89.129997 L 23.990000 88.620003 C 24.017572 88.349762 23.961737 88.077560 23.830000 87.840004 C 23.665478 87.687714 23.442753 87.614693 23.219999 87.640007 C 22.615545 87.665237 22.018566 87.783279 21.449999 87.990005 L 21.450001 87.000000 C 21.737078 86.841576 22.047680 86.730164 22.370001 86.669998 C 22.748098 86.589996 23.133532 86.549774 23.520000 86.549995 C 24.051649 86.514969 24.577831 86.674957 25.000000 86.999992 C 25.349232 87.374199 25.520473 87.880630 25.469999 88.389992 L 25.469999 92.330002 Z M 23.240000 91.430000 C 23.538345 91.418404 23.820971 91.293190 24.030001 91.080002 L 24.030001 90.000000 C 23.827587 89.947983 23.618916 89.924423 23.410000 89.930000 C 23.209454 89.914780 23.012249 89.987816 22.869999 90.129997 C 22.738237 90.297188 22.674004 90.507729 22.689999 90.719994 C 22.679708 90.905304 22.732592 91.088631 22.839998 91.239990 C 22.924925 91.354698 23.057375 91.424606 23.199999 91.429993 Z" fill="#232F3E"/><path d=" M 28.910000 90.769997 C 28.910000 90.519997 28.740000 90.309998 28.389999 90.150002 L 27.670000 89.800003 C 26.992706 89.565338 26.538898 88.926796 26.540001 88.210007 C 26.511604 87.740471 26.717571 87.287346 27.090000 87.000008 C 27.512360 86.682838 28.032471 86.523621 28.559999 86.550011 C 29.089649 86.551735 29.612278 86.671295 30.090000 86.900009 L 30.090000 87.900002 C 29.861443 87.820229 29.627523 87.756737 29.389999 87.709999 C 29.192863 87.666542 28.991846 87.643089 28.789999 87.639999 C 28.280001 87.639999 28.020000 87.820000 28.020000 88.180000 C 28.020000 88.540001 28.230000 88.629997 28.660000 88.839996 L 29.379999 89.180000 C 29.686876 89.315102 29.952536 89.529015 30.150000 89.800003 C 30.318260 90.080269 30.401627 90.403313 30.389999 90.730003 C 30.414759 91.215942 30.211359 91.685608 29.840000 92.000000 C 29.415514 92.321449 28.891912 92.484184 28.360001 92.459999 C 27.726130 92.467438 27.100470 92.316177 26.540001 92.019997 L 26.540001 91.019997 C 27.055830 91.217575 27.598698 91.335594 28.150002 91.369995 C 28.354174 91.382927 28.556271 91.322655 28.720001 91.199997 C 28.843344 91.091476 28.912809 90.934265 28.910002 90.769997 Z" fill="#232F3E"/><path d=" M 33.320000 90.769997 C 33.320000 90.519997 33.150002 90.309998 32.799999 90.150002 L 32.080002 89.800003 C 31.422424 89.548630 30.991308 88.913933 31.000002 88.210007 C 30.959696 87.749321 31.146250 87.297859 31.500002 87.000008 C 31.934431 86.686676 32.466030 86.537827 33.000000 86.580009 C 33.529648 86.581734 34.052277 86.701294 34.529999 86.930008 L 34.529999 87.930000 C 34.301048 87.851501 34.067219 87.788033 33.829998 87.739998 C 33.632862 87.696541 33.431843 87.673088 33.230000 87.669998 C 32.720001 87.669998 32.459999 87.849998 32.459999 88.209999 C 32.459999 88.570000 32.669998 88.660004 33.099998 88.870003 L 33.820000 89.209999 C 34.126877 89.345100 34.392536 89.559013 34.590000 89.830002 C 34.758263 90.110268 34.841629 90.433311 34.830002 90.760002 C 34.838036 91.240616 34.624050 91.698105 34.250000 92.000000 C 33.824741 92.319939 33.301693 92.482506 32.770000 92.459999 C 32.155529 92.468468 31.548168 92.327774 31.000000 92.049995 L 31.000000 91.050003 C 31.515829 91.247581 32.058697 91.365601 32.610001 91.400002 C 32.814175 91.412933 33.016270 91.352661 33.180000 91.230003 C 33.293468 91.105530 33.344887 90.936584 33.320000 90.770004 Z" fill="#232F3E"/><path d=" M 36.599998 85.809998 C 36.343857 85.830612 36.089607 85.751831 35.889999 85.589996 C 35.710804 85.439140 35.611183 85.214073 35.619999 84.979996 C 35.609642 84.745628 35.709549 84.519913 35.889999 84.369995 C 36.310440 84.064751 36.879559 84.064751 37.299999 84.369995 C 37.474262 84.523682 37.569809 84.747849 37.559998 84.979996 C 37.566990 85.211624 37.471935 85.434639 37.299999 85.589996 C 37.102970 85.749374 36.852779 85.828011 36.599998 85.809998 Z M 35.770000 92.349998 L 35.770000 86.720001 L 37.419998 86.720001 L 37.419998 92.349998 Z" fill="#232F3E"/><path d=" M 42.509998 92.089996 C 42.313362 92.213127 42.096798 92.301109 41.869999 92.349998 C 41.607773 92.411209 41.339268 92.441414 41.070000 92.439995 C 40.374336 92.491119 39.693302 92.222382 39.220001 91.709991 C 38.766224 91.085075 38.546745 90.320442 38.600002 89.549988 C 38.549225 88.771988 38.787853 88.002678 39.270000 87.389984 C 39.746403 86.867004 40.433830 86.587616 41.139999 86.629982 C 41.609951 86.630127 42.072975 86.743309 42.489998 86.959984 L 42.490002 87.959999 C 42.169464 87.841820 41.831547 87.777618 41.490002 87.769997 C 41.131947 87.735214 40.781013 87.886154 40.560001 88.169998 C 40.342072 88.563194 40.244690 89.011833 40.280003 89.459999 L 40.279999 89.620003 C 40.245354 90.063736 40.339081 90.508072 40.549999 90.900002 C 40.760891 91.185333 41.107185 91.337547 41.459999 91.300003 C 41.829380 91.292480 42.194714 91.221443 42.540001 91.090004 Z" fill="#232F3E"/><path d=" M 46.209999 92.349998 L 46.209999 84.720001 L 47.900002 84.720001 L 47.900002 91.120003 L 50.740002 91.120003 L 50.740002 92.349998 Z" fill="#232F3E"/><path d=" M 53.740002 92.489998 C 53.040714 92.530975 52.361679 92.246811 51.900002 91.720001 C 51.033985 90.392052 51.033985 88.677956 51.900002 87.349998 C 52.898827 86.333794 54.532333 86.319710 55.548538 87.318535 C 55.559116 87.328934 55.569607 87.339424 55.580002 87.349998 C 56.446018 88.677948 56.446018 90.392044 55.580002 91.720001 C 55.116539 92.244324 54.438770 92.527962 53.740002 92.489998 Z M 53.740002 91.339996 C 54.024494 91.352325 54.283890 91.178047 54.380001 90.909996 C 54.646797 90.016144 54.646797 89.063843 54.380001 88.169998 C 54.237579 87.816536 53.835587 87.645454 53.482124 87.787872 C 53.308094 87.857994 53.170124 87.995964 53.099998 88.169998 C 52.833202 89.063850 52.833202 90.016151 53.099998 90.909996 C 53.196110 91.178047 53.455505 91.352325 53.739998 91.339996 Z" fill="#232F3E"/><path d=" M 60.290001 92.349998 L 60.150002 91.839996 C 59.996902 92.044678 59.793724 92.206528 59.560001 92.309998 C 59.316254 92.426201 59.050022 92.487640 58.780003 92.489998 C 58.334274 92.505234 57.903828 92.326492 57.600002 92.000000 C 57.293972 91.669823 57.135170 91.229507 57.160004 90.779999 C 57.136860 90.286880 57.330486 89.808296 57.690002 89.470001 C 58.087276 89.133095 58.600319 88.964470 59.120003 89.000000 C 59.434032 89.006668 59.746181 89.050301 60.050003 89.129997 L 60.049999 88.620003 C 60.077572 88.349762 60.021736 88.077560 59.889999 87.840004 C 59.725475 87.687714 59.502754 87.614693 59.279999 87.640007 C 58.675545 87.665237 58.078564 87.783279 57.509998 87.990005 L 57.509998 87.000000 C 57.796562 86.840446 58.107353 86.728966 58.429996 86.669998 C 58.808014 86.589485 59.193501 86.549255 59.579998 86.549995 C 60.125080 86.504929 60.667301 86.665451 61.099998 86.999992 C 61.444771 87.376846 61.615322 87.881233 61.570000 88.389992 L 61.570000 92.330002 Z M 59.290001 91.430000 C 59.588345 91.418404 59.870972 91.293190 60.080002 91.080002 L 60.080002 90.000000 C 59.877590 89.947983 59.668915 89.924423 59.460003 89.930000 C 59.259071 89.911972 59.060715 89.985435 58.920002 90.129997 C 58.784664 90.295738 58.716816 90.506424 58.730003 90.719994 C 58.719715 90.905304 58.772594 91.088631 58.880005 91.239990 C 58.971199 91.357796 59.111042 91.427719 59.260006 91.429993 Z" fill="#232F3E"/><path d=" M 66.220001 92.349998 L 66.089996 91.860001 C 65.906631 92.038925 65.693428 92.184441 65.459999 92.290001 C 65.232376 92.387421 64.987587 92.438423 64.739998 92.440002 C 64.141068 92.466835 63.570511 92.183449 63.230000 91.690002 C 62.835480 91.052330 62.646935 90.308617 62.689999 89.560005 C 62.645649 88.789658 62.841301 88.024506 63.250000 87.370003 C 63.581581 86.856697 64.159370 86.556396 64.769997 86.580002 C 64.988846 86.589363 65.204842 86.633240 65.409996 86.709999 C 65.619278 86.778542 65.817886 86.876167 65.999992 87.000000 L 66.000000 84.209999 L 67.650002 84.209999 L 67.650002 92.349998 Z M 65.290001 91.349998 C 65.545052 91.333046 65.790596 91.246582 66.000000 91.099998 L 66.000000 88.000000 C 65.762627 87.840775 65.485626 87.750748 65.199997 87.739998 C 64.905640 87.728607 64.636505 87.905350 64.529999 88.180000 C 64.363647 88.623573 64.292107 89.097084 64.320000 89.570000 C 64.291809 90.034950 64.370491 90.500175 64.550003 90.930000 C 64.694542 91.198257 64.987015 91.352402 65.290001 91.320000 Z" fill="#232F3E"/><path d=" M 20.000000 106.349998 L 20.000000 98.720001 L 22.510000 98.720001 C 23.107332 98.695900 23.692158 98.895592 24.150000 99.279999 C 24.573221 99.649055 24.808197 100.188759 24.789999 100.750000 C 24.804203 101.100403 24.717428 101.447510 24.539999 101.750000 C 24.361506 102.024216 24.103233 102.237114 23.799999 102.360001 C 24.197876 102.473038 24.548613 102.711540 24.799999 103.040001 C 25.034269 103.387947 25.153212 103.800743 25.139999 104.220001 C 25.163864 104.820930 24.904778 105.398331 24.439999 105.779999 C 23.911655 106.194946 23.250921 106.404533 22.579998 106.369995 Z M 21.590000 99.820000 L 21.590000 101.930000 L 22.260000 101.930000 C 22.509180 101.942482 22.751015 101.843552 22.920000 101.660004 C 23.091993 101.441597 23.177441 101.167458 23.160000 100.890007 C 23.176765 100.610947 23.103125 100.333908 22.950001 100.100006 C 22.813633 99.917992 22.597340 99.813576 22.370001 99.820007 Z M 21.590000 102.980003 L 21.590000 105.250000 L 22.590000 105.250000 C 22.858072 105.264053 23.118425 105.157715 23.299999 104.959999 C 23.476032 104.716812 23.560984 104.419479 23.539999 104.120003 C 23.560963 103.815750 23.464312 103.515060 23.269999 103.280006 C 23.066250 103.070953 22.781324 102.961365 22.489998 102.980003 Z" fill="#232F3E"/><path d=" M 29.129999 106.349998 L 28.980000 105.839996 C 28.829302 106.046989 28.625443 106.209389 28.389999 106.309998 C 28.146252 106.426201 27.880020 106.487640 27.609999 106.489998 C 27.170818 106.513031 26.742317 106.349617 26.429998 106.040001 C 26.123968 105.709824 25.965166 105.269508 25.989998 104.820000 C 25.966856 104.326881 26.160480 103.848297 26.519999 103.510002 C 26.928099 103.153763 27.459076 102.970795 27.999998 103.000000 C 28.314028 103.006668 28.626177 103.050301 28.929998 103.129997 L 28.930000 102.620003 C 28.955198 102.348686 28.895815 102.076225 28.760000 101.840004 C 28.595478 101.687714 28.372753 101.614693 28.150000 101.640007 C 27.545546 101.665237 26.948566 101.783279 26.379999 101.990005 L 26.379999 100.989998 C 26.667076 100.831573 26.977678 100.720161 27.299999 100.659996 C 27.681402 100.579514 28.070198 100.539299 28.459999 100.539993 C 29.000547 100.493652 29.538952 100.650543 29.969999 100.979996 C 30.319231 101.354202 30.490473 101.860634 30.439999 102.369995 L 30.440001 106.309998 Z M 28.129999 105.430000 C 28.430935 105.416977 28.716192 105.292175 28.929998 105.080002 L 28.930000 104.000000 C 28.724060 103.948677 28.512182 103.925140 28.300001 103.930000 C 28.099455 103.914780 27.902250 103.987816 27.760000 104.129997 C 27.628239 104.297188 27.564005 104.507729 27.580000 104.719994 C 27.569710 104.905304 27.622593 105.088631 27.730000 105.239990 C 27.814926 105.354698 27.947376 105.424606 28.090000 105.429993 Z" fill="#232F3E"/><path d=" M 34.200001 106.250000 C 33.879742 106.365929 33.540443 106.420219 33.200001 106.410004 C 32.806992 106.444092 32.418003 106.309586 32.130001 106.040001 C 31.866512 105.729019 31.737055 105.326263 31.770000 104.919998 L 31.770000 98.209999 L 33.419998 98.209999 L 33.419998 104.750000 C 33.409195 104.888161 33.436886 105.026619 33.500000 105.150002 C 33.579670 105.241310 33.699936 105.286407 33.820000 105.270004 C 33.936489 105.279053 34.053509 105.279053 34.169998 105.270004 Z" fill="#232F3E"/><path d=" M 38.110001 106.349998 L 37.970001 105.839996 C 37.816902 106.044678 37.613724 106.206528 37.380001 106.309998 C 37.136253 106.426201 36.870022 106.487640 36.600002 106.489998 C 36.160423 106.515594 35.730915 106.351791 35.420002 106.040001 C 35.113972 105.709824 34.955170 105.269508 34.980003 104.820000 C 34.956860 104.326881 35.150486 103.848297 35.510002 103.510002 C 35.907276 103.173096 36.420319 103.004471 36.940002 103.040001 C 37.254032 103.046669 37.566181 103.090302 37.870003 103.169998 L 37.869999 102.660004 C 37.897572 102.389763 37.841736 102.117561 37.709999 101.880005 C 37.545475 101.727715 37.322754 101.654694 37.099998 101.680008 C 36.495544 101.705238 35.898563 101.823280 35.329998 102.030006 L 35.330002 101.029999 C 35.616566 100.870445 35.927357 100.758965 36.250000 100.699997 C 36.628017 100.619484 37.013504 100.579254 37.400002 100.579994 C 37.943798 100.532089 38.485882 100.689011 38.920002 101.019997 C 39.264774 101.396851 39.435326 101.901237 39.390003 102.409996 L 39.389999 106.349998 Z M 37.110001 105.430000 C 37.408344 105.418404 37.690971 105.293190 37.900002 105.080002 L 37.900002 104.000000 C 37.697590 103.947983 37.488914 103.924423 37.280003 103.930000 C 37.079071 103.911972 36.880714 103.985435 36.740002 104.129997 C 36.604664 104.295738 36.536816 104.506424 36.550003 104.719994 C 36.539715 104.905304 36.592594 105.088631 36.700005 105.239990 C 36.791199 105.357796 36.931042 105.427719 37.080006 105.429993 Z" fill="#232F3E"/><path d=" M 43.900002 106.349998 L 43.900002 102.650002 C 43.919315 102.407036 43.867176 102.163719 43.750000 101.950005 C 43.638672 101.793205 43.451149 101.709015 43.259998 101.730003 C 42.967968 101.739677 42.684250 101.829636 42.439999 101.990005 L 42.439999 106.349998 L 40.790001 106.349998 L 40.790001 100.720001 L 42.139999 100.720001 L 42.270000 101.230003 C 42.805241 100.835541 43.445751 100.609268 44.110001 100.580002 C 44.511654 100.552147 44.904541 100.706367 45.180000 101.000000 C 45.445580 101.349174 45.576885 101.782127 45.549999 102.220001 L 45.549999 106.349998 Z" fill="#232F3E"/><path d=" M 50.580002 106.089996 C 50.383366 106.213127 50.166801 106.301109 49.940002 106.349998 C 49.677776 106.411209 49.409271 106.441414 49.140003 106.439995 C 48.444569 106.489639 47.764153 106.221146 47.290005 105.709991 C 46.836227 105.085075 46.616749 104.320442 46.670006 103.549988 C 46.619228 102.771988 46.857857 102.002678 47.340004 101.389984 C 47.816406 100.867004 48.503834 100.587616 49.210003 100.629982 C 49.679955 100.630127 50.142979 100.743309 50.560001 100.959984 L 50.560001 101.959999 C 50.239464 101.841820 49.901546 101.777618 49.560001 101.769997 C 49.201946 101.735214 48.851013 101.886154 48.630001 102.169998 C 48.412071 102.563194 48.314690 103.011833 48.350002 103.459999 L 48.349998 103.620003 C 48.313049 104.065079 48.410595 104.511002 48.629997 104.900002 C 48.838989 105.182068 49.180584 105.333885 49.529999 105.300003 C 49.899380 105.292480 50.264713 105.221443 50.610001 105.090004 Z" fill="#232F3E"/><path d=" M 52.849998 103.919998 C 52.829250 104.324760 52.957298 104.723129 53.209999 105.040001 C 53.505566 105.286263 53.886879 105.404976 54.270000 105.370003 C 54.499203 105.363998 54.727131 105.333832 54.950001 105.280006 C 55.221527 105.230042 55.488941 105.159843 55.750000 105.070007 L 55.750000 106.070000 C 55.491760 106.217194 55.211506 106.321869 54.919998 106.379997 C 54.591473 106.451813 54.256275 106.488686 53.919998 106.489998 C 52.200001 106.489998 51.340000 105.489998 51.340000 103.540001 C 51.285515 102.753960 51.512363 101.974152 51.980000 101.340004 C 52.434650 100.816292 53.107925 100.535149 53.799999 100.580002 C 55.169998 100.580002 55.799999 101.339996 55.799999 102.870003 C 55.799126 103.206871 55.758854 103.542488 55.680000 103.870003 Z M 53.759998 101.599998 C 53.189999 101.599998 52.880001 102.059998 52.849998 102.970001 L 54.459999 102.970001 L 54.459999 102.720001 C 54.485039 102.423065 54.426132 102.125076 54.290001 101.860001 C 54.172512 101.684830 53.970444 101.585701 53.760002 101.599998 Z" fill="#232F3E"/><path d=" M 57.000000 106.349998 L 57.000000 100.720001 L 58.349998 100.720001 L 58.529999 101.449997 C 58.730946 101.209991 58.975178 101.009857 59.250000 100.860001 C 59.479919 100.734291 59.737957 100.668915 60.000000 100.669998 C 60.129810 100.660080 60.260189 100.660080 60.389999 100.669998 L 60.389999 102.000000 C 60.176884 101.986336 59.963116 101.986336 59.750000 102.000000 C 59.368164 102.000481 58.991642 102.089478 58.650002 102.260002 L 58.650002 106.370003 Z" fill="#232F3E"/></g><g id="ICONS_-_EDIT"><path d=" M 53.000000 57.000000 L 28.000000 57.000000 C 27.447716 57.000000 27.000000 56.552284 27.000000 56.000000 L 27.000000 23.000000 C 27.000000 22.447716 27.447716 22.000000 28.000000 22.000000 L 47.000000 22.000000 L 47.000000 24.000000 L 29.000000 24.000000 L 29.000000 55.000000 L 52.000000 55.000000 L 52.000000 29.000000 L 54.000000 29.000000 L 54.000000 56.000000 C 54.000000 56.552284 53.552284 57.000000 53.000000 57.000000 Z" fill="#FFFFFF"/><path d=" M 53.000000 30.000000 L 47.000000 30.000000 C 46.447716 30.000000 46.000000 29.552284 46.000000 29.000000 L 46.000000 23.000000 C 46.002014 22.596298 46.246574 22.233404 46.619999 22.080000 C 46.992397 21.923403 47.422440 22.006256 47.709999 22.289999 L 53.709999 28.290001 C 53.993744 28.577562 54.076595 29.007605 53.919998 29.380001 C 53.766594 29.753428 53.403702 29.997986 53.000000 30.000002 Z M 48.000000 28.000000 L 50.590000 28.000000 L 48.000000 25.410000 Z" fill="#FFFFFF"/><path d=" M 40.500000 51.000000 C 34.750931 50.950294 30.130684 46.249458 30.180389 40.500389 C 30.230095 34.751320 34.930931 30.131073 40.680000 30.180779 C 46.393803 30.230179 50.999786 34.875984 51.000000 40.590000 C 50.966953 46.360699 46.270767 51.016628 40.500000 51.000000 Z M 40.500000 32.189999 C 35.855553 32.239708 32.130779 36.045074 32.180489 40.689522 C 32.230198 45.333969 36.035564 49.058743 40.680012 49.009033 C 45.293060 48.959660 49.005222 45.203308 49.000000 40.589996 C 48.966969 35.925472 45.164589 32.167824 40.500000 32.189995 Z" fill="#FFFFFF"/><path d=" M 35.500000 43.450001 C 33.843147 43.450001 32.500000 42.106853 32.500000 40.450001 C 32.500000 38.793148 33.843147 37.450001 35.500000 37.450001 C 37.156853 37.450001 38.500000 38.793148 38.500000 40.450001 C 38.500000 42.106853 37.156853 43.450001 35.500000 43.450001 Z M 35.500000 39.549999 C 34.947716 39.549999 34.500000 39.997715 34.500000 40.549999 C 34.500000 41.102283 34.947716 41.549999 35.500000 41.549999 C 36.052284 41.549999 36.500000 41.102283 36.500000 40.549999 C 36.500000 39.997715 36.052284 39.549999 35.500000 39.549999 Z" fill="#FFFFFF"/><path d=" M 43.500000 39.400002 C 41.898373 39.400002 40.599998 38.101627 40.599998 36.500000 C 40.599998 34.898373 41.898373 33.599998 43.500000 33.599998 C 45.101627 33.599998 46.400002 34.898373 46.400002 36.500000 C 46.400002 38.101627 45.101627 39.400002 43.500000 39.400002 Z M 43.500000 35.599998 C 43.002945 35.599998 42.599998 36.002941 42.599998 36.500000 C 42.599998 36.997055 43.002941 37.400002 43.500000 37.400002 C 43.997055 37.400002 44.400002 36.997059 44.400002 36.500000 C 44.400002 36.002945 43.997059 35.599998 43.500000 35.599998 Z" fill="#FFFFFF"/><path d=" M 43.500000 47.450001 C 41.843147 47.450001 40.500000 46.106853 40.500000 44.450001 C 40.500000 42.793148 41.843147 41.450001 43.500000 41.450001 C 45.156853 41.450001 46.500000 42.793148 46.500000 44.450001 C 46.500000 46.106853 45.156853 47.450001 43.500000 47.450001 Z M 43.500000 43.549999 C 42.947716 43.549999 42.500000 43.997715 42.500000 44.549999 C 42.500000 45.102283 42.947716 45.549999 43.500000 45.549999 C 44.052284 45.549999 44.500000 45.102283 44.500000 44.549999 C 44.500000 43.997715 44.052284 43.549999 43.500000 43.549999 Z" fill="#FFFFFF"/><path d=" M 41.299999 44.410000 L 36.889999 42.000000 L 37.380001 41.139999 L 37.380001 40.139999 C 37.555176 40.138790 37.727596 40.183620 37.880001 40.270000 L 42.290001 42.720001 Z" fill="#FFFFFF"/><path d=" M 37.709999 40.520000 L 37.270000 39.650002 L 36.560001 38.919998 C 36.632103 38.845764 36.716732 38.784832 36.810001 38.739998 L 41.360001 36.459999 L 42.259998 38.240002 Z" fill="#FFFFFF"/><path d=" M 40.000000 65.000000 C 26.192881 65.000000 15.000000 53.807117 15.000000 40.000000 C 15.000000 26.192881 26.192881 15.000000 40.000000 15.000000 C 53.807117 15.000000 65.000000 26.192881 65.000000 40.000000 C 65.000000 53.807117 53.807117 65.000000 40.000000 65.000000 Z M 40.000000 17.000000 C 27.297451 17.000000 17.000000 27.297451 17.000000 40.000000 C 17.000000 52.702549 27.297451 63.000000 40.000000 63.000000 C 52.702549 63.000000 63.000000 52.702549 63.000000 40.000000 C 63.000000 27.297451 52.702549 17.000000 40.000000 17.000000 Z" fill="#FFFFFF"/></g></svg>