<svg version="1.1" width="80.000000" height="100.000000" viewBox="0.000000 0.000000 80.000000 100.000000" xmlns="http://www.w3.org/2000/svg" xmlns:xlink="http://www.w3.org/1999/xlink" overflow="hidden"><g id="ICONS_-_EDIT"><rect x="1.000000" y="1.000000" width="78.000000" height="78.000000" fill="#232F3E"/><path d=" M 0.000000 0.000000 L 0.000000 80.000000 L 0.000000 80.000000 L 0.000000 100.000000 L 80.000000 100.000000 L 80.000000 80.000000 L 80.000000 80.000000 L 80.000000 0.000000 Z M 1.000000 1.000000 L 79.000000 1.000000 L 79.000000 79.000000 L 1.000000 79.000000 Z" fill="#FFFFFF"/><path d=" M 15.300000 92.349998 L 14.870000 90.529999 L 12.870000 90.529999 L 12.450000 92.349998 L 10.680000 92.349998 L 13.000000 84.720001 L 14.870000 84.720001 L 17.170000 92.349998 Z M 13.120000 89.430000 L 14.620000 89.430000 L 13.860000 86.269997 Z" fill="#232F3E"/><path d=" M 24.000000 92.349998 L 24.000000 88.639999 C 24.019257 88.402504 23.974358 88.164200 23.870001 87.949997 C 23.765142 87.796478 23.585056 87.712181 23.400002 87.729996 C 23.117712 87.742058 22.844276 87.832047 22.610001 87.989998 C 22.610001 87.989998 22.610001 88.070000 22.610001 88.110001 L 22.610001 92.349998 L 21.000000 92.349998 L 21.000000 88.639999 C 21.016665 88.401566 20.968275 88.163086 20.860001 87.949997 C 20.758390 87.798111 20.582016 87.713760 20.400002 87.729996 C 20.117992 87.743576 19.844955 87.833435 19.610001 87.989998 L 19.610001 92.349998 L 17.940001 92.349998 L 17.940001 86.720001 L 19.290001 86.720001 L 19.420000 87.230003 C 19.946558 86.840569 20.575989 86.614525 21.230000 86.580002 C 21.727903 86.543671 22.199682 86.807076 22.430000 87.250000 C 22.964073 86.850533 23.604113 86.617470 24.270000 86.580002 C 24.649107 86.564880 25.015387 86.718712 25.270000 87.000000 C 25.530430 87.351334 25.657972 87.783562 25.630001 88.220001 L 25.629999 92.349998 Z" fill="#232F3E"/><path d=" M 30.000000 92.349998 L 29.850000 91.839996 C 29.696903 92.044678 29.493725 92.206528 29.260000 92.309998 C 29.016253 92.426201 28.750021 92.487640 28.480000 92.489998 C 28.024431 92.511391 27.582315 92.332352 27.270000 92.000000 C 26.963970 91.669823 26.805168 91.229507 26.830000 90.779999 C 26.806858 90.286880 27.000483 89.808296 27.360001 89.470001 C 27.763380 89.137032 28.277859 88.969109 28.800001 89.000000 C 29.110676 89.007446 29.419426 89.051079 29.720001 89.129997 L 29.719999 88.620003 C 29.747572 88.349762 29.691736 88.077560 29.559999 87.840004 C 29.395477 87.687714 29.172752 87.614693 28.949999 87.640007 C 28.345545 87.665237 27.748566 87.783279 27.179998 87.990005 L 27.180000 87.000000 C 27.467077 86.841576 27.777679 86.730164 28.100000 86.669998 C 28.478018 86.589485 28.863504 86.549255 29.250000 86.549995 C 29.793798 86.502090 30.335882 86.659012 30.770000 86.989998 C 31.119232 87.364204 31.290474 87.870636 31.240000 88.379997 L 31.240000 92.320000 Z M 29.000000 91.430000 C 29.298346 91.418404 29.580971 91.293190 29.790001 91.080002 L 29.790001 90.000000 C 29.587587 89.947983 29.378916 89.924423 29.170000 89.930000 C 28.969263 89.913399 28.771496 89.986649 28.629999 90.129997 C 28.498238 90.297188 28.434004 90.507729 28.449999 90.719994 C 28.439709 90.905304 28.492592 91.088631 28.599998 91.239990 C 28.678268 91.347046 28.798120 91.416046 28.929998 91.429993 Z" fill="#232F3E"/><path d=" M 32.230000 92.349998 L 32.230000 91.279999 L 34.720001 87.879997 L 32.330002 87.879997 L 32.330002 86.720001 L 36.459999 86.720001 L 36.459999 87.790001 L 34.000000 91.190002 L 36.540001 91.190002 L 36.540001 92.349998 Z" fill="#232F3E"/><path d=" M 39.750000 92.489998 C 39.048313 92.528084 38.367447 92.244698 37.900002 91.720001 C 37.033985 90.392052 37.033985 88.677956 37.900002 87.349998 C 38.911751 86.331032 40.557968 86.325180 41.576935 87.336929 C 41.581306 87.341270 41.585663 87.345627 41.590004 87.349998 C 42.456020 88.677948 42.456020 90.392044 41.590004 91.720001 C 41.126541 92.244324 40.448772 92.527962 39.750004 92.489998 Z M 39.750000 91.339996 C 40.033585 91.349129 40.291271 91.175995 40.389999 90.909996 C 40.656796 90.016144 40.656796 89.063843 40.389999 88.169998 C 40.294674 87.900047 40.036182 87.722336 39.750000 87.729996 C 39.461109 87.721107 39.199081 87.898483 39.099998 88.169998 C 38.833202 89.063850 38.833202 90.016151 39.099998 90.909996 C 39.202438 91.177567 39.463680 91.350380 39.750000 91.339996 Z" fill="#232F3E"/><path d=" M 46.509998 92.349998 L 46.509998 88.650002 C 46.529312 88.407036 46.477173 88.163719 46.359997 87.950005 C 46.247303 87.794876 46.060806 87.711143 45.869995 87.730003 C 45.577785 87.738640 45.293793 87.828682 45.049995 87.990005 L 45.049999 92.349998 L 43.400002 92.349998 L 43.400002 86.720001 L 44.750000 86.720001 L 44.880001 87.230003 C 45.415241 86.835541 46.055752 86.609268 46.720001 86.580002 C 47.121433 86.553581 47.513729 86.707565 47.790001 87.000000 C 48.055580 87.349174 48.186886 87.782127 48.160000 88.220001 L 48.160000 92.349998 Z" fill="#232F3E"/><path d=" M 52.200001 92.349998 L 52.200001 84.720001 L 56.750000 84.720001 L 56.750000 85.900002 L 53.889999 85.900002 L 53.889999 87.849998 L 56.180000 87.849998 L 56.180000 89.000000 L 53.889999 89.000000 L 53.889999 91.150002 L 56.750000 91.150002 L 56.750000 92.330002 Z" fill="#232F3E"/><path d=" M 62.790001 92.129997 C 62.225159 92.360497 61.620033 92.476082 61.010002 92.469994 C 58.763332 92.470001 57.639999 91.169998 57.639999 88.570000 C 57.568546 87.512779 57.881020 86.465294 58.520000 85.620003 C 59.168503 84.920914 60.098778 84.553215 61.049999 84.620003 C 61.613499 84.620705 62.172318 84.722313 62.700001 84.920006 L 62.700001 86.129997 C 62.228504 85.991577 61.741188 85.914284 61.250000 85.899994 C 60.710754 85.856819 60.185547 86.085663 59.849998 86.509995 C 59.513432 87.094772 59.360153 87.767120 59.410000 88.439995 L 59.410000 88.690002 C 59.356976 89.352310 59.506966 90.015060 59.840000 90.590004 C 60.165745 91.015533 60.686039 91.245522 61.220001 91.200005 C 61.751461 91.172783 62.278141 91.085564 62.790001 90.940002 Z" fill="#232F3E"/><path d=" M 63.830002 85.279999 C 64.197197 85.051636 64.589874 84.867043 65.000000 84.729996 C 65.366592 84.619537 65.747139 84.562294 66.129997 84.559998 C 67.180763 84.467072 68.107903 85.243553 68.200829 86.294312 C 68.210999 86.409325 68.210724 86.525032 68.199997 86.639999 C 68.191254 86.983315 68.120094 87.322166 67.989998 87.639999 C 67.780891 88.122734 67.515732 88.579201 67.199997 89.000000 C 66.820000 89.519997 66.239998 90.230003 65.459999 91.129997 L 68.459999 91.129997 L 68.459999 92.379997 L 63.660000 92.379997 L 63.660000 91.279999 C 64.419998 90.379997 64.989998 89.669998 65.389999 89.129997 C 65.717041 88.712601 66.001778 88.263733 66.239998 87.790001 C 66.400673 87.463051 66.486092 87.104279 66.489998 86.739998 C 66.507469 86.513649 66.439697 86.288948 66.299995 86.110001 C 66.159912 85.956474 65.957314 85.875435 65.749992 85.889999 C 65.060509 85.947433 64.398308 86.185410 63.829994 86.580002 Z" fill="#232F3E"/><path d=" M 63.000000 43.000000 L 58.000000 43.000000 L 58.000000 41.000000 L 63.000000 41.000000 L 63.000000 17.000000 L 39.000000 17.000000 L 39.000000 22.000000 L 37.000000 22.000000 L 37.000000 17.000000 C 37.000000 15.895431 37.895432 15.000000 39.000000 15.000000 L 63.000000 15.000000 C 64.104568 15.000000 65.000000 15.895431 65.000000 17.000000 L 65.000000 41.000000 C 65.000000 42.104568 64.104568 43.000000 63.000000 43.000000 Z" fill="#FFFFFF"/><path d=" M 41.000000 65.000000 L 17.000000 65.000000 C 15.895431 65.000000 15.000000 64.104568 15.000000 63.000000 L 15.000000 39.000000 C 15.000000 37.895432 15.895431 37.000000 17.000000 37.000000 L 22.000000 37.000000 L 22.000000 39.000000 L 17.000000 39.000000 L 17.000000 63.000000 L 41.000000 63.000000 L 41.000000 58.000000 L 43.000000 58.000000 L 43.000000 63.000000 C 43.000000 64.104568 42.104568 65.000000 41.000000 65.000000 Z" fill="#FFFFFF"/><path d=" M 50.820000 53.000000 L 29.180000 53.000000 C 27.978294 52.994526 27.005476 52.021706 27.000000 50.820000 L 27.000000 29.180000 C 27.005474 27.978294 27.978294 27.005476 29.180000 27.000000 L 50.820000 27.000000 C 52.021706 27.005474 52.994526 27.978294 53.000000 29.180000 L 53.000000 50.820000 C 52.994526 52.021706 52.021706 52.994526 50.820000 53.000000 Z M 29.180000 29.000000 C 29.080589 29.000000 29.000000 29.080589 29.000000 29.180000 L 29.000000 50.820000 C 29.000000 50.919411 29.080589 51.000000 29.180000 51.000000 L 50.820000 51.000000 C 50.919411 51.000000 51.000000 50.919411 51.000000 50.820000 L 51.000000 29.180000 C 51.000000 29.080589 50.919411 29.000000 50.820000 29.000000 Z" fill="#FFFFFF"/><rect x="29.000000" y="24.000000" width="2.000000" height="4.000000" fill="#FFFFFF"/><rect x="34.000000" y="24.000000" width="2.000000" height="4.000000" fill="#FFFFFF"/><rect x="39.000000" y="24.000000" width="2.000000" height="4.000000" fill="#FFFFFF"/><rect x="44.000000" y="24.000000" width="2.000000" height="4.000000" fill="#FFFFFF"/><rect x="49.000000" y="24.000000" width="2.000000" height="4.000000" fill="#FFFFFF"/><rect x="29.000000" y="52.000000" width="2.000000" height="4.000000" fill="#FFFFFF"/><rect x="34.000000" y="52.000000" width="2.000000" height="4.000000" fill="#FFFFFF"/><rect x="39.000000" y="52.000000" width="2.000000" height="4.000000" fill="#FFFFFF"/><rect x="44.000000" y="52.000000" width="2.000000" height="4.000000" fill="#FFFFFF"/><rect x="49.000000" y="52.000000" width="2.000000" height="4.000000" fill="#FFFFFF"/><rect x="24.000000" y="49.000000" width="4.000000" height="2.000000" fill="#FFFFFF"/><rect x="24.000000" y="44.000000" width="4.000000" height="2.000000" fill="#FFFFFF"/><rect x="24.000000" y="39.000000" width="4.000000" height="2.000000" fill="#FFFFFF"/><rect x="24.000000" y="34.000000" width="4.000000" height="2.000000" fill="#FFFFFF"/><rect x="24.000000" y="29.000000" width="4.000000" height="2.000000" fill="#FFFFFF"/><rect x="52.000000" y="49.000000" width="4.000000" height="2.000000" fill="#FFFFFF"/><rect x="52.000000" y="44.000000" width="4.000000" height="2.000000" fill="#FFFFFF"/><rect x="52.000000" y="39.000000" width="4.000000" height="2.000000" fill="#FFFFFF"/><rect x="52.000000" y="34.000000" width="4.000000" height="2.000000" fill="#FFFFFF"/><rect x="52.000000" y="29.000000" width="4.000000" height="2.000000" fill="#FFFFFF"/></g></svg>