<svg version="1.1" width="80.000000" height="100.000000" viewBox="0.000000 0.000000 80.000000 100.000000" xmlns="http://www.w3.org/2000/svg" xmlns:xlink="http://www.w3.org/1999/xlink" id="CARDS" overflow="hidden"><rect x="1.000000" y="1.000000" width="78.000000" height="78.000000" fill="#232F3E"/><path d=" M 0.000000 0.000000 L 0.000000 80.000000 L 0.000000 80.000000 L 0.000000 100.000000 L 80.000000 100.000000 L 80.000000 80.000000 L 80.000000 80.000000 L 80.000000 0.000000 Z M 1.000000 1.000000 L 79.000000 1.000000 L 79.000000 79.000000 L 1.000000 79.000000 Z" fill="#FFFFFF"/><path d=" M 15.000000 92.349998 L 14.570000 90.529999 L 12.570000 90.529999 L 12.140000 92.349998 L 10.390000 92.349998 L 12.710000 84.720001 L 14.570000 84.720001 L 16.870001 92.349998 Z M 12.820000 89.430000 L 14.310000 89.430000 L 13.550000 86.269997 Z" fill="#232F3E"/><path d=" M 23.730000 92.349998 L 23.730000 88.639999 C 23.746664 88.401566 23.698275 88.163086 23.590000 87.949997 C 23.488390 87.798111 23.312016 87.713760 23.130001 87.729996 C 22.844559 87.741776 22.567829 87.831711 22.330002 87.989998 C 22.334919 88.029846 22.334919 88.070152 22.330002 88.110001 L 22.330000 92.349998 L 20.690001 92.349998 L 20.690001 88.639999 C 20.709257 88.402504 20.664358 88.164200 20.560001 87.949997 C 20.455143 87.796478 20.275057 87.712181 20.090002 87.729996 C 19.811150 87.743874 19.541409 87.833786 19.310001 87.989998 L 19.309999 92.349998 L 17.660000 92.349998 L 17.660000 86.720001 L 19.000000 86.720001 L 19.129999 87.230003 C 19.671814 86.826485 20.324715 86.599541 21.000000 86.580002 C 21.497904 86.543671 21.969683 86.807076 22.200001 87.250000 C 22.722589 86.857307 23.347836 86.624573 24.000000 86.580002 C 24.378605 86.567619 24.743778 86.720993 25.000000 87.000000 C 25.260429 87.351334 25.387972 87.783562 25.360001 88.220001 L 25.360001 92.349998 Z" fill="#232F3E"/><path d=" M 29.680000 92.349998 L 29.540001 91.839996 C 29.384743 92.042564 29.182154 92.203949 28.950001 92.309998 C 28.703094 92.427322 28.433361 92.488777 28.160000 92.489998 C 27.721901 92.495682 27.301355 92.318039 27.000000 92.000000 C 26.696589 91.668808 26.541306 91.228241 26.570000 90.779999 C 26.546858 90.286880 26.740482 89.808296 27.100000 89.470001 C 27.492178 89.138031 27.997076 88.969734 28.510000 89.000000 C 28.824030 89.006668 29.136179 89.050301 29.440001 89.129997 L 29.440001 88.620003 C 29.467573 88.349762 29.411737 88.077560 29.280001 87.840004 C 29.115479 87.687714 28.892754 87.614693 28.670000 87.640007 C 28.065020 87.668449 27.468025 87.789871 26.900000 88.000008 L 26.900000 87.000000 C 27.183470 86.841469 27.490803 86.730019 27.809999 86.669998 C 28.202368 86.598000 28.601267 86.567833 29.000000 86.580002 C 29.543798 86.532097 30.085882 86.689018 30.520000 87.020004 C 30.868395 87.395195 31.042641 87.899780 31.000000 88.410004 L 31.000000 92.349998 Z M 28.680000 91.430000 C 28.978346 91.418404 29.260971 91.293190 29.470001 91.080002 L 29.469999 90.000000 C 29.264168 89.948074 29.052208 89.924522 28.840000 89.930000 C 28.642252 89.913605 28.447620 89.987053 28.309999 90.129997 C 28.170946 90.293694 28.102604 90.505920 28.119999 90.719994 C 28.109709 90.905304 28.162592 91.088631 28.269999 91.239990 C 28.361195 91.357796 28.501034 91.427719 28.649998 91.429993 Z" fill="#232F3E"/><path d=" M 32.000000 92.349998 L 32.000000 91.279999 L 34.490002 87.879997 L 32.000000 87.879997 L 32.000000 86.720001 L 36.139999 86.720001 L 36.139999 87.790001 L 33.639999 91.190002 L 36.180000 91.190002 L 36.180000 92.349998 Z" fill="#232F3E"/><path d=" M 39.459999 92.489998 C 38.761230 92.527954 38.083462 92.244324 37.619999 91.720001 C 36.753983 90.392052 36.753983 88.677956 37.619999 87.349998 C 38.631748 86.331032 40.277966 86.325180 41.296932 87.336929 C 41.301304 87.341270 41.305660 87.345627 41.310001 87.349998 C 42.176018 88.677948 42.176018 90.392044 41.310001 91.720001 C 40.842556 92.244698 40.161686 92.528084 39.460003 92.489998 Z M 39.459999 91.339996 C 39.746319 91.350388 40.007557 91.177567 40.110001 90.909996 C 40.376797 90.016144 40.376797 89.063843 40.110001 88.169998 C 39.974636 87.813774 39.576122 87.634735 39.219898 87.770103 C 39.035583 87.840141 38.890041 87.985687 38.820000 88.169998 C 38.553204 89.063850 38.553204 90.016151 38.820000 90.909996 C 38.918728 91.175995 39.176414 91.349129 39.459999 91.339996 Z" fill="#232F3E"/><path d=" M 46.220001 92.349998 L 46.220001 88.650002 C 46.236496 88.408363 46.188168 88.166710 46.080002 87.950005 C 45.964104 87.793236 45.773880 87.709541 45.580002 87.730003 C 45.287971 87.739677 45.004253 87.829636 44.760002 87.990005 L 44.759998 92.349998 L 43.110001 92.349998 L 43.110001 86.720001 L 44.459999 86.720001 L 44.599998 87.230003 C 45.134369 86.833908 45.775398 86.607452 46.439999 86.580002 C 46.841209 86.554985 47.232933 86.708748 47.509998 87.000000 C 47.772018 87.350540 47.899738 87.783371 47.869999 88.220001 L 47.869999 92.349998 Z" fill="#232F3E"/><path d=" M 51.919998 92.349998 L 51.919998 84.720001 L 56.459999 84.720001 L 56.459999 85.900002 L 53.610001 85.900002 L 53.610001 87.849998 L 55.900002 87.849998 L 55.900002 89.000000 L 53.610001 89.000000 L 53.610001 91.150002 L 56.459999 91.150002 L 56.459999 92.330002 Z" fill="#232F3E"/><path d=" M 62.509998 92.129997 C 61.945156 92.360497 61.340031 92.476082 60.730000 92.469994 C 58.483334 92.470001 57.356667 91.169998 57.349998 88.570000 C 57.283913 87.513390 57.595840 86.467720 58.230000 85.620003 C 58.879337 84.922134 59.809006 84.554680 60.759998 84.620003 C 61.323654 84.618950 61.882786 84.720612 62.410000 84.920006 L 62.410000 86.129997 C 61.952610 85.986771 61.478748 85.902756 61.000000 85.879997 C 60.460453 85.834991 59.934414 86.064201 59.599998 86.489998 C 59.255199 87.071793 59.098068 87.745705 59.149998 88.419998 L 59.150002 88.669998 C 59.099350 89.333389 59.252888 89.996399 59.590000 90.570000 C 59.912571 90.993896 60.429138 91.223900 60.959999 91.180000 C 61.494766 91.153023 62.024784 91.065804 62.540001 90.919998 Z" fill="#232F3E"/><path d=" M 67.379997 92.349998 L 65.919998 89.519997 L 65.269997 89.519997 L 65.269997 92.349998 L 63.619999 92.349998 L 63.619999 84.720001 L 66.260002 84.720001 C 66.910561 84.688881 67.545837 84.923500 68.020004 85.370003 C 68.476875 85.834206 68.716553 86.469711 68.680008 87.120003 C 68.692406 87.585030 68.578354 88.044708 68.350006 88.450005 C 68.140587 88.820808 67.818283 89.115089 67.430008 89.290001 L 69.110001 92.349998 Z M 65.269997 88.349998 L 66.050003 88.349998 C 66.325882 88.368416 66.593788 88.253067 66.770004 88.040001 C 66.950745 87.761032 67.038284 87.431900 67.020004 87.099998 C 67.039673 86.771095 66.951935 86.444710 66.770004 86.169998 C 66.598015 85.950409 66.328247 85.830513 66.050003 85.849998 L 65.269997 85.849998 Z" fill="#232F3E"/><path d=" M 59.500000 33.250000 L 59.500000 51.689999 L 43.500000 60.930000 L 43.500000 54.310001 L 52.500000 49.119999 C 53.037163 48.819454 53.406013 48.288307 53.500000 47.680000 C 53.519440 47.430378 53.519440 47.179623 53.500000 46.930000 L 53.500000 36.720001 L 59.500000 33.250000 M 61.000000 30.180000 C 60.905422 30.179287 60.812317 30.203424 60.730000 30.250000 L 52.049999 35.250000 C 51.889999 35.349998 51.529999 35.509998 51.529999 35.720001 L 51.529999 46.919998 C 51.540829 47.073139 51.540829 47.226856 51.529999 47.379997 L 41.770000 53.000000 C 41.603779 53.093575 41.500664 53.269253 41.500000 53.459999 L 41.500000 63.459999 C 41.494164 63.745235 41.715160 63.983910 42.000000 64.000000 C 42.094578 64.000717 42.187683 63.976574 42.270000 63.930000 L 61.230000 53.000000 C 61.397774 52.908016 61.501484 52.731331 61.500000 52.540001 L 61.500000 30.709999 C 61.500000 30.417288 61.262711 30.179998 60.970001 30.179998 Z" fill="#FFFFFF"/><path d=" M 38.000000 65.000000 C 37.730644 64.998795 37.465897 64.930031 37.230000 64.800003 L 18.270000 53.900002 C 17.794659 53.625565 17.501312 53.118877 17.500000 52.570000 L 17.500000 28.570000 C 17.501312 28.021126 17.794659 27.514437 18.270000 27.240000 L 39.090000 15.240000 C 39.564465 14.970751 40.145538 14.970751 40.619999 15.240000 L 59.560001 26.100000 C 60.028542 26.379869 60.316757 26.884247 60.320000 27.430000 C 60.322815 27.977364 60.033005 28.484533 59.560001 28.760000 L 39.500000 40.340000 L 39.500000 63.500000 C 39.498688 64.048874 39.205341 64.555565 38.730000 64.830002 C 38.503960 64.944771 38.253490 65.003105 38.000000 65.000000 Z M 19.500000 52.299999 L 37.500000 62.689999 L 37.500000 40.070000 C 37.497139 39.520008 37.791611 39.011372 38.270000 38.739998 L 57.860001 27.430000 L 39.860001 17.000000 L 19.500000 28.790001 Z" fill="#FFFFFF"/></svg>