<svg version="1.1" width="80.000000" height="100.000000" viewBox="0.000000 0.000000 80.000000 100.000000" xmlns="http://www.w3.org/2000/svg" xmlns:xlink="http://www.w3.org/1999/xlink" overflow="hidden"><g id="CARDS"><rect x="1.000000" y="1.000000" width="78.000000" height="78.000000" fill="#232F3E"/><path d=" M 0.000000 0.000000 L 0.000000 80.000000 L 0.000000 80.000000 L 0.000000 100.000000 L 80.000000 100.000000 L 80.000000 80.000000 L 80.000000 80.000000 L 80.000000 0.000000 Z M 1.000000 1.000000 L 79.000000 1.000000 L 79.000000 79.000000 L 1.000000 79.000000 Z" fill="#FFFFFF"/></g><g id="TEXT_-_EDIT"><path d=" M 15.300000 92.349998 L 14.870000 90.529999 L 12.870000 90.529999 L 12.450000 92.349998 L 10.680000 92.349998 L 13.000000 84.720001 L 14.870000 84.720001 L 17.170000 92.349998 Z M 13.120000 89.430000 L 14.620000 89.430000 L 13.860000 86.269997 Z" fill="#232F3E"/><path d=" M 24.000000 92.349998 L 24.000000 88.639999 C 24.021563 88.401268 23.972902 88.161446 23.860001 87.949997 C 23.759905 87.796371 23.582418 87.711487 23.400002 87.729996 C 23.117712 87.742058 22.844276 87.832047 22.610001 87.989998 C 22.610001 87.989998 22.610001 88.070000 22.610001 88.110001 L 22.610001 92.349998 L 21.000000 92.349998 L 21.000000 88.639999 C 21.016665 88.401566 20.968275 88.163086 20.860001 87.949997 C 20.756632 87.794739 20.575438 87.709923 20.390001 87.729996 C 20.111338 87.744865 19.841856 87.834694 19.610001 87.989998 L 19.610001 92.349998 L 17.940001 92.349998 L 17.940001 86.720001 L 19.290001 86.720001 L 19.420000 87.230003 C 19.945705 86.838974 20.575632 86.612755 21.230000 86.580002 C 21.727903 86.543671 22.199682 86.807076 22.430000 87.250000 C 22.964073 86.850533 23.604113 86.617470 24.270000 86.580002 C 24.649107 86.564880 25.015387 86.718712 25.270000 87.000000 C 25.530430 87.351334 25.657972 87.783562 25.630001 88.220001 L 25.629999 92.349998 Z" fill="#232F3E"/><path d=" M 30.000000 92.349998 L 29.860001 91.839996 C 29.706903 92.044678 29.503725 92.206528 29.270000 92.309998 C 29.026253 92.426201 28.760021 92.487640 28.490000 92.489998 C 28.031004 92.514374 27.584620 92.335091 27.270000 92.000000 C 26.963970 91.669823 26.805168 91.229507 26.830000 90.779999 C 26.806858 90.286880 27.000483 89.808296 27.360001 89.470001 C 27.763380 89.137032 28.277859 88.969109 28.800001 89.000000 C 29.110676 89.007446 29.419426 89.051079 29.720001 89.129997 L 29.719999 88.620003 C 29.747572 88.349762 29.691736 88.077560 29.559999 87.840004 C 29.395477 87.687714 29.172752 87.614693 28.949999 87.640007 C 28.345545 87.665237 27.748566 87.783279 27.179998 87.990005 L 27.180000 87.000000 C 27.466566 86.840446 27.777355 86.728966 28.100000 86.669998 C 28.478018 86.589485 28.863504 86.549255 29.250000 86.549995 C 29.793798 86.502090 30.335882 86.659012 30.770000 86.989998 C 31.114775 87.366852 31.285322 87.871239 31.240000 88.379997 L 31.240000 92.320000 Z M 29.000000 91.430000 C 29.298346 91.418404 29.580971 91.293190 29.790001 91.080002 L 29.790001 90.000000 C 29.587587 89.947983 29.378916 89.924423 29.170000 89.930000 C 28.969263 89.913399 28.771496 89.986649 28.629999 90.129997 C 28.494661 90.295738 28.426811 90.506424 28.439999 90.719994 C 28.429708 90.905304 28.482592 91.088631 28.589998 91.239990 C 28.672991 91.346680 28.795643 91.415215 28.929998 91.429993 Z" fill="#232F3E"/><path d=" M 32.230000 92.349998 L 32.230000 91.279999 L 34.720001 87.879997 L 32.330002 87.879997 L 32.330002 86.720001 L 36.459999 86.720001 L 36.459999 87.790001 L 34.000000 91.190002 L 36.549999 91.190002 L 36.549999 92.349998 Z" fill="#232F3E"/><path d=" M 39.750000 92.489998 C 39.048313 92.528084 38.367447 92.244698 37.900002 91.720001 C 37.033985 90.392052 37.033985 88.677956 37.900002 87.349998 C 38.911751 86.331032 40.557968 86.325180 41.576935 87.336929 C 41.581306 87.341270 41.585663 87.345627 41.590004 87.349998 C 42.456020 88.677948 42.456020 90.392044 41.590004 91.720001 C 41.126541 92.244324 40.448772 92.527962 39.750004 92.489998 Z M 39.750000 91.339996 C 40.033585 91.349129 40.291271 91.175995 40.389999 90.909996 C 40.656796 90.016144 40.656796 89.063843 40.389999 88.169998 C 40.254635 87.813774 39.856121 87.634735 39.499897 87.770103 C 39.315582 87.840141 39.170040 87.985687 39.099998 88.169998 C 38.833202 89.063850 38.833202 90.016151 39.099998 90.909996 C 39.202438 91.177567 39.463680 91.350380 39.750000 91.339996 Z" fill="#232F3E"/><path d=" M 46.509998 92.349998 L 46.509998 88.650002 C 46.529312 88.407036 46.477173 88.163719 46.359997 87.950005 C 46.247303 87.794876 46.060806 87.711143 45.869995 87.730003 C 45.577785 87.738640 45.293793 87.828682 45.049995 87.990005 L 45.049999 92.349998 L 43.400002 92.349998 L 43.400002 86.720001 L 44.750000 86.720001 L 44.880001 87.230003 C 45.415241 86.835541 46.055752 86.609268 46.720001 86.580002 C 47.121433 86.553581 47.513729 86.707565 47.790001 87.000000 C 48.055580 87.349174 48.186886 87.782127 48.160000 88.220001 L 48.160000 92.349998 Z" fill="#232F3E"/><path d=" M 52.200001 92.349998 L 52.200001 84.720001 L 56.750000 84.720001 L 56.750000 85.900002 L 53.889999 85.900002 L 53.889999 87.849998 L 56.180000 87.849998 L 56.180000 89.000000 L 53.889999 89.000000 L 53.889999 91.150002 L 56.750000 91.150002 L 56.750000 92.330002 Z" fill="#232F3E"/><path d=" M 62.790001 92.129997 C 62.225159 92.360497 61.620033 92.476082 61.010002 92.469994 C 58.763332 92.470001 57.639999 91.169998 57.639999 88.570000 C 57.568546 87.512779 57.881020 86.465294 58.520000 85.620003 C 59.168503 84.920914 60.098778 84.553215 61.049999 84.620003 C 61.613499 84.620705 62.172318 84.722313 62.700001 84.920006 L 62.700001 86.129997 C 62.228504 85.991577 61.741188 85.914284 61.250000 85.899994 C 60.710754 85.856819 60.185547 86.085663 59.849998 86.509995 C 59.513432 87.094772 59.360153 87.767120 59.410000 88.439995 L 59.410000 88.690002 C 59.356976 89.352310 59.506966 90.015060 59.840000 90.590004 C 60.165745 91.015533 60.686039 91.245522 61.220001 91.200005 C 61.751389 91.172112 62.277992 91.084900 62.790001 90.940002 Z" fill="#232F3E"/><path d=" M 65.230003 89.000000 C 64.750793 88.762199 64.330612 88.420586 64.000000 88.000000 C 63.737679 87.644348 63.600536 87.211830 63.610001 86.769997 C 63.603390 86.354721 63.721859 85.947060 63.950001 85.599998 C 64.178215 85.261978 64.497070 84.995110 64.870003 84.830002 C 65.294983 84.642815 65.755714 84.550667 66.220001 84.560005 C 66.869568 84.563965 67.511925 84.696510 68.110001 84.950005 L 68.110001 86.120003 C 67.557976 85.918839 66.977280 85.807426 66.389999 85.790001 C 66.105064 85.774620 65.823257 85.855637 65.589996 86.020004 C 65.397278 86.175255 65.289665 86.412743 65.299995 86.660004 C 65.290489 86.863945 65.358353 87.063950 65.489998 87.220001 C 65.691879 87.426239 65.933388 87.589516 66.199997 87.700005 L 66.860001 88.019997 C 67.215195 88.189125 67.550568 88.397057 67.860001 88.639999 C 68.092377 88.823715 68.277512 89.060280 68.400002 89.330002 C 68.527580 89.619499 68.589066 89.933777 68.580002 90.250000 C 68.607864 90.888214 68.329170 91.501343 67.830002 91.900002 C 67.254478 92.329575 66.547302 92.545265 65.830002 92.510002 C 65.450172 92.509636 65.071434 92.469414 64.700005 92.389999 C 64.370888 92.324646 64.051590 92.217087 63.750004 92.070000 L 63.750000 90.919998 C 64.077362 91.025635 64.411446 91.109154 64.750000 91.169998 C 65.079300 91.236969 65.414017 91.273788 65.750000 91.279999 C 66.063759 91.304230 66.375847 91.215561 66.629997 91.029999 C 66.836395 90.853905 66.947586 90.590736 66.930000 90.320000 C 66.936089 90.107033 66.861023 89.899704 66.720001 89.739998 C 66.516228 89.543251 66.279243 89.384132 66.020004 89.269997 Z" fill="#232F3E"/></g><g id="ICONS_-_EDIT"><path d=" M 40.000000 65.809998 C 39.823914 65.808167 39.651432 65.759872 39.500000 65.669998 L 18.500000 53.520000 C 18.189365 53.340660 17.998575 53.008686 18.000000 52.650002 L 18.000000 28.340000 C 18.002144 27.984890 18.192455 27.657553 18.500000 27.480000 L 37.759998 16.330000 C 38.238285 16.053848 38.849880 16.217710 39.126030 16.695997 C 39.212784 16.846254 39.258953 17.016499 39.259998 17.190001 L 39.259998 27.770000 C 39.257854 28.125111 39.067543 28.452448 38.759998 28.630001 L 29.100000 34.200001 L 29.100000 46.779999 L 40.000000 53.080002 L 49.540001 47.570000 C 49.849403 47.391365 50.230598 47.391365 50.540001 47.570000 L 59.720001 52.860001 C 60.027546 53.037552 60.217857 53.364891 60.220001 53.720001 C 60.221424 54.078686 60.030636 54.410660 59.720001 54.590000 L 40.500000 65.669998 C 40.348568 65.759872 40.176086 65.808167 40.000000 65.809998 Z M 20.000000 52.070000 L 40.000000 63.650002 L 57.220001 53.709999 L 50.000000 49.590000 L 40.500000 55.099998 C 40.190598 55.278633 39.809402 55.278633 39.500000 55.099998 L 27.600000 48.230000 C 27.289366 48.050659 27.098576 47.718685 27.100000 47.360001 L 27.100000 33.619999 C 27.102144 33.264889 27.292456 32.937550 27.600000 32.759998 L 37.259998 27.190001 L 37.259998 18.930000 L 20.000000 28.920000 Z" fill="#FFFFFF"/><path d=" M 61.049999 51.549999 C 60.873913 51.548172 60.701431 51.499874 60.549999 51.410000 L 51.400002 46.150002 C 51.089367 45.970661 50.898579 45.638687 50.900002 45.280003 L 50.900002 34.200001 L 41.419998 28.730000 C 41.112453 28.552446 40.922142 28.225111 40.919998 27.869999 L 40.919998 17.290001 C 40.923321 16.737726 41.373722 16.292711 41.925995 16.296034 C 42.099495 16.297077 42.269741 16.343245 42.419998 16.430000 L 61.549999 27.480000 C 61.857544 27.657553 62.047855 27.984888 62.049999 28.340000 L 62.049999 50.549999 C 62.049999 51.102283 61.602283 51.549999 61.049999 51.549999 Z M 52.900002 44.709999 L 60.049999 48.820000 L 60.049999 28.920000 L 42.919998 19.000000 L 42.919998 27.260000 L 52.400002 32.730000 C 52.707546 32.907551 52.897858 33.234890 52.900002 33.590000 Z" fill="#FFFFFF"/></g></svg>