<svg version="1.1" width="80.000000" height="100.000000" viewBox="0.000000 0.000000 80.000000 100.000000" xmlns="http://www.w3.org/2000/svg" xmlns:xlink="http://www.w3.org/1999/xlink" overflow="hidden"><g id="ICONS_-_EDIT"><rect x="1.000000" y="1.000000" width="78.000000" height="78.000000" fill="#232F3E"/><path d=" M 0.000000 0.000000 L 0.000000 80.000000 L 0.000000 80.000000 L 0.000000 100.000000 L 80.000000 100.000000 L 80.000000 80.000000 L 80.000000 80.000000 L 80.000000 0.000000 Z M 1.000000 1.000000 L 79.000000 1.000000 L 79.000000 79.000000 L 1.000000 79.000000 Z" fill="#FFFFFF"/><path d=" M 14.840000 92.349998 L 14.410000 90.529999 L 12.410000 90.529999 L 12.000000 92.349998 L 10.220000 92.349998 L 12.530000 84.720001 L 14.400000 84.720001 L 16.700001 92.349998 Z M 12.660000 89.430000 L 14.160000 89.430000 L 13.400000 86.269997 Z" fill="#232F3E"/><path d=" M 23.559999 92.349998 L 23.559999 88.639999 C 23.576664 88.401566 23.528275 88.163086 23.420000 87.949997 C 23.315142 87.796478 23.135056 87.712181 22.950001 87.729996 C 22.667711 87.742058 22.394276 87.832047 22.160000 87.989998 C 22.164917 88.029846 22.164917 88.070152 22.160000 88.110001 L 22.160000 92.349998 L 20.520000 92.349998 L 20.520000 88.639999 C 20.536665 88.401566 20.488276 88.163086 20.380001 87.949997 C 20.278391 87.798111 20.102016 87.713760 19.920002 87.729996 C 19.637993 87.743576 19.364956 87.833435 19.130001 87.989998 L 19.129999 92.349998 L 17.480000 92.349998 L 17.480000 86.720001 L 18.830000 86.720001 L 18.959999 87.230003 C 19.486557 86.840569 20.115988 86.614525 20.769999 86.580002 C 21.270237 86.544861 21.744316 86.807365 21.979998 87.250000 C 22.510988 86.851845 23.147448 86.618820 23.809998 86.580002 C 24.189104 86.564880 24.555384 86.718712 24.809998 87.000000 C 25.073982 87.349983 25.205107 87.782341 25.179998 88.220001 L 25.180000 92.349998 Z" fill="#232F3E"/><path d=" M 29.510000 92.349998 L 29.360001 91.839996 C 29.209303 92.046989 29.005444 92.209389 28.770000 92.309998 C 28.526253 92.426201 28.260021 92.487640 27.990000 92.489998 C 27.544750 92.502617 27.115339 92.324303 26.809999 92.000000 C 26.503969 91.669823 26.345167 91.229507 26.369999 90.779999 C 26.346857 90.286880 26.540482 89.808296 26.900000 89.470001 C 27.303864 89.137909 27.817987 88.970108 28.340000 89.000000 C 28.654030 89.006668 28.966179 89.050301 29.270000 89.129997 L 29.270000 88.620003 C 29.295198 88.348686 29.235815 88.076225 29.100000 87.840004 C 28.935478 87.687714 28.712753 87.614693 28.490000 87.640007 C 27.885546 87.665237 27.288567 87.783279 26.719999 87.990005 L 26.719999 87.000000 C 27.007076 86.841576 27.317678 86.730164 27.639999 86.669998 C 28.021402 86.589516 28.410198 86.549301 28.799999 86.549995 C 29.340548 86.503654 29.878952 86.660545 30.309999 86.989998 C 30.659231 87.364204 30.830473 87.870636 30.779999 88.379997 L 30.780001 92.320000 Z M 28.510000 91.430000 C 28.810936 91.416977 29.096193 91.292175 29.309999 91.080002 L 29.309999 90.000000 C 29.104059 89.948677 28.892181 89.925140 28.680000 89.930000 C 28.479454 89.914780 28.282249 89.987816 28.139999 90.129997 C 28.008238 90.297188 27.944004 90.507729 27.959999 90.719994 C 27.949709 90.905304 28.002592 91.088631 28.109999 91.239990 C 28.194925 91.354698 28.327375 91.424606 28.469999 91.429993 Z" fill="#232F3E"/><path d=" M 31.770000 92.349998 L 31.770000 91.279999 L 34.270000 87.879997 L 31.870001 87.879997 L 31.870001 86.720001 L 36.000000 86.720001 L 36.000000 87.790001 L 33.509998 91.190002 L 36.049999 91.190002 L 36.049999 92.349998 Z" fill="#232F3E"/><path d=" M 39.290001 92.489998 C 38.590714 92.530975 37.911678 92.246811 37.450001 91.720001 C 36.570847 90.395988 36.570847 88.674019 37.450001 87.349998 C 38.448826 86.333794 40.082333 86.319710 41.098537 87.318535 C 41.109116 87.328934 41.119606 87.339424 41.130001 87.349998 C 41.996017 88.677948 41.996017 90.392044 41.130001 91.720001 C 40.666538 92.244324 39.988770 92.527962 39.290001 92.489998 Z M 39.290001 91.339996 C 39.574493 91.352325 39.833889 91.178047 39.930000 90.909996 C 40.196796 90.016144 40.196796 89.063843 39.930000 88.169998 C 39.837372 87.897995 39.577137 87.719078 39.290001 87.729996 C 39.001110 87.721107 38.739082 87.898483 38.639999 88.169998 C 38.384865 89.065514 38.384865 90.014481 38.639999 90.909996 C 38.742439 91.177567 39.003681 91.350380 39.290001 91.339996 Z" fill="#232F3E"/><path d=" M 46.049999 92.349998 L 46.049999 88.650002 C 46.069313 88.407036 46.017174 88.163719 45.899998 87.950005 C 45.788670 87.793205 45.601147 87.709015 45.409996 87.730003 C 45.117966 87.739677 44.834248 87.829636 44.589996 87.990005 L 44.590000 92.349998 L 42.939999 92.349998 L 42.939999 86.720001 L 44.290001 86.720001 L 44.419998 87.230003 C 44.955238 86.835541 45.595749 86.609268 46.259998 86.580002 C 46.661652 86.552147 47.054539 86.706367 47.329998 87.000000 C 47.595577 87.349174 47.726883 87.782127 47.699997 88.220001 L 47.700001 92.349998 Z" fill="#232F3E"/><path d=" M 51.750000 92.349998 L 51.750000 84.720001 L 56.290001 84.720001 L 56.290001 85.900002 L 53.430000 85.900002 L 53.430000 87.849998 L 55.720001 87.849998 L 55.720001 89.000000 L 53.430000 89.000000 L 53.430000 91.150002 L 56.290001 91.150002 L 56.290001 92.330002 Z" fill="#232F3E"/><path d=" M 57.520000 92.349998 L 57.520000 84.720001 L 59.200001 84.720001 L 59.200001 88.110001 L 61.480000 84.720001 L 63.349998 84.720001 L 60.709999 88.290001 L 63.560001 92.349998 L 61.560001 92.349998 L 59.200001 88.660004 L 59.200001 92.349998 Z" fill="#232F3E"/><path d=" M 65.680000 89.000000 C 65.185402 88.768761 64.750801 88.426559 64.410004 88.000000 C 64.140549 87.646904 63.996296 87.214149 64.000000 86.769997 C 63.988892 86.354126 64.107742 85.945145 64.339996 85.599998 C 64.565697 85.259720 64.885284 84.992241 65.259995 84.830002 C 65.681808 84.643929 66.139038 84.551804 66.599991 84.560005 C 67.252899 84.562904 67.898735 84.695473 68.499992 84.950005 L 68.500000 86.120003 C 67.944572 85.918625 67.360558 85.807220 66.769997 85.790001 C 66.497353 85.774712 66.227127 85.848412 66.000000 86.000000 C 65.803200 86.152054 65.694572 86.391777 65.709999 86.639999 C 65.700493 86.843941 65.768356 87.043945 65.900002 87.199997 C 66.101883 87.406235 66.343391 87.569511 66.610001 87.680000 L 67.260002 88.000000 C 67.616051 88.167549 67.951599 88.375595 68.260002 88.620003 C 68.488792 88.807266 68.673218 89.042915 68.800003 89.310005 C 68.919380 89.601707 68.977249 89.914909 68.970001 90.230003 C 69.000259 90.866478 68.725426 91.479286 68.230003 91.880005 C 67.654480 92.309578 66.947304 92.525269 66.230003 92.490005 C 65.850174 92.489639 65.471436 92.449417 65.100006 92.370003 C 64.753349 92.310631 64.416733 92.202911 64.100006 92.050003 L 64.099998 90.919998 C 64.427017 91.026825 64.761185 91.110367 65.099998 91.169998 C 65.429115 91.238113 65.763939 91.274940 66.099998 91.279999 C 66.424232 91.300606 66.744682 91.200912 67.000000 91.000000 C 67.206398 90.823906 67.317589 90.560738 67.300003 90.290001 C 67.306091 90.077034 67.231026 89.869705 67.090004 89.709999 C 66.882332 89.513412 66.642090 89.354385 66.380005 89.239998 Z" fill="#232F3E"/><path d=" M 40.900002 64.839996 C 40.725533 64.835854 40.554394 64.791359 40.400002 64.709999 L 19.700001 52.709999 C 19.392456 52.532448 19.202145 52.205109 19.200001 51.849998 L 19.200001 27.129999 C 19.198576 26.771315 19.389366 26.439341 19.700001 26.259998 L 38.700001 15.260000 C 39.009403 15.081367 39.390598 15.081367 39.700001 15.260000 C 40.010635 15.439342 40.201424 15.771316 40.200001 16.130001 L 40.200001 26.730000 C 40.201424 27.088684 40.010635 27.420658 39.700001 27.600000 L 30.200001 33.099998 L 30.200001 46.099998 L 40.900002 52.279999 L 50.270000 46.860001 C 50.579403 46.681366 50.960598 46.681366 51.270000 46.860001 L 60.270000 52.049999 C 60.750488 52.322304 60.919254 52.932564 60.646950 53.413052 C 60.557724 53.570496 60.427444 53.700771 60.270000 53.790001 L 41.400002 64.709999 C 41.246162 64.792778 41.074677 64.837357 40.900002 64.839996 Z M 21.200001 51.310001 L 40.900002 62.689999 L 57.799999 52.930000 L 50.799999 48.930000 L 41.400002 54.310001 C 41.090599 54.488636 40.709404 54.488636 40.400002 54.310001 L 28.700001 47.549999 C 28.392456 47.372448 28.202145 47.045109 28.200001 46.689999 L 28.200001 32.529999 C 28.198576 32.171314 28.389366 31.839340 28.700001 31.659998 L 38.200001 26.180000 L 38.200001 17.889999 L 21.200001 27.700001 Z" fill="#FFFFFF"/><path d=" M 42.000000 26.809999 L 42.000000 16.209999 L 61.000000 27.180000 L 61.000000 49.610001 L 52.000000 44.430000 L 52.000000 32.580002 L 42.000000 26.809999 Z" stroke="#FFFFFF" stroke-width="2.000000" stroke-linejoin="round" fill="none"/><path d=" M 35.500000 46.480000 L 35.500000 32.480000 L 37.500000 32.480000 L 37.500000 38.740002 L 43.090000 32.480000 L 45.439999 32.480000 L 39.439999 39.169998 L 46.000000 46.480000 L 43.520000 46.480000 L 37.520000 39.790001 L 37.520000 46.480000 Z" fill="#FFFFFF"/></g></svg>