<svg version="1.1" width="80.000000" height="115.000000" viewBox="0.000000 0.000000 80.000000 115.000000" xmlns="http://www.w3.org/2000/svg" xmlns:xlink="http://www.w3.org/1999/xlink" overflow="hidden"><g id="CARDS"><rect x="1.000000" y="1.000000" width="78.000000" height="78.000000" fill="#232F3E"/><path d=" M 0.000000 0.000000 L 0.000000 80.000000 L 0.000000 80.000000 L 0.000000 115.000000 L 80.000000 115.000000 L 80.000000 80.000000 L 80.000000 80.000000 L 80.000000 0.000000 Z M 1.000000 1.000000 L 79.000000 1.000000 L 79.000000 79.000000 L 1.000000 79.000000 Z" fill="#FFFFFF"/></g><g id="TEXT_-_EDIT"><path d=" M 17.000000 92.349998 L 16.559999 90.529999 L 14.560000 90.529999 L 14.140000 92.349998 L 12.330000 92.349998 L 14.650000 84.720001 L 16.510000 84.720001 L 18.809999 92.349998 Z M 14.820000 89.430000 L 16.309999 89.430000 L 15.550000 86.269997 Z" fill="#232F3E"/><path d=" M 24.160000 92.349998 L 23.219999 86.720001 L 22.330000 92.349998 L 20.459999 92.349998 L 18.680000 84.720001 L 20.379999 84.720001 L 21.440001 90.779999 L 22.360001 85.000000 L 24.190001 85.000000 L 25.129999 90.650002 L 26.129999 84.650002 L 27.790001 84.650002 L 26.000000 92.349998 Z" fill="#232F3E"/><path d=" M 30.110001 89.000000 C 29.615400 88.768761 29.180801 88.426559 28.840000 88.000000 C 28.577677 87.644348 28.440536 87.211830 28.450001 86.769997 C 28.438890 86.354126 28.557741 85.945145 28.790001 85.599998 C 29.015703 85.259720 29.335289 84.992241 29.710001 84.830002 C 30.131815 84.643929 30.589043 84.551804 31.050001 84.560005 C 31.723228 84.571968 32.386868 84.721710 33.000000 85.000008 L 33.000000 86.169998 C 32.444805 85.967781 31.860649 85.856354 31.270000 85.839996 C 30.988348 85.826103 30.710176 85.907089 30.480000 86.070000 C 30.283201 86.222054 30.174576 86.461777 30.189999 86.709999 C 30.180494 86.913940 30.248354 87.113945 30.379999 87.269997 C 30.581879 87.476234 30.823387 87.639511 31.089998 87.750000 L 31.740000 88.070000 C 32.096050 88.237549 32.431599 88.445595 32.739998 88.690002 C 32.968784 88.877266 33.153210 89.112915 33.279999 89.380005 C 33.404148 89.670280 33.462215 89.984528 33.449997 90.300003 C 33.480259 90.936478 33.205425 91.549286 32.709995 91.950005 C 32.134472 92.379578 31.427292 92.595268 30.709995 92.560005 C 30.330168 92.559639 29.951427 92.519417 29.579996 92.440002 C 29.250465 92.376213 28.930960 92.268593 28.629995 92.120003 L 28.629999 90.919998 C 28.957016 91.026825 29.291185 91.110367 29.629999 91.169998 C 29.959202 91.237587 30.293976 91.274414 30.629999 91.279999 C 30.943754 91.304230 31.255844 91.215561 31.509998 91.029999 C 31.716394 90.853905 31.827591 90.590736 31.809998 90.320000 C 31.816086 90.107033 31.741020 89.899704 31.599998 89.739998 C 31.394480 89.545425 31.157887 89.386574 30.899998 89.269997 Z" fill="#232F3E"/><path d=" M 37.189999 92.349998 L 37.189999 84.720001 L 41.730000 84.720001 L 41.730000 85.900002 L 38.869999 85.900002 L 38.869999 87.849998 L 41.160000 87.849998 L 41.160000 89.000000 L 38.869999 89.000000 L 38.869999 91.150002 L 41.730000 91.150002 L 41.730000 92.330002 Z" fill="#232F3E"/><path d=" M 45.250000 92.250000 C 44.929741 92.365929 44.590443 92.420219 44.250000 92.410004 C 43.858627 92.422867 43.479099 92.274666 43.200001 92.000000 C 42.943890 91.685440 42.818569 91.284424 42.850002 90.879997 L 42.849998 84.209999 L 44.500000 84.209999 L 44.500000 90.750000 C 44.489197 90.888161 44.516888 91.026619 44.580002 91.150002 C 44.659672 91.241310 44.779938 91.286407 44.900002 91.270004 C 45.016491 91.279053 45.133511 91.279053 45.250000 91.270004 Z" fill="#232F3E"/><path d=" M 49.160000 92.349998 L 49.000000 91.839996 C 48.844742 92.042564 48.642155 92.203949 48.410000 92.309998 C 48.163094 92.427322 47.893360 92.488777 47.619999 92.489998 C 47.181900 92.495682 46.761356 92.318039 46.459999 92.000000 C 46.155804 91.683517 45.990261 91.258865 46.000000 90.820000 C 45.976856 90.326881 46.170483 89.848297 46.529999 89.510002 C 46.931072 89.148552 47.461246 88.964615 48.000000 89.000000 C 48.314030 89.006668 48.626179 89.050301 48.930000 89.129997 L 48.930000 88.620003 C 48.957573 88.349762 48.901737 88.077560 48.770000 87.840004 C 48.605476 87.687714 48.382755 87.614693 48.160000 87.640007 C 47.555546 87.665237 46.958565 87.783279 46.389999 87.990005 L 46.389999 87.000000 C 46.673470 86.841469 46.980801 86.730019 47.299999 86.669998 C 47.681480 86.590019 48.070225 86.549805 48.459999 86.549995 C 49.011776 86.499794 49.562069 86.660591 50.000000 86.999992 C 50.344772 87.376846 50.515324 87.881233 50.470001 88.389992 L 50.470001 92.330002 Z M 48.160000 91.430000 C 48.458344 91.418404 48.740971 91.293190 48.950001 91.080002 L 48.950001 90.000000 C 48.744171 89.948074 48.532207 89.924522 48.320000 89.930000 C 48.122250 89.913605 47.927620 89.987053 47.790001 90.129997 C 47.650948 90.293694 47.582603 90.505920 47.600002 90.719994 C 47.589714 90.905304 47.642593 91.088631 47.750004 91.239990 C 47.841198 91.357796 47.981041 91.427719 48.130005 91.429993 Z" fill="#232F3E"/><path d=" M 53.840000 90.769997 C 53.840000 90.519997 53.660000 90.309998 53.320000 90.150002 L 52.599998 89.800003 C 51.920662 89.566200 51.463402 88.928444 51.459999 88.210007 C 51.431004 87.742584 51.632721 87.290581 52.000000 87.000008 C 52.422359 86.682838 52.942471 86.523621 53.470001 86.550011 C 53.999649 86.551735 54.522278 86.671295 55.000000 86.900009 L 55.000000 87.900002 C 54.771049 87.821503 54.537220 87.758034 54.299999 87.709999 C 54.102863 87.666542 53.901844 87.643089 53.700001 87.639999 C 53.180000 87.639999 52.919998 87.820000 52.919998 88.180000 C 52.919998 88.410004 53.139999 88.629997 53.560001 88.839996 L 54.290001 89.180000 C 54.596878 89.315102 54.862537 89.529015 55.060001 89.800003 C 55.228264 90.080269 55.311630 90.403313 55.300003 90.730003 C 55.325684 91.213997 55.126385 91.682716 54.760002 92.000000 C 54.335518 92.321449 53.811913 92.484184 53.280003 92.459999 C 52.646370 92.465340 52.021217 92.314201 51.460003 92.019997 L 51.459999 91.019997 C 51.979221 91.217819 52.525421 91.335831 53.079998 91.369995 C 53.281326 91.385101 53.481041 91.324471 53.639999 91.199997 C 53.765957 91.092514 53.838955 90.935577 53.840000 90.769997 Z" fill="#232F3E"/><path d=" M 59.279999 92.199997 C 58.886688 92.347153 58.469933 92.421692 58.049999 92.419998 C 57.252197 92.570419 56.483509 92.045616 56.333084 91.247818 C 56.300217 91.073509 56.299171 90.894684 56.329998 90.720001 L 56.330002 87.820000 L 55.599998 87.820000 L 55.599998 86.900002 L 56.380001 86.750000 L 56.619999 85.209999 L 58.000000 85.209999 L 58.000000 86.720001 L 59.279999 86.720001 L 59.279999 87.820000 L 58.000000 87.820000 L 58.000000 90.589996 C 57.984325 90.774376 58.033871 90.958412 58.139999 91.109993 C 58.287174 91.233894 58.478851 91.291756 58.669998 91.269997 C 58.882317 91.266800 59.093620 91.239967 59.299999 91.189995 Z" fill="#232F3E"/><path d=" M 61.000000 85.809998 C 60.743858 85.830612 60.489609 85.751831 60.290001 85.589996 C 60.110806 85.439140 60.011185 85.214073 60.020000 84.979996 C 60.009644 84.745628 60.109550 84.519913 60.290001 84.369995 C 60.710442 84.064751 61.279560 84.064751 61.700001 84.369995 C 61.894875 84.520035 62.006351 84.754135 62.000000 84.999992 C 62.006992 85.231621 61.911938 85.454636 61.740002 85.609993 C 61.529694 85.772308 61.263443 85.844269 61.000000 85.809990 Z M 60.169998 92.349998 L 60.169998 86.720001 L 61.820000 86.720001 L 61.820000 92.349998 Z" fill="#232F3E"/><path d=" M 66.940002 92.089996 C 66.746422 92.212067 66.533333 92.300011 66.310005 92.349998 C 66.044296 92.410645 65.772545 92.440842 65.500008 92.439995 C 64.804573 92.489639 64.124153 92.221146 63.650009 91.709991 C 63.185577 91.089081 62.955372 90.324089 63.000008 89.549988 C 62.949230 88.771988 63.187859 88.002678 63.670006 87.389984 C 64.146408 86.867004 64.833839 86.587616 65.540009 86.629982 C 66.009964 86.630127 66.472984 86.743309 66.890007 86.959984 L 66.889999 87.959999 C 66.569511 87.841644 66.231560 87.777435 65.889999 87.769997 C 65.528847 87.733589 65.174179 87.884514 64.949997 88.169998 C 64.732063 88.563194 64.634689 89.011833 64.669998 89.459999 L 64.669998 89.620003 C 64.648109 90.070213 64.763168 90.516495 65.000000 90.900002 C 65.208992 91.182068 65.550583 91.333885 65.900002 91.300003 C 66.269386 91.292480 66.634712 91.221443 66.980003 91.090004 Z" fill="#232F3E"/><path d=" M 17.190001 106.349998 L 17.190001 98.720001 L 19.709999 98.720001 C 20.307051 98.697823 20.891203 98.897285 21.349998 99.279999 C 21.773220 99.649055 22.008196 100.188759 21.989998 100.750000 C 21.998865 101.099831 21.912449 101.445496 21.739998 101.750000 C 21.561504 102.024216 21.303232 102.237114 20.999998 102.360001 C 21.841162 102.571098 22.409998 103.354828 22.349998 104.220001 C 22.373863 104.820930 22.114777 105.398331 21.649998 105.779999 C 21.117731 106.194824 20.453955 106.404251 19.779997 106.369995 Z M 18.780001 99.820000 L 18.780001 101.930000 L 19.459999 101.930000 C 19.709179 101.942482 19.951014 101.843552 20.119999 101.660004 C 20.291992 101.441597 20.377439 101.167458 20.359999 100.890007 C 20.376764 100.610947 20.303123 100.333908 20.150000 100.100006 C 20.013632 99.917992 19.797338 99.813576 19.570000 99.820007 Z M 18.780001 102.980003 L 18.780001 105.250000 L 19.780001 105.250000 C 20.045134 105.263878 20.302361 105.157310 20.480001 104.959999 C 20.664501 104.720627 20.753588 104.421303 20.730001 104.120003 C 20.750965 103.815750 20.654314 103.515060 20.460001 103.280006 C 20.256252 103.070953 19.971327 102.961365 19.680000 102.980003 Z" fill="#232F3E"/><path d=" M 24.690001 103.919998 C 24.669250 104.324760 24.797298 104.723129 25.050001 105.040001 C 25.345566 105.286263 25.726881 105.404976 26.110001 105.370003 C 26.339201 105.363998 26.567129 105.333832 26.790001 105.280006 C 27.061527 105.230042 27.328939 105.159843 27.590000 105.070007 L 27.590000 106.070000 C 27.331758 106.217194 27.051508 106.321869 26.760000 106.379997 C 26.431477 106.451813 26.096279 106.488686 25.760000 106.489998 C 24.040001 106.489998 23.180000 105.489998 23.180000 103.540001 C 23.125513 102.753960 23.352365 101.974152 23.820000 101.340004 C 24.274651 100.816292 24.947926 100.535149 25.639999 100.580002 C 27.010000 100.580002 27.690001 101.339996 27.690001 102.870003 C 27.689127 103.206871 27.648853 103.542488 27.570000 103.870003 Z M 25.600000 101.599998 C 25.020000 101.599998 24.719999 102.059998 24.690001 102.970001 L 26.299999 102.970001 L 26.299999 102.720001 C 26.320442 102.423340 26.261778 102.126572 26.129999 101.860001 C 26.012508 101.684830 25.810440 101.585701 25.599998 101.599998 Z" fill="#232F3E"/><path d=" M 31.730000 106.349998 L 31.590000 105.839996 C 31.436903 106.044678 31.233725 106.206528 31.000000 106.309998 C 30.756252 106.426201 30.490021 106.487640 30.219999 106.489998 C 29.761003 106.514374 29.314619 106.335091 29.000000 106.000000 C 28.693970 105.669823 28.535168 105.229507 28.559999 104.779999 C 28.536858 104.286880 28.730482 103.808296 29.090000 103.470001 C 29.493380 103.137032 30.007858 102.969109 30.530001 103.000000 C 30.840675 103.007446 31.149426 103.051079 31.450001 103.129997 L 31.450001 102.620003 C 31.477573 102.349762 31.421738 102.077560 31.290001 101.840004 C 31.125479 101.687714 30.902754 101.614693 30.680000 101.640007 C 30.105434 101.677391 29.539434 101.798676 29.000000 102.000008 L 29.000000 101.000000 C 29.287077 100.841576 29.597679 100.730164 29.920000 100.669998 C 30.298018 100.589485 30.683504 100.549255 31.070000 100.549995 C 31.613798 100.502090 32.155880 100.659012 32.590000 100.989998 C 32.934772 101.366852 33.105324 101.871239 33.060001 102.379997 L 33.060001 106.320000 Z M 30.730000 105.430000 C 31.028345 105.418404 31.310970 105.293190 31.520000 105.080002 L 31.520000 104.000000 C 31.317587 103.947983 31.108915 103.924423 30.900000 103.930000 C 30.699263 103.913399 30.501495 103.986649 30.359999 104.129997 C 30.228237 104.297188 30.164003 104.507729 30.179998 104.719994 C 30.165430 104.905769 30.218725 105.090523 30.329998 105.239990 C 30.417070 105.357422 30.553827 105.427643 30.699999 105.429993 Z" fill="#232F3E"/><path d=" M 37.520000 106.349998 L 37.520000 102.650002 C 37.539314 102.407036 37.487175 102.163719 37.369999 101.950005 C 37.258671 101.793205 37.071148 101.709015 36.879997 101.730003 C 36.587967 101.739677 36.304249 101.829636 36.059998 101.990005 L 36.060001 106.349998 L 34.410000 106.349998 L 34.410000 100.720001 L 35.759998 100.720001 L 35.889999 101.230003 C 36.425240 100.835541 37.065750 100.609268 37.730000 100.580002 C 38.131653 100.552147 38.524540 100.706367 38.799999 101.000000 C 39.069729 101.347038 39.201523 101.781601 39.169998 102.220001 L 39.169998 106.349998 Z" fill="#232F3E"/><path d=" M 42.570000 104.769997 C 42.570000 104.519997 42.389999 104.309998 42.049999 104.150002 L 41.320000 103.800003 C 40.646484 103.560318 40.194881 102.924881 40.189999 102.210007 C 40.175636 101.749420 40.384109 101.310135 40.750000 101.030006 C 41.172359 100.712837 41.692471 100.553619 42.220001 100.580009 C 42.749649 100.581734 43.272278 100.701294 43.750000 100.930008 L 43.750000 101.930000 C 43.521049 101.851501 43.287220 101.788033 43.049999 101.739998 C 42.849594 101.695862 42.645191 101.672409 42.439999 101.669998 C 41.930000 101.669998 41.669998 101.849998 41.669998 102.209999 C 41.669998 102.570000 41.889999 102.660004 42.310001 102.870003 L 43.040001 103.209999 C 43.346878 103.345100 43.612537 103.559013 43.810001 103.830002 C 43.978264 104.110268 44.061630 104.433311 44.050003 104.760002 C 44.070759 105.247345 43.863823 105.716644 43.490002 106.029999 C 43.065517 106.351448 42.541912 106.514183 42.010002 106.489998 C 41.376369 106.495338 40.751217 106.344200 40.190002 106.049995 L 40.189999 105.050003 C 40.708954 105.248726 41.255291 105.366760 41.809998 105.400002 C 42.011112 105.413208 42.210163 105.352783 42.369999 105.230003 C 42.504173 105.115822 42.578007 104.946007 42.570000 104.770004 Z" fill="#232F3E"/><path d=" M 48.000000 106.199997 C 47.606689 106.347153 47.189934 106.421692 46.770000 106.419998 C 45.972198 106.570419 45.203510 106.045616 45.053085 105.247818 C 45.020218 105.073509 45.019173 104.894684 45.049999 104.720001 L 45.049999 101.820000 L 44.310001 101.820000 L 44.310001 100.900002 L 45.099998 100.750000 L 45.340000 99.209999 L 46.700001 99.209999 L 46.700001 100.720001 L 48.000000 100.720001 L 48.000000 101.820000 L 46.709999 101.820000 L 46.709999 104.589996 C 46.694324 104.774376 46.743870 104.958412 46.849998 105.109993 C 46.997173 105.233894 47.188850 105.291756 47.379997 105.269997 C 47.592316 105.266800 47.803619 105.239967 48.009998 105.189995 Z" fill="#232F3E"/><path d=" M 51.790001 106.349998 L 51.650002 105.839996 C 51.496902 106.044678 51.293724 106.206528 51.060001 106.309998 C 50.816254 106.426201 50.550022 106.487640 50.280003 106.489998 C 49.834274 106.505234 49.403828 106.326492 49.100002 106.000000 C 48.793972 105.669823 48.635170 105.229507 48.660004 104.779999 C 48.636860 104.286880 48.830486 103.808296 49.190002 103.470001 C 49.587276 103.133095 50.100319 102.964470 50.620003 103.000000 C 50.934032 103.006668 51.246181 103.050301 51.550003 103.129997 L 51.549999 102.620003 C 51.577572 102.349762 51.521736 102.077560 51.389999 101.840004 C 51.225475 101.687714 51.002754 101.614693 50.779999 101.640007 C 50.171642 101.667427 49.571198 101.788864 49.000000 102.000008 L 49.000000 101.000000 C 49.286564 100.840446 49.597355 100.728966 49.919998 100.669998 C 50.298016 100.589485 50.683502 100.549255 51.070000 100.549995 C 51.613796 100.502090 52.155880 100.659012 52.590000 100.989998 C 52.934772 101.366852 53.105324 101.871239 53.060001 102.379997 L 53.060001 106.320000 Z M 50.790001 105.430000 C 51.088345 105.418404 51.370972 105.293190 51.580002 105.080002 L 51.580002 104.000000 C 51.377590 103.947983 51.168915 103.924423 50.960003 103.930000 C 50.759071 103.911972 50.560715 103.985435 50.420002 104.129997 C 50.284664 104.295738 50.216816 104.506424 50.230003 104.719994 C 50.219715 104.905304 50.272594 105.088631 50.380005 105.239990 C 50.471199 105.357796 50.611042 105.427719 50.760006 105.429993 Z" fill="#232F3E"/><path d=" M 56.869999 106.250000 C 56.549740 106.365929 56.210442 106.420219 55.869999 106.410004 C 55.474243 106.441948 55.083023 106.307922 54.789997 106.040001 C 54.533886 105.725441 54.408566 105.324425 54.439999 104.919998 L 54.439999 98.209999 L 56.090000 98.209999 L 56.090000 104.750000 C 56.079197 104.888161 56.106888 105.026619 56.170002 105.150002 C 56.249672 105.241310 56.369938 105.286407 56.490002 105.270004 C 56.606491 105.279053 56.723511 105.279053 56.840000 105.270004 Z" fill="#232F3E"/><path d=" M 57.880001 106.349998 L 57.880001 98.209999 L 59.500000 98.209999 L 59.500000 103.209999 L 61.139999 100.769997 L 63.000000 100.769997 L 61.000000 103.459999 L 63.169998 106.400002 L 61.259998 106.400002 L 59.500000 103.800003 L 59.500000 106.400002 Z" fill="#232F3E"/></g><g id="ICONS_-_EDIT"><path d=" M 55.000000 49.000000 L 55.000000 47.000000 C 57.410000 47.000000 63.000000 46.279999 63.000000 39.599998 C 63.000000 35.599998 60.650002 33.080002 56.000000 32.150002 C 55.555611 32.060146 55.227276 31.682564 55.200001 31.230001 C 54.970001 27.320000 52.700001 25.940001 50.830002 25.940001 C 49.547173 25.947071 48.342758 26.558542 47.580002 27.590000 C 47.359364 27.885088 46.994335 28.034943 46.630001 27.980000 C 46.267384 27.924627 45.964184 27.675161 45.840000 27.330000 C 45.190617 25.461540 44.119598 23.767759 42.709999 22.379999 C 38.423782 17.943201 31.352385 17.821131 26.915586 22.107347 C 24.806911 24.144457 23.583725 26.928978 23.509998 29.859999 C 23.511139 30.304499 23.537849 30.748566 23.589998 31.189999 C 23.655878 31.693985 23.333220 32.167217 22.839998 32.289997 C 20.660000 32.830002 17.000000 34.490002 17.000000 39.529999 C 17.000000 39.720001 17.000000 39.900002 17.000000 40.080002 C 17.368713 44.102810 20.812717 47.138798 24.850000 47.000000 L 26.000000 47.000000 L 26.000000 49.000000 L 24.850000 49.000000 C 19.744696 49.134178 15.422501 45.259560 15.000000 40.169998 C 15.000000 39.959999 15.000000 39.750000 15.000000 39.520000 C 14.832867 35.384068 17.539221 31.678890 21.530001 30.580000 C 21.530001 30.330000 21.530001 30.090000 21.530001 29.850000 C 21.692854 22.572710 27.724281 16.805317 35.001572 16.968170 C 38.445175 17.045231 41.721783 18.467312 44.130001 20.930000 C 45.378139 22.165586 46.394260 23.615257 47.130001 25.210001 C 48.182858 24.376757 49.487324 23.925482 50.830002 23.930000 C 53.630001 23.930000 56.580002 25.930000 57.130001 30.340000 C 62.209999 31.590000 65.000000 34.860001 65.000000 39.590000 C 65.000000 46.520000 59.830002 49.000000 55.000000 49.000000 Z" fill="#FFFFFF"/><rect x="38.000000" y="36.040000" width="2.000000" height="25.960000" fill="#FFFFFF"/><path d=" M 47.000000 56.000000 L 39.000000 56.000000 L 39.000000 54.000000 L 46.000000 54.000000 L 46.000000 48.720001 L 48.000000 48.720001 L 48.000000 55.000000 C 48.000000 55.552284 47.552284 56.000000 47.000000 56.000000 Z" fill="#FFFFFF"/><path d=" M 39.000000 51.000000 L 31.000000 51.000000 C 30.447716 51.000000 30.000000 50.552284 30.000000 50.000000 L 30.000000 46.180000 L 32.000000 46.180000 L 32.000000 49.000000 L 39.000000 49.000000 Z" fill="#FFFFFF"/><path d=" M 31.000000 47.180000 C 27.995571 47.180000 25.559999 44.744431 25.559999 41.740002 C 25.559999 38.735573 27.995571 36.300003 31.000000 36.300003 C 34.004429 36.300003 36.439999 38.735573 36.439999 41.740002 C 36.434494 44.742149 34.002144 47.174500 30.999998 47.180000 Z M 31.000000 38.299999 C 29.100140 38.299999 27.559999 39.840141 27.559999 41.739998 C 27.559999 43.639858 29.100140 45.179996 31.000000 45.179996 C 32.899860 45.179996 34.439999 43.639854 34.439999 41.739998 C 34.434505 39.842419 32.897579 38.305489 30.999998 38.299999 Z" fill="#FFFFFF"/><path d=" M 47.000000 49.720001 C 43.995571 49.720001 41.560001 47.284431 41.560001 44.280003 C 41.560001 41.275574 43.995571 38.840004 47.000000 38.840004 C 50.004429 38.840004 52.439999 41.275574 52.439999 44.280003 C 52.434494 47.282150 50.002144 49.714500 47.000000 49.720001 Z M 47.000000 40.840000 C 45.100140 40.840000 43.560001 42.380142 43.560001 44.279999 C 43.560001 46.179859 45.100143 47.719997 47.000000 47.719997 C 48.899860 47.719997 50.439999 46.179855 50.439999 44.279999 C 50.439999 42.380138 48.899857 40.840000 47.000000 40.840000 Z" fill="#FFFFFF"/><path d=" M 39.000000 37.000000 C 35.995571 37.000000 33.560001 34.564430 33.560001 31.559999 C 33.560001 28.555571 35.995571 26.119999 39.000000 26.119999 C 42.004429 26.119999 44.439999 28.555571 44.439999 31.559999 C 44.434494 34.562145 42.002144 36.994495 39.000000 37.000000 Z M 39.000000 28.120001 C 37.100140 28.120001 35.560001 29.660141 35.560001 31.560001 C 35.560001 33.459862 37.100143 35.000000 39.000000 35.000000 C 40.899860 35.000000 42.439999 33.459858 42.439999 31.559999 C 42.418087 29.675779 40.884346 28.159872 39.000000 28.160000 Z" fill="#FFFFFF"/></g></svg>