<svg version="1.1" width="80.000000" height="115.000000" viewBox="0.000000 0.000000 80.000000 115.000000" xmlns="http://www.w3.org/2000/svg" xmlns:xlink="http://www.w3.org/1999/xlink" overflow="hidden"><g id="CARDS"><rect x="1.000000" y="1.000000" width="78.000000" height="78.000000" fill="#232F3E"/><path d=" M 0.000000 0.000000 L 0.000000 80.000000 L 0.000000 80.000000 L 0.000000 115.000000 L 80.000000 115.000000 L 80.000000 80.000000 L 80.000000 80.000000 L 80.000000 0.000000 Z M 1.000000 1.000000 L 79.000000 1.000000 L 79.000000 79.000000 L 1.000000 79.000000 Z" fill="#FFFFFF"/></g><g id="TEXT_-_EDIT"><path d=" M 12.370000 92.349998 L 12.370000 84.720001 L 16.910000 84.720001 L 16.910000 85.900002 L 14.060000 85.900002 L 14.060000 87.849998 L 16.350000 87.849998 L 16.350000 89.000000 L 14.060000 89.000000 L 14.060000 91.150002 L 16.910000 91.150002 L 16.910000 92.330002 Z" fill="#232F3E"/><path d=" M 20.430000 92.250000 C 20.109802 92.366165 19.770456 92.420456 19.430000 92.410004 C 19.041441 92.423676 18.664696 92.275154 18.389999 92.000000 C 18.125629 91.703743 17.985907 91.316818 18.000000 90.919998 L 18.000000 84.209999 L 19.650000 84.209999 L 19.650000 90.750000 C 19.639198 90.888161 19.666889 91.026619 19.730000 91.150002 C 19.809671 91.241310 19.929935 91.286407 20.049999 91.270004 C 20.166491 91.279053 20.283508 91.279053 20.400000 91.270004 Z" fill="#232F3E"/><path d=" M 24.340000 92.349998 L 24.200001 91.839996 C 24.046904 92.044678 23.843725 92.206528 23.610001 92.309998 C 23.366253 92.426201 23.100021 92.487640 22.830000 92.489998 C 22.384750 92.502617 21.955339 92.324303 21.650000 92.000000 C 21.343969 91.669823 21.185167 91.229507 21.209999 90.779999 C 21.186857 90.286880 21.380482 89.808296 21.740000 89.470001 C 22.143379 89.137032 22.657858 88.969109 23.180000 89.000000 C 23.490675 89.007446 23.799425 89.051079 24.100000 89.129997 L 24.100000 88.620003 C 24.127573 88.349762 24.071737 88.077560 23.940001 87.840004 C 23.775478 87.687714 23.552753 87.614693 23.330000 87.640007 C 22.725546 87.665237 22.128567 87.783279 21.559999 87.990005 L 21.559999 87.000000 C 21.846565 86.840446 22.157354 86.728966 22.480000 86.669998 C 22.858017 86.589485 23.243504 86.549255 23.629999 86.549995 C 24.173798 86.502090 24.715881 86.659012 25.150000 86.989998 C 25.494774 87.366852 25.665321 87.871239 25.619999 88.379997 L 25.620001 92.320000 Z M 23.340000 91.430000 C 23.638346 91.418404 23.920971 91.293190 24.130001 91.080002 L 24.129999 90.000000 C 23.927586 89.947983 23.718914 89.924423 23.509998 89.930000 C 23.309067 89.911972 23.110708 89.985435 22.969997 90.129997 C 22.834660 90.295738 22.766809 90.506424 22.779997 90.719994 C 22.769707 90.905304 22.822590 91.088631 22.929996 91.239990 C 23.022120 91.356667 23.161383 91.426300 23.309996 91.429993 Z" fill="#232F3E"/><path d=" M 29.000000 90.769997 C 29.000000 90.519997 28.830000 90.309998 28.480000 90.150002 L 27.760000 89.800003 C 27.082706 89.565338 26.628899 88.926796 26.630001 88.210007 C 26.606256 87.736839 26.820049 87.282997 27.200001 87.000008 C 27.622360 86.682838 28.142471 86.523621 28.670000 86.550011 C 29.199650 86.551735 29.722279 86.671295 30.200001 86.900009 L 30.200001 87.900002 C 29.971052 87.821503 29.737221 87.758034 29.500000 87.709999 C 29.302864 87.666542 29.101847 87.643089 28.900000 87.639999 C 28.379999 87.639999 28.129999 87.820000 28.129999 88.180000 C 28.129999 88.540001 28.340000 88.629997 28.770000 88.839996 L 29.490000 89.180000 C 29.796877 89.315102 30.062536 89.529015 30.260000 89.800003 C 30.428261 90.080269 30.511627 90.403313 30.500000 90.730003 C 30.537193 91.207657 30.352842 91.675911 30.000000 92.000000 C 29.571667 92.321404 29.044971 92.484009 28.510000 92.459999 C 27.879457 92.466187 27.257336 92.314957 26.700001 92.019997 L 26.700001 91.019997 C 27.215830 91.217575 27.758698 91.335594 28.310001 91.369995 C 28.514174 91.382927 28.716270 91.322655 28.880001 91.199997 C 28.974777 91.077911 29.017866 90.923515 29.000002 90.769997 Z" fill="#232F3E"/><path d=" M 34.459999 92.199997 C 34.066689 92.347153 33.649933 92.421692 33.230000 92.419998 C 32.432198 92.570419 31.663509 92.045616 31.513086 91.247818 C 31.480221 91.073509 31.479174 90.894684 31.510000 90.720001 L 31.510000 87.820000 L 30.780001 87.820000 L 30.780001 86.900002 L 31.559999 86.750000 L 31.799999 85.209999 L 33.160000 85.209999 L 33.160000 86.720001 L 34.439999 86.720001 L 34.439999 87.820000 L 33.160000 87.820000 L 33.160000 90.589996 C 33.141529 90.776146 33.195221 90.962288 33.310001 91.109993 C 33.455341 91.237236 33.648529 91.295555 33.840000 91.269997 C 34.048977 91.266144 34.256893 91.239319 34.459999 91.189995 Z" fill="#232F3E"/><path d=" M 36.209999 85.809998 C 35.954536 85.824768 35.702354 85.746628 35.500000 85.589996 C 35.320805 85.439140 35.221184 85.214073 35.230000 84.979996 C 35.219643 84.745628 35.319550 84.519913 35.500000 84.369995 C 35.920441 84.064751 36.489559 84.064751 36.910000 84.369995 C 37.088017 84.520950 37.184383 84.747040 37.169998 84.979996 C 37.182808 85.212677 37.086727 85.438095 36.910000 85.589996 C 36.712971 85.749374 36.462780 85.828011 36.209999 85.809998 Z M 35.380001 92.349998 L 35.380001 86.720001 L 37.000000 86.720001 L 37.000000 92.349998 Z" fill="#232F3E"/><path d=" M 42.130001 92.089996 C 41.932568 92.211563 41.716278 92.299431 41.490002 92.349998 C 41.224293 92.410645 40.952541 92.440842 40.680000 92.439995 C 39.987282 92.490982 39.309345 92.222023 38.840000 91.709991 C 38.378716 91.088364 38.155231 90.322128 38.209999 89.549988 C 38.159222 88.771988 38.397850 88.002678 38.879997 87.389984 C 39.356400 86.867004 40.043827 86.587616 40.749996 86.629982 C 41.223637 86.640007 41.687431 86.767120 42.099995 86.999985 L 42.099998 88.000000 C 41.779510 87.881645 41.441563 87.817436 41.099998 87.809998 C 40.738846 87.773590 40.384178 87.924515 40.160000 88.209999 C 39.946384 88.604805 39.849281 89.052162 39.880001 89.500000 L 39.880001 89.660004 C 39.843052 90.105080 39.940598 90.551003 40.160000 90.940002 C 40.368992 91.222069 40.710587 91.373886 41.060001 91.340004 C 41.432545 91.331673 41.801029 91.260681 42.150002 91.130005 Z" fill="#232F3E"/><path d=" M 45.820000 92.349998 L 45.820000 84.720001 L 47.509998 84.720001 L 47.509998 91.120003 L 50.349998 91.120003 L 50.349998 92.349998 Z" fill="#232F3E"/><path d=" M 53.349998 92.489998 C 52.651230 92.527954 51.973461 92.244324 51.509998 91.720001 C 50.643982 90.392052 50.643982 88.677956 51.509998 87.349998 C 52.521748 86.331032 54.167965 86.325180 55.186932 87.336929 C 55.191303 87.341270 55.195660 87.345627 55.200001 87.349998 C 56.066017 88.677948 56.066017 90.392044 55.200001 91.720001 C 54.732555 92.244698 54.051685 92.528084 53.350002 92.489998 Z M 53.349998 91.339996 C 53.636318 91.350388 53.897556 91.177567 54.000000 90.909996 C 54.266796 90.016144 54.266796 89.063843 54.000000 88.169998 C 53.864635 87.813774 53.466122 87.634735 53.109898 87.770103 C 52.925583 87.840141 52.780041 87.985687 52.709999 88.169998 C 52.443203 89.063850 52.443203 90.016151 52.709999 90.909996 C 52.808727 91.175995 53.066414 91.349129 53.349998 91.339996 Z" fill="#232F3E"/><path d=" M 59.910000 92.349998 L 59.759998 91.839996 C 59.609303 92.046989 59.405441 92.209389 59.169998 92.309998 C 58.926693 92.427460 58.660175 92.488968 58.389999 92.489998 C 57.944748 92.502617 57.515339 92.324303 57.209999 92.000000 C 56.585308 91.257271 56.628635 90.161102 57.309998 89.470001 C 57.707272 89.133095 58.220314 88.964470 58.739998 89.000000 C 59.054028 89.006668 59.366177 89.050301 59.669998 89.129997 L 59.669998 88.620003 C 59.695194 88.348686 59.635811 88.076225 59.500000 87.840004 C 59.339996 87.686920 59.119850 87.613541 58.900002 87.640007 C 58.292171 87.664215 57.691746 87.782272 57.120003 87.990005 L 57.119999 87.000000 C 57.396400 86.855904 57.693138 86.754745 58.000000 86.699997 C 58.381401 86.619514 58.770199 86.579300 59.160000 86.579994 C 59.703606 86.534027 60.245007 86.690742 60.680000 87.019997 C 61.024773 87.396851 61.195324 87.901237 61.150002 88.409996 L 61.150002 92.349998 Z M 58.910000 91.430000 C 59.211384 91.418922 59.497318 91.293823 59.709999 91.080002 L 59.709999 90.000000 C 59.504059 89.948677 59.292179 89.925140 59.079998 89.930000 C 58.879452 89.914780 58.682247 89.987816 58.539997 90.129997 C 58.408237 90.297188 58.344002 90.507729 58.359997 90.719994 C 58.349709 90.905304 58.402588 91.088631 58.509998 91.239990 C 58.594925 91.354698 58.727375 91.424606 58.869999 91.429993 Z" fill="#232F3E"/><path d=" M 65.839996 92.349998 L 65.699997 91.860001 C 65.519524 92.042419 65.305641 92.188408 65.070000 92.290001 C 64.842377 92.387421 64.597588 92.438423 64.349998 92.440002 C 63.751472 92.464928 63.181789 92.181969 62.840000 91.690002 C 62.448978 91.051193 62.263947 90.307564 62.310001 89.560005 C 62.262669 88.790710 62.454807 88.025650 62.860001 87.370003 C 63.197571 86.858131 63.777206 86.558846 64.389999 86.580002 C 64.605469 86.590401 64.818008 86.634262 65.019997 86.709999 C 65.238533 86.789223 65.444107 86.900436 65.629997 87.040001 L 65.629997 84.209999 L 67.279999 84.209999 L 67.279999 92.349998 Z M 64.910004 91.349998 C 65.166100 91.346977 65.415962 91.270630 65.630005 91.129997 L 65.629997 88.000000 C 65.396194 87.841095 65.122475 87.751007 64.839996 87.739998 C 64.542877 87.727325 64.270187 87.903778 64.159996 88.180000 C 63.997898 88.624512 63.929794 89.097824 63.959995 89.570000 C 63.926956 90.035194 64.005821 90.501541 64.189995 90.930000 C 64.331596 91.191101 64.613945 91.344040 64.909996 91.320000 Z" fill="#232F3E"/><path d=" M 17.070000 106.349998 L 17.070000 98.720001 L 19.590000 98.720001 C 20.184072 98.697441 20.765226 98.897102 21.219999 99.279999 C 21.643221 99.649055 21.878197 100.188759 21.859999 100.750000 C 21.874203 101.100403 21.787428 101.447510 21.609999 101.750000 C 21.434019 102.026451 21.174948 102.240005 20.869999 102.360001 C 21.267876 102.473038 21.618612 102.711540 21.869999 103.040001 C 22.433073 103.917397 22.285547 105.072319 21.519999 105.779999 C 20.986895 106.193230 20.323725 106.402466 19.649998 106.369995 Z M 18.660000 99.820000 L 18.660000 101.930000 L 19.330000 101.930000 C 19.581909 101.941353 19.826349 101.842842 20.000000 101.660004 C 20.171993 101.441597 20.257441 101.167458 20.240000 100.890007 C 20.256765 100.610947 20.183125 100.333908 20.030001 100.100006 C 19.889406 99.917717 19.670120 99.813652 19.440001 99.820007 Z M 18.660000 102.980003 L 18.660000 105.250000 L 19.660000 105.250000 C 19.928072 105.264053 20.188425 105.157715 20.369999 104.959999 C 20.546032 104.716812 20.630983 104.419479 20.609999 104.120003 C 20.630962 103.815750 20.534311 103.515060 20.339998 103.280006 C 20.138586 103.073669 19.857912 102.964317 19.569998 102.980003 Z" fill="#232F3E"/><path d=" M 26.250000 106.349998 L 26.100000 105.839996 C 25.949303 106.046989 25.745443 106.209389 25.510000 106.309998 C 25.266693 106.427460 25.000175 106.488968 24.730000 106.489998 C 24.290819 106.513031 23.862318 106.349617 23.549999 106.040001 C 22.925308 105.297272 22.968636 104.201103 23.650000 103.510002 C 24.047274 103.173096 24.560316 103.004471 25.080000 103.040001 C 25.394030 103.046669 25.706179 103.090302 26.010000 103.169998 L 26.010000 102.660004 C 26.035198 102.388687 25.975815 102.116226 25.840000 101.880005 C 25.679998 101.726921 25.459850 101.653542 25.240000 101.680008 C 24.632172 101.704216 24.031742 101.822273 23.459999 102.030006 L 23.459999 101.029999 C 23.747076 100.871574 24.057678 100.760162 24.379999 100.699997 C 24.761402 100.619514 25.150198 100.579300 25.539999 100.579994 C 26.083607 100.534027 26.625008 100.690742 27.059999 101.019997 C 27.401159 101.398506 27.568014 101.902695 27.519999 102.409996 L 27.520000 106.349998 Z M 25.250000 105.430000 C 25.551384 105.418922 25.837318 105.293823 26.049999 105.080002 L 26.049999 104.000000 C 25.844059 103.948677 25.632181 103.925140 25.420000 103.930000 C 25.219454 103.914780 25.022249 103.987816 24.879999 104.129997 C 24.748238 104.297188 24.684004 104.507729 24.699999 104.719994 C 24.689709 104.905304 24.742592 105.088631 24.849998 105.239990 C 24.934925 105.354698 25.067375 105.424606 25.209999 105.429993 Z" fill="#232F3E"/><path d=" M 31.320000 106.250000 C 30.999802 106.366165 30.660456 106.420456 30.320000 106.410004 C 29.923780 106.445717 29.531078 106.311180 29.240000 106.040001 C 28.976511 105.729019 28.847054 105.326263 28.879999 104.919998 L 28.879999 98.209999 L 30.530001 98.209999 L 30.530001 104.750000 C 30.519199 104.888161 30.546890 105.026619 30.610001 105.150002 C 30.689672 105.241310 30.809937 105.286407 30.930000 105.270004 C 31.046492 105.279053 31.163509 105.279053 31.280001 105.270004 Z" fill="#232F3E"/><path d=" M 35.230000 106.349998 L 35.090000 105.839996 C 34.936901 106.044678 34.733723 106.206528 34.500000 106.309998 C 34.256252 106.426201 33.990021 106.487640 33.720001 106.489998 C 33.280823 106.513031 32.852322 106.349617 32.540001 106.040001 C 32.233971 105.709824 32.075169 105.269508 32.100002 104.820000 C 32.076859 104.326881 32.270485 103.848297 32.630001 103.510002 C 33.033382 103.177032 33.547859 103.009109 34.070000 103.040001 C 34.380676 103.047447 34.689423 103.091080 34.989998 103.169998 L 34.990002 102.660004 C 35.017574 102.389763 34.961739 102.117561 34.830002 101.880005 C 34.665478 101.727715 34.442757 101.654694 34.220001 101.680008 C 33.615547 101.705238 33.018566 101.823280 32.450001 102.030006 L 32.450001 101.029999 C 32.737076 100.871574 33.047680 100.760162 33.369999 100.699997 C 33.748016 100.619484 34.133503 100.579254 34.520000 100.579994 C 35.047894 100.536407 35.573692 100.685623 36.000000 100.999992 C 36.344772 101.376846 36.515324 101.881233 36.470001 102.389992 L 36.470001 106.330002 Z M 34.230000 105.430000 C 34.528343 105.418404 34.810970 105.293190 35.020000 105.080002 L 35.020000 104.000000 C 34.817589 103.947983 34.608913 103.924423 34.400002 103.930000 C 34.199265 103.913399 34.001495 103.986649 33.860001 104.129997 C 33.728241 104.297188 33.664005 104.507729 33.680000 104.719994 C 33.665432 104.905769 33.718727 105.090523 33.830002 105.239990 C 33.917076 105.357422 34.053833 105.427643 34.200001 105.429993 Z" fill="#232F3E"/><path d=" M 41.000000 106.349998 L 41.000000 102.650002 C 41.019314 102.407036 40.967175 102.163719 40.849998 101.950005 C 40.738670 101.793205 40.551147 101.709015 40.359997 101.730003 C 40.067966 101.739677 39.784248 101.829636 39.539997 101.990005 L 39.540001 106.349998 L 37.910000 106.349998 L 37.910000 100.720001 L 39.259998 100.720001 L 39.389999 101.230003 C 39.925240 100.835541 40.565750 100.609268 41.230000 100.580002 C 41.631653 100.552147 42.024540 100.706367 42.299999 101.000000 C 42.569729 101.347038 42.701523 101.781601 42.669998 102.220001 L 42.669998 106.349998 Z" fill="#232F3E"/><path d=" M 47.700001 106.089996 C 47.507088 106.213348 47.293762 106.301392 47.070000 106.349998 C 46.804291 106.410645 46.532539 106.440842 46.259998 106.439995 C 45.567280 106.490982 44.889343 106.222023 44.419998 105.709991 C 43.958714 105.088364 43.735229 104.322128 43.789997 103.549988 C 43.739220 102.771988 43.977848 102.002678 44.459995 101.389984 C 44.936398 100.867004 45.623825 100.587616 46.329994 100.629982 C 46.799946 100.630127 47.262970 100.743309 47.679993 100.959984 L 47.680000 101.959999 C 47.359512 101.841644 47.021564 101.777435 46.680000 101.769997 C 46.318848 101.733589 45.964180 101.884514 45.740002 102.169998 C 45.522072 102.563194 45.424690 103.011833 45.460003 103.459999 L 45.459999 103.620003 C 45.423050 104.065079 45.520596 104.511002 45.739998 104.900002 C 45.948990 105.182068 46.290585 105.333885 46.639999 105.300003 C 47.009380 105.292480 47.374714 105.221443 47.720001 105.090004 Z" fill="#232F3E"/><path d=" M 49.619999 99.809998 C 49.364536 99.824768 49.112354 99.746628 48.910000 99.589996 C 48.730804 99.439140 48.631184 99.214073 48.639999 98.979996 C 48.629642 98.745628 48.729549 98.519913 48.910000 98.369995 C 49.330441 98.064751 49.899559 98.064751 50.320000 98.369995 C 50.494263 98.523682 50.589809 98.747849 50.579998 98.979996 C 50.586990 99.211624 50.491936 99.434639 50.320000 99.589996 C 50.122971 99.749374 49.872780 99.828011 49.619999 99.809998 Z M 48.790001 106.349998 L 48.790001 100.720001 L 50.439999 100.720001 L 50.439999 106.349998 Z" fill="#232F3E"/><path d=" M 55.000000 106.349998 L 55.000000 102.650002 C 55.019314 102.407036 54.967175 102.163719 54.849998 101.950005 C 54.737305 101.794876 54.550808 101.711143 54.359997 101.730003 C 54.067787 101.738640 53.783794 101.828682 53.539997 101.990005 L 53.540001 106.349998 L 51.900002 106.349998 L 51.900002 100.720001 L 53.250000 100.720001 L 53.380001 101.230003 C 53.915241 100.835541 54.555752 100.609268 55.220001 100.580002 C 55.621433 100.553581 56.013729 100.707565 56.290001 101.000000 C 56.555580 101.349174 56.686886 101.782127 56.660000 102.220001 L 56.660000 106.349998 Z" fill="#232F3E"/><path d=" M 61.000000 105.709999 C 60.344322 106.397354 59.255581 106.423027 58.568230 105.767349 C 58.483223 105.686256 58.406746 105.596672 58.340000 105.499992 C 57.966980 104.901863 57.785553 104.204063 57.820000 103.499992 C 57.774834 102.758835 57.959957 102.021835 58.349998 101.389992 C 58.674274 100.896835 59.229950 100.605766 59.820000 100.619995 C 60.062443 100.628639 60.300598 100.686478 60.520000 100.789993 C 60.757305 100.897530 60.971313 101.050392 61.150002 101.239990 L 61.270000 100.760002 L 62.619999 100.760002 L 62.619999 106.000000 C 62.619999 107.860001 61.770000 108.790001 60.060001 108.790001 C 59.423038 108.796577 58.794353 108.645416 58.230000 108.349998 L 58.230000 107.349998 C 58.745827 107.547577 59.288696 107.665596 59.840000 107.699997 C 60.080437 107.714272 60.320721 107.669647 60.540001 107.570000 C 60.711475 107.476830 60.837788 107.318039 60.889999 107.129997 C 60.979328 106.804581 61.016457 106.467049 61.000000 106.129997 Z M 60.330002 105.110001 C 60.569435 105.100319 60.801437 105.024139 61.000000 104.889999 L 61.000000 102.000000 C 60.785660 101.838440 60.528023 101.744431 60.259998 101.730003 C 59.990807 101.727432 59.749722 101.896187 59.660000 102.150002 C 59.508274 102.565742 59.443604 103.008224 59.470001 103.450005 C 59.445820 103.886879 59.517494 104.323753 59.680000 104.730003 C 59.797829 104.959351 60.032200 105.105347 60.290001 105.110001 Z" fill="#232F3E"/></g><g id="ICONS_-_EDIT"><rect x="43.970000" y="39.000000" width="9.330000" height="2.000000" fill="#FFFFFF"/><rect x="40.690000" y="28.110000" width="13.510000" height="2.000000" fill="#FFFFFF" transform="matrix(0.764809,-0.644257,0.644257,0.764809,-7.600000,37.410000)"/><rect x="46.450000" y="44.140000" width="2.000000" height="13.510000" fill="#FFFFFF" transform="matrix(0.644124,-0.764921,0.764921,0.644124,-22.040000,54.400000)"/><path d=" M 30.270000 55.000000 C 21.985729 55.000000 15.270000 48.284271 15.270000 40.000000 C 15.270000 31.715729 21.985729 25.000000 30.270000 25.000000 C 38.554272 25.000000 45.270000 31.715729 45.270000 40.000000 C 45.270000 48.284271 38.554272 55.000000 30.270000 55.000000 Z M 30.270000 27.000000 C 23.090300 27.000000 17.270000 32.820297 17.270000 40.000000 C 17.270000 47.179703 23.090300 53.000000 30.270000 53.000000 C 37.449703 53.000000 43.270000 47.179703 43.270000 40.000000 C 43.270000 32.820297 37.449703 27.000000 30.270000 27.000000 Z" fill="#FFFFFF"/><path d=" M 56.430000 27.430000 C 52.994793 27.435518 50.205536 24.655207 50.200016 21.220001 C 50.194496 17.784794 52.974808 14.995536 56.410015 14.990017 C 59.845222 14.984499 62.634480 17.764811 62.639999 21.200016 C 62.640011 21.206676 62.640011 21.213339 62.639999 21.219999 C 62.634495 24.647404 59.857403 27.424494 56.430000 27.429998 Z M 56.430000 17.000000 C 54.099365 16.994476 52.205536 18.879353 52.200012 21.209988 C 52.194489 23.540623 54.079365 25.434452 56.410000 25.439976 C 58.740635 25.445499 60.634464 23.560623 60.639988 21.229988 C 60.639996 21.226658 60.639999 21.223330 60.639999 21.219999 C 60.640007 18.893257 58.756733 17.005512 56.430000 17.000000 Z" fill="#FFFFFF"/><path d=" M 56.430000 65.000000 C 52.994793 65.005524 50.205532 62.225216 50.200008 58.790009 C 50.194485 55.354801 52.974792 52.565540 56.410000 52.560017 C 59.845207 52.554493 62.634468 55.334801 62.639992 58.770008 C 62.639996 58.773338 62.639999 58.776669 62.639999 58.779999 C 62.634514 62.209034 59.859020 64.988998 56.430000 65.000000 Z M 56.430000 54.570000 C 54.099365 54.564484 52.205540 56.449364 52.200024 58.779999 C 52.194508 61.110634 54.079388 63.004459 56.410023 63.009975 C 58.740658 63.015491 60.634483 61.130611 60.639999 58.799976 C 60.640015 58.793316 60.640015 58.786659 60.639999 58.779999 C 60.634502 56.457161 58.752838 54.575497 56.430000 54.570000 Z" fill="#FFFFFF"/><path d=" M 58.509998 46.220001 C 55.074787 46.220001 52.289997 43.435211 52.289997 40.000000 C 52.289997 36.564789 55.074787 33.779999 58.509998 33.779999 C 61.945210 33.779999 64.729996 36.564789 64.729996 40.000000 C 64.729996 43.435211 61.945206 46.220001 58.509995 46.220001 Z M 58.509998 35.779999 C 56.179356 35.779999 54.289997 37.669357 54.289997 40.000000 C 54.289997 42.330643 56.179356 44.220001 58.509998 44.220001 C 60.840641 44.220001 62.730000 42.330643 62.730000 40.000000 C 62.730000 37.669357 60.840641 35.779999 58.509998 35.779999 Z" fill="#FFFFFF"/></g></svg>