<svg version="1.1" width="80.000000" height="100.000000" viewBox="0.000000 0.000000 80.000000 100.000000" xmlns="http://www.w3.org/2000/svg" xmlns:xlink="http://www.w3.org/1999/xlink" overflow="hidden"><g id="CARDS"><rect x="1.000000" y="1.000000" width="78.000000" height="78.000000" fill="#232F3E"/><path d=" M 0.000000 0.000000 L 0.000000 80.000000 L 0.000000 80.000000 L 0.000000 100.000000 L 80.000000 100.000000 L 80.000000 80.000000 L 80.000000 80.000000 L 80.000000 0.000000 Z M 1.000000 1.000000 L 79.000000 1.000000 L 79.000000 79.000000 L 1.000000 79.000000 Z" fill="#FFFFFF"/></g><g id="TEXT_-_EDIT"><path d=" M 14.590000 92.349998 L 14.160000 90.529999 L 12.160000 90.529999 L 11.740000 92.349998 L 10.000000 92.349998 L 12.310000 84.720001 L 14.180000 84.720001 L 16.480000 92.349998 Z M 12.410000 89.430000 L 13.900000 89.430000 L 13.150000 86.269997 Z" fill="#232F3E"/><path d=" M 21.799999 92.349998 L 20.860001 86.720001 L 20.000000 92.349998 L 18.100000 92.349998 L 16.309999 84.720001 L 18.000000 84.720001 L 19.059999 90.779999 L 20.000000 85.000000 L 21.830000 85.000000 L 22.770000 90.650002 L 23.770000 84.650002 L 25.440001 84.650002 L 23.650000 92.279999 Z" fill="#232F3E"/><path d=" M 27.750000 89.000000 C 27.252724 88.768532 26.814913 88.426491 26.469999 88.000000 C 26.207676 87.644348 26.070536 87.211830 26.080000 86.769997 C 26.073391 86.354721 26.191856 85.947060 26.420000 85.599998 C 26.648212 85.261978 26.967066 84.995110 27.340000 84.830002 C 27.764984 84.642815 28.225712 84.550667 28.690001 84.560005 C 29.339569 84.563965 29.981924 84.696510 30.580000 84.950005 L 30.580000 86.120003 C 30.027973 85.918839 29.447279 85.807426 28.860001 85.790001 C 28.575068 85.774620 28.293257 85.855637 28.060001 86.020004 C 27.867281 86.175255 27.759666 86.412743 27.770000 86.660004 C 27.760496 86.863945 27.828356 87.063950 27.960001 87.220001 C 28.163887 87.428474 28.409143 87.591980 28.680000 87.700005 L 29.330000 88.019997 C 29.685192 88.189125 30.020569 88.397057 30.330000 88.639999 C 30.562378 88.823715 30.747513 89.060280 30.870001 89.330002 C 30.997578 89.619499 31.059067 89.933777 31.050001 90.250000 C 31.080263 90.886475 30.805428 91.499283 30.310001 91.900002 C 29.719494 92.337746 28.993763 92.553688 28.260002 92.510002 C 27.880203 92.509125 27.501514 92.468910 27.130003 92.389999 C 26.800890 92.324646 26.481585 92.217087 26.180002 92.070000 L 26.180000 90.919998 C 26.507162 91.026321 26.841295 91.109856 27.180000 91.169998 C 27.492731 91.235054 27.810677 91.271873 28.130001 91.279999 C 28.444092 91.293243 28.752596 91.193954 29.000002 91.000000 C 29.206398 90.823906 29.317595 90.560738 29.300001 90.290001 C 29.306089 90.077034 29.231024 89.869705 29.090002 89.709999 C 28.886232 89.513252 28.649242 89.354134 28.390001 89.239998 Z" fill="#232F3E"/><path d=" M 34.820000 92.349998 L 34.820000 84.720001 L 39.169998 84.720001 L 39.169998 85.900002 L 36.509998 85.900002 L 36.509998 88.000000 L 38.590000 88.000000 L 38.590000 89.169998 L 36.509998 89.169998 L 36.509998 92.389999 Z" fill="#232F3E"/><path d=" M 42.750000 92.349998 L 42.599998 91.839996 C 42.449303 92.046989 42.245441 92.209389 42.009998 92.309998 C 41.766251 92.426201 41.500019 92.487640 41.230000 92.489998 C 40.784748 92.502617 40.355339 92.324303 40.049999 92.000000 C 39.743969 91.669823 39.585167 91.229507 39.610001 90.779999 C 39.586857 90.286880 39.780483 89.808296 40.139999 89.470001 C 40.543865 89.137909 41.057987 88.970108 41.579998 89.000000 C 41.894028 89.006668 42.206177 89.050301 42.509998 89.129997 L 42.509998 88.620003 C 42.535194 88.348686 42.475811 88.076225 42.340000 87.840004 C 42.175476 87.687714 41.952755 87.614693 41.730000 87.640007 C 41.138531 87.672478 40.555325 87.793839 40.000000 88.000008 L 40.000000 87.000000 C 40.287075 86.841576 40.597679 86.730164 40.919998 86.669998 C 41.276218 86.604965 41.637928 86.574821 42.000000 86.580002 C 42.540550 86.533661 43.078953 86.690552 43.509998 87.020004 C 43.866489 87.390778 44.045166 87.897636 44.000000 88.410004 L 44.000000 92.349998 Z M 41.750000 91.430000 C 42.051384 91.418922 42.337318 91.293823 42.549999 91.080002 L 42.549999 90.000000 C 42.344059 89.948677 42.132179 89.925140 41.919998 89.930000 C 41.719452 89.914780 41.522247 89.987816 41.379997 90.129997 C 41.248238 90.297188 41.184002 90.507729 41.199997 90.719994 C 41.189709 90.905304 41.242588 91.088631 41.349998 91.239990 C 41.434925 91.354698 41.567375 91.424606 41.709999 91.429993 Z" fill="#232F3E"/><path d=" M 45.419998 92.349998 L 45.419998 86.720001 L 46.770000 86.720001 L 46.950001 87.449997 C 47.150948 87.209991 47.395180 87.009857 47.670002 86.860001 C 47.899429 86.733040 48.157799 86.667580 48.420002 86.669998 C 48.549812 86.660080 48.680191 86.660080 48.810001 86.669998 L 48.810001 88.000000 C 48.596886 87.986336 48.383118 87.986336 48.170002 88.000000 C 47.788166 88.000481 47.411644 88.089478 47.070004 88.260002 L 47.070000 92.370003 Z" fill="#232F3E"/><path d=" M 52.459999 91.709999 C 51.804321 92.397354 50.715580 92.423027 50.028229 91.767349 C 49.943222 91.686256 49.866745 91.596672 49.799999 91.499992 C 49.426979 90.901863 49.245552 90.204063 49.279999 89.499992 C 49.234833 88.758835 49.419956 88.021835 49.809998 87.389992 C 50.134274 86.896835 50.689949 86.605766 51.279999 86.619995 C 51.522442 86.628639 51.760597 86.686478 51.980000 86.789993 C 52.217304 86.897530 52.431313 87.050392 52.610001 87.239990 L 52.730000 86.760002 L 54.080002 86.760002 L 54.080002 92.000000 C 54.080002 93.860001 53.230000 94.790001 51.520000 94.790001 C 50.883038 94.796577 50.254353 94.645416 49.689999 94.349998 L 49.689999 93.349998 C 50.205826 93.547577 50.748695 93.665596 51.299999 93.699997 C 51.540436 93.714272 51.780720 93.669647 52.000000 93.570000 C 52.171474 93.476830 52.297787 93.318039 52.349998 93.129997 C 52.439327 92.804581 52.476456 92.467049 52.459999 92.129997 Z M 51.790001 91.110001 C 52.029434 91.100319 52.261436 91.024139 52.459999 90.889999 L 52.459999 88.000000 C 52.245659 87.838440 51.988022 87.744431 51.719997 87.730003 C 51.450806 87.727432 51.209721 87.896187 51.119999 88.150002 C 50.968273 88.565742 50.903603 89.008224 50.930000 89.450005 C 50.905819 89.886879 50.977493 90.323753 51.139999 90.730003 C 51.264294 90.972328 51.517860 91.120567 51.790001 91.110001 Z" fill="#232F3E"/><path d=" M 58.410000 92.349998 L 58.259998 91.839996 C 58.109303 92.046989 57.905441 92.209389 57.669998 92.309998 C 57.426693 92.427460 57.160175 92.488968 56.889999 92.489998 C 56.444748 92.502617 56.015339 92.324303 55.709999 92.000000 C 55.085308 91.257271 55.128635 90.161102 55.809998 89.470001 C 56.207272 89.133095 56.720314 88.964470 57.239998 89.000000 C 57.554028 89.006668 57.866177 89.050301 58.169998 89.129997 L 58.169998 88.620003 C 58.195194 88.348686 58.135811 88.076225 58.000000 87.840004 C 57.839996 87.686920 57.619850 87.613541 57.400002 87.640007 C 56.792171 87.664215 56.191746 87.782272 55.620003 87.990005 L 55.619999 87.000000 C 55.907074 86.841576 56.217678 86.730164 56.539997 86.669998 C 56.921398 86.589516 57.310196 86.549301 57.699997 86.549995 C 58.243603 86.504028 58.785004 86.660744 59.219997 86.989998 C 59.564770 87.366852 59.735321 87.871239 59.689999 88.379997 L 59.689999 92.320000 Z M 57.410000 91.430000 C 57.711384 91.418922 57.997318 91.293823 58.209999 91.080002 L 58.209999 90.000000 C 58.004059 89.948677 57.792179 89.925140 57.579998 89.930000 C 57.379452 89.914780 57.182247 89.987816 57.039997 90.129997 C 56.908237 90.297188 56.844002 90.507729 56.859997 90.719994 C 56.849709 90.905304 56.902588 91.088631 57.009998 91.239990 C 57.094925 91.354698 57.227375 91.424606 57.369999 91.429993 Z" fill="#232F3E"/><path d=" M 64.120003 92.199997 C 63.726692 92.347153 63.309937 92.421692 62.890003 92.419998 C 62.417686 92.464508 61.946896 92.320755 61.580002 92.019997 C 61.275265 91.658775 61.127636 91.190689 61.170002 90.719994 L 61.169998 87.820000 L 60.430000 87.820000 L 60.430000 86.900002 L 61.220001 86.750000 L 61.459999 85.209999 L 62.820000 85.209999 L 62.820000 86.720001 L 64.089996 86.720001 L 64.089996 87.820000 L 62.820000 87.820000 L 62.820000 90.589996 C 62.804325 90.774376 62.853870 90.958412 62.959999 91.109993 C 63.106586 91.234970 63.298744 91.292976 63.489998 91.269997 C 63.702271 91.266159 63.913502 91.239334 64.119995 91.189995 Z" fill="#232F3E"/><path d=" M 66.209999 89.919998 C 66.205971 90.311752 66.336586 90.693016 66.580002 91.000000 C 66.874474 91.248260 67.256645 91.367241 67.639999 91.330002 C 67.869202 91.323997 68.097130 91.293831 68.320000 91.240005 C 68.591248 91.188805 68.858574 91.118637 69.120003 91.030006 L 69.120003 92.029999 C 68.860985 92.175522 68.581001 92.280098 68.290001 92.339996 C 67.961479 92.411812 67.626282 92.448685 67.290001 92.449997 C 65.570000 92.449997 64.709999 91.449997 64.709999 89.500000 C 64.656960 88.715630 64.879814 87.937401 65.339996 87.300003 C 65.797760 86.774681 66.474762 86.493523 67.169998 86.540001 C 68.529999 86.540001 69.169998 87.300003 69.169998 88.830002 C 69.169128 89.166870 69.128853 89.502487 69.049995 89.830002 Z M 67.129997 87.599998 C 66.550003 87.599998 66.250000 88.059998 66.209999 88.970001 L 67.830002 88.970001 L 67.830002 88.720001 C 67.850441 88.423340 67.791779 88.126572 67.660004 87.860001 C 67.542511 87.684830 67.340446 87.585701 67.130005 87.599998 Z" fill="#232F3E"/></g><g id="ICONS_-_EDIT"><path d=" M 40.000000 42.000000 C 39.447716 42.000000 39.000000 41.552284 39.000000 41.000000 L 39.000000 27.740000 L 27.270000 22.299999 C 27.135818 22.362848 26.987808 22.390385 26.840000 22.379999 C 26.287716 22.379999 25.840000 21.932283 25.840000 21.379999 C 25.842377 20.773096 26.192175 20.221195 26.740000 19.959999 L 39.310001 14.150000 C 39.729809 13.945749 40.220192 13.945749 40.640003 14.150000 L 53.209999 20.000000 C 53.763401 20.256393 54.118237 20.810089 54.119999 21.420000 L 54.119999 35.770000 C 54.105526 37.501415 53.081421 39.064934 51.500000 39.770000 C 47.866776 41.315853 43.947689 42.075817 40.000000 42.000000 Z M 29.260000 21.000000 L 40.099998 26.000000 C 40.647926 26.255838 40.998638 26.805288 41.000000 27.410000 L 41.000000 40.000000 C 44.326420 39.972878 47.615204 39.293377 50.680000 38.000000 C 51.559471 37.607670 52.124279 36.733002 52.119999 35.770000 L 52.119999 21.660000 L 40.000000 16.049999 Z M 26.809999 22.059999 L 26.809999 22.059999 Z M 39.810001 15.940000 L 39.810001 15.940000 Z M 40.209999 15.940000 L 40.209999 15.940000 Z" fill="#FFFFFF"/><path d=" M 40.000000 42.000000 C 37.403202 42.021061 34.813702 41.722145 32.290001 41.110001 L 31.799999 41.000000 L 30.879999 40.740002 C 30.290001 40.549999 29.760000 40.360001 29.290001 40.180000 L 29.000000 40.049999 L 28.889999 40.049999 L 28.790001 40.000000 L 28.480000 39.860001 C 28.299999 39.779999 28.129999 39.689999 27.969999 39.599998 C 27.929834 39.582684 27.892698 39.559052 27.859999 39.529999 C 27.691793 39.421349 27.531401 39.301056 27.379999 39.169998 C 27.282429 39.091553 27.192070 39.004539 27.109999 38.910000 L 27.000000 38.700001 C 26.300428 37.887589 25.913893 36.852100 25.910000 35.780003 L 25.910000 21.379999 C 25.920753 20.943592 26.154890 20.543293 26.530001 20.320000 C 26.893259 20.129725 27.326742 20.129725 27.690001 20.320000 L 40.099998 26.000000 C 40.647926 26.255838 40.998638 26.805288 41.000000 27.410000 L 41.000000 41.000000 C 41.000000 41.552284 40.552284 42.000000 40.000000 42.000000 Z M 29.660000 38.150002 L 29.660000 38.150002 L 30.010000 38.299999 C 30.400000 38.439999 30.889999 38.619999 31.430000 38.799999 L 32.290001 39.040001 L 32.759998 39.169998 C 34.804485 39.668205 36.896366 39.946453 39.000000 40.000000 L 39.000000 27.740000 L 27.879999 22.580000 L 27.879999 35.779999 C 27.878435 36.363815 28.087978 36.928516 28.469999 37.369999 L 28.559999 37.470001 L 28.670000 37.580002 L 28.969999 37.810001 L 28.969999 37.810001 L 29.309999 37.980000 Z M 26.809999 22.080000 L 26.809999 22.080000 Z" fill="#FFFFFF"/><path d=" M 41.000000 66.000000 C 40.791630 66.002480 40.585758 65.954445 40.400002 65.860001 L 35.740002 63.860001 C 35.293537 63.660507 35.004402 63.218987 35.000000 62.730000 L 35.000000 56.639999 C 35.001514 56.177082 35.264893 55.754898 35.680000 55.549999 L 40.439999 53.549999 C 40.796280 53.374737 41.213718 53.374737 41.570000 53.549999 L 46.230000 55.549999 C 46.675373 55.734463 46.974983 56.158588 47.000000 56.639999 L 47.000000 62.730000 C 46.997616 63.195190 46.735058 63.619915 46.320000 63.829998 L 41.540001 65.889999 C 41.371452 65.969513 41.186222 66.007240 41.000000 66.000000 Z M 40.750000 64.000000 C 40.723606 63.994614 40.696396 63.994614 40.669998 64.000000 Z M 41.189999 64.000000 L 41.250000 64.000000 Z M 37.000000 62.220001 L 41.000000 63.939999 L 45.000000 62.220001 L 45.000000 57.150002 L 41.000000 55.439999 L 37.000000 57.150002 Z M 40.720001 55.320000 L 40.779999 55.320000 Z" fill="#FFFFFF"/><path d=" M 40.889999 66.000000 C 40.716236 65.999687 40.544975 65.958588 40.389999 65.879997 L 35.740002 63.880001 C 35.290390 63.673531 35.001610 63.224751 35.000000 62.730000 L 35.000000 56.650002 C 35.012138 56.276661 35.206409 55.932957 35.520000 55.730003 C 35.851604 55.540905 36.258396 55.540905 36.590000 55.730003 L 41.250000 57.730000 C 41.684441 57.918808 41.974831 58.336971 42.000000 58.810001 L 42.000000 64.889999 C 42.011150 65.491890 41.532261 65.988853 40.930374 66.000000 C 40.916916 66.000252 40.903458 66.000252 40.889999 66.000000 Z M 37.000000 62.220001 L 40.000000 63.509998 L 40.000000 59.320000 L 37.000000 58.000000 Z" fill="#FFFFFF"/><rect x="40.830000" y="56.760000" width="5.370000" height="2.000000" fill="#FFFFFF" transform="matrix(0.925673,-0.378326,0.378326,0.925673,-18.620000,20.760000)"/><path d=" M 52.000000 59.630001 C 51.790844 59.628998 51.585022 59.577541 51.400002 59.480000 L 46.740002 57.480000 C 46.296791 57.282021 46.008278 56.845348 46.000000 56.360001 L 46.000000 50.270000 C 46.002384 49.804810 46.264942 49.380085 46.680000 49.170002 L 51.439999 47.119999 C 51.796280 46.944736 52.213718 46.944736 52.570000 47.119999 L 57.230000 49.119999 C 57.694820 49.313309 57.998322 49.766586 58.000000 50.270000 L 58.000000 56.360001 C 57.998486 56.822918 57.735107 57.245102 57.320000 57.450001 L 52.540001 59.509998 C 52.374866 59.599979 52.187702 59.641571 52.000000 59.629997 Z M 51.750000 57.630001 L 51.669998 57.630001 Z M 52.189999 57.630001 L 52.250000 57.630001 Z M 48.000000 55.849998 L 52.000000 57.560001 L 56.000000 55.849998 L 56.000000 50.779999 L 52.000000 49.060001 L 48.000000 50.779999 Z M 51.720001 49.000000 L 51.779999 49.000000 Z" fill="#FFFFFF"/><path d=" M 51.889999 59.599998 C 51.716236 59.599686 51.544975 59.558582 51.389999 59.480000 L 46.740002 57.480000 C 46.296791 57.282021 46.008278 56.845348 46.000000 56.360001 L 46.000000 50.270000 C 46.012138 49.896660 46.206409 49.552956 46.520000 49.350002 C 46.854065 49.170437 47.255936 49.170437 47.590000 49.350002 L 52.250000 51.349998 C 52.687561 51.540390 52.978546 51.963291 53.000000 52.439999 L 53.000000 58.520000 C 52.982925 58.891937 52.789845 59.233543 52.480000 59.439999 C 52.302399 59.548004 52.097832 59.603481 51.889999 59.599998 Z M 48.000000 55.849998 L 51.000000 57.130001 L 51.000000 52.939999 L 48.000000 51.660000 Z" fill="#FFFFFF"/><rect x="51.830000" y="50.390000" width="5.370000" height="2.000000" fill="#FFFFFF" transform="matrix(0.925673,-0.378326,0.378326,0.925673,-15.390000,24.450000)"/><path d=" M 30.000000 59.630001 C 29.790846 59.628998 29.585022 59.577541 29.400000 59.480000 L 24.740000 57.480000 C 24.296789 57.282021 24.008274 56.845348 24.000000 56.360001 L 24.000000 50.270000 C 24.002384 49.804810 24.264940 49.380085 24.680000 49.170002 L 29.440001 47.119999 C 29.796280 46.944736 30.213720 46.944736 30.570000 47.119999 L 35.230000 49.119999 C 35.694820 49.313309 35.998322 49.766586 36.000000 50.270000 L 36.000000 56.360001 C 35.998486 56.822918 35.735107 57.245102 35.320000 57.450001 L 30.540001 59.509998 C 30.374865 59.599979 30.187704 59.641571 30.000000 59.629997 Z M 29.750000 57.630001 L 29.670000 57.630001 Z M 30.190001 57.630001 L 30.250000 57.630001 Z M 26.000000 55.849998 L 30.000000 57.560001 L 34.000000 55.849998 L 34.000000 50.779999 L 30.000000 49.060001 L 26.000000 50.779999 Z M 29.719999 49.000000 L 29.780001 49.000000 Z" fill="#FFFFFF"/><path d=" M 29.889999 59.599998 C 29.716238 59.599686 29.544975 59.558582 29.389999 59.480000 L 24.740000 57.480000 C 24.296789 57.282021 24.008274 56.845348 24.000000 56.360001 L 24.000000 50.270000 C 24.012140 49.896660 24.206409 49.552956 24.520000 49.350002 C 24.854067 49.170437 25.255934 49.170437 25.590000 49.350002 L 30.250000 51.349998 C 30.687561 51.540390 30.978548 51.963291 31.000000 52.439999 L 31.000000 58.520000 C 30.982925 58.891937 30.789845 59.233543 30.480000 59.439999 C 30.302401 59.548004 30.097834 59.603481 29.889999 59.599998 Z M 26.000000 55.849998 L 29.000000 57.130001 L 29.000000 52.939999 L 26.000000 51.660000 Z" fill="#FFFFFF"/><rect x="29.830000" y="50.390000" width="5.370000" height="2.000000" fill="#FFFFFF" transform="matrix(0.925673,-0.378326,0.378326,0.925673,-17.030000,16.120000)"/><rect x="39.630000" y="23.270000" width="14.110000" height="2.000000" fill="#FFFFFF" transform="matrix(0.912192,-0.409764,0.409764,0.912192,-5.850000,21.260000)"/><path d=" M 40.000000 46.000000 C 27.400000 46.000000 14.000000 42.849998 14.000000 37.000000 C 14.000000 34.259998 17.100000 31.840000 22.719999 30.180000 L 23.280001 32.099998 C 18.790001 33.419998 16.000000 35.299999 16.000000 37.000000 C 16.000000 40.310001 25.860001 44.000000 40.000000 44.000000 C 54.139999 44.000000 64.000000 40.310001 64.000000 37.000000 C 64.000000 35.299999 61.209999 33.419998 56.720001 32.099998 L 57.279999 30.180000 C 62.900002 31.840000 66.000000 34.259998 66.000000 37.000000 C 66.000000 42.849998 52.599998 46.000000 40.000000 46.000000 Z" fill="#FFFFFF"/></g></svg>