<svg version="1.1" width="80.000000" height="100.000000" viewBox="0.000000 0.000000 80.000000 100.000000" xmlns="http://www.w3.org/2000/svg" xmlns:xlink="http://www.w3.org/1999/xlink" overflow="hidden"><g id="CARDS"><rect x="1.000000" y="1.000000" width="78.000000" height="78.000000" fill="#232F3E"/><path d=" M 0.000000 0.000000 L 0.000000 80.000000 L 0.000000 80.000000 L 0.000000 100.000000 L 80.000000 100.000000 L 80.000000 80.000000 L 80.000000 80.000000 L 80.000000 0.000000 Z M 1.000000 1.000000 L 79.000000 1.000000 L 79.000000 79.000000 L 1.000000 79.000000 Z" fill="#FFFFFF"/></g><g id="TEXT_-_EDIT"><path d=" M 13.440000 92.349998 L 13.000000 90.529999 L 11.000000 90.529999 L 10.580000 92.349998 L 8.810000 92.349998 L 11.130000 84.720001 L 13.000000 84.720001 L 15.300000 92.349998 Z M 11.260000 89.430000 L 12.750000 89.430000 L 12.000000 86.269997 Z" fill="#232F3E"/><path d=" M 20.650000 92.349998 L 19.709999 86.720001 L 18.809999 92.349998 L 17.000000 92.349998 L 15.210000 84.720001 L 16.910000 84.720001 L 17.969999 90.779999 L 18.840000 85.000000 L 20.670000 85.000000 L 21.610001 90.650002 L 22.610001 84.650002 L 24.299999 84.650002 L 22.510000 92.279999 Z" fill="#232F3E"/><path d=" M 26.600000 89.000000 C 26.102724 88.768532 25.664913 88.426491 25.320000 88.000000 C 25.057676 87.644348 24.920536 87.211830 24.930000 86.769997 C 24.923391 86.354721 25.041857 85.947060 25.270000 85.599998 C 25.498213 85.261978 25.817066 84.995110 26.190001 84.830002 C 26.614985 84.642815 27.075712 84.550667 27.540001 84.560005 C 28.189569 84.563965 28.831924 84.696510 29.430000 84.950005 L 29.430000 86.120003 C 28.877974 85.918839 28.297279 85.807426 27.710001 85.790001 C 27.425068 85.774620 27.143257 85.855637 26.910002 86.020004 C 26.717281 86.175255 26.609667 86.412743 26.620001 86.660004 C 26.610497 86.863945 26.678356 87.063950 26.810001 87.220001 C 27.011881 87.426239 27.253389 87.589516 27.520000 87.700005 L 28.180000 88.019997 C 28.535192 88.189125 28.870569 88.397057 29.180000 88.639999 C 29.412378 88.823715 29.597513 89.060280 29.720001 89.330002 C 29.847578 89.619499 29.909067 89.933777 29.900002 90.250000 C 29.930264 90.886475 29.655428 91.499283 29.160002 91.900002 C 28.582972 92.326584 27.876883 92.541946 27.160002 92.510002 C 26.770176 92.511223 26.381323 92.471001 26.000002 92.389999 C 25.670889 92.324646 25.351583 92.217087 25.050001 92.070000 L 25.049999 90.919998 C 25.377357 91.025635 25.711443 91.109154 26.049999 91.169998 C 26.379297 91.236969 26.714016 91.273788 27.049999 91.279999 C 27.363754 91.304230 27.675844 91.215561 27.929998 91.029999 C 28.136395 90.853905 28.247591 90.590736 28.229998 90.320000 C 28.236086 90.107033 28.161020 89.899704 28.019999 89.739998 C 27.816229 89.543251 27.579239 89.384132 27.319998 89.269997 Z" fill="#232F3E"/><path d=" M 33.669998 92.349998 L 33.669998 84.720001 L 35.360001 84.720001 L 35.360001 91.120003 L 38.200001 91.120003 L 38.200001 92.349998 Z" fill="#232F3E"/><path d=" M 41.869999 92.349998 L 41.730000 91.839996 C 41.576900 92.044678 41.373722 92.206528 41.139999 92.309998 C 40.896252 92.426201 40.630020 92.487640 40.360001 92.489998 C 39.914272 92.505234 39.483826 92.326492 39.180000 92.000000 C 38.873970 91.669823 38.715168 91.229507 38.740002 90.779999 C 38.716858 90.286880 38.910484 89.808296 39.270000 89.470001 C 39.667274 89.133095 40.180317 88.964470 40.700001 89.000000 C 41.014030 89.006668 41.326180 89.050301 41.630001 89.129997 L 41.630001 88.620003 C 41.657574 88.349762 41.601738 88.077560 41.470001 87.840004 C 41.305477 87.687714 41.082756 87.614693 40.860001 87.640007 C 40.255547 87.665237 39.658566 87.783279 39.090000 87.990005 L 39.090000 87.000000 C 39.375301 86.851891 39.682552 86.750603 40.000000 86.699997 C 40.378017 86.619484 40.763504 86.579254 41.150002 86.579994 C 41.693798 86.532089 42.235882 86.689011 42.670002 87.019997 C 43.014774 87.396851 43.185326 87.901237 43.140003 88.409996 L 43.139999 92.349998 Z M 40.869999 91.430000 C 41.168343 91.418404 41.450970 91.293190 41.660000 91.080002 L 41.660000 90.000000 C 41.457588 89.947983 41.248913 89.924423 41.040001 89.930000 C 40.839069 89.911972 40.640713 89.985435 40.500000 90.129997 C 40.364662 90.295738 40.296814 90.506424 40.310001 90.719994 C 40.299713 90.905304 40.352592 91.088631 40.460003 91.239990 C 40.551197 91.357796 40.691040 91.427719 40.840004 91.429993 Z" fill="#232F3E"/><path d=" M 50.619999 92.349998 L 50.619999 88.639999 C 50.636662 88.401566 50.588276 88.163086 50.480000 87.949997 C 50.378387 87.798111 50.202015 87.713760 50.020000 87.729996 C 49.734558 87.741776 49.457829 87.831711 49.220001 87.989998 C 49.224918 88.029846 49.224918 88.070152 49.220001 88.110001 L 49.220001 92.349998 L 47.580002 92.349998 L 47.580002 88.639999 C 47.599258 88.402504 47.554359 88.164200 47.450001 87.949997 C 47.345142 87.796478 47.165054 87.712181 46.980000 87.729996 C 46.701336 87.744865 46.431854 87.834694 46.200001 87.989998 L 46.200001 92.349998 L 44.549999 92.349998 L 44.549999 86.720001 L 45.900002 86.720001 L 46.029999 87.230003 C 46.555126 86.837898 47.185390 86.611557 47.840000 86.580002 C 48.337906 86.543671 48.809681 86.807076 49.040001 87.250000 C 49.570992 86.851845 50.207451 86.618820 50.870003 86.580002 C 51.248608 86.567619 51.613781 86.720993 51.870003 87.000000 C 52.130432 87.351334 52.257977 87.783562 52.230003 88.220001 L 52.230000 92.349998 Z" fill="#232F3E"/><path d=" M 53.669998 92.349998 L 53.669998 84.209999 L 55.320000 84.209999 L 55.320000 87.110001 C 55.495983 86.941505 55.703201 86.809021 55.930000 86.720001 C 56.153049 86.631737 56.390160 86.584312 56.630001 86.580002 C 57.228603 86.545181 57.802959 86.821022 58.150002 87.310005 C 58.541550 87.955635 58.723228 88.706802 58.670002 89.460007 C 58.716579 90.231071 58.528301 90.998138 58.130001 91.660004 C 57.796013 92.169495 57.218662 92.465767 56.610001 92.440002 C 56.345276 92.438156 56.083549 92.383774 55.840000 92.279999 C 55.589264 92.180046 55.361355 92.030373 55.170002 91.839996 L 55.029999 92.349998 Z M 56.090000 87.699997 C 55.812935 87.697105 55.542522 87.784897 55.320000 87.949997 L 55.320000 91.059998 C 55.548672 91.221687 55.820049 91.312141 56.099998 91.320000 C 56.400665 91.339958 56.682697 91.173119 56.809998 90.900002 C 56.971817 90.462486 57.036648 89.995041 56.999996 89.529999 C 57.032280 89.050362 56.960651 88.569412 56.789997 88.119995 C 56.661972 87.852318 56.386433 87.686996 56.089996 87.699997 Z" fill="#232F3E"/><path d=" M 63.070000 92.349998 L 62.930000 91.860001 C 62.749531 92.042419 62.535641 92.188408 62.299999 92.290001 C 62.072376 92.387421 61.827591 92.438423 61.579998 92.440002 C 60.981472 92.464928 60.411789 92.181969 60.070000 91.690002 C 59.678978 91.051193 59.493946 90.307564 59.540001 89.560005 C 59.492668 88.790710 59.684807 88.025650 60.090000 87.370003 C 60.427570 86.858131 61.007206 86.558846 61.619999 86.580002 C 61.835636 86.589058 62.048389 86.632957 62.250000 86.709999 C 62.468536 86.789223 62.674107 86.900436 62.860001 87.040001 L 62.860001 84.209999 L 64.510002 84.209999 L 64.510002 92.349998 Z M 62.139999 91.349998 C 62.396091 91.346977 62.645954 91.270630 62.860001 91.129997 L 62.860001 88.000000 C 62.626198 87.841095 62.352482 87.751007 62.070000 87.739998 C 61.772881 87.727325 61.500187 87.903778 61.389999 88.180000 C 61.227901 88.624512 61.159798 89.097824 61.189999 89.570000 C 61.156960 90.035194 61.235825 90.501541 61.419998 90.930000 C 61.561596 91.191101 61.843945 91.344040 62.139999 91.320000 Z" fill="#232F3E"/><path d=" M 68.839996 92.349998 L 68.690002 91.839996 C 68.539307 92.046989 68.335442 92.209389 68.100006 92.309998 C 67.856262 92.426201 67.590027 92.487640 67.320007 92.489998 C 66.874756 92.502617 66.445351 92.324303 66.140007 92.000000 C 65.833977 91.669823 65.675171 91.229507 65.700005 90.779999 C 65.676865 90.286880 65.870491 89.808296 66.230003 89.470001 C 66.633865 89.137909 67.147987 88.970108 67.670006 89.000000 C 67.984032 89.006668 68.296188 89.050301 68.600006 89.129997 L 68.599998 88.620003 C 68.625198 88.348686 68.565811 88.076225 68.430000 87.840004 C 68.265480 87.687714 68.042755 87.614693 67.820000 87.640007 C 67.215546 87.665237 66.618568 87.783279 66.050003 87.990005 L 66.050003 87.000000 C 66.348221 86.848946 66.669113 86.747612 67.000000 86.699997 C 67.381401 86.619514 67.770203 86.579300 68.160004 86.579994 C 68.700554 86.533653 69.238960 86.690544 69.670006 87.019997 C 70.019241 87.394203 70.190475 87.900635 70.140007 88.409996 L 70.139999 92.349998 Z M 67.839996 91.430000 C 68.140930 91.416977 68.426193 91.292175 68.639999 91.080002 L 68.639999 90.000000 C 68.434059 89.948677 68.222183 89.925140 68.010002 89.930000 C 67.809456 89.914780 67.612251 89.987816 67.470001 90.129997 C 67.338242 90.297188 67.274010 90.507729 67.290001 90.719994 C 67.279709 90.905304 67.332596 91.088631 67.440002 91.239990 C 67.524925 91.354698 67.657379 91.424606 67.800003 91.429993 Z" fill="#232F3E"/></g><g id="ICONS_-_EDIT"><path d=" M 63.000000 65.000000 L 50.680000 65.000000 C 50.295341 64.998909 49.945404 64.777283 49.779999 64.430000 L 32.360001 28.000000 L 25.000000 28.000000 C 24.734198 28.001537 24.478720 27.897186 24.290001 27.709999 C 24.102814 27.521280 23.998465 27.265802 24.000000 27.000000 L 24.000000 16.000000 C 24.000000 15.447715 24.447716 15.000000 25.000000 15.000000 L 40.389999 15.000000 C 40.774658 15.001089 41.124596 15.222716 41.290001 15.570000 L 58.630001 52.000000 L 63.000000 52.000000 C 63.552284 52.000000 64.000000 52.447716 64.000000 53.000000 L 64.000000 64.000000 C 64.000000 64.552284 63.552284 65.000000 63.000000 65.000000 Z M 51.310001 63.000000 L 62.000000 63.000000 L 62.000000 54.000000 L 58.000000 54.000000 C 57.615341 53.998913 57.265404 53.777283 57.099998 53.430000 L 39.759998 17.000000 L 26.000000 17.000000 L 26.000000 26.000000 L 33.000000 26.000000 C 33.384659 26.001089 33.734596 26.222715 33.900002 26.570000 Z" fill="#FFFFFF"/><path d=" M 30.000000 65.000000 L 17.000000 65.000000 C 16.654499 65.000694 16.333115 64.822983 16.150000 64.529999 C 15.971367 64.220596 15.971367 63.839401 16.150000 63.529999 L 29.680000 35.119999 C 29.845404 34.772717 30.195341 34.551086 30.580000 34.549999 C 30.962395 34.549232 31.311747 34.766609 31.480000 35.110001 L 38.000000 48.540001 C 38.124493 48.816639 38.124493 49.133362 38.000000 49.410000 L 30.889999 64.410004 C 30.731949 64.761856 30.385626 64.991440 30.000000 65.000000 Z M 18.590000 63.000000 L 29.350000 63.000000 L 36.000000 49.000000 L 30.590000 37.849998 Z" fill="#FFFFFF"/></g></svg>