<svg version="1.1" width="80.000000" height="115.000000" viewBox="0.000000 0.000000 80.000000 115.000000" xmlns="http://www.w3.org/2000/svg" xmlns:xlink="http://www.w3.org/1999/xlink" overflow="hidden"><g id="CARDS"><rect x="1.000000" y="1.000000" width="78.000000" height="78.000000" fill="#232F3E"/><path d=" M 0.000000 0.000000 L 0.000000 80.000000 L 0.000000 80.000000 L 0.000000 115.000000 L 80.000000 115.000000 L 80.000000 80.000000 L 80.000000 80.000000 L 80.000000 0.000000 Z M 1.000000 1.000000 L 79.000000 1.000000 L 79.000000 79.000000 L 1.000000 79.000000 Z" fill="#FFFFFF"/></g><g id="TEXT_-_EDIT"><path d=" M 25.350000 92.349998 L 24.920000 90.529999 L 22.920000 90.529999 L 22.500000 92.349998 L 20.719999 92.349998 L 23.000000 84.720001 L 24.900000 84.720001 L 27.209999 92.349998 Z M 23.170000 89.430000 L 24.660000 89.430000 L 23.900000 86.269997 Z" fill="#232F3E"/><path d=" M 34.060001 92.349998 L 34.060001 88.639999 C 34.076664 88.401566 34.028278 88.163086 33.920002 87.949997 C 33.819908 87.796371 33.642418 87.711487 33.460003 87.729996 C 33.174831 87.743271 32.898491 87.833084 32.660004 87.989998 C 32.664822 88.029854 32.664822 88.070145 32.660004 88.110001 L 32.660000 92.349998 L 31.000000 92.349998 L 31.000000 88.639999 C 31.019257 88.402504 30.974358 88.164200 30.870001 87.949997 C 30.765142 87.796478 30.585056 87.712181 30.400002 87.729996 C 30.121338 87.744865 29.851856 87.834694 29.620001 87.989998 L 29.620001 92.349998 L 28.000000 92.349998 L 28.000000 86.720001 L 29.350000 86.720001 L 29.480000 87.230003 C 30.005705 86.838974 30.635632 86.612755 31.289999 86.580002 C 31.787903 86.543671 32.259682 86.807076 32.489998 87.250000 C 33.020988 86.851845 33.657448 86.618820 34.320000 86.580002 C 34.698605 86.567619 35.063778 86.720993 35.320000 87.000000 C 35.580429 87.351334 35.707973 87.783562 35.680000 88.220001 L 35.680000 92.349998 Z" fill="#232F3E"/><path d=" M 40.000000 92.349998 L 39.860001 91.839996 C 39.704742 92.042564 39.502155 92.203949 39.270000 92.309998 C 39.023094 92.427322 38.753361 92.488777 38.480000 92.489998 C 38.038441 92.498497 37.613724 92.320625 37.310001 92.000000 C 37.006588 91.668808 36.851307 91.228241 36.880001 90.779999 C 36.856857 90.286880 37.050484 89.808296 37.410000 89.470001 C 37.807274 89.133095 38.320316 88.964470 38.840000 89.000000 C 39.154030 89.006668 39.466179 89.050301 39.770000 89.129997 L 39.770000 88.620003 C 39.797573 88.349762 39.741737 88.077560 39.610001 87.840004 C 39.445477 87.687714 39.222755 87.614693 39.000000 87.640007 C 38.395546 87.665237 37.798565 87.783279 37.230000 87.990005 L 37.230000 87.000000 C 37.516563 86.840446 37.827354 86.728966 38.149998 86.669998 C 38.528015 86.589485 38.913502 86.549255 39.299999 86.549995 C 39.843796 86.502090 40.385880 86.659012 40.820000 86.989998 C 41.164772 87.366852 41.335323 87.871239 41.290001 88.379997 L 41.290001 92.320000 Z M 39.000000 91.430000 C 39.298344 91.418404 39.580971 91.293190 39.790001 91.080002 L 39.790001 90.000000 C 39.587475 89.948616 39.378887 89.925064 39.170002 89.930000 C 38.969070 89.911972 38.770714 89.985435 38.630001 90.129997 C 38.490948 90.293694 38.422604 90.505920 38.440002 90.719994 C 38.429714 90.905304 38.482594 91.088631 38.590004 91.239990 C 38.687565 91.366325 38.840549 91.437218 39.000004 91.429993 Z" fill="#232F3E"/><path d=" M 42.279999 92.349998 L 42.279999 91.279999 L 44.770000 87.879997 L 42.369999 87.879997 L 42.369999 86.720001 L 46.509998 86.720001 L 46.509998 87.790001 L 44.000000 91.190002 L 46.540001 91.190002 L 46.540001 92.349998 Z" fill="#232F3E"/><path d=" M 49.790001 92.489998 C 49.108715 92.511253 48.453094 92.229225 48.000000 91.720001 C 47.133984 90.392052 47.133984 88.677956 48.000000 87.349998 C 49.011749 86.331032 50.657967 86.325180 51.676933 87.336929 C 51.681305 87.341270 51.685661 87.345627 51.690002 87.349998 C 52.556019 88.677948 52.556019 90.392044 51.690002 91.720001 C 51.211487 92.259041 50.508781 92.543823 49.790001 92.489998 Z M 49.790001 91.339996 C 50.076321 91.350388 50.337559 91.177567 50.440002 90.909996 C 50.706799 90.016144 50.706799 89.063843 50.440002 88.169998 C 50.304638 87.813774 49.906124 87.634735 49.549900 87.770103 C 49.365585 87.840141 49.220043 87.985687 49.150002 88.169998 C 48.883205 89.063850 48.883205 90.016151 49.150002 90.909996 C 49.248730 91.175995 49.506416 91.349129 49.790001 91.339996 Z" fill="#232F3E"/><path d=" M 56.549999 92.349998 L 56.549999 88.650002 C 56.566494 88.408363 56.518166 88.166710 56.410000 87.950005 C 56.294102 87.793236 56.103878 87.709541 55.910000 87.730003 C 55.621128 87.739960 55.340698 87.829971 55.099998 87.990005 L 55.099998 92.349998 L 53.439999 92.349998 L 53.439999 86.720001 L 54.790001 86.720001 L 54.930000 87.230003 C 55.464371 86.833908 56.105400 86.607452 56.770000 86.580002 C 57.171432 86.553581 57.563728 86.707565 57.840000 87.000000 C 58.102020 87.350540 58.229740 87.783371 58.200001 88.220001 L 58.200001 92.349998 Z" fill="#232F3E"/><path d=" M 20.000000 106.349998 L 20.000000 98.720001 L 21.690001 98.720001 L 21.690001 105.120003 L 24.530001 105.120003 L 24.530001 106.349998 Z" fill="#232F3E"/><path d=" M 26.200001 99.809998 C 25.944538 99.824768 25.692354 99.746628 25.490002 99.589996 C 25.310806 99.439140 25.211187 99.214073 25.220001 98.979996 C 25.209644 98.745628 25.309551 98.519913 25.490002 98.369995 C 25.910442 98.064751 26.479561 98.064751 26.900002 98.369995 C 27.074266 98.523682 27.169811 98.747849 27.160002 98.979996 C 27.166996 99.211624 27.071939 99.434639 26.900002 99.589996 C 26.702974 99.749374 26.452782 99.828011 26.200001 99.809998 Z M 25.370001 106.349998 L 25.370001 100.720001 L 27.000000 100.720001 L 27.000000 106.349998 Z" fill="#232F3E"/><path d=" M 31.379999 105.709999 C 30.724321 106.397354 29.635580 106.423027 28.948229 105.767349 C 28.863222 105.686256 28.786747 105.596672 28.719999 105.499992 C 28.346981 104.901863 28.165554 104.204063 28.199999 103.499992 C 28.157820 102.757774 28.346455 102.020699 28.740000 101.389992 C 29.058336 100.895462 29.612103 100.603409 30.199999 100.619995 C 30.442596 100.627502 30.680979 100.685402 30.900000 100.789993 C 31.142384 100.893715 31.360388 101.046997 31.539999 101.239990 L 31.660000 100.760002 L 33.000000 100.760002 L 33.000000 106.000000 C 33.000000 107.860001 32.139999 108.790001 30.430000 108.790001 C 29.793320 108.794128 29.165216 108.643105 28.600000 108.349998 L 28.600000 107.349998 C 29.115829 107.547577 29.658697 107.665596 30.210001 107.699997 C 30.450512 107.715515 30.691097 107.670830 30.910002 107.570000 C 31.081478 107.476830 31.207787 107.318039 31.260002 107.129997 C 31.349331 106.804581 31.386459 106.467049 31.370003 106.129997 Z M 30.719999 105.110001 C 30.956285 105.100060 31.185005 105.023819 31.379999 104.889999 L 31.379999 102.000000 C 31.169334 101.838676 30.914938 101.744583 30.650000 101.730003 C 30.378086 101.726189 30.133453 101.894623 30.039999 102.150002 C 29.888273 102.565742 29.823603 103.008224 29.849998 103.450005 C 29.825819 103.886879 29.897493 104.323753 30.059998 104.730003 C 30.185816 104.975739 30.444313 105.124565 30.719997 105.110001 Z" fill="#232F3E"/><path d=" M 37.540001 106.349998 L 37.540001 102.650002 C 37.559315 102.407036 37.507175 102.163719 37.389999 101.950005 C 37.278671 101.793205 37.091148 101.709015 36.899998 101.730003 C 36.607967 101.739677 36.324249 101.829636 36.079998 101.990005 L 36.080002 106.349998 L 34.430000 106.349998 L 34.430000 98.209999 L 36.080002 98.209999 L 36.080002 101.120003 C 36.575226 100.787392 37.153793 100.600311 37.750000 100.580002 C 38.151432 100.553581 38.543728 100.707565 38.820000 101.000000 C 39.085579 101.349174 39.216885 101.782127 39.189999 102.220001 L 39.189999 106.349998 Z" fill="#232F3E"/><path d=" M 43.619999 106.199997 C 43.226688 106.347153 42.809933 106.421692 42.389999 106.419998 C 41.592197 106.570419 40.823509 106.045616 40.673084 105.247818 C 40.640217 105.073509 40.639172 104.894684 40.669998 104.720001 L 40.669998 101.820000 L 39.930000 101.820000 L 39.930000 100.900002 L 40.720001 100.750000 L 41.000000 99.209999 L 42.360001 99.209999 L 42.360001 100.720001 L 43.599998 100.720001 L 43.599998 101.820000 L 42.320000 101.820000 L 42.320000 104.589996 C 42.304325 104.774376 42.353870 104.958412 42.459999 105.109993 C 42.607174 105.233894 42.798851 105.291756 42.989998 105.269997 C 43.202316 105.266800 43.413620 105.239967 43.619999 105.189995 Z" fill="#232F3E"/><path d=" M 46.500000 104.769997 C 46.500000 104.519997 46.330002 104.309998 45.980000 104.150002 L 45.259998 103.800003 C 44.582703 103.565338 44.128899 102.926796 44.129997 102.210007 C 44.111603 101.750854 44.316536 101.311180 44.679996 101.030006 C 45.102356 100.712837 45.622467 100.553619 46.149998 100.580009 C 46.679646 100.581734 47.202274 100.701294 47.679996 100.930008 L 47.680000 101.930000 C 47.451050 101.851501 47.217220 101.788033 46.980000 101.739998 C 46.782864 101.696541 46.581844 101.673088 46.380001 101.669998 C 45.860001 101.669998 45.610001 101.849998 45.610001 102.209999 C 45.610001 102.570000 45.820000 102.660004 46.250000 102.870003 L 46.970001 103.209999 C 47.276878 103.345100 47.542538 103.559013 47.740002 103.830002 C 47.908264 104.110268 47.991631 104.433311 47.980003 104.760002 C 48.004761 105.245941 47.801365 105.715607 47.430004 106.029999 C 47.001671 106.351402 46.474976 106.514008 45.940002 106.489998 C 45.309460 106.496185 44.687340 106.344955 44.130001 106.049995 L 44.130001 105.050003 C 44.645828 105.247581 45.188698 105.365601 45.740002 105.400002 C 45.944176 105.412933 46.146271 105.352661 46.310001 105.230003 C 46.441734 105.114784 46.512028 104.944603 46.500000 104.770004 Z" fill="#232F3E"/><path d=" M 51.810001 106.349998 L 51.669998 105.839996 C 51.514740 106.042564 51.312153 106.203949 51.079998 106.309998 C 50.833092 106.427322 50.563358 106.488777 50.289997 106.489998 C 49.851013 106.511780 49.423000 106.348557 49.109997 106.040001 C 48.806583 105.708809 48.651302 105.268242 48.679996 104.820000 C 48.656853 104.326881 48.850479 103.848297 49.209995 103.510002 C 49.607269 103.173096 50.120312 103.004471 50.639996 103.040001 C 50.954025 103.046669 51.266174 103.090302 51.569996 103.169998 L 51.570000 102.660004 C 51.597572 102.389763 51.541737 102.117561 51.410000 101.880005 C 51.245476 101.727715 51.022755 101.654694 50.799999 101.680008 C 50.187016 101.692505 49.579727 101.800461 49.000000 102.000008 L 49.000000 101.000000 C 49.283470 100.841469 49.590801 100.730019 49.910000 100.669998 C 50.291481 100.590019 50.680225 100.549805 51.070000 100.549995 C 51.613796 100.502090 52.155880 100.659012 52.590000 100.989998 C 52.934772 101.366852 53.105324 101.871239 53.060001 102.379997 L 53.060001 106.320000 Z M 50.810001 105.430000 C 51.108345 105.418404 51.390972 105.293190 51.600002 105.080002 L 51.599998 104.000000 C 51.394169 103.948074 51.182205 103.924522 50.969997 103.930000 C 50.772247 103.913605 50.577618 103.987053 50.439999 104.129997 C 50.300945 104.293694 50.232601 104.505920 50.250000 104.719994 C 50.239712 104.905304 50.292591 105.088631 50.400002 105.239990 C 50.491196 105.357796 50.631039 105.427719 50.780003 105.429993 Z" fill="#232F3E"/><path d=" M 55.349998 99.809998 C 55.094757 99.822983 54.843182 99.745026 54.639999 99.589996 C 54.468063 99.434639 54.373005 99.211624 54.380001 98.979996 C 54.370193 98.747849 54.465736 98.523689 54.639999 98.369995 C 54.838116 98.204575 55.092518 98.122162 55.349998 98.139992 C 55.604099 98.124771 55.854443 98.207024 56.049999 98.369995 C 56.230450 98.519913 56.330357 98.745628 56.320000 98.979996 C 56.328815 99.214073 56.229195 99.439140 56.049999 99.589996 C 55.852970 99.749374 55.602779 99.828011 55.349998 99.809998 Z M 54.520000 106.349998 L 54.520000 100.720001 L 56.169998 100.720001 L 56.169998 106.349998 Z" fill="#232F3E"/><path d=" M 60.000000 106.250000 C 59.679741 106.365929 59.340443 106.420219 59.000000 106.410004 C 58.625008 106.413826 58.264378 106.265968 58.000000 106.000000 C 57.736511 105.689018 57.607056 105.286263 57.639999 104.879997 L 57.639999 98.209999 L 59.290001 98.209999 L 59.290001 104.750000 C 59.279198 104.888161 59.306889 105.026619 59.370003 105.150002 C 59.449673 105.241310 59.569939 105.286407 59.690002 105.270004 C 59.806492 105.279053 59.923512 105.279053 60.040001 105.270004 Z" fill="#232F3E"/></g><g id="ICONS_OUTLINED_FOR_LOCKUPS_-_EDIT"><g id="LS-Icon_2px-White"><rect x="30.500000" y="44.500000" width="8.000000" height="8.000000" fill="none"/><rect x="33.000000" y="27.000000" width="7.000000" height="7.000000" fill="none"/><rect x="51.000000" y="42.000000" width="7.000000" height="7.000000" fill="none"/><rect x="17.000000" y="15.000000" width="50.000000" height="50.000000" id="Bounds" fill="none"/><path d=" M 45.000000 53.889999 C 44.897224 53.905190 44.792774 53.905190 44.689999 53.889999 C 44.298939 53.763344 44.025215 53.410286 44.000000 53.000000 C 43.349998 46.840000 41.000000 42.439999 37.439999 40.930000 C 36.931896 40.713551 36.695465 40.126183 36.911919 39.618080 C 37.013145 39.380463 37.202381 39.191223 37.439999 39.090000 C 40.919998 37.570000 43.310001 33.169998 44.000000 27.000000 C 44.044441 26.608521 44.314606 26.279623 44.689999 26.160000 C 45.064598 26.038427 45.475674 26.148046 45.739998 26.440001 C 47.980000 28.910000 51.740002 33.959999 51.740002 40.000000 C 51.740002 46.419998 47.160000 52.000000 45.740002 53.560001 C 45.550941 53.769482 45.282181 53.889336 45.000000 53.890003 Z M 39.840000 40.000000 C 42.689999 42.000000 44.720001 45.660000 45.619999 50.480000 C 47.279999 48.230000 49.680000 44.250000 49.680000 40.000000 C 49.680000 35.750000 47.540001 32.000000 45.680000 29.480000 C 44.730000 34.320000 42.700001 38.000000 39.840000 40.000000 Z" fill="#FFFFFF"/><path d=" M 36.500000 29.090000 L 36.150002 30.150000 L 35.090000 30.500000 L 36.150002 30.850000 L 36.500000 31.910000 L 36.849998 30.850000 L 37.900002 30.500000 L 36.849998 30.150000 L 36.500000 29.090000 L 36.500000 29.090000 Z" fill="#EC1C24"/><path d=" M 36.500000 33.490002 L 35.750000 31.250000 L 33.509998 30.500000 L 35.750000 29.750000 L 36.500000 27.510000 L 37.240002 29.750000 L 39.480000 30.500000 L 37.240002 31.250000 L 36.500000 33.490002 Z" fill="#FFFFFF"/><path d=" M 54.500000 44.090000 L 54.150002 45.150002 L 53.090000 45.500000 L 54.150002 45.849998 L 54.500000 46.910000 L 54.849998 45.849998 L 55.900002 45.500000 L 54.849998 45.150002 L 54.500000 44.090000 L 54.500000 44.090000 Z" fill="#EC1C24"/><path d=" M 54.500000 48.490002 L 53.750000 46.250000 L 51.509998 45.500000 L 53.750000 44.750000 L 54.500000 42.509998 L 55.240002 44.750000 L 57.480000 45.500000 L 55.240002 46.250000 L 54.500000 48.490002 Z" fill="#FFFFFF"/><path d=" M 35.450001 47.580002 L 34.980000 48.990002 L 33.580002 49.459999 L 34.980000 49.919998 L 35.450001 51.330002 L 35.919998 49.919998 L 37.330002 49.459999 L 35.919998 48.990002 L 35.450001 47.580002 L 35.450001 47.580002 Z" fill="#EC1C24"/><path d=" M 35.450001 52.910000 L 34.590000 50.320000 L 32.000000 49.459999 L 34.590000 48.590000 L 35.450001 46.000000 L 36.320000 48.590000 L 38.910000 49.459999 L 36.320000 50.320000 Z M 35.160000 49.459999 L 35.380001 49.529999 L 35.450001 49.750000 L 35.529999 49.529999 L 35.750000 49.459999 L 35.529999 49.380001 L 35.450001 49.160000 L 35.380001 49.380001 Z" fill="#FFFFFF"/><path d=" M 42.060001 59.080002 C 32.819309 59.091434 24.910368 52.452816 23.320002 43.350002 C 23.226112 42.797718 23.597717 42.273891 24.150002 42.180004 C 24.702286 42.086117 25.226112 42.457718 25.320002 43.010006 C 26.976856 52.251499 35.811710 58.400063 45.053204 56.743206 C 54.294697 55.086353 60.443260 46.251495 58.786404 37.010006 C 57.129551 27.768515 48.294693 21.619951 39.053204 23.276806 C 32.053734 24.531700 26.574898 30.010538 25.320004 37.010006 C 25.220592 37.562290 24.692287 37.929417 24.140003 37.830006 C 23.587719 37.730595 23.220592 37.202290 23.320004 36.650005 C 25.214380 26.329008 35.116898 19.497881 45.437897 21.392258 C 55.758896 23.286634 62.590019 33.189152 60.695644 43.510151 C 59.043652 52.510590 51.210762 59.054878 42.060005 59.080009 Z" fill="#FFFFFF"/><path d=" M 20.000000 41.000000 L 18.000000 41.000000 C 17.447716 41.000000 17.000000 40.552284 17.000000 40.000000 C 17.000000 39.447716 17.447716 39.000000 18.000000 39.000000 L 20.000000 39.000000 C 20.552284 39.000000 21.000000 39.447716 21.000000 40.000000 C 21.000000 40.552284 20.552284 41.000000 20.000000 41.000000 Z" fill="#FFFFFF"/><path d=" M 25.000000 41.000000 L 23.000000 41.000000 C 22.447716 41.000000 22.000000 40.552284 22.000000 40.000000 C 22.000000 39.447716 22.447716 39.000000 23.000000 39.000000 L 25.000000 39.000000 C 25.552284 39.000000 26.000000 39.447716 26.000000 40.000000 C 26.000000 40.552284 25.552284 41.000000 25.000000 41.000000 Z" fill="#FFFFFF"/><path d=" M 30.000000 41.000000 L 28.000000 41.000000 C 27.447716 41.000000 27.000000 40.552284 27.000000 40.000000 C 27.000000 39.447716 27.447716 39.000000 28.000000 39.000000 L 30.000000 39.000000 C 30.552284 39.000000 31.000000 39.447716 31.000000 40.000000 C 31.000000 40.552284 30.552284 41.000000 30.000000 41.000000 Z" fill="#FFFFFF"/><path d=" M 35.000000 41.000000 L 33.000000 41.000000 C 32.447716 41.000000 32.000000 40.552284 32.000000 40.000000 C 32.000000 39.447716 32.447716 39.000000 33.000000 39.000000 L 35.000000 39.000000 C 35.552284 39.000000 36.000000 39.447716 36.000000 40.000000 C 36.000000 40.552284 35.552284 41.000000 35.000000 41.000000 Z" fill="#FFFFFF"/></g></g></svg>