<svg version="1.1" width="80.000000" height="115.000000" viewBox="0.000000 0.000000 80.000000 115.000000" xmlns="http://www.w3.org/2000/svg" xmlns:xlink="http://www.w3.org/1999/xlink" overflow="hidden"><g id="CARDS"><rect x="1.000000" y="1.000000" width="78.000000" height="78.000000" fill="#232F3E"/><path d=" M 0.000000 0.000000 L 0.000000 80.000000 L 0.000000 80.000000 L 0.000000 115.000000 L 80.000000 115.000000 L 80.000000 80.000000 L 80.000000 80.000000 L 80.000000 0.000000 Z M 1.000000 1.000000 L 79.000000 1.000000 L 79.000000 79.000000 L 1.000000 79.000000 Z" fill="#FFFFFF"/></g><g id="TEXT_-_EDIT"><path d=" M 8.710000 87.000000 L 8.710000 92.370003 L 7.310000 92.370003 L 7.310000 84.720001 L 9.190000 84.720001 L 11.710000 90.070000 L 11.710000 84.720001 L 13.110000 84.720001 L 13.110000 92.349998 L 11.250000 92.349998 Z" fill="#232F3E"/><path d=" M 15.860000 89.919998 C 15.848947 90.311180 15.976449 90.693687 16.219999 91.000000 C 16.515564 91.246262 16.896879 91.364975 17.279999 91.330002 C 17.509199 91.323997 17.737127 91.293831 17.959999 91.240005 C 18.231525 91.190041 18.498938 91.119843 18.759998 91.030006 L 18.760000 92.029999 C 18.501759 92.177193 18.221508 92.281868 17.930000 92.339996 C 17.601477 92.411812 17.266279 92.448685 16.930000 92.449997 C 15.210000 92.449997 14.350000 91.449997 14.350000 89.500000 C 14.295513 88.713959 14.522365 87.934151 14.990001 87.300003 C 15.444652 86.776291 16.117926 86.495148 16.810001 86.540001 C 18.180000 86.540001 18.860001 87.300003 18.860001 88.830002 C 18.859127 89.166870 18.818853 89.502487 18.740000 89.830002 Z M 16.770000 87.599998 C 16.190001 87.599998 15.890000 88.059998 15.860000 88.970001 L 17.469999 88.970001 L 17.469999 88.720001 C 17.490442 88.423340 17.431778 88.126572 17.299999 87.860001 C 17.182508 87.684830 16.980440 87.585701 16.769999 87.599998 Z" fill="#232F3E"/><path d=" M 23.000000 92.199997 C 22.606689 92.347153 22.189934 92.421692 21.770000 92.419998 C 21.308434 92.448334 20.853666 92.297935 20.500000 92.000000 C 20.195263 91.638779 20.047634 91.170692 20.090000 90.699997 L 20.090000 87.800003 L 19.350000 87.800003 L 19.350000 86.900002 L 20.129999 86.750000 L 20.370001 85.209999 L 21.740000 85.209999 L 21.740000 86.720001 L 23.000000 86.720001 L 23.000000 87.820000 L 21.740000 87.820000 L 21.740000 90.589996 C 21.719702 90.774757 21.769682 90.960396 21.879999 91.109993 C 22.026587 91.234970 22.218744 91.292976 22.410000 91.269997 C 22.622238 91.265694 22.833422 91.238876 23.039999 91.189995 Z" fill="#232F3E"/><path d=" M 28.309999 92.349998 L 27.520000 88.349998 L 26.750000 92.349998 L 25.190001 92.349998 L 23.639999 86.720001 L 25.350000 86.720001 L 26.059999 90.720001 L 26.830000 86.720001 L 28.299999 86.720001 L 29.120001 91.000000 L 29.770000 86.769997 L 31.430000 86.769997 L 29.870001 92.400002 Z" fill="#232F3E"/><path d=" M 34.450001 92.489998 C 33.748314 92.528084 33.067448 92.244698 32.600002 91.720001 C 31.733988 90.392052 31.733988 88.677956 32.600002 87.349998 C 33.611752 86.331032 35.257969 86.325180 36.276936 87.336929 C 36.281307 87.341270 36.285664 87.345627 36.290005 87.349998 C 37.156021 88.677948 37.156021 90.392044 36.290005 91.720001 C 35.826542 92.244324 35.148773 92.527962 34.450005 92.489998 Z M 34.450001 91.339996 C 34.733585 91.349129 34.991272 91.175995 35.090000 90.909996 C 35.356796 90.016144 35.356796 89.063843 35.090000 88.169998 C 34.954636 87.813774 34.556122 87.634735 34.199898 87.770103 C 34.015583 87.840141 33.870041 87.985687 33.799999 88.169998 C 33.533203 89.063850 33.533203 90.016151 33.799999 90.909996 C 33.902439 91.177567 34.163681 91.350380 34.450001 91.339996 Z" fill="#232F3E"/><path d=" M 38.099998 92.349998 L 38.099998 86.720001 L 39.450001 86.720001 L 39.630001 87.449997 C 39.829731 87.212708 40.070156 87.012917 40.340000 86.860001 C 40.573048 86.733055 40.834629 86.667656 41.099998 86.669998 L 41.480000 86.669998 L 41.480000 88.000000 C 41.266899 87.985909 41.053101 87.985909 40.840000 88.000000 C 40.461372 88.000565 40.088116 88.089600 39.750000 88.260002 L 39.750000 92.370003 Z" fill="#232F3E"/><path d=" M 42.230000 92.349998 L 42.230000 84.209999 L 43.849998 84.209999 L 43.849998 89.209999 L 45.490002 86.769997 L 47.320000 86.769997 L 45.320000 89.459999 L 47.490002 92.400002 L 45.610001 92.400002 L 43.849998 89.800003 L 43.849998 92.400002 Z" fill="#232F3E"/><path d=" M 50.880001 92.349998 L 50.880001 84.720001 L 52.560001 84.720001 L 52.560001 91.120003 L 55.410000 91.120003 L 55.410000 92.349998 Z" fill="#232F3E"/><path d=" M 58.410000 92.489998 C 57.708313 92.528084 57.027447 92.244698 56.560001 91.720001 C 55.693985 90.392052 55.693985 88.677956 56.560001 87.349998 C 57.571751 86.331032 59.217968 86.325180 60.236935 87.336929 C 60.241306 87.341270 60.245663 87.345627 60.250004 87.349998 C 61.116020 88.677948 61.116020 90.392044 60.250004 91.720001 C 59.786541 92.244324 59.108772 92.527962 58.410004 92.489998 Z M 58.410000 91.339996 C 58.693584 91.349129 58.951271 91.175995 59.049999 90.909996 C 59.316795 90.016144 59.316795 89.063843 59.049999 88.169998 C 58.954674 87.900047 58.696182 87.722336 58.410000 87.729996 C 58.121109 87.721107 57.859081 87.898483 57.759998 88.169998 C 57.493202 89.063850 57.493202 90.016151 57.759998 90.909996 C 57.862438 91.177567 58.123680 91.350380 58.410000 91.339996 Z" fill="#232F3E"/><path d=" M 65.000000 92.349998 L 64.860001 91.839996 C 64.704742 92.042564 64.502151 92.203949 64.270004 92.309998 C 64.023094 92.427322 63.753365 92.488777 63.480003 92.489998 C 63.021236 92.513000 62.575409 92.333939 62.260002 92.000000 C 61.956589 91.668808 61.801308 91.228241 61.830002 90.779999 C 61.806858 90.286880 62.000484 89.808296 62.360001 89.470001 C 62.757275 89.133095 63.270317 88.964470 63.790001 89.000000 C 64.104027 89.006668 64.416183 89.050301 64.720001 89.129997 L 64.720001 88.620003 C 64.747574 88.349762 64.691734 88.077560 64.559998 87.840004 C 64.395477 87.687714 64.172752 87.614693 63.949997 87.640007 C 63.345543 87.665237 62.748562 87.783279 62.179996 87.990005 L 62.180000 87.000000 C 62.463470 86.841469 62.770802 86.730019 63.090000 86.669998 C 63.471481 86.590019 63.860226 86.549805 64.250000 86.549995 C 64.793800 86.502090 65.335884 86.659012 65.769997 86.989998 C 66.114769 87.366852 66.285316 87.871239 66.239998 88.379997 L 66.239998 92.320000 Z M 64.000000 91.430000 C 64.298347 91.418404 64.580971 91.293190 64.790001 91.080002 L 64.790001 90.000000 C 64.584167 89.948074 64.372208 89.924522 64.160004 89.930000 C 63.962254 89.913605 63.767624 89.987053 63.630005 90.129997 C 63.490952 90.293694 63.422607 90.505920 63.440006 90.719994 C 63.429718 90.905304 63.482597 91.088631 63.590008 91.239990 C 63.672222 91.347580 63.795292 91.416351 63.930008 91.429993 Z" fill="#232F3E"/><path d=" M 70.889999 92.349998 L 70.760002 91.860001 C 70.574745 92.041252 70.357826 92.186996 70.120003 92.290001 C 69.896149 92.388222 69.654457 92.439285 69.410004 92.440002 C 68.811073 92.466835 68.240517 92.183449 67.900002 91.690002 C 67.505486 91.052330 67.316933 90.308617 67.360001 89.560005 C 67.312668 88.790710 67.504807 88.025650 67.910004 87.370003 C 68.247574 86.858131 68.827209 86.558846 69.440002 86.580002 C 69.658852 86.589363 69.874847 86.633240 70.080002 86.709999 C 70.295471 86.789169 70.497757 86.900421 70.680000 87.040001 L 70.680000 84.209999 L 72.330002 84.209999 L 72.330002 92.349998 Z M 69.959999 91.349998 C 70.216095 91.346977 70.465958 91.270630 70.680000 91.129997 L 70.680000 88.000000 C 70.446930 87.839607 70.172775 87.749374 69.889999 87.739998 C 69.593704 87.730316 69.322578 87.905746 69.209999 88.180000 C 69.052734 88.625710 68.984772 89.098030 69.010002 89.570000 C 68.981812 90.034950 69.060493 90.500175 69.240005 90.930000 C 69.387321 91.205666 69.690155 91.361061 70.000008 91.320000 Z" fill="#232F3E"/><path d=" M 20.000000 106.349998 L 20.000000 98.720001 L 22.510000 98.720001 C 23.107332 98.695900 23.692158 98.895592 24.150000 99.279999 C 24.573221 99.649055 24.808197 100.188759 24.789999 100.750000 C 24.804203 101.100403 24.717428 101.447510 24.539999 101.750000 C 24.361506 102.024216 24.103233 102.237114 23.799999 102.360001 C 24.197876 102.473038 24.548613 102.711540 24.799999 103.040001 C 25.034269 103.387947 25.153212 103.800743 25.139999 104.220001 C 25.163864 104.820930 24.904778 105.398331 24.439999 105.779999 C 23.911655 106.194946 23.250921 106.404533 22.579998 106.369995 Z M 21.590000 99.820000 L 21.590000 101.930000 L 22.260000 101.930000 C 22.509180 101.942482 22.751015 101.843552 22.920000 101.660004 C 23.091993 101.441597 23.177441 101.167458 23.160000 100.890007 C 23.176765 100.610947 23.103125 100.333908 22.950001 100.100006 C 22.813633 99.917992 22.597340 99.813576 22.370001 99.820007 Z M 21.590000 102.980003 L 21.590000 105.250000 L 22.590000 105.250000 C 22.858072 105.264053 23.118425 105.157715 23.299999 104.959999 C 23.476032 104.716812 23.560984 104.419479 23.539999 104.120003 C 23.560963 103.815750 23.464312 103.515060 23.269999 103.280006 C 23.066250 103.070953 22.781324 102.961365 22.489998 102.980003 Z" fill="#232F3E"/><path d=" M 29.129999 106.349998 L 28.980000 105.839996 C 28.829302 106.046989 28.625443 106.209389 28.389999 106.309998 C 28.146252 106.426201 27.880020 106.487640 27.609999 106.489998 C 27.170818 106.513031 26.742317 106.349617 26.429998 106.040001 C 26.123968 105.709824 25.965166 105.269508 25.989998 104.820000 C 25.966856 104.326881 26.160480 103.848297 26.519999 103.510002 C 26.928099 103.153763 27.459076 102.970795 27.999998 103.000000 C 28.314028 103.006668 28.626177 103.050301 28.929998 103.129997 L 28.930000 102.620003 C 28.955198 102.348686 28.895815 102.076225 28.760000 101.840004 C 28.595478 101.687714 28.372753 101.614693 28.150000 101.640007 C 27.545546 101.665237 26.948566 101.783279 26.379999 101.990005 L 26.379999 100.989998 C 26.667076 100.831573 26.977678 100.720161 27.299999 100.659996 C 27.681402 100.579514 28.070198 100.539299 28.459999 100.539993 C 29.000547 100.493652 29.538952 100.650543 29.969999 100.979996 C 30.319231 101.354202 30.490473 101.860634 30.439999 102.369995 L 30.440001 106.309998 Z M 28.129999 105.430000 C 28.430935 105.416977 28.716192 105.292175 28.929998 105.080002 L 28.930000 104.000000 C 28.724060 103.948677 28.512182 103.925140 28.300001 103.930000 C 28.099455 103.914780 27.902250 103.987816 27.760000 104.129997 C 27.628239 104.297188 27.564005 104.507729 27.580000 104.719994 C 27.569710 104.905304 27.622593 105.088631 27.730000 105.239990 C 27.814926 105.354698 27.947376 105.424606 28.090000 105.429993 Z" fill="#232F3E"/><path d=" M 34.200001 106.250000 C 33.879742 106.365929 33.540443 106.420219 33.200001 106.410004 C 32.806992 106.444092 32.418003 106.309586 32.130001 106.040001 C 31.866512 105.729019 31.737055 105.326263 31.770000 104.919998 L 31.770000 98.209999 L 33.419998 98.209999 L 33.419998 104.750000 C 33.409195 104.888161 33.436886 105.026619 33.500000 105.150002 C 33.579670 105.241310 33.699936 105.286407 33.820000 105.270004 C 33.936489 105.279053 34.053509 105.279053 34.169998 105.270004 Z" fill="#232F3E"/><path d=" M 38.110001 106.349998 L 37.970001 105.839996 C 37.816902 106.044678 37.613724 106.206528 37.380001 106.309998 C 37.136253 106.426201 36.870022 106.487640 36.600002 106.489998 C 36.160423 106.515594 35.730915 106.351791 35.420002 106.040001 C 35.113972 105.709824 34.955170 105.269508 34.980003 104.820000 C 34.956860 104.326881 35.150486 103.848297 35.510002 103.510002 C 35.907276 103.173096 36.420319 103.004471 36.940002 103.040001 C 37.254032 103.046669 37.566181 103.090302 37.870003 103.169998 L 37.869999 102.660004 C 37.897572 102.389763 37.841736 102.117561 37.709999 101.880005 C 37.545475 101.727715 37.322754 101.654694 37.099998 101.680008 C 36.495544 101.705238 35.898563 101.823280 35.329998 102.030006 L 35.330002 101.029999 C 35.616566 100.870445 35.927357 100.758965 36.250000 100.699997 C 36.628017 100.619484 37.013504 100.579254 37.400002 100.579994 C 37.943798 100.532089 38.485882 100.689011 38.920002 101.019997 C 39.264774 101.396851 39.435326 101.901237 39.390003 102.409996 L 39.389999 106.349998 Z M 37.110001 105.430000 C 37.408344 105.418404 37.690971 105.293190 37.900002 105.080002 L 37.900002 104.000000 C 37.697590 103.947983 37.488914 103.924423 37.280003 103.930000 C 37.079071 103.911972 36.880714 103.985435 36.740002 104.129997 C 36.604664 104.295738 36.536816 104.506424 36.550003 104.719994 C 36.539715 104.905304 36.592594 105.088631 36.700005 105.239990 C 36.791199 105.357796 36.931042 105.427719 37.080006 105.429993 Z" fill="#232F3E"/><path d=" M 43.900002 106.349998 L 43.900002 102.650002 C 43.919315 102.407036 43.867176 102.163719 43.750000 101.950005 C 43.638672 101.793205 43.451149 101.709015 43.259998 101.730003 C 42.967968 101.739677 42.684250 101.829636 42.439999 101.990005 L 42.439999 106.349998 L 40.790001 106.349998 L 40.790001 100.720001 L 42.139999 100.720001 L 42.270000 101.230003 C 42.805241 100.835541 43.445751 100.609268 44.110001 100.580002 C 44.511654 100.552147 44.904541 100.706367 45.180000 101.000000 C 45.445580 101.349174 45.576885 101.782127 45.549999 102.220001 L 45.549999 106.349998 Z" fill="#232F3E"/><path d=" M 50.580002 106.089996 C 50.383366 106.213127 50.166801 106.301109 49.940002 106.349998 C 49.677776 106.411209 49.409271 106.441414 49.140003 106.439995 C 48.444569 106.489639 47.764153 106.221146 47.290005 105.709991 C 46.836227 105.085075 46.616749 104.320442 46.670006 103.549988 C 46.619228 102.771988 46.857857 102.002678 47.340004 101.389984 C 47.816406 100.867004 48.503834 100.587616 49.210003 100.629982 C 49.679955 100.630127 50.142979 100.743309 50.560001 100.959984 L 50.560001 101.959999 C 50.239464 101.841820 49.901546 101.777618 49.560001 101.769997 C 49.201946 101.735214 48.851013 101.886154 48.630001 102.169998 C 48.412071 102.563194 48.314690 103.011833 48.350002 103.459999 L 48.349998 103.620003 C 48.313049 104.065079 48.410595 104.511002 48.629997 104.900002 C 48.838989 105.182068 49.180584 105.333885 49.529999 105.300003 C 49.899380 105.292480 50.264713 105.221443 50.610001 105.090004 Z" fill="#232F3E"/><path d=" M 52.849998 103.919998 C 52.829250 104.324760 52.957298 104.723129 53.209999 105.040001 C 53.505566 105.286263 53.886879 105.404976 54.270000 105.370003 C 54.499203 105.363998 54.727131 105.333832 54.950001 105.280006 C 55.221527 105.230042 55.488941 105.159843 55.750000 105.070007 L 55.750000 106.070000 C 55.491760 106.217194 55.211506 106.321869 54.919998 106.379997 C 54.591473 106.451813 54.256275 106.488686 53.919998 106.489998 C 52.200001 106.489998 51.340000 105.489998 51.340000 103.540001 C 51.285515 102.753960 51.512363 101.974152 51.980000 101.340004 C 52.434650 100.816292 53.107925 100.535149 53.799999 100.580002 C 55.169998 100.580002 55.799999 101.339996 55.799999 102.870003 C 55.799126 103.206871 55.758854 103.542488 55.680000 103.870003 Z M 53.759998 101.599998 C 53.189999 101.599998 52.880001 102.059998 52.849998 102.970001 L 54.459999 102.970001 L 54.459999 102.720001 C 54.485039 102.423065 54.426132 102.125076 54.290001 101.860001 C 54.172512 101.684830 53.970444 101.585701 53.760002 101.599998 Z" fill="#232F3E"/><path d=" M 57.000000 106.349998 L 57.000000 100.720001 L 58.349998 100.720001 L 58.529999 101.449997 C 58.730946 101.209991 58.975178 101.009857 59.250000 100.860001 C 59.479919 100.734291 59.737957 100.668915 60.000000 100.669998 C 60.129810 100.660080 60.260189 100.660080 60.389999 100.669998 L 60.389999 102.000000 C 60.176884 101.986336 59.963116 101.986336 59.750000 102.000000 C 59.368164 102.000481 58.991642 102.089478 58.650002 102.260002 L 58.650002 106.370003 Z" fill="#232F3E"/></g><g id="ICONS_-_EDIT"><path d=" M 40.000000 65.000000 C 26.192881 65.000000 15.000000 53.807117 15.000000 40.000000 C 15.000000 26.192881 26.192881 15.000000 40.000000 15.000000 C 53.807117 15.000000 65.000000 26.192881 65.000000 40.000000 C 65.000000 53.807117 53.807117 65.000000 40.000000 65.000000 Z M 40.000000 17.000000 C 27.297451 17.000000 17.000000 27.297451 17.000000 40.000000 C 17.000000 52.702549 27.297451 63.000000 40.000000 63.000000 C 52.702549 63.000000 63.000000 52.702549 63.000000 40.000000 C 63.000000 27.297451 52.702549 17.000000 40.000000 17.000000 Z" fill="#FFFFFF"/><path d=" M 30.900000 46.000000 L 21.000000 46.000000 C 20.447716 46.000000 20.000000 45.552284 20.000000 45.000000 L 20.000000 35.000000 C 20.000000 34.447716 20.447716 34.000000 21.000000 34.000000 L 30.900000 34.000000 C 31.452284 34.000000 31.900000 34.447716 31.900000 35.000000 L 31.900000 45.000000 C 31.900000 45.552284 31.452284 46.000000 30.900000 46.000000 Z M 22.000000 44.000000 L 29.900000 44.000000 L 29.900000 36.000000 L 22.000000 36.000000 Z" fill="#FFFFFF"/><path d=" M 54.000000 33.000000 L 48.000000 33.000000 C 47.447716 33.000000 47.000000 32.552284 47.000000 32.000000 L 47.000000 26.000000 C 47.000000 25.447716 47.447716 25.000000 48.000000 25.000000 L 54.000000 25.000000 C 54.552284 25.000000 55.000000 25.447716 55.000000 26.000000 L 55.000000 32.000000 C 55.000000 32.552284 54.552284 33.000000 54.000000 33.000000 Z M 49.000000 31.000000 L 53.000000 31.000000 L 53.000000 27.000000 L 49.000000 27.000000 Z" fill="#FFFFFF"/><path d=" M 54.000000 44.000000 L 48.000000 44.000000 C 47.447716 44.000000 47.000000 43.552284 47.000000 43.000000 L 47.000000 37.000000 C 47.000000 36.447716 47.447716 36.000000 48.000000 36.000000 L 54.000000 36.000000 C 54.552284 36.000000 55.000000 36.447716 55.000000 37.000000 L 55.000000 43.000000 C 55.000000 43.552284 54.552284 44.000000 54.000000 44.000000 Z M 49.000000 42.000000 L 53.000000 42.000000 L 53.000000 38.000000 L 49.000000 38.000000 Z" fill="#FFFFFF"/><path d=" M 54.000000 55.000000 L 48.000000 55.000000 C 47.447716 55.000000 47.000000 54.552284 47.000000 54.000000 L 47.000000 48.000000 C 47.000000 47.447716 47.447716 47.000000 48.000000 47.000000 L 54.000000 47.000000 C 54.552284 47.000000 55.000000 47.447716 55.000000 48.000000 L 55.000000 54.000000 C 55.000000 54.552284 54.552284 55.000000 54.000000 55.000000 Z M 49.000000 53.000000 L 53.000000 53.000000 L 53.000000 49.000000 L 49.000000 49.000000 Z" fill="#FFFFFF"/><rect x="34.000000" y="39.000000" width="10.160000" height="2.000000" fill="#FFFFFF"/><path d=" M 42.340000 44.070000 L 40.930000 42.660000 L 43.590000 40.000000 L 40.930000 37.340000 L 42.340000 35.930000 L 45.709999 39.290001 C 46.102119 39.678921 46.104717 40.312080 45.715797 40.704201 C 45.713871 40.706142 45.711941 40.708073 45.709999 40.709999 Z" fill="#FFFFFF"/><rect x="32.580000" y="31.120000" width="12.330000" height="2.000000" fill="#FFFFFF" transform="matrix(0.884418,-0.466695,0.466695,0.884418,-10.510000,21.790000)"/><path d=" M 43.919998 34.099998 L 42.000000 33.580002 L 43.000000 30.000000 L 39.369999 29.000000 L 39.869999 27.000000 L 44.459999 28.240000 C 44.992672 28.385862 45.306248 28.935926 45.160381 29.468601 C 45.160255 29.469067 45.160126 29.469534 45.159996 29.469999 Z" fill="#FFFFFF"/><rect x="37.750000" y="41.710000" width="2.000000" height="12.330000" fill="#FFFFFF" transform="matrix(0.466850,-0.884337,0.884337,0.466850,-21.680000,59.790000)"/><path d=" M 39.869999 53.000000 L 39.340000 51.000000 L 42.970001 50.000000 L 41.970001 46.369999 L 43.900002 45.849998 L 45.139999 50.439999 C 45.286636 50.972462 44.973862 51.522980 44.441399 51.669613 C 44.440933 51.669743 44.440468 51.669868 44.439999 51.669998 Z" fill="#FFFFFF"/></g></svg>