<svg version="1.1" viewBox="0.000000 0.000000 80.000000 130.000000" xmlns="http://www.w3.org/2000/svg" xmlns:xlink="http://www.w3.org/1999/xlink" overflow="hidden"><defs></defs><g id="CARDS"><rect x="1.000000" y="1.000000" width="78.000000" height="78.000000" fill="#232F3E"/><path d=" M 0.000000 0.000000 L 0.000000 80.000000 L 0.000000 80.000000 L 0.000000 130.000000 L 80.000000 130.000000 L 80.000000 80.000000 L 80.000000 80.000000 L 80.000000 0.000000 Z M 1.000000 1.000000 L 79.000000 1.000000 L 79.000000 79.000000 L 1.000000 79.000000 Z" fill="#FFFFFF"/></g><g id="TEXT_-_EDIT"><path d=" M 8.560000 92.349998 L 8.130000 90.529999 L 6.130000 90.529999 L 5.710000 92.349998 L 3.940000 92.349998 L 6.250000 84.720001 L 8.120000 84.720001 L 10.420000 92.349998 Z M 6.380000 89.430000 L 7.880000 89.430000 L 7.120000 86.269997 Z" fill="#232F3E"/><path d=" M 15.770000 92.349998 L 14.830000 86.720001 L 13.940000 92.349998 L 12.070000 92.349998 L 10.290000 84.720001 L 12.000000 84.720001 L 13.000000 90.779999 L 14.000000 85.000000 L 15.830000 85.000000 L 16.770000 90.650002 L 17.770000 84.650002 L 19.440001 84.650002 L 17.650000 92.279999 Z" fill="#232F3E"/><path d=" M 21.719999 89.000000 C 21.222723 88.768532 20.784912 88.426491 20.439999 88.000000 C 20.181232 87.643089 20.047642 87.210678 20.059999 86.769997 C 20.049801 86.355682 20.164810 85.947922 20.389999 85.599998 C 20.622124 85.261627 20.944256 84.994911 21.320000 84.830002 C 21.741116 84.641739 22.198837 84.549515 22.660000 84.560005 C 23.309568 84.563965 23.951923 84.696510 24.549999 84.950005 L 24.549999 86.120003 C 23.998253 85.917831 23.417393 85.806381 22.830000 85.790001 C 22.537367 85.761826 22.244020 85.836044 22.000000 86.000000 C 21.807280 86.155251 21.699665 86.392738 21.709999 86.639999 C 21.700495 86.843941 21.768354 87.043945 21.900000 87.199997 C 22.103886 87.408470 22.349142 87.571976 22.619999 87.680000 L 23.270000 88.000000 C 23.626574 88.166588 23.962231 88.374695 24.270000 88.620003 C 24.505289 88.800804 24.691044 89.038162 24.810001 89.310005 C 24.937578 89.599503 24.999067 89.913780 24.990002 90.230003 C 25.020264 90.866478 24.745428 91.479286 24.250002 91.880005 C 23.659494 92.317749 22.933764 92.533691 22.200003 92.490005 C 21.820204 92.489128 21.441515 92.448914 21.070004 92.370003 C 20.740891 92.304649 20.421585 92.197090 20.120003 92.050003 L 20.120001 90.919998 C 20.447163 91.026321 20.781296 91.109856 21.120001 91.169998 C 21.449120 91.238113 21.783945 91.274940 22.120001 91.279999 C 22.437479 91.295662 22.749949 91.196243 23.000000 91.000000 C 23.208820 90.824944 23.323559 90.562157 23.309999 90.290001 C 23.312349 90.075859 23.233780 89.868713 23.090000 89.709999 C 22.886230 89.513252 22.649240 89.354134 22.389999 89.239998 Z" fill="#232F3E"/><path d=" M 30.120001 89.000000 C 29.622725 88.768532 29.184914 88.426491 28.840000 88.000000 C 28.577677 87.644348 28.440536 87.211830 28.450001 86.769997 C 28.443392 86.354721 28.561857 85.947060 28.790001 85.599998 C 29.018213 85.261978 29.337067 84.995110 29.710001 84.830002 C 30.134985 84.642815 30.595713 84.550667 31.060001 84.560005 C 31.729881 84.573044 32.390041 84.722771 33.000000 85.000008 L 33.000000 86.169998 C 32.444805 85.967781 31.860649 85.856354 31.270000 85.839996 C 30.988348 85.826103 30.710176 85.907089 30.480000 86.070000 C 30.287279 86.225250 30.179665 86.462738 30.189999 86.709999 C 30.180494 86.913940 30.248354 87.113945 30.379999 87.269997 C 30.581879 87.476234 30.823387 87.639511 31.089998 87.750000 L 31.740000 88.070000 C 32.096050 88.237549 32.431599 88.445595 32.739998 88.690002 C 32.968784 88.877266 33.153210 89.112915 33.279999 89.380005 C 33.407578 89.669502 33.469067 89.983780 33.459999 90.300003 C 33.487862 90.938217 33.209167 91.551346 32.709999 91.950005 C 32.134476 92.379578 31.427296 92.595268 30.709999 92.560005 C 30.330172 92.559639 29.951431 92.519417 29.580000 92.440002 C 29.250469 92.376213 28.930964 92.268593 28.629999 92.120003 L 28.629999 90.919998 C 28.957016 91.026825 29.291185 91.110367 29.629999 91.169998 C 29.959297 91.236969 30.294016 91.273788 30.629999 91.279999 C 30.943754 91.304230 31.255844 91.215561 31.509998 91.029999 C 31.716394 90.853905 31.827591 90.590736 31.809998 90.320000 C 31.816086 90.107033 31.741020 89.899704 31.599998 89.739998 C 31.396229 89.543251 31.159239 89.384132 30.899998 89.269997 Z" fill="#232F3E"/><path d=" M 35.750000 89.919998 C 35.745972 90.311752 35.876591 90.693016 36.119999 91.000000 C 36.414471 91.248260 36.796642 91.367241 37.180000 91.330002 C 37.409203 91.323997 37.637131 91.293831 37.860001 91.240005 C 38.131252 91.188805 38.398575 91.118637 38.660000 91.030006 L 38.660000 92.029999 C 38.400978 92.175522 38.120998 92.280098 37.829998 92.339996 C 37.501472 92.411812 37.166275 92.448685 36.829998 92.449997 C 35.110001 92.449997 34.250000 91.449997 34.250000 89.500000 C 34.196960 88.715630 34.419819 87.937401 34.880001 87.300003 C 35.338692 86.775963 36.015026 86.495087 36.710003 86.540001 C 38.070000 86.540001 38.759998 87.300003 38.759998 88.830002 C 38.759125 89.166870 38.718853 89.502487 38.639999 89.830002 Z M 36.669998 87.599998 C 36.090000 87.599998 35.790001 88.059998 35.750000 88.970001 L 37.369999 88.970001 L 37.369999 88.720001 C 37.390442 88.423340 37.331779 88.126572 37.200001 87.860001 C 37.082512 87.684830 36.880444 87.585701 36.670002 87.599998 Z" fill="#232F3E"/><path d=" M 39.900002 92.349998 L 39.900002 86.720001 L 41.250000 86.720001 L 41.430000 87.449997 C 41.630947 87.209991 41.875179 87.009857 42.150002 86.860001 C 42.378910 86.731735 42.637634 86.666191 42.900002 86.669998 C 43.029812 86.660080 43.160191 86.660080 43.290001 86.669998 L 43.290001 88.000000 C 43.076885 87.986336 42.863117 87.986336 42.650002 88.000000 C 42.268166 88.000481 41.891644 88.089478 41.550003 88.260002 L 41.549999 92.370003 Z" fill="#232F3E"/><path d=" M 45.709999 92.349998 L 43.849998 86.720001 L 45.599998 86.720001 L 46.490002 90.720001 L 47.400002 86.720001 L 49.099998 86.720001 L 47.259998 92.349998 Z" fill="#232F3E"/><path d=" M 51.080002 89.919998 C 51.068947 90.311180 51.196449 90.693687 51.440002 91.000000 C 51.735569 91.246262 52.116882 91.364975 52.500004 91.330002 C 52.729206 91.323997 52.957134 91.293831 53.180004 91.240005 C 53.451530 91.190041 53.718945 91.119843 53.980003 91.030006 L 53.980000 92.029999 C 53.721760 92.177193 53.441505 92.281868 53.149998 92.339996 C 52.821472 92.411812 52.486275 92.448685 52.149998 92.449997 C 50.430000 92.449997 49.570000 91.449997 49.570000 89.500000 C 49.515514 88.713959 49.742363 87.934151 50.209999 87.300003 C 50.665733 86.799721 51.324780 86.534630 52.000000 86.580002 C 53.369999 86.580002 54.049999 87.339996 54.049999 88.870003 C 54.049126 89.206871 54.008854 89.542488 53.930000 89.870003 Z M 52.000000 87.599998 C 51.430000 87.599998 51.119999 88.059998 51.090000 88.970001 L 52.700001 88.970001 L 52.700001 88.720001 C 52.725040 88.423065 52.666134 88.125076 52.530003 87.860001 C 52.412514 87.684830 52.210445 87.585701 52.000004 87.599998 Z" fill="#232F3E"/><path d=" M 55.220001 92.349998 L 55.220001 86.720001 L 56.570000 86.720001 L 56.750000 87.449997 C 56.950947 87.209991 57.195179 87.009857 57.470001 86.860001 C 57.699921 86.734291 57.957958 86.668915 58.220001 86.669998 C 58.349812 86.660080 58.480190 86.660080 58.610001 86.669998 L 58.610001 88.000000 C 58.406857 87.987587 58.203144 87.987587 58.000000 88.000000 C 57.618164 88.000481 57.241642 88.089478 56.900002 88.260002 L 56.900002 92.370003 Z" fill="#232F3E"/><path d=" M 61.750000 92.250000 C 61.429802 92.366165 61.090458 92.420456 60.750000 92.410004 C 60.362061 92.420113 59.986671 92.272125 59.709999 92.000000 C 59.446510 91.689018 59.317055 91.286263 59.349998 90.879997 L 59.349998 84.209999 L 61.000000 84.209999 L 61.000000 90.750000 C 60.989197 90.888161 61.016888 91.026619 61.080002 91.150002 C 61.160698 91.239822 61.280144 91.284615 61.400002 91.270004 C 61.516472 91.279564 61.633530 91.279564 61.750000 91.270004 Z" fill="#232F3E"/><path d=" M 63.860001 89.919998 C 63.848946 90.311180 63.976448 90.693687 64.220001 91.000000 C 64.515564 91.246262 64.896881 91.364975 65.279999 91.330002 C 65.509247 91.324608 65.737244 91.294434 65.959999 91.240005 C 66.231529 91.190041 66.498940 91.119843 66.760002 91.030006 L 66.760002 92.029999 C 66.501762 92.177193 66.221512 92.281868 65.930000 92.339996 C 65.601479 92.411812 65.266281 92.448685 64.930000 92.449997 C 63.220001 92.449997 62.360001 91.449997 62.360001 89.500000 C 62.306961 88.715630 62.529819 87.937401 62.990002 87.300003 C 63.444653 86.776291 64.117928 86.495148 64.810005 86.540001 C 66.180000 86.540001 66.860001 87.300003 66.860001 88.830002 C 66.859131 89.166870 66.818855 89.502487 66.739998 89.830002 Z M 64.779999 87.599998 C 64.199997 87.599998 63.889999 88.059998 63.860001 88.970001 L 65.470001 88.970001 L 65.470001 88.720001 C 65.492599 88.424286 65.437439 88.127800 65.309998 87.860001 C 65.191132 87.686409 64.990028 87.587753 64.779999 87.599998 Z" fill="#232F3E"/><path d=" M 70.000000 90.769997 C 70.000000 90.519997 69.830002 90.309998 69.489998 90.150002 L 68.760002 89.800003 C 68.086487 89.560318 67.634880 88.924881 67.630005 88.210007 C 67.605713 87.739006 67.815224 87.286316 68.190002 87.000008 C 68.611176 86.680511 69.132156 86.521027 69.660004 86.550011 C 70.189651 86.551735 70.712280 86.671295 71.190002 86.900009 L 71.190002 87.900002 C 70.961052 87.821503 70.727226 87.758034 70.490005 87.709999 C 70.289520 87.666336 70.085167 87.642891 69.880005 87.639999 C 69.370003 87.639999 69.110001 87.820000 69.110001 88.180000 C 69.110001 88.540001 69.330002 88.629997 69.750000 88.839996 L 70.470001 89.180000 C 70.779785 89.314835 71.048752 89.528625 71.250000 89.800003 C 71.418259 90.080269 71.501625 90.403313 71.489998 90.730003 C 71.510757 91.217346 71.303818 91.686646 70.930000 92.000000 C 70.505516 92.321449 69.981911 92.484184 69.449997 92.459999 C 68.816269 92.466171 68.190918 92.314987 67.629997 92.019997 L 67.629997 91.019997 C 68.148949 91.218719 68.695290 91.336754 69.250000 91.369995 C 69.450905 91.381401 69.649338 91.321159 69.809998 91.199997 C 69.933342 91.091476 70.002808 90.934265 70.000000 90.769997 Z" fill="#232F3E"/><path d=" M 74.410004 90.769997 C 74.410004 90.519997 74.239998 90.309998 73.900002 90.150002 L 73.169998 89.800003 C 72.480698 89.573921 72.010811 88.935349 72.000000 88.210007 C 71.986176 87.734291 72.206680 87.282074 72.589996 87.000008 C 73.012360 86.682838 73.532463 86.523621 74.059998 86.550011 C 74.589645 86.551735 75.112274 86.671295 75.589996 86.900009 L 75.589996 87.900002 C 75.364830 87.820267 75.134239 87.756775 74.899994 87.709999 C 74.699509 87.666336 74.495155 87.642891 74.289993 87.639999 C 73.779999 87.639999 73.519997 87.820000 73.519997 88.180000 C 73.519997 88.540001 73.739998 88.629997 74.160004 88.839996 L 74.879997 89.180000 C 75.188683 89.312111 75.455070 89.526604 75.649994 89.800003 C 75.826263 90.077232 75.913498 90.401756 75.899994 90.730003 C 75.920753 91.217346 75.713814 91.686646 75.339996 92.000000 C 74.915512 92.321449 74.391907 92.484184 73.859993 92.459999 C 73.215363 92.482132 72.575577 92.341110 71.999992 92.049995 L 72.000000 91.050003 C 72.518951 91.248726 73.065292 91.366760 73.620003 91.400002 C 73.820908 91.411407 74.019341 91.351166 74.180000 91.230003 C 74.326706 91.123024 74.412437 90.951553 74.410004 90.770004 Z" fill="#232F3E"/><path d=" M 17.270000 106.349998 L 16.840000 104.529999 L 14.840000 104.529999 L 14.420000 106.349998 L 12.650000 106.349998 L 15.000000 98.720001 L 16.870001 98.720001 L 19.170000 106.349998 Z M 15.090000 103.430000 L 16.590000 103.430000 L 15.830000 100.269997 Z" fill="#232F3E"/><path d=" M 19.910000 108.610001 L 19.910000 100.720001 L 21.260000 100.720001 L 21.379999 101.199997 C 21.589096 101.010376 21.829268 100.858154 22.089998 100.750000 C 22.339996 100.643204 22.608200 100.585487 22.879999 100.580002 C 23.476631 100.552834 24.045919 100.831825 24.389999 101.320000 C 24.777718 101.963524 24.959179 102.710312 24.910000 103.459999 C 24.955496 104.232277 24.763569 104.999985 24.360001 105.659996 C 24.026516 106.164848 23.454714 106.460220 22.850000 106.439995 C 22.615036 106.437447 22.382030 106.396919 22.160000 106.319992 C 21.941116 106.239212 21.738054 106.120766 21.559999 105.969994 L 21.559999 108.610001 Z M 22.330000 101.699997 C 22.052935 101.697105 21.782522 101.784897 21.559999 101.949997 L 21.559999 105.059998 C 21.788671 105.221687 22.060049 105.312141 22.340000 105.320000 C 22.640667 105.339958 22.922701 105.173119 23.049999 104.900002 C 23.218616 104.463989 23.290277 103.996498 23.259998 103.529999 C 23.292284 103.050362 23.220652 102.569412 23.049999 102.119995 C 22.919170 101.845284 22.633522 101.678658 22.330000 101.699997 Z" fill="#232F3E"/><path d=" M 26.059999 108.610001 L 26.059999 100.720001 L 27.410000 100.720001 L 27.530001 101.199997 C 27.737429 101.008194 27.978010 100.855713 28.240000 100.750000 C 28.486506 100.643257 28.751432 100.585518 29.020000 100.580002 C 29.617027 100.550934 30.187183 100.830345 30.530001 101.320000 C 30.921814 101.962158 31.106831 102.709206 31.060001 103.459999 C 31.100456 104.231796 30.908897 104.998039 30.510002 105.659996 C 30.175186 106.163361 29.604275 106.458267 29.000002 106.439995 C 28.764889 106.439087 28.531614 106.398521 28.310001 106.319992 C 28.091118 106.239212 27.888056 106.120766 27.710001 105.969994 L 27.709999 108.610001 Z M 28.480000 101.699997 C 28.202934 101.697105 27.932522 101.784897 27.709999 101.949997 L 27.709999 105.059998 C 27.937248 105.224480 28.209511 105.315231 28.490000 105.320000 C 28.787823 105.338585 29.066244 105.171532 29.190001 104.900002 C 29.358618 104.463989 29.430279 103.996498 29.400000 103.529999 C 29.432285 103.050362 29.360653 102.569412 29.190001 102.119995 C 29.062700 101.846878 28.780668 101.680038 28.480001 101.699997 Z" fill="#232F3E"/><path d=" M 34.599998 106.250000 C 34.279739 106.365929 33.940441 106.420219 33.599998 106.410004 C 33.206989 106.444092 32.818001 106.309586 32.529999 106.040001 C 32.266510 105.729019 32.137054 105.326263 32.169998 104.919998 L 32.169998 98.209999 L 33.820000 98.209999 L 33.820000 104.750000 C 33.809196 104.888161 33.836887 105.026619 33.900002 105.150002 C 33.979671 105.241310 34.099937 105.286407 34.220001 105.270004 C 34.336491 105.279053 34.453510 105.279053 34.570000 105.270004 Z" fill="#232F3E"/><path d=" M 36.480000 99.809998 C 36.223858 99.830612 35.969608 99.751831 35.770000 99.589996 C 35.596352 99.443558 35.497307 99.227127 35.500000 99.000000 C 35.489643 98.765633 35.589550 98.539917 35.770000 98.389999 C 36.190441 98.084755 36.759560 98.084755 37.180000 98.389999 C 37.354263 98.543686 37.449810 98.767853 37.439999 99.000000 C 37.446991 99.231628 37.351936 99.454643 37.180000 99.610001 C 36.980083 99.762253 36.730175 99.833656 36.480000 99.809998 Z M 35.650002 106.349998 L 35.650002 100.720001 L 37.299999 100.720001 L 37.299999 106.349998 Z" fill="#232F3E"/><path d=" M 42.389999 106.089996 C 42.193363 106.213127 41.976799 106.301109 41.750000 106.349998 C 41.487774 106.411209 41.219269 106.441414 40.950001 106.439995 C 40.254337 106.491119 39.573303 106.222382 39.100002 105.709991 C 38.646225 105.085075 38.426746 104.320442 38.480003 103.549988 C 38.429226 102.771988 38.667854 102.002678 39.150002 101.389984 C 39.626404 100.867004 40.313831 100.587616 41.020000 100.629982 C 41.489952 100.630127 41.952976 100.743309 42.369999 100.959984 L 42.369999 101.959999 C 42.049461 101.841820 41.711544 101.777618 41.369999 101.769997 C 41.011944 101.735214 40.661011 101.886154 40.439999 102.169998 C 40.222069 102.563194 40.124687 103.011833 40.160000 103.459999 L 40.160000 103.620003 C 40.125355 104.063736 40.219082 104.508072 40.430000 104.900002 C 40.640892 105.185333 40.987186 105.337547 41.340000 105.300003 C 41.709381 105.292480 42.074715 105.221443 42.420002 105.090004 Z" fill="#232F3E"/><path d=" M 46.340000 106.349998 L 46.200001 105.839996 C 46.046902 106.044678 45.843723 106.206528 45.610001 106.309998 C 45.366253 106.426201 45.100021 106.487640 44.830002 106.489998 C 44.390423 106.515594 43.960915 106.351791 43.650002 106.040001 C 43.343971 105.709824 43.185169 105.269508 43.210003 104.820000 C 43.186859 104.326881 43.380486 103.848297 43.740002 103.510002 C 44.137276 103.173096 44.650318 103.004471 45.170002 103.040001 C 45.484032 103.046669 45.796181 103.090302 46.100002 103.169998 L 46.099998 102.660004 C 46.127571 102.389763 46.071735 102.117561 45.939999 101.880005 C 45.775475 101.727715 45.552753 101.654694 45.329998 101.680008 C 44.725544 101.705238 44.128563 101.823280 43.559998 102.030006 L 43.560001 101.029999 C 43.846565 100.870445 44.157356 100.758965 44.480000 100.699997 C 44.858017 100.619484 45.243504 100.579254 45.630001 100.579994 C 46.173798 100.532089 46.715881 100.689011 47.150002 101.019997 C 47.494774 101.396851 47.665325 101.901237 47.620003 102.409996 L 47.619999 106.349998 Z M 45.340000 105.430000 C 45.638344 105.418404 45.920971 105.293190 46.130001 105.080002 L 46.130001 104.000000 C 45.927589 103.947983 45.718914 103.924423 45.510002 103.930000 C 45.309071 103.911972 45.110714 103.985435 44.970001 104.129997 C 44.834663 104.295738 44.766815 104.506424 44.780003 104.719994 C 44.769714 104.905304 44.822594 105.088631 44.930004 105.239990 C 45.021198 105.357796 45.161041 105.427719 45.310005 105.429993 Z" fill="#232F3E"/><path d=" M 52.049999 106.199997 C 51.659893 106.346176 51.246593 106.420708 50.829998 106.419998 C 50.354668 106.463928 49.880989 106.320389 49.509998 106.019997 C 49.209145 105.656647 49.062035 105.190201 49.099998 104.719994 L 49.099998 101.820000 L 48.369999 101.820000 L 48.369999 100.900002 L 49.150002 100.750000 L 49.389999 99.209999 L 50.750000 99.209999 L 50.750000 100.720001 L 52.000000 100.720001 L 52.000000 101.820000 L 50.750000 101.820000 L 50.750000 104.589996 C 50.731529 104.776146 50.785221 104.962288 50.900002 105.109993 C 51.045341 105.237236 51.238529 105.295555 51.430000 105.269997 C 51.638977 105.266144 51.846893 105.239319 52.049999 105.189995 Z" fill="#232F3E"/><path d=" M 53.799999 99.809998 C 53.544537 99.824768 53.292355 99.746628 53.090000 99.589996 C 52.913273 99.438095 52.817192 99.212677 52.830002 98.979996 C 52.815620 98.747040 52.911987 98.520950 53.090000 98.369995 C 53.510441 98.064751 54.079559 98.064751 54.500000 98.369995 C 54.678017 98.520950 54.774384 98.747040 54.759998 98.979996 C 54.772808 99.212677 54.676727 99.438095 54.500000 99.589996 C 54.302971 99.749374 54.052780 99.828011 53.799999 99.809998 Z M 53.000000 106.349998 L 53.000000 100.720001 L 54.650002 100.720001 L 54.650002 106.349998 Z" fill="#232F3E"/><path d=" M 58.310001 106.489998 C 57.608315 106.528084 56.927448 106.244698 56.460003 105.720001 C 55.593987 104.392052 55.593987 102.677956 56.460003 101.349998 C 57.471752 100.331032 59.117970 100.325180 60.136936 101.336929 C 60.141308 101.341270 60.145664 101.345627 60.150005 101.349998 C 61.016022 102.677948 61.016022 104.392044 60.150005 105.720001 C 59.686543 106.244324 59.008774 106.527962 58.310005 106.489998 Z M 58.310001 105.339996 C 58.593586 105.349129 58.851273 105.175995 58.950001 104.909996 C 59.216797 104.016144 59.216797 103.063843 58.950001 102.169998 C 58.814636 101.813774 58.416122 101.634735 58.059898 101.770103 C 57.875584 101.840141 57.730042 101.985687 57.660000 102.169998 C 57.393204 103.063850 57.393204 104.016151 57.660000 104.909996 C 57.762440 105.177567 58.023682 105.350380 58.310001 105.339996 Z" fill="#232F3E"/><path d=" M 65.070000 106.349998 L 65.070000 102.650002 C 65.089317 102.407036 65.037178 102.163719 64.919998 101.950005 C 64.807304 101.794876 64.620804 101.711143 64.430000 101.730003 C 64.137794 101.738640 63.853798 101.828682 63.610001 101.990005 L 63.610001 106.349998 L 62.000000 106.349998 L 62.000000 100.720001 L 63.349998 100.720001 L 63.480000 101.230003 C 64.015236 100.835541 64.655754 100.609268 65.320000 100.580002 C 65.721428 100.553581 66.113731 100.707565 66.389999 101.000000 C 66.655579 101.349174 66.786888 101.782127 66.760002 102.220001 L 66.760002 106.349998 Z" fill="#232F3E"/><path d=" M 19.000000 120.349998 L 17.540001 117.519997 L 16.889999 117.519997 L 16.889999 120.349998 L 15.240000 120.349998 L 15.240000 112.720001 L 17.879999 112.720001 C 18.530203 112.691185 19.164608 112.925476 19.639999 113.370003 C 20.096874 113.834206 20.336550 114.469711 20.299999 115.120003 C 20.312397 115.585030 20.198343 116.044708 19.969999 116.450005 C 19.757994 116.822403 19.431984 117.116867 19.039999 117.290001 L 20.730000 120.349998 Z M 16.889999 116.349998 L 17.670000 116.349998 C 17.945595 116.366768 18.212788 116.251724 18.389999 116.040001 C 18.567230 115.759865 18.651243 115.430817 18.629999 115.099998 C 18.652618 114.772209 18.568413 114.445908 18.389999 114.169998 C 18.216913 113.951820 17.947929 113.832275 17.670000 113.849998 L 16.889999 113.849998 Z" fill="#232F3E"/><path d=" M 22.770000 117.919998 C 22.749250 118.324760 22.877298 118.723129 23.130001 119.040001 C 23.424475 119.288261 23.806644 119.407242 24.190001 119.370003 C 24.419201 119.363998 24.647129 119.333832 24.870001 119.280006 C 25.141527 119.230042 25.408939 119.159843 25.670000 119.070007 L 25.670000 120.070000 C 25.411758 120.217194 25.131508 120.321869 24.840000 120.379997 C 24.511477 120.451813 24.176279 120.488686 23.840000 120.489998 C 22.120001 120.489998 21.260000 119.489998 21.260000 117.540001 C 21.205513 116.753960 21.432365 115.974152 21.900000 115.340004 C 22.354650 114.816292 23.027925 114.535149 23.719999 114.580002 C 25.090000 114.580002 25.770000 115.339996 25.770000 116.870003 C 25.769127 117.206871 25.728853 117.542488 25.650000 117.870003 Z M 23.680000 115.599998 C 23.100000 115.599998 22.799999 116.059998 22.770000 116.970001 L 24.379999 116.970001 L 24.379999 116.720001 C 24.400442 116.423340 24.341778 116.126572 24.209999 115.860001 C 24.092508 115.684830 23.890440 115.585701 23.679998 115.599998 Z" fill="#232F3E"/><path d=" M 26.910000 122.610001 L 26.910000 114.720001 L 28.260000 114.720001 L 28.379999 115.199997 C 28.589096 115.010376 28.829268 114.858154 29.089998 114.750000 C 29.339996 114.643204 29.608200 114.585487 29.879999 114.580002 C 30.476631 114.552834 31.045919 114.831825 31.389999 115.320000 C 31.777718 115.963524 31.959179 116.710312 31.910000 117.459999 C 31.955496 118.232277 31.763569 118.999985 31.360001 119.659996 C 31.026516 120.164848 30.454714 120.460220 29.850000 120.439995 C 29.615036 120.437447 29.382030 120.396919 29.160000 120.319992 C 28.941116 120.239212 28.738054 120.120766 28.559999 119.969994 L 28.559999 122.610001 Z M 29.330000 115.699997 C 29.052935 115.697105 28.782522 115.784897 28.559999 115.949997 L 28.559999 119.059998 C 28.788671 119.221687 29.060049 119.312141 29.340000 119.320000 C 29.640667 119.339958 29.922701 119.173119 30.049999 118.900002 C 30.218616 118.463989 30.290277 117.996498 30.259998 117.529999 C 30.292284 117.050362 30.220652 116.569412 30.049999 116.119995 C 29.919170 115.845284 29.633522 115.678658 29.330000 115.699997 Z" fill="#232F3E"/><path d=" M 35.279999 120.489998 C 34.581490 120.526466 33.904343 120.243095 33.439999 119.720001 C 32.573982 118.392052 32.573982 116.677956 33.439999 115.349998 C 34.451748 114.331032 36.097965 114.325180 37.116932 115.336929 C 37.121304 115.341270 37.125660 115.345627 37.130001 115.349998 C 37.996017 116.677948 37.996017 118.392044 37.130001 119.720001 C 36.662556 120.244698 35.981686 120.528084 35.280003 120.489998 Z M 35.279999 119.339996 C 35.566319 119.350388 35.827557 119.177567 35.930000 118.909996 C 36.196796 118.016144 36.196796 117.063843 35.930000 116.169998 C 35.794636 115.813774 35.396122 115.634735 35.039898 115.770103 C 34.855583 115.840141 34.710041 115.985687 34.639999 116.169998 C 34.373203 117.063850 34.373203 118.016151 34.639999 118.909996 C 34.738728 119.175995 34.996414 119.349129 35.279999 119.339996 Z" fill="#232F3E"/><path d=" M 40.930000 118.769997 C 40.930000 118.519997 40.759998 118.309998 40.419998 118.150002 L 39.689999 117.800003 C 39.016483 117.560318 38.564880 116.924881 38.559998 116.210007 C 38.545635 115.749420 38.754108 115.310135 39.119999 115.030006 C 39.538097 114.711998 40.055420 114.552551 40.579998 114.580009 C 41.112873 114.581589 41.638786 114.701111 42.119999 114.930008 L 42.119999 115.930000 C 41.891048 115.851501 41.657219 115.788033 41.419998 115.739998 C 41.219517 115.696335 41.015160 115.672890 40.809998 115.669998 C 40.299999 115.669998 40.040001 115.849998 40.040001 116.209999 C 40.040001 116.570000 40.259998 116.660004 40.680000 116.870003 L 41.400002 117.209999 C 41.708687 117.342110 41.975075 117.556602 42.170002 117.830002 C 42.346268 118.107231 42.433506 118.431755 42.420002 118.760002 C 42.440758 119.247345 42.233822 119.716644 41.860001 120.029999 C 41.435516 120.351448 40.911911 120.514183 40.380001 120.489998 C 39.746273 120.496170 39.120922 120.344986 38.560001 120.049995 L 38.560001 119.050003 C 39.078957 119.248726 39.625294 119.366760 40.180000 119.400002 C 40.380905 119.411407 40.579342 119.351166 40.740002 119.230003 C 40.871735 119.114784 40.942028 118.944603 40.930000 118.770004 Z" fill="#232F3E"/><path d=" M 44.209999 113.809998 C 43.954536 113.824768 43.702354 113.746628 43.500000 113.589996 C 43.323273 113.438095 43.227192 113.212677 43.240002 112.979996 C 43.225620 112.747040 43.321987 112.520950 43.500000 112.369995 C 43.920441 112.064751 44.489559 112.064751 44.910000 112.369995 C 45.088017 112.520950 45.184383 112.747040 45.169998 112.979996 C 45.182808 113.212677 45.086727 113.438095 44.910000 113.589996 C 44.712971 113.749374 44.462780 113.828011 44.209999 113.809998 Z M 43.380001 120.349998 L 43.380001 114.720001 L 45.000000 114.720001 L 45.000000 120.349998 Z" fill="#232F3E"/><path d=" M 49.520000 120.199997 C 49.126690 120.347153 48.709934 120.421692 48.290001 120.419998 C 47.492199 120.570419 46.723511 120.045616 46.573086 119.247818 C 46.540218 119.073509 46.539173 118.894684 46.570000 118.720001 L 46.570000 115.820000 L 45.840000 115.820000 L 45.840000 114.900002 L 46.619999 114.750000 L 46.860001 113.209999 L 48.220001 113.209999 L 48.220001 114.720001 L 49.500000 114.720001 L 49.500000 115.820000 L 48.220001 115.820000 L 48.220001 118.589996 C 48.201530 118.776146 48.255222 118.962288 48.370003 119.109993 C 48.515343 119.237236 48.708530 119.295555 48.900002 119.269997 C 49.108978 119.266144 49.316895 119.239319 49.520000 119.189995 Z" fill="#232F3E"/><path d=" M 52.630001 120.489998 C 51.931232 120.527954 51.253464 120.244324 50.790001 119.720001 C 49.923985 118.392052 49.923985 116.677956 50.790001 115.349998 C 51.801750 114.331032 53.447968 114.325180 54.466934 115.336929 C 54.471306 115.341270 54.475662 115.345627 54.480003 115.349998 C 55.346020 116.677948 55.346020 118.392044 54.480003 119.720001 C 54.012558 120.244698 53.331688 120.528084 52.630005 120.489998 Z M 52.630001 119.339996 C 52.916321 119.350388 53.177559 119.177567 53.280003 118.909996 C 53.546799 118.016144 53.546799 117.063843 53.280003 116.169998 C 53.180920 115.898483 52.918896 115.721115 52.630001 115.729996 C 52.342865 115.719078 52.082626 115.897987 51.990002 116.169998 C 51.723206 117.063850 51.723206 118.016151 51.990002 118.909996 C 52.086113 119.178047 52.345509 119.352325 52.630001 119.339996 Z" fill="#232F3E"/><path d=" M 56.279999 120.349998 L 56.279999 114.720001 L 57.630001 114.720001 L 57.810001 115.449997 C 58.010948 115.209991 58.255180 115.009857 58.530003 114.860001 C 58.759922 114.734291 59.017960 114.668915 59.280003 114.669998 C 59.409813 114.660080 59.540192 114.660080 59.670002 114.669998 L 59.669998 116.000000 C 59.456882 115.986336 59.243114 115.986336 59.029999 116.000000 C 58.648163 116.000481 58.271641 116.089478 57.930000 116.260002 L 57.930000 120.370003 Z" fill="#232F3E"/><path d=" M 62.220001 120.459999 L 60.220001 114.720001 L 62.000000 114.720001 L 62.930000 118.860001 L 63.830002 114.720001 L 65.529999 114.720001 L 63.529999 121.199997 C 63.420708 121.647972 63.188690 122.056602 62.860001 122.379997 C 62.546204 122.631195 62.151501 122.759209 61.750000 122.739998 C 61.390652 122.740013 61.033333 122.686081 60.689999 122.579994 L 60.689999 121.580002 C 60.883106 121.593239 61.076893 121.593239 61.270000 121.580002 C 61.519409 121.595459 61.765568 121.516968 61.959999 121.360001 C 62.136959 121.152000 62.242161 120.892509 62.259998 120.620003 Z" fill="#232F3E"/></g><g id="ICONS_-_EDIT"><path d=" M 55.360001 56.000000 L 25.600000 56.000000 C 20.730000 56.000000 15.320000 52.459999 15.000000 47.180000 C 15.000000 46.939999 15.000000 46.740002 15.000000 46.520000 C 15.000000 46.299999 15.000000 46.250000 15.000000 46.119999 C 14.995084 46.080151 14.995084 46.039848 15.000000 46.000000 C 14.995061 45.930088 14.995061 45.859913 15.000000 45.790001 C 15.149096 41.927120 17.782791 38.605667 21.510000 37.580002 C 21.510000 37.340000 21.510000 37.090000 21.510000 36.840000 C 21.670387 29.568178 27.695385 23.803223 34.967205 23.963610 C 38.418137 24.039724 41.701252 25.467619 44.110001 27.940001 C 45.359814 29.174173 46.376163 30.624165 47.110001 32.220001 C 48.168217 31.389511 49.474812 30.938717 50.820000 30.940001 C 53.630001 30.940001 56.570000 32.939999 57.119999 37.340000 C 61.900002 38.520000 64.639999 41.470001 64.959999 45.750000 C 64.983177 45.831455 64.996605 45.915379 65.000000 46.000000 C 65.004967 46.046535 65.004967 46.093464 65.000000 46.139999 C 65.000000 46.290001 65.000000 46.439999 65.000000 46.599998 C 65.000000 55.320000 57.619999 56.000000 55.360001 56.000000 Z M 17.000000 47.000000 L 17.000000 47.000000 C 17.230000 51.099998 21.700001 54.000000 25.580000 54.000000 L 55.360001 54.000000 C 57.610001 54.000000 62.779999 53.310001 62.990002 47.000000 L 48.810001 47.000000 C 48.933960 47.394882 48.998005 47.806122 49.000000 48.220001 C 49.111523 50.470562 47.377487 52.385406 45.126926 52.496929 C 42.876366 52.608452 40.961521 50.874416 40.849998 48.623856 C 40.843330 48.489319 40.843330 48.354534 40.849998 48.219997 C 40.834164 47.807915 40.884815 47.395973 41.000000 46.999996 L 31.200001 47.000000 C 30.647720 46.997810 30.201784 46.548321 30.203974 45.996040 C 30.205046 45.725815 30.315434 45.467525 30.510000 45.279999 C 30.925282 44.891754 31.160694 44.348495 31.160000 43.779999 C 31.239603 42.634007 30.375126 41.640469 29.229136 41.560863 C 28.083145 41.481258 27.089603 42.345737 27.010000 43.491730 C 27.003334 43.587704 27.003334 43.684025 27.010000 43.779999 C 27.009306 44.348495 27.244719 44.891754 27.660000 45.279999 C 28.057953 45.662949 28.070114 46.295998 27.687162 46.693951 C 27.506670 46.881512 27.260157 46.991306 27.000000 46.999996 Z M 38.000000 45.000000 L 42.799999 45.000000 C 43.352280 45.002190 43.798214 45.451679 43.796024 46.003960 C 43.794952 46.274185 43.684563 46.532475 43.489998 46.720001 C 43.074715 47.108246 42.839306 47.651505 42.839996 48.220001 C 42.760391 49.365993 43.624870 50.359531 44.770863 50.439137 C 45.916855 50.518742 46.910393 49.654263 46.989998 48.508270 C 46.996666 48.412296 46.996666 48.315975 46.989998 48.220001 C 46.990692 47.651505 46.755280 47.108246 46.339996 46.720001 C 45.942043 46.337051 45.929882 45.704002 46.312832 45.306049 C 46.493324 45.118488 46.739838 45.008694 46.999996 45.000004 L 62.860001 45.000000 C 62.299999 41.910000 60.000000 39.939999 56.000000 39.139999 C 55.555611 39.050144 55.227276 38.672562 55.200001 38.220001 C 54.970001 34.320000 52.689999 32.939999 50.820000 32.939999 C 49.534405 32.947071 48.326950 33.558205 47.560001 34.590000 C 47.223518 35.027946 46.595718 35.110199 46.157772 34.773716 C 46.009075 34.659470 45.895496 34.505711 45.830002 34.329998 C 45.175472 32.451714 44.109497 30.743423 42.710003 29.329998 C 41.377972 28.042299 39.765873 27.080515 38.000004 26.519999 L 38.000000 34.110001 C 38.394917 33.986187 38.806133 33.922146 39.220001 33.920002 C 41.473324 33.920002 43.300003 35.746681 43.299999 38.000004 C 43.299999 40.253326 41.473320 42.080002 39.220001 42.080002 C 38.806137 42.077858 38.394920 42.013817 38.000000 41.890003 Z M 33.000000 45.000000 L 36.000000 45.000000 L 36.000000 40.119999 C 35.996368 39.567726 36.441128 39.117077 36.993401 39.113445 C 37.272339 39.111610 37.539364 39.226364 37.730000 39.430000 C 38.112244 39.847843 38.653706 40.084053 39.220001 40.080002 C 40.368755 40.080002 41.300003 39.148754 41.299999 38.000000 C 41.299999 36.851250 40.368752 35.920002 39.220001 35.920002 C 38.653709 35.915947 38.112244 36.152157 37.730000 36.570004 C 37.352554 36.973183 36.719734 36.994045 36.316555 36.616600 C 36.112923 36.425964 35.998165 36.158939 36.000000 35.880001 L 36.000000 26.090000 C 33.993034 25.865978 31.962112 26.158567 30.100000 26.940001 C 26.216560 28.738346 23.670397 32.563385 23.510000 36.840000 C 23.506149 37.294613 23.532875 37.748974 23.590000 38.200001 C 23.649590 38.703453 23.323006 39.171844 22.830000 39.290001 C 19.922815 39.817612 17.647610 42.092815 17.120001 45.000000 L 25.190001 45.000000 C 25.066040 44.605118 25.001995 44.193878 25.000000 43.779999 C 24.888477 41.529438 26.622511 39.614594 28.873072 39.503071 C 31.123632 39.391548 33.038479 41.125584 33.150002 43.376144 C 33.156670 43.510681 33.156670 43.645466 33.150002 43.780003 C 33.165836 44.192085 33.115185 44.604027 33.000000 45.000004 Z" fill="#FFFFFF"/></g></svg>