<svg version="1.1" width="80.000000" height="115.000000" viewBox="0.000000 0.000000 80.000000 115.000000" xmlns="http://www.w3.org/2000/svg" xmlns:xlink="http://www.w3.org/1999/xlink" overflow="hidden"><g id="CARDS"><rect x="1.000000" y="1.000000" width="78.000000" height="78.000000" fill="#232F3E"/><path d=" M 0.000000 0.000000 L 0.000000 80.000000 L 0.000000 80.000000 L 0.000000 115.000000 L 80.000000 115.000000 L 80.000000 80.000000 L 80.000000 80.000000 L 80.000000 0.000000 Z M 1.000000 1.000000 L 79.000000 1.000000 L 79.000000 79.000000 L 1.000000 79.000000 Z" fill="#FFFFFF"/></g><g id="TEXT_-_EDIT"><path d=" M 8.000000 92.349998 L 5.630000 84.720001 L 7.460000 84.720001 L 8.880000 90.790001 L 10.290000 84.720001 L 12.100000 84.720001 L 9.760000 92.349998 Z" fill="#232F3E"/><path d=" M 18.740000 92.349998 L 18.740000 87.000000 L 17.330000 90.459999 L 15.890000 90.459999 L 14.500000 87.000000 L 14.500000 92.320000 L 13.000000 92.320000 L 13.000000 84.720001 L 14.930000 84.720001 L 16.639999 89.000000 L 18.360001 84.730003 L 20.240000 84.730003 L 20.240000 92.360001 Z" fill="#232F3E"/><path d=" M 25.809999 92.349998 L 25.010000 88.349998 L 24.240000 92.349998 L 22.690001 92.349998 L 21.129999 86.720001 L 22.840000 86.720001 L 23.559999 90.720001 L 24.330000 86.720001 L 25.799999 86.720001 L 26.610001 91.000000 L 27.270000 86.769997 L 28.930000 86.769997 L 27.360001 92.400002 Z" fill="#232F3E"/><path d=" M 32.610001 92.349998 L 32.470001 91.839996 C 32.316902 92.044678 32.113724 92.206528 31.880001 92.309998 C 31.636253 92.426201 31.370022 92.487640 31.100000 92.489998 C 30.654751 92.502617 30.225340 92.324303 29.920000 92.000000 C 29.613970 91.669823 29.455168 91.229507 29.480000 90.779999 C 29.465916 90.302177 29.654852 89.840736 30.000000 89.510002 C 30.399963 89.160202 30.919125 88.977600 31.450001 89.000000 C 31.760675 89.007446 32.069424 89.051079 32.369999 89.129997 L 32.369999 88.620003 C 32.397572 88.349762 32.341736 88.077560 32.209999 87.840004 C 32.045475 87.687714 31.822752 87.614693 31.599998 87.640007 C 30.995544 87.665237 30.398565 87.783279 29.829998 87.990005 L 29.830000 87.000000 C 30.116566 86.840446 30.427355 86.728966 30.750000 86.669998 C 31.128017 86.589485 31.513504 86.549255 31.900000 86.549995 C 32.443798 86.502090 32.985882 86.659012 33.419998 86.989998 C 33.764771 87.366852 33.935322 87.871239 33.889999 88.379997 L 33.889999 92.320000 Z M 31.610001 91.430000 C 31.908346 91.418404 32.190971 91.293190 32.400002 91.080002 L 32.400002 90.000000 C 32.197590 89.947983 31.988916 89.924423 31.780001 89.930000 C 31.579264 89.913399 31.381496 89.986649 31.240000 90.129997 C 31.104662 90.295738 31.036812 90.506424 31.049999 90.719994 C 31.038279 90.907021 31.095167 91.091904 31.209999 91.239990 C 31.297071 91.357422 31.433828 91.427643 31.580000 91.429993 Z" fill="#232F3E"/><path d=" M 35.290001 92.349998 L 35.290001 86.720001 L 36.639999 86.720001 L 36.820000 87.449997 C 37.020947 87.209991 37.265179 87.009857 37.540001 86.860001 C 37.768909 86.731735 38.027634 86.666191 38.290001 86.669998 C 38.419811 86.660080 38.550190 86.660080 38.680000 86.669998 L 38.680000 88.000000 C 38.453598 87.984566 38.226406 87.984566 38.000000 88.000000 C 37.618164 88.000481 37.241642 88.089478 36.900002 88.260002 L 36.900002 92.370003 Z" fill="#232F3E"/><path d=" M 40.639999 89.919998 C 40.628944 90.311180 40.756447 90.693687 41.000000 91.000000 C 41.295567 91.246262 41.676880 91.364975 42.060001 91.330002 C 42.289204 91.323997 42.517132 91.293831 42.740002 91.240005 C 43.011528 91.190041 43.278942 91.119843 43.540001 91.030006 L 43.540001 92.029999 C 43.281761 92.177193 43.001507 92.281868 42.709999 92.339996 C 42.381474 92.411812 42.046276 92.448685 41.709999 92.449997 C 39.990002 92.449997 39.130001 91.449997 39.130001 89.500000 C 39.075516 88.713959 39.302364 87.934151 39.770000 87.300003 C 40.224651 86.776291 40.897926 86.495148 41.590000 86.540001 C 42.959999 86.540001 43.590000 87.300003 43.590000 88.830002 C 43.589127 89.166870 43.548855 89.502487 43.470001 89.830002 Z M 41.549999 87.599998 C 40.980000 87.599998 40.669998 88.059998 40.639999 88.970001 L 42.250000 88.970001 L 42.250000 88.720001 C 42.275040 88.423065 42.216133 88.125076 42.080002 87.860001 C 41.962513 87.684830 41.760445 87.585701 41.550003 87.599998 Z" fill="#232F3E"/><path d=" M 52.369999 92.129997 C 51.805157 92.360497 51.200031 92.476082 50.590000 92.469994 C 48.343334 92.470001 47.220001 91.169998 47.220001 88.570000 C 47.148548 87.512779 47.461021 86.465294 48.100002 85.620003 C 48.747662 84.919678 49.678555 84.551743 50.630001 84.620003 C 51.193501 84.620705 51.752319 84.722313 52.280003 84.920006 L 52.279999 86.129997 C 51.808502 85.991577 51.321186 85.914284 50.829998 85.899994 C 50.290752 85.856819 49.765545 86.085663 49.429996 86.509995 C 49.100811 87.090080 48.951160 87.754807 48.999996 88.419998 L 49.000000 88.669998 C 48.946976 89.332306 49.096966 89.995056 49.430000 90.570000 C 49.752571 90.993896 50.269138 91.223900 50.799999 91.180000 C 51.334766 91.153023 51.864784 91.065804 52.380001 90.919998 Z" fill="#232F3E"/><path d=" M 55.770000 92.250000 C 55.449802 92.366165 55.110458 92.420456 54.770000 92.410004 C 54.381443 92.423676 54.004696 92.275154 53.730000 92.000000 C 53.466511 91.689018 53.337055 91.286263 53.369999 90.879997 L 53.369999 84.209999 L 55.000000 84.209999 L 55.000000 90.750000 C 54.989197 90.888161 55.016888 91.026619 55.080002 91.150002 C 55.159672 91.241310 55.279938 91.286407 55.400002 91.270004 C 55.516491 91.279053 55.633511 91.279053 55.750000 91.270004 Z" fill="#232F3E"/><path d=" M 58.889999 92.489998 C 58.191231 92.527954 57.513462 92.244324 57.049999 91.720001 C 56.183983 90.392052 56.183983 88.677956 57.049999 87.349998 C 58.048824 86.333794 59.682331 86.319710 60.698536 87.318535 C 60.709114 87.328934 60.719604 87.339424 60.730000 87.349998 C 61.596016 88.677948 61.596016 90.392044 60.730000 91.720001 C 60.268322 92.246819 59.589287 92.530983 58.889999 92.489998 Z M 58.889999 91.339996 C 59.174492 91.352325 59.433887 91.178047 59.529999 90.909996 C 59.796795 90.016144 59.796795 89.063843 59.529999 88.169998 C 59.387577 87.816536 58.985584 87.645454 58.632122 87.787872 C 58.458092 87.857994 58.320122 87.995964 58.249996 88.169998 C 57.983200 89.063850 57.983200 90.016151 58.249996 90.909996 C 58.346107 91.178047 58.605503 91.352325 58.889996 91.339996 Z" fill="#232F3E"/><path d=" M 65.809998 92.349998 L 65.669998 91.839996 C 65.157448 92.234222 64.535980 92.461166 63.889999 92.489998 C 63.507652 92.511559 63.137371 92.352333 62.889999 92.059998 C 62.631695 91.700417 62.507828 91.261566 62.540001 90.820000 L 62.540001 86.720001 L 64.190002 86.720001 L 64.190002 90.339996 C 64.169487 90.603439 64.214134 90.867889 64.320000 91.109993 C 64.412514 91.267639 64.588036 91.357353 64.769997 91.339996 C 65.039131 91.332176 65.299995 91.245216 65.519997 91.089996 L 65.519997 86.720001 L 67.169998 86.720001 L 67.169998 92.349998 Z" fill="#232F3E"/><path d=" M 71.830002 92.349998 L 71.699997 91.860001 C 71.514740 92.041252 71.297821 92.186996 71.059998 92.290001 C 70.836143 92.388222 70.594452 92.439285 70.349998 92.440002 C 69.751068 92.466835 69.180511 92.183449 68.839996 91.690002 C 68.445480 91.052330 68.256927 90.308617 68.299995 89.560005 C 68.252663 88.790710 68.444801 88.025650 68.849998 87.370003 C 69.187569 86.858131 69.767204 86.558846 70.379997 86.580002 C 70.598846 86.589363 70.814842 86.633240 71.019997 86.709999 C 71.235466 86.789169 71.437752 86.900421 71.619995 87.040001 L 71.620003 84.209999 L 73.269997 84.209999 L 73.269997 92.349998 Z M 70.900002 91.349998 C 71.156097 91.346977 71.405960 91.270630 71.620003 91.129997 L 71.620003 88.000000 C 71.386932 87.839607 71.112778 87.749374 70.830002 87.739998 C 70.533707 87.730316 70.262581 87.905746 70.150002 88.180000 C 69.992737 88.625710 69.924774 89.098030 69.950005 89.570000 C 69.921814 90.034950 70.000496 90.500175 70.180008 90.930000 C 70.321609 91.191101 70.603958 91.344040 70.900009 91.320000 Z" fill="#232F3E"/><path d=" M 24.639999 106.489998 C 23.940714 106.530975 23.261675 106.246811 22.799999 105.720001 C 21.933985 104.392052 21.933985 102.677956 22.799999 101.349998 C 23.261675 100.823181 23.940714 100.539017 24.639999 100.580002 C 25.338766 100.542046 26.016535 100.825676 26.480000 101.349998 C 27.346014 102.677948 27.346014 104.392044 26.480000 105.720001 C 26.016535 106.244324 25.338766 106.527962 24.639999 106.489998 Z M 24.639999 105.339996 C 24.924492 105.352325 25.183886 105.178047 25.279999 104.909996 C 25.546797 104.016144 25.546797 103.063843 25.279999 102.169998 C 25.187372 101.897995 24.927135 101.719078 24.639999 101.729996 C 24.351109 101.721107 24.089081 101.898483 23.990000 102.169998 C 23.734865 103.065514 23.734865 104.014481 23.990000 104.909996 C 24.092442 105.177567 24.353680 105.350380 24.639999 105.339996 Z" fill="#232F3E"/><path d=" M 31.400000 106.349998 L 31.400000 102.650002 C 31.419313 102.407036 31.367176 102.163719 31.250000 101.950005 C 31.138672 101.793205 30.951149 101.709015 30.760000 101.730003 C 30.467970 101.739677 30.184252 101.829636 29.940001 101.990005 L 29.940001 106.349998 L 28.290001 106.349998 L 28.290001 100.720001 L 29.639999 100.720001 L 29.770000 101.230003 C 30.305239 100.835541 30.945753 100.609268 31.610001 100.580002 C 32.011654 100.552147 32.404541 100.706367 32.680000 101.000000 C 32.949730 101.347038 33.081524 101.781601 33.049999 102.220001 L 33.049999 106.349998 Z" fill="#232F3E"/><path d=" M 41.000000 106.349998 L 40.560001 104.529999 L 38.560001 104.529999 L 38.139999 106.349998 L 36.349998 106.349998 L 38.660000 98.720001 L 40.529999 98.720001 L 42.830002 106.349998 Z M 38.810001 103.430000 L 40.310001 103.430000 L 39.549999 100.269997 Z" fill="#232F3E"/><path d=" M 48.180000 106.349998 L 47.240002 100.720001 L 46.349998 106.349998 L 44.480000 106.349998 L 42.700001 98.720001 L 44.400002 98.720001 L 45.459999 104.779999 L 46.369999 99.000000 L 48.200001 99.000000 L 49.139999 104.650002 L 50.139999 98.650002 L 51.799999 98.650002 L 50.020000 106.279999 Z" fill="#232F3E"/><path d=" M 54.130001 103.000000 C 53.634529 102.765594 53.197330 102.424026 52.850002 102.000000 C 52.591236 101.643089 52.457645 101.210678 52.470001 100.769997 C 52.458893 100.354126 52.577740 99.945145 52.810001 99.599998 C 53.035702 99.259720 53.355289 98.992241 53.730000 98.830002 C 54.151421 98.642693 54.608925 98.550507 55.070000 98.560005 C 55.736740 98.572426 56.393757 98.722214 57.000000 99.000008 L 57.000000 100.169998 C 56.448254 99.967827 55.867393 99.856377 55.279999 99.839996 C 54.995243 99.826157 54.713924 99.907036 54.480000 100.070000 C 54.289696 100.226288 54.185623 100.464165 54.200001 100.709999 C 54.192314 100.912018 54.256042 101.110291 54.380001 101.269997 C 54.587772 101.473732 54.832024 101.636566 55.100002 101.750000 L 55.750000 102.070000 C 56.107838 102.234238 56.443771 102.442520 56.750000 102.690002 C 56.985207 102.873383 57.173676 103.109825 57.299999 103.380005 C 57.419373 103.671707 57.477249 103.984909 57.469997 104.300003 C 57.500259 104.936478 57.225426 105.549286 56.729996 105.950005 C 56.154091 106.378822 55.447189 106.594429 54.729996 106.560005 C 54.346863 106.559677 53.964802 106.519463 53.589996 106.440002 C 53.244217 106.377068 52.908073 106.269501 52.589996 106.120003 L 52.590000 104.970001 C 52.917496 105.075150 53.251549 105.158669 53.590000 105.220001 C 53.919121 105.288116 54.253944 105.324944 54.590000 105.330002 C 54.903580 105.352478 55.215076 105.263985 55.470001 105.080002 C 55.676395 104.903908 55.787594 104.640739 55.770000 104.370003 C 55.776089 104.157036 55.701023 103.949707 55.560001 103.790001 C 55.352325 103.593414 55.112091 103.434387 54.850002 103.320000 Z" fill="#232F3E"/></g><g id="ICONS_-_EDIT"><path d=" M 55.310001 54.000000 L 54.500000 54.000000 L 54.500000 52.000000 L 55.310001 52.000000 C 57.770000 52.000000 63.500000 51.259998 63.500000 44.419998 C 63.500000 40.310001 61.090000 37.750000 56.340000 36.790001 C 55.899002 36.701141 55.571625 36.328747 55.540001 35.880001 C 55.400002 33.549999 54.540001 31.809999 53.009998 30.959999 L 54.009998 29.219999 C 56.024265 30.479578 57.311321 32.629635 57.469997 35.000000 C 62.660000 36.270000 65.470001 39.590000 65.470001 44.419998 C 65.500000 51.520000 60.240002 54.000000 55.310001 54.000000 Z M 46.500000 54.000000 L 24.500000 54.000000 C 19.308662 54.123188 14.922441 50.175587 14.500000 45.000000 C 14.500000 44.759998 14.500000 44.549999 14.500000 44.330002 C 14.330645 40.113838 17.091183 36.337788 21.160000 35.220001 C 21.160000 34.970001 21.160000 34.709999 21.160000 34.450001 C 21.352051 27.035303 27.518538 21.180191 34.933235 21.372242 C 38.411896 21.462343 41.719784 22.899164 44.160000 25.380001 C 45.442036 26.646441 46.485371 28.133535 47.240002 29.770000 C 47.472248 29.582926 47.719780 29.415672 47.980003 29.270000 L 48.980000 31.020000 C 48.481743 31.302591 48.046230 31.683664 47.700001 32.139999 C 47.478867 32.427895 47.119080 32.573341 46.760002 32.520000 C 46.399776 32.466438 46.097149 32.221272 45.970001 31.880001 C 45.299442 29.972591 44.209316 28.240009 42.780003 26.810001 C 38.389687 22.274118 31.153574 22.156113 26.617691 26.546427 C 24.457655 28.637140 23.208218 31.494642 23.140003 34.500000 C 23.140863 34.961132 23.167572 35.421856 23.220003 35.880001 C 23.285883 36.383987 22.963224 36.857220 22.470003 36.980000 C 20.240000 37.529999 16.469999 39.220001 16.469999 44.380001 C 16.469999 44.570000 16.469999 44.750000 16.469999 44.919998 C 16.828600 49.038288 20.337915 52.161579 24.469999 52.039997 L 46.470001 52.040001 Z" fill="#FFFFFF"/><path d=" M 39.500000 50.000000 L 29.500000 50.000000 C 28.947716 50.000000 28.500000 49.552284 28.500000 49.000000 L 28.500000 28.000000 C 28.500000 27.447716 28.947716 27.000000 29.500000 27.000000 L 39.500000 27.000000 C 40.052284 27.000000 40.500000 27.447716 40.500000 28.000000 L 40.500000 49.000000 C 40.500000 49.552284 40.052284 50.000000 39.500000 50.000000 Z M 30.500000 48.000000 L 38.500000 48.000000 L 38.500000 29.000000 L 30.500000 29.000000 Z" fill="#FFFFFF"/><rect x="31.500000" y="31.040000" width="6.000000" height="2.000000" fill="#FFFFFF"/><rect x="31.500000" y="35.040000" width="6.000000" height="2.000000" fill="#FFFFFF"/><path d=" M 43.000000 59.419998 C 42.449642 59.421242 41.904953 59.308899 41.400002 59.089996 C 40.276234 58.550308 39.412918 57.586269 39.000000 56.409996 L 40.860001 55.660000 C 41.082428 56.349922 41.567348 56.924644 42.209999 57.259998 C 43.930000 58.000000 46.889999 56.150002 49.919998 52.410000 C 50.169998 52.099998 50.430000 51.779999 50.680000 51.410000 C 52.606155 48.787842 54.248684 45.968735 55.580002 43.000000 L 57.400002 43.830002 C 56.011665 46.934196 54.295235 49.880962 52.280003 52.620003 L 51.480000 53.619999 C 48.450001 57.410000 45.459999 59.419998 43.000000 59.419998 Z" fill="#FFFFFF"/><path d=" M 48.320000 42.740002 L 46.459999 42.000000 C 48.240742 37.875397 49.315708 33.480873 49.639999 29.000000 L 49.639999 28.670000 C 49.720001 25.480000 49.009998 23.320000 47.639999 22.740000 C 46.540001 22.270000 45.160000 22.910000 44.189999 23.530001 L 43.110001 21.850000 C 45.599998 20.250000 47.380001 20.450001 48.439999 20.910000 C 50.570000 21.850000 51.680000 24.600000 51.590000 28.670000 C 51.600002 28.763065 51.600002 28.856936 51.590000 28.950001 L 51.590000 29.070000 C 51.271851 33.777428 50.166523 38.398174 48.320000 42.739998 Z" fill="#FFFFFF"/><path d=" M 47.400002 43.389999 C 46.992657 43.392040 46.624790 43.146793 46.470001 42.770000 L 44.590000 38.150002 L 46.439999 37.389999 L 48.000000 41.090000 L 51.799999 39.540001 L 52.560001 41.400002 L 47.820000 43.320000 C 47.686649 43.373215 47.543400 43.397087 47.400002 43.389999 Z" fill="#FFFFFF"/><path d=" M 57.299999 48.459999 L 55.930000 44.709999 L 52.070000 46.119999 L 51.380001 44.240002 L 56.180000 42.490002 C 56.696983 42.295712 57.273582 42.557304 57.467873 43.074284 C 57.468590 43.076187 57.469299 43.078091 57.470001 43.080002 L 59.180000 47.779999 Z" fill="#FFFFFF"/></g></svg>