<svg version="1.1" width="80.000000" height="115.000000" viewBox="0.000000 0.000000 80.000000 115.000000" xmlns="http://www.w3.org/2000/svg" xmlns:xlink="http://www.w3.org/1999/xlink" overflow="hidden"><g id="CARDS"><rect x="1.000000" y="1.000000" width="78.000000" height="78.000000" fill="#232F3E"/><path d=" M 0.000000 0.000000 L 0.000000 80.000000 L 0.000000 80.000000 L 0.000000 115.000000 L 80.000000 115.000000 L 80.000000 80.000000 L 80.000000 80.000000 L 80.000000 0.000000 Z M 1.000000 1.000000 L 79.000000 1.000000 L 79.000000 79.000000 L 1.000000 79.000000 Z" fill="#FFFFFF"/></g><g id="TEXT_-_EDIT"><path d=" M 15.860000 92.349998 L 15.430000 90.529999 L 13.430000 90.529999 L 13.000000 92.349998 L 11.240000 92.349998 L 13.550000 84.720001 L 15.420000 84.720001 L 17.719999 92.349998 Z M 13.680000 89.430000 L 15.180000 89.430000 L 14.420000 86.269997 Z" fill="#232F3E"/><path d=" M 24.570000 92.349998 L 24.570000 88.639999 C 24.589256 88.402504 24.544357 88.164200 24.440001 87.949997 C 24.335142 87.796478 24.155056 87.712181 23.970001 87.729996 C 23.687712 87.742058 23.414276 87.832047 23.180000 87.989998 C 23.180000 87.989998 23.180000 88.070000 23.180000 88.110001 L 23.180000 92.349998 L 21.540001 92.349998 L 21.540001 88.639999 C 21.547857 88.418289 21.499708 88.198181 21.400002 88.000000 C 21.298391 87.848114 21.122017 87.763763 20.940002 87.779999 C 20.657993 87.793579 20.384956 87.883438 20.150002 88.040001 L 20.150000 92.400002 L 18.500000 92.400002 L 18.500000 86.720001 L 19.850000 86.720001 L 19.980000 87.230003 C 20.506557 86.840569 21.135988 86.614525 21.789999 86.580002 C 22.287903 86.543671 22.759682 86.807076 22.990000 87.250000 C 23.524073 86.850533 24.164112 86.617470 24.830000 86.580002 C 25.209106 86.564880 25.575386 86.718712 25.830000 87.000000 C 26.090429 87.351334 26.217972 87.783562 26.190001 88.220001 L 26.190001 92.349998 Z" fill="#232F3E"/><path d=" M 30.520000 92.349998 L 30.379999 91.839996 C 30.226902 92.044678 30.023724 92.206528 29.789999 92.309998 C 29.546251 92.426201 29.280020 92.487640 29.009998 92.489998 C 28.564749 92.502617 28.135338 92.324303 27.829998 92.000000 C 27.523968 91.669823 27.365166 91.229507 27.389997 90.779999 C 27.366856 90.286880 27.560480 89.808296 27.919998 89.470001 C 28.323378 89.137032 28.837856 88.969109 29.359999 89.000000 C 29.670673 89.007446 29.979424 89.051079 30.279999 89.129997 L 30.280001 88.620003 C 30.307573 88.349762 30.251738 88.077560 30.120001 87.840004 C 29.955479 87.687714 29.732754 87.614693 29.510000 87.640007 C 28.905546 87.665237 28.308567 87.783279 27.740000 87.990005 L 27.740000 87.000000 C 28.027077 86.841576 28.337679 86.730164 28.660000 86.669998 C 29.038017 86.589485 29.423504 86.549255 29.809999 86.549995 C 30.353798 86.502090 30.895882 86.659012 31.330000 86.989998 C 31.679232 87.364204 31.850473 87.870636 31.799999 88.379997 L 31.799999 92.320000 Z M 29.520000 91.430000 C 29.818346 91.418404 30.100971 91.293190 30.310001 91.080002 L 30.309999 90.000000 C 30.107586 89.947983 29.898914 89.924423 29.689999 89.930000 C 29.489262 89.913399 29.291494 89.986649 29.149998 90.129997 C 29.018236 90.297188 28.954002 90.507729 28.969997 90.719994 C 28.955429 90.905769 29.008724 91.090523 29.119997 91.239990 C 29.207069 91.357422 29.343826 91.427643 29.489998 91.429993 Z" fill="#232F3E"/><path d=" M 32.790001 92.349998 L 32.790001 91.279999 L 35.279999 87.879997 L 32.889999 87.879997 L 32.889999 86.720001 L 37.000000 86.720001 L 37.000000 87.790001 L 34.500000 91.190002 L 37.049999 91.190002 L 37.049999 92.349998 Z" fill="#232F3E"/><path d=" M 40.310001 92.489998 C 39.608315 92.528084 38.927448 92.244698 38.460003 91.720001 C 37.593987 90.392052 37.593987 88.677956 38.460003 87.349998 C 39.471752 86.331032 41.117970 86.325180 42.136936 87.336929 C 42.141308 87.341270 42.145664 87.345627 42.150005 87.349998 C 43.016022 88.677948 43.016022 90.392044 42.150005 91.720001 C 41.686543 92.244324 41.008774 92.527962 40.310005 92.489998 Z M 40.310001 91.339996 C 40.593586 91.349129 40.851273 91.175995 40.950001 90.909996 C 41.216797 90.016144 41.216797 89.063843 40.950001 88.169998 C 40.854675 87.900047 40.596184 87.722336 40.310001 87.729996 C 40.021111 87.721107 39.759083 87.898483 39.660000 88.169998 C 39.393204 89.063850 39.393204 90.016151 39.660000 90.909996 C 39.762440 91.177567 40.023682 91.350380 40.310001 91.339996 Z" fill="#232F3E"/><path d=" M 47.070000 92.349998 L 47.070000 88.650002 C 47.089314 88.407036 47.037174 88.163719 46.919998 87.950005 C 46.807304 87.794876 46.620808 87.711143 46.429996 87.730003 C 46.137787 87.738640 45.853794 87.828682 45.609997 87.990005 L 45.610001 92.349998 L 44.000000 92.349998 L 44.000000 86.720001 L 45.349998 86.720001 L 45.480000 87.230003 C 46.015240 86.835541 46.655750 86.609268 47.320000 86.580002 C 47.721432 86.553581 48.113728 86.707565 48.389999 87.000000 C 48.655579 87.349174 48.786884 87.782127 48.759998 88.220001 L 48.759998 92.349998 Z" fill="#232F3E"/><path d=" M 56.639999 92.349998 L 56.209999 90.529999 L 54.209999 90.529999 L 53.790001 92.349998 L 52.000000 92.349998 L 54.310001 84.720001 L 56.200001 84.720001 L 58.500000 92.349998 Z M 54.459999 89.430000 L 56.000000 89.430000 L 55.240002 86.269997 Z" fill="#232F3E"/><path d=" M 61.000000 89.519997 L 61.000000 92.349998 L 59.389999 92.349998 L 59.389999 84.720001 L 62.000000 84.720001 C 62.650742 84.687714 63.286457 84.922493 63.759998 85.370003 C 64.640030 86.370712 64.640030 87.869293 63.759998 88.870003 C 63.286453 89.317513 62.650738 89.552292 62.000000 89.520004 Z M 61.000000 88.370003 L 61.779999 88.370003 C 62.056164 88.390114 62.324818 88.274445 62.500000 88.060005 C 62.680740 87.781036 62.768276 87.451904 62.750000 87.120003 C 62.769669 86.791100 62.681931 86.464714 62.500000 86.190002 C 62.329151 85.968956 62.058559 85.848694 61.779999 85.870003 L 61.000000 85.870003 Z" fill="#232F3E"/><path d=" M 65.820000 92.349998 L 65.820000 84.720001 L 67.510002 84.720001 L 67.510002 92.349998 Z" fill="#232F3E"/><path d=" M 23.690001 105.250000 C 23.876390 105.264381 24.063610 105.264381 24.250000 105.250000 L 24.250000 103.250000 L 23.100000 103.250000 L 23.100000 102.139999 L 25.799999 102.139999 L 25.799999 105.910004 C 25.445724 106.104126 25.065062 106.245613 24.670000 106.330002 C 24.223726 106.430847 23.767525 106.481163 23.309999 106.480003 C 22.389332 106.538010 21.493170 106.169220 20.879999 105.480003 C 20.269550 104.656525 19.971813 103.642807 20.039999 102.620003 C 19.958990 101.546288 20.271820 100.479820 20.919998 99.620003 C 21.598913 98.916504 22.554819 98.550255 23.529999 98.620003 C 24.224140 98.596901 24.912647 98.751816 25.529999 99.070000 L 25.530001 100.239998 C 25.230463 100.117241 24.918705 100.026733 24.600000 99.970001 C 24.304308 99.905373 24.002666 99.871857 23.700001 99.870003 C 23.136606 99.819138 22.583933 100.046928 22.220001 100.480003 C 21.861845 101.082382 21.701008 101.781677 21.760002 102.480003 L 21.760000 102.690002 C 21.698000 103.387268 21.855324 104.086487 22.210001 104.690002 C 22.583082 105.105995 23.134991 105.314827 23.690001 105.250000 Z" fill="#232F3E"/><path d=" M 30.100000 106.349998 L 29.950001 105.839996 C 29.799303 106.046989 29.595444 106.209389 29.360001 106.309998 C 29.116253 106.426201 28.850021 106.487640 28.580000 106.489998 C 28.134750 106.502617 27.705339 106.324303 27.400000 106.000000 C 27.093969 105.669823 26.935167 105.229507 26.959999 104.779999 C 26.936857 104.286880 27.130482 103.808296 27.490000 103.470001 C 27.893864 103.137909 28.407988 102.970108 28.930000 103.000000 C 29.244030 103.006668 29.556179 103.050301 29.860001 103.129997 L 29.860001 102.620003 C 29.885199 102.348686 29.825815 102.076225 29.690001 101.840004 C 29.529999 101.686920 29.309851 101.613541 29.090000 101.640007 C 28.482172 101.664215 27.881742 101.782272 27.309999 101.990005 L 27.309999 100.989998 C 27.597076 100.831573 27.907679 100.720161 28.230000 100.659996 C 28.611403 100.579514 29.000198 100.539299 29.389999 100.539993 C 29.930742 100.491684 30.469847 100.648773 30.900000 100.979996 C 31.249231 101.354202 31.420473 101.860634 31.369999 102.369995 L 31.370001 106.309998 Z M 29.100000 105.430000 C 29.401384 105.418922 29.687319 105.293823 29.900000 105.080002 L 29.900000 104.000000 C 29.694059 103.948677 29.482182 103.925140 29.270000 103.930000 C 29.069454 103.914780 28.872250 103.987816 28.730000 104.129997 C 28.598238 104.297188 28.534004 104.507729 28.549999 104.719994 C 28.539709 104.905304 28.592592 105.088631 28.699999 105.239990 C 28.784925 105.354698 28.917376 105.424606 29.059999 105.429993 Z" fill="#232F3E"/><path d=" M 35.810001 106.199997 C 35.416691 106.347153 34.999935 106.421692 34.580002 106.419998 C 34.107685 106.464508 33.636894 106.320755 33.270000 106.019997 C 32.965263 105.658775 32.817635 105.190689 32.860001 104.719994 L 32.860001 101.820000 L 32.119999 101.820000 L 32.119999 100.900002 L 32.900002 100.750000 L 33.150002 99.209999 L 34.509998 99.209999 L 34.509998 100.720001 L 35.779999 100.720001 L 35.779999 101.820000 L 34.509998 101.820000 L 34.509998 104.589996 C 34.494324 104.774376 34.543869 104.958412 34.649998 105.109993 C 34.796585 105.234970 34.988743 105.292976 35.179996 105.269997 C 35.392235 105.265694 35.603420 105.238876 35.809998 105.189995 Z" fill="#232F3E"/><path d=" M 37.900002 103.919998 C 37.886597 104.325401 38.017735 104.722366 38.270000 105.040001 C 38.564472 105.288261 38.946644 105.407242 39.330002 105.370003 C 39.559204 105.363998 39.787132 105.333832 40.010002 105.280006 C 40.280975 105.227577 40.548214 105.157425 40.810001 105.070007 L 40.810001 106.070000 C 40.550980 106.215523 40.271000 106.320099 39.980000 106.379997 C 39.651474 106.451813 39.316277 106.488686 38.980000 106.489998 C 37.259998 106.489998 36.400002 105.489998 36.400002 103.540001 C 36.346962 102.755630 36.569820 101.977402 37.030003 101.340004 C 37.487766 100.814682 38.164768 100.533524 38.860004 100.580002 C 40.220001 100.580002 40.910000 101.339996 40.910000 102.870003 C 40.909126 103.206871 40.868855 103.542488 40.790001 103.870003 Z M 38.820000 101.599998 C 38.240002 101.599998 37.939999 102.059998 37.900002 102.970001 L 39.520000 102.970001 L 39.520000 102.720001 C 39.540443 102.423340 39.481781 102.126572 39.350002 101.860001 C 39.232513 101.684830 39.030445 101.585701 38.820004 101.599998 Z" fill="#232F3E"/><path d=" M 46.080002 106.349998 L 45.290001 102.349998 L 44.520000 106.349998 L 43.000000 106.349998 L 41.450001 100.720001 L 43.160000 100.720001 L 43.869999 104.720001 L 44.639999 100.720001 L 46.110001 100.720001 L 46.930000 104.949997 L 47.580002 100.720001 L 49.200001 100.720001 L 47.639999 106.349998 Z" fill="#232F3E"/><path d=" M 52.889999 106.349998 L 52.750000 105.839996 C 52.594742 106.042564 52.392155 106.203949 52.160000 106.309998 C 51.913094 106.427322 51.643360 106.488777 51.369999 106.489998 C 50.931015 106.511780 50.503002 106.348557 50.189999 106.040001 C 49.886585 105.708809 49.731304 105.268242 49.759998 104.820000 C 49.736855 104.326881 49.930481 103.848297 50.289997 103.510002 C 50.687271 103.173096 51.200314 103.004471 51.719997 103.040001 C 52.034027 103.046669 52.346176 103.090302 52.649998 103.169998 L 52.650002 102.660004 C 52.677574 102.389763 52.621738 102.117561 52.490002 101.880005 C 52.325478 101.727715 52.102757 101.654694 51.880001 101.680008 C 51.275547 101.705238 50.678566 101.823280 50.110001 102.030006 L 50.110001 101.029999 C 50.393471 100.871468 50.700802 100.760017 51.020000 100.699997 C 51.401482 100.620018 51.790226 100.579803 52.180000 100.579994 C 52.723797 100.532089 53.265881 100.689011 53.700001 101.019997 C 54.044773 101.396851 54.215324 101.901237 54.170002 102.409996 L 54.169998 106.349998 Z M 51.889999 105.430000 C 52.191841 105.420944 52.478493 105.295532 52.689999 105.080002 L 52.689999 104.000000 C 52.484169 103.948074 52.272205 103.924522 52.059998 103.930000 C 51.862247 103.913605 51.667618 103.987053 51.529999 104.129997 C 51.390945 104.293694 51.322601 104.505920 51.340000 104.719994 C 51.329712 104.905304 51.382591 105.088631 51.490002 105.239990 C 51.575874 105.353592 51.707760 105.423195 51.850002 105.429993 Z" fill="#232F3E"/><path d=" M 56.770000 106.459999 L 54.770000 100.720001 L 56.520000 100.720001 L 57.450001 104.860001 L 58.349998 100.720001 L 60.049999 100.720001 L 58.049999 107.199997 C 57.940708 107.647972 57.708691 108.056602 57.380001 108.379997 C 57.066204 108.631195 56.671501 108.759209 56.270000 108.739998 C 55.910706 108.739273 55.553501 108.685356 55.209999 108.579994 L 55.209999 107.580002 C 55.403107 107.593239 55.596893 107.593239 55.790001 107.580002 C 56.039410 107.595459 56.285568 107.516968 56.480000 107.360001 C 56.656960 107.152000 56.762161 106.892509 56.779999 106.620003 Z" fill="#232F3E"/></g><g id="ICONS_-_EDIT"><path d=" M 51.049999 64.000000 C 50.841591 63.998653 50.638809 63.932224 50.469997 63.810001 C 50.207802 63.623325 50.051487 63.321857 50.049999 63.000000 L 50.049999 17.000000 C 50.051449 16.652514 50.233185 16.330692 50.529999 16.150000 C 50.839401 15.971367 51.220596 15.971367 51.529999 16.150000 L 64.419998 22.500000 C 64.760162 22.666658 64.976959 23.011215 64.979996 23.389999 L 64.980003 58.680000 C 65.002068 59.130863 64.719345 59.540607 64.290001 59.680000 L 51.369999 64.000000 C 51.263874 64.015182 51.156124 64.015182 51.049999 64.000000 Z M 52.049999 18.610001 L 52.049999 61.610001 L 63.000000 58.000000 L 63.000000 24.000000 Z" fill="#FFFFFF"/><path d=" M 29.049999 64.000000 C 28.947165 64.014366 28.842833 64.014366 28.740000 64.000000 L 15.740000 59.680000 C 15.310661 59.540607 15.027938 59.130863 15.050000 58.680000 L 15.050000 23.340000 C 15.054904 22.958961 15.275944 22.613829 15.620000 22.450001 L 28.620001 16.100000 C 29.118618 15.862515 29.715347 16.074205 29.952831 16.572823 C 30.016396 16.706284 30.049582 16.852175 30.050001 17.000000 L 30.049999 63.000000 C 30.050829 63.320053 29.898413 63.621170 29.639999 63.810001 C 29.468420 63.934227 29.261826 64.000755 29.049999 64.000000 Z M 17.049999 58.000000 L 28.049999 61.650002 L 28.049999 18.650000 L 17.049999 24.000000 Z" fill="#FFFFFF"/><path d=" M 50.049999 30.000000 L 47.049999 30.000000 L 47.049999 28.000000 L 50.049999 28.000000 Z M 44.049999 30.000000 L 41.049999 30.000000 L 41.049999 28.000000 L 44.049999 28.000000 Z M 38.049999 30.000000 L 35.049999 30.000000 L 35.049999 28.000000 L 38.049999 28.000000 Z M 32.049999 30.000000 L 29.049999 30.000000 L 29.049999 28.000000 L 32.049999 28.000000 Z" fill="#FFFFFF"/><path d=" M 50.049999 52.000000 L 47.049999 52.000000 L 47.049999 50.000000 L 50.049999 50.000000 Z M 44.049999 52.000000 L 41.049999 52.000000 L 41.049999 50.000000 L 44.049999 50.000000 Z M 38.049999 52.000000 L 35.049999 52.000000 L 35.049999 50.000000 L 38.049999 50.000000 Z M 32.049999 52.000000 L 29.049999 52.000000 L 29.049999 50.000000 L 32.049999 50.000000 Z" fill="#FFFFFF"/><path d=" M 35.660000 43.439999 L 31.900000 40.230000 C 31.480263 39.871056 31.430981 39.239815 31.789923 38.820076 C 31.823698 38.780579 31.860502 38.743774 31.900000 38.709999 L 35.660000 35.500000 L 37.000000 37.000000 L 34.130001 39.450001 L 37.000000 41.919998 Z" fill="#FFFFFF"/><path d=" M 44.450001 43.439999 L 43.150002 41.919998 L 46.000000 39.459999 L 43.150002 37.000000 L 44.450001 35.480000 L 48.209999 38.680000 C 48.629734 39.038944 48.679020 39.670185 48.320076 40.089924 C 48.286301 40.129421 48.249496 40.166225 48.209999 40.200001 Z" fill="#FFFFFF"/><rect x="33.840000" y="39.000000" width="12.410000" height="2.000000" fill="#FFFFFF" transform="matrix(0.320282,-0.947322,0.947322,0.320282,-10.670000,65.120000)"/></g></svg>