<svg version="1.1" width="80.000000" height="115.000000" viewBox="0.000000 0.000000 80.000000 115.000000" xmlns="http://www.w3.org/2000/svg" xmlns:xlink="http://www.w3.org/1999/xlink" overflow="hidden"><g id="CARDS"><rect x="1.000000" y="1.000000" width="78.000000" height="78.000000" fill="#232F3E"/><path d=" M 0.000000 0.000000 L 0.000000 80.000000 L 0.000000 80.000000 L 0.000000 115.000000 L 80.000000 115.000000 L 80.000000 80.000000 L 80.000000 80.000000 L 80.000000 0.000000 Z M 1.000000 1.000000 L 79.000000 1.000000 L 79.000000 79.000000 L 1.000000 79.000000 Z" fill="#FFFFFF"/></g><g id="TEXT_-_EDIT"><path d=" M 16.910000 92.349998 L 16.480000 90.529999 L 14.480000 90.529999 L 14.060000 92.349998 L 12.280000 92.349998 L 14.600000 84.720001 L 16.469999 84.720001 L 18.770000 92.349998 Z M 14.730000 89.430000 L 16.219999 89.430000 L 15.470000 86.269997 Z" fill="#232F3E"/><path d=" M 24.120001 92.349998 L 23.180000 86.720001 L 22.280001 92.349998 L 20.420000 92.349998 L 18.629999 84.720001 L 20.330000 84.720001 L 21.389999 90.779999 L 22.309999 85.000000 L 24.139999 85.000000 L 25.080000 90.650002 L 26.080000 84.650002 L 27.750000 84.650002 L 26.000000 92.349998 Z" fill="#232F3E"/><path d=" M 30.070000 89.000000 C 29.572723 88.768532 29.134912 88.426491 28.789999 88.000000 C 28.527676 87.644348 28.390535 87.211830 28.400000 86.769997 C 28.393391 86.354721 28.511856 85.947060 28.740000 85.599998 C 28.968212 85.261978 29.287066 84.995110 29.660000 84.830002 C 30.081911 84.644234 30.539070 84.552124 31.000000 84.560005 C 31.656349 84.578415 32.302372 84.728027 32.900002 85.000008 L 32.900002 86.169998 C 32.347973 85.968834 31.767281 85.857422 31.180002 85.839996 C 30.895069 85.824615 30.613258 85.905632 30.380003 86.070000 C 30.187283 86.225250 30.079668 86.462738 30.090002 86.709999 C 30.080498 86.913940 30.148357 87.113945 30.280003 87.269997 C 30.481882 87.476234 30.723391 87.639511 30.990002 87.750000 L 31.650000 88.070000 C 32.005192 88.239128 32.340569 88.447060 32.650002 88.690002 C 32.878788 88.877266 33.063213 89.112915 33.190002 89.380005 C 33.317581 89.669502 33.379070 89.983780 33.370003 90.300003 C 33.397865 90.938217 33.119171 91.551346 32.620003 91.950005 C 32.044479 92.379578 31.337299 92.595268 30.620003 92.560005 C 30.240175 92.559639 29.861435 92.519417 29.490004 92.440002 C 29.143770 92.378899 28.807388 92.271255 28.490004 92.120003 L 28.490000 90.919998 C 28.817358 91.025635 29.151443 91.109154 29.490000 91.169998 C 29.819298 91.236969 30.154016 91.273788 30.490000 91.279999 C 30.803755 91.304230 31.115845 91.215561 31.369999 91.029999 C 31.576395 90.853905 31.687592 90.590736 31.669998 90.320000 C 31.676086 90.107033 31.601021 89.899704 31.459999 89.739998 C 31.256229 89.543251 31.019239 89.384132 30.759998 89.269997 Z" fill="#232F3E"/><path d=" M 37.139999 92.349998 L 37.139999 84.720001 L 39.660000 84.720001 C 40.558743 84.671806 41.429489 85.040771 42.020000 85.720001 C 42.614468 86.542496 42.901154 87.547661 42.830002 88.559998 C 42.898834 89.573708 42.616314 90.580185 42.030003 91.409996 C 41.458782 92.086273 40.604023 92.456299 39.720001 92.409996 Z M 38.830002 85.900002 L 38.830002 91.169998 L 39.540001 91.169998 C 40.013920 91.192314 40.462357 90.954681 40.709999 90.549995 C 41.000423 89.957146 41.131393 89.298859 41.090000 88.639992 L 41.090000 88.419998 C 41.133743 87.760979 41.002655 87.102089 40.709999 86.509995 C 40.457909 86.100891 39.999321 85.865814 39.520000 85.899994 Z" fill="#232F3E"/><path d=" M 45.360001 89.919998 C 45.348946 90.311180 45.476448 90.693687 45.720001 91.000000 C 46.014473 91.248260 46.396645 91.367241 46.780003 91.330002 C 47.009205 91.323997 47.237133 91.293831 47.460003 91.240005 C 47.731255 91.188805 47.998577 91.118637 48.260002 91.030006 L 48.259998 92.029999 C 48.000977 92.175522 47.720997 92.280098 47.429996 92.339996 C 47.101471 92.411812 46.766273 92.448685 46.429996 92.449997 C 44.709999 92.449997 43.849998 91.449997 43.849998 89.500000 C 43.796959 88.715630 44.019817 87.937401 44.480000 87.300003 C 44.938690 86.775963 45.615025 86.495087 46.310001 86.540001 C 47.680000 86.540001 48.310001 87.300003 48.310001 88.830002 C 48.309128 89.166870 48.268856 89.502487 48.190002 89.830002 Z M 46.270000 87.599998 C 45.689999 87.599998 45.389999 88.059998 45.360001 88.970001 L 47.000000 88.970001 L 47.000000 88.720001 C 47.020443 88.423340 46.961781 88.126572 46.830002 87.860001 C 46.707199 87.674789 46.490738 87.574287 46.270000 87.599998 Z" fill="#232F3E"/><path d=" M 50.689999 92.349998 L 48.840000 86.720001 L 50.580002 86.720001 L 51.480000 90.720001 L 52.389999 86.720001 L 54.090000 86.720001 L 52.250000 92.349998 Z" fill="#232F3E"/><path d=" M 55.720001 85.809998 C 55.463860 85.830612 55.209610 85.751831 55.010002 85.589996 C 54.830807 85.439140 54.731186 85.214073 54.740002 84.979996 C 54.729645 84.745628 54.829552 84.519913 55.010002 84.369995 C 55.430443 84.064751 55.999561 84.064751 56.420002 84.369995 C 56.594265 84.523682 56.689812 84.747849 56.680000 84.979996 C 56.686993 85.211624 56.591938 85.434639 56.420002 85.589996 C 56.222973 85.749374 55.972782 85.828011 55.720001 85.809998 Z M 54.889999 92.349998 L 54.889999 86.720001 L 56.540001 86.720001 L 56.540001 92.349998 Z" fill="#232F3E"/><path d=" M 61.630001 92.089996 C 61.433365 92.213127 61.216801 92.301109 60.990002 92.349998 C 60.727776 92.411209 60.459270 92.441414 60.190002 92.439995 C 59.494339 92.491119 58.813305 92.222382 58.340004 91.709991 C 57.886227 91.085075 57.666748 90.320442 57.720005 89.549988 C 57.669228 88.771988 57.907856 88.002678 58.390003 87.389984 C 58.866405 86.867004 59.553833 86.587616 60.260002 86.629982 C 60.729954 86.630127 61.192978 86.743309 61.610001 86.959984 L 61.610001 87.959999 C 61.289463 87.841820 60.951546 87.777618 60.610001 87.769997 C 60.251945 87.735214 59.901012 87.886154 59.680000 88.169998 C 59.462070 88.563194 59.364689 89.011833 59.400002 89.459999 L 59.400002 89.620003 C 59.365356 90.063736 59.459084 90.508072 59.670002 90.900002 C 59.880894 91.185333 60.227188 91.337547 60.580002 91.300003 C 60.949383 91.292480 61.314716 91.221443 61.660004 91.090004 Z" fill="#232F3E"/><path d=" M 63.900002 89.919998 C 63.888947 90.311180 64.016449 90.693687 64.260002 91.000000 C 64.555565 91.246262 64.936882 91.364975 65.320000 91.330002 C 65.549202 91.323997 65.777130 91.293831 66.000000 91.240005 C 66.271530 91.190041 66.538940 91.119843 66.800003 91.030006 L 66.800003 92.029999 C 66.541763 92.177193 66.261513 92.281868 65.970001 92.339996 C 65.641479 92.411812 65.306282 92.448685 64.970001 92.449997 C 63.250000 92.449997 62.389999 91.449997 62.389999 89.500000 C 62.335514 88.713959 62.562363 87.934151 63.029999 87.300003 C 63.484650 86.776291 64.157921 86.495148 64.849998 86.540001 C 66.220001 86.540001 66.849998 87.300003 66.849998 88.830002 C 66.849129 89.166870 66.808853 89.502487 66.729996 89.830002 Z M 64.809998 87.599998 C 64.230003 87.599998 63.930000 88.059998 63.900002 88.970001 L 65.510002 88.970001 L 65.510002 88.720001 C 65.530441 88.423340 65.471779 88.126572 65.340004 87.860001 C 65.222511 87.684830 65.020447 87.585701 64.810005 87.599998 Z" fill="#232F3E"/><path d=" M 28.610001 106.349998 L 28.610001 98.720001 L 33.000000 98.720001 L 33.000000 99.900002 L 30.299999 99.900002 L 30.299999 102.000000 L 32.380001 102.000000 L 32.380001 103.169998 L 30.299999 103.169998 L 30.299999 106.389999 Z" fill="#232F3E"/><path d=" M 36.540001 106.349998 L 36.389999 105.839996 C 36.236900 106.044678 36.033722 106.206528 35.799999 106.309998 C 35.556252 106.426201 35.290020 106.487640 35.020000 106.489998 C 34.580822 106.513031 34.152321 106.349617 33.840000 106.040001 C 33.533970 105.709824 33.375168 105.269508 33.400002 104.820000 C 33.376858 104.326881 33.570484 103.848297 33.930000 103.510002 C 34.333866 103.177910 34.847988 103.010109 35.369999 103.040001 C 35.680767 103.046326 35.989647 103.089973 36.289997 103.169998 L 36.290001 102.660004 C 36.317574 102.389763 36.261738 102.117561 36.130001 101.880005 C 35.965477 101.727715 35.742756 101.654694 35.520000 101.680008 C 34.915546 101.705238 34.318565 101.823280 33.750000 102.030006 L 33.750000 101.029999 C 34.037075 100.871574 34.347679 100.760162 34.669998 100.699997 C 35.048096 100.619995 35.433529 100.579773 35.820000 100.579994 C 36.363796 100.532089 36.905880 100.689011 37.340000 101.019997 C 37.689232 101.394203 37.860474 101.900635 37.810001 102.409996 L 37.810001 106.349998 Z M 35.540001 105.430000 C 35.838345 105.418404 36.120972 105.293190 36.330002 105.080002 L 36.330002 104.000000 C 36.127590 103.947983 35.918915 103.924423 35.710003 103.930000 C 35.509457 103.914780 35.312252 103.987816 35.170002 104.129997 C 35.038242 104.297188 34.974007 104.507729 34.990002 104.719994 C 34.979713 104.905304 35.032593 105.088631 35.140003 105.239990 C 35.224930 105.354698 35.357380 105.424606 35.500004 105.429993 Z" fill="#232F3E"/><path d=" M 39.209999 106.349998 L 39.209999 100.720001 L 40.560001 100.720001 L 40.740002 101.449997 C 40.940948 101.209991 41.185181 101.009857 41.460003 100.860001 C 41.688911 100.731735 41.947636 100.666191 42.210003 100.669998 C 42.339813 100.660080 42.470192 100.660080 42.600002 100.669998 L 42.599998 102.000000 C 42.386883 101.986336 42.173115 101.986336 41.959999 102.000000 C 41.578163 102.000481 41.201641 102.089478 40.860001 102.260002 L 40.860001 106.370003 Z" fill="#232F3E"/><path d=" M 49.410000 106.349998 L 49.410000 102.639999 C 49.429256 102.402504 49.384357 102.164200 49.279999 101.949997 C 49.175140 101.796478 48.995052 101.712181 48.809998 101.729996 C 48.519848 101.741310 48.238907 101.834953 47.999996 101.999992 C 48.000000 102.000000 48.000000 102.080002 48.000000 102.120003 L 48.000000 106.360001 L 46.380001 106.360001 L 46.380001 102.650002 C 46.396664 102.411568 46.348278 102.173088 46.240002 101.959999 C 46.138390 101.808113 45.962017 101.723763 45.780003 101.739998 C 45.501431 101.755356 45.232075 101.845139 45.000004 102.000000 L 45.000000 106.360001 L 43.340000 106.360001 L 43.340000 100.730003 L 44.689999 100.730003 L 44.820000 101.239998 C 45.346558 100.850563 45.975986 100.624519 46.630001 100.589996 C 47.130238 100.554855 47.604317 100.817360 47.840000 101.259995 C 48.369541 100.859169 49.006836 100.625847 49.670002 100.589996 C 50.049107 100.574875 50.415390 100.728706 50.670002 101.009995 C 50.930431 101.361328 51.057976 101.793556 51.030003 102.229996 L 51.029999 106.360001 Z" fill="#232F3E"/></g><g id="ICONS_-_EDIT"><rect x="41.310000" y="34.680000" width="11.120000" height="2.000000" fill="#FFFFFF" transform="matrix(0.865414,-0.501058,0.501058,0.865414,-11.570000,28.290000)"/><rect x="31.860000" y="30.220000" width="2.000000" height="11.110000" fill="#FFFFFF" transform="matrix(0.501813,-0.864976,0.864976,0.501813,-14.570000,46.250000)"/><rect x="39.000000" y="42.750000" width="2.000000" height="11.000000" fill="#FFFFFF"/><path d=" M 39.900002 27.180000 C 37.911777 27.180000 36.300003 25.568226 36.300003 23.580000 C 36.300003 21.591774 37.911777 19.980000 39.900002 19.980000 C 41.888226 19.980000 43.500000 21.591774 43.500000 23.580000 C 43.494507 25.565945 41.885944 27.174507 39.900002 27.180000 Z M 39.900002 21.980000 C 39.016346 21.980000 38.300003 22.696344 38.300003 23.580000 C 38.300003 24.463655 39.016346 25.180000 39.900002 25.180000 C 40.783657 25.180000 41.500000 24.463655 41.500000 23.580000 C 41.489052 22.704165 40.775902 21.999931 39.900002 22.000000 Z" fill="#FFFFFF"/><path d=" M 39.900002 43.500000 C 37.911777 43.500000 36.300003 41.888226 36.300003 39.900002 C 36.300003 37.911777 37.911777 36.300003 39.900002 36.300003 C 41.888226 36.300003 43.500000 37.911777 43.500000 39.900002 C 43.494507 41.885948 41.885944 43.494507 39.900002 43.500000 Z M 39.900002 38.299999 C 39.016346 38.299999 38.300003 39.016342 38.300003 39.899998 C 38.300003 40.783653 39.016346 41.499996 39.900002 41.499996 C 40.783657 41.499996 41.500000 40.783653 41.500000 39.899998 C 41.500000 39.016342 40.783657 38.299999 39.900002 38.299999 Z" fill="#FFFFFF"/><path d=" M 39.900002 59.750000 C 37.911777 59.750000 36.300003 58.138226 36.300003 56.150002 C 36.300003 54.161777 37.911777 52.550003 39.900002 52.550003 C 41.888226 52.550003 43.500000 54.161777 43.500000 56.150002 C 43.500000 58.138226 41.888226 59.750000 39.900002 59.750000 Z M 39.900002 54.560001 C 39.016346 54.560020 38.300014 55.276379 38.300034 56.160034 C 38.300053 57.043690 39.016411 57.760021 39.900066 57.760002 C 40.783722 57.759983 41.500053 57.043625 41.500034 56.159969 C 41.500034 56.156647 41.500023 56.153324 41.500004 56.150002 C 41.494507 55.270252 40.779770 54.559986 39.900005 54.560001 Z" fill="#FFFFFF"/><path d=" M 25.790001 35.320000 C 23.801775 35.320000 22.190001 33.708225 22.190001 31.719999 C 22.190001 29.731773 23.801775 28.119999 25.790001 28.119999 C 27.778227 28.119999 29.390001 29.731773 29.390001 31.719999 C 29.390001 33.708225 27.778227 35.320000 25.790001 35.320000 Z M 25.790001 30.129999 C 24.906345 30.130016 24.190016 30.846375 24.190033 31.730030 C 24.190050 32.613686 24.906408 33.330017 25.790064 33.329998 C 26.673719 33.329979 27.390049 32.613621 27.390032 31.729967 C 27.390032 31.726645 27.390022 31.723322 27.390001 31.719999 C 27.390018 30.841867 26.678165 30.129986 25.800034 30.129969 C 25.796690 30.129969 25.793346 30.129978 25.790003 30.129999 Z" fill="#FFFFFF"/><path d=" M 54.000000 51.610001 C 52.011776 51.609993 50.400005 49.998211 50.400013 48.009987 C 50.400021 46.021763 52.011803 44.409992 54.000027 44.410000 C 55.984341 44.410007 57.594486 46.015694 57.599998 48.000000 C 57.605522 49.988216 55.998230 51.604462 54.010014 51.609985 C 54.006676 51.609993 54.003338 51.610001 54.000000 51.610001 Z M 54.000000 46.410000 C 53.116344 46.410019 52.400013 47.126377 52.400032 48.010033 C 52.400051 48.893688 53.116409 49.610020 54.000065 49.610001 C 54.883720 49.609982 55.600052 48.893623 55.600033 48.009968 C 55.600033 48.006645 55.600021 48.003323 55.600002 48.000000 C 55.594505 47.120251 54.879768 46.409985 54.000004 46.410000 Z" fill="#FFFFFF"/><path d=" M 54.000000 35.320000 C 52.011784 35.325523 50.395538 33.718231 50.390015 31.730013 C 50.384491 29.741795 51.991783 28.125549 53.980000 28.120028 C 55.968216 28.114504 57.584461 29.721796 57.589985 31.710014 C 57.589993 31.713343 57.590000 31.716671 57.590000 31.720001 C 57.590008 33.704327 55.984318 35.314487 54.000000 35.320000 Z M 54.000000 30.129999 C 53.116360 30.124493 52.395569 30.836361 52.390060 31.719999 C 52.384556 32.603638 53.096420 33.324432 53.980061 33.329937 C 54.863701 33.335442 55.584492 32.623577 55.590000 31.739937 C 55.590042 31.733292 55.590042 31.726645 55.590000 31.719999 C 55.590000 30.841867 54.878132 30.129999 54.000000 30.129999 Z" fill="#FFFFFF"/><path d=" M 25.790001 51.610001 C 23.801775 51.610001 22.190001 49.998226 22.190001 48.010002 C 22.190001 46.021778 23.801775 44.410004 25.790001 44.410004 C 27.778227 44.410004 29.390001 46.021778 29.390001 48.010002 C 29.390001 49.998226 27.778227 51.610001 25.790001 51.610001 Z M 25.790001 46.410000 C 24.906345 46.410000 24.190001 47.126343 24.190001 48.009998 C 24.190001 48.893654 24.906345 49.609997 25.790001 49.609997 C 26.673656 49.609997 27.390001 48.893654 27.390001 48.009998 C 27.390001 47.126343 26.673656 46.410000 25.790001 46.410000 Z" fill="#FFFFFF"/><path d=" M 40.000000 65.250000 C 39.823914 65.248169 39.651432 65.199875 39.500000 65.110001 L 18.500000 53.000000 C 18.189365 52.820660 17.998575 52.488686 18.000000 52.130001 L 18.000000 27.879999 C 17.998575 27.521315 18.189365 27.189341 18.500000 27.009998 L 39.500000 14.890000 C 39.809402 14.711368 40.190598 14.711368 40.500000 14.890000 L 61.500000 27.000000 C 61.810635 27.179340 62.001423 27.511314 62.000000 27.870001 L 62.000000 52.119999 C 62.001423 52.478683 61.810635 52.810658 61.500000 52.989998 L 40.500000 65.110001 C 40.348568 65.199875 40.176086 65.248169 40.000000 65.250000 Z M 20.000000 51.549999 L 40.000000 63.090000 L 60.000000 51.549999 L 60.000000 28.450001 L 40.000000 16.910000 L 20.000000 28.450001 Z" fill="#FFFFFF"/><rect x="25.000000" y="37.750000" width="2.000000" height="4.000000" fill="#FFFFFF"/><rect x="53.000000" y="37.750000" width="2.000000" height="4.000000" fill="#FFFFFF"/><rect x="30.610000" y="26.550000" width="4.270000" height="2.000000" fill="#FFFFFF" transform="matrix(0.870871,-0.491512,0.491512,0.870871,-9.320000,19.650000)"/><rect x="45.860000" y="25.360000" width="2.000000" height="4.270000" fill="#FFFFFF" transform="matrix(0.510000,-0.860000,0.860000,0.510000,-0.550000,54.040000)"/><rect x="31.740000" y="49.900000" width="2.000000" height="4.270000" fill="#FFFFFF" transform="matrix(0.491816,-0.870699,0.870699,0.491816,-28.670000,54.950000)"/><rect x="44.720000" y="51.090000" width="4.270000" height="2.000000" fill="#FFFFFF" transform="matrix(0.860000,-0.510000,0.510000,0.860000,-19.900000,30.810000)"/></g></svg>