<svg version="1.1" width="80.000000" height="115.000000" viewBox="0.000000 0.000000 80.000000 115.000000" xmlns="http://www.w3.org/2000/svg" xmlns:xlink="http://www.w3.org/1999/xlink" overflow="hidden"><g id="CARDS"><rect x="1.000000" y="1.000000" width="78.000000" height="78.000000" fill="#232F3E"/><path d=" M 0.000000 0.000000 L 0.000000 80.000000 L 0.000000 80.000000 L 0.000000 115.000000 L 80.000000 115.000000 L 80.000000 80.000000 L 80.000000 80.000000 L 80.000000 0.000000 Z M 1.000000 1.000000 L 79.000000 1.000000 L 79.000000 79.000000 L 1.000000 79.000000 Z" fill="#FFFFFF"/></g><g id="TEXT_-_EDIT"><path d=" M 33.689999 92.349998 L 33.250000 90.529999 L 31.250000 90.529999 L 30.830000 92.349998 L 29.059999 92.349998 L 31.370001 84.720001 L 33.240002 84.720001 L 35.540001 92.349998 Z M 31.510000 89.430000 L 33.000000 89.430000 L 32.240002 86.269997 Z" fill="#232F3E"/><path d=" M 40.889999 92.349998 L 40.000000 86.720001 L 39.110001 92.349998 L 37.189999 92.349998 L 35.410000 84.720001 L 37.110001 84.720001 L 38.169998 90.779999 L 39.080002 85.000000 L 40.919998 85.000000 L 41.860001 90.650002 L 42.860001 84.650002 L 44.520000 84.650002 L 42.740002 92.279999 Z" fill="#232F3E"/><path d=" M 46.840000 89.000000 C 46.345402 88.768761 45.910801 88.426559 45.570000 88.000000 C 45.307678 87.644348 45.170536 87.211830 45.180000 86.769997 C 45.168892 86.354126 45.287739 85.945145 45.520000 85.599998 C 45.745701 85.259720 46.065289 84.992241 46.439999 84.830002 C 46.861813 84.643929 47.319042 84.551804 47.779999 84.560005 C 48.429764 84.562088 49.072483 84.694710 49.669998 84.950005 L 49.669998 86.120003 C 49.134098 85.923050 48.570534 85.811684 48.000000 85.790001 C 47.718163 85.774521 47.439480 85.855652 47.209999 86.020004 C 47.013199 86.172058 46.904575 86.411781 46.919998 86.660004 C 46.912312 86.862022 46.976040 87.060295 47.099998 87.220001 C 47.307770 87.423737 47.552021 87.586571 47.820000 87.700005 L 48.470001 88.019997 C 48.826054 88.187546 49.161602 88.395592 49.470001 88.639999 C 49.698788 88.827263 49.883213 89.062912 50.010002 89.330002 C 50.129375 89.621704 50.187252 89.934906 50.180000 90.250000 C 50.210262 90.886475 49.935429 91.499283 49.439999 91.900002 C 48.864475 92.329575 48.157295 92.545265 47.439999 92.510002 C 47.060139 92.510231 46.681335 92.470001 46.309998 92.389999 C 45.980469 92.326210 45.660961 92.218590 45.359997 92.070000 L 45.360001 90.919998 C 45.687019 91.026825 46.021187 91.110367 46.360001 91.169998 C 46.689121 91.238113 47.023945 91.274940 47.360001 91.279999 C 47.673580 91.302475 47.985077 91.213982 48.240002 91.029999 C 48.446396 90.853905 48.557594 90.590736 48.540001 90.320000 C 48.546089 90.107033 48.471024 89.899704 48.330002 89.739998 C 48.122326 89.543411 47.882092 89.384384 47.620003 89.269997 Z" fill="#232F3E"/><path d=" M 19.000000 106.349998 L 19.000000 101.000000 L 17.590000 104.459999 L 16.100000 104.459999 L 14.710000 101.000000 L 14.710000 106.320000 L 13.200000 106.320000 L 13.200000 98.720001 L 15.130000 98.720001 L 16.850000 103.000000 L 18.570000 98.730003 L 20.450001 98.730003 L 20.450001 106.360001 Z" fill="#232F3E"/><path d=" M 24.209999 106.489998 C 23.511232 106.527954 22.833464 106.244324 22.369999 105.720001 C 21.503984 104.392052 21.503984 102.677956 22.369999 101.349998 C 22.833464 100.825676 23.511232 100.542038 24.209999 100.580002 C 24.911686 100.541916 25.592552 100.825302 26.059999 101.349998 C 26.926014 102.677948 26.926014 104.392044 26.059999 105.720001 C 25.592552 106.244698 24.911686 106.528084 24.209999 106.489998 Z M 24.209999 105.339996 C 24.496319 105.350388 24.757557 105.177567 24.859999 104.909996 C 25.126797 104.016144 25.126797 103.063843 24.859999 102.169998 C 24.760918 101.898483 24.498890 101.721115 24.209999 101.729996 C 23.922861 101.719078 23.662626 101.897987 23.570000 102.169998 C 23.303202 103.063850 23.303202 104.016151 23.570000 104.909996 C 23.666113 105.178047 23.925508 105.352325 24.209999 105.339996 Z" fill="#232F3E"/><path d=" M 27.860001 106.349998 L 27.860001 98.209999 L 29.510000 98.209999 L 29.510000 101.110001 C 29.687929 100.939102 29.898914 100.806389 30.130001 100.720001 C 30.352392 100.629524 30.589918 100.582024 30.830002 100.580002 C 31.425909 100.544815 31.997448 100.821121 32.340000 101.310005 C 32.731548 101.955635 32.913227 102.706802 32.860001 103.460007 C 32.904045 104.229553 32.719654 104.994942 32.330002 105.660004 C 31.991409 106.169579 31.411285 106.465324 30.800001 106.440002 C 30.535275 106.438156 30.273548 106.383774 30.030001 106.279999 C 29.782831 106.178871 29.558418 106.029259 29.370001 105.839996 L 29.219999 106.349998 Z M 30.280001 101.699997 C 30.002935 101.697105 29.732523 101.784897 29.510000 101.949997 L 29.510000 105.059998 C 29.741758 105.223015 30.016724 105.313515 30.300001 105.320000 C 30.597124 105.335739 30.874065 105.169571 31.000002 104.900002 C 31.168619 104.463989 31.240280 103.996498 31.210001 103.529999 C 31.242287 103.050362 31.170654 102.569412 31.000002 102.119995 C 30.869173 101.845284 30.583525 101.678658 30.280003 101.699997 Z" fill="#232F3E"/><path d=" M 34.869999 99.809998 C 34.614758 99.822983 34.363182 99.745026 34.160000 99.589996 C 33.993370 99.439255 33.898819 99.224686 33.900002 99.000000 C 33.890194 98.767853 33.985737 98.543694 34.160000 98.389999 C 34.358116 98.224579 34.612518 98.142166 34.869999 98.159996 C 35.124100 98.144775 35.374443 98.227028 35.570000 98.389999 C 35.750450 98.539917 35.850357 98.765633 35.840000 99.000000 C 35.848816 99.234077 35.749195 99.459145 35.570000 99.610001 C 35.370083 99.762253 35.120174 99.833656 34.869999 99.809998 Z M 34.000000 106.349998 L 34.000000 100.720001 L 35.650002 100.720001 L 35.650002 106.349998 Z" fill="#232F3E"/><path d=" M 39.549999 106.250000 C 39.229740 106.365929 38.890442 106.420219 38.549999 106.410004 C 38.156990 106.444092 37.768002 106.309586 37.480000 106.040001 C 37.216511 105.729019 37.087055 105.326263 37.119999 104.919998 L 37.119999 98.209999 L 38.799999 98.209999 L 38.799999 104.750000 C 38.789196 104.888161 38.816887 105.026619 38.880001 105.150002 C 38.959671 105.241310 39.079937 105.286407 39.200001 105.270004 C 39.316490 105.279053 39.433510 105.279053 39.549999 105.270004 Z" fill="#232F3E"/><path d=" M 41.660000 103.919998 C 41.643261 104.308716 41.763599 104.690971 42.000000 105.000000 C 42.294472 105.248260 42.676643 105.367241 43.060001 105.330002 C 43.289204 105.323997 43.517132 105.293831 43.740002 105.240005 C 44.011528 105.190041 44.278942 105.119843 44.540001 105.030006 L 44.540001 106.029999 C 44.281761 106.177193 44.001507 106.281868 43.709999 106.339996 C 43.381474 106.411812 43.046276 106.448685 42.709999 106.449997 C 40.990002 106.449997 40.130001 105.449997 40.130001 103.500000 C 40.075516 102.713959 40.302364 101.934151 40.770000 101.300003 C 41.224651 100.776291 41.897926 100.495148 42.590000 100.540001 C 43.959999 100.540001 44.639999 101.300003 44.639999 102.830002 C 44.639126 103.166870 44.598854 103.502487 44.520000 103.830002 Z M 42.570000 101.599998 C 41.990002 101.599998 41.689999 102.059998 41.660000 102.970001 L 43.270000 102.970001 L 43.270000 102.720001 C 43.290443 102.423340 43.231781 102.126572 43.100002 101.860001 C 42.982513 101.684830 42.780445 101.585701 42.570004 101.599998 Z" fill="#232F3E"/><path d=" M 52.480000 106.349998 L 52.480000 103.050003 L 50.139999 103.050003 L 50.139999 106.349998 L 48.450001 106.349998 L 48.450001 98.720001 L 50.139999 98.720001 L 50.139999 101.870003 L 52.480000 101.870003 L 52.480000 98.720001 L 54.160000 98.720001 L 54.160000 106.349998 Z" fill="#232F3E"/><path d=" M 59.000000 106.349998 L 58.860001 105.839996 C 58.348083 106.235382 57.726242 106.462456 57.080002 106.489998 C 56.697655 106.511559 56.327374 106.352333 56.080002 106.059998 C 55.821697 105.700417 55.697830 105.261566 55.730003 104.820000 L 55.730000 100.720001 L 57.380001 100.720001 L 57.380001 104.339996 C 57.359489 104.603439 57.404137 104.867889 57.510002 105.109993 C 57.602516 105.267639 57.778038 105.357353 57.960003 105.339996 C 58.232059 105.331230 58.495869 105.244446 58.720001 105.089996 L 58.720001 100.720001 L 60.369999 100.720001 L 60.369999 106.349998 Z" fill="#232F3E"/><path d=" M 61.730000 106.349998 L 61.730000 98.209999 L 63.380001 98.209999 L 63.380001 101.110001 C 63.555984 100.941505 63.763203 100.809021 63.990002 100.720001 C 64.213051 100.631737 64.450157 100.584312 64.690002 100.580002 C 65.288605 100.545181 65.862961 100.821022 66.209999 101.310005 C 66.601547 101.955635 66.783226 102.706802 66.729996 103.460007 C 66.776573 104.231071 66.588295 104.998138 66.189995 105.660004 C 65.856003 106.169495 65.278656 106.465767 64.669998 106.440002 C 64.405273 106.438156 64.143547 106.383774 63.899998 106.279999 C 63.649261 106.180046 63.421352 106.030373 63.230000 105.839996 L 63.090000 106.349998 Z M 64.150002 101.699997 C 63.872936 101.697105 63.602524 101.784897 63.380001 101.949997 L 63.380001 105.059998 C 63.608673 105.221687 63.880051 105.312141 64.160004 105.320000 C 64.460670 105.339958 64.742706 105.173119 64.870003 104.900002 C 65.038620 104.463989 65.110283 103.996498 65.080002 103.529999 C 65.112289 103.050362 65.040657 102.569412 64.870003 102.119995 C 64.739174 101.845284 64.453529 101.678658 64.150002 101.699997 Z" fill="#232F3E"/></g><g id="ICONS_-_EDIT"><path d=" M 40.000000 49.560001 C 39.831608 49.557777 39.666500 49.513062 39.520000 49.430000 L 30.520000 44.529999 C 30.198521 44.354103 29.999001 44.016453 30.000000 43.649998 L 30.000000 33.830002 C 30.002644 33.467133 30.201654 33.134174 30.520000 32.960003 L 39.520000 28.049999 C 39.829403 27.871367 40.210598 27.871367 40.520000 28.049999 L 49.520000 32.959999 C 49.838348 33.134171 50.037357 33.467133 50.040001 33.829998 L 50.040001 43.650002 C 50.041000 44.016457 49.841480 44.354103 49.520000 44.530003 L 40.520000 49.430000 C 40.361725 49.519844 40.181934 49.564793 40.000000 49.560001 Z M 32.000000 43.049999 L 40.000000 47.419998 L 48.000000 43.049999 L 48.000000 34.430000 L 40.000000 30.059999 L 32.000000 34.430000 Z" fill="#FFFFFF"/><rect x="19.000000" y="30.650000" width="2.000000" height="10.000000" fill="#FFFFFF"/><rect x="22.220000" y="21.720000" width="9.820000" height="2.000000" fill="#FFFFFF" transform="matrix(0.875296,-0.483588,0.483588,0.875296,-7.600000,15.950000)"/><path d=" M 34.500000 23.150000 C 32.014717 23.150000 30.000000 21.135281 30.000000 18.650000 C 30.000000 16.164719 32.014717 14.150000 34.500000 14.150000 C 36.985283 14.150000 39.000000 16.164719 39.000000 18.650000 C 38.994499 21.132999 36.983002 23.144501 34.500000 23.150000 Z M 34.500000 16.150000 C 33.119289 16.150000 32.000000 17.269287 32.000000 18.650000 C 32.000000 20.030712 33.119289 21.150000 34.500000 21.150000 C 35.880711 21.150000 37.000000 20.030712 37.000000 18.650000 C 37.000000 17.269287 35.880711 16.150000 34.500000 16.150000 Z" fill="#FFFFFF"/><path d=" M 20.000000 31.650000 C 17.514719 31.650000 15.500000 29.635281 15.500000 27.150000 C 15.500000 24.664719 17.514719 22.650000 20.000000 22.650000 C 22.485281 22.650000 24.500000 24.664719 24.500000 27.150000 C 24.494501 29.632999 22.483000 31.644501 20.000000 31.650000 Z M 20.000000 24.650000 C 18.619287 24.650000 17.500000 25.769287 17.500000 27.150000 C 17.500000 28.530712 18.619287 29.650000 20.000000 29.650000 C 21.380713 29.650000 22.500000 28.530712 22.500000 27.150000 C 22.500000 25.769287 21.380713 24.650000 20.000000 24.650000 Z" fill="#FFFFFF"/><path d=" M 20.000000 48.650002 C 17.514719 48.650002 15.500000 46.635284 15.500000 44.150002 C 15.500000 41.664719 17.514719 39.650002 20.000000 39.650002 C 22.485281 39.650002 24.500000 41.664719 24.500000 44.150002 C 24.494501 46.633003 22.483000 48.644501 20.000000 48.650002 Z M 20.000000 41.650002 C 18.619287 41.650002 17.500000 42.769291 17.500000 44.150002 C 17.500000 45.530712 18.619287 46.650002 20.000000 46.650002 C 21.380713 46.650002 22.500000 45.530712 22.500000 44.150002 C 22.500000 42.769291 21.380713 41.650002 20.000000 41.650002 Z" fill="#FFFFFF"/><rect x="51.870000" y="17.800000" width="2.000000" height="9.820000" fill="#FFFFFF" transform="matrix(0.483435,-0.875380,0.875380,0.483435,7.420000,58.010000)"/><rect x="59.000000" y="30.650000" width="2.000000" height="10.000000" fill="#FFFFFF"/><path d=" M 45.500000 23.150000 C 43.014717 23.150000 41.000000 21.135281 41.000000 18.650000 C 41.000000 16.164719 43.014717 14.150000 45.500000 14.150000 C 47.985283 14.150000 50.000000 16.164719 50.000000 18.650000 C 49.994499 21.132999 47.983002 23.144501 45.500000 23.150000 Z M 45.500000 16.150000 C 44.119289 16.150000 43.000000 17.269287 43.000000 18.650000 C 43.000000 20.030712 44.119289 21.150000 45.500000 21.150000 C 46.880711 21.150000 48.000000 20.030712 48.000000 18.650000 C 48.000000 17.269287 46.880711 16.150000 45.500000 16.150000 Z" fill="#FFFFFF"/><path d=" M 60.000000 31.650000 C 57.514717 31.650000 55.500000 29.635281 55.500000 27.150000 C 55.500000 24.664719 57.514717 22.650000 60.000000 22.650000 C 62.485283 22.650000 64.500000 24.664719 64.500000 27.150000 C 64.494499 29.632999 62.483002 31.644501 60.000000 31.650000 Z M 60.000000 24.650000 C 58.619289 24.650000 57.500000 25.769287 57.500000 27.150000 C 57.500000 28.530712 58.619289 29.650000 60.000000 29.650000 C 61.380711 29.650000 62.500000 28.530712 62.500000 27.150000 C 62.500000 25.769287 61.380711 24.650000 60.000000 24.650000 Z" fill="#FFFFFF"/><path d=" M 60.000000 48.650002 C 57.514717 48.650002 55.500000 46.635284 55.500000 44.150002 C 55.500000 41.664719 57.514717 39.650002 60.000000 39.650002 C 62.485283 39.650002 64.500000 41.664719 64.500000 44.150002 C 64.494499 46.633003 62.483002 48.644501 60.000000 48.650002 Z M 60.000000 41.650002 C 58.619289 41.650002 57.500000 42.769291 57.500000 44.150002 C 57.500000 45.530712 58.619289 46.650002 60.000000 46.650002 C 61.380711 46.650002 62.500000 45.530712 62.500000 44.150002 C 62.500000 42.769291 61.380711 41.650002 60.000000 41.650002 Z" fill="#FFFFFF"/><rect x="42.590000" y="56.610000" width="9.490000" height="2.000000" fill="#FFFFFF" transform="matrix(0.875296,-0.483588,0.483588,0.875296,-21.950000,30.070000)"/><rect x="32.110000" y="53.270000" width="2.000000" height="8.710000" fill="#FFFFFF" transform="matrix(0.514440,-0.857527,0.857527,0.514440,-33.340000,56.370000)"/><path d=" M 54.470001 58.000000 C 51.984722 58.002186 49.968231 55.989239 49.966045 53.503960 C 49.963860 51.018681 51.976807 49.002190 54.462086 49.000004 C 55.657902 48.998951 56.804958 49.473907 57.650002 50.320000 L 57.650002 50.320000 C 59.406269 52.078453 59.404495 54.927692 57.646046 56.683960 C 56.803265 57.525696 55.661137 57.998951 54.470001 58.000000 Z M 54.470001 51.000000 C 53.089294 50.996941 51.967529 52.113747 51.964470 53.494457 C 51.961411 54.875164 53.078217 55.996929 54.458927 55.999989 C 55.839634 56.003048 56.961399 54.886242 56.964458 53.505531 C 56.965935 52.839481 56.701565 52.200375 56.230003 51.730000 C 55.765865 51.259163 55.131138 50.995892 54.470005 51.000000 Z" fill="#FFFFFF"/><path d=" M 40.000000 65.849998 C 37.514721 65.852188 35.498230 63.839237 35.496044 61.353958 C 35.493858 58.868679 37.506805 56.852188 39.992085 56.850002 C 41.187901 56.848949 42.334957 57.323906 43.180000 58.169998 L 43.180000 58.169998 C 44.936268 59.928452 44.934494 62.777691 43.176044 64.533958 C 42.333263 65.375694 41.191135 65.848953 40.000000 65.849998 Z M 40.000000 58.849998 C 38.613777 58.844650 37.485683 59.964073 37.480339 61.350300 C 37.474991 62.736523 38.594414 63.864616 39.980640 63.869961 C 41.366863 63.875309 42.494957 62.755886 42.500301 61.369659 C 42.502872 60.702991 42.240120 60.062691 41.770000 59.589996 L 41.770000 59.590000 C 41.301888 59.117764 40.664932 58.851463 40.000000 58.849998 Z" fill="#FFFFFF"/><path d=" M 26.530001 57.830002 C 25.335379 57.836777 24.188658 57.360779 23.350000 56.510002 C 21.593735 54.750977 21.595974 51.901268 23.355000 50.145000 C 25.114027 48.388737 27.963734 48.390972 29.719999 50.150002 L 29.719999 50.150002 C 31.469229 51.909176 31.469229 54.750828 29.719999 56.510002 C 28.878267 57.362309 27.727859 57.838341 26.529999 57.830002 Z M 26.530001 50.830002 C 25.149292 50.833054 24.032480 51.954811 24.035532 53.335522 C 24.036995 53.997746 24.301144 54.632332 24.770000 55.100002 C 25.756506 56.046062 27.313496 56.046062 28.300001 55.100002 C 29.277548 54.124928 29.279552 52.542019 28.304478 51.564472 C 27.834362 51.093163 27.195688 50.828812 26.530001 50.830002 Z" fill="#FFFFFF"/></g></svg>