<svg id="Product_Icon" data-name="Product Icon" xmlns="http://www.w3.org/2000/svg" xmlns:xlink="http://www.w3.org/1999/xlink" width="75" height="75" viewBox="0 0 75 75"><defs><linearGradient id="GreenGradient" x1="-37.5" y1="37.5" x2="112.5" y2="37.5" gradientTransform="translate(-15.53 37.5) rotate(-45)" gradientUnits="userSpaceOnUse"><stop offset="0" stop-color="#1b660f"/><stop offset="1" stop-color="#6cae3e"/></linearGradient></defs><title>AWS-IoT-SiteWise</title><rect id="Green_Gradient" data-name="Green Gradient" width="75" height="75" style="fill:url(#GreenGradient)"/><g id="Icon_Test" data-name="Icon Test"><path d="M20.7,48.44a1,1,0,0,1-.46-.11l-6.68-3.48A1,1,0,0,1,13,44a1,1,0,0,1,.54-.88l3.86-2,.9,1.78L16.21,44l4.49,2.34L25.37,44,23,42.74,24,41,28,43.08a1,1,0,0,1,.53.89,1,1,0,0,1-.54.89l-6.86,3.47A.91.91,0,0,1,20.7,48.44Z" style="fill:#fff"/><path d="M37.41,56.46a.92.92,0,0,1-.46-.11l-6.68-3.48a1,1,0,0,1-.53-.89,1,1,0,0,1,.54-.88l4-2,.91,1.78L32.92,52l4.49,2.34L42.08,52,39.9,50.84l.92-1.77,3.91,2a1,1,0,0,1,.53.89,1,1,0,0,1-.54.89l-6.86,3.47A.91.91,0,0,1,37.41,56.46Z" style="fill:#fff"/><path d="M54.12,48.44a1,1,0,0,1-.46-.11L47,44.85a1,1,0,0,1-.53-.89,1,1,0,0,1,.54-.88l3.85-1.95.9,1.78L49.63,44l4.49,2.34L58.79,44l-2.33-1.21L57.38,41l4.06,2.11A1,1,0,0,1,62,44a1,1,0,0,1-.54.89l-6.86,3.47A.91.91,0,0,1,54.12,48.44Z" style="fill:#fff"/><path d="M54.14,44.26a4.39,4.39,0,1,1,4.38-4.38A4.39,4.39,0,0,1,54.14,44.26Zm0-6.77a2.39,2.39,0,1,0,2.38,2.39A2.39,2.39,0,0,0,54.14,37.49Z" style="fill:#fff"/><path d="M20.75,44.26a4.39,4.39,0,1,1,4.39-4.38A4.39,4.39,0,0,1,20.75,44.26Zm0-6.77a2.39,2.39,0,1,0,2.39,2.39A2.39,2.39,0,0,0,20.75,37.49Z" style="fill:#fff"/><path d="M37.54,52.45a4.39,4.39,0,1,1,4.39-4.38A4.39,4.39,0,0,1,37.54,52.45Zm0-6.77a2.39,2.39,0,1,0,2.39,2.39A2.39,2.39,0,0,0,37.54,45.68Z" style="fill:#fff"/><rect x="46.58" y="29.64" width="2" height="9.27" transform="translate(-9.94 45.66) rotate(-46.96)" style="fill:#fff"/><rect x="21.62" y="33.2" width="11.28" height="2" transform="translate(-15.99 27.71) rotate(-42.9)" style="fill:#fff"/><path d="M37.73,35.15A8.31,8.31,0,1,1,46,26.85,8.31,8.31,0,0,1,37.73,35.15Zm0-14.61A6.31,6.31,0,1,0,44,26.85,6.32,6.32,0,0,0,37.73,20.54Z" style="fill:#fff"/><rect x="36.54" y="34.74" width="2" height="9.61" style="fill:#fff"/></g></svg>