<svg version="1.1" viewBox="0.000000 0.000000 80.000000 115.000000" xmlns="http://www.w3.org/2000/svg" xmlns:xlink="http://www.w3.org/1999/xlink" overflow="hidden"><defs></defs><g id="CARDS"><rect x="1.000000" y="1.000000" width="78.000000" height="78.000000" fill="#232F3E"/><path d=" M 0.000000 0.000000 L 0.000000 80.000000 L 0.000000 80.000000 L 0.000000 115.000000 L 80.000000 115.000000 L 80.000000 80.000000 L 80.000000 80.000000 L 80.000000 0.000000 Z M 1.000000 1.000000 L 79.000000 1.000000 L 79.000000 79.000000 L 1.000000 79.000000 Z" fill="#FFFFFF"/></g><g id="TEXT_-_EDIT"><path d=" M 25.350000 92.349998 L 24.920000 90.529999 L 22.920000 90.529999 L 22.500000 92.349998 L 20.719999 92.349998 L 23.000000 84.720001 L 24.900000 84.720001 L 27.209999 92.349998 Z M 23.170000 89.430000 L 24.660000 89.430000 L 23.900000 86.269997 Z" fill="#232F3E"/><path d=" M 34.060001 92.349998 L 34.060001 88.639999 C 34.076664 88.401566 34.028278 88.163086 33.920002 87.949997 C 33.819908 87.796371 33.642418 87.711487 33.460003 87.729996 C 33.174831 87.743271 32.898491 87.833084 32.660004 87.989998 C 32.664822 88.029854 32.664822 88.070145 32.660004 88.110001 L 32.660000 92.349998 L 31.000000 92.349998 L 31.000000 88.639999 C 31.019257 88.402504 30.974358 88.164200 30.870001 87.949997 C 30.765142 87.796478 30.585056 87.712181 30.400002 87.729996 C 30.121338 87.744865 29.851856 87.834694 29.620001 87.989998 L 29.620001 92.349998 L 28.000000 92.349998 L 28.000000 86.720001 L 29.350000 86.720001 L 29.480000 87.230003 C 30.005705 86.838974 30.635632 86.612755 31.289999 86.580002 C 31.787903 86.543671 32.259682 86.807076 32.489998 87.250000 C 33.020988 86.851845 33.657448 86.618820 34.320000 86.580002 C 34.698605 86.567619 35.063778 86.720993 35.320000 87.000000 C 35.580429 87.351334 35.707973 87.783562 35.680000 88.220001 L 35.680000 92.349998 Z" fill="#232F3E"/><path d=" M 40.000000 92.349998 L 39.860001 91.839996 C 39.704742 92.042564 39.502155 92.203949 39.270000 92.309998 C 39.023094 92.427322 38.753361 92.488777 38.480000 92.489998 C 38.038441 92.498497 37.613724 92.320625 37.310001 92.000000 C 37.006588 91.668808 36.851307 91.228241 36.880001 90.779999 C 36.856857 90.286880 37.050484 89.808296 37.410000 89.470001 C 37.807274 89.133095 38.320316 88.964470 38.840000 89.000000 C 39.154030 89.006668 39.466179 89.050301 39.770000 89.129997 L 39.770000 88.620003 C 39.797573 88.349762 39.741737 88.077560 39.610001 87.840004 C 39.445477 87.687714 39.222755 87.614693 39.000000 87.640007 C 38.395546 87.665237 37.798565 87.783279 37.230000 87.990005 L 37.230000 87.000000 C 37.516563 86.840446 37.827354 86.728966 38.149998 86.669998 C 38.528015 86.589485 38.913502 86.549255 39.299999 86.549995 C 39.843796 86.502090 40.385880 86.659012 40.820000 86.989998 C 41.164772 87.366852 41.335323 87.871239 41.290001 88.379997 L 41.290001 92.320000 Z M 39.000000 91.430000 C 39.298344 91.418404 39.580971 91.293190 39.790001 91.080002 L 39.790001 90.000000 C 39.587475 89.948616 39.378887 89.925064 39.170002 89.930000 C 38.969070 89.911972 38.770714 89.985435 38.630001 90.129997 C 38.490948 90.293694 38.422604 90.505920 38.440002 90.719994 C 38.429714 90.905304 38.482594 91.088631 38.590004 91.239990 C 38.687565 91.366325 38.840549 91.437218 39.000004 91.429993 Z" fill="#232F3E"/><path d=" M 42.279999 92.349998 L 42.279999 91.279999 L 44.770000 87.879997 L 42.369999 87.879997 L 42.369999 86.720001 L 46.509998 86.720001 L 46.509998 87.790001 L 44.000000 91.190002 L 46.540001 91.190002 L 46.540001 92.349998 Z" fill="#232F3E"/><path d=" M 49.790001 92.489998 C 49.108715 92.511253 48.453094 92.229225 48.000000 91.720001 C 47.133984 90.392052 47.133984 88.677956 48.000000 87.349998 C 49.011749 86.331032 50.657967 86.325180 51.676933 87.336929 C 51.681305 87.341270 51.685661 87.345627 51.690002 87.349998 C 52.556019 88.677948 52.556019 90.392044 51.690002 91.720001 C 51.211487 92.259041 50.508781 92.543823 49.790001 92.489998 Z M 49.790001 91.339996 C 50.076321 91.350388 50.337559 91.177567 50.440002 90.909996 C 50.706799 90.016144 50.706799 89.063843 50.440002 88.169998 C 50.304638 87.813774 49.906124 87.634735 49.549900 87.770103 C 49.365585 87.840141 49.220043 87.985687 49.150002 88.169998 C 48.883205 89.063850 48.883205 90.016151 49.150002 90.909996 C 49.248730 91.175995 49.506416 91.349129 49.790001 91.339996 Z" fill="#232F3E"/><path d=" M 56.549999 92.349998 L 56.549999 88.650002 C 56.566494 88.408363 56.518166 88.166710 56.410000 87.950005 C 56.294102 87.793236 56.103878 87.709541 55.910000 87.730003 C 55.621128 87.739960 55.340698 87.829971 55.099998 87.990005 L 55.099998 92.349998 L 53.439999 92.349998 L 53.439999 86.720001 L 54.790001 86.720001 L 54.930000 87.230003 C 55.464371 86.833908 56.105400 86.607452 56.770000 86.580002 C 57.171432 86.553581 57.563728 86.707565 57.840000 87.000000 C 58.102020 87.350540 58.229740 87.783371 58.200001 88.220001 L 58.200001 92.349998 Z" fill="#232F3E"/><path d=" M 17.650000 106.349998 L 17.650000 98.720001 L 22.000000 98.720001 L 22.000000 99.900002 L 19.340000 99.900002 L 19.340000 102.000000 L 21.420000 102.000000 L 21.420000 103.169998 L 19.340000 103.169998 L 19.340000 106.389999 Z" fill="#232F3E"/><path d=" M 22.799999 106.349998 L 22.799999 100.720001 L 24.150000 100.720001 L 24.330000 101.449997 C 24.529730 101.212708 24.770157 101.012917 25.039999 100.860001 C 25.273048 100.733055 25.534628 100.667656 25.799999 100.669998 L 26.180000 100.669998 L 26.180000 102.000000 C 25.966900 101.985909 25.753101 101.985909 25.540001 102.000000 C 25.161373 102.000565 24.788116 102.089600 24.450001 102.260002 L 24.450001 106.370003 Z" fill="#232F3E"/><path d=" M 28.150000 103.919998 C 28.129250 104.324760 28.257298 104.723129 28.510000 105.040001 C 28.804474 105.288261 29.186644 105.407242 29.570000 105.370003 C 29.799200 105.363998 30.027128 105.333832 30.250000 105.280006 C 30.521252 105.228806 30.788574 105.158638 31.049999 105.070007 L 31.049999 106.070000 C 30.790979 106.215523 30.511000 106.320099 30.219999 106.379997 C 29.891476 106.451813 29.556278 106.488686 29.219999 106.489998 C 27.500000 106.489998 26.639999 105.489998 26.639999 103.540001 C 26.586962 102.755630 26.809818 101.977402 27.269999 101.340004 C 27.728687 100.815964 28.405022 100.535088 29.099998 100.580002 C 30.459999 100.580002 31.150000 101.339996 31.150000 102.870003 C 31.149126 103.206871 31.108852 103.542488 31.029999 103.870003 Z M 29.059999 101.599998 C 28.480000 101.599998 28.180000 102.059998 28.150000 102.970001 L 29.760000 102.970001 L 29.760000 102.720001 C 29.780443 102.423340 29.721779 102.126572 29.590000 101.860001 C 29.472509 101.684830 29.270441 101.585701 29.059999 101.599998 Z" fill="#232F3E"/><path d=" M 33.509998 103.919998 C 33.489250 104.324760 33.617298 104.723129 33.869999 105.040001 C 34.164471 105.288261 34.546642 105.407242 34.930000 105.370003 C 35.159203 105.363998 35.387131 105.333832 35.610001 105.280006 C 35.881527 105.230042 36.148941 105.159843 36.410000 105.070007 L 36.410000 106.070000 C 36.151760 106.217194 35.871506 106.321869 35.579998 106.379997 C 35.251472 106.451813 34.916275 106.488686 34.579998 106.489998 C 32.860001 106.489998 32.000000 105.489998 32.000000 103.540001 C 31.945513 102.753960 32.172363 101.974152 32.639999 101.340004 C 33.094650 100.816292 33.767925 100.535149 34.459999 100.580002 C 35.830002 100.580002 36.509998 101.339996 36.509998 102.870003 C 36.509125 103.206871 36.468853 103.542488 36.389999 103.870003 Z M 34.419998 101.599998 C 33.840000 101.599998 33.540001 102.059998 33.509998 102.970001 L 35.119999 102.970001 L 35.119999 102.720001 C 35.140442 102.423340 35.081779 102.126572 34.950001 101.860001 C 34.832512 101.684830 34.630444 101.585701 34.420002 101.599998 Z" fill="#232F3E"/><path d=" M 41.520000 106.349998 L 40.060001 103.519997 L 39.410000 103.519997 L 39.410000 106.349998 L 37.759998 106.349998 L 37.759998 98.720001 L 40.400002 98.720001 C 41.050743 98.687714 41.686459 98.922493 42.160000 99.370003 C 42.616875 99.834206 42.856548 100.469711 42.820000 101.120003 C 42.832397 101.585030 42.718346 102.044708 42.489998 102.450005 C 42.280582 102.820808 41.958275 103.115089 41.570000 103.290001 L 43.250000 106.349998 Z M 39.410000 102.349998 L 40.189999 102.349998 C 40.465878 102.368416 40.733788 102.253067 40.910000 102.040001 C 41.090740 101.761032 41.178276 101.431900 41.160000 101.099998 C 41.179668 100.771095 41.091930 100.444710 40.910000 100.169998 C 40.738014 99.950409 40.468243 99.830513 40.189999 99.849998 L 39.410000 99.849998 Z" fill="#232F3E"/><path d=" M 45.490002 106.349998 L 45.490002 99.940002 L 43.490002 99.940002 L 43.490002 98.720001 L 49.180000 98.720001 L 49.180000 99.940002 L 47.180000 99.940002 L 47.180000 106.349998 Z" fill="#232F3E"/><path d=" M 49.669998 102.529999 C 49.606968 101.479919 49.918827 100.441574 50.549999 99.599998 C 51.880260 98.235855 54.064507 98.208389 55.428650 99.538651 C 55.449356 99.558846 55.469807 99.579292 55.489998 99.599998 C 56.125969 100.439148 56.438374 101.479309 56.369999 102.529999 C 56.436325 103.583542 56.124252 104.626152 55.489998 105.470001 C 54.159737 106.834145 51.975491 106.861610 50.611347 105.531349 C 50.590641 105.511154 50.570190 105.490707 50.549999 105.470001 C 49.919689 104.624168 49.608059 103.583038 49.669998 102.529999 Z M 51.410000 102.529999 C 51.371368 103.220909 51.512638 103.910019 51.820000 104.529999 C 52.051331 104.975418 52.518410 105.247879 53.020000 105.229996 C 53.523922 105.246910 53.993462 104.975273 54.230000 104.529999 C 54.533119 103.908569 54.674156 103.220573 54.639999 102.529999 C 54.682682 101.820580 54.545074 101.111893 54.239998 100.470001 C 53.990463 100.026222 53.507954 99.765511 52.999996 99.800003 C 52.501465 99.772446 52.031200 100.032837 51.789997 100.470001 C 51.486652 101.112038 51.355690 101.821991 51.409996 102.529999 Z" fill="#232F3E"/><path d=" M 59.000000 103.000000 C 58.502724 102.768532 58.064915 102.426491 57.720001 102.000000 C 57.461235 101.643089 57.327644 101.210678 57.340000 100.769997 C 57.329803 100.355682 57.444813 99.947922 57.670002 99.599998 C 57.902126 99.261627 58.224258 98.994911 58.600002 98.830002 C 59.021118 98.641739 59.478840 98.549515 59.940002 98.560005 C 60.589569 98.563965 61.231926 98.696510 61.830002 98.950005 L 61.830002 100.120003 C 61.277973 99.918839 60.697281 99.807426 60.110001 99.790001 C 59.825069 99.774620 59.543255 99.855637 59.310001 100.020004 C 59.117279 100.175255 59.009666 100.412743 59.020000 100.660004 C 59.010494 100.863945 59.078354 101.063950 59.209999 101.220001 C 59.413887 101.428474 59.659142 101.591980 59.930000 101.700005 L 60.580002 102.019997 C 60.936573 102.186584 61.272232 102.394691 61.580002 102.639999 C 61.815289 102.820801 62.001045 103.058159 62.120003 103.330002 C 62.247581 103.619499 62.309071 103.933777 62.300003 104.250000 C 62.330265 104.886475 62.055431 105.499283 61.560001 105.900002 C 60.982971 106.326584 60.276882 106.541946 59.560001 106.510002 C 59.180202 106.509125 58.801514 106.468910 58.430000 106.389999 C 58.100887 106.324646 57.781582 106.217087 57.480000 106.070000 L 57.480000 104.919998 C 57.807159 105.026321 58.141293 105.109856 58.480000 105.169998 C 58.809120 105.238113 59.143944 105.274940 59.480000 105.279999 C 59.793755 105.304230 60.105843 105.215561 60.360001 105.029999 C 60.566395 104.853905 60.677593 104.590736 60.660000 104.320000 C 60.666088 104.107033 60.591022 103.899704 60.450001 103.739998 C 60.246231 103.543251 60.009239 103.384132 59.750000 103.269997 Z" fill="#232F3E"/></g><g id="ICONS_-_EDIT"><path d=" M 65.000000 26.000000 L 65.000000 24.000000 L 61.000000 24.000000 L 61.000000 21.000000 C 61.000000 20.447716 60.552284 20.000000 60.000000 20.000000 L 20.000000 20.000000 C 19.447716 20.000000 19.000000 20.447716 19.000000 21.000000 L 19.000000 24.000000 L 15.000000 24.000000 L 15.000000 26.000000 L 19.000000 26.000000 L 19.000000 29.000000 L 15.000000 29.000000 L 15.000000 31.000000 L 19.000000 31.000000 L 19.000000 34.000000 L 15.000000 34.000000 L 15.000000 36.000000 L 19.000000 36.000000 L 19.000000 39.000000 L 15.000000 39.000000 L 15.000000 41.000000 L 19.000000 41.000000 L 19.000000 44.000000 L 15.000000 44.000000 L 15.000000 46.000000 L 19.000000 46.000000 L 19.000000 49.000000 L 15.000000 49.000000 L 15.000000 51.000000 L 19.000000 51.000000 L 19.000000 54.000000 L 15.000000 54.000000 L 15.000000 56.000000 L 19.000000 56.000000 L 19.000000 59.000000 C 19.000000 59.552284 19.447716 60.000000 20.000000 60.000000 L 60.000000 60.000000 C 60.552284 60.000000 61.000000 59.552284 61.000000 59.000000 L 61.000000 56.000000 L 65.000000 56.000000 L 65.000000 54.000000 L 61.000000 54.000000 L 61.000000 51.000000 L 65.000000 51.000000 L 65.000000 49.000000 L 61.000000 49.000000 L 61.000000 46.000000 L 65.000000 46.000000 L 65.000000 44.000000 L 61.000000 44.000000 L 61.000000 41.000000 L 65.000000 41.000000 L 65.000000 39.000000 L 61.000000 39.000000 L 61.000000 36.000000 L 65.000000 36.000000 L 65.000000 34.000000 L 61.000000 34.000000 L 61.000000 31.000000 L 65.000000 31.000000 L 65.000000 29.000000 L 61.000000 29.000000 L 61.000000 26.000000 Z M 59.000000 58.000000 L 21.000000 58.000000 L 21.000000 22.000000 L 59.000000 22.000000 Z" fill="#FFFFFF"/><path d=" M 51.110001 35.889999 C 49.951092 32.598572 47.384659 29.995478 44.110001 28.789999 C 43.951561 26.520109 41.983009 24.808439 39.713120 24.966879 C 37.663837 25.109921 36.033039 26.740719 35.889999 28.789999 C 32.618629 30.006033 30.054882 32.610069 28.889999 35.899998 C 26.623081 36.152489 24.990067 38.194874 25.242558 40.461792 C 25.460882 42.421951 27.034700 43.954205 28.999998 44.119999 C 29.420666 45.202198 30.004049 46.213844 30.729998 47.119999 L 30.950001 47.389999 C 32.037781 48.706318 33.403900 49.765064 34.950001 50.489998 L 34.950001 55.000000 L 36.950001 55.000000 L 36.950001 51.240002 C 37.604130 51.421455 38.273655 51.541969 38.950001 51.600002 L 38.950001 55.000000 L 40.950001 55.000000 L 40.950001 51.599998 C 41.626034 51.545238 42.295551 51.428074 42.950001 51.250000 L 42.950001 55.000000 L 44.950001 55.000000 L 44.950001 50.520000 C 47.691456 49.227783 49.837154 46.939037 50.950001 44.119999 C 53.225441 43.961781 54.941792 41.988907 54.783569 39.713467 C 54.643833 37.703869 53.074669 36.088264 51.070000 35.889999 Z M 29.600000 42.099998 C 29.476881 42.110294 29.353119 42.110294 29.230000 42.099998 C 28.053633 42.099998 27.100000 41.146366 27.100000 39.969997 C 27.100000 38.793633 28.053635 37.839996 29.230000 37.839996 C 29.362894 37.824707 29.497105 37.824707 29.629999 37.839996 C 30.787035 38.052376 31.552832 39.162506 31.340454 40.319542 C 31.180763 41.189541 30.499996 41.870304 29.629999 42.029995 Z M 35.000000 48.259998 C 34.045189 47.698143 33.195778 46.973946 32.490002 46.119999 C 32.490002 46.119999 32.410000 46.029999 32.340000 45.930000 C 31.795420 45.260979 31.344601 44.520828 31.000000 43.730000 C 32.116554 43.202293 32.935760 42.199409 33.230000 41.000000 L 35.000000 41.000000 Z M 39.000000 49.590000 C 38.319355 49.521877 37.648499 49.377644 37.000000 49.160000 L 37.000000 40.000000 C 37.000000 39.447716 36.552284 39.000000 36.000000 39.000000 L 33.230000 39.000000 C 32.927780 37.761482 32.066635 36.734024 30.900000 36.220001 C 31.873419 33.771038 33.795807 31.819794 36.230000 30.810001 C 36.748108 31.965656 37.770073 32.817909 39.000000 33.120003 Z M 40.000000 31.250000 C 38.986244 31.246988 38.113693 30.533085 37.910000 29.540001 C 37.894726 29.403761 37.894726 29.266241 37.910000 29.130001 C 37.910000 27.953634 38.863632 27.000002 40.040001 27.000002 C 41.216366 27.000002 42.170002 27.953636 42.170002 29.130001 C 42.179886 29.239779 42.179886 29.350224 42.170002 29.460001 C 42.003708 30.519741 41.072029 31.288269 40.000004 31.250002 Z M 44.000000 39.000000 C 43.447716 39.000000 43.000000 39.447716 43.000000 40.000000 L 43.000000 49.160000 C 42.351841 49.378880 41.680843 49.523144 41.000000 49.590000 L 41.000000 33.119999 C 42.234348 32.815750 43.259792 31.959982 43.779999 30.799999 C 46.212353 31.814323 48.131142 33.769180 49.099998 36.219997 C 47.933365 36.734020 47.072220 37.761482 46.769997 38.999996 Z M 45.000000 48.259998 L 45.000000 41.000000 L 46.770000 41.000000 C 47.062920 42.200069 47.882538 43.203457 49.000000 43.730000 C 48.165760 45.616390 46.768608 47.198662 45.000000 48.259998 Z M 50.830002 42.130001 L 50.770000 42.130001 C 49.593636 42.130001 48.639999 41.176369 48.639999 40.000000 C 48.639999 38.823635 49.593632 37.869999 50.770000 37.869999 L 50.770000 37.869999 C 51.946365 37.869999 52.900002 38.823631 52.900002 40.000000 C 52.900002 41.176365 51.946369 42.130001 50.770000 42.130001 Z" fill="#FFFFFF"/></g></svg>