<svg version="1.1" width="80.000000" height="115.000000" viewBox="0.000000 0.000000 80.000000 115.000000" xmlns="http://www.w3.org/2000/svg" xmlns:xlink="http://www.w3.org/1999/xlink" overflow="hidden"><g id="CARDS"><rect x="1.000000" y="1.000000" width="78.000000" height="78.000000" fill="#232F3E"/><path d=" M 0.000000 0.000000 L 0.000000 80.000000 L 0.000000 80.000000 L 0.000000 115.000000 L 80.000000 115.000000 L 80.000000 80.000000 L 80.000000 80.000000 L 80.000000 0.000000 Z M 1.000000 1.000000 L 79.000000 1.000000 L 79.000000 79.000000 L 1.000000 79.000000 Z" fill="#FFFFFF"/></g><g id="TEXT_-_EDIT"><path d=" M 33.689999 92.349998 L 33.250000 90.529999 L 31.250000 90.529999 L 30.830000 92.349998 L 29.059999 92.349998 L 31.370001 84.720001 L 33.240002 84.720001 L 35.540001 92.349998 Z M 31.510000 89.430000 L 33.000000 89.430000 L 32.240002 86.269997 Z" fill="#232F3E"/><path d=" M 40.889999 92.349998 L 40.000000 86.720001 L 39.110001 92.349998 L 37.189999 92.349998 L 35.410000 84.720001 L 37.110001 84.720001 L 38.169998 90.779999 L 39.080002 85.000000 L 40.919998 85.000000 L 41.860001 90.650002 L 42.860001 84.650002 L 44.520000 84.650002 L 42.740002 92.279999 Z" fill="#232F3E"/><path d=" M 46.840000 89.000000 C 46.345402 88.768761 45.910801 88.426559 45.570000 88.000000 C 45.307678 87.644348 45.170536 87.211830 45.180000 86.769997 C 45.168892 86.354126 45.287739 85.945145 45.520000 85.599998 C 45.745701 85.259720 46.065289 84.992241 46.439999 84.830002 C 46.861813 84.643929 47.319042 84.551804 47.779999 84.560005 C 48.429764 84.562088 49.072483 84.694710 49.669998 84.950005 L 49.669998 86.120003 C 49.134098 85.923050 48.570534 85.811684 48.000000 85.790001 C 47.718163 85.774521 47.439480 85.855652 47.209999 86.020004 C 47.013199 86.172058 46.904575 86.411781 46.919998 86.660004 C 46.912312 86.862022 46.976040 87.060295 47.099998 87.220001 C 47.307770 87.423737 47.552021 87.586571 47.820000 87.700005 L 48.470001 88.019997 C 48.826054 88.187546 49.161602 88.395592 49.470001 88.639999 C 49.698788 88.827263 49.883213 89.062912 50.010002 89.330002 C 50.129375 89.621704 50.187252 89.934906 50.180000 90.250000 C 50.210262 90.886475 49.935429 91.499283 49.439999 91.900002 C 48.864475 92.329575 48.157295 92.545265 47.439999 92.510002 C 47.060139 92.510231 46.681335 92.470001 46.309998 92.389999 C 45.980469 92.326210 45.660961 92.218590 45.359997 92.070000 L 45.360001 90.919998 C 45.687019 91.026825 46.021187 91.110367 46.360001 91.169998 C 46.689121 91.238113 47.023945 91.274940 47.360001 91.279999 C 47.673580 91.302475 47.985077 91.213982 48.240002 91.029999 C 48.446396 90.853905 48.557594 90.590736 48.540001 90.320000 C 48.546089 90.107033 48.471024 89.899704 48.330002 89.739998 C 48.122326 89.543411 47.882092 89.384384 47.620003 89.269997 Z" fill="#232F3E"/><path d=" M 17.750000 105.250000 C 17.939711 105.264816 18.130289 105.264816 18.320000 105.250000 L 18.320000 103.250000 L 17.160000 103.250000 L 17.160000 102.139999 L 19.860001 102.139999 L 19.860001 105.910004 C 19.509268 106.104134 19.131899 106.245651 18.740000 106.330002 C 18.293726 106.430847 17.837524 106.481163 17.379999 106.480003 C 16.459332 106.538010 15.563169 106.169220 14.949999 105.480003 C 14.335997 104.657875 14.034679 103.644028 14.099998 102.620003 C 14.021841 101.545029 14.338264 100.478439 14.989999 99.620003 C 15.668914 98.916504 16.624821 98.550255 17.599998 98.620003 C 18.294056 98.597786 18.982344 98.752655 19.599998 99.070000 L 19.600000 100.239998 C 19.300463 100.117241 18.988705 100.026733 18.670000 99.970001 C 18.374136 99.906425 18.072603 99.872917 17.770000 99.870003 C 17.206343 99.817390 16.652887 100.045502 16.290001 100.480003 C 15.931845 101.082382 15.771007 101.781677 15.830001 102.480003 L 15.830000 102.690002 C 15.770868 103.385834 15.924295 104.083229 16.270000 104.690002 C 16.643082 105.105995 17.194990 105.314827 17.750000 105.250000 Z" fill="#232F3E"/><path d=" M 21.260000 106.349998 L 21.260000 100.720001 L 22.610001 100.720001 L 22.790001 101.449997 C 22.990948 101.209991 23.235180 101.009857 23.510000 100.860001 C 23.738909 100.731735 23.997631 100.666191 24.260000 100.669998 C 24.389811 100.660080 24.520189 100.660080 24.650000 100.669998 L 24.650000 102.000000 C 24.436886 101.986336 24.223114 101.986336 24.010000 102.000000 C 23.628166 102.000481 23.251642 102.089478 22.910000 102.260002 L 22.910000 106.370003 Z" fill="#232F3E"/><path d=" M 26.610001 103.919998 C 26.607388 104.314926 26.745665 104.697853 27.000000 105.000000 C 27.295565 105.246262 27.676880 105.364975 28.059999 105.330002 C 28.289248 105.324608 28.517241 105.294434 28.740000 105.240005 C 29.011526 105.190041 29.278938 105.119843 29.539999 105.030006 L 29.540001 106.029999 C 29.281759 106.177193 29.001509 106.281868 28.710001 106.339996 C 28.381477 106.411812 28.046280 106.448685 27.710001 106.449997 C 25.990000 106.449997 25.129999 105.449997 25.129999 103.500000 C 25.079845 102.714424 25.306273 101.936081 25.769999 101.300003 C 26.224649 100.776291 26.897924 100.495148 27.589998 100.540001 C 28.959999 100.540001 29.639999 101.300003 29.639999 102.830002 C 29.639126 103.166870 29.598852 103.502487 29.519999 103.830002 Z M 27.520000 101.599998 C 26.950001 101.599998 26.639999 102.059998 26.610001 102.970001 L 28.219999 102.970001 L 28.219999 102.720001 C 28.245039 102.423065 28.186134 102.125076 28.049999 101.860001 C 27.933950 101.683182 27.730856 101.583549 27.519999 101.599998 Z" fill="#232F3E"/><path d=" M 32.000000 103.919998 C 31.979250 104.324760 32.107300 104.723129 32.360001 105.040001 C 32.655567 105.286263 33.036880 105.404976 33.420002 105.370003 C 33.649250 105.364609 33.877243 105.334435 34.100002 105.280006 C 34.371529 105.230042 34.638943 105.159843 34.900002 105.070007 L 34.900002 106.070000 C 34.641762 106.217194 34.361507 106.321869 34.070000 106.379997 C 33.741474 106.451813 33.406277 106.488686 33.070000 106.489998 C 31.360001 106.489998 30.500000 105.489998 30.500000 103.540001 C 30.446962 102.755630 30.669819 101.977402 31.129999 101.340004 C 31.584650 100.816292 32.257923 100.535149 32.950001 100.580002 C 34.320000 100.580002 34.950001 101.339996 34.950001 102.870003 C 34.949127 103.206871 34.908855 103.542488 34.830002 103.870003 Z M 32.919998 101.599998 C 32.340000 101.599998 32.029999 102.059998 32.000000 102.970001 L 33.610001 102.970001 L 33.610001 102.720001 C 33.632599 102.424286 33.577438 102.127800 33.450001 101.860001 C 33.325668 101.676575 33.110359 101.576607 32.889999 101.599998 Z" fill="#232F3E"/><path d=" M 39.220001 106.349998 L 39.220001 102.650002 C 39.236496 102.408363 39.188168 102.166710 39.080002 101.950005 C 38.964104 101.793236 38.773880 101.709541 38.580002 101.730003 C 38.291130 101.739960 38.010700 101.829971 37.770000 101.990005 L 37.770000 106.349998 L 36.110001 106.349998 L 36.110001 100.720001 L 37.459999 100.720001 L 37.599998 101.230003 C 38.134369 100.833908 38.775398 100.607452 39.439999 100.580002 C 39.841431 100.553581 40.233727 100.707565 40.509998 101.000000 C 40.772018 101.350540 40.899738 101.783371 40.869999 102.220001 L 40.869999 106.349998 Z" fill="#232F3E"/><path d=" M 45.169998 105.709999 C 44.858067 106.047455 44.419537 106.239540 43.959999 106.239998 C 43.384960 106.256142 42.841648 105.976936 42.520000 105.500000 C 42.143475 104.903000 41.958538 104.205116 41.990002 103.500000 C 41.947823 102.757782 42.136456 102.020706 42.530003 101.389999 C 42.852375 100.899895 43.403477 100.609245 43.990002 100.620003 C 44.235832 100.627289 44.477528 100.685165 44.700001 100.790001 C 44.937305 100.897537 45.151314 101.050400 45.330002 101.239998 L 45.450001 100.760002 L 46.799999 100.760002 L 46.799999 106.000000 C 46.799999 107.860001 45.950001 108.790001 44.230000 108.790001 C 43.593319 108.794128 42.965214 108.643105 42.399998 108.349998 L 42.400002 107.349998 C 42.919224 107.547821 43.465424 107.665833 44.020000 107.699997 C 44.260437 107.714272 44.500721 107.669647 44.720001 107.570000 C 44.888622 107.473465 45.013870 107.316017 45.070000 107.129997 C 45.154819 106.803833 45.188557 106.466499 45.169998 106.129997 Z M 44.509998 105.110001 C 44.746284 105.100060 44.975006 105.023819 45.169998 104.889999 L 45.169998 102.000000 C 44.959332 101.838676 44.704937 101.744583 44.439999 101.730003 C 44.170807 101.727432 43.929722 101.896187 43.840000 102.150002 C 43.684036 102.564812 43.615929 103.007492 43.639999 103.450005 C 43.615818 103.886879 43.687492 104.323753 43.849998 104.730003 C 43.977707 104.973930 44.234928 105.122025 44.509998 105.110001 Z" fill="#232F3E"/><path d=" M 48.220001 106.349998 L 48.220001 100.720001 L 49.570000 100.720001 L 49.750000 101.449997 C 49.950947 101.209991 50.195179 101.009857 50.470001 100.860001 C 50.699921 100.734291 50.957958 100.668915 51.220001 100.669998 C 51.349812 100.660080 51.480190 100.660080 51.610001 100.669998 L 51.610001 102.000000 C 51.396885 101.986336 51.183117 101.986336 50.970001 102.000000 C 50.588165 102.000481 50.211643 102.089478 49.870003 102.260002 L 49.869999 106.370003 Z" fill="#232F3E"/><path d=" M 55.259998 106.349998 L 55.110001 105.839996 C 54.959305 106.046989 54.755444 106.209389 54.520000 106.309998 C 54.276695 106.427460 54.010178 106.488968 53.740002 106.489998 C 53.300823 106.513031 52.872322 106.349617 52.560001 106.040001 C 52.253971 105.709824 52.095169 105.269508 52.120003 104.820000 C 52.096859 104.326881 52.290485 103.848297 52.650002 103.510002 C 53.053867 103.177910 53.567989 103.010109 54.090000 103.040001 C 54.404030 103.046669 54.716179 103.090302 55.020000 103.169998 L 55.020000 102.660004 C 55.045197 102.388687 54.985813 102.116226 54.850002 101.880005 C 54.689999 101.726921 54.469852 101.653542 54.250004 101.680008 C 53.642174 101.704216 53.041748 101.822273 52.470005 102.030006 L 52.470001 101.029999 C 52.757076 100.871574 53.067680 100.760162 53.389999 100.699997 C 53.771400 100.619514 54.160198 100.579300 54.549999 100.579994 C 55.090740 100.531685 55.629845 100.688774 56.059998 101.019997 C 56.409229 101.394203 56.580471 101.900635 56.529999 102.409996 L 56.529999 106.349998 Z M 54.259998 105.430000 C 54.561382 105.418922 54.847317 105.293823 55.059998 105.080002 L 55.060001 104.000000 C 54.854061 103.948677 54.642181 103.925140 54.430000 103.930000 C 54.229454 103.914780 54.032249 103.987816 53.889999 104.129997 C 53.758240 104.297188 53.694004 104.507729 53.709999 104.719994 C 53.699711 104.905304 53.752590 105.088631 53.860001 105.239990 C 53.944927 105.354698 54.077377 105.424606 54.220001 105.429993 Z" fill="#232F3E"/><path d=" M 59.930000 104.769997 C 59.930000 104.519997 59.759998 104.309998 59.410000 104.150002 L 58.689999 103.800003 C 58.016483 103.560318 57.564880 102.924881 57.559998 102.210007 C 57.541603 101.750854 57.746536 101.311180 58.109997 101.030006 C 58.532356 100.712837 59.052467 100.553619 59.579998 100.580009 C 60.109646 100.581734 60.632275 100.701294 61.109997 100.930008 L 61.110001 101.930000 C 60.881443 101.850227 60.647526 101.786736 60.410000 101.739998 C 60.212864 101.696541 60.011845 101.673088 59.810001 101.669998 C 59.299999 101.669998 59.040001 101.849998 59.040001 102.209999 C 59.040001 102.570000 59.250000 102.660004 59.680000 102.870003 L 60.400002 103.209999 C 60.708687 103.342110 60.975075 103.556602 61.170002 103.830002 C 61.338264 104.110268 61.421631 104.433311 61.410004 104.760002 C 61.434761 105.245941 61.231365 105.715607 60.860004 106.029999 C 60.435520 106.351448 59.911915 106.514183 59.380005 106.489998 C 58.746136 106.497437 58.120476 106.346176 57.560005 106.049995 L 57.560001 105.050003 C 58.075829 105.247581 58.618698 105.365601 59.170002 105.400002 C 59.374176 105.412933 59.576271 105.352661 59.740002 105.230003 C 59.871735 105.114784 59.942028 104.944603 59.930000 104.770004 Z" fill="#232F3E"/><path d=" M 64.339996 104.769997 C 64.339996 104.519997 64.169998 104.309998 63.820000 104.150002 L 63.099998 103.800003 C 62.438301 103.550400 62.000248 102.917213 62.000000 102.210007 C 61.981606 101.750854 62.186539 101.311180 62.549999 101.030006 C 62.972359 100.712837 63.492470 100.553619 64.019997 100.580009 C 64.549644 100.581734 65.072273 100.701294 65.549995 100.930008 L 65.550003 101.930000 C 65.321442 101.850227 65.087524 101.786736 64.850006 101.739998 C 64.652870 101.696541 64.451851 101.673088 64.250008 101.669998 C 63.740002 101.669998 63.480000 101.849998 63.480000 102.209999 C 63.480000 102.570000 63.689999 102.660004 64.120003 102.870003 L 64.839996 103.209999 C 65.146873 103.345100 65.412537 103.559013 65.609993 103.830002 C 65.778252 104.110268 65.861618 104.433311 65.849991 104.760002 C 65.874748 105.245941 65.671349 105.715607 65.299988 106.029999 C 64.875504 106.351448 64.351898 106.514183 63.819988 106.489998 C 63.186119 106.497437 62.560459 106.346176 61.999989 106.049995 L 62.000000 105.050003 C 62.515827 105.247581 63.058697 105.365601 63.610001 105.400002 C 63.814175 105.412933 64.016266 105.352661 64.180000 105.230003 C 64.300713 105.109100 64.359627 104.939713 64.340004 104.770004 Z" fill="#232F3E"/></g><g id="ICONS_-_EDIT"><path d=" M 40.430000 65.000000 C 32.872917 65.027420 25.727144 61.561573 21.070000 55.610001 L 22.650000 54.380001 C 30.375467 64.183487 44.585495 65.868057 54.388981 58.142586 C 59.775234 53.898041 62.942894 47.437450 63.000000 40.580002 C 63.010326 33.451065 59.590332 26.752485 53.810001 22.580002 L 55.000000 20.920000 C 65.880501 28.851767 68.270920 44.102119 60.339157 54.982620 C 55.706726 61.337219 48.293575 65.067177 40.430000 65.000000 Z" fill="#FFFFFF"/><path d=" M 51.779999 24.510000 C 49.151131 24.504477 47.024487 22.368881 47.030010 19.740011 C 47.035534 17.111141 49.171131 14.984499 51.799999 14.990022 C 54.424961 14.995537 56.549992 17.125034 56.549999 19.750000 C 56.539009 22.378210 54.408226 24.504524 51.779999 24.510000 Z M 51.779999 17.000000 C 50.255703 17.005533 49.024502 18.245705 49.030033 19.770000 C 49.035564 21.294296 50.275738 22.525497 51.800034 22.519964 C 53.324314 22.514431 54.555511 21.274282 54.549999 19.750000 C 54.539009 18.227987 53.302052 16.999960 51.779999 17.000000 Z" fill="#FFFFFF"/><path d=" M 19.780001 56.619999 C 17.156672 56.608952 15.038997 54.473370 15.050043 51.850040 C 15.061089 49.226711 17.196672 47.109035 19.820002 47.120083 C 22.435507 47.131096 24.549978 49.254471 24.550001 51.869999 C 24.538988 54.496582 22.406609 56.620022 19.780001 56.619999 Z M 19.780001 49.119999 C 18.261257 49.131046 17.039028 50.371181 17.050074 51.889927 C 17.061119 53.408669 18.301258 54.630901 19.820002 54.619854 C 21.330912 54.608864 22.549961 53.380951 22.550001 51.869999 C 22.539011 50.347988 21.302053 49.119961 19.780001 49.119999 Z" fill="#FFFFFF"/><rect x="38.700000" y="22.310000" width="2.000000" height="34.780000" fill="#FFFFFF" transform="matrix(0.707107,-0.707107,0.707107,0.707107,-16.450000,39.700000)"/><path d=" M 24.780001 29.469999 C 22.151131 29.464476 20.024488 27.328880 20.030012 24.700010 C 20.035536 22.071140 22.171131 19.944498 24.800001 19.950022 C 27.424963 19.955536 29.549995 22.085033 29.550001 24.710001 C 29.539011 27.338211 27.408228 29.464525 24.780001 29.470001 Z M 24.780001 21.959999 C 23.255705 21.965532 22.024504 23.205704 22.030037 24.730000 C 22.035570 26.254295 23.275742 27.485497 24.800037 27.479963 C 26.324320 27.474430 27.555513 26.234282 27.550001 24.709999 C 27.517365 23.203651 26.286701 21.999645 24.780001 22.000000 Z" fill="#FFFFFF"/><rect x="31.000000" y="51.000000" width="5.000000" height="2.000000" fill="#FFFFFF"/><rect x="24.000000" y="51.000000" width="4.000000" height="2.000000" fill="#FFFFFF"/><rect x="39.000000" y="51.000000" width="5.000000" height="2.000000" fill="#FFFFFF"/><path d=" M 52.000000 53.000000 L 47.000000 53.000000 L 47.000000 51.000000 L 51.000000 51.000000 L 51.000000 47.000000 L 53.000000 47.000000 L 53.000000 52.000000 C 53.000000 52.552284 52.552284 53.000000 52.000000 53.000000 Z" fill="#FFFFFF"/><rect x="51.000000" y="31.000000" width="2.000000" height="5.000000" fill="#FFFFFF"/><rect x="51.000000" y="24.000000" width="2.000000" height="4.000000" fill="#FFFFFF"/><rect x="51.000000" y="39.000000" width="2.000000" height="5.000000" fill="#FFFFFF"/></g></svg>