<svg version="1.1" width="80.000000" height="115.000000" viewBox="0.000000 0.000000 80.000000 115.000000" xmlns="http://www.w3.org/2000/svg" xmlns:xlink="http://www.w3.org/1999/xlink" overflow="hidden"><g id="CARDS"><rect x="1.000000" y="1.000000" width="78.000000" height="78.000000" fill="#232F3E"/><path d=" M 0.000000 0.000000 L 0.000000 80.000000 L 0.000000 80.000000 L 0.000000 115.000000 L 80.000000 115.000000 L 80.000000 80.000000 L 80.000000 80.000000 L 80.000000 0.000000 Z M 1.000000 1.000000 L 79.000000 1.000000 L 79.000000 79.000000 L 1.000000 79.000000 Z" fill="#FFFFFF"/></g><g id="TEXT_-_EDIT"><path d=" M 24.790001 92.349998 L 24.360001 90.529999 L 22.360001 90.529999 L 21.940001 92.349998 L 20.160000 92.349998 L 22.480000 84.720001 L 24.340000 84.720001 L 26.650000 92.349998 Z M 22.610001 89.430000 L 24.100000 89.430000 L 23.340000 86.269997 Z" fill="#232F3E"/><path d=" M 32.000000 92.349998 L 31.059999 86.720001 L 30.170000 92.349998 L 28.299999 92.349998 L 26.510000 84.720001 L 28.209999 84.720001 L 29.270000 90.779999 L 30.190001 85.000000 L 32.000000 85.000000 L 33.000000 90.680000 L 34.000000 84.680000 L 35.669998 84.680000 L 33.880001 92.309998 Z" fill="#232F3E"/><path d=" M 38.000000 89.000000 C 37.502724 88.768532 37.064915 88.426491 36.720001 88.000000 C 36.457680 87.644348 36.320538 87.211830 36.330002 86.769997 C 36.323391 86.354721 36.441860 85.947060 36.670002 85.599998 C 36.898216 85.261978 37.217068 84.995110 37.590000 84.830002 C 38.014984 84.642815 38.475712 84.550667 38.939999 84.560005 C 39.589565 84.563965 40.231922 84.696510 40.829998 84.950005 L 40.830002 86.120003 C 40.274807 85.917786 39.690651 85.806358 39.100002 85.790001 C 38.818352 85.776108 38.540180 85.857094 38.310001 86.020004 C 38.117279 86.175255 38.009666 86.412743 38.020000 86.660004 C 38.010494 86.863945 38.078354 87.063950 38.209999 87.220001 C 38.411877 87.426239 38.653389 87.589516 38.919998 87.700005 L 39.570000 88.019997 C 39.926052 88.187546 40.261600 88.395592 40.570000 88.639999 C 40.798786 88.827263 40.983212 89.062912 41.110001 89.330002 C 41.234150 89.620277 41.292217 89.934525 41.279999 90.250000 C 41.310261 90.886475 41.035427 91.499283 40.539997 91.900002 C 39.964474 92.329575 39.257294 92.545265 38.539997 92.510002 C 38.160172 92.509636 37.781429 92.469414 37.409996 92.389999 C 37.063335 92.330627 36.726723 92.222908 36.409996 92.070000 L 36.410000 90.919998 C 36.737019 91.026825 37.071186 91.110367 37.410000 91.169998 C 37.739300 91.236969 38.074017 91.273788 38.410000 91.279999 C 38.723755 91.304230 39.035843 91.215561 39.290001 91.029999 C 39.496395 90.853905 39.607594 90.590736 39.590000 90.320000 C 39.596088 90.107033 39.521023 89.899704 39.380001 89.739998 C 39.176231 89.543251 38.939240 89.384132 38.680000 89.269997 Z" fill="#232F3E"/><path d=" M 45.070000 92.349998 L 45.070000 84.720001 L 46.750000 84.720001 L 46.750000 92.349998 Z" fill="#232F3E"/><path d=" M 50.560001 92.489998 C 49.861233 92.527954 49.183464 92.244324 48.720001 91.720001 C 47.853985 90.392052 47.853985 88.677956 48.720001 87.349998 C 49.718826 86.333794 51.352333 86.319710 52.368538 87.318535 C 52.379116 87.328934 52.389606 87.339424 52.400002 87.349998 C 53.266018 88.677948 53.266018 90.392044 52.400002 91.720001 C 51.936539 92.244324 51.258770 92.527962 50.560001 92.489998 Z M 50.560001 91.339996 C 50.844494 91.352325 51.103889 91.178047 51.200001 90.909996 C 51.466797 90.016144 51.466797 89.063843 51.200001 88.169998 C 51.057579 87.816536 50.655586 87.645454 50.302124 87.787872 C 50.128094 87.857994 49.990124 87.995964 49.919998 88.169998 C 49.653202 89.063850 49.653202 90.016151 49.919998 90.909996 C 50.016109 91.178047 50.275505 91.352325 50.559998 91.339996 Z" fill="#232F3E"/><path d=" M 55.630001 92.349998 L 55.630001 85.940002 L 53.630001 85.940002 L 53.630001 84.720001 L 59.320000 84.720001 L 59.320000 85.940002 L 57.320000 85.940002 L 57.320000 92.349998 Z" fill="#232F3E"/><path d=" M 22.639999 106.349998 L 22.209999 104.529999 L 20.209999 104.529999 L 19.780001 106.349998 L 18.000000 106.349998 L 20.320000 98.720001 L 22.180000 98.720001 L 24.480000 106.349998 Z M 20.459999 103.430000 L 22.000000 103.430000 L 21.240000 100.269997 Z" fill="#232F3E"/><path d=" M 28.389999 106.349998 L 28.389999 102.650002 C 28.409313 102.407036 28.357176 102.163719 28.240000 101.950005 C 28.128672 101.793205 27.941149 101.709015 27.750000 101.730003 C 27.457970 101.739677 27.174252 101.829636 26.930000 101.990005 L 26.930000 106.349998 L 25.280001 106.349998 L 25.280001 100.720001 L 26.629999 100.720001 L 26.760000 101.230003 C 27.295238 100.835541 27.935753 100.609268 28.600000 100.580002 C 29.001431 100.553581 29.393730 100.707565 29.670000 101.000000 C 29.935577 101.349174 30.066885 101.782127 30.040001 102.220001 L 30.040001 106.349998 Z" fill="#232F3E"/><path d=" M 34.340000 106.349998 L 34.189999 105.839996 C 34.039303 106.046989 33.835442 106.209389 33.599998 106.309998 C 33.356693 106.427460 33.090176 106.488968 32.820000 106.489998 C 32.380821 106.513031 31.952318 106.349617 31.639999 106.040001 C 31.333969 105.709824 31.175167 105.269508 31.199999 104.820000 C 31.176857 104.326881 31.370481 103.848297 31.730000 103.510002 C 32.133865 103.177910 32.647987 103.010109 33.169998 103.040001 C 33.484028 103.046669 33.796177 103.090302 34.099998 103.169998 L 34.099998 102.660004 C 34.125195 102.388687 34.065811 102.116226 33.930000 101.880005 C 33.769997 101.726921 33.549850 101.653542 33.330002 101.680008 C 32.722172 101.704216 32.121746 101.822273 31.550001 102.030006 L 31.549999 101.029999 C 31.837076 100.871574 32.147678 100.760162 32.469997 100.699997 C 32.851398 100.619514 33.240196 100.579300 33.629997 100.579994 C 34.173603 100.534027 34.715004 100.690742 35.149998 101.019997 C 35.491158 101.398506 35.658012 101.902695 35.609997 102.409996 L 35.610001 106.349998 Z M 33.340000 105.430000 C 33.641384 105.418922 33.927319 105.293823 34.139999 105.080002 L 34.139999 104.000000 C 33.934059 103.948677 33.722179 103.925140 33.509998 103.930000 C 33.309452 103.914780 33.112247 103.987816 32.969997 104.129997 C 32.838238 104.297188 32.774002 104.507729 32.789997 104.719994 C 32.779709 104.905304 32.832588 105.088631 32.939999 105.239990 C 33.024925 105.354698 33.157375 105.424606 33.299999 105.429993 Z" fill="#232F3E"/><path d=" M 39.410000 106.250000 C 39.089802 106.366165 38.750458 106.420456 38.410000 106.410004 C 38.013783 106.445717 37.621078 106.311180 37.329998 106.040001 C 37.066509 105.729019 36.937054 105.326263 36.969997 104.919998 L 36.970001 98.209999 L 38.619999 98.209999 L 38.619999 104.750000 C 38.609196 104.888161 38.636887 105.026619 38.700001 105.150002 C 38.779671 105.241310 38.899937 105.286407 39.020000 105.270004 C 39.136490 105.279053 39.253510 105.279053 39.369999 105.270004 Z" fill="#232F3E"/><path d=" M 41.750000 106.459999 L 39.750000 100.720001 L 41.500000 100.720001 L 42.419998 104.860001 L 43.330002 100.720001 L 45.000000 100.720001 L 43.000000 107.199997 C 42.891499 107.650528 42.655403 108.060219 42.320000 108.379997 C 42.009270 108.629692 41.618233 108.757668 41.220001 108.739998 C 40.860653 108.740013 40.503334 108.686081 40.160000 108.579994 L 40.160000 107.580002 C 40.349770 107.593224 40.540230 107.593224 40.730000 107.580002 C 40.980152 107.601768 41.228615 107.522552 41.419998 107.360001 C 41.596958 107.152000 41.702160 106.892509 41.719997 106.620003 Z" fill="#232F3E"/><path d=" M 49.189999 106.199997 C 48.796688 106.347153 48.379932 106.421692 47.959999 106.419998 C 47.162197 106.570419 46.393509 106.045616 46.243084 105.247818 C 46.210217 105.073509 46.209171 104.894684 46.239998 104.720001 L 46.240002 101.820000 L 45.509998 101.820000 L 45.509998 100.900002 L 46.290001 100.750000 L 46.529999 99.209999 L 47.889999 99.209999 L 47.889999 100.720001 L 49.169998 100.720001 L 49.169998 101.820000 L 47.889999 101.820000 L 47.889999 104.589996 C 47.874325 104.774376 47.923870 104.958412 48.029999 105.109993 C 48.177174 105.233894 48.368851 105.291756 48.559998 105.269997 C 48.772316 105.266800 48.983620 105.239967 49.189999 105.189995 Z" fill="#232F3E"/><path d=" M 50.939999 99.809998 C 50.683857 99.830612 50.429607 99.751831 50.230000 99.589996 C 50.071148 99.436157 49.987179 99.220757 50.000000 99.000000 C 49.989643 98.765633 50.089550 98.539917 50.270000 98.389999 C 50.690441 98.084755 51.259560 98.084755 51.680000 98.389999 C 51.854263 98.543686 51.949810 98.767853 51.939999 99.000000 C 51.946991 99.231628 51.851936 99.454643 51.680000 99.610001 C 51.469692 99.772316 51.203442 99.844276 50.939999 99.809998 Z M 50.110001 106.349998 L 50.110001 100.720001 L 51.759998 100.720001 L 51.759998 106.349998 Z" fill="#232F3E"/><path d=" M 56.849998 106.089996 C 56.657085 106.213348 56.443760 106.301392 56.219997 106.349998 C 55.954288 106.410645 55.682537 106.440842 55.409996 106.439995 C 54.714561 106.489639 54.034145 106.221146 53.559998 105.709991 C 53.106220 105.085075 52.886742 104.320442 52.939999 103.549988 C 52.889221 102.771988 53.127850 102.002678 53.609997 101.389984 C 54.086399 100.867004 54.773827 100.587616 55.479996 100.629982 C 55.949947 100.630127 56.412971 100.743309 56.829994 100.959984 L 56.830002 101.959999 C 56.509514 101.841644 56.171566 101.777435 55.830002 101.769997 C 55.468849 101.733589 55.114182 101.884514 54.890003 102.169998 C 54.672073 102.563194 54.574692 103.011833 54.610004 103.459999 L 54.610001 103.620003 C 54.573051 104.065079 54.670597 104.511002 54.889999 104.900002 C 55.098991 105.182068 55.440586 105.333885 55.790001 105.300003 C 56.159382 105.292480 56.524715 105.221443 56.870003 105.090004 Z" fill="#232F3E"/><path d=" M 59.900002 104.769997 C 59.900002 104.519997 59.730000 104.309998 59.380001 104.150002 L 58.660000 103.800003 C 57.986485 103.560318 57.534882 102.924881 57.529999 102.210007 C 57.511604 101.750854 57.716537 101.311180 58.079998 101.030006 C 58.502357 100.712837 59.022469 100.553619 59.549999 100.580009 C 60.079647 100.581734 60.602276 100.701294 61.079998 100.930008 L 61.080002 101.930000 C 60.851444 101.850227 60.617527 101.786736 60.380001 101.739998 C 60.182865 101.696541 59.981846 101.673088 59.780003 101.669998 C 59.270000 101.669998 59.009998 101.849998 59.009998 102.209999 C 59.009998 102.570000 59.220001 102.660004 59.650002 102.870003 L 60.369999 103.209999 C 60.678684 103.342110 60.945072 103.556602 61.139999 103.830002 C 61.308262 104.110268 61.391628 104.433311 61.380001 104.760002 C 61.404758 105.245941 61.201363 105.715607 60.830002 106.029999 C 60.405518 106.351448 59.881912 106.514183 59.350002 106.489998 C 58.716133 106.497437 58.090473 106.346176 57.530003 106.049995 L 57.529999 105.050003 C 58.045826 105.247581 58.588696 105.365601 59.139999 105.400002 C 59.344173 105.412933 59.546268 105.352661 59.709999 105.230003 C 59.841732 105.114784 59.912025 104.944603 59.899998 104.770004 Z" fill="#232F3E"/></g><g id="ICONS_-_EDIT"><path d=" M 18.420000 54.540001 C 11.924304 44.271854 14.982480 30.682072 25.250628 24.186377 C 28.134962 22.361727 31.404274 21.233185 34.799999 20.890001 L 35.000000 22.889999 C 24.786676 23.953653 17.021471 32.551460 17.000000 42.820000 C 16.991028 46.590939 18.059631 50.285950 20.080000 53.470001 Z" fill="#FFFFFF"/><path d=" M 37.099998 64.879997 C 32.764652 64.889999 28.524509 63.608902 24.919998 61.199997 L 26.000000 59.540001 C 35.256271 65.637901 47.703285 63.077530 53.801182 53.821255 C 55.565857 51.142574 56.662773 48.079937 57.000000 44.889999 L 59.000000 45.090000 C 57.864986 56.331650 48.398804 64.885796 37.099998 64.879997 Z" fill="#FFFFFF"/><path d=" M 56.310001 37.080002 C 54.375053 30.646242 49.355038 25.603718 42.930000 23.640001 L 43.509998 21.719999 C 50.579350 23.875423 56.103348 29.421940 58.230000 36.500000 Z" fill="#FFFFFF"/><rect x="14.100000" y="38.010000" width="32.050000" height="2.000000" fill="#FFFFFF" transform="matrix(0.456166,-0.889895,0.889895,0.456166,-18.330000,48.020000)"/><rect x="18.690000" y="60.080000" width="0.210000" height="2.000000" fill="#FFFFFF" transform="matrix(0.466850,-0.884337,0.884337,0.466850,-43.990000,49.190000)"/><rect x="18.720000" y="60.100000" width="0.200000" height="2.000000" fill="#FFFFFF" transform="matrix(0.708093,-0.706119,0.706119,0.708093,-37.650000,31.130000)"/><rect x="19.370000" y="39.510000" width="40.060000" height="2.000000" fill="#FFFFFF" transform="matrix(0.707107,-0.707107,0.707107,0.707107,-17.110000,39.730000)"/><rect x="24.570000" y="48.840000" width="32.510000" height="2.000000" fill="#FFFFFF" transform="matrix(0.889656,-0.456632,0.456632,0.889656,-18.250000,24.140000)"/><rect x="18.740000" y="60.120000" width="0.210000" height="2.000000" fill="#FFFFFF" transform="matrix(0.885637,-0.464378,0.464378,0.885637,-26.220000,15.740000)"/><path d=" M 21.879999 63.169998 C 18.842434 63.169998 16.379999 60.707565 16.379999 57.669998 C 16.379999 54.632431 18.842434 52.169998 21.879999 52.169998 C 24.917564 52.169998 27.379999 54.632431 27.379999 57.669998 C 27.379999 60.707565 24.917564 63.169998 21.879999 63.169998 Z M 21.879999 54.169998 C 19.947002 54.169998 18.379999 55.737003 18.379999 57.669998 C 18.379999 59.602993 19.947002 61.169998 21.879999 61.169998 C 23.812996 61.169998 25.379999 59.602993 25.379999 57.669998 C 25.379999 55.737003 23.812996 54.169998 21.879999 54.169998 Z" fill="#FFFFFF"/><path d=" M 56.750000 28.670000 C 53.712433 28.670000 51.250000 26.207565 51.250000 23.170000 C 51.250000 20.132435 53.712433 17.670000 56.750000 17.670000 C 59.787567 17.670000 62.250000 20.132435 62.250000 23.170000 C 62.244495 26.205284 59.785282 28.664495 56.750000 28.670000 Z M 56.750000 19.670000 C 54.817005 19.670000 53.250000 21.237003 53.250000 23.170000 C 53.250000 25.102997 54.817005 26.670000 56.750000 26.670000 C 58.682995 26.670000 60.250000 25.102997 60.250000 23.170000 C 60.250000 21.237003 58.682995 19.670000 56.750000 19.670000 Z" fill="#FFFFFF"/><path d=" M 59.459999 46.220001 C 56.422432 46.220001 53.959999 43.757568 53.959999 40.720001 C 53.959999 37.682434 56.422432 35.220001 59.459999 35.220001 C 62.497566 35.220001 64.959999 37.682434 64.959999 40.720001 C 64.954498 43.755283 62.495281 46.214497 59.459999 46.220001 Z M 59.459999 37.220001 C 57.527004 37.220001 55.959999 38.787006 55.959999 40.720001 C 55.959999 42.652996 57.527004 44.220001 59.459999 44.220001 C 61.392994 44.220001 62.959999 42.652996 62.959999 40.720001 C 62.959999 38.787006 61.392994 37.220001 59.459999 37.220001 Z" fill="#FFFFFF"/><path d=" M 39.220001 26.120001 C 36.182434 26.120001 33.720001 23.657566 33.720001 20.620001 C 33.720001 17.582436 36.182434 15.120001 39.220001 15.120001 C 42.257568 15.120001 44.720001 17.582436 44.720001 20.620001 C 44.714497 23.655285 42.255283 26.114496 39.220001 26.120001 Z M 39.220001 17.120001 C 37.287006 17.120001 35.720001 18.687004 35.720001 20.620001 C 35.720001 22.552998 37.287006 24.120001 39.220001 24.120001 C 41.152996 24.120001 42.720001 22.552998 42.720001 20.620001 C 42.720001 18.687004 41.152996 17.120001 39.220001 17.120001 Z" fill="#FFFFFF"/></g></svg>