<svg version="1.1" width="80.000000" height="130.000000" viewBox="0.000000 0.000000 80.000000 130.000000" xmlns="http://www.w3.org/2000/svg" xmlns:xlink="http://www.w3.org/1999/xlink" overflow="hidden"><g id="CARDS"><rect x="1.000000" y="1.000000" width="78.000000" height="78.000000" fill="#232F3E"/><path d=" M 0.000000 0.000000 L 0.000000 80.000000 L 0.000000 80.000000 L 0.000000 130.000000 L 80.000000 130.000000 L 80.000000 80.000000 L 80.000000 80.000000 L 80.000000 0.000000 Z M 1.000000 1.000000 L 79.000000 1.000000 L 79.000000 79.000000 L 1.000000 79.000000 Z" fill="#FFFFFF"/></g><g id="TEXT_-_EDIT"><path d=" M 24.790001 92.349998 L 24.360001 90.529999 L 22.360001 90.529999 L 21.930000 92.349998 L 20.160000 92.349998 L 22.480000 84.720001 L 24.340000 84.720001 L 26.639999 92.349998 Z M 22.610001 89.430000 L 24.100000 89.430000 L 23.340000 86.269997 Z" fill="#232F3E"/><path d=" M 32.000000 92.349998 L 31.059999 86.720001 L 30.170000 92.349998 L 28.290001 92.349998 L 26.510000 84.720001 L 28.209999 84.720001 L 29.270000 90.779999 L 30.190001 85.000000 L 32.000000 85.000000 L 33.000000 90.680000 L 34.000000 84.680000 L 35.660000 84.680000 L 33.880001 92.309998 Z" fill="#232F3E"/><path d=" M 38.000000 89.000000 C 37.501015 88.771332 37.062611 88.428833 36.720001 88.000000 C 36.457680 87.644348 36.320538 87.211830 36.330002 86.769997 C 36.323391 86.354721 36.441860 85.947060 36.670002 85.599998 C 36.895702 85.259720 37.215290 84.992241 37.590000 84.830002 C 38.011814 84.643929 38.469044 84.551804 38.930000 84.560005 C 39.582909 84.562904 40.228741 84.695473 40.830002 84.950005 L 40.830002 86.120003 C 40.274807 85.917786 39.690651 85.806358 39.100002 85.790001 C 38.818352 85.776108 38.540180 85.857094 38.310001 86.020004 C 38.117279 86.175255 38.009666 86.412743 38.020000 86.660004 C 38.010494 86.863945 38.078354 87.063950 38.209999 87.220001 C 38.411877 87.426239 38.653389 87.589516 38.919998 87.700005 L 39.570000 88.019997 C 39.926052 88.187546 40.261600 88.395592 40.570000 88.639999 C 40.798786 88.827263 40.983212 89.062912 41.110001 89.330002 C 41.234150 89.620277 41.292217 89.934525 41.279999 90.250000 C 41.310261 90.886475 41.035427 91.499283 40.539997 91.900002 C 39.964474 92.329575 39.257294 92.545265 38.539997 92.510002 C 38.160172 92.509636 37.781429 92.469414 37.409996 92.389999 C 37.063335 92.330627 36.726723 92.222908 36.409996 92.070000 L 36.410000 90.919998 C 36.737019 91.026825 37.071186 91.110367 37.410000 91.169998 C 37.739300 91.236969 38.074017 91.273788 38.410000 91.279999 C 38.723755 91.304230 39.035843 91.215561 39.290001 91.029999 C 39.496395 90.853905 39.607594 90.590736 39.590000 90.320000 C 39.596088 90.107033 39.521023 89.899704 39.380001 89.739998 C 39.174480 89.545425 38.937889 89.386574 38.680000 89.269997 Z" fill="#232F3E"/><path d=" M 45.070000 92.349998 L 45.070000 84.720001 L 46.750000 84.720001 L 46.750000 92.349998 Z" fill="#232F3E"/><path d=" M 50.560001 92.489998 C 49.860714 92.530975 49.181679 92.246811 48.720001 91.720001 C 47.853985 90.392052 47.853985 88.677956 48.720001 87.349998 C 49.718826 86.333794 51.352333 86.319710 52.368538 87.318535 C 52.379116 87.328934 52.389606 87.339424 52.400002 87.349998 C 53.266018 88.677948 53.266018 90.392044 52.400002 91.720001 C 51.936539 92.244324 51.258770 92.527962 50.560001 92.489998 Z M 50.560001 91.339996 C 50.844494 91.352325 51.103889 91.178047 51.200001 90.909996 C 51.466797 90.016144 51.466797 89.063843 51.200001 88.169998 C 51.057579 87.816536 50.655586 87.645454 50.302124 87.787872 C 50.128094 87.857994 49.990124 87.995964 49.919998 88.169998 C 49.653202 89.063850 49.653202 90.016151 49.919998 90.909996 C 50.016109 91.178047 50.275505 91.352325 50.559998 91.339996 Z" fill="#232F3E"/><path d=" M 55.630001 92.349998 L 55.630001 85.940002 L 53.630001 85.940002 L 53.630001 84.720001 L 59.320000 84.720001 L 59.320000 85.940002 L 57.320000 85.940002 L 57.320000 92.349998 Z" fill="#232F3E"/><path d=" M 25.080000 106.349998 L 25.080000 98.720001 L 27.600000 98.720001 C 28.499277 98.668739 29.371323 99.038246 29.960001 99.720001 C 30.554468 100.542496 30.841152 101.547661 30.770000 102.559998 C 30.841736 103.572525 30.562778 104.578896 29.980000 105.409996 C 29.404716 106.086601 28.546902 106.456345 27.660000 106.409996 Z M 26.770000 99.900002 L 26.770000 105.169998 L 27.480000 105.169998 C 27.953917 105.192314 28.402355 104.954681 28.650000 104.549995 C 28.949333 103.959961 29.084061 103.300148 29.039999 102.639992 L 29.040001 102.419998 C 29.083744 101.760979 28.952658 101.102089 28.660002 100.509995 C 28.406340 100.102592 27.948856 99.868088 27.470001 99.899994 Z" fill="#232F3E"/><path d=" M 33.299999 103.919998 C 33.288792 104.323456 33.415813 104.718628 33.660000 105.040001 C 33.955566 105.286263 34.336880 105.404976 34.720001 105.370003 C 34.949249 105.364609 35.177242 105.334435 35.400002 105.280006 C 35.674561 105.228943 35.945217 105.158775 36.210003 105.070007 L 36.209999 106.070000 C 35.947083 106.214767 35.663929 106.319267 35.369999 106.379997 C 35.041500 106.451958 34.706287 106.488831 34.369999 106.489998 C 32.650002 106.489998 31.790001 105.489998 31.790001 103.540001 C 31.736963 102.755630 31.959820 101.977402 32.420002 101.340004 C 32.877766 100.814682 33.554768 100.533524 34.250004 100.580002 C 35.610001 100.580002 36.250000 101.339996 36.250000 102.870003 C 36.249126 103.206871 36.208855 103.542488 36.130001 103.870003 Z M 34.220001 101.599998 C 33.639999 101.599998 33.330002 102.059998 33.299999 102.970001 L 34.919998 102.970001 L 34.919998 102.720001 C 34.940441 102.423340 34.881779 102.126572 34.750000 101.860001 C 34.631138 101.686409 34.430031 101.587753 34.220001 101.599998 Z" fill="#232F3E"/><path d=" M 38.639999 106.349998 L 36.779999 100.720001 L 38.529999 100.720001 L 39.419998 104.720001 L 40.340000 100.720001 L 42.000000 100.720001 L 40.150002 106.349998 Z" fill="#232F3E"/><path d=" M 43.660000 99.809998 C 43.404758 99.822983 43.153183 99.745026 42.950001 99.589996 C 42.773273 99.438095 42.677193 99.212677 42.690002 98.979996 C 42.675621 98.747040 42.771988 98.520950 42.950001 98.369995 C 43.148117 98.204575 43.402519 98.122162 43.660000 98.139992 C 43.914101 98.124771 44.164444 98.207024 44.360001 98.369995 C 44.540451 98.519913 44.640358 98.745628 44.630001 98.979996 C 44.638817 99.214073 44.539196 99.439140 44.360001 99.589996 C 44.162971 99.749374 43.912781 99.828011 43.660000 99.809998 Z M 42.830002 106.349998 L 42.830002 100.720001 L 44.480000 100.720001 L 44.480000 106.349998 Z" fill="#232F3E"/><path d=" M 49.580002 106.089996 C 49.383366 106.213127 49.166801 106.301109 48.940002 106.349998 C 48.674294 106.410645 48.402542 106.440842 48.130001 106.439995 C 47.437515 106.489487 46.760204 106.220772 46.290001 105.709991 C 45.828716 105.088364 45.605232 104.322128 45.660000 103.549988 C 45.609222 102.771988 45.847851 102.002678 46.329998 101.389984 C 46.808079 100.869408 47.494308 100.590515 48.199997 100.629982 C 48.670235 100.627724 49.133827 100.741043 49.549995 100.959984 L 49.549999 101.959999 C 49.229511 101.841644 48.891563 101.777435 48.549999 101.769997 C 48.190422 101.724968 47.834621 101.878006 47.619999 102.169998 C 47.398037 102.561913 47.297127 103.010796 47.329998 103.459999 L 47.330002 103.620003 C 47.297836 104.064751 47.395084 104.509300 47.610001 104.900002 C 47.818993 105.182068 48.160587 105.333885 48.510002 105.300003 C 48.882545 105.291672 49.251030 105.220680 49.600002 105.090004 Z" fill="#232F3E"/><path d=" M 51.840000 103.919998 C 51.837795 104.309822 51.964344 104.689461 52.200001 105.000000 C 52.495567 105.246262 52.876881 105.364975 53.260002 105.330002 C 53.492554 105.324707 53.723873 105.294533 53.950001 105.240005 C 54.220974 105.187576 54.488213 105.117424 54.750000 105.030006 L 54.750000 106.029999 C 54.490200 106.173843 54.210484 106.278313 53.919998 106.339996 C 53.591393 106.411301 53.256248 106.448166 52.919998 106.449997 C 51.200001 106.449997 50.340000 105.449997 50.340000 103.500000 C 50.286961 102.715630 50.509819 101.937401 50.970001 101.300003 C 51.427765 100.774681 52.104767 100.493523 52.800003 100.540001 C 54.160000 100.540001 54.799999 101.300003 54.799999 102.830002 C 54.799126 103.166870 54.758854 103.502487 54.680000 103.830002 Z M 52.759998 101.599998 C 52.180000 101.599998 51.880001 102.059998 51.840000 102.970001 L 53.459999 102.970001 L 53.459999 102.720001 C 53.480442 102.423340 53.421780 102.126572 53.290001 101.860001 C 53.172512 101.684830 52.970444 101.585701 52.760002 101.599998 Z" fill="#232F3E"/><path d=" M 18.830000 120.349998 L 18.830000 112.720001 L 21.340000 112.720001 C 22.241911 112.670197 23.116379 113.039169 23.710001 113.720001 C 24.769567 115.468689 24.769567 117.661316 23.710001 119.410004 C 23.135662 120.087883 22.277182 120.457916 21.390001 120.410004 Z M 20.510000 113.900002 L 20.510000 119.169998 L 21.219999 119.169998 C 21.694408 119.194519 22.143906 118.956329 22.389999 118.549995 C 22.689333 117.959961 22.824060 117.300148 22.779999 116.639992 L 22.780001 116.419998 C 22.823744 115.760979 22.692657 115.102089 22.400002 114.509995 C 22.147911 114.100891 21.689322 113.865814 21.210001 113.899994 Z" fill="#232F3E"/><path d=" M 27.000000 117.919998 C 27.009209 118.314522 27.149998 118.694656 27.400000 119.000000 C 27.695564 119.246262 28.076880 119.364975 28.459999 119.330002 C 28.692551 119.324707 28.923868 119.294533 29.150000 119.240005 C 29.420973 119.187576 29.688213 119.117424 29.949999 119.030006 L 29.950001 120.029999 C 29.690203 120.173843 29.410486 120.278313 29.120001 120.339996 C 28.791477 120.411812 28.456280 120.448685 28.120001 120.449997 C 26.400000 120.449997 25.540001 119.449997 25.540001 117.500000 C 25.486963 116.715630 25.709820 115.937401 26.170000 115.300003 C 26.627766 114.774681 27.304766 114.493523 28.000000 114.540001 C 29.360001 114.540001 30.000000 115.300003 30.000000 116.830002 C 29.999126 117.166870 29.958853 117.502487 29.879999 117.830002 Z M 28.000000 115.599998 C 27.420000 115.599998 27.120001 116.059998 27.080000 116.970001 L 28.700001 116.970001 L 28.700001 116.720001 C 28.720444 116.423340 28.661779 116.126572 28.530001 115.860001 C 28.412510 115.684830 28.210442 115.585701 28.000000 115.599998 Z" fill="#232F3E"/><path d=" M 31.389999 120.349998 L 31.389999 115.820000 L 30.610001 115.820000 L 30.610001 114.900002 L 31.389999 114.750000 L 31.389999 114.089996 C 31.346174 113.534058 31.518063 112.982582 31.869999 112.549995 C 32.277626 112.186989 32.815910 112.006355 33.360001 112.049995 C 33.730152 112.049942 34.096840 112.121246 34.440002 112.259995 L 34.439999 113.260002 C 34.233059 113.214485 34.021881 113.191025 33.809998 113.190002 C 33.596828 113.163696 33.381763 113.221046 33.209999 113.350006 C 33.055332 113.529556 32.979622 113.763901 33.000000 114.000008 L 33.000000 114.739998 L 34.340000 114.739998 L 34.340000 115.839996 L 33.000000 115.839996 L 33.000000 120.370003 Z" fill="#232F3E"/><path d=" M 36.330002 117.919998 C 36.318794 118.323456 36.445816 118.718628 36.690002 119.040001 C 36.985569 119.286263 37.366882 119.404976 37.750004 119.370003 C 37.979294 119.365166 38.207348 119.334984 38.430004 119.280006 C 38.704563 119.228943 38.975220 119.158775 39.240005 119.070007 L 39.240002 120.070000 C 38.977085 120.214767 38.693932 120.319267 38.400002 120.379997 C 38.071602 120.452568 37.736324 120.489449 37.400002 120.489998 C 35.680000 120.489998 34.820000 119.489998 34.820000 117.540001 C 34.766960 116.755630 34.989819 115.977402 35.450001 115.340004 C 35.907764 114.814682 36.584766 114.533524 37.280003 114.580002 C 38.639999 114.580002 39.279999 115.339996 39.279999 116.870003 C 39.279125 117.206871 39.238853 117.542488 39.160000 117.870003 Z M 37.250000 115.599998 C 36.669998 115.599998 36.360001 116.059998 36.330002 116.970001 L 38.000000 116.970001 L 38.000000 116.720001 C 38.020443 116.423340 37.961781 116.126572 37.830002 115.860001 C 37.703865 115.667702 37.477486 115.566223 37.250000 115.599998 Z" fill="#232F3E"/><path d=" M 43.580002 120.349998 L 43.580002 116.650002 C 43.601223 116.408081 43.552635 116.165154 43.440002 115.950005 C 43.327309 115.794876 43.140812 115.711143 42.950001 115.730003 C 42.657791 115.738640 42.373798 115.828682 42.130001 115.990005 L 42.130001 120.349998 L 40.480000 120.349998 L 40.480000 114.720001 L 41.830002 114.720001 L 41.959999 115.230003 C 42.494370 114.833908 43.135399 114.607452 43.799999 114.580002 C 44.201431 114.553581 44.593727 114.707565 44.869999 115.000000 C 45.135578 115.349174 45.266884 115.782127 45.239998 116.220001 L 45.240002 120.349998 Z" fill="#232F3E"/><path d=" M 49.889999 120.349998 L 49.750000 119.860001 C 49.569530 120.042419 49.355640 120.188408 49.119999 120.290001 C 48.892376 120.387421 48.647591 120.438423 48.399998 120.440002 C 47.801472 120.464928 47.231789 120.181969 46.889999 119.690002 C 46.498978 119.051193 46.313946 118.307564 46.360001 117.560005 C 46.312668 116.790710 46.504807 116.025650 46.910000 115.370003 C 47.247570 114.858131 47.827206 114.558846 48.439999 114.580002 C 48.655468 114.590401 48.868011 114.634262 49.070000 114.709999 C 49.288536 114.789223 49.494106 114.900436 49.680000 115.040001 L 49.680000 112.209999 L 51.330002 112.209999 L 51.330002 120.349998 Z M 48.959999 119.349998 C 49.216091 119.346977 49.465954 119.270630 49.680000 119.129997 L 49.680000 116.000000 C 49.446198 115.841095 49.172482 115.751007 48.889999 115.739998 C 48.592880 115.727325 48.320187 115.903778 48.209999 116.180000 C 48.047901 116.624512 47.979797 117.097824 48.009998 117.570000 C 47.976959 118.035194 48.055824 118.501541 48.239998 118.930000 C 48.387318 119.205666 48.690147 119.361061 48.999996 119.320000 Z" fill="#232F3E"/><path d=" M 54.000000 117.919998 C 53.979252 118.324760 54.107300 118.723129 54.360001 119.040001 C 54.655567 119.286263 55.036880 119.404976 55.420002 119.370003 C 55.649250 119.364609 55.877243 119.334435 56.100002 119.280006 C 56.371529 119.230042 56.638943 119.159843 56.900002 119.070007 L 56.900002 120.070000 C 56.641762 120.217194 56.361507 120.321869 56.070000 120.379997 C 55.741474 120.451813 55.406277 120.488686 55.070000 120.489998 C 53.349998 120.489998 52.500000 119.489998 52.500000 117.540001 C 52.446960 116.755630 52.669819 115.977402 53.130001 115.340004 C 53.584652 114.816292 54.257927 114.535149 54.950001 114.580002 C 56.320000 114.580002 56.950001 115.339996 56.950001 116.870003 C 56.949127 117.206871 56.908855 117.542488 56.830002 117.870003 Z M 54.910000 115.599998 C 54.340000 115.599998 54.029999 116.059998 54.000000 116.970001 L 55.610001 116.970001 L 55.610001 116.720001 C 55.632599 116.424286 55.577438 116.127800 55.450001 115.860001 C 55.322418 115.674934 55.103394 115.575027 54.880001 115.599998 Z" fill="#232F3E"/><path d=" M 58.110001 120.349998 L 58.110001 114.720001 L 59.459999 114.720001 L 59.639999 115.449997 C 59.840946 115.209991 60.085178 115.009857 60.360001 114.860001 C 60.589920 114.734291 60.847958 114.668915 61.110001 114.669998 C 61.239811 114.660080 61.370190 114.660080 61.500000 114.669998 L 61.500000 116.000000 C 61.286884 115.986336 61.073116 115.986336 60.860001 116.000000 C 60.478294 116.001556 60.102009 116.090492 59.760002 116.260002 L 59.759998 120.370003 Z" fill="#232F3E"/></g><g id="ICONS_-_EDIT"><rect x="39.030000" y="33.010000" width="2.000000" height="32.000000" fill="#FFFFFF"/><path d=" M 61.000000 36.000000 L 59.000000 36.000000 L 59.000000 23.000000 C 51.000000 22.809999 42.820000 21.200001 40.000000 18.790001 C 37.200001 21.200001 29.000000 22.790001 21.000000 23.000000 L 21.000000 36.000000 L 19.000000 36.000000 L 19.000000 22.000000 C 19.000000 21.447716 19.447716 21.000000 20.000000 21.000000 C 31.490000 20.910000 38.610001 18.110001 39.000000 17.000000 C 38.995060 16.963499 38.995060 16.926500 39.000000 16.889999 C 39.056316 16.381065 39.487968 15.996893 40.000000 15.999999 C 40.552284 15.999999 41.000000 16.447714 41.000000 17.000000 C 41.360001 18.090000 48.470001 20.910000 60.000000 21.000000 C 60.552284 21.000000 61.000000 21.447716 61.000000 22.000000 Z" fill="#FFFFFF"/><path d=" M 40.000000 66.000000 C 39.844257 66.002167 39.690166 65.967926 39.549999 65.900002 L 23.000000 57.619999 C 20.549671 56.409565 18.999006 53.912994 19.000000 51.180000 L 19.000000 49.430000 L 21.000000 49.430000 L 21.000000 51.180000 C 20.994347 53.152485 22.111553 54.956310 23.879999 55.830002 L 40.000000 63.889999 L 56.119999 55.830002 C 57.888447 54.956314 59.005653 53.152489 59.000000 51.180000 L 59.000000 49.400002 L 61.000000 49.400002 L 61.000000 51.180000 C 61.000992 53.912998 59.450329 56.409565 57.000000 57.619999 L 40.480000 65.910004 C 40.329895 65.979210 40.164978 66.010132 40.000000 66.000000 Z" fill="#FFFFFF"/><path d=" M 36.000000 62.209999 L 34.000000 62.209999 L 34.000000 43.000000 L 29.219999 43.000000 L 29.219999 41.000000 L 35.000000 41.000000 C 35.552284 41.000000 36.000000 41.447716 36.000000 42.000000 Z" fill="#FFFFFF"/><path d=" M 46.000000 62.209999 L 44.000000 62.209999 L 44.000000 42.000000 C 44.000000 41.447716 44.447716 41.000000 45.000000 41.000000 L 50.799999 41.000000 L 50.799999 43.000000 L 46.000000 43.000000 Z" fill="#FFFFFF"/><path d=" M 40.000000 34.169998 C 36.918251 34.169998 34.419998 31.671747 34.419998 28.589998 C 34.419998 25.508249 36.918251 23.009998 40.000000 23.009998 C 43.081749 23.009998 45.580002 25.508249 45.580002 28.589998 C 45.580002 31.671747 43.081749 34.169998 40.000000 34.169998 Z M 40.000000 25.000000 C 38.022820 25.000000 36.419998 26.602821 36.419998 28.580000 C 36.419998 30.557178 38.022820 32.160000 40.000000 32.160000 C 41.977180 32.160000 43.580002 30.557178 43.580002 28.580000 C 43.580002 26.602821 41.977180 25.000000 40.000000 25.000000 Z" fill="#FFFFFF"/><path d=" M 24.230000 48.119999 C 21.142733 48.125523 18.635530 45.627274 18.630009 42.540009 C 18.624485 39.452744 21.122732 36.945541 24.209999 36.940018 C 27.297266 36.934494 29.804468 39.432743 29.809990 42.520008 C 29.809996 42.523338 29.809999 42.526669 29.809999 42.529999 C 29.804518 45.611095 27.311083 48.109001 24.230000 48.119999 Z M 24.230000 38.950001 C 22.247305 38.944485 20.635542 40.547306 20.630028 42.530003 C 20.624512 44.512695 22.227333 46.124458 24.210028 46.129974 C 26.192722 46.135490 27.804485 44.532669 27.809999 42.549973 C 27.810019 42.543316 27.810019 42.536659 27.809999 42.529999 C 27.777323 40.574654 26.185612 39.005173 24.230000 39.000000 Z" fill="#FFFFFF"/><path d=" M 55.770000 48.119999 C 52.682728 48.119999 50.180000 45.617271 50.180000 42.529999 C 50.180000 39.442726 52.682728 36.939999 55.770000 36.939999 C 58.857273 36.939999 61.360001 39.442726 61.360001 42.529999 C 61.354496 45.614986 58.854988 48.114494 55.770000 48.119999 Z M 55.770000 38.950001 C 53.787300 38.950008 52.180008 40.557312 52.180016 42.540016 C 52.180023 44.522717 53.787327 46.130009 55.770031 46.130001 C 57.752731 46.129993 59.360023 44.522690 59.360016 42.539986 C 59.360016 42.536655 59.360012 42.533329 59.360001 42.529999 C 59.327251 40.570766 57.729507 38.999725 55.770000 39.000000 Z" fill="#FFFFFF"/></g></svg>