<svg version="1.1" width="80.000000" height="115.000000" viewBox="0.000000 0.000000 80.000000 115.000000" xmlns="http://www.w3.org/2000/svg" xmlns:xlink="http://www.w3.org/1999/xlink" overflow="hidden"><g id="CARDS"><rect x="1.000000" y="1.000000" width="78.000000" height="78.000000" fill="#232F3E"/><path d=" M 0.000000 0.000000 L 0.000000 80.000000 L 0.000000 80.000000 L 0.000000 115.000000 L 80.000000 115.000000 L 80.000000 80.000000 L 80.000000 80.000000 L 80.000000 0.000000 Z M 1.000000 1.000000 L 79.000000 1.000000 L 79.000000 79.000000 L 1.000000 79.000000 Z" fill="#FFFFFF"/></g><g id="TEXT_-_EDIT"><path d=" M 24.790001 92.349998 L 24.360001 90.529999 L 22.360001 90.529999 L 21.940001 92.349998 L 20.160000 92.349998 L 22.480000 84.720001 L 24.340000 84.720001 L 26.650000 92.349998 Z M 22.610001 89.430000 L 24.100000 89.430000 L 23.340000 86.269997 Z" fill="#232F3E"/><path d=" M 32.000000 92.349998 L 31.059999 86.720001 L 30.170000 92.349998 L 28.299999 92.349998 L 26.510000 84.720001 L 28.209999 84.720001 L 29.270000 90.779999 L 30.190001 85.000000 L 32.000000 85.000000 L 33.000000 90.680000 L 34.000000 84.680000 L 35.669998 84.680000 L 33.880001 92.309998 Z" fill="#232F3E"/><path d=" M 38.000000 89.000000 C 37.502724 88.768532 37.064915 88.426491 36.720001 88.000000 C 36.457680 87.644348 36.320538 87.211830 36.330002 86.769997 C 36.323391 86.354721 36.441860 85.947060 36.670002 85.599998 C 36.898216 85.261978 37.217068 84.995110 37.590000 84.830002 C 38.014984 84.642815 38.475712 84.550667 38.939999 84.560005 C 39.589565 84.563965 40.231922 84.696510 40.829998 84.950005 L 40.830002 86.120003 C 40.274807 85.917786 39.690651 85.806358 39.100002 85.790001 C 38.818352 85.776108 38.540180 85.857094 38.310001 86.020004 C 38.117279 86.175255 38.009666 86.412743 38.020000 86.660004 C 38.010494 86.863945 38.078354 87.063950 38.209999 87.220001 C 38.411877 87.426239 38.653389 87.589516 38.919998 87.700005 L 39.570000 88.019997 C 39.926052 88.187546 40.261600 88.395592 40.570000 88.639999 C 40.798786 88.827263 40.983212 89.062912 41.110001 89.330002 C 41.234150 89.620277 41.292217 89.934525 41.279999 90.250000 C 41.310261 90.886475 41.035427 91.499283 40.539997 91.900002 C 39.964474 92.329575 39.257294 92.545265 38.539997 92.510002 C 38.160172 92.509636 37.781429 92.469414 37.409996 92.389999 C 37.063335 92.330627 36.726723 92.222908 36.409996 92.070000 L 36.410000 90.919998 C 36.737019 91.026825 37.071186 91.110367 37.410000 91.169998 C 37.739300 91.236969 38.074017 91.273788 38.410000 91.279999 C 38.723755 91.304230 39.035843 91.215561 39.290001 91.029999 C 39.496395 90.853905 39.607594 90.590736 39.590000 90.320000 C 39.596088 90.107033 39.521023 89.899704 39.380001 89.739998 C 39.176231 89.543251 38.939240 89.384132 38.680000 89.269997 Z" fill="#232F3E"/><path d=" M 45.070000 92.349998 L 45.070000 84.720001 L 46.750000 84.720001 L 46.750000 92.349998 Z" fill="#232F3E"/><path d=" M 50.560001 92.489998 C 49.861233 92.527954 49.183464 92.244324 48.720001 91.720001 C 47.853985 90.392052 47.853985 88.677956 48.720001 87.349998 C 49.718826 86.333794 51.352333 86.319710 52.368538 87.318535 C 52.379116 87.328934 52.389606 87.339424 52.400002 87.349998 C 53.266018 88.677948 53.266018 90.392044 52.400002 91.720001 C 51.936539 92.244324 51.258770 92.527962 50.560001 92.489998 Z M 50.560001 91.339996 C 50.844494 91.352325 51.103889 91.178047 51.200001 90.909996 C 51.466797 90.016144 51.466797 89.063843 51.200001 88.169998 C 51.057579 87.816536 50.655586 87.645454 50.302124 87.787872 C 50.128094 87.857994 49.990124 87.995964 49.919998 88.169998 C 49.653202 89.063850 49.653202 90.016151 49.919998 90.909996 C 50.016109 91.178047 50.275505 91.352325 50.559998 91.339996 Z" fill="#232F3E"/><path d=" M 55.630001 92.349998 L 55.630001 85.940002 L 53.630001 85.940002 L 53.630001 84.720001 L 59.320000 84.720001 L 59.320000 85.940002 L 57.320000 85.940002 L 57.320000 92.349998 Z" fill="#232F3E"/><path d=" M 25.750000 106.349998 L 25.750000 100.250000 L 24.100000 100.930000 L 24.100000 99.709999 L 25.969999 98.709999 L 27.430000 98.709999 L 27.430000 106.339996 Z" fill="#232F3E"/><path d=" M 29.459999 104.120003 L 29.459999 102.889999 L 32.650002 102.889999 L 32.650002 104.120003 Z" fill="#232F3E"/><path d=" M 38.810001 106.129997 C 38.245159 106.360497 37.640034 106.476082 37.030003 106.469994 C 34.783333 106.470001 33.660000 105.169998 33.660000 102.570000 C 33.588547 101.512779 33.901020 100.465294 34.540001 99.620003 C 35.188503 98.920914 36.118778 98.553215 37.070000 98.620003 C 37.633499 98.620705 38.192318 98.722313 38.720001 98.920006 L 38.720001 100.129997 C 38.248505 99.991577 37.761189 99.914284 37.270000 99.899994 C 36.730755 99.856819 36.205547 100.085663 35.869999 100.509995 C 35.533432 101.094772 35.380154 101.767120 35.430000 102.439995 L 35.430000 102.690002 C 35.376976 103.352310 35.526966 104.015060 35.860001 104.590004 C 36.185745 105.015533 36.706039 105.245522 37.240002 105.200005 C 37.771389 105.172112 38.297993 105.084900 38.810001 104.940002 Z" fill="#232F3E"/><path d=" M 42.209999 106.250000 C 41.889801 106.366165 41.550457 106.420456 41.209999 106.410004 C 40.814243 106.441948 40.423023 106.307922 40.129997 106.040001 C 39.866508 105.729019 39.737053 105.326263 39.769997 104.919998 L 39.770000 98.209999 L 41.419998 98.209999 L 41.419998 104.750000 C 41.409195 104.888161 41.436886 105.026619 41.500000 105.150002 C 41.580696 105.239822 41.700142 105.284615 41.820000 105.270004 C 41.936470 105.279564 42.053528 105.279564 42.169998 105.270004 Z" fill="#232F3E"/><path d=" M 44.090000 99.809998 C 43.834538 99.824768 43.582355 99.746628 43.380001 99.589996 C 43.200806 99.439140 43.101185 99.214073 43.110001 98.979996 C 43.099644 98.745628 43.199551 98.519913 43.380001 98.369995 C 43.800442 98.064751 44.369560 98.064751 44.790001 98.369995 C 44.968018 98.520950 45.064384 98.747040 45.049999 98.979996 C 45.062809 99.212677 44.966728 99.438095 44.790001 99.589996 C 44.592972 99.749374 44.342781 99.828011 44.090000 99.809998 Z M 43.259998 106.349998 L 43.259998 100.720001 L 44.910000 100.720001 L 44.910000 106.349998 Z" fill="#232F3E"/><path d=" M 50.000000 106.089996 C 49.802567 106.211563 49.586277 106.299431 49.360001 106.349998 C 49.094292 106.410645 48.822540 106.440842 48.549999 106.439995 C 47.857281 106.490982 47.179344 106.222023 46.709999 105.709991 C 46.248714 105.088364 46.025230 104.322128 46.079998 103.549988 C 46.029221 102.771988 46.267849 102.002678 46.749996 101.389984 C 47.226398 100.867004 47.913826 100.587616 48.619995 100.629982 C 49.103828 100.635017 49.578541 100.762291 49.999996 100.999985 L 50.000000 102.000000 C 49.679512 101.881645 49.341564 101.817436 49.000000 101.809998 C 48.638847 101.773590 48.284180 101.924515 48.060001 102.209999 C 47.846386 102.604805 47.749283 103.052162 47.780003 103.500000 L 47.779999 103.660004 C 47.732674 104.085892 47.809052 104.516396 48.000000 104.900002 C 48.208992 105.182068 48.550587 105.333885 48.900002 105.300003 C 49.272545 105.291672 49.641029 105.220680 49.990002 105.090004 Z" fill="#232F3E"/><path d=" M 51.049999 106.349998 L 51.049999 98.209999 L 52.680000 98.209999 L 52.680000 103.209999 L 54.320000 100.769997 L 56.150002 100.769997 L 54.150002 103.459999 L 56.320000 106.400002 L 54.419998 106.400002 L 52.660000 103.800003 L 52.660000 106.400002 Z" fill="#232F3E"/></g><g id="ICONS_-_EDIT"><path d=" M 50.900002 49.869999 L 28.900000 49.869999 C 25.041248 49.967865 21.776890 47.036961 21.459999 43.189999 C 21.459999 43.029999 21.459999 42.869999 21.459999 42.700001 C 21.366959 39.655762 23.306574 36.919880 26.209999 36.000000 C 26.209999 35.889999 26.209999 35.770000 26.209999 35.660000 C 26.297533 30.204128 30.791353 25.852232 36.247223 25.939768 C 38.879143 25.981995 41.385403 27.072731 43.209999 28.970001 C 44.071377 29.814957 44.784641 30.798653 45.320000 31.880001 C 46.468712 31.088005 47.917297 30.866846 49.250000 31.280001 C 51.212860 31.960796 52.586643 33.738861 52.750000 35.810001 C 56.480000 36.810001 58.520000 39.240002 58.520000 42.810001 C 58.459999 48.000000 54.549999 49.869999 50.900002 49.869999 Z M 27.450001 37.700001 C 25.056774 38.136662 23.350670 40.269291 23.450001 42.700001 C 23.450001 42.830002 23.450001 42.959999 23.450001 43.080002 C 23.707960 45.865734 26.094023 47.966698 28.890001 47.870003 L 50.889999 47.869999 C 52.560001 47.869999 56.450001 47.380001 56.450001 42.750000 C 56.450001 39.970001 54.810001 38.230000 51.570000 37.580002 C 51.125610 37.490147 50.797276 37.112564 50.770000 36.660004 C 50.660000 34.830002 49.860001 33.560001 48.590000 33.169998 C 47.506294 32.860874 46.344772 33.260021 45.680000 34.169998 C 45.458866 34.457893 45.099079 34.603340 44.740002 34.549999 C 44.396336 34.478252 44.115467 34.231541 44.000000 33.899998 C 43.541405 32.576408 42.785358 31.375626 41.790001 30.389997 C 38.791992 27.235336 33.804268 27.108343 30.649609 30.106352 C 29.129110 31.551346 28.247482 33.542934 28.200001 35.639999 C 28.197571 35.974300 28.217617 36.308388 28.260000 36.639999 C 28.327219 37.166290 27.971712 37.653465 27.450001 37.750000 Z" fill="#FFFFFF"/><path d=" M 28.400000 31.080000 L 28.350000 31.020000 L 23.430000 24.770000 L 25.000000 23.540001 L 29.910000 29.770000 L 28.400000 31.080000 Z" fill="#FFFFFF"/><rect x="46.580000" y="27.240000" width="9.020000" height="2.000000" fill="#FFFFFF" transform="matrix(0.446198,-0.894934,0.894934,0.446198,3.020000,61.360000)"/><rect x="54.870000" y="47.720000" width="2.000000" height="7.910000" fill="#FFFFFF" transform="matrix(0.810655,-0.585524,0.585524,0.810655,-19.670000,42.500000)"/><rect x="36.300000" y="51.920000" width="8.320000" height="2.000000" fill="#FFFFFF" transform="matrix(0.235481,-0.971879,0.971879,0.235481,-20.500000,79.780000)"/><path d=" M 21.440001 26.120001 C 18.402435 26.120001 15.940001 23.657566 15.940001 20.620001 C 15.940001 17.582436 18.402435 15.120001 21.440001 15.120001 C 24.477566 15.120001 26.940001 17.582436 26.940001 20.620001 C 26.940001 23.657566 24.477566 26.120001 21.440001 26.120001 Z M 21.440001 17.120001 C 19.507004 17.120001 17.940001 18.687004 17.940001 20.620001 C 17.940001 22.552998 19.507004 24.120001 21.440001 24.120001 C 23.372997 24.120001 24.940001 22.552998 24.940001 20.620001 C 24.934507 18.689283 23.370718 17.125494 21.440001 17.120001 Z" fill="#FFFFFF"/><path d=" M 54.880001 25.620001 C 52.118576 25.620001 49.880001 23.381424 49.880001 20.620001 C 49.880001 17.858578 52.118576 15.620001 54.880001 15.620001 C 57.641426 15.620001 59.880001 17.858578 59.880001 20.620001 C 59.880001 23.381424 57.641426 25.620001 54.880001 25.620001 Z M 54.880001 17.620001 C 53.223148 17.620001 51.880001 18.963146 51.880001 20.620001 C 51.880001 22.276855 53.223148 23.620001 54.880001 23.620001 C 56.536854 23.620001 57.880001 22.276855 57.880001 20.620001 C 57.880001 18.963146 56.536854 17.620001 54.880001 17.620001 Z" fill="#FFFFFF"/><path d=" M 60.540001 62.000000 C 58.054718 62.000000 56.040001 59.985283 56.040001 57.500000 C 56.040001 55.014717 58.054718 53.000000 60.540001 53.000000 C 63.025284 53.000000 65.040001 55.014717 65.040001 57.500000 C 65.034500 59.983002 63.023003 61.994499 60.540001 62.000000 Z M 60.540001 55.000000 C 59.159290 55.000000 58.040001 56.119289 58.040001 57.500000 C 58.040001 58.880711 59.159290 60.000000 60.540001 60.000000 C 61.920712 60.000000 63.040001 58.880711 63.040001 57.500000 C 63.040001 56.119289 61.920712 55.000000 60.540001 55.000000 Z" fill="#FFFFFF"/><path d=" M 38.720001 64.870003 C 36.234718 64.870003 34.220001 62.855286 34.220001 60.370003 C 34.220001 57.884720 36.234718 55.870003 38.720001 55.870003 C 41.205284 55.870003 43.220001 57.884720 43.220001 60.370003 C 43.220001 62.855286 41.205284 64.870003 38.720001 64.870003 Z M 38.720001 57.869999 C 37.339291 57.869999 36.220001 58.989288 36.220001 60.369999 C 36.220001 61.750710 37.339291 62.869999 38.720001 62.869999 C 40.100712 62.869999 41.220001 61.750710 41.220001 60.369999 C 41.214520 58.991562 40.098438 57.875481 38.720001 57.869999 Z" fill="#FFFFFF"/><rect x="20.800000" y="50.650000" width="7.860000" height="2.000000" fill="#FFFFFF" transform="matrix(0.709079,-0.705129,0.705129,0.709079,-29.220000,32.460000)"/><path d=" M 19.459999 61.369999 C 16.974718 61.369999 14.959999 59.355282 14.959999 56.869999 C 14.959999 54.384716 16.974718 52.369999 19.459999 52.369999 C 21.945280 52.369999 23.959999 54.384716 23.959999 56.869999 C 23.959999 59.355282 21.945280 61.369999 19.459999 61.369999 Z M 19.459999 54.369999 C 18.079287 54.369999 16.959999 55.489288 16.959999 56.869999 C 16.959999 58.250710 18.079287 59.369999 19.459999 59.369999 C 20.840712 59.369999 21.959999 58.250710 21.959999 56.869999 C 21.954517 55.491562 20.838434 54.375481 19.459999 54.369999 Z" fill="#FFFFFF"/></g></svg>