<svg version="1.1" width="80.000000" height="115.000000" viewBox="0.000000 0.000000 80.000000 115.000000" xmlns="http://www.w3.org/2000/svg" xmlns:xlink="http://www.w3.org/1999/xlink" overflow="hidden"><g id="CARDS"><rect x="1.000000" y="1.000000" width="78.000000" height="78.000000" fill="#232F3E"/><path d=" M 0.000000 0.000000 L 0.000000 80.000000 L 0.000000 80.000000 L 0.000000 115.000000 L 80.000000 115.000000 L 80.000000 80.000000 L 80.000000 80.000000 L 80.000000 0.000000 Z M 1.000000 1.000000 L 79.000000 1.000000 L 79.000000 79.000000 L 1.000000 79.000000 Z" fill="#FFFFFF"/></g><g id="TEXT_-_EDIT"><path d=" M 24.790001 92.349998 L 24.360001 90.529999 L 22.360001 90.529999 L 21.940001 92.349998 L 20.160000 92.349998 L 22.480000 84.720001 L 24.340000 84.720001 L 26.650000 92.349998 Z M 22.610001 89.430000 L 24.100000 89.430000 L 23.340000 86.269997 Z" fill="#232F3E"/><path d=" M 32.000000 92.349998 L 31.059999 86.720001 L 30.170000 92.349998 L 28.299999 92.349998 L 26.510000 84.720001 L 28.209999 84.720001 L 29.270000 90.779999 L 30.190001 85.000000 L 32.000000 85.000000 L 33.000000 90.680000 L 34.000000 84.680000 L 35.669998 84.680000 L 33.880001 92.309998 Z" fill="#232F3E"/><path d=" M 38.000000 89.000000 C 37.502724 88.768532 37.064915 88.426491 36.720001 88.000000 C 36.457680 87.644348 36.320538 87.211830 36.330002 86.769997 C 36.323391 86.354721 36.441860 85.947060 36.670002 85.599998 C 36.898216 85.261978 37.217068 84.995110 37.590000 84.830002 C 38.014984 84.642815 38.475712 84.550667 38.939999 84.560005 C 39.589565 84.563965 40.231922 84.696510 40.829998 84.950005 L 40.830002 86.120003 C 40.274807 85.917786 39.690651 85.806358 39.100002 85.790001 C 38.818352 85.776108 38.540180 85.857094 38.310001 86.020004 C 38.117279 86.175255 38.009666 86.412743 38.020000 86.660004 C 38.010494 86.863945 38.078354 87.063950 38.209999 87.220001 C 38.411877 87.426239 38.653389 87.589516 38.919998 87.700005 L 39.570000 88.019997 C 39.926052 88.187546 40.261600 88.395592 40.570000 88.639999 C 40.798786 88.827263 40.983212 89.062912 41.110001 89.330002 C 41.234150 89.620277 41.292217 89.934525 41.279999 90.250000 C 41.310261 90.886475 41.035427 91.499283 40.539997 91.900002 C 39.964474 92.329575 39.257294 92.545265 38.539997 92.510002 C 38.160172 92.509636 37.781429 92.469414 37.409996 92.389999 C 37.063335 92.330627 36.726723 92.222908 36.409996 92.070000 L 36.410000 90.919998 C 36.737019 91.026825 37.071186 91.110367 37.410000 91.169998 C 37.739300 91.236969 38.074017 91.273788 38.410000 91.279999 C 38.723755 91.304230 39.035843 91.215561 39.290001 91.029999 C 39.496395 90.853905 39.607594 90.590736 39.590000 90.320000 C 39.596088 90.107033 39.521023 89.899704 39.380001 89.739998 C 39.176231 89.543251 38.939240 89.384132 38.680000 89.269997 Z" fill="#232F3E"/><path d=" M 45.070000 92.349998 L 45.070000 84.720001 L 46.750000 84.720001 L 46.750000 92.349998 Z" fill="#232F3E"/><path d=" M 50.560001 92.489998 C 49.861233 92.527954 49.183464 92.244324 48.720001 91.720001 C 47.853985 90.392052 47.853985 88.677956 48.720001 87.349998 C 49.718826 86.333794 51.352333 86.319710 52.368538 87.318535 C 52.379116 87.328934 52.389606 87.339424 52.400002 87.349998 C 53.266018 88.677948 53.266018 90.392044 52.400002 91.720001 C 51.936539 92.244324 51.258770 92.527962 50.560001 92.489998 Z M 50.560001 91.339996 C 50.844494 91.352325 51.103889 91.178047 51.200001 90.909996 C 51.466797 90.016144 51.466797 89.063843 51.200001 88.169998 C 51.057579 87.816536 50.655586 87.645454 50.302124 87.787872 C 50.128094 87.857994 49.990124 87.995964 49.919998 88.169998 C 49.653202 89.063850 49.653202 90.016151 49.919998 90.909996 C 50.016109 91.178047 50.275505 91.352325 50.559998 91.339996 Z" fill="#232F3E"/><path d=" M 55.630001 92.349998 L 55.630001 85.940002 L 53.630001 85.940002 L 53.630001 84.720001 L 59.320000 84.720001 L 59.320000 85.940002 L 57.320000 85.940002 L 57.320000 92.349998 Z" fill="#232F3E"/><path d=" M 24.330000 106.349998 L 24.330000 98.720001 L 26.840000 98.720001 C 27.437332 98.695900 28.022158 98.895592 28.480000 99.279999 C 28.903221 99.649055 29.138197 100.188759 29.119999 100.750000 C 29.134203 101.100403 29.047428 101.447510 28.869999 101.750000 C 28.691505 102.024216 28.433233 102.237114 28.129999 102.360001 C 28.527876 102.473038 28.878613 102.711540 29.129999 103.040001 C 29.364269 103.387947 29.483212 103.800743 29.469999 104.220001 C 29.493864 104.820930 29.234777 105.398331 28.769999 105.779999 C 28.241655 106.194946 27.580921 106.404533 26.909998 106.369995 Z M 25.920000 99.820000 L 25.920000 101.930000 L 26.590000 101.930000 C 26.839180 101.942482 27.081015 101.843552 27.250000 101.660004 C 27.421993 101.441597 27.507441 101.167458 27.490000 100.890007 C 27.506765 100.610947 27.433125 100.333908 27.280001 100.100006 C 27.143633 99.917992 26.927340 99.813576 26.700001 99.820007 Z M 25.920000 102.980003 L 25.920000 105.250000 L 26.920000 105.250000 C 27.188072 105.264053 27.448425 105.157715 27.629999 104.959999 C 27.806032 104.716812 27.890984 104.419479 27.869999 104.120003 C 27.890963 103.815750 27.794312 103.515060 27.599998 103.280006 C 27.396250 103.070953 27.111324 102.961365 26.819998 102.980003 Z" fill="#232F3E"/><path d=" M 33.869999 106.349998 L 33.730000 105.839996 C 33.218082 106.235382 32.596241 106.462456 31.949999 106.489998 C 31.567652 106.511559 31.197371 106.352333 30.949999 106.059998 C 30.691696 105.700417 30.567827 105.261566 30.599998 104.820000 L 30.600000 100.720001 L 32.250000 100.720001 L 32.250000 104.339996 C 32.229488 104.603439 32.274136 104.867889 32.380001 105.109993 C 32.472515 105.267639 32.648037 105.357353 32.830002 105.339996 C 33.102058 105.331230 33.365868 105.244446 33.590000 105.089996 L 33.590000 100.720001 L 35.240002 100.720001 L 35.240002 106.349998 Z" fill="#232F3E"/><path d=" M 39.680000 106.199997 C 39.286232 106.345474 38.869781 106.419960 38.450001 106.419998 C 37.974670 106.463928 37.500992 106.320389 37.130001 106.019997 C 36.829147 105.656647 36.682037 105.190201 36.720001 104.719994 L 36.720001 101.820000 L 36.000000 101.820000 L 36.000000 100.900002 L 36.779999 100.750000 L 37.000000 99.209999 L 38.360001 99.209999 L 38.360001 100.720001 L 39.639999 100.720001 L 39.639999 101.820000 L 38.369999 101.820000 L 38.369999 104.589996 C 38.351528 104.776146 38.405220 104.962288 38.520000 105.109993 C 38.665340 105.237236 38.858528 105.295555 39.049999 105.269997 C 39.262238 105.265694 39.473423 105.238876 39.680000 105.189995 Z" fill="#232F3E"/><path d=" M 43.830002 106.199997 C 43.436691 106.347153 43.019936 106.421692 42.600002 106.419998 C 41.802200 106.570419 41.033512 106.045616 40.883087 105.247818 C 40.850220 105.073509 40.849174 104.894684 40.880001 104.720001 L 40.880001 101.820000 L 40.150002 101.820000 L 40.150002 100.900002 L 40.930000 100.750000 L 41.169998 99.209999 L 42.529999 99.209999 L 42.529999 100.720001 L 43.810001 100.720001 L 43.810001 101.820000 L 42.529999 101.820000 L 42.529999 104.589996 C 42.514324 104.774376 42.563869 104.958412 42.669998 105.109993 C 42.817173 105.233894 43.008850 105.291756 43.199997 105.269997 C 43.412315 105.266800 43.623619 105.239967 43.829998 105.189995 Z" fill="#232F3E"/><path d=" M 46.939999 106.489998 C 46.240711 106.530975 45.561676 106.246811 45.099998 105.720001 C 44.220844 104.395988 44.220844 102.674019 45.099998 101.349998 C 46.098824 100.333794 47.732330 100.319710 48.748535 101.318535 C 48.759113 101.328934 48.769604 101.339424 48.779999 101.349998 C 49.646015 102.677948 49.646015 104.392044 48.779999 105.720001 C 48.316536 106.244324 47.638767 106.527962 46.939999 106.489998 Z M 46.939999 105.339996 C 47.224491 105.352325 47.483887 105.178047 47.579998 104.909996 C 47.846794 104.016144 47.846794 103.063843 47.579998 102.169998 C 47.487370 101.897995 47.227135 101.719078 46.939999 101.729996 C 46.651108 101.721107 46.389080 101.898483 46.289997 102.169998 C 46.034863 103.065514 46.034863 104.014481 46.289997 104.909996 C 46.392437 105.177567 46.653679 105.350380 46.939999 105.339996 Z" fill="#232F3E"/><path d=" M 53.700001 106.349998 L 53.700001 102.650002 C 53.719315 102.407036 53.667175 102.163719 53.549999 101.950005 C 53.438671 101.793205 53.251148 101.709015 53.059998 101.730003 C 52.767967 101.739677 52.484249 101.829636 52.239998 101.990005 L 52.240002 106.349998 L 50.590000 106.349998 L 50.590000 100.720001 L 51.939999 100.720001 L 52.070000 101.230003 C 52.605240 100.835541 53.245750 100.609268 53.910000 100.580002 C 54.318443 100.545937 54.720020 100.700668 55.000000 101.000000 C 55.269730 101.347038 55.401524 101.781601 55.369999 102.220001 L 55.369999 106.349998 Z" fill="#232F3E"/></g><g id="ICONS_-_EDIT"><path d=" M 62.000000 63.000000 L 53.000000 63.000000 L 53.000000 61.000000 L 61.000000 61.000000 L 61.000000 53.000000 L 63.000000 53.000000 L 63.000000 62.000000 C 63.000000 62.552284 62.552284 63.000000 62.000000 63.000000 Z" fill="#FFFFFF"/><path d=" M 27.000000 63.000000 L 18.000000 63.000000 C 17.447716 63.000000 17.000000 62.552284 17.000000 62.000000 L 17.000000 53.000000 L 19.000000 53.000000 L 19.000000 61.000000 L 27.000000 61.000000 Z" fill="#FFFFFF"/><path d=" M 63.000000 27.000000 L 61.000000 27.000000 L 61.000000 19.000000 L 53.000000 19.000000 L 53.000000 17.000000 L 62.000000 17.000000 C 62.552284 17.000000 63.000000 17.447716 63.000000 18.000000 Z" fill="#FFFFFF"/><path d=" M 19.000000 27.000000 L 17.000000 27.000000 L 17.000000 18.000000 C 17.000000 17.447716 17.447716 17.000000 18.000000 17.000000 L 27.000000 17.000000 L 27.000000 19.000000 L 19.000000 19.000000 Z" fill="#FFFFFF"/><path d=" M 54.000000 51.000000 L 25.910000 51.000000 C 19.834867 51.000000 14.910000 46.075130 14.910000 40.000000 C 14.910000 33.924870 19.834867 29.000000 25.910000 29.000000 L 54.090000 29.000000 C 60.165131 29.000000 65.089996 33.924870 65.089996 40.000000 C 65.089996 46.075130 60.165127 51.000000 54.089996 51.000000 Z M 26.090000 49.000000 L 54.000000 49.000000 C 58.970562 49.000000 63.000000 44.970562 63.000000 40.000000 C 63.000000 35.029438 58.970562 31.000000 54.000000 31.000000 L 26.000000 31.000000 C 21.029438 31.000000 17.000000 35.029438 17.000000 40.000000 C 17.000000 44.970562 21.029438 49.000000 26.000000 49.000000 Z" fill="#FFFFFF"/><path d=" M 53.000000 47.500000 C 48.857864 47.500000 45.500000 44.142136 45.500000 40.000000 C 45.500000 35.857864 48.857864 32.500000 53.000000 32.500000 C 57.142136 32.500000 60.500000 35.857864 60.500000 40.000000 C 60.500000 44.142136 57.142136 47.500000 53.000000 47.500000 Z M 53.000000 34.500000 C 49.962433 34.500000 47.500000 36.962433 47.500000 40.000000 C 47.500000 43.037567 49.962433 45.500000 53.000000 45.500000 C 56.037567 45.500000 58.500000 43.037567 58.500000 40.000000 C 58.494495 36.964718 56.035282 34.505505 53.000000 34.500000 Z" fill="#FFFFFF"/><circle cx="41.500000" cy="39.500000" r="2.250000" fill="#FFFFFF"/></g></svg>