<svg version="1.1" width="80.000000" height="130.000000" viewBox="0.000000 0.000000 80.000000 130.000000" xmlns="http://www.w3.org/2000/svg" xmlns:xlink="http://www.w3.org/1999/xlink" overflow="hidden"><g id="CARDS"><rect x="1.000000" y="1.000000" width="78.000000" height="78.000000" fill="#232F3E"/><path d=" M 0.000000 0.000000 L 0.000000 80.000000 L 0.000000 80.000000 L 0.000000 130.000000 L 80.000000 130.000000 L 80.000000 80.000000 L 80.000000 80.000000 L 80.000000 0.000000 Z M 1.000000 1.000000 L 79.000000 1.000000 L 79.000000 79.000000 L 1.000000 79.000000 Z" fill="#FFFFFF"/></g><g id="TEXT_-_EDIT"><path d=" M 24.790001 92.349998 L 24.360001 90.529999 L 22.360001 90.529999 L 21.930000 92.349998 L 20.160000 92.349998 L 22.480000 84.720001 L 24.340000 84.720001 L 26.639999 92.349998 Z M 22.610001 89.430000 L 24.100000 89.430000 L 23.340000 86.269997 Z" fill="#232F3E"/><path d=" M 32.000000 92.349998 L 31.059999 86.720001 L 30.170000 92.349998 L 28.290001 92.349998 L 26.510000 84.720001 L 28.209999 84.720001 L 29.270000 90.779999 L 30.190001 85.000000 L 32.000000 85.000000 L 33.000000 90.680000 L 34.000000 84.680000 L 35.660000 84.680000 L 33.880001 92.309998 Z" fill="#232F3E"/><path d=" M 38.000000 89.000000 C 37.501015 88.771332 37.062611 88.428833 36.720001 88.000000 C 36.457680 87.644348 36.320538 87.211830 36.330002 86.769997 C 36.323391 86.354721 36.441860 85.947060 36.670002 85.599998 C 36.895702 85.259720 37.215290 84.992241 37.590000 84.830002 C 38.011814 84.643929 38.469044 84.551804 38.930000 84.560005 C 39.582909 84.562904 40.228741 84.695473 40.830002 84.950005 L 40.830002 86.120003 C 40.274807 85.917786 39.690651 85.806358 39.100002 85.790001 C 38.818352 85.776108 38.540180 85.857094 38.310001 86.020004 C 38.117279 86.175255 38.009666 86.412743 38.020000 86.660004 C 38.010494 86.863945 38.078354 87.063950 38.209999 87.220001 C 38.411877 87.426239 38.653389 87.589516 38.919998 87.700005 L 39.570000 88.019997 C 39.926052 88.187546 40.261600 88.395592 40.570000 88.639999 C 40.798786 88.827263 40.983212 89.062912 41.110001 89.330002 C 41.234150 89.620277 41.292217 89.934525 41.279999 90.250000 C 41.310261 90.886475 41.035427 91.499283 40.539997 91.900002 C 39.964474 92.329575 39.257294 92.545265 38.539997 92.510002 C 38.160172 92.509636 37.781429 92.469414 37.409996 92.389999 C 37.063335 92.330627 36.726723 92.222908 36.409996 92.070000 L 36.410000 90.919998 C 36.737019 91.026825 37.071186 91.110367 37.410000 91.169998 C 37.739300 91.236969 38.074017 91.273788 38.410000 91.279999 C 38.723755 91.304230 39.035843 91.215561 39.290001 91.029999 C 39.496395 90.853905 39.607594 90.590736 39.590000 90.320000 C 39.596088 90.107033 39.521023 89.899704 39.380001 89.739998 C 39.174480 89.545425 38.937889 89.386574 38.680000 89.269997 Z" fill="#232F3E"/><path d=" M 45.070000 92.349998 L 45.070000 84.720001 L 46.750000 84.720001 L 46.750000 92.349998 Z" fill="#232F3E"/><path d=" M 50.560001 92.489998 C 49.860714 92.530975 49.181679 92.246811 48.720001 91.720001 C 47.853985 90.392052 47.853985 88.677956 48.720001 87.349998 C 49.718826 86.333794 51.352333 86.319710 52.368538 87.318535 C 52.379116 87.328934 52.389606 87.339424 52.400002 87.349998 C 53.266018 88.677948 53.266018 90.392044 52.400002 91.720001 C 51.936539 92.244324 51.258770 92.527962 50.560001 92.489998 Z M 50.560001 91.339996 C 50.844494 91.352325 51.103889 91.178047 51.200001 90.909996 C 51.466797 90.016144 51.466797 89.063843 51.200001 88.169998 C 51.057579 87.816536 50.655586 87.645454 50.302124 87.787872 C 50.128094 87.857994 49.990124 87.995964 49.919998 88.169998 C 49.653202 89.063850 49.653202 90.016151 49.919998 90.909996 C 50.016109 91.178047 50.275505 91.352325 50.559998 91.339996 Z" fill="#232F3E"/><path d=" M 55.630001 92.349998 L 55.630001 85.940002 L 53.630001 85.940002 L 53.630001 84.720001 L 59.320000 84.720001 L 59.320000 85.940002 L 57.320000 85.940002 L 57.320000 92.349998 Z" fill="#232F3E"/><path d=" M 25.080000 106.349998 L 25.080000 98.720001 L 27.600000 98.720001 C 28.499277 98.668739 29.371323 99.038246 29.960001 99.720001 C 30.554468 100.542496 30.841152 101.547661 30.770000 102.559998 C 30.841736 103.572525 30.562778 104.578896 29.980000 105.409996 C 29.404716 106.086601 28.546902 106.456345 27.660000 106.409996 Z M 26.770000 99.900002 L 26.770000 105.169998 L 27.480000 105.169998 C 27.953917 105.192314 28.402355 104.954681 28.650000 104.549995 C 28.949333 103.959961 29.084061 103.300148 29.039999 102.639992 L 29.040001 102.419998 C 29.083744 101.760979 28.952658 101.102089 28.660002 100.509995 C 28.406340 100.102592 27.948856 99.868088 27.470001 99.899994 Z" fill="#232F3E"/><path d=" M 33.299999 103.919998 C 33.288792 104.323456 33.415813 104.718628 33.660000 105.040001 C 33.955566 105.286263 34.336880 105.404976 34.720001 105.370003 C 34.949249 105.364609 35.177242 105.334435 35.400002 105.280006 C 35.674561 105.228943 35.945217 105.158775 36.210003 105.070007 L 36.209999 106.070000 C 35.947083 106.214767 35.663929 106.319267 35.369999 106.379997 C 35.041500 106.451958 34.706287 106.488831 34.369999 106.489998 C 32.650002 106.489998 31.790001 105.489998 31.790001 103.540001 C 31.736963 102.755630 31.959820 101.977402 32.420002 101.340004 C 32.877766 100.814682 33.554768 100.533524 34.250004 100.580002 C 35.610001 100.580002 36.250000 101.339996 36.250000 102.870003 C 36.249126 103.206871 36.208855 103.542488 36.130001 103.870003 Z M 34.220001 101.599998 C 33.639999 101.599998 33.330002 102.059998 33.299999 102.970001 L 34.919998 102.970001 L 34.919998 102.720001 C 34.940441 102.423340 34.881779 102.126572 34.750000 101.860001 C 34.631138 101.686409 34.430031 101.587753 34.220001 101.599998 Z" fill="#232F3E"/><path d=" M 38.639999 106.349998 L 36.779999 100.720001 L 38.529999 100.720001 L 39.419998 104.720001 L 40.340000 100.720001 L 42.000000 100.720001 L 40.150002 106.349998 Z" fill="#232F3E"/><path d=" M 43.660000 99.809998 C 43.404758 99.822983 43.153183 99.745026 42.950001 99.589996 C 42.773273 99.438095 42.677193 99.212677 42.690002 98.979996 C 42.675621 98.747040 42.771988 98.520950 42.950001 98.369995 C 43.148117 98.204575 43.402519 98.122162 43.660000 98.139992 C 43.914101 98.124771 44.164444 98.207024 44.360001 98.369995 C 44.540451 98.519913 44.640358 98.745628 44.630001 98.979996 C 44.638817 99.214073 44.539196 99.439140 44.360001 99.589996 C 44.162971 99.749374 43.912781 99.828011 43.660000 99.809998 Z M 42.830002 106.349998 L 42.830002 100.720001 L 44.480000 100.720001 L 44.480000 106.349998 Z" fill="#232F3E"/><path d=" M 49.580002 106.089996 C 49.383366 106.213127 49.166801 106.301109 48.940002 106.349998 C 48.674294 106.410645 48.402542 106.440842 48.130001 106.439995 C 47.437515 106.489487 46.760204 106.220772 46.290001 105.709991 C 45.828716 105.088364 45.605232 104.322128 45.660000 103.549988 C 45.609222 102.771988 45.847851 102.002678 46.329998 101.389984 C 46.808079 100.869408 47.494308 100.590515 48.199997 100.629982 C 48.670235 100.627724 49.133827 100.741043 49.549995 100.959984 L 49.549999 101.959999 C 49.229511 101.841644 48.891563 101.777435 48.549999 101.769997 C 48.190422 101.724968 47.834621 101.878006 47.619999 102.169998 C 47.398037 102.561913 47.297127 103.010796 47.329998 103.459999 L 47.330002 103.620003 C 47.297836 104.064751 47.395084 104.509300 47.610001 104.900002 C 47.818993 105.182068 48.160587 105.333885 48.510002 105.300003 C 48.882545 105.291672 49.251030 105.220680 49.600002 105.090004 Z" fill="#232F3E"/><path d=" M 51.840000 103.919998 C 51.837795 104.309822 51.964344 104.689461 52.200001 105.000000 C 52.495567 105.246262 52.876881 105.364975 53.260002 105.330002 C 53.492554 105.324707 53.723873 105.294533 53.950001 105.240005 C 54.220974 105.187576 54.488213 105.117424 54.750000 105.030006 L 54.750000 106.029999 C 54.490200 106.173843 54.210484 106.278313 53.919998 106.339996 C 53.591393 106.411301 53.256248 106.448166 52.919998 106.449997 C 51.200001 106.449997 50.340000 105.449997 50.340000 103.500000 C 50.286961 102.715630 50.509819 101.937401 50.970001 101.300003 C 51.427765 100.774681 52.104767 100.493523 52.800003 100.540001 C 54.160000 100.540001 54.799999 101.300003 54.799999 102.830002 C 54.799126 103.166870 54.758854 103.502487 54.680000 103.830002 Z M 52.759998 101.599998 C 52.180000 101.599998 51.880001 102.059998 51.840000 102.970001 L 53.459999 102.970001 L 53.459999 102.720001 C 53.480442 102.423340 53.421780 102.126572 53.290001 101.860001 C 53.172512 101.684830 52.970444 101.585701 52.760002 101.599998 Z" fill="#232F3E"/><path d=" M 15.300000 120.349998 L 15.300000 115.000000 L 13.890000 118.459999 L 12.460000 118.459999 L 11.060000 115.000000 L 11.060000 120.320000 L 9.560000 120.320000 L 9.560000 112.690002 L 11.480000 112.690002 L 13.210000 117.000000 L 14.930000 112.730003 L 16.809999 112.730003 L 16.809999 120.360001 Z" fill="#232F3E"/><path d=" M 21.240000 120.349998 L 21.100000 119.839996 C 20.944742 120.042564 20.742153 120.203949 20.510000 120.309998 C 20.263094 120.427322 19.993361 120.488777 19.719999 120.489998 C 19.281017 120.511780 18.853004 120.348557 18.539999 120.040001 C 18.236588 119.708809 18.081305 119.268242 18.109999 118.820000 C 18.086857 118.326881 18.280481 117.848297 18.639999 117.510002 C 19.037273 117.173096 19.550316 117.004471 20.070000 117.040001 C 20.384029 117.046669 20.696178 117.090302 21.000000 117.169998 L 21.000000 116.660004 C 21.027573 116.389763 20.971737 116.117561 20.840000 115.880005 C 20.675478 115.727715 20.452753 115.654694 20.230000 115.680008 C 19.625546 115.705238 19.028566 115.823280 18.459999 116.030006 L 18.459999 115.029999 C 18.743469 114.871468 19.050802 114.760017 19.369999 114.699997 C 19.751480 114.620018 20.140224 114.579803 20.529999 114.579994 C 21.073797 114.532089 21.615881 114.689011 22.049999 115.019997 C 22.394773 115.396851 22.565321 115.901237 22.519999 116.409996 L 22.520000 120.349998 Z M 20.240000 119.430000 C 20.538345 119.418404 20.820971 119.293190 21.030001 119.080002 L 21.030001 118.000000 C 20.824169 117.948074 20.612209 117.924522 20.400002 117.930000 C 20.202253 117.913605 20.007622 117.987053 19.870001 118.129997 C 19.730947 118.293694 19.662605 118.505920 19.680000 118.719994 C 19.669710 118.905304 19.722593 119.088631 19.830000 119.239990 C 19.921196 119.357796 20.061035 119.427719 20.209999 119.429993 Z" fill="#232F3E"/><path d=" M 27.000000 120.349998 L 27.000000 116.650002 C 27.021219 116.408081 26.972633 116.165154 26.860001 115.950005 C 26.747309 115.794876 26.560808 115.711143 26.370001 115.730003 C 26.077791 115.738640 25.793797 115.828682 25.550001 115.990005 L 25.549999 120.349998 L 23.920000 120.349998 L 23.920000 114.720001 L 25.270000 114.720001 L 25.400000 115.230003 C 25.934370 114.833908 26.575401 114.607452 27.240000 114.580002 C 27.641430 114.553581 28.033730 114.707565 28.309999 115.000000 C 28.572020 115.350540 28.699741 115.783371 28.670000 116.220001 L 28.670000 120.349998 Z" fill="#232F3E"/><path d=" M 33.000000 120.349998 L 32.849998 119.839996 C 32.696899 120.044678 32.493721 120.206528 32.259998 120.309998 C 32.016251 120.426201 31.750019 120.487640 31.479998 120.489998 C 31.040817 120.513031 30.612316 120.349617 30.299997 120.040001 C 29.993967 119.709824 29.835165 119.269508 29.859997 118.820000 C 29.836855 118.326881 30.030479 117.848297 30.389997 117.510002 C 30.793861 117.177910 31.307985 117.010109 31.829998 117.040001 C 32.140766 117.046326 32.449646 117.089973 32.749996 117.169998 L 32.750000 116.660004 C 32.777573 116.389763 32.721737 116.117561 32.590000 115.880005 C 32.425476 115.727715 32.202755 115.654694 31.980000 115.680008 C 31.375546 115.705238 30.778566 115.823280 30.209999 116.030006 L 30.209999 115.029999 C 30.497076 114.871574 30.807678 114.760162 31.129999 114.699997 C 31.508097 114.619995 31.893530 114.579773 32.279999 114.579994 C 32.823795 114.532089 33.365879 114.689011 33.799999 115.019997 C 34.149231 115.394203 34.320473 115.900635 34.270000 116.409996 L 34.270000 120.349998 Z M 32.000000 119.430000 C 32.298344 119.418404 32.580971 119.293190 32.790001 119.080002 L 32.790001 118.000000 C 32.587589 117.947983 32.378914 117.924423 32.170002 117.930000 C 31.969456 117.914780 31.772251 117.987816 31.630001 118.129997 C 31.498240 118.297188 31.434006 118.507729 31.450001 118.719994 C 31.439711 118.905304 31.492594 119.088631 31.600000 119.239990 C 31.680525 119.349510 31.804523 119.418808 31.940001 119.429993 Z" fill="#232F3E"/><path d=" M 38.549999 119.709999 C 38.238068 120.047455 37.799538 120.239540 37.340000 120.239998 C 36.764961 120.256142 36.221649 119.976936 35.900002 119.500000 C 35.523476 118.903000 35.338539 118.205116 35.370003 117.500000 C 35.327824 116.757782 35.516457 116.020706 35.910004 115.389999 C 36.229710 114.896965 36.782566 114.605385 37.370003 114.620003 C 37.615833 114.627289 37.857529 114.685165 38.080002 114.790001 C 38.317307 114.897537 38.531315 115.050400 38.710003 115.239998 L 38.830002 114.760002 L 40.180000 114.760002 L 40.180000 120.000000 C 40.180000 121.860001 39.330002 122.790001 37.610001 122.790001 C 36.973320 122.794128 36.345215 122.643105 35.779999 122.349998 L 35.779999 121.349998 C 36.299221 121.547821 36.845421 121.665833 37.399998 121.699997 C 37.640434 121.714272 37.880718 121.669647 38.099998 121.570000 C 38.268620 121.473465 38.393867 121.316017 38.449997 121.129997 C 38.534817 120.803833 38.568554 120.466499 38.549995 120.129997 Z M 37.889999 119.110001 C 38.126286 119.100060 38.355007 119.023819 38.549999 118.889999 L 38.549999 116.000000 C 38.339333 115.838676 38.084938 115.744583 37.820000 115.730003 C 37.550808 115.727432 37.309723 115.896187 37.220001 116.150002 C 37.064037 116.564812 36.995930 117.007492 37.020000 117.450005 C 36.995819 117.886879 37.067493 118.323753 37.230000 118.730003 C 37.357708 118.973930 37.614929 119.122025 37.889999 119.110001 Z" fill="#232F3E"/><path d=" M 42.820000 117.919998 C 42.799252 118.324760 42.927299 118.723129 43.180000 119.040001 C 43.475567 119.286263 43.856880 119.404976 44.240002 119.370003 C 44.469204 119.363998 44.697132 119.333832 44.920002 119.280006 C 45.191528 119.230042 45.458942 119.159843 45.720001 119.070007 L 45.720001 120.070000 C 45.461761 120.217194 45.181507 120.321869 44.889999 120.379997 C 44.561474 120.451813 44.226276 120.488686 43.889999 120.489998 C 42.169998 120.489998 41.310001 119.489998 41.310001 117.540001 C 41.259846 116.754425 41.486275 115.976082 41.950001 115.340004 C 42.404652 114.816292 43.077927 114.535149 43.770000 114.580002 C 45.139999 114.580002 45.770000 115.339996 45.770000 116.870003 C 45.769127 117.206871 45.728855 117.542488 45.650002 117.870003 Z M 43.730000 115.599998 C 43.160000 115.599998 42.849998 116.059998 42.820000 116.970001 L 44.430000 116.970001 L 44.430000 116.720001 C 44.455040 116.423065 44.396133 116.125076 44.260002 115.860001 C 44.142513 115.684830 43.940445 115.585701 43.730003 115.599998 Z" fill="#232F3E"/><path d=" M 53.000000 120.349998 L 53.000000 116.639999 C 53.016663 116.401566 52.968277 116.163086 52.860001 115.949997 C 52.755142 115.796478 52.575054 115.712181 52.389999 115.729996 C 52.107712 115.742058 51.834274 115.832047 51.599998 115.989998 C 51.604916 116.029846 51.604916 116.070152 51.599998 116.110001 L 51.599998 120.349998 L 50.000000 120.349998 L 50.000000 116.639999 C 50.016663 116.401566 49.968277 116.163086 49.860001 115.949997 C 49.758389 115.798111 49.582016 115.713760 49.400002 115.729996 C 49.117992 115.743576 48.844955 115.833435 48.610001 115.989998 L 48.610001 120.349998 L 47.000000 120.349998 L 47.000000 114.720001 L 48.349998 114.720001 L 48.480000 115.230003 C 49.006557 114.840569 49.635986 114.614525 50.290001 114.580002 C 50.790237 114.544861 51.264317 114.807365 51.500000 115.250000 C 52.030991 114.851845 52.667450 114.618820 53.330002 114.580002 C 53.709106 114.564880 54.075390 114.718712 54.330002 115.000000 C 54.593987 115.349983 54.725109 115.782341 54.700001 116.220001 L 54.700001 120.349998 Z" fill="#232F3E"/><path d=" M 57.299999 117.919998 C 57.279251 118.324760 57.407299 118.723129 57.660000 119.040001 C 57.955566 119.286263 58.336880 119.404976 58.720001 119.370003 C 58.949249 119.364609 59.177242 119.334435 59.400002 119.280006 C 59.671528 119.230042 59.938942 119.159843 60.200001 119.070007 L 60.200001 120.070000 C 59.941761 120.217194 59.661507 120.321869 59.369999 120.379997 C 59.041473 120.451813 58.706276 120.488686 58.369999 120.489998 C 56.660000 120.489998 55.799999 119.489998 55.799999 117.540001 C 55.746960 116.755630 55.969818 115.977402 56.430000 115.340004 C 56.884651 114.816292 57.557926 114.535149 58.250000 114.580002 C 59.619999 114.580002 60.299999 115.339996 60.299999 116.870003 C 60.299126 117.206871 60.258854 117.542488 60.180000 117.870003 Z M 58.209999 115.599998 C 57.639999 115.599998 57.330002 116.059998 57.299999 116.970001 L 58.910000 116.970001 L 58.910000 116.720001 C 58.932598 116.424286 58.877438 116.127800 58.750000 115.860001 C 58.627918 115.684784 58.423103 115.586174 58.209999 115.599998 Z" fill="#232F3E"/><path d=" M 64.550003 120.349998 L 64.550003 116.650002 C 64.566498 116.408363 64.518166 116.166710 64.410004 115.950005 C 64.294106 115.793236 64.103882 115.709541 63.910004 115.730003 C 63.618233 115.741188 63.334911 115.831024 63.090004 115.990005 L 63.090000 120.349998 L 61.439999 120.349998 L 61.439999 114.720001 L 62.790001 114.720001 L 62.930000 115.230003 C 63.464371 114.833908 64.105400 114.607452 64.769997 114.580002 C 65.171425 114.553581 65.563728 114.707565 65.839996 115.000000 C 66.102020 115.350540 66.229736 115.783371 66.199997 116.220001 L 66.199997 120.349998 Z" fill="#232F3E"/><path d=" M 70.639999 120.199997 C 70.246460 120.346306 69.829857 120.420822 69.409996 120.419998 C 68.934883 120.461807 68.461983 120.318504 68.089996 120.019997 C 67.789146 119.656647 67.642036 119.190201 67.679993 118.719994 L 67.680000 115.820000 L 67.000000 115.820000 L 67.000000 114.900002 L 67.779999 114.750000 L 68.019997 113.209999 L 69.379997 113.209999 L 69.379997 114.720001 L 70.660004 114.720001 L 70.660004 115.820000 L 69.330002 115.820000 L 69.330002 118.589996 C 69.311531 118.776146 69.365227 118.962288 69.480003 119.109993 C 69.626587 119.234970 69.818748 119.292976 70.010002 119.269997 C 70.222244 119.265694 70.433426 119.238876 70.639999 119.189995 Z" fill="#232F3E"/></g><g id="ICONS_-_EDIT"><path d=" M 43.700001 39.930000 C 43.316620 38.590195 42.632595 37.355530 41.700001 36.320000 L 43.130001 35.000000 C 44.294399 36.262074 45.147152 37.779224 45.620003 39.430000 Z" fill="#FFFFFF"/><path d=" M 36.349998 39.930000 L 34.430000 39.389999 C 34.908543 37.753460 35.760979 36.250572 36.920002 35.000000 L 38.389999 36.360001 C 37.443634 37.376644 36.745415 38.598530 36.349998 39.930000 Z" fill="#FFFFFF"/><path d=" M 48.150002 41.439999 L 46.680000 40.080002 C 48.239769 38.408558 49.104992 36.206173 49.099998 33.920002 L 49.099998 33.740002 C 48.933601 28.728018 44.735695 24.799892 39.723709 24.966291 C 34.945374 25.124931 31.108639 28.961668 30.949999 33.740002 L 30.950001 33.900002 C 30.944834 36.181358 31.806238 38.379543 33.360001 40.050003 L 31.900000 41.430000 C 30.019106 39.383038 28.982985 36.699844 29.000000 33.920002 L 29.000000 33.740002 C 29.183817 27.623447 34.291275 22.814014 40.407829 22.997831 C 46.266094 23.173885 50.973946 27.881739 51.150002 33.740002 L 51.150002 33.930000 C 51.139866 36.723450 50.067314 39.408405 48.150002 41.439999 Z" fill="#FFFFFF"/><path d=" M 40.000000 45.000000 C 39.171848 45.003635 38.346153 44.909653 37.540001 44.720001 L 38.000000 42.779999 C 39.316101 43.083157 40.683899 43.083157 42.000000 42.779999 L 42.470001 44.720001 C 41.660824 44.911751 40.831570 45.005753 40.000000 45.000000 Z" fill="#FFFFFF"/><path d=" M 45.060001 53.549999 C 40.271545 53.568344 36.021339 50.486843 34.550003 45.930000 L 36.450001 45.320000 C 37.142685 47.432076 38.592449 49.213108 40.520000 50.320000 C 44.859631 52.833023 50.414803 51.352264 52.927826 47.012634 C 55.440849 42.673004 53.960091 37.117832 49.620461 34.604809 C 47.634693 33.454876 45.287174 33.099449 43.049999 33.610001 L 42.610001 31.660000 C 48.574692 30.293077 54.518139 34.020306 55.885063 39.984997 C 57.251987 45.949688 53.524757 51.893135 47.560066 53.260059 C 46.740040 53.447983 45.901279 53.541904 45.060001 53.540001 Z" fill="#FFFFFF"/><path d=" M 35.000000 53.549999 C 28.880701 53.563824 23.908821 48.614361 23.894995 42.495060 C 23.881168 36.375759 28.830633 31.403881 34.949932 31.390055 C 35.791214 31.388153 36.629974 31.482073 37.449997 31.669998 L 37.000000 33.619999 C 32.111858 32.500298 27.241537 35.555222 26.121836 40.443367 C 25.002134 45.331509 28.057060 50.201832 32.945202 51.321533 C 35.183338 51.834209 37.532597 51.479923 39.520000 50.330002 C 41.451321 49.224995 42.904842 47.443718 43.600002 45.330002 L 45.500000 45.939999 C 44.002281 50.471878 39.772938 53.537148 35.000000 53.549999 Z" fill="#FFFFFF"/><path d=" M 40.000000 37.790001 C 37.790859 37.790001 36.000000 35.999142 36.000000 33.790001 C 36.000000 31.580862 37.790859 29.790001 40.000000 29.790001 C 42.209141 29.790001 44.000000 31.580862 44.000000 33.790001 C 44.000000 35.999142 42.209141 37.790001 40.000000 37.790001 Z M 40.000000 31.740000 C 38.895432 31.740000 38.000000 32.635429 38.000000 33.739998 C 38.000000 34.844566 38.895432 35.739998 40.000000 35.739998 C 41.104568 35.739998 42.000000 34.844566 42.000000 33.739998 C 42.000000 32.635429 41.104568 31.739998 40.000000 31.739998 Z" fill="#FFFFFF"/><path d=" M 45.060001 46.680000 C 42.850861 46.680000 41.060001 44.889141 41.060001 42.680000 C 41.060001 40.470860 42.850861 38.680000 45.060001 38.680000 C 47.269142 38.680000 49.060001 40.470860 49.060001 42.680000 C 49.060001 44.889141 47.269142 46.680000 45.060001 46.680000 Z M 45.060001 40.680000 C 43.955433 40.680000 43.060001 41.575432 43.060001 42.680000 C 43.060001 43.784569 43.955433 44.680000 45.060001 44.680000 C 46.164570 44.680000 47.060001 43.784569 47.060001 42.680000 C 47.087616 41.575775 46.214851 40.658241 45.110626 40.630627 C 45.093754 40.630203 45.076878 40.629997 45.060001 40.630001 Z" fill="#FFFFFF"/><path d=" M 35.000000 46.680000 C 32.790859 46.680000 31.000000 44.889141 31.000000 42.680000 C 31.000000 40.470860 32.790859 38.680000 35.000000 38.680000 C 37.209141 38.680000 39.000000 40.470860 39.000000 42.680000 C 39.000000 44.889141 37.209141 46.680000 35.000000 46.680000 Z M 35.000000 40.680000 C 33.895432 40.680000 33.000000 41.575432 33.000000 42.680000 C 33.000000 43.784569 33.895432 44.680000 35.000000 44.680000 C 36.104568 44.680000 37.000000 43.784569 37.000000 42.680000 C 37.027615 41.575775 36.154850 40.658241 35.050625 40.630627 C 35.033752 40.630203 35.016876 40.629997 35.000000 40.630001 Z" fill="#FFFFFF"/><path d=" M 40.000000 65.250000 C 39.823914 65.248169 39.651432 65.199875 39.500000 65.110001 L 18.500000 53.000000 C 18.189365 52.820660 17.998575 52.488686 18.000000 52.130001 L 18.000000 27.879999 C 17.998575 27.521315 18.189365 27.189341 18.500000 27.009998 L 39.500000 14.890000 C 39.809402 14.711368 40.190598 14.711368 40.500000 14.890000 L 61.500000 27.000000 C 61.810635 27.179340 62.001423 27.511314 62.000000 27.870001 L 62.000000 52.119999 C 62.001423 52.478683 61.810635 52.810658 61.500000 52.989998 L 40.500000 65.110001 C 40.348568 65.199875 40.176086 65.248169 40.000000 65.250000 Z M 20.000000 51.549999 L 40.000000 63.090000 L 60.000000 51.549999 L 60.000000 28.450001 L 40.000000 16.910000 L 20.000000 28.450001 Z" fill="#FFFFFF"/></g></svg>