<svg id="Layer_1" data-name="Layer 1" xmlns="http://www.w3.org/2000/svg" width="50" height="50" viewBox="0 0 50 50"><title>IoT_Windfarm_light-bg</title><path d="M40.64,43.84H9.29a3.13,3.13,0,0,1-3.13-3.13V9.37A3.14,3.14,0,0,1,9.29,6.23H40.64a3.15,3.15,0,0,1,3.14,3.14V40.71A3.14,3.14,0,0,1,40.64,43.84ZM9.29,8.23A1.14,1.14,0,0,0,8.16,9.37V40.71a1.14,1.14,0,0,0,1.13,1.13H40.64a1.14,1.14,0,0,0,1.14-1.13V9.37a1.14,1.14,0,0,0-1.14-1.14Z" style="fill:#3f8624"/><rect x="12.72" y="1.59" width="2" height="5.63" style="fill:#3f8624"/><rect x="18.34" y="1.59" width="2" height="5.63" style="fill:#3f8624"/><rect x="23.97" y="1.59" width="2" height="5.63" style="fill:#3f8624"/><rect x="29.59" y="1.59" width="2" height="5.63" style="fill:#3f8624"/><rect x="35.22" y="1.59" width="2" height="5.63" style="fill:#3f8624"/><rect x="12.72" y="42.84" width="2" height="5.63" style="fill:#3f8624"/><rect x="18.34" y="42.84" width="2" height="5.63" style="fill:#3f8624"/><rect x="23.97" y="42.84" width="2" height="5.63" style="fill:#3f8624"/><rect x="29.59" y="42.84" width="2" height="5.63" style="fill:#3f8624"/><rect x="35.22" y="42.84" width="2" height="5.63" style="fill:#3f8624"/><rect x="1.53" y="12.78" width="5.63" height="2" style="fill:#3f8624"/><rect x="1.53" y="18.41" width="5.63" height="2" style="fill:#3f8624"/><rect x="1.53" y="24.03" width="5.63" height="2" style="fill:#3f8624"/><rect x="1.53" y="29.66" width="5.63" height="2" style="fill:#3f8624"/><rect x="1.53" y="35.28" width="5.63" height="2" style="fill:#3f8624"/><rect x="42.78" y="12.78" width="5.63" height="2" style="fill:#3f8624"/><rect x="42.78" y="18.41" width="5.63" height="2" style="fill:#3f8624"/><rect x="42.78" y="24.03" width="5.63" height="2" style="fill:#3f8624"/><rect x="42.78" y="29.66" width="5.63" height="2" style="fill:#3f8624"/><rect x="42.78" y="35.28" width="5.63" height="2" style="fill:#3f8624"/><rect x="25.84" y="27.85" width="2" height="12.18" style="fill:#3f8624"/><rect x="11.84" y="22.16" width="12.66" height="2" style="fill:#3f8624"/><rect x="31.15" y="23.47" width="2" height="11.87" transform="translate(-11.37 31.35) rotate(-45)" style="fill:#3f8624"/><rect x="24.48" y="14.55" width="12.33" height="2" transform="translate(3.04 36.01) rotate(-63.43)" style="fill:#3f8624"/><path d="M26.84,26.5a3.34,3.34,0,0,1-2.47-5.59,3.31,3.31,0,0,1,2.31-1.09,3.36,3.36,0,0,1,2.41.86A3.33,3.33,0,0,1,30.18,23a3.29,3.29,0,0,1-.86,2.41A3.37,3.37,0,0,1,27,26.5Zm0-4.69h-.07a1.37,1.37,0,0,0-.93.44,1.34,1.34,0,0,0-.35,1,1.32,1.32,0,0,0,.44.93,1.42,1.42,0,0,0,1,.35,1.32,1.32,0,0,0,.93-.44,1.38,1.38,0,0,0,.35-1,1.35,1.35,0,0,0-1.34-1.28Z" style="fill:#3f8624"/></svg>