<svg id="Layer_1" data-name="Layer 1" xmlns="http://www.w3.org/2000/svg" width="50" height="50" viewBox="0 0 50 50"><title>IoT_HTTP-Protocol_light-bg</title><path d="M26.54,44.52V41H23.71v3.55H22.62v-7.8h1.09v3.37h2.83V36.72h1.09v7.8Z" style="fill:#3f8624"/><path d="M30.57,44.52V37.63H28.63v-.91h5v.91H31.66v6.89Z" style="fill:#3f8624"/><path d="M36.19,44.52V37.63H34.26v-.91h5v.91H37.28v6.89Z" style="fill:#3f8624"/><path d="M41.29,41.49v3H40.23v-7.8h2.29a1.92,1.92,0,0,1,1.1.31,2,2,0,0,1,.74.84,3,3,0,0,1,.25,1.24A2.48,2.48,0,0,1,44,40.84a1.94,1.94,0,0,1-1.51.65Zm0-.86H42.4a1,1,0,0,0,.83-.41,2.22,2.22,0,0,0,0-2.23,1,1,0,0,0-.83-.4H41.29Z" style="fill:#3f8624"/><path d="M15.62,48.33h-8A6.12,6.12,0,0,1,1.5,42.22V7.44A6.12,6.12,0,0,1,7.61,1.33H42.39A6.12,6.12,0,0,1,48.5,7.44v23h-2v-23a4.11,4.11,0,0,0-4.11-4.11H7.61A4.11,4.11,0,0,0,3.5,7.44V42.22a4.11,4.11,0,0,0,4.11,4.11h8Z" style="fill:#3f8624"/><path d="M48.5,48.33H17.44V32.27H48.5Zm-29.06-2H46.5V34.27H19.44Z" style="fill:#3f8624"/><polygon points="48.5 48.33 42.39 48.33 42.39 46.33 46.5 46.33 46.5 42.22 48.5 42.22 48.5 48.33" style="fill:#3f8624"/></svg>