<svg id="Layer_1" data-name="Layer 1" xmlns="http://www.w3.org/2000/svg" width="50" height="50" viewBox="0 0 50 50"><title>IoT_Over-The-Air-Update_light-bg</title><path d="M26.82,28.44h5.83V22.6h-2v2.24a10.21,10.21,0,0,0-16.87,7.75h2a8.22,8.22,0,0,1,13.67-6.15H26.82Z" style="fill:#3f8624"/><path d="M24,40.82a8.21,8.21,0,0,1-5.45-2.07h2.63v-2H15.35v5.83h2V40.35a10.21,10.21,0,0,0,16.87-7.76h-2A8.23,8.23,0,0,1,24,40.82Z" style="fill:#3f8624"/><path d="M41.14,18.28c-.4-3.05-2-5.26-4.47-6a5.52,5.52,0,0,0-5,1,14.2,14.2,0,0,0-2.8-4.08A12.36,12.36,0,0,0,15,6.43,13,13,0,0,0,7.6,17.84c0,.23,0,.46,0,.69A8.59,8.59,0,0,0,1.5,27.2c0,.25,0,.49,0,.73a9.21,9.21,0,0,0,9.29,8.47h1v-2h-1a7.19,7.19,0,0,1-7.29-6.6c0-.19,0-.39,0-.6a6.73,6.73,0,0,1,5.36-7h0a1,1,0,0,0,.78-1.09,11.34,11.34,0,0,1-.08-1.3,11,11,0,0,1,6.15-9.57,10.36,10.36,0,0,1,11.74,2.34,12.65,12.65,0,0,1,2.92,4.79,1,1,0,0,0,1.75.26,3.65,3.65,0,0,1,4-1.43c1.74.51,2.89,2.28,3.09,4.75A1,1,0,0,0,40,20.09c1.95.34,6.48,1.71,6.48,7.18,0,6.52-6.33,7.14-6.51,7.16H37.22v2h2.85C43,36.19,48.5,34,48.5,27.27,48.5,21.93,44.83,19.17,41.14,18.28Z" style="fill:#3f8624"/></svg>