<svg id="Layer_1" data-name="Layer 1" xmlns="http://www.w3.org/2000/svg" width="50" height="50" viewBox="0 0 50 50"><title>IoT_Fire-TV_light-bg</title><path d="M47.5,36.84H2.5a1,1,0,0,1-1-1V10.53a1,1,0,0,1,1-1h45a1,1,0,0,1,1,1V35.84A1,1,0,0,1,47.5,36.84Zm-44-2h43V11.53H3.5Z" style="fill:#3f8624"/><rect x="24" y="35.84" width="2" height="5.63" style="fill:#3f8624"/><rect x="18.44" y="40.47" width="13.12" height="2" style="fill:#3f8624"/><path d="M39.39,23.08A25.55,25.55,0,0,1,25,27.49,26.08,26.08,0,0,1,7.35,20.77c-.37-.33,0-.78.39-.52a35.59,35.59,0,0,0,17.63,4.67,35,35,0,0,0,13.45-2.75C39.48,21.89,40,22.61,39.39,23.08Z" style="fill:#3f8624;fill-rule:evenodd"/><path d="M41,21.23c-.5-.64-3.3-.3-4.55-.15-.38,0-.44-.29-.1-.53,2.23-1.57,5.89-1.12,6.32-.59s-.12,4.2-2.21,5.95c-.32.27-.63.12-.48-.23C40.46,24.5,41.51,21.87,41,21.23Z" style="fill:#3f8624;fill-rule:evenodd"/></svg>