<svg id="Layer_1" data-name="Layer 1" xmlns="http://www.w3.org/2000/svg" width="50" height="50" viewBox="0 0 50 50"><title>IoT_Medical-Emergency_light-bg</title><path d="M40.68,43.81H9.32a3.13,3.13,0,0,1-3.13-3.13V9.34A3.14,3.14,0,0,1,9.32,6.2H40.68a3.14,3.14,0,0,1,3.13,3.14V40.68A3.13,3.13,0,0,1,40.68,43.81ZM9.32,8.2A1.14,1.14,0,0,0,8.19,9.34V40.68a1.14,1.14,0,0,0,1.13,1.13H40.68a1.14,1.14,0,0,0,1.13-1.13V9.34A1.14,1.14,0,0,0,40.68,8.2Z" style="fill:#3f8624"/><rect x="12.75" y="1.56" width="2" height="5.63" style="fill:#3f8624"/><rect x="18.38" y="1.56" width="2" height="5.63" style="fill:#3f8624"/><rect x="24" y="1.56" width="2" height="5.63" style="fill:#3f8624"/><rect x="29.63" y="1.56" width="2" height="5.63" style="fill:#3f8624"/><rect x="35.25" y="1.56" width="2" height="5.63" style="fill:#3f8624"/><rect x="12.75" y="42.81" width="2" height="5.63" style="fill:#3f8624"/><rect x="18.38" y="42.81" width="2" height="5.63" style="fill:#3f8624"/><rect x="24" y="42.81" width="2" height="5.63" style="fill:#3f8624"/><rect x="29.63" y="42.81" width="2" height="5.63" style="fill:#3f8624"/><rect x="35.25" y="42.81" width="2" height="5.63" style="fill:#3f8624"/><rect x="1.56" y="12.75" width="5.63" height="2" style="fill:#3f8624"/><rect x="1.56" y="18.38" width="5.63" height="2" style="fill:#3f8624"/><rect x="1.56" y="24" width="5.63" height="2" style="fill:#3f8624"/><rect x="1.56" y="29.63" width="5.63" height="2" style="fill:#3f8624"/><rect x="1.56" y="35.25" width="5.63" height="2" style="fill:#3f8624"/><rect x="42.81" y="12.75" width="5.62" height="2" style="fill:#3f8624"/><rect x="42.81" y="18.38" width="5.62" height="2" style="fill:#3f8624"/><rect x="42.81" y="24" width="5.62" height="2" style="fill:#3f8624"/><rect x="42.81" y="29.63" width="5.62" height="2" style="fill:#3f8624"/><rect x="42.81" y="35.25" width="5.62" height="2" style="fill:#3f8624"/><path d="M35.31,36.31H14.69a1,1,0,0,1-1-1V14.69a1,1,0,0,1,1-1H35.31a1,1,0,0,1,1,1V35.31A1,1,0,0,1,35.31,36.31Zm-19.62-2H34.31V15.69H15.69Z" style="fill:#3f8624"/><path d="M26.88,32.56H23.12a1,1,0,0,1-1-1V27.88H18.44a1,1,0,0,1-1-1V23.12a1,1,0,0,1,1-1h3.68V18.44a1,1,0,0,1,1-1h3.76a1,1,0,0,1,1,1v3.68h3.68a1,1,0,0,1,1,1v3.76a1,1,0,0,1-1,1H27.88v3.68A1,1,0,0,1,26.88,32.56Zm-2.76-2h1.76V26.88a1,1,0,0,1,1-1h3.68V24.12H26.88a1,1,0,0,1-1-1V19.44H24.12v3.68a1,1,0,0,1-1,1H19.44v1.76h3.68a1,1,0,0,1,1,1Z" style="fill:#3f8624"/></svg>