<svg id="Layer_1" data-name="Layer 1" xmlns="http://www.w3.org/2000/svg" width="50" height="50" viewBox="0 0 50 50"><title>IoT_Utility_light-bg</title><path d="M40.64,43.84H9.29a3.13,3.13,0,0,1-3.13-3.13V9.37A3.14,3.14,0,0,1,9.29,6.23H40.64a3.15,3.15,0,0,1,3.14,3.14V40.71A3.14,3.14,0,0,1,40.64,43.84ZM9.29,8.23A1.14,1.14,0,0,0,8.16,9.37V40.71a1.14,1.14,0,0,0,1.13,1.13H40.64a1.14,1.14,0,0,0,1.14-1.13V9.37a1.14,1.14,0,0,0-1.14-1.14Z" style="fill:#3f8624"/><rect x="12.72" y="1.59" width="2" height="5.63" style="fill:#3f8624"/><rect x="18.34" y="1.59" width="2" height="5.63" style="fill:#3f8624"/><rect x="23.97" y="1.59" width="2" height="5.63" style="fill:#3f8624"/><rect x="29.59" y="1.59" width="2" height="5.63" style="fill:#3f8624"/><rect x="35.22" y="1.59" width="2" height="5.63" style="fill:#3f8624"/><rect x="12.72" y="42.84" width="2" height="5.63" style="fill:#3f8624"/><rect x="18.34" y="42.84" width="2" height="5.63" style="fill:#3f8624"/><rect x="23.97" y="42.84" width="2" height="5.63" style="fill:#3f8624"/><rect x="29.59" y="42.84" width="2" height="5.63" style="fill:#3f8624"/><rect x="35.22" y="42.84" width="2" height="5.63" style="fill:#3f8624"/><rect x="1.53" y="12.78" width="5.63" height="2" style="fill:#3f8624"/><rect x="1.53" y="18.41" width="5.63" height="2" style="fill:#3f8624"/><rect x="1.53" y="24.03" width="5.63" height="2" style="fill:#3f8624"/><rect x="1.53" y="29.66" width="5.63" height="2" style="fill:#3f8624"/><rect x="1.53" y="35.28" width="5.63" height="2" style="fill:#3f8624"/><rect x="42.78" y="12.78" width="5.63" height="2" style="fill:#3f8624"/><rect x="42.78" y="18.41" width="5.63" height="2" style="fill:#3f8624"/><rect x="42.78" y="24.03" width="5.63" height="2" style="fill:#3f8624"/><rect x="42.78" y="29.66" width="5.63" height="2" style="fill:#3f8624"/><rect x="42.78" y="35.28" width="5.63" height="2" style="fill:#3f8624"/><path d="M36.22,29.78H30.51a1,1,0,0,1-1-1v-2.7H11.84a1,1,0,0,1-1-1V19.41a1,1,0,0,1,1-1H30.21a7,7,0,0,1,7,7v3.36A1,1,0,0,1,36.22,29.78Zm-4.71-2h3.71V25.42a5,5,0,0,0-5-5H12.84v3.67H29.62A1.89,1.89,0,0,1,31.51,26Z" style="fill:#3f8624"/><path d="M33.88,40.09a3.35,3.35,0,0,1-3.35-3.34c0-1.17.9-2.84,2-4.75.2-.35.37-.65.47-.85a1,1,0,0,1,1.79,0c.1.2.27.5.47.85,1.08,1.91,2,3.58,2,4.75A3.35,3.35,0,0,1,33.88,40.09Zm0-6.44a10.56,10.56,0,0,0-1.35,3.1,1.35,1.35,0,0,0,2.69,0A10.76,10.76,0,0,0,33.88,33.65Z" style="fill:#3f8624"/><path d="M30.59,15.72H17.47a1,1,0,0,1-1-1V11.91a1,1,0,0,1,1-1H30.59a1,1,0,0,1,1,1v2.81A1,1,0,0,1,30.59,15.72Zm-12.12-2H29.59v-.81H18.47Z" style="fill:#3f8624"/><rect x="23.03" y="13.98" width="2" height="4.49" style="fill:#3f8624"/></svg>