<svg id="Layer_1" data-name="Layer 1" xmlns="http://www.w3.org/2000/svg" width="50" height="50" viewBox="0 0 50 50"><title>IoT_Shadow_light-bg</title><path d="M40.07,32.56l-29.26,0a9.21,9.21,0,0,1-9.29-8.47c0-.24,0-.48,0-.73a8.59,8.59,0,0,1,6.12-8.67c0-.23,0-.46,0-.69A13,13,0,0,1,15,2.56,12.36,12.36,0,0,1,28.91,5.33a14.2,14.2,0,0,1,2.8,4.08,5.52,5.52,0,0,1,5-1c2.44.71,4.07,2.92,4.47,6,3.69.89,7.36,3.65,7.36,9C48.5,30.1,43,32.32,40.07,32.56ZM8.86,16.37a6.73,6.73,0,0,0-5.36,7c0,.21,0,.41,0,.6a7.19,7.19,0,0,0,7.29,6.6l29.18,0c.18,0,6.51-.64,6.51-7.16,0-5.47-4.53-6.84-6.48-7.18a1,1,0,0,1-.82-1.11c-.2-2.47-1.35-4.24-3.09-4.75a3.65,3.65,0,0,0-4,1.43,1,1,0,0,1-1.75-.26,12.65,12.65,0,0,0-2.92-4.79A10.36,10.36,0,0,0,15.75,4.4,11,11,0,0,0,9.6,14a9.45,9.45,0,0,0,.08,1.3,1,1,0,0,1-.78,1.09Z" style="fill:#3f8624"/><path d="M40,28.81H9.06a1,1,0,0,1-1-1V18.44a1,1,0,0,1,1-1H40a1,1,0,0,1,1,1v9.37A1,1,0,0,1,40,28.81Zm-29.94-2H39V19.44H10.06Z" style="fill:#3f8624"/><path d="M13.75,26.14a3,3,0,1,1,3-3A3,3,0,0,1,13.75,26.14Zm0-4a1,1,0,1,0,1,1A1,1,0,0,0,13.75,22.11Z" style="fill:#3f8624"/><path d="M27.5,26H21.25a1,1,0,0,1-.77-1.64l3.13-3.75a1,1,0,0,1,1.53,0l3.13,3.75A1,1,0,0,1,27.5,26Zm-4.11-2h2l-1-1.19Z" style="fill:#3f8624"/><path d="M37.19,26.07H33.43a1,1,0,0,1-1-1V21.31a1,1,0,0,1,1-1h3.76a1,1,0,0,1,1,1v3.76A1,1,0,0,1,37.19,26.07Zm-2.76-2h1.76V22.31H34.43Z" style="fill:#3f8624"/><path d="M45.62,48.5H4.38a1,1,0,0,1-1-1V35.31a1,1,0,0,1,1-1H45.62a1,1,0,0,1,1,1V47.5A1,1,0,0,1,45.62,48.5Zm-40.24-2H44.62V36.31H5.38Z" style="fill:#3f8624"/><path d="M11.41,44.94a3.53,3.53,0,1,1,3.53-3.53A3.54,3.54,0,0,1,11.41,44.94Zm0-5.06a1.53,1.53,0,1,0,1.53,1.53A1.52,1.52,0,0,0,11.41,39.88Z" style="fill:#3f8624"/><path d="M28.75,44.68h-7.5a1,1,0,0,1-.8-1.59L24.2,38a1,1,0,0,1,1.6,0l3.75,5.09a1,1,0,0,1-.8,1.59Zm-5.52-2h3.54L25,40.28Z" style="fill:#3f8624"/><path d="M40.94,44.75H36.25a1,1,0,0,1-1-1V39.06a1,1,0,0,1,1-1h4.69a1,1,0,0,1,1,1v4.69A1,1,0,0,1,40.94,44.75Zm-3.69-2h2.69V40.06H37.25Z" style="fill:#3f8624"/></svg>