<svg id="Layer_1" data-name="Layer 1" xmlns="http://www.w3.org/2000/svg" width="50" height="50" viewBox="0 0 50 50"><title>IoT_Thermostat_light-bg</title><path d="M40.77,43.78H9.16a3,3,0,0,1-3-3V9.17a3,3,0,0,1,3-3H40.77a3,3,0,0,1,3,3V40.78A3,3,0,0,1,40.77,43.78ZM9.16,8.17a1,1,0,0,0-1,1V40.78a1,1,0,0,0,1,1H40.77a1,1,0,0,0,1-1V9.17a1,1,0,0,0-1-1Z" style="fill:#3f8624"/><rect x="12.72" y="1.53" width="2" height="5.63" style="fill:#3f8624"/><rect x="18.34" y="1.53" width="2" height="5.63" style="fill:#3f8624"/><rect x="23.97" y="1.53" width="2" height="5.63" style="fill:#3f8624"/><rect x="29.59" y="1.53" width="2" height="5.63" style="fill:#3f8624"/><rect x="35.22" y="1.53" width="2" height="5.63" style="fill:#3f8624"/><rect x="12.72" y="42.78" width="2" height="5.63" style="fill:#3f8624"/><rect x="18.34" y="42.78" width="2" height="5.63" style="fill:#3f8624"/><rect x="23.97" y="42.78" width="2" height="5.63" style="fill:#3f8624"/><rect x="29.59" y="42.78" width="2" height="5.63" style="fill:#3f8624"/><rect x="35.22" y="42.78" width="2" height="5.63" style="fill:#3f8624"/><rect x="1.53" y="12.72" width="5.63" height="2" style="fill:#3f8624"/><rect x="1.53" y="18.34" width="5.63" height="2" style="fill:#3f8624"/><rect x="1.53" y="23.97" width="5.63" height="2" style="fill:#3f8624"/><rect x="1.53" y="29.59" width="5.63" height="2" style="fill:#3f8624"/><rect x="1.53" y="35.22" width="5.63" height="2" style="fill:#3f8624"/><rect x="42.78" y="12.72" width="5.63" height="2" style="fill:#3f8624"/><rect x="42.78" y="18.34" width="5.63" height="2" style="fill:#3f8624"/><rect x="42.78" y="23.97" width="5.63" height="2" style="fill:#3f8624"/><rect x="42.78" y="29.59" width="5.63" height="2" style="fill:#3f8624"/><rect x="42.78" y="35.22" width="5.63" height="2" style="fill:#3f8624"/><path d="M25,39.56A14.59,14.59,0,1,1,39.56,25,14.6,14.6,0,0,1,25,39.56Zm0-27.18A12.59,12.59,0,1,0,37.56,25,12.59,12.59,0,0,0,25,12.38Z" style="fill:#3f8624"/><rect x="23.97" y="17.47" width="2" height="13.13" style="fill:#3f8624"/><rect x="22.16" y="18.34" width="2.81" height="2" style="fill:#3f8624"/><rect x="22.16" y="22.09" width="2.81" height="2" style="fill:#3f8624"/><rect x="22.16" y="25.84" width="2.81" height="2" style="fill:#3f8624"/><path d="M25,35.81a3.35,3.35,0,1,1,3.34-3.34A3.35,3.35,0,0,1,25,35.81Zm0-4.69a1.35,1.35,0,1,0,0,2.69,1.35,1.35,0,0,0,0-2.69Z" style="fill:#3f8624"/><rect x="33.96" y="19.97" width="3.49" height="2" transform="translate(-5.08 13.83) rotate(-20.5)" style="fill:#3f8624"/><rect x="27.98" y="13.55" width="3.5" height="2" transform="translate(4.18 35.59) rotate(-65.55)" style="fill:#3f8624"/><rect x="19.97" y="12.49" width="2" height="3.49" transform="translate(-3.66 8.25) rotate(-20.5)" style="fill:#3f8624"/><rect x="13.55" y="18.46" width="2" height="3.5" transform="translate(-9.87 25.09) rotate(-65.56)" style="fill:#3f8624"/></svg>