<svg id="Layer_1" data-name="Layer 1" xmlns="http://www.w3.org/2000/svg" width="50" height="50" viewBox="0 0 50 50"><title>IoT_Travel_light-bg</title><path d="M40.64,43.78H9.29a3.13,3.13,0,0,1-3.13-3.13V9.31A3.14,3.14,0,0,1,9.29,6.17H40.64a3.15,3.15,0,0,1,3.14,3.14V40.65A3.14,3.14,0,0,1,40.64,43.78ZM9.29,8.17A1.14,1.14,0,0,0,8.16,9.31V40.65a1.14,1.14,0,0,0,1.13,1.13H40.64a1.14,1.14,0,0,0,1.14-1.13V9.31a1.14,1.14,0,0,0-1.14-1.14Z" style="fill:#3f8624"/><rect x="12.72" y="1.53" width="2" height="5.63" style="fill:#3f8624"/><rect x="18.34" y="1.53" width="2" height="5.63" style="fill:#3f8624"/><rect x="23.97" y="1.53" width="2" height="5.63" style="fill:#3f8624"/><rect x="29.59" y="1.53" width="2" height="5.63" style="fill:#3f8624"/><rect x="35.22" y="1.53" width="2" height="5.63" style="fill:#3f8624"/><rect x="12.72" y="42.78" width="2" height="5.63" style="fill:#3f8624"/><rect x="18.34" y="42.78" width="2" height="5.63" style="fill:#3f8624"/><rect x="23.97" y="42.78" width="2" height="5.63" style="fill:#3f8624"/><rect x="29.59" y="42.78" width="2" height="5.63" style="fill:#3f8624"/><rect x="35.22" y="42.78" width="2" height="5.63" style="fill:#3f8624"/><rect x="1.53" y="12.72" width="5.63" height="2" style="fill:#3f8624"/><rect x="1.53" y="18.34" width="5.63" height="2" style="fill:#3f8624"/><rect x="1.53" y="23.97" width="5.63" height="2" style="fill:#3f8624"/><rect x="1.53" y="29.59" width="5.63" height="2" style="fill:#3f8624"/><rect x="1.53" y="35.22" width="5.63" height="2" style="fill:#3f8624"/><rect x="42.78" y="12.72" width="5.63" height="2" style="fill:#3f8624"/><rect x="42.78" y="18.34" width="5.63" height="2" style="fill:#3f8624"/><rect x="42.78" y="23.97" width="5.63" height="2" style="fill:#3f8624"/><rect x="42.78" y="29.59" width="5.63" height="2" style="fill:#3f8624"/><rect x="42.78" y="35.22" width="5.63" height="2" style="fill:#3f8624"/><path d="M20.27,40,20,40a1,1,0,0,1-.71-.69l-2-6.78-6.71-1.91a1,1,0,0,1-.69-.7,1,1,0,0,1,.26-1l1.88-1.88a1,1,0,0,1,.7-.3H18.9l3.57-4L11.76,18a1,1,0,0,1-.57-.73,1,1,0,0,1,.27-.89l2.72-2.71a1,1,0,0,1,.93-.27l13.35,3.08L32,12.67c1.29-1.29,4.73-2.7,6.33-1.11A3.39,3.39,0,0,1,38.8,15a7,7,0,0,1-1.58,2.88l-3.79,3.55,3.08,13.34a1,1,0,0,1-.27.93l-2.71,2.72a1,1,0,0,1-.89.27,1,1,0,0,1-.73-.57L27.05,27.42,23.16,31v6.13a1,1,0,0,1-.3.71L21,39.74A1,1,0,0,1,20.27,40ZM12.81,29.17l5.61,1.59a1,1,0,0,1,.69.68l1.65,5.69.4-.39V30.59a1,1,0,0,1,.32-.73L26.71,25a1,1,0,0,1,.87-.24,1,1,0,0,1,.71.56L33.13,36l1.31-1.3L31.35,21.3a1,1,0,0,1,.29-.95l4.19-3.92a5,5,0,0,0,1.05-2c.24-.85.14-1.35,0-1.47-.42-.43-2.53.14-3.47,1.08l-3.9,4.17a1,1,0,0,1-.95.29L15.2,15.43l-1.3,1.31,10.64,4.84a1,1,0,0,1,.56.7,1,1,0,0,1-.23.88l-4.78,5.29a1,1,0,0,1-.74.33H13.2Z" style="fill:#3f8624"/><path d="M24.32,17.06,22.9,15.64l1.88-1.87a.41.41,0,0,0,0-.58.35.35,0,0,0-.58,0l-3.11,3.12L19.67,14.9l3.12-3.12a2.4,2.4,0,0,1,3.4,0,2.39,2.39,0,0,1,0,3.4Z" style="fill:#3f8624"/><path d="M35,30.21,33.58,28.8l3.11-3.12a.37.37,0,0,0,.12-.29.37.37,0,0,0-.12-.28.4.4,0,0,0-.57,0L34.24,27l-1.41-1.41,1.88-1.88a2.46,2.46,0,0,1,3.4,0,2.41,2.41,0,0,1,0,3.41Z" style="fill:#3f8624"/></svg>