<svg id="Layer_1" data-name="Layer 1" xmlns="http://www.w3.org/2000/svg" width="50" height="50" viewBox="0 0 50 50"><title>IoT_Hardware-Board_light-bg</title><path d="M47.5,37.25H2.5a1,1,0,0,1-1-1V13.75a1,1,0,0,1,1-1h45a1,1,0,0,1,1,1v22.5A1,1,0,0,1,47.5,37.25Zm-44-2h43V14.75H3.5Z" style="fill:#3f8624"/><path d="M29.19,10.53a4.34,4.34,0,0,0-8.38,0L18.88,10a6.33,6.33,0,0,1,12.24,0Z" style="fill:#3f8624"/><path d="M32.52,8.48a8.17,8.17,0,0,0-15,0l-1.84-.79a10.17,10.17,0,0,1,18.72,0Z" style="fill:#3f8624"/><path d="M25,44.68A6.31,6.31,0,0,1,18.88,40l1.93-.51a4.34,4.34,0,0,0,8.38,0l1.93.51A6.31,6.31,0,0,1,25,44.68Z" style="fill:#3f8624"/><path d="M25,48.5a10.16,10.16,0,0,1-9.36-6.19l1.84-.79a8.17,8.17,0,0,0,15,0l1.84.79A10.16,10.16,0,0,1,25,48.5Z" style="fill:#3f8624"/><circle cx="8.13" cy="28.28" r="2.34" style="fill:#3f8624"/><rect x="7.13" y="29.69" width="2" height="6.56" style="fill:#3f8624"/><circle cx="9.55" cy="19.87" r="2.34" style="fill:#3f8624"/><polygon points="16.63 36.25 14.63 36.25 14.63 26.35 9.29 21.02 10.71 19.61 16.63 25.52 16.63 36.25" style="fill:#3f8624"/><path d="M44.75,26H37.12V18.38h7.63Zm-5.63-2h3.63V20.38H39.12Z" style="fill:#3f8624"/><circle cx="31.09" cy="22.19" r="2.34" style="fill:#3f8624"/><rect x="31.56" y="21.19" width="6.56" height="2" style="fill:#3f8624"/><circle cx="27.81" cy="30.63" r="2.34" style="fill:#3f8624"/><rect x="29.69" y="29.63" width="17.81" height="2" style="fill:#3f8624"/><circle cx="22.66" cy="24.53" r="2.34" style="fill:#3f8624"/><polygon points="21.5 24.79 15.59 18.88 15.56 13.76 17.56 13.74 17.58 18.05 22.92 23.38 21.5 24.79" style="fill:#3f8624"/></svg>