<svg id="Layer_1" data-name="Layer 1" xmlns="http://www.w3.org/2000/svg" width="50" height="50" viewBox="0 0 50 50"><title>IoT_Actuator_light-bg</title><path d="M38.3,28.78H31.53v-2h6.69c.15,0,5.64-.56,5.64-6.14,0-4.69-3.93-5.88-5.63-6.17a1,1,0,0,1-.82-1.08c-.17-2.1-1.15-3.61-2.63-4.05a3.13,3.13,0,0,0-3.4,1.2l-1.6-1.2a5.11,5.11,0,0,1,5.56-1.92c2.16.64,3.62,2.57,4,5.24,2.2.55,6.52,2.36,6.52,8A8,8,0,0,1,38.3,28.78Z" style="fill:#3f8624"/><path d="M18.4,28.76h-6A8.21,8.21,0,0,1,4.1,21.22c0-.22,0-.43,0-.65a7.74,7.74,0,0,1,5.4-7.68c0-.18,0-.35,0-.52a11.44,11.44,0,0,1,6.59-10.1A11.1,11.1,0,0,1,28.5,4.72a12.85,12.85,0,0,1,3,4.88,1.33,1.33,0,0,1,0,.34h-1l-.93.33A10.83,10.83,0,0,0,27.1,6.14a9.16,9.16,0,0,0-10.27-2,9.49,9.49,0,0,0-5.36,8.26,11.13,11.13,0,0,0,.06,1.13,1,1,0,0,1-.74,1.08,5.82,5.82,0,0,0-4.71,6c0,.18,0,.36,0,.53a6.21,6.21,0,0,0,6.33,5.65h6Z" style="fill:#3f8624"/><path d="M25,33.47a1,1,0,0,1-.71-.29l-3.75-3.75L21.93,28l3,3,3-3,1.42,1.42-3.75,3.75A1,1,0,0,1,25,33.47Z" style="fill:#3f8624"/><rect x="23.97" y="21.22" width="2" height="10.8" style="fill:#3f8624"/><path d="M25,22.69a4.29,4.29,0,1,1,4.28-4.28A4.28,4.28,0,0,1,25,22.69Zm0-6.57a2.29,2.29,0,1,0,2.28,2.29A2.29,2.29,0,0,0,25,16.12Z" style="fill:#3f8624"/><path d="M45.59,48.54H4.34a1,1,0,0,1-1-1V35.35a1,1,0,0,1,1-1H45.59a1,1,0,0,1,1,1V47.54A1,1,0,0,1,45.59,48.54Zm-40.25-2H44.59V36.35H5.34Z" style="fill:#3f8624"/><path d="M11.38,45A3.58,3.58,0,1,1,15,41.38,3.57,3.57,0,0,1,11.38,45Zm0-5.15A1.58,1.58,0,1,0,13,41.38,1.57,1.57,0,0,0,11.38,39.8Z" style="fill:#3f8624"/><path d="M28.72,44.72h-7.5a1,1,0,0,1-.89-.55,1,1,0,0,1,.08-1.05L24.16,38a1,1,0,0,1,1.61,0l3.75,5.08a1,1,0,0,1,.09,1.05A1,1,0,0,1,28.72,44.72Zm-5.52-2h3.54L25,40.32Z" style="fill:#3f8624"/><path d="M40.91,44.79H36.22a1,1,0,0,1-1-1V39.1a1,1,0,0,1,1-1h4.69a1,1,0,0,1,1,1v4.69A1,1,0,0,1,40.91,44.79Zm-3.69-2h2.69V40.1H37.22Z" style="fill:#3f8624"/></svg>