<svg id="Layer_1" data-name="Layer 1" xmlns="http://www.w3.org/2000/svg" width="50" height="50" viewBox="0 0 50 50"><title>IoT_Alexa-Enabled-Device_light-bg</title><rect x="12.75" y="1.56" width="2" height="5.63" style="fill:#3f8624"/><rect x="18.38" y="1.56" width="2" height="5.63" style="fill:#3f8624"/><rect x="24" y="1.56" width="2" height="5.63" style="fill:#3f8624"/><rect x="29.63" y="1.56" width="2" height="5.63" style="fill:#3f8624"/><rect x="35.25" y="1.56" width="2" height="5.63" style="fill:#3f8624"/><rect x="12.75" y="42.81" width="2" height="5.63" style="fill:#3f8624"/><rect x="18.38" y="42.81" width="2" height="5.63" style="fill:#3f8624"/><rect x="1.56" y="12.75" width="5.63" height="2" style="fill:#3f8624"/><rect x="1.56" y="18.38" width="5.63" height="2" style="fill:#3f8624"/><rect x="1.56" y="24" width="5.63" height="2" style="fill:#3f8624"/><rect x="1.56" y="29.63" width="5.63" height="2" style="fill:#3f8624"/><rect x="1.56" y="35.25" width="5.63" height="2" style="fill:#3f8624"/><rect x="42.81" y="12.75" width="5.62" height="2" style="fill:#3f8624"/><rect x="42.81" y="18.38" width="5.62" height="2" style="fill:#3f8624"/><path d="M26,48.44H24V43.81H9.19a3,3,0,0,1-3-3V9.2a3,3,0,0,1,3-3H40.81a3,3,0,0,1,3,3V24h4.63v2H41.81V9.2a1,1,0,0,0-1-1H9.19a1,1,0,0,0-1,1V40.82a1,1,0,0,0,1,1H26Z" style="fill:#3f8624"/><path d="M35,48.36a1,1,0,0,1-.61-.21,1,1,0,0,1-.39-.79V45.23a.91.91,0,0,0-.56-.82,8.35,8.35,0,1,1,11.6-7.69c0,5.26-4.12,10.15-9.79,11.61A1.07,1.07,0,0,1,35,48.36Zm1.69-18a6.35,6.35,0,0,0-2.47,12.2A2.89,2.89,0,0,1,36,45.23V46c4.15-1.57,7-5.3,7-9.28A6.36,6.36,0,0,0,36.72,30.37Z" style="fill:#3f8624"/><path d="M36.72,48.5a11.62,11.62,0,0,1-4.59-.93,11.78,11.78,0,1,1,4.59.93Zm0-21.56a9.78,9.78,0,1,0,9.78,9.78A9.79,9.79,0,0,0,36.72,26.94Z" style="fill:#3f8624"/></svg>