<svg id="Layer_1" data-name="Layer 1" xmlns="http://www.w3.org/2000/svg" width="50" height="50" viewBox="0 0 50 50"><title>IoT_Police-Emergency_light-bg</title><path d="M40.64,43.78H9.29a3.13,3.13,0,0,1-3.13-3.13V9.31A3.14,3.14,0,0,1,9.29,6.17H40.64a3.15,3.15,0,0,1,3.14,3.14V40.65A3.14,3.14,0,0,1,40.64,43.78ZM9.29,8.17A1.14,1.14,0,0,0,8.16,9.31V40.65a1.14,1.14,0,0,0,1.13,1.13H40.64a1.14,1.14,0,0,0,1.14-1.13V9.31a1.14,1.14,0,0,0-1.14-1.14Z" style="fill:#3f8624"/><rect x="12.72" y="1.53" width="2" height="5.63" style="fill:#3f8624"/><rect x="18.34" y="1.53" width="2" height="5.63" style="fill:#3f8624"/><rect x="23.97" y="1.53" width="2" height="5.63" style="fill:#3f8624"/><rect x="29.59" y="1.53" width="2" height="5.63" style="fill:#3f8624"/><rect x="35.22" y="1.53" width="2" height="5.63" style="fill:#3f8624"/><rect x="12.72" y="42.78" width="2" height="5.63" style="fill:#3f8624"/><rect x="18.34" y="42.78" width="2" height="5.63" style="fill:#3f8624"/><rect x="23.97" y="42.78" width="2" height="5.63" style="fill:#3f8624"/><rect x="29.59" y="42.78" width="2" height="5.63" style="fill:#3f8624"/><rect x="35.22" y="42.78" width="2" height="5.63" style="fill:#3f8624"/><rect x="1.53" y="12.72" width="5.63" height="2" style="fill:#3f8624"/><rect x="1.53" y="18.34" width="5.63" height="2" style="fill:#3f8624"/><rect x="1.53" y="23.97" width="5.63" height="2" style="fill:#3f8624"/><rect x="1.53" y="29.59" width="5.63" height="2" style="fill:#3f8624"/><rect x="1.53" y="35.22" width="5.63" height="2" style="fill:#3f8624"/><rect x="42.78" y="12.72" width="5.63" height="2" style="fill:#3f8624"/><rect x="42.78" y="18.34" width="5.63" height="2" style="fill:#3f8624"/><rect x="42.78" y="23.97" width="5.63" height="2" style="fill:#3f8624"/><rect x="42.78" y="29.59" width="5.63" height="2" style="fill:#3f8624"/><rect x="42.78" y="35.22" width="5.63" height="2" style="fill:#3f8624"/><path d="M25,38.41,24.36,38a12.77,12.77,0,0,0-4.83-2.15c-4-.71-6.34-2.92-6.34-5.92a7.44,7.44,0,0,1,1.26-3.95,4.44,4.44,0,0,0,.84-2.28,4.36,4.36,0,0,0-1.44-3L13.08,20l.63-.77s2.63-3.19,3.22-4l.72-1,.82.88a4.15,4.15,0,0,0,2.92,1.48A3.26,3.26,0,0,0,24.17,15l.8-1,.79,1a3.28,3.28,0,0,0,2.79,1.61,4.13,4.13,0,0,0,2.91-1.48l.83-.88.71,1c.59.81,3.2,4,3.23,4l.64.78-.79.63a4.37,4.37,0,0,0-1.43,3,4.51,4.51,0,0,0,.83,2.28,7.36,7.36,0,0,1,1.27,3.95c0,3-2.37,5.21-6.35,5.92A12.77,12.77,0,0,0,25.58,38ZM15.82,19.79a6.07,6.07,0,0,1,1.47,3.86,6.32,6.32,0,0,1-1.11,3.29,5.49,5.49,0,0,0-1,2.94c0,2.81,3.28,3.7,4.7,3.95A14.44,14.44,0,0,1,25,35.94a14.44,14.44,0,0,1,5.08-2.11c1.41-.25,4.7-1.14,4.7-3.95a5.42,5.42,0,0,0-1-2.94,6.4,6.4,0,0,1-1.1-3.29,6.07,6.07,0,0,1,1.47-3.86c-.56-.68-1.42-1.72-2-2.51a5.73,5.73,0,0,1-3.52,1.32A4.88,4.88,0,0,1,25,17.1a4.92,4.92,0,0,1-3.58,1.5,5.73,5.73,0,0,1-3.52-1.32C17.24,18.07,16.38,19.11,15.82,19.79Z" style="fill:#3f8624"/></svg>