<svg id="Layer_1" data-name="Layer 1" xmlns="http://www.w3.org/2000/svg" width="50" height="50" viewBox="0 0 50 50"><title>IoT_MQTT-Protocol_light-bg</title><path d="M25.63,44.52V38.41L24,42.52h-1l-1.6-4.11v6.11h-1v-7.8h1.23l1.85,4.77,1.87-4.77h1.18v7.8Z" style="fill:#3f8624"/><path d="M28.12,40.63a5,5,0,0,1,.77-3,2.76,2.76,0,0,1,4.35,0,5,5,0,0,1,.77,3,5.56,5.56,0,0,1-.54,2.61,2.53,2.53,0,0,1-1.54,1.32,3.65,3.65,0,0,0,.94.56,4.22,4.22,0,0,0,1.06.25v1a4.68,4.68,0,0,1-1.62-.53,5.61,5.61,0,0,1-1.4-1.11,2.62,2.62,0,0,1-1.52-.54,3,3,0,0,1-.95-1.4A6.43,6.43,0,0,1,28.12,40.63Zm1.11,0A4.84,4.84,0,0,0,29.69,43a1.59,1.59,0,0,0,2.75,0,4.72,4.72,0,0,0,.46-2.34,4.67,4.67,0,0,0-.46-2.34,1.59,1.59,0,0,0-2.75,0A4.78,4.78,0,0,0,29.23,40.63Z" style="fill:#3f8624"/><path d="M36.54,44.52V37.63H34.61v-.91h5v.91H37.64v6.89Z" style="fill:#3f8624"/><path d="M42.17,44.52V37.63H40.23v-.91h5v.91h-2v6.89Z" style="fill:#3f8624"/><path d="M15.62,48.33h-8A6.12,6.12,0,0,1,1.5,42.22V7.44A6.12,6.12,0,0,1,7.61,1.33H42.39A6.12,6.12,0,0,1,48.5,7.44v23h-2v-23a4.11,4.11,0,0,0-4.11-4.11H7.61A4.11,4.11,0,0,0,3.5,7.44V42.22a4.11,4.11,0,0,0,4.11,4.11h8Z" style="fill:#3f8624"/><path d="M48.5,48.33H17.44V32.27H48.5Zm-29.06-2H46.5V34.27H19.44Z" style="fill:#3f8624"/><polygon points="48.5 48.33 42.39 48.33 42.39 46.33 46.5 46.33 46.5 42.22 48.5 42.22 48.5 48.33" style="fill:#3f8624"/></svg>