<svg id="Layer_1" data-name="Layer 1" xmlns="http://www.w3.org/2000/svg" width="50" height="50" viewBox="0 0 50 50"><title>IoT_Desired-State_light-bg</title><path d="M42.08,48.53H38v-2H42Zm-6.15,0H31.87v-2h4.06Zm-6.09,0H25.77v-2h4.07Zm-6.1,0H19.68v-2h4.06Zm-6.09,0H13.59v-2h4.06Zm-6.09,0H7.92l-.5,0,.15-2h4Zm32.88-.47-.75-1.85A4.42,4.42,0,0,0,46,44l1.81.86A6.39,6.39,0,0,1,44.44,48.06ZM5.11,47.89a6.43,6.43,0,0,1-3.19-3.44l1.86-.74A4.42,4.42,0,0,0,6,46.09Zm43.34-5.37-2-.13c0-.1,0-.2,0-.31V38.39h2v3.69C48.47,42.23,48.46,42.38,48.45,42.52Zm-47-.42V38h2v4Zm47-5.74h-2V32.3h2ZM3.47,36h-2V32h2Zm45-5.74h-2V26.21h2Zm-45-.36h-2V25.85h2Zm45-5.73h-2V20.12h2Zm-45-.36h-2V19.76h2Zm45-5.73h-2V14h2Zm-45-.36h-2V13.67h2Zm45-5.74h-2V8l1.56,0h.44Zm-45-.35h-2V8a3.85,3.85,0,0,1,0-.48l2,.15c0,.11,0,.22,0,.33ZM46.15,6.32A4.45,4.45,0,0,0,43.93,4l.86-1.8A6.45,6.45,0,0,1,48,5.58ZM3.9,6.06,2.1,5.19A6.43,6.43,0,0,1,5.53,2l.74,1.85A4.47,4.47,0,0,0,3.9,6.06ZM42.34,3.54h-4v-2H42l.46,0Zm-6,0H32.26v-2h4.06Zm-6.1,0H26.16v-2h4.06Zm-6.09,0H20.07v-2h4.06ZM18,3.53H14v-2H18ZM12,3.53h-4l0-1.85V1.53H12Z" style="fill:#3f8624"/><path d="M16.53,43.84H5.28a1,1,0,0,1-1-1V22.22a1,1,0,0,1,1-1H16.53a1,1,0,0,1,1,1V42.84A1,1,0,0,1,16.53,43.84Zm-10.25-2h9.25V23.22H6.28Z" style="fill:#3f8624"/><path d="M30.59,43.84H19.34a1,1,0,0,1-1-1V9.09a1,1,0,0,1,1-1H30.59a1,1,0,0,1,1,1V42.84A1,1,0,0,1,30.59,43.84Zm-10.25-2h9.25V10.09H20.34Z" style="fill:#3f8624"/><path d="M44.66,43.84H33.41a1,1,0,0,1-1-1V14.72a1,1,0,0,1,1-1H44.66a1,1,0,0,1,1,1V42.84A1,1,0,0,1,44.66,43.84Zm-10.25-2h9.25V15.72H34.41Z" style="fill:#3f8624"/><path d="M10.91,40.09a3.34,3.34,0,1,1,3.34-3.34A3.35,3.35,0,0,1,10.91,40.09Zm0-4.68a1.34,1.34,0,1,0,1.34,1.34A1.35,1.35,0,0,0,10.91,35.41Z" style="fill:#3f8624"/><path d="M27.78,40.09H22.16a1,1,0,0,1-.86-1.51l2.81-4.69a1,1,0,0,1,1.72,0l2.81,4.69a1,1,0,0,1-.86,1.51Zm-3.86-2H26L25,36.35Z" style="fill:#3f8624"/><path d="M41.84,40.09H36.22a1,1,0,0,1-1-1V33.47a1,1,0,0,1,1-1h5.62a1,1,0,0,1,1,1v5.62A1,1,0,0,1,41.84,40.09Zm-4.62-2h3.62V34.47H37.22Z" style="fill:#3f8624"/></svg>