<svg id="Layer_1" data-name="Layer 1" xmlns="http://www.w3.org/2000/svg" width="50" height="50" viewBox="0 0 50 50"><title>IoT_Generic_light-bg</title><path d="M39.56,42.7H10.44A3.15,3.15,0,0,1,7.3,39.56V10.45a3.14,3.14,0,0,1,3.14-3.13H39.56a3.14,3.14,0,0,1,3.14,3.13V39.56A3.15,3.15,0,0,1,39.56,42.7ZM10.44,9.32A1.13,1.13,0,0,0,9.3,10.45V39.56a1.14,1.14,0,0,0,1.14,1.14H39.56a1.14,1.14,0,0,0,1.14-1.14V10.45a1.13,1.13,0,0,0-1.14-1.13Z" style="fill:#3f8624"/><rect x="13.45" y="3.03" width="2" height="5.27" style="fill:#3f8624"/><rect x="18.73" y="3.03" width="2" height="5.27" style="fill:#3f8624"/><rect x="24" y="3.03" width="2" height="5.27" style="fill:#3f8624"/><rect x="29.27" y="3.03" width="2" height="5.27" style="fill:#3f8624"/><rect x="34.55" y="3.03" width="2" height="5.27" style="fill:#3f8624"/><rect x="13.45" y="41.7" width="2" height="5.27" style="fill:#3f8624"/><rect x="18.73" y="41.7" width="2" height="5.27" style="fill:#3f8624"/><rect x="24" y="41.7" width="2" height="5.27" style="fill:#3f8624"/><rect x="29.27" y="41.7" width="2" height="5.27" style="fill:#3f8624"/><rect x="34.55" y="41.7" width="2" height="5.27" style="fill:#3f8624"/><rect x="3.03" y="13.45" width="5.27" height="2" style="fill:#3f8624"/><rect x="3.03" y="18.73" width="5.27" height="2" style="fill:#3f8624"/><rect x="3.03" y="24" width="5.27" height="2" style="fill:#3f8624"/><rect x="3.03" y="29.27" width="5.27" height="2" style="fill:#3f8624"/><rect x="3.03" y="34.55" width="5.27" height="2" style="fill:#3f8624"/><rect x="41.7" y="13.45" width="5.27" height="2" style="fill:#3f8624"/><rect x="41.7" y="18.73" width="5.27" height="2" style="fill:#3f8624"/><rect x="41.7" y="24" width="5.27" height="2" style="fill:#3f8624"/><rect x="41.7" y="29.27" width="5.27" height="2" style="fill:#3f8624"/><rect x="41.7" y="34.55" width="5.27" height="2" style="fill:#3f8624"/><path d="M34.67,35.67H15.33a1,1,0,0,1-1-1V15.33a1,1,0,0,1,1-1H34.67a1,1,0,0,1,1,1V34.67A1,1,0,0,1,34.67,35.67Zm-18.34-2H33.67V16.33H16.33Z" style="fill:#3f8624"/><path d="M21.48,25.12a3.64,3.64,0,1,1,3.64-3.64A3.64,3.64,0,0,1,21.48,25.12Zm0-5.27a1.64,1.64,0,1,0,1.64,1.63A1.63,1.63,0,0,0,21.48,19.85Z" style="fill:#3f8624"/><rect x="24.12" y="20.48" width="9.67" height="2" style="fill:#3f8624"/><path d="M28.52,32.15a3.64,3.64,0,1,1,3.63-3.63A3.64,3.64,0,0,1,28.52,32.15Zm0-5.27a1.64,1.64,0,1,0,1.63,1.64A1.63,1.63,0,0,0,28.52,26.88Z" style="fill:#3f8624"/><rect x="16.21" y="27.52" width="10.55" height="2" style="fill:#3f8624"/></svg>