<svg id="Layer_1" data-name="Layer 1" xmlns="http://www.w3.org/2000/svg" width="50" height="50" viewBox="0 0 50 50"><title>IoT_HTTP-2-Protocol_light-bg</title><path d="M18.12,44.52V41H15.29v3.55H14.2v-7.8h1.09v3.37h2.83V36.72h1.09v7.8Z" style="fill:#3f8624"/><path d="M22.15,44.52V37.63H20.22v-.91h5v.91h-2v6.89Z" style="fill:#3f8624"/><path d="M27.78,44.52V37.63H25.84v-.91h5v.91H28.87v6.89Z" style="fill:#3f8624"/><path d="M32.87,41.49v3H31.81v-7.8H34.1a2,2,0,0,1,1.11.31,2,2,0,0,1,.73.84,2.86,2.86,0,0,1,.25,1.24,2.48,2.48,0,0,1-.58,1.73,1.94,1.94,0,0,1-1.51.65Zm0-.86H34a1,1,0,0,0,.82-.41,2.22,2.22,0,0,0,0-2.23,1,1,0,0,0-.82-.4H32.87Z" style="fill:#3f8624"/><path d="M36.26,46.14,39.31,36h1l-3,10.1Z" style="fill:#3f8624"/><path d="M41.4,37.31a3.81,3.81,0,0,1,1-.56,2.68,2.68,0,0,1,1-.17,1.74,1.74,0,0,1,1.35.54,2.24,2.24,0,0,1,.48,1.53,3.15,3.15,0,0,1-.2,1.06,7.22,7.22,0,0,1-.75,1.37c-.36.55-1,1.38-1.84,2.5h3.06v.94H41.23v-.85c.76-1,1.33-1.79,1.73-2.37a10.72,10.72,0,0,0,.86-1.47,2.8,2.8,0,0,0,.26-1.12c0-.78-.31-1.17-.91-1.17a3.42,3.42,0,0,0-1.77.72Z" style="fill:#3f8624"/><path d="M9.06,48.33H7.61A6.12,6.12,0,0,1,1.5,42.22V7.44A6.12,6.12,0,0,1,7.61,1.33H42.39A6.12,6.12,0,0,1,48.5,7.44v23h-2v-23a4.11,4.11,0,0,0-4.11-4.11H7.61A4.11,4.11,0,0,0,3.5,7.44V42.22a4.11,4.11,0,0,0,4.11,4.11H9.06Z" style="fill:#3f8624"/><path d="M48.5,48.33H10.88V32.27H48.5Zm-35.62-2H46.5V34.27H12.88Z" style="fill:#3f8624"/><polygon points="48.5 48.33 42.39 48.33 42.39 46.33 46.5 46.33 46.5 42.22 48.5 42.22 48.5 48.33" style="fill:#3f8624"/></svg>