<svg id="Layer_1" data-name="Layer 1" xmlns="http://www.w3.org/2000/svg" width="50" height="50" viewBox="0 0 50 50"><title>IoT_Certificate-Manager_light-bg</title><path d="M19.41,27.84a7.56,7.56,0,1,1,0-15.12,7.48,7.48,0,0,1,7,4.69h.89l1.41-1.52a1,1,0,0,1,1.46,0l1.42,1.52h.27l1.42-1.52a1,1,0,0,1,1.46,0l1.41,1.52h1.28a1.05,1.05,0,0,1,.64.22l2.28,1.88A1,1,0,0,1,40.4,21l-1.71,1.87a1,1,0,0,1-.74.33H26.36A7.48,7.48,0,0,1,19.41,27.84Zm0-13.12a5.56,5.56,0,1,0,5.29,7.15,1,1,0,0,1,1-.71H37.51l.7-.78-1.19-1H35.67a1,1,0,0,1-.73-.32L34,18l-1,1.05a1,1,0,0,1-.73.32H31.1a1,1,0,0,1-.73-.32l-1-1.05-1,1.05a1,1,0,0,1-.73.32h-2a1,1,0,0,1-1-.71A5.53,5.53,0,0,0,19.41,14.72Zm-2,8.56a3,3,0,1,1,3-3A3,3,0,0,1,17.41,23.28Zm0-4a1,1,0,1,0,1,1A1,1,0,0,0,17.41,19.28Z" style="fill:#3f8624"/><path d="M26,38.16A18.35,18.35,0,1,1,44.31,19.81,18.37,18.37,0,0,1,26,38.16ZM26,3.47A16.35,16.35,0,1,0,42.31,19.81,16.37,16.37,0,0,0,26,3.47Z" style="fill:#3f8624"/><path d="M33.47,48.94a1,1,0,0,1-.57-.18L26,44,19,48.76a1,1,0,0,1-1,.06,1,1,0,0,1-.53-.88V37.16h2V46L25.4,42a1,1,0,0,1,1.14,0L32.47,46V37.16h2V47.94a1,1,0,0,1-.54.88A.93.93,0,0,1,33.47,48.94Z" style="fill:#3f8624"/></svg>