<svg id="Layer_1" data-name="Layer 1" xmlns="http://www.w3.org/2000/svg" width="50" height="50" viewBox="0 0 50 50"><title>IoT_Device-Gateway_light-bg</title><path d="M34,32V16.08a1,1,0,0,0-1-1H17a1,1,0,0,0-1,1V32a1,1,0,0,0,1,1H33A1,1,0,0,0,34,32ZM18,31V28.29h6.84a3.11,3.11,0,1,0,0-2H18V17.08H32v2.73H25.13a3.11,3.11,0,1,0,0,2H32V31Zm8.67-3.69a1.11,1.11,0,1,1,1.11,1.11A1.11,1.11,0,0,1,26.7,27.33Zm-3.4-6.56a1.11,1.11,0,1,1-1.11-1.11A1.11,1.11,0,0,1,23.3,20.77Z" style="fill:#3f8624"/><path d="M13.55,10h3V8h-3V3.49a1,1,0,0,0-.61-.92,1,1,0,0,0-1.09.22L2,12.62a1,1,0,0,0-.29.71l0,25.07a1,1,0,0,0,.48.86L12,45.12a1.06,1.06,0,0,0,.51.14,1,1,0,0,0,.5-.13,1,1,0,0,0,.5-.87V40h3V38h-3Zm-2,32.52L3.7,37.83l0-24.09,7.83-7.83Z" style="fill:#3f8624"/><path d="M48,12.65,38.15,2.79a1,1,0,0,0-1.7.7V8h-2.9v2h2.9V38h-2.9v2h2.9v4.3a1,1,0,0,0,.5.87,1,1,0,0,0,.5.13,1.06,1.06,0,0,0,.51-.14l9.83-5.83a1,1,0,0,0,.49-.86l0-25.07A1,1,0,0,0,48,12.65ZM46.28,37.86,38.45,42.5V5.91l7.85,7.86Z" style="fill:#3f8624"/><rect x="26.55" y="37.96" width="4" height="2" style="fill:#3f8624"/><rect x="19.55" y="37.96" width="4" height="2" style="fill:#3f8624"/><rect x="26.55" y="7.98" width="4" height="2" style="fill:#3f8624"/><rect x="19.55" y="7.98" width="4" height="2" style="fill:#3f8624"/></svg>