<svg id="Layer_1" data-name="Layer 1" xmlns="http://www.w3.org/2000/svg" width="50" height="50" viewBox="0 0 50 50"><title>IoT_Sensor_light-bg</title><path d="M38.33,28.87H27.81v-2H38.25c.15,0,5.64-.56,5.64-6.15,0-4.7-3.93-5.87-5.62-6.15a1,1,0,0,1-.83-1.1c-.2-2.85-1.89-4.17-3.48-4.17a3.19,3.19,0,0,0-2.54,1.33,1,1,0,0,1-1,.4,1,1,0,0,1-.8-.66,11,11,0,0,0-2.54-4.14,9.1,9.1,0,0,0-10.26-2,9.46,9.46,0,0,0-5.37,8.25,11.13,11.13,0,0,0,.06,1.13,1,1,0,0,1-.74,1.08,5.8,5.8,0,0,0-4.71,6c0,.19,0,.36,0,.53a6.22,6.22,0,0,0,6.34,5.65h9.73v2H12.46a8.22,8.22,0,0,1-8.33-7.54c0-.22,0-.42,0-.64A7.73,7.73,0,0,1,9.51,13c0-.18,0-.35,0-.52a11.47,11.47,0,0,1,6.59-10.1A11.08,11.08,0,0,1,28.53,4.82,12.16,12.16,0,0,1,31,8.3a5,5,0,0,1,3-1c2.3,0,4.89,1.71,5.41,5.45,3.28.81,6.52,3.26,6.52,8A8,8,0,0,1,38.33,28.87Z" style="fill:#3f8624"/><path d="M45.62,48.57H4.38a1,1,0,0,1-1-1V35.38a1,1,0,0,1,1-1H45.62a1,1,0,0,1,1,1V47.57A1,1,0,0,1,45.62,48.57Zm-40.24-2H44.62V36.38H5.38Z" style="fill:#3f8624"/><path d="M11.41,45a3.53,3.53,0,1,1,3.53-3.53A3.53,3.53,0,0,1,11.41,45Zm0-5.06a1.53,1.53,0,1,0,1.53,1.53A1.53,1.53,0,0,0,11.41,39.94Z" style="fill:#3f8624"/><path d="M28.75,44.75h-7.5a1,1,0,0,1-.8-1.59l3.75-5.09a1,1,0,0,1,1.6,0l3.75,5.09a1,1,0,0,1-.8,1.59Zm-5.52-2h3.54L25,40.35Z" style="fill:#3f8624"/><path d="M28,23.9l-3-3-3,3-1.42-1.41,3.75-3.75a1,1,0,0,1,1.42,0l3.75,3.75Z" style="fill:#3f8624"/><rect x="24" y="19.89" width="2" height="14.48" style="fill:#3f8624"/></svg>