<svg version="1.1" width="80.000000" height="100.000000" viewBox="0.000000 0.000000 80.000000 100.000000" xmlns="http://www.w3.org/2000/svg" xmlns:xlink="http://www.w3.org/1999/xlink" overflow="hidden"><g id="CARDS"><rect x="1.000000" y="1.000000" width="78.000000" height="78.000000" fill="#232F3E"/><path d=" M 0.000000 0.000000 L 0.000000 80.000000 L 0.000000 80.000000 L 0.000000 100.000000 L 80.000000 100.000000 L 80.000000 80.000000 L 80.000000 80.000000 L 80.000000 0.000000 Z M 1.000000 1.000000 L 79.000000 1.000000 L 79.000000 79.000000 L 1.000000 79.000000 Z" fill="#FFFFFF"/></g><g id="TEXT_-_EDIT"><path d=" M 12.810000 92.349998 L 12.370000 90.529999 L 10.370000 90.529999 L 10.000000 92.349998 L 8.180000 92.349998 L 10.500000 84.720001 L 12.360000 84.720001 L 14.660000 92.349998 Z M 10.630000 89.430000 L 12.120000 89.430000 L 11.360000 86.269997 Z" fill="#232F3E"/><path d=" M 20.000000 92.349998 L 19.059999 86.720001 L 18.170000 92.349998 L 16.309999 92.349998 L 14.530000 84.720001 L 16.230000 84.720001 L 17.290001 90.779999 L 18.209999 85.000000 L 20.000000 85.000000 L 21.000000 90.680000 L 22.000000 84.680000 L 23.660000 84.680000 L 21.879999 92.309998 Z" fill="#232F3E"/><path d=" M 26.000000 89.000000 C 25.505400 88.768761 25.070801 88.426559 24.730000 88.000000 C 24.467676 87.644348 24.330536 87.211830 24.340000 86.769997 C 24.328890 86.354126 24.447741 85.945145 24.680000 85.599998 C 24.905703 85.259720 25.225288 84.992241 25.600000 84.830002 C 26.021814 84.643929 26.479042 84.551804 26.940001 84.560005 C 27.592911 84.562904 28.238741 84.695473 28.840000 84.950005 L 28.840000 86.120003 C 28.284803 85.917786 27.700649 85.806358 27.110001 85.790001 C 26.828348 85.776108 26.550177 85.857094 26.320000 86.020004 C 26.123201 86.172058 26.014576 86.411781 26.029999 86.660004 C 26.020494 86.863945 26.088354 87.063950 26.219999 87.220001 C 26.421879 87.426239 26.663387 87.589516 26.929998 87.700005 L 27.580000 88.019997 C 27.936050 88.187546 28.271599 88.395592 28.580000 88.639999 C 28.808786 88.827263 28.993212 89.062912 29.120001 89.330002 C 29.239376 89.621704 29.297249 89.934906 29.290001 90.250000 C 29.320263 90.886475 29.045427 91.499283 28.550001 91.900002 C 27.974478 92.329575 27.267298 92.545265 26.550001 92.510002 C 26.170174 92.509636 25.791433 92.469414 25.420002 92.389999 C 25.090471 92.326210 24.770966 92.218590 24.470001 92.070000 L 24.469999 90.919998 C 24.797016 91.026825 25.131186 91.110367 25.469999 91.169998 C 25.799202 91.237587 26.133976 91.274414 26.469999 91.279999 C 26.783754 91.304230 27.095844 91.215561 27.349998 91.029999 C 27.556395 90.853905 27.667591 90.590736 27.649998 90.320000 C 27.656086 90.107033 27.581020 89.899704 27.439999 89.739998 C 27.232323 89.543411 26.992088 89.384384 26.730000 89.269997 Z" fill="#232F3E"/><path d=" M 33.080002 92.349998 L 33.080002 84.720001 L 34.770000 84.720001 L 34.770000 92.349998 Z" fill="#232F3E"/><path d=" M 38.580002 92.489998 C 37.880714 92.530975 37.201679 92.246811 36.740002 91.720001 C 35.860847 90.395988 35.860847 88.674019 36.740002 87.349998 C 37.738827 86.333794 39.372334 86.319710 40.388538 87.318535 C 40.399117 87.328934 40.409607 87.339424 40.420002 87.349998 C 41.286018 88.677948 41.286018 90.392044 40.420002 91.720001 C 39.956539 92.244324 39.278770 92.527962 38.580002 92.489998 Z M 38.580002 91.339996 C 38.864494 91.352325 39.123890 91.178047 39.220001 90.909996 C 39.486797 90.016144 39.486797 89.063843 39.220001 88.169998 C 39.127373 87.897995 38.867138 87.719078 38.580002 87.729996 C 38.291111 87.721107 38.029083 87.898483 37.930000 88.169998 C 37.674866 89.065514 37.674866 90.014481 37.930000 90.909996 C 38.032440 91.177567 38.293682 91.350380 38.580002 91.339996 Z" fill="#232F3E"/><path d=" M 43.650002 92.349998 L 43.650002 85.940002 L 41.650002 85.940002 L 41.650002 84.720001 L 47.340000 84.720001 L 47.340000 85.940002 L 45.340000 85.940002 L 45.340000 92.349998 Z" fill="#232F3E"/><path d=" M 55.770000 92.129997 C 55.205158 92.360497 54.600033 92.476082 53.990002 92.469994 C 51.743336 92.470001 50.616665 91.169998 50.610001 88.570000 C 50.543915 87.513390 50.855843 86.467720 51.490002 85.620003 C 52.139339 84.922134 53.069008 84.554680 54.020000 84.620003 C 54.583656 84.618950 55.142788 84.720612 55.670002 84.920006 L 55.669998 86.129997 C 55.202049 85.991005 54.717960 85.913689 54.230000 85.899994 C 53.690453 85.854988 53.164413 86.084198 52.829998 86.509995 C 52.485199 87.091789 52.328068 87.765701 52.379997 88.439995 L 52.380001 88.690002 C 52.329350 89.353394 52.482887 90.016403 52.820000 90.590004 C 53.141361 91.015427 53.658813 91.245827 54.189999 91.200005 C 54.724766 91.173027 55.254784 91.085808 55.770000 90.940002 Z" fill="#232F3E"/><path d=" M 59.000000 92.489998 C 58.300713 92.530975 57.621677 92.246811 57.160000 91.720001 C 56.280846 90.395988 56.280846 88.674019 57.160000 87.349998 C 58.158825 86.333794 59.792332 86.319710 60.808537 87.318535 C 60.819115 87.328934 60.829605 87.339424 60.840000 87.349998 C 61.706017 88.677948 61.706017 90.392044 60.840000 91.720001 C 60.376537 92.244324 59.698769 92.527962 59.000000 92.489998 Z M 59.000000 91.339996 C 59.284492 91.352325 59.543888 91.178047 59.639999 90.909996 C 59.906796 90.016144 59.906796 89.063843 59.639999 88.169998 C 59.547371 87.897995 59.287136 87.719078 59.000000 87.729996 C 58.711109 87.721107 58.449081 87.898483 58.349998 88.169998 C 58.094864 89.065514 58.094864 90.014481 58.349998 90.909996 C 58.452438 91.177567 58.713680 91.350380 59.000000 91.339996 Z" fill="#232F3E"/><path d=" M 62.650002 92.349998 L 62.650002 86.720001 L 64.000000 86.720001 L 64.180000 87.449997 C 64.380951 87.209991 64.625183 87.009857 64.900002 86.860001 C 65.128914 86.731735 65.387634 86.666191 65.650002 86.669998 C 65.776459 86.659698 65.903542 86.659698 66.029999 86.669998 L 66.029999 88.000000 C 65.820236 87.985909 65.609764 87.985909 65.400002 88.000000 C 65.018166 88.000481 64.641640 88.089478 64.300003 88.260002 L 64.300003 92.370003 Z" fill="#232F3E"/><path d=" M 68.000000 89.919998 C 67.988945 90.311180 68.116447 90.693687 68.360001 91.000000 C 68.655563 91.246262 69.036880 91.364975 69.419998 91.330002 C 69.649200 91.323997 69.877129 91.293831 70.099998 91.240005 C 70.371529 91.190041 70.638939 91.119843 70.900002 91.030006 L 70.900002 92.029999 C 70.641762 92.177193 70.361511 92.281868 70.070000 92.339996 C 69.741478 92.411812 69.406281 92.448685 69.070000 92.449997 C 67.349998 92.449997 66.489998 91.449997 66.489998 89.500000 C 66.435509 88.713959 66.662361 87.934151 67.129997 87.300003 C 67.603401 86.776337 68.297646 86.509033 69.000000 86.580002 C 70.370003 86.580002 71.050003 87.339996 71.050003 88.870003 C 71.049133 89.206871 71.008858 89.542488 70.930000 89.870003 Z M 68.910004 87.599998 C 68.330002 87.599998 68.029999 88.059998 68.000000 88.970001 L 69.610001 88.970001 L 69.610001 88.720001 C 69.635040 88.423065 69.576134 88.125076 69.440002 87.860001 C 69.322510 87.684830 69.120445 87.585701 68.910004 87.599998 Z" fill="#232F3E"/></g><g id="ICONS_-_EDIT"><path d=" M 25.440001 49.860001 L 25.309999 49.860001 C 19.588394 49.832890 14.972095 45.172634 14.999207 39.451027 C 15.019062 35.260799 17.561119 31.495142 21.440001 29.910002 C 21.776594 22.528101 28.033670 16.816753 35.415569 17.153347 C 40.305183 17.376299 44.682823 20.251402 46.829998 24.650002 C 47.895821 23.989630 49.126194 23.643045 50.379997 23.650002 C 53.918350 23.662008 56.848774 26.400558 57.099998 29.930002 C 61.691051 30.792925 65.012901 34.808575 65.000000 39.480003 C 65.031334 42.071159 63.936813 44.548428 62.000000 46.270004 L 60.630001 44.810001 C 62.136780 43.481182 62.999985 41.569016 63.000000 39.560001 L 63.000000 39.459999 C 63.011337 35.470253 59.973244 32.132690 56.000000 31.769999 C 55.463337 31.722292 55.060944 31.257994 55.090000 30.719999 L 55.090000 30.600000 C 55.094975 30.530088 55.094975 30.459911 55.090000 30.390001 C 55.115463 27.783342 53.022991 25.649584 50.416332 25.624121 C 49.176441 25.612009 47.981583 26.088282 47.090000 26.950001 C 46.692074 27.332977 46.059025 27.320858 45.676044 26.922930 C 45.581375 26.824566 45.507851 26.707859 45.459999 26.580000 C 43.290054 20.681477 36.749271 17.658865 30.850748 19.828808 C 26.349880 21.484583 23.370090 25.784325 23.400000 30.580000 C 23.399681 31.012573 23.121264 31.395903 22.709999 31.530001 C 18.324814 32.974915 15.941255 37.701141 17.386168 42.086327 C 18.511433 45.501404 21.694345 47.814411 25.289999 47.830002 L 25.420000 47.830002 Z" fill="#FFFFFF"/><rect x="43.040000" y="40.730000" width="2.000000" height="24.130000" fill="#FFFFFF"/><path d=" M 41.000000 64.860001 L 39.000000 64.860001 L 39.000000 49.860001 L 36.090000 49.860001 L 36.090000 47.860001 L 40.000000 47.860001 C 40.552284 47.860001 41.000000 48.307716 41.000000 48.860001 Z" fill="#FFFFFF"/><path d=" M 49.000000 64.860001 L 47.000000 64.860001 L 47.000000 48.860001 C 47.000000 48.307716 47.447716 47.860001 48.000000 47.860001 L 52.000000 47.860001 L 52.000000 49.860001 L 49.000000 49.860001 Z" fill="#FFFFFF"/><path d=" M 44.000000 41.730000 C 41.652790 41.730000 39.750000 39.827209 39.750000 37.480000 C 39.750000 35.132790 41.652790 33.230000 44.000000 33.230000 C 46.347210 33.230000 48.250000 35.132790 48.250000 37.480000 C 48.250000 39.827209 46.347210 41.730000 44.000000 41.730000 Z M 44.000000 35.230000 C 42.757359 35.230000 41.750000 36.237358 41.750000 37.480000 C 41.750000 38.722641 42.757359 39.730000 44.000000 39.730000 C 45.242641 39.730000 46.250000 38.722641 46.250000 37.480000 C 46.250000 36.237358 45.242641 35.230000 44.000000 35.230000 Z" fill="#FFFFFF"/><path d=" M 32.840000 53.110001 C 30.492790 53.110001 28.590000 51.207211 28.590000 48.860001 C 28.590000 46.512791 30.492790 44.610001 32.840000 44.610001 C 35.187210 44.610001 37.090000 46.512791 37.090000 48.860001 C 37.084503 51.204929 35.184929 53.104504 32.840000 53.110001 Z M 32.840000 46.610001 C 31.597359 46.610001 30.590000 47.617359 30.590000 48.860001 C 30.590000 50.102642 31.597359 51.110001 32.840000 51.110001 C 34.082642 51.110001 35.090000 50.102642 35.090000 48.860001 C 35.090000 47.617359 34.082642 46.610001 32.840000 46.610001 Z" fill="#FFFFFF"/><path d=" M 55.240002 53.110001 C 52.892792 53.110001 50.990002 51.207211 50.990002 48.860001 C 50.990002 46.512791 52.892792 44.610001 55.240002 44.610001 C 57.587212 44.610001 59.490002 46.512791 59.490002 48.860001 C 59.484505 51.204929 57.584930 53.104504 55.240002 53.110001 Z M 55.240002 46.610001 C 53.997360 46.610001 52.990002 47.617359 52.990002 48.860001 C 52.990002 50.102642 53.997360 51.110001 55.240002 51.110001 C 56.482643 51.110001 57.490002 50.102642 57.490002 48.860001 C 57.484524 47.619637 56.480366 46.615479 55.240002 46.610001 Z" fill="#FFFFFF"/><path d=" M 44.000000 60.860001 C 42.508793 60.865101 41.029873 60.590347 39.639999 60.049999 C 36.176830 58.717163 33.501282 55.890930 32.360001 52.360001 L 34.259998 51.759998 C 35.987625 57.139252 41.748890 60.099480 47.128143 58.371853 C 50.269325 57.363014 52.731159 54.901180 53.739998 51.759998 L 55.639999 52.360001 C 54.497845 55.893803 51.817810 58.720886 48.349998 60.049999 C 46.963848 60.591183 45.488037 60.865986 44.000000 60.860001 Z M 34.200001 45.689999 L 32.279999 45.110001 C 33.454895 41.184597 36.518932 38.109295 40.439999 36.920002 L 41.029999 38.830002 C 37.762371 39.838093 35.214523 42.412205 34.239998 45.690002 Z M 53.799999 45.689999 C 52.831200 42.403160 50.276741 39.822407 47.000000 38.820000 L 47.570000 36.900002 C 51.523670 38.071384 54.619003 41.159195 55.799999 45.110001 Z" fill="#FFFFFF"/></g></svg>